<svg width="354" height="130" viewBox="0 0 354 130" fill="none" xmlns="http://www.w3.org/2000/svg">
<path d="M14.6889 8.95737C17.1844 8.95737 19.1242 9.4935 20.5084 10.5658C21.8926 11.6185 22.5847 13.1782 22.5847 15.2447C22.5847 17.4672 21.8926 19.1536 20.5084 20.3039C19.1242 21.4346 17.1844 22 14.6889 22H2.28967V1.23707H20.7131V6.38393H8.25536V8.95737H14.6889ZM14.1918 13.6363H8.25536V16.8531H14.1918C15.693 16.8531 16.4436 16.317 16.4436 15.2447C16.4436 14.1725 15.693 13.6363 14.1918 13.6363ZM26.1072 22V1.23707H44.0043V6.06226H32.1021V8.78191H39.1791V13.7241H32.1021V16.9116H45.1447V22H26.1072ZM57.4394 22.3509C54.2616 22.3509 51.6589 21.3469 49.6314 19.3388C47.6233 17.3113 46.6193 14.7378 46.6193 11.6185C46.6193 8.47972 47.6233 5.90629 49.6314 3.89823C51.6589 1.89017 54.2616 0.886143 57.4394 0.886143C58.7846 0.886143 60.0128 1.07135 61.1241 1.44177C62.2548 1.79269 63.1711 2.2411 63.873 2.78698C64.5943 3.31336 65.2182 3.92747 65.7446 4.62932C66.2709 5.31167 66.6511 5.94528 66.8851 6.53015C67.1385 7.11502 67.3042 7.67065 67.3822 8.19704H61.2995C60.4612 6.89082 59.1745 6.23772 57.4394 6.23772C55.9967 6.23772 54.8465 6.75435 53.9886 7.78763C53.1503 8.8014 52.7312 10.0784 52.7312 11.6185C52.7312 13.1587 53.1503 14.4454 53.9886 15.4787C54.8465 16.4925 55.9967 16.9994 57.4394 16.9994C59.194 16.9994 60.4905 16.356 61.3288 15.0693H67.3822C67.3042 15.5177 67.158 16.0246 66.9435 16.5899C66.7291 17.1358 66.3587 17.7597 65.8323 18.4615C65.3254 19.1634 64.721 19.797 64.0192 20.3624C63.3173 20.9082 62.3913 21.3761 61.2411 21.7661C60.0908 22.156 58.8236 22.3509 57.4394 22.3509ZM70.6865 22V1.23707H91.2447V22H85.2498V6.44242H76.6814V22H70.6865ZM95.6178 22V1.23707H108.368C110.805 1.23707 112.696 1.84143 114.041 3.05017C115.406 4.23941 116.088 5.98427 116.088 8.28477C116.088 10.5658 115.406 12.3106 114.041 13.5194C112.696 14.7281 110.805 15.3325 108.368 15.3325H101.583V22H95.6178ZM107.637 6.38393H101.583V10.1856H107.637C109.177 10.1856 109.947 9.55199 109.947 8.28477C109.947 7.01755 109.177 6.38393 107.637 6.38393ZM129.642 22.3509C126.445 22.3509 123.784 21.3566 121.658 19.3681C119.553 17.3795 118.5 14.7963 118.5 11.6185C118.5 8.40174 119.553 5.80881 121.658 3.83974C123.784 1.87068 126.445 0.886143 129.642 0.886143C132.839 0.886143 135.491 1.87068 137.596 3.83974C139.721 5.80881 140.784 8.40174 140.784 11.6185C140.784 14.7963 139.721 17.3795 137.596 19.3681C135.471 21.3566 132.82 22.3509 129.642 22.3509ZM125.957 15.5079C126.874 16.5217 128.102 17.0286 129.642 17.0286C131.182 17.0286 132.41 16.5217 133.327 15.5079C134.243 14.4747 134.701 13.1782 134.701 11.6185C134.701 10.0589 134.243 8.77216 133.327 7.75838C132.41 6.72511 131.182 6.20847 129.642 6.20847C128.102 6.20847 126.874 6.72511 125.957 7.75838C125.041 8.77216 124.583 10.0589 124.583 11.6185C124.583 13.1782 125.041 14.4747 125.957 15.5079ZM144.252 22V1.23707H150.247V13.7533L159.401 1.23707H165.395V22H159.401V9.54224L150.247 22H144.252ZM169.783 22V1.23707H188.47V6.38393H175.778V22H169.783ZM191.545 22V1.23707H204.295C206.732 1.23707 208.623 1.84143 209.968 3.05017C211.333 4.23941 212.015 5.98427 212.015 8.28477C212.015 10.5658 211.333 12.3106 209.968 13.5194C208.623 14.7281 206.732 15.3325 204.295 15.3325H197.51V22H191.545ZM203.564 6.38393H197.51V10.1856H203.564C205.104 10.1856 205.874 9.55199 205.874 8.28477C205.874 7.01755 205.104 6.38393 203.564 6.38393ZM227.616 7.31973C230.15 7.31973 232.119 7.94359 233.523 9.19132C234.927 10.439 235.629 12.2619 235.629 14.6599C235.629 17.0578 234.927 18.8807 233.523 20.1284C232.119 21.3761 230.15 22 227.616 22H215.334V1.23707H221.299V7.31973H227.616ZM237.529 22V1.23707H243.524V22H237.529ZM226.826 12.4666H221.299V16.8531H226.826C228.6 16.8531 229.488 16.122 229.488 14.6599C229.488 13.1977 228.6 12.4666 226.826 12.4666ZM247.919 1.23707H253.913V16.7946H259.821V1.23707H265.816V16.7946H271.723V1.23707H277.718V22H247.919V1.23707ZM282.103 22V1.23707H288.098V9.01586H296.958V1.23707H302.953V22H296.958V14.2212H288.098V22H282.103ZM323.11 22L321.911 19.0756H312.729L311.53 22H305.447L314.308 1.23707H320.771L329.573 22H323.11ZM314.776 14.1627H319.864L317.32 7.96309L314.776 14.1627ZM337.344 22H331.027L335.589 13.9873C334.244 13.5194 333.201 12.7883 332.46 11.794C331.719 10.7802 331.349 9.54224 331.349 8.08006C331.349 5.87705 332.031 4.19067 333.396 3.02092C334.761 1.83169 336.623 1.23707 338.982 1.23707H351.703V22H345.708V14.7768H341.409L337.344 22ZM339.742 9.80543H345.708V6.2962H339.742C338.241 6.2962 337.49 6.88108 337.49 8.05082C337.49 9.22056 338.241 9.80543 339.742 9.80543ZM118.64 51.3509C115.462 51.3509 112.859 50.3469 110.832 48.3388C108.823 46.3113 107.819 43.7378 107.819 40.6185C107.819 37.4797 108.823 34.9063 110.832 32.8982C112.859 30.8902 115.462 29.8861 118.64 29.8861C119.985 29.8861 121.213 30.0714 122.324 30.4418C123.455 30.7927 124.371 31.2411 125.073 31.787C125.794 32.3134 126.418 32.9275 126.945 33.6293C127.471 34.3117 127.851 34.9453 128.085 35.5302C128.339 36.115 128.504 36.6707 128.582 37.197H122.5C121.661 35.8908 120.375 35.2377 118.64 35.2377C117.197 35.2377 116.047 35.7544 115.189 36.7876C114.35 37.8014 113.931 39.0784 113.931 40.6185C113.931 42.1587 114.35 43.4454 115.189 44.4787C116.047 45.4925 117.197 45.9994 118.64 45.9994C120.394 45.9994 121.691 45.356 122.529 44.0693H128.582C128.504 44.5177 128.358 45.0246 128.144 45.5899C127.929 46.1358 127.559 46.7597 127.032 47.4615C126.526 48.1634 125.921 48.797 125.219 49.3624C124.518 49.9082 123.591 50.3761 122.441 50.7661C121.291 51.156 120.024 51.3509 118.64 51.3509ZM138.002 51V35.3839H130.486V30.2371H151.483V35.3839H143.968V51H138.002ZM167.897 51L166.698 48.0756H157.515L156.316 51H150.234L159.094 30.2371H165.557L174.36 51H167.897ZM159.562 43.1627H164.651L162.106 36.9631L159.562 43.1627ZM176.837 51V30.2371H189.704C191.927 30.2371 193.643 30.7537 194.851 31.787C196.06 32.8008 196.664 34.1655 196.664 35.8811C196.664 36.8754 196.391 37.7234 195.846 38.4253C195.319 39.1271 194.666 39.6535 193.886 40.0044C194.842 40.3553 195.631 40.9597 196.255 41.8175C196.898 42.6753 197.22 43.7671 197.22 45.0928C197.22 46.9254 196.586 48.3681 195.319 49.4208C194.052 50.4736 192.239 51 189.88 51H176.837ZM188.535 34.916H182.715V38.0159H188.535C189.88 38.0159 190.552 37.4992 190.552 36.4659C190.552 35.4327 189.88 34.916 188.535 34.916ZM188.622 42.6948H182.715V46.321H188.622C190.26 46.321 191.079 45.7167 191.079 44.5079C191.079 43.2992 190.26 42.6948 188.622 42.6948ZM200.655 51V30.2371H206.65V38.8932L214.955 30.2371H222.617L213.083 40.1506L223.055 51H214.955L206.65 41.9345V51H200.655ZM240.72 51L239.521 48.0756H230.339L229.14 51H223.057L231.918 30.2371H238.381L247.183 51H240.72ZM232.386 43.1627H237.474L234.93 36.9631L232.386 43.1627Z" fill="#06DCFF"/>
<path d="M19.9439 93.9421H36.8467V109.5H39.771V119.443H34.361V114.705H20.4703V119.443H15.0602V109.5H17.1365C17.9748 108.018 18.5597 105.835 18.8911 102.949L19.9439 93.9421ZM30.8517 109.5V99.1475H24.9153L24.4474 103.154C24.1355 105.844 23.6091 107.96 22.8683 109.5H30.8517ZM52.5023 115.056C49.305 115.056 46.6438 114.062 44.5188 112.073C42.4132 110.085 41.3605 107.501 41.3605 104.324C41.3605 101.107 42.4132 98.5139 44.5188 96.5448C46.6438 94.5758 49.305 93.5912 52.5023 93.5912C55.6996 93.5912 58.351 94.5758 60.4565 96.5448C62.5815 98.5139 63.6441 101.107 63.6441 104.324C63.6441 107.501 62.5815 110.085 60.4565 112.073C58.3315 114.062 55.6801 115.056 52.5023 115.056ZM48.8176 108.213C49.7339 109.227 50.9621 109.734 52.5023 109.734C54.0424 109.734 55.2707 109.227 56.187 108.213C57.1033 107.18 57.5614 105.883 57.5614 104.324C57.5614 102.764 57.1033 101.477 56.187 100.463C55.2707 99.4302 54.0424 98.9136 52.5023 98.9136C50.9621 98.9136 49.7339 99.4302 48.8176 100.463C47.9013 101.477 47.4431 102.764 47.4431 104.324C47.4431 105.883 47.9013 107.18 48.8176 108.213Z" fill="#06DCFF"/>
<path d="M88.6519 103.058C89.644 103.835 91.0891 104.223 92.9871 104.223C94.8851 104.223 96.3302 103.878 97.3224 103.188C98.3145 102.454 98.8106 101.484 98.8106 100.276C98.8106 97.9465 97.5596 96.7818 95.0577 96.7818H85.4167V85.782H93.9577C96.3302 85.782 97.5165 84.7899 97.5165 82.8056C97.5165 81.5978 97.0635 80.6703 96.1577 80.0233C95.2949 79.3331 94.0655 78.988 92.4695 78.988C89.6225 78.988 87.8539 80.088 87.1637 82.2879H74.3521C74.4815 78.4919 76.0992 75.1704 79.205 72.3234C82.354 69.4332 86.7755 67.9882 92.4695 67.9882C98.2498 67.9882 102.714 69.1529 105.863 71.4822C109.012 73.8116 110.587 77.1547 110.587 81.5115C110.587 83.7115 110.005 85.5448 108.84 87.0114C107.718 88.478 106.359 89.5349 104.763 90.1819C106.748 90.7858 108.452 91.9937 109.875 93.8054C111.299 95.574 112.01 98.0112 112.01 101.117C112.01 105.517 110.328 109.011 106.963 111.599C103.599 114.187 98.9615 115.482 93.0518 115.482C89.8597 115.482 86.9911 115.007 84.4461 114.058C81.901 113.109 79.8952 111.88 78.4285 110.37C77.005 108.86 75.905 107.286 75.1286 105.646C74.3521 103.964 73.9208 102.282 73.8345 100.599H86.9049C87.0774 101.419 87.6598 102.239 88.6519 103.058ZM139.914 72.5822C143.193 69.4332 147.7 67.8588 153.438 67.8588C159.175 67.8588 163.683 69.4332 166.961 72.5822C170.239 75.688 171.879 79.9154 171.879 85.2644V98.2053C171.879 103.554 170.239 107.803 166.961 110.952C163.683 114.058 159.175 115.611 153.438 115.611C147.7 115.611 143.193 114.058 139.914 110.952C136.636 107.803 134.997 103.554 134.997 98.2053V85.2644C134.997 79.9154 136.636 75.688 139.914 72.5822ZM149.297 102.282C150.246 103.403 151.626 103.964 153.438 103.964C155.249 103.964 156.608 103.403 157.514 102.282C158.463 101.16 158.938 99.672 158.938 97.8171V85.6526C158.938 83.7977 158.463 82.3095 157.514 81.188C156.608 80.0664 155.249 79.5056 153.438 79.5056C151.626 79.5056 150.246 80.0664 149.297 81.188C148.391 82.3095 147.938 83.7977 147.938 85.6526V97.8171C147.938 99.672 148.391 101.16 149.297 102.282ZM185.347 72.5822C188.625 69.4332 193.133 67.8588 198.87 67.8588C204.607 67.8588 209.115 69.4332 212.393 72.5822C215.672 75.688 217.311 79.9154 217.311 85.2644V98.2053C217.311 103.554 215.672 107.803 212.393 110.952C209.115 114.058 204.607 115.611 198.87 115.611C193.133 115.611 188.625 114.058 185.347 110.952C182.068 107.803 180.429 103.554 180.429 98.2053V85.2644C180.429 79.9154 182.068 75.688 185.347 72.5822ZM194.729 102.282C195.678 103.403 197.058 103.964 198.87 103.964C200.682 103.964 202.041 103.403 202.946 102.282C203.895 101.16 204.37 99.672 204.37 97.8171V85.6526C204.37 83.7977 203.895 82.3095 202.946 81.188C202.041 80.0664 200.682 79.5056 198.87 79.5056C197.058 79.5056 195.678 80.0664 194.729 81.188C193.823 82.3095 193.37 83.7977 193.37 85.6526V97.8171C193.37 99.672 193.823 101.16 194.729 102.282ZM230.779 72.5822C234.058 69.4332 238.565 67.8588 244.302 67.8588C250.04 67.8588 254.547 69.4332 257.826 72.5822C261.104 75.688 262.743 79.9154 262.743 85.2644V98.2053C262.743 103.554 261.104 107.803 257.826 110.952C254.547 114.058 250.04 115.611 244.302 115.611C238.565 115.611 234.058 114.058 230.779 110.952C227.501 107.803 225.862 103.554 225.862 98.2053V85.2644C225.862 79.9154 227.501 75.688 230.779 72.5822ZM240.161 102.282C241.11 103.403 242.491 103.964 244.302 103.964C246.114 103.964 247.473 103.403 248.379 102.282C249.328 101.16 249.802 99.672 249.802 97.8171V85.6526C249.802 83.7977 249.328 82.3095 248.379 81.188C247.473 80.0664 246.114 79.5056 244.302 79.5056C242.491 79.5056 241.11 80.0664 240.161 81.188C239.255 82.3095 238.803 83.7977 238.803 85.6526V97.8171C238.803 99.672 239.255 101.16 240.161 102.282ZM284.825 108.17V100.146H291.619V97.2995H284.825V89.2761H291.619V68.7646H319.183C324.489 68.7646 328.652 70.0372 331.671 72.5822C334.734 75.0841 336.265 78.5782 336.265 83.0644C336.265 87.8526 334.777 91.4329 331.801 93.8054C328.824 96.1779 324.618 97.3642 319.183 97.3642H304.819V100.146H327.724V108.17H304.819V114.705H291.619V108.17H284.825ZM317.566 80.1527H304.819V88.5643H317.566C320.973 88.5643 322.677 87.1624 322.677 84.3585C322.677 81.5546 320.973 80.1527 317.566 80.1527Z" fill="white"/>
<path d="M338.226 65.3816H340.086L340.073 67.1745L341.677 66.5813L342.297 68.2394L340.558 68.8595L341.798 70.2884L340.329 71.4342L339.156 70.0323L337.984 71.4477L336.514 70.3019L337.754 68.8595L336.015 68.2394L336.635 66.5813L338.24 67.1745L338.226 65.3816Z" fill="white"/>
</svg>
