<svg xmlns="http://www.w3.org/2000/svg" width="32" height="32" viewBox="0 0 32 32"><g><g><g><path d="M29.701 29.703c-.373.373-1.068.522-2.001-.412L22.408 24l1.586-1.586 5.291 5.292c.947.948.738 1.676.416 1.998zm-10.055-8.467a12.098 12.098 0 0 0 1.586-1.586L22.58 21l-1.586 1.585zM7.998 14.999a1.001 1.001 0 0 1 0 2 1.001 1.001 0 0 1 0-2zm4.999-7a1.001 1.001 0 1 1-1-1c.551 0 1 .45 1 1zm4.998 7a1.001 1.001 0 1 1-1-1c.552 0 1 .449 1 1zm-5.998 7c-5.513 0-9.998-4.486-9.998-10C2 6.486 6.484 2 11.997 2c4.48 0 8.282 2.965 9.548 7.035l-3.257 3.259a2.98 2.98 0 0 0-2.122-.176l-1.713-2.399c.342-.487.543-1.08.543-1.718 0-1.655-1.345-3-3-3-1.653 0-2.998 1.345-2.998 3 0 .807.32 1.54.841 2.08l-1.471 2.943a3.003 3.003 0 0 0-3.37 2.976c0 1.654 1.346 3 3 3s3-1.346 3-3a2.99 2.99 0 0 0-.842-2.08l1.47-2.943a2.988 2.988 0 0 0 1.2-.094l1.713 2.398a2.983 2.983 0 0 0-.543 1.72c0 1.653 1.346 2.999 3 2.999a3.003 3.003 0 0 0 2.706-4.292l2.276-2.277c.01.189.016.378.016.57 0 5.513-4.485 9.999-9.997 9.999zm18.702 4.292l-8.307-8.308a12.011 12.011 0 0 0 1.369-8.337l6.231-6.232V4a1 1 0 1 0 2 0V1a1 1 0 0 0-1-1h-3a1 1 0 0 0 0 2h.586l-5.471 5.473C21.317 3.093 17.01 0 11.997 0 5.382 0 0 5.383 0 12c0 6.616 5.382 11.999 11.997 11.999 2.177 0 4.22-.584 5.982-1.602l8.307 8.308c.912.913 1.9 1.295 2.793 1.295.815 0 1.562-.41 2.085-.934 1.097-1.096 1.28-3.028-.465-4.775z"/></g></g></g></svg>