<svg width="41" height="20" viewBox="0 0 41 20" fill="none" xmlns="http://www.w3.org/2000/svg">
<g opacity="0.8">
<path d="M7.14878 19.4013H4.77012V3.7415L0 5.48148V3.34779L6.77792 0.82038H7.14878V19.4013Z" fill="white"/>
<path d="M25.3724 5.73549C25.3724 6.65839 25.1252 7.47969 24.6307 8.19939C24.1447 8.91909 23.484 9.48215 22.6485 9.88856C23.6204 10.3034 24.3877 10.9088 24.9504 11.7047C25.5216 12.5006 25.8072 13.4024 25.8072 14.41C25.8072 16.0102 25.2616 17.2845 24.1703 18.2328C23.0875 19.1811 21.6595 19.6553 19.8862 19.6553C18.0958 19.6553 16.6592 19.1811 15.5764 18.2328C14.5022 17.276 13.9651 16.0018 13.9651 14.41C13.9651 13.4108 14.2379 12.5091 14.7835 11.7047C15.3377 10.9004 16.1007 10.2907 17.0727 9.87586C16.2457 9.46944 15.5935 8.90639 15.116 8.18669C14.6386 7.46699 14.3999 6.64993 14.3999 5.73549C14.3999 4.17756 14.9029 2.94137 15.9089 2.02693C16.915 1.11249 18.2407 0.655273 19.8862 0.655273C21.5231 0.655273 22.8446 1.11249 23.8506 2.02693C24.8651 2.94137 25.3724 4.17756 25.3724 5.73549ZM23.4414 14.3592C23.4414 13.3262 23.1089 12.4837 22.4439 11.8317C21.7874 11.1798 20.9263 10.8538 19.8606 10.8538C18.7949 10.8538 17.938 11.1755 17.2901 11.819C16.6507 12.4625 16.3309 13.3092 16.3309 14.3592C16.3309 15.4091 16.6421 16.2346 17.2645 16.8358C17.8954 17.4369 18.7693 17.7375 19.8862 17.7375C20.9945 17.7375 21.8641 17.4369 22.495 16.8358C23.1259 16.2261 23.4414 15.4006 23.4414 14.3592ZM19.8862 2.58575C18.9569 2.58575 18.2023 2.87363 17.6226 3.44939C17.0514 4.01668 16.7658 4.79141 16.7658 5.77359C16.7658 6.71343 17.0471 7.47546 17.6098 8.05969C18.181 8.63544 18.9398 8.92332 19.8862 8.92332C20.8325 8.92332 21.587 8.63544 22.1497 8.05969C22.7209 7.47546 23.0065 6.71343 23.0065 5.77359C23.0065 4.83375 22.7124 4.06748 22.1241 3.47479C21.5359 2.8821 20.7899 2.58575 19.8862 2.58575Z" fill="white"/>
<path d="M35.8079 9.48215H41V11.7047H35.8079V17.547H33.4292V11.7047H28.2371V9.48215H33.4292V4.08442H35.8079V9.48215Z" fill="white"/>
</g>
</svg>
