<svg width="37" height="31" viewBox="0 0 37 31" fill="none" xmlns="http://www.w3.org/2000/svg">
<path fill-rule="evenodd" clip-rule="evenodd" d="M18.1752 30.9188C5.62177 24.3199 0.673919 17.0254 0.0656038 11.2126C-0.218402 8.49734 0.436334 6.09474 1.70741 4.21688C2.98479 2.32896 4.8848 0.974297 7.07937 0.363813C10.5849 -0.611881 14.8412 0.30411 18.4999 3.97402C22.1586 0.304447 26.4152 -0.611881 29.9205 0.363813C32.1156 0.97531 34.0151 2.32936 35.2925 4.21688C36.5641 6.09507 37.2186 8.49798 36.9343 11.2126C36.3265 17.0265 31.3771 24.3224 18.8198 30.9212C18.6101 31.0309 18.3684 31.0224 18.1743 30.9187L18.1752 30.9188ZM11.1532 2.55211C11.5227 2.61747 11.7692 2.96753 11.7028 3.33328C11.6367 3.69874 11.2828 3.94258 10.9131 3.8769C10.6103 3.82317 10.3053 3.78955 10.0023 3.77698L9.99593 3.77635C9.69478 3.76472 9.39774 3.77321 9.10965 3.80023C8.73573 3.8348 8.40281 3.56299 8.36787 3.19313C8.33292 2.82328 8.60771 2.49397 8.98162 2.4594C9.33171 2.42578 9.69004 2.41572 10.0509 2.43018L10.0617 2.43081C10.4172 2.44621 10.7825 2.48611 11.1532 2.5521L11.1532 2.55211ZM6.79343 3.01497C7.13811 2.86823 7.53902 3.02503 7.68736 3.36628C7.83571 3.70722 7.67719 4.10379 7.33219 4.25051C6.0723 4.79005 5.04174 5.77016 4.4318 7.07359C3.8568 8.3038 3.65126 9.82716 3.97021 11.5495C4.03756 11.915 3.79263 12.2666 3.42316 12.3332C3.0537 12.3998 2.69822 12.1576 2.63087 11.7921C2.25761 9.77821 2.50667 7.97765 3.19349 6.5086C3.94702 4.89909 5.22565 3.68649 6.79312 3.01495L6.79343 3.01497Z" fill="#D51B1B"/>
</svg>
