<svg width="20" height="20" viewBox="0 0 20 20" fill="none"
  xmlns="http://www.w3.org/2000/svg">
  <path
    d="M7.3114 1.41097C7.14642 0.883904 7.43947 0.317605 7.98037 0.206063C9.5024 -0.107802 11.0815 -0.0634995 12.5913 0.341577C14.4241 0.833307 16.0792 1.83637 17.3632 3.23361C18.6472 4.63086 19.5071 6.36459 19.8425 8.23233C20.178 10.1001 19.975 12.0247 19.2575 13.7814C18.5399 15.5381 17.3373 17.0544 15.7902 18.1531C14.243 19.2519 12.4152 19.8878 10.5201 19.9865C8.62509 20.0852 6.74108 19.6426 5.08815 18.7106C3.72651 17.9427 2.56799 16.8688 1.70097 15.5791C1.39285 15.1207 1.58008 14.5112 2.0669 14.2504C2.55371 13.9896 3.15493 14.1773 3.47442 14.6278C4.1543 15.5865 5.03965 16.3871 6.07052 16.9684C7.39286 17.7141 8.90007 18.0681 10.4161 17.9892C11.9321 17.9102 13.3944 17.4015 14.6321 16.5225C15.8699 15.6435 16.8319 14.4305 17.406 13.0251C17.98 11.6197 18.1424 10.08 17.874 8.58586C17.6057 7.09168 16.9177 5.70469 15.8905 4.58689C14.8633 3.4691 13.5393 2.66665 12.073 2.27326C10.93 1.96659 9.73731 1.91839 8.58065 2.12691C8.03713 2.2249 7.47639 1.93804 7.3114 1.41097Z"
    fill="url(#paint0_linear_3440_39421)" />
  <defs>
    <linearGradient id="paint0_linear_3440_39421" x1="20" y1="0" x2="0" y2="20"
      gradientUnits="userSpaceOnUse">
      <stop stop-color="white" />
      <stop offset="1" stop-color="#D0C795" />
    </linearGradient>
  </defs>
</svg>
