<svg width="280" height="48" viewBox="0 0 280 48" fill="none" xmlns="http://www.w3.org/2000/svg">
<path d="M265.331 29.8518C282.499 29.8518 282.438 5.95068 265.331 5.95068H247.8V22.3903H242.644V29.8518H247.8V33.1275H242.644V40.589H247.8V46.5946H256.414V40.589H272.308V33.1275H256.414V29.8518H265.331ZM264.664 14.3221C270.73 14.3221 270.67 22.3903 264.664 22.3903H256.414V14.3221H264.664Z" fill="#06DCFF"/>
<path d="M189.364 30.9435C189.364 40.7101 196.34 47.5044 205.682 47.5044C215.024 47.5044 222.364 40.8315 222.364 30.9435V21.5408C222.364 11.6528 215.084 5.04053 205.803 5.04053C196.461 5.04053 189.364 11.7134 189.364 21.6014V30.9435ZM197.978 21.6014C197.978 16.5664 201.314 13.594 205.803 13.594C210.353 13.594 213.689 16.6271 213.689 21.5408V30.9435C213.689 35.9178 210.231 38.8903 205.682 38.8903C201.253 38.8903 197.978 35.9785 197.978 30.9435V21.6014Z" fill="#06DCFF"/>
<path d="M151.568 30.9435C151.568 40.7101 158.544 47.5044 167.886 47.5044C177.228 47.5044 184.568 40.8315 184.568 30.9435V21.5408C184.568 11.6528 177.289 5.04053 168.007 5.04053C158.665 5.04053 151.568 11.7134 151.568 21.6014V30.9435ZM160.182 21.6014C160.182 16.5664 163.518 13.594 168.007 13.594C172.557 13.594 175.893 16.6271 175.893 21.5408V30.9435C175.893 35.9178 172.436 38.8903 167.886 38.8903C163.458 38.8903 160.182 35.9785 160.182 30.9435V21.6014Z" fill="#06DCFF"/>
<path d="M113.772 30.9435C113.772 40.7101 120.748 47.5044 130.09 47.5044C139.432 47.5044 146.772 40.8315 146.772 30.9435V21.5408C146.772 11.6528 139.493 5.04053 130.211 5.04053C120.869 5.04053 113.772 11.7134 113.772 21.6014V30.9435ZM122.386 21.6014C122.386 16.5664 125.722 13.594 130.211 13.594C134.761 13.594 138.098 16.6271 138.098 21.5408V30.9435C138.098 35.9178 134.64 38.8903 130.09 38.8903C125.662 38.8903 122.386 35.9785 122.386 30.9435V21.6014Z" fill="#06DCFF"/>
<path d="M62.6476 30.9435C62.6476 40.7101 69.6238 47.5044 78.9659 47.5044C88.3079 47.5044 95.6481 40.8315 95.6481 30.9435V21.5408C95.6481 11.6528 88.3686 5.04053 79.0872 5.04053C69.7452 5.04053 62.6476 11.7134 62.6476 21.6014V30.9435ZM71.2617 21.6014C71.2617 16.5664 74.5982 13.594 79.0872 13.594C83.6369 13.594 86.9734 16.6271 86.9734 21.5408V30.9435C86.9734 35.9178 83.5156 38.8903 78.9659 38.8903C74.5375 38.8903 71.2617 35.9785 71.2617 30.9435V21.6014Z" fill="#06DCFF"/>
<path d="M24.8517 30.9435C24.8517 40.7101 31.8279 47.5044 41.1699 47.5044C50.5119 47.5044 57.8521 40.8315 57.8521 30.9435V21.5408C57.8521 11.6528 50.5726 5.04053 41.2912 5.04053C31.9492 5.04053 24.8517 11.7134 24.8517 21.6014V30.9435ZM33.4657 21.6014C33.4657 16.5664 36.8022 13.594 41.2912 13.594C45.8409 13.594 49.1774 16.6271 49.1774 21.5408V30.9435C49.1774 35.9178 45.7196 38.8903 41.1699 38.8903C36.7415 38.8903 33.4657 35.9785 33.4657 30.9435V21.6014Z" fill="#06DCFF"/>
<path d="M18.9066 5.95068H0.9505V14.3221H10.2925V46.5946H18.9066V5.95068Z" fill="#06DCFF"/>
<path d="M276.987 0.578613L276.996 1.79554L275.945 1.39294L275.538 2.51837L276.678 2.93926L275.865 3.91829L276.828 4.69602L277.597 3.73529L278.366 4.68687L279.329 3.90914L278.516 2.93926L279.656 2.51837L279.249 1.39294L278.198 1.79554L278.207 0.578613H276.987Z" fill="#06DCFF"/>
</svg>
