<svg width="332" height="45" fill="none" xmlns="http://www.w3.org/2000/svg"><path d="M60.16 2.081h35.544l-1.538 9.612H70.528L69.67 17.2h14.074l-1.588 9.845H68.08l-1.002 6.505h25.928l-1.634 10.14H53.54l6.62-41.608Zm53.554 10.257H98.816l1.631-10.257h41.705l-1.69 10.257h-14.899l-4.994 31.355h-11.845l4.986-31.355h.004Zm29.31 12.598c-.48-13.596 8.961-23.56 21.863-23.56 14.958 0 19.358 10.023 19.876 14.772h-12.078c-.574-1.116-2.672-4.104-7.42-4.104-6.629 0-10.358 5.627-10.125 12.306.191 5.394 3.211 9.379 8.371 9.379 4.808 0 6.935-2.814 7.606-3.811h12.024c-.803 3.751-5.704 14.479-19.252 14.479-12.38 0-20.462-8.029-20.87-19.457l.005-.004Zm50.271-22.855H205.2l-3.976 25.084L223.559 2.08h11.909l-6.626 41.608h-11.904l3.98-24.969-22.34 24.97h-11.904l6.617-41.609h.004ZM254.6 12.338h-14.899l1.636-10.257h41.701l-1.691 10.257h-14.898l-4.995 31.355H249.61l4.986-31.355h.004Zm34.245-10.257h11.904l-3.975 25.084L319.109 2.08h11.908l-6.625 41.608h-11.904l3.979-24.969-22.339 24.97h-11.904L288.84 2.08h.005ZM32.908 17.494H22.29l.82-5.097h25.044l1.627-10.316H12.832l-2.455 15.413h-8L.884 26.93h7.989L6.207 43.693h24.632c11.497 0 19.18-5.037 18.823-15.12-.25-7.09-6.256-11.075-16.759-11.075l.005-.004Zm-1.08 15.883H19.747l1.058-6.45h12.494c2.464 0 3.725.883 3.784 2.525.094 2.576-1.97 3.925-5.257 3.925h.004Z" fill="#fff"/></svg>