<svg id="Logo" xmlns="http://www.w3.org/2000/svg" width="664.995" height="182.258" viewBox="0 0 664.995 182.258">
  <g id="Сгруппировать_101116" data-name="Сгруппировать 101116" transform="translate(185.382 29.631)">
    <g id="Сгруппировать_101113" data-name="Сгруппировать 101113" transform="translate(0 0)">
      <g id="Сгруппировать_101009" data-name="Сгруппировать 101009" transform="translate(0 0)">
        <path id="Контур_106166" data-name="Контур 106166" d="M24.428-282.418v44.157H37.675v-11.418H61.268c8.579,0,17.158-4.6,17.158-15.96v-.631c0-10.6-7.633-16.149-18.42-16.149ZM64.8-265.449c0,4.227-1.451,5.236-6.75,5.236H37.675v-11.229H58.114c5.236,0,6.687,1.073,6.687,5.3Zm76.519,27.188L115.2-282.418h-14.7L74.452-238.261H88.835L93-245.7h29.775l4.163,7.444ZM98.8-255.924l7.381-15.518.189-.5H109.4l.189.5,7.381,15.518Zm46.933-26.494v44.157h13.247v-12.68H178.6c6.245,0,8.895,3.154,9.21,9.525a6.4,6.4,0,0,0,.631,3.154h14.193a23.005,23.005,0,0,1-1.956-7.065c-.694-6.624-2.208-9.651-8.011-11.481v-.126q7.948-2.744,7.948-10.6v-.946c0-9.273-5.677-13.941-17.1-13.941Zm41.256,16.275c0,3.533-1.577,4.668-6.813,4.668h-21.2v-9.967H180.3c5.11,0,6.687,1.135,6.687,4.479ZM206.1-282.418v10.976h21.069v33.181h13.247v-33.181h21.069v-10.976ZM313.47-254.41l.5,1.893-1.009.631-1.009-1.136-27.188-29.4H267.925v44.157h13.247V-266.4l-.5-1.766,1.009-.631,1.009,1.135,27.188,29.4h16.843v-44.157H313.47Zm21.069,16.149H382.8v-10.85H347.787v-6.308h31.667v-10.093H347.787v-6.056h34.632v-10.85H334.54Zm55.2-44.157v44.157h13.247v-12.68H422.6c6.245,0,8.895,3.154,9.21,9.525a6.4,6.4,0,0,0,.631,3.154h14.193a23.007,23.007,0,0,1-1.956-7.065c-.694-6.624-2.208-9.651-8.011-11.481v-.126q7.948-2.744,7.948-10.6v-.946c0-9.273-5.677-13.941-17.1-13.941Zm41.256,16.275c0,3.533-1.577,4.668-6.813,4.668h-21.2v-9.967h21.322c5.11,0,6.687,1.135,6.687,4.479ZM501.266-279.9c-5.678-2.713-14.13-3.785-23.467-3.785-18.8,0-26.116,5.677-26.116,14.13,0,5.993,3.47,9.652,8.642,11.607,1.956.757,9.841,2.019,20.5,3.469,6.75.694,9.336,1.956,9.336,3.343,0,2.523-4.479,3.533-11.229,3.533-10.724,0-18.42-2.208-23.719-5.551l-6.182,8.832c7.885,5.3,17.915,7.318,28.387,7.318,19.177,0,26.621-6.119,26.621-15.266,0-7.191-6.434-11.039-16.149-12.553-6.813-1.072-12.743-1.388-18.294-2.4-2.839-.5-4.037-1.7-4.037-2.965,0-2.019,3.848-2.839,9.652-2.839a79.694,79.694,0,0,1,22.52,2.839Z" transform="translate(-24.428 360.314)" fill="#fff"/>
        <path id="Контур_106165" data-name="Контур 106165" d="M34.72-328.066h69.871v-15.71H53.9v-9.133H99.75v-14.614H53.9v-8.768h50.143V-392H34.72ZM189.167-392l-20.916,35.62-.365.913h-2.375l-.365-.913L144.322-392H114.638l-.913,63.934h19l.913-45.667-.548-2.192,1.461-.913,1.279,2.1L158.3-335.829H175.1l22.468-38.909,1.1-2.1,1.461.913-.365,2.192.913,45.667h19L218.76-392Zm40.918,0v63.934h19.18V-344.6h34.159c12.422,0,24.843-6.667,24.843-23.108v-.913c0-15.344-11.052-23.382-26.67-23.382Zm58.454,24.569c0,6.119-2.1,7.581-9.773,7.581h-29.5v-16.258h29.592c7.581,0,9.681,1.553,9.681,7.672Zm30.232,39.365h19.18V-392h-19.18ZM349.642-392v63.934h19.18v-18.358h28.405c9.042,0,12.878,4.567,13.335,13.792.091,2.1.274,3.654.913,4.567h20.55a33.313,33.313,0,0,1-2.831-10.229c-1-9.59-3.2-13.974-11.6-16.623v-.183q11.508-3.973,11.508-15.344v-1.37c0-13.426-8.22-20.185-24.752-20.185Zm59.733,23.564c0,5.115-2.283,6.759-9.864,6.759H368.822v-14.431h30.871c7.4,0,9.681,1.644,9.681,6.485Zm31.054,40.37H510.3v-15.71H459.609v-9.133h45.85v-14.614h-45.85v-8.768h50.143V-392H440.429Z" transform="translate(-34.514 392)" fill="#bf9844"/>
      </g>
    </g>
  </g>
  <g id="Сгруппировать_101117" data-name="Сгруппировать 101117" transform="translate(0 0)">
    <g id="Сгруппировать_101121" data-name="Сгруппировать 101121" transform="translate(0 0)">
      <path id="Контур_106293" data-name="Контур 106293" d="M33.968,85.34c5.9-6.965,27.862-10.091,43.944-15.777C80,68.823,86.4,53.984,86.4,53.984S60.029,56.329,47.3,65.31,29.615,81.49,29.615,81.49a34.745,34.745,0,0,0-2.544,4.465c-1.093,2.133-4.2,8.617-4.2,8.617l8.59-6.141c.791-1.018,16.578,7.189,17.467,6.141" transform="translate(-14.182 -37.627)" fill="#fff" fill-rule="evenodd"/>
      <path id="Контур_106294" data-name="Контур 106294" d="M19.04,188.873c6.315-7.606,10.19-9.941,10.19-9.941s-13,1.623-19.028,8C4.414,193.047.758,203.079.425,203.506a64.409,64.409,0,0,0-.377,9.764L.39,226.336l5.1-7.906,65.991,74.706L26.3,203.506s-1.557-4.184,4.758-11.789" transform="translate(0 -110.959)" fill="#fff" fill-rule="evenodd"/>
      <path id="Контур_106295" data-name="Контур 106295" d="M161.153,45.124c-.674-10.527-7.117-17.012-12.415-20.811s-17.649-5.84-17.649-5.84,1.629-4.162-8.327-10.935C114.093,1.64,91.378.131,91.378.131,72.6-1.048,55.5,5.879,41.619,15.115c-12.9,8.579-25.851,28.83-25.851,28.83S18.951,41,31.679,32.017,62.746,21.206,62.746,21.206s-5.24,1.743-7.332,2.483c-16.082,5.686-29.388,17.14-35.293,24.105S10.7,60.7,6.451,70.289.736,92.658.736,92.658s4.4-5.678,10.432-12.051,18.4-12.553,18.4-12.553S25.689,70.39,19.374,78,11.8,95.519,11.8,95.519l60.021,86.739,50.942-73.566s-7.443-11.858-5.958-34.25a126.6,126.6,0,0,1,2.855-19.309c.065.071-6.645,5.887-13.794,20.752-5.412,11.252-6.431,25.876-5.894,33.666.345,5,.624,7.1.787,7.971.064.231.119.434.16.6,0,.016-.054-.035-.16-.6a65.5,65.5,0,0,1-.946-33.478c3.474-15.1,6.412-18.926,13.043-27.223,6.537-8.18,20.555-9.855,28.929-8.622s11.211,5.78,11.211,5.78a8.769,8.769,0,0,1,1.461,8.113s1.94-.375,4.474-4.221,2.225-12.745,2.225-12.745m-48.7-21.682c-.166.185-2.776,3.508-4.848,3.357-2.306-.169-6.371-2.54-8.456-2.982-3.83-.813-12.3-1.741-12.3-1.741s7-4.656,13.243-5.207,15.036,2.648,15.1,2.653-2.573,3.735-2.739,3.92" transform="translate(-0.457 0)" fill="#bf9844" fill-rule="evenodd"/>
    </g>
  </g>
</svg>
