<svg xmlns="http://www.w3.org/2000/svg" width="1580" height="85.095"><path data-name="Контур 106990" d="M0 82.795V2.3h87.279v19.779H24.148v11.039h57.726v18.4H24.148v11.5h63.821v19.777ZM197.9 2.3h37.258l1.157 80.495h-23.919l-1.15-57.5.46-2.76-1.84-1.15-1.38 2.645-28.292 48.99h-21.159l-28.288-48.987-1.61-2.645-1.84 1.15.69 2.76-1.15 57.5h-23.922l1.15-80.495h37.373l26.218 44.847.46 1.15h2.99l.46-1.15Zm119.822 0q15.179 0 24.378 7.647t9.2 21.791v1.15q0 9.889-4.37 16.386a26.209 26.209 0 0 1-11.5 9.6 38.17 38.17 0 0 1-15.409 3.1h-43.006v20.821h-24.148V2.3Zm8.739 29.668a13.1 13.1 0 0 0-1.092-5.98 5.9 5.9 0 0 0-3.622-2.875 26.193 26.193 0 0 0-7.475-.8h-37.257v20.469h37.143a26.831 26.831 0 0 0 7.532-.8 5.971 5.971 0 0 0 3.68-2.817 12.722 12.722 0 0 0 1.092-5.922Zm41.516 50.827V2.3h24.148v80.495ZM479.175 2.3q31.163 0 31.163 25.413v1.725q0 14.259-14.489 19.319v.23a22.007 22.007 0 0 1 8.222 4.2 15.266 15.266 0 0 1 4.312 6.5 46.811 46.811 0 0 1 2.07 10.234 32.335 32.335 0 0 0 1.262 6.722 65.305 65.305 0 0 0 2.3 6.152h-25.873q-.92-1.38-1.15-5.75-.46-8.854-4.427-13.109t-12.362-4.255H434.44v23.114h-24.148V2.3Zm6.325 28.173q0-4.6-2.645-6.382t-9.544-1.782h-38.868v18.169h38.638q7.13 0 9.774-1.84t2.645-6.67Zm42.547 52.322V2.3h87.279v19.779h-63.131v11.039h57.726v18.4h-57.726v11.5h63.82v19.777ZM746.415 2.3q15.179 0 24.378 7.647t9.2 21.791v1.15q0 9.889-4.37 16.386a26.209 26.209 0 0 1-11.5 9.6 38.17 38.17 0 0 1-15.409 3.1h-42.999v20.821h-24.148V2.3Zm8.739 29.668a13.1 13.1 0 0 0-1.092-5.98 5.9 5.9 0 0 0-3.622-2.875 26.193 26.193 0 0 0-7.475-.8h-37.25v20.469h37.143a26.831 26.831 0 0 0 7.532-.8 5.971 5.971 0 0 0 3.68-2.817 12.722 12.722 0 0 0 1.092-5.922Zm142.939 50.827h-26.218l-7.59-13.569h-54.276l-7.594 13.569h-26.214L823.693 2.3h26.793ZM820.588 50.6h33.118l-13.454-28.291-.345-.92h-5.52l-.345.92ZM978.473 2.3q31.163 0 31.163 25.413v1.725q0 14.259-14.489 19.319v.23a22.007 22.007 0 0 1 8.222 4.2 15.266 15.266 0 0 1 4.312 6.5 46.809 46.809 0 0 1 2.07 10.234 32.334 32.334 0 0 0 1.264 6.722 65.3 65.3 0 0 0 2.3 6.152h-25.872q-.92-1.38-1.15-5.75-.46-8.854-4.427-13.109t-12.362-4.255h-35.763v23.114h-24.148V2.3Zm6.325 28.173q0-4.6-2.645-6.382t-9.544-1.782h-38.868v18.169h38.638q7.13 0 9.774-1.84t2.645-6.67ZM1023.09 2.3h100.964v20.009h-38.408v60.486h-24.148V22.309h-38.408Zm199.168 51.057V2.3h24.148v80.495h-30.7l-49.565-53.587-1.84-2.07-1.84 1.15.92 3.22v51.287h-24.148V2.3h30.7l49.562 53.587 1.84 2.07 1.84-1.15Zm41.857 29.438V2.3h87.279v19.779h-63.131v11.039h57.726v18.4h-57.726v11.5h63.821v19.777ZM1437.064 2.3q31.163 0 31.163 25.413v1.725q0 14.259-14.489 19.319v.23a22.007 22.007 0 0 1 8.222 4.2 15.266 15.266 0 0 1 4.312 6.5 46.81 46.81 0 0 1 2.07 10.234 32.339 32.339 0 0 0 1.265 6.727 65.3 65.3 0 0 0 2.3 6.152h-25.873q-.92-1.38-1.15-5.75-.46-8.854-4.427-13.109t-12.362-4.26h-35.763v23.114h-24.149V2.3Zm6.325 28.173q0-4.6-2.645-6.382t-9.544-1.782h-38.868v18.169h38.638q7.13 0 9.774-1.84t2.645-6.67Zm125.112-5.865q-17.479-5.175-41.052-5.175-17.594 0-17.594 5.175a4.127 4.127 0 0 0 1.84 3.277 12.855 12.855 0 0 0 5.52 2.127q5.75 1.035 16.789 2.3 11.5 1.265 16.559 2.07 13.914 2.185 21.676 7.82a17.7 17.7 0 0 1 7.762 15.064q0 13.109-11.672 20.469t-36.855 7.36q-31.853 0-51.747-13.339l11.269-16.1q15.984 10.119 43.237 10.119 20.469 0 20.469-6.44 0-4.37-17.019-6.095-32.428-4.37-37.373-6.325a25.539 25.539 0 0 1-11.614-8.049 20.62 20.62 0 0 1-4.14-13.109q0-12.189 11.442-18.974T1532.163 0q28.288 0 42.777 6.9Z" fill="#bf9844"/></svg>