<svg xmlns="http://www.w3.org/2000/svg" width="335.001" height="72.078" viewBox="0 0 335.001 72.078">
  <path id="Контур_106992" data-name="Контур 106992" d="M-770.731-52.3V-82.312h32.544v7.375h-23.54v4.116H-740.2v6.86h-21.525v4.288h23.8V-52.3Zm73.792-30.014h13.892l.429,30.014h-8.919l-.429-21.439.172-1.029-.686-.429-.515.986-10.548,18.266h-7.889L-721.98-74.209l-.6-.986-.686.429.257,1.029-.429,21.439h-8.919l.429-30.014h13.935l9.776,16.722.172.429h1.115l.172-.429Zm44.678,0a13.761,13.761,0,0,1,9.09,2.851q3.43,2.851,3.43,8.125v.429a10.719,10.719,0,0,1-1.629,6.11,9.772,9.772,0,0,1-4.288,3.58,14.231,14.231,0,0,1-5.745,1.158H-667.44V-52.3h-9V-82.312ZM-649-71.25a4.884,4.884,0,0,0-.407-2.23,2.2,2.2,0,0,0-1.351-1.072,9.767,9.767,0,0,0-2.787-.3H-667.44v7.632h13.849a10.006,10.006,0,0,0,2.809-.3,2.227,2.227,0,0,0,1.372-1.051A4.744,4.744,0,0,0-649-70.778ZM-633.524-52.3V-82.312h9V-52.3Zm41.463-30.014q11.62,0,11.62,9.476v.643q0,5.317-5.4,7.2v.086a8.2,8.2,0,0,1,3.066,1.565,5.689,5.689,0,0,1,1.608,2.423A17.449,17.449,0,0,1-580.4-57.1a12.067,12.067,0,0,0,.472,2.508,24.337,24.337,0,0,0,.858,2.294h-9.648a4.857,4.857,0,0,1-.429-2.144A7.572,7.572,0,0,0-590.8-59.33a6.025,6.025,0,0,0-4.609-1.586H-608.74V-52.3h-9V-82.312Zm2.358,10.5a2.661,2.661,0,0,0-.986-2.38,6.793,6.793,0,0,0-3.559-.665H-608.74v6.775h14.407a6.834,6.834,0,0,0,3.645-.686,2.824,2.824,0,0,0,.986-2.487ZM-573.838-52.3V-82.312h32.544v7.375h-23.54v4.116h21.525v6.86h-21.525v4.288h23.8V-52.3ZM-788.933-41.106a13.761,13.761,0,0,1,9.09,2.851q3.43,2.851,3.43,8.125v.429a10.719,10.719,0,0,1-1.629,6.11,9.772,9.772,0,0,1-4.288,3.58,14.232,14.232,0,0,1-5.746,1.158h-16.036v7.761h-9V-41.106Zm3.259,11.062a4.884,4.884,0,0,0-.407-2.23,2.2,2.2,0,0,0-1.351-1.072,9.767,9.767,0,0,0-2.787-.3h-13.892v7.632h13.849a10.007,10.007,0,0,0,2.809-.3,2.227,2.227,0,0,0,1.372-1.051,4.744,4.744,0,0,0,.407-2.208Zm53.3,18.952h-9.776l-2.83-5.06h-20.238l-2.83,5.06h-9.776l17.708-30.014h9.99Zm-28.9-12.006h12.349l-5.017-10.548-.129-.343h-2.058l-.129.343Zm58.871-18.009q11.62,0,11.62,9.476v.643q0,5.317-5.4,7.2v.086a8.207,8.207,0,0,1,3.066,1.565,5.694,5.694,0,0,1,1.608,2.423,17.457,17.457,0,0,1,.772,3.816,12.059,12.059,0,0,0,.472,2.508,24.354,24.354,0,0,0,.858,2.294h-9.647a4.85,4.85,0,0,1-.429-2.144,7.574,7.574,0,0,0-1.651-4.888,6.026,6.026,0,0,0-4.609-1.586h-13.335v8.618h-9V-41.106Zm2.358,10.5a2.661,2.661,0,0,0-.986-2.38,6.793,6.793,0,0,0-3.559-.665h-14.492v6.775h14.407a6.833,6.833,0,0,0,3.645-.686,2.824,2.824,0,0,0,.986-2.487Zm14.278-10.5h37.646v7.461h-14.321v22.554h-9V-33.646H-685.77Zm74.264,19.038V-41.106h9v30.014h-11.448l-18.48-19.981-.686-.772-.686.429.343,1.2v19.123h-9V-41.106h11.448l18.48,19.981.686.772.686-.429ZM-595.9-11.092V-41.106h32.544v7.375H-586.9v4.116h21.525v6.86H-586.9v4.288h23.8v7.375Zm64.488-30.014q11.62,0,11.62,9.476v.643q0,5.317-5.4,7.2v.086a8.207,8.207,0,0,1,3.066,1.565,5.694,5.694,0,0,1,1.608,2.423,17.454,17.454,0,0,1,.772,3.816,12.059,12.059,0,0,0,.472,2.508,24.323,24.323,0,0,0,.858,2.294h-9.648a4.853,4.853,0,0,1-.429-2.144,7.574,7.574,0,0,0-1.651-4.888,6.026,6.026,0,0,0-4.609-1.586h-13.335v8.618h-9V-41.106Zm2.358,10.5a2.661,2.661,0,0,0-.986-2.38,6.792,6.792,0,0,0-3.559-.665h-14.493v6.775h14.407a6.833,6.833,0,0,0,3.645-.686,2.823,2.823,0,0,0,.986-2.487Zm46.651-2.187a54.18,54.18,0,0,0-15.307-1.93q-6.56,0-6.56,1.93a1.539,1.539,0,0,0,.686,1.222,4.793,4.793,0,0,0,2.058.793q2.144.386,6.26.858,4.288.472,6.174.772a18.633,18.633,0,0,1,8.082,2.916,6.6,6.6,0,0,1,2.894,5.617,8.573,8.573,0,0,1-4.352,7.632q-4.352,2.744-13.742,2.744-11.877,0-19.295-4.974l4.2-6q5.96,3.773,16.122,3.773,7.632,0,7.632-2.4,0-1.629-6.346-2.273-12.091-1.629-13.935-2.358a9.522,9.522,0,0,1-4.331-3,7.688,7.688,0,0,1-1.544-4.888,7.852,7.852,0,0,1,4.266-7.075q4.266-2.53,13.485-2.53,10.548,0,15.95,2.573Z" transform="translate(813.116 82.312)" fill="#bf9844"/>
</svg>
