<svg xmlns="http://www.w3.org/2000/svg" width="571" height="501" viewBox="0 0 571 501"><g><g clip-path="url(#clip-828ee488-26d9-485f-a7ce-3ce6f1895f0f)" transform="rotate(-68 362.5 409.5)"><path fill="#bf9844" d="M699.008 645.157c0 8.945-6.881 15.826-15.826 15.826H365.3V531.628c66.054-2.064 119.722-56.42 119.722-122.474 0-66.053-52.98-121.098-119.722-122.474V157.326h317.882c8.945 0 15.826 6.88 15.826 15.825v112.841h-81.191c-12.385 0-22.706 10.321-22.706 22.706V509.61c0 12.386 10.32 22.706 22.706 22.706h81.19zm-674.295 0v-112.84h81.19c12.385 0 22.706-10.321 22.706-22.707V308.698c0-12.385-10.32-22.706-22.706-22.706h-81.19v-112.84c0-8.946 6.88-15.826 15.825-15.826H358.42v128.666c-66.054 2.064-119.722 56.42-119.722 122.474s52.98 121.098 119.722 122.474v128.667H40.538c-8.945 1.376-15.825-5.505-15.825-14.45zm0-352.284h81.19c8.945 0 15.826 6.88 15.826 15.825V509.61c0 8.945-6.881 15.826-15.826 15.826h-81.19zm340.587.688c62.613 2.064 112.842 52.98 112.842 115.593 0 62.613-50.229 114.218-112.842 115.594zm-6.88 231.187c-62.613-2.064-112.841-52.98-112.841-115.594 0-62.613 50.228-114.217 112.84-115.593zm340.588.688h-81.191c-8.945 0-15.825-6.88-15.825-15.826V308.698c0-8.945 6.88-15.825 15.825-15.825h81.19zm6.88-352.285c0-12.385-10.32-22.706-22.706-22.706H40.538c-12.385 0-22.706 10.321-22.706 22.706v472.006c0 12.385 10.321 22.706 22.706 22.706H683.87c12.385 0 22.706-10.32 22.706-22.706V173.151z"/></g><g><g><path fill="#fff" d="M45 136.5C45 68.293 100.293 13 168.5 13S292 68.293 292 136.5 236.707 260 168.5 260 45 204.707 45 136.5z"/></g><g><g><path fill="#bf9844" d="M283.125 159.497l-7.681 2.194c-2.743-11.248-13.168-33.469-15.637-39.23 3.566-19.478.823-37.036-.823-43.894l9.876-2.195c10.7 17.558 16.735 38.133 16.735 60.355-.275 7.681-1.098 15.362-2.47 22.77zM238.683 230c1.92-4.938 3.566-10.15 5.212-15.362.549-1.92 1.372-3.841 1.92-5.762 17.01-17.557 26.886-35.39 29.355-40.327l6.31-1.646c-6.859 25.239-22.222 47.46-42.797 63.097zm-95.744 14.815l15.637 7.956a119.35 119.35 0 0 1-43.894-12.62zm-87.24-77.364c7.407 10.7 16.46 20.027 18.93 22.496 2.469 10.425 6.858 20.85 11.247 29.08-14.265-13.991-24.69-31.823-30.177-51.576zM119.62 30.283c.274 5.761 1.097 12.071 1.372 15.363-17.284 15.089-27.16 33.195-29.629 38.408-4.938 1.371-21.673 6.858-33.743 15.363 10.15-30.726 32.92-55.691 62-69.134zm86.142-4.663l5.487 15.637c-14.266 1.097-21.947 4.39-37.584 10.425l-1.646.548c-22.77-6.858-38.682-8.504-44.718-8.778-.548-3.841-1.371-10.974-1.371-16.186 13.168-5.213 27.434-7.956 42.522-7.956 13.168.274 25.514 2.469 37.31 6.31zm36.213 177.77c-4.938-1.371-18.655-6.035-34.292-14.265 1.92-5.761 5.76-20.85 8.23-47.735l38.681-14.54c4.664 10.425 13.717 30.726 14.815 38.133-1.92 4.115-11.248 21.673-27.434 38.408zM110.84 178.976c3.567 4.115 13.443 14.265 39.23 32.097l-8.504 26.885-41.15-6.858c-3.018-4.664-14.54-22.496-19.204-40.877zm90.257 9.601zm-46.363 17.832c-28.257-19.478-37.31-29.628-39.23-32.097.549-6.036 2.743-33.195 6.584-48.832l47.186-18.655 40.328 33.743c-2.744 28.806-7.133 43.894-8.505 48.01-23.867 12.07-41.699 16.734-46.363 17.831zM215.09 47.567c3.84 2.194 22.77 13.168 37.035 30.177.823 3.566 5.213 22.221 1.372 42.797l-39.78 14.814-40.327-33.744c1.646-11.796 1.92-36.212 1.92-43.62l.824-.274c16.46-6.584 23.593-9.327 38.956-10.15zm-89.435 2.469c4.115 0 19.753 1.097 43.346 7.955 0 7.682-.275 31.275-1.92 42.249l-46.638 18.38c-4.39-5.212-17.558-21.398-23.044-32.372 2.194-4.663 11.796-21.947 28.256-36.212zm-47.186 134.7c-7.956-8.23-24.69-27.434-26.61-40.054-.275-2.743-.275-5.486-.275-8.23 0-8.779 1.097-17.558 3.018-25.788 9.053-10.424 30.177-17.832 37.584-20.026 6.584 12.07 19.752 28.53 23.868 33.195-4.116 15.911-6.31 41.699-6.859 49.106zm148.691 52.947c-15.911 9.327-34.292 14.814-54.044 15.637l-25.24-13.168 8.505-27.434c5.761-1.372 23.319-6.035 47.186-18.106 15.363 8.23 29.08 12.894 35.116 14.814-.275 1.097-.823 2.195-1.098 3.292-2.469 8.779-6.035 19.478-10.425 24.965zm37.86-167.346l-8.78 2.194C241.7 55.522 223.32 44.55 218.382 42.08l-4.664-13.168c20.85 8.504 38.682 23.044 51.301 41.425zM168.451 13C100.416 13 45 68.416 45 136.452c0 2.47 0 4.938.274 7.682 0 .548 0 1.371.275 1.92 2.743 37.31 22.221 69.682 50.752 90.532l.549.823h.823c20.027 14.265 44.443 22.495 70.78 22.495 22.495 0 43.619-6.035 61.725-16.46l.275.274.823-.823c36.212-21.672 60.628-61.451 60.628-106.443C291.904 68.416 236.488 13 168.452 13z"/></g></g></g></g></svg>