<svg width="240" height="127" viewBox="0 0 240 127" fill="none" xmlns="http://www.w3.org/2000/svg">
<path d="M239.438 20.4307H217.868C210.749 11.0272 199.468 4.93456 186.792 4.93456H58.6089C53.9556 2.81764 45.7654 0.668457 35.6262 0.668457C24.4543 0.668457 15.7801 3.28233 11.3784 5.73486C4.04021 9.82025 5.48591 15.3513 5.96351 17.1714C6.55728 19.4303 7.84808 20.663 8.88072 21.4181C8.64838 22.9219 7.75127 25.0259 7.25431 26.2005L7.03488 26.7233C4.18866 33.4678 2.61388 39.6443 2.23309 45.6078C1.79422 52.5458 2.74941 58.7223 4.35001 64.2534V78.7233C4.15639 78.8911 3.96277 79.0525 3.78205 79.2332C1.34244 81.647 0 84.8353 0 88.2236V103.197C0 108.263 4.12412 112.387 9.19052 112.387H11.5462C11.6753 114.782 12.2626 118.009 14.9991 120.642C18.8909 124.392 26.4744 126.541 35.794 126.541C43.1967 126.541 49.4958 125.179 53.7297 122.74H186.786C196.964 122.74 206.232 118.803 213.176 112.387H218.152C223.219 112.387 227.343 108.263 227.343 103.197V88.4495L239.431 20.4307H239.438Z" fill="white"/>
<path d="M235.339 23.8678H216.113C209.71 14.5224 198.958 8.3717 186.799 8.3717H58.0604C54.0073 6.29996 45.9526 4.00879 35.6327 4.00879C25.3127 4.00879 17.0451 6.40968 13.0114 8.65568C8.55163 11.1405 8.54517 13.8124 9.20348 16.3295C9.64236 17.9946 10.6427 18.6142 11.6108 19.2144C11.7786 19.3177 11.9529 19.4274 12.1336 19.5436C12.7338 21.8735 11.301 25.2425 10.3329 27.5079L10.1135 28.0177C7.40927 34.4201 5.92484 40.2416 5.56987 45.8179C5.13745 52.6204 6.15073 58.6808 7.79005 64.1021V80.4243C7.2221 80.7793 6.68642 81.1988 6.19591 81.6829C4.4146 83.4384 3.43359 85.7618 3.43359 88.2208V103.194C3.43359 106.369 6.00875 108.945 9.18412 108.945H14.8443V110.623C14.8443 111.145 14.8507 111.83 14.9024 112.52C14.9605 113.249 15.0573 113.888 15.1993 114.482C15.5736 115.999 16.2642 117.225 17.3097 118.232C17.5227 118.438 17.7551 118.639 18.0003 118.832C18.2391 119.026 18.4973 119.213 18.7683 119.394C19.8074 120.091 21.0724 120.71 22.5246 121.233C22.8795 121.362 23.2474 121.485 23.6218 121.601C27.0101 122.646 31.2246 123.202 35.8005 123.202C38.7629 123.202 41.5639 122.969 44.1262 122.517C45.5138 122.272 46.811 121.962 47.9728 121.601C48.3471 121.485 48.715 121.362 49.0699 121.233C49.5733 121.052 50.0832 120.839 50.6383 120.588C50.9545 120.439 51.2643 120.291 51.5547 120.136C51.8129 120 52.0646 119.858 52.3034 119.71C52.5228 119.574 52.7165 119.439 52.9165 119.297H186.786C196.544 119.297 205.399 115.341 211.827 108.945H218.152C221.328 108.945 223.903 106.369 223.903 103.194V88.2208C223.903 88.2208 223.903 88.1821 223.903 88.1627L235.333 23.8742L235.339 23.8678Z" fill="black"/>
<path d="M56.2864 84.1451C56.2412 86.3072 56.0992 89.4116 55.6797 92.6967C55.7055 92.729 55.7249 92.7548 55.7571 92.7806C56.693 93.8132 57.8611 95.0976 57.8611 97.6082C57.8611 97.8276 57.8611 98.0342 57.8611 98.2407H100.664L103.962 84.1387C87.0591 84.1387 70.5368 84.1387 56.2928 84.1387L56.2864 84.1451Z" fill="#DEE1E3"/>
<path d="M208.821 23.8723C203.367 17.8766 195.507 14.1074 186.787 14.1074H62.7022C62.7151 14.8561 62.586 15.5983 62.3924 16.3341C61.9536 17.9992 60.9532 18.6188 59.9851 19.219C59.8173 19.3223 59.643 19.432 59.4623 19.5482C59.1396 20.8002 59.4107 22.3492 59.8754 23.8659H208.828L208.821 23.8723ZM56.7452 110.627C56.7452 111.576 56.7193 112.583 56.5645 113.577H186.794C195.203 113.577 202.806 110.066 208.227 104.438H56.7452V110.627Z" fill="#BDC3C7"/>
<path d="M142.232 42.1895H134.913L134.436 44.8808H140.767L142.232 42.1895Z" fill="white"/>
<path d="M128.93 35.4576H130.227L130.886 39.3429H132.609L131.834 34.7734L134.216 30.2104H132.493L130.466 34.0893H129.175L129.86 30.2104H128.136L126.529 39.3429H128.246L128.93 35.4576Z" fill="#BDC3C7"/>
<path d="M143.246 31.5722H145.879L146.589 30.2104H142.884C142.271 30.2104 141.677 30.7139 141.568 31.327L140.154 39.3429H141.878L143.252 31.5722H143.246Z" fill="#BDC3C7"/>
<path d="M185.403 36.3289H187.578L187.049 39.3429H188.772L190.372 30.2104H188.649L187.817 34.9671H185.642L186.474 30.2104H184.751L183.15 39.3429H184.874L185.403 36.3289Z" fill="#BDC3C7"/>
<path d="M119.905 39.3429H123.306C123.92 39.3429 124.513 38.8395 124.623 38.2263L125.843 31.3141C125.895 31.0172 125.83 30.7397 125.656 30.5267C125.488 30.3202 125.23 30.2104 124.939 30.2104H121.538C120.925 30.2104 120.331 30.7139 120.221 31.327L119.002 38.2392C118.95 38.5361 119.015 38.8137 119.189 39.0266C119.357 39.2332 119.615 39.3429 119.905 39.3429ZM121.893 31.5722H124.068L122.939 37.9746H120.764L121.893 31.5722Z" fill="#BDC3C7"/>
<path d="M147.991 39.3429L148.52 36.3289H150.695L150.166 39.3429H151.889L153.302 31.3141C153.354 31.0172 153.29 30.7397 153.115 30.5267C152.947 30.3202 152.689 30.2104 152.399 30.2104H148.998C148.385 30.2104 147.791 30.7139 147.681 31.327L146.268 39.3429H147.991ZM149.359 31.5722H151.534L150.934 34.9671H148.759L149.359 31.5722Z" fill="#BDC3C7"/>
<path d="M193.122 36.3289H195.297L194.767 39.3429H196.491L197.904 31.3141C197.956 31.0172 197.891 30.7397 197.717 30.5267C197.549 30.3202 197.291 30.2104 197 30.2104H193.599C192.986 30.2104 192.392 30.7139 192.283 31.327L190.869 39.3429H192.592L193.122 36.3289ZM193.961 31.5722H196.136L195.535 34.9671H193.36L193.961 31.5722Z" fill="#BDC3C7"/>
<path d="M180.225 34.2571L179.328 39.3429H181.051L182.665 30.2104H181.18L177.831 35.4834L178.766 30.2104H177.043L175.43 39.3429H176.979L180.225 34.2571Z" fill="#BDC3C7"/>
<path d="M161.856 39.3429L162.385 36.3289H164.56L164.031 39.3429H165.754L167.168 31.3141C167.219 31.0172 167.155 30.7397 166.981 30.5267C166.813 30.3202 166.555 30.2104 166.264 30.2104H162.863C162.25 30.2104 161.656 30.7139 161.546 31.327L160.133 39.3429H161.856ZM163.224 31.5722H165.399L164.799 34.9671H162.624L163.224 31.5722Z" fill="#BDC3C7"/>
<path d="M209.377 30.2115C207.415 30.2115 205.537 31.8057 205.195 33.7677L199.509 65.7796C199.161 67.7416 200.477 69.3358 202.439 69.3358H207.886L207.028 74.1827H211.417L212.275 69.3358H217.684C219.646 69.3358 221.524 67.7416 221.866 65.7796L228.191 30.2051H209.371L209.377 30.2115ZM208.635 65.1148H204.44L209.887 34.4389H214.069L208.635 65.1148ZM217.187 65.1148H213.024L218.458 34.4389H222.634L217.187 65.1148Z" fill="white"/>
<path d="M157.099 31.5722H159.733L160.442 30.2104H156.738C156.125 30.2104 155.531 30.7139 155.421 31.327L154.008 39.3429H155.731L157.106 31.5722H157.099Z" fill="#BDC3C7"/>
<path d="M145.316 62.0426H151.641L153.429 58.7446H145.891L145.316 62.0426Z" fill="white"/>
<path d="M131.428 62.2472L134.184 46.5962H128.782L123.916 74.1807H128.834L137.424 58.3554L134.636 74.1807H140.038L144.904 46.5962H139.922L131.428 62.2472Z" fill="white"/>
<path d="M170.75 46.6016H162.063C160.101 46.6016 158.223 48.1957 157.881 50.1577L154.273 70.6234C153.924 72.5854 155.241 74.1796 157.203 74.1796H165.89C167.852 74.1796 169.73 72.5854 170.072 70.6234L173.68 50.1577C174.028 48.1957 172.712 46.6016 170.75 46.6016ZM164.644 69.694H160.023L163.302 51.0871H167.923L164.644 69.694Z" fill="white"/>
<path d="M174.711 30.5267C174.543 30.3202 174.285 30.2104 173.995 30.2104H169.477L167.863 39.3429H169.586L170.116 36.3289H172.897C173.511 36.3289 174.104 35.8254 174.214 35.2123L174.905 31.3141C174.956 31.0172 174.892 30.7397 174.717 30.5267H174.711ZM172.536 34.9671H170.361L170.961 31.5722H173.136L172.536 34.9671Z" fill="#BDC3C7"/>
<path d="M116.896 38.221L117.529 34.6261C117.58 34.3292 117.516 34.0517 117.342 33.8387C117.174 33.6322 116.916 33.5224 116.625 33.5224H113.824L114.166 31.5669H118.039L118.749 30.2051H113.798C113.179 30.2051 112.591 30.7085 112.482 31.3216L111.068 39.3375H115.573C116.186 39.3375 116.78 38.8341 116.89 38.221H116.896ZM113.037 37.9757L113.579 34.8907H115.754L115.212 37.9757H113.037Z" fill="#BDC3C7"/>
<path d="M195.661 46.6016H181.275C179.313 46.6016 177.435 48.1957 177.093 50.1577L174.337 65.7764C173.989 67.7385 175.305 69.3326 177.267 69.3326H182.23L181.379 74.1796H185.767L186.619 69.3326H191.653C193.615 69.3326 195.493 67.7385 195.836 65.7764L198.591 50.1577C198.94 48.1957 197.623 46.6016 195.661 46.6016ZM182.973 65.1052H179.268L181.785 50.8289H185.49L182.973 65.1052ZM191.156 65.1052H187.361L189.878 50.8289H193.673L191.156 65.1052Z" fill="white"/>
<path d="M98.0909 35.4576H99.3882L100.047 39.3429H101.77L100.995 34.7734L103.377 30.2104H101.654L99.627 34.0893H98.3297L99.0203 30.2104H97.2971L95.6836 39.3429H97.4068L98.0909 35.4576Z" fill="#BDC3C7"/>
<path d="M104.461 39.3429H107.862C108.475 39.3429 109.069 38.8395 109.178 38.2263L110.592 30.2104H108.869L108.133 34.3862H105.951L106.687 30.2104H104.964L104.183 34.6444C104.131 34.9412 104.196 35.2188 104.37 35.4317C104.538 35.6383 104.796 35.748 105.087 35.748H107.888L107.494 37.9746H105.319L105.487 37.0388H103.763L103.55 38.2328C103.499 38.5297 103.563 38.8072 103.738 39.0202C103.905 39.2267 104.164 39.3364 104.454 39.3364L104.461 39.3429Z" fill="#BDC3C7"/>
<path d="M97.4783 46.6016C95.5163 46.6016 93.4123 48.1957 92.7927 50.1577L85.1641 74.1796H90.7597L98.0915 51.0871H101.396L97.3234 74.1796H102.919L107.779 46.6016H97.4783Z" fill="white"/>
<path d="M85.9406 30.2115H71.3351L71.8063 34.6971L64.8359 74.1827H70.4316L77.4019 34.6971H83.1202L76.1498 74.1827H81.739L88.8707 33.7612C89.2192 31.7992 87.9026 30.2051 85.9406 30.2051V30.2115Z" fill="white"/>
<path d="M114.335 61.5351H119.163L121.506 57.0495H115.129L116.181 51.0925H123.945L126.288 46.6069H114.936C112.974 46.6069 111.095 48.2011 110.753 50.1631L106.52 74.1849H120.738L121.532 69.6994H112.909L114.348 61.5415L114.335 61.5351Z" fill="white"/>
<path d="M214.488 84.144H172.859L169.555 98.2461H213.513C217.037 98.2461 218.431 99.5175 219.27 101.292V88.4295C219.27 85.9189 217.476 84.1505 214.488 84.1505V84.144Z" fill="#DEE1E3"/>
<path d="M138.443 86.1197H136.391C136.23 86.1197 136.126 86.1391 136.081 86.1843C136.036 86.2295 136.004 86.3069 135.971 86.4231L134.732 91.625H134.629L133.919 89.8631L132.59 86.7716C132.519 86.6296 132.448 86.5134 132.383 86.4231C132.318 86.3392 132.241 86.2746 132.164 86.2295C132.08 86.1843 131.989 86.1585 131.886 86.1391C131.783 86.1262 131.66 86.1197 131.512 86.1197H130.763C130.356 86.1197 130.06 86.1972 129.879 86.3521C129.692 86.507 129.543 86.8103 129.44 87.2621L127.368 95.9363C127.323 96.1364 127.407 96.2396 127.626 96.2396H129.679C129.84 96.2396 129.943 96.2203 129.989 96.1751C130.034 96.1299 130.066 96.0525 130.092 95.9363L131.331 90.7602H131.434L132.164 92.5544L133.48 95.5878C133.545 95.7298 133.609 95.8459 133.68 95.9363C133.751 96.0202 133.829 96.0912 133.906 96.1299C133.984 96.1751 134.08 96.2009 134.19 96.2138C134.3 96.2267 134.416 96.2332 134.552 96.2332H135.3C135.733 96.2332 136.042 96.1235 136.23 95.9105C136.417 95.691 136.546 95.42 136.63 95.0908L138.701 86.4166C138.753 86.2166 138.663 86.1133 138.443 86.1133V86.1197ZM147.059 86.7264C146.827 86.5134 146.537 86.3585 146.182 86.2617C145.827 86.1649 145.433 86.1197 145.001 86.1197H141.238C140.844 86.1197 140.567 86.1972 140.418 86.3585C140.263 86.5199 140.154 86.7587 140.076 87.0749L138.153 95.2909C138.075 95.6265 138.075 95.8718 138.153 96.0202C138.237 96.1686 138.469 96.2461 138.869 96.2461H142.626C143.129 96.2461 143.607 96.1751 144.071 96.0202C144.536 95.8718 144.955 95.6588 145.343 95.3813C145.723 95.1037 146.053 94.781 146.317 94.4002C146.582 94.0195 146.775 93.5999 146.879 93.1353C146.937 92.9029 146.963 92.6706 146.963 92.4318C146.963 92.1994 146.93 91.9671 146.866 91.7541C146.795 91.5347 146.685 91.341 146.543 91.1603C146.395 90.9796 146.201 90.8376 145.962 90.7215L145.982 90.6376C146.337 90.4439 146.653 90.1729 146.937 89.8179C147.221 89.4629 147.408 89.1015 147.498 88.7272C147.608 88.2625 147.614 87.8688 147.531 87.5396C147.44 87.2105 147.285 86.9459 147.053 86.7329L147.059 86.7264ZM144.116 92.9416C144.091 93.0449 144.052 93.1546 144 93.2579C143.942 93.3676 143.871 93.4644 143.768 93.5612C143.671 93.658 143.548 93.7355 143.413 93.7936C143.271 93.8517 143.11 93.8775 142.916 93.8775H141.219L141.664 91.98H143.361C143.678 91.98 143.897 92.0703 144.026 92.2511C144.149 92.4318 144.181 92.6577 144.116 92.9352V92.9416ZM144.62 89.1402C144.555 89.4178 144.426 89.6049 144.245 89.7017C144.058 89.7985 143.871 89.8437 143.678 89.8437H142.167L142.49 88.4561H144.058C144.278 88.4561 144.439 88.5142 144.542 88.6304C144.646 88.7465 144.671 88.9143 144.62 89.1338V89.1402ZM156.74 86.1197H152.474C151.965 86.1197 151.513 86.1972 151.119 86.3521C150.725 86.507 150.39 86.7135 150.112 86.9652C149.835 87.2234 149.609 87.5138 149.435 87.8494C149.26 88.185 149.131 88.5206 149.054 88.8692L147.969 93.4967C147.898 93.8129 147.86 94.1356 147.86 94.4648C147.86 94.7939 147.931 95.0908 148.079 95.3554C148.221 95.6201 148.46 95.833 148.783 96.0008C149.105 96.1622 149.557 96.2461 150.132 96.2461H154.598C154.778 96.2461 154.901 96.1364 154.953 95.9169L155.333 94.2841C155.372 94.1227 155.379 94.0195 155.353 93.9872C155.327 93.9549 155.256 93.9356 155.14 93.9356H151.468C151.345 93.9356 151.229 93.9291 151.125 93.9162C151.022 93.9033 150.938 93.8646 150.874 93.8129C150.809 93.7613 150.771 93.6774 150.751 93.5741C150.732 93.4709 150.745 93.3224 150.79 93.1417L151.042 92.0574H154.92C155.101 92.0574 155.224 91.9477 155.275 91.7283L155.624 90.2245C155.663 90.0631 155.669 89.9599 155.643 89.9212C155.617 89.8824 155.546 89.8631 155.43 89.8631H151.551L151.693 89.2564C151.719 89.1596 151.752 89.0628 151.79 88.966C151.835 88.8692 151.894 88.7852 151.964 88.7078C152.042 88.6304 152.139 88.5658 152.268 88.5142C152.397 88.4626 152.558 88.4367 152.752 88.4367H156.192C156.295 88.4367 156.373 88.4174 156.424 88.3722C156.476 88.327 156.515 88.2431 156.54 88.1205L156.921 86.4876C156.96 86.3263 156.966 86.223 156.941 86.1907C156.915 86.1585 156.844 86.1391 156.728 86.1391L156.74 86.1197ZM166.189 86.1714C166.157 86.1391 166.079 86.1197 165.963 86.1197H158.341C158.225 86.1197 158.141 86.1391 158.089 86.1714C158.038 86.2036 157.993 86.3069 157.954 86.4683L157.573 88.0882C157.521 88.3077 157.599 88.4174 157.799 88.4174H160.213L158.451 95.9363C158.406 96.1364 158.49 96.2396 158.709 96.2396H160.761C160.923 96.2396 161.026 96.2203 161.071 96.1751C161.116 96.1299 161.149 96.0525 161.174 95.9363L162.936 88.4174H165.408C165.608 88.4174 165.737 88.3077 165.789 88.0882L166.17 86.4683C166.209 86.3069 166.209 86.2036 166.17 86.1714H166.189ZM113.318 88.9531C113.357 88.8562 113.421 88.7723 113.492 88.6949C113.57 88.6175 113.666 88.5529 113.795 88.5013C113.925 88.4496 114.086 88.4238 114.279 88.4238H117.849C117.952 88.4238 118.029 88.4045 118.081 88.3593C118.133 88.3141 118.171 88.2302 118.197 88.1076L118.578 86.4747C118.617 86.3134 118.623 86.2101 118.597 86.1778C118.571 86.1456 118.5 86.1262 118.384 86.1262H113.989C113.479 86.1262 113.027 86.2036 112.634 86.3585C112.24 86.5134 111.904 86.72 111.627 86.9717C111.349 87.2298 111.123 87.5203 110.949 87.8559C110.775 88.1915 110.646 88.5271 110.568 88.8756L108.91 95.9621C108.865 96.1557 108.955 96.2525 109.174 96.2525H111.227C111.395 96.2525 111.498 96.2332 111.537 96.1945C111.582 96.1557 111.614 96.0783 111.64 95.9621L112.485 92.3479H116.287C116.467 92.3479 116.59 92.2382 116.642 92.0123L116.997 90.5085C117.035 90.3471 117.042 90.2439 117.016 90.2051C116.99 90.1664 116.919 90.1471 116.803 90.1471H113.002L113.208 89.2499C113.227 89.1531 113.266 89.0563 113.305 88.9595L113.318 88.9531ZM127.033 87.3783C126.755 86.9265 126.361 86.578 125.845 86.3327C125.329 86.0875 124.683 85.9648 123.902 85.9648C123.122 85.9648 122.463 86.0875 121.837 86.3327C121.211 86.578 120.656 86.933 120.166 87.3912C119.675 87.8494 119.262 88.4045 118.913 89.0499C118.565 89.6953 118.294 90.4117 118.113 91.2055C117.926 92.0187 117.842 92.7416 117.868 93.387C117.894 94.0324 118.042 94.581 118.3 95.0263C118.559 95.4716 118.952 95.8137 119.469 96.0525C119.985 96.2913 120.637 96.4074 121.418 96.4074C122.199 96.4074 122.967 96.2848 123.612 96.046C124.257 95.8072 124.819 95.4587 125.297 95.0069C125.774 94.5551 126.174 94.0066 126.497 93.3611C126.82 92.7157 127.078 91.9864 127.271 91.1797C127.459 90.3858 127.53 89.6759 127.497 89.0305C127.465 88.3916 127.31 87.843 127.039 87.3912L127.033 87.3783ZM124.541 90.1019C124.516 90.4439 124.464 90.8054 124.386 91.1797C124.303 91.5476 124.193 91.8961 124.057 92.2381C123.928 92.5738 123.767 92.8706 123.58 93.1288C123.393 93.387 123.18 93.587 122.934 93.7355C122.689 93.8839 122.405 93.9614 122.089 93.9614C121.773 93.9614 121.502 93.8968 121.314 93.7613C121.127 93.6258 120.992 93.4386 120.914 93.1933C120.837 92.9481 120.811 92.6448 120.837 92.2898C120.863 91.9348 120.927 91.5347 121.03 91.0893C121.114 90.7344 121.23 90.3923 121.372 90.0631C121.514 89.734 121.682 89.45 121.876 89.2048C122.069 88.9595 122.289 88.7659 122.534 88.6174C122.779 88.4755 123.044 88.398 123.322 88.398C123.657 88.398 123.922 88.4755 124.109 88.6239C124.296 88.7723 124.425 88.9724 124.49 89.2241C124.554 89.4758 124.574 89.7727 124.548 90.1148L124.541 90.1019Z" fill="white"/>
<path d="M28.2323 116.243C25.6894 114.313 22.3204 111.028 19.5 105.942V110.622C19.5 112.726 19.6678 114.029 20.5391 114.868C21.9654 116.243 25.5732 117.805 31.4206 118.341C30.4847 117.818 29.4069 117.14 28.2323 116.249V116.243Z" fill="#BDC3C7"/>
<path d="M28.2334 116.247C26.5811 114.995 24.5804 113.155 22.6055 110.645V116.214C24.3674 117.066 26.9748 117.834 30.4406 118.234V117.757C29.7565 117.331 29.0208 116.84 28.2398 116.247H28.2334Z" fill="white"/>
<path d="M49.832 108.817V115.755C50.3225 115.458 50.7291 115.161 51.0325 114.877C51.9038 114.038 52.0716 112.735 52.0716 110.631V105.106C51.3616 106.474 50.6065 107.694 49.8385 108.823L49.832 108.817Z" fill="#BDC3C7"/>
<path d="M57.1556 12.5188C52.9089 10.0147 45.6481 8.32373 35.7799 8.32373C25.9117 8.32373 18.651 10.0147 14.4042 12.5188C12.197 13.8226 12.7197 15.2747 13.6685 15.4425C14.7656 14.7068 16.3533 14.113 16.3533 14.113C16.3533 14.113 18.7542 15.7007 19.0382 17.9402C19.0382 17.9402 17.7216 17.127 15.8951 17.5594C17.5022 20.2766 15.6821 25.0913 14.9722 27.0081C13.2877 31.5388 10.7448 38.3865 10.4544 46.0023C9.9445 59.4718 15.2239 71.0632 17.7603 76.633C17.9346 77.0138 18.0895 77.3559 18.2444 77.6979C18.9801 77.4527 19.8966 77.1881 21.026 76.917C15.7402 71.6505 11.2547 55.167 13.5007 51.4043C14.0234 50.5265 14.785 50.107 15.6369 50.107C17.7216 50.107 18.9737 52.211 20.5614 54.7668C22.362 57.6582 24.4209 60.1043 28.7902 61.6081C28.7902 61.6081 28.3191 62.389 27.1896 62.9182C28.5708 63.8928 31.5784 64.1381 35.5669 64.151V61.9179C39.0069 59.2395 38.8972 54.741 38.8972 49.6875V45.7957C37.8904 45.7764 36.8384 45.7635 35.7412 45.7635C27.977 45.7635 22.4524 46.254 18.7865 46.8155C18.2895 47.7319 17.6054 48.3773 16.6502 48.3773C13.7653 48.3773 13.4039 41.6006 15.6305 34.2753C16.8309 30.3255 18.7865 26.2594 19.3351 22.5871C20.4581 22.8517 20.4839 25.7367 20.4839 28.4861C20.4839 30.3061 20.4194 35.5403 20.3742 38.8835C24.0659 38.3994 29.0936 37.9993 35.7347 37.9993C42.3759 37.9993 47.0422 38.3736 50.6951 38.8383V23.8005C50.6951 21.135 50.5144 18.2371 52.4958 15.791C51.6568 15.4941 50.7791 15.2166 49.8561 14.9649C47.7263 17.3981 47.5004 21.3415 47.5004 25.8206C47.5004 26.7628 47.5133 31.5195 47.5262 36.7085C44.8736 36.4181 41.737 36.1986 38.0453 36.1341C36.7222 35.8372 34.9861 35.1724 33.6695 33.7267C34.1793 33.9591 34.7279 34.0882 35.3023 34.0882C38.1098 34.0882 40.3816 31.0741 40.3816 27.3566C40.3816 25.4979 39.8137 23.8134 38.8908 22.5936C38.9553 17.198 39.8395 14.4873 40.3881 13.332C36.9997 13.0287 33.4242 12.9577 29.8358 13.1771C27.6866 13.3062 25.1373 13.5967 23.0203 13.9323L21.4391 12.3639C36.0897 9.04658 51.8117 11.8089 57.9946 14.526C58.227 14.6293 58.4206 14.7326 58.6078 14.8423C58.8466 14.2614 58.5626 13.3579 57.1298 12.5124L57.1556 12.5188Z" fill="#BDC3C7"/>
<path d="M35.8194 69.3569C33.0055 69.3569 30.8821 69.1052 29.4687 68.7051C29.5203 71.9063 29.1395 74.1845 28.4941 75.7658C30.5917 75.5786 32.9797 75.4624 35.6968 75.4624C36.2841 75.4624 36.8327 75.4753 37.3878 75.4882C37.2781 72.8034 37.2264 70.609 37.2006 69.3311C36.7553 69.344 36.3035 69.3569 35.8194 69.3569Z" fill="#BDC3C7"/>
<path d="M30.6223 65.7798C30.0479 66.2574 29.125 66.5349 29.125 66.5349C29.125 66.5349 30.2738 67.3158 35.8178 67.3158C36.0566 67.3158 36.2631 67.3094 36.489 67.3029V65.9928C36.2631 65.9928 36.0502 65.9928 35.8178 65.9928C33.6815 65.9928 31.9906 65.9089 30.6288 65.7798H30.6223Z" fill="#BDC3C7"/>
<path d="M42.707 64.0371C44.2366 63.6628 45.1466 63.0367 45.2499 62.0234C44.3463 62.2041 43.4686 62.3139 42.707 62.3784V64.0371Z" fill="#BDC3C7"/>
<path d="M50.8272 49.6022V46.6334C49.8462 46.5043 48.749 46.3881 47.5615 46.272C47.5615 49.0924 47.5615 51.2093 47.5485 51.6869C47.4195 56.1789 45.2574 59.4769 43.1211 60.9419C46.9419 59.5995 50.8272 56.4693 50.8272 49.5958V49.6022Z" fill="#BDC3C7"/>
<path d="M33.2459 64.102V62.2432C31.4 62.1722 29.793 61.9141 29.793 61.9141V63.7986C30.774 63.9664 31.9292 64.0633 33.2459 64.1084V64.102Z" fill="white"/>
<path d="M24.7305 46.1641C25.3565 57.0649 29.4871 59.6272 32.8174 60.1951C31.3781 58.0524 31.2555 55.3224 31.2555 50.7658V45.835C28.8094 45.8995 26.6409 46.0157 24.7305 46.1641Z" fill="white"/>
<path d="M31.2628 20.4557C31.237 17.8741 31.0886 15.0795 30.4432 13.1562C30.2496 13.1692 30.0559 13.1692 29.8623 13.1821C27.7131 13.3111 25.1638 13.6016 23.0469 13.9372C24.7636 16.3962 24.6927 19.791 24.6927 22.8954C24.6927 26.1675 24.6797 32.1311 24.6733 36.6424C26.6159 36.4488 28.8103 36.2939 31.2693 36.2035V31.3953C30.6303 30.2723 30.2496 28.8782 30.2496 27.3615C30.2496 23.644 32.5278 20.63 35.3289 20.63C34.6318 20.2428 32.7085 20.0233 31.2693 20.4622L31.2628 20.4557Z" fill="white"/>
<path d="M57.1479 12.5184C52.9011 10.0142 45.6404 8.32324 35.7722 8.32324C25.904 8.32324 18.6432 10.0142 14.3965 12.5184C12.1892 13.8221 12.712 15.2742 13.6607 15.442C14.7579 14.7063 16.3456 14.1125 16.3456 14.1125C18.7852 13.1057 21.4443 12.3635 21.4443 12.3635C36.0949 9.04609 51.8169 11.8084 57.9998 14.5255C58.2322 14.6288 58.4258 14.7321 58.6129 14.8418C58.8517 14.2609 58.5678 13.3574 57.135 12.5119L57.1479 12.5184Z" fill="white"/>
<path d="M43.1388 75.7916C42.487 74.2104 42.1062 71.9192 42.1514 68.7051C41.6738 68.8406 41.1058 68.9503 40.4669 69.0471C40.4282 71.6481 40.6734 73.8296 41.1252 75.6367C41.8222 75.6819 42.4934 75.7335 43.1388 75.7916Z" fill="#BDC3C7"/>
<path d="M61.1651 46.0009C60.8747 38.3917 58.3318 31.5375 56.6473 27.0068C55.9373 25.0899 54.1173 20.2752 55.7244 17.5581C51.3937 18.268 53.8591 26.3743 56.1697 33.9061C57.0668 36.8233 57.6864 39.3727 57.6089 42.0059C57.4798 46.2849 56.3246 47.8468 56.615 49.286C56.9442 50.9318 59.003 50.8802 58.6674 55.8691C58.2414 62.3425 54.6143 72.9723 50.5547 76.9673C51.3937 77.1674 52.1166 77.3739 52.7297 77.5611C54.4077 75.1731 56.0148 71.9138 57.4089 68.0995C59.5709 62.1683 61.4942 54.4557 61.178 46.0074L61.1651 46.0009Z" fill="#BDC3C7"/>
<path d="M33.3324 75.502C33.4292 72.7655 33.4744 70.5388 33.5002 69.2932C32.4288 69.2287 31.4865 69.1254 30.6927 68.9834C30.6798 71.3133 30.5378 73.527 30.3184 75.6375C31.2736 75.5794 32.2675 75.5278 33.3324 75.502Z" fill="white"/>
<path d="M53.0968 81.733V81.591L53.0839 81.3328L52.858 81.2038L52.7354 81.1392C52.5353 81.0295 47.7658 78.4092 35.6645 78.4092C23.5632 78.4092 18.7873 81.0295 18.5936 81.1392L18.4775 81.2038L18.258 81.3328V81.591L18.2451 81.733C18.2451 81.8556 17.9418 94.0666 20.8977 100.992C23.5955 107.304 27.384 111.086 30.0947 113.138C33.0571 115.391 35.3676 116.133 35.4644 116.165L35.5419 116.191L35.6774 116.236L35.813 116.191L35.8839 116.165C35.9808 116.139 38.2913 115.397 41.2537 113.138C43.9579 111.079 47.7593 107.297 50.4507 100.992C53.4066 94.0602 53.1097 81.8556 53.1033 81.733H53.0968ZM49.1147 100.45C46.6041 106.303 43.1124 109.84 40.6212 111.776C37.917 113.88 35.8323 114.577 35.742 114.61L35.6903 114.623L35.6451 114.61C35.5612 114.577 33.4766 113.874 30.7659 111.776C28.2747 109.84 24.783 106.303 22.2724 100.45C19.5166 94.0214 19.6715 82.5333 19.6715 82.4236V82.288L19.7941 82.2235C19.9748 82.1267 24.3893 79.9065 35.6903 79.9065C46.9978 79.9065 51.4058 82.1267 51.5866 82.2235L51.7092 82.288V82.4236C51.7092 82.5398 51.8641 94.0279 49.1147 100.45Z" fill="white"/>
<path d="M34.5691 91.3057L29.0444 82.2637C24.3975 82.6896 22.2354 83.4706 21.8095 83.6448V83.761C21.7449 84.5807 21.4287 90.3054 23.1842 96.5787H31.3614L34.5755 91.3122L34.5691 91.3057ZM28.7411 92.8805L27.1082 90.4538L26.3273 91.3445V92.8805H24.3136V86.5104H26.3273V88.821L28.4119 86.5104H30.5676L28.3151 89.0791L30.8709 92.8805H28.7411Z" fill="white"/>
<path d="M49.5237 83.6433C49.0977 83.469 46.9292 82.6881 42.2629 82.2621L42.2113 82.3396L42.2694 82.2363L36.7383 91.2849L39.9524 96.5513L39.9201 96.4933L39.9717 96.5771H48.149C49.9045 90.3038 49.5882 84.5856 49.5366 83.7595L49.5237 83.6433ZM46.9937 92.8854H44.9542V88.0385H43.4246V89.7294C43.3278 92.9758 40.772 93.0081 40.772 93.0081L39.9201 91.614C40.4687 91.543 40.9269 91.1945 41.1657 90.7169C41.1722 90.704 41.1786 90.6975 41.1786 90.6911C41.3529 90.3168 41.3787 89.9102 41.3787 89.7165V86.4185H46.9937V92.8919V92.8854Z" fill="white"/>
<path d="M40.1925 82.1086C38.85 82.0311 37.3462 81.9795 35.6682 81.9795C33.9902 81.9795 32.4864 82.0311 31.1504 82.1086L35.6682 89.5178L40.1925 82.1086Z" fill="white"/>
<path d="M40.4969 100.588H40.2387L35.6628 93.1147V93.0889V93.1018L31.0417 100.582H24.5684C25.3687 102.408 26.3755 104.203 27.6663 105.868C30.3189 109.14 33.0877 110.85 34.5721 111.605C34.5721 111.605 34.585 111.612 34.5914 111.618C35.2627 111.954 35.6564 112.115 35.6564 112.115C35.6564 112.115 35.7338 112.089 35.8758 112.031C36.831 111.593 37.7152 111.102 38.5478 110.566C39.7676 109.753 41.2584 108.572 42.7558 106.92C44.4596 104.984 45.744 102.815 46.7056 100.595H40.4904L40.4969 100.588ZM39.0834 108.178H36.8374L35.6886 106.571L34.5334 108.178H32.2874L34.5656 104.997L32.2809 101.808H34.5334L35.6951 103.428L36.8504 101.808H39.1028L36.8181 104.997L39.0899 108.178H39.0834Z" fill="white"/>
<path d="M15.4774 93.1538C15.0127 89.7009 14.8514 86.4094 14.8062 84.144H12.8313C9.84304 84.144 8.04883 85.9124 8.04883 88.4231V101.286C8.87494 99.5304 10.2561 98.2719 13.709 98.2461C13.709 98.0395 13.709 97.8266 13.709 97.6071C13.709 95.3934 14.619 94.1349 15.4774 93.1538Z" fill="#DEE1E3"/>
<path d="M176.617 96.0944V93.9517L180.373 90.0921C180.541 89.9243 180.612 89.7695 180.612 89.5629V89.0143C180.612 88.7304 180.444 88.5625 180.16 88.5625H176.753V86.2778H181.032C182.29 86.2778 183.136 87.1169 183.136 88.3818V89.6146C183.136 90.4149 182.897 90.9312 182.129 91.7057L180.122 93.6806V93.8032H183.136V96.0879H176.617V96.0944Z" fill="black"/>
<path d="M187.534 96.2309C186.275 96.2309 185.43 95.3919 185.43 94.1269V88.2344C185.43 86.9694 186.269 86.1304 187.534 86.1304H190.38C191.645 86.1304 192.484 86.9694 192.484 88.2344V94.1269C192.484 95.3854 191.645 96.2309 190.38 96.2309H187.534ZM189.528 93.9462C189.793 93.9462 189.967 93.7784 189.967 93.5009V88.8733C189.967 88.5958 189.799 88.4215 189.528 88.4215H188.392C188.115 88.4215 187.96 88.5894 187.96 88.8733V93.5009C187.96 93.7784 188.115 93.9462 188.392 93.9462H189.528Z" fill="black"/>
<path d="M194.792 96.0955V93.9463L198.548 90.0868C198.716 89.919 198.787 89.7641 198.787 89.5576V89.009C198.787 88.725 198.619 88.5572 198.335 88.5572H194.928V86.2725H199.207C200.472 86.2725 201.311 87.1115 201.311 88.3765V89.6092C201.311 90.4095 201.072 90.9258 200.297 91.7003L198.29 93.6752V93.8043H201.304V96.089H194.779L194.792 96.0955Z" fill="black"/>
<path d="M210.095 91.881V89.8803H207.726V91.881H206.352L208.482 87.5955L208.507 86.2725H206.552L203.641 92.1069L203.615 94.1851H207.565V96.0955H210.095V94.1851H211.07V91.881H210.095Z" fill="#030405"/>
<path d="M62.6211 96.0919V93.9492L66.3773 90.0897C66.5451 89.9219 66.6161 89.767 66.6161 89.5605V89.0119C66.6161 88.7279 66.4483 88.5601 66.1644 88.5601H62.7566V86.2754H67.0356C68.2942 86.2754 69.1397 87.1144 69.1397 88.3794V89.6121C69.1397 90.4124 68.9009 90.9287 68.1328 91.7032L66.1256 93.6781V93.8008H69.1397V96.0855H62.6211V96.0919Z" fill="black"/>
<path d="M74.0845 96.2338C72.8259 96.2338 71.9805 95.3948 71.9805 94.1298V88.2373C71.9805 86.9723 72.8195 86.1333 74.0845 86.1333H76.9307C78.1957 86.1333 79.0347 86.9723 79.0347 88.2373V94.1298C79.0347 95.3884 78.1957 96.2338 76.9307 96.2338H74.0845ZM76.0788 93.9491C76.3434 93.9491 76.5176 93.7813 76.5176 93.5038V88.8763C76.5176 88.5987 76.3498 88.4245 76.0788 88.4245H74.9429C74.6653 88.4245 74.5104 88.5923 74.5104 88.8763V93.5038C74.5104 93.7813 74.6653 93.9491 74.9429 93.9491H76.0788Z" fill="black"/>
<path d="M81.3965 96.0919V93.9492L85.1527 90.0897C85.3205 89.9219 85.3915 89.767 85.3915 89.5605V89.0119C85.3915 88.7279 85.2237 88.5601 84.9397 88.5601H81.532V86.2754H85.811C87.0696 86.2754 87.915 87.1144 87.915 88.3794V89.6121C87.915 90.4124 87.6762 90.9287 86.9082 91.7032L84.901 93.6781V93.8008H87.915V96.0855H81.3965V96.0919Z" fill="black"/>
<path d="M90.418 96.0903V93.8056H93.9677C94.2517 93.8056 94.4195 93.6377 94.4195 93.3602V92.7019C94.4195 92.4244 94.2517 92.2695 93.9677 92.2695H92.0057V90.3914L93.6901 88.694V88.5713H90.4244V86.2866H96.6396V88.3455L94.8454 90.1719V90.2817H95.0713C96.2524 90.2817 97.0333 91.082 97.0333 92.2889V93.9992C97.0333 95.2577 96.1943 96.1032 94.9293 96.1032H90.4244L90.418 96.0903Z" fill="black"/>
</svg>
