<svg width="230" height="43" viewBox="0 0 230 43" fill="none" xmlns="http://www.w3.org/2000/svg">
<path d="M11.3583 41.5133C10.9924 41.7329 10.5167 41.8427 10.0776 41.7695H1.99039C1.07556 41.7695 0.709621 41.3669 0.929182 40.5619L7.47942 12.3483C7.80876 10.9212 8.32107 9.5672 9.01634 8.28643C9.71162 6.96906 10.5899 5.76148 11.6877 4.77345C12.8587 3.71224 14.2126 2.87059 15.6764 2.32169C17.4328 1.66301 19.2625 1.37026 21.1288 1.40685H38.6205C39.0962 1.40685 39.3523 1.48004 39.4987 1.58982C39.6451 1.73619 39.5719 2.13872 39.4255 2.7974L37.8886 9.31104C37.8154 9.67698 37.669 10.0429 37.4129 10.2991C37.1567 10.482 36.8274 10.5918 36.4981 10.5552H22.2632C21.6045 10.5552 20.9458 10.665 20.3237 10.8846C19.8846 11.0675 19.4821 11.3237 19.1161 11.6896C18.7868 11.9824 18.5672 12.3483 18.3843 12.7508C18.2013 13.1168 18.0915 13.4827 17.9817 13.8852L17.1767 17.3982H32.3264C32.8021 17.3982 33.0583 17.4714 33.2046 17.6178C33.3144 18.0203 33.2778 18.4228 33.1315 18.8254L31.7409 24.8267C31.5579 25.7049 31.0822 26.1441 30.3503 26.1441H15.1275L11.7243 40.5619C11.6877 40.8912 11.5413 41.2206 11.3217 41.4767L11.3583 41.5133Z" fill="white"/>
<path d="M62.4059 21.6059C62.6987 20.2153 62.8817 18.7882 62.9914 17.361C63.1012 16.19 62.9914 14.9824 62.7353 13.848C62.5523 12.8966 62.0766 12.0184 61.3447 11.3963C60.4299 10.7742 59.3321 10.4448 58.2343 10.518C57.1365 10.518 56.0387 10.8108 55.1238 11.3963C54.1358 12.0184 53.2576 12.7868 52.5257 13.7383C51.7206 14.7995 51.062 15.9705 50.5131 17.2146C49.9276 18.532 49.4884 19.9226 49.1957 21.3497C48.7932 22.9232 48.537 24.5333 48.3906 26.1435C48.2809 27.351 48.3906 28.5586 48.72 29.7296C48.9761 30.6445 49.5616 31.4495 50.3301 31.9984C51.2815 32.5839 52.3427 32.8767 53.4405 32.8035C54.6115 32.8035 55.7093 32.4375 56.6974 31.8154C57.722 31.1934 58.6002 30.3883 59.2955 29.4369C60.064 28.3391 60.686 27.1681 61.1618 25.9239C61.7107 24.5699 62.1498 23.1794 62.4791 21.7522M73.9329 21.679C73.2742 24.6797 72.2496 27.6072 70.859 30.3883C69.6514 32.8401 68.0413 35.0723 66.0653 36.9751C64.1258 38.8048 61.857 40.1954 59.3321 41.1102C56.551 42.0982 53.5869 42.6105 50.6228 42.5739C47.9515 42.6837 45.3168 42.208 42.8284 41.1834C40.889 40.3417 39.2789 38.9512 38.181 37.1215C37.0832 35.1455 36.4977 32.8767 36.4612 30.6079C36.388 27.6804 36.7173 24.7529 37.4492 21.8986C38.1445 18.8979 39.2057 16.0437 40.6328 13.3357C41.9136 10.884 43.5969 8.65176 45.6095 6.7489C47.549 4.95582 49.7812 3.52868 52.2695 2.57724C54.9409 1.33307 57.722 0.784163 60.5763 0.784163C63.211 0.710976 65.8457 1.18669 68.2975 2.2479C70.2369 3.12615 71.8837 4.58989 73.0181 6.45615C74.1525 8.4322 74.8111 10.6644 74.8843 12.9698C74.9941 15.8607 74.6648 18.7516 73.9695 21.5693" fill="white"/>
<path d="M141.045 28.5948C141.338 27.6799 141.228 26.6919 140.716 25.8869C140.24 25.1916 139.325 24.8257 138.044 24.8257H131.311L129.518 32.3273H136.288C136.983 32.3273 137.642 32.2541 138.301 31.998C139.289 31.5954 140.13 30.827 140.643 29.8756C140.862 29.473 141.009 29.0339 141.118 28.5948M133.287 16.2994H139.289C140.094 16.2994 140.862 16.0798 141.557 15.7139C142.362 15.2016 142.875 14.3965 143.021 13.4451C143.241 12.7864 143.131 12.0179 142.692 11.469C142.18 10.9933 141.484 10.7372 140.752 10.8103H134.495L133.287 16.336V16.2994ZM148.437 19.7757C149.315 20.1783 150.12 20.7638 150.779 21.4956C151.364 22.1909 151.767 23.0326 152.06 23.8742C152.353 24.7525 152.462 25.6673 152.462 26.6187C152.462 27.5702 152.353 28.485 152.133 29.3998C151.694 31.2295 150.925 32.9128 149.864 34.4497C148.803 35.9501 147.522 37.304 146.022 38.3652C144.485 39.4631 142.765 40.3047 140.972 40.8902C139.106 41.4757 137.166 41.7684 135.19 41.7684H120.297C118.686 41.7684 117.772 41.5123 117.442 40.8902C117.113 40.3047 117.113 39.2801 117.442 37.9627L125.09 5.24813C125.273 4.18692 125.712 3.1989 126.408 2.39384C126.993 1.73516 128.128 1.479 129.665 1.479H144.631C146.241 1.479 147.815 1.66197 149.352 2.0645C150.633 2.39384 151.84 3.05252 152.828 3.93077C153.78 4.80901 154.438 5.90682 154.768 7.1144C155.097 8.68792 155.06 10.298 154.621 11.835C154.219 13.4451 153.45 14.9088 152.353 16.153C151.328 17.4704 150.011 18.6048 148.547 19.4098L148.474 19.7392L148.437 19.7757Z" fill="white"/>
<path d="M182.798 41.7695H165.05C163.221 41.8427 161.354 41.5134 159.671 40.7815C158.5 40.2326 157.512 39.3178 156.89 38.1834C156.304 37.0856 156.012 35.878 156.012 34.6704C156.012 33.353 156.158 32.0723 156.487 30.8281L160.805 12.4215C161.135 10.9944 161.647 9.64044 162.342 8.35967C163.038 7.0423 163.916 5.83472 165.014 4.8467C166.185 3.78548 167.539 2.94383 169.002 2.39493C170.722 1.73625 172.552 1.4435 174.382 1.48009H191.324C191.8 1.48009 192.056 1.55328 192.203 1.69965C192.349 1.84603 192.276 2.24856 192.129 2.90724L190.593 9.42088C190.519 9.78682 190.373 10.1528 190.117 10.4089C189.861 10.6285 189.531 10.7017 189.202 10.6651H175.516C174.857 10.6651 174.199 10.7748 173.577 10.9944C173.137 11.1774 172.698 11.4335 172.369 11.7995C172.076 12.0922 171.82 12.4581 171.637 12.8607C171.491 13.2266 171.344 13.5925 171.235 13.9951L170.649 16.3736H186.092C186.567 16.3736 186.823 16.4468 186.97 16.5932C187.08 16.9957 187.043 17.3983 186.897 17.8008L185.506 23.7655C185.323 24.6438 184.847 25.0829 184.116 25.0829H168.673L167.685 29.4009C167.539 29.9498 167.502 30.5353 167.539 31.1208C167.539 31.4868 167.722 31.8161 168.014 32.0357C168.307 32.2552 168.636 32.4016 169.002 32.4382H184.957C185.433 32.4382 185.689 32.5114 185.835 32.6212C185.982 32.7675 185.909 33.1701 185.762 33.8287L184.225 40.3424C184.006 41.2206 183.567 41.6597 182.835 41.6597" fill="white"/>
<path d="M225.982 10.5908H216.065L209.076 40.5243C209.04 40.8536 208.893 41.1829 208.674 41.4391C208.308 41.6587 207.869 41.7684 207.393 41.6953H199.232C198.354 41.6953 197.988 41.2927 198.171 40.4877L205.161 10.5542H195.573C194.768 10.5542 194.439 10.0785 194.658 9.23683L196.195 2.79637C196.232 2.35725 196.415 1.91813 196.744 1.58879C197.037 1.44241 197.403 1.36922 197.732 1.40582H228.068C228.397 1.36922 228.727 1.40582 228.983 1.58879C229.129 1.73516 229.129 2.13769 228.983 2.79637L227.446 9.23683C227.373 10.0053 226.714 10.5908 225.909 10.5542" fill="white"/>
<path d="M90.1397 19.8851L85.1996 40.4872C85.163 40.8166 85.0166 41.1459 84.7971 41.4021C84.4311 41.6216 83.9554 41.7314 83.5163 41.6582H75.3193C74.4411 41.6582 74.1118 41.2557 74.2581 40.4506L82.5648 5.94296C82.9674 4.14988 83.5529 2.94229 84.2847 2.28361C85.0166 1.62493 86.2242 1.40536 87.7977 1.40536H92.2621C92.6281 1.44196 92.994 1.55174 93.3233 1.73471C93.6527 1.95427 93.9454 2.21042 94.2016 2.53976C94.4943 2.97888 94.7871 3.4546 95.0066 3.93032L100.313 16.2257L103.167 23.2883H103.57L108.51 2.53976C108.546 2.21042 108.693 1.88108 108.912 1.62493C109.278 1.40536 109.754 1.29558 110.193 1.36877H118.39C119.268 1.36877 119.671 1.7713 119.451 2.57636L111.218 37.1572C110.961 38.3648 110.412 39.4626 109.607 40.414C108.839 41.2923 107.595 41.7314 105.875 41.6948H101.41C101.008 41.6582 100.642 41.5484 100.276 41.3655C99.9102 41.1825 99.5808 40.8897 99.3613 40.5604C99.0319 40.1213 98.7758 39.6456 98.5562 39.1698L93.2867 27.0574L90.3593 19.9583L90.1031 19.8851H90.1397Z" fill="white"/>
</svg>
