<svg width="78" height="78" viewBox="0 0 78 78" fill="none" xmlns="http://www.w3.org/2000/svg">
<path d="M13.26 26.52C5.95518 26.52 0 32.4752 0 39.78C0 47.0848 5.95518 53.04 13.26 53.04C16.5294 53.04 19.5242 51.8411 21.84 49.8682C24.1558 51.8411 27.1506 53.04 30.42 53.04C33.6894 53.04 36.6842 51.8411 39 49.8682C41.3158 51.8411 44.3106 53.04 47.58 53.04C50.8494 53.04 53.8442 51.8411 56.16 49.8682C58.4758 51.8411 61.4706 53.04 64.74 53.04C72.0448 53.04 78 47.0848 78 39.78C78 32.4752 72.0448 26.52 64.74 26.52C61.4706 26.52 58.4758 27.7189 56.16 29.6918C53.8442 27.7189 50.8494 26.52 47.58 26.52C44.3106 26.52 41.3158 27.7189 39 29.6918C36.6842 27.7189 33.6894 26.52 30.42 26.52C27.1506 26.52 24.1558 27.7189 21.84 29.6918C19.5242 27.7189 16.5294 26.52 13.26 26.52ZM13.26 29.64C15.7267 29.64 17.9806 30.5116 19.7346 31.9648C18.124 34.16 17.16 36.8584 17.16 39.78C17.16 42.7017 18.124 45.4001 19.7346 47.5953C17.9806 49.0484 15.7267 49.92 13.26 49.92C7.64135 49.92 3.12 45.3987 3.12 39.78C3.12 34.1614 7.64135 29.64 13.26 29.64ZM30.42 29.64C32.8867 29.64 35.1406 30.5116 36.8946 31.9648C35.284 34.16 34.32 36.8584 34.32 39.78C34.32 42.7017 35.284 45.4001 36.8946 47.5953C35.1406 49.0484 32.8867 49.92 30.42 49.92C27.9533 49.92 25.6994 49.0484 23.9454 47.5953C25.556 45.4001 26.52 42.7017 26.52 39.78C26.52 36.8584 25.556 34.16 23.9454 31.9648C25.6994 30.5116 27.9533 29.64 30.42 29.64ZM47.58 29.64C50.0467 29.64 52.3006 30.5116 54.0546 31.9648C52.444 34.16 51.48 36.8584 51.48 39.78C51.48 42.7017 52.444 45.4001 54.0546 47.5953C52.3006 49.0484 50.0467 49.92 47.58 49.92C45.1133 49.92 42.8594 49.0484 41.1054 47.5953C42.716 45.4001 43.68 42.7017 43.68 39.78C43.68 36.8584 42.716 34.16 41.1054 31.9648C42.8594 30.5116 45.1133 29.64 47.58 29.64ZM64.74 29.64C70.3586 29.64 74.88 34.1614 74.88 39.78C74.88 45.3987 70.3586 49.92 64.74 49.92C62.2733 49.92 60.0194 49.0484 58.2654 47.5953C59.876 45.4001 60.84 42.7017 60.84 39.78C60.84 36.8584 59.876 34.16 58.2654 31.9648C60.0194 30.5116 62.2733 29.64 64.74 29.64ZM21.84 34.3779C22.8236 35.9413 23.4 37.7885 23.4 39.78C23.4 41.7716 22.8236 43.6188 21.84 45.1821C20.8564 43.6188 20.28 41.7716 20.28 39.78C20.28 37.7885 20.8564 35.9413 21.84 34.3779ZM39 34.3779C39.9836 35.9413 40.56 37.7885 40.56 39.78C40.56 41.7716 39.9836 43.6188 39 45.1821C38.0164 43.6188 37.44 41.7716 37.44 39.78C37.44 37.7885 38.0164 35.9413 39 34.3779ZM56.16 34.3779C57.1436 35.9413 57.72 37.7885 57.72 39.78C57.72 41.7716 57.1436 43.6188 56.16 45.1821C55.1764 43.6188 54.6 41.7716 54.6 39.78C54.6 37.7885 55.1764 35.9413 56.16 34.3779Z" fill="white"/>
</svg>
