<svg width="97" height="21" viewBox="0 0 97 21" fill="none" xmlns="http://www.w3.org/2000/svg">
<path d="M15.529 0.67394V20.2991H12.4599V11.9692H3.06907V20.2991H0V0.67394H3.06907V8.94993H12.4599V0.67394H15.529Z" fill="white"/>
<path d="M20.9062 10.5135C20.9062 9.14763 21.1598 7.86264 21.6669 6.65854C22.1741 5.45443 22.8736 4.38511 23.7654 3.45058C24.6573 2.51605 25.6891 1.78819 26.8607 1.26701C28.0499 0.727855 29.3178 0.458279 30.6643 0.458279C31.9934 0.458279 33.2437 0.727855 34.4154 1.26701C35.6045 1.78819 36.645 2.51605 37.5369 3.45058C38.4463 4.38511 39.1545 5.45443 39.6617 6.65854C40.1863 7.86264 40.4486 9.14763 40.4486 10.5135C40.4486 11.8973 40.1863 13.1913 39.6617 14.3954C39.1545 15.5995 38.4463 16.6688 37.5369 17.6033C36.645 18.5199 35.6045 19.2388 34.4154 19.7599C33.2437 20.2632 31.9934 20.5148 30.6643 20.5148C29.3003 20.5148 28.0324 20.2632 26.8607 19.7599C25.6891 19.2388 24.6573 18.5289 23.7654 17.6303C22.8736 16.7137 22.1741 15.6534 21.6669 14.4493C21.1598 13.2272 20.9062 11.9153 20.9062 10.5135ZM24.054 10.5135C24.054 11.484 24.2201 12.3915 24.5524 13.2362C24.9021 14.0809 25.383 14.8267 25.9951 15.4737C26.6072 16.1027 27.3154 16.5969 28.1198 16.9564C28.9243 17.3158 29.7987 17.4955 30.743 17.4955C31.6523 17.4955 32.5005 17.3158 33.2874 16.9564C34.0919 16.5969 34.7914 16.1027 35.3859 15.4737C35.9805 14.8267 36.4439 14.0809 36.7762 13.2362C37.126 12.3915 37.3008 11.484 37.3008 10.5135C37.3008 9.52503 37.126 8.60847 36.7762 7.7638C36.4265 6.91913 35.9543 6.1733 35.3597 5.52632C34.7651 4.87933 34.0656 4.37612 33.2612 4.01669C32.4568 3.65725 31.5911 3.47754 30.6643 3.47754C29.7375 3.47754 28.8718 3.65725 28.0674 4.01669C27.263 4.37612 26.5547 4.87933 25.9426 5.52632C25.3481 6.1733 24.8846 6.92811 24.5524 7.79076C24.2201 8.63543 24.054 9.543 24.054 10.5135Z" fill="white"/>
<path d="M62.6264 21L47.9631 6.38896L48.8549 6.76637L48.9336 20.2991H45.8383V0H45.9695L60.423 14.611L59.7147 14.3954L59.6623 0.67394H62.7051V21H62.6264Z" fill="white"/>
<path d="M82.2409 17.2259H88.5365V20.2991H78.2275L82.2409 17.2259ZM68.1022 10.5135C68.1022 9.14763 68.3558 7.86264 68.8629 6.65854C69.3701 5.45443 70.0696 4.38511 70.9614 3.45058C71.8533 2.51605 72.8851 1.78819 74.0567 1.26701C75.2459 0.727855 76.5138 0.458279 77.8603 0.458279C79.1894 0.458279 80.4397 0.727855 81.6114 1.26701C82.8005 1.78819 83.8411 2.51605 84.7329 3.45058C85.6423 4.38511 86.3505 5.45443 86.8577 6.65854C87.3823 7.86264 87.6446 9.14763 87.6446 10.5135C87.6446 11.8973 87.3823 13.1913 86.8577 14.3954C86.3505 15.5995 85.6423 16.6688 84.7329 17.6033C83.8411 18.5199 82.8005 19.2388 81.6114 19.7599C80.4397 20.2632 79.1894 20.5148 77.8603 20.5148C76.4963 20.5148 75.2284 20.2632 74.0567 19.7599C72.8851 19.2388 71.8533 18.5289 70.9614 17.6303C70.0696 16.7137 69.3701 15.6534 68.8629 14.4493C68.3558 13.2272 68.1022 11.9153 68.1022 10.5135ZM71.25 10.5135C71.25 11.466 71.4161 12.3646 71.7484 13.2092C72.0981 14.0539 72.579 14.7997 73.1911 15.4467C73.8032 16.0757 74.5114 16.57 75.3159 16.9294C76.1203 17.2888 76.9947 17.4685 77.939 17.4685C78.8484 17.4685 79.6965 17.2888 80.4834 16.9294C81.2879 16.57 81.9874 16.0757 82.582 15.4467C83.1765 14.8177 83.64 14.0809 83.9722 13.2362C84.322 12.3915 84.4968 11.484 84.4968 10.5135C84.4968 9.56098 84.322 8.66239 83.9722 7.81771C83.6225 6.97304 83.1503 6.2362 82.5557 5.60719C81.9611 4.96021 81.2616 4.457 80.4572 4.09756C79.6528 3.73813 78.7871 3.55841 77.8603 3.55841C76.9335 3.55841 76.0678 3.73813 75.2634 4.09756C74.459 4.457 73.7507 4.96021 73.1387 5.60719C72.5441 6.25417 72.0806 7 71.7484 7.84467C71.4161 8.68935 71.25 9.57895 71.25 10.5135Z" fill="white"/>
<path d="M93.9309 0.67394H97V20.2991H93.9309V0.67394Z" fill="white"/>
</svg>
