<svg width="172" height="36" viewBox="0 0 172 36" fill="none" xmlns="http://www.w3.org/2000/svg">
<path d="M27.5359 1.15533V34.7985H22.0939V20.5186H5.44207V34.7985H0V1.15533H5.44207V15.3427H22.0939V1.15533H27.5359Z" fill="black"/>
<path d="M37.0708 18.0231C37.0708 15.6816 37.5204 13.4788 38.4197 11.4146C39.319 9.35045 40.5593 7.51733 42.1408 5.91528C43.7222 4.31322 45.5518 3.06547 47.6294 2.17201C49.738 1.24775 51.9861 0.785621 54.3738 0.785621C56.7305 0.785621 58.9476 1.24775 61.0252 2.17201C63.1338 3.06547 64.9788 4.31322 66.5603 5.91528C68.1728 7.51733 69.4286 9.35045 70.3279 11.4146C71.2582 13.4788 71.7233 15.6816 71.7233 18.0231C71.7233 20.3954 71.2582 22.6136 70.3279 24.6778C69.4286 26.742 68.1728 28.5751 66.5603 30.1772C64.9788 31.7484 63.1338 32.9807 61.0252 33.8742C58.9476 34.7368 56.7305 35.1682 54.3738 35.1682C51.9551 35.1682 49.707 34.7368 47.6294 33.8742C45.5518 32.9807 43.7222 31.7638 42.1408 30.2234C40.5593 28.6521 39.319 26.8344 38.4197 24.7702C37.5204 22.6752 37.0708 20.4262 37.0708 18.0231ZM42.6524 18.0231C42.6524 19.6868 42.947 21.2426 43.5362 22.6906C44.1564 24.1386 45.0091 25.4172 46.0944 26.5263C47.1797 27.6046 48.4356 28.4519 49.862 29.068C51.2884 29.6842 52.8389 29.9923 54.5133 29.9923C56.1258 29.9923 57.6297 29.6842 59.0251 29.068C60.4515 28.4519 61.6919 27.6046 62.7462 26.5263C63.8005 25.4172 64.6222 24.1386 65.2114 22.6906C65.8316 21.2426 66.1417 19.6868 66.1417 18.0231C66.1417 16.3286 65.8316 14.7574 65.2114 13.3094C64.5912 11.8614 63.754 10.5828 62.6997 9.47368C61.6454 8.36457 60.405 7.50192 58.9786 6.88575C57.5522 6.26958 56.0173 5.96149 54.3738 5.96149C52.7303 5.96149 51.1954 6.26958 49.769 6.88575C48.3426 7.50192 47.0867 8.36457 46.0014 9.47368C44.9471 10.5828 44.1253 11.8768 43.5362 13.3556C42.947 14.8036 42.6524 16.3594 42.6524 18.0231Z" fill="black"/>
<path d="M111.049 36L85.0479 10.9525L86.6294 11.5995L86.7689 34.7985H81.2803V0H81.5129L107.142 25.0475L105.886 24.6778L105.793 1.15533H111.188V36H111.049Z" fill="black"/>
<path d="M145.829 29.5302H156.993V34.7985H138.713L145.829 29.5302ZM120.759 18.0231C120.759 15.6816 121.208 13.4788 122.107 11.4146C123.007 9.35045 124.247 7.51733 125.829 5.91528C127.41 4.31322 129.24 3.06547 131.317 2.17201C133.426 1.24775 135.674 0.785621 138.062 0.785621C140.418 0.785621 142.635 1.24775 144.713 2.17201C146.822 3.06547 148.667 4.31322 150.248 5.91528C151.861 7.51733 153.116 9.35045 154.016 11.4146C154.946 13.4788 155.411 15.6816 155.411 18.0231C155.411 20.3954 154.946 22.6136 154.016 24.6778C153.116 26.742 151.861 28.5751 150.248 30.1772C148.667 31.7484 146.822 32.9807 144.713 33.8742C142.635 34.7368 140.418 35.1682 138.062 35.1682C135.643 35.1682 133.395 34.7368 131.317 33.8742C129.24 32.9807 127.41 31.7638 125.829 30.2234C124.247 28.6521 123.007 26.8344 122.107 24.7702C121.208 22.6752 120.759 20.4262 120.759 18.0231ZM126.34 18.0231C126.34 19.656 126.635 21.1964 127.224 22.6444C127.844 24.0924 128.697 25.371 129.782 26.4801C130.867 27.5584 132.123 28.4056 133.55 29.0218C134.976 29.638 136.527 29.9461 138.201 29.9461C139.814 29.9461 141.318 29.638 142.713 29.0218C144.139 28.4056 145.38 27.5584 146.434 26.4801C147.488 25.4018 148.31 24.1386 148.899 22.6906C149.519 21.2426 149.829 19.6868 149.829 18.0231C149.829 16.3902 149.519 14.8498 148.899 13.4018C148.279 11.9538 147.442 10.6906 146.387 9.61232C145.333 8.50321 144.093 7.64056 142.666 7.02439C141.24 6.40821 139.705 6.10013 138.062 6.10013C136.418 6.10013 134.883 6.40821 133.457 7.02439C132.03 7.64056 130.774 8.50321 129.689 9.61232C128.635 10.7214 127.813 12 127.224 13.448C126.635 14.896 126.34 16.4211 126.34 18.0231Z" fill="black"/>
<path d="M166.558 1.15533H172V34.7985H166.558V1.15533Z" fill="black"/>
</svg>
