<svg width="133" height="133" viewBox="0 0 133 133" fill="none" xmlns="http://www.w3.org/2000/svg">
<path d="M22.61 45.22C10.1543 45.22 0 55.3743 0 67.83C0 80.2856 10.1543 90.44 22.61 90.44C28.1847 90.44 33.2913 88.3957 37.24 85.0317C41.1887 88.3957 46.2953 90.44 51.87 90.44C57.4447 90.44 62.5513 88.3957 66.5 85.0317C70.4487 88.3957 75.5553 90.44 81.13 90.44C86.7047 90.44 91.8113 88.3957 95.76 85.0317C99.7087 88.3957 104.815 90.44 110.39 90.44C122.846 90.44 133 80.2856 133 67.83C133 55.3743 122.846 45.22 110.39 45.22C104.815 45.22 99.7087 47.2642 95.76 50.6283C91.8113 47.2642 86.7047 45.22 81.13 45.22C75.5553 45.22 70.4487 47.2642 66.5 50.6283C62.5513 47.2642 57.4447 45.22 51.87 45.22C46.2953 45.22 41.1887 47.2642 37.24 50.6283C33.2913 47.2642 28.1847 45.22 22.61 45.22ZM22.61 50.54C26.8161 50.54 30.6592 52.0261 33.65 54.504C30.9037 58.2471 29.26 62.8482 29.26 67.83C29.26 72.8118 30.9037 77.4129 33.65 81.1559C30.6592 83.6338 26.8161 85.12 22.61 85.12C13.0295 85.12 5.32 77.4105 5.32 67.83C5.32 58.2495 13.0295 50.54 22.61 50.54ZM51.87 50.54C56.0761 50.54 59.9192 52.0261 62.91 54.504C60.1637 58.2471 58.52 62.8482 58.52 67.83C58.52 72.8118 60.1637 77.4129 62.91 81.1559C59.9192 83.6338 56.0761 85.12 51.87 85.12C47.6639 85.12 43.8208 83.6338 40.83 81.1559C43.5763 77.4129 45.22 72.8118 45.22 67.83C45.22 62.8482 43.5763 58.2471 40.83 54.504C43.8208 52.0261 47.6639 50.54 51.87 50.54ZM81.13 50.54C85.3361 50.54 89.1792 52.0261 92.17 54.504C89.4237 58.2471 87.78 62.8482 87.78 67.83C87.78 72.8118 89.4237 77.4129 92.17 81.1559C89.1792 83.6338 85.3361 85.12 81.13 85.12C76.9239 85.12 73.0808 83.6338 70.09 81.1559C72.8363 77.4129 74.48 72.8118 74.48 67.83C74.48 62.8482 72.8363 58.2471 70.09 54.504C73.0808 52.0261 76.9239 50.54 81.13 50.54ZM110.39 50.54C119.971 50.54 127.68 58.2495 127.68 67.83C127.68 77.4105 119.971 85.12 110.39 85.12C106.184 85.12 102.341 83.6338 99.35 81.1559C102.096 77.4129 103.74 72.8118 103.74 67.83C103.74 62.8482 102.096 58.2471 99.35 54.504C102.341 52.0261 106.184 50.54 110.39 50.54ZM37.24 58.6187C38.9172 61.2844 39.9 64.4341 39.9 67.83C39.9 71.2258 38.9172 74.3755 37.24 77.0413C35.5628 74.3755 34.58 71.2258 34.58 67.83C34.58 64.4341 35.5628 61.2844 37.24 58.6187ZM66.5 58.6187C68.1772 61.2844 69.16 64.4341 69.16 67.83C69.16 71.2258 68.1772 74.3755 66.5 77.0413C64.8228 74.3755 63.84 71.2258 63.84 67.83C63.84 64.4341 64.8228 61.2844 66.5 58.6187ZM95.76 58.6187C97.4372 61.2844 98.42 64.4341 98.42 67.83C98.42 71.2258 97.4372 74.3755 95.76 77.0413C94.0828 74.3755 93.1 71.2258 93.1 67.83C93.1 64.4341 94.0828 61.2844 95.76 58.6187Z" fill="black"/>
</svg>
