<svg width="252" height="18" viewBox="0 0 252 18" fill="none" xmlns="http://www.w3.org/2000/svg">
<path d="M0.565129 17.1053V0.793356H16.7162V17.1053H12.0064V4.88282H5.2749V17.1053H0.565129ZM28.1929 17.3809C25.681 17.3809 23.5903 16.5998 21.9208 15.0375C20.2667 13.4753 19.4396 11.4459 19.4396 8.94931C19.4396 6.42211 20.2667 4.38504 21.9208 2.83809C23.5903 1.29114 25.681 0.517661 28.1929 0.517661C30.7047 0.517661 32.7878 1.29114 34.4419 2.83809C36.1114 4.38504 36.9462 6.42211 36.9462 8.94931C36.9462 11.4459 36.1114 13.4753 34.4419 15.0375C32.7725 16.5998 30.6894 17.3809 28.1929 17.3809ZM25.2981 12.0049C26.0179 12.8014 26.9829 13.1996 28.1929 13.1996C29.4029 13.1996 30.3678 12.8014 31.0877 12.0049C31.8075 11.1931 32.1675 10.1746 32.1675 8.94931C32.1675 7.724 31.8075 6.71312 31.0877 5.91667C30.3678 5.10491 29.4029 4.69902 28.1929 4.69902C26.9829 4.69902 26.0179 5.10491 25.2981 5.91667C24.5782 6.71312 24.2183 7.724 24.2183 8.94931C24.2183 10.1746 24.5782 11.1931 25.2981 12.0049ZM45.1269 10.3048C45.0043 11.5607 44.8205 12.5946 44.5755 13.4064C44.3304 14.2181 43.9628 14.938 43.4727 15.566C42.9979 16.1939 42.3623 16.6458 41.5658 16.9215C40.7694 17.1972 39.7662 17.335 38.5562 17.335H38.1886V12.6252H38.5332C39.299 12.6252 39.8351 12.4338 40.1414 12.0509C40.4477 11.6526 40.6545 10.9634 40.7617 9.98316L41.7266 0.793356H55.3505V17.1053H50.6408V4.88282H45.7012L45.1269 10.3048ZM66.3223 17.1053H61.2219L64.5073 11.6603L57.2933 0.793356H62.9221L67.1723 7.22622L71.055 0.793356H76.1554L66.3223 17.1053ZM88.6115 17.1053V11.6373C87.1258 11.8364 85.732 11.936 84.4301 11.936C82.1174 11.936 80.3713 11.4306 79.192 10.4197C78.0126 9.39348 77.4229 7.71634 77.4229 5.38826V0.793356H82.1327V5.38826C82.1327 6.26129 82.3548 6.88926 82.799 7.27217C83.2431 7.65507 83.9324 7.84653 84.8667 7.84653C85.464 7.84653 86.0766 7.82355 86.7046 7.77761C87.3326 7.71634 87.8074 7.66273 88.129 7.61678L88.6115 7.54786V0.793356H93.3213V17.1053H88.6115ZM96.7709 17.1053V0.793356H101.481V10.6264L108.672 0.793356H113.381V17.1053H108.672V7.31812L101.481 17.1053H96.7709ZM121.745 17.1053V4.83687H115.841V0.793356H132.336V4.83687H126.432V17.1053H121.745ZM144.449 5.57205C146.44 5.57205 147.987 6.06218 149.09 7.04242C150.193 8.02267 150.744 9.45474 150.744 11.3387C150.744 13.2226 150.193 14.6546 149.09 15.6349C147.987 16.6151 146.44 17.1053 144.449 17.1053H134.8V0.793356H139.487V5.57205H144.449ZM143.829 9.61557H139.487V13.0617H143.829C145.223 13.0617 145.92 12.4874 145.92 11.3387C145.92 10.1899 145.223 9.61557 143.829 9.61557ZM168.705 6.85863C170.665 6.85863 172.189 7.27982 173.277 8.12222C174.364 8.94931 174.908 10.1746 174.908 11.7981C174.908 13.5442 174.364 14.8691 173.277 15.7727C172.189 16.6611 170.665 17.1053 168.705 17.1053H158.964V0.793356H173.438V4.83687H163.65V6.85863H168.705ZM168.314 10.5345H163.65V13.0617H168.314C169.494 13.0617 170.083 12.6405 170.083 11.7981C170.083 10.9557 169.494 10.5345 168.314 10.5345ZM185.716 17.3809C183.204 17.3809 181.114 16.5998 179.444 15.0375C177.79 13.4753 176.963 11.4459 176.963 8.94931C176.963 6.42211 177.79 4.38504 179.444 2.83809C181.114 1.29114 183.204 0.517661 185.716 0.517661C188.228 0.517661 190.311 1.29114 191.965 2.83809C193.635 4.38504 194.47 6.42211 194.47 8.94931C194.47 11.4459 193.635 13.4753 191.965 15.0375C190.296 16.5998 188.213 17.3809 185.716 17.3809ZM182.822 12.0049C183.541 12.8014 184.506 13.1996 185.716 13.1996C186.926 13.1996 187.891 12.8014 188.611 12.0049C189.331 11.1931 189.691 10.1746 189.691 8.94931C189.691 7.724 189.331 6.71312 188.611 5.91667C187.891 5.10491 186.926 4.69902 185.716 4.69902C184.506 4.69902 183.541 5.10491 182.822 5.91667C182.102 6.71312 181.742 7.724 181.742 8.94931C181.742 10.1746 182.102 11.1931 182.822 12.0049ZM197.195 17.1053V0.793356H201.904V6.90457H208.866V0.793356H213.575V17.1053H208.866V10.994H201.904V17.1053H197.195ZM224.564 17.1053H219.463L222.749 11.6603L215.535 0.793356H221.163L225.414 7.22622L229.296 0.793356H234.397L224.564 17.1053ZM243.214 17.3809C240.717 17.3809 238.673 16.5922 237.08 15.0146C235.502 13.4217 234.713 11.3999 234.713 8.94931C234.713 6.48338 235.502 4.46162 237.08 2.88404C238.673 1.30645 240.717 0.517661 243.214 0.517661C244.271 0.517661 245.236 0.663167 246.109 0.954178C246.997 1.22987 247.717 1.58215 248.268 2.01101C248.835 2.42455 249.325 2.90701 249.739 3.4584C250.152 3.99447 250.451 4.49225 250.635 4.95174C250.834 5.41123 250.964 5.84775 251.025 6.26129H246.247C245.588 5.23509 244.577 4.722 243.214 4.722C242.081 4.722 241.177 5.12788 240.503 5.93965C239.844 6.73609 239.515 7.73932 239.515 8.94931C239.515 10.1593 239.844 11.1702 240.503 11.9819C241.177 12.7784 242.081 13.1766 243.214 13.1766C244.592 13.1766 245.611 12.6712 246.27 11.6603H251.025C250.964 12.0126 250.849 12.4108 250.681 12.855C250.512 13.2838 250.221 13.774 249.808 14.3253C249.409 14.8767 248.935 15.3745 248.383 15.8187C247.832 16.2475 247.104 16.6151 246.201 16.9215C245.297 17.2278 244.301 17.3809 243.214 17.3809Z" fill="white"/>
</svg>
