<svg width="156" height="860" viewBox="0 0 156 860" fill="none" xmlns="http://www.w3.org/2000/svg">
<mask id="path-1-outside-1_86_6951" maskUnits="userSpaceOnUse" x="-0.906288" y="-0.781257" width="158" height="862" fill="black">
<rect fill="white" x="-0.906288" y="-0.781257" width="158" height="862"/>
<path d="M3.64122 759.605L3.64121 703.451L78.7281 703.451L3.64121 668.597L3.64121 610.507L74.6403 647.943L152.094 603.837L152.094 665.37L95.2945 689.897L95.2945 703.451L152.094 703.451L152.094 759.605L95.2945 759.605L95.2945 773.159L152.094 797.686L152.094 859.219L74.4251 815.328L3.64122 852.764L3.64122 794.459L78.7281 759.605L3.64122 759.605ZM155.321 437.415C155.321 464.954 151.09 485.25 142.627 498.302C134.021 511.211 118.817 518.956 97.0157 521.538L97.0157 538.104L152.094 538.104L152.094 594.258L3.64121 594.258L3.64121 538.104L58.7193 538.104L58.7193 521.323C36.4872 518.598 21.2117 510.637 12.8926 497.441C4.57352 484.246 0.413978 464.237 0.413977 437.415C0.413977 425.51 1.13114 415.255 2.56546 406.649C3.85635 397.899 6.2947 390.011 9.88052 382.982C13.3229 375.811 17.9844 370.145 23.8652 365.986C29.7459 361.683 37.1327 358.384 46.0255 356.089C54.9183 353.794 65.604 352.646 78.0826 352.646C93.143 352.646 105.622 354.224 115.518 357.38C125.415 360.392 133.304 365.484 139.185 372.655C145.066 379.683 149.225 388.361 151.663 398.688C154.102 408.872 155.321 421.781 155.321 437.415ZM42.7983 437.415C42.7983 449.176 44.878 456.922 49.0376 460.651C53.1971 464.237 62.8788 466.03 78.0826 466.03C92.7127 466.03 102.179 464.165 106.482 460.436C110.785 456.707 112.937 449.033 112.937 437.415C112.937 425.94 110.785 418.338 106.482 414.609C102.179 410.736 92.7127 408.8 78.0826 408.8C67.6121 408.8 59.9384 409.732 55.0617 411.597C50.0416 413.318 46.7426 416.043 45.1649 419.773C43.5871 423.502 42.7983 429.383 42.7983 437.415ZM62.3768 176.833C83.7482 176.833 99.5258 181.495 109.709 190.818C119.893 200.141 124.985 214.341 124.985 233.417L124.985 279.674L152.094 279.674L152.094 335.828L3.6412 335.828L3.64119 233.847C3.64119 213.767 8.23103 199.28 17.4107 190.387C26.4469 181.351 41.4356 176.833 62.3768 176.833ZM43.4437 251.49L43.4437 279.674L84.9674 279.674L84.9674 251.059C84.9674 244.892 83.3896 240.374 80.2341 237.505C76.9351 234.493 71.4847 232.987 63.8828 232.987C55.8506 232.987 50.4719 234.278 47.7467 236.859C44.878 239.441 43.4437 244.318 43.4437 251.49ZM3.64119 105.506L76.3614 105.506L3.64119 47.6312L3.64118 0.298548L152.094 0.298541L152.094 56.022L81.3098 56.022L152.094 114.973L152.094 161.23L3.64119 161.23L3.64119 105.506Z"/>
</mask>
<path d="M3.64122 759.605L2.63461 759.605L2.63461 760.612L3.64122 760.612L3.64122 759.605ZM3.64121 703.451L3.64121 702.445L2.6346 702.445L2.6346 703.451L3.64121 703.451ZM78.7281 703.451L78.7281 704.458L79.1519 702.538L78.7281 703.451ZM3.64121 668.597L2.6346 668.597L2.6346 669.24L3.21739 669.51L3.64121 668.597ZM3.64121 610.507L4.1107 609.617L2.6346 608.838L2.6346 610.507L3.64121 610.507ZM74.6402 647.943L74.1708 648.833L74.6589 649.091L75.1384 648.818L74.6402 647.943ZM152.094 603.837L153.1 603.837L153.1 602.106L151.596 602.963L152.094 603.837ZM152.094 665.37L152.493 666.294L153.1 666.032L153.1 665.37L152.094 665.37ZM95.2945 689.897L94.8955 688.973L94.2879 689.235L94.2879 689.897L95.2945 689.897ZM95.2945 703.451L94.2879 703.451L94.2879 704.458L95.2945 704.458L95.2945 703.451ZM152.094 703.451L153.1 703.451L153.1 702.445L152.094 702.445L152.094 703.451ZM152.094 759.605L152.094 760.612L153.1 760.612L153.1 759.605L152.094 759.605ZM95.2945 759.605L95.2945 758.598L94.2879 758.598L94.2879 759.605L95.2945 759.605ZM95.2945 773.159L94.2879 773.159L94.2879 773.821L94.8955 774.083L95.2945 773.159ZM152.094 797.686L153.1 797.686L153.1 797.024L152.493 796.762L152.094 797.686ZM152.094 859.219L151.599 860.095L153.1 860.944L153.1 859.219L152.094 859.219ZM74.4251 815.328L74.9203 814.452L74.4411 814.181L73.9545 814.439L74.4251 815.328ZM3.64122 852.764L2.63461 852.764L2.63461 854.435L4.11183 853.654L3.64122 852.764ZM3.64122 794.459L3.2174 793.546L2.63461 793.817L2.63461 794.459L3.64122 794.459ZM78.7281 759.605L79.1519 760.518L78.7281 758.598L78.7281 759.605ZM4.64783 759.605L4.64782 703.451L2.6346 703.451L2.63461 759.605L4.64783 759.605ZM3.64121 704.458L78.7281 704.458L78.7281 702.445L3.64121 702.445L3.64121 704.458ZM79.1519 702.538L4.06503 667.684L3.21739 669.51L78.3043 704.364L79.1519 702.538ZM4.64782 668.597L4.64782 610.507L2.6346 610.507L2.6346 668.597L4.64782 668.597ZM3.17172 611.397L74.1708 648.833L75.1097 647.052L4.1107 609.617L3.17172 611.397ZM75.1384 648.818L152.592 604.712L151.596 602.963L74.1421 647.068L75.1384 648.818ZM151.087 603.837L151.087 665.37L153.1 665.37L153.1 603.837L151.087 603.837ZM151.695 664.446L94.8955 688.973L95.6936 690.821L152.493 666.294L151.695 664.446ZM94.2879 689.897L94.2879 703.451L96.3011 703.451L96.3011 689.897L94.2879 689.897ZM95.2945 704.458L152.094 704.458L152.094 702.445L95.2945 702.445L95.2945 704.458ZM151.087 703.451L151.087 759.605L153.1 759.605L153.1 703.451L151.087 703.451ZM152.094 758.598L95.2945 758.598L95.2945 760.612L152.094 760.612L152.094 758.598ZM94.2879 759.605L94.2879 773.159L96.3011 773.159L96.3011 759.605L94.2879 759.605ZM94.8955 774.083L151.695 798.61L152.493 796.762L95.6936 772.235L94.8955 774.083ZM151.087 797.686L151.087 859.219L153.1 859.219L153.1 797.686L151.087 797.686ZM152.589 858.342L74.9203 814.452L73.9299 816.205L151.599 860.095L152.589 858.342ZM73.9545 814.439L3.17061 851.874L4.11183 853.654L74.8957 816.218L73.9545 814.439ZM4.64783 852.764L4.64783 794.459L2.63461 794.459L2.63461 852.764L4.64783 852.764ZM4.06504 795.372L79.1519 760.518L78.3043 758.692L3.2174 793.546L4.06504 795.372ZM78.7281 758.598L3.64122 758.598L3.64122 760.612L78.7281 760.612L78.7281 758.598ZM142.627 498.302L143.465 498.86L143.472 498.85L142.627 498.302ZM97.0157 521.538L96.8973 520.538L96.0091 520.644L96.0091 521.538L97.0157 521.538ZM97.0157 538.104L96.0091 538.104L96.0091 539.111L97.0157 539.111L97.0157 538.104ZM152.094 538.104L153.1 538.104L153.1 537.098L152.094 537.098L152.094 538.104ZM152.094 594.258L152.094 595.265L153.1 595.265L153.1 594.258L152.094 594.258ZM3.64121 594.258L2.6346 594.258L2.6346 595.265L3.64121 595.265L3.64121 594.258ZM3.64121 538.104L3.64121 537.098L2.6346 537.098L2.6346 538.104L3.64121 538.104ZM58.7193 538.104L58.7193 539.111L59.7259 539.111L59.7259 538.104L58.7193 538.104ZM58.7193 521.323L59.7259 521.323L59.7259 520.432L58.8417 520.324L58.7193 521.323ZM12.8926 497.441L13.7441 496.905L13.7441 496.905L12.8926 497.441ZM2.56546 406.649L3.55837 406.814L3.55992 406.805L3.56129 406.796L2.56546 406.649ZM9.88052 382.982L10.7772 383.44L10.7827 383.429L10.788 383.418L9.88052 382.982ZM23.8652 365.986L24.4465 366.807L24.4531 366.803L24.4596 366.798L23.8652 365.986ZM46.0255 356.089L45.7739 355.114L46.0255 356.089ZM115.518 357.38L115.213 358.339L115.225 358.343L115.518 357.38ZM139.185 372.655L138.406 373.293L138.413 373.301L139.185 372.655ZM151.663 398.688L150.684 398.919L150.684 398.923L151.663 398.688ZM49.0376 460.651L48.3656 461.4L48.3729 461.407L48.3803 461.413L49.0376 460.651ZM106.482 460.436L105.823 459.675L106.482 460.436ZM106.482 414.609L105.809 415.357L105.816 415.364L105.823 415.37L106.482 414.609ZM55.0617 411.597L55.3882 412.549L55.4048 412.544L55.4212 412.537L55.0617 411.597ZM45.1649 419.773L46.0919 420.165L45.1649 419.773ZM154.314 437.415C154.314 464.89 150.086 484.948 141.783 497.754L143.472 498.85C152.094 485.551 156.328 465.018 156.328 437.415L154.314 437.415ZM141.79 497.744C133.407 510.318 118.532 517.976 96.8973 520.538L97.1341 522.538C119.103 519.936 134.636 512.103 143.465 498.86L141.79 497.744ZM96.0091 521.538L96.0091 538.104L98.0223 538.104L98.0223 521.538L96.0091 521.538ZM97.0157 539.111L152.094 539.111L152.094 537.098L97.0157 537.098L97.0157 539.111ZM151.087 538.104L151.087 594.258L153.1 594.258L153.1 538.104L151.087 538.104ZM152.094 593.252L3.64121 593.252L3.64121 595.265L152.094 595.265L152.094 593.252ZM4.64782 594.258L4.64782 538.104L2.6346 538.104L2.6346 594.258L4.64782 594.258ZM3.64121 539.111L58.7193 539.111L58.7193 537.098L3.64121 537.098L3.64121 539.111ZM59.7259 538.104L59.7259 521.323L57.7126 521.323L57.7126 538.104L59.7259 538.104ZM58.8417 520.324C36.7739 517.619 21.8409 509.748 13.7441 496.905L12.0411 497.978C20.5825 511.527 36.2006 519.577 58.5968 522.322L58.8417 520.324ZM13.7441 496.905C5.57564 483.948 1.42059 464.167 1.42059 437.415L-0.592633 437.415C-0.592632 464.306 3.5714 484.544 12.0411 497.978L13.7441 496.905ZM1.42059 437.415C1.42059 425.547 2.13577 415.35 3.55837 406.814L1.57255 406.483C0.126501 415.159 -0.592634 425.473 -0.592633 437.415L1.42059 437.415ZM3.56129 406.796C4.83812 398.142 7.24669 390.36 10.7772 383.44L8.98387 382.525C5.34272 389.661 2.87458 397.657 1.56963 406.502L3.56129 406.796ZM10.788 383.418C14.1642 376.384 18.7198 370.858 24.4465 366.807L23.2839 365.164C17.2491 369.432 12.4816 375.237 8.97304 382.547L10.788 383.418ZM24.4596 366.798C30.2144 362.587 37.4768 359.334 46.277 357.063L45.7739 355.114C36.7885 357.433 29.2774 360.778 23.2708 365.173L24.4596 366.798ZM46.277 357.063C55.0643 354.796 65.6608 353.653 78.0826 353.653L78.0826 351.64C65.5472 351.64 54.7723 352.792 45.7739 355.114L46.277 357.063ZM78.0826 353.653C93.0816 353.653 105.448 355.225 115.213 358.339L115.824 356.421C105.795 353.223 93.2044 351.64 78.0826 351.64L78.0826 353.653ZM115.225 358.343C124.955 361.304 132.666 366.293 138.406 373.293L139.963 372.017C133.942 364.674 125.876 359.48 115.812 356.417L115.225 358.343ZM138.413 373.301C144.178 380.192 148.276 388.721 150.684 398.919L152.643 398.457C150.174 388.001 145.953 379.175 139.957 372.009L138.413 373.301ZM150.684 398.923C153.098 409.002 154.314 421.825 154.314 437.415L156.328 437.415C156.328 421.737 155.106 408.742 152.642 398.454L150.684 398.923ZM41.7916 437.415C41.7916 443.347 42.3152 448.319 43.3859 452.306C44.4554 456.289 46.0902 459.36 48.3656 461.4L49.7095 459.901C47.8254 458.212 46.3405 455.546 45.3303 451.784C44.3212 448.026 43.8049 443.244 43.8049 437.415L41.7916 437.415ZM48.3803 461.413C50.6643 463.382 54.3385 464.768 59.2352 465.675C64.1597 466.587 70.4485 467.036 78.0826 467.036L78.0826 465.023C70.5129 465.023 64.3589 464.576 59.6018 463.695C54.8167 462.809 51.5703 461.505 49.6948 459.889L48.3803 461.413ZM78.0826 467.036C85.4332 467.036 91.5285 466.568 96.3496 465.619C101.15 464.673 104.795 463.23 107.141 461.196L105.823 459.675C103.866 461.371 100.627 462.724 95.9606 463.644C91.3151 464.559 85.3621 465.023 78.0826 465.023L78.0826 467.036ZM107.141 461.196C109.49 459.161 111.184 456.109 112.292 452.155C113.401 448.2 113.943 443.278 113.943 437.415L111.93 437.415C111.93 443.17 111.396 447.894 110.354 451.612C109.311 455.332 107.777 457.982 105.823 459.675L107.141 461.196ZM113.943 437.415C113.943 425.91 111.806 417.891 107.141 413.848L105.823 415.37C109.764 418.786 111.93 425.971 111.93 437.415L113.943 437.415ZM107.156 413.861C104.809 411.749 101.161 410.249 96.3568 409.266C91.5326 408.279 85.4347 407.794 78.0826 407.794L78.0826 409.807C85.3607 409.807 91.311 410.289 95.9534 411.239C100.615 412.192 103.852 413.596 105.809 415.357L107.156 413.861ZM78.0826 407.794C67.5874 407.794 59.7592 408.723 54.7022 410.657L55.4212 412.537C60.1177 410.742 67.6367 409.807 78.0826 409.807L78.0826 407.794ZM54.7352 410.645C49.5334 412.428 45.9591 415.312 44.2378 419.381L46.0919 420.165C47.5262 416.775 50.5498 414.208 55.3882 412.549L54.7352 410.645ZM44.2378 419.381C42.5778 423.304 41.7916 429.354 41.7916 437.415L43.8049 437.415C43.8049 429.411 44.5964 423.7 46.0919 420.165L44.2378 419.381ZM109.709 190.818L109.03 191.56L109.709 190.818ZM124.985 279.674L123.978 279.674L123.978 280.681L124.985 280.681L124.985 279.674ZM152.094 279.674L153.1 279.674L153.1 278.667L152.094 278.667L152.094 279.674ZM152.094 335.828L152.094 336.834L153.1 336.834L153.1 335.828L152.094 335.828ZM3.6412 335.828L2.63459 335.828L2.63459 336.834L3.6412 336.834L3.6412 335.828ZM17.4107 190.387L18.1111 191.11L18.1168 191.105L18.1225 191.099L17.4107 190.387ZM43.4437 279.674L42.4371 279.674L42.4371 280.681L43.4437 280.681L43.4437 279.674ZM84.9674 279.674L84.9674 280.681L85.974 280.681L85.974 279.674L84.9674 279.674ZM80.2341 237.505L79.5554 238.248L79.557 238.25L80.2341 237.505ZM47.7467 236.859L48.42 237.608L48.4296 237.599L48.439 237.59L47.7467 236.859ZM62.3768 177.84C83.6293 177.84 99.1106 182.479 109.03 191.56L110.389 190.075C99.9409 180.51 83.867 175.826 62.3768 175.826L62.3768 177.84ZM109.03 191.56C118.935 200.628 123.978 214.512 123.978 233.417L125.992 233.417C125.992 214.17 120.851 199.653 110.389 190.075L109.03 191.56ZM123.978 233.417L123.978 279.674L125.992 279.674L125.992 233.417L123.978 233.417ZM124.985 280.681L152.094 280.681L152.094 278.667L124.985 278.667L124.985 280.681ZM151.087 279.674L151.087 335.828L153.1 335.828L153.1 279.674L151.087 279.674ZM152.094 334.821L3.6412 334.821L3.6412 336.834L152.094 336.834L152.094 334.821ZM4.64781 335.828L4.6478 233.847L2.63458 233.847L2.63459 335.828L4.64781 335.828ZM4.6478 233.847C4.6478 213.888 9.21435 199.729 18.1111 191.11L16.7103 189.664C7.24771 198.831 2.63458 213.646 2.63458 233.847L4.6478 233.847ZM18.1225 191.099C26.8798 182.342 41.5402 177.84 62.3768 177.84L62.3768 175.826C41.3311 175.826 26.014 180.36 16.6989 189.676L18.1225 191.099ZM42.4371 251.49L42.4371 279.674L44.4503 279.674L44.4503 251.49L42.4371 251.49ZM43.4437 280.681L84.9674 280.681L84.9674 278.667L43.4437 278.667L43.4437 280.681ZM85.974 279.674L85.974 251.059L83.9608 251.059L83.9608 279.674L85.974 279.674ZM85.974 251.059C85.974 244.737 84.356 239.892 80.9112 236.76L79.557 238.25C82.4232 240.855 83.9608 245.047 83.9608 251.059L85.974 251.059ZM80.9128 236.762C77.3356 233.495 71.5729 231.98 63.8828 231.98L63.8828 233.993C71.3965 233.993 76.5347 235.49 79.5554 238.248L80.9128 236.762ZM63.8828 231.98C59.8198 231.98 56.382 232.306 53.5897 232.976C50.8045 233.645 48.5917 234.672 47.0544 236.129L48.439 237.59C49.6268 236.465 51.466 235.556 54.0595 234.934C56.6459 234.313 59.9136 233.993 63.8828 233.993L63.8828 231.98ZM47.0733 236.111C43.8694 238.995 42.4371 244.256 42.4371 251.49L44.4503 251.49C44.4503 244.379 45.8866 239.888 48.42 237.608L47.0733 236.111ZM3.64119 105.506L3.64119 104.5L2.63458 104.5L2.63458 105.506L3.64119 105.506ZM76.3614 105.506L76.3614 106.513L79.2427 106.513L76.9882 104.719L76.3614 105.506ZM3.64119 47.6312L2.63458 47.6312L2.63458 48.1166L3.01435 48.4189L3.64119 47.6312ZM3.64118 0.298523L3.64118 -0.708069L2.63457 -0.708069L2.63457 0.298523L3.64118 0.298523ZM152.094 0.298516L153.1 0.298516L153.1 -0.708076L152.094 -0.708075L152.094 0.298516ZM152.094 56.022L152.094 57.0286L153.1 57.0286L153.1 56.022L152.094 56.022ZM81.3098 56.022L81.3098 55.0154L78.5282 55.0154L80.6656 56.7955L81.3098 56.022ZM152.094 114.973L153.1 114.973L153.1 114.501L152.738 114.199L152.094 114.973ZM152.094 161.23L152.094 162.236L153.1 162.236L153.1 161.23L152.094 161.23ZM3.64119 161.23L2.63458 161.23L2.63458 162.236L3.64119 162.236L3.64119 161.23ZM3.64119 106.513L76.3614 106.513L76.3614 104.5L3.64119 104.5L3.64119 106.513ZM76.9882 104.719L4.26802 46.8436L3.01435 48.4189L75.7346 106.294L76.9882 104.719ZM4.6478 47.6312L4.64779 0.298523L2.63457 0.298523L2.63458 47.6312L4.6478 47.6312ZM3.64118 1.30518L152.094 1.30517L152.094 -0.708075L3.64118 -0.708069L3.64118 1.30518ZM151.087 0.298516L151.087 56.022L153.1 56.022L153.1 0.298516L151.087 0.298516ZM152.094 55.0154L81.3098 55.0154L81.3098 57.0286L152.094 57.0286L152.094 55.0154ZM80.6656 56.7955L151.45 115.746L152.738 114.199L81.954 55.2485L80.6656 56.7955ZM151.087 114.973L151.087 161.23L153.1 161.23L153.1 114.973L151.087 114.973ZM152.094 160.223L3.64119 160.223L3.64119 162.236L152.094 162.236L152.094 160.223ZM4.6478 161.23L4.6478 105.506L2.63458 105.506L2.63458 161.23L4.6478 161.23Z" fill="white" mask="url(#path-1-outside-1_86_6951)"/>
</svg>
