<svg width="316" height="58" viewBox="0 0 316 58" fill="none" xmlns="http://www.w3.org/2000/svg">
<mask id="path-1-outside-1_132_3010" maskUnits="userSpaceOnUse" x="-1.81836" y="-1" width="318" height="60" fill="black">
<rect fill="white" x="-1.81836" y="-1" width="318" height="60"/>
<path d="M36.7203 1.5472L57.3176 1.5472L57.3176 29.0893L70.1022 1.5472L91.4098 1.5472L77.6782 27.5898L93.8562 56H71.2859L62.2894 35.1659H57.3176V56H36.7203V35.1659H31.7485L22.7519 56L0.181641 56L16.2807 27.5109L2.54915 1.5472L23.9357 1.5472L36.7203 29.0893L36.7203 1.5472ZM154.9 57.1838C144.799 57.1838 137.355 55.6317 132.567 52.5276C127.832 49.371 124.991 43.7942 124.044 35.7972H117.967L117.967 56L97.3699 56L97.3699 1.5472L117.967 1.5472V21.75L124.123 21.75C125.122 13.5952 128.042 7.9921 132.883 4.94064C137.723 1.88918 145.062 0.363447 154.9 0.363447C159.267 0.363447 163.029 0.626504 166.186 1.15262C169.395 1.62612 172.289 2.52051 174.866 3.8358C177.497 5.09847 179.575 6.80834 181.101 8.96541C182.679 11.1225 183.889 13.832 184.731 17.0939C185.573 20.3558 185.994 24.2753 185.994 28.8525C185.994 34.3767 185.415 38.9539 184.258 42.5841C183.153 46.2143 181.285 49.1079 178.654 51.265C176.077 53.422 172.894 54.9478 169.106 55.8422C165.37 56.7366 160.635 57.1838 154.9 57.1838ZM154.9 15.9101C150.586 15.9101 147.745 16.673 146.377 18.1987C145.062 19.7244 144.404 23.2757 144.404 28.8525C144.404 34.2189 145.088 37.6912 146.456 39.2696C147.824 40.8479 150.639 41.6371 154.9 41.6371C159.109 41.6371 161.898 40.8479 163.266 39.2696C164.686 37.6912 165.396 34.2189 165.396 28.8525C165.396 25.0119 165.054 22.1972 164.371 20.4084C163.739 18.567 162.74 17.3569 161.372 16.7782C160.004 16.1995 157.847 15.9101 154.9 15.9101ZM250.483 23.0916C250.483 30.9307 248.773 36.7179 245.353 40.4533C241.933 44.1887 236.725 46.0564 229.727 46.0564H212.76V56L192.163 56V1.5472L229.57 1.5472C236.935 1.5472 242.249 3.23077 245.511 6.5979C248.825 9.91242 250.483 15.4103 250.483 23.0916ZM223.098 16.1469H212.76V31.3779H223.256C225.518 31.3779 227.176 30.7991 228.228 29.6417C229.333 28.4316 229.885 26.4324 229.885 23.644C229.885 20.6978 229.412 18.7248 228.465 17.7252C227.518 16.673 225.729 16.1469 223.098 16.1469ZM276.645 1.5472V28.2212L297.874 1.5472L315.236 1.5472V56H294.796V30.0363L273.173 56H256.206V1.5472L276.645 1.5472Z"/>
</mask>
<path d="M36.7203 1.5472V0.66455L35.8376 0.66455V1.5472H36.7203ZM57.3176 1.5472L58.2003 1.5472V0.66455L57.3176 0.66455V1.5472ZM57.3176 29.0893H56.435L58.1182 29.4609L57.3176 29.0893ZM70.1022 1.5472V0.66455L69.5388 0.66455L69.3016 1.17557L70.1022 1.5472ZM91.4098 1.5472L92.1906 1.95888L92.873 0.66455L91.4098 0.66455V1.5472ZM77.6782 27.5898L76.8975 27.1782L76.6718 27.6062L76.9112 28.0266L77.6782 27.5898ZM93.8562 56V56.8827H95.3746L94.6232 55.5632L93.8562 56ZM71.2859 56L70.4756 56.3499L70.7057 56.8827H71.2859V56ZM62.2894 35.1659L63.0997 34.816L62.8697 34.2832H62.2894V35.1659ZM57.3176 35.1659V34.2832H56.435V35.1659H57.3176ZM57.3176 56V56.8827H58.2003V56H57.3176ZM36.7203 56H35.8376V56.8827H36.7203V56ZM36.7203 35.1659H37.6029V34.2832H36.7203V35.1659ZM31.7485 35.1659V34.2832H31.1682L30.9381 34.816L31.7485 35.1659ZM22.7519 56V56.8827H23.3322L23.5623 56.3499L22.7519 56ZM0.181641 56L-0.586804 55.5658L-1.33098 56.8827H0.181641L0.181641 56ZM16.2807 27.5109L17.0492 27.9452L17.2866 27.525L17.061 27.0983L16.2807 27.5109ZM2.54915 1.5472L2.54915 0.66455L1.08385 0.66455L1.7689 1.95986L2.54915 1.5472ZM23.9357 1.5472L24.7363 1.17557L24.4991 0.66455L23.9357 0.66455V1.5472ZM36.7203 29.0893L35.9197 29.4609L37.6029 29.0893H36.7203ZM36.7203 2.42986L57.3176 2.42986V0.66455L36.7203 0.66455V2.42986ZM56.435 1.5472L56.435 29.0893H58.2003L58.2003 1.5472L56.435 1.5472ZM58.1182 29.4609L70.9028 1.91883L69.3016 1.17557L56.517 28.7176L58.1182 29.4609ZM70.1022 2.42986L91.4098 2.42986V0.66455L70.1022 0.66455V2.42986ZM90.629 1.13553L76.8975 27.1782L78.459 28.0015L92.1906 1.95888L90.629 1.13553ZM76.9112 28.0266L93.0892 56.4368L94.6232 55.5632L78.4452 27.1531L76.9112 28.0266ZM93.8562 55.1173H71.2859V56.8827H93.8562V55.1173ZM72.0963 55.6501L63.0997 34.816L61.4791 35.5158L70.4756 56.3499L72.0963 55.6501ZM62.2894 34.2832H57.3176V36.0485H62.2894V34.2832ZM56.435 35.1659V56H58.2003V35.1659H56.435ZM57.3176 55.1173H36.7203V56.8827H57.3176V55.1173ZM37.6029 56V35.1659H35.8376V56H37.6029ZM36.7203 34.2832H31.7485V36.0485H36.7203V34.2832ZM30.9381 34.816L21.9416 55.6501L23.5623 56.3499L32.5588 35.5158L30.9381 34.816ZM22.7519 55.1173L0.181641 55.1173L0.181641 56.8827L22.7519 56.8827L22.7519 55.1173ZM0.950085 56.4342L17.0492 27.9452L15.5123 27.0767L-0.586804 55.5658L0.950085 56.4342ZM17.061 27.0983L3.3294 1.13455L1.7689 1.95986L15.5005 27.9236L17.061 27.0983ZM2.54915 2.42986L23.9357 2.42986V0.66455L2.54915 0.66455L2.54915 2.42986ZM23.1351 1.91883L35.9197 29.4609L37.5209 28.7176L24.7363 1.17557L23.1351 1.91883ZM37.6029 29.0893L37.6029 1.5472L35.8376 1.5472L35.8376 29.0893H37.6029ZM132.567 52.5276L132.077 53.2621L132.087 53.2683L132.567 52.5276ZM124.044 35.7972L124.92 35.6934L124.828 34.9146H124.044V35.7972ZM117.967 35.7972V34.9146H117.085V35.7972H117.967ZM117.967 56V56.8827H118.85V56H117.967ZM97.3699 56H96.4872V56.8827H97.3699V56ZM97.3699 1.5472V0.66455L96.4872 0.66455V1.5472H97.3699ZM117.967 1.5472L118.85 1.5472V0.66455L117.967 0.66455V1.5472ZM117.967 21.75H117.085V22.6326H117.967V21.75ZM124.123 21.75V22.6326H124.904L124.999 21.8574L124.123 21.75ZM132.883 4.94064L133.353 5.6873V5.6873L132.883 4.94064ZM166.186 1.15262L166.04 2.02326L166.049 2.02462L166.057 2.02582L166.186 1.15262ZM174.866 3.8358L174.465 4.62204L174.475 4.6269L174.485 4.63153L174.866 3.8358ZM181.101 8.96541L180.38 9.47511L180.384 9.4809L180.389 9.48663L181.101 8.96541ZM184.731 17.0939L185.586 16.8733L184.731 17.0939ZM184.258 42.5841L183.417 42.3159L183.413 42.3271L184.258 42.5841ZM178.654 51.265L178.095 50.5824L178.088 50.588L178.654 51.265ZM169.106 55.8422L168.903 54.9831L168.9 54.9838L169.106 55.8422ZM146.377 18.1987L145.72 17.6095L145.714 17.6159L145.709 17.6224L146.377 18.1987ZM146.456 39.2696L147.123 38.6915V38.6915L146.456 39.2696ZM163.266 39.2696L162.61 38.6791L162.604 38.6853L162.599 38.6915L163.266 39.2696ZM164.37 20.4084L163.536 20.6947L163.541 20.7092L163.546 20.7236L164.37 20.4084ZM161.372 16.7782L161.028 17.5911L161.372 16.7782ZM154.9 56.3011C144.855 56.3011 137.619 54.7513 133.047 51.787L132.087 53.2683C137.09 56.5122 144.743 58.0664 154.9 58.0664V56.3011ZM133.057 51.7932C128.615 48.8319 125.85 43.5442 124.92 35.6934L123.167 35.901C124.132 44.0441 127.049 49.91 132.077 53.2621L133.057 51.7932ZM124.044 34.9146H117.967V36.6799H124.044V34.9146ZM117.085 35.7972L117.085 56H118.85L118.85 35.7972H117.085ZM117.967 55.1173L97.3699 55.1173V56.8827L117.967 56.8827V55.1173ZM98.2525 56L98.2525 1.5472L96.4872 1.5472L96.4872 56H98.2525ZM97.3699 2.42986L117.967 2.42986V0.66455L97.3699 0.66455V2.42986ZM117.085 1.5472V21.75H118.85V1.5472L117.085 1.5472ZM117.967 22.6326L124.123 22.6326V20.8673L117.967 20.8673V22.6326ZM124.999 21.8574C125.981 13.8466 128.822 8.54382 133.353 5.6873L132.412 4.19398C127.262 7.44038 124.264 13.3439 123.247 21.6426L124.999 21.8574ZM133.353 5.6873C137.984 2.76789 145.123 1.2461 154.9 1.2461V-0.519206C145.001 -0.519206 137.462 1.01046 132.412 4.19398L133.353 5.6873ZM154.9 1.2461C159.235 1.2461 162.945 1.50743 166.04 2.02326L166.331 0.281974C163.112 -0.254418 159.3 -0.519206 154.9 -0.519206V1.2461ZM166.057 2.02582C169.183 2.48699 171.982 3.35527 174.465 4.62204L175.268 3.04957C172.595 1.68576 169.607 0.765246 166.314 0.279417L166.057 2.02582ZM174.485 4.63153C176.994 5.83616 178.95 7.4531 180.38 9.47511L181.822 8.45571C180.2 6.16359 178 4.36079 175.248 3.04007L174.485 4.63153ZM180.389 9.48663C181.886 11.5333 183.056 14.1337 183.876 17.3144L185.586 16.8733C184.723 13.5302 183.472 10.7117 181.813 8.4442L180.389 9.48663ZM183.876 17.3144C184.694 20.4838 185.111 24.3251 185.111 28.8525H186.876C186.876 24.2256 186.451 20.2278 185.586 16.8733L183.876 17.3144ZM185.111 28.8525C185.111 34.3229 184.537 38.8019 183.417 42.316L185.099 42.8522C186.293 39.1059 186.876 34.4306 186.876 28.8525H185.111ZM183.413 42.3271C182.353 45.8104 180.575 48.5485 178.095 50.5824L179.214 51.9475C181.995 49.6673 183.952 46.6182 185.102 42.8411L183.413 42.3271ZM178.088 50.588C175.631 52.644 172.578 54.1153 168.903 54.9831L169.308 56.7012C173.209 55.7802 176.522 54.2001 179.221 51.9419L178.088 50.588ZM168.9 54.9838C165.256 55.8562 160.596 56.3011 154.9 56.3011V58.0664C160.674 58.0664 165.484 57.6169 169.311 56.7006L168.9 54.9838ZM154.9 15.0275C152.699 15.0275 150.826 15.2214 149.305 15.6298C147.788 16.0372 146.558 16.6751 145.72 17.6095L147.035 18.7879C147.565 18.1966 148.439 17.6902 149.763 17.3347C151.083 16.9803 152.788 16.7928 154.9 16.7928V15.0275ZM145.709 17.6224C144.897 18.5644 144.368 20.0212 144.03 21.8457C143.687 23.6948 143.522 26.0359 143.522 28.8525L145.287 28.8525C145.287 26.0923 145.45 23.8694 145.766 22.1672C146.085 20.4405 146.543 19.3588 147.046 18.775L145.709 17.6224ZM143.522 28.8525C143.522 31.5669 143.694 33.8389 144.051 35.6521C144.405 37.447 144.957 38.8875 145.789 39.8477L147.123 38.6915C146.588 38.0733 146.114 36.9885 145.783 35.311C145.457 33.6518 145.287 31.5045 145.287 28.8525L143.522 28.8525ZM145.789 39.8477C146.623 40.81 147.845 41.4718 149.355 41.8951C150.866 42.3189 152.722 42.5197 154.9 42.5197V40.7544C152.817 40.7544 151.135 40.5607 149.832 40.1953C148.527 39.8295 147.657 39.3075 147.123 38.6915L145.789 39.8477ZM154.9 42.5197C159.136 42.5197 162.29 41.7431 163.933 39.8477L162.599 38.6915C161.506 39.9527 159.083 40.7544 154.9 40.7544V42.5197ZM163.922 39.86C164.786 38.9001 165.361 37.4571 165.728 35.6584C166.1 33.8425 166.279 31.5681 166.279 28.8525L164.514 28.8525C164.514 31.5033 164.338 33.6482 163.999 35.3047C163.657 36.9783 163.166 38.0607 162.61 38.6791L163.922 39.86ZM166.279 28.8525C166.279 24.9903 165.939 22.04 165.195 20.0932L163.546 20.7236C164.17 22.3544 164.514 25.0335 164.514 28.8525L166.279 28.8525ZM165.205 20.1221C164.519 18.1214 163.381 16.6699 161.716 15.9653L161.028 17.5911C162.098 18.044 162.959 19.0126 163.536 20.6947L165.205 20.1221ZM161.716 15.9653C160.177 15.3145 157.872 15.0275 154.9 15.0275V16.7928C157.822 16.7928 159.83 17.0845 161.028 17.5911L161.716 15.9653ZM245.353 40.4533L244.702 39.8573L245.353 40.4533ZM212.76 46.0564V45.1738H211.878V46.0564H212.76ZM212.76 56V56.8827H213.643V56H212.76ZM192.163 56H191.28V56.8827H192.163V56ZM192.163 1.5472V0.66455L191.28 0.66455V1.5472L192.163 1.5472ZM245.511 6.5979L244.877 7.21212L244.887 7.22203L245.511 6.5979ZM212.76 16.1469V15.2642H211.878V16.1469H212.76ZM212.76 31.3779H211.878V32.2605H212.76V31.3779ZM228.228 29.6417L227.576 29.0465L227.575 29.048L228.228 29.6417ZM228.465 17.7252L227.809 18.3157L227.816 18.3241L227.824 18.3322L228.465 17.7252ZM249.6 23.0916C249.6 30.8265 247.909 36.3539 244.702 39.8573L246.004 41.0493C249.636 37.082 251.365 31.0349 251.365 23.0916H249.6ZM244.702 39.8573C241.506 43.3487 236.575 45.1738 229.727 45.1738V46.9391C236.875 46.9391 242.361 45.0288 246.004 41.0493L244.702 39.8573ZM229.727 45.1738H212.76V46.9391H229.727V45.1738ZM211.878 46.0564V56H213.643V46.0564H211.878ZM212.76 55.1173L192.163 55.1173V56.8827L212.76 56.8827V55.1173ZM193.046 56V1.5472L191.28 1.5472V56H193.046ZM192.163 2.42986L229.57 2.42986V0.66455L192.163 0.66455V2.42986ZM229.57 2.42986C236.829 2.42986 241.855 4.093 244.877 7.21204L246.145 5.98375C242.643 2.36854 237.041 0.66455 229.57 0.66455V2.42986ZM244.887 7.22203C247.957 10.292 249.6 15.502 249.6 23.0916H251.365C251.365 15.3186 249.694 9.53283 246.135 5.97377L244.887 7.22203ZM223.098 15.2642L212.76 15.2642V17.0295H223.098V15.2642ZM211.878 16.1469V31.3779H213.643V16.1469H211.878ZM212.76 32.2605H223.256V30.4952H212.76V32.2605ZM223.256 32.2605C225.654 32.2605 227.598 31.6465 228.881 30.2354L227.575 29.048C226.753 29.9518 225.383 30.4952 223.256 30.4952V32.2605ZM228.88 30.2368C230.207 28.7828 230.768 26.5097 230.768 23.644H229.003C229.003 26.3551 228.458 28.0805 227.576 29.0465L228.88 30.2368ZM230.768 23.644C230.768 22.1297 230.647 20.8254 230.388 19.7486C230.131 18.6781 229.724 17.7712 229.105 17.1182L227.824 18.3322C228.152 18.6788 228.455 19.2582 228.672 20.1606C228.887 21.0568 229.003 22.212 229.003 23.644H230.768ZM229.121 17.1347C227.909 15.7886 225.783 15.2642 223.098 15.2642V17.0295C225.675 17.0295 227.126 17.5574 227.809 18.3157L229.121 17.1347ZM276.645 1.5472L277.528 1.5472V0.66455L276.645 0.66455V1.5472ZM276.645 28.2212L275.763 28.2212V30.7477L277.336 28.7708L276.645 28.2212ZM297.874 1.5472V0.66455H297.449L297.184 0.99756L297.874 1.5472ZM315.236 1.5472L316.119 1.5472V0.66455L315.236 0.66455V1.5472ZM315.236 56V56.8827H316.119V56H315.236ZM294.796 56H293.914V56.8827H294.796V56ZM294.796 30.0363H295.679V27.5972L294.118 29.4714L294.796 30.0363ZM273.173 56V56.8827H273.587L273.851 56.5649L273.173 56ZM256.206 56H255.323V56.8827H256.206V56ZM256.206 1.5472V0.66455L255.323 0.66455V1.5472H256.206ZM275.763 1.5472V28.2212L277.528 28.2212V1.5472L275.763 1.5472ZM277.336 28.7708L298.565 2.09685L297.184 0.99756L275.955 27.6715L277.336 28.7708ZM297.874 2.42986L315.236 2.42986V0.66455L297.874 0.66455V2.42986ZM314.353 1.5472V56H316.119V1.5472L314.353 1.5472ZM315.236 55.1173H294.796V56.8827H315.236V55.1173ZM295.679 56V30.0363H293.914V56H295.679ZM294.118 29.4714L272.495 55.4351L273.851 56.5649L295.475 30.6011L294.118 29.4714ZM273.173 55.1173H256.206V56.8827H273.173V55.1173ZM257.089 56V1.5472L255.323 1.5472V56H257.089ZM256.206 2.42986L276.645 2.42986V0.66455L256.206 0.66455V2.42986Z" fill="white" mask="url(#path-1-outside-1_132_3010)"/>
</svg>
