<svg id="Сгруппировать_107596" data-name="Сгруппировать 107596" xmlns="http://www.w3.org/2000/svg" xmlns:xlink="http://www.w3.org/1999/xlink" width="212.786" height="38.509" viewBox="0 0 212.786 38.509">
  <defs>
    <clipPath id="clip-path">
      <rect id="Прямоугольник_19340" data-name="Прямоугольник 19340" width="212.786" height="38.449"/>
    </clipPath>
    <clipPath id="clip-path-2">
      <path id="Контур_106987" data-name="Контур 106987" d="M22.864,32.722a13.987,13.987,0,0,0,6.249-3.608l3.561,3.56a18.98,18.98,0,0,1-8.508,4.912ZM5.836,32.673,9.4,29.112a13.925,13.925,0,0,0,6.251,3.61l-1.3,4.864a18.986,18.986,0,0,1-8.506-4.913M.923,14.343l4.864,1.3a13.953,13.953,0,0,0,0,7.215l-4.864,1.3a18.991,18.991,0,0,1,0-9.823m31.8,8.519a13.992,13.992,0,0,0,0-7.215l4.863-1.3a19.04,19.04,0,0,1,0,9.823ZM5.591,19.254h0A13.662,13.662,0,1,1,19.255,32.917,13.658,13.658,0,0,1,5.593,19.254m.244-13.42A18.994,18.994,0,0,1,14.342.921l1.3,4.865A13.977,13.977,0,0,0,9.4,9.394Zm17.029-.048,1.3-4.865a18.985,18.985,0,0,1,8.508,4.912l-3.561,3.56a13.949,13.949,0,0,0-6.249-3.608M19.255,0A19.253,19.253,0,1,0,38.509,19.254,19.255,19.255,0,0,0,19.255,0Z"/>
    </clipPath>
    <clipPath id="clip-path-3">
      <path id="Контур_106988" data-name="Контур 106988" d="M40.531,41.163h1.085l-.563-5.124Z" transform="translate(-40.531 -36.039)"/>
    </clipPath>
    <clipPath id="clip-path-4">
      <path id="Контур_106989" data-name="Контур 106989" d="M25.39,19.573h3.176l2.029,14.949H28l-.281-2.512H26.115l-.241,2.512H23.5Zm-11,7.474A12.657,12.657,0,1,0,27.048,14.388,12.656,12.656,0,0,0,14.391,27.047" transform="translate(-14.391 -14.388)"/>
    </clipPath>
  </defs>
  <path id="Контур_106978" data-name="Контур 106978" d="M118.543,41.153l-.659-5.918h-3.765l-.565,5.918H108L112.424,5.93h7.436l4.754,35.223ZM115.954,17.1,114.73,29.175h2.542Z" transform="translate(-58.488 -3.211)"/>
  <path id="Контур_106979" data-name="Контур 106979" d="M146.153,5.929h6.26V34.808h6.636v6.344h-12.9Z" transform="translate(-79.15 -3.211)"/>
  <path id="Контур_106980" data-name="Контур 106980" d="M168.479,5.929h15.2v6.2H179.21V41.152h-6.26V12.131h-4.471Z" transform="translate(-91.241 -3.211)"/>
  <rect id="Прямоугольник_19338" data-name="Прямоугольник 19338" width="6.26" height="35.223" transform="translate(93.799 2.719)"/>
  <path id="Контур_106981" data-name="Контур 106981" d="M222.549,5.929h5.883l4.283,17.99V5.929h5.554V41.152h-5.318L228.1,21.836V41.152h-5.554Z" transform="translate(-120.523 -3.211)"/>
  <g id="Сгруппировать_101520" data-name="Сгруппировать 101520" transform="translate(0 0.061)">
    <g id="Сгруппировать_101519" data-name="Сгруппировать 101519" clip-path="url(#clip-path)">
      <path id="Контур_106982" data-name="Контур 106982" d="M270.536,32.885V25.121h6.213v7.954a9.506,9.506,0,0,1-1.742,5.87q-1.694,2.273-5.506,2.272H268.23q-4.142,0-5.789-2.272a10.327,10.327,0,0,1-1.6-6.06V13a9.1,9.1,0,0,1,1.741-5.776Q264.371,5,268.23,5H269.5a9.351,9.351,0,0,1,3.624.616,4.673,4.673,0,0,1,2.259,1.8,7.119,7.119,0,0,1,1.035,2.414,11.813,11.813,0,0,1,.33,2.935v5.918h-6.213V13q0-2.036-1.6-2.036-1.553,0-1.553,2.036V32.885q0,2.13,1.6,2.13,1.553,0,1.553-2.13" transform="translate(-141.26 -2.768)"/>
      <path id="Контур_106983" data-name="Контур 106983" d="M307.227,41.153l-.659-5.918H302.8l-.565,5.918h-5.554L301.109,5.93h7.436L313.3,41.153ZM304.639,17.1l-1.224,12.072h2.541Z" transform="translate(-160.672 -3.272)"/>
      <path id="Контур_106984" data-name="Контур 106984" d="M341.345,5h1.271q3.624,0,5.177,1.657t1.553,5.255v4.734h-6.024v-4.4q0-1.846-1.365-1.847t-1.365,1.894V13.1a6.8,6.8,0,0,0,1.93,4.545l3.577,4.024a15.413,15.413,0,0,1,3.012,4.592,11.825,11.825,0,0,1,.8,4.45v1.657a9.777,9.777,0,0,1-1.93,6.438,6.968,6.968,0,0,1-5.695,2.273h-1.224q-7.154,0-7.154-7.291V27.44h6.166v5.634q0,2.13,1.6,2.13,1.553,0,1.553-2.556v-.663A8.911,8.911,0,0,0,342.851,29a7.51,7.51,0,0,0-1.647-2.509l-3.624-4.024a12.318,12.318,0,0,1-2.636-4.119,15.04,15.04,0,0,1-.706-4.829V12.007a6.8,6.8,0,0,1,1.882-5.161A7.142,7.142,0,0,1,341.345,5" transform="translate(-180.831 -2.768)"/>
      <rect id="Прямоугольник_19339" data-name="Прямоугольник 19339" width="6.26" height="35.223" transform="translate(170.51 2.658)"/>
      <path id="Контур_106985" data-name="Контур 106985" d="M389.879,5.929h5.883l4.283,17.99V5.929H405.6V41.152h-5.318l-4.848-19.316V41.152h-5.554Z" transform="translate(-211.142 -3.272)"/>
      <path id="Контур_106986" data-name="Контур 106986" d="M444.6,13.947V32.6a9.314,9.314,0,0,1-1.977,6.249,6.789,6.789,0,0,1-5.46,2.32h-1.412a7.148,7.148,0,0,1-5.648-2.178,9.471,9.471,0,0,1-1.93-6.391V14q0-9,7.531-9h1.412q7.484,0,7.484,8.947M438.054,32.79V13.474q0-2.32-1.647-2.32-1.694,0-1.694,2.32V32.79q0,2.083,1.741,2.083,1.6,0,1.6-2.083" transform="translate(-231.879 -2.768)"/>
    </g>
  </g>
  <g id="Сгруппировать_101522" data-name="Сгруппировать 101522">
    <g id="Сгруппировать_101521" data-name="Сгруппировать 101521" clip-path="url(#clip-path-2)">
      <rect id="Прямоугольник_19341" data-name="Прямоугольник 19341" width="52.11" height="52.109" transform="translate(-16.003 8.549) rotate(-28.11)"/>
    </g>
  </g>
  <g id="Сгруппировать_101524" data-name="Сгруппировать 101524" transform="translate(18.581 16.522)">
    <g id="Сгруппировать_101523" data-name="Сгруппировать 101523" clip-path="url(#clip-path-3)">
      <rect id="Прямоугольник_19342" data-name="Прямоугольник 19342" width="1.085" height="5.124" transform="translate(0 0)"/>
    </g>
  </g>
  <g id="Сгруппировать_101526" data-name="Сгруппировать 101526" transform="translate(6.597 6.596)">
    <g id="Сгруппировать_101525" data-name="Сгруппировать 101525" clip-path="url(#clip-path-4)">
      <rect id="Прямоугольник_19343" data-name="Прямоугольник 19343" width="25.314" height="25.317" transform="translate(0 0)"/>
    </g>
  </g>
</svg>
