<svg xmlns="http://www.w3.org/2000/svg" width="220.496" height="36.35" viewBox="0 0 220.496 36.35">
  <g id="Сгруппировать_100830" data-name="Сгруппировать 100830" transform="translate(-0.002)">
    <path id="Вычитание_6" data-name="Вычитание 6" d="M11481.286,16796.648H11292.9v-36.336h188.373v-.014l.013.014,0,0,15.525,18.813-15.525,17.516v0Zm-138.928-10.6h10.876l1.479,3.221h9.371l-10.357-21.582h-11.453l-10.243,21.582h8.848l1.479-3.219Zm105.271-18.363v0l11.575,13.982v7.6h8.819v-7.6l11.226-13.982h-9.455l-5.8,7.166-5.657-7.166h-10.707Zm-19.349,15.174h6.327a5.414,5.414,0,0,1,3.191.623c.608.471.868,1.281.868,2.711v1.828a2.668,2.668,0,0,0,.173,1.244h9.109v-.143a2.009,2.009,0,0,1-.32-1.391v-3.977c0-2.863-1.746-4.5-5.189-4.873a7.374,7.374,0,0,0,3.36-1.471,4.491,4.491,0,0,0,1.627-3.6v-.148c0-2.473-.9-3.547-1.577-4.139-1.419-1.234-3.834-1.834-7.385-1.834h-19.028v21.578h8.844v-6.406Zm-35.738-15.172h0v21.578h22.776v-5.564h-13.9v-2.525h13.253v-5.656h-13.253v-2.318h13.691v-5.514Zm-30.11,0h0v6.525h8.818v15.053h8.818v-15.053h8.819v-6.525Zm-59.7,0h0v21.578h19.235c3.423,0,5.85-.574,7.419-1.758a5.406,5.406,0,0,0,2.095-4.648v-.262c0-1.684-.724-4.611-5.568-5.312a6.087,6.087,0,0,0,2.782-1.172,3.964,3.964,0,0,0,1.543-3.262v-.148a4.114,4.114,0,0,0-1.821-3.607c-1.36-.936-3.53-1.408-6.449-1.408Zm16.972,15.98h-8.119v-2.984h8.119c2.012,0,2.289.668,2.289,1.391l0,.088C11322,16782.811,11321.761,16783.67,11319.705,16783.67Zm31.067-3.043h-5.948l2.989-6.555,2.958,6.553Zm85.312-3.828h-7.8v-3.166h7.8c1.954,0,2.18.865,2.18,1.514v.025C11438.264,16776.629,11437.02,16776.8,11436.084,16776.8Zm-117.045-1.045h-7.453v-2.7h7.453c1.482,0,2.087.387,2.087,1.332v.064C11321.126,16775.34,11320.463,16775.754,11319.039,16775.754Z" transform="translate(-11292.894 -16760.299)"/>
    <path id="Контур_106191" data-name="Контур 106191" d="M488.226,21.179h-9.491l7.965,9.653-7.965,8.989h9.5l7.965-8.987-7.965-9.655h0l-.007-.006Z" transform="translate(-275.703 -12.194)"/>
  </g>
</svg>
