<svg width="88" height="88" viewBox="0 0 88 88" fill="none" xmlns="http://www.w3.org/2000/svg">
<path d="M38.5521 6.18545C39.7638 5.76561 41.0874 6.1161 42.1978 6.66375C42.9737 7.16332 43.7496 7.66819 44.6186 7.99503C44.685 8.11992 44.8232 8.36704 44.8896 8.48928C44.855 8.57165 44.7886 8.74171 44.7541 8.82409C45.3732 10.2324 45.7691 11.9012 45.1686 13.381C44.7594 13.8805 44.0472 13.9579 43.4706 14.1513C43.468 14.8661 43.5822 15.5732 43.6434 16.2827C44.8763 16.482 45.9201 15.6237 47.1397 15.7087C47.3045 15.0258 47.4347 14.3317 47.6531 13.6624C47.9056 14.1061 47.9159 14.6166 47.9188 15.1162C48.2377 15.2065 48.5619 15.2889 48.8882 15.3683C48.8914 15.4908 48.8938 15.7353 48.8938 15.8575C54.2401 15.8894 59.5836 15.8334 64.9302 15.8868C64.9169 16.0696 64.8909 16.4365 64.8803 16.6202C65.0184 16.6202 65.3001 16.6228 65.4404 16.6228C65.4351 15.6505 65.4404 14.6751 65.4377 13.7028C65.5733 13.6972 65.839 13.6892 65.9719 13.6866C65.975 14.4519 65.9774 15.2171 65.9854 15.9827C66.1021 16.1262 66.3359 16.4129 66.4533 16.5564C66.541 16.4525 66.7162 16.2484 66.8036 16.1445C67.2101 16.5248 66.9789 17.0456 66.9609 17.5127C68.4569 17.4965 69.9683 17.5975 71.4596 17.4753C71.5712 17.3929 71.7944 17.2308 71.906 17.1487C72.1109 17.2281 72.3179 17.3081 72.5225 17.3905C73.1948 17.374 73.8697 17.3719 74.5446 17.3692C74.5308 17.7173 74.5202 18.0652 74.5069 18.4135C73.638 18.4 72.7664 18.3816 71.9108 18.5302C71.3581 18.0548 70.6167 18.2057 69.9497 18.1877C68.924 18.2355 67.8659 18.0548 66.8727 18.3814C66.2822 18.5461 65.6344 18.5065 65.1136 18.1715C64.9881 18.4824 65.18 19.1785 64.656 19.1517C62.594 19.1785 60.5346 19.1334 58.4753 19.1653C58.1936 19.3141 57.9093 19.4549 57.6281 19.5928C57.3305 20.4803 56.4775 21.0726 55.7516 21.6147C55.6612 22.9779 56.2007 24.2507 56.4106 25.5737C56.004 25.6904 55.5948 25.8105 55.1936 25.9433C54.6169 27.3038 54.9704 29.161 53.6364 30.1102C52.6134 30.7051 51.9363 31.9992 50.5567 31.7948C51.2582 32.3794 50.3654 32.1961 50.4584 31.7284C47.9632 31.5079 45.8613 30.0437 43.693 28.928C43.5921 29.5389 43.4329 30.1397 43.2679 30.7375C44.0916 30.8943 44.7719 31.5002 44.918 32.3452C45.1811 34.1869 44.655 36.0153 44.6629 37.8619C44.7214 38.946 44.2564 39.9395 43.6771 40.8244C43.1696 41.3984 42.3697 40.8082 41.7612 40.7234C41.6228 40.9918 41.4875 41.2605 41.3547 41.5312C41.5274 42.2537 41.6018 43.0057 41.8436 43.7126C43.2015 45.2139 44.4371 46.8404 45.3857 48.634C46.3622 50.6653 47.2324 52.746 47.9927 54.8676C48.0669 55.2798 48.4548 55.4278 48.7955 55.5771C48.8406 56.0023 48.8858 56.4269 48.9283 56.8576C49.0612 57.0516 49.1967 57.2453 49.3349 57.442C49.4173 60.0623 49.0957 62.6714 48.6887 65.2569C48.4367 66.4237 49.1191 67.5634 48.8428 68.7379C48.8747 69.3392 48.4607 69.7933 48.2661 70.3248C48.2289 71.5657 48.1678 72.8223 48.3039 74.0611C48.399 74.9699 49.1675 75.5542 49.6883 76.2321C50.257 76.8355 50.7326 77.6457 51.5935 77.8607C52.404 78.1025 53.1773 78.4533 53.8915 78.9132C54.1094 79.4524 54.0696 80.0242 53.9659 80.5844C52.4088 80.8714 50.8198 80.7281 49.2467 80.7523C48.0344 80.8158 46.9535 80.1648 45.7758 80.029C44.6358 80.0003 43.2461 80.566 42.3697 79.5457C42.7412 78.1299 42.771 76.6094 43.4507 75.2885C43.6686 73.7928 43.2546 72.2752 43.3418 70.7659C43.2121 70.6569 42.9511 70.4391 42.8209 70.3296C42.9145 69.344 42.4279 68.4668 42.2656 67.5238C42.1598 66.1465 42.0344 64.7706 41.875 63.3995C41.7501 62.7325 42.0955 62.1216 42.5658 61.6779C42.6084 60.9073 42.7125 60.1444 42.7864 59.3794C42.6721 58.8822 42.2762 58.5131 42.0211 58.0879C41.1681 58.4472 40.0175 58.2769 39.51 57.442C38.3066 55.6513 37.1052 53.8603 35.8882 52.0797C35.4099 52.048 34.905 52.0983 34.4586 51.9069C33.9436 51.3784 33.6747 50.6743 33.3458 50.0312C32.8752 50.56 32.9094 51.3702 32.352 51.8514C31.1721 52.9837 30.8586 54.6471 30.2421 56.0977C29.7696 57.0381 30.0354 58.1727 29.5087 59.0897C29.227 59.5837 28.5202 59.682 28.3342 60.2459C28.0897 60.8539 27.8028 61.4839 27.2315 61.8538C26.6123 62.2598 26.4478 63.0309 26.1718 63.6681C25.9193 64.2557 26.294 64.8719 26.2063 65.4753C25.813 67.3915 24.5934 68.9935 24.0805 70.8698C23.8467 71.7148 23.5116 72.6661 22.5284 72.8465C21.4097 74.8447 20.7935 77.2897 21.4259 79.5396C21.8139 80.2464 21.7926 81.0409 21.6731 81.8195C19.8956 81.9579 18.0725 82.1968 16.3269 81.7002C15.9177 80.8894 15.9762 79.9355 16.0612 79.0594C16.6004 76.755 17.3154 74.4913 17.7536 72.1636C17.2062 71.6773 17.334 70.9336 17.3444 70.2823C17.3261 69.0679 18.1522 68.0954 18.7262 67.0989C18.9417 66.0759 18.8407 64.9766 19.3692 64.0378C19.9913 62.8633 20.5171 61.5934 21.4767 60.6445C21.6598 59.8074 22.2768 59.1753 22.526 58.3693C22.7917 57.6572 22.3267 56.9344 22.4203 56.2066C22.6485 53.9979 23.05 51.8113 23.3981 49.6191C22.7394 49.069 22.9517 48.195 22.7418 47.4534C22.8454 47.1611 22.9756 46.8824 23.1324 46.6111C22.9677 46.4596 22.8058 46.3055 22.6408 46.1543C22.8003 45.3749 22.7551 43.9799 23.9508 44.2331C24.0252 41.6529 23.1297 39.1551 23.43 36.572C23.5895 36.7578 23.746 36.9467 23.9057 37.1354L23.8206 36.2611C24.3202 35.9954 24.8516 35.7908 25.4097 35.6872C24.5009 35.5679 23.616 35.3367 22.7253 35.1291C22.5101 34.5629 22.6302 33.96 22.7094 33.3807C23.0548 31.425 23.1824 29.4427 23.2541 27.4604C24.2612 27.1101 25.3719 27.4075 26.3551 26.9395C26.0501 24.4603 25.973 21.8725 26.8547 19.494C27.5641 17.4689 28.9196 15.5158 31.0345 14.8039C32.0336 14.5651 33.2905 14.2964 33.9968 15.2663C34.1908 15.0883 34.3847 14.9049 34.5787 14.7269C32.966 11.5238 34.8925 6.84445 38.5521 6.18545ZM51.458 20.0775C51.0329 20.3379 50.6157 20.6358 51.0626 21.1088C50.8447 21.2387 50.6263 21.3639 50.4058 21.4832C50.0603 21.7489 49.2844 21.9001 49.3748 22.4374C49.7628 23.0605 50.0972 23.7156 50.3741 24.3955C51.2215 23.6996 51.8965 22.7637 52.3535 21.7731C52.4492 21.6748 52.6434 21.4781 52.7388 21.3822C52.6963 20.9278 52.5953 20.4838 52.4173 20.0642C52.0984 20.0698 51.7769 20.0748 51.458 20.0775Z" fill="#06DCFF"/>
</svg>
