<svg width="129" height="13" viewBox="0 0 129 13" fill="none" xmlns="http://www.w3.org/2000/svg">
<path d="M0.403314 10V1.0852H5.0365C6.01587 1.0852 6.76086 1.31121 7.27148 1.76323C7.78209 2.20688 8.03739 2.83886 8.03739 3.65919C8.03739 4.46278 7.7779 5.10314 7.25892 5.58027C6.73994 6.04903 5.99913 6.28341 5.0365 6.28341H1.62125V10H0.403314ZM5.07417 2.21525H1.62125V5.15336H5.07417C5.62663 5.15336 6.04935 5.01943 6.34233 4.75157C6.6353 4.48371 6.78179 4.12795 6.78179 3.6843C6.78179 3.21555 6.6353 2.85561 6.34233 2.60448C6.05772 2.34499 5.635 2.21525 5.07417 2.21525ZM12.2206 3.64664C13.1414 3.64664 13.8989 3.96054 14.4933 4.58834C15.0876 5.21614 15.3847 6.03229 15.3847 7.03677H10.2242C10.2577 7.62272 10.467 8.11241 10.852 8.50583C11.2454 8.89925 11.7393 9.09596 12.3336 9.09596C12.7103 9.09596 13.0451 9.03318 13.3381 8.90762C13.6311 8.78206 13.8278 8.66487 13.9282 8.55605C14.0371 8.44723 14.1208 8.33842 14.1794 8.2296H15.3094C15.2843 8.38864 15.209 8.56861 15.0834 8.76951C14.9662 8.96203 14.7946 9.16712 14.5686 9.38475C14.351 9.60239 14.0454 9.78655 13.652 9.93722C13.2586 10.0795 12.8191 10.1507 12.3336 10.1507C11.3877 10.1507 10.6051 9.84096 9.98564 9.22152C9.37458 8.59372 9.06905 7.81943 9.06905 6.89865C9.06905 5.96114 9.36621 5.18685 9.96053 4.57578C10.5549 3.95635 11.3082 3.64664 12.2206 3.64664ZM12.2206 4.62601C11.7351 4.62601 11.3208 4.75575 10.9776 5.01525C10.6427 5.27474 10.4167 5.63049 10.2995 6.08251H14.1166C13.9827 5.62212 13.7483 5.26637 13.4134 5.01525C13.087 4.75575 12.6894 4.62601 12.2206 4.62601ZM17.1966 10V3.79731H18.3016V6.48431L21.5661 3.79731H23.1984L19.5321 6.77309L23.3617 10H21.7419L18.3016 7.16233V10H17.1966ZM25.1549 7.23767L25.4939 3.79731H30.1146V10H28.972V4.82691H26.4105L26.172 7.313C26.0715 8.30075 25.8748 9.01226 25.5818 9.44753C25.2889 9.87444 24.8201 10.0879 24.1756 10.0879H23.8365V9.0583H23.9872C24.4057 9.0583 24.6862 8.93692 24.8285 8.69417C24.9708 8.45142 25.0796 7.96592 25.1549 7.23767ZM37.2467 8.93274C37.1714 9.08341 37.0625 9.23827 36.9202 9.39731C36.7863 9.55635 36.5477 9.72377 36.2045 9.89955C35.8613 10.067 35.4763 10.1507 35.0494 10.1507C34.2039 10.1507 33.4883 9.8577 32.9023 9.27175C32.3164 8.67743 32.0234 7.8864 32.0234 6.89865C32.0234 5.91928 32.3164 5.13244 32.9023 4.53812C33.4883 3.9438 34.2039 3.64664 35.0494 3.64664C35.6437 3.64664 36.1292 3.78057 36.5059 4.04843C36.8826 4.31629 37.1295 4.57578 37.2467 4.82691V3.79731H38.3893V10H37.2467V8.93274ZM36.7068 8.46816C37.0835 8.04963 37.2718 7.52646 37.2718 6.89865C37.2718 6.27085 37.0835 5.74768 36.7068 5.32915C36.3385 4.91061 35.8572 4.70135 35.2628 4.70135C34.6518 4.70135 34.1537 4.91061 33.7687 5.32915C33.392 5.74768 33.2036 6.27085 33.2036 6.89865C33.2036 7.52646 33.392 8.04963 33.7687 8.46816C34.1537 8.8867 34.6518 9.09596 35.2628 9.09596C35.8572 9.09596 36.3385 8.8867 36.7068 8.46816ZM40.7521 10V3.79731H42.2714L44.7449 8.68161L47.2185 3.79731H48.6875V10H47.57V5.12825L45.0839 10.0377H44.2929L41.8319 5.17848V10H40.7521ZM55.8233 8.93274C55.7479 9.08341 55.6391 9.23827 55.4968 9.39731C55.3629 9.55635 55.1243 9.72377 54.7811 9.89955C54.4379 10.067 54.0529 10.1507 53.626 10.1507C52.7805 10.1507 52.0648 9.8577 51.4789 9.27175C50.8929 8.67743 50.6 7.8864 50.6 6.89865C50.6 5.91928 50.8929 5.13244 51.4789 4.53812C52.0648 3.9438 52.7805 3.64664 53.626 3.64664C54.2203 3.64664 54.7058 3.78057 55.0825 4.04843C55.4592 4.31629 55.7061 4.57578 55.8233 4.82691V3.79731H56.9659V10H55.8233V8.93274ZM55.2834 8.46816C55.6601 8.04963 55.8484 7.52646 55.8484 6.89865C55.8484 6.27085 55.6601 5.74768 55.2834 5.32915C54.9151 4.91061 54.4337 4.70135 53.8394 4.70135C53.2284 4.70135 52.7303 4.91061 52.3453 5.32915C51.9686 5.74768 51.7802 6.27085 51.7802 6.89865C51.7802 7.52646 51.9686 8.04963 52.3453 8.46816C52.7303 8.8867 53.2284 9.09596 53.8394 9.09596C54.4337 9.09596 54.9151 8.8867 55.2834 8.46816ZM59.2533 10V8.21704H60.7098V10H59.2533ZM67.4479 8.99552V10H66.3179V0.758744H67.4479V4.85202C67.5568 4.6009 67.8079 4.33722 68.2013 4.06099C68.6031 3.78475 69.1053 3.64664 69.708 3.64664C70.5702 3.64664 71.2943 3.9438 71.8802 4.53812C72.4662 5.12407 72.7591 5.91091 72.7591 6.89865C72.7591 7.8864 72.4662 8.67743 71.8802 9.27175C71.2943 9.8577 70.5702 10.1507 69.708 10.1507C69.1053 10.1507 68.6073 10.0209 68.2139 9.76143C67.8288 9.49357 67.5735 9.23827 67.4479 8.99552ZM67.4228 6.89865C67.4228 7.52646 67.6153 8.04963 68.0004 8.46816C68.3855 8.8867 68.8877 9.09596 69.5071 9.09596C70.1266 9.09596 70.6288 8.8867 71.0139 8.46816C71.3989 8.04963 71.5914 7.52646 71.5914 6.89865C71.5914 6.26248 71.3989 5.73931 71.0139 5.32915C70.6288 4.91061 70.1266 4.70135 69.5071 4.70135C68.8877 4.70135 68.3855 4.91061 68.0004 5.32915C67.6153 5.73931 67.4228 6.26248 67.4228 6.89865ZM77.3551 3.64664C78.2759 3.64664 79.0335 3.96054 79.6278 4.58834C80.2221 5.21614 80.5193 6.03229 80.5193 7.03677H75.3587C75.3922 7.62272 75.6015 8.11241 75.9865 8.50583C76.38 8.89925 76.8738 9.09596 77.4682 9.09596C77.8448 9.09596 78.1797 9.03318 78.4726 8.90762C78.7656 8.78206 78.9623 8.66487 79.0628 8.55605C79.1716 8.44723 79.2553 8.33842 79.3139 8.2296H80.4439C80.4188 8.38864 80.3435 8.56861 80.2179 8.76951C80.1007 8.96203 79.9291 9.16712 79.7031 9.38475C79.4855 9.60239 79.18 9.78655 78.7865 9.93722C78.3931 10.0795 77.9537 10.1507 77.4682 10.1507C76.5223 10.1507 75.7396 9.84096 75.1202 9.22152C74.5091 8.59372 74.2036 7.81943 74.2036 6.89865C74.2036 5.96114 74.5007 5.18685 75.0951 4.57578C75.6894 3.95635 76.4427 3.64664 77.3551 3.64664ZM77.3551 4.62601C76.8696 4.62601 76.4553 4.75575 76.1121 5.01525C75.7773 5.27474 75.5513 5.63049 75.4341 6.08251H79.2511C79.1172 5.62212 78.8828 5.26637 78.548 5.01525C78.2215 4.75575 77.8239 4.62601 77.3551 4.62601ZM83.3859 7.92825V4.82691H81.5527V3.79731H83.3859V1.0852H84.5285V3.79731H87.0271V4.82691H84.5285V7.66457C84.5285 8.12496 84.6206 8.45561 84.8047 8.6565C84.9972 8.84903 85.3321 8.94529 85.8092 8.94529H87.0271V10H85.5581C84.1099 10 83.3859 9.30942 83.3859 7.92825ZM93.2517 5.73094C93.2098 5.64723 93.1554 5.56353 93.0885 5.47982C93.0215 5.38774 92.9169 5.27892 92.7746 5.15336C92.6406 5.01943 92.4565 4.91061 92.2221 4.82691C91.9877 4.7432 91.7282 4.70135 91.4436 4.70135C90.8828 4.70135 90.414 4.9148 90.0374 5.3417C89.669 5.76024 89.4849 6.27922 89.4849 6.89865C89.4849 7.51809 89.669 8.04126 90.0374 8.46816C90.414 8.8867 90.887 9.09596 91.4562 9.09596C91.7492 9.09596 92.0128 9.05411 92.2472 8.9704C92.4816 8.8867 92.6658 8.78206 92.7997 8.6565C92.942 8.52257 93.0466 8.41375 93.1136 8.33004C93.1805 8.23797 93.235 8.15007 93.2768 8.06637H94.4069C94.3817 8.20867 94.3148 8.38027 94.206 8.58117C94.1055 8.78206 93.9507 9.00807 93.7414 9.25919C93.5405 9.51031 93.2391 9.72377 92.8374 9.89955C92.4356 10.067 91.9752 10.1507 91.4562 10.1507C90.5689 10.1507 89.8197 9.83677 89.2087 9.20897C88.606 8.58117 88.3046 7.81106 88.3046 6.89865C88.3046 5.97788 88.606 5.20777 89.2087 4.58834C89.8113 3.96054 90.5563 3.64664 91.4436 3.64664C91.9626 3.64664 92.423 3.73034 92.8248 3.89776C93.2266 4.06517 93.5321 4.27444 93.7414 4.52556C93.9507 4.77668 94.1055 5.00269 94.206 5.20359C94.3064 5.39611 94.3734 5.5719 94.4069 5.73094H93.2517ZM96.2118 2.60448V0.808968H97.4046V2.60448H96.2118ZM96.2369 10V3.79731H97.3795V10H96.2369ZM100.785 7.92825V4.82691H98.9521V3.79731H100.785V1.0852H101.928V3.79731H104.427V4.82691H101.928V7.66457C101.928 8.12496 102.02 8.45561 102.204 8.6565C102.397 8.84903 102.732 8.94529 103.209 8.94529H104.427V10H102.958C101.509 10 100.785 9.30942 100.785 7.92825ZM106.82 12.8126L108.151 9.86188L105.338 3.79731H106.632L108.754 8.51839L110.876 3.79731H112.056L107.988 12.8126H106.82ZM112.948 10V8.21704H114.404V10H112.948ZM117.832 6.49686V10H116.689V3.79731H117.832V4.93991C117.949 4.63019 118.175 4.35396 118.51 4.11121C118.853 3.86846 119.347 3.74709 119.991 3.74709H121.548V4.88969H119.966C119.188 4.88969 118.635 5.01525 118.309 5.26637C117.991 5.51749 117.832 5.92765 117.832 6.49686ZM128.086 9.3722C127.559 9.88281 126.856 10.1381 125.977 10.1381C125.098 10.1381 124.39 9.88281 123.855 9.3722C123.327 8.85321 123.064 8.18774 123.064 7.37578V3.79731H124.206V7.16233C124.206 7.73991 124.361 8.20448 124.671 8.55605C124.98 8.89925 125.412 9.07085 125.964 9.07085C126.517 9.07085 126.948 8.89925 127.257 8.55605C127.567 8.20448 127.722 7.73991 127.722 7.16233V3.79731H128.877V7.37578C128.877 8.18774 128.613 8.85321 128.086 9.3722Z" fill="white"/>
</svg>
