<svg width="229" height="43" viewBox="0 0 229 43" fill="none" xmlns="http://www.w3.org/2000/svg">
<path d="M10.79 40.9808C10.424 41.2004 9.94832 41.3102 9.5092 41.237H1.42203C0.507197 41.237 0.141262 40.8345 0.360823 40.0294L6.91106 11.8158C7.2404 10.3887 7.75271 9.03473 8.44798 7.75396C9.14326 6.43659 10.0215 5.22901 11.1193 4.24098C12.2903 3.17977 13.6443 2.33812 15.108 1.78922C16.8645 1.13054 18.6942 0.837788 20.5604 0.874381H38.0521C38.5278 0.874381 38.784 0.947568 38.9304 1.05735C39.0767 1.20372 39.0035 1.60625 38.8572 2.26493L37.3202 8.77857C37.2471 9.14451 37.1007 9.51044 36.8445 9.7666C36.5884 9.94957 36.259 10.0593 35.9297 10.0228H21.6948C21.0361 10.0228 20.3775 10.1325 19.7554 10.3521C19.3163 10.5351 18.9137 10.7912 18.5478 11.1572C18.2184 11.4499 17.9989 11.8158 17.8159 12.2184C17.6329 12.5843 17.5232 12.9502 17.4134 13.3528L16.6083 16.8657H31.758C32.2338 16.8657 32.4899 16.9389 32.6363 17.0853C32.7461 17.4878 32.7095 17.8904 32.5631 18.2929L31.1725 24.2942C30.9896 25.1725 30.5139 25.6116 29.782 25.6116H14.5591L11.1559 40.0294C11.1193 40.3588 10.9729 40.6881 10.7534 40.9443L10.79 40.9808Z" fill="white"/>
<path d="M61.8376 21.0736C62.1303 19.6831 62.3133 18.2559 62.4231 16.8288C62.5329 15.6578 62.4231 14.4502 62.1669 13.3158C61.984 12.3644 61.5082 11.4861 60.7764 10.864C59.8615 10.242 58.7637 9.91262 57.6659 9.98581C56.5681 9.98581 55.4703 10.2786 54.5555 10.864C53.5674 11.4861 52.6892 12.2546 51.9573 13.206C51.1523 14.2672 50.4936 15.4382 49.9447 16.6824C49.3592 17.9998 48.9201 19.3903 48.6273 20.8175C48.2248 22.391 47.9686 24.0011 47.8223 25.6112C47.7125 26.8188 47.8223 28.0264 48.1516 29.1974C48.4078 30.1122 48.9933 30.9173 49.7617 31.4662C50.7132 32.0517 51.7744 32.3444 52.8722 32.2712C54.0432 32.2712 55.141 31.9053 56.129 31.2832C57.1536 30.6611 58.0319 29.8561 58.7271 28.9046C59.4956 27.8068 60.1177 26.6358 60.5934 25.3917C61.1423 24.0377 61.5814 22.6472 61.9108 21.22M73.3645 21.1468C72.7058 24.1475 71.6812 27.075 70.2907 29.8561C69.0831 32.3078 67.473 34.54 65.4969 36.4429C63.5575 38.2726 61.2887 39.6631 58.7637 40.578C55.9826 41.566 53.0185 42.0783 50.0545 42.0417C47.3832 42.1515 44.7484 41.6758 42.2601 40.6512C40.3206 39.8095 38.7105 38.419 37.6127 36.5893C36.5149 34.6132 35.9294 32.3444 35.8928 30.0756C35.8196 27.1482 36.1489 24.2207 36.8808 21.3664C37.5761 18.3657 38.6373 15.5114 40.0645 12.8035C41.3452 10.3517 43.0285 8.11954 45.0412 6.21668C46.9806 4.42359 49.2128 2.99645 51.7012 2.04502C54.3725 0.800839 57.1536 0.251937 60.0079 0.251937C62.6426 0.17875 65.2774 0.654465 67.7291 1.71568C69.6686 2.59392 71.3153 4.05766 72.4497 5.92393C73.5841 7.89998 74.2428 10.1322 74.316 12.4376C74.4257 15.3285 74.0964 18.2193 73.4011 21.037" fill="white"/>
<path d="M140.477 28.0623C140.77 27.1475 140.66 26.1594 140.147 25.3544C139.672 24.6591 138.757 24.2932 137.476 24.2932H130.743L128.95 31.7948H135.72C136.415 31.7948 137.074 31.7217 137.732 31.4655C138.72 31.063 139.562 30.2945 140.074 29.3431C140.294 28.9406 140.44 28.5014 140.55 28.0623M132.719 15.7669H138.72C139.525 15.7669 140.294 15.5473 140.989 15.1814C141.794 14.6691 142.306 13.864 142.453 12.9126C142.672 12.2539 142.563 11.4855 142.123 10.9366C141.611 10.4608 140.916 10.2047 140.184 10.2779H133.927L132.719 15.8035V15.7669ZM147.869 19.2433C148.747 19.6458 149.552 20.2313 150.211 20.9632C150.796 21.6584 151.199 22.5001 151.491 23.3417C151.784 24.22 151.894 25.1348 151.894 26.0863C151.894 27.0377 151.784 27.9525 151.565 28.8674C151.125 30.697 150.357 32.3803 149.296 33.9173C148.235 35.4176 146.954 36.7716 145.453 37.8328C143.917 38.9306 142.197 39.7722 140.404 40.3577C138.537 40.9432 136.598 41.236 134.622 41.236H119.728C118.118 41.236 117.203 40.9798 116.874 40.3577C116.545 39.7722 116.545 38.7476 116.874 37.4302L124.522 4.71566C124.705 3.65445 125.144 2.66643 125.839 1.86137C126.425 1.20269 127.559 0.946533 129.096 0.946533H144.063C145.673 0.946533 147.247 1.1295 148.783 1.53203C150.064 1.86137 151.272 2.52005 152.26 3.3983C153.211 4.27654 153.87 5.37435 154.199 6.58193C154.529 8.15545 154.492 9.76556 154.053 11.3025C153.65 12.9126 152.882 14.3763 151.784 15.6205C150.76 16.9379 149.442 18.0723 147.978 18.8773L147.905 19.2067L147.869 19.2433Z" fill="white"/>
<path d="M182.228 41.2371H164.48C162.65 41.3102 160.784 40.9809 159.101 40.249C157.93 39.7001 156.942 38.7853 156.32 37.6509C155.734 36.5531 155.441 35.3455 155.441 34.1379C155.441 32.8206 155.588 31.5398 155.917 30.2956L160.235 11.8891C160.564 10.4619 161.077 9.10797 161.772 7.8272C162.467 6.50983 163.346 5.30225 164.443 4.31422C165.614 3.25301 166.968 2.41136 168.432 1.86246C170.152 1.20378 171.982 0.91103 173.811 0.947623H190.754C191.23 0.947623 191.486 1.02081 191.632 1.16718C191.779 1.31356 191.706 1.71609 191.559 2.37477L190.022 8.88841C189.949 9.25434 189.803 9.62028 189.547 9.87644C189.29 10.096 188.961 10.1692 188.632 10.1326H174.946C174.287 10.1326 173.628 10.2424 173.006 10.4619C172.567 10.6449 172.128 10.9011 171.799 11.267C171.506 11.5597 171.25 11.9257 171.067 12.3282C170.92 12.6941 170.774 13.0601 170.664 13.4626L170.079 15.8412H185.521C185.997 15.8412 186.253 15.9144 186.399 16.0607C186.509 16.4633 186.473 16.8658 186.326 17.2683L184.936 23.2331C184.753 24.1113 184.277 24.5504 183.545 24.5504H168.103L167.115 28.8685C166.968 29.4174 166.932 30.0029 166.968 30.5884C166.968 30.9543 167.151 31.2836 167.444 31.5032C167.737 31.7228 168.066 31.8691 168.432 31.9057H184.387C184.863 31.9057 185.119 31.9789 185.265 32.0887C185.411 32.2351 185.338 32.6376 185.192 33.2963L183.655 39.8099C183.435 40.6882 182.996 41.1273 182.264 41.1273" fill="white"/>
<path d="M225.414 10.0586H215.497L208.508 39.992C208.471 40.3214 208.325 40.6507 208.105 40.9069C207.739 41.1264 207.3 41.2362 206.824 41.163H198.664C197.786 41.163 197.42 40.7605 197.603 39.9554L204.592 10.022H195.005C194.2 10.022 193.87 9.54625 194.09 8.7046L195.627 2.26414C195.663 1.82502 195.846 1.3859 196.176 1.05656C196.468 0.910185 196.834 0.836998 197.164 0.873592H227.5C227.829 0.836998 228.158 0.873592 228.415 1.05656C228.561 1.20293 228.561 1.60546 228.415 2.26414L226.878 8.7046C226.804 9.47306 226.146 10.0586 225.341 10.022" fill="white"/>
<path d="M89.5713 19.3528L84.6312 39.955C84.5946 40.2843 84.4483 40.6137 84.2287 40.8698C83.8628 41.0894 83.387 41.1992 82.9479 41.126H74.751C73.8727 41.126 73.5434 40.7234 73.6898 39.9184L81.9965 5.41073C82.399 3.61765 82.9845 2.41006 83.7164 1.75138C84.4483 1.0927 85.6558 0.873138 87.2294 0.873138H91.6938C92.0597 0.909732 92.4256 1.01951 92.755 1.20248C93.0843 1.42204 93.3771 1.67819 93.6332 2.00754C93.926 2.44666 94.2187 2.92237 94.4383 3.39809L99.7443 15.6935L102.599 22.756H103.001L107.941 2.00754C107.978 1.67819 108.124 1.34885 108.344 1.0927C108.71 0.873138 109.185 0.763358 109.625 0.836545H117.822C118.7 0.836545 119.102 1.23907 118.883 2.04413L110.649 36.625C110.393 37.8326 109.844 38.9304 109.039 39.8818C108.271 40.76 107.026 41.1992 105.307 41.1626H100.842C100.44 41.126 100.074 41.0162 99.7077 40.8332C99.3418 40.6503 99.0125 40.3575 98.7929 40.0282C98.4636 39.5891 98.2074 39.1133 97.9879 38.6376L92.7184 26.5252L89.7909 19.426L89.5347 19.3528H89.5713Z" fill="white"/>
</svg>
