<svg width="138" height="128" viewBox="0 0 138 128" fill="none" xmlns="http://www.w3.org/2000/svg">
<path d="M117.112 84.4049H135.717L132.027 50.4119H124.647L122.033 24.4293H114.806L113.576 7.22745C83.8494 0.0386035 53.9179 0.0386035 24.1402 7.22745L22.9101 24.378H15.6835L13.0696 50.3605H5.74048L2.05029 84.4049H20.655L68.8837 125.587L117.112 84.4049Z" fill="#1E1951"/>
<path d="M68.8835 128L19.9885 86.202H0L4.04895 48.5119H11.4293L14.0432 22.5293H21.2186L22.3974 5.73824L23.7299 5.43015C53.6615 -1.81005 84.0543 -1.81005 114.037 5.43015L115.37 5.73824L116.548 22.5293H123.724L126.338 48.5119H133.718L137.767 86.202H117.83L68.8835 128ZM4.10021 82.5562H21.3211L68.8835 123.173L116.446 82.5562H133.667L130.387 52.2604H123.006L120.392 26.2778H113.114L111.884 8.76783C83.3367 2.09247 54.4303 2.09247 25.9338 8.76783L24.7037 26.2778H17.3746L14.7607 52.2604H7.38037L4.10021 82.5562Z" fill="#D2BA98"/>
<path d="M46.2813 13.0812C48.8439 13.0299 51.4066 12.9785 53.9179 12.9785C53.8154 13.6461 53.7129 14.3649 53.6104 15.0325C51.9191 15.0325 50.2278 15.0838 48.5364 15.0838C48.4852 15.4946 48.4339 15.8541 48.3827 16.2648C49.4077 16.2648 50.3815 16.2135 51.4066 16.2135C51.3041 16.9324 51.2016 17.5999 51.0991 18.3188C50.074 18.3188 49.1002 18.3702 48.0752 18.3702C48.0239 18.8323 47.9214 19.2944 47.8701 19.7566C49.7152 19.7052 51.5603 19.7052 53.4054 19.6539C53.3029 20.3728 53.2004 21.0916 53.0979 21.8105C50.3815 21.8619 47.7164 21.8619 45 21.9132C45.41 19.0377 45.82 16.0594 46.2813 13.0812Z" fill="white"/>
<path d="M57.8129 15.1351C56.7366 15.1351 55.6603 15.1351 54.584 15.1865C54.6865 14.4676 54.789 13.6974 54.8915 12.9785C57.8641 12.9271 60.8881 12.9271 63.8607 12.9271C63.7582 13.646 63.6044 14.4162 63.5019 15.1351C62.4256 15.1351 61.3493 15.1351 60.273 15.1351C59.9143 17.3945 59.6067 19.6025 59.248 21.8618C58.4279 21.8618 57.5566 21.8618 56.7366 21.8618C57.1466 19.6025 57.5054 17.3945 57.8129 15.1351Z" fill="white"/>
<path d="M64.1171 17.8053C64.0145 14.8785 66.0134 12.7218 68.8323 12.7218C72.0612 12.7218 72.9838 14.8785 73.0863 15.9054C72.215 15.9054 71.3437 15.9054 70.4724 15.9054C70.3699 15.6487 69.9086 15.0325 68.8835 15.0325C67.4485 15.0325 66.6797 16.2649 66.7309 17.6513C66.7822 18.8323 67.4485 19.6539 68.5248 19.6539C69.5498 19.6539 70.0111 19.0377 70.1649 18.8323C71.0361 18.8323 71.9074 18.8323 72.7275 18.8323C72.5737 19.6539 71.4974 21.9133 68.576 21.9133C65.9621 21.9646 64.2196 20.2187 64.1171 17.8053Z" fill="white"/>
<path d="M74.9317 12.8759C75.803 12.8759 76.623 12.8759 77.4943 12.8759C77.1868 14.6731 76.8793 16.4703 76.623 18.2675C78.2118 16.4703 79.8519 14.7244 81.492 12.9272C82.3633 12.9272 83.1833 12.9272 84.0546 12.9786C83.5421 15.9568 83.0296 18.935 82.517 21.9133C81.6457 21.9133 80.8257 21.9133 79.9544 21.9133C80.2619 20.1161 80.5694 18.3702 80.877 16.573C79.2369 18.3702 77.648 20.1161 76.0592 21.9133C75.1879 21.9133 74.3679 21.9133 73.4966 21.9133C73.9579 18.8323 74.4704 15.8541 74.9317 12.8759Z" fill="white"/>
<path d="M88.1547 15.2379C87.0784 15.2379 86.0021 15.1865 84.9258 15.1865C85.0283 14.4676 85.182 13.6974 85.2845 12.9785C88.2572 13.0299 91.2811 13.0812 94.2538 13.1326C94.1 13.8514 93.9975 14.5703 93.8437 15.3406C92.7674 15.3406 91.6911 15.2892 90.6148 15.2892C90.2048 17.5486 89.846 19.7566 89.436 22.0159C88.616 22.0159 87.7447 22.0159 86.9246 21.9646C87.3347 19.7052 87.7447 17.4459 88.1547 15.2379Z" fill="white"/>
<path d="M95.5351 13.1327C96.4064 13.1327 97.2264 13.184 98.0977 13.184C97.7902 14.9813 97.4315 16.7785 97.1239 18.5243C98.764 16.7785 100.404 15.0326 102.044 13.2354C102.915 13.2354 103.736 13.2867 104.607 13.2867C104.043 16.265 103.479 19.1919 102.967 22.1701C102.095 22.1701 101.275 22.1188 100.404 22.1188C100.712 20.3215 101.07 18.5757 101.378 16.7785C99.7378 18.5243 98.0977 20.2702 96.4576 22.0161C95.5864 22.0161 94.7663 21.9647 93.895 21.9647C94.4588 19.0892 95.0226 16.1109 95.5351 13.1327Z" fill="white"/>
<path d="M40.4386 16.4704C39.6699 16.4704 38.9011 16.5217 38.1323 16.5217C38.1835 16.1623 38.2348 15.8028 38.286 15.4434C40.0799 15.392 41.8737 15.3407 43.6676 15.3407C43.7701 14.6218 43.8726 13.8516 43.9751 13.1327C41.3099 13.184 38.6448 13.2354 36.0309 13.2867C35.8772 14.4164 35.7234 15.4947 35.5697 16.6244C35.0059 16.6244 34.4421 16.6758 33.8271 16.6758C33.7246 17.3433 33.6733 18.0108 33.5708 18.7297C34.1346 18.7297 34.6984 18.6784 35.2621 18.6784C35.1084 19.8594 34.9546 21.0918 34.8009 22.2728C36.5435 22.2214 38.3373 22.1701 40.0799 22.1701C42.54 22.1187 44.1801 20.9891 44.0263 18.8324C44.0263 17.292 42.6938 16.419 40.4386 16.4704ZM40.2849 19.9107C39.4136 19.9107 38.5423 19.9621 37.671 19.9621C37.7223 19.5 37.8248 19.0378 37.876 18.5757C38.7473 18.5757 39.6699 18.5243 40.5412 18.5243C41.0537 18.5243 41.3612 18.6784 41.3612 19.0378C41.4637 19.6027 41.0024 19.9107 40.2849 19.9107Z" fill="white"/>
<path d="M68.8838 114.239L24.6016 82.4022L68.6788 118.295L111.833 82.5563L68.8838 114.239Z" fill="#266DB6"/>
<path d="M66.2695 90.9774L69.9085 102.942L72.8299 103.609L77.3913 104.688L88.7694 96.215L71.0873 92.1071L66.2695 90.9774Z" fill="#266DB5"/>
<path d="M71.3945 105.15L73.8034 107.358L74.726 106.69L73.6496 105.663L71.3945 105.15Z" fill="#266DB5"/>
<path d="M67.7559 105.971L71.241 109.258L72.2148 108.59L68.5246 105.15L67.7559 105.971Z" fill="#266DB5"/>
<path d="M69.6012 110.49L66.4236 107.512L65.6035 108.334L68.6274 111.158L68.6787 111.209L69.6012 110.49Z" fill="#266DB5"/>
<path d="M54.5326 100.734L51.3037 90.0532C49.9711 91.8504 48.946 93.853 48.1772 96.0097L54.5326 100.734Z" fill="#266DB5"/>
<path d="M61.8616 82.1455C59.504 82.9671 57.3514 84.1995 55.4038 85.7399C54.3275 86.5615 53.3537 87.4858 52.4824 88.5128L56.6851 102.377L64.1168 107.871L68.2682 103.404L63.6042 88.0506L61.8616 82.1455Z" fill="#266DB5"/>
<path d="M64.7832 85.9966L65.757 89.1802L65.347 87.8451L64.7832 85.9966Z" fill="#266DB5"/>
<path d="M73.4961 81.2726C72.9835 81.1699 72.471 81.0672 71.9585 81.0159C72.5223 81.0672 73.0348 81.1699 73.4961 81.2726Z" fill="#266DB5"/>
<path d="M69.5493 80.8617C70.3694 80.8617 71.1894 80.913 72.0094 81.0157C71.1381 80.913 70.3181 80.8617 69.5493 80.8617Z" fill="#266DB5"/>
<path d="M74.8288 81.5293C75.9564 81.8374 77.0839 82.1968 78.1602 82.659C77.0839 82.1968 76.0076 81.8374 74.8288 81.5293Z" fill="#266DB5"/>
<path d="M69.6008 87.1777L67.4482 89.5398L68.7808 89.8992L67.4482 89.5398L69.6008 87.1777Z" fill="#266DB5"/>
<path d="M63.4502 81.6318C64.8853 81.2211 66.3716 80.9643 67.9092 80.913C66.3716 81.0157 64.8853 81.2724 63.4502 81.6318Z" fill="#266DB5"/>
<path d="M85.6432 93.8017L84.4131 93.5449L85.6432 93.8017Z" fill="#266DB5"/>
<path d="M90.2045 94.88L86.9756 94.1097L90.2045 94.88Z" fill="#266DB5"/>
<path d="M77.186 91.8503L80.7737 92.6719L77.186 91.8503Z" fill="#266DB5"/>
<path d="M83.0288 85.4832C83.9001 86.1507 84.6689 86.8696 85.4377 87.6398C84.7201 86.8696 83.9001 86.1507 83.0288 85.4832Z" fill="#266DB5"/>
<path d="M87.0267 89.3857C86.7704 89.0776 86.5142 88.7695 86.2579 88.4614L82.1064 92.9801L84.4641 93.545L85.6941 93.8531L88.2568 91.0802C87.8467 90.464 87.4367 89.9505 87.0267 89.3857Z" fill="#266DB5"/>
<path opacity="0.3" d="M86.9756 94.1098L88.8207 92.1072L86.9756 94.1098Z" fill="#266DB5"/>
<path d="M88.8207 92.1072L86.9243 94.1611L90.1532 94.9314C89.7945 93.9044 89.3332 92.9801 88.8207 92.1072Z" fill="#266DB5"/>
<path opacity="0.3" d="M88.8207 92.1072L86.9243 94.1611L90.1532 94.9314C89.7945 93.9044 89.3332 92.9801 88.8207 92.1072Z" fill="#266DB5"/>
<path d="M63.4502 81.6318L64.3727 84.7128L67.9092 80.913C66.3716 81.0157 64.8853 81.2724 63.4502 81.6318Z" fill="#266DB5"/>
<path d="M73.4961 81.2725C72.9836 81.1698 72.4711 81.0671 71.9585 81.0157C71.1385 80.913 70.3185 80.8617 69.4984 80.8617L64.7319 85.9966L65.2957 87.8451L65.7057 89.1802L66.1158 89.2829H66.0645L67.7046 87.4857L73.4961 81.2725Z" fill="#266DB5"/>
<path d="M74.8286 81.5293L69.6008 87.1777L67.397 89.5397L68.7808 89.8478L70.8309 90.31L71.0359 90.3613L78.2113 82.6076C77.0837 82.1968 76.0074 81.8374 74.8286 81.5293Z" fill="#266DB5"/>
<path d="M80.7737 92.6719L85.4377 87.6397C84.6689 86.8695 83.9001 86.1506 83.0288 85.5344L77.186 91.8503L80.7737 92.6719Z" fill="#266DB5"/>
<path d="M82.1066 84.8155C81.2353 84.1993 80.2615 83.6345 79.2877 83.1724L72.3174 90.7207L75.9051 91.5422L82.1066 84.8155Z" fill="#266DB5"/>
<path d="M29.5219 31.002C29.4707 31.4642 29.3682 31.9777 29.3169 32.4398C29.2657 33.1073 29.2144 33.7749 29.1119 34.4938C29.0094 35.5207 28.8557 36.4964 28.7532 37.5233C28.7019 38.1395 28.6506 38.7557 28.5994 39.3719C29.2144 38.7557 29.7782 38.1395 30.3932 37.5233C31.0083 36.8045 31.6746 36.0856 32.2896 35.3667C33.4171 34.1343 34.2884 33.1073 34.8522 32.3371C35.211 31.8236 35.621 31.3615 35.9798 30.848C36.5435 30.848 37.1073 30.848 37.6711 30.8993C38.2861 30.848 38.9012 30.7966 39.4649 30.7966C38.9012 31.3101 38.3374 31.8236 37.8249 32.3884C37.1073 33.1073 36.3898 33.8262 35.6723 34.5965C34.7497 35.5721 33.8272 36.5477 32.9046 37.472C32.5458 37.8828 32.1871 38.2422 31.8283 38.653C32.2896 39.4746 32.7509 40.2962 33.2634 41.0664C34.1347 42.5042 35.006 43.8906 35.9285 45.3284C36.5435 46.304 37.1073 47.2283 37.7224 48.2039C38.0811 48.7174 38.4399 49.2309 38.7474 49.7444C37.8761 49.7444 36.9536 49.7444 36.0823 49.7444C35.1597 49.7957 34.2372 49.8471 33.3146 49.8984C33.0584 49.3849 32.8021 48.8714 32.5458 48.4093C32.2383 47.8445 31.7771 46.9202 31.0595 45.7392C30.547 44.8662 30.0857 43.9933 29.5732 43.1204C29.2144 42.5042 28.8557 41.9393 28.4969 41.3232C28.4456 41.9393 28.3944 42.5555 28.3431 43.1717C28.2919 44.0447 28.1894 44.9689 28.1381 45.8419C28.0869 46.7661 28.0356 47.6391 28.0356 48.358C28.0356 48.9228 28.0356 49.539 28.0356 50.1038C27.3181 50.1038 26.6005 50.1038 25.883 50.1038C25.1142 50.1552 24.3454 50.2065 23.5254 50.2579C23.5766 49.693 23.6791 49.1282 23.7304 48.512C23.8329 47.6904 23.8842 46.8688 23.9867 46.0473C24.0892 45.123 24.1404 44.1987 24.2429 43.2744C24.3967 41.4772 24.5504 39.68 24.7555 37.8828C24.8067 36.8045 24.9092 35.7775 24.9605 34.6991C25.0117 34.0316 25.063 33.3641 25.1142 32.6452C25.1142 32.1831 25.1655 31.7209 25.1655 31.2074C25.883 31.2074 26.6005 31.2074 27.3181 31.2074C28.0356 31.1047 28.8044 31.0534 29.5219 31.002Z" fill="#D2BA98"/>
<path d="M40.8484 32.0802C40.6434 31.6181 40.4384 31.1559 40.2334 30.6938C41.1047 30.6938 41.9247 30.6938 42.796 30.6938C43.5136 30.6424 44.2824 30.5911 44.9999 30.5911C45.1536 31.0532 45.3587 31.5154 45.5124 31.9775C47.05 35.5206 48.5363 39.0637 50.0739 42.6067C50.2789 42.1446 50.4839 41.7338 50.7402 41.2717C52.124 38.1394 53.5591 35.0071 54.9941 31.8748C55.1992 31.3613 55.4042 30.8992 55.5579 30.3857C56.0192 30.3857 56.5317 30.437 56.993 30.437C57.4543 30.3857 57.9155 30.3857 58.3768 30.3344C58.0693 30.8478 57.813 31.31 57.5055 31.8235C55.3529 36.0854 53.2003 40.3987 51.0989 44.6607C50.1764 46.766 49.2539 48.8713 48.3313 50.9766C47.8188 50.9253 47.3063 50.8739 46.7425 50.8226C46.2299 50.8739 45.6662 50.9253 45.1536 50.9766C45.9737 49.5388 46.7937 48.1011 47.6138 46.6633C47.5625 46.5093 47.46 46.3552 47.4088 46.2012C45.2049 41.5798 43.001 36.8557 40.8484 32.0802Z" fill="#D2BA98"/>
<path d="M66.0137 38.2422C69.0888 38.2422 73.2915 39.3719 73.3428 43.6852C73.3941 46.5607 71.6515 48.666 68.9863 49.1282C68.2175 49.2822 67.4488 49.3336 66.68 49.3336C65.9624 49.3336 65.2449 49.3336 64.5274 49.3336C63.9123 49.3336 63.246 49.3336 62.631 49.3336C62.1697 49.3336 61.7597 49.3336 61.2984 49.3336C60.8884 49.3336 60.4784 49.3849 60.1196 49.3849C60.1709 48.9228 60.2221 48.4606 60.2734 47.9472C60.2734 47.4337 60.3246 46.6634 60.3246 45.5338C60.3759 44.3014 60.3759 43.1204 60.4271 41.888C60.4784 39.1665 60.5296 36.445 60.5809 33.7235C60.5809 33.1073 60.5809 32.4911 60.5809 31.8236C60.5296 31.3615 60.5296 30.9507 60.4784 30.4885C61.0934 30.5399 61.7085 30.5399 62.3235 30.5912C63.5023 30.6426 64.7324 30.6426 65.9112 30.6939C67.3462 30.6939 68.7301 30.6939 70.1651 30.6426C70.7802 30.5912 71.3952 30.5399 72.0102 30.4885C71.959 30.848 71.959 31.1561 71.9077 31.5155C71.959 31.8749 71.959 32.2344 72.0102 32.5425C71.3952 32.4911 70.7802 32.4911 70.1139 32.4398C69.0888 32.3884 67.0387 32.3884 65.8087 32.3371C65.3474 32.3371 64.9374 32.3371 64.4761 32.3371C64.4761 32.6965 64.5274 33.1073 64.5274 33.4668C64.5274 33.9803 64.4761 34.4937 64.4761 34.9559C64.4761 36.0856 64.4761 37.1639 64.4248 38.2936C64.9886 38.2422 65.5012 38.2422 66.0137 38.2422ZM64.4248 41.4258C64.4248 42.042 64.4248 42.7096 64.4248 43.3258C64.4248 44.0446 64.4248 44.7635 64.4248 45.5338C64.4248 46.1499 64.4761 46.7661 64.4761 47.331C64.8349 47.3823 65.1936 47.3823 65.5524 47.4337C67.8588 47.4337 69.0888 46.0986 69.0888 43.4285C69.0888 41.2718 67.6538 39.9367 65.3986 39.9367C65.0911 39.9881 64.7836 39.9881 64.4761 40.0394C64.4248 40.5016 64.4248 40.9637 64.4248 41.4258Z" fill="#D2BA98"/>
<path d="M86.2583 30.2316C89.0772 30.283 91.4348 31.0532 93.2799 32.5423C94.2537 33.3126 94.9713 34.1855 95.4838 35.2125C96.1501 36.5476 96.5601 37.9853 96.6113 39.6285C96.7651 42.7094 95.9451 45.1742 93.9975 47.0741C92.1011 48.9226 89.641 49.8469 86.5658 49.7956C83.4907 49.7442 80.9793 48.8713 79.083 47.1254C77.1354 45.2769 76.1103 42.9148 76.0591 39.9366C76.0078 36.907 76.9816 34.5449 78.9292 32.7477C80.723 31.0019 83.1832 30.1803 86.2583 30.2316ZM81.8506 45.2769C82.3631 46.0471 83.0294 46.7146 83.7982 47.1768C84.6695 47.6903 85.592 47.947 86.5658 47.947C88.6159 47.9984 90.1535 47.0227 91.1273 45.1742C91.8961 43.6851 92.2549 41.7851 92.2036 39.5771C92.1011 37.5745 91.6398 35.8287 90.7686 34.3909C90.3585 33.672 89.7947 33.0558 89.026 32.5937C88.2059 32.1315 87.2321 31.8748 86.1558 31.8748C84.157 31.8235 82.6194 32.7477 81.5943 34.4936C80.8255 35.88 80.4668 37.6772 80.518 39.9879C80.5693 42.2986 81.0306 44.0958 81.8506 45.2769Z" fill="#D2BA98"/>
<path d="M103.787 30.8992C103.787 31.3614 103.787 31.8749 103.787 32.337C103.838 33.0045 103.89 33.6721 103.89 34.391C103.941 35.4179 103.941 36.3936 103.992 37.4206C104.043 38.0367 104.095 38.6529 104.146 39.2691C104.658 38.7043 105.171 38.0881 105.632 37.5233C106.145 36.8557 106.657 36.1368 107.221 35.4693C108.144 34.2883 108.861 33.3126 109.322 32.5938C109.63 32.1316 109.937 31.6181 110.245 31.156C110.809 31.2073 111.373 31.2587 111.988 31.31C112.603 31.31 113.218 31.31 113.781 31.31C113.32 31.8235 112.859 32.2857 112.346 32.7992C111.731 33.4667 111.116 34.1856 110.501 34.8531C109.732 35.7774 108.912 36.7017 108.144 37.5746C107.836 37.934 107.529 38.3448 107.272 38.7043C107.887 39.5259 108.451 40.3988 109.066 41.2204C110.194 42.7095 111.27 44.1473 112.346 45.6364C113.064 46.612 113.833 47.639 114.55 48.6146C114.96 49.1281 115.421 49.6929 115.832 50.2064C114.96 50.1551 114.038 50.1037 113.166 50.0524C112.244 50.0524 111.321 50.001 110.399 50.001C110.091 49.4875 109.732 48.9741 109.425 48.4606C109.015 47.8444 108.4 46.9201 107.529 45.6877C106.914 44.7634 106.299 43.8905 105.632 42.9662C105.171 42.35 104.761 41.7339 104.3 41.0663C104.351 41.6825 104.351 42.2987 104.402 42.9149C104.453 43.7878 104.505 44.7121 104.607 45.585C104.658 46.5093 104.761 47.3822 104.915 48.1011C105.017 48.666 105.068 49.2822 105.171 49.847C104.453 49.7956 103.736 49.7443 103.018 49.7443C102.25 49.7443 101.481 49.7443 100.712 49.7443C100.712 49.1795 100.712 48.6146 100.661 47.9984C100.609 47.1768 100.609 46.3553 100.558 45.5337C100.507 44.6094 100.456 43.6851 100.404 42.7608C100.302 40.9636 100.199 39.1664 100.097 37.3692C99.9945 36.2909 99.9432 35.2639 99.8407 34.1856C99.7894 33.518 99.7382 32.8505 99.6357 32.1316C99.5844 31.6695 99.5332 31.2073 99.4819 30.6938C100.199 30.7452 100.917 30.7965 101.635 30.8479C102.352 30.8992 103.07 30.8992 103.787 30.8992Z" fill="#D2BA98"/>
<path d="M24.4481 73.0053C24.3456 73.3647 24.2431 73.7241 24.1406 74.0836C23.9356 74.1863 23.7818 74.289 23.5768 74.3917C22.4492 74.9565 21.1167 75.316 19.5791 75.3673C18.144 75.4187 16.8627 75.1619 15.6839 74.6998C14.8126 74.3403 14.0438 73.7241 13.3775 72.9539C12.7625 72.235 12.3525 71.4648 12.1475 70.5919C11.8912 69.5135 11.84 68.2812 11.9937 66.8947C12.3012 64.0192 13.3775 61.7598 15.2226 60.1167C17.0165 58.5249 19.1178 57.7033 21.6805 57.6006C23.013 57.5492 24.1918 57.7546 25.2169 58.1141C25.4731 58.2168 25.7807 58.3195 26.0369 58.4222C25.8832 58.833 25.7807 59.2437 25.6269 59.6545C25.4731 60.168 25.3194 60.6815 25.2169 61.195C25.1656 61.195 25.1144 61.195 25.0119 61.195C24.7556 60.8356 24.4993 60.5275 24.3456 60.2707C23.6281 59.5005 22.7055 59.0897 21.4754 59.141C19.8866 59.1924 18.5028 59.9626 17.4265 61.5545C16.5039 62.8382 15.9402 64.43 15.7352 66.4326C15.5814 67.819 15.6326 69.1027 15.9402 70.2838C16.1964 71.4134 16.709 72.235 17.529 72.9026C18.349 73.5187 19.2203 73.7755 20.2966 73.7241C21.5779 73.6728 22.7568 73.2107 23.8843 72.2864C24.1406 72.081 24.3456 71.8756 24.6019 71.6702C24.7044 71.7215 24.8069 71.7729 24.9094 71.8242C24.7556 72.1837 24.6019 72.5945 24.4481 73.0053Z" fill="#D2BA98"/>
<path d="M28.497 57.5493C29.0608 57.5493 29.6758 57.5493 30.2396 57.5493C31.7772 57.5493 33.0585 57.5493 34.1348 57.5493C35.2624 57.498 36.5437 57.4466 38.03 57.3439C38.5938 57.2926 39.1576 57.2926 39.7726 57.2412C39.7213 57.5493 39.7213 57.8574 39.6701 58.1655C39.6701 58.4736 39.6701 58.7817 39.6701 59.0898C39.2088 59.0898 38.7475 59.0384 38.2863 59.0384C37.7225 59.0384 37.1075 58.9871 36.5437 58.9871C36.2362 58.9871 35.9799 58.9871 35.6724 58.9871C35.5186 60.8356 35.4161 62.7355 35.2624 64.5841C35.1599 66.1759 35.0574 67.8191 34.9548 69.4109C34.9036 70.5406 34.8523 71.6703 34.8011 72.7999C34.8011 73.3648 34.8011 73.9296 34.7498 74.5458C34.1348 74.5458 33.5198 74.5458 32.9047 74.5458C32.2897 74.5971 31.6747 74.5971 31.0596 74.6485C31.1109 74.0837 31.1622 73.5188 31.2647 72.9026C31.3672 71.7729 31.4697 70.6433 31.6234 69.5136C31.7259 67.8704 31.8797 66.2786 31.9822 64.6355C32.0847 63.095 32.2385 61.5545 32.341 60.0654C32.3922 59.706 32.3922 59.3979 32.4435 59.0384C32.136 59.0384 31.8797 59.0384 31.5722 59.0898C30.9571 59.1411 30.3934 59.1925 29.7783 59.2438C29.3171 59.2952 28.8558 59.3465 28.3433 59.3979C28.3945 59.0898 28.4458 58.7817 28.497 58.4736C28.4458 58.1655 28.4458 57.8574 28.497 57.5493Z" fill="#D2BA98"/>
<path d="M48.5367 56.8818C50.8431 56.8304 52.7394 57.498 54.1232 58.7817C54.8408 59.4492 55.4045 60.2708 55.7633 61.1437C56.2246 62.3248 56.4296 63.6598 56.3783 65.0976C56.3271 67.8705 55.4045 70.1298 53.7132 71.8757C52.0731 73.5702 49.9718 74.4945 47.4091 74.5458C44.8978 74.5972 42.8989 73.8269 41.4638 72.3378C39.9775 70.746 39.3112 68.5893 39.465 65.9192C39.6187 63.1977 40.5925 60.9897 42.2839 59.2952C43.924 57.7547 46.0253 56.9331 48.5367 56.8818ZM43.924 70.6946C44.2827 71.4135 44.7953 71.927 45.4103 72.3378C46.0766 72.7999 46.7941 73.0053 47.6141 72.954C49.3055 72.9026 50.5868 72.0297 51.5606 70.2839C52.2781 68.8974 52.7394 67.2029 52.7907 65.2003C52.8419 63.3517 52.5856 61.8113 51.9706 60.5276C51.7144 59.86 51.2531 59.3465 50.638 58.9357C50.023 58.5249 49.2542 58.3196 48.3317 58.3196C46.6916 58.3709 45.4103 59.1925 44.3852 60.8357C43.6677 62.1194 43.2577 63.7625 43.1039 65.8678C43.0527 68.0245 43.3089 69.6163 43.924 70.6946Z" fill="#D2BA98"/>
<path d="M66.1163 56.9331C68.0126 62.5815 70.0627 68.2299 72.1641 74.135C71.4978 74.0836 70.8315 74.0323 70.114 74.0323C69.4477 74.0323 68.5764 74.0836 68.1151 74.135C66.9876 69.8217 65.45 65.6111 64.1174 61.5032C62.5286 65.6624 60.9398 69.873 59.6072 74.1863C59.351 74.135 58.8897 74.0836 58.5309 74.0836C58.1721 74.0836 57.7621 74.135 57.5059 74.2377C59.8635 68.2812 62.1698 62.6842 64.1687 56.9845C64.3737 57.0358 64.7837 57.0871 65.0912 57.0871C65.45 57.0358 65.7575 56.9845 66.1163 56.9331Z" fill="#D2BA98"/>
<path d="M73.7533 70.4379C73.7533 69.3596 73.7533 68.2813 73.7533 67.2543C73.7533 65.7652 73.7021 64.2247 73.7021 62.7356C73.7021 61.8626 73.7021 60.9897 73.7021 60.1168C73.6508 59.4492 73.6508 58.7304 73.5996 58.0628C73.5483 57.652 73.4971 57.2412 73.4971 56.8304C74.1121 56.8818 74.7271 56.9331 75.3422 56.9845C75.8034 56.9845 76.521 57.0358 77.4948 57.0358C78.9811 57.0358 80.0574 57.0358 80.7237 56.9845C81.1337 56.9331 81.5437 56.9331 82.005 56.8818C82.005 57.2412 82.005 57.5493 82.005 57.9088C82.005 58.2682 82.0563 58.6277 82.0563 59.0384C81.595 58.9871 81.185 58.9871 80.7237 58.9357C79.8524 58.8844 78.9811 58.8844 78.1098 58.8331C77.6998 58.8331 77.341 58.8331 76.931 58.7817C76.9823 60.5276 76.9823 62.3248 77.0335 64.0706C77.4948 64.0706 77.9048 64.0706 78.3661 64.122C79.1861 64.122 80.0062 64.122 80.7749 64.0706C81.185 64.0193 81.6462 64.0193 82.0563 63.9679C82.0563 64.3274 82.0563 64.7382 82.005 65.0976C82.0563 65.4571 82.0563 65.8165 82.1075 66.2273C81.6462 66.1759 81.185 66.1246 80.7749 66.0733C80.0574 66.0219 79.2886 65.9705 78.3661 65.9705C77.956 65.9705 77.4948 65.9705 77.0848 65.9705C77.136 68.0245 77.136 70.0271 77.1873 72.0811C77.5973 72.0811 78.0073 72.0811 78.4173 72.1324C79.1349 72.1324 79.9549 72.1324 80.8774 72.0297C81.39 71.9784 81.9025 71.9784 82.415 71.927C82.415 72.3378 82.415 72.6973 82.415 73.1081C82.415 73.5188 82.4663 73.8783 82.4663 74.2891C81.9537 74.2377 81.4925 74.2377 80.98 74.1864C80.1087 74.135 79.2374 74.0837 78.3661 74.0837C77.4435 74.0837 76.521 74.0837 75.5984 74.0837C74.9321 74.135 74.3171 74.1864 73.6508 74.2377C73.7021 73.8269 73.7021 73.3648 73.7533 72.954C73.7533 72.2351 73.7533 71.3622 73.7533 70.4379Z" fill="#D2BA98"/>
<path d="M84.106 56.8817C84.6697 56.9331 85.2848 56.9331 85.8485 56.9844C87.3861 57.0871 88.7187 57.1385 89.7437 57.1385C90.8713 57.1385 92.1526 57.1385 93.6389 57.0871C94.2027 57.0871 94.7665 57.0871 95.3303 57.0358C95.3303 57.3439 95.3303 57.652 95.3303 57.96C95.3815 58.2681 95.3815 58.5762 95.4328 58.8843C94.9715 58.833 94.5102 58.7816 93.9977 58.7816C93.4339 58.7303 92.8189 58.6789 92.2551 58.6789C91.9476 58.6789 91.6913 58.6789 91.3838 58.6789C91.4863 60.5275 91.5376 62.4274 91.6401 64.276C91.7426 65.8678 91.7938 67.5109 91.8963 69.1028C91.9476 70.2324 92.0501 71.3621 92.1014 72.4918C92.1526 73.0566 92.2039 73.6215 92.2551 74.2376C91.6401 74.1863 91.0251 74.1863 90.41 74.135C89.795 74.135 89.18 74.135 88.5649 74.135C88.5649 73.5701 88.5649 73.0053 88.5649 72.3891C88.5649 71.2594 88.5649 70.1297 88.5137 69.0001C88.4624 67.4082 88.4112 65.7651 88.3599 64.1733C88.3087 62.6328 88.2574 61.1437 88.2062 59.6032C88.2062 59.2438 88.2062 58.9357 88.1549 58.5762C87.8474 58.5762 87.5911 58.5762 87.2836 58.5762C86.7198 58.5762 86.1048 58.6276 85.541 58.6276C85.0798 58.6276 84.6185 58.6789 84.1572 58.6789C84.1572 58.3708 84.1572 58.0627 84.2085 57.7546C84.1572 57.5493 84.1572 57.1898 84.106 56.8817Z" fill="#D2BA98"/>
<path d="M111.68 57.6007C111.68 58.9871 111.834 61.5545 112.141 64.9949C112.398 68.0245 112.654 71.927 113.166 74.7512C112.449 74.6485 112.09 74.6485 111.424 74.6485C110.757 74.6485 110.142 74.5971 109.476 74.6485C109.476 71.7216 109.22 68.8461 108.964 65.9192C108.861 64.7895 108.759 63.5058 108.656 62.6328C105.94 66.33 103.275 70.3352 100.712 74.3917C100.046 74.3917 99.4306 74.3404 98.7643 74.3404C98.6618 71.4649 98.5593 68.538 98.5081 65.6624C98.3031 62.4788 98.098 59.6033 97.7905 57.2412C98.4056 57.2926 99.0206 57.2926 99.6356 57.3439C100.199 57.3439 100.814 57.3439 101.378 57.3439C101.327 59.8087 101.532 62.5815 101.737 65.7651C101.891 67.9731 101.891 68.5893 101.942 69.1028C104.863 65.4057 107.58 61.5545 109.886 57.652C110.45 57.652 110.962 57.652 111.526 57.652C111.577 57.6007 111.629 57.6007 111.68 57.6007Z" fill="#D2BA98"/>
<path d="M125.518 59.0898C125.518 59.7059 125.621 60.5789 125.723 61.6572C126.082 64.7381 126.389 67.8191 126.748 70.9514C126.902 72.3378 127.004 73.3134 127.107 73.8782C127.209 74.3917 127.312 74.8539 127.414 75.3674C126.799 75.316 126.236 75.2647 125.621 75.2133C125.006 75.2133 124.391 75.2133 123.776 75.162C123.776 74.6998 123.724 74.1863 123.724 73.7242C123.673 72.9026 123.622 71.927 123.468 70.7973C123.366 69.5649 123.212 68.3326 123.109 67.1002C122.904 67.1002 122.75 67.1002 122.545 67.1002C121.674 69.2055 120.854 71.3108 120.034 73.4674C119.88 73.9809 119.675 74.4944 119.522 75.0079C118.855 74.9566 118.24 74.9052 117.574 74.9052C116.856 74.9052 116.088 74.9052 115.37 74.8539C115.626 74.3917 115.934 73.9296 116.19 73.4161C117.215 71.2594 118.189 69.1028 119.214 66.9975C117.471 66.3299 115.729 64.8922 115.524 62.6328C115.268 59.9627 116.6 57.7547 120.547 57.9087C121.674 57.9601 122.75 58.0628 123.878 58.1655C124.442 58.1655 125.006 58.1655 125.569 58.1655C125.518 58.4736 125.518 58.7817 125.518 59.0898ZM122.289 59.5005C122.033 59.4492 121.777 59.4492 121.469 59.3978C119.778 59.3465 118.292 60.2194 118.497 62.1707C118.702 64.0192 119.727 65.7138 122.187 65.8165C122.443 65.8165 122.699 65.8165 122.904 65.7651C122.75 63.6598 122.494 61.6058 122.289 59.5005Z" fill="#D2BA98"/>
<path d="M28.8041 80.0402L28.6504 81.1185L29.3679 81.5806L29.5217 80.1429L28.8041 80.0402Z" fill="#266DB5"/>
<path d="M34.2372 80.7076L33.7759 84.8669L34.4422 85.329L34.9547 80.759L34.2372 80.7076Z" fill="#266DB5"/>
<path d="M45.2561 87.7938L45.9224 82.0428L45.2048 81.9401L44.4873 88.256L45.2561 87.7938Z" fill="#266DB5"/>
<path d="M39.7209 81.3239L38.9009 88.6154L39.5672 89.1289L40.4385 81.3752L39.7209 81.3239Z" fill="#266DB5"/>
<path d="M108.809 80.0402L108.963 81.1185L108.297 81.5806L108.092 80.1429L108.809 80.0402Z" fill="#266DB5"/>
<path d="M103.377 80.7076L103.838 84.8669L103.172 85.329L102.659 80.759L103.377 80.7076Z" fill="#266DB5"/>
<path d="M92.3572 87.7938L91.6909 82.0428L92.4085 81.9401L93.126 88.256L92.3572 87.7938Z" fill="#266DB5"/>
<path d="M97.8923 81.3239L98.7124 88.6154L98.0461 89.1289L97.1748 81.3752L97.8923 81.3239Z" fill="#266DB5"/>
<path d="M82.0043 83.6344C81.5943 82.6588 81.0305 81.7858 80.2617 81.0156C78.7241 79.4751 76.7253 78.6536 74.5727 78.6536C73.2401 78.6536 71.9588 78.9617 70.8312 79.5778C70.2162 79.8859 69.4987 79.8859 68.8836 79.5778C67.7561 78.9617 66.4748 78.6536 65.1422 78.6536C63.9121 78.6536 62.7333 78.9617 61.657 79.4751V79.013H57.0443C55.968 79.013 55.0967 79.8859 55.0967 80.9643V92.4151C55.0967 93.4934 55.968 94.3663 57.0443 94.3663H61.657V93.9042C62.7333 94.4177 63.9121 94.7258 65.1422 94.7258C66.4748 94.7258 67.7561 94.4177 68.8836 93.8015C69.4987 93.4934 70.2162 93.4934 70.8312 93.8015C71.9588 94.4177 73.2401 94.7258 74.5727 94.7258C77.8016 94.7258 80.723 92.7745 81.953 89.7963C82.3631 88.8206 82.5681 87.7423 82.5681 86.664C82.6193 85.637 82.4143 84.61 82.0043 83.6344Z" fill="#1E1951"/>
<path fill-rule="evenodd" clip-rule="evenodd" d="M79.5443 84.7127C79.288 84.0452 78.878 83.4803 78.4167 82.9669C77.4429 81.9912 76.0591 81.4264 74.6753 81.4264C72.6764 81.4264 70.8826 82.5047 69.96 84.3019C69.55 85.0722 69.345 85.8937 69.345 86.7667C69.345 87.7423 68.9862 88.6666 68.4225 89.3855C67.6024 90.3611 66.4749 90.8746 65.1935 90.9259C63.9122 90.9259 62.6822 90.3097 61.9134 89.2314C61.3496 88.4612 61.0933 87.5369 61.0933 86.664C61.1446 84.4046 62.9897 82.6074 65.2448 82.6074C65.9623 82.6074 66.6799 82.8128 67.2437 83.1209C67.8074 83.429 68.2687 83.8911 68.6275 84.4046C68.7812 83.9938 68.9862 83.6344 69.1913 83.275C68.1662 82.0939 66.7311 81.4264 65.1935 81.4264C63.0409 81.4264 61.1446 82.7101 60.2733 84.7127C60.017 85.3289 59.8633 86.0478 59.8633 86.7667C59.8633 87.4856 60.017 88.1531 60.2733 88.8206C61.0933 90.7719 62.9897 92.107 65.1423 92.107C66.5774 92.107 67.9099 91.5421 68.8837 90.5665C69.3963 90.053 69.755 89.4882 70.0625 88.8206C70.3188 88.2044 70.4726 87.5369 70.4726 86.818C70.4726 85.3289 71.2414 83.9938 72.5227 83.2236C73.1377 82.8642 73.9065 82.6588 74.624 82.6588C75.5978 82.6588 76.5204 83.0182 77.2379 83.583C78.263 84.4046 78.7755 85.5856 78.7755 86.7667C78.7755 89.0774 76.9304 90.9259 74.624 90.9259C73.2915 90.9259 72.0101 90.2584 71.2414 89.1287C71.0876 89.5395 70.8826 89.899 70.6776 90.2584C71.7026 91.4394 73.1377 92.0556 74.6753 92.0556C76.8279 92.0556 78.7755 90.7719 79.5955 88.7693C79.8518 88.1018 80.0056 87.4342 80.0056 86.7153C79.903 86.0478 79.8005 85.3289 79.5443 84.7127Z" fill="#D2BA98"/>
<path d="M58.9918 81.7345H57.813V91.6962H58.9918V81.7345Z" fill="#D2BA98"/>
</svg>
