<svg width="2708" height="495" viewBox="0 0 2708 495" fill="none" xmlns="http://www.w3.org/2000/svg">
<path d="M2706.53 493.783C2680.77 473.089 2661.45 444.981 2634.66 425.71C2619.09 414.502 2600.76 406.265 2583.99 397.104C2552.44 379.879 2520.88 362.631 2489.36 345.406C2455.48 326.909 2422.76 309.011 2386.89 294.683C2354.73 281.852 2331.32 261.508 2302.46 243.31C2242.48 205.442 2177.18 173.59 2115.59 138.318C2084.12 120.295 2050.97 107.215 2020.96 86.2967C1980.42 58.0642 1943 42.6373 1898.42 22.5426C1799.84 22.5426 1700.69 25.638 1602.17 22.0185C1519.57 18.998 1438.06 0.625675 1355.29 1.075C1268.79 1.54928 1185.94 31.4042 1099.75 34.6743C1003.97 38.2938 908.013 46.6563 812.158 47.53C790.44 54.5444 768.024 53.8954 746.581 60.9598C722.543 68.8728 705.394 86.721 684.999 100.975C669.123 112.083 650.476 118.249 635 129.831C616.253 143.86 603.447 164.554 587.097 180.954C556.218 211.933 531.356 187.719 495.909 196.331C464.956 203.869 437.023 230.155 408.066 243.285C376.339 257.664 349.055 264.803 320.224 286.195C289.046 309.336 255.147 326.834 221.148 345.406C188.272 363.354 155.397 381.327 122.546 399.275C102.776 410.084 83.4554 424.263 60.5149 426.734C40.52 428.881 23.9699 427.084 4 433.124C105.622 433.124 209.89 426.509 311.212 434.822C403.149 442.36 490.892 464.053 583.727 464.078C751.524 464.127 920.37 469.444 1088.07 464.028C1168.82 461.431 1243.28 426.459 1323.04 417.698C1404.14 408.761 1479.1 440.738 1557.21 456.264C1637.31 472.19 1723.44 464.053 1804.74 464.053C1890.71 464.053 1970.41 458.012 2055.04 442.71C2106.21 433.449 2157.11 427.208 2209.13 432.325C2260.05 437.343 2309.88 449.674 2360.43 457.363C2413 465.351 2466.09 463.329 2518.76 470.543C2581.47 479.155 2643.05 491.986 2706.53 493.808V493.783Z" stroke="black" stroke-miterlimit="10"/>
<path d="M88.4233 433.149C107.919 427.008 124.169 429.38 143.54 426.559C163.011 423.714 178.987 411.282 195.562 401.622C227.713 382.875 259.89 364.128 292.041 345.406C327.363 324.812 352.875 301.972 381.407 272.941C409.639 244.234 433.429 254.868 467.228 243.285C496.908 233.126 521.77 201.224 553.048 195.258C567.926 192.412 582.454 200.799 597.082 199.152C617.451 196.855 628.41 185.322 642.439 170.744C669.548 142.562 701.325 126.037 730.556 101.05C747.331 86.7211 760.985 69.8965 782.103 62.0583C802.972 54.3199 824.864 55.1186 846.057 47.0059" stroke="black" stroke-miterlimit="10"/>
<path d="M172.896 433.149C193.091 426.609 207.644 430.404 227.663 426.085C245.511 422.241 264.059 407.139 279.161 397.728C305.796 381.103 332.456 364.453 359.09 347.828C375.291 337.718 391.517 328.707 404.322 314.279C421.397 295.057 431.082 270.145 448.131 251.049C475.116 220.844 495.76 251.523 526.438 242.362C554.995 233.825 575.964 203.97 604.745 195.782C619.224 191.663 634.201 198.753 648.554 195.932C664.455 192.812 674.241 183.026 686.173 172.692C714.78 147.879 747.905 129.707 773.741 102.073C789.043 85.6978 802.622 66.5768 825.238 60.1115C844.185 54.6947 861.284 53.9707 880.006 45.6582" stroke="black" stroke-miterlimit="10"/>
<path d="M257.344 433.149C276.316 426.759 291.867 430.703 310.489 425.461C325.666 421.192 339.446 408.861 352.201 400.274C380.634 381.153 409.091 362.032 437.523 342.885C476.115 316.925 482.63 276.735 509.514 241.463C536.698 205.767 553.698 251.798 585.65 242.237C611.136 234.598 630.083 207.989 654.795 197.979C667.077 192.986 677.736 195.183 690.117 192.961C709.638 189.466 718.1 183.176 733.777 170.57C760.137 149.402 789.143 134.724 810.96 108.414C825.788 90.5654 837.92 71.0699 860.81 63.0071C879.457 56.442 896.007 53.5213 913.955 43.6362" stroke="black" stroke-miterlimit="10"/>
<path d="M341.792 438.141C374.817 428.431 396.609 424.138 425.516 403.069C450.703 384.722 475.89 366.375 501.077 348.027C521.396 333.225 531.207 324.962 543.588 301.647C553.074 283.749 559.214 262.731 571.097 246.181C595.759 211.783 613.907 254.319 644.86 242.436C669.773 232.876 687.172 206.665 711.835 196.181C737.596 185.223 756.891 186.296 781.454 168.897C810.561 148.278 832.752 130.979 856.342 103.795C884.25 71.6437 913.98 64.9787 947.904 41.3643" stroke="black" stroke-miterlimit="10"/>
<path d="M426.239 451.646C482.779 422.989 529.508 382.001 579.009 342.66C607.965 319.645 613.032 280.279 639.443 256.59C659.063 238.966 681.08 256.041 704.02 242.96C725.189 230.904 740.715 208.912 762.058 197.279C785.073 184.723 806.865 184.848 829.032 167.998C856.94 146.805 877.309 124.913 901.348 99.8011C924.738 75.3629 956.315 61.3338 981.802 39.0674" stroke="black" stroke-miterlimit="10"/>
<path d="M510.712 462.78C555.819 425.885 599.229 386.669 643.113 348.327C668.075 326.485 681.705 290.814 707.591 271.743C724.89 259.012 745.733 257.364 763.232 243.41C781.48 228.857 798.329 206.491 818.873 195.432C840.566 183.775 856.741 182.752 876.736 165.078C898.528 145.832 917.325 123.566 938.893 104.245C964.704 81.1297 991.813 62.7822 1015.75 37.021" stroke="black" stroke-miterlimit="10"/>
<path d="M595.16 464.103C617.576 440.214 633.927 409.885 661.136 391.362C680.731 378.033 696.907 365.202 714.131 348.527C750.401 313.38 785.698 278.233 822.443 243.485C854.794 212.881 894.01 191.614 924.414 159.737C941.189 142.138 957.09 120.97 976.86 106.642C989.316 97.6301 1001.12 93.4612 1012.16 82.8023C1026.31 69.1229 1037.77 51.0004 1049.75 35.5986" stroke="black" stroke-miterlimit="10"/>
<path d="M679.607 464.053C695.633 438.691 706.742 395.107 735.099 382.301C743.436 378.532 751.899 381.403 760.71 375.437C769.747 369.321 777.784 356.765 785.198 348.677C816.601 314.379 847.305 280.255 881.628 248.877C914.803 218.548 943.535 188.169 972.117 153.546C987.069 135.423 1000.65 115.353 1021.67 104.694C1033.47 98.7034 1038.79 98.4289 1048.28 88.4689C1062.31 73.766 1072.44 51.6245 1083.65 34.9746" stroke="black" stroke-miterlimit="10"/>
<path d="M764.055 464.027C774.689 442.784 783.525 420.842 790.59 398.152C793.011 380.353 801.349 373.538 815.577 377.732C825.637 383.598 833.525 381.027 839.266 369.969C846.256 361.282 853.795 353.119 861.858 345.431C877.808 327.383 889.291 306.589 904.718 288.367C915.277 275.91 928.757 269.395 940.839 258.961C977.558 227.259 992.061 186.096 1019.82 148.128C1027.36 138.168 1034.87 128.208 1042.41 118.248C1047.55 108.338 1055.44 103.57 1066.1 103.92C1078.88 103.87 1087.19 97.105 1091.09 83.6003C1099.05 66.4512 1107.89 49.8012 1117.62 33.6006" stroke="black" stroke-miterlimit="10"/>
<path d="M848.528 464.027C857.34 442.884 865.178 421.391 871.993 399.524C874.714 385.421 882.078 379.729 894.06 382.425C905.492 374.312 923.565 366.674 934.873 355.541C950.125 340.513 954.019 317.972 963.405 299.6C974.413 278.057 983.15 282.676 1000.05 270.519C1038.14 243.135 1042.59 185.447 1065.23 148.652C1071.82 138.842 1078.46 129.057 1085.15 119.296C1088.79 108.937 1095.76 103.371 1106.04 102.597C1118.3 100.849 1125.66 93.1857 1128.11 79.6312C1135.15 62.6318 1142.98 46.0069 1151.57 29.7563" stroke="black" stroke-miterlimit="10"/>
<path d="M932.976 464.053C944.383 435.321 951.997 411.932 972.166 389.441C978.132 382.951 984.124 376.46 990.09 369.945C992.96 370.22 995.856 370.494 998.726 370.769C1009.98 370.369 1015.55 363.28 1015.45 349.476C1020.39 330.455 1025.79 311.558 1031.63 292.786C1042.59 279.406 1047.65 285.672 1059.24 276.661C1096.03 248.029 1096.83 179.382 1115.55 140.965C1124.19 123.217 1134.9 108.938 1146.33 94.1855C1157.01 90.2664 1163.33 82.1784 1165.3 69.9718C1171.47 54.52 1178.18 39.2932 1185.52 24.3657" stroke="black" stroke-miterlimit="10"/>
<path d="M1017.42 464.103C1027.56 439.839 1038.24 416.425 1049.82 392.835C1050.4 383.973 1054.12 377.957 1060.96 374.787C1065 370.818 1068.57 372.141 1071.72 378.681C1093.53 369.246 1086.42 317.074 1095.53 298.003C1105.34 277.509 1104.84 290.913 1118.42 278.782C1126.66 271.443 1133.95 247.329 1137.99 235.996C1151.6 198.003 1148.1 156.166 1165.13 119.272C1171.37 105.767 1179.35 93.2113 1187.02 80.6302C1199.07 60.885 1209.43 40.1913 1219.42 18.0996" stroke="black" stroke-miterlimit="10"/>
<path d="M1101.9 463.478C1110.16 439.215 1118.62 415.026 1127.03 390.813C1128.96 385.321 1130.9 379.829 1132.83 374.337C1136.59 371.741 1140.31 371.816 1143.98 374.537C1158.89 353.918 1149.97 320.493 1159.86 298.402C1170.84 273.864 1169.12 292.81 1177.66 277.483C1208.66 221.967 1187.94 153.595 1211.33 97.0303C1223.31 68.0489 1240.56 40.7899 1253.42 11.8086" stroke="black" stroke-miterlimit="10"/>
<path d="M1186.34 448.675C1194.36 419.694 1204.72 390.613 1213.48 362.405C1220.29 340.463 1216.3 309.735 1226.31 289.515C1231.25 279.505 1232.12 287.867 1236.87 278.781C1242.38 268.172 1245.43 243.559 1247.43 231.877C1250.52 189.99 1252.94 148.053 1254.64 106.091C1255.86 94.7085 1257.11 83.3005 1258.33 71.9177C1260.96 65.1529 1266.82 58.0637 1269.99 50.55C1276.16 35.9969 1281.52 21.1191 1287.37 6.31641" stroke="black" stroke-miterlimit="10"/>
<path d="M1270.79 426.909C1282.6 415.251 1279.15 389.59 1281.23 373.514C1284.6 347.454 1284.62 318.697 1290.34 293.26C1305.86 224.214 1292.98 125.038 1307.74 48.1542C1313.48 53.6709 1312.25 41.1647 1314.18 32.2032C1316.35 22.0435 1317.67 12.2834 1321.32 2.44824" stroke="black" stroke-miterlimit="10"/>
<path d="M1355.24 415.675V39.5171C1355.24 60.4855 1355.24 31.4293 1355.24 27.3854V1" stroke="black" stroke-miterlimit="10"/>
<path d="M1439.71 426.909C1426.26 414.977 1430.3 381.627 1428.33 364.678C1425.73 342.361 1424.54 319.471 1420.82 297.329C1418.05 280.804 1413.53 265.302 1411.61 248.453C1404.07 182.427 1414.85 113.356 1402.77 48.1542C1396.45 57.6899 1397.5 36.1973 1396.33 30.1315C1394.26 19.4476 1393.43 11.6592 1389.19 1.92383" stroke="black" stroke-miterlimit="10"/>
<path d="M1524.16 448.676C1515.77 418.421 1505.74 388.317 1497.33 358.087C1487.59 323.09 1484.69 286.345 1473.64 251.573C1454.86 192.536 1468.82 127.36 1450.27 69.8215C1444.38 51.549 1435.87 20.1464 1423.14 4.37012" stroke="black" stroke-miterlimit="10"/>
<path d="M1608.61 463.479C1600.35 439.215 1591.86 415.027 1583.47 390.813C1581.55 385.321 1579.63 379.805 1577.7 374.313C1575.36 371.392 1572.74 370.993 1569.84 373.065C1544.55 333 1556.19 273.09 1532.97 232.726C1525.83 220.345 1520.42 215.602 1515.02 200.699C1503.24 168.023 1512.85 129.657 1499.15 97.0307C1493.66 83.9504 1486.54 73.1416 1482.2 59.2126C1475.53 37.8697 1467.27 26.0124 1457.06 7.86475" stroke="black" stroke-miterlimit="10"/>
<path d="M1693.06 464.052C1683.55 443.259 1674.03 422.465 1664.52 401.671C1659.01 389.614 1655.79 366.399 1642.16 377.433C1619.87 360.833 1608.83 285.272 1603.87 262.107C1599.75 242.911 1597.47 224.313 1585.57 209.111C1581.55 210.409 1578.28 209.536 1575.76 206.49C1571.81 204.269 1569.62 200.724 1569.17 195.856C1557.59 180.779 1558.78 154.044 1552.29 135.797C1546.65 119.896 1537.29 106.241 1530.93 90.6647C1525.08 76.4112 1521.39 61.259 1515.72 46.9306C1507.64 26.4864 1501.39 28.4585 1491.04 11.8086" stroke="black" stroke-miterlimit="10"/>
<path d="M1777.53 464.053C1764.47 441.212 1751.42 418.397 1738.34 395.556C1734.42 385.996 1728.7 377.783 1721.19 370.868C1718.19 374.213 1714.85 375.087 1711.18 373.514C1697.55 362.806 1690.26 336.42 1683.25 319.72C1674.76 300.574 1668.67 280.654 1664.97 259.96C1663.5 244.084 1658.98 229.357 1651.37 215.827C1641.66 206.291 1633.97 205.418 1623.61 195.133C1608.91 180.53 1600.54 151.05 1590.68 132.852C1580.57 114.23 1571.81 96.1821 1564.12 76.312C1559.58 61.4844 1553.27 47.4806 1545.15 34.2755C1537.29 29.3828 1530.55 23.242 1524.93 15.8032" stroke="black" stroke-miterlimit="10"/>
<path d="M1861.98 464.052C1846.8 441.935 1831.62 419.819 1816.45 397.702C1810.45 387.967 1803.64 378.88 1796 370.418C1790.58 370.593 1785.17 370.418 1779.78 369.869C1766.92 358.561 1760.01 339.989 1751.52 325.361C1733.72 294.707 1732.87 245.057 1710.48 219.196C1698.72 205.641 1685.29 204.992 1673.84 189.865C1663.75 176.56 1654.94 161.333 1645.3 147.629C1629.45 125.088 1615.75 104.294 1604.49 78.982C1599.6 64.0295 1592.23 50.4251 1582.42 38.2185C1573.44 33.3508 1565.6 27.0354 1558.96 19.2222" stroke="black" stroke-miterlimit="10"/>
<path d="M1946.42 460.957C1929.1 441.636 1912.65 421.891 1896.42 401.621C1888.86 392.085 1881.2 382.6 1873.46 373.214C1867.94 368.771 1861.73 366.948 1854.79 367.747C1804.36 340.488 1800.14 270.219 1769.64 229.106C1758.41 213.954 1741.31 207.713 1729.6 192.886C1714.92 174.314 1704.06 154.818 1687.89 137.195C1668.92 116.526 1656.16 98.7026 1642.86 73.5905C1628.28 46.0569 1612.58 42.3124 1592.86 21.6436" stroke="black" stroke-miterlimit="10"/>
<path d="M2030.9 447.203C2006.71 431.152 1988.76 418.022 1968.92 396.354C1952.69 378.656 1941.73 375.236 1922.88 364.552C1875.91 337.892 1859.23 279.805 1828.98 239.116C1814.1 219.121 1792.68 206.516 1778.88 185.572C1763.95 162.956 1754.56 145.333 1732.45 129.556C1709.03 112.856 1697.6 95.9569 1682.35 71.1942C1667.02 46.3316 1649.62 38.6183 1626.86 22.5425" stroke="black" stroke-miterlimit="10"/>
<path d="M2115.35 433.324C2102.56 426.834 2090.13 430.054 2077.75 424.113C2064.1 417.572 2053.14 403.643 2042.45 393.259C2025.93 377.208 2012.45 369.545 1992.7 359.335C1940.68 332.401 1924.08 285.796 1888.16 243.734C1871.74 224.513 1849.77 210.01 1835.07 189.291C1816.77 163.505 1811.38 135.023 1779.73 123.591C1753.09 113.955 1743.36 100.775 1726.73 77.3601C1707.53 50.3508 1687.59 39.9163 1660.75 22.5425" stroke="black" stroke-miterlimit="10"/>
<path d="M2199.79 431.477C2183.59 424.887 2167.84 429.629 2152.54 422.365C2142.13 417.423 2131.62 404.467 2122.93 396.879C2103.29 379.705 2084.54 363.754 2062.05 350.573C2044.23 340.139 2021.94 340.938 2005.81 328.906C1979.3 309.161 1970.11 267.923 1947.37 243.834C1930.32 225.786 1907.66 212.656 1891.63 193.61C1868.44 166.076 1865.52 126.087 1827.15 117.949C1817.72 115.952 1809.28 118.748 1799.95 113.805C1784.62 105.692 1774.86 86.1219 1764.3 73.2662C1743.41 47.8795 1722.29 39.2673 1694.75 22.5425" stroke="black" stroke-miterlimit="10"/>
<path d="M2284.24 443.733C2266.47 432.226 2252.84 432.825 2234.82 423.713C2223.71 418.097 2213.47 407.837 2203.76 400.124C2180.65 381.751 2157.33 358.561 2131.65 343.983C2118.14 336.32 2114.67 332.251 2098.2 334.747C2085.07 336.719 2079.75 343.809 2065.87 335.696C2054.06 328.806 2045.83 306.265 2039.78 295.057C2029.7 276.36 2021.24 258.987 2006.48 243.984C1986.46 223.64 1960.03 210.659 1941.83 188.493C1923.09 165.627 1913.32 120.794 1881.4 113.98C1868.57 111.234 1858.93 117.774 1846.05 113.131C1830.2 107.44 1819.84 90.9646 1809.08 78.6332C1784.57 50.5256 1759.73 40.4904 1728.63 22.5425" stroke="black" stroke-miterlimit="10"/>
<path d="M2368.71 458.586C2340.68 436.219 2308.3 420.069 2279.2 398.876C2252.59 379.48 2226.55 358.062 2198.82 340.314C2185.21 331.602 2180.8 328.082 2164.5 333.225C2153.89 336.57 2143.68 348.551 2131.25 343.933C2100.14 332.351 2089.76 265.976 2065.69 243.31C2043.6 222.541 2014.42 210.235 1993.7 187.719C1972.31 164.454 1959.43 120.994 1925.51 115.228C1913.77 113.231 1901.19 118.523 1889.66 114.005C1872.83 107.44 1856.53 85.1234 1844.48 72.9917C1820.24 48.5535 1792.08 38.8679 1762.63 22.5425" stroke="black" stroke-miterlimit="10"/>
<path d="M2453.16 464.352C2394.8 424.038 2335.56 384.972 2276.7 345.382C2262.07 335.547 2251.76 326.735 2233.89 329.705C2219.69 332.077 2208.38 348.028 2192.4 342.586C2160.55 331.752 2149.69 265.327 2124.85 243.26C2102.59 223.465 2073.38 211.384 2050.47 192.188C2024.11 170.096 2007.33 129.831 1973.01 119.123C1957.53 114.28 1943.5 118.723 1928.35 111.085C1913.47 103.571 1901.49 88.269 1889.33 77.3355C1860.33 51.2498 1830.3 40.3912 1796.52 22.4932" stroke="black" stroke-miterlimit="10"/>
<path d="M2537.61 473.289C2477.22 423.688 2410.4 384.023 2343.9 343.11C2329.92 334.498 2317.74 325.037 2300.82 324.188C2286.94 323.514 2272.91 332.75 2258.98 330.054C2224.58 323.439 2209.13 265.102 2184.04 244.109C2159.53 223.565 2128.32 210.285 2102.19 191.913C2074.91 172.717 2054.41 141.838 2024.18 127.31C2009.93 120.445 1993.7 120.545 1979.4 114.354C1961.85 106.766 1946.67 91.7634 1932.47 79.5068C1900.64 52.0482 1867.29 41.2144 1830.47 22.5425" stroke="black" stroke-miterlimit="10"/>
<path d="M2622.06 486.693C2582.29 450.623 2549.24 421.616 2502.86 394.582C2472.28 376.759 2441.68 358.936 2411.1 341.113C2397.1 332.95 2383.39 323.09 2367.76 318.222C2353.76 313.854 2339.61 315.202 2325.6 311.632C2288.08 302.047 2272.61 264.977 2243.25 243.31C2218.21 224.813 2187.69 211.258 2160.9 195.357C2128.87 176.361 2100.69 150.325 2068.02 132.901C2034.97 115.278 2006.01 105.518 1975.56 82.028C1939.53 54.2199 1904.59 41.8633 1864.42 22.5674" stroke="black" stroke-miterlimit="10"/>
<path d="M1908.73 27.535C1806.88 27.7847 1704.34 30.4809 1602.54 26.8613C1519.74 23.9158 1438.24 4.74445 1355.24 5.14385C1271.12 5.54325 1191.54 36.5216 1107.94 41.0398C1006.47 46.5066 903.37 52.1231 801.749 51.6988" stroke="black" stroke-miterlimit="10"/>
<path d="M1919.47 31.8532C1816.99 31.953 1714.27 32.9762 1611.83 30.6547C1525.78 28.7076 1441.41 6.81586 1355.24 7.19029C1267.5 7.56473 1185.97 46.4062 1098.65 49.6264C996.655 53.3957 893.011 56.7154 791.015 54.0445" stroke="black" stroke-miterlimit="10"/>
<path d="M1930.65 35.8726C1827.55 35.1737 1724.46 34.799 1621.36 33.476C1532.02 32.3277 1444.63 6.49178 1355.24 7.71494C1263.58 8.96306 1180.58 56.9408 1089.11 59.2624C986.495 61.8584 882.427 58.4384 779.831 55.3431" stroke="black" stroke-miterlimit="10"/>
<path d="M1942.28 40.0162C1834.24 38.0691 1726.13 38.244 1618.09 35.8227C1529.85 33.8507 1443.58 5.9925 1355.24 7.61505C1260.81 9.33746 1178.21 67.7245 1083.72 69.422C978.956 71.2942 873.066 59.0876 768.224 56.3667" stroke="black" stroke-miterlimit="10"/>
<path d="M1954.36 44.735C1845.68 41.3402 1736.71 39.9924 1627.98 38.6694C1536.27 37.546 1446.9 5.99362 1355.24 8.14039C1256.34 10.4619 1173.54 81.2801 1073.76 79.7574C967.623 78.1348 862.556 59.8373 756.116 58.1149" stroke="black" stroke-miterlimit="10"/>
<path d="M1966.99 50.5012C1856.21 45.6086 1744.78 44.0609 1633.89 42.663C1540.09 41.4897 1448.9 7.76557 1355.26 10.2368C1253.29 12.9078 1171.59 93.1618 1068.02 89.3925C1016.37 87.5203 965.202 77.6354 914.154 70.4961C857.164 62.5331 800.974 61.7593 743.536 61.4347" stroke="black" stroke-miterlimit="10"/>
<path d="M1980.15 57.7644C1865.72 51.6486 1750.2 50.0511 1635.59 48.803C1541.14 47.7795 1449.5 13.007 1355.27 15.4782C1252.02 18.1742 1171.44 101.973 1066.23 97.5296C1010.98 95.2081 956.84 83.0015 902.297 75.0385C844.984 66.6761 788.169 67.3002 730.381 67.2752" stroke="black" stroke-miterlimit="10"/>
<path d="M1993.88 66.9505C1876.98 60.8098 1759.08 59.0875 1642.01 58.064C1545.05 57.2153 1451.8 18.7729 1355.27 21.5687C1249.97 24.5892 1167.72 107.439 1059.91 101.773C1005.39 98.9272 951.424 89.6163 897.255 83.4256C837.071 76.561 777.111 77.5596 716.652 76.6609" stroke="black" stroke-miterlimit="10"/>
<path d="M2008.21 77.2106C1890.01 72.0933 1771.21 70.9451 1652.89 69.8468C1600.47 69.3475 1552.14 62.8074 1501.12 50.5259C1453.42 39.0432 1404.71 25.3387 1355.21 26.3372C1300.4 27.4355 1250.67 52.398 1201.1 73.2166C1150.17 94.5845 1104.04 105.268 1048.85 103.172C933.35 98.8031 817.699 93.0617 702.248 87.8196" stroke="black" stroke-miterlimit="10"/>
<path d="M2023.23 87.8934C1902.22 84.3987 1780.95 83.7498 1659.86 83.0259C1604.04 82.7014 1554.09 74.7632 1500.47 59.4363C1453.27 45.9316 1404.91 29.9556 1355.26 30.355C1301.12 30.7794 1251.17 54.6934 1201.87 74.4137C1147.83 96.0311 1099.9 103.695 1041.96 104.194C923.515 105.217 805.467 109.261 687.295 99.3261" stroke="black" stroke-miterlimit="10"/>
<path d="M2038.93 98.4283C1915.02 96.8057 1791.06 96.656 1667.14 96.3565C1610.83 96.2317 1561.78 88.8928 1508.11 71.4191C1458.56 55.2934 1408.13 35.0738 1355.24 34.9241C1301.62 34.7743 1251.55 57.6648 1202.37 76.3616C1145.78 97.8792 1094.48 102.847 1034.7 106.491C977.208 110.011 919.995 116.776 862.506 120.17C798.103 123.965 735.448 117.674 671.544 109.886" stroke="black" stroke-miterlimit="10"/>
<path d="M2055.41 108.313C1927.05 108.113 1798.7 108.163 1670.34 108.163C1612.9 108.163 1564.17 101.149 1509.76 81.7783C1459.98 64.055 1409.03 41.4888 1355.24 41.339C1298.38 41.1893 1244.98 66.3764 1192.48 85.0982C1138.27 104.444 1087.89 106.391 1031.4 111.583C973.34 116.925 916.026 128.558 857.889 133.3C789.517 138.867 722.568 128.258 655.094 118.398" stroke="black" stroke-miterlimit="10"/>
<path d="M2072.71 117.3C1941.13 114.904 1809.93 116.876 1678.38 117.824C1621.16 118.249 1571.81 113.755 1517.82 93.3362C1465.3 73.4661 1412.65 47.5303 1355.27 47.5303C1297.9 47.5303 1245.26 73.4661 1192.71 93.3362C1135.87 114.829 1082.83 115.154 1023.44 121.344C962.382 127.71 902.098 140.84 840.715 144.06C772.892 147.63 704.945 135.772 637.821 127.709" stroke="black" stroke-miterlimit="10"/>
<path d="M2090.86 125.588C2019.91 121.369 1949.19 115.004 1878.05 115.902C1814.15 116.701 1750.54 123.416 1686.74 126.362C1625.41 129.182 1574.63 123.94 1517.79 99.0777C1466.22 76.5117 1413.23 45.5334 1355.26 45.7581C1294.01 45.9827 1239.29 79.5572 1184.47 102.597C1127.86 126.387 1074.79 125.588 1015.03 132.078C950.998 139.042 887.494 152.622 822.891 153.72C755.168 154.869 687.221 147.904 619.647 144.085" stroke="black" stroke-miterlimit="10"/>
<path d="M2109.95 135.172C2035.91 127.758 1961.6 112.481 1886.94 113.929C1822.71 115.177 1759.36 127.509 1695.58 133.899C1629.18 140.539 1577.95 134.598 1517.99 103.92C1467.89 78.2831 1413.8 40.2901 1355.24 40.6396C1293.16 41.014 1237.82 81.6279 1184.25 108.038C1124.86 137.319 1070.32 135.971 1006.19 143.185C942.012 150.424 878.682 161.782 813.955 162.98C742.837 164.278 671.669 164.803 600.526 165.726" stroke="black" stroke-miterlimit="10"/>
<path d="M2130.07 147.155C2056.06 138.942 1983.17 117.924 1908.56 115.228C1841.31 112.807 1775.18 130.705 1709.26 141.114C1640.04 152.048 1586.74 149.202 1524.66 114.354C1472.86 85.2732 1417.55 39.7168 1355.24 39.7168C1289.81 39.7168 1232.52 89.3422 1177.63 118.798C1119.5 150.026 1064.88 147.355 1001.22 154.494C861.309 170.22 721.12 180.255 580.407 187.619" stroke="black" stroke-miterlimit="10"/>
<path d="M2151.32 160.261C2073.13 154.694 1997.25 132.203 1919.04 127.56C1851.42 123.541 1785.32 140.191 1719.09 151.099C1650.67 162.382 1596.6 163.031 1533.57 131.529C1478.58 104.045 1419.49 56.7414 1355.26 56.5417C1287.67 56.3171 1226.63 108.738 1168.75 137.245C1109.28 166.526 1047.2 162.907 982.725 169.372C842.486 183.451 700.076 195.033 559.213 200.026" stroke="black" stroke-miterlimit="10"/>
<path d="M2173.73 172.966C2092.78 171.992 2013.42 156.316 1932.77 151.498C1865.92 147.504 1800.02 157.115 1733.79 164.928C1664.22 173.116 1600.59 175.412 1532.52 156.615C1475.06 140.764 1415.87 114.454 1355.26 115.053C1290.29 115.677 1230.15 149.002 1169.82 168.872C1106.49 189.74 1042.54 186.371 976.71 186.795C829.956 187.768 683.352 198.977 536.772 199.201" stroke="black" stroke-miterlimit="10"/>
<path d="M2197.45 185.946C2043.18 185.946 1890.38 176.285 1736.04 183.325C1609.26 189.091 1482.12 187.992 1355.24 190.114C1289.24 191.213 1225.73 203.02 1160.31 210.209C1095.08 217.373 1030.65 211.832 965.701 204.343C814.354 186.919 665.004 195.581 513.033 194.733" stroke="black" stroke-miterlimit="10"/>
<path d="M2222.58 199.676C2065.75 199.676 1908.91 199.776 1752.04 199.676C1684.67 199.626 1616.47 196.031 1549.7 206.515C1484.75 216.725 1421.34 234.074 1355.24 235.122C1220.37 237.269 1082.48 243.46 949.726 217.474C798.529 187.894 641.341 199.676 487.897 199.676" stroke="black" stroke-miterlimit="10"/>
<path d="M2249.27 214.254C2089.26 214.254 1928.58 218.522 1768.74 210.384C1695.83 206.665 1621.79 200.025 1549.6 214.029C1484.5 226.66 1422.14 248.252 1355.27 249.725C1217.45 252.746 1077.38 256.914 941.788 230.479C785.448 200 619.948 214.254 461.262 214.254" stroke="black" stroke-miterlimit="10"/>
<path d="M2277.65 229.755C2111.97 229.755 1942.1 240.739 1777.5 219.72C1704.49 210.409 1630.75 197.304 1558.08 215.027C1490.14 231.602 1426.18 262.88 1355.26 265.102C1214.3 269.52 1071.64 270.968 933.025 244.258C853.919 229.006 776.361 229.73 696.132 229.73H432.878" stroke="black" stroke-miterlimit="10"/>
<path d="M2307.88 246.581C2213.3 247.479 2118.72 247.23 2024.13 246.781C1944.48 246.406 1866.05 248.253 1787.14 235.498C1714.32 223.74 1640.24 206.341 1567.02 224.14C1495.68 241.488 1429.75 277.959 1355.24 281.303C1211.01 287.794 1065.28 284.823 923.391 258.887C841.389 243.885 759.787 246.706 676.787 245.882C585.4 244.983 493.987 245.033 402.6 245.957" stroke="black" stroke-miterlimit="10"/>
<path d="M2340.16 271.192C2244.4 283.998 2154.11 290.863 2057.53 284.347C1973.08 278.631 1888.29 278.731 1804.01 271.517C1728 265.001 1652.44 255.366 1576.06 261.607C1502.24 267.648 1429.43 282.251 1355.24 283.474C1205.64 285.97 1057.31 283.873 908.437 269.42C823.091 261.132 738.793 259.011 653.646 246.704C556.392 232.65 466.927 242.111 370.323 256.065" stroke="black" stroke-miterlimit="10"/>
<path d="M2374.7 290.488C2319.64 303.244 2266.04 323.438 2210.15 332.425C2165.39 339.639 2120.39 335.046 2075.75 329.105C1991.93 317.947 1911.28 310.184 1826.68 309.684C1748.82 309.21 1669.92 312.156 1592.26 306.739C1513.08 301.222 1434.72 285.745 1355.26 284.048C1199.67 280.753 1043.71 283.798 888.068 282.75C846.855 282.475 805.492 285.071 764.804 277.258C720.87 268.846 678.908 252.845 635.923 240.763C586.872 226.959 540.691 221.218 490.367 231.228C437.896 241.662 387.672 261.482 335.8 274.462" stroke="black" stroke-miterlimit="10"/>
<path d="M2411.77 304.293C2308.7 315.277 2213.4 345.806 2108.73 341.038C2018.87 336.944 1929.63 329.83 1839.56 331.203C1760.98 332.401 1681.5 338.467 1602.99 333.874C1519.67 329.006 1438.99 304.194 1355.24 303.02C1273.89 301.872 1193.03 313.655 1111.76 315.177C1032.63 316.675 954.22 308.088 875.313 304.318C827.186 302.022 780.431 302.621 732.878 293.36C689.194 284.848 646.283 272.641 602.3 265.602C497.932 248.902 401.253 289.865 298.732 301.648" stroke="black" stroke-miterlimit="10"/>
<path d="M2451.64 324.812C2344.35 324.238 2234.47 322.665 2127.45 330.329C2037.21 336.794 1948.55 350.024 1857.96 353.544C1773.73 356.814 1688.04 370.693 1603.79 364.327C1520.04 357.987 1439.71 324.513 1355.24 324.812C1272.21 325.112 1193.31 357.638 1110.96 364.103C1024.36 370.918 941.863 338.242 856.916 327.882C768.024 317.074 672.918 321.092 583.303 320.568C475.116 319.944 367.053 325.411 258.866 324.787" stroke="black" stroke-miterlimit="10"/>
<path d="M2494.62 348.277C2386.44 348.277 2278.2 347.503 2170.01 348.277C2073.28 348.976 1977.65 366.025 1880.87 367.473C1790.78 368.821 1700.27 380.104 1610.18 376.26C1524.68 372.64 1441.04 348.352 1355.29 348.427C1270.39 348.502 1187.97 374.088 1103.32 377.558C1012.06 381.327 923.44 353.095 832.702 348.826C628.06 339.191 420.797 348.277 215.931 348.277" stroke="black" stroke-miterlimit="10"/>
<path d="M2541.1 373.688C2349.27 373.688 2157.43 373.688 1965.6 373.988C1366.87 374.837 768.124 373.688 169.4 373.688" stroke="black" stroke-miterlimit="10"/>
<path d="M2591.55 401.249H1997.57C1702.42 401.249 1407.26 401.423 1112.08 401.249C1036.1 401.199 962.307 389.366 886.945 381.653C806.716 373.44 729.682 383.051 650.077 392.936C475.815 414.603 294.288 401.249 118.927 401.249" stroke="black" stroke-miterlimit="10"/>
<path d="M2646.49 435.571C2438.88 431.028 2230.65 421.667 2023.01 428.906C1865.97 434.398 1706.59 435.97 1549.55 430.204C1473.94 427.433 1398.67 422.815 1322.99 423.639C1247.15 424.463 1171.47 432.226 1095.61 431.402C1016.28 430.529 940.19 409.161 861.708 400.923C777.934 392.111 697.955 413.454 615.604 425.112C528.36 437.443 439.319 429.33 351.601 427.184C255.821 424.862 159.84 426.46 64.0098 426.46" stroke="black" stroke-miterlimit="10"/>
</svg>
