<svg width="241" height="47" viewBox="0 0 241 47" fill="none" xmlns="http://www.w3.org/2000/svg">
<path d="M63.518 31.396V17.5075C63.518 16.977 63.8348 16.6602 64.3653 16.6602H67.8503C68.3808 16.6602 68.6976 16.977 68.6976 17.5075V30.836C68.6976 33.7906 70.5249 34.7779 72.4626 34.7779C74.4004 34.7779 76.2276 33.7906 76.2276 30.836V17.5075C76.2276 16.977 76.5445 16.6602 77.075 16.6602H80.5895C81.1199 16.6602 81.4368 16.977 81.4368 17.5075V31.4034C81.4368 35.8683 78.2686 39.8102 72.47 39.8102C66.6714 39.8102 63.5327 35.8683 63.5327 31.4034L63.518 31.396Z" fill="#231F20"/>
<path d="M85.1133 38.6829V17.5075C85.1133 16.977 85.4302 16.6602 85.9607 16.6602H89.4457C89.9025 16.6602 90.2193 16.837 90.4625 17.2201L98.8324 30.3719V17.5075C98.8324 16.977 99.1492 16.6602 99.6797 16.6602H103.165C103.695 16.6602 104.012 16.977 104.012 17.5075V38.6829C104.012 39.2134 103.695 39.5302 103.165 39.5302H99.6503C99.1935 39.5302 98.8766 39.3534 98.6335 38.9702L90.3004 25.848V38.6829C90.3004 39.2134 89.9835 39.5302 89.4531 39.5302H85.968C85.4375 39.5302 85.1207 39.2134 85.1207 38.6829H85.1133Z" fill="#231F20"/>
<path d="M107.726 38.6829V17.5075C107.726 16.977 108.042 16.6602 108.573 16.6602H112.058C112.588 16.6602 112.905 16.977 112.905 17.5075V38.6829C112.905 39.2134 112.588 39.5302 112.058 39.5302H108.573C108.042 39.5302 107.726 39.2134 107.726 38.6829Z" fill="#231F20"/>
<path d="M116.199 34.9528C115.955 34.5328 116.095 34.1055 116.515 33.8255L119.367 31.7846C119.787 31.4678 120.177 31.5415 120.531 31.9614C121.585 33.1256 123.905 34.776 126.477 34.776C128.835 34.776 129.328 33.8992 129.328 32.8751C129.328 31.3646 126.02 30.7678 124.406 30.1637C122.756 29.5669 116.847 28.3733 116.847 23.2378C116.847 18.1024 121.312 16.2383 125.887 16.2383C129.896 16.2383 133.344 18.3823 134.611 20.5633C134.891 21.0201 134.714 21.4106 134.294 21.6905L131.553 23.5178C131.097 23.8346 130.743 23.7315 130.389 23.3778C129.402 22.4642 127.472 21.4106 125.254 21.4106C123.603 21.4106 122.793 22.0074 122.793 22.9947C122.793 24.5788 125.887 25.1387 127.575 25.7355C129.196 26.3323 135.134 27.8133 135.134 32.6319C135.134 37.4505 131.369 39.9483 125.88 39.9483C120.921 39.9483 117.576 37.4874 116.206 34.9528H116.199Z" fill="#231F20"/>
<path d="M138.111 38.6829V17.5075C138.111 16.977 138.428 16.6602 138.958 16.6602H152.957C153.488 16.6602 153.805 16.977 153.805 17.5075V20.5357C153.805 21.0662 153.488 21.383 152.957 21.383H143.283V25.7448H152.22C152.751 25.7448 153.068 26.0616 153.068 26.5921V29.6203C153.068 30.1508 152.751 30.4676 152.22 30.4676H143.283V34.8295H152.957C153.488 34.8295 153.805 35.1463 153.805 35.6768V38.705C153.805 39.2355 153.488 39.5523 152.957 39.5523H138.958C138.428 39.5523 138.111 39.2355 138.111 38.705V38.6829Z" fill="#231F20"/>
<path d="M157.349 38.6829V17.5075C157.349 16.977 157.665 16.6602 158.196 16.6602H161.681C162.138 16.6602 162.454 16.837 162.698 17.2201L171.068 30.3719V17.5075C171.068 16.977 171.384 16.6602 171.915 16.6602H175.4C175.93 16.6602 176.247 16.977 176.247 17.5075V38.6829C176.247 39.2134 175.93 39.5302 175.4 39.5302H171.885C171.429 39.5302 171.112 39.3534 170.869 38.9702L162.536 25.848V38.6829C162.536 39.2134 162.219 39.5302 161.688 39.5302H158.203C157.673 39.5302 157.356 39.2134 157.356 38.6829H157.349Z" fill="#231F20"/>
<path d="M179.968 38.6829V17.5075C179.968 16.977 180.285 16.6602 180.815 16.6602H188.662C195.345 16.6602 199.883 21.3019 199.883 28.0952C199.883 34.8884 195.345 39.5302 188.662 39.5302H180.815C180.285 39.5302 179.968 39.2134 179.968 38.6829ZM188.655 34.4979C190.239 34.4979 194.741 33.6874 194.704 28.0952C194.667 22.5398 190.239 21.6925 188.655 21.6925H185.14V34.4979H188.655Z" fill="#231F20"/>
<path d="M203.074 38.6829V17.5075C203.074 16.977 203.391 16.6602 203.921 16.6602H217.92C218.451 16.6602 218.767 16.977 218.767 17.5075V20.5357C218.767 21.0662 218.451 21.383 217.92 21.383H208.246V25.7448H217.183C217.714 25.7448 218.031 26.0616 218.031 26.5921V29.6203C218.031 30.1508 217.714 30.4676 217.183 30.4676H208.246V34.8295H217.92C218.451 34.8295 218.767 35.1463 218.767 35.6768V38.705C218.767 39.2355 218.451 39.5523 217.92 39.5523H203.921C203.391 39.5523 203.074 39.2355 203.074 38.705V38.6829Z" fill="#231F20"/>
<path d="M222.311 38.6829V17.5075C222.311 16.977 222.628 16.6602 223.159 16.6602H233.393C236.767 16.6602 240.496 19.1947 240.496 24.3596C240.496 28.1247 238.491 30.5119 236.097 31.4992L240.356 38.4987C240.709 39.0587 240.459 39.5155 239.796 39.5155H235.677C235.22 39.5155 234.903 39.3755 234.66 38.9555L230.475 32.0591H227.484V38.6682C227.484 39.1986 227.167 39.5155 226.636 39.5155H223.151C222.621 39.5155 222.304 39.1986 222.304 38.6682L222.311 38.6829ZM232.509 27.0784C233.982 27.0784 235.323 26.1279 235.323 24.367C235.323 22.6061 233.99 21.6925 232.509 21.6925H227.476V27.071H232.509V27.0784Z" fill="#231F20"/>
<path d="M45.4518 17.271C45.1424 15.2375 43.9709 9.40206 39.3143 6.94117C36.183 5.29813 31.0254 3.51509 24.1659 5.09182C19.4062 6.18228 17.9253 7.74428 16.5032 9.54942C14.897 11.5977 14.956 14.4417 14.6318 17.9268C14.5802 18.4867 14.1087 18.9214 13.5413 18.9067C10.6457 18.833 7.51438 18.5751 4.5009 18.3025C3.88936 18.2509 3.35887 18.7225 3.33676 19.334C2.95363 28.7208 5.00928 33.7678 10.2405 36.796C12.8119 38.2843 15.6191 39.1537 20.2609 38.1443C20.3419 38.3138 20.4377 38.4833 20.5114 38.6527C23.267 45.1218 22.6628 47.0006 29.1982 46.0575C30.3476 45.8954 31.4601 45.5859 32.5138 45.1512C37.8113 42.9851 43.8677 37.6802 43.9267 31.9627C43.993 25.2284 46.2034 22.3549 45.4297 17.271H45.4518Z" fill="#FCB43D"/>
<path d="M34.7978 9.62204C46.1076 25.1978 23.2228 27.7398 21.8745 18.5299C20.6293 10.042 31.9759 5.72441 34.7978 9.62204Z" fill="white"/>
<path d="M35.1957 13.7214C34.3263 11.6363 31.9317 9.82375 29.5372 10.229C28.9625 10.3248 29.0435 11.2163 29.6256 11.1205C31.6223 10.7816 33.619 12.3067 34.341 14.0529C34.5768 14.5834 35.4241 14.2592 35.1957 13.7214Z" fill="#131313"/>
<path d="M23.5102 33.8834C23.1934 33.9276 22.9429 33.9571 22.7808 33.9718C22.1545 34.0381 21.5946 33.5739 21.5356 32.9477C21.4767 32.3214 21.9335 31.7688 22.5598 31.7025C23.1713 31.6362 28.5573 31.0173 30.2003 27.8638C30.495 27.3038 31.1802 27.0902 31.7402 27.3775C32.3002 27.6722 32.5138 28.3575 32.2265 28.9174C30.3624 32.4909 25.5585 33.5739 23.5176 33.876L23.5102 33.8834Z" fill="#131313"/>
<path d="M12.4214 25.9288C13.0403 25.7446 13.4161 25.1478 13.254 24.5878C13.0919 24.0352 12.4582 23.7331 11.8393 23.9173C11.2204 24.1015 10.8446 24.6983 11.0067 25.2583C11.1688 25.8109 11.8025 26.113 12.4214 25.9288Z" fill="#131313"/>
<path d="M12.333 28.2249C12.7677 28.0997 13.0256 27.6797 12.9151 27.2966C12.8046 26.9135 12.3625 26.6998 11.9278 26.8324C11.4931 26.9577 11.2352 27.3776 11.3457 27.7608C11.4562 28.1439 11.8983 28.3576 12.333 28.2249Z" fill="#131313"/>
<path d="M15.0592 27.2249C15.4939 27.0997 15.7518 26.6797 15.6412 26.2966C15.5307 25.9135 15.0886 25.6998 14.6539 25.8324C14.2192 25.9577 13.9613 26.3776 14.0719 26.7608C14.1824 27.1439 14.6245 27.3576 15.0592 27.2249Z" fill="#131313"/>
<path d="M32.0422 18.214C32.3443 16.2909 31.5854 14.5742 30.3402 14.3679C29.0951 14.1616 27.8351 15.5542 27.5331 17.4772C27.231 19.4002 27.9899 21.1169 29.2351 21.3232C30.4802 21.5295 31.7402 20.137 32.0422 18.214Z" fill="#131313"/>
<path d="M20.7178 17.8819C21.0935 16.5115 20.6515 15.1926 19.7378 14.9347C18.8242 14.6769 17.778 15.5757 17.4022 16.9462C17.0264 18.3166 17.4685 19.6355 18.3821 19.8934C19.2958 20.1512 20.342 19.2523 20.7178 17.8819Z" fill="#131313"/>
<path d="M30.2002 17.8472C30.2002 18.5324 30.7675 19.085 31.4675 19.085C31.6148 19.085 31.7548 19.0555 31.8875 19.0113C31.9685 18.7608 32.0348 18.4956 32.0864 18.2156C32.1674 17.7219 32.1748 17.2356 32.1159 16.7862C31.9243 16.6757 31.7033 16.6094 31.4675 16.6094C30.7675 16.6094 30.2002 17.162 30.2002 17.8472Z" fill="white"/>
<path d="M20.0619 16.6094C19.5093 16.6094 19.0599 17.0588 19.0599 17.6114C19.0599 18.164 19.5093 18.6135 20.0619 18.6135C20.2093 18.6135 20.3493 18.5766 20.4745 18.525C20.5703 18.3261 20.6587 18.1124 20.7177 17.8767C20.7987 17.5746 20.8429 17.2725 20.8503 16.9925C20.6661 16.7567 20.3861 16.6094 20.0619 16.6094Z" fill="white"/>
<path d="M51.1251 5.52594C47.8022 0.596802 40.2353 2.72613 32.6022 0C32.0643 1.49569 32.0791 2.78508 32.4696 3.95658C31.5559 3.83869 30.5907 3.76501 29.574 3.76501C28.7193 3.76501 27.8204 3.81659 26.892 3.91974C26.8847 3.85343 26.8699 3.77975 26.8552 3.71343C25.8753 -0.206302 13.5266 3.64712 10.1374 1.54726C10.4468 5.68804 12.8782 8.00157 15.2139 10.9414C14.5802 12.8055 14.5434 15.0748 14.2929 17.6978C14.2413 18.2651 13.7624 18.6924 13.1951 18.6851H13.1656C11.9573 18.6556 10.6973 18.5893 9.43742 18.5082C8.31013 15.8926 -0.995564 14.279 0.087521 20.2986C0.603276 23.15 1.67163 25.3383 2.92417 26.473C3.71991 31.6747 5.90081 34.9755 9.74687 37.2007C11.5152 38.2248 13.7919 38.8511 16.5254 38.8511C17.9105 38.8511 18.5294 38.9321 20.143 38.5858C20.2241 38.7627 20.3272 38.9321 20.4083 39.109C22.8397 44.8044 21.7198 47 26.7226 47C27.5994 47 28.5351 46.9263 29.5445 46.779C30.7307 46.6095 31.8801 46.2927 32.9706 45.8432C38.4523 43.6034 45.9308 38.3574 45.9823 32.441C46.0413 25.8835 46.8517 22.6416 46.2844 17.8967C49.5779 15.5095 51.0809 10.8898 51.6556 8.56153C51.9135 7.51528 51.7219 6.41746 51.1178 5.52594H51.1251ZM43.7056 32.4189C43.6541 37.5617 36.6766 41.8719 32.1085 43.736C31.1728 44.1191 30.2002 44.3844 29.2129 44.5244C28.3067 44.657 27.4667 44.7233 26.7152 44.7233C23.3554 44.7233 24.8953 43.8392 22.5008 38.2174V38.2027L22.486 38.188C22.4271 38.0553 22.3534 37.9153 22.2871 37.7827C22.265 37.7311 22.2355 37.6869 22.2134 37.6427L21.4471 35.9849L19.6641 36.3754C18.2642 36.6775 17.7926 36.5891 16.5254 36.5891C14.3592 36.5891 12.4067 36.1249 10.8889 35.2408C8.3617 33.7746 6.71129 31.7926 5.78293 28.8896C5.54715 28.1455 5.76082 27.2982 6.3871 26.8266C7.33756 26.1119 8.22171 24.6531 8.87746 22.3101C9.12797 21.4333 9.95317 20.8439 10.8594 20.8881C11.6183 20.9249 12.3699 20.9544 13.1066 20.9765H13.1877C14.9413 20.9765 16.3927 19.6503 16.5548 17.8967C16.6064 17.3073 16.658 16.7326 16.6948 16.1726C16.8127 14.699 16.9159 13.4096 17.1737 12.3486C18.0432 11.1771 19.5683 10.4551 20.9609 10.4182C21.5429 10.3888 21.5429 9.48252 20.9609 9.49726C19.9809 9.52673 18.9494 9.83618 18.0579 10.374C19.1631 8.96677 20.2462 7.64054 24.6522 6.63113C26.31 6.248 27.9604 6.05644 29.5666 6.05644C31.0844 6.05644 32.5727 6.23326 34.0242 6.57219C37.0377 10.1014 42.8141 12.9454 44.0667 18.5893C44.5087 22.8553 43.7646 25.9498 43.7056 32.4336V32.4189Z" fill="#131313"/>
<path d="M3.28524 18.8546C3.90414 18.6704 4.27991 18.0736 4.11781 17.5136C3.95572 16.961 3.32208 16.6589 2.70317 16.8431C2.08427 17.0273 1.7085 17.6241 1.8706 18.1841C2.03269 18.7367 2.66633 19.0388 3.28524 18.8546Z" fill="white"/>
</svg>
