<svg width="442" height="413" viewBox="0 0 442 413" fill="none" xmlns="http://www.w3.org/2000/svg">
<g clip-path="url(#clip0_86_9686)">
<path d="M317.025 146.18C308.772 147.303 300.537 149.162 292.487 150.415C280.936 152.201 268.612 151.832 258.885 144.559C252.235 139.588 247.04 133.53 239.358 129.958C212.222 117.308 180.26 134.248 172.559 162.585C161.709 202.431 194.942 236.789 234.66 233.917C253.506 232.554 271.043 223.808 290.239 227.472C313.543 231.91 344.234 231.67 361.79 213.165C382.81 190.996 374.06 154.668 343.663 146.879C334.894 144.633 325.941 144.983 317.025 146.198V146.18Z" fill="black"/>
<path d="M359.009 323.164C359.248 315.522 361.219 308.01 361.496 300.332C361.754 293.501 361.606 286.633 360.943 279.838C359.746 267.336 356.798 254.76 350.314 243.749C347.255 238.557 343.405 233.438 338.579 229.645C333.494 225.649 327.433 224.011 320.912 223.955C305.124 223.827 291.492 232.923 289.189 248.408C287.421 260.266 290.884 273.431 293.5 284.994C296.134 296.649 299.8 308.378 306.524 318.524C308.514 321.525 310.264 324.6 310.927 328.135C311.664 332.094 311.222 336.2 311.296 340.196C311.498 352.109 318.554 362.457 330.381 366.526C341.01 370.19 355.803 368.183 362.38 358.48C370.062 347.156 358.622 334.911 359.009 323.164Z" fill="white"/>
<path d="M340.845 369.914C336.994 369.914 333.2 369.306 329.828 368.146C317.578 363.93 309.822 353.232 309.601 340.233C309.582 338.999 309.601 337.747 309.638 336.55C309.693 333.733 309.748 331.063 309.269 328.467C308.643 325.134 306.911 322.17 305.124 319.481C297.645 308.176 294.108 295.324 291.86 285.381C291.621 284.35 291.381 283.318 291.142 282.269C288.673 271.497 285.873 259.271 287.531 248.168C289.852 232.646 303.116 222.261 320.617 222.261C320.728 222.261 320.838 222.261 320.967 222.261C328.355 222.317 334.636 224.361 339.666 228.301C344.087 231.781 348.177 236.679 351.806 242.884C357.682 252.882 361.238 264.924 362.656 279.673C363.283 286.283 363.485 293.243 363.209 300.406C363.062 304.309 362.491 308.176 361.956 311.914C361.404 315.633 360.851 319.463 360.722 323.219C360.593 327.399 362.067 331.689 363.651 336.219C366.286 343.841 369.03 351.722 363.799 359.437C358.898 366.655 349.743 369.914 340.863 369.914H340.845ZM320.599 225.649C304.866 225.649 292.947 234.856 290.884 248.647C289.318 259.124 292.045 271 294.458 281.496C294.697 282.545 294.937 283.595 295.176 284.626C298.419 298.969 302.361 309.133 307.961 317.585C309.933 320.568 311.867 323.882 312.604 327.822C313.156 330.768 313.083 333.733 313.027 336.605C313.009 337.784 312.972 338.999 312.991 340.159C313.193 351.685 320.065 361.168 330.915 364.906C340.882 368.331 354.845 366.508 360.943 357.504C365.199 351.207 362.859 344.467 360.39 337.323C358.788 332.702 357.13 327.914 357.277 323.09C357.406 319.15 357.977 315.209 358.548 311.398C359.083 307.734 359.635 303.959 359.783 300.258C360.04 293.261 359.856 286.43 359.23 279.986C357.867 265.734 354.459 254.153 348.84 244.596C345.413 238.778 341.6 234.193 337.529 230.971C333.107 227.491 327.526 225.705 320.912 225.649C320.802 225.649 320.709 225.649 320.599 225.649Z" fill="black"/>
<path d="M299.8 186.191L305.695 183.999C306.174 183.815 306.524 183.429 306.653 182.931C307.685 178.954 311.259 168.772 311.738 167.428C311.94 167.317 330.399 171.037 330.399 171.037C330.915 171.147 331.449 170.889 331.689 170.411L334.839 164.334C335.023 163.966 335.576 164.15 335.521 164.555L333.292 178.457L334.544 198.325C334.544 219.794 348.49 223.918 348.49 223.918C348.49 223.918 348.453 226.146 348.49 229.866C348.066 229.866 317.338 227.601 317.338 227.601L317.504 216.627C309.232 217.05 299.892 214.712 302.508 196.115C302.564 195.765 302.508 195.415 302.324 195.121L298.934 189.247C298.124 188.198 298.566 186.651 299.819 186.172L299.8 186.191Z" fill="white"/>
<path d="M343.571 193.077C342.024 197.183 337.436 199.264 333.31 197.717C329.202 196.17 327.12 191.586 328.668 187.461C330.215 183.355 334.821 181.274 338.929 182.821C343.037 184.368 345.118 188.971 343.571 193.077Z" fill="white"/>
<path d="M332.242 190.683C331.855 190.683 331.468 190.555 331.155 190.278C330.436 189.671 330.344 188.603 330.952 187.885C332.131 186.485 333.789 185.62 335.594 185.454C337.418 185.288 339.187 185.859 340.605 187.038C341.324 187.645 341.416 188.713 340.808 189.431C340.2 190.149 339.131 190.242 338.413 189.634C337.713 189.045 336.81 188.768 335.908 188.842C334.986 188.916 334.157 189.358 333.568 190.057C333.236 190.462 332.739 190.665 332.26 190.665L332.242 190.683Z" fill="black"/>
<path d="M440.287 389.229C440.324 386.799 436.952 385.454 435.552 384.994C436.418 385.197 437.965 385.344 438.61 384C440.895 379.268 429.712 377.242 427.004 377.095C419.672 376.727 412.322 376.727 404.99 377.095C402.466 377.224 402.429 377.647 401.471 375.198C401.158 374.388 398.892 364.685 396.737 355.349C394.453 345.48 384.965 339.017 374.944 340.527C363.817 342.203 356.43 352.974 358.898 363.948C360.427 370.779 361.846 377.187 362.214 379.268C363.025 383.724 363.356 388.29 364.369 392.709C365.088 395.839 366.359 399.062 368.993 401.087C372.438 403.738 377.173 403.517 381.17 404.751C385.757 406.169 389.552 409.078 393.992 410.662C396.755 411.656 400.182 411.601 402.245 409.225C405.616 405.34 402.89 401.013 399.242 397.681C404.235 398.509 409.246 399.209 414.256 399.853C417.296 400.24 420.354 400.59 423.394 400.903C426.268 401.197 429.436 401.897 432.31 401.437C435.644 400.921 439.181 397.496 437.118 393.943C437.044 393.795 436.934 393.667 436.842 393.538C438.85 392.967 440.25 391.696 440.287 389.192V389.229Z" fill="white"/>
<path d="M397.363 413C395.982 413 394.6 412.724 393.403 412.3C391.21 411.509 389.202 410.441 387.25 409.41C385.039 408.231 382.939 407.126 380.655 406.408C379.402 406.022 378.057 405.782 376.62 405.524C373.636 404.99 370.541 404.457 367.943 402.45C365.401 400.498 363.688 397.441 362.712 393.096C362.104 390.463 361.735 387.756 361.385 385.141C361.127 383.3 360.869 381.404 360.538 379.581C360.225 377.832 359.101 372.694 357.222 364.317C355.951 358.627 357.111 352.588 360.409 347.782C363.762 342.902 368.828 339.717 374.686 338.833C385.518 337.213 395.945 344.283 398.395 354.963C402.227 371.59 402.927 374.223 403.056 374.591C403.129 374.757 403.295 375.198 403.443 375.493C403.59 375.493 403.756 375.475 403.922 375.456C404.198 375.438 404.53 375.401 404.916 375.383C412.248 375.014 419.709 375.014 427.097 375.383C427.189 375.383 437.413 376.23 440.029 380.612C440.784 381.901 440.839 383.319 440.158 384.718C440.066 384.902 439.974 385.086 439.845 385.234C441.263 386.357 442.018 387.719 442 389.211C441.963 391.512 440.987 393.298 439.181 394.366C439.624 395.766 439.513 397.239 438.868 398.601C437.781 400.866 435.258 402.67 432.586 403.094C430.155 403.481 427.668 403.149 425.273 402.818C424.573 402.726 423.891 402.634 423.228 402.56C419.82 402.21 416.835 401.86 414.054 401.51C410.24 401.032 406.832 400.553 403.664 400.074C406.924 404.917 405.156 408.452 403.535 410.312C401.858 412.227 399.592 412.945 397.382 412.945L397.363 413ZM377.781 342.037C376.915 342.037 376.049 342.092 375.165 342.24C370.246 342.976 366.009 345.646 363.19 349.734C360.39 353.821 359.432 358.756 360.519 363.598C362.398 372.013 363.522 377.187 363.854 378.992C364.204 380.888 364.462 382.821 364.72 384.7C365.07 387.24 365.42 389.874 365.991 392.359C366.801 395.895 368.109 398.325 369.988 399.761C371.923 401.253 374.483 401.695 377.173 402.173C378.647 402.431 380.176 402.707 381.631 403.149C384.228 403.959 386.568 405.193 388.816 406.39C390.75 407.421 392.574 408.378 394.526 409.078C396.571 409.815 399.335 409.944 400.919 408.121C403.019 405.69 402.061 402.615 398.045 398.951C397.492 398.436 397.327 397.625 397.658 396.944C397.99 396.263 398.727 395.876 399.482 396.005C403.958 396.76 408.711 397.441 414.441 398.159C417.185 398.509 420.17 398.859 423.541 399.209C424.241 399.283 424.96 399.375 425.678 399.467C427.833 399.761 430.062 400.056 432.015 399.743C433.581 399.503 435.147 398.417 435.736 397.147C436.123 396.355 436.068 395.582 435.608 394.771C435.092 394.053 435.018 393.482 435.184 392.948C435.368 392.415 435.792 392.028 436.326 391.862C437.873 391.42 438.518 390.647 438.537 389.137C438.537 388.29 437.081 387.241 434.981 386.559C434.115 386.283 433.618 385.362 433.857 384.479C434.097 383.595 435 383.061 435.884 383.282C435.884 383.282 436.879 383.503 437.008 383.208C437.21 382.785 437.173 382.564 437.008 382.324C435.865 380.391 429.694 378.899 426.857 378.752C419.58 378.402 412.23 378.402 405.009 378.752C404.659 378.752 404.364 378.789 404.106 378.807C401.471 379.01 400.79 378.31 399.795 375.751C399.666 375.419 399.353 374.628 394.987 355.662C393.126 347.579 385.813 341.945 377.707 341.945L377.781 342.037Z" fill="black"/>
<path d="M392.924 384.202C392.334 384.202 391.763 383.908 391.45 383.355C390.971 382.545 391.247 381.496 392.058 381.017L401.49 375.475C402.301 374.996 403.351 375.272 403.83 376.082C404.309 376.893 404.032 377.942 403.222 378.421L393.79 383.963C393.513 384.129 393.218 384.202 392.924 384.202Z" fill="black"/>
<path d="M435.552 386.707C435.386 386.707 435.221 386.688 435.055 386.633L408.472 378.587C407.569 378.31 407.053 377.371 407.33 376.469C407.606 375.567 408.546 375.051 409.448 375.327L436.031 383.374C436.934 383.65 437.45 384.589 437.173 385.491C436.952 386.228 436.271 386.707 435.534 386.707H435.552Z" fill="black"/>
<path d="M436.842 395.268C436.694 395.268 436.547 395.25 436.381 395.213L402.945 385.952C402.042 385.694 401.508 384.755 401.766 383.852C402.024 382.95 402.945 382.416 403.866 382.674L437.302 391.936C438.205 392.193 438.739 393.133 438.481 394.035C438.279 394.79 437.579 395.287 436.842 395.287V395.268Z" fill="black"/>
<path d="M129.636 391.052L82.5859 390.555C80.9648 390.555 79.5831 389.358 79.2884 387.774L67.5904 301.676C67.2404 299.669 68.751 298.067 70.7406 297.717C100.529 292.433 102.353 329.553 102.353 329.553L127.665 331.394L129.617 391.07L129.636 391.052Z" fill="#BF96F8"/>
<path d="M101.082 321.286C99.5528 314.749 96.2 305.893 89.0338 300.921C84.2441 298.288 78.1833 296.852 70.5565 297.717C68.6591 298.141 67.259 299.706 67.609 301.621L71.7908 332.389C82.7703 330.216 92.7182 326.312 101.1 321.267L101.082 321.286Z" fill="white"/>
<path d="M75.1067 364.224L79.2885 387.756C79.5648 389.358 80.9465 390.518 82.586 390.536L101.874 390.739C97.2131 378.2 87.2652 368.644 75.1251 364.206L75.1067 364.224Z" fill="white"/>
<path d="M129.636 392.746L82.5676 392.249C80.1175 392.23 78.0358 390.463 77.6121 388.051C77.6121 387.977 65.9141 301.897 65.9141 301.897C65.4351 299.08 67.3879 296.539 70.4643 295.986C78.7174 294.513 85.7178 296.023 91.2813 300.461C101.211 308.378 103.477 323.127 103.956 327.914L127.812 329.645C128.678 329.7 129.36 330.418 129.396 331.284L131.349 390.96C131.349 391.42 131.183 391.88 130.87 392.212C130.557 392.543 130.115 392.727 129.654 392.727L129.636 392.746ZM80.9649 387.48C81.1123 388.253 81.7939 388.824 82.5861 388.824L127.867 389.303L126.007 332.941L102.224 331.21C101.358 331.155 100.695 330.455 100.64 329.59C100.64 329.406 99.608 311.472 89.1259 303.131C84.3546 299.337 78.2753 298.067 71.0354 299.356C70.0038 299.54 69.0643 300.277 69.2669 301.344C69.2669 301.418 80.9649 387.48 80.9649 387.48Z" fill="black"/>
<path d="M103.219 338.336C102.371 338.336 101.635 337.691 101.524 336.826L100.677 329.719C100.566 328.78 101.229 327.933 102.169 327.822C103.108 327.712 103.956 328.374 104.066 329.314L104.914 336.421C105.024 337.36 104.361 338.207 103.421 338.317C103.348 338.317 103.293 338.317 103.219 338.317V338.336Z" fill="black"/>
<path d="M244.221 253.066C235.213 241.374 220.604 235.114 206.014 237.323C205.535 237.397 205.056 237.47 204.595 237.562C182.194 241.742 167.438 263.285 171.638 285.675C171.73 286.191 174.254 298.804 177.588 315.596C177.699 317.327 177.883 319.076 178.215 320.825C178.288 321.267 180.131 330.492 182.747 343.584L294.366 318.211L244.239 253.066H244.221Z" fill="black"/>
<path d="M125.528 322.335L281.783 317.806L292.45 309.17C300.132 302.652 310.08 298.711 320.949 298.711C345.303 298.711 365.033 318.432 365.033 342.773C365.033 358.461 356.006 374.572 344.087 382.987C332.002 391.531 318.425 394.164 303.521 394.072L121.18 392.93L119.67 328.614C119.467 325.226 122.138 322.354 125.528 322.317V322.335Z" fill="black"/>
<path d="M360.353 251.133C360.132 244.688 359.727 238.244 359.064 231.818C358.622 227.491 357.406 226.073 352.948 224.821C346.316 222.961 317.301 224.489 317.301 224.489C317.301 224.489 300.15 242.939 296.3 247.413C290.681 253.95 285.265 261.094 284.657 269.988C284.381 274.186 285.32 278.439 287.752 281.919C289.189 283.963 290.755 285.583 291.179 288.143C291.621 290.812 293.905 318.929 293.905 318.929C293.905 318.929 320.562 318.524 331.818 319.242C338.855 319.684 351.345 322.74 355.435 314.694C357.369 310.901 357.406 305.911 357.94 301.75C358.677 296.005 359.267 290.26 359.69 284.478C360.501 273.376 360.722 262.236 360.335 251.133H360.353Z" fill="white"/>
<path d="M343.479 321.893C340.734 321.893 337.971 321.58 335.521 321.323C334.157 321.175 332.868 321.028 331.744 320.954C320.691 320.255 294.237 320.641 293.961 320.641C293.039 320.641 292.303 319.96 292.229 319.076C291.437 309.373 289.871 290.481 289.521 288.437C289.245 286.799 288.379 285.62 287.273 284.147C286.979 283.742 286.684 283.355 286.389 282.932C283.865 279.341 282.668 274.701 282.981 269.914C283.626 260.321 289.539 252.716 295.029 246.327C298.806 241.926 314.317 223.072 314.464 222.888C315.054 222.151 316.141 222.059 316.859 222.648C317.596 223.237 317.688 224.324 317.099 225.042C316.951 225.226 301.421 244.118 297.608 248.537C292.487 254.502 286.96 261.573 286.389 270.116C286.113 274.149 287.108 277.997 289.189 280.962C289.466 281.348 289.742 281.735 290.018 282.103C291.234 283.742 292.487 285.418 292.892 287.885C293.279 290.242 295.011 311.177 295.49 317.217C301.421 317.143 322.349 316.94 331.947 317.548C333.144 317.622 334.471 317.769 335.889 317.935C342.65 318.69 351.069 319.61 353.943 313.939C355.288 311.269 355.638 307.826 355.969 304.493C356.061 303.517 356.172 302.505 356.282 301.547C357.019 295.876 357.609 290.113 358.014 284.386C358.825 273.394 359.027 262.236 358.659 251.225C358.419 244.394 357.996 238.115 357.388 232.02C356.982 228.043 356.245 226.22 352.801 225.263C351.898 225.005 351.364 224.066 351.622 223.164C351.879 222.262 352.819 221.728 353.722 221.985C359.488 223.606 360.372 227.656 360.796 231.689C361.422 237.857 361.846 244.21 362.085 251.114C362.472 262.254 362.251 273.541 361.44 284.644C361.017 290.426 360.427 296.281 359.69 302.008C359.58 302.928 359.469 303.886 359.377 304.843C359.027 308.323 358.64 312.263 357.001 315.504C354.366 320.697 348.987 321.93 343.497 321.93L343.479 321.893Z" fill="black"/>
<path d="M142.914 182.076C152.104 143.16 127.99 104.167 89.0548 94.9819C50.1196 85.7969 11.1068 109.899 1.91723 148.814C-7.27232 187.73 16.8413 226.723 55.7765 235.908C94.7118 245.093 133.725 220.992 142.914 182.076Z" fill="white"/>
<path d="M66.9272 93.2795C31.3174 95.9494 2.8738 124.36 0.202601 159.952C-0.0184632 162.917 2.33956 165.458 5.32393 165.458H67.2957C70.1327 165.458 72.4354 163.156 72.4354 160.321V98.3983C72.4354 95.4154 69.8932 93.0585 66.9272 93.2795Z" fill="black"/>
<path d="M154.745 85.9512C154.524 85.9512 154.285 85.9144 154.082 85.8223C153.363 85.5093 152.94 84.7544 153.069 83.9811L158.08 53.5446L130.023 42.9757C129.323 42.7179 128.881 42.0182 128.917 41.2633C128.973 40.5083 129.507 39.8823 130.225 39.7166L156.219 33.6035L158.282 1.5836C158.337 0.847091 158.835 0.239467 159.535 0.055339C160.253 -0.128789 160.99 0.147403 161.395 0.755027L178.196 25.907L205.572 17.658C206.253 17.4555 206.972 17.6948 207.414 18.2472C207.856 18.7996 207.893 19.5729 207.524 20.1622L193.929 42.8652L215.501 63.4692C216.054 63.9847 216.183 64.8133 215.833 65.4762C215.483 66.139 214.746 66.5073 214.009 66.3784L175.691 59.2894L156.09 85.2515C155.758 85.6935 155.243 85.9328 154.727 85.9328L154.745 85.9512ZM136.47 41.7604L160.585 50.838C161.34 51.1326 161.801 51.9059 161.672 52.7161L157.545 77.7023L173.609 56.417C173.996 55.9015 174.641 55.6437 175.286 55.7726L209.016 62.0145L190.594 44.4119C190.023 43.8595 189.894 42.9941 190.3 42.3128L202.329 22.206L177.957 29.5343C177.238 29.7553 176.465 29.4791 176.041 28.853L161.34 6.84968L159.516 35.1134C159.461 35.8683 158.927 36.4944 158.208 36.6601L136.434 41.7788L136.47 41.7604Z" fill="#BF96F8"/>
<path d="M391.524 322.759C391.763 315.007 393.679 307.347 393.974 299.54C394.213 292.598 394.066 285.62 393.44 278.697C392.261 265.992 389.368 253.195 383.031 242C380.028 236.715 376.252 231.523 371.517 227.656C366.525 223.587 360.575 221.93 354.201 221.875C338.726 221.746 325.352 230.989 323.086 246.732C321.354 258.774 324.744 272.16 327.304 283.926C329.883 295.784 333.494 307.715 340.071 318.008C342.024 321.046 343.737 324.176 344.382 327.785C345.1 331.818 344.676 335.979 344.75 340.048C344.953 352.164 351.861 362.678 363.467 366.82C373.894 370.54 388.392 368.496 394.84 358.627C402.374 347.1 391.155 334.672 391.542 322.722L391.524 322.759Z" fill="white"/>
<path d="M373.71 370.264C369.933 370.264 366.193 369.638 362.859 368.459C350.829 364.169 343.239 353.306 343.018 340.122C343 338.87 343.018 337.6 343.055 336.366C343.111 333.493 343.166 330.787 342.687 328.135C342.079 324.729 340.366 321.728 338.616 318.984C331.284 307.495 327.82 294.44 325.628 284.35C325.407 283.3 325.167 282.251 324.928 281.183C322.515 270.245 319.751 257.835 321.391 246.548C323.657 230.768 336.7 220.236 353.869 220.236C353.979 220.236 354.09 220.236 354.219 220.236C361.477 220.291 367.667 222.372 372.604 226.404C376.933 229.94 380.949 234.93 384.505 241.227C390.271 251.391 393.734 263.617 395.134 278.605C395.761 285.325 395.945 292.396 395.687 299.669C395.54 303.628 394.987 307.568 394.453 311.361C393.918 315.136 393.366 319.039 393.255 322.869C393.126 327.123 394.582 331.486 396.129 336.108C398.708 343.841 401.379 351.833 396.295 359.64C391.487 366.986 382.497 370.319 373.765 370.319L373.71 370.264ZM353.851 223.606C338.45 223.606 326.77 232.978 324.744 247.008C323.215 257.669 325.886 269.767 328.244 280.428C328.483 281.496 328.723 282.564 328.944 283.613C332.113 298.196 335.981 308.544 341.489 317.143C343.424 320.181 345.321 323.532 346.04 327.528C346.574 330.511 346.519 333.53 346.463 336.44C346.445 337.636 346.408 338.87 346.426 340.067C346.611 351.796 353.353 361.463 364.001 365.256C373.746 368.736 387.415 366.876 393.384 357.743C397.584 351.317 395.282 344.431 392.85 337.158C391.284 332.462 389.645 327.601 389.81 322.722C389.939 318.708 390.51 314.712 391.045 310.846C391.579 307.126 392.113 303.278 392.242 299.503C392.5 292.396 392.316 285.454 391.708 278.881C390.363 264.39 387.029 252.606 381.502 242.865C378.149 236.937 374.41 232.278 370.394 229.019C366.064 225.502 360.611 223.679 354.145 223.624C354.035 223.624 353.943 223.624 353.832 223.624L353.851 223.606Z" fill="black"/>
<path d="M318.48 240.785C311.038 240.785 307.206 234.929 307.151 234.856C306.653 234.064 306.874 233.015 307.667 232.499C308.459 232.002 309.509 232.223 310.025 233.015C310.246 233.346 315.293 240.822 325.536 235.39C326.365 234.948 327.397 235.261 327.839 236.089C328.281 236.918 327.968 237.949 327.139 238.391C323.86 240.14 320.967 240.785 318.499 240.785H318.48Z" fill="black"/>
<path d="M143.6 322.943H235.949L205.682 259.4C205.129 258.24 203.969 257.504 202.679 257.504H117.698C115.267 257.504 113.645 260.045 114.696 262.254L143.6 322.943Z" fill="#BF96F8"/>
<path d="M269.441 314.289H143.802C141.407 314.289 139.473 316.222 139.473 318.616C139.473 321.009 141.407 322.943 143.802 322.943H269.441C271.835 322.943 273.77 321.009 273.77 318.616C273.77 316.222 271.835 314.289 269.441 314.289Z" fill="#BF96F8"/>
<path d="M219.167 316.241H139.473C138.534 316.241 137.76 315.486 137.76 314.528C137.76 313.571 138.515 312.816 139.473 312.816H219.167C220.107 312.816 220.88 313.571 220.88 314.528C220.88 315.486 220.125 316.241 219.167 316.241Z" fill="white"/>
<path d="M163.588 292.249C165.117 295.673 168.377 297.533 170.864 296.428C173.351 295.324 174.107 291.641 172.577 288.216C171.048 284.791 167.788 282.932 165.301 284.037C162.814 285.141 162.059 288.824 163.588 292.249Z" fill="white"/>
<path d="M313.046 126.386C342.093 126.386 365.641 102.85 365.641 73.8172C365.641 44.7843 342.093 21.2485 313.046 21.2485C283.998 21.2485 260.451 44.7843 260.451 73.8172C260.451 102.85 283.998 126.386 313.046 126.386Z" fill="white"/>
<path d="M313.046 126.386C342.093 126.386 365.641 102.85 365.641 73.8172C365.641 44.7843 342.093 21.2485 313.046 21.2485C283.998 21.2485 260.451 44.7843 260.451 73.8172C260.451 102.85 283.998 126.386 313.046 126.386Z" fill="white"/>
<path d="M313.046 128.098C283.11 128.098 258.738 103.756 258.738 73.8172C258.738 43.8779 283.091 19.5361 313.046 19.5361C343 19.5361 367.354 43.8779 367.354 73.8172C367.354 103.756 343 128.098 313.046 128.098ZM313.046 22.9609C284.989 22.9609 262.146 45.7744 262.146 73.8356C262.146 101.897 284.971 124.71 313.046 124.71C341.121 124.71 363.927 101.897 363.927 73.8356C363.927 45.7744 341.102 22.9609 313.046 22.9609Z" fill="black"/>
<path d="M302.103 92.3221C301.679 92.3221 301.237 92.1564 300.906 91.8434L281.102 72.602C280.42 71.9391 280.42 70.8711 281.065 70.1899C281.728 69.5086 282.797 69.5086 283.478 70.153L302.121 88.2529L342.226 50.0646C342.908 49.4202 343.995 49.4386 344.639 50.1199C345.284 50.8011 345.266 51.8875 344.584 52.532L303.282 91.8618C302.95 92.1748 302.527 92.3405 302.103 92.3405V92.3221Z" fill="black"/>
<path d="M324.044 178.825C323.436 178.825 322.865 178.512 322.552 177.942C322.515 177.886 321.428 176.008 319.457 175.474C318.185 175.124 316.749 175.401 315.164 176.321C314.354 176.782 313.304 176.505 312.843 175.695C312.383 174.885 312.659 173.836 313.469 173.375C315.883 171.994 318.204 171.608 320.396 172.215C323.767 173.154 325.462 176.192 325.536 176.321C325.996 177.15 325.683 178.181 324.854 178.641C324.596 178.789 324.32 178.844 324.044 178.844V178.825Z" fill="black"/>
<path d="M313.506 183.245C313.285 184.662 313.912 185.951 314.925 186.117C315.938 186.283 316.933 185.252 317.154 183.834C317.375 182.416 316.749 181.127 315.735 180.961C314.722 180.796 313.727 181.827 313.506 183.245Z" fill="black"/>
<path d="M321.336 186.78C321.151 186.78 320.967 186.743 320.801 186.688C320.341 186.54 319.972 186.209 319.788 185.767C319.254 184.552 318.351 182.987 317.854 182.563C316.767 181.643 316.362 181.808 315.883 182.158C315.349 182.545 314.796 183.502 314.612 183.889C314.225 184.736 313.212 185.123 312.346 184.717C311.498 184.331 311.112 183.318 311.517 182.453C311.609 182.25 312.493 180.39 313.893 179.378C315.256 178.402 317.412 177.702 320.065 179.949C320.82 180.593 321.557 181.735 322.091 182.71L324.449 181.403C325.278 180.943 326.31 181.237 326.77 182.066C327.231 182.895 326.936 183.926 326.107 184.386L322.183 186.559C321.925 186.706 321.649 186.78 321.354 186.78H321.336Z" fill="black"/>
<path d="M303.779 207.568C302.932 207.568 302.066 207.457 301.182 207.2C300.279 206.942 299.745 206.003 300.003 205.101C300.261 204.198 301.2 203.664 302.103 203.922C303.927 204.438 305.787 204.088 307.611 202.891C309.232 201.823 310.375 200.368 310.927 199.411C309.067 199.19 305.18 199.227 301.9 199.429C300.924 199.485 300.15 198.766 300.095 197.827C300.04 196.888 300.758 196.078 301.698 196.023C312.825 195.342 313.783 196.612 314.243 197.238C315.256 198.582 314.317 200.534 313.359 201.952C311.443 204.751 307.943 207.586 303.779 207.586V207.568Z" fill="black"/>
<path d="M315.791 225.649C314.851 225.649 314.077 224.894 314.077 223.937V218.266C314.077 217.806 314.262 217.345 314.612 217.032C314.943 216.701 315.385 216.535 315.883 216.572C320.009 216.793 324.652 216.093 324.707 216.075C325.628 215.927 326.512 216.572 326.66 217.492C326.807 218.432 326.162 219.297 325.241 219.444C325.075 219.463 321.465 220.015 317.596 220.015C317.504 220.015 317.504 223.937 317.504 223.937C317.504 224.876 316.749 225.649 315.791 225.649Z" fill="black"/>
</g>
<defs>
<clipPath id="clip0_86_9686">
<rect width="442" height="413" fill="white"/>
</clipPath>
</defs>
</svg>
