<svg width="110" height="104" viewBox="0 0 110 104" fill="none" xmlns="http://www.w3.org/2000/svg">
<path fill-rule="evenodd" clip-rule="evenodd" d="M107.355 51.9732C107.355 67.8517 104.089 80.3816 98.8044 88.9408C93.5202 97.5044 86.2269 102.093 78.1645 102.093C70.1022 102.093 62.8089 97.5001 57.5247 88.9408C52.2406 80.3773 48.9741 67.8474 48.9741 51.9732C48.9741 36.0991 52.2406 23.5649 57.5247 15.0056C62.8089 6.44206 70.1022 1.85352 78.1645 1.85352C86.2269 1.85352 93.5202 6.44638 98.8044 15.0056C104.089 23.5692 107.355 36.0991 107.355 51.9732Z" fill="white"/>
<path d="M78.1648 103.938C68.884 103.938 61.1284 98.7185 55.6887 89.6106C50.249 80.5026 47.1338 67.5104 47.1338 51.969C47.1338 36.4275 50.2533 23.4353 55.6887 14.3273C61.1284 5.21936 68.884 0 78.1648 0C87.4456 0 95.2055 5.21936 100.641 14.3273C106.081 23.4353 109.196 36.4275 109.196 51.969C109.196 67.5104 106.076 80.5026 100.641 89.6106C95.2012 98.7185 87.4456 103.938 78.1648 103.938ZM78.1648 3.68985C70.1154 3.68985 63.2801 8.6543 58.4539 17.1703C53.632 25.6864 50.8193 37.7583 50.8193 51.969C50.8193 66.1796 53.632 78.2516 58.4539 86.7676C63.2758 95.2836 70.1154 100.248 78.1648 100.248C86.2142 100.248 93.0538 95.2836 97.8757 86.7676C102.698 78.2516 105.51 66.1796 105.51 51.969C105.51 37.7583 102.698 25.6864 97.8757 17.1703C93.0495 8.6543 86.2142 3.68985 78.1648 3.68985Z" fill="black"/>
<path fill-rule="evenodd" clip-rule="evenodd" d="M107.355 51.9728C107.355 62.0097 105.29 69.9338 101.95 75.3476C98.6103 80.7614 93.9959 83.6649 88.9018 83.6649C83.8077 83.6649 79.1933 80.7614 75.8534 75.3476C72.5135 69.9338 70.4482 62.0141 70.4482 51.9728C70.4482 41.9316 72.5135 34.0118 75.8534 28.598C79.1933 23.1842 83.8077 20.2808 88.9018 20.2808C93.9959 20.2808 98.6103 23.1842 101.95 28.598C105.29 34.0118 107.355 41.9316 107.355 51.9728Z" fill="black"/>
<path fill-rule="evenodd" clip-rule="evenodd" d="M58.2983 27.0254V51.9729V76.9204L73.7101 64.4467L89.1263 51.9729L73.7101 39.4991L58.2983 27.0254Z" fill="white"/>
<path fill-rule="evenodd" clip-rule="evenodd" d="M60.5927 51.9732C60.5927 67.8517 57.3263 80.3816 52.0421 88.9408C46.758 97.5044 39.4647 102.093 31.4023 102.093C23.34 102.093 16.0467 97.5001 10.7625 88.9408C5.47833 80.3773 2.21191 67.8474 2.21191 51.9732C2.21191 36.0991 5.47833 23.5649 10.7625 15.0056C16.0467 6.44206 23.34 1.85352 31.4023 1.85352C39.4647 1.85352 46.758 6.44638 52.0421 15.0056C57.3263 23.5692 60.5927 36.0991 60.5927 51.9732Z" fill="white"/>
<path d="M31.4021 103.938C22.1213 103.938 14.3657 98.7185 8.926 89.6106C3.48629 80.5026 0.371094 67.5104 0.371094 51.969C0.371094 36.4275 3.49061 23.4353 8.926 14.3273C14.3657 5.21936 22.1213 0 31.4021 0C40.6829 0 48.4428 5.21936 53.8782 14.3273C59.3179 23.4353 62.4331 36.4275 62.4331 51.969C62.4331 67.5104 59.3136 80.5026 53.8782 89.6106C48.4385 98.7185 40.6829 103.938 31.4021 103.938ZM31.4021 3.68985C23.3527 3.68985 16.5174 8.6543 11.6912 17.1703C6.86938 25.6864 4.05663 37.7583 4.05663 51.969C4.05663 66.1796 6.86938 78.2516 11.6912 86.7676C16.5131 95.2836 23.3527 100.248 31.4021 100.248C39.4515 100.248 46.2911 95.2836 51.113 86.7676C55.9348 78.2516 58.7476 66.1796 58.7476 51.969C58.7476 37.7583 55.9348 25.6864 51.113 17.1703C46.2868 8.6543 39.4515 3.68985 31.4021 3.68985Z" fill="black"/>
<path fill-rule="evenodd" clip-rule="evenodd" d="M60.5927 51.9728C60.5927 62.0097 58.5274 69.9338 55.1875 75.3476C51.8476 80.7614 47.2332 83.6649 42.1391 83.6649C37.0451 83.6649 32.4306 80.7614 29.0907 75.3476C25.7508 69.9338 23.6855 62.0141 23.6855 51.9728C23.6855 41.9316 25.7508 34.0118 29.0907 28.598C32.4306 23.1842 37.0451 20.2808 42.1391 20.2808C47.2332 20.2808 51.8476 23.1842 55.1875 28.598C58.5274 34.0118 60.5927 41.9316 60.5927 51.9728Z" fill="black"/>
<path fill-rule="evenodd" clip-rule="evenodd" d="M11.5356 27.0254V51.9729V76.9204L26.9518 64.4467L42.3636 51.9729L26.9518 39.4991L11.5356 27.0254Z" fill="white"/>
</svg>
