<svg width="33" height="30" viewBox="0 0 33 30" fill="none" xmlns="http://www.w3.org/2000/svg">
<path d="M8.97945 0.788762C10.3316 -0.262921 11.6462 -0.262921 12.9233 0.788762C13.9749 2.14093 13.9749 3.45553 12.9233 4.73257C10.4443 6.98618 8.60385 9.72807 7.40193 12.9582C6.04977 16.0382 5.41124 19.1556 5.48636 22.3107C5.56148 23.2121 6.01221 23.9258 6.83853 24.4516C6.68829 24.3765 6.68829 24.3765 6.83853 24.4516C6.98877 24.4516 6.98877 24.4516 6.83853 24.4516C7.06389 24.4516 7.28925 24.4516 7.51461 24.4516C7.28925 24.5267 7.32681 24.5267 7.62729 24.4516C7.92777 24.3765 8.15313 24.1887 8.30337 23.8882C8.15313 23.8882 8.15313 23.9258 8.30337 24.0009C8.30337 23.7755 8.30337 23.5877 8.30337 23.4375C8.30337 23.738 8.26581 23.7004 8.19069 23.3248C8.26581 23.4751 8.22825 23.3624 8.07801 22.9868C8.15313 23.137 8.07801 23.137 7.85265 22.9868C8.00289 23.0619 8.15313 23.0619 8.30337 22.9868C8.07801 23.0619 7.96533 23.0995 7.96533 23.0995C7.81509 23.2497 7.70241 23.3999 7.62729 23.5502C7.62729 23.0243 7.66485 22.9492 7.73997 23.3248C7.96533 25.1277 7.28925 26.2545 5.71172 26.7052C4.1342 27.156 3.0074 26.5174 2.33132 24.7897C1.80547 21.9351 2.70692 19.8317 5.03564 18.4796C7.43949 17.0523 9.80578 17.3152 12.1345 19.2683C13.712 21.0712 14.2003 23.0619 13.5993 25.2404C13.0735 27.3438 11.6838 28.8086 9.43017 29.6349C7.25169 30.311 5.261 30.0481 3.45812 28.8462C1.73035 27.6442 0.641112 25.954 0.190391 23.7755C-0.335451 19.6439 0.227951 15.6626 1.8806 11.8314C3.383 7.54958 5.74928 3.86869 8.97945 0.788762ZM27.9097 0.788762C29.2619 -0.262921 30.5765 -0.262921 31.8535 0.788762C32.9052 2.14093 32.9052 3.45553 31.8535 4.73257C29.3746 6.98618 27.5341 9.72807 26.3322 12.9582C24.9801 16.0382 24.3415 19.1556 24.4167 22.3107C24.4918 23.2121 24.9425 23.9258 25.7688 24.4516C25.6186 24.3765 25.6186 24.3765 25.7688 24.4516C25.9191 24.4516 25.9191 24.4516 25.7688 24.4516C25.9942 24.4516 26.2195 24.4516 26.4449 24.4516C26.2195 24.5267 26.2571 24.5267 26.5576 24.4516C26.8581 24.3765 27.0834 24.1887 27.2337 23.8882C27.0834 23.8882 27.0834 23.9258 27.2337 24.0009C27.2337 23.7755 27.2337 23.5877 27.2337 23.4375C27.2337 23.738 27.1961 23.7004 27.121 23.3248C27.1961 23.4751 27.1585 23.3624 27.0083 22.9868C27.0834 23.137 27.0083 23.137 26.7829 22.9868C26.9332 23.0619 27.0834 23.0619 27.2337 22.9868C27.0083 23.0619 26.8956 23.0995 26.8956 23.0995C26.7454 23.2497 26.6327 23.3999 26.5576 23.5502C26.5576 23.0243 26.5951 22.9492 26.6703 23.3248C26.8956 25.1277 26.2195 26.2545 24.642 26.7052C23.0645 27.156 21.9377 26.5174 21.2616 24.7897C20.7358 21.9351 21.6372 19.8317 23.9659 18.4796C26.3698 17.0523 28.7361 17.3152 31.0648 19.2683C32.6423 21.0712 33.1306 23.0619 32.5296 25.2404C32.0038 27.3438 30.6141 28.8086 28.3605 29.6349C26.182 30.311 24.1913 30.0481 22.3884 28.8462C20.6606 27.6442 19.5714 25.954 19.1207 23.7755C18.5948 19.6439 19.1582 15.6626 20.8109 11.8314C22.3133 7.54958 24.6796 3.86869 27.9097 0.788762Z" fill="black"/>
</svg>
