<svg width="152" height="151" viewBox="0 0 152 151" fill="none" xmlns="http://www.w3.org/2000/svg">
<g filter="url(#filter0_d_86_9624)">
<path fill-rule="evenodd" clip-rule="evenodd" d="M133.44 88.9463C133.878 86.8522 133.896 84.7392 133.515 82.6995C133.129 80.6581 132.342 78.694 131.172 76.8991C130.07 75.2157 128.689 73.781 127.095 72.6442C125.505 71.509 123.705 70.6637 121.767 70.161C125.417 67.9911 127.911 64.5654 128.985 60.7374C130.059 56.9095 129.715 52.6754 127.691 48.8944C126.68 47.0088 125.337 45.374 123.732 44.0549C122.127 42.7357 120.259 41.7321 118.196 41.1088C116.268 40.5214 114.288 40.3107 112.338 40.4582C110.387 40.6057 108.47 41.1132 106.665 41.9743C108.058 37.9705 107.763 33.7421 106.119 30.1138C104.475 26.4855 101.486 23.4588 97.5027 21.8577C93.5188 20.2565 89.2629 20.3715 85.5694 21.8547C81.8718 23.3363 78.7327 26.1844 76.9677 30.0388C75.4518 26.0687 72.502 23.0155 68.9063 21.2895C65.3122 19.5595 61.0818 19.1558 57.0004 20.4831C54.9654 21.1443 53.12 22.1861 51.542 23.5318C49.9623 24.8816 48.6524 26.5411 47.685 28.4459C46.7768 30.2387 46.2256 32.147 46.0366 34.0884C45.8476 36.0299 46.0208 38.0046 46.5553 39.9326C44.8084 38.9543 42.9296 38.3162 40.9906 38.0378C39.0573 37.7569 37.068 37.8374 35.1075 38.2899C33.0224 38.7719 31.0931 39.6488 29.4021 40.8555C27.711 42.0622 26.2621 43.6003 25.1332 45.4167C24.0002 47.2316 23.2615 49.2096 22.9213 51.2588C22.5827 53.304 22.6522 55.4195 23.1372 57.5055C23.5941 59.4632 24.4028 61.2814 25.5106 62.8921C26.6184 64.5029 28.0197 65.9087 29.6719 67.0408C25.4972 67.8297 21.9784 70.1976 19.6537 73.4245C17.329 76.6514 16.2048 80.7446 16.8119 84.9907C17.2341 87.9221 18.4309 90.5609 20.1679 92.7195C21.9034 94.8821 24.1776 96.5685 26.7513 97.6029C27.9028 98.0657 29.1191 98.3907 30.3719 98.5665C31.6246 98.7424 32.9163 98.7747 34.2283 98.6514C31.5374 101.937 30.3648 106.011 30.6657 109.979C30.9667 113.948 32.7397 117.815 35.9417 120.685C36.6566 121.323 37.4144 121.89 38.2029 122.38C38.9915 122.87 39.8108 123.283 40.6553 123.623C43.5886 124.802 46.7861 125.066 49.8323 124.446C52.8745 123.825 55.7637 122.323 58.0765 119.966C58.1152 123.268 59.1613 126.352 60.9272 128.906C62.6947 131.456 65.1861 133.477 68.1235 134.658C68.9679 134.997 69.8456 135.266 70.754 135.458C71.6624 135.65 72.5998 135.769 73.5593 135.799C77.8522 135.942 81.8085 134.377 84.7722 131.721C87.7358 129.064 89.7101 125.308 90.0398 121.078C90.8846 122.059 91.8257 122.928 92.8517 123.668C93.8761 124.413 94.9854 125.027 96.1612 125.499C96.8076 125.759 97.4719 125.975 98.1564 126.152C98.8369 126.327 99.5352 126.458 100.247 126.543C102.372 126.802 104.488 126.641 106.49 126.084C108.493 125.527 110.381 124.577 112.065 123.26C115.44 120.619 117.457 116.885 118.016 112.948C118.575 109.011 117.67 104.865 115.206 101.409C117.184 101.731 119.167 101.69 121.081 101.294C122.996 100.897 124.833 100.143 126.522 99.0476C128.314 97.8815 129.828 96.4025 131.001 94.6878C132.172 92.9771 133.009 91.0341 133.447 88.9399L133.44 88.9463ZM75.4464 76.713L75.4383 76.7097L75.4415 76.7016L75.4448 76.6936L75.448 76.6855L75.4763 76.6969L75.4731 76.7049L75.4698 76.713L75.4617 76.7098L75.4585 76.7178L75.4464 76.713Z" fill="#FCDC41"/>
<path d="M30.573 100.608C30.4128 100.59 30.2531 100.569 30.0939 100.547C28.6818 100.349 27.3083 99.9822 26.0055 99.4586C23.1135 98.2963 20.5588 96.4021 18.6081 93.9713C16.6532 91.5413 15.3068 88.5705 14.8323 85.2758L14.832 85.2738C14.1489 80.4962 15.4157 75.8858 18.031 72.2555C19.9265 69.6242 22.5313 67.4984 25.6134 66.1907C24.9737 65.5142 24.3888 64.7905 23.8627 64.0255C22.6135 62.2092 21.7032 60.1608 21.1896 57.9601L21.1892 57.9585C20.6459 55.6219 20.5658 53.2414 20.9482 50.9321L20.9483 50.9312C21.3313 48.6244 22.163 46.3982 23.4356 44.3593C24.7032 42.3203 26.3338 40.5879 28.2404 39.2275C30.1449 37.8685 32.3158 36.8825 34.657 36.3413L34.6577 36.3411C36.8569 35.8335 39.0957 35.7417 41.2765 36.0583C42.1973 36.1906 43.1051 36.3948 43.9938 36.6688C43.9391 35.7431 43.9563 34.8161 44.046 33.8947C44.2592 31.7044 44.8809 29.5555 45.9009 27.542L45.9018 27.5403C46.9876 25.4022 48.4614 23.5334 50.2427 22.0113L50.2442 22.01C52.0208 20.495 54.0967 19.3237 56.3819 18.5812L30.573 100.608ZM30.573 100.608C29.0529 103.59 28.4259 106.893 28.6714 110.131C29.0098 114.592 31.005 118.947 34.6071 122.174L34.6096 122.176C35.4095 122.891 36.2596 123.527 37.1472 124.078C38.0352 124.63 38.9584 125.096 39.9094 125.478C43.2135 126.806 46.8096 127.103 50.2312 126.406L50.2327 126.406C52.446 125.954 54.5891 125.086 56.5312 123.811C57.0508 126.075 57.9974 128.185 59.2822 130.043L59.2835 130.045C61.2693 132.91 64.0701 135.184 67.3776 136.514C68.3287 136.896 69.3176 137.198 70.3406 137.414C71.3558 137.629 72.4094 137.764 73.4926 137.798C78.322 137.959 82.7754 136.196 86.1071 133.21C88.5228 131.045 90.3562 128.227 91.3231 125.025C91.4405 125.114 91.559 125.202 91.6786 125.288C91.6797 125.289 91.6807 125.29 91.6817 125.291L92.8517 123.668M30.573 100.608L100.247 126.543M92.8517 123.668C93.8761 124.413 94.9854 125.027 96.1612 125.499C96.8076 125.759 97.4719 125.975 98.1564 126.152C98.8369 126.327 99.5352 126.458 100.247 126.543M92.8517 123.668C92.5015 123.416 92.1612 123.148 91.8313 122.866L92.8517 123.668ZM100.247 126.543L100.005 128.528C100.006 128.528 100.007 128.528 100.008 128.528C100.009 128.528 100.01 128.528 100.01 128.528L100.247 126.543ZM135.734 84.2601C135.684 83.6128 135.6 82.9692 135.481 82.3317L135.48 82.3282C135.045 80.0271 134.158 77.8185 132.847 75.807L132.845 75.8036C131.608 73.9146 130.055 72.2985 128.257 71.0159C127.5 70.4754 126.701 69.9936 125.866 69.5749C128.315 67.2917 130.034 64.4024 130.911 61.2776C132.118 56.9733 131.732 52.2053 129.454 47.9506L129.454 47.9491C128.321 45.8369 126.812 43.9973 125.002 42.5097C123.192 41.0224 121.09 39.8941 118.777 39.195C116.611 38.5352 114.382 38.2979 112.187 38.4639C111.256 38.5343 110.332 38.6776 109.422 38.8928C109.826 35.5702 109.282 32.2496 107.941 29.2884C106.093 25.2109 102.73 21.8032 98.2485 20.002C93.7681 18.2012 88.9781 18.3311 84.8255 19.9982C81.804 21.2089 79.1109 23.2334 77.1023 25.9163C75.2701 23.1006 72.7121 20.8981 69.7729 19.487C65.7353 17.5438 60.9739 17.0879 56.3824 18.581L135.734 84.2601ZM135.734 84.2601L136.636 83.4658L135.405 89.3494C134.913 91.7023 133.971 93.8899 132.651 95.8174M135.734 84.2601L118.722 103.602C119.652 103.557 120.576 103.441 121.486 103.252C123.647 102.805 125.716 101.954 127.61 100.725L127.613 100.724C129.622 99.4166 131.328 97.753 132.651 95.8174M132.651 95.8174L131.001 94.6878L132.652 95.8167C132.652 95.8169 132.652 95.8172 132.651 95.8174Z" stroke="black" stroke-width="4"/>
</g>
<path d="M92.3774 80.3732C92.1555 80.284 91.9612 80.1373 91.8133 79.9454C91.6654 79.7536 91.5637 79.5167 91.5332 79.2543C91.4099 78.2781 91.0375 77.3734 90.4746 76.6275C89.9118 75.8816 89.1602 75.2902 88.2803 74.9366C87.4005 74.5829 86.4488 74.4897 85.5303 74.6403C84.6079 74.7893 83.7146 75.1804 82.95 75.7997C82.6378 76.0518 82.2664 76.1477 81.9119 76.1082C81.5574 76.0687 81.2232 75.8853 80.9894 75.5805C80.759 75.2673 80.6736 74.8848 80.7188 74.5157C80.7681 74.1481 80.952 73.7955 81.2626 73.5477C82.4235 72.6072 83.7794 72.0098 85.1827 71.7844C86.5819 71.5574 88.0284 71.7024 89.3684 72.2409C90.7084 72.7795 91.8531 73.6759 92.7101 74.8097C93.5671 75.9435 94.1324 77.3131 94.3196 78.7955C94.3706 79.1935 94.2592 79.5753 94.0404 79.8747C93.8217 80.1741 93.4954 80.3911 93.1099 80.4519C92.9836 80.4746 92.8576 80.473 92.7351 80.463C92.6142 80.4488 92.4985 80.4219 92.3855 80.3765L92.3774 80.3732Z" fill="black"/>
<path d="M69.1 98.1364C66.2563 97.4419 63.6221 95.921 61.408 93.7614C59.1939 91.6018 57.3858 88.8056 56.1893 85.5646C55.9481 84.917 55.7367 84.2494 55.5531 83.5778C55.3696 82.9062 55.2152 82.2198 55.0888 81.5294C54.9998 81.0553 55.0795 80.5951 55.2811 80.2464C55.4787 79.8914 55.7987 79.6425 56.1875 79.5739C56.5768 79.5 56.9632 79.6326 57.2753 79.905C57.5875 80.1775 57.8259 80.5845 57.9104 81.0576C58.0124 81.6276 58.1387 82.1871 58.2928 82.7425C58.4425 83.2969 58.6201 83.8472 58.8179 84.3806C59.8025 87.0466 61.2889 89.35 63.115 91.126C64.9411 92.9019 67.1057 94.161 69.4516 94.7339C72.2863 95.4263 75.0829 95.0192 77.4904 93.7049C79.8979 92.3906 81.9117 90.1681 83.181 87.2295C83.3611 86.8211 83.661 86.5455 84.0076 86.4394C84.3548 86.328 84.7489 86.3861 85.1181 86.6398C85.4745 86.8849 85.728 87.2793 85.8443 87.711C85.9607 88.1428 85.9443 88.613 85.7681 89.0278C84.2272 92.5922 81.7823 95.2927 78.8627 96.8907C75.9431 98.4887 72.5443 98.9831 69.0995 98.1417L69.1 98.1364Z" fill="black"/>
<path d="M55.6414 82.8997C55.3055 82.8301 54.9932 82.6547 54.742 82.4016C54.4956 82.1495 54.3147 81.8256 54.2409 81.4636C54.1542 81.0185 54.2432 80.6048 54.4627 80.2886C54.6823 79.9723 55.027 79.7574 55.4515 79.7148C55.8708 79.6761 56.2917 79.6177 56.7089 79.5435C57.1315 79.4653 57.5504 79.3713 57.9709 79.2575C58.4881 79.1136 58.9924 78.9468 59.4788 78.7563C59.9656 78.5608 60.4345 78.3415 60.8857 78.0984C61.2487 77.9023 61.6756 77.8904 62.0658 78.0215C62.456 78.1527 62.8136 78.4379 63.048 78.8333C63.282 79.2336 63.3492 79.6746 63.2622 80.0636C63.1802 80.4535 62.9436 80.7964 62.5805 80.9925C62.036 81.2865 61.4744 81.5469 60.8902 81.7825C60.3059 82.0181 59.71 82.2161 59.097 82.3804C58.5948 82.5224 58.0903 82.6338 57.5874 82.7255C57.0845 82.8172 56.5837 82.8841 56.0845 82.9313C56.0094 82.9409 55.9303 82.9396 55.8564 82.9343C55.7826 82.929 55.7043 82.9178 55.6313 82.9027L55.6414 82.8997Z" fill="black"/>
<path d="M87.5345 94.6049C87.4614 94.5897 87.3888 94.5697 87.3117 94.5436C87.2395 94.5186 87.1632 94.4827 87.0918 94.4478C86.6172 94.1986 86.1394 93.9288 85.6685 93.6352C85.1977 93.3417 84.7285 93.0283 84.2666 92.6864C83.7066 92.2739 83.1584 91.8387 82.637 91.3789C82.1107 90.9181 81.6114 90.4327 81.1335 89.9267C80.8148 89.5893 80.6468 89.1676 80.627 88.7516C80.6117 88.3414 80.7442 87.9419 81.0359 87.6507C81.3326 87.3605 81.7243 87.2357 82.1233 87.2632C82.5218 87.2956 82.9275 87.4802 83.2461 87.8175C83.6421 88.2362 84.0589 88.6442 84.4976 89.0265C84.9363 89.4089 85.3908 89.7794 85.8672 90.1244C86.2549 90.4058 86.6487 90.6733 87.0445 90.9161C87.44 91.1639 87.8375 91.387 88.2313 91.5943C88.6349 91.8035 88.9325 92.1566 89.0927 92.5516C89.2529 92.9465 89.2707 93.3873 89.1143 93.7769C88.9837 94.0965 88.7556 94.3355 88.4762 94.4786C88.1968 94.6216 87.8664 94.6637 87.5304 94.594L87.5345 94.6049Z" fill="black"/>
<path fill-rule="evenodd" clip-rule="evenodd" d="M75.1095 68.8547C75.0353 70.2463 74.3181 71.3953 73.2193 72.1205C72.1204 72.8458 70.6342 73.1509 69.0318 72.8659C67.4294 72.5808 66.0033 71.7576 65.0017 70.6587C64.0002 69.5599 63.4181 68.1797 63.4923 66.7881C63.5666 65.3965 64.2836 64.2474 65.3825 63.5222C66.4813 62.797 67.9677 62.4919 69.5701 62.7769C71.1725 63.062 72.5985 63.8851 73.6 64.984C74.6016 66.0829 75.1838 67.4631 75.1095 68.8547Z" fill="black"/>
<path d="M68.9479 74.3686C66.8688 73.9988 65.0238 72.9303 63.7172 71.502C62.4106 70.0737 61.6586 68.2885 61.7551 66.4786C61.8516 64.6687 62.7832 63.1876 64.211 62.2409C65.6385 61.2989 67.562 60.896 69.6464 61.2667C71.7309 61.6374 73.5704 62.7049 74.8767 64.1379C76.1779 65.5653 76.9351 67.3562 76.8388 69.1614C76.7426 70.9666 75.8107 72.4523 74.3829 73.3991C72.9552 74.3458 71.0323 74.7393 68.9479 74.3686ZM69.486 64.2754C68.3653 64.076 67.3207 64.2936 66.5503 64.802C65.7799 65.3104 65.2723 66.1171 65.2202 67.0949C65.168 68.0727 65.5811 69.0384 66.2833 69.8087C66.9856 70.579 67.9876 71.1606 69.1083 71.3599C70.229 71.5592 71.2735 71.3416 72.0439 70.8333C72.8143 70.3249 73.322 69.5182 73.3738 68.5451C73.4257 67.572 73.0128 66.6016 72.3108 65.8266C71.6086 65.0563 70.6067 64.4747 69.486 64.2754Z" fill="black"/>
<defs>
<filter id="filter0_d_86_9624" x="12.6492" y="15.6953" width="135.175" height="132.112" filterUnits="userSpaceOnUse" color-interpolation-filters="sRGB">
<feFlood flood-opacity="0" result="BackgroundImageFix"/>
<feColorMatrix in="SourceAlpha" type="matrix" values="0 0 0 0 0 0 0 0 0 0 0 0 0 0 0 0 0 0 127 0" result="hardAlpha"/>
<feOffset dx="8" dy="8"/>
<feComposite in2="hardAlpha" operator="out"/>
<feColorMatrix type="matrix" values="0 0 0 0 0 0 0 0 0 0 0 0 0 0 0 0 0 0 1 0"/>
<feBlend mode="normal" in2="BackgroundImageFix" result="effect1_dropShadow_86_9624"/>
<feBlend mode="normal" in="SourceGraphic" in2="effect1_dropShadow_86_9624" result="shape"/>
</filter>
</defs>
</svg>
