<svg width="683" height="955" viewBox="0 0 683 955" fill="none" xmlns="http://www.w3.org/2000/svg">
<path d="M3 171.332C115.866 114.898 228.733 58.4332 341.599 2C454.466 58.4332 567.332 114.898 680.198 171.332C567.332 227.765 454.466 284.23 341.599 340.664C228.733 284.23 115.866 227.765 3 171.332Z" stroke="black" stroke-width="2" stroke-miterlimit="10"/>
<path d="M285.201 312.447C398.067 256.014 510.933 199.548 623.8 143.115" stroke="black" stroke-width="2" stroke-miterlimit="10"/>
<path d="M228.764 284.23C341.631 227.797 454.497 171.332 567.364 114.898" stroke="black" stroke-width="2" stroke-miterlimit="10"/>
<path d="M172.334 256.013C285.2 199.58 398.067 143.115 510.933 86.6816" stroke="black" stroke-width="2" stroke-miterlimit="10"/>
<path d="M115.867 227.765C228.734 171.332 341.6 114.867 454.466 58.4336" stroke="black" stroke-width="2" stroke-miterlimit="10"/>
<path d="M59.4336 199.548C172.3 143.115 285.167 86.65 398.033 30.2168" stroke="black" stroke-width="2" stroke-miterlimit="10"/>
<path d="M285.201 30.2168C398.067 86.65 510.933 143.115 623.8 199.548" stroke="black" stroke-width="2" stroke-miterlimit="10"/>
<path d="M228.764 58.4336C341.631 114.867 454.497 171.332 567.364 227.765" stroke="black" stroke-width="2" stroke-miterlimit="10"/>
<path d="M172.334 86.6504C285.2 143.084 398.067 199.549 510.933 255.982" stroke="black" stroke-width="2" stroke-miterlimit="10"/>
<path d="M115.867 114.898C228.734 171.332 341.6 227.797 454.466 284.23" stroke="black" stroke-width="2" stroke-miterlimit="10"/>
<path d="M59.4336 143.115C172.3 199.548 285.167 256.014 398.033 312.447" stroke="black" stroke-width="2" stroke-miterlimit="10"/>
<path d="M341.624 341.271C454.491 284.838 567.357 228.373 680.224 171.939V676.931C644.721 642.866 628.839 559.686 577.551 561.891C563.395 562.498 523.77 588.446 510.924 595.22C408.379 649.353 382.304 784.333 356.42 888.252C355.11 705.786 341.465 523.64 341.624 341.271Z" stroke="black" stroke-width="2" stroke-miterlimit="10"/>
<path d="M355.303 758.577C369.683 675.237 364.154 615.928 438.099 575.185C461.81 562.115 486.703 550.867 510.925 538.756C528.181 530.128 565.186 501.911 583.752 502.327C633.986 503.509 625.549 605.415 680.225 574.546" stroke="black" stroke-width="2" stroke-miterlimit="10"/>
<path d="M353.993 658.108C372.399 572.628 372.782 551.409 444.299 515.651C466.508 504.53 488.717 493.442 510.926 482.322C569.02 453.274 634.721 445.893 680.225 400.835" stroke="black" stroke-width="2" stroke-miterlimit="10"/>
<path d="M347.697 551.762C386.715 478.297 439.026 461.872 510.925 425.89C567.358 397.673 623.792 369.457 680.225 341.208" stroke="black" stroke-width="2" stroke-miterlimit="10"/>
<path d="M345.206 477.466C419.534 385.626 574.933 337.437 680.226 284.774" stroke="black" stroke-width="2" stroke-miterlimit="10"/>
<path d="M341.687 398.247C453.882 340.408 567.291 284.806 680.222 228.34" stroke="black" stroke-width="2" stroke-miterlimit="10"/>
<path d="M623.791 200.156V593.751" stroke="black" stroke-width="2" stroke-miterlimit="10"/>
<path d="M567.357 228.373V566.972" stroke="black" stroke-width="2" stroke-miterlimit="10"/>
<path d="M510.924 256.588V595.188" stroke="black" stroke-width="2" stroke-miterlimit="10"/>
<path d="M454.493 284.806C454.493 400.58 452.863 516.482 455.803 632.193" stroke="black" stroke-width="2" stroke-miterlimit="10"/>
<path d="M398.061 313.022C398.061 450.431 396.942 586.337 408.894 723.393" stroke="black" stroke-width="2" stroke-miterlimit="10"/>
<path d="M3 171.906C115.866 228.339 228.733 284.805 341.599 341.238C341.439 523.575 355.084 705.721 356.395 888.218C357.129 926.693 341.919 948.358 310.858 953.183C289.927 900.425 273.982 846.165 263.021 790.403C244.551 720.453 237.009 636.026 172.3 595.187C157.504 585.856 110.945 555.403 94.0089 556.425C51.2845 558.982 41.666 636.729 3 654.944V171.906V171.906Z" stroke="black" stroke-width="2" stroke-miterlimit="10"/>
<path d="M3 598.543C20.8311 583.971 67.1024 502.964 87.6178 500.152C103.212 498.011 147.566 525.652 160.572 532.906C206.588 558.535 215.631 572.851 239.981 628.389C262.893 680.636 277.401 779.218 333.706 801.683C340.896 787.303 348.086 772.955 355.276 758.575" stroke="black" stroke-width="2" stroke-miterlimit="10"/>
<path d="M3 542.109C20.8311 527.537 67.1024 446.531 87.6178 443.719C103.883 441.482 146.831 469.347 160.572 476.473C254.361 525.013 258.451 625.96 331.118 694.824C338.755 682.585 346.361 670.378 353.998 658.139" stroke="black" stroke-width="2" stroke-miterlimit="10"/>
<path d="M3 413.137C67.9973 443.271 40.3237 392.398 101.454 390.448C120.084 389.841 156.641 417.355 172.3 425.887C223.236 453.624 286.668 575.055 347.703 551.759" stroke="black" stroke-width="2" stroke-miterlimit="10"/>
<path d="M3 284.772C57.2602 317.111 115.834 341.078 172.3 369.454C234.069 400.515 282.514 452.123 345.21 477.464" stroke="black" stroke-width="2" stroke-miterlimit="10"/>
<path d="M3 228.34C115.962 284.837 229.34 340.567 341.695 398.246" stroke="black" stroke-width="2" stroke-miterlimit="10"/>
<path d="M285.201 313.022C285.201 521.978 314.6 727.483 302.68 936.599" stroke="black" stroke-width="2" stroke-miterlimit="10"/>
<path d="M228.764 284.805C228.764 419.369 237.968 554.253 235.028 688.689" stroke="black" stroke-width="2" stroke-miterlimit="10"/>
<path d="M172.334 256.588V595.187" stroke="black" stroke-width="2" stroke-miterlimit="10"/>
<path d="M115.867 228.371V566.97" stroke="black" stroke-width="2" stroke-miterlimit="10"/>
<path d="M59.4336 200.154V586.495" stroke="black" stroke-width="2" stroke-miterlimit="10"/>
</svg>
