<svg width="306" height="390" viewBox="0 0 306 390" fill="none" xmlns="http://www.w3.org/2000/svg">
<g clip-path="url(#clip0_86_8776)">
<path d="M284.317 254.529L277.639 201.351L242.537 201.428L241.134 221.688L241.241 223.749C241.241 223.749 225.749 198.176 218.11 192.038C213.673 188.481 206.369 185.336 198.562 182.526C185.738 177.915 172.167 175.732 158.535 176.053L143.577 176.389C132.934 176.633 122.382 178.404 112.242 181.641C103.276 184.511 94.5082 187.733 89.1408 192.023C81.4862 198.161 66.0094 223.734 66.0094 223.734L63.7221 201.336L27.6602 201.504L22.9181 254.499C22.9181 254.499 20.3564 283.324 47.8793 287.187C75.4022 291.05 99.7383 253.277 99.7383 253.277V313.814H211.934V253.277C211.934 253.277 231.787 291.05 259.31 287.187C286.833 283.324 284.271 254.499 284.271 254.499L284.317 254.529Z" fill="black"/>
<path d="M211.964 315.218H99.7686C99.0214 315.218 98.3962 314.608 98.3962 313.844V257.628C95.7431 261.232 91.1076 267.033 85.0846 272.698C72.3066 284.713 59.3762 290.195 47.7114 288.561C32.8139 286.469 26.5012 277.247 23.8175 269.888C20.9508 262.01 21.5455 254.712 21.576 254.407L26.3182 201.397C26.3792 200.695 26.9739 200.16 27.6753 200.145L63.7372 199.977C64.4386 199.977 65.0333 200.512 65.1095 201.199L66.985 219.596C71.5137 212.344 82.1874 195.855 88.3172 190.954C93.959 186.435 102.955 183.183 111.845 180.328C122.122 177.045 132.796 175.259 143.561 174.999L158.52 174.663C172.396 174.343 186.027 176.556 199.034 181.213C208.701 184.679 215.029 187.778 218.979 190.939C224.941 195.733 235.248 211.535 239.96 219.031L241.195 201.306C241.241 200.588 241.836 200.038 242.552 200.038L277.654 199.962C278.34 199.962 278.919 200.481 279.011 201.153L285.689 254.33C285.72 254.682 286.33 261.98 283.463 269.858C280.779 277.217 274.451 286.439 259.569 288.53C247.859 290.179 235.691 284.668 224.376 272.606C219.421 267.323 215.655 261.919 213.367 258.285V313.814C213.367 314.562 212.757 315.188 211.995 315.188L211.964 315.218ZM101.141 312.485H210.607V253.308C210.607 252.682 211.034 252.132 211.644 251.979C212.254 251.827 212.895 252.117 213.184 252.666C213.383 253.033 232.9 289.538 259.158 285.858C269.999 284.332 277.303 278.683 280.84 269.033C283.463 261.919 282.99 255.094 282.96 254.666L276.434 202.725L243.818 202.787L242.507 221.703L242.613 223.673C242.644 224.299 242.247 224.864 241.653 225.047C241.058 225.23 240.402 224.986 240.082 224.451C239.93 224.192 224.636 199.015 217.256 193.091C213.566 190.114 207.482 187.168 198.104 183.809C185.417 179.259 172.106 177.106 158.565 177.411L143.607 177.747C133.101 177.992 122.687 179.732 112.653 182.938C104.435 185.564 95.3009 188.832 89.9945 193.091C82.6144 199.015 67.3357 224.192 67.1833 224.451C66.8783 224.955 66.2836 225.2 65.7194 225.077C65.14 224.955 64.7131 224.467 64.6673 223.887L62.5021 202.725L28.9256 202.893L24.3054 254.651C24.3054 254.651 23.726 261.72 26.4249 269.033C29.9625 278.667 37.2664 284.332 48.1078 285.858C74.4414 289.553 98.3962 252.941 98.6402 252.559C98.9757 252.056 99.6008 251.827 100.18 251.995C100.76 252.162 101.156 252.697 101.156 253.308V312.485H101.141Z" fill="black"/>
<path d="M229.469 379.77L217.85 280.469H91.3974L79.7783 379.77C79.7478 384.763 113.279 388.626 154.632 388.626C195.985 388.626 229.5 384.763 229.5 379.999C229.5 379.923 229.5 379.847 229.469 379.77Z" fill="#BF96F8"/>
<path d="M154.616 324.761C184.625 324.761 210.501 322.73 222.44 319.783L217.835 280.454L227.64 269.522H83.7886L83.5903 271.766L91.3974 280.454L86.7924 319.783C98.7317 322.715 124.623 324.761 154.616 324.761Z" fill="white"/>
<path d="M181.285 130.448C181.285 146.097 168.614 158.8 152.969 158.8C137.325 158.8 124.654 146.113 124.654 130.448C124.654 114.783 137.325 102.096 152.969 102.096C168.614 102.096 181.285 114.783 181.285 130.448Z" fill="black"/>
<path d="M133.055 150.265C130.28 152.433 126.285 151.96 124.105 149.181C121.939 146.403 122.412 142.402 125.187 140.219C127.962 138.051 131.957 138.524 134.138 141.303C136.303 144.082 135.83 148.082 133.055 150.265Z" fill="white"/>
<path d="M129.137 152.998C128.816 152.998 128.511 152.983 128.191 152.937C126.133 152.693 124.303 151.655 123.037 150.021C121.756 148.387 121.192 146.357 121.452 144.311C121.695 142.25 122.732 140.418 124.364 139.15C125.995 137.868 128.023 137.318 130.067 137.562C132.125 137.807 133.955 138.845 135.221 140.479C136.501 142.112 137.066 144.143 136.806 146.189C136.562 148.25 135.526 150.082 133.894 151.349C132.522 152.433 130.86 152.998 129.137 152.998ZM129.106 140.234C127.993 140.234 126.91 140.601 126.026 141.303C124.974 142.128 124.303 143.318 124.15 144.647C123.983 145.975 124.349 147.288 125.187 148.342C126.011 149.395 127.2 150.067 128.527 150.219C129.853 150.372 131.165 150.021 132.217 149.181C133.269 148.357 133.94 147.166 134.092 145.838C134.26 144.509 133.894 143.196 133.055 142.143C132.232 141.089 131.043 140.418 129.716 140.265C129.518 140.234 129.304 140.234 129.106 140.234Z" fill="black"/>
<path d="M132.247 146.677C131.683 146.677 131.149 146.311 130.951 145.746C130.707 145.044 130.219 144.479 129.563 144.158C128.908 143.838 128.161 143.777 127.459 144.021C126.743 144.265 125.965 143.883 125.721 143.166C125.477 142.448 125.858 141.67 126.575 141.425C127.962 140.952 129.457 141.044 130.768 141.7C132.079 142.341 133.071 143.471 133.543 144.861C133.787 145.578 133.406 146.357 132.689 146.601C132.537 146.647 132.4 146.677 132.247 146.677Z" fill="black"/>
<path d="M172.304 150.265C175.079 152.433 179.074 151.96 181.255 149.181C183.42 146.403 182.947 142.402 180.172 140.219C177.397 138.051 173.402 138.524 171.222 141.303C169.056 144.082 169.529 148.082 172.304 150.265Z" fill="white"/>
<path d="M176.223 152.998C174.5 152.998 172.838 152.433 171.466 151.349C169.834 150.067 168.812 148.235 168.553 146.189C168.309 144.128 168.873 142.112 170.139 140.479C171.42 138.845 173.25 137.822 175.293 137.563C177.351 137.318 179.364 137.883 180.996 139.15C182.627 140.433 183.649 142.265 183.908 144.311C184.152 146.372 183.588 148.387 182.322 150.021C181.041 151.655 179.212 152.678 177.168 152.937C176.848 152.968 176.543 152.998 176.223 152.998ZM173.143 149.197C174.195 150.021 175.506 150.387 176.833 150.235C178.16 150.067 179.349 149.41 180.172 148.357C180.996 147.303 181.362 145.99 181.209 144.662C181.041 143.334 180.386 142.143 179.334 141.318C178.281 140.494 176.97 140.128 175.644 140.28C174.317 140.448 173.128 141.105 172.304 142.158C171.481 143.212 171.115 144.525 171.267 145.853C171.435 147.181 172.091 148.372 173.143 149.197Z" fill="black"/>
<path d="M173.128 146.677C172.975 146.677 172.838 146.647 172.685 146.601C171.969 146.357 171.588 145.578 171.832 144.86C172.304 143.471 173.28 142.356 174.607 141.7C175.918 141.059 177.412 140.952 178.8 141.425C179.517 141.669 179.898 142.448 179.654 143.166C179.41 143.883 178.632 144.265 177.916 144.021C177.214 143.776 176.467 143.837 175.811 144.158C175.156 144.479 174.652 145.044 174.424 145.746C174.225 146.311 173.707 146.677 173.128 146.677Z" fill="black"/>
<path d="M70.6144 84.6749C82.5232 101.5 78.5434 124.799 61.7399 136.723C44.9365 148.647 21.6678 144.662 9.75897 127.837C-2.14984 111.012 1.82993 87.7132 18.6334 75.789C35.4369 63.8649 58.7056 67.8498 70.6144 84.6749Z" fill="white"/>
<path d="M40.24 144.952C28.1177 144.952 16.1631 139.273 8.64581 128.631C2.68378 120.188 0.350809 109.943 2.0891 99.7443C3.82739 89.5607 9.42346 80.6443 17.8557 74.6746C35.2538 62.3382 59.4222 66.4758 71.7427 83.8811C84.0632 101.302 79.9309 125.501 62.548 137.837C55.7779 142.631 47.9861 144.952 40.2552 144.952H40.24ZM40.118 70.2775C32.7379 70.2775 25.5713 72.5524 19.4263 76.9037C11.5887 82.4611 6.38908 90.7363 4.77277 100.202C3.15647 109.668 5.32171 119.211 10.872 127.043C16.4224 134.891 24.6869 140.097 34.1407 141.715C43.5946 143.334 53.1247 141.166 60.947 135.608C77.11 124.142 80.9526 101.653 69.5012 85.4689C63.9509 77.6213 55.6864 72.415 46.2325 70.7966C44.1893 70.4454 42.146 70.2775 40.118 70.2775Z" fill="black"/>
<path d="M15.0652 111.852C19.5024 116.783 27.0045 118.936 33.363 120.829C35.9399 121.593 46.3696 124.051 51.432 125.226C52.8654 125.562 54.3444 124.509 54.4969 123.043C55.0306 117.883 56.1132 107.21 56.2352 104.508C56.5249 97.8817 56.9366 90.0799 53.7192 84.2629C50.9136 79.194 44.9973 76.8122 39.0963 79.3619C34.5066 81.3467 31.4417 86.324 32.3871 93.4846C32.4938 94.3396 31.5332 95.0114 30.786 94.6144C24.458 91.3166 18.6027 92.706 15.2329 96.4008C10.9024 101.149 11.2074 107.531 15.0804 111.836L15.0652 111.852Z" fill="#BF96F8"/>
<path d="M169.758 183.259V156.983H136.227V182.649L169.758 183.259Z" fill="white"/>
<path d="M169.758 177.732C169.01 177.732 168.385 177.121 168.385 176.358V158.342H137.584V176.007C137.584 176.755 136.974 177.381 136.212 177.381C135.449 177.381 134.839 176.77 134.839 176.007V156.968C134.839 156.22 135.449 155.594 136.212 155.594H169.742C170.49 155.594 171.115 156.204 171.115 156.968V176.343C171.115 177.091 170.505 177.717 169.742 177.717L169.758 177.732Z" fill="black"/>
<path d="M172.929 126.31C172.899 124.615 171.359 123.379 169.697 123.699C154.586 126.676 152.802 126.753 136.196 123.653C134.55 123.348 133.025 124.6 132.994 126.264C132.949 129.669 132.4 146.082 132.4 152.693C132.4 159.853 136.212 171.304 152.954 171.304C169.697 171.304 173.509 159.731 173.509 152.693C173.509 146.097 172.96 129.7 172.914 126.295L172.929 126.31Z" fill="white"/>
<path d="M152.97 172.679C136.807 172.679 131.043 162.358 131.043 152.708C131.043 148.25 131.287 139.441 131.47 132.998C131.561 129.852 131.622 127.364 131.637 126.249C131.653 125.043 132.202 123.929 133.132 123.165C134.062 122.402 135.266 122.096 136.456 122.31C152.741 125.348 154.281 125.348 169.438 122.356C170.627 122.127 171.847 122.432 172.792 123.18C173.738 123.944 174.286 125.074 174.302 126.28C174.317 127.394 174.393 129.883 174.469 133.043C174.652 139.471 174.896 148.265 174.896 152.708C174.896 161.915 169.148 172.679 152.97 172.679ZM135.709 124.982C135.312 124.982 135.022 125.165 134.87 125.287C134.687 125.44 134.397 125.761 134.382 126.295C134.367 127.425 134.291 129.914 134.214 133.074C134.031 139.486 133.787 148.281 133.787 152.708C133.787 156.754 135.175 169.946 152.985 169.946C170.795 169.946 172.182 155.579 172.182 152.708C172.182 148.296 171.938 139.532 171.755 133.12C171.664 129.959 171.603 127.455 171.588 126.326C171.588 125.791 171.283 125.455 171.1 125.318C170.917 125.165 170.535 124.936 170.002 125.043C154.51 128.097 152.604 128.097 135.998 125.013C135.907 124.997 135.831 124.982 135.739 124.982H135.709Z" fill="black"/>
<path d="M152.893 151.884C152.802 151.884 152.726 151.884 152.634 151.853C150.774 151.487 149.508 150.785 148.792 149.701C147.709 148.067 148.121 146.113 148.548 144.051C148.868 142.509 149.203 140.922 148.959 139.364C148.837 138.616 149.341 137.914 150.088 137.792C150.835 137.67 151.536 138.173 151.658 138.921C151.978 140.967 151.582 142.891 151.231 144.601C150.926 146.097 150.621 147.502 151.079 148.189C151.369 148.632 152.07 148.952 153.168 149.166C153.915 149.304 154.388 150.021 154.25 150.769C154.128 151.426 153.549 151.884 152.909 151.884H152.893Z" fill="black"/>
<path d="M120.644 83.7897L174.896 75.2703C180.645 74.3695 184.564 68.98 183.664 63.224L175.156 8.90131C174.256 3.14536 168.873 -0.778459 163.125 0.12234L108.887 8.64176C103.139 9.54255 99.2198 14.9321 100.119 20.688L108.628 74.9955C109.528 80.7514 114.91 84.6753 120.659 83.7745L120.644 83.7897Z" fill="#DCF672"/>
<path d="M120.643 83.7897L174.896 75.2703C180.645 74.3695 184.564 68.98 183.664 63.224L179.593 37.2383C176.253 42.124 172.868 47.1013 172.243 47.9104C167.516 54.0176 161.752 60.8575 154.098 63.163C151.719 63.8805 149.051 64.0485 146.87 62.8729C144.247 61.4682 142.921 58.4147 142.463 55.468C141.854 51.4984 141.991 47.3761 141.61 43.3759C141.076 37.8337 139.124 31.5281 133.711 28.9326C128.374 26.3829 120.994 29.3754 116.298 32.1694C111.525 35.0092 107.179 38.9177 103.672 43.3301L108.628 74.9955C109.527 80.7514 114.91 84.6752 120.659 83.7744L120.643 83.7897Z" fill="black"/>
<path d="M173.829 19.6343C175.018 27.1918 169.849 34.2914 162.301 35.467C154.754 36.6579 147.663 31.4821 146.489 23.9245C145.3 16.367 150.469 9.26748 158.017 8.09187C165.565 6.90098 172.655 12.0768 173.829 19.6343Z" fill="white"/>
<path d="M146.184 136.769C145.818 136.769 145.452 136.616 145.178 136.326C144.171 135.242 143.119 134.677 142.021 134.677C140.1 134.677 138.575 136.234 138.56 136.25C138.042 136.784 137.172 136.814 136.639 136.28C136.09 135.761 136.075 134.906 136.593 134.356C136.685 134.249 138.957 131.898 142.037 131.944C143.912 131.944 145.65 132.814 147.191 134.478C147.709 135.028 147.663 135.898 147.114 136.417C146.855 136.662 146.52 136.784 146.184 136.784V136.769Z" fill="black"/>
<path d="M137.584 143.288C137.401 143.288 137.203 143.242 137.02 143.166C136.334 142.86 136.029 142.051 136.334 141.364C136.41 141.196 138.103 137.501 141.701 137.501C141.793 137.501 141.869 137.501 141.96 137.501C145.605 137.669 147.328 140.967 147.404 141.12C147.755 141.792 147.48 142.616 146.809 142.967C146.138 143.318 145.315 143.044 144.964 142.372C144.918 142.296 143.866 140.341 141.823 140.234C139.917 140.158 138.834 142.463 138.819 142.479C138.591 142.983 138.087 143.273 137.569 143.273L137.584 143.288Z" fill="black"/>
<path d="M159.557 136.769C159.222 136.769 158.886 136.646 158.627 136.402C158.078 135.883 158.048 135.028 158.551 134.463C160.091 132.799 161.829 131.944 163.705 131.929C166.816 131.929 169.057 134.249 169.149 134.341C169.667 134.891 169.652 135.761 169.103 136.28C168.554 136.799 167.7 136.784 167.181 136.234C167.151 136.204 165.626 134.662 163.751 134.662C162.622 134.662 161.555 135.227 160.549 136.311C160.274 136.601 159.908 136.753 159.542 136.753L159.557 136.769Z" fill="black"/>
<path d="M168.172 143.288C167.654 143.288 167.15 142.983 166.922 142.479C166.906 142.433 165.809 140.173 163.918 140.234C161.875 140.326 160.807 142.295 160.761 142.372C160.411 143.028 159.587 143.288 158.916 142.952C158.245 142.601 157.986 141.792 158.337 141.12C158.413 140.982 160.152 137.685 163.781 137.501C167.577 137.318 169.331 141.196 169.407 141.364C169.712 142.051 169.407 142.86 168.721 143.166C168.538 143.242 168.355 143.288 168.157 143.288H168.172Z" fill="black"/>
<path d="M153.625 116.066C153.625 124.692 146.642 131.685 138.026 131.685C129.411 131.685 122.427 124.692 122.427 116.066C122.427 107.439 129.411 100.447 138.026 100.447C146.642 100.447 153.625 107.439 153.625 116.066Z" fill="black"/>
<path d="M164.421 120.509C164.421 126.005 159.984 130.448 154.494 130.448C149.005 130.448 144.568 126.005 144.568 120.509C144.568 115.012 149.005 110.569 154.494 110.569C159.984 110.569 164.421 115.012 164.421 120.509Z" fill="black"/>
<path d="M160.136 105.378C160.136 110.875 155.699 115.318 150.21 115.318C144.72 115.318 140.283 110.875 140.283 105.378C140.283 99.8819 144.72 95.439 150.21 95.439C155.699 95.439 160.136 99.8819 160.136 105.378Z" fill="black"/>
<path d="M154.616 390C134.565 390 115.703 389.099 101.522 387.466C94.5843 386.672 89.1102 385.725 85.2676 384.687C80.495 383.389 78.3755 381.939 78.3755 380.015C78.3755 379.862 78.3755 379.71 78.4212 379.572L90.0403 280.332C90.1166 279.645 90.7112 279.125 91.3974 279.125H217.85C218.537 279.125 219.131 279.645 219.207 280.332L230.827 379.572C230.857 379.725 230.872 379.878 230.872 380.015C230.872 381.954 228.753 383.389 223.98 384.687C220.138 385.725 214.679 386.672 207.726 387.466C193.53 389.099 174.668 390 154.632 390H154.616ZM81.1202 379.954C81.4251 380.366 84.0021 382.809 103.23 384.916C117.152 386.443 135.404 387.282 154.616 387.282C173.829 387.282 192.081 386.443 206.003 384.916C225.23 382.809 227.807 380.366 228.112 379.954C228.112 379.939 216.631 281.843 216.631 281.843H92.602L81.1202 379.939V379.954Z" fill="#BF96F8"/>
<path d="M154.616 290.683C216.555 290.683 266.766 280.443 266.766 267.812C266.766 255.181 216.555 244.941 154.616 244.941C92.6774 244.941 42.4661 255.181 42.4661 267.812C42.4661 280.443 92.6774 290.683 154.616 290.683Z" fill="#BF96F8"/>
<path d="M154.616 292.057C124.578 292.057 96.3075 289.676 75.0515 285.324C59.5747 282.164 41.1091 276.561 41.1091 267.812C41.1091 259.064 59.5594 253.46 75.0515 250.3C96.3227 245.964 124.578 243.567 154.616 243.567C184.655 243.567 212.925 245.949 234.181 250.3C249.658 253.46 268.124 259.064 268.124 267.812C268.124 276.561 249.673 282.164 234.181 285.324C212.91 289.66 184.655 292.057 154.616 292.057ZM154.616 246.315C124.745 246.315 96.6887 248.682 75.5852 252.987C55.7016 257.048 43.8386 262.591 43.8386 267.827C43.8386 273.064 55.7016 278.606 75.5852 282.668C96.6734 286.973 124.745 289.34 154.616 289.34C184.488 289.34 212.544 286.973 233.648 282.668C253.531 278.606 265.394 273.064 265.394 267.827C265.394 262.591 253.516 257.048 233.648 252.987C212.559 248.682 184.488 246.315 154.616 246.315Z" fill="#BF96F8"/>
<path d="M146.703 155.64C145.91 155.64 145.101 155.456 144.309 155.075C142.006 153.975 140.771 151.639 141.305 149.41C141.472 148.678 142.22 148.219 142.951 148.403C143.683 148.571 144.141 149.319 143.958 150.052C143.683 151.197 144.537 152.159 145.483 152.617C146.337 153.029 147.495 153.12 148.212 152.189C148.67 151.594 149.539 151.487 150.133 151.945C150.728 152.403 150.835 153.273 150.377 153.869C149.478 155.029 148.136 155.64 146.703 155.64Z" fill="black"/>
<path d="M159.252 155.64C157.818 155.64 156.477 155.029 155.577 153.869C155.119 153.273 155.226 152.418 155.821 151.945C156.416 151.487 157.269 151.594 157.742 152.189C158.459 153.12 159.618 153.014 160.472 152.617C161.432 152.159 162.271 151.181 161.996 150.052C161.829 149.319 162.271 148.586 163.003 148.403C163.735 148.235 164.467 148.678 164.65 149.41C165.183 151.639 163.948 153.975 161.646 155.075C160.853 155.456 160.045 155.64 159.252 155.64Z" fill="black"/>
<path d="M157.544 194.221C157.544 196.74 155.501 198.786 153 198.786C150.499 198.786 148.456 196.74 148.456 194.221C148.456 191.702 150.499 189.671 153 189.671C155.501 189.671 157.544 191.717 157.544 194.221Z" fill="white"/>
<path d="M135.77 171.304C135.77 171.304 150.85 181.091 170.215 171.304V189.213H135.77V171.304Z" fill="black"/>
<path d="M224.072 59.3307C223.98 59.3307 223.889 59.3307 223.797 59.3002C223.218 59.1781 222.791 58.7048 222.715 58.1246L220.915 43.8798L204.066 37.8795C203.487 37.6658 203.106 37.1009 203.167 36.4749C203.212 35.8642 203.67 35.3451 204.28 35.2382L221.19 32.1846L220.168 19.9552C220.122 19.375 220.443 18.8406 220.961 18.5963C221.48 18.352 222.105 18.4742 222.501 18.8864L230.735 27.4516L243.223 20.8712C243.742 20.5964 244.382 20.688 244.809 21.1002C245.236 21.5125 245.343 22.1537 245.084 22.6881L237.993 37.2535L246.426 46.6127C246.807 47.0249 246.883 47.6356 246.639 48.1395C246.395 48.6433 245.861 48.9334 245.312 48.9028L231.513 47.8036L225.215 58.6437C224.971 59.0712 224.514 59.3307 224.041 59.3307H224.072ZM209.83 37.0398L222.638 41.6049C223.126 41.7728 223.477 42.2156 223.538 42.7194L224.926 53.7885L229.622 45.6966C229.881 45.2386 230.385 44.979 230.918 45.0248L242.141 45.9256L235.386 38.4292C235.02 38.0169 234.928 37.4215 235.172 36.9176L240.845 25.2836L231.132 30.3983C230.598 30.6884 229.927 30.5815 229.515 30.1388L223.233 23.6041L224.041 33.2381C224.102 33.9404 223.614 34.5664 222.928 34.7038L209.845 37.0703L209.83 37.0398Z" fill="#BF96F8"/>
<path d="M73.6943 59.9566C73.3283 59.9566 72.9624 59.8039 72.7032 59.5291L60.7639 46.9484L45.6834 51.483C45.1192 51.6509 44.5246 51.4524 44.1739 50.9639C43.8384 50.4906 43.8384 49.8493 44.1739 49.376L51.5845 38.9176L41.1395 27.1461C40.7735 26.7339 40.682 26.1385 40.9413 25.6346C41.1852 25.1308 41.7189 24.8407 42.2678 24.8712L57.9125 26.0316L63.9507 13.97C64.1947 13.4815 64.7131 13.1914 65.2621 13.2219C65.811 13.2525 66.2837 13.6189 66.4667 14.138L71.1784 27.65L85.3439 32.0013C85.8776 32.1692 86.2588 32.6425 86.3045 33.2074C86.3503 33.7723 86.0453 34.2914 85.5421 34.5357L74.0908 40.0932L75.0819 58.5214C75.1124 59.0863 74.7769 59.6207 74.2585 59.8497C74.0908 59.926 73.9078 59.9566 73.7248 59.9566H73.6943ZM61.1756 44.0323C61.5415 44.0323 61.9075 44.185 62.1667 44.4598L72.139 54.964L71.3003 39.3298C71.2698 38.7802 71.5748 38.2611 72.0627 38.0321L81.1964 33.5891L69.684 30.0623C69.2723 29.9401 68.9369 29.6195 68.7996 29.2073L64.9266 18.0771L59.9252 28.0775C59.6812 28.566 59.1476 28.8714 58.5986 28.8256L45.409 27.8484L54.3444 37.9099C54.7713 38.3832 54.8018 39.0855 54.4359 39.6046L48.6873 47.7118L60.7639 44.0781C60.8858 44.0323 61.0231 44.017 61.1603 44.017L61.1756 44.0323Z" fill="#DCF672"/>
<path d="M154.616 271.11C168.828 271.11 182.383 270.469 193.408 269.278C193.453 267.354 192.981 265.385 191.913 263.614L163.597 216.513C160.594 211.52 154.128 209.917 149.142 212.909L102.102 241.262C97.1155 244.269 95.5144 250.743 98.5031 255.735L105.837 267.934C107.393 268.194 109.116 268.453 111.068 268.713C122.824 270.255 138.286 271.11 154.616 271.11Z" fill="white"/>
<path d="M175.582 253.75C173.966 259.552 171.923 265.965 168.156 270.911C177.351 270.637 185.951 270.087 193.407 269.278C193.407 268.82 193.407 268.346 193.346 267.888C193.316 267.614 193.285 267.43 193.255 267.232C193.24 267.125 193.209 267.018 193.194 266.911C193.163 266.743 193.133 266.575 193.087 266.423C193.026 266.163 192.95 265.904 192.859 265.644C192.828 265.537 192.782 265.445 192.752 265.339C192.676 265.14 192.599 264.926 192.508 264.728C192.462 264.636 192.432 264.545 192.386 264.453C192.249 264.163 192.096 263.888 191.944 263.613L178.403 241.078C177.153 246.865 175.887 252.743 175.613 253.75H175.582Z" fill="black"/>
<path d="M145.483 261.125C142.906 256.193 138.712 251.094 132.72 250.727C126.819 250.376 121.101 255.934 117.807 260.3C115.81 262.941 114.117 265.858 112.729 268.926C123.19 270.209 136.334 270.957 150.301 271.094C148.517 267.888 147.175 264.377 145.483 261.125Z" fill="black"/>
<path d="M154.616 273.293C137.691 273.293 121.772 272.393 109.802 270.759C92.3733 268.377 90.1318 265.522 90.1318 263.308C90.1318 262.56 90.7418 261.934 91.5042 261.934C92.2666 261.934 92.8765 262.545 92.8765 263.308C92.8765 263.308 93.9134 265.919 111.083 268.179C122.839 269.721 138.301 270.576 154.632 270.576C170.962 270.576 186.424 269.721 198.18 268.179C215.38 265.919 216.387 263.308 216.387 263.278C216.387 262.53 216.997 261.934 217.744 261.934C218.491 261.934 219.101 262.56 219.101 263.323C219.101 265.537 216.859 268.392 199.431 270.774C187.446 272.408 171.526 273.309 154.616 273.309V273.293Z" fill="black"/>
<path d="M166.403 226.94C170.352 233.505 168.233 242.009 161.676 245.964C155.119 249.918 146.626 247.796 142.677 241.231C138.728 234.666 140.847 226.161 147.404 222.207C153.961 218.253 162.454 220.375 166.403 226.94Z" fill="#DCF672"/>
<path d="M299.123 173.488C299.123 173.763 307.723 167.564 303.423 163.167C301.776 161.487 297.797 162.8 297.797 162.8C299.382 159.548 297.248 158.052 293.985 158.052C293.985 158.052 288.937 154.449 283.692 158.693C280.261 161.472 277.593 164.205 274.879 167.564C274.97 167.335 275.062 167.106 275.153 166.877C276.083 164.526 276.251 161.747 274.116 159.976C269.328 156.021 263.275 161.625 260.378 165.243C258.426 167.686 256.718 170.343 254.416 172.511C251.945 174.831 248.896 176.45 246.395 178.74C243.788 181.137 242.796 192.664 242.461 203.168C242.126 213.321 250.238 221.734 260.378 221.734C270.518 221.734 278.309 213.657 278.309 203.733C278.309 197.962 278.477 192.863 279.087 192.13C280.597 190.298 283.707 189 285.903 188.13C295.174 184.481 304.399 181.015 303.499 176.358C303.072 174.19 299.123 173.473 299.123 173.473V173.488Z" fill="white"/>
<path d="M260.378 223.108C255.102 223.108 250.192 221.016 246.532 217.23C242.857 213.428 240.936 208.42 241.104 203.138C241.744 183.396 243.91 179.182 245.48 177.747C246.761 176.556 248.179 175.564 249.551 174.587C250.969 173.579 252.296 172.648 253.501 171.518C255.041 170.068 256.306 168.388 257.633 166.602C258.182 165.869 258.746 165.121 259.325 164.403C260.896 162.434 265.059 157.792 269.709 157.304C271.661 157.09 273.445 157.64 275.001 158.922C276.236 159.945 276.952 161.304 277.151 162.907C278.935 161.014 280.795 159.304 282.853 157.64C287.367 153.975 292.185 155.304 294.427 156.693C296.683 156.769 298.361 157.533 299.184 158.846C299.489 159.35 299.764 160.067 299.718 161.014C301.258 160.846 303.179 160.953 304.414 162.22C306.351 164.205 306.534 166.816 304.902 169.579C304.064 170.999 302.92 172.205 302.036 173.03C303.286 173.625 304.551 174.602 304.841 176.129C305.924 181.747 297.278 185.152 287.26 189.091L286.406 189.427C284.836 190.038 281.603 191.32 280.2 192.939C280.048 193.366 279.666 195.275 279.666 203.748C279.666 208.924 277.669 213.795 274.009 217.459C270.365 221.108 265.531 223.123 260.378 223.123V223.108ZM270.472 159.991C270.304 159.991 270.136 159.991 269.969 160.021C266.248 160.418 262.497 164.785 261.445 166.113C260.896 166.816 260.332 167.548 259.813 168.251C258.472 170.052 257.069 171.9 255.361 173.518C254.034 174.77 252.555 175.808 251.122 176.831C249.765 177.793 248.484 178.709 247.325 179.763C246.486 180.541 244.443 184.389 243.833 203.229C243.681 207.779 245.343 212.069 248.499 215.337C251.64 218.589 255.864 220.375 260.393 220.375C264.922 220.375 268.978 218.65 272.103 215.52C275.244 212.375 276.968 208.191 276.952 203.748C276.952 192.603 277.593 191.809 278.035 191.275C279.621 189.336 282.518 188.007 285.415 186.877L286.269 186.542C294.03 183.488 302.828 180.022 302.173 176.648C302.02 175.9 300.358 175.167 299.123 174.892C299.001 174.892 298.894 174.862 298.788 174.831C298.193 174.663 297.781 174.114 297.781 173.503C297.781 173.091 297.964 172.709 298.269 172.449C298.406 172.343 298.559 172.251 298.727 172.205C299.55 171.671 302.874 168.938 303.255 166.403C303.393 165.533 303.133 164.815 302.478 164.128C301.776 163.411 299.535 163.686 298.254 164.113C297.736 164.281 297.156 164.113 296.805 163.716C296.439 163.304 296.363 162.709 296.607 162.22C296.851 161.731 297.202 160.831 296.882 160.312C296.622 159.884 295.723 159.441 294.03 159.441C293.741 159.441 293.466 159.35 293.237 159.182C293.07 159.06 288.937 156.25 284.592 159.777C281.405 162.357 278.736 165.045 275.976 168.449C275.549 168.984 274.802 169.106 274.223 168.77C273.643 168.419 273.399 167.701 273.659 167.075C273.811 166.724 273.872 166.571 273.933 166.419C274.467 165.06 275.092 162.556 273.293 161.075C272.439 160.373 271.539 160.037 270.518 160.037L270.472 159.991Z" fill="black"/>
<path d="M259.569 180.205C259.173 180.205 258.792 180.037 258.517 179.717C258.029 179.137 258.121 178.282 258.685 177.793C267.041 170.816 278.294 175.396 280.932 176.618C281.893 176.282 284.149 175.503 288.754 174.129C292.932 172.877 298.224 171.533 299.718 172.251C300.389 172.587 300.678 173.396 300.343 174.083C300.038 174.694 299.352 174.984 298.711 174.785C298.467 174.755 296.546 174.633 289.532 176.74C283.25 178.618 281.374 179.35 281.359 179.366C280.993 179.518 280.581 179.488 280.231 179.305C280.109 179.244 268.352 173.274 260.439 179.885C260.179 180.099 259.874 180.205 259.569 180.205Z" fill="black"/>
<path d="M268.352 176.801C268.047 176.801 267.742 176.694 267.483 176.48C266.904 175.992 266.828 175.137 267.3 174.556L273.826 166.678C274.314 166.098 275.168 166.022 275.748 166.495C276.327 166.984 276.403 167.839 275.931 168.419L269.404 176.297C269.13 176.618 268.749 176.785 268.352 176.785V176.801Z" fill="black"/>
<path d="M276.297 177.732C275.931 177.732 275.58 177.594 275.305 177.304C274.787 176.755 274.802 175.9 275.351 175.365C285.522 165.609 296.897 161.655 297.37 161.487C298.086 161.243 298.864 161.624 299.108 162.342C299.352 163.059 298.971 163.838 298.254 164.082C298.147 164.128 286.955 168.037 277.242 177.35C276.983 177.61 276.632 177.732 276.297 177.732Z" fill="black"/>
<path d="M270.853 175.549C270.518 175.549 270.182 175.427 269.923 175.182C269.374 174.663 269.344 173.808 269.862 173.243C283.326 158.846 293.314 156.769 293.725 156.693C294.472 156.556 295.189 157.029 295.326 157.777C295.464 158.51 294.991 159.228 294.244 159.38C294.122 159.411 284.607 161.472 271.844 175.121C271.57 175.411 271.219 175.549 270.853 175.549Z" fill="black"/>
<path d="M2.5008 176.373C1.60116 181.015 10.8263 184.496 20.0972 188.145C22.2929 189.015 25.4188 190.313 26.9131 192.145C27.523 192.878 27.6908 197.977 27.6908 203.748C27.6908 213.688 35.696 221.749 45.6226 221.749C55.5491 221.749 63.8746 213.336 63.5392 203.183C63.2037 192.664 62.2126 181.152 59.6052 178.755C57.1045 176.45 54.0548 174.846 51.5846 172.526C49.2974 170.373 47.5744 167.716 45.6226 165.258C42.7407 161.624 36.6872 156.036 31.884 159.991C29.7493 161.762 29.917 164.541 30.8471 166.892C30.9386 167.121 31.0301 167.35 31.1216 167.579C28.4074 164.22 25.739 161.487 22.3082 158.708C17.0628 154.449 12.0157 158.067 12.0157 158.067C8.75254 158.067 6.6178 159.563 8.20361 162.815C8.20361 162.815 4.22384 161.502 2.57704 163.182C-1.72294 167.579 6.87702 173.793 6.87702 173.503C6.87702 173.503 2.92775 174.205 2.5008 176.388V176.373Z" fill="white"/>
<path d="M45.6073 223.108C40.4535 223.108 35.6045 221.093 31.9755 217.444C28.3312 213.779 26.3184 208.909 26.3184 203.733C26.3184 195.26 25.9372 193.336 25.7847 192.924C24.3819 191.305 21.1493 190.023 19.5787 189.412L18.7248 189.076C8.72205 185.137 0.0763443 181.732 1.15896 176.114C1.44868 174.587 2.72952 173.61 3.96462 173.014C3.08023 172.205 1.92137 170.984 1.09797 169.564C-0.518334 166.8 -0.350604 164.19 1.58591 162.205C2.82101 160.953 4.74228 160.831 6.28234 160.999C6.2366 160.052 6.51107 159.334 6.81603 158.831C7.63943 157.518 9.31673 156.754 11.5735 156.678C13.8149 155.289 18.6334 153.96 23.1468 157.624C25.2053 159.304 27.0656 160.999 28.8496 162.892C29.0326 161.304 29.7645 159.93 30.9996 158.907C32.5549 157.625 34.339 157.075 36.2907 157.289C40.9414 157.777 45.1042 162.419 46.6747 164.388C47.2541 165.121 47.8183 165.869 48.3673 166.587C49.7091 168.373 50.9594 170.052 52.4995 171.503C53.6889 172.633 55.0307 173.564 56.4488 174.572C57.8211 175.534 59.2239 176.541 60.52 177.732C62.0906 179.183 64.2558 183.381 64.8963 203.122C65.064 208.42 63.1427 213.413 59.4679 217.215C55.8084 221.001 50.8832 223.093 45.6226 223.093L45.6073 223.108ZM3.84264 176.633C3.18697 180.022 11.9852 183.488 19.7465 186.526L20.6004 186.862C23.4975 188.007 26.3794 189.32 27.9805 191.259C28.4227 191.794 29.0783 192.588 29.0631 203.733C29.0631 208.176 30.7861 212.359 33.912 215.505C37.0379 218.635 41.2006 220.36 45.6226 220.36C50.0446 220.36 54.375 218.573 57.5162 215.306C60.6725 212.039 62.3193 207.749 62.1821 203.199C61.5722 184.343 59.5289 180.511 58.6903 179.732C57.5314 178.663 56.2506 177.763 54.8935 176.801C53.4601 175.793 51.9963 174.74 50.6545 173.488C48.9467 171.885 47.5439 170.022 46.202 168.22C45.6683 167.503 45.1194 166.77 44.5705 166.083C43.5183 164.755 39.7673 160.388 36.0467 159.991C34.8269 159.869 33.7595 160.189 32.7836 160.999C30.9844 162.48 31.6095 164.984 32.1432 166.342C32.2042 166.495 32.2652 166.632 32.3262 166.785C32.6769 167.625 32.4329 168.358 31.8535 168.694C31.2741 169.045 30.5269 168.907 30.1 168.373C27.34 164.968 24.6869 162.296 21.4848 159.701C17.139 156.174 13.0068 158.983 12.8391 159.105C12.6103 159.258 12.3359 159.35 12.0461 159.35C10.3384 159.35 9.45396 159.808 9.19474 160.22C8.87453 160.739 9.22524 161.64 9.46921 162.128C9.71318 162.617 9.63694 163.213 9.27098 163.625C8.90503 164.037 8.34085 164.19 7.80716 164.022C6.52632 163.609 4.30008 163.319 3.58342 164.037C2.9125 164.724 2.66853 165.442 2.80576 166.312C3.18697 168.831 6.51107 171.579 7.33447 172.114C7.5022 172.159 7.65468 172.251 7.79191 172.358C8.09688 172.617 8.27985 172.999 8.27985 173.411C8.27985 174.022 7.86815 174.572 7.27348 174.74C7.16674 174.77 7.06 174.801 6.93802 174.801C5.71816 175.076 4.04086 175.793 3.88838 176.557L3.84264 176.633Z" fill="black"/>
<path d="M46.4154 180.205C46.1104 180.205 45.7902 180.098 45.5463 179.885C37.6172 173.274 25.8609 179.243 25.7542 179.305C25.4034 179.488 24.9917 179.503 24.6258 179.366C24.6105 179.366 22.735 178.633 16.4528 176.74C9.43863 174.633 7.53261 174.755 7.27339 174.785C6.64821 174.984 5.9468 174.694 5.64184 174.083C5.30638 173.411 5.59609 172.587 6.26701 172.251C7.74608 171.518 13.0524 172.862 17.2304 174.129C21.8201 175.503 24.0921 176.281 25.0527 176.617C27.6907 175.381 38.9438 170.816 47.2998 177.793C47.8792 178.282 47.9555 179.137 47.4675 179.717C47.1931 180.037 46.8119 180.205 46.4154 180.205Z" fill="black"/>
<path d="M37.6479 176.801C37.2514 176.801 36.8702 176.633 36.5957 176.312L30.0695 168.434C29.5816 167.854 29.6731 166.983 30.2525 166.51C30.8319 166.022 31.7011 166.113 32.1738 166.693L38.7 174.571C39.1879 175.152 39.0964 176.022 38.517 176.495C38.2578 176.709 37.9528 176.816 37.6479 176.816V176.801Z" fill="black"/>
<path d="M29.7036 177.732C29.3681 177.732 29.0174 177.61 28.7582 177.351C19.0451 168.037 7.85296 164.129 7.74622 164.083C7.02956 163.839 6.64835 163.06 6.89232 162.342C7.13629 161.625 7.91395 161.243 8.63061 161.487C9.1033 161.655 20.4784 165.61 30.6489 175.366C31.1979 175.885 31.2131 176.755 30.6947 177.305C30.4202 177.58 30.0695 177.732 29.7036 177.732Z" fill="black"/>
<path d="M35.132 175.549C34.766 175.549 34.4001 175.411 34.1408 175.121C21.3629 161.457 11.8328 159.411 11.7413 159.38C11.0094 159.228 10.5215 158.51 10.6739 157.777C10.8264 157.044 11.5278 156.556 12.275 156.693C12.6867 156.769 22.6895 158.846 36.1384 173.243C36.6568 173.793 36.6263 174.663 36.0774 175.182C35.8181 175.427 35.4827 175.549 35.1472 175.549H35.132Z" fill="black"/>
<path d="M152.969 162.541C150.972 162.541 148.959 159.64 147.922 157.899C147.541 157.243 147.755 156.418 148.395 156.021C149.035 155.64 149.874 155.854 150.271 156.495C151.155 157.976 152.375 159.441 152.939 159.762C153.518 159.426 154.799 157.93 155.76 156.464C156.172 155.823 157.01 155.655 157.651 156.052C158.291 156.464 158.459 157.304 158.062 157.945C156.736 160.006 154.784 162.464 153.046 162.541H152.969Z" fill="black"/>
<path d="M282.487 128.799C266.187 141.471 242.72 138.524 230.064 122.203C217.408 105.882 220.351 82.3849 236.651 69.7126C252.952 57.0404 276.418 59.9871 289.074 76.3083C301.73 92.6296 298.788 116.127 282.487 128.799Z" fill="#BF96F8"/>
<path d="M246.883 130.768C239.183 130.768 232.9 128.081 228.997 123.043C224.651 117.455 223.843 109.699 226.71 101.225C229.5 92.95 235.493 84.9192 243.589 78.6288C251.686 72.3385 260.926 68.5063 269.633 67.8345C278.538 67.1475 285.842 69.8651 290.172 75.4531C294.518 81.0411 295.326 88.7972 292.46 97.2708C289.669 105.546 283.677 113.577 275.58 119.867C267.483 126.157 258.243 129.99 249.536 130.661C248.636 130.738 247.752 130.768 246.883 130.768ZM272.271 70.4758C271.478 70.4758 270.67 70.5064 269.831 70.5675C261.658 71.1934 252.936 74.8272 245.267 80.7969C237.597 86.7666 231.924 94.3394 229.302 102.111C226.74 109.683 227.411 116.523 231.162 121.379C234.913 126.218 241.378 128.554 249.338 127.944C257.511 127.318 266.233 123.684 273.903 117.714C281.572 111.745 287.245 104.172 289.867 96.4005C292.429 88.8277 291.758 81.9877 288.007 77.1326C284.637 72.7965 279.102 70.4758 272.271 70.4758Z" fill="white"/>
<path d="M282.503 130.157C282.091 130.157 281.694 129.974 281.42 129.623L235.584 70.5367C235.127 69.9412 235.233 69.0862 235.828 68.6129C236.423 68.1549 237.277 68.2618 237.749 68.8572L283.585 127.944C284.043 128.539 283.936 129.394 283.341 129.867C283.097 130.066 282.792 130.157 282.503 130.157Z" fill="white"/>
<path d="M230.064 123.562C229.652 123.562 229.256 123.378 228.981 123.027C228.524 122.432 228.631 121.577 229.225 121.104L288.236 75.2086C288.83 74.7506 289.684 74.8575 290.157 75.4529C290.615 76.0484 290.508 76.9034 289.913 77.3767L230.903 123.272C230.659 123.47 230.354 123.562 230.064 123.562Z" fill="white"/>
</g>
<defs>
<clipPath id="clip0_86_8776">
<rect width="306" height="390" fill="white"/>
</clipPath>
</defs>
</svg>
