<svg width="171" height="16" viewBox="0 0 171 16" fill="none" xmlns="http://www.w3.org/2000/svg">
<path d="M0.0568751 12H1.60888V7.264H5.96088C8.47288 7.264 9.78488 5.92 9.78488 3.92C9.78488 1.84 8.47288 0.639999 5.96088 0.639999H0.0568751V12ZM6.00888 2.08C7.46488 2.08 8.18488 2.768 8.18488 3.952C8.18488 5.04 7.46488 5.824 6.00888 5.824H1.60888V2.08H6.00888ZM15.1155 3.904C12.7955 3.904 11.0995 5.648 11.0995 8.048C11.0995 10.368 12.8275 12.192 15.2595 12.192C17.9155 12.192 18.9395 10.416 19.0515 9.744H17.6115C17.4675 10 16.8595 10.848 15.2595 10.848C13.7075 10.848 12.6515 9.696 12.5715 8.224H19.1475C19.1475 5.632 17.4355 3.904 15.1155 3.904ZM15.1155 5.152C16.2995 5.152 17.1795 5.824 17.5315 7.008H12.6675C12.9715 5.872 13.8515 5.152 15.1155 5.152ZM21.4564 12H22.8644V8.384L27.2484 12H29.3124L24.4324 7.888L29.1044 4.096H27.0244L22.8644 7.52V4.096H21.4564V12ZM31.5975 8.48C31.4215 10.288 31.1975 10.8 30.1095 10.8H29.9175V12.112H30.3495C32.0455 12.112 32.6535 11.008 32.8935 8.576L33.1975 5.408H36.4615V12H37.9175V4.096H32.0295L31.5975 8.48ZM47.0059 10.64V12H48.4619V4.096H47.0059V5.408C46.8139 4.992 45.9339 3.904 44.2059 3.904C42.1259 3.904 40.3499 5.472 40.3499 8.048C40.3499 10.656 42.1259 12.192 44.2059 12.192C45.9979 12.192 46.8139 11.04 47.0059 10.64ZM47.0379 8.048C47.0379 9.616 46.0139 10.848 44.4779 10.848C42.8939 10.848 41.8539 9.616 41.8539 8.048C41.8539 6.464 42.8939 5.248 44.4779 5.248C46.0139 5.248 47.0379 6.464 47.0379 8.048ZM51.4728 12H52.8488V5.856L55.9848 12.048H56.9928L60.1608 5.792V12H61.5848V4.096H59.7128L56.5608 10.32L53.4088 4.096H51.4728V12ZM70.6778 10.64V12H72.1337V4.096H70.6778V5.408C70.4858 4.992 69.6058 3.904 67.8778 3.904C65.7978 3.904 64.0218 5.472 64.0218 8.048C64.0218 10.656 65.7978 12.192 67.8778 12.192C69.6698 12.192 70.4858 11.04 70.6778 10.64ZM70.7098 8.048C70.7098 9.616 69.6858 10.848 68.1498 10.848C66.5658 10.848 65.5258 9.616 65.5258 8.048C65.5258 6.464 66.5658 5.248 68.1498 5.248C69.6858 5.248 70.7098 6.464 70.7098 8.048ZM75.0486 12H76.9046V9.728H75.0486V12ZM84.3069 12H89.9869C92.5949 12 93.9229 10.736 93.9229 8.736C93.9229 7.28 92.9789 6.32 91.8589 6.032C92.7709 5.76 93.6829 4.944 93.6829 3.712C93.6829 1.76 92.3389 0.639999 89.8749 0.639999H84.3069V12ZM89.8429 2.064C91.3469 2.064 92.0829 2.608 92.0829 3.744C92.0829 4.832 91.3309 5.424 89.8429 5.424H85.8429V2.064H89.8429ZM89.9549 6.848C91.5869 6.848 92.3549 7.52 92.3549 8.704C92.3549 9.872 91.6029 10.576 89.9549 10.576H85.8429V6.848H89.9549ZM100.022 3.904C97.7018 3.904 96.0058 5.648 96.0058 8.048C96.0058 10.368 97.7338 12.192 100.166 12.192C102.822 12.192 103.846 10.416 103.958 9.744H102.518C102.374 10 101.766 10.848 100.166 10.848C98.6138 10.848 97.5578 9.696 97.4778 8.224H104.054C104.054 5.632 102.342 3.904 100.022 3.904ZM100.022 5.152C101.206 5.152 102.086 5.824 102.438 7.008H97.5738C97.8778 5.872 98.7578 5.152 100.022 5.152ZM107.707 9.36C107.707 11.12 108.603 12 110.475 12H112.347V10.656H110.795C109.547 10.656 109.163 10.176 109.163 9.024V5.408H112.347V4.096H109.163V0.639999H107.707V4.096H105.371V5.408H107.707V9.36ZM120.279 6.56H121.751C121.639 5.968 120.823 3.904 117.975 3.904C115.719 3.904 113.975 5.712 113.975 8.048C113.975 10.384 115.735 12.192 117.991 12.192C120.823 12.192 121.655 10.08 121.751 9.536H120.311C120.183 9.808 119.591 10.848 117.991 10.848C116.519 10.848 115.479 9.6 115.479 8.048C115.479 6.496 116.519 5.248 117.975 5.248C119.543 5.248 120.151 6.304 120.279 6.56ZM124.051 2.576H125.571V0.287999H124.051V2.576ZM124.083 12H125.539V4.096H124.083V12ZM129.879 9.36C129.879 11.12 130.775 12 132.647 12H134.519V10.656H132.967C131.719 10.656 131.335 10.176 131.335 9.024V5.408H134.519V4.096H131.335V0.639999H129.879V4.096H127.543V5.408H129.879V9.36ZM137.569 15.584H139.057L144.241 4.096H142.737L140.033 10.112L137.329 4.096H135.681L139.265 11.824L137.569 15.584ZM145.377 12H147.233V9.728H145.377V12ZM150.401 12H151.953V6.944H156.241L158.961 12H160.609L157.857 6.784C159.361 6.4 160.177 5.36 160.177 3.856C160.177 1.744 158.881 0.639999 156.433 0.639999H150.401V12ZM156.385 2.08C157.841 2.08 158.577 2.624 158.577 3.856C158.577 5.008 157.841 5.52 156.385 5.52H151.953V2.08H156.385ZM166.604 12.176C168.876 12.176 170.3 10.688 170.3 8.656V4.096H168.828V8.384C168.828 9.84 168.012 10.816 166.588 10.816C165.164 10.816 164.348 9.84 164.348 8.384V4.096H162.892V8.656C162.892 10.688 164.332 12.176 166.604 12.176Z" fill="white"/>
</svg>
