<svg width="90" height="27" viewBox="0 0 90 27" fill="none" xmlns="http://www.w3.org/2000/svg">
<path d="M0.345642 10.0256H3.14565V2.75919H7.14762V10.0256H9.94763V0.327966H0.345642V10.0256Z" fill="white"/>
<path d="M16.7706 10.1895C19.6936 10.1895 21.9745 8.19531 21.9745 5.17676C21.9745 2.11724 19.6936 0.164062 16.7706 0.164062C13.8477 0.164062 11.5667 2.11724 11.5667 5.17676C11.5667 8.19531 13.834 10.1895 16.7706 10.1895ZM16.7706 7.7036C15.2955 7.7036 14.4077 6.59726 14.4077 5.17676C14.4077 3.75627 15.3092 2.64993 16.7706 2.64993C18.2458 2.64993 19.1336 3.75627 19.1336 5.17676C19.1336 6.59726 18.2458 7.7036 16.7706 7.7036Z" fill="white"/>
<path d="M26.8381 5.98262L27.1795 2.75919H30.1161V10.0256H32.9161V0.327966H24.8166L24.2429 5.7914C24.12 6.9114 23.8605 7.36214 22.9181 7.36214H22.7132V10.1621H22.9317C25.8273 10.1621 26.5512 8.78263 26.8381 5.98262Z" fill="white"/>
<path d="M39.439 10.0256L45.2848 0.327966H42.2526L39.9443 4.15237L37.4175 0.327966H34.0711L38.3599 6.78848L36.4068 10.0256H39.439Z" fill="white"/>
<path d="M52.6901 10.0256H55.4902V0.327966H52.6901V4.34359C52.6901 4.34359 51.6658 4.52115 50.4638 4.52115C49.3848 4.52115 48.8384 4.12505 48.8384 3.05968V0.327966H46.0384V3.05968C46.0384 5.91433 47.5545 6.95238 50.2043 6.95238C51.3653 6.95238 52.6901 6.77482 52.6901 6.77482V10.0256Z" fill="white"/>
<path d="M57.541 10.0256H60.341L64.6161 4.207V10.0256H67.4161V0.327966H64.6161L60.341 6.17384V0.327966H57.541V10.0256Z" fill="white"/>
<path d="M72.3885 10.0256H75.1749V2.73188H78.6851V0.327966H68.8782V2.73188H72.3885V10.0256Z" fill="white"/>
<path d="M85.8863 3.16895H82.936V0.327966H80.1497V10.0256H85.8863C88.2082 10.0256 89.6287 8.87824 89.6287 6.59726C89.6287 4.31627 88.2082 3.16895 85.8863 3.16895ZM85.5175 5.57286C86.3643 5.57286 86.7604 5.9553 86.7604 6.59726C86.7604 7.29385 86.3643 7.62165 85.5175 7.62165H82.936V5.57286H85.5175Z" fill="white"/>
<path d="M23.4102 19.9338H20.4053V18.7319H26.2239V16.328H17.6189V26.0256H23.4102C25.7048 26.0256 27.098 24.9739 27.098 22.8704C27.098 20.9173 25.7048 19.9338 23.4102 19.9338ZM23.178 22.1192C23.8882 22.1192 24.2297 22.3924 24.2297 22.8704C24.2297 23.3895 23.8882 23.6217 23.178 23.6217H20.4053V22.1192H23.178Z" fill="white"/>
<path d="M33.5237 26.1895C36.4467 26.1895 38.7277 24.1953 38.7277 21.1768C38.7277 18.1172 36.4467 16.1641 33.5237 16.1641C30.6008 16.1641 28.3198 18.1172 28.3198 21.1768C28.3198 24.1953 30.5871 26.1895 33.5237 26.1895ZM33.5237 23.7036C32.0486 23.7036 31.1608 22.5973 31.1608 21.1768C31.1608 19.7563 32.0623 18.6499 33.5237 18.6499C34.9989 18.6499 35.8867 19.7563 35.8867 21.1768C35.8867 22.5973 34.9989 23.7036 33.5237 23.7036Z" fill="white"/>
<path d="M40.3477 26.0256H43.1477V22.3924H47.2863V26.0256H50.0863V16.328H47.2863V19.9611H43.1477V16.328H40.3477V26.0256Z" fill="white"/>
<path d="M56.6189 26.0256L62.4648 16.328H59.4326L57.1243 20.1524L54.5974 16.328H51.2511L55.5399 22.7885L53.5867 26.0256H56.6189Z" fill="white"/>
<path d="M67.7067 26.1895C71.1213 26.1895 72.214 23.6899 72.3506 22.7885H69.5233C69.373 23.0207 68.8813 23.6899 67.7067 23.6899C66.3272 23.6899 65.5077 22.5699 65.5077 21.1768C65.5077 19.7836 66.3272 18.6636 67.7067 18.6636C68.854 18.6636 69.3594 19.3465 69.5096 19.5787H72.3506C72.1731 18.486 71.0121 16.1641 67.7067 16.1641C64.7291 16.1641 62.653 18.2538 62.653 21.1768C62.653 24.086 64.7291 26.1895 67.7067 26.1895Z" fill="white"/>
</svg>
