<svg width="394" height="53" viewBox="0 0 394 53" fill="none" xmlns="http://www.w3.org/2000/svg">
<path d="M70.7296 0.828064H113.145L111.31 12.6584H83.1102L82.0785 19.4017H98.9298L96.981 31.587H80.2443L79.098 39.6316H110.049L108.101 52.1718H62.8198L70.7296 0.828064Z" fill="white"/>
<path d="M134.696 13.4865H116.928L118.877 0.828064H168.628L166.565 13.4865H148.796L142.835 52.1718H128.735L134.696 13.4865Z" fill="white"/>
<path d="M169.658 28.9843C169.085 12.3035 180.319 -6.10352e-05 195.68 -6.10352e-05C213.563 -6.10352e-05 218.836 12.3035 219.41 18.2187H204.966C204.278 16.799 201.756 13.1316 196.139 13.1316C188.229 13.1316 183.758 20.1115 184.102 28.2745C184.331 34.8995 187.885 39.8682 194.075 39.8682C199.807 39.8682 202.329 36.4374 203.132 35.1361H217.461C216.544 39.7499 210.697 52.9999 194.534 52.9999C179.746 52.9999 170.117 43.1807 169.658 28.9843Z" fill="white"/>
<path d="M229.614 0.828064H243.829L239.129 31.7053L265.839 0.828064H280.054L272.144 52.1718H257.929L262.629 21.4129L235.919 52.1718H221.705L229.614 0.828064Z" fill="white"/>
<path d="M302.75 13.4865H284.981L286.93 0.828064H336.682L334.733 13.4865H316.965L311.004 52.1718H296.903L302.75 13.4865Z" fill="white"/>
<path d="M343.676 0.828064H357.891L353.076 31.8236L379.786 0.946368H394.001L386.091 52.2901H371.876L376.576 21.5312L349.866 52.2901H335.651L343.676 0.828064Z" fill="white"/>
<path d="M38.1734 19.8751H25.5636L26.5953 13.605H56.515L58.4638 0.946533H14.2147L11.3488 19.8751H1.83416L0 31.4689H9.51469L6.30492 52.172H35.6514C49.4076 52.172 58.5784 46.0202 58.1199 33.48C57.8906 24.7256 50.7832 19.8751 38.1734 19.8751ZM36.9124 39.3952H22.4684L23.7294 31.4689H38.6319C41.6124 31.4689 43.1027 32.5336 43.1027 34.5448C43.332 37.7389 40.81 39.3952 36.9124 39.3952Z" fill="white"/>
</svg>
