<svg xmlns="http://www.w3.org/2000/svg" viewBox="0 0 91.438 117.244"><path d="M45.879 117.244c-6.612-14.024-11.965-15.911-18.162-18.1a42.5 42.5 0 0 1-7.017-2.99c-3.535-1.977-8.686-6.847-11.643-10.983l-3.552-.66a5.86 5.86 0 0 1-2.026-10.738 5.863 5.863 0 0 1-.578-10.015q.108-.074.219-.143a5.863 5.863 0 0 1 2.047-11 5.86 5.86 0 0 1 5.747-9.294l7.19 1.336a5.862 5.862 0 0 1 4.693 6.834 5.843 5.843 0 0 1-2.35 3.692l.18.033a5.862 5.862 0 0 1 2.248 10.6q-.108.074-.219.143a5.862 5.862 0 0 1-3.814 10.945l-.181-.034a5.859 5.859 0 0 1-5.966 8.983l-.991-.184c2.863 3.523 7.017 7.318 9.877 8.917a41.046 41.046 0 0 0 6.737 2.863c3.229 1.138 6.278 2.214 9.441 4.888 3.5 2.961 6.6 7.454 9.753 14.14zM6.573 74.693a4.059 4.059 0 0 0-.739 8.05l7.19 1.336a4.056 4.056 0 0 0 4.732-3.249 4.063 4.063 0 0 0-3.249-4.732l-7.212-1.34a4.064 4.064 0 0 0-.722-.065zM8.5 73.147l10.67 1.982a4.059 4.059 0 1 0 1.482-7.981l-2.142-.4h-.026L6.935 64.603a4.059 4.059 0 0 0-1.458 7.986l2.141.4h.027zm10.336-8.171a4.059 4.059 0 0 0 4.71-3.253 4.064 4.064 0 0 0-3.249-4.732l-4.286-.8-.05-.009-9.358-1.738a4.059 4.059 0 0 0-1.482 7.981l2.139.4.029.005zm-2.5-10.556a4.059 4.059 0 0 0 1.44-7.989l-7.19-1.336a4.059 4.059 0 0 0-1.482 7.981zm73.862 56.942L72.683 94.685a5.746 5.746 0 0 1-1.58-5.662 36.693 36.693 0 0 0 1.121-11.937 45.495 45.495 0 0 0-.3-2.561 30.62 30.62 0 0 1-.346-3.923 24.4 24.4 0 0 1 .122-2.557l.011-.128c.489-5.529.875-9.9 2.588-14.7a37.391 37.391 0 0 1 5.346-9.861c.8-1.262 1.458-3.014.908-4.176-.94-1.99-5.018-2.029-7.529-1.181a14.3 14.3 0 0 0-6.478 4.763 23.572 23.572 0 0 0-3.7 6.455v31.235a9.9 9.9 0 0 1-9.892 9.892H20.315v-1.8h32.644a8.1 8.1 0 0 0 8.089-8.089V9.892a8.1 8.1 0 0 0-8.089-8.089H20.065a8.1 8.1 0 0 0-8.089 8.089v31.767h-1.8V9.892A9.9 9.9 0 0 1 20.068 0H52.96a9.9 9.9 0 0 1 9.892 9.892v35.11a25.44 25.44 0 0 1 2.3-3.369 16.068 16.068 0 0 1 7.3-5.337 12.534 12.534 0 0 1 5.324-.542c2.2.279 3.722 1.2 4.412 2.661 1.062 2.248-.372 4.908-1.038 5.947l-.038.055a35.6 35.6 0 0 0-5.11 9.412c-1.635 4.583-1.994 8.637-2.49 14.248l-.011.129a22.508 22.508 0 0 0-.115 2.376 29.218 29.218 0 0 0 .33 3.7c.11.823.223 1.675.3 2.649a38.609 38.609 0 0 1-1.177 12.556 3.944 3.944 0 0 0 1.083 3.887l17.515 16.677zM36.515 86.339a4.488 4.488 0 1 1 4.488-4.488 4.493 4.493 0 0 1-4.488 4.488zm0-7.173a2.685 2.685 0 1 0 2.685 2.685 2.688 2.688 0 0 0-2.685-2.684zm12.684-39.945h-6.793v-1.8h4.99v-3.992h1.8zm-18.576 0H23.83v-5.8h1.8v3.992h4.985zm5.891-5.291a5.4 5.4 0 1 1 5.4-5.4 5.4 5.4 0 0 1-5.399 5.401zm0-8.993a3.595 3.595 0 1 0 3.595 3.595 3.6 3.6 0 0 0-3.594-3.593zm12.684-1.3h-1.8v-3.992h-4.99v-1.8h6.793zm-23.566 0h-1.8v-5.8h6.783v1.8h-4.99zm16.1-16.943H31.294v-1.8h10.435z" fill="#fff"/></svg>