<svg width="40" height="78" fill="none" xmlns="http://www.w3.org/2000/svg"><g clip-path="url(#clip0_2_1031)"><path d="M15.623 15.933c.66.426 1.326.83 1.994 1.214.32 3.74.841 7.34 1.536 10.763l.582-2.782a44.056 44.056 0 002.104-.822l-1.665 8.033a76.49 76.49 0 001.853 6.11l3.232-15.75c.747-.388 1.492-.8 2.232-1.235L23.27 41.72a58.589 58.589 0 002.07 4.508l5.691-27.052c.779-.55 1.55-1.126 2.311-1.73l-8.1 38.388a38.77 38.77 0 002.642 3.14L37.177 14.1a52.42 52.42 0 002.246-2.292h.121L25.966 77.634h-1.948l.764-3.691C10.025 61.719 0 35.872 0 6.173 0 4.095.049 2.036.145 0A52.394 52.394 0 001.94 2.694a129.466 129.466 0 00-.047 3.479c0 28.858 9.582 53.664 23.329 65.655l.899-4.341C13.09 56.197 4.823 32.964 4.786 6.35a52.797 52.797 0 001.913 2.13c.453 24.873 8.205 46.13 19.865 56.862l.855-4.128c-9.953-9.857-16.654-28.32-17.617-49.724a49.29 49.29 0 001.983 1.674c.992 16.46 5.436 30.849 11.97 40.585l.98-4.656c-4.812-8.46-8.167-20.067-9.112-33.161z" fill="url(#paint0_linear_2_1031)"/><path d="M16.31 70.438c-1.085-1.508-3.219-4.697-4.234-7.029.712 2.99 1.15 5.226 1.28 5.97l.018.007 1.77 8.235h1.972l-.924-4.24c1.28 1.512 2.717 2.897 4.231 4.254h2.393c-2.08-1.863-4.628-4.596-6.38-7.03a4.975 4.975 0 00-.126-.167z" fill="url(#paint1_linear_2_1031)"/></g><defs><linearGradient id="paint0_linear_2_1031" x1="26.828" y1="77.552" x2="-23.065" y2="12.562" gradientUnits="userSpaceOnUse"><stop stop-color="#ECBC48"/><stop offset=".16" stop-color="#F6D976" stop-opacity=".56"/><stop offset=".31" stop-color="#DAB966" stop-opacity=".36"/><stop offset=".56" stop-color="#A0621D" stop-opacity=".67"/><stop offset=".77" stop-color="#ECA24C"/><stop offset=".94" stop-color="#ECBC48" stop-opacity=".19"/></linearGradient><linearGradient id="paint1_linear_2_1031" x1="26.828" y1="77.552" x2="-23.065" y2="12.563" gradientUnits="userSpaceOnUse"><stop stop-color="#ECBC48"/><stop offset=".16" stop-color="#F6D976" stop-opacity=".56"/><stop offset=".31" stop-color="#DAB966" stop-opacity=".36"/><stop offset=".56" stop-color="#A0621D" stop-opacity=".67"/><stop offset=".77" stop-color="#ECA24C"/><stop offset=".94" stop-color="#ECBC48" stop-opacity=".19"/></linearGradient><clipPath id="clip0_2_1031"><path fill="#fff" d="M0 0h39.619v77.634H0z"/></clipPath></defs></svg>