<svg width="142" height="43" fill="none" xmlns="http://www.w3.org/2000/svg"><path fill-rule="evenodd" clip-rule="evenodd" d="M48.947.282v19.105h2.563V6.83l6.197 7.2 6.171-7.197v12.554h2.563V.28l-8.735 10.014L48.947.282zM12.235 3.627v15.76h2.563V1.102H.958v18.285h2.538V3.627h8.74zm7.497-2.526v18.286h2.562v-7.139h2.715c1.898 0 3.46-.552 4.552-1.545 1.094-.996 1.682-2.403 1.682-4.04 0-1.65-.587-3.052-1.684-4.039-1.092-.983-2.654-1.523-4.55-1.523h-5.277zm2.562 8.696V3.528h2.69c1.262 0 2.167.33 2.752.86.581.527.895 1.295.895 2.275 0 .992-.314 1.76-.894 2.282-.585.528-1.489.852-2.752.852h-2.69zm12.261 9.59V1.102h10.678v2.525h-8.14V8.76h6.669v2.526h-6.669v5.576h8.14v2.526H34.555zm36.806.777V1.101h2.537v12.836L86.55.326v19.061h-2.562V6.553L71.36 20.164zm23.188-8.471l-5.166 7.694h3.034l4.781-7.139h2.76v7.14h2.538V1.1h-5.424c-1.896 0-3.458.54-4.55 1.523-1.097.987-1.684 2.39-1.684 4.039 0 1.278.35 2.433 1.07 3.34.626.79 1.513 1.37 2.641 1.69zm2.547-1.896c-1.264 0-2.175-.324-2.766-.853-.586-.524-.905-1.29-.905-2.281 0-.978.319-1.746.906-2.273.592-.532 1.503-.862 2.765-.862h2.862v6.269h-2.862zm17.466 9.59V1.102h5.278c1.896 0 3.458.539 4.55 1.522 1.096.987 1.683 2.39 1.683 4.039 0 1.637-.587 3.044-1.682 4.04-1.092.993-2.653 1.545-4.551 1.545h-2.715v7.14h-2.563zm2.563-15.859h2.69c1.262 0 2.166.33 2.752.86.581.527.895 1.295.895 2.275 0 .992-.315 1.76-.894 2.282-.585.528-1.489.852-2.753.852h-2.69V3.528zm18.764 5.132h-3.965V3.627h8.434V1.101h-10.972v18.286h6.111c1.856 0 3.478-.444 4.644-1.343 1.179-.909 1.859-2.256 1.859-3.97 0-1.644-.617-3.01-1.71-3.96-1.088-.946-2.616-1.454-4.401-1.454zm-3.965 8.276v-5.849h3.892c1.214 0 2.118.312 2.711.816.587.498.91 1.216.91 2.12 0 .918-.323 1.629-.907 2.117-.593.495-1.497.796-2.714.796h-3.892zm-111.97 11.54c-3.874-.01-7.032 3.13-7.032 6.995a7.024 7.024 0 007.018 7.032 7.02 7.02 0 007.027-7.014c.01-3.863-3.13-7.003-7.013-7.013zm-.014 11.922a4.92 4.92 0 01-4.916-4.909c0-2.69 2.202-4.894 4.887-4.908 2.709-.014 4.934 2.156 4.949 4.861a4.907 4.907 0 01-4.92 4.956zm13.066-.094L33 40.31a.261.261 0 00-.047.07h4.937v2.124h-9.884l.479-.528v-.002c1.434-1.578 5.605-6.173 5.99-6.652a8.14 8.14 0 00.464-.655c.069-.104.137-.208.208-.31.284-.412.397-.875.444-1.362.062-.667-.142-1.243-.562-1.75a1.575 1.575 0 00-.819-.52c-.444-.122-.893-.179-1.343-.033-.766.251-1.215.804-1.409 1.57-.04.164-.052.331-.064.498l-.011.15c-.003.05-.003.1-.002.152l.002.084H29.16l.002-.039.004-.122a9.89 9.89 0 01.027-.496 4.944 4.944 0 01.388-1.56c.6-1.334 1.622-2.133 3.06-2.378.945-.161 1.872-.062 2.752.34.501.232.917.577 1.29.974.597.638.975 1.385 1.07 2.256.118 1.101-.076 2.141-.667 3.096-.426.69-.904 1.343-1.424 1.962-.581.694-1.168 1.382-1.755 2.069-.302.352-.602.704-.902 1.057zm-27.062.02l.098-.113c.552-.642 2.564-2.978 3.243-3.875.373-.492.719-1.003.998-1.555a4.38 4.38 0 00.45-1.73c.051-.827-.062-1.621-.479-2.349-.492-.855-1.173-1.512-2.095-1.89a4.63 4.63 0 00-2.555-.264c-1.458.25-2.489 1.063-3.085 2.415-.232.528-.34 1.086-.383 1.658-.01.113-.007.226-.003.34l.003.175H4.34v-.095a2.431 2.431 0 010-.174l.008-.115c.01-.152.02-.305.054-.452.175-.742.591-1.285 1.31-1.579.384-.156.776-.137 1.174-.07.487.084.904.297 1.197.709.345.486.52 1.01.459 1.615-.052.52-.19 1.002-.483 1.437-.213.317-.43.629-.657.931a12.72 12.72 0 01-.724.88c-.62.69-5.058 5.547-5.635 6.176a.795.795 0 00-.066.078l-.02.026h9.884v-2.127H5.907a.348.348 0 01.037-.052zm42.56-11.843c.005 0 .01.002.012.005v10.251h1.339v1.987h-1.334v1.779h-2.185v-1.774H39.97l4.605-6.618c1.307-1.879 2.614-3.755 3.92-5.635a.02.02 0 00.008.005zm-4.707 10.251h2.53V35.1l-1.103 1.583-1.427 2.05z" fill="#fff"/></svg>