<svg xmlns="http://www.w3.org/2000/svg" width="2610" height="1331" viewBox="0 0 2610 1331"><g><g transform="rotate(58 1271.765 768)"><g><path fill="none" stroke="#d0ac37" stroke-miterlimit="20" d="M305.05 1088.133v0l398.42-100.691v0l352.627 250.066v0l-147.24 363.873v0L528.22 1790.567v0l-293.388-341v0z"/></g><g><path fill="none" stroke="#d0ac37" stroke-miterlimit="20" d="M569.784 951.858v0l303.2-525.78v0l125.563 539.128v0l580.365 36.216v0l-503.2 344.02v0l-49.215 435.941v0l-386.91-435.941v0l-484.114-220.873v0z"/></g><g><path fill="none" stroke="#d0ac37" stroke-miterlimit="20" d="M979.894 467.817v0l398.42-100.692v0l352.626 250.067v0l-527.877 553.058v0z"/></g><g transform="rotate(43 928.26 1125.12)"><path fill="none" stroke="#d0ac37" stroke-miterlimit="20" d="M269.023 931.373v0L1022.92 501.06v0l564.579 583.082v0l-836.935 665.043v0z"/></g><g><path fill="none" stroke="#d0ac37" stroke-miterlimit="20" d="M1861.835-184.022v0l279.154-70.548v0l247.068 175.209v0l-103.164 254.949v0L2018.198 308.14v0L1812.636 69.219v0z"/></g></g></g></svg>