<svg xmlns="http://www.w3.org/2000/svg" width="1580" height="85.095" viewBox="0 0 1580 85.095">
  <path id="Контур_106990" data-name="Контур 106990" d="M-789.015-.005V-80.5h87.279v19.779h-63.131v11.039h57.726v18.4h-57.726v11.5h63.821V-.005Zm197.9-80.495h37.258L-552.7-.005h-23.919l-1.15-57.5.46-2.76-1.84-1.15-1.38,2.645L-608.821-9.78H-629.98l-28.288-48.987-1.61-2.645-1.84,1.15.69,2.76-1.15,57.5H-686.1l1.15-80.495h37.373l26.218,44.847.46,1.15h2.99l.46-1.15Zm119.822,0q15.179,0,24.378,7.647t9.2,21.791v1.15q0,9.889-4.37,16.386a26.209,26.209,0,0,1-11.5,9.6,38.17,38.17,0,0,1-15.409,3.1H-512V-.005h-24.148V-80.5Zm8.739,29.668a13.1,13.1,0,0,0-1.092-5.98,5.9,5.9,0,0,0-3.622-2.875,26.193,26.193,0,0,0-7.475-.8H-512v20.469h37.143a26.831,26.831,0,0,0,7.532-.8,5.971,5.971,0,0,0,3.68-2.817,12.722,12.722,0,0,0,1.092-5.922ZM-421.038-.005V-80.5h24.148V-.005ZM-309.84-80.5q31.163,0,31.163,25.413v1.725q0,14.259-14.489,19.319v.23a22.007,22.007,0,0,1,8.222,4.2,15.266,15.266,0,0,1,4.312,6.5,46.811,46.811,0,0,1,2.07,10.234A32.335,32.335,0,0,0-277.3-6.157,65.305,65.305,0,0,0-275-.005h-25.873q-.92-1.38-1.15-5.75-.46-8.854-4.427-13.109t-12.362-4.255h-35.763V-.005h-24.148V-80.5Zm6.325,28.173q0-4.6-2.645-6.382t-9.544-1.782h-38.868v18.169h38.638q7.13,0,9.774-1.84t2.645-6.67ZM-260.968-.005V-80.5h87.279v19.779H-236.82v11.039h57.726v18.4H-236.82v11.5H-173V-.005ZM-42.6-80.5q15.179,0,24.378,7.647t9.2,21.791v1.15q0,9.889-4.37,16.386a26.209,26.209,0,0,1-11.5,9.6,38.17,38.17,0,0,1-15.409,3.1H-83.3V-.005h-24.148V-80.5Zm8.739,29.668a13.1,13.1,0,0,0-1.092-5.98,5.9,5.9,0,0,0-3.622-2.875,26.193,26.193,0,0,0-7.475-.8H-83.3v20.469h37.143a26.831,26.831,0,0,0,7.532-.8,5.971,5.971,0,0,0,3.68-2.817,12.722,12.722,0,0,0,1.092-5.922ZM109.078-.005H82.86L75.27-13.574H20.994L13.4-.005H-12.814L34.678-80.5H61.471ZM31.573-32.2H64.691L51.237-60.491l-.345-.92h-5.52l-.345.92ZM189.458-80.5q31.163,0,31.163,25.413v1.725q0,14.259-14.489,19.319v.23a22.007,22.007,0,0,1,8.222,4.2,15.266,15.266,0,0,1,4.312,6.5,46.809,46.809,0,0,1,2.07,10.234A32.334,32.334,0,0,0,222-6.157a65.3,65.3,0,0,0,2.3,6.152H198.428q-.92-1.38-1.15-5.75-.46-8.854-4.427-13.109t-12.362-4.255H144.726V-.005H120.578V-80.5Zm6.325,28.173q0-4.6-2.645-6.382t-9.544-1.782H144.726v18.169h38.638q7.13,0,9.774-1.84t2.645-6.67ZM234.075-80.5H335.039v20.009H296.631V-.005H272.483V-60.491H234.075ZM433.243-29.443V-80.5h24.148V-.005h-30.7L377.126-53.592l-1.84-2.07-1.84,1.15.92,3.22V-.005H350.218V-80.5h30.7l49.562,53.587,1.84,2.07,1.84-1.15ZM475.1-.005V-80.5h87.279v19.779H499.248v11.039h57.726v18.4H499.248v11.5h63.821V-.005ZM648.049-80.5q31.163,0,31.163,25.413v1.725q0,14.259-14.489,19.319v.23a22.007,22.007,0,0,1,8.222,4.2,15.266,15.266,0,0,1,4.312,6.5,46.81,46.81,0,0,1,2.07,10.234,32.339,32.339,0,0,0,1.265,6.727,65.3,65.3,0,0,0,2.3,6.152H657.019q-.92-1.38-1.15-5.75-.46-8.854-4.427-13.109T639.08-23.119H603.317V-.005H579.168V-80.5Zm6.325,28.173q0-4.6-2.645-6.382t-9.544-1.782H603.317v18.169h38.638q7.13,0,9.774-1.84t2.645-6.67Zm125.112-5.865q-17.479-5.175-41.052-5.175-17.594,0-17.594,5.175a4.127,4.127,0,0,0,1.84,3.277,12.855,12.855,0,0,0,5.52,2.127q5.75,1.035,16.789,2.3,11.5,1.265,16.559,2.07,13.914,2.185,21.676,7.82a17.7,17.7,0,0,1,7.762,15.064q0,13.109-11.672,20.469t-36.855,7.36q-31.853,0-51.747-13.339l11.269-16.1q15.984,10.119,43.237,10.119,20.469,0,20.469-6.44,0-4.37-17.019-6.095-32.428-4.37-37.373-6.325a25.539,25.539,0,0,1-11.614-8.049,20.62,20.62,0,0,1-4.14-13.109q0-12.189,11.442-18.974T743.148-82.8q28.288,0,42.777,6.9Z" transform="translate(789.015 82.8)" fill="#bf9844"/>
</svg>
