<svg width="88" height="88" viewBox="0 0 88 88" fill="none" xmlns="http://www.w3.org/2000/svg">
<g clip-path="url(#clip0_1_45970)">
<mask id="mask0_1_45970" style="mask-type:alpha" maskUnits="userSpaceOnUse" x="10" y="3" width="63" height="82">
<path d="M50.3702 3.91101C40.6271 14.2335 48.2074 24.3097 50.319 26.7258C55.4524 26.7716 60.8012 27.058 66.0361 28.433V8.78984C62.9391 5.69276 56.9048 4.07798 50.3702 3.91101ZM45.9965 4.00692C40.0708 4.43908 34.1716 6.02342 30.0236 8.78984V28.433C34.5677 27.4607 40.1881 27.0354 46.2906 26.7833C43.2787 22.3865 39.0526 13.3833 45.9965 4.00692ZM45.3699 33.0881C36.6458 33.0959 28.5304 34.4871 23.7636 37.2699L23.4759 37.5257V58.6332V61.1717V67.7195V84.0888H33.2975V70.9933H36.5713V84.0888H46.3929V70.9933H49.6668V84.0888H59.4884V70.9933H62.7623V80.8149H72.5839V70.9933V44.8024C72.5839 41.7642 71.74 39.2487 70.64 37.2124C63.4277 34.4607 54.0939 33.0803 45.3699 33.0881ZM20.202 38.2546C14.7772 38.2546 10.3804 42.6515 10.3804 48.0762V61.1717H20.202V38.2546Z" fill="black"/>
</mask>
<g mask="url(#mask0_1_45970)">
<rect x="-56.6708" y="-56.6707" width="269.128" height="269.128" fill="#06DCFF"/>
</g>
</g>
<defs>
<clipPath id="clip0_1_45970">
<rect width="88" height="88" fill="white"/>
</clipPath>
</defs>
</svg>
