<svg width="214" height="263" viewBox="0 0 214 263" fill="none" xmlns="http://www.w3.org/2000/svg">
<path d="M100.419 232.812C100.402 231.71 100.568 230.516 101.323 229.712C102.078 228.908 103.576 228.765 104.2 229.678C104.452 230.039 104.52 230.498 104.526 230.941C104.56 232.594 103.845 234.161 103.416 235.757C103.016 237.25 103.125 238.651 103.519 240.092C101.3 238.605 100.459 235.35 100.419 232.812Z" fill="white" stroke="#1D1D1B" stroke-width="2" stroke-miterlimit="10"/>
<path d="M98.0588 235.625C95.4277 232.203 96.0969 227.961 98.4305 224.183C101.479 219.246 107.044 215.893 108.76 210.347C109.155 209.073 109.304 207.626 108.669 206.46C108.211 205.617 107.405 205.025 106.621 204.463L102.537 201.529C102.257 201.328 101.942 201.121 101.605 201.156C101.233 201.196 100.964 201.523 100.741 201.827C98.8366 204.451 97.4753 207.431 95.5993 210.072C92.7909 214.027 90.034 217.638 85.75 219.854C87.2028 226.393 92.0645 232.634 98.0588 235.619V235.625Z" fill="white" stroke="#1D1D1B" stroke-width="2" stroke-miterlimit="10"/>
<path d="M99.1101 236.797C98.7097 236.418 98.3665 236.028 98.0577 235.626C92.0577 232.641 87.2017 226.394 85.7489 219.861C85.3142 220.085 84.8624 220.303 84.3933 220.498C81.1331 221.853 78.0102 223.943 78.1532 228.008C78.2218 229.948 79.4859 231.458 80.9558 232.796C82.0254 233.766 83.2036 234.644 84.1016 235.528C86.3094 237.693 87.6364 240.121 89.4381 242.596C93.0358 247.539 100.203 249.473 105.785 247.01C107.026 246.465 108.273 245.615 108.668 244.312C110.178 239.283 101.489 239.025 99.1158 236.797H99.1101Z" fill="black" stroke="#1D1D1B" stroke-width="2" stroke-miterlimit="10"/>
<path d="M140.898 240.907C144.169 238.886 146.331 236.091 147.636 232.904C137.557 236.091 133.027 222.938 131.432 215.004C131.191 213.815 130.877 212.443 129.784 211.926C129.373 211.731 128.904 211.697 128.446 211.68C127.348 211.639 115.314 214.384 116.269 215.853C119.22 220.406 121.617 225.326 123.396 230.464C125.197 235.671 125.352 239.604 125.426 244.8C125.426 244.817 125.426 244.828 125.426 244.846C130.722 245.799 136.196 243.749 140.898 240.919V240.907Z" fill="white" stroke="#1D1D1B" stroke-width="2" stroke-linecap="round" stroke-linejoin="round"/>
<path d="M115.846 126.947C109.829 128.394 104.647 132.969 102.45 138.774C99.3332 147.006 102.136 156.135 102.674 164.924C103.343 175.89 100.374 186.815 95.93 196.85C94.9004 199.181 93.7622 201.495 92.5039 203.734C100.843 205.864 107.775 212.018 111.802 219.665C116.052 212.672 119.93 205.456 123.396 198.044C127.72 188.801 132.187 180.276 132.782 169.965C133.365 159.872 132.811 149.756 132.519 139.663C132.267 131.04 124.345 124.898 115.846 126.941V126.947Z" fill="white" stroke="#1D1D1B" stroke-width="2" stroke-miterlimit="10"/>
<path d="M109.095 126.552C105.949 123.704 98.0162 121.344 93.8237 121.976C90.9066 122.418 88.3499 124.364 86.7027 126.827C80.4682 136.139 82.3671 147.684 85.9534 157.467C90.7007 170.413 95.4481 183.371 99.4576 196.564C102.289 205.87 106.172 214.338 108.615 223.713C108.815 224.471 114.821 223.971 115.536 223.799C117.595 223.323 119.093 221.933 121.004 221.158C124.613 219.798 128.256 218.334 131.642 216.485C133.467 215.486 134.285 214.803 134.513 214.091C134.862 213.006 133.833 211.875 132.935 209.504C129.886 201.507 129.463 191.471 127.913 183.044C124.424 164.087 122.428 165.063 124.224 157.484" fill="white"/>
<path d="M109.095 126.552C105.949 123.704 98.0162 121.344 93.8237 121.976C90.9066 122.418 88.3499 124.364 86.7027 126.827C80.4682 136.139 82.3671 147.684 85.9534 157.467C90.7007 170.413 95.4481 183.371 99.4576 196.564C102.289 205.87 106.172 214.338 108.615 223.713C108.815 224.471 114.821 223.971 115.536 223.799C117.595 223.323 119.093 221.933 121.004 221.158C124.613 219.798 128.256 218.334 131.642 216.485C133.467 215.486 134.285 214.803 134.513 214.091C134.862 213.006 133.833 211.875 132.935 209.504C129.886 201.507 129.463 191.471 127.913 183.044C124.424 164.087 122.428 165.063 124.224 157.484" stroke="#1D1D1B" stroke-width="2" stroke-miterlimit="10"/>
<path d="M196.839 108.352C196.467 108.386 196.084 108.426 195.695 108.472C196.21 108.203 196.564 107.87 196.564 107.462C196.564 106.371 194.848 106.446 194.185 106.515C188.488 107.066 183.569 107.399 178.238 104.781C175.27 103.587 172.565 103.501 169.344 103.294C166.931 103.139 164.414 102.995 162.172 103.902C161.869 104.023 161.566 104.172 161.343 104.413C160.862 104.942 160.919 105.763 161.102 106.457C162.223 110.769 165.947 111.877 169.836 112.669C174.498 113.616 178.524 115.947 183.335 116.303C185.851 116.493 188.379 116.533 190.89 116.28C191.743 116.194 195.535 115.62 195.535 114.294C195.535 113.565 194.768 113.358 194.059 113.318C195.472 113.042 197.394 112.48 197.394 111.538C197.394 111.199 197.228 110.97 196.982 110.826C198.132 110.505 199.23 110.011 199.23 109.299C199.23 108.208 197.514 108.283 196.85 108.352H196.839Z" fill="white" stroke="#1D1D1B" stroke-width="2" stroke-miterlimit="10"/>
<path d="M171.223 102.651C172.241 103.288 173.43 103.638 174.632 103.655C176.714 103.684 178.647 103.42 180.734 103.604C182.599 103.764 184.407 103.701 186.145 102.926C186.517 102.76 186.883 102.57 187.289 102.542C187.695 102.513 188.147 102.697 188.284 103.081C188.439 103.506 188.153 103.96 187.85 104.298C186.963 105.297 185.825 106.078 184.567 106.532C184.378 106.601 184.178 106.669 184.04 106.813C183.92 106.939 183.863 107.106 183.8 107.266C183.171 108.822 181.638 109.965 179.968 110.114" fill="white"/>
<path d="M171.223 102.651C172.241 103.288 173.43 103.638 174.632 103.655C176.714 103.684 178.647 103.42 180.734 103.604C182.599 103.764 184.407 103.701 186.145 102.926C186.517 102.76 186.883 102.57 187.289 102.542C187.695 102.513 188.147 102.697 188.284 103.081C188.439 103.506 188.153 103.96 187.85 104.298C186.963 105.297 185.825 106.078 184.567 106.532C184.378 106.601 184.178 106.669 184.04 106.813C183.92 106.939 183.863 107.106 183.8 107.267C183.171 108.822 181.638 109.965 179.968 110.114" stroke="#1D1D1B" stroke-width="2" stroke-miterlimit="10"/>
<path d="M172.985 99.4417C172.413 99.304 171.841 99.1662 171.275 99.0284C170.319 98.7987 169.359 98.5576 168.398 98.3222C166.442 97.8342 164.491 97.3118 162.569 96.7147C157.324 95.0728 152.119 93.0347 147.464 90.0723C143.334 87.4429 140.274 83.5161 137.649 79.4457C135.206 75.6623 133.342 70.7652 129.773 67.8889C124.551 63.6865 118.328 65.7877 115.908 71.9134C113.409 78.2286 115.405 83.4644 118.35 89.2169C119.672 91.7947 121.136 94.3265 122.715 96.8008C124.545 99.6656 126.518 102.439 128.572 105.085C131.872 109.334 138.547 111.251 143.586 112.439C148.602 113.628 153.732 114.242 158.852 114.862C161.311 115.161 163.776 115.454 166.241 115.706C166.281 115.706 166.321 115.723 166.361 115.723C167.494 115.861 168.495 116.274 169.587 116.481C169.971 116.556 170.365 116.625 170.76 116.682C170.48 110.803 171.115 104.901 172.985 99.4417Z" fill="white" stroke="#1D1D1B" stroke-width="2" stroke-miterlimit="10"/>
<path d="M124.483 71.6032C124.803 71.6205 125.06 71.2932 125.078 70.966C125.095 70.6387 124.957 70.3345 124.814 70.0474C123.327 66.93 122.018 63.7265 120.891 60.4656C119.558 56.6248 121.257 52.3764 119.106 48.5988C117.602 45.9522 114.611 44.5457 111.705 43.6558C109.966 43.1276 108.09 42.7257 106.351 43.2597C104.613 43.7936 102.868 45.2346 102.96 47.0545C103.16 51.1134 103.303 55.4135 101.347 58.9729C99.7508 61.8836 99.5278 64.5532 100.855 67.7223C101.833 70.0704 103.411 72.1142 105.024 74.0776C107.398 76.9769 110.567 78.4753 114.302 78.5614C118.037 78.6475 122.469 74.7665 124.477 71.5975L124.483 71.6032Z" fill="white" stroke="#1D1D1B" stroke-width="2" stroke-miterlimit="10"/>
<path d="M183.393 102.996C183.393 102.996 184.96 102.916 185.744 102.944C194.684 103.289 203.612 103.782 212.535 104.42C211.511 104.965 210.688 105.872 210.23 106.94C210.036 107.405 209.875 107.939 209.446 108.197C209.201 108.347 208.903 108.381 208.617 108.41C201.622 109.133 194.558 109.214 187.552 108.645C185.727 108.496 183.902 108.306 182.112 107.933C181.174 107.738 180.408 107.623 179.567 107.193C178.726 106.762 177.851 106.326 176.89 106.09C176.284 105.947 176.106 105.849 175.746 105.338C177.622 105.011 183.393 102.984 183.393 102.984V102.996Z" fill="white" stroke="#1D1D1B" stroke-width="2" stroke-linecap="round" stroke-linejoin="round"/>
<path d="M181.204 111.246C183.309 111.384 185.414 111.527 187.524 111.665C189.069 111.768 190.613 111.872 192.157 111.975C194.977 112.164 197.797 112.348 200.622 112.371C202.178 112.383 203.728 112.474 205.278 112.578C206.382 112.647 207.475 112.848 208.584 112.876C208.967 112.888 209.637 112.974 209.986 112.79C210.352 112.595 210.666 111.854 210.758 111.47C210.821 111.211 210.826 110.942 210.838 110.672C210.861 109.931 210.883 109.185 210.901 108.444C210.906 108.22 210.912 107.979 210.792 107.79C210.483 107.296 209.448 107.342 208.945 107.336C208.098 107.33 207.251 107.319 206.405 107.307C203.694 107.273 200.983 107.21 198.272 107.124C193.456 106.969 188.645 106.733 183.841 106.418C182.182 106.308 180.541 106.09 178.899 105.838C178.081 105.711 177.263 105.591 176.451 105.453C176.051 105.384 174.907 105.195 175.467 106.067C175.524 106.159 175.61 106.234 175.656 106.331C175.879 106.819 175.055 107.371 175.33 107.836C175.359 107.887 175.399 107.933 175.427 107.985C175.582 108.289 175.204 108.616 175.227 108.955C175.244 109.248 175.553 109.495 175.502 109.782C175.45 110.057 175.101 110.241 175.267 110.545C175.53 111.033 177.332 110.959 177.784 110.993C178.928 111.091 180.072 111.165 181.21 111.24L181.204 111.246Z" fill="white" stroke="#1D1D1B" stroke-width="2" stroke-linecap="round" stroke-linejoin="round"/>
<path d="M212.566 110.235C212.727 109.948 213.053 109.162 212.932 108.846C212.887 108.726 212.784 108.628 212.784 108.496C212.778 108.306 212.995 108.151 212.978 107.962C212.961 107.801 212.789 107.715 212.704 107.583C212.446 107.181 213.001 106.578 212.704 106.205C212.658 106.154 212.606 106.113 212.561 106.056C212.441 105.901 212.481 105.677 212.561 105.493C212.641 105.31 212.761 105.149 212.795 104.954C212.944 104.11 211.994 104.707 211.72 104.925C211.308 105.258 210.965 105.677 210.656 106.108C210.158 106.814 209.186 108.169 210.044 108.955C210.096 109.001 210.158 109.053 210.17 109.122C210.176 109.173 210.158 109.225 210.136 109.271C210.055 109.449 209.953 109.621 209.918 109.816C209.884 110.012 209.918 110.23 210.073 110.35C210.107 110.379 210.153 110.402 210.17 110.442C210.181 110.465 210.181 110.494 210.176 110.523C210.153 110.746 210.015 110.942 209.953 111.16C209.89 111.378 209.953 111.665 210.17 111.728C210.256 111.981 210.033 112.285 210.004 112.543C209.981 112.744 210.01 112.94 210.027 113.14C210.204 112.871 210.524 112.721 210.759 112.503C211.039 112.245 211.314 111.986 211.577 111.705C211.96 111.298 212.298 110.723 212.572 110.235H212.566Z" fill="white" stroke="#1D1D1B" stroke-width="2" stroke-linecap="round" stroke-linejoin="round"/>
<path d="M196.973 112.187C196.836 110.614 196.699 109.041 196.561 107.463C196.544 107.267 196.527 107.066 196.59 106.883C196.659 106.687 196.807 106.532 196.956 106.389C198.071 105.275 199.198 104.19 200.457 103.26C199.261 103.203 198.066 103.117 196.87 103.013C196.138 102.944 195.52 102.984 194.811 103.059C193.919 103.157 192.964 102.939 192.066 102.87C191.168 102.807 191.025 103.317 190.424 103.915C189.635 104.69 188.794 105.459 188.211 106.406C187.679 107.273 188.033 108.37 188.091 109.323C188.142 110.235 188.194 111.143 188.245 112.055C188.954 112.015 196.968 112.141 196.973 112.187Z" fill="#1D1D1B" stroke="#1D1D1B" stroke-width="2" stroke-linecap="round" stroke-linejoin="round"/>
<path d="M177.229 97.3583C177.229 97.3583 178.796 97.2779 179.58 97.3066C188.52 97.6511 197.448 98.1448 206.371 98.7821C205.347 99.3275 204.524 100.235 204.066 101.302C203.872 101.767 203.711 102.301 203.282 102.56C203.036 102.709 202.739 102.743 202.453 102.772C195.458 103.495 188.394 103.576 181.387 103.007C179.563 102.858 177.738 102.669 175.948 102.296C175.01 102.1 174.244 101.986 173.403 101.555C172.562 101.124 171.687 100.688 170.726 100.453C170.12 100.309 169.942 100.212 169.582 99.7006C171.458 99.3734 177.229 97.3468 177.229 97.3468V97.3583Z" fill="white" stroke="#1D1D1B" stroke-width="2" stroke-linecap="round" stroke-linejoin="round"/>
<path d="M175.032 105.608C177.137 105.746 179.242 105.889 181.352 106.027C182.897 106.131 184.441 106.234 185.985 106.337C188.805 106.527 191.625 106.71 194.45 106.733C196.006 106.745 197.556 106.837 199.106 106.94C200.21 107.009 201.303 107.21 202.412 107.239C202.796 107.25 203.465 107.336 203.814 107.152C204.18 106.957 204.494 106.217 204.586 105.832C204.649 105.574 204.654 105.304 204.666 105.034C204.689 104.293 204.712 103.547 204.729 102.806C204.734 102.583 204.74 102.341 204.62 102.152C204.311 101.658 203.276 101.704 202.773 101.698C201.926 101.693 201.08 101.681 200.233 101.67C197.522 101.635 194.811 101.572 192.1 101.486C187.284 101.331 182.473 101.096 177.669 100.78C176.01 100.671 174.369 100.453 172.727 100.2C171.909 100.074 171.091 99.9532 170.279 99.8154C169.879 99.7465 168.735 99.557 169.295 100.43C169.353 100.522 169.438 100.596 169.484 100.694C169.707 101.182 168.884 101.733 169.158 102.198C169.187 102.25 169.227 102.296 169.255 102.347C169.41 102.651 169.032 102.979 169.055 103.317C169.072 103.61 169.381 103.857 169.33 104.144C169.278 104.42 168.929 104.603 169.095 104.908C169.358 105.396 171.16 105.321 171.612 105.356C172.756 105.453 173.9 105.528 175.038 105.602L175.032 105.608Z" fill="white" stroke="#1D1D1B" stroke-width="2" stroke-linecap="round" stroke-linejoin="round"/>
<path d="M206.398 104.598C206.559 104.311 206.885 103.524 206.765 103.208C206.719 103.088 206.616 102.99 206.616 102.858C206.61 102.669 206.827 102.514 206.81 102.324C206.793 102.164 206.622 102.077 206.536 101.945C206.278 101.544 206.833 100.941 206.536 100.568C206.49 100.516 206.438 100.476 206.393 100.418C206.273 100.263 206.313 100.039 206.393 99.8557C206.473 99.672 206.593 99.5112 206.627 99.316C206.776 98.4721 205.826 99.0691 205.552 99.2873C205.14 99.6203 204.797 100.039 204.488 100.47C203.99 101.176 203.018 102.531 203.876 103.318C203.928 103.363 203.99 103.415 204.002 103.484C204.008 103.536 203.99 103.587 203.968 103.633C203.888 103.811 203.785 103.983 203.75 104.179C203.716 104.374 203.75 104.592 203.905 104.713C203.939 104.741 203.985 104.764 204.002 104.804C204.013 104.827 204.013 104.856 204.008 104.885C203.985 105.109 203.847 105.304 203.785 105.522C203.722 105.74 203.785 106.027 204.002 106.09C204.088 106.343 203.865 106.647 203.836 106.906C203.813 107.107 203.842 107.302 203.859 107.503C204.036 107.233 204.357 107.084 204.591 106.865C204.871 106.607 205.146 106.349 205.409 106.067C205.792 105.66 206.13 105.086 206.404 104.598H206.398Z" fill="white" stroke="#1D1D1B" stroke-width="2" stroke-linecap="round" stroke-linejoin="round"/>
<path d="M190.805 106.55C190.668 104.977 190.531 103.403 190.393 101.825C190.376 101.63 190.359 101.429 190.422 101.245C190.491 101.05 190.639 100.895 190.788 100.751C191.903 99.6374 193.03 98.5523 194.289 97.6223C193.093 97.5648 191.898 97.4787 190.702 97.3754C189.97 97.3065 189.352 97.3467 188.643 97.4213C187.751 97.5189 186.796 97.3007 185.898 97.2319C185 97.1687 184.857 97.6797 184.256 98.2767C183.467 99.0518 182.626 99.8211 182.043 100.768C181.511 101.635 181.865 102.732 181.923 103.685C181.974 104.598 182.026 105.505 182.077 106.418C182.786 106.377 190.8 106.504 190.805 106.55Z" fill="#1D1D1B" stroke="#1D1D1B" stroke-width="2" stroke-linecap="round" stroke-linejoin="round"/>
<path d="M128.862 23.075C130.264 26.2556 131.299 30.9919 130.212 34.4136C129.692 36.0555 128.891 37.0774 129.074 38.794C129.56 43.2548 129.108 47.4573 127.615 51.7229C125.539 57.6591 120.443 57.3319 115.295 55.512C111.503 54.1743 107.94 51.6999 106.161 47.9797C104.125 47.6467 102.592 45.7235 101.717 43.8519C99.2172 38.5012 98.6968 32.1229 100.87 26.623C103.044 21.1288 108.048 16.7082 113.871 15.8068C119.694 14.9055 126.483 17.6612 128.862 23.0693V23.075Z" fill="white" stroke="#1D1D1B" stroke-width="2" stroke-miterlimit="10"/>
<path d="M105.112 36.6116C104.814 35.9686 104.5 35.3027 103.99 34.8089C103.481 34.3152 102.715 34.0167 102.046 34.2521C101.039 34.6023 100.742 35.8768 100.673 36.9446C100.604 38.0182 100.616 39.1262 100.999 40.1366C101.382 41.1471 102.206 42.0369 103.264 42.2379C104.322 42.4388 105.54 41.7556 105.706 40.6935" fill="white"/>
<path d="M105.112 36.6116C104.814 35.9686 104.5 35.3027 103.99 34.8089C103.481 34.3152 102.715 34.0167 102.046 34.2521C101.039 34.6023 100.742 35.8768 100.673 36.9446C100.604 38.0182 100.616 39.1262 100.999 40.1366C101.382 41.1471 102.206 42.0369 103.264 42.2379C104.322 42.4388 105.54 41.7556 105.706 40.6935" stroke="#1D1D1B" stroke-width="2" stroke-miterlimit="10"/>
<path d="M135.327 123.278C135.407 121.126 136.231 119.11 136.448 116.969C136.814 113.392 136.517 109.615 136.317 106.032C135.711 95.3425 134.521 84.6584 132.222 74.1982C132.079 73.5438 131.924 72.8893 131.758 72.2348C131.129 69.7719 130.288 67.3607 128.938 65.225C127.337 62.6932 124.683 60.1786 121.646 59.7078C122.916 63.629 123.167 70.5584 118.391 72.1028C113.324 73.739 109.64 69.4963 106.706 66.1034C104.859 63.962 103.863 61.4416 102.256 59.1969C100.283 56.4412 96.6566 59.283 94.5003 60.3623C91.0856 62.0731 87.8769 64.1916 84.9598 66.6602C83.4212 67.9692 81.9284 69.4102 81.019 71.2186C80.2583 72.7228 79.938 74.4107 79.6749 76.0813C77.7473 88.327 77.9246 100.831 78.9256 113.157C79.7778 123.663 79.8236 134.497 80.5557 145.117C80.6472 146.472 80.5214 147.982 81.4537 149.067C82.7349 150.56 85.5947 151.226 87.3907 151.766C92.0522 153.155 96.9998 153.453 101.833 153.006C107.753 152.46 113.736 151.524 119.49 150.187C124.843 148.941 131.758 145.824 137.272 146.277C136.975 138.716 135.047 130.799 135.333 123.29L135.327 123.278Z" fill="white" stroke="#1D1D1B" stroke-width="2" stroke-miterlimit="10"/>
<path d="M134.52 114.013C135 115.069 136.122 115.638 137.191 116.091C137.225 116.212 137.254 116.304 137.265 116.338C137.672 117.193 138.375 118.026 139.222 118.474C140.92 119.364 143.5 119.754 145.387 120.225C150.358 121.465 155.603 121.591 160.619 120.563C163.313 120.012 165.995 119.105 168.169 117.412C168.953 116.803 172.007 114.294 171.361 113.255C171.509 112.951 171.612 112.635 171.647 112.308C171.675 112.055 171.658 111.791 171.504 111.567C171.012 110.867 169.685 111.102 168.747 111.412C168.632 111.452 168.512 111.487 168.392 111.527C168.449 111.349 168.495 111.165 168.512 110.982C168.541 110.729 168.524 110.465 168.369 110.241C167.877 109.541 166.55 109.776 165.612 110.086C165.378 110.161 165.143 110.235 164.909 110.31C164.937 110.207 164.96 110.109 164.977 110C165.017 109.753 165.023 109.483 164.88 109.254C164.428 108.524 163.09 108.685 162.135 108.944C157.65 110.155 152.955 110.425 148.333 110.132C145.965 109.983 143.603 109.678 141.264 109.265C139.25 108.903 137.288 108.1 135.407 109.345C134.183 110.161 133.931 112.744 134.503 114.013H134.52Z" fill="white" stroke="#1D1D1B" stroke-width="2" stroke-miterlimit="10"/>
<path d="M82.6375 68.8823C77.2153 73.9632 75.7968 82.3336 76.0713 89.4525C76.3859 97.668 79.9149 104.167 85.4058 110.206C89.6441 114.868 95.6097 116.889 101.615 118.077C108.508 119.438 115.428 120.552 122.406 121.39C125.993 121.821 129.579 122.257 133.177 122.567C133.966 122.636 134.772 122.716 135.585 122.791C136.997 122.917 138.422 123.009 139.8 122.917C138.856 117.302 139.686 111.297 141.264 105.682C139.726 105.493 138.164 105.252 136.643 104.936C135.974 104.798 135.31 104.649 134.664 104.483C131.878 103.794 129.07 103.105 126.33 102.244C120.794 100.51 115.297 98.3626 110.384 95.2337C106.025 92.4608 102.794 88.31 100.02 84.0157" fill="white"/>
<path d="M82.6375 68.8823C77.2153 73.9632 75.7968 82.3336 76.0713 89.4525C76.3859 97.668 79.9149 104.167 85.4058 110.206C89.6441 114.868 95.6097 116.889 101.615 118.077C108.508 119.438 115.428 120.552 122.406 121.39C125.993 121.821 129.579 122.257 133.177 122.567C133.966 122.636 134.772 122.716 135.585 122.791C136.997 122.917 138.422 123.009 139.8 122.917C138.856 117.302 139.686 111.297 141.264 105.682C139.726 105.493 138.164 105.252 136.643 104.936C135.974 104.798 135.31 104.649 134.664 104.483C131.878 103.794 129.07 103.105 126.33 102.244C120.794 100.51 115.297 98.3626 110.384 95.2337C106.025 92.4608 102.794 88.31 100.02 84.0157" stroke="#1D1D1B" stroke-width="2" stroke-miterlimit="10"/>
<path d="M140.602 118.531C141.946 120.185 144.216 120.696 146.327 120.96C147.854 121.149 149.301 121.643 150.76 122.108C151.629 122.389 154.449 123.693 155.313 123.199C157.28 122.079 153.156 119.358 152.367 118.543C151.989 118.152 151.726 117.676 151.389 117.251C150.365 115.959 148.764 115.288 147.236 114.673" fill="white"/>
<path d="M140.602 118.531C141.946 120.185 144.216 120.696 146.327 120.96C147.854 121.149 149.301 121.643 150.76 122.108C151.629 122.389 154.449 123.693 155.313 123.199C157.28 122.079 153.156 119.358 152.367 118.543C151.989 118.152 151.726 117.676 151.389 117.251C150.365 115.959 148.764 115.288 147.236 114.673" stroke="#1D1D1B" stroke-width="2" stroke-miterlimit="10"/>
<path d="M146.475 109.667C146.475 109.667 148.043 109.586 148.826 109.615C157.766 109.959 166.694 110.453 175.617 111.09C174.593 111.636 173.77 112.543 173.312 113.611C173.118 114.076 172.957 114.61 172.528 114.868C172.283 115.017 171.985 115.052 171.699 115.08C164.704 115.804 157.64 115.884 150.634 115.316C148.809 115.167 146.984 114.977 145.194 114.604C144.256 114.409 143.49 114.294 142.649 113.863C141.808 113.433 140.933 112.996 139.972 112.761C139.366 112.618 139.188 112.52 138.828 112.009C140.704 111.682 146.475 109.655 146.475 109.655V109.667Z" fill="white" stroke="#1D1D1B" stroke-width="2" stroke-linecap="round" stroke-linejoin="round"/>
<path d="M144.278 117.916C146.383 118.054 148.488 118.198 150.599 118.336C152.143 118.439 153.687 118.542 155.231 118.646C158.051 118.835 160.871 119.019 163.697 119.042C165.252 119.053 166.802 119.145 168.352 119.248C169.456 119.317 170.549 119.518 171.658 119.547C172.042 119.558 172.711 119.645 173.06 119.461C173.426 119.266 173.74 118.525 173.832 118.14C173.895 117.882 173.9 117.612 173.912 117.342C173.935 116.602 173.958 115.855 173.975 115.115C173.981 114.891 173.986 114.65 173.866 114.46C173.557 113.967 172.522 114.013 172.019 114.007C171.172 114.001 170.326 113.99 169.479 113.978C166.768 113.944 164.057 113.88 161.346 113.794C156.53 113.639 151.72 113.404 146.915 113.088C145.256 112.979 143.615 112.761 141.973 112.508C141.155 112.382 140.337 112.262 139.525 112.124C139.125 112.055 137.981 111.865 138.541 112.738C138.599 112.83 138.684 112.905 138.73 113.002C138.953 113.49 138.13 114.041 138.404 114.506C138.433 114.558 138.473 114.604 138.501 114.656C138.656 114.96 138.278 115.287 138.301 115.626C138.318 115.919 138.627 116.165 138.576 116.452C138.524 116.728 138.175 116.912 138.341 117.216C138.604 117.704 140.406 117.629 140.858 117.664C142.002 117.761 143.146 117.836 144.284 117.911L144.278 117.916Z" fill="white" stroke="#1D1D1B" stroke-width="2" stroke-linecap="round" stroke-linejoin="round"/>
<path d="M175.645 116.906C175.805 116.619 176.131 115.833 176.011 115.517C175.965 115.396 175.862 115.299 175.862 115.167C175.856 114.977 176.074 114.822 176.056 114.633C176.039 114.472 175.868 114.386 175.782 114.254C175.524 113.852 176.079 113.249 175.782 112.876C175.736 112.824 175.685 112.784 175.639 112.727C175.519 112.572 175.559 112.348 175.639 112.164C175.719 111.98 175.839 111.82 175.873 111.624C176.022 110.78 175.073 111.377 174.798 111.596C174.386 111.929 174.043 112.348 173.734 112.778C173.237 113.484 172.264 114.839 173.122 115.626C173.174 115.672 173.237 115.723 173.248 115.792C173.254 115.844 173.237 115.896 173.214 115.942C173.134 116.12 173.031 116.292 172.996 116.487C172.962 116.682 172.996 116.9 173.151 117.021C173.185 117.05 173.231 117.073 173.248 117.113C173.259 117.136 173.259 117.164 173.254 117.193C173.231 117.417 173.094 117.612 173.031 117.83C172.968 118.049 173.031 118.336 173.248 118.399C173.334 118.651 173.111 118.956 173.082 119.214C173.059 119.415 173.088 119.61 173.105 119.811C173.282 119.541 173.603 119.392 173.837 119.174C174.117 118.915 174.392 118.657 174.655 118.376C175.038 117.968 175.376 117.394 175.65 116.906H175.645Z" fill="white" stroke="#1D1D1B" stroke-width="2" stroke-linecap="round" stroke-linejoin="round"/>
<path d="M160.055 118.858C159.918 117.285 159.781 115.712 159.643 114.133C159.626 113.938 159.609 113.737 159.672 113.553C159.741 113.358 159.889 113.203 160.038 113.059C161.153 111.946 162.28 110.861 163.539 109.931C162.343 109.873 161.148 109.787 159.952 109.684C159.22 109.615 158.602 109.655 157.893 109.73C157.001 109.827 156.046 109.609 155.148 109.54C154.25 109.477 154.107 109.988 153.506 110.585C152.717 111.36 151.876 112.129 151.293 113.077C150.761 113.944 151.115 115.04 151.173 115.993C151.224 116.906 151.276 117.813 151.327 118.726C152.036 118.686 160.05 118.812 160.055 118.858Z" fill="#1D1D1B" stroke="#1D1D1B" stroke-width="2" stroke-linecap="round" stroke-linejoin="round"/>
<path d="M5.43435 233.656C3.59834 235.516 2.06546 238.146 2.91769 240.586C3.57546 242.457 5.45151 243.651 7.30469 244.461C9.15787 245.27 11.1655 245.89 12.6698 247.222C15.8385 250.03 15.8842 255.197 19.1959 257.843C20.2598 258.693 21.5753 259.198 22.9023 259.565C24.8298 260.094 26.7059 259.973 28.6219 260.266C30.7783 260.593 32.4427 261.431 34.6562 260.553C37.2358 259.531 35.8802 255.696 33.2091 256.046C33.7811 255.972 34.3359 256.247 34.9079 256.356C35.4798 256.465 36.212 256.282 36.3321 255.73C36.5094 254.927 35.3197 254.588 34.4789 254.617C34.9994 254.709 35.5542 254.8 36.0347 254.582C36.5151 254.364 36.8011 253.698 36.4408 253.319C36.1376 253.227 35.8402 253.135 35.537 253.044C35.9431 253.342 36.5265 252.728 36.355 252.257C36.1834 251.786 35.6457 251.562 35.1481 251.436C32.7115 250.81 30.0118 251.252 27.7411 250.196C25.4075 249.111 24.0233 246.596 23.8117 244.088C23.6001 241.579 24.3951 239.093 25.4818 236.808C26.6544 234.339 28.2216 231.813 27.8612 229.115C27.3636 225.395 21.2264 218.54 17.4285 222.524C15.7298 224.31 14.6774 226.233 12.664 227.84C10.2446 229.769 7.60783 231.457 5.42863 233.668L5.43435 233.656Z" fill="white" stroke="#1D1D1B" stroke-width="2" stroke-linecap="round" stroke-linejoin="round"/>
<path d="M88.0207 247.877C88.9301 248.129 90.0226 247.75 90.463 246.912C90.9034 246.074 90.4687 244.851 89.5593 244.598C90.3028 245.167 91.5669 244.742 91.8186 243.835C92.0702 242.928 91.2123 241.906 90.28 242.003C90.8405 241.906 91.4125 241.728 91.8357 241.343C92.259 240.959 92.4935 240.321 92.2818 239.793C92.0702 239.265 91.3152 238.984 90.8805 239.351C91.5211 238.616 92.0359 237.772 92.3905 236.865C92.6193 236.274 92.7737 235.562 92.4077 235.045C92.2018 234.747 91.8529 234.574 91.4982 234.483C90.3314 234.19 89.096 234.747 88.1923 235.55C87.2886 236.354 86.6365 237.393 85.8586 238.312C85.0121 239.317 84.0169 240.184 83.0217 241.033C82.1695 241.762 81.2886 242.497 80.2534 242.928C79.0808 243.416 77.7824 243.485 76.5184 243.439C74.6938 243.376 72.8807 243.088 71.1247 242.589C68.0418 241.705 65.1362 240.166 61.9733 239.673C59.5996 239.305 57.1344 239.546 54.8751 240.379C51.4948 241.625 54.7035 246.636 55.3327 248.669C55.756 250.041 55.8704 251.505 55.6587 252.923C55.4986 254.002 55.1554 255.064 55.1726 256.155C55.184 257.108 55.4814 258.055 56.0133 258.848C57.0314 260.363 58.8789 261.213 60.7035 261.23C65.9599 261.276 67.6071 255.317 72.3602 254.088C74.322 253.583 76.3811 254.037 78.4059 254.1C80.7281 254.169 82.6385 253.732 84.4916 252.418C84.9893 252.062 85.5498 251.585 85.464 250.977C86.7623 251.482 87.8834 251.35 88.5297 250.093C88.9816 249.22 89.1818 248.198 88.0207 247.877Z" fill="white" stroke="#1D1D1B" stroke-width="2" stroke-linecap="round" stroke-linejoin="round"/>
<path d="M60.7817 183.422C59.3689 191.218 56.3432 198.63 52.9857 205.806C46.6998 219.246 39.1842 232.106 30.5646 244.168C29.8039 245.23 29.0146 246.315 27.9278 247.044C21.8078 239.139 13.6629 232.824 4.5 228.874C13.3655 223.397 19.171 214.068 23.3921 204.52C28.1795 193.704 31.3768 181.941 30.6561 170.131C30.0784 160.664 27.0584 150.83 30.4159 141.96C32.7838 135.708 38.3662 130.776 44.8466 129.221C48.6331 128.308 52.5968 128.715 56.3318 129.691C59.7007 130.575 60.4328 132.556 61.611 135.811C64.2306 143.051 65.489 151.72 63.9161 159.344C62.3431 166.968 62.223 175.419 60.776 183.422H60.7817Z" fill="white" stroke="#1D1D1B" stroke-width="2" stroke-miterlimit="10" stroke-linejoin="round"/>
<path d="M13.4654 129.089C8.11174 137.086 8.62079 146.134 9.83909 155.176C10.8 162.301 13.7914 169.385 16.8915 175.844C19.3852 181.039 22.3023 186.017 24.7789 191.218C29.6521 201.46 32.7693 212.403 36.5958 223.047C40.4222 233.691 45.833 244.122 50.6376 254.605C52.5994 252.596 55.6137 252.194 58.3477 251.562C65.034 250.007 70.8567 246.901 76.256 242.715C75.461 243.33 69.707 234.104 69.2723 232.99C67.8996 229.448 66.6012 225.883 65.3658 222.289C60.5326 208.263 56.6318 193.939 52.731 179.627C49.9283 169.333 47.1257 159.04 44.3173 148.746C43.242 144.808 42.1553 140.823 40.182 137.252C38.4375 134.101 36.0467 131.345 33.3813 128.928C29.9895 125.856 25.6483 123.187 21.1297 123.87C17.9839 124.346 15.2385 126.448 13.4596 129.094L13.4654 129.089Z" fill="white" stroke="#1D1D1B" stroke-width="2" stroke-miterlimit="10" stroke-linejoin="round"/>
<path d="M132.091 109.19C131.69 109.23 131.278 109.276 130.861 109.322C131.416 109.029 131.799 108.668 131.799 108.237C131.799 107.06 129.952 107.146 129.237 107.215C123.099 107.807 117.803 108.163 112.06 105.344C108.857 104.058 105.946 103.966 102.48 103.742C99.8774 103.57 97.172 103.42 94.7526 104.396C94.4266 104.528 94.1006 104.689 93.8603 104.948C93.3456 105.522 93.4028 106.4 93.5972 107.146C94.8098 111.791 98.8136 112.985 103.006 113.84C108.028 114.862 112.364 117.371 117.546 117.756C120.251 117.957 122.979 118.003 125.685 117.733C126.6 117.641 130.684 117.021 130.684 115.597C130.684 114.811 129.854 114.587 129.094 114.547C130.615 114.248 132.686 113.645 132.686 112.629C132.686 112.262 132.508 112.021 132.239 111.86C133.475 111.515 134.659 110.981 134.659 110.218C134.659 109.041 132.811 109.127 132.096 109.196L132.091 109.19Z" fill="white" stroke="#1D1D1B" stroke-width="2" stroke-miterlimit="10" stroke-linejoin="round"/>
<path d="M104.504 103.047C105.602 103.736 106.883 104.115 108.176 104.132C110.418 104.161 112.5 103.88 114.748 104.075C116.755 104.247 118.7 104.184 120.576 103.346C120.977 103.168 121.371 102.961 121.806 102.927C122.241 102.892 122.727 103.093 122.876 103.506C123.041 103.966 122.733 104.454 122.407 104.821C121.451 105.9 120.227 106.733 118.872 107.227C118.666 107.301 118.454 107.376 118.3 107.531C118.174 107.669 118.111 107.847 118.037 108.019C117.362 109.695 115.703 110.924 113.913 111.09" fill="white"/>
<path d="M104.504 103.047C105.602 103.736 106.883 104.115 108.176 104.132C110.418 104.161 112.5 103.88 114.748 104.075C116.755 104.247 118.7 104.184 120.576 103.346C120.977 103.168 121.371 102.961 121.806 102.927C122.241 102.892 122.727 103.093 122.876 103.506C123.041 103.966 122.733 104.454 122.407 104.821C121.451 105.9 120.227 106.733 118.872 107.227C118.666 107.301 118.454 107.376 118.3 107.531C118.174 107.669 118.111 107.847 118.037 108.019C117.362 109.695 115.703 110.924 113.913 111.09" stroke="#1D1D1B" stroke-width="2" stroke-miterlimit="10" stroke-linejoin="round"/>
<path d="M106.396 99.5911C105.778 99.4418 105.166 99.2926 104.554 99.1491C103.525 98.9022 102.489 98.6438 101.454 98.3855C99.5839 104.494 98.8518 110.838 99.2636 117.13C100.482 117.279 101.563 117.721 102.735 117.951C103.147 118.031 103.57 118.106 103.999 118.169C103.696 111.837 104.377 105.481 106.396 99.5969V99.5911Z" fill="white" stroke="#1D1D1B" stroke-width="2" stroke-miterlimit="10" stroke-linejoin="round"/>
<path d="M101.461 98.3854C99.3559 97.8572 97.2511 97.3003 95.1863 96.6516C89.5352 94.8833 83.9299 92.6903 78.9138 89.4982C74.4696 86.6679 71.1693 82.431 68.3381 78.0506C65.707 73.9744 63.6994 68.6984 59.8558 65.604C54.2333 61.0743 47.5299 63.3363 44.916 69.9385C42.2277 76.7359 44.3726 82.3793 47.547 88.5739C48.9655 91.3469 50.5499 94.0796 52.2486 96.7434C54.2162 99.8264 56.3439 102.817 58.5574 105.665C62.1151 110.241 69.3047 112.307 74.7327 113.588C80.1378 114.862 85.663 115.534 91.1768 116.194C93.8307 116.516 96.4789 116.831 99.1328 117.107C99.1786 117.107 99.2186 117.124 99.2587 117.13C98.8526 110.838 99.579 104.494 101.449 98.3854H101.461Z" fill="white" stroke="#1D1D1B" stroke-width="2" stroke-miterlimit="10" stroke-linejoin="round"/>
<path d="M54.964 69.1577C55.3072 69.1749 55.5817 68.819 55.6046 68.4745C55.6275 68.13 55.473 67.7971 55.3243 67.4813C53.7228 64.1228 52.3101 60.6724 51.0975 57.1589C49.6618 53.0196 51.4921 48.444 49.1757 44.3793C47.5513 41.526 44.3368 40.0104 41.2024 39.0574C39.3321 38.489 37.3073 38.0584 35.437 38.6268C33.5667 39.1951 31.6849 40.7567 31.7821 42.7144C31.9937 47.0891 32.1539 51.7164 30.0491 55.5514C28.3274 58.686 28.0929 61.5623 29.5171 64.9782C30.5753 67.51 32.274 69.7088 34.0071 71.8273C36.5638 74.9504 39.9727 76.5636 43.9994 76.6555C48.026 76.7474 52.7962 72.5679 54.9583 69.1577H54.964Z" fill="white" stroke="#1D1D1B" stroke-width="2" stroke-miterlimit="10" stroke-linejoin="round"/>
<path d="M58.8787 17.3333C60.3887 20.7607 61.504 25.8645 60.3315 29.5502C59.771 31.3185 58.9073 32.4208 59.1075 34.2694C59.6337 39.0689 59.1418 43.6043 57.5346 48.1972C55.2982 54.587 49.8073 54.2368 44.2649 52.2791C40.181 50.8381 36.3431 48.1742 34.427 44.167C32.2364 43.811 30.5834 41.7385 29.6397 39.7176C26.9457 33.9536 26.3909 27.0816 28.7302 21.1626C31.0696 15.2435 36.4633 10.4842 42.732 9.51398C49.0008 8.54374 56.3163 11.5119 58.8787 17.339V17.3333Z" fill="white" stroke="#1D1D1B" stroke-width="2" stroke-miterlimit="10" stroke-linejoin="round"/>
<path d="M23.4499 21.6333C23.0495 22.0122 23.1239 22.6552 23.2325 23.1949C24.7025 30.3655 27.5566 37.5303 26.4928 44.7698C26.8931 43.7364 27.2935 42.7087 27.6939 41.6753C28.1 43.3001 28.7635 44.8559 29.6386 46.2797L29.9017 41.7729C30.6281 42.8063 31.5318 43.7134 32.5671 44.431C30.4508 40.8773 29.3183 36.7438 29.324 32.6045C29.324 31.4907 29.4956 30.2219 30.4107 29.6019C31.6576 28.758 33.6309 30.2219 33.1905 31.6687C33.6309 30.1071 33.608 28.4193 33.1333 26.8692C33.6881 27.5753 34.2429 28.2815 34.7977 28.9876C34.9979 24.0503 35.4383 18.5734 39.0475 15.2091C39.3506 17.4768 38.7901 19.8479 37.5031 21.7309C42.4163 21.995 47.2209 18.1485 48.0617 13.2801C48.1246 14.4915 48.3763 15.6856 48.8052 16.8166C48.9597 15.2091 49.32 13.6246 49.8691 12.1089C50.1494 13.6073 50.8472 15.0254 51.8653 16.1564L51.9225 11.6382C53.3066 15.3469 56.338 18.4011 60.0272 19.8077C58.3113 17.7007 58.9805 14.1011 61.3371 12.7577C60.3361 12.6084 59.3695 12.2697 58.4886 11.7645C59.4724 10.0881 60.1931 8.26243 60.6221 6.36214C59.8271 7.61943 58.1283 8.21076 56.727 7.71703C58.1054 5.811 58.563 3.26771 57.9281 1C55.7489 3.8533 52.6603 6.0062 49.2342 7.05681C48.1932 4.68001 46.0598 2.80843 43.5717 2.08506C44.5898 2.96918 45.3849 4.11165 45.8653 5.38042C44.8987 4.75465 43.9378 4.13461 42.9712 3.50884C43.4688 4.41592 43.9664 5.32875 44.464 6.23584C39.5737 3.53754 33.6195 2.84862 28.2487 4.37C29.7415 5.05892 31.1657 5.89138 32.4984 6.85013C28.3802 6.40807 24.1248 9.02025 22.6377 12.9012C23.7187 12.0228 25.1887 11.6439 26.5614 11.8793C22.6091 14.1298 20.447 19.1589 21.5338 23.591C21.6882 22.3854 22.0943 21.2085 22.712 20.1636C22.4261 22.4658 23.0495 24.877 24.4222 26.7429" fill="white"/>
<path d="M23.4499 21.6333C23.0495 22.0122 23.1239 22.6552 23.2325 23.1949C24.7025 30.3655 27.5566 37.5303 26.4928 44.7698C26.8931 43.7364 27.2935 42.7087 27.6939 41.6753C28.1 43.3001 28.7635 44.8559 29.6386 46.2797L29.9017 41.7729C30.6281 42.8063 31.5318 43.7134 32.5671 44.431C30.4508 40.8773 29.3183 36.7438 29.324 32.6045C29.324 31.4907 29.4956 30.2219 30.4107 29.6019C31.6576 28.758 33.6309 30.2219 33.1905 31.6687C33.6309 30.1071 33.608 28.4193 33.1333 26.8692C33.6881 27.5753 34.2429 28.2815 34.7977 28.9876C34.9979 24.0503 35.4383 18.5734 39.0475 15.2091C39.3506 17.4768 38.7901 19.8479 37.5031 21.7309C42.4163 21.995 47.2209 18.1485 48.0617 13.2801C48.1246 14.4915 48.3763 15.6856 48.8052 16.8166C48.9597 15.2091 49.32 13.6246 49.8691 12.1089C50.1494 13.6073 50.8472 15.0254 51.8653 16.1564L51.9225 11.6382C53.3066 15.3469 56.338 18.4011 60.0272 19.8077C58.3113 17.7007 58.9805 14.1011 61.3371 12.7577C60.3361 12.6084 59.3695 12.2697 58.4886 11.7645C59.4724 10.0881 60.1931 8.26243 60.6221 6.36214C59.8271 7.61943 58.1283 8.21076 56.727 7.71703C58.1054 5.811 58.563 3.26771 57.9281 1C55.7489 3.8533 52.6603 6.0062 49.2342 7.05681C48.1932 4.68001 46.0598 2.80843 43.5717 2.08506C44.5898 2.96918 45.3849 4.11165 45.8653 5.38042C44.8987 4.75465 43.9378 4.13461 42.9712 3.50884C43.4688 4.41592 43.9664 5.32875 44.464 6.23584C39.5737 3.53754 33.6195 2.84862 28.2487 4.37C29.7415 5.05892 31.1657 5.89138 32.4984 6.85013C28.3802 6.40807 24.1248 9.02025 22.6377 12.9012C23.7187 12.0228 25.1887 11.6439 26.5614 11.8793C22.6091 14.1298 20.447 19.1589 21.5338 23.591C21.6882 22.3854 22.0943 21.2085 22.712 20.1636C22.4261 22.4658 23.0495 24.877 24.4222 26.7429" stroke="#1D1D1B" stroke-width="2" stroke-miterlimit="10" stroke-linejoin="round"/>
<path d="M33.2897 31.9155C32.9694 31.2208 32.6319 30.509 32.0828 29.975C31.5338 29.4411 30.7101 29.1196 29.9894 29.3722C28.9027 29.7511 28.5824 31.1232 28.508 32.2772C28.4337 33.4369 28.4451 34.631 28.8569 35.7161C29.2688 36.8011 30.161 37.7599 31.2935 37.9781C32.426 38.1962 33.7416 37.4614 33.9246 36.3132" fill="white"/>
<path d="M33.2897 31.9155C32.9694 31.2208 32.6319 30.509 32.0828 29.975C31.5338 29.4411 30.7101 29.1196 29.9894 29.3722C28.9027 29.7511 28.5824 31.1232 28.508 32.2772C28.4337 33.4369 28.4451 34.631 28.8569 35.7161C29.2688 36.8011 30.161 37.7599 31.2935 37.9781C32.426 38.1962 33.7416 37.4614 33.9246 36.3132" stroke="#1D1D1B" stroke-width="2" stroke-miterlimit="10" stroke-linejoin="round"/>
<path d="M41.8672 27.512C43.503 25.9619 46.2713 25.8011 48.0788 27.1503" stroke="#1D1D1B" stroke-width="2" stroke-linecap="round" stroke-linejoin="round"/>
<path d="M54.2383 26.9266C55.6911 25.9391 57.7559 25.9621 59.1858 26.9783" stroke="#1D1D1B" stroke-width="2" stroke-linecap="round" stroke-linejoin="round"/>
<path d="M43.6992 31.0084C45.1349 31.6227 46.7878 31.7088 48.2807 31.2495" stroke="#1D1D1B" stroke-width="2" stroke-linecap="round" stroke-linejoin="round"/>
<path d="M54.4609 30.9912C55.4333 31.6457 56.8403 31.5711 57.7383 30.8132" stroke="#1D1D1B" stroke-width="2" stroke-linecap="round" stroke-linejoin="round"/>
<path d="M52.5 34.344C53.1692 34.9813 53.8556 35.6817 54.0843 36.583C54.3131 37.4843 53.867 38.6211 52.9633 38.8048" stroke="#1D1D1B" stroke-width="2" stroke-linecap="round" stroke-linejoin="round"/>
<path d="M50.3281 41.9049C50.8715 41.7613 51.4377 41.6121 51.9868 41.7326C52.5359 41.8532 53.0507 42.3297 53.0164 42.8923C52.9878 43.3344 52.6446 43.6846 52.3186 43.9889C52.9592 43.8052 53.5826 44.517 53.5597 45.183C53.5369 45.849 53.0964 46.4288 52.6274 46.9111" stroke="#1D1D1B" stroke-width="2" stroke-linecap="round" stroke-linejoin="round"/>
<path d="M42.9871 70.2427C44.2912 70.9832 45.7154 71.6779 46.5562 72.9237C47.0709 73.6815 47.3226 74.5886 47.5457 75.4785C49.7706 84.2221 50.417 93.2815 50.8288 102.295C51.2463 111.429 51.7382 120.712 51.3779 129.852C51.1033 136.77 50.0795 145.548 47.0195 151.852C44.8574 156.307 34.2875 156.858 29.7518 157.271C24.5526 157.754 19.2218 157.426 14.1999 155.934C12.261 155.359 9.18378 154.636 7.80534 153.029C6.79295 151.852 6.93595 150.233 6.83299 148.769C6.04939 137.327 5.99792 125.661 5.07705 114.345C4.00175 101.066 3.813 87.6036 5.88352 74.4107C6.16379 72.6137 6.51269 70.7995 7.3306 69.1748C8.31439 67.2286 9.9159 65.6728 11.5746 64.2662C14.7147 61.6024 18.1751 59.3232 21.8529 57.4803C24.1751 56.3206 28.0816 53.2606 30.2036 56.2288C31.9367 58.6515 33.0063 61.367 34.9967 63.6692C37.2617 66.2871 39.9671 68.5261 42.9757 70.2312L42.9871 70.2427Z" fill="white" stroke="#1D1D1B" stroke-width="2" stroke-miterlimit="10" stroke-linejoin="round"/>
<path d="M61.9913 70.2887C62.1743 70.9891 62.3345 71.701 62.4889 72.4072C64.9655 83.6768 66.2467 95.1876 66.8988 106.698C67.1161 110.556 67.4364 114.627 67.0418 118.479C66.8072 120.781 65.9207 122.951 65.8349 125.271C65.5318 133.36 67.608 141.891 67.9283 150.032C64.6509 149.762 61.6367 151.283 58.4451 151.697C57.3469 151.84 54.5156 151.863 53.5204 151.525C52.039 151.019 51.61 149.395 51.101 147.73C49.0305 140.955 49.0533 134.25 48.5615 127.274C47.9666 118.835 47.4061 110.378 47.6577 101.916C47.8065 96.8583 48.2526 91.7947 47.8293 86.754C47.5148 83.0109 46.245 79.262 45.5586 75.5705C45.387 74.6576 44.4376 71.7929 44.9924 70.9145C45.4156 70.2428 47.5148 70.2945 48.3727 69.8007C49.6196 69.0773 50.632 67.8717 51.1468 66.5283C52.2964 63.5258 52.0676 59.8113 51.0953 56.7972C54.3669 57.3025 57.2268 60.0122 58.9484 62.7392C60.4012 65.0414 61.3049 67.6421 61.9856 70.2887H61.9913Z" fill="white" stroke="#1D1D1B" stroke-width="2" stroke-miterlimit="10" stroke-linejoin="round"/>
<path d="M53.554 69.284C54.2461 68.3941 54.8867 67.4411 55.8647 66.7924C56.8428 66.1436 58.2899 65.8795 59.2908 66.5053C59.9086 66.89 60.5434 67.5961 61.2184 67.3033C61.4929 67.1828 61.6473 66.9244 61.7446 66.6718C62.4081 64.9725 61.327 63.1525 60.1373 61.6886C59.3823 60.7585 51.758 53.7085 50.8028 55.7523C50.7342 55.9016 50.7628 56.0738 50.8028 56.2346C51.7866 61.1259 53.7828 68.8304 47.1937 70.2025C46.8334 70.2772 46.4444 70.3346 46.1756 70.5528C44.4254 71.9363 46.5703 73.5094 48.2404 73.1764C50.4654 72.7286 52.3357 70.8628 53.5597 69.2897L53.554 69.284Z" fill="black" stroke="#1D1D1B" stroke-width="2" stroke-miterlimit="10" stroke-linejoin="round"/>
<path d="M64.9706 115.293C65.4853 116.429 66.6922 117.044 67.8533 117.532C67.8876 117.664 67.9219 117.761 67.9334 117.796C68.3738 118.714 69.1288 119.616 70.0382 120.092C71.8685 121.051 74.6425 121.47 76.6787 121.981C82.0324 123.313 87.6834 123.451 93.0885 122.343C95.9884 121.746 98.8825 120.77 101.222 118.944C102.063 118.29 105.357 115.591 104.659 114.466C104.82 114.139 104.928 113.8 104.968 113.444C104.997 113.174 104.985 112.887 104.82 112.652C104.293 111.9 102.858 112.152 101.851 112.485C101.725 112.526 101.599 112.566 101.474 112.606C101.536 112.416 101.582 112.216 101.605 112.015C101.634 111.745 101.622 111.458 101.456 111.222C100.93 110.47 99.4946 110.723 98.4879 111.056C98.2362 111.142 97.9788 111.217 97.7272 111.297C97.7615 111.188 97.7844 111.079 97.8015 110.964C97.8473 110.694 97.8473 110.407 97.6929 110.16C97.2067 109.379 95.7653 109.552 94.7358 109.827C89.9084 111.13 84.8464 111.423 79.8703 111.107C77.3193 110.947 74.7741 110.62 72.2574 110.172C70.0897 109.787 67.9734 108.914 65.9486 110.264C64.6274 111.136 64.3586 113.926 64.9763 115.287L64.9706 115.293Z" fill="white" stroke="#1D1D1B" stroke-width="2" stroke-miterlimit="10" stroke-linejoin="round"/>
<path d="M24.4722 58.0086C23.5742 62.5498 24.1119 68.4803 25.0385 70.7997C26.1767 73.6472 28.6762 71.2762 30.2319 70.2428C31.0784 69.6859 31.9307 69.0601 32.903 68.9051C34.7619 68.6123 36.4149 70.0648 38.0279 71.1154C39.9153 72.344 42.0488 73.0961 44.2337 73.3143C44.5197 73.343 44.8171 73.3544 45.0688 73.2109C45.5378 72.9353 45.6179 72.1947 45.3891 71.6666C45.1603 71.1384 44.7142 70.7767 44.2909 70.4322C39.7552 66.712 35.883 62.0216 32.9316 56.7111C31.7534 54.5984 31.1871 51.9288 28.5618 52.2446C26.3311 52.5144 25.0785 54.9429 24.4722 58.0086Z" fill="black" stroke="#1D1D1B" stroke-width="2" stroke-miterlimit="10" stroke-linejoin="round"/>
<path d="M67.2517 105.493C66.531 105.344 65.816 105.183 65.1182 105.005C62.1154 104.264 59.0897 103.518 56.1383 102.594C50.1727 100.728 44.2528 98.4084 38.9621 95.0384C34.2663 92.0473 30.7887 87.5808 27.7973 82.9535C25.0176 78.6534 22.9013 73.0789 18.846 69.818C12.909 65.0357 5.83374 67.4239 3.07685 74.3936C0.239891 81.5699 2.50489 87.5234 5.85662 94.0624C7.35518 96.9904 9.02532 99.8781 10.8213 102.685C12.8975 105.941 15.1454 109.098 17.479 112.107C21.2368 116.941 28.8211 119.116 34.5523 120.471C40.2548 121.82 46.0889 122.521 51.9115 123.221C55.7723 123.686 59.6388 124.151 63.511 124.484C64.3575 124.559 65.2269 124.645 66.102 124.725C65.1297 118.278 65.1297 111.808 67.246 105.487L67.2517 105.493Z" fill="white" stroke="#1D1D1B" stroke-width="2" stroke-miterlimit="10" stroke-linejoin="round"/>
<path d="M70.6486 124.863C69.6305 118.812 70.5228 112.348 72.2273 106.297C70.5685 106.096 68.887 105.832 67.2511 105.493C65.1406 111.814 65.1406 118.278 66.1072 124.731C67.6286 124.869 69.1615 124.961 70.6486 124.863Z" fill="white" stroke="#1D1D1B" stroke-width="2" stroke-miterlimit="10" stroke-linejoin="round"/>
<path d="M71.5195 120.155C72.9666 121.935 75.4146 122.486 77.6853 122.773C79.3269 122.98 80.8884 123.508 82.4556 124.013C83.3936 124.312 86.4307 125.718 87.3573 125.19C89.4736 123.985 85.0351 121.057 84.1886 120.173C83.7825 119.753 83.4965 119.237 83.1362 118.777C82.0323 117.382 80.3107 116.665 78.6634 115.999" fill="white"/>
<path d="M71.5195 120.155C72.9666 121.935 75.4146 122.486 77.6853 122.773C79.3269 122.98 80.8884 123.508 82.4556 124.013C83.3936 124.312 86.4307 125.718 87.3573 125.19C89.4736 123.985 85.0351 121.057 84.1886 120.173C83.7825 119.753 83.4965 119.237 83.1362 118.777C82.0323 117.382 80.3107 116.665 78.6634 115.999" stroke="#1D1D1B" stroke-width="2" stroke-miterlimit="10" stroke-linejoin="round"/>
<path d="M114.52 105.326C114.52 105.326 115.99 105.252 116.728 105.28C125.118 105.608 133.503 106.067 141.877 106.664C140.916 107.175 140.144 108.025 139.715 109.029C139.532 109.466 139.383 109.965 138.977 110.212C138.748 110.356 138.468 110.384 138.199 110.413C131.633 111.09 125.004 111.165 118.426 110.631C116.716 110.493 115 110.31 113.319 109.965C112.438 109.787 111.723 109.678 110.928 109.271C110.133 108.863 109.321 108.455 108.411 108.237C107.845 108.099 107.673 108.007 107.336 107.531C109.098 107.227 114.52 105.321 114.52 105.321V105.326Z" fill="white" stroke="#1D1D1B" stroke-width="2" stroke-linecap="round" stroke-linejoin="round"/>
<path d="M141.082 103.902C140.424 105.797 139.823 106.262 138.799 107.984C137.758 108.702 135.974 109.104 134.361 109.127C131.724 109.167 127.863 108.754 125.227 108.857C125.598 108.846 126.422 108.025 126.742 107.806C127.194 107.491 127.635 107.169 128.098 106.876C128.664 106.515 129.865 105.55 130.54 105.585C133.017 105.694 134.95 105.728 137.198 105.332C138.559 105.097 139.817 104.459 141.087 103.914L141.082 103.902Z" fill="white" stroke="#1D1D1B" stroke-width="2" stroke-linecap="round" stroke-linejoin="round"/>
<path d="M112.462 113.071C114.441 113.203 116.414 113.335 118.393 113.467C119.84 113.565 121.293 113.662 122.74 113.76C125.388 113.938 128.031 114.11 130.684 114.133C132.143 114.144 133.602 114.231 135.054 114.328C136.09 114.397 137.119 114.581 138.16 114.61C138.52 114.621 139.15 114.701 139.476 114.529C139.819 114.345 140.116 113.651 140.202 113.289C140.259 113.042 140.271 112.79 140.276 112.537C140.299 111.842 140.316 111.142 140.339 110.447C140.345 110.235 140.351 110.011 140.236 109.833C139.95 109.368 138.972 109.414 138.503 109.408C137.708 109.402 136.913 109.391 136.118 109.385C133.573 109.351 131.028 109.293 128.488 109.213C123.97 109.069 119.457 108.846 114.944 108.553C113.388 108.449 111.844 108.243 110.305 108.013C109.539 107.898 108.772 107.783 108.006 107.651C107.628 107.588 106.553 107.41 107.085 108.225C107.142 108.312 107.217 108.38 107.262 108.472C107.474 108.932 106.702 109.448 106.954 109.885C106.982 109.931 107.022 109.976 107.045 110.022C107.194 110.304 106.839 110.614 106.856 110.935C106.873 111.211 107.165 111.44 107.114 111.716C107.062 111.974 106.742 112.147 106.891 112.434C107.137 112.887 108.83 112.818 109.253 112.853C110.322 112.945 111.398 113.014 112.473 113.082L112.462 113.071Z" fill="white" stroke="#1D1D1B" stroke-width="2" stroke-linecap="round" stroke-linejoin="round"/>
<path d="M119.354 108.794C119.565 108.794 119.788 108.782 119.977 108.679C120.229 108.541 120.366 108.26 120.503 108.007C120.967 107.117 121.561 106.291 122.254 105.562C122.008 105.418 121.71 105.401 121.424 105.395C118.679 105.309 115.15 105.556 113.073 103.369C113.016 103.311 112.959 103.248 112.879 103.231C112.782 103.214 112.69 103.271 112.61 103.323C110.917 104.442 109.064 105.309 107.125 105.895C108.092 106.767 109.659 107.227 110.883 107.582C112.256 107.979 113.663 108.225 115.064 108.461C116.482 108.696 117.918 108.828 119.354 108.8V108.794Z" fill="white" stroke="#1D1D1B" stroke-width="2" stroke-linecap="round" stroke-linejoin="round"/>
<path d="M141.902 112.124C142.051 111.854 142.36 111.113 142.245 110.821C142.205 110.706 142.108 110.614 142.102 110.493C142.102 110.315 142.303 110.172 142.28 109.994C142.263 109.845 142.102 109.764 142.022 109.638C141.776 109.259 142.297 108.691 142.022 108.346C141.982 108.294 141.931 108.26 141.891 108.208C141.782 108.059 141.817 107.852 141.891 107.68C141.965 107.508 142.08 107.359 142.108 107.175C142.245 106.383 141.353 106.94 141.102 107.146C140.713 107.462 140.392 107.852 140.106 108.254C139.637 108.915 138.728 110.189 139.529 110.93C139.58 110.976 139.637 111.021 139.643 111.09C139.649 111.136 139.632 111.188 139.614 111.228C139.54 111.395 139.443 111.555 139.409 111.739C139.374 111.923 139.409 112.129 139.552 112.239C139.586 112.262 139.626 112.284 139.643 112.325C139.654 112.348 139.649 112.376 139.643 112.399C139.62 112.612 139.494 112.79 139.437 112.996C139.38 113.203 139.437 113.473 139.637 113.53C139.723 113.766 139.511 114.053 139.483 114.294C139.46 114.483 139.489 114.667 139.506 114.856C139.672 114.604 139.975 114.46 140.198 114.259C140.461 114.018 140.718 113.771 140.964 113.513C141.325 113.128 141.645 112.589 141.902 112.135V112.124Z" fill="white" stroke="#1D1D1B" stroke-width="2" stroke-linecap="round" stroke-linejoin="round"/>
<path d="M127.263 113.955C127.131 112.48 127.006 110.998 126.874 109.523C126.857 109.339 126.845 109.156 126.903 108.983C126.966 108.8 127.109 108.656 127.246 108.518C128.292 107.473 129.351 106.452 130.535 105.579C129.414 105.521 128.287 105.447 127.171 105.344C126.485 105.28 125.907 105.315 125.238 105.384C124.397 105.476 123.505 105.269 122.664 105.206C121.824 105.143 121.692 105.631 121.126 106.187C120.382 106.917 119.599 107.634 119.044 108.53C118.546 109.339 118.878 110.373 118.929 111.268C118.975 112.124 119.027 112.979 119.072 113.835C119.736 113.794 127.263 113.921 127.263 113.955Z" fill="#1D1D1B" stroke="#1D1D1B" stroke-width="2" stroke-linecap="round" stroke-linejoin="round"/>
<path d="M80.6746 109.77C80.6746 109.77 82.2417 109.69 83.0253 109.718C91.9652 110.063 100.894 110.556 109.816 111.194C108.793 111.739 107.969 112.646 107.511 113.714C107.317 114.179 107.157 114.713 106.728 114.971C106.482 115.121 106.184 115.155 105.898 115.184C98.9032 115.907 91.8394 115.987 84.8328 115.419C83.0082 115.27 81.1836 115.08 79.3933 114.707C78.4553 114.512 77.6889 114.397 76.8481 113.967C76.0073 113.536 75.1322 113.1 74.1713 112.864C73.565 112.721 73.3877 112.623 73.0273 112.112C74.9034 111.785 80.6746 109.758 80.6746 109.758V109.77Z" fill="white" stroke="#1D1D1B" stroke-width="2" stroke-linecap="round" stroke-linejoin="round"/>
<path d="M78.4775 118.02C80.5823 118.158 82.6872 118.301 84.7977 118.439C86.3421 118.542 87.8864 118.645 89.4307 118.749C92.2505 118.938 95.0703 119.122 97.8958 119.145C99.4516 119.156 101.002 119.248 102.552 119.352C103.656 119.421 104.748 119.621 105.858 119.65C106.241 119.662 106.91 119.748 107.259 119.564C107.625 119.369 107.94 118.628 108.031 118.244C108.094 117.985 108.1 117.715 108.111 117.446C108.134 116.705 108.157 115.959 108.174 115.218C108.18 114.994 108.186 114.753 108.065 114.564C107.757 114.07 106.721 114.116 106.218 114.11C105.371 114.104 104.525 114.093 103.678 114.081C100.967 114.047 98.2562 113.984 95.545 113.898C90.7291 113.743 85.9188 113.507 81.1143 113.191C79.4556 113.082 77.814 112.864 76.1725 112.612C75.3545 112.485 74.5366 112.365 73.7244 112.227C73.3241 112.158 72.1801 111.969 72.7407 112.841C72.7979 112.933 72.8836 113.008 72.9294 113.105C73.1525 113.593 72.3288 114.145 72.6034 114.61C72.632 114.661 72.672 114.707 72.7006 114.759C72.855 115.063 72.4775 115.39 72.5004 115.729C72.5176 116.022 72.8264 116.269 72.775 116.556C72.7235 116.831 72.3746 117.015 72.5405 117.319C72.8036 117.807 74.6053 117.733 75.0571 117.767C76.2011 117.865 77.345 117.939 78.4832 118.014L78.4775 118.02Z" fill="white" stroke="#1D1D1B" stroke-width="2" stroke-linecap="round" stroke-linejoin="round"/>
<path d="M109.844 117.009C110.004 116.722 110.33 115.936 110.21 115.62C110.164 115.5 110.061 115.402 110.061 115.27C110.055 115.08 110.273 114.925 110.256 114.736C110.238 114.575 110.067 114.489 109.981 114.357C109.724 113.955 110.278 113.352 109.981 112.979C109.935 112.928 109.884 112.887 109.838 112.83C109.718 112.675 109.758 112.451 109.838 112.267C109.918 112.084 110.038 111.923 110.073 111.728C110.221 110.884 109.272 111.481 108.997 111.699C108.585 112.032 108.242 112.451 107.933 112.882C107.436 113.588 106.463 114.943 107.321 115.729C107.373 115.775 107.436 115.827 107.447 115.896C107.453 115.947 107.436 115.999 107.413 116.045C107.333 116.223 107.23 116.395 107.196 116.59C107.161 116.785 107.196 117.004 107.35 117.124C107.384 117.153 107.43 117.176 107.447 117.216C107.459 117.239 107.459 117.268 107.453 117.296C107.43 117.52 107.293 117.716 107.23 117.934C107.167 118.152 107.23 118.439 107.447 118.502C107.533 118.755 107.31 119.059 107.281 119.317C107.258 119.518 107.287 119.713 107.304 119.914C107.482 119.645 107.802 119.495 108.036 119.277C108.317 119.019 108.591 118.76 108.854 118.479C109.237 118.071 109.575 117.497 109.849 117.009H109.844Z" fill="white" stroke="#1D1D1B" stroke-width="2" stroke-linecap="round" stroke-linejoin="round"/>
<path d="M94.2467 118.961C94.1094 117.388 93.9721 115.815 93.8349 114.236C93.8177 114.041 93.8005 113.84 93.8635 113.657C93.9321 113.461 94.0808 113.306 94.2295 113.163C95.3449 112.049 96.4716 110.964 97.73 110.034C96.5346 109.977 95.3391 109.89 94.1437 109.787C93.4116 109.718 92.7939 109.758 92.0846 109.833C91.1924 109.931 90.2372 109.712 89.3392 109.644C88.4412 109.58 88.2982 110.091 87.6976 110.688C86.9083 111.464 86.0675 112.233 85.4841 113.18C84.9522 114.047 85.3068 115.144 85.364 116.097C85.4155 117.009 85.467 117.916 85.5184 118.829C86.2277 118.789 94.241 118.915 94.2467 118.961Z" fill="#1D1D1B" stroke="#1D1D1B" stroke-width="2" stroke-linecap="round" stroke-linejoin="round"/>
<path d="M87.0339 104.121C87.0339 104.121 88.6011 104.04 89.3847 104.069C98.3246 104.414 107.253 104.907 116.176 105.545C115.152 106.09 114.328 106.997 113.871 108.065C113.676 108.53 113.516 109.064 113.087 109.322C112.841 109.471 112.544 109.506 112.258 109.535C105.263 110.258 98.1988 110.338 91.1921 109.77C89.3676 109.621 87.543 109.431 85.7527 109.058C84.8147 108.863 84.0483 108.748 83.2075 108.317C82.3667 107.887 81.4916 107.451 80.5307 107.215C79.9244 107.072 79.7471 106.974 79.3867 106.463C81.2628 106.136 87.0339 104.109 87.0339 104.109V104.121Z" fill="white" stroke="#1D1D1B" stroke-width="2" stroke-linecap="round" stroke-linejoin="round"/>
<path d="M84.8447 112.371C86.9495 112.508 89.0544 112.652 91.1649 112.79C92.7092 112.893 94.2536 112.996 95.7979 113.1C98.6177 113.289 101.437 113.473 104.263 113.496C105.819 113.507 107.369 113.599 108.919 113.702C110.023 113.771 111.115 113.972 112.225 114.001C112.608 114.012 113.277 114.099 113.626 113.915C113.992 113.72 114.307 112.979 114.398 112.594C114.461 112.336 114.467 112.066 114.478 111.796C114.501 111.056 114.524 110.31 114.541 109.569C114.547 109.345 114.553 109.104 114.433 108.914C114.124 108.421 113.088 108.467 112.585 108.461C111.739 108.455 110.892 108.444 110.046 108.432C107.334 108.398 104.623 108.335 101.912 108.248C97.0962 108.093 92.286 107.858 87.4815 107.542C85.8227 107.433 84.1812 107.215 82.5396 106.962C81.7217 106.836 80.9038 106.716 80.0916 106.578C79.6912 106.509 78.5473 106.319 79.1078 107.192C79.165 107.284 79.2508 107.359 79.2966 107.456C79.5197 107.944 78.696 108.495 78.9706 108.96C78.9992 109.012 79.0392 109.058 79.0678 109.11C79.2222 109.414 78.8447 109.741 78.8676 110.08C78.8848 110.373 79.1936 110.62 79.1422 110.907C79.0907 111.182 78.7418 111.366 78.9076 111.67C79.1708 112.158 80.9725 112.084 81.4243 112.118C82.5682 112.216 83.7122 112.29 84.8504 112.365L84.8447 112.371Z" fill="white" stroke="#1D1D1B" stroke-width="2" stroke-linecap="round" stroke-linejoin="round"/>
<path d="M116.207 111.36C116.367 111.073 116.693 110.287 116.573 109.971C116.527 109.85 116.424 109.753 116.424 109.621C116.419 109.431 116.636 109.276 116.619 109.087C116.602 108.926 116.43 108.84 116.344 108.708C116.087 108.306 116.642 107.703 116.344 107.33C116.299 107.278 116.247 107.238 116.201 107.181C116.081 107.026 116.121 106.802 116.201 106.618C116.281 106.434 116.402 106.274 116.436 106.078C116.585 105.235 115.635 105.832 115.361 106.05C114.949 106.383 114.606 106.802 114.297 107.232C113.799 107.939 112.827 109.293 113.685 110.08C113.736 110.126 113.799 110.178 113.81 110.246C113.816 110.298 113.799 110.35 113.776 110.396C113.696 110.574 113.593 110.746 113.559 110.941C113.525 111.136 113.559 111.354 113.713 111.475C113.748 111.504 113.793 111.527 113.81 111.567C113.822 111.59 113.822 111.619 113.816 111.647C113.793 111.871 113.656 112.066 113.593 112.285C113.53 112.503 113.593 112.79 113.81 112.853C113.896 113.106 113.673 113.41 113.645 113.668C113.622 113.869 113.65 114.064 113.668 114.265C113.845 113.995 114.165 113.846 114.4 113.628C114.68 113.37 114.954 113.111 115.218 112.83C115.601 112.422 115.938 111.848 116.213 111.36H116.207Z" fill="white" stroke="#1D1D1B" stroke-width="2" stroke-linecap="round" stroke-linejoin="round"/>
<path d="M100.614 113.312C100.477 111.739 100.339 110.166 100.202 108.587C100.185 108.392 100.168 108.191 100.231 108.007C100.299 107.812 100.448 107.657 100.597 107.514C101.712 106.4 102.839 105.315 104.097 104.385C102.902 104.327 101.706 104.241 100.511 104.138C99.7788 104.069 99.1611 104.109 98.4518 104.184C97.5596 104.281 96.6044 104.063 95.7064 103.994C94.8084 103.931 94.6654 104.442 94.0648 105.039C93.2755 105.814 92.4347 106.584 91.8513 107.531C91.3194 108.398 91.674 109.494 91.7312 110.447C91.7827 111.36 91.8342 112.267 91.8856 113.18C92.5949 113.14 100.608 113.266 100.614 113.312Z" fill="#1D1D1B" stroke="#1D1D1B" stroke-width="2" stroke-linecap="round" stroke-linejoin="round"/>
<path d="M138.712 239.942C141.16 238.874 143.751 237.565 144.946 235.166C145.37 234.322 145.587 233.386 146.073 232.576C146.434 231.979 146.92 231.468 147.406 230.969C149.9 228.386 152.428 225.779 155.471 223.885C156.66 223.144 158.165 222.512 159.411 223.155C160.098 223.511 160.555 224.2 160.847 224.912C161.511 226.525 161.465 228.351 161.15 230.073C159.812 237.416 153.303 243.496 145.913 244.305C143.963 244.518 141.909 244.42 140.142 245.27C138.958 245.838 138.003 246.786 136.973 247.607C134.845 249.312 132.049 250.615 129.263 250.276C124.504 249.702 123.24 244.007 124.945 240.103C128.182 244.231 134.645 241.716 138.712 239.942Z" fill="black" stroke="#1D1D1B" stroke-width="2" stroke-miterlimit="10"/>
<path d="M141.224 234.432C139.686 233.599 138.221 232.158 138.296 230.407C138.313 230.08 138.381 229.747 138.559 229.471C138.931 228.903 139.691 228.696 140.36 228.794C141.03 228.891 141.636 229.23 142.237 229.552C144.622 230.838 146.978 231.641 149.626 232.072C149.38 233.823 149.392 235.293 147.516 235.775C145.64 236.257 142.889 235.327 141.218 234.432H141.224Z" fill="white" stroke="#1D1D1B" stroke-width="2" stroke-miterlimit="10"/>
<path d="M145.668 226.996C144.638 226.411 143.586 225.751 142.985 224.734C142.385 223.718 142.373 222.237 143.283 221.474C144.243 220.664 145.759 221.003 146.737 221.789C147.715 222.576 148.35 223.701 149.18 224.648C150.221 225.848 151.588 226.761 153.086 227.272C152.806 227.174 152.314 229.092 152.062 229.276C151.273 229.861 151.691 229.603 150.575 229.408C148.979 229.126 147.075 227.783 145.679 226.996H145.668Z" fill="white" stroke="#1D1D1B" stroke-width="2" stroke-miterlimit="10"/>
<path d="M94.2596 233.788C94.128 232.111 94.3625 230.303 95.4607 229.034C96.1013 228.294 97.331 227.823 98.0231 228.523C98.3491 228.85 98.4464 229.344 98.5036 229.803C98.7266 231.509 98.6866 233.248 99.0069 234.936C99.3272 236.624 100.065 238.335 101.472 239.316C100.912 238.926 98.1775 241.418 96.5589 240.189C94.9402 238.96 94.3968 235.59 94.2538 233.788H94.2596Z" fill="white" stroke="#1D1D1B" stroke-width="2" stroke-miterlimit="10"/>
<path d="M114.432 30.0844C111.726 30.0212 108.946 30.7159 108.557 33.8792C108.203 36.7669 108.843 39.913 110.874 41.9913C112.904 44.0696 116.496 44.6781 118.761 42.8582C120.723 41.2851 122.828 38.0415 125.322 41.044C125.882 41.7157 126.311 42.5137 127.003 43.0476C132.689 47.4395 133.032 35.7795 132.94 33.328C132.86 31.2957 131.602 30.1131 129.514 30.4001C127.112 30.7274 124.727 31.9387 122.399 31.577C120.529 31.29 118.721 30.5838 116.84 30.3025C116.09 30.1934 115.267 30.1016 114.432 30.0786V30.0844Z" fill="white" stroke="#1D1D1B" stroke-width="2" stroke-miterlimit="10"/>
<path d="M108.753 33.2764C105.618 33.4199 102.45 32.6162 99.75 31.0087" stroke="#1D1D1B" stroke-width="2" stroke-miterlimit="10"/>
<path d="M123.67 41.1128C124.179 41.4286 124.431 42.106 124.254 42.6801C124.076 43.2542 123.482 43.6618 122.887 43.6274" stroke="#1D1D1B" stroke-width="2" stroke-miterlimit="10"/>
<path d="M123.299 46.9689C121.95 46.6991 120.468 47.6292 120.125 48.9668C121.235 49.1161 122.361 49.1505 123.477 49.0702" stroke="#1D1D1B" stroke-width="2" stroke-miterlimit="10"/>
<path d="M97.9761 23.4358C97.2383 24.9802 96.4948 26.559 96.3003 28.2641C96.1001 30.0495 96.5291 31.8465 97.0324 33.5688C98.1992 37.5818 99.7836 41.4685 101.745 45.1542C101.271 42.921 100.853 40.6762 100.487 38.42C100.115 36.135 101.139 27.6842 104.239 33.144C104.474 33.5573 104.634 34.0166 104.96 34.3611C105.286 34.7055 105.864 34.8778 106.23 34.5735C106.367 34.4587 106.458 34.2864 106.527 34.1199C107.396 32.1565 106.99 29.1023 108.397 27.4029C110.068 25.3935 112.167 27.4833 114.477 26.8805C115.61 26.5819 116.622 25.9389 117.703 25.4854C120.26 24.4118 123.52 25.4911 125.854 24.1822C126.437 23.8549 126.866 23.3095 127.232 22.7527C128.845 20.284 129.829 18.0105 127.701 15.6625C125.688 13.4464 122.645 12.4015 119.734 12.1375C116.748 11.8734 113.843 12.4073 110.903 12.8034C107.499 13.257 106.012 12.9642 103.541 15.5075C101.07 18.0507 99.469 20.2897 97.9704 23.4301L97.9761 23.4358Z" fill="#1D1D1B" stroke="#1D1D1B" stroke-width="2" stroke-linecap="round" stroke-linejoin="round"/>
<path d="M131.128 29.6763C129.938 28.3903 130.076 26.3465 129.195 24.8308C128.503 23.6367 126.958 22.6378 127.336 21.0762C127.645 19.8074 129.195 18.9635 130.425 19.3022C134.388 20.393 132.003 27.2765 131.128 29.6763Z" fill="#1D1D1B" stroke="#1D1D1B" stroke-width="2" stroke-linecap="round" stroke-linejoin="round"/>
<path d="M101.375 67.2518C104.378 72.901 110.315 76.8681 116.664 77.4766C118.277 77.6317 119.97 77.5685 121.422 76.8509C123.253 75.9495 124.454 74.1583 125.575 72.4475" stroke="#1D1D1B" stroke-width="2" stroke-miterlimit="10"/>
<path d="M77.0625 80.8524C80.0596 79.6583 83.2684 78.8947 86.4885 79.0153C89.7087 79.1358 92.9518 80.1922 95.3998 82.2934" stroke="#1D1D1B" stroke-width="2" stroke-miterlimit="10"/>
<path d="M85.4648 79.3428C86.5287 75.4504 88.5249 71.8105 91.236 68.8309" stroke="#1D1D1B" stroke-width="2" stroke-miterlimit="10"/>
<path d="M89.9883 130.536C89.994 137.706 90.606 144.877 91.8186 151.944C91.8472 152.093 91.8472 152.294 91.7099 152.357C91.5726 152.42 91.5097 152.087 91.647 152.156" stroke="#1D1D1B" stroke-width="2" stroke-miterlimit="10"/>
<path d="M11.8516 104.954C13.0641 122.229 15.0603 139.452 17.8401 156.549C17.8915 156.101 17.943 155.659 17.9888 155.211" stroke="#1D1D1B" stroke-width="2" stroke-miterlimit="10" stroke-linejoin="round"/>
<path d="M22.4336 158.695C34.8396 189.077 46.2847 219.849 56.7402 250.96" stroke="#1D1D1B" stroke-width="2" stroke-miterlimit="10"/>
<path d="M42.332 191.27C44.3968 197.045 48.7781 201.948 54.2747 204.629" stroke="#1D1D1B" stroke-width="2" stroke-miterlimit="10"/>
<path d="M106.145 177.784C109.513 185.42 114.495 192.332 120.673 197.924" stroke="#1D1D1B" stroke-width="2" stroke-miterlimit="10"/>
<path d="M113.992 33.5747C112.705 31.8122 111.91 29.6937 111.715 27.5121C111.63 26.5591 111.744 25.4396 112.55 24.9286C113.323 24.4464 114.392 24.8023 114.993 25.4855C115.593 26.1687 115.845 27.0873 116.074 27.9656C116.446 29.3894 116.817 30.8132 117.195 32.237" fill="white"/>
<path d="M113.992 33.5747C112.705 31.8122 111.91 29.6937 111.715 27.5121C111.63 26.5591 111.744 25.4396 112.55 24.9286C113.323 24.4464 114.392 24.8023 114.993 25.4855C115.593 26.1687 115.845 27.0873 116.074 27.9656C116.446 29.3894 116.817 30.8132 117.195 32.237" stroke="#1D1D1B" stroke-width="2" stroke-miterlimit="10"/>
<path d="M128.66 32.2368C128.878 30.0781 130.05 28.0343 131.8 26.7598C132.315 26.3866 132.967 26.0651 133.573 26.2603C134.14 26.4441 134.489 27.0469 134.546 27.6382C134.603 28.2295 134.414 28.8208 134.197 29.372C133.619 30.8532 132.818 32.2425 131.823 33.4826C131.777 33.5457 131.703 33.6089 131.634 33.5859C131.566 33.563 131.617 33.4137 131.669 33.4654" fill="white"/>
<path d="M128.66 32.2368C128.878 30.0781 130.05 28.0343 131.8 26.7598C132.315 26.3866 132.967 26.0651 133.573 26.2603C134.14 26.4441 134.489 27.0469 134.546 27.6382C134.603 28.2295 134.414 28.8208 134.197 29.372C133.619 30.8532 132.818 32.2425 131.823 33.4826C131.777 33.5457 131.703 33.6089 131.634 33.5859C131.566 33.563 131.617 33.4137 131.669 33.4654" stroke="#1D1D1B" stroke-width="2" stroke-miterlimit="10"/>
<path d="M118.908 37.0717C119.407 37.0717 119.811 36.6656 119.811 36.1647C119.811 35.6637 119.407 35.2576 118.908 35.2576C118.409 35.2576 118.004 35.6637 118.004 36.1647C118.004 36.6656 118.409 37.0717 118.908 37.0717Z" fill="#1D1D1B"/>
<path d="M126.474 37.4847C126.973 37.4847 127.378 37.0786 127.378 36.5776C127.378 36.0766 126.973 35.6705 126.474 35.6705C125.975 35.6705 125.57 36.0766 125.57 36.5776C125.57 37.0786 125.975 37.4847 126.474 37.4847Z" fill="#1D1D1B"/>
<path d="M128.274 16.4268C127.079 13.275 123.647 11.5297 120.335 10.9384C117.023 10.3471 113.603 10.5997 110.309 9.95667L112.905 11.3517C110.206 11.7479 107.454 11.7823 104.743 11.4666C103.994 14.584 102.015 17.3856 99.3382 19.1251C97.7252 20.17 95.7405 21.0024 95.0312 22.7937C95.8434 22.8166 96.6556 22.8453 97.4678 22.8683C95.403 24.981 94.6995 28.328 95.7405 31.0952C96.0837 29.6542 97.3306 28.4773 98.7834 28.2189C99.3954 28.1099 100.025 28.1501 100.631 28.0352C101.483 27.8745 102.249 27.4152 102.993 26.9731C106.345 24.9925 109.799 23.1955 113.34 21.5823C114.924 20.8647 116.566 20.17 118.305 20.1183C119.163 20.0954 120.026 20.2217 120.867 20.0781C121.708 19.9346 122.572 19.4064 122.772 18.574C123.492 17.9425 125.117 17.6669 125.975 18.086C126.175 18.1836 126.364 18.3099 126.581 18.3443C126.999 18.4132 127.41 18.1147 127.605 17.7358C127.799 17.3569 128.428 16.8172 128.274 16.4211V16.4268Z" fill="#1D1D1B" stroke="#1D1D1B" stroke-width="2" stroke-miterlimit="10"/>
<path d="M129 18.8831C130.15 18.6075 131.374 18.464 132.506 18.8142C133.639 19.1644 134.651 20.1059 134.783 21.2828C133.656 20.8523 132.363 20.858 131.242 21.3001C132.849 22.0694 134.674 23.1257 134.874 24.9054C134.136 25.1006 133.376 24.6471 132.621 24.7275C131.677 24.8251 130.956 25.8757 131.208 26.7943" fill="#1D1D1B"/>
<path d="M129 18.8831C130.15 18.6075 131.374 18.464 132.506 18.8142C133.639 19.1644 134.651 20.1059 134.783 21.2828C133.656 20.8523 132.363 20.858 131.242 21.3001C132.849 22.0694 134.674 23.1257 134.874 24.9054C134.136 25.1006 133.376 24.6471 132.621 24.7275C131.677 24.8251 130.956 25.8757 131.208 26.7943" stroke="#1D1D1B" stroke-width="2" stroke-miterlimit="10"/>
</svg>
