<svg width="334" height="236" viewBox="0 0 334 236" fill="none" xmlns="http://www.w3.org/2000/svg">
<g clip-path="url(#clip0_115_1532)">
<path d="M83.8499 115.34C84.4084 79.0213 84.5687 42.4472 84.2978 6.128C84.2978 6.07813 79.5925 5.74015 79.3326 5.71799C56.1378 3.72334 32.9927 1.32423 9.68732 1.30206C7.73 1.30206 4.06416 0.454338 2.2893 1.03611C0.337509 1.67329 1.00654 3.85632 0.98995 5.67366C0.945716 10.1505 0.912541 14.633 0.884896 19.1098C0.680317 54.9414 1.02865 90.7731 1.92991 126.594C1.99073 129.104 2.05708 131.608 2.12896 134.118C9.45509 131.652 17.5719 129.84 25.1524 128.378C32.2352 127.009 37.6151 126.222 45.9918 124.206C58.8139 121.119 70.9394 117.989 83.8499 115.346V115.34Z" fill="white" stroke="#1D1D1B" stroke-width="2" stroke-linecap="round" stroke-linejoin="round"/>
<path d="M43.5368 55.8114C43.0613 56.7976 42.055 57.6121 41.2091 58.2327C39.7604 59.2965 38.1957 60.6262 37.2723 62.2053C36.7526 63.0974 36.3932 64.1335 36.548 65.153C36.7139 66.2279 37.4382 67.1587 38.3284 67.7793C39.2186 68.3998 40.2746 68.7434 41.3307 69.0093C43.6585 69.6022 46.318 69.8072 48.2753 68.4165C49.0384 67.8735 49.63 67.1366 50.1995 66.3941C51.8029 64.3274 53.3677 62.1278 53.9261 59.568C54.5178 56.8641 53.9151 54.0439 53.0691 51.4121C52.6489 50.0934 52.1568 48.7803 51.4048 47.6167C51.3496 47.5336 51.2887 47.445 51.1892 47.4117C51.0123 47.3508 50.8464 47.5114 50.7248 47.6555C49.3756 49.2457 47.634 50.5034 45.7098 51.3013C44.9081 51.6337 43.4981 51.5506 43.2438 52.6089C43.089 53.246 43.5313 53.3957 43.6917 53.9054C43.9073 54.598 43.8078 55.2352 43.5313 55.8059L43.5368 55.8114Z" fill="white" stroke="#1D1D1B" stroke-width="2" stroke-linecap="round" stroke-linejoin="round"/>
<path d="M45.4385 51.6059C49.2923 49.6501 52.361 47.3673 52.2615 42.7685C52.2283 41.2559 52.1122 39.7433 51.9187 38.2362C51.7196 36.6904 51.4211 35.1279 50.6746 33.7594C49.2592 31.1663 45.9969 29.5762 43.1992 30.507C38.8422 31.9642 38.8256 37.0838 38.7703 40.8625C38.7537 41.9153 38.6542 42.968 38.7703 44.0152C39.0136 46.2259 40.1969 48.2039 41.4077 50.0712C42.016 51.0075 42.8122 52.0381 43.9235 52.0658C44.4598 52.0769 44.963 51.8497 45.4385 51.6059Z" fill="white" stroke="#1D1D1B" stroke-width="2" stroke-linecap="round" stroke-linejoin="round"/>
<path d="M45.0508 40.8238C45.7198 40.1866 46.7814 40.0093 47.6218 40.3916C47.749 40.6021 47.7324 40.8958 47.5665 41.0786C47.4007 41.2615 47.0855 41.2947 46.903 41.1285C46.7206 40.9623 46.7427 40.6187 46.9528 40.4969C46.8975 40.375 47.0689 40.4193 47.1961 40.4581C47.3233 40.4969 47.3841 40.652 47.3564 40.7794C47.3399 40.8681 47.2735 40.9567 47.185 40.9623C47.0966 40.9678 47.0081 40.8515 47.0689 40.785C47.091 40.7185 47.2182 40.7462 47.2072 40.8127" stroke="#1D1D1B" stroke-width="2" stroke-linecap="round" stroke-linejoin="round"/>
<path d="M45.1133 39.0176C45.9427 38.4524 47.1093 38.4413 47.9442 38.9954" stroke="#1D1D1B" stroke-width="2" stroke-linecap="round" stroke-linejoin="round"/>
<path d="M39.0625 40.6243C39.8089 40.0813 40.8871 40.0481 41.6667 40.5412C41.7607 40.7684 41.711 41.0565 41.523 41.2172C41.335 41.3778 41.0198 41.3612 40.8595 41.1728C40.6991 40.9845 40.7655 40.6465 40.9922 40.5523C41.1525 40.4858 41.0862 40.5246 41.252 40.5689C41.4179 40.6132 41.5396 40.8238 41.4456 40.9678C41.4069 40.9678 41.0475 40.9678 41.0088 40.9678C41.0088 40.9291 41.0088 40.8903 41.0088 40.857C41.0419 40.857 41.0806 40.857 41.1138 40.857C41.1802 40.9623 41.0253 41.1064 40.9258 41.0399C40.9369 40.9734 40.9866 40.918 41.0475 40.9013" stroke="#1D1D1B" stroke-width="2" stroke-linecap="round" stroke-linejoin="round"/>
<path d="M39.375 38.8402C40.2707 38.3914 41.4263 38.541 42.1838 39.2004" stroke="#1D1D1B" stroke-width="2" stroke-linecap="round" stroke-linejoin="round"/>
<path d="M42.0234 45.0126C42.2888 45.3506 42.7035 45.5611 43.1348 45.5833C43.5661 45.6054 43.9973 45.4337 44.2959 45.1234" stroke="#1D1D1B" stroke-width="2" stroke-linecap="round" stroke-linejoin="round"/>
<path d="M41.7227 47.3452C42.8008 47.8882 44.1168 47.9325 45.2281 47.4727" stroke="#1D1D1B" stroke-width="2" stroke-linecap="round" stroke-linejoin="round"/>
<path d="M43.8296 32.1138C43.802 32.3077 43.7688 32.5072 43.6417 32.6513C43.4979 32.8064 43.2767 32.8563 43.0721 32.9117C41.524 33.3272 40.3629 34.5129 39.5998 35.8759C38.6931 37.4883 38.8036 39.3832 38.6488 41.2005C38.3447 44.741 39.3455 48.215 41.5848 51.0131C42.1709 51.7445 42.8842 52.3872 43.3707 53.1906C43.8573 53.994 44.0729 55.0578 43.5974 55.8667C43.3818 56.2269 43.0556 56.5039 42.7349 56.7754C41.723 57.6176 40.7112 58.4598 39.7049 59.302C39.3897 57.0968 37.7199 55.3404 36.9956 53.2349C36.6307 52.1711 36.5201 51.0408 36.4427 49.916C36.2879 47.5557 36.2934 45.1898 36.2989 42.824C36.3155 38.1587 36.0501 32.8784 40.2799 29.8809C41.0374 29.349 42.9726 28.3794 43.8905 28.9999C44.8083 29.6205 43.9513 31.2716 43.8296 32.1083V32.1138Z" fill="white" stroke="#1D1D1B" stroke-width="2" stroke-linecap="round" stroke-linejoin="round"/>
<path d="M60.4881 61.0473C60.1509 61.8341 57.9447 61.8784 57.0988 62.1222C55.4843 62.5931 53.9195 63.2359 52.4377 64.0448C51.9622 64.3052 51.0609 65.5075 50.4748 65.3967C49.5791 65.225 50.4417 60.9753 50.4859 60.3547C50.6407 58.1606 50.7292 55.9609 50.7458 53.7668C50.7845 49.301 50.5301 44.8297 49.9551 40.4027C49.7173 38.5909 49.4077 36.7292 48.4235 35.1889C47.4393 33.6486 45.6258 32.5017 43.8398 32.8452C43.8675 32.8452 44.0223 30.845 44.0665 30.6511C44.2158 29.9585 44.4536 29.216 45.0176 28.7451C46.3611 27.6259 48.5839 28.0359 50.027 28.6675C51.0886 29.1329 52.1612 29.6482 52.974 30.4793C54.3397 31.8811 54.7268 33.9367 55.0585 35.8704C55.9266 40.9623 57.049 46.0043 57.8563 51.1073C58.2378 53.512 58.6635 55.8667 59.4155 58.2105C59.6422 58.9141 60.5269 60.1829 60.5324 60.8312C60.5324 60.9088 60.5158 60.9808 60.4881 61.0473Z" fill="white" stroke="#1D1D1B" stroke-width="2" stroke-linecap="round" stroke-linejoin="round"/>
<path d="M39.6114 59.1135C34.4748 61.7675 30.3501 66.3386 28.2324 71.7241C27.5689 73.414 27.0934 75.176 26.6511 76.9379C26.452 77.7247 26.253 78.5226 25.8438 79.2262C25.5065 79.8024 25.0366 80.2845 24.5942 80.7831C23.129 82.4232 21.8628 84.3015 21.3044 86.4291C20.7459 88.5567 20.9782 90.9669 22.272 92.74C22.8415 93.5212 23.5935 94.1528 24.3786 94.718C27.967 97.3055 32.4346 98.6463 36.8524 98.4635C37.5048 95.8483 38.9424 93.4381 40.9274 91.6207C38.3508 88.6509 35.1494 86.2296 31.5942 84.5564" stroke="#1D1D1B" stroke-width="2" stroke-linecap="round" stroke-linejoin="round"/>
<path d="M34.7061 70.5551C33.5561 71.1534 32.7046 73.0539 32.2844 74.2396C31.7867 75.6414 31.6319 77.1706 31.8088 78.6445C32.1738 81.6309 34.0205 84.3237 37.0007 85.1492" stroke="#1D1D1B" stroke-width="2" stroke-linecap="round" stroke-linejoin="round"/>
<path d="M40.793 86.8614C41.6555 83.7254 43.4912 80.9107 45.7416 78.5614C47.9919 76.2122 50.6515 74.3007 53.3939 72.5498" stroke="#1D1D1B" stroke-width="2" stroke-linecap="round" stroke-linejoin="round"/>
<path d="M36.1448 72.8545C35.8573 74.622 35.8573 76.4559 36.3936 78.1791C36.8747 79.7305 37.6045 81.1544 38.7214 82.3457" stroke="#1D1D1B" stroke-width="2" stroke-linecap="round" stroke-linejoin="round"/>
<path d="M47.8203 89.2937C49.7334 88.7562 51.5746 87.9639 53.2831 86.95" stroke="#1D1D1B" stroke-width="2" stroke-linecap="round" stroke-linejoin="round"/>
<path d="M40.832 91.2939C42.6677 92.3855 44.802 92.9007 46.9362 93.0559C48.1139 93.139 49.3303 92.8841 50.5081 92.8398C51.2821 92.8121 54.7323 93.0282 52.3714 94.031C51.2711 94.4965 50.1155 94.8178 48.9378 94.9896" stroke="#1D1D1B" stroke-width="2" stroke-linecap="round" stroke-linejoin="round"/>
<path d="M49.4246 95.2444C50.7626 96.5852 52.1007 97.9261 53.3226 99.3722C53.7815 99.9152 54.2294 100.486 54.5059 101.145C54.5999 101.372 54.6717 101.616 54.633 101.86C54.5943 102.104 54.4119 102.336 54.1686 102.37C53.8645 102.408 53.6157 102.148 53.4221 101.91C52.0675 100.281 50.4917 98.8403 48.75 97.6324" stroke="#1D1D1B" stroke-width="2" stroke-linecap="round" stroke-linejoin="round"/>
<path d="M37.6211 97.2778C41.7901 101.084 46.9156 103.821 52.3895 105.173C52.5332 104.713 52.5554 104.22 52.4558 103.749C52.6825 103.932 52.9977 103.999 53.2797 103.921C53.4898 103.024 53.6722 101.987 53.1249 101.245" stroke="#1D1D1B" stroke-width="2" stroke-linecap="round" stroke-linejoin="round"/>
<path d="M46.2305 101.068C48.2652 102.104 50.3552 103.046 52.4784 103.882" stroke="#1D1D1B" stroke-width="2" stroke-linecap="round" stroke-linejoin="round"/>
<path d="M47.8203 99.4276C49.8882 100.68 51.9285 101.982 53.9356 103.328" stroke="#1D1D1B" stroke-width="2" stroke-linecap="round" stroke-linejoin="round"/>
<path d="M29.9285 97.5825C25.7596 102.397 22.5471 108.043 20.5234 114.083" stroke="#1D1D1B" stroke-width="2" stroke-linecap="round" stroke-linejoin="round"/>
<path d="M67.0234 98.1809C69.3789 100.087 71.2588 102.586 72.431 105.384" stroke="#1D1D1B" stroke-width="2" stroke-linecap="round" stroke-linejoin="round"/>
<path d="M3.36719 3.90063C7.15466 8.89279 9.88607 9.7239 13.7233 14.6773" stroke="#1D1D1B" stroke-width="2" stroke-linecap="round" stroke-linejoin="round"/>
<path d="M15.7813 18.6666C15.7758 18.107 15.7868 33.8979 15.7813 33.3383C14.9906 66.1835 14.7252 82.7003 15.0183 115.551L23.7986 113.977C29.9065 112.91 36.0143 111.842 42.1222 110.775C46.0037 110.093 49.8907 109.417 53.7722 108.736C59.7824 107.683 65.7483 106.315 71.7198 105.09C72.2174 90.6013 71.8912 79.8967 71.8415 65.3967C71.7917 51.5284 71.5484 40.7019 72.0184 19.8911C68.3028 19.2594 57.7034 19.409 53.938 19.1819C35.9517 18.0737 30.7377 19.0932 15.7813 18.0737" stroke="#1D1D1B" stroke-width="2" stroke-linecap="round" stroke-linejoin="round"/>
<path d="M72.8086 18.2067C75.5676 14.7438 78.5534 11.4581 81.7437 8.38306" stroke="#1D1D1B" stroke-width="2" stroke-linecap="round" stroke-linejoin="round"/>
<path d="M12.9538 118.332C9.8132 122.211 7.09838 126.438 4.88672 130.91" stroke="#1D1D1B" stroke-width="2" stroke-linecap="round" stroke-linejoin="round"/>
<path d="M73.5859 107.162C76.1515 108.476 78.5843 110.049 80.8402 111.85" stroke="#1D1D1B" stroke-width="2" stroke-linecap="round" stroke-linejoin="round"/>
<path d="M93.3944 82.2016C91.1772 81.9578 88.9655 82.0077 86.7871 82.595C84.6307 83.1768 82.3748 84.4289 81.7832 86.5898C81.4182 87.9196 82.1481 89.4156 82.4964 90.7509C84.1662 89.6926 85.9964 88.59 87.9648 88.7673C88.7223 88.8393 89.4521 89.0997 90.1875 89.3047C91.8352 89.7702 93.6709 89.9475 95.2135 89.1995C96.6455 88.5124 97.6684 86.817 97.2814 85.3155C95.6835 84.5841 94.2017 83.7308 93.3944 82.2016Z" fill="white" stroke="#1D1D1B" stroke-width="2" stroke-linecap="round" stroke-linejoin="round"/>
<path d="M92.216 91.3549C92.6971 91.8259 93.4103 91.9311 94.0849 92.0032C95.3124 92.1417 98.2318 92.5129 98.1986 90.557C98.1986 90.4407 98.1765 90.3188 98.1101 90.2301C98.0438 90.1415 97.9498 90.0916 97.8502 90.0417C96.5785 89.4212 94.8756 89.2217 93.4711 89.2162C92.4814 89.2162 91.3756 89.7703 91.8732 90.8507C91.9672 91.0557 92.0833 91.2164 92.2216 91.3549H92.216Z" fill="white" stroke="#1D1D1B" stroke-width="2" stroke-linecap="round" stroke-linejoin="round"/>
<path d="M92.1701 87.9418C92.0429 88.0138 91.9047 88.108 91.8605 88.2465C91.7665 88.5346 92.0872 88.7784 92.3636 88.9003C93.8454 89.5486 95.5152 89.7591 97.1076 89.4876C98.6779 89.2217 99.4133 87.7368 97.5776 87.2215C95.9465 86.7616 93.6187 87.1107 92.1646 87.9473L92.1701 87.9418Z" fill="white" stroke="#1D1D1B" stroke-width="2" stroke-linecap="round" stroke-linejoin="round"/>
<path d="M97.6555 94.2194C101.808 92.5627 105.96 90.9116 110.19 89.4655C108.189 87.8642 106.187 86.263 104.185 84.6672C103.986 84.5066 103.782 84.3459 103.539 84.2683C103.218 84.1686 102.869 84.224 102.538 84.2905C100.21 84.7504 97.9872 85.4983 95.7756 86.3627C94.2495 86.9611 92.3696 87.4043 91.0039 88.2631C92.9225 90.4406 95.4825 92.2857 97.6555 94.2194Z" fill="white" stroke="#1D1D1B" stroke-width="2" stroke-linecap="round" stroke-linejoin="round"/>
<path d="M94.3898 85.5537C96.7342 85.9305 102.269 86.1244 104.199 86.0856C104.685 86.0745 105.321 86.141 105.459 85.6756C105.603 85.1714 104.984 84.8168 104.486 84.6672C101.578 83.7973 98.6251 83.0881 95.6394 82.5341C94.8929 82.3955 94.1465 82.2792 93.4001 82.2016C92.6536 82.124 91.8408 81.9412 91.1055 81.8802" fill="white"/>
<path d="M94.3898 85.5537C96.7342 85.9305 102.269 86.1244 104.199 86.0856C104.685 86.0745 105.321 86.141 105.459 85.6756C105.603 85.1714 104.984 84.8168 104.486 84.6672C101.578 83.7973 98.6251 83.0881 95.6394 82.5341C94.8929 82.3955 94.1465 82.2792 93.4001 82.2016C92.6536 82.124 91.8408 81.9412 91.1055 81.8802" stroke="#1D1D1B" stroke-width="2" stroke-linecap="round" stroke-linejoin="round"/>
<path d="M90.3463 86.407C92.4474 85.6313 92.3645 83.5536 93.8573 82.4011C94.3107 82.052 99.674 79.9133 99.3367 79.2318C99.1764 78.9105 98.7285 78.9049 98.3691 78.9548C92.3755 79.7527 86.4759 81.2376 80.8141 83.3652C80.6205 83.3652 80.5597 83.5369 80.5265 83.7309C80.1395 85.9693 80.6979 88.3573 82.036 90.1968" fill="white"/>
<path d="M90.3463 86.407C92.4474 85.6313 92.3645 83.5536 93.8573 82.4011C94.3107 82.052 99.674 79.9133 99.3367 79.2318C99.1764 78.9105 98.7285 78.9049 98.3691 78.9548C92.3755 79.7527 86.4759 81.2376 80.8141 83.3652C80.6205 83.3652 80.5597 83.5369 80.5265 83.7309C80.1395 85.9693 80.6979 88.3573 82.036 90.1968" stroke="#1D1D1B" stroke-width="2" stroke-linecap="round" stroke-linejoin="round"/>
<path d="M60.0485 61.6789C61.0106 61.2966 62.1219 61.4462 63.0453 61.9061C63.9687 62.366 64.7262 63.1084 65.3676 63.9229C66.1361 64.8981 66.7664 65.984 67.2254 67.142C67.8502 68.7045 68.1543 70.3778 68.3975 72.0455C69.061 76.6609 69.2214 81.3428 68.873 85.9915C74.0594 83.7475 76.1881 83.958 81.7394 82.9164L81.0925 83.0438C80.8603 85.7809 81.4685 88.2244 82.6628 90.6955C79.3619 93.078 75.6518 94.8122 71.8533 96.2306C69.9402 96.9454 67.9939 97.5826 66.0476 98.1976C64.7317 98.6131 62.5366 99.5384 61.1599 98.7683C60.9055 98.6298 60.7286 98.386 60.5627 98.1477C56.5873 92.4796 54.8843 85.2545 55.9016 78.4007" fill="white"/>
<path d="M60.0485 61.6789C61.0106 61.2966 62.1219 61.4462 63.0453 61.9061C63.9687 62.366 64.7262 63.1084 65.3676 63.9229C66.1361 64.8981 66.7664 65.984 67.2254 67.142C67.8502 68.7045 68.1543 70.3778 68.3975 72.0455C69.061 76.6609 69.2214 81.3428 68.873 85.9915C74.0594 83.7475 76.1881 83.958 81.7394 82.9164L81.0925 83.0438C80.8603 85.7809 81.4685 88.2244 82.6628 90.6955C79.3619 93.078 75.6518 94.8122 71.8533 96.2306C69.9402 96.9454 67.9939 97.5826 66.0476 98.1976C64.7317 98.6131 62.5366 99.5384 61.1599 98.7683C60.9055 98.6298 60.7286 98.386 60.5627 98.1477C56.5873 92.4796 54.8843 85.2545 55.9016 78.4007" stroke="#1D1D1B" stroke-width="2" stroke-linecap="round" stroke-linejoin="round"/>
<path d="M226.988 48.9908C228.342 48.9964 229.686 49.1626 230.985 49.556C231.389 49.6779 231.809 49.8386 232.063 50.1765C233.302 51.8443 229.868 51.2902 229.338 51.2958C228.447 51.3013 227.535 51.4454 226.661 51.6005C224.914 51.9219 223.189 52.4648 221.652 53.3735C217.853 55.623 225.047 54.67 226.219 55.0191C226.534 55.1133 229.819 55.9776 227.9 56.8198C224.721 58.2161 220.27 59.1746 217.682 61.402C212.54 65.829 214.486 75.6526 205.347 71.2201C202.51 69.846 208.681 57.7507 210.013 56.2602C212.247 53.7614 214.674 51.6947 217.865 50.6974C220.729 49.7998 223.891 48.9798 226.988 48.9908Z" fill="white" stroke="#1D1D1B" stroke-width="2" stroke-linecap="round" stroke-linejoin="round"/>
<path d="M230.926 51.3622C231.268 51.1627 231.744 51.4453 231.827 51.8276C231.91 52.2099 231.689 52.6144 231.373 52.8526C231.058 53.0909 230.666 53.1961 230.284 53.2903C228.742 53.6782 227.171 53.9718 225.59 54.1658C225.148 54.2212 224.573 54.4206 224.611 54.8639" fill="white"/>
<path d="M230.926 51.3622C231.268 51.1627 231.744 51.4453 231.827 51.8276C231.91 52.2099 231.689 52.6144 231.373 52.8526C231.058 53.0909 230.666 53.1961 230.284 53.2903C228.742 53.6782 227.171 53.9718 225.59 54.1658C225.148 54.2212 224.573 54.4206 224.611 54.8639" stroke="#1D1D1B" stroke-width="2" stroke-linecap="round" stroke-linejoin="round"/>
<path d="M231.239 52.825C231.863 52.7806 232.256 53.6062 232.024 54.1824C231.792 54.7587 231.189 55.1022 230.603 55.3238C230.017 55.5454 229.386 55.7117 228.922 56.1272" fill="white"/>
<path d="M231.239 52.825C231.863 52.7806 232.256 53.6062 232.024 54.1824C231.792 54.7587 231.189 55.1022 230.603 55.3238C230.017 55.5454 229.386 55.7117 228.922 56.1272" stroke="#1D1D1B" stroke-width="2" stroke-linecap="round" stroke-linejoin="round"/>
<path d="M204.136 197.187C203.992 198.035 203.6 198.816 203.213 199.587C202.162 201.659 200.199 206.656 197.761 207.449C195.737 208.108 194.372 205.593 193.813 204.036C192.84 201.326 192.188 198.822 190.446 196.406C190.203 196.068 189.937 195.714 189.926 195.298C189.915 194.849 190.197 194.456 190.473 194.096C191.712 192.478 192.763 190.721 194.045 189.131C194.41 188.683 195.35 187.198 196.025 187.203C197.578 187.22 199.586 190.184 200.647 191.143C202.538 192.849 204.634 194.273 204.142 197.187H204.136Z" fill="white" stroke="#1D1D1B" stroke-width="2" stroke-linecap="round" stroke-linejoin="round"/>
<path d="M205.85 194.367C204.225 192.871 202.229 190.949 201.698 191.431C201.466 191.641 201.338 191.99 201.438 192.317C201.637 192.96 202.041 193.52 202.306 194.146C202.571 194.766 202.665 195.536 202.267 196.079C201.532 197.082 199.829 196.584 198.867 197.365C198.131 197.963 198.109 199.055 198.065 200.002C198.021 200.95 197.767 202.074 196.871 202.396C195.765 202.789 194.759 201.637 194.195 200.606C193.631 199.576 192.818 198.345 191.657 198.506C191.242 198.562 190.872 198.805 190.568 199.088C189.064 200.512 189.827 202.867 190.153 204.618C190.463 206.269 191.226 207.604 191.607 209.222C192.027 210.995 192.038 214.58 190.761 216.004C189.329 217.599 188.533 220.22 190.391 222.049C192.099 223.727 195.19 222.835 196.926 221.489C197.999 220.658 199.077 219.816 199.973 218.802C202.759 215.649 203.545 211.189 205.894 207.698C207.907 204.706 210.18 201.98 210.213 198.185C210.24 195.47 207.332 195.752 205.839 194.373L205.85 194.367Z" fill="white" stroke="#1D1D1B" stroke-width="2" stroke-linecap="round" stroke-linejoin="round"/>
<path d="M154.954 41.6937C155.142 43.4501 155.302 46.9463 153.826 48.0877C152.974 48.747 151.681 48.8578 151.139 49.7831C151.222 50.2651 150.702 50.9411 150.807 51.4176C151.703 55.4346 154.572 58.9806 158.349 60.593C162.125 62.2053 166.72 61.8064 170.104 59.4793C173.488 57.1522 175.517 52.9413 175.135 48.8412C174.903 46.3479 173.864 45.0403 171.663 44.2701C169.7 43.5831 168.628 41.7436 168.539 39.5051C168.517 38.9344 168.616 38.3638 168.722 37.7986C168.915 36.768 169.142 35.7042 168.943 34.6737C168.843 34.1473 168.616 33.6265 168.207 33.2829C166.565 31.9089 159.504 36.491 157.707 37.3332C156.508 37.8928 155.159 38.6297 154.888 39.9318C154.777 40.4637 154.871 41.0067 154.932 41.5441C154.932 41.5884 154.943 41.6383 154.948 41.6882L154.954 41.6937Z" fill="white" stroke="#1D1D1B" stroke-width="2" stroke-linecap="round" stroke-linejoin="round"/>
<path d="M196.151 178.975C193.033 184.389 188.057 188.206 183.86 192.411C188.057 188.206 193.033 184.389 196.151 178.975C189.688 171.678 181.516 167.14 175.876 164.93C173.642 164.054 172.099 161.915 170.706 159.96C166.957 154.69 167.61 147.604 168.096 141.149C169.036 128.588 167.953 118.571 160.101 108.481C158.437 106.342 155.534 106.071 153.029 106.132C149.977 106.204 147.926 106.071 147.108 109.129C144.863 117.485 144.89 125.945 144.686 134.461C144.47 143.421 144.354 152.386 144.332 161.35C144.332 163.295 144.343 165.306 145.139 167.079C146.085 169.168 147.987 170.631 149.872 171.928C162.943 180.926 178.751 186.261 189.544 197.902C192.474 194.218 197.5 188.716 200.973 185.535C199.552 183.131 197.915 180.953 196.157 178.97L196.151 178.975Z" fill="white"/>
<path d="M196.151 178.975C193.033 184.389 188.057 188.206 183.86 192.411C188.057 188.206 193.033 184.389 196.151 178.975ZM196.151 178.975C189.688 171.678 181.516 167.14 175.876 164.93C173.642 164.054 172.099 161.915 170.706 159.96C166.957 154.69 167.61 147.604 168.096 141.149C169.036 128.588 167.953 118.571 160.101 108.481C158.437 106.342 155.534 106.071 153.029 106.132C149.977 106.204 147.926 106.071 147.108 109.129C144.863 117.485 144.89 125.945 144.686 134.461C144.47 143.421 144.354 152.386 144.332 161.35C144.332 163.295 144.343 165.306 145.139 167.079C146.085 169.168 147.987 170.631 149.872 171.928C162.943 180.926 178.751 186.261 189.544 197.902C192.474 194.218 197.5 188.716 200.973 185.535C199.552 183.131 197.915 180.953 196.157 178.97L196.151 178.975Z" stroke="#1D1D1B" stroke-width="2" stroke-linecap="round" stroke-linejoin="round"/>
<path d="M171.245 220.78C170.603 221.35 169.807 221.711 169.022 222.06C166.904 223.013 162.249 225.661 159.849 224.747C157.864 223.988 158.378 221.173 158.915 219.605C159.855 216.885 160.922 214.53 161.077 211.549C161.099 211.133 161.115 210.69 161.37 210.358C161.641 210.003 162.111 209.876 162.547 209.765C164.527 209.283 166.445 208.579 168.441 208.153C169.005 208.031 170.67 207.471 171.195 207.898C172.395 208.889 172.096 212.458 172.317 213.871C172.715 216.386 173.456 218.813 171.245 220.774V220.78Z" fill="white" stroke="#1D1D1B" stroke-width="2" stroke-linecap="round" stroke-linejoin="round"/>
<path d="M174.345 219.666C174.019 217.477 173.67 214.724 172.957 214.768C172.642 214.785 172.327 214.979 172.199 215.294C171.951 215.921 171.912 216.613 171.729 217.261C171.541 217.91 171.138 218.569 170.485 218.741C169.286 219.057 168.274 217.594 167.035 217.599C166.09 217.599 165.387 218.436 164.763 219.145C164.138 219.854 163.226 220.569 162.335 220.259C161.23 219.871 161.169 218.336 161.379 217.184C161.583 216.026 161.722 214.563 160.721 213.954C160.361 213.738 159.925 213.693 159.51 213.721C156.629 213.943 156.049 218.27 154.473 220.226C152.853 222.237 151.067 224.115 149.148 225.838C147.954 226.913 146.677 227.96 145.919 229.379C145.51 230.149 145.289 231.063 145.35 231.928L145.372 231.917C145.416 232.631 145.726 233.424 146.152 233.889C147.191 235.008 148.894 235.119 150.42 235.147C151.775 235.174 153.14 235.197 154.478 234.975C158.625 234.277 162.031 231.301 166.045 230.066C169.49 229.008 172.962 228.315 175.373 225.384C177.093 223.29 174.66 221.677 174.361 219.666H174.345Z" fill="white" stroke="#1D1D1B" stroke-width="2" stroke-linecap="round" stroke-linejoin="round"/>
<path d="M145.537 232.703C145.189 231.385 146.77 230.016 148.02 230.548C148.733 230.853 149.17 231.562 149.745 232.088C151.061 233.302 153.085 233.485 154.793 232.958C156.502 232.432 157.95 231.29 159.288 230.099C160.405 229.102 161.505 228.032 162.888 227.473C163.949 227.046 165.11 226.958 166.211 226.653C167.914 226.182 169.473 225.185 170.618 223.833C171.176 223.173 171.646 222.425 172.293 221.844C172.94 221.262 173.83 220.863 174.67 221.084" fill="white"/>
<path d="M145.537 232.703C145.189 231.385 146.77 230.016 148.02 230.548C148.733 230.853 149.17 231.562 149.745 232.088C151.061 233.302 153.085 233.485 154.793 232.958C156.502 232.432 157.95 231.29 159.288 230.099C160.405 229.102 161.505 228.032 162.888 227.473C163.949 227.046 165.11 226.958 166.211 226.653C167.914 226.182 169.473 225.185 170.618 223.833C171.176 223.173 171.646 222.425 172.293 221.844C172.94 221.262 173.83 220.863 174.67 221.084" stroke="#1D1D1B" stroke-width="2" stroke-linecap="round" stroke-linejoin="round"/>
<path d="M158.426 128.622C156.829 144.446 155.977 168.581 156.712 184.477C157.006 190.777 157.028 197.082 157.293 203.382C162.485 205.659 168.611 205.609 174.179 204.368C173.787 188.555 175.075 172.62 178.757 157.195C181.378 146.23 186.117 134.511 185.06 123.131C184.646 118.654 184.043 113.933 183.291 109.517C182.666 105.855 182.583 103.999 178.663 103.661C173.184 103.19 167.34 103.284 162.468 106.176C161.976 106.47 161.484 106.802 161.208 107.301C160.898 107.866 160.909 108.548 160.926 109.196" fill="white"/>
<path d="M158.426 128.622C156.829 144.446 155.977 168.581 156.712 184.477C157.006 190.777 157.028 197.082 157.293 203.382C162.485 205.659 168.611 205.609 174.179 204.368C173.787 188.555 175.075 172.62 178.757 157.195C181.378 146.23 186.117 134.511 185.06 123.131C184.646 118.654 184.043 113.933 183.291 109.517C182.666 105.855 182.583 103.999 178.663 103.661C173.184 103.19 167.34 103.284 162.468 106.176C161.976 106.47 161.484 106.802 161.208 107.301C160.898 107.866 160.909 108.548 160.926 109.196" stroke="#1D1D1B" stroke-width="2" stroke-linecap="round" stroke-linejoin="round"/>
<path d="M157.295 203.377C157.344 204.557 157.4 205.737 157.466 206.917C157.671 210.374 158.069 211.139 161.69 211.804C165.356 212.48 169.182 212.358 172.793 211.438C173.23 211.327 173.689 211.189 173.982 210.851C174.374 210.402 174.369 209.743 174.341 209.144C174.269 207.549 174.219 205.953 174.175 204.357C168.602 205.598 162.475 205.643 157.289 203.371L157.295 203.377Z" fill="white" stroke="#1D1D1B" stroke-width="2" stroke-linecap="round" stroke-linejoin="round"/>
<path d="M147.551 68.3278C147.468 81.5977 145.837 94.4965 137.963 105.877C134.541 105.921 131.881 103.395 129.874 100.99C124.008 93.9535 121.542 83.814 112.081 79.9743C111.396 79.6973 104.573 76.6167 104.501 76.6665C105.574 75.9296 107.127 76.0681 108.438 76.4006C109.748 76.733 111.081 77.2261 112.441 77.0765C108.255 74.417 103.008 73.4308 98.9939 70.6604C98.6235 70.4056 98.2309 70.0177 98.4134 69.6354C102.151 69.7739 105.856 70.6272 109.179 72.1121C106.597 71.63 104.175 70.5219 102.267 68.9373C102.881 68.3777 103.931 68.5051 104.8 68.6935C106.74 69.1201 108.653 69.6299 110.533 70.2283C108.449 69.8404 106.525 68.8154 105.187 67.3748C105.087 67.264 104.982 67.131 105.015 66.998C105.065 66.8041 105.336 66.7432 105.563 66.7265C108.736 66.5382 111.39 68.9927 114.558 69.2143C112.723 68.7267 111.092 67.6685 110.036 66.2833C110.594 67.0202 112.645 66.998 113.53 67.3859C114.73 67.9178 116.002 68.8597 117.085 69.5634C120.436 71.7409 122.493 74.3339 124.583 77.3924C128.298 82.8222 133.009 86.8226 135.315 93.0282C135.188 91.438 136.238 90.9116 136.946 89.4378C140.512 82.0133 135.956 72.7493 140.617 65.8012C141.585 64.3607 143.111 63.0143 145.03 62.8868C146.948 62.7594 147.568 66.6545 147.557 68.3278H147.551Z" fill="white" stroke="#1D1D1B" stroke-width="2" stroke-linecap="round" stroke-linejoin="round"/>
<path d="M143.875 82.3291C144.212 84.6229 144.223 86.9112 143.587 89.1219C141.884 95.0394 139.656 101.505 142.011 107.561C142.625 109.135 143.582 110.653 145.069 111.673C148.121 113.761 152.412 113.246 156.277 113.257C161.833 113.274 167.213 114.592 172.637 115.49C176.242 116.088 182.678 117.579 186.134 115.845C189.512 114.149 190.397 108.005 190.928 104.968C191.663 100.763 191.696 96.4855 191.663 92.2413C191.608 85.0939 191.553 77.9464 191.497 70.8044C191.459 65.7735 193.582 58.3379 189.833 54.066C188.207 52.2154 185.692 51.1516 183.17 50.4147C178.255 48.9797 172.134 47.7773 168.883 52.9357C168.103 54.1713 167.65 55.6008 166.826 56.8087C166.002 58.0165 164.631 59.036 163.188 58.8033C162.525 58.698 161.927 58.3379 161.352 57.9833C158.422 56.1881 155.491 54.3929 152.561 52.5977C148.337 50.0102 143.3 50.7693 141.215 55.6562C138.976 60.9088 139.916 66.7708 141.331 72.245C142.172 75.4918 143.377 78.9215 143.869 82.3235L143.875 82.3291Z" fill="#1D1D1B" stroke="#1D1D1B" stroke-width="2" stroke-linecap="round" stroke-linejoin="round"/>
<path d="M153.196 79.7416C152.709 76.7386 153.129 73.6746 152.881 70.6494C152.626 67.6075 151.692 64.61 150.138 61.8785C148.402 58.82 143.89 54.5315 139.489 56.7312C139.058 56.9473 138.665 57.2188 138.3 57.529L138.261 57.4071C137.227 58.1219 136.398 59.0915 135.829 60.1276C134.822 61.9671 134.513 64.0227 134.214 66.0395C134.148 66.4772 134.103 66.915 134.076 67.3527C133.307 71.1536 132.539 74.9545 131.77 78.7554C131.61 79.5643 131.444 80.3733 131.317 81.1878C130.371 80.0907 129.348 79.0546 128.005 78.3731C124.781 76.7331 124.416 80.196 123.255 82.0078C122.343 83.4373 119.822 84.9111 119.888 86.6786C119.91 87.2493 120.209 87.7812 120.496 88.2909L127.656 100.846C128.807 102.868 129.99 104.919 131.77 106.559C133.551 108.199 136.072 109.39 138.66 109.207C141.922 108.98 144.454 106.741 146.66 104.653L151.802 99.7823C153.102 98.5523 154.418 97.3001 155.214 95.7819C157.829 90.7898 154.075 85.1715 153.196 79.7416Z" fill="#1D1D1B" stroke="#1D1D1B" stroke-width="2" stroke-linecap="round" stroke-linejoin="round"/>
<path d="M161.849 39.2503C161.65 39.3057 153.959 42.9127 153.76 42.9681C152.593 43.3005 151.443 43.5776 150.31 42.8129C149.862 42.5082 149.525 42.0262 149.475 41.4887C149.436 41.0787 149.563 40.6742 149.63 40.2698C149.84 39.0231 148.491 37.8153 149.215 36.8235C149.74 36.1087 151.04 35.6599 151.852 35.3773C151.007 35.3995 148.966 35.4826 148.336 34.7734C147.954 34.3412 148.424 33.0447 147.999 32.4075C147.175 31.1664 144.814 31.9864 144.504 30.1968C144.255 28.7729 146.992 26.069 147.518 24.6395C147.761 23.9746 147.744 23.2488 147.717 22.5396C147.446 15.2757 150.78 10.3279 158.554 10.2282C162.618 10.1783 166.831 13.0705 169.142 16.8825C170.513 19.1431 171.299 21.8913 170.768 24.5287C170.519 25.7809 170.077 26.8669 169.866 28.1634" fill="white"/>
<path d="M161.849 39.2503C161.65 39.3057 153.959 42.9127 153.76 42.9681C152.593 43.3005 151.443 43.5776 150.31 42.8129C149.862 42.5082 149.525 42.0262 149.475 41.4887C149.436 41.0787 149.563 40.6742 149.63 40.2698C149.84 39.0231 148.491 37.8152 149.215 36.8235C149.74 36.1087 151.04 35.6599 151.852 35.3773C151.007 35.3995 148.966 35.4826 148.336 34.7734C147.954 34.3412 148.424 33.0447 147.999 32.4075C147.175 31.1664 144.814 31.9864 144.504 30.1968C144.255 28.7729 146.992 26.069 147.518 24.6395C147.761 23.9746 147.744 23.2488 147.717 22.5396C147.446 15.2757 150.78 10.3279 158.554 10.2282C162.618 10.1783 166.831 13.0705 169.142 16.8825C170.513 19.1431 171.299 21.8913 170.768 24.5287C170.519 25.7809 170.077 26.8669 169.866 28.1634" stroke="#1D1D1B" stroke-width="2" stroke-linecap="round" stroke-linejoin="round"/>
<path d="M150.746 24.8113C151.968 24.2572 153.56 24.7337 154.285 25.864" stroke="#1D1D1B" stroke-width="2" stroke-linecap="round" stroke-linejoin="round"/>
<path d="M150.824 22.3346C152.019 21.6254 153.694 21.8747 154.628 22.8998" stroke="#1D1D1B" stroke-width="2" stroke-linecap="round" stroke-linejoin="round"/>
<path d="M151.35 25.5814C151.029 25.7532 151.251 26.3516 151.616 26.3183C151.98 26.2851 152.135 25.7421 151.886 25.4762C151.732 25.4651 151.577 25.4485 151.428 25.4374C151.383 25.6147 151.389 25.8086 151.444 25.9804C151.527 25.8917 151.61 25.8086 151.693 25.72" stroke="#1D1D1B" stroke-width="2" stroke-linecap="round" stroke-linejoin="round"/>
<path d="M145.258 8.46067C145.822 9.20312 146.657 9.74057 147.563 9.94557C146.894 8.67676 146.74 7.14753 147.149 5.77344C147.298 7.16969 148.387 8.4108 149.747 8.74878C149.615 7.33037 149.747 5.88979 150.14 4.52124C150.582 5.62938 151.871 6.17791 153.065 6.21669C156.814 6.33304 159.744 5.09747 163.609 5.95074C167.507 6.81508 171.814 8.09498 173.766 11.5856C177.465 18.1957 172.129 30.23 169.066 36.1807C168.099 35.5934 166.921 35.3607 165.799 35.5269C166.374 33.0392 166.689 30.496 166.727 27.9417C166.744 27.033 166.694 26.0357 166.092 25.3542C163.747 22.6836 162.16 27.5373 160.131 27.9473C159.528 24.8666 162.359 21.5478 159.28 18.8827C158.29 18.0239 156.93 17.7746 155.658 17.4643C151.262 16.3949 144.379 14.3061 145.247 8.46621L145.258 8.46067Z" fill="#1D1D1B" stroke="#1D1D1B" stroke-width="2" stroke-linecap="round" stroke-linejoin="round"/>
<path d="M147.239 51.822C148.854 53.7003 152.144 54.6311 154.184 55.4623C156.611 56.4485 159.099 57.6397 160.653 59.7507C161.184 60.471 161.648 61.3298 162.478 61.6567C164.081 62.2828 165.53 60.5708 166.591 59.2188C168.914 56.2435 172.17 54.0051 175.775 52.9025C177.401 52.4038 179.104 52.1268 180.647 51.412C183.384 50.1487 184.766 46.0708 182.3 43.7991C181.327 42.9015 179.978 42.5691 178.756 42.0649C177.047 41.3557 175.51 40.2475 173.752 39.6768C172.64 39.3167 170.484 38.7848 169.467 39.6491C167.299 41.4997 170.296 43.2229 171.275 44.2479C172.878 45.9378 171.877 49.1071 170.478 50.6474C169.433 51.7943 168.333 52.8969 167.189 53.9441C165.182 55.7725 164.17 59.9779 160.786 56.7144C159.851 55.8169 159.188 54.6533 158.198 53.8167C156.871 52.6974 153.742 52.4204 153.321 50.4147C153.145 49.5559 153.686 49.0295 153.979 48.276C154.405 47.1845 154.56 46.0708 154.549 44.8906C154.549 44.7133 154.532 44.5139 154.4 44.392C154.261 44.2645 154.051 44.2756 153.863 44.2922C152.912 44.3809 151.961 44.4751 151.01 44.5637C149.567 44.7022 147.936 44.9405 147.09 46.1262C146.565 46.8631 146.277 48.4422 146.277 49.362C146.277 50.3316 146.648 51.135 147.228 51.8165L147.239 51.822Z" fill="#1D1D1B" stroke="#1D1D1B" stroke-width="2" stroke-linecap="round" stroke-linejoin="round"/>
<path d="M189.883 221.057C189.513 220.181 190.458 219.245 191.398 219.101C192.338 218.957 193.289 219.267 194.24 219.239C196.811 219.156 198.63 216.624 199.404 214.164C200.178 211.704 200.366 209.011 201.716 206.812C202.7 205.205 204.264 203.947 204.906 202.174C205.691 200.002 205.066 197.176 206.797 195.647" stroke="#1D1D1B" stroke-width="2" stroke-linecap="round" stroke-linejoin="round"/>
<path d="M198.6 75.9684C198.567 76.0959 198.539 76.2178 198.506 76.3452C196.571 84.0191 193.259 90.0529 192.767 98.3029C192.617 100.791 192.8 103.677 194.801 105.157C195.714 105.833 196.864 106.082 197.986 106.265C201.304 106.808 204.981 106.819 207.701 104.835C210.305 102.935 211.45 99.6327 212.102 96.469C213.413 90.0806 213.307 83.4262 215.143 77.1708C216.271 73.3255 218.063 69.0869 215.044 65.9841C212.622 63.4964 207.939 62.7262 204.676 63.2138C199.739 63.9507 199.612 71.9791 198.605 75.9684H198.6Z" fill="#1D1D1B" stroke="#1D1D1B" stroke-width="2" stroke-linecap="round" stroke-linejoin="round"/>
<path d="M189.038 53.1408C186.92 52.2819 184.88 54.465 183.702 56.4264C181.529 60.05 179.672 63.8675 178.157 67.8125C176.288 72.6717 175.027 78.4728 177.863 82.8388C180.274 86.5566 184.974 88.1191 187.866 91.4768C190.315 94.3191 191.222 98.1644 193.168 101.372C195.114 104.58 199.068 107.29 202.463 105.705C204.464 104.769 204.89 103.971 205.819 101.965C206.748 99.9596 207.002 97.71 207.196 95.5048C207.583 91.1055 207.721 86.5178 206.023 82.4399C203.961 77.4921 199.444 73.9017 197.354 68.965C196.193 66.2223 195.844 63.2082 194.926 60.3713C194.009 57.5345 191.802 54.2655 189.043 53.1463L189.038 53.1408Z" fill="#1D1D1B" stroke="#1D1D1B" stroke-width="2" stroke-linecap="round" stroke-linejoin="round"/>
<path d="M162.141 27.7478C162.456 26.9388 163.07 26.2463 163.844 25.8473C164.131 25.6977 164.463 25.5869 164.784 25.6423C165.48 25.7642 165.818 26.5676 165.923 27.2713C166.088 28.3683 165.983 29.5374 165.419 30.4904C164.855 31.4434 163.766 32.1249 162.666 32.0086" stroke="#1D1D1B" stroke-width="2" stroke-linecap="round" stroke-linejoin="round"/>
<path d="M153.098 45.8714C155.851 48.5365 159.81 49.8939 163.614 49.4784C167.418 49.0628 170.996 46.8798 173.108 43.6884" stroke="#1D1D1B" stroke-width="2" stroke-linecap="round" stroke-linejoin="round"/>
<path d="M157.43 43.777C156.899 44.7023 157.231 46.0154 158.138 46.575" stroke="#1D1D1B" stroke-width="2" stroke-linecap="round" stroke-linejoin="round"/>
<path d="M165.924 38.9344C165.686 41.0454 165.051 43.1177 164.066 45.0015" stroke="#1D1D1B" stroke-width="2" stroke-linecap="round" stroke-linejoin="round"/>
<path d="M252.296 221.19C251.754 221.622 252.329 224.597 252.296 225.401C252.246 226.514 253.22 227.262 254.071 227.661C257.742 229.379 261.723 229.639 265.627 229.866C280.252 230.714 295.009 231.351 309.368 228.226C310.513 227.977 311.873 227.451 312.105 226.049C312.431 224.121 312.592 219.738 311.01 219.389C303.297 217.699 293.284 220.381 285.482 220.425C278.687 220.464 271.869 220.458 265.096 221.057C261.292 221.395 255.542 218.597 252.291 221.19H252.296Z" fill="white" stroke="#1D1D1B" stroke-width="2" stroke-linecap="round" stroke-linejoin="round"/>
<path d="M253.439 219.367C252.897 219.799 252.328 220.381 252.295 221.184C252.245 222.298 253.218 223.046 254.07 223.445C257.741 225.162 261.722 225.423 265.626 225.65C280.25 226.498 295.008 227.135 309.367 224.01C310.511 223.761 311.871 223.234 312.104 221.832C312.43 219.904 310.401 218.741 308.819 218.392C301.106 216.702 293.277 216.164 285.481 216.209C278.685 216.247 271.868 216.242 265.095 216.84C261.291 217.178 256.685 216.774 253.434 219.361L253.439 219.367Z" fill="white" stroke="#1D1D1B" stroke-width="2" stroke-linecap="round" stroke-linejoin="round"/>
<path d="M313.736 184.76C313.564 180.748 312.845 176.637 313.94 172.775C314.615 170.387 315.958 168.232 316.672 165.855C317.772 162.176 317.308 158.181 318.225 154.452C319.398 149.671 322.737 145.654 323.965 140.889C324.407 139.171 322.665 138.722 321.311 137.581C319.956 136.439 318.386 135.492 317.418 134.007C316.721 132.938 315.997 131.431 314.742 131.63C313.857 131.774 313.387 132.738 313.078 133.58C311.474 138.041 311.049 142.811 309.639 147.244C308.135 151.964 305.47 156.486 303.744 161.162C300.261 170.631 297.685 180.432 296.065 190.389C294.815 198.074 294.124 206.324 296.905 213.771C297.812 216.203 299.1 219.145 301.599 220.27C304.756 221.688 309.296 221.483 312.691 221.932C313 221.971 313.343 222.01 313.603 221.838C314.045 221.555 314.001 220.907 313.913 220.392C312.945 214.957 310.938 208.734 312.016 203.122C313.161 197.149 314.001 190.871 313.741 184.76H313.736Z" fill="white" stroke="#1D1D1B" stroke-width="2" stroke-linecap="round" stroke-linejoin="round"/>
<path d="M330.495 135.287C330.28 136.816 330.069 138.351 329.854 139.88C329.787 140.346 329.71 140.844 329.378 141.182C329.107 141.459 328.715 141.57 328.333 141.631C326.575 141.914 324.767 141.276 323.296 140.262C321.831 139.249 320.648 137.885 319.481 136.534C316.783 133.409 314.085 130.284 311.386 127.153C310.175 125.751 308.954 124.327 308.179 122.643C307.345 120.826 307.079 118.803 306.714 116.836C305.835 112.127 304.304 107.567 303.253 102.896C302.202 98.2253 301.638 93.3273 302.706 88.6565C302.993 87.3932 303.701 87.4819 304.679 86.6342C305.658 85.7864 306.421 85.0495 307.389 85.9028C310.38 88.5291 311.563 92.679 311.906 96.6462C312.249 100.613 311.884 104.636 312.453 108.581C313.006 112.404 314.45 116.094 316.634 119.28C317.69 120.82 318.906 122.233 319.957 123.779C320.985 125.292 321.831 126.909 322.611 128.561C323.451 130.345 323.595 132.018 325.707 132.339C326.89 132.517 328.101 132.195 329.246 132.522C330.716 132.943 332.182 134.384 333.166 135.497C330.832 135.913 329.306 135.015 327.106 134.982" fill="white"/>
<path d="M330.495 135.287C330.28 136.816 330.069 138.351 329.854 139.88C329.787 140.346 329.71 140.844 329.378 141.182C329.107 141.459 328.715 141.57 328.333 141.631C326.575 141.914 324.767 141.276 323.296 140.262C321.831 139.249 320.648 137.885 319.481 136.534C316.783 133.409 314.085 130.284 311.386 127.153C310.175 125.751 308.954 124.327 308.179 122.643C307.345 120.826 307.079 118.803 306.714 116.836C305.835 112.127 304.304 107.567 303.253 102.896C302.202 98.2253 301.638 93.3273 302.706 88.6565C302.993 87.3932 303.701 87.4819 304.679 86.6342C305.658 85.7864 306.421 85.0495 307.389 85.9028C310.38 88.5291 311.563 92.679 311.906 96.6462C312.249 100.613 311.884 104.636 312.453 108.581C313.006 112.404 314.45 116.094 316.634 119.28C317.69 120.82 318.906 122.233 319.957 123.779C320.985 125.292 321.831 126.909 322.611 128.561C323.451 130.345 323.595 132.018 325.707 132.339C326.89 132.517 328.101 132.195 329.246 132.522C330.716 132.943 332.182 134.384 333.166 135.497C330.832 135.913 329.306 135.015 327.106 134.982" stroke="#1D1D1B" stroke-width="2" stroke-linecap="round" stroke-linejoin="round"/>
<path d="M244.665 107.678C244.621 110.947 244.405 114.21 244.023 117.457C246.86 118.222 250.144 116.46 251.073 113.667C251.632 115.518 254.402 116.155 255.756 114.775C255.977 114.548 256.188 114.271 256.497 114.205C257.227 114.038 257.94 115.136 258.576 114.737C259.179 110.443 259.671 106.132 260.052 101.816C260.666 94.8621 260.97 87.6648 258.654 81.0824C258.018 79.2817 257.172 77.5142 255.834 76.1568C254.496 74.7993 252.61 73.8851 250.714 74.079C245.002 74.6497 244.825 83.6035 244.571 87.7091C244.162 94.3635 244.759 101.023 244.665 107.683V107.678Z" fill="white" stroke="#1D1D1B" stroke-width="2" stroke-linecap="round" stroke-linejoin="round"/>
<path d="M291.742 65.9397C291.941 68.3554 292.898 70.8155 294.806 72.3059L292.295 76.2121C295.381 78.035 298.361 80.0241 301.225 82.1739C303.254 77.974 305.195 73.7299 307.058 69.4524C307.528 68.372 307.993 67.2805 308.208 66.128C308.728 63.2912 307.661 60.3934 306.24 57.889C304.99 55.6949 303.238 53.5119 300.766 52.9855C298.941 52.5921 297.001 53.2072 295.502 54.3208C291.908 56.9859 291.389 61.7066 291.742 65.9397Z" fill="white" stroke="#1D1D1B" stroke-width="2" stroke-linecap="round" stroke-linejoin="round"/>
<path d="M294.164 71.6023C295.176 72.6827 296.741 73.2202 298.2 72.993" stroke="#1D1D1B" stroke-width="2" stroke-linecap="round" stroke-linejoin="round"/>
<path d="M299.133 61.5016C299.857 61.3022 300.576 61.7787 301.173 62.233" stroke="#1D1D1B" stroke-width="2" stroke-linecap="round" stroke-linejoin="round"/>
<path d="M300.599 63.0309C300.068 62.6929 299.427 62.5322 298.802 62.5876C298.753 62.5876 299.062 62.8093 299.012 62.8204C298.847 62.9312 298.918 63.2414 299.112 63.2691C299.305 63.2969 299.46 63.0143 299.328 62.8647" stroke="#1D1D1B" stroke-width="2" stroke-linecap="round" stroke-linejoin="round"/>
<path d="M295.182 62.6929C294.601 62.366 293.899 62.2663 293.252 62.4048C293.13 62.5766 293.136 63.0143 293.346 63.0364C293.556 63.0586 293.744 62.8093 293.661 62.6153" stroke="#1D1D1B" stroke-width="2" stroke-linecap="round" stroke-linejoin="round"/>
<path d="M292.996 61.2191C293.731 60.9143 294.583 60.8977 295.335 61.1748" stroke="#1D1D1B" stroke-width="2" stroke-linecap="round" stroke-linejoin="round"/>
<path d="M295.939 62.4989C295.884 63.2136 295.735 63.9229 295.486 64.5933C295.387 64.8592 295.276 65.1252 295.281 65.4078C295.287 65.6903 295.453 65.9951 295.729 66.0505C296.05 66.117 296.371 65.8344 296.691 65.9064C296.846 65.9452 296.968 66.056 297.112 66.1225C297.255 66.189 297.465 66.1724 297.521 66.0228" stroke="#1D1D1B" stroke-width="2" stroke-linecap="round" stroke-linejoin="round"/>
<path d="M295.574 67.5355C296.022 67.4136 296.52 67.469 296.934 67.674" stroke="#1D1D1B" stroke-width="2" stroke-linecap="round" stroke-linejoin="round"/>
<path d="M295.578 68.5051C295.938 68.433 296.313 68.4552 296.662 68.5715" stroke="#1D1D1B" stroke-width="2" stroke-linecap="round" stroke-linejoin="round"/>
<path d="M277.676 87.7256C274.281 88.9501 270.709 89.6815 267.11 89.881C266.673 89.9031 266.208 89.9198 265.821 89.7148C265.296 89.4433 265.025 88.8615 264.798 88.3185C263.875 86.141 263.892 83.1601 263.068 80.9383C266.076 79.7637 269.083 78.5891 272.091 77.4144C279.224 80.7111 295.082 81.8414 302.574 84.1796C307.445 85.6978 309.048 90.9005 308.943 95.538C308.882 98.2807 307.572 100.447 307.041 103.112C305.869 108.98 306.057 114.781 306.173 120.709C306.217 123.086 306.626 125.441 306.991 127.79C309.231 142.196 309.9 157.317 304.907 171.013C302.507 177.601 300.876 184.438 299.693 191.342C299.085 194.883 298.598 198.445 298.172 202.013C297.835 204.845 296.514 208.9 298.548 211.327C299.278 212.197 300.235 212.845 301.175 213.483C304.99 216.059 308.805 218.635 312.62 221.212C310.878 222.647 308.329 222.093 306.09 221.821C304.078 221.578 302.153 221.727 300.185 221.295C298.001 220.813 296.055 220.309 293.771 220.458C292.267 220.558 290.708 220.835 289.298 220.309C285.875 219.029 287.689 216.109 288.668 213.959C289.751 211.571 290.21 208.972 290.354 206.368C290.631 201.332 289.718 196.146 289.735 191.215C289.757 184.167 290.503 177.003 293.207 170.492C294.048 168.476 295.082 166.475 295.225 164.298C295.364 162.226 294.678 160.203 294.059 158.22C292.875 154.402 291.93 150.507 291.228 146.568C287.639 153.477 284.819 160.791 282.834 168.326C281.154 174.726 280.048 181.363 277.084 187.281C275.254 190.938 272.749 194.251 271.273 198.063C269.797 201.875 269.493 205.028 269.144 209.094C268.796 213.161 268.055 217.444 265.384 220.53C264.948 221.035 264.356 221.539 263.698 221.45C263.117 221.373 262.708 220.863 262.354 220.397C260.414 217.81 258.373 214.918 258.595 211.687C258.694 210.191 259.286 208.773 259.911 207.41C260.967 205.105 262.144 202.856 263.438 200.673C264.085 199.581 264.765 198.495 265.169 197.293C265.512 196.262 265.639 195.176 265.76 194.101C267.06 182.743 268.398 171.135 273.33 160.829C275.978 155.3 273.407 150.191 273.407 144.058C273.407 135.215 277.228 126.86 278.737 118.15C279.357 114.565 279.55 110.941 279.688 107.312C279.932 100.879 278.605 94.0808 277.67 87.7312L277.676 87.7256Z" fill="white" stroke="#1D1D1B" stroke-width="2" stroke-linecap="round" stroke-linejoin="round"/>
<path d="M298.847 122.582C298.046 126.998 297.156 131.608 294.363 135.115" stroke="#1D1D1B" stroke-width="2" stroke-linecap="round" stroke-linejoin="round"/>
<path d="M292.529 127.026C291.694 127.824 291.953 129.198 292.28 130.311C291.727 130.793 290.953 130.926 290.223 131.021C289.493 131.115 288.724 131.209 288.127 131.647C287.53 132.084 287.215 132.993 287.668 133.575C288.194 134.251 289.487 134.262 289.604 135.11C289.642 135.387 289.521 135.653 289.41 135.908C289.161 136.506 288.973 137.154 289.084 137.791C289.194 138.429 289.698 139.032 290.339 139.077C290.671 139.099 291.025 138.988 291.318 139.132C291.948 139.448 291.605 140.384 291.622 141.094C291.644 142.207 292.938 143.016 294.016 142.745C295.094 142.473 295.829 141.371 295.929 140.263C296.62 140.429 297.367 140.595 298.036 140.335C299.318 139.836 299.562 138.146 299.6 136.766C300.607 136.921 301.502 135.946 301.652 134.932C301.801 133.918 301.403 132.916 301.021 131.974C301.746 132.223 302.531 131.503 302.569 130.738C302.608 129.973 302.1 129.275 301.497 128.804C300.297 127.874 298.738 126.638 297.239 126.45C296.067 126.3 293.43 126.161 292.523 127.026H292.529Z" stroke="#1D1D1B" stroke-width="2" stroke-linecap="round" stroke-linejoin="round"/>
<path d="M248.244 68.3887C247.757 67.408 247.348 66.3774 246.69 65.502C246.049 64.6432 242.283 61.7066 241.448 63.7456C240.973 64.9147 241.874 66.5935 241.681 67.8457C241.471 69.1976 238.794 71.3197 239.381 72.7326C239.967 74.1455 243.229 73.9183 244.257 74.971C247.37 78.1625 250.489 81.3484 253.602 84.5398C255.769 86.7561 258.13 89.0832 261.177 89.6594C260.469 86.069 259.512 79.1764 256.715 76.744C255.172 75.4032 253.192 74.6718 251.683 73.1592C250.29 71.7685 249.117 70.1562 248.238 68.3942L248.244 68.3887Z" fill="white" stroke="#1D1D1B" stroke-width="2" stroke-linecap="round" stroke-linejoin="round"/>
<path d="M242.345 68.1782C242.577 67.7349 242.467 67.1753 242.19 66.7542C241.914 66.3331 241.51 66.0284 241.107 65.7236C240.211 65.0532 236.329 61.3188 236.783 64.5269C236.949 65.7181 241.969 68.8929 242.345 68.1726V68.1782Z" fill="white" stroke="#1D1D1B" stroke-width="2" stroke-linecap="round" stroke-linejoin="round"/>
<path d="M236.787 65.4688C236.3 65.9175 236.239 66.6988 236.483 67.3138C236.726 67.9288 237.218 68.4109 237.727 68.8319C238.661 69.6021 239.712 70.2393 240.829 70.7102C241.083 70.8155 241.354 70.9152 241.619 70.8654C242.222 70.7546 242.449 69.9345 242.183 69.386C241.918 68.8375 241.359 68.4995 240.829 68.1948" fill="white"/>
<path d="M236.787 65.4688C236.3 65.9175 236.239 66.6988 236.483 67.3138C236.726 67.9288 237.218 68.4109 237.727 68.8319C238.661 69.6021 239.712 70.2393 240.829 70.7102C241.083 70.8155 241.354 70.9152 241.619 70.8654C242.222 70.7546 242.449 69.9345 242.183 69.386C241.918 68.8375 241.359 68.4995 240.829 68.1948" stroke="#1D1D1B" stroke-width="2" stroke-linecap="round" stroke-linejoin="round"/>
<path d="M239.388 72.7326C240.156 73.0151 240.897 73.3753 241.577 73.8407C241.87 74.0402 242.163 74.3006 242.202 74.6496C242.246 75.0597 241.903 75.4309 241.516 75.5639C241.129 75.6968 240.704 75.6414 240.295 75.586C238.652 75.3699 236.75 74.4336 235.716 73.065C235.512 72.7991 235.346 72.4112 235.551 72.1453C235.738 71.8904 236.12 71.9181 236.435 71.9735C237.43 72.1453 238.437 72.3835 239.393 72.7381L239.388 72.7326Z" fill="white" stroke="#1D1D1B" stroke-width="2" stroke-linecap="round" stroke-linejoin="round"/>
<path d="M234.51 68.3832C233.902 69.6132 234.449 71.5802 235.721 72.2173C236.899 72.8046 239.006 72.8933 240.294 72.8878C240.791 72.8878 241.405 72.7603 241.538 72.2783C241.643 71.9015 241.372 71.5248 241.073 71.2699C240.581 70.8599 239.984 70.6105 239.393 70.3667C238.066 69.8182 236.733 69.2697 235.345 68.9206" fill="white"/>
<path d="M234.51 68.3832C233.902 69.6132 234.449 71.5802 235.721 72.2173C236.899 72.8046 239.006 72.8933 240.294 72.8878C240.791 72.8878 241.405 72.7603 241.538 72.2783C241.643 71.9015 241.372 71.5248 241.073 71.2699C240.581 70.8599 239.984 70.6105 239.393 70.3667C238.066 69.8182 236.733 69.2697 235.345 68.9206" stroke="#1D1D1B" stroke-width="2" stroke-linecap="round" stroke-linejoin="round"/>
<path d="M227.725 64.078C227.327 64.8149 226.934 65.5463 226.52 66.1834C229.87 66.7098 233.575 67.6074 236.621 69.1588C238.612 70.1727 240.901 70.4276 242.875 71.5136C242.847 71.497 245.689 67.6019 245.899 67.3137C245.999 67.1752 246.104 67.009 246.065 66.8372C246.021 66.6544 245.833 66.5547 245.667 66.4771C242.919 65.2194 240.226 63.8508 237.462 62.6263C236.085 62.0168 234.697 61.4351 233.276 60.9253C231.756 60.3768 230.661 59.8671 229.467 61.2966C228.82 62.0667 228.261 63.0751 227.719 64.0724L227.725 64.078Z" fill="white" stroke="#1D1D1B" stroke-width="2" stroke-linecap="round" stroke-linejoin="round"/>
<path d="M249.464 70.5329L247.374 66.6156C246.976 65.8677 246.573 65.1197 246.014 64.4825C244.848 63.1583 243.134 62.4712 241.458 61.9171C240.369 61.557 239.269 61.2246 238.163 60.9309C237.632 60.7868 236.913 60.737 236.687 61.2356C236.443 61.762 237.018 62.2828 237.51 62.5876C238.533 63.2192 240.75 64.5711 241.104 65.7291C242.553 70.411 244.179 69.7738 244.964 71.0593" fill="white"/>
<path d="M249.464 70.5329L247.374 66.6156C246.976 65.8677 246.573 65.1197 246.014 64.4825C244.848 63.1583 243.134 62.4712 241.458 61.9171C240.369 61.557 239.269 61.2246 238.163 60.9309C237.632 60.7868 236.913 60.737 236.687 61.2356C236.443 61.762 237.018 62.2828 237.51 62.5876C238.533 63.2192 240.75 64.5711 241.104 65.7291C242.553 70.411 244.179 69.7738 244.964 71.0593" stroke="#1D1D1B" stroke-width="2" stroke-linecap="round" stroke-linejoin="round"/>
<path d="M300.855 81.7749C301.945 81.4536 303.061 81.1267 304.195 81.1876C305.328 81.2486 306.506 81.7749 307.042 82.7778C307.291 83.2488 307.385 83.7862 307.446 84.3181C307.496 84.7337 307.518 85.188 307.302 85.5482C307.015 86.0302 306.407 86.1853 305.887 86.3959C304.25 87.0718 303.006 88.6842 301.248 88.9003C300.192 89.0332 299.152 88.6232 298.168 88.2188C289.294 84.6062 280.425 80.9882 271.551 77.3756C274.548 75.9351 277.677 74.4612 281.006 74.4834C282.454 74.4945 283.886 74.7881 285.307 75.0873C287.801 75.6082 290.295 76.1234 292.788 76.6443C293.811 76.8548 294.115 77.1873 294.961 77.8078C296.874 79.2151 298.948 80.3621 300.861 81.7694L300.855 81.7749Z" fill="white" stroke="#1D1D1B" stroke-width="2" stroke-linecap="round" stroke-linejoin="round"/>
<path d="M274.064 155.843C272.206 156.153 270.298 156.17 268.435 155.898C267.263 155.727 266.079 155.433 265.095 154.768C263.713 153.837 262.867 152.28 262.375 150.684C261.076 146.451 261.899 141.637 259.876 137.703C258.853 135.714 257.133 134.035 256.68 131.841C256.47 130.838 256.547 129.802 256.641 128.782C257.471 119.585 259.467 110.503 259.843 101.284C260.219 92.0585 259.146 82.124 253.805 74.5998C255.928 73.0318 259.124 73.9017 260.926 75.8354C262.729 77.7691 263.448 80.4452 264.017 83.0272C264.587 85.6091 265.084 88.2908 266.583 90.4683C269.325 94.4687 273.953 98.807 278.791 98.9788C279.687 101.395 280.671 115.274 277.857 124.444C276.95 127.397 275.678 130.239 274.882 133.226C272.974 140.412 275.175 153.172 274.069 155.843H274.064Z" fill="white" stroke="#1D1D1B" stroke-width="2" stroke-linecap="round" stroke-linejoin="round"/>
<path d="M285.793 99.954C289.586 100.525 293.451 100.652 297.272 100.32" stroke="#1D1D1B" stroke-width="2" stroke-linecap="round" stroke-linejoin="round"/>
<path d="M301.135 101.605C299.825 107.007 299.106 112.559 298.984 118.116" stroke="#1D1D1B" stroke-width="2" stroke-linecap="round" stroke-linejoin="round"/>
<path d="M295.055 108.736C297.576 109.19 300.147 109.362 302.707 109.235" stroke="#1D1D1B" stroke-width="2" stroke-linecap="round" stroke-linejoin="round"/>
<path d="M295.258 112.914C297.199 113.556 299.261 113.817 301.301 113.667" stroke="#1D1D1B" stroke-width="2" stroke-linecap="round" stroke-linejoin="round"/>
<path d="M290.824 94.9729C291.2 94.8178 291.521 94.5407 291.737 94.1972C291.35 94.1917 291.001 94.5795 291.056 94.9674" stroke="#1D1D1B" stroke-width="2" stroke-linecap="round" stroke-linejoin="round"/>
<path d="M306.787 95.948C306.594 95.5713 307.202 95.128 307.501 95.4272C307.799 95.7264 307.357 96.3359 306.981 96.142" stroke="#1D1D1B" stroke-width="2" stroke-linecap="round" stroke-linejoin="round"/>
<path d="M304.449 101.029C305.102 101.217 305.749 101.411 306.401 101.6" stroke="#1D1D1B" stroke-width="2" stroke-linecap="round" stroke-linejoin="round"/>
<path d="M327.067 135.547C326.37 136.251 325.552 136.833 324.656 137.265" stroke="#1D1D1B" stroke-width="2" stroke-linecap="round" stroke-linejoin="round"/>
<path d="M299.178 53.4898C299.001 53.9496 298.244 53.8721 298.001 53.4454C297.757 53.0188 297.907 52.4703 298.144 52.0436C298.321 51.7278 298.542 51.3067 298.299 51.0408C298.205 50.9355 298.061 50.8912 297.923 50.8579C297.232 50.6695 296.397 50.5587 295.877 51.0519C295.618 51.3012 295.374 51.7112 295.026 51.617C294.827 51.5616 294.716 51.3621 294.578 51.2125C293.953 50.5255 292.781 50.9023 292.09 51.5284C291.659 51.9217 291.277 52.437 291.244 53.0188C291.211 53.6006 291.642 54.2378 292.228 54.2488C292.709 54.2544 293.262 53.8831 293.627 54.199C293.904 54.4372 293.804 54.9193 293.539 55.1741C293.273 55.429 292.908 55.5398 292.577 55.7005C292.201 55.8833 291.847 56.1659 291.675 56.5482C291.504 56.9305 291.559 57.4347 291.88 57.7062C292.051 57.8503 292.283 57.9223 292.433 58.0996C292.886 58.6426 292.129 59.5125 292.438 60.1497C292.704 59.3296 293.223 58.6869 294.08 58.5595C294.335 58.5207 294.6 58.5706 294.855 58.5041C295.12 58.432 295.336 58.2381 295.54 58.0497C296.37 57.2851 297.276 56.3155 297.088 55.2018C297.37 55.1575 299.084 53.7613 299.184 53.4953L299.178 53.4898Z" fill="white" stroke="#1D1D1B" stroke-width="2" stroke-linecap="round" stroke-linejoin="round"/>
<path d="M300.201 51.7389C299.56 52.3041 299.217 53.318 299.676 54.0439C299.897 54.3929 300.278 54.6533 300.356 55.0578C300.422 55.4013 300.251 55.7338 300.157 56.0662C299.858 57.1023 300.306 58.2548 301.097 58.9862C301.887 59.7175 302.96 60.0721 304.027 60.194C304.281 60.2217 304.558 60.2494 304.757 60.4101C305.409 60.9586 304.491 61.8895 304.193 62.6873C303.922 63.4076 304.298 64.3108 305.006 64.621C305.465 64.8205 306.145 64.959 306.117 65.4577C306.084 66.0672 304.912 66.322 305.166 66.8761C305.813 66.7819 306.46 66.6932 307.107 66.5991C307.781 67.5354 307.356 69.0536 306.294 69.5024C305.819 69.7018 305.243 69.7295 304.895 70.1063C304.232 70.8321 305.006 71.9791 304.923 72.9598C304.879 73.4972 304.563 73.9682 304.409 74.4834C304.254 74.9987 304.315 75.6747 304.79 75.9185C305.089 76.0736 305.459 76.0016 305.769 75.8686C307.416 75.1705 308.235 72.9653 310.01 72.7271C310.33 72.6827 310.684 72.7049 310.939 72.5054C311.204 72.306 311.276 71.9458 311.331 71.6134C311.475 70.7379 311.569 69.7018 310.922 69.0979C310.651 68.843 310.292 68.7101 310.026 68.4496C309.285 67.7127 309.683 66.4661 310.087 65.502C310.69 64.067 311.182 62.3106 310.286 61.0417C309.678 60.1885 308.611 59.8173 307.776 59.1801C306.941 58.5429 306.366 57.2353 307.101 56.4818C307.555 56.0108 308.351 55.9665 308.738 55.4457C309.219 54.7919 308.66 52.1545 308.555 51.3289C308.412 50.2042 308.334 49.2179 306.869 50.3205C306.559 50.5532 306.217 50.7915 305.83 50.7859C305 50.7638 304.552 49.639 303.723 49.5559C303.059 49.4894 300.754 51.2569 300.206 51.7389H300.201Z" fill="white" stroke="#1D1D1B" stroke-width="2" stroke-linecap="round" stroke-linejoin="round"/>
</g>
<defs>
<clipPath id="clip0_115_1532">
<rect width="334" height="236" fill="white"/>
</clipPath>
</defs>
</svg>
