<svg width="387" height="280" viewBox="0 0 387 280" fill="none" xmlns="http://www.w3.org/2000/svg">
<path d="M258.824 98.5435C246.655 98.5435 234.486 98.5435 222.31 98.5435C211.772 98.5435 201.564 97.3008 191.005 96.6479C176.89 95.7843 161.703 95.0752 148.008 99.2385C145.83 99.8984 143.338 99.1472 141.034 99.2525C134.053 99.5685 127.346 101.534 120.505 102.728C110.177 104.532 100.445 108.021 90.6567 111.637C84.1451 114.038 76.9824 114.424 70.6388 116.931C66.9979 118.37 64.0502 120.806 60.9975 123.165C58.7219 124.92 54.3109 126.76 52.7845 129.329C48.2404 136.961 56.5934 145.982 60.7734 151.564C66.9839 159.862 73.4115 166.813 82.8708 171.46C105.5 182.581 133.976 181.963 158.482 181.956C174.691 181.956 190.928 182.244 207.13 181.704C222.436 181.191 237.973 181.521 253.082 178.664C281.341 173.314 307.997 159.518 330.437 141.651C333.511 139.2 337.768 136.006 338.356 131.765C339.189 125.756 332.111 120.848 327.636 118.166C323.162 115.484 318.044 113.364 313.934 109.706C309.824 106.049 305.378 102.931 299.665 101.303C287.02 97.6939 271.931 98.5364 258.824 98.5364V98.5435Z" fill="white" stroke="#1D1D1B" stroke-width="2" stroke-linecap="round" stroke-linejoin="round"/>
<path d="M264.416 136.195C263.961 135.521 263.394 134.826 262.679 134.117C259.067 130.487 254.116 128.529 249.194 127.132C236.857 123.628 223.876 123.088 211.056 123.277C195.106 123.516 178.225 124.66 162.653 128.353C153.999 130.403 142.229 130.775 134.415 136.202C133.288 136.989 132.238 137.873 131.292 138.891C124.676 146.017 132.889 152.294 139.141 154.751C147.922 158.205 157.766 158.57 167.183 159.097C175.242 159.546 183.315 159.581 191.381 159.216C199.503 158.851 207.814 157.082 215.887 157.215C220.984 157.299 251.918 154.049 262.357 145.856C265.76 143.181 266.972 139.986 264.409 136.209L264.416 136.195Z" fill="white" stroke="#1D1D1B" stroke-width="2" stroke-linecap="round" stroke-linejoin="round"/>
<path d="M66.8357 124.443C85.8173 115.049 106.605 108.745 127.786 106.224C149.981 103.585 172.477 101.043 194.939 100.165C212.527 99.4845 230.136 99.5828 247.725 100.25C262.491 100.811 277.356 101.914 291.744 105.333C298.697 106.983 305.846 109.131 312.617 111.342C319.338 113.54 325.626 117.001 330.989 121.494C335.785 125.517 335.274 131.408 332.501 136.203H345.854C346.337 134.799 346.589 133.254 346.519 131.478C346.337 126.942 344.033 122.583 340.896 119.543C333.797 112.669 324.617 108.211 315.403 104.841C290.666 95.8056 264.48 94.0926 238.412 93.1027C192.537 91.3685 147.222 91.4879 102.215 101.843C85.7823 105.628 68.7611 109.679 55.4999 120.027C50.2066 124.155 45.4455 129.688 44.3672 136.203H55.1078C56.3751 130.958 62.0045 126.837 66.8427 124.443H66.8357Z" fill="white" stroke="#1D1D1B" stroke-width="2" stroke-linecap="round" stroke-linejoin="round"/>
<path d="M83.2689 154.421C69.5736 155.545 55.6892 157.791 42.8621 163.534C31.5403 168.61 18.4961 177.695 10.4022 188.022C5.37493 194.439 1.61501 202.408 1.06888 210.931C0.0396287 227.022 10.6892 241.625 23.3693 249.257" stroke="#1D1D1B" stroke-width="2" stroke-linecap="round" stroke-linejoin="round"/>
<path d="M328.848 155.264C347.829 157.616 364.017 162.944 377.138 177.372C384.917 185.923 386.892 197.592 384.441 208.86C381.858 220.711 373.112 232.091 363.765 239.603" stroke="#1D1D1B" stroke-width="2" stroke-linecap="round" stroke-linejoin="round"/>
<path d="M47.7852 146.102C47.7852 148.664 47.9252 148.903 48.0512 151.459C48.5063 160.312 48.7304 169.172 48.7024 178.032C48.6814 185.916 49.3675 194.552 52.8544 201.874C56.8384 210.25 63.8891 214.498 71.5279 218.935C72.1021 219.265 72.6762 219.58 73.2574 219.91C72.1651 199.298 70.2396 178.685 68.2441 158.072C60.5493 154.653 53.6596 150.679 47.7852 146.102Z" fill="white" stroke="#1D1D1B" stroke-width="2" stroke-linecap="round" stroke-linejoin="round"/>
<path d="M68.2344 158.072C70.2369 178.685 72.1623 199.298 73.2476 219.91C74.795 220.781 76.3634 221.616 77.9457 222.424C76.8955 201.558 75.1171 180.693 72.3934 159.827C70.986 159.259 69.5927 158.676 68.2344 158.072Z" fill="white" stroke="#1D1D1B" stroke-width="2" stroke-linecap="round" stroke-linejoin="round"/>
<path d="M98.5957 167.985C89.2204 165.781 80.4263 163.078 72.4023 159.834C75.126 180.7 76.9044 201.565 77.9547 222.431C85.0964 226.11 92.4902 229.192 100.073 231.754C99.2469 210.425 99.1138 189.413 98.5957 167.985Z" fill="white" stroke="#1D1D1B" stroke-width="2" stroke-linecap="round" stroke-linejoin="round"/>
<path d="M133.52 173.756C133.499 195.801 133.114 217.846 133.926 239.891C136.047 240.228 138.183 240.537 140.318 240.818C139.478 218.626 138.47 196.433 138.435 174.241C136.789 174.086 135.151 173.932 133.527 173.756H133.52Z" fill="white" stroke="#1D1D1B" stroke-width="2" stroke-linecap="round" stroke-linejoin="round"/>
<path d="M138.43 174.241C138.472 196.433 139.473 218.626 140.313 240.818C151.845 242.356 163.531 243.149 175.175 243.493C174.818 220.963 174.685 198.666 174.166 175.975C162.095 175.876 150.081 175.322 138.43 174.241Z" fill="white" stroke="#1D1D1B" stroke-width="2" stroke-linecap="round" stroke-linejoin="round"/>
<path d="M217.618 174.472C205.687 175.371 193.469 175.898 181.258 175.975C182.105 198.532 180.81 221.09 182.063 243.647C184.36 243.682 186.649 243.704 188.932 243.711C198.398 243.732 207.885 243.535 217.345 242.959C217.366 220.107 217.996 197.458 217.625 174.472H217.618Z" fill="white" stroke="#1D1D1B" stroke-width="2" stroke-linecap="round" stroke-linejoin="round"/>
<path d="M223.883 173.96C224.289 196.665 223.267 219.721 222.734 242.587C233.755 241.738 244.713 240.313 255.516 238.059C256.553 215.312 258.002 192.733 258.128 169.832C247.254 171.524 235.737 172.928 223.876 173.96H223.883Z" fill="white" stroke="#1D1D1B" stroke-width="2" stroke-linecap="round" stroke-linejoin="round"/>
<path d="M263.81 168.905C263.277 168.996 262.745 169.088 262.206 169.179C260.862 169.403 259.496 169.614 258.131 169.832C258.005 192.733 256.549 215.312 255.52 238.059C257.361 237.673 259.195 237.266 261.03 236.837C261.66 214.153 263.999 191.708 263.81 168.912V168.905Z" fill="white" stroke="#1D1D1B" stroke-width="2" stroke-linecap="round" stroke-linejoin="round"/>
<path d="M263.807 168.905C263.989 191.708 261.657 214.146 261.027 236.83C261.742 236.662 262.456 236.5 263.17 236.325C272.811 233.931 282.292 230.785 291.394 226.784C291.919 205.427 292.731 184.07 293.137 162.713C283.426 165.023 274.331 167.115 263.807 168.905Z" fill="white" stroke="#1D1D1B" stroke-width="2" stroke-linecap="round" stroke-linejoin="round"/>
<path d="M293.138 162.72C292.739 184.077 291.92 205.434 291.395 226.791C292.711 226.215 294.013 225.618 295.308 225.007C295.932 203.959 297.262 182.946 297.353 161.723C295.932 162.06 294.524 162.397 293.138 162.727V162.72Z" fill="white" stroke="#1D1D1B" stroke-width="2" stroke-linecap="round" stroke-linejoin="round"/>
<path d="M321.929 152.694C316.573 155.776 310.894 158.522 305.09 159.884C302.429 160.508 299.86 161.119 297.353 161.716C297.269 182.94 295.932 203.952 295.309 225.001C298.97 223.266 302.569 221.399 306.084 219.363C310.88 216.59 315.516 213.529 319.927 210.173C320.669 191.013 322.062 171.854 321.929 152.694Z" fill="white" stroke="#1D1D1B" stroke-width="2" stroke-linecap="round" stroke-linejoin="round"/>
<path d="M325.471 150.588C324.309 151.297 323.126 152.006 321.928 152.694C322.054 171.854 320.668 191.013 319.926 210.173C321.347 209.092 322.747 207.975 324.12 206.838C324.54 188.044 326.038 169.214 325.471 150.588Z" fill="white" stroke="#1D1D1B" stroke-width="2" stroke-linecap="round" stroke-linejoin="round"/>
<path d="M342.059 138.526C337.473 143.462 334.386 144.986 328.693 148.58C327.636 149.247 326.565 149.921 325.472 150.581C326.033 169.207 324.541 188.043 324.121 206.831C324.394 206.599 324.681 206.382 324.954 206.15C328.84 202.864 332.089 198.982 334.981 194.797C340.512 186.787 340.575 176.719 341.464 167.417C341.989 161.912 342.438 156.401 342.802 150.89C342.977 148.25 343.131 145.61 343.271 142.971C343.348 141.573 341.191 139.46 342.066 138.519L342.059 138.526Z" fill="white" stroke="#1D1D1B" stroke-width="2" stroke-linecap="round" stroke-linejoin="round"/>
<path d="M223.883 173.96C221.803 174.142 219.717 174.311 217.616 174.472C217.994 197.458 217.364 220.107 217.336 242.959C219.135 242.847 220.935 242.728 222.734 242.587C223.266 219.721 224.289 196.665 223.883 173.96Z" fill="white" stroke="#1D1D1B" stroke-width="2" stroke-linecap="round" stroke-linejoin="round"/>
<path d="M181.257 175.975C178.89 175.989 176.524 175.996 174.164 175.975C174.682 198.666 174.808 220.964 175.172 243.493C177.469 243.563 179.765 243.612 182.062 243.647C180.816 221.09 182.104 198.532 181.257 175.975Z" fill="white" stroke="#1D1D1B" stroke-width="2" stroke-linecap="round" stroke-linejoin="round"/>
<path d="M104.086 169.193C102.238 168.807 100.403 168.407 98.5898 167.978C99.108 189.398 99.248 210.418 100.067 231.747C101.706 232.302 103.351 232.822 105.01 233.327C103.498 211.949 103.603 190.571 104.086 169.193Z" fill="white" stroke="#1D1D1B" stroke-width="2" stroke-linecap="round" stroke-linejoin="round"/>
<path d="M133.519 173.756C123.331 172.668 113.459 171.166 104.091 169.2C103.608 190.578 103.51 211.956 105.015 233.334C114.432 236.206 124.102 238.34 133.925 239.898C133.12 217.853 133.505 195.808 133.519 173.763V173.756Z" fill="white" stroke="#1D1D1B" stroke-width="2" stroke-linecap="round" stroke-linejoin="round"/>
<path d="M51.875 166.048C55.5229 170.218 60.4521 173.244 65.8084 174.606" stroke="#1D1D1B" stroke-width="2" stroke-linecap="round" stroke-linejoin="round"/>
<path d="M77.3594 179.043C82.7577 181.591 88.5061 183.403 94.3875 184.421" stroke="#1D1D1B" stroke-width="2" stroke-linecap="round" stroke-linejoin="round"/>
<path d="M106.59 187.65C114.334 189.574 122.197 191.034 130.116 192.031" stroke="#1D1D1B" stroke-width="2" stroke-linecap="round" stroke-linejoin="round"/>
<path d="M141.621 192.424C150.142 193.941 158.859 194.362 167.485 193.674" stroke="#1D1D1B" stroke-width="2" stroke-linecap="round" stroke-linejoin="round"/>
<path d="M184.828 194.418C192.873 194.215 200.918 193.927 208.963 193.555" stroke="#1D1D1B" stroke-width="2" stroke-linecap="round" stroke-linejoin="round"/>
<path d="M225.656 192.495L254.167 188.395" stroke="#1D1D1B" stroke-width="2" stroke-linecap="round" stroke-linejoin="round"/>
<path d="M266.07 186.394C273.317 185.039 280.48 183.269 287.531 181.1" stroke="#1D1D1B" stroke-width="2" stroke-linecap="round" stroke-linejoin="round"/>
<path d="M299.789 176.719C306.413 174.136 312.777 170.878 318.75 167.01" stroke="#1D1D1B" stroke-width="2" stroke-linecap="round" stroke-linejoin="round"/>
<path d="M328.363 163.043C332.312 160.059 336.254 157.075 340.203 154.098" stroke="#1D1D1B" stroke-width="2" stroke-linecap="round" stroke-linejoin="round"/>
<path d="M233.902 240.425L233.664 241.429" stroke="#1D1D1B" stroke-width="2" stroke-miterlimit="10" stroke-linecap="round" stroke-linejoin="round"/>
<path d="M61.2103 177.491C61.7774 177.674 62.0925 178.264 62.3026 178.818C62.5126 179.373 62.6736 179.991 63.1288 180.377C63.2898 180.517 63.4858 180.63 63.5629 180.826C63.6609 181.072 63.5349 181.339 63.4788 181.598C63.3318 182.293 63.7309 182.989 63.7659 183.698C63.8079 184.442 63.4228 185.193 62.7927 185.586C62.2956 185.902 61.6584 186.014 61.2663 186.45C60.6922 187.082 60.6712 190.866 60.8812 191.694C59.1588 191.561 57.1423 191.694 54.9508 190.599C54.4606 187.847 55.1328 184.828 54.4887 182.104C54.3696 181.598 54.2436 181.086 54.2856 180.573C54.3836 179.176 55.5949 178.116 56.8482 177.498C57.7164 177.07 58.6547 176.761 59.6069 176.6C60.097 176.515 60.9512 177.063 61.2103 177.491Z" fill="white" stroke="#1D1D1B" stroke-width="2" stroke-miterlimit="10" stroke-linecap="round" stroke-linejoin="round"/>
<path d="M69.9699 258.25L69.9279 258.019C68.4855 258.075 67.0502 258.019 65.6078 257.464C65.5798 257.815 65.5588 258.166 65.5098 258.524C65.4048 259.332 65.2927 260.132 65.1877 260.939C65.1457 261.234 65.1107 261.536 65.2017 261.824C65.4048 262.477 66.175 262.737 66.8401 262.87C69.1997 263.34 71.6503 263.34 74.0099 262.87C74.8781 262.695 75.7533 262.456 76.4885 261.957C75.6063 260.645 71.4052 258.889 69.9629 258.243L69.9699 258.25Z" fill="white" stroke="#1D1D1B" stroke-width="2" stroke-miterlimit="10" stroke-linecap="round" stroke-linejoin="round"/>
<path d="M69.5016 251.37C69.1865 244.757 68.7804 237.532 68.2063 230.427C65.6157 231.396 63.032 232.316 60.4414 232.541C61.2606 239.007 64.2433 245.311 65.2866 251.679C66.799 252.156 68.1853 251.883 69.4946 251.37H69.5016Z" fill="white" stroke="#1D1D1B" stroke-width="2" stroke-miterlimit="10" stroke-linecap="round" stroke-linejoin="round"/>
<path d="M69.5088 251.44C69.5088 251.44 69.5088 251.391 69.5088 251.363C68.1925 251.876 66.8131 252.157 65.3008 251.672C65.6159 253.596 65.7629 255.526 65.6159 257.464C67.0582 258.012 68.4936 258.075 69.9359 258.019L69.7749 257.19C69.6979 255.344 69.6068 253.413 69.5158 251.433L69.5088 251.44Z" fill="#1D1D1B" stroke="#1D1D1B" stroke-width="2" stroke-linecap="round" stroke-linejoin="round"/>
<path d="M53.1054 212.946C51.733 215.066 51.1589 217.369 50.8578 219.896C50.4237 223.491 49.9966 227.086 49.5625 230.68C51.768 231.768 54.2256 231.972 56.3822 232.414C57.1804 230.126 57.8875 227.816 58.1536 225.443C58.6647 226.138 59.2529 226.791 59.631 227.57C60.1631 228.686 60.2121 229.964 60.3101 231.2C60.3451 231.649 60.3941 232.098 60.4502 232.541C63.0408 232.316 65.6244 231.403 68.215 230.427C67.8019 225.302 67.2978 220.247 66.6817 215.551C66.5906 214.87 66.4996 214.21 66.4016 213.543C61.9695 214.048 57.5374 213.5 53.1124 212.946H53.1054Z" fill="#1D1D1B" stroke="#1D1D1B" stroke-width="2" stroke-linecap="round" stroke-linejoin="round"/>
<path d="M68.2283 202.064C69.0615 200.442 69.9927 198.918 71.428 197.893C70.3148 196.911 69.2015 195.942 68.0672 194.987C66.7159 193.835 67.304 193.26 63.7682 192.48C63.2221 192.361 61.4086 191.519 60.8835 191.701C58.93 192.382 56.8225 191.484 54.953 190.606L54.2039 190.136L51.0671 192.502C50.4089 193 49.7508 193.498 49.2256 194.13C48.5885 194.903 48.1824 195.829 47.6503 196.679C46.9921 197.732 46.1519 198.652 45.3047 199.557C46.586 200.54 47.0201 202.169 48.2104 203.313C49.1416 202.534 50.1149 201.783 50.3739 200.632L50.752 200.976C50.871 202.218 51.1371 203.447 51.4032 204.668C51.9983 207.385 52.5865 210.102 53.1816 212.819C53.1536 212.862 53.1326 212.897 53.1116 212.939C57.5437 213.493 61.9758 214.034 66.4008 213.536C66.2538 212.511 66.1068 211.5 65.9457 210.517L66.1138 208.375L66.2188 207.027C66.1698 205.188 66.3028 203.349 66.5969 201.537L64.9725 199.571C66.0577 200.4 67.136 201.228 68.2213 202.064H68.2283Z" fill="#1D1D1B" stroke="#1D1D1B" stroke-width="2" stroke-linecap="round" stroke-linejoin="round"/>
<path d="M47.2854 204.542C47.2224 204.514 47.1524 204.472 47.1384 204.402C47.1244 204.331 47.1734 204.268 47.2224 204.219C47.5235 203.903 47.8595 203.608 48.2026 203.32C47.0193 202.176 46.5852 200.54 45.2969 199.564C45.2339 199.635 45.1709 199.705 45.1079 199.768C44.0786 200.87 43.0424 201.972 42.0131 203.075C41.579 203.538 41.1099 204.086 41.1379 204.725C41.1729 205.413 41.7611 205.925 42.3142 206.332C44.5547 207.975 47.0053 209.323 49.596 210.334L49.9181 210.503C50.7513 210.931 51.5004 211.514 52.1306 212.202L50.9403 206.262C49.722 205.686 48.5037 205.118 47.2784 204.542H47.2854Z" fill="white" stroke="#1D1D1B" stroke-width="2" stroke-miterlimit="10" stroke-linecap="round" stroke-linejoin="round"/>
<path d="M56.3822 232.414C54.2327 231.979 51.7751 231.768 49.5626 230.68C48.8904 236.311 48.2112 241.941 47.5391 247.572C49.0654 247.93 50.8299 248.014 52.3982 248.028C52.8674 245.178 53.1894 242.341 54.0506 239.252C54.6948 236.95 55.584 234.682 56.3822 232.407V232.414Z" fill="white" stroke="#1D1D1B" stroke-width="2" stroke-miterlimit="10" stroke-linecap="round" stroke-linejoin="round"/>
<path d="M46.7266 254.354C48.2319 254.354 49.5623 254.326 50.9556 254.157C51.6698 252.037 52.0759 250.029 52.4049 248.028C50.8366 248.007 49.0721 247.93 47.5458 247.572C47.2727 249.833 47.0066 252.093 46.7336 254.354H46.7266Z" fill="#1D1D1B" stroke="#1D1D1B" stroke-width="2" stroke-linecap="round" stroke-linejoin="round"/>
<path d="M50.8127 254.586C50.8617 254.445 50.9037 254.305 50.9527 254.164C49.5593 254.333 48.229 254.354 46.7237 254.361C46.6816 254.74 46.6326 255.112 46.5906 255.491C46.5906 255.491 45.9115 256.748 45.7714 257.303C45.6034 257.97 45.4914 258.805 46.0305 259.219C46.2896 259.416 46.6256 259.458 46.9477 259.493C48.3971 259.626 49.8534 259.648 51.3098 259.556C52.36 259.493 57.3733 258.938 58.3605 258.047C56.414 257.036 50.8057 254.593 50.8057 254.593L50.8127 254.586Z" fill="white" stroke="#1D1D1B" stroke-width="2" stroke-miterlimit="10" stroke-linecap="round" stroke-linejoin="round"/>
<path d="M68.5846 203.349C68.7737 203.496 68.9697 203.65 69.0677 203.868C69.2498 204.268 69.0397 204.732 68.8367 205.118C68.1715 206.389 67.6954 207.758 66.9602 208.993C66.071 210.489 64.6707 210.791 63.1793 211.563C62.9132 211.703 62.6262 211.865 62.5212 212.153C62.1641 213.142 63.5994 213.304 64.1806 213.395C65.1048 213.536 65.2098 213.206 65.4269 214.483C65.6649 215.859 66.064 217.257 67.0653 218.275C67.2263 218.436 67.4994 218.591 67.6674 218.436C68.0035 216.54 67.8985 213.76 69.0607 212.181C70.7902 209.829 73.1427 207.751 75.1242 205.602C75.5583 205.132 76.0134 204.605 76.0484 203.966C76.0975 203.152 75.4463 202.485 74.8442 201.93C73.8289 201.004 72.8067 200.084 71.7774 199.178C70.3491 200.203 69.4178 201.727 68.5776 203.349H68.5846Z" fill="white" stroke="#1D1D1B" stroke-width="2" stroke-miterlimit="10" stroke-linecap="round" stroke-linejoin="round"/>
<path d="M51.5063 179.97C51.4643 180.278 51.4573 180.594 51.5483 180.889C51.6604 181.268 51.9264 181.577 52.1785 181.879C53.2638 183.157 54.356 184.442 55.4413 185.72C55.5393 184.603 55.8264 183.508 56.2815 182.49C56.3865 182.258 56.4985 182.027 56.6736 181.844C57.3037 181.177 58.494 181.311 59.1032 180.622C59.6493 180.005 59.4813 178.994 59.9504 178.313C60.2234 177.92 60.6716 177.695 61.0216 177.372C61.3717 177.049 61.6378 176.515 61.4067 176.101C61.1547 175.652 60.5175 175.652 60.0064 175.708C56.6806 176.059 52.0805 175.518 51.5063 179.97Z" fill="#1D1D1B" stroke="#1D1D1B" stroke-width="2" stroke-linecap="round" stroke-linejoin="round"/>
<path d="M240.92 248.66C241.228 248.499 240.654 248.443 240.92 248.66V248.66Z" stroke="#1D1D1B" stroke-width="2" stroke-miterlimit="10" stroke-linecap="round" stroke-linejoin="round"/>
<path d="M238.701 230.533C238.61 230.652 233.807 226.714 233.352 226.355C234.22 225.625 235.354 225.148 236.251 224.39C237.147 223.631 237.938 222.817 238.715 221.975C239.639 220.964 240.543 219.903 241.103 218.654C241.285 218.247 241.677 217.285 241.32 216.87C240.914 216.4 239.576 216.765 239.072 216.913C237.343 217.404 235.837 218.478 234.472 219.651C233.583 220.416 232.729 221.23 231.839 222.003C230.852 222.852 229.949 223.709 229.011 224.607C228.738 224.867 228.451 225.155 228.381 225.527C228.318 225.857 228.437 226.201 228.577 226.503C229.998 229.662 233.016 231.375 235.851 233.06C235.893 233.088 235.942 233.109 235.991 233.109C236.04 233.109 236.075 233.081 236.117 233.053C236.412 232.85 236.699 232.646 236.993 232.442C237.77 231.902 238.134 231.256 238.694 230.533H238.701Z" fill="white" stroke="#1D1D1B" stroke-width="2" stroke-miterlimit="10" stroke-linecap="round" stroke-linejoin="round"/>
<path d="M248.985 207.912C250.126 204.1 248.593 198.961 243.755 199.579C240.688 199.972 239.463 202.927 239.4 205.701C239.386 206.396 239.498 207.07 239.659 207.737C240.716 209.028 242.046 210.299 242.046 212.237C243.58 209.155 246.989 209.45 248.985 207.912Z" fill="#1D1D1B" stroke="#1D1D1B" stroke-width="2" stroke-miterlimit="10" stroke-linecap="round" stroke-linejoin="round"/>
<path d="M247.019 217.552C246.795 217.207 246.585 216.856 246.417 216.491C245.878 215.347 245.71 214.006 246.221 212.834C246.858 211.373 248.041 210.236 248.678 208.776C248.797 208.502 248.895 208.214 248.986 207.919C246.991 209.457 243.588 209.162 242.048 212.244C242.048 210.306 240.717 209.035 239.66 207.744C239.989 209.085 240.535 210.397 240.731 211.759C240.857 212.665 240.654 213.55 240.29 214.371C241.649 216.934 244.246 218.12 247.019 217.559V217.552Z" fill="white" stroke="#1D1D1B" stroke-width="2" stroke-miterlimit="10" stroke-linecap="round" stroke-linejoin="round"/>
<path d="M249.72 267.413C248.285 267.09 247.081 266.465 246.485 265.412C246.17 266.612 245.75 267.7 245.078 268.543C246.023 269.322 247.067 269.961 248.166 270.417C248.432 269.35 249.02 268.339 249.72 267.413V267.413Z" stroke="#1D1D1B" stroke-width="2" stroke-miterlimit="10" stroke-linecap="round" stroke-linejoin="round"/>
<path d="M248.166 270.417C247.066 269.961 246.023 269.322 245.078 268.543C244.595 269.147 243.986 269.624 243.181 269.898C242.592 270.094 242.158 270.614 241.724 271.056C241.29 271.499 240.954 272.095 241.01 272.713C241.108 273.921 242.473 274.518 243.328 275.374C243.776 275.83 244.105 276.392 244.525 276.876C246.275 278.863 249.279 278.632 251.548 277.81C251.786 277.726 252.024 277.614 252.192 277.424C252.36 277.235 252.437 276.947 252.311 276.722C252.227 276.575 252.073 276.476 251.926 276.392C250.266 275.43 248.922 274.904 248.257 272.973C247.956 272.095 247.97 271.239 248.173 270.417H248.166Z" fill="#1D1D1B" stroke="#1D1D1B" stroke-width="2" stroke-miterlimit="10" stroke-linecap="round" stroke-linejoin="round"/>
<path d="M256.758 249.425C253.061 246.428 250.141 242.44 246.129 239.856C244.799 239 244.617 238.073 244.848 236.732C241.536 236.978 238.378 236.149 235.837 234.015C235.809 234.071 235.781 234.127 235.753 234.184C234.31 236.872 232.231 239.407 231.846 242.503C231.482 245.389 232 248.309 232.392 251.167C232.609 252.711 233.477 258.51 230.473 257.099C227.638 255.772 225.404 256.432 222.491 257.183C221.903 257.338 221.231 257.527 220.552 257.633C219.992 259.254 219.866 261.031 220.139 262.73C223.416 262.814 226.692 262.898 229.969 262.982C231.643 263.025 234.583 262.779 236.145 262.182C236.726 261.964 237.286 261.649 237.671 261.157C238 260.736 238.182 260.223 238.35 259.718C239.624 255.877 240.262 252.655 240.906 248.66C240.64 248.443 241.214 248.499 240.906 248.66C243.728 250.921 246.759 252.83 250.33 253.582C250.673 253.652 251.023 253.722 251.331 253.891C253.04 254.838 250.365 256.341 249.651 256.931C247.48 258.728 247.277 262.393 246.472 265.412C247.067 266.465 248.272 267.09 249.707 267.413C250.372 266.535 251.121 265.728 251.772 265.004C253.404 263.2 254.839 261.213 256.022 259.086C257.115 257.127 258.662 254.845 258.564 252.472C258.501 251.075 257.773 250.261 256.744 249.425H256.758Z" fill="#1D1D1B" stroke="#1D1D1B" stroke-width="2" stroke-miterlimit="10" stroke-linecap="round" stroke-linejoin="round"/>
<path d="M218.136 257.324C217.492 256.903 217.107 256.151 216.386 255.758C215.602 255.33 214.72 255.126 213.872 255.267C213.242 255.372 212.78 255.555 212.633 256.236C212.318 257.654 212.717 258.854 212.892 260.223C213.088 261.726 212.647 263.228 212.584 264.738C212.5 266.654 213.333 268.564 215.301 269.119C215.602 269.203 215.938 269.217 216.197 269.048C216.582 268.796 216.638 268.262 216.652 267.799C216.68 266.626 216.491 265.299 216.834 264.12C217.149 263.046 217.604 262.737 218.248 262.674C217.947 260.932 217.926 259.135 218.143 257.317L218.136 257.324Z" fill="#1D1D1B" stroke="#1D1D1B" stroke-width="2" stroke-miterlimit="10" stroke-linecap="round" stroke-linejoin="round"/>
<path d="M219.873 262.723H220.146C219.866 261.031 219.999 259.254 220.559 257.633C219.852 257.745 219.138 257.752 218.515 257.52C218.375 257.471 218.256 257.401 218.137 257.324C217.92 259.135 217.941 260.939 218.242 262.681C218.69 262.638 219.229 262.709 219.88 262.723H219.873Z" stroke="#1D1D1B" stroke-width="2" stroke-miterlimit="10" stroke-linecap="round" stroke-linejoin="round"/>
<path d="M244.857 236.739C244.885 236.557 244.927 236.374 244.969 236.177C245.298 234.717 245.921 233.285 246.46 231.888C247.02 230.435 247.762 228.995 248.729 227.767C249.611 226.636 250.591 225.183 250.451 223.667C250.22 221.294 248.301 219.517 247.027 217.552C244.254 218.113 241.65 216.927 240.298 214.364C240.221 214.547 240.137 214.722 240.039 214.898C239.556 215.803 238.786 216.484 238.352 217.383C237.736 218.647 237.365 219.988 237.211 221.385C236.938 223.94 237.029 226.524 237.022 229.094C237.015 230.701 236.595 232.576 235.859 234.022C238.401 236.149 241.552 236.985 244.871 236.739H244.857Z" fill="#1D1D1B" stroke="#1D1D1B" stroke-width="2" stroke-miterlimit="10" stroke-linecap="round" stroke-linejoin="round"/>
<path d="M255.772 230.287C256.192 230.224 256.563 230.083 256.794 229.796C257.354 229.108 256.703 228.033 257.018 227.205C257.97 226.875 258.937 226.601 259.91 226.37C259.959 227.086 259.546 227.816 258.902 228.139C259.266 227.24 260.449 226.791 261.317 227.219C261.625 228.286 261.933 229.381 261.863 230.491C261.779 231.979 260.736 232.941 259.21 233.109C258.587 233.18 258.076 232.653 257.417 232.857C254.778 233.692 252.117 234.521 249.379 234.991C246.901 235.419 243.939 235.798 241.558 234.829C241.306 230.933 241.776 226.987 242.924 223.259C243.099 222.684 243.302 222.108 243.638 221.609C244.261 220.69 245.591 219.763 246.719 220.318C247.244 220.577 247.608 221.09 247.797 221.638C247.986 222.185 248.021 222.782 248.021 223.365C248.021 224.663 247.783 225.948 247.517 227.219C247.37 227.921 247.118 228.602 246.999 229.311C246.915 229.796 246.705 230.47 247.363 230.561C248.266 230.687 249.33 230.406 250.248 230.378C251.228 230.35 252.215 230.378 253.188 230.329C254.043 230.28 254.925 230.406 255.772 230.28V230.287Z" fill="white" stroke="#1D1D1B" stroke-width="2" stroke-miterlimit="10" stroke-linecap="round" stroke-linejoin="round"/>
<path d="M238.763 202.773C238.35 204.177 238.084 205.658 237.272 206.873C236.642 207.814 235.725 208.523 234.877 209.274C232.385 211.5 230.326 214.526 230.277 217.874C230.851 215.487 233.358 214.175 235.641 213.29C237.923 212.405 240.479 211.429 241.515 209.204C242.159 207.814 242.187 205.995 243.448 205.132C243.833 204.865 244.295 204.725 244.659 204.43C245.989 203.342 245.24 200.028 243.889 199.192C241.319 197.599 239.359 200.737 238.763 202.766V202.773Z" fill="#1D1D1B" stroke="#1D1D1B" stroke-width="2" stroke-miterlimit="10" stroke-linecap="round" stroke-linejoin="round"/>
<path d="M329.134 195.24C328.791 194.102 328.973 192.684 329.702 191.835L324.121 191.905C324.492 192.495 324.422 193.281 324.121 193.906C323.967 194.222 323.89 194.383 323.785 194.524C325.2 196.216 327.202 195.689 329.134 195.24Z" fill="white" stroke="#1D1D1B" stroke-width="2" stroke-miterlimit="10" stroke-linecap="round" stroke-linejoin="round"/>
<path d="M322.987 191.463C324.688 192.46 326.901 193.302 328.777 192.389C331.711 190.957 333.664 187.089 331.193 184.294C330.212 183.185 329.155 183.206 327.818 183.108C327.293 183.066 326.88 182.834 326.333 183.038C325.787 183.241 325.402 183.754 325.08 184.217C324.695 184.779 324.31 185.39 323.687 185.656C323.498 185.741 323.295 185.783 323.127 185.902C322.959 186.022 322.826 186.225 322.889 186.422C323.064 187.011 323.932 186.843 323.337 187.517C323.267 187.594 323.043 187.728 323.015 187.812C322.931 188.058 323.169 188.233 323.106 188.465C323.05 188.654 322.791 188.689 322.658 188.837C322.567 188.935 322.546 189.097 322.609 189.223C322.644 189.286 322.693 189.335 322.735 189.399C322.861 189.609 322.77 189.883 322.651 190.094C322.532 190.304 322.378 190.529 322.392 190.775C322.413 191.091 322.707 191.315 322.98 191.477L322.987 191.463Z" fill="white" stroke="#1D1D1B" stroke-width="2" stroke-miterlimit="10" stroke-linecap="round" stroke-linejoin="round"/>
<path d="M327.014 188.072C327.119 187.903 327.273 187.72 327.469 187.756C327.651 187.791 327.735 188.001 327.756 188.184C327.84 188.942 327.294 189.714 326.552 189.883C326.412 189.918 326.237 189.918 326.139 189.813C326.027 189.693 326.048 189.504 326.083 189.349" stroke="#1D1D1B" stroke-width="2" stroke-miterlimit="10" stroke-linecap="round" stroke-linejoin="round"/>
<path d="M332.255 188.619C330.371 187.426 328.719 185.902 327.08 184.386L323.755 181.311C323.503 181.079 323.573 180.988 323.391 180.7C323.209 180.412 323.097 180.033 323.244 179.717C323.412 179.366 323.867 179.225 324.245 179.303C324.623 179.38 324.945 179.633 325.246 179.878C326.03 180.538 326.744 181.283 327.452 182.02C328.691 183.304 330.035 183.929 331.282 185.2C331.912 185.846 332.535 186.562 332.745 187.447C332.808 187.714 332.829 188.008 332.724 188.261C332.619 188.514 332.486 188.753 332.248 188.605L332.255 188.619Z" fill="#1D1D1B" stroke="#1D1D1B" stroke-width="2" stroke-miterlimit="10" stroke-linecap="round" stroke-linejoin="round"/>
<path d="M331.935 188.654C332.187 188.76 332.46 188.563 332.635 188.359C335.05 185.6 333.055 181.072 329.309 181.416C327.972 181.535 326.732 182.209 325.703 183.073C326.893 184.189 327.923 185.509 329.225 186.534C329.946 187.096 331.578 188.998 332.579 188.675" fill="#1D1D1B"/>
<path d="M331.935 188.654C332.187 188.76 332.46 188.563 332.635 188.359C335.05 185.6 333.055 181.072 329.309 181.416C327.972 181.535 326.732 182.209 325.703 183.073C326.893 184.189 327.923 185.509 329.225 186.534C329.946 187.096 331.578 188.998 332.579 188.675" stroke="#1D1D1B" stroke-width="2" stroke-miterlimit="10" stroke-linecap="round" stroke-linejoin="round"/>
<path d="M325.759 185.958C325.661 185.488 325.36 185.06 324.954 184.8C324.821 184.891 325.101 185.53 325.122 185.699C325.241 185.699 325.78 186.078 325.752 185.958H325.759Z" stroke="#1D1D1B" stroke-width="2" stroke-miterlimit="10" stroke-linecap="round" stroke-linejoin="round"/>
<path d="M342.06 205.75L341.73 206.108C341.864 206.01 341.969 205.883 342.06 205.75Z" fill="white" stroke="#1D1D1B" stroke-width="2" stroke-miterlimit="10" stroke-linecap="round" stroke-linejoin="round"/>
<path d="M340.062 210.369C340.098 210.355 340.14 210.334 340.175 210.32C340.224 210.292 340.266 210.257 340.315 210.229L340.062 210.369Z" fill="white" stroke="#1D1D1B" stroke-width="2" stroke-miterlimit="10" stroke-linecap="round" stroke-linejoin="round"/>
<path d="M305.68 167.887C305.68 167.585 305.715 167.248 305.953 167.073C306.079 166.981 306.247 166.96 306.401 166.939C307.472 166.799 308.55 166.658 309.622 166.518C309.846 168.175 310.063 169.832 310.287 171.489C310.322 171.769 310.364 172.064 310.287 172.338C310.203 172.654 309.993 172.914 309.783 173.167C309.384 173.651 308.978 174.128 308.578 174.613C308.466 174.746 308.354 174.88 308.193 174.95C306.562 175.68 305.68 168.694 305.68 167.88V167.887Z" fill="#1D1D1B" stroke="#1D1D1B" stroke-width="2" stroke-miterlimit="10" stroke-linecap="round" stroke-linejoin="round"/>
<path d="M318.219 192.761C315.02 189.293 312.009 185.558 310.819 181.037C310.819 181.037 309.873 179.043 309.404 177.709C309.271 177.323 309.131 176.923 309.173 176.522C309.236 175.856 309.747 175.336 310.048 174.739C310.427 173.988 310.462 173.075 310.153 172.296C309.446 172.64 309.11 173.644 308.333 173.714C307.829 173.756 307.388 173.349 307.136 172.914C306.884 172.472 306.737 171.973 306.422 171.566C306.317 171.425 306.162 171.292 305.987 171.313C305.728 171.348 305.651 171.678 305.637 171.945C305.56 173.244 305.497 174.606 306.015 175.799C306.169 176.157 306.373 176.494 306.527 176.852C306.688 177.232 306.793 177.632 306.891 178.025C307.416 180.047 307.528 180.946 308.151 182.939C308.641 184.484 309.236 186 309.943 187.454C310.581 188.774 311.309 190.051 312.037 191.329C312.905 193.07 314.025 194.769 315.097 196.489C316.14 195.141 317.092 193.765 318.219 192.768V192.761Z" fill="white" stroke="#1D1D1B" stroke-width="2" stroke-miterlimit="10" stroke-linecap="round" stroke-linejoin="round"/>
<path d="M329.909 216.47C329.797 215.263 330.217 213.809 330.343 212.855C330.35 212.798 332.325 198.216 332.325 198.216C331.345 197.606 330.252 197.065 329.58 196.173C329.377 195.907 329.23 195.584 329.132 195.247C327.2 195.696 325.197 196.223 323.783 194.531C323.678 194.671 323.552 194.797 323.307 195.036L322.957 195.373C322.256 195.527 321.493 195.682 320.849 195.366C320.506 195.198 320.24 194.917 319.981 194.643C319.393 194.025 318.798 193.4 318.217 192.761C317.089 193.758 316.137 195.134 315.094 196.482C316.809 199.234 318.392 202.057 318.602 205.237C318.756 207.568 318.581 210.117 317.971 212.377C317.719 213.318 317.299 214.21 316.893 215.094C321.227 217.636 325.568 217.025 329.902 216.477L329.909 216.47Z" fill="#1D1D1B" stroke="#1D1D1B" stroke-width="2" stroke-miterlimit="10" stroke-linecap="round" stroke-linejoin="round"/>
<path d="M334.652 220.598C333.392 219.756 331.144 218.949 330.283 217.664C330.059 217.327 329.947 216.913 329.912 216.47C325.578 217.025 321.237 217.629 316.903 215.087C316.399 216.196 315.916 217.313 315.825 218.541C315.678 220.458 315.797 222.333 315.748 224.235C315.706 225.864 315.062 227.289 314.816 228.925C314.613 230.273 314.48 231.586 314.277 232.857C316.553 234.394 318.842 234.612 321.265 234.394C322.462 230.996 323.702 225.997 323.702 225.997C323.702 225.997 327.756 226.629 328.925 226.994C330.087 227.359 331.256 227.71 332.454 227.949C333.133 228.083 334.001 228.188 334.519 228.7C336.382 227.142 337.985 225.527 338.965 223.512C337.572 222.466 336.06 221.511 334.673 220.591L334.652 220.598Z" fill="#1D1D1B" stroke="#1D1D1B" stroke-width="2" stroke-miterlimit="10" stroke-linecap="round" stroke-linejoin="round"/>
<path d="M314.268 232.857C313.918 235.033 313.351 237.083 311.804 238.979C311.167 239.758 310.445 240.46 309.843 241.267C309.122 242.229 308.597 243.444 308.254 244.609C309.297 245.69 310.207 246.73 311.377 247.439C312.602 246.238 313.757 244.988 314.85 243.697C316.705 241.492 318.665 239.4 320.171 236.929C320.5 236.388 320.878 235.468 321.256 234.394C318.84 234.612 316.551 234.394 314.268 232.857Z" fill="white" stroke="#1D1D1B" stroke-width="2" stroke-miterlimit="10" stroke-linecap="round" stroke-linejoin="round"/>
<path d="M309.039 250.198C309.354 249.264 310.251 248.534 311.021 247.797C311.147 247.677 311.259 247.551 311.378 247.432C310.209 246.73 309.291 245.69 308.255 244.602C308.22 244.729 308.171 244.848 308.143 244.974C307.877 245.985 307.541 247.045 306.89 247.881C306.834 247.951 306.778 248.014 306.715 248.077C307.366 248.941 308.136 249.664 309.046 250.191L309.039 250.198Z" fill="white" stroke="#1D1D1B" stroke-width="2" stroke-miterlimit="10" stroke-linecap="round" stroke-linejoin="round"/>
<path d="M309.102 251.834C308.856 251.216 308.87 250.682 309.039 250.198C308.128 249.671 307.358 248.948 306.707 248.085C306.077 248.78 305.293 249.152 304.536 249.699C302.268 251.356 305.65 253.118 306.196 254.494C306.49 255.246 306.714 256.081 307.33 256.608C308.086 257.254 309.193 257.226 310.18 257.169L311.223 257.106C311.587 257.085 312.021 257.022 312.196 256.699C312.399 256.334 312.133 255.885 311.832 255.59C310.726 254.516 309.669 253.287 309.102 251.827V251.834Z" fill="#1D1D1B" stroke="#1D1D1B" stroke-width="2" stroke-miterlimit="10" stroke-linecap="round" stroke-linejoin="round"/>
<path d="M332.717 245.122C333.144 243.921 334.111 242.987 334.832 241.962C333.453 241.857 332.234 241.548 331.044 240.664C330.932 241.59 330.771 242.517 330.428 243.388C330.358 243.563 330.274 243.732 330.176 243.9C330.96 244.427 331.807 244.967 332.668 245.325C332.682 245.262 332.696 245.199 332.717 245.129V245.122Z" fill="white" stroke="#1D1D1B" stroke-width="2" stroke-miterlimit="10" stroke-linecap="round" stroke-linejoin="round"/>
<path d="M337.025 251.49C336.899 251.251 336.675 251.082 336.465 250.914C334.974 249.692 332.061 247.593 332.663 245.318C331.809 244.96 330.955 244.42 330.17 243.893C329.743 244.623 329.078 245.276 328.448 245.831C328.098 246.14 327.748 246.449 327.517 246.849C327.286 247.249 327.195 247.747 327.398 248.162C327.538 248.457 327.811 248.674 328.07 248.885C329.232 249.812 330.394 250.731 331.55 251.658C331.823 251.876 332.11 252.1 332.439 252.213C332.761 252.325 333.111 252.325 333.454 252.325C334.42 252.325 335.387 252.325 336.353 252.332C336.549 252.332 336.766 252.332 336.92 252.213C337.13 252.051 337.137 251.721 337.011 251.49H337.025Z" fill="#1D1D1B" stroke="#1D1D1B" stroke-width="2" stroke-miterlimit="10" stroke-linecap="round" stroke-linejoin="round"/>
<path d="M341.414 225.681C340.686 224.909 339.846 224.2 338.95 223.526C337.969 225.541 336.366 227.156 334.503 228.714C334.566 228.778 334.629 228.848 334.685 228.932C335.183 229.69 334.573 230.926 334.188 231.628C333.698 232.513 333.012 233.285 332.515 234.169C331.549 235.883 331.36 237.876 331.157 239.786C331.122 240.081 331.094 240.376 331.059 240.671C332.249 241.555 333.467 241.864 334.847 241.969C334.861 241.948 334.875 241.927 334.889 241.913C336.184 240.053 337.374 238.122 338.424 236.121C339.405 234.254 340.273 232.323 340.987 230.343C341.491 228.939 342.716 227.064 341.428 225.695L341.414 225.681Z" fill="white" stroke="#1D1D1B" stroke-width="2" stroke-miterlimit="10" stroke-linecap="round" stroke-linejoin="round"/>
<path d="M332.864 205.855C333.158 204.97 333.508 204.037 333.957 202.913C334.237 202.204 334.538 201.474 334.433 200.73C334.279 199.649 333.312 198.827 332.332 198.216L329.006 202.296C328.523 203.601 328.103 204.935 327.746 206.276C329.49 206.55 331.219 206.332 332.864 205.862V205.855Z" fill="#1D1D1B" stroke="#1D1D1B" stroke-width="2" stroke-miterlimit="10" stroke-linecap="round" stroke-linejoin="round"/>
<path d="M343.655 205.581C343.543 205.392 343.291 205.293 343.06 205.286C342.829 205.279 342.591 205.349 342.367 205.42L342.059 205.75C341.968 205.883 341.863 206.002 341.73 206.108L342.059 205.75C342.185 205.567 342.269 205.364 342.297 205.153C341.667 205.307 341.043 205.462 340.413 205.623C340.161 205.686 339.881 205.771 339.762 205.981C339.699 206.094 339.692 206.227 339.685 206.36C339.608 208.038 338.32 208.284 336.842 208.846C335.148 209.492 333.447 210.131 331.752 210.776C332.032 208.762 332.361 207.371 332.858 205.862C331.213 206.332 329.484 206.557 327.74 206.276C326.984 209.12 326.508 212.026 326.34 214.947C329.519 214.975 332.865 214.968 335.624 213.515C337.284 212.644 338.6 211.31 340.175 210.32C340.14 210.334 340.098 210.355 340.063 210.369L340.315 210.229C340.266 210.257 340.224 210.292 340.175 210.32C341.036 209.948 341.905 209.576 342.766 209.204C342.969 209.113 343.186 209.021 343.326 208.853C343.466 208.691 343.508 208.474 343.543 208.27C343.676 207.519 343.739 206.754 343.732 205.995C343.732 205.848 343.725 205.701 343.648 205.574L343.655 205.581Z" fill="white" stroke="#1D1D1B" stroke-width="2" stroke-miterlimit="10" stroke-linecap="round" stroke-linejoin="round"/>
<path d="M165.747 110.584C166.868 109.84 167.981 108.864 168.555 107.53C167.659 107.123 166.777 106.688 166.097 105.993C164.963 104.827 164.592 103.093 164.662 101.464C164.746 99.5897 159.859 100.292 159.173 101.907C158.725 102.946 159.054 104.329 158.676 105.452C158.269 106.646 157.548 107.734 156.547 108.513C156.162 108.815 155.735 109.068 155.301 109.313C157.583 112.641 162.415 113.371 165.747 110.591V110.584Z" fill="white" stroke="#1D1D1B" stroke-width="2" stroke-linecap="round" stroke-linejoin="round"/>
<path d="M150.038 116.446C149.653 120.42 149.422 124.408 149.352 128.403C150.983 128.375 152.621 128.354 154.253 128.325C154.883 123.881 153.623 119.03 150.038 116.446Z" fill="white" stroke="#1D1D1B" stroke-width="2" stroke-linecap="round" stroke-linejoin="round"/>
<path d="M173.458 113.399C171.049 116.292 170.818 120.624 172.008 124.303C174.095 123.909 176.174 123.481 178.114 122.625C176.251 119.718 174.69 116.622 173.458 113.399Z" fill="white" stroke="#1D1D1B" stroke-width="2" stroke-linecap="round" stroke-linejoin="round"/>
<path d="M173.456 113.399C173.281 112.943 173.113 112.48 172.952 112.016C172.658 111.181 172.385 110.324 171.838 109.622C171.026 108.583 169.773 108.078 168.555 107.523C167.981 108.857 166.867 109.833 165.747 110.577C162.414 113.357 157.583 112.627 155.3 109.299C153.83 110.114 152.22 110.725 151.239 112.065C150.392 113.231 150.203 114.733 150.056 116.173C150.049 116.264 150.042 116.348 150.035 116.439C153.62 119.023 154.88 123.874 154.25 128.318L155.637 128.297C157.345 128.269 159.067 128.241 160.72 127.806C162.442 127.35 164.018 126.458 165.684 125.833C167.714 125.075 169.864 124.703 172.007 124.303C170.816 120.624 171.047 116.285 173.456 113.399Z" fill="#1D1D1B" stroke="#1D1D1B" stroke-width="2" stroke-linecap="round" stroke-linejoin="round"/>
<path d="M161.19 103.563C161.421 103.577 161.659 103.57 161.897 103.549C165.503 103.219 166.714 99.2036 166.441 96.0372C166.224 93.5519 165.104 91.1929 163.508 89.2693C162.828 88.4478 162.03 87.6756 161.05 87.2684C159.447 86.6014 157.514 87.0156 156.163 88.1038C152.438 91.1087 153.782 97.2799 156.359 100.615C157.542 102.145 159.23 103.451 161.19 103.563Z" fill="white" stroke="#1D1D1B" stroke-width="2" stroke-linecap="round" stroke-linejoin="round"/>
<path d="M150.17 93.6501C150.338 94.5699 150.667 95.5106 150.422 96.4093C150.107 97.5607 148.966 98.2417 148.076 99.042C147.187 99.8424 146.473 101.233 147.208 102.173C147.369 102.377 147.586 102.545 147.684 102.784C148.027 103.605 146.837 104.16 146.298 104.869C145.416 106.021 146.375 107.642 147.32 108.745C149.806 109.096 151.997 111.019 152.669 113.434C152.207 112.487 152.319 111.286 152.95 110.444C153.447 109.777 154.224 109.327 154.609 108.59C155.708 106.491 153.02 103.669 154.371 101.724C154.686 101.268 155.19 100.952 155.435 100.46C156.247 98.8455 153.909 96.5988 155.169 95.3C155.393 95.0683 155.694 94.9349 155.939 94.7173C156.541 94.1907 156.66 93.3061 156.695 92.5058C156.73 91.7054 156.751 90.8348 157.242 90.203C157.732 89.5711 158.894 89.4237 159.258 90.1398C159.44 90.4978 159.356 90.9191 159.405 91.3123C159.454 91.7054 159.741 92.1547 160.133 92.0845C159.986 92.1126 160.007 88.525 161.961 89.4869C162.871 89.9362 162.248 90.9472 162.605 91.7265C163.207 93.0253 164.698 92.8357 165.651 93.6782C166.498 94.4294 166.407 95.7634 166.148 96.8656C165.889 97.9679 165.539 99.1825 166.071 100.179C166.533 101.057 167.576 101.534 167.982 102.44C168.381 103.332 168.059 104.357 167.863 105.312C167.667 106.266 167.688 107.439 168.486 107.993C168.857 108.253 169.348 108.323 169.698 108.604C170.748 109.454 170.265 111.778 171.609 111.932C171.287 111.083 171.896 110.17 172.554 109.538C173.212 108.906 173.997 108.281 174.137 107.383C174.214 106.898 174.081 106.4 173.941 105.929C173.366 104.02 172.568 102.103 172.736 100.116C172.841 98.8595 173.31 97.5186 172.736 96.3952C172.414 95.7564 171.812 95.3211 171.35 94.7735C170.349 93.601 170.027 92.0073 169.782 90.4838C169.537 88.9603 169.313 87.3736 168.451 86.0959C167.59 84.8181 165.854 83.9756 164.467 84.6496C164.082 84.8321 163.739 85.127 163.326 85.2183C162.514 85.3938 161.765 84.776 161.107 84.2705C160.448 83.765 159.496 83.3227 158.824 83.8141C158.509 84.0458 158.341 84.432 158.026 84.6496C156.955 85.3938 155.253 84.4881 153.958 85.0919C152.957 85.5553 152.207 86.3627 151.619 87.2824C150.471 89.0656 149.799 91.5439 150.177 93.6572L150.17 93.6501Z" fill="white" stroke="#1D1D1B" stroke-width="2" stroke-linecap="round" stroke-linejoin="round"/>
<path d="M211.815 110.668C213.664 114.846 216.731 118.714 218.6 123.088C219.062 123.067 219.531 123.046 219.993 123.025C219.188 115.99 218.46 108.871 216.549 101.991C216.311 102.314 215.988 102.594 215.575 102.84C213.545 105.62 211.157 109.362 211.808 110.675L211.815 110.668Z" fill="white" stroke="#1D1D1B" stroke-width="2" stroke-linecap="round" stroke-linejoin="round"/>
<path d="M211.814 110.668C211.163 109.363 213.551 105.613 215.581 102.833C215.343 102.974 215.077 103.114 214.762 103.226C212.774 103.928 210.512 103.198 208.496 103.809C206.647 104.371 205.282 106.014 204.561 107.804C203.839 109.601 203.664 111.567 203.503 113.498C203.209 116.945 202.915 120.399 202.621 123.846C207.949 123.593 213.285 123.341 218.613 123.081C216.744 118.707 213.677 114.839 211.828 110.661L211.814 110.668Z" fill="white" stroke="#1D1D1B" stroke-width="2" stroke-linecap="round" stroke-linejoin="round"/>
<path d="M226.939 101.534C226.519 99.4211 226.442 97.2447 226.715 95.1104C226.932 93.3623 219.111 95.2579 218.299 96.339C217.074 97.9608 217.767 100.362 216.562 101.984C218.474 108.871 219.202 115.99 220.007 123.018C221.114 122.962 222.22 122.912 223.326 122.856C223.76 115.751 224.768 108.752 226.862 102.012C226.897 101.892 226.932 101.773 226.967 101.654C226.96 101.612 226.946 101.569 226.939 101.534Z" fill="white" stroke="#1D1D1B" stroke-width="2" stroke-linecap="round" stroke-linejoin="round"/>
<path d="M226.852 102.012C224.752 108.745 223.751 115.751 223.316 122.856C223.365 122.856 223.414 122.856 223.47 122.849C226.817 119.486 230.08 116.13 231.424 112.767C231.971 109.496 229.135 105.803 226.859 102.012H226.852Z" fill="white" stroke="#1D1D1B" stroke-width="2" stroke-linecap="round" stroke-linejoin="round"/>
<path d="M237.49 106.203C235.593 103.683 231.994 103.437 228.864 103.149C228.339 103.1 227.765 103.023 227.401 102.644C227.149 102.377 227.044 102.012 226.967 101.654C226.932 101.773 226.896 101.892 226.861 102.012C229.137 105.803 231.973 109.496 231.427 112.768C230.089 116.13 226.819 119.486 223.473 122.849C223.536 122.849 223.606 122.849 223.669 122.842C228.381 122.618 233.219 122.407 237.686 123.937C238.001 120.497 238.316 117.057 238.638 113.617C238.876 111.069 239.037 108.246 237.497 106.203H237.49Z" fill="white" stroke="#1D1D1B" stroke-width="2" stroke-linecap="round" stroke-linejoin="round"/>
<path d="M215.889 91.4036C215.847 92.3022 215.805 93.236 216.106 94.0855C216.4 94.9139 216.995 95.5949 217.59 96.2408C218.5 97.2378 219.439 98.2066 220.398 99.1474C220.671 99.4142 220.979 99.695 221.364 99.7301C221.679 99.7582 221.973 99.6178 222.253 99.4703C223.535 98.8244 224.795 98.1364 226.034 97.4133C226.531 97.1254 227.021 96.8235 227.442 96.4304C228.807 95.1315 229.038 93.0675 229.192 91.1859C229.29 89.9433 229.395 88.6936 229.493 87.4509C229.598 86.124 229.696 84.7409 229.178 83.5193C228.464 81.8414 226.685 80.8093 224.893 80.4934C222.946 80.1564 217.989 80.0862 216.652 81.8975C215.315 83.7089 216.022 89.1078 215.903 91.3965L215.889 91.4036Z" fill="white" stroke="#1D1D1B" stroke-width="2" stroke-linecap="round" stroke-linejoin="round"/>
<path d="M216.869 84.9656C217.429 84.2775 218.508 83.9265 219.229 84.446C219.831 84.8813 219.964 85.7168 220.384 86.3276C221.189 87.5071 223.206 87.5422 224.046 86.3837C224.508 85.7519 224.669 84.8603 225.334 84.446C226.104 83.9756 227.162 84.4671 227.645 85.2253C228.128 85.9836 228.198 86.9243 228.31 87.823C228.422 88.7216 228.597 89.6694 229.22 90.3153C229.717 88.7918 230.186 87.2262 230.207 85.6185C230.228 84.0107 229.745 82.3328 228.583 81.2235C227.239 79.9387 225.243 79.6369 223.388 79.6228C221.896 79.6158 220.412 79.7562 218.949 80.0441C218.164 80.1985 217.345 80.4232 216.792 80.9918C216.239 81.5605 216.043 82.3819 215.917 83.1683C215.721 84.4109 215.546 85.801 215.896 86.9594C216.148 86.3486 216.435 85.4991 216.876 84.9515L216.869 84.9656Z" fill="#1D1D1B" stroke="#1D1D1B" stroke-width="2" stroke-linecap="round" stroke-linejoin="round"/>
<path d="M142.636 128.178C138.253 128.536 134.262 126.823 129.739 128.009C126.889 128.754 124.214 131.183 121.568 132.503C119.138 133.717 116.393 134.658 113.74 134.103C113.187 133.991 112.633 133.802 112.234 133.401C111.758 132.917 111.597 132.215 111.464 131.555C110.736 127.883 110.302 124.148 110.176 120.399C110.099 118.138 110.155 115.765 111.226 113.778C112.346 111.7 114.419 110.331 116.456 109.159C118.557 107.951 120.72 106.842 122.933 105.859C126.728 106.716 129.003 105.543 132.735 104.441C137.504 103.037 142.965 104.35 146.571 107.776C150.177 111.202 151.787 116.601 150.646 121.452C150.296 122.94 149.686 124.394 148.671 125.524C147.159 127.195 144.883 128.002 142.636 128.185V128.178Z" fill="white" stroke="#1D1D1B" stroke-width="2" stroke-linecap="round" stroke-linejoin="round"/>
<path d="M124.054 104.911C125.307 106.091 126.973 107.095 128.668 106.765C129.998 106.505 131.041 105.466 131.79 104.336C134.598 100.109 134.22 94.3382 131.923 89.8098C131.447 88.8691 130.859 87.9283 129.97 87.3666C129.249 86.9103 128.374 86.7348 127.512 86.7137C125.321 86.6646 123.129 87.6264 121.687 89.2763C117.605 93.924 120.056 101.148 124.061 104.918L124.054 104.911Z" fill="white" stroke="#1D1D1B" stroke-width="2" stroke-linecap="round" stroke-linejoin="round"/>
<path d="M121.484 94.7594C120.49 96.5216 120.217 99.4773 119.923 101.359C118.775 99.5265 117.759 97.5256 117.563 95.3702C117.241 91.8599 120.189 88.4127 123.011 86.6224C124.187 85.8782 125.538 85.3728 126.932 85.3798C129.557 85.3798 132.043 87.4017 132.589 89.9783C132.967 91.7616 128.528 91.3895 127.051 91.8529C125.181 92.4426 122.759 92.8779 121.694 94.4295C121.624 94.5348 121.554 94.6471 121.484 94.7664V94.7594Z" fill="white" stroke="#1D1D1B" stroke-width="2" stroke-linecap="round" stroke-linejoin="round"/>
<path d="M128.043 96.0372C128.498 96.5146 128.974 97.0131 129.156 97.6449C129.338 98.2768 129.121 99.0842 128.512 99.3299" stroke="#1D1D1B" stroke-width="2" stroke-linecap="round" stroke-linejoin="round"/>
<path d="M124.902 101.591C125.427 102.335 126.429 102.707 127.311 102.475" stroke="#1D1D1B" stroke-width="2" stroke-linecap="round" stroke-linejoin="round"/>
<path d="M136 118.307C137.302 116.601 138.808 115.049 140.474 113.694C140.964 113.294 141.482 112.908 142.084 112.739C142.687 112.571 143.408 112.683 143.821 113.161C143.968 113.336 144.073 113.547 144.248 113.701C144.724 114.115 145.487 113.884 146.068 114.137C146.762 114.438 146.972 115.393 146.692 116.095C146.412 116.797 145.781 117.296 145.144 117.703C144.507 118.11 143.828 118.482 143.338 119.065" stroke="#1D1D1B" stroke-width="2" stroke-linecap="round" stroke-linejoin="round"/>
<path d="M122.918 119.135C121.329 119.297 119.606 118.756 118.199 119.514C117.31 119.992 116.729 120.926 116.449 121.894C116.169 122.863 116.155 123.895 116.141 124.906" stroke="#1D1D1B" stroke-width="2" stroke-linecap="round" stroke-linejoin="round"/>
<path d="M133.883 127.462C130.781 127.174 127.728 126.472 124.689 125.77C122.862 125.349 121.034 124.927 119.207 124.506C119.928 123.284 120.642 122.07 121.364 120.848C121.483 120.645 121.609 120.441 121.805 120.322C121.987 120.209 122.211 120.188 122.428 120.174C127.728 119.753 133.154 119.304 138.455 119.648C140.583 119.788 142.733 120.371 144.441 121.656" stroke="#1D1D1B" stroke-width="2" stroke-linecap="round" stroke-linejoin="round"/>
<path d="M123.418 106.786C123.894 107.944 124.636 109.025 125.68 109.713C126.723 110.401 128.095 110.647 129.25 110.177C130.273 109.763 131.022 108.829 131.428 107.804C131.834 106.779 131.918 105.648 131.897 104.546" stroke="#1D1D1B" stroke-width="2" stroke-linecap="round" stroke-linejoin="round"/>
<path d="M116.331 84.1511C116.016 79.7632 115.449 75.3963 114.637 71.0785C115.463 70.882 116.058 71.8719 116.212 72.7073C116.366 73.5428 116.471 74.5538 117.234 74.9329C117.157 71.4506 117.101 67.856 118.446 64.6406C119.293 66.7959 119.601 69.1689 119.328 71.4717C120.14 69.6323 118.901 67.147 120.203 65.6235C120.476 65.3075 121.008 65.0899 121.274 65.4128C121.393 65.5603 121.4 65.7709 121.407 65.9675C121.414 68.1439 121.428 70.3273 121.435 72.5037C121.722 71.1277 122.115 69.7797 122.612 68.4668C122.92 67.6524 123.536 66.6906 124.39 66.8521C124.684 69.2391 124.292 71.7104 123.256 73.8868C123.844 72.4265 124.719 71.0785 125.825 69.9623C126.246 72.8899 124.642 75.6631 123.389 78.338C121.736 81.8483 120.602 85.6044 120.035 89.4447" fill="white"/>
<path d="M116.331 84.1511C116.016 79.7632 115.449 75.3963 114.637 71.0785C115.463 70.882 116.058 71.8719 116.212 72.7074C116.366 73.5428 116.471 74.5538 117.234 74.9329C117.157 71.4506 117.101 67.856 118.446 64.6406C119.293 66.7959 119.601 69.1689 119.328 71.4717C120.14 69.6323 118.901 67.147 120.203 65.6235C120.476 65.3075 121.008 65.0899 121.274 65.4128C121.393 65.5603 121.4 65.7709 121.407 65.9675C121.414 68.1439 121.428 70.3273 121.435 72.5037C121.722 71.1277 122.115 69.7797 122.612 68.4668C122.92 67.6524 123.536 66.6906 124.39 66.8521C124.684 69.2391 124.292 71.7104 123.256 73.8868C123.844 72.4265 124.719 71.0785 125.825 69.9623C126.246 72.8899 124.642 75.6631 123.389 78.338C121.736 81.8483 120.602 85.6044 120.035 89.4447" stroke="#1D1D1B" stroke-width="2" stroke-linecap="round" stroke-linejoin="round"/>
<path d="M100.602 109.517C98.5716 108.064 98.1655 105.059 95.3088 104.68C90.7507 104.083 92.053 109.615 90.5967 111.988C90.4707 112.199 90.3306 112.388 90.1836 112.571C91.2619 113.463 92.4872 114.122 93.7055 114.53C97.1223 114.53 99.4959 112.445 100.595 109.517H100.602Z" fill="white" stroke="#1D1D1B" stroke-width="2" stroke-linecap="round" stroke-linejoin="round"/>
<path d="M110.28 130.811C107.696 122.842 110.896 114.228 114.481 106.659C118.066 99.0911 122.197 91.2069 121.497 82.8522C119.984 82.6697 118.465 82.4801 116.953 82.2976C114.208 90.6803 110.392 98.705 105.645 106.133C104.055 108.618 101.885 109.18 99.9945 110.823C98.4051 112.213 96.5286 115.47 93.714 114.53C92.4887 114.122 91.2704 113.463 90.1921 112.571C88.3296 114.895 85.1719 115.084 82.8543 116.924C81.1109 118.3 80.5437 120.546 80.3197 122.653C79.7596 127.841 79.6895 138.934 87.2934 139.811C88.6797 139.973 90.0801 139.741 91.4524 139.516C95.2333 138.891 98.9862 138.232 102.704 137.424C105.897 136.729 108.992 136.827 111.638 134.693C112.205 134.237 112.717 133.689 112.962 133.036C113.375 131.899 112.906 130.67 112.465 129.547C110.994 125.833 109.741 122.049 108.691 118.216C107.99 115.646 108.116 112.093 105.008 110.858C103.887 110.416 102.599 110.437 101.472 109.994C101.157 109.868 100.877 109.706 100.618 109.524C100.576 109.629 100.534 109.742 100.492 109.847" fill="#1D1D1B"/>
<path d="M110.28 130.811C107.696 122.842 110.896 114.228 114.481 106.659C118.066 99.0911 122.197 91.2069 121.497 82.8522C119.984 82.6697 118.465 82.4801 116.953 82.2976C114.208 90.6803 110.392 98.705 105.645 106.133C104.055 108.618 101.885 109.18 99.9945 110.823C98.4051 112.213 96.5286 115.47 93.714 114.53C92.4887 114.122 91.2704 113.463 90.1921 112.571C88.3296 114.895 85.1719 115.084 82.8543 116.924C81.1109 118.3 80.5437 120.546 80.3197 122.653C79.7596 127.841 79.6895 138.934 87.2934 139.811C88.6797 139.973 90.0801 139.741 91.4524 139.516C95.2333 138.891 98.9862 138.232 102.704 137.424C105.897 136.729 108.992 136.827 111.638 134.693C112.205 134.237 112.717 133.689 112.962 133.036C113.375 131.899 112.906 130.67 112.465 129.547C110.994 125.833 109.741 122.049 108.691 118.216C107.99 115.646 108.116 112.093 105.008 110.858C103.887 110.416 102.599 110.437 101.472 109.994C101.157 109.868 100.877 109.706 100.618 109.524C100.576 109.629 100.534 109.742 100.492 109.847" stroke="#1D1D1B" stroke-width="2" stroke-linecap="round" stroke-linejoin="round"/>
<path d="M93.3488 110.163C94.4971 110.38 95.9254 110.472 96.6466 110.163C97.1647 109.938 97.5638 109.538 97.9419 109.138C98.8032 108.218 99.6363 107.256 100.112 106.126C100.855 104.364 100.659 102.391 100.309 100.53C99.4193 95.7985 95.7574 91.8458 90.8212 94.2328C87.9785 95.6089 85.738 98.4523 86.7952 101.682C86.9283 102.082 87.0963 102.496 87.0053 102.91C86.7112 104.174 85.5769 104.946 86.4381 106.21C86.9773 107.003 88.3356 107.074 89.1268 107.488C90.2331 108.064 90.9892 109.44 92.1795 109.861C92.4876 109.966 92.8937 110.072 93.3488 110.156V110.163Z" fill="white" stroke="#1D1D1B" stroke-width="2" stroke-linecap="round" stroke-linejoin="round"/>
<path d="M95.0352 100.945C95.9104 101.211 96.3095 102.454 95.7493 103.177" stroke="#1D1D1B" stroke-width="2" stroke-linecap="round" stroke-linejoin="round"/>
<path d="M93.0469 105.705C93.9641 106.322 95.1964 106.428 96.2046 105.978" stroke="#1D1D1B" stroke-width="2" stroke-linecap="round" stroke-linejoin="round"/>
<path d="M99.2448 93.1798C98.5306 92.0073 97.6554 90.891 96.5071 90.1749C95.3588 89.4588 93.8955 89.1709 92.6561 89.6905C92.166 89.8941 91.7249 90.21 91.2488 90.4557C90.1005 91.0384 88.7422 91.1508 87.5239 90.7646C88.042 91.4527 88.6582 92.0635 89.3513 92.5689C88.1961 92.6672 87.0268 92.6111 85.8855 92.4005C86.4736 92.9411 87.0548 93.4816 87.6429 94.0222C86.6977 94.0573 85.7595 94.2048 84.8492 94.4645C85.4934 94.942 86.1446 95.4123 86.8097 95.8757C85.9695 95.8336 85.1713 96.3672 84.7232 97.1043C84.2751 97.8415 84.1561 98.7472 84.2121 99.6177C84.3241 101.211 85.0593 102.749 86.2146 103.809C86.3336 101.022 88.3221 98.677 90.5206 97.0762C91.3818 96.4514 92.3481 95.8757 93.3983 95.8968C94.4486 95.9178 95.5409 96.7744 95.4988 97.8626C95.947 97.4273 96.3881 96.999 96.8362 96.5637C96.9832 97.0341 97.3543 97.4273 97.8024 97.5958C98.5516 95.5036 100.694 95.5668 99.2448 93.1868V93.1798Z" fill="#1D1D1B" stroke="#1D1D1B" stroke-width="2" stroke-linecap="round" stroke-linejoin="round"/>
<path d="M262.556 32.1487C263.998 32.1558 263.9 33.5318 263.06 34.4024C261.947 35.5538 260.827 36.7122 259.713 37.8636C260.463 38.4884 261.576 38.0602 262.465 37.66C264.86 36.5718 267.401 35.7995 269.999 35.3712C270.237 35.3291 270.496 35.294 270.72 35.3923C271.21 35.5959 271.28 36.305 270.993 36.7473C270.706 37.1896 270.195 37.4213 269.712 37.6319C267.954 38.3972 266.197 39.1624 264.44 39.9277C263.83 40.1945 263.151 40.5385 262.983 41.1844C262.857 41.6758 263.074 42.1883 263.179 42.6868C263.564 44.6175 262.031 46.5131 260.197 47.2292C258.362 47.9453 256.325 47.7558 254.371 47.5592C253.44 47.4679 252.509 47.3766 251.577 47.2854C249.386 47.0677 248.518 45.5793 248.98 43.431C249.386 41.5354 251.255 40.707 252.453 39.3941C253.531 38.2076 253.909 36.7684 255.155 35.6451C256.199 34.7113 257.396 34.0092 258.768 33.7003C259.909 33.4406 261.401 32.1838 262.479 32.1558C262.507 32.1558 262.528 32.1558 262.556 32.1558V32.1487Z" fill="white" stroke="#1D1D1B" stroke-width="2" stroke-linecap="round" stroke-linejoin="round"/>
<path d="M259.997 41.051C259.85 41.0791 259.689 41.1072 259.577 41.2125C259.339 41.4372 259.451 41.8303 259.633 42.1041C260.417 43.2625 262 43.4872 263.393 43.5995C264.317 43.6768 266.628 44.3156 267.44 43.761C268.329 43.1572 267.671 41.9778 266.922 41.4863C265.283 40.4192 261.783 40.7421 259.997 41.051Z" fill="white" stroke="#1D1D1B" stroke-width="2" stroke-linecap="round" stroke-linejoin="round"/>
<path d="M259.677 45.769C259.299 45.8673 258.879 45.9936 258.676 46.3306C258.368 46.8572 258.788 47.5171 259.257 47.9103C259.999 48.5211 260.902 48.9143 261.819 49.1951C262.282 49.3355 262.779 49.4619 263.255 49.3425C263.731 49.2232 264.158 48.8019 264.123 48.3175C264.074 47.7067 263.395 47.3767 262.807 47.2223" fill="white"/>
<path d="M259.677 45.769C259.299 45.8673 258.879 45.9936 258.676 46.3306C258.368 46.8572 258.788 47.5171 259.257 47.9103C259.999 48.5211 260.902 48.9143 261.819 49.1951C262.282 49.3355 262.779 49.4619 263.255 49.3425C263.731 49.2232 264.158 48.8019 264.123 48.3175C264.074 47.7067 263.395 47.3767 262.807 47.2223" stroke="#1D1D1B" stroke-width="2" stroke-linecap="round" stroke-linejoin="round"/>
<path d="M173.389 149.177C174.061 149.5 174.838 149.486 175.573 149.626C177.499 149.991 179.074 151.367 180.915 152.034C182.4 152.568 184.003 152.638 185.571 152.694C186.447 152.729 187.336 152.757 188.19 152.561C189.815 152.182 191.208 150.925 191.747 149.338C192.286 147.752 191.964 145.905 190.914 144.606C190.291 143.841 189.457 143.272 188.638 142.725C187.322 141.84 185.985 140.949 184.479 140.464C182.316 139.776 180.019 139.994 177.8 140.169C176.301 140.289 173.97 140.057 172.737 141.131C170.882 142.753 171.029 148.061 173.396 149.17L173.389 149.177Z" fill="#1D1D1B" stroke="#1D1D1B" stroke-width="2" stroke-linecap="round" stroke-linejoin="round"/>
<path d="M193.931 147.036C194.604 147.309 195.381 147.302 196.116 147.422C198.041 147.738 199.617 148.896 201.458 149.465C202.943 149.921 204.546 149.977 206.114 150.026C206.99 150.054 207.879 150.083 208.733 149.914C210.357 149.591 211.751 148.524 212.29 147.183C212.829 145.842 212.507 144.269 211.457 143.167C210.834 142.514 210 142.037 209.181 141.573C207.865 140.822 206.528 140.064 205.022 139.657C202.859 139.074 200.562 139.257 198.343 139.404C196.844 139.502 194.513 139.313 193.28 140.225C191.425 141.602 191.572 146.109 193.938 147.05L193.931 147.036Z" fill="#1D1D1B" stroke="#1D1D1B" stroke-width="2" stroke-linecap="round" stroke-linejoin="round"/>
<path d="M259.213 45.0107C259.101 45.4811 259.549 45.8953 259.969 46.1411C261.978 47.3346 264.478 47.6786 266.733 47.0748C266.887 47.0327 267.041 46.9835 267.153 46.8712C267.363 46.6606 267.321 46.2955 267.139 46.0568C266.957 45.8181 266.684 45.6847 266.411 45.5654C265.374 45.102 259.78 42.6448 259.213 45.0107Z" fill="white" stroke="#1D1D1B" stroke-width="2" stroke-linecap="round" stroke-linejoin="round"/>
<path d="M210.309 107.853C210.89 110.072 211.618 112.283 211.695 114.579C211.772 116.959 211.156 119.297 210.729 121.635C209.931 126.058 209.826 130.572 209.777 135.072C209.749 138.049 209.44 141.573 206.864 143.055C205.4 143.897 203.566 143.785 201.935 143.357C200.303 142.928 198.742 142.219 197.075 141.917C196.648 141.84 196.207 141.791 195.78 141.889C195.087 142.051 194.555 142.584 193.918 142.907C192.013 143.862 189.605 142.606 188.54 140.752C187.476 138.899 187.413 136.666 187.371 134.532C187.161 123.404 186.951 112.276 186.741 101.148C186.706 99.1895 186.671 97.2237 186.888 95.2719C187.084 93.5097 187.56 91.6492 188.883 90.4768C190.676 88.8901 193.337 89.0656 195.724 89.0024C198.756 88.9252 201.431 87.7036 204.35 87.3807C206.479 87.142 207.599 88.4127 208.152 90.3715C208.88 92.9691 208.474 95.9108 208.698 98.5787C208.964 101.703 209.496 104.813 210.295 107.846L210.309 107.853Z" fill="white" stroke="#1D1D1B" stroke-width="2" stroke-linecap="round" stroke-linejoin="round"/>
<path d="M171.342 107.383C171.728 108.969 172.491 110.5 172.449 112.129C172.414 113.329 171.945 114.459 171.573 115.597C170.929 117.577 170.565 119.662 170.67 121.74C170.803 124.45 171.714 127.083 171.756 129.793C171.798 132.496 170.978 135.156 170.957 137.859C170.936 140.562 172.015 143.602 174.528 144.592C175.753 145.077 177.112 144.992 178.421 144.901C180.739 144.74 183.056 144.578 185.374 144.424C186.34 144.354 187.362 144.269 188.154 143.708C189.323 142.872 189.624 141.243 189.498 139.811C189.302 137.6 188.336 135.486 188.35 133.268C188.371 129.456 191.227 126.247 192.004 122.519C192.621 119.549 191.878 116.467 192.172 113.448C192.446 110.612 193.629 107.902 193.706 105.059C193.748 103.423 193.426 101.794 193.398 100.158C193.314 96.009 195.085 91.9511 194.735 87.8159C194.637 86.6926 194.378 85.5552 193.797 84.5934C193.139 83.5052 192.109 82.6908 191.017 82.0308C187.131 79.6789 182.09 79.1594 177.98 81.076C173.835 83.0067 170.614 87.8159 170.747 92.4495C170.803 94.3662 171.223 96.2477 171.265 98.1714C171.328 101.239 170.614 104.343 171.349 107.383H171.342Z" fill="white" stroke="#1D1D1B" stroke-width="2" stroke-linecap="round" stroke-linejoin="round"/>
<path d="M133.624 16.6752C131.474 16.0293 130.249 13.8177 129.276 11.7888C128.884 10.9743 128.492 10.1389 127.889 9.4649C127.063 8.53817 125.152 7.40783 123.856 7.73078C121.301 8.36265 123.296 10.3846 124.347 11.4728C125.068 12.217 125.649 13.2491 125.691 14.3092C125.747 15.7063 124.746 15.6291 124.102 16.7454C123.289 18.1635 123.695 20.3751 123.856 21.9126C123.947 22.734 124.073 23.6397 124.704 24.1662C125.285 24.6577 126.118 24.6788 126.874 24.6788C128.394 24.6788 129.913 24.6647 131.439 24.6647C131.649 24.6647 131.866 24.6647 132.055 24.5805C132.244 24.4962 132.385 24.3418 132.525 24.1943C133.372 23.2606 134.163 22.2566 134.667 21.1052C135.171 19.9538 135.367 18.6269 135.017 17.4194" fill="white"/>
<path d="M133.624 16.6752C131.474 16.0293 130.249 13.8177 129.276 11.7888C128.884 10.9743 128.492 10.1389 127.889 9.4649C127.063 8.53817 125.152 7.40783 123.856 7.73078C121.301 8.36265 123.296 10.3846 124.347 11.4728C125.068 12.217 125.649 13.2491 125.691 14.3092C125.747 15.7063 124.746 15.6291 124.102 16.7454C123.289 18.1635 123.695 20.3751 123.856 21.9126C123.947 22.734 124.073 23.6397 124.704 24.1662C125.285 24.6577 126.118 24.6788 126.874 24.6788C128.394 24.6788 129.913 24.6647 131.439 24.6647C131.649 24.6647 131.866 24.6647 132.055 24.5805C132.244 24.4962 132.385 24.3418 132.525 24.1943C133.372 23.2606 134.163 22.2566 134.667 21.1052C135.171 19.9538 135.367 18.6269 135.017 17.4194" stroke="#1D1D1B" stroke-width="2" stroke-linecap="round" stroke-linejoin="round"/>
<path d="M187.189 21.0631C179.361 20.8876 171.659 23.2746 163.832 23.2817C159.616 23.2817 155.422 22.6077 151.333 21.5686C145.2 20.017 139.298 17.6791 133.416 15.3553C132.856 18.7673 131.764 22.0952 130.195 25.1702C138.828 31.6433 148.351 37.6179 159.042 38.994C161.913 39.3591 164.854 39.3942 167.633 40.2156C168.985 46.8782 167.577 53.9691 167.745 60.7652C167.899 66.9364 169.503 73.0795 169.608 79.1945C169.713 85.3096 170.063 91.0736 170.7 97.0271C179.403 95.8547 188.365 97.4975 196.971 95.7564C201.536 94.8296 205.961 92.9621 210.617 92.913C206.164 78.7663 207.732 63.412 209.273 48.6545C212.717 49.188 215.994 49.7708 219.446 50.3043C222.59 50.7888 225.755 51.2732 228.933 51.2802C237.538 51.2943 245.898 47.7839 254.497 48.1069C254.202 44.5193 253.572 41.4653 253.278 37.8777C250.534 36.8597 247.488 37.3231 244.589 37.7303C239.198 38.4955 233.695 39.0361 228.331 38.1164C219.614 36.628 212.031 31.4538 204.756 26.4129C200.499 23.4642 195.409 21.8845 190.452 20.3891C189.99 20.2487 189.514 20.1083 189.031 20.1083C188.211 20.1083 188.008 21.0842 187.189 21.0631Z" fill="#1D1D1B" stroke="#1D1D1B" stroke-width="2" stroke-linecap="round" stroke-linejoin="round"/>
<path d="M188.286 39.4644C189.211 42.0972 191.15 44.8844 193.937 44.8774C196.457 44.8774 198.32 42.5816 199.601 40.4052C202.339 35.7575 204.243 30.4498 203.97 25.058C202.157 24.061 200.833 22.369 199.16 21.1544C195.939 18.8095 189.351 17.5528 187.432 22.1303C185.402 26.9746 186.62 34.7184 188.293 39.4644H188.286Z" stroke="white" stroke-width="2" stroke-linecap="round" stroke-linejoin="round"/>
<path d="M195.057 4.37492C194.496 3.98879 193.782 3.95368 193.103 3.94666C190.87 3.91858 188.629 4.07303 186.416 4.41003C185.261 4.58554 182.376 5.28761 183.616 6.99365C183.938 7.44297 184.435 7.73082 184.918 7.99761C187.537 9.42281 190.344 10.511 193.243 11.2131C194.118 11.4237 194.153 11.2482 194.818 10.6514C195.484 10.0547 195.904 9.20517 196.128 8.3346C196.45 7.06385 196.233 5.21741 195.057 4.38897V4.37492Z" fill="white" stroke="#1D1D1B" stroke-width="2" stroke-linecap="round" stroke-linejoin="round"/>
<path d="M190.143 10.7707C189.806 11.6273 189.47 12.5049 189.47 13.4246C189.47 14.3443 189.883 15.3202 190.71 15.7274C189.834 17.1596 189.064 18.655 188.406 20.1995C188.308 20.4242 188.07 20.4383 188 20.705C188.763 21.3158 189.379 22.1934 190.01 22.9587C191.214 24.4049 191.739 26.3216 193.132 27.5011C194.456 28.6174 196.598 29.495 198.335 29.4388C200.925 29.3545 203.047 27.3747 204.608 25.3036C206.239 23.1412 207.549 20.7331 208.494 18.1916C209.516 15.4395 210.041 12.1679 208.445 9.7036C207.395 8.08182 205.581 7.0919 203.719 6.58641C198.713 5.23141 192.033 5.92646 190.143 10.7707Z" fill="white" stroke="#1D1D1B" stroke-width="2" stroke-linecap="round" stroke-linejoin="round"/>
<path d="M193.953 3.29366C194.247 2.97071 194.576 2.67584 194.933 2.42309C195.815 1.80527 196.859 1.4753 197.916 1.2717C201.571 0.555584 205.478 1.2717 208.649 3.22345C209.266 3.60257 209.854 4.03083 210.316 4.58547C213.159 7.99753 210.694 12.6242 209.427 16.0924C209.056 17.1034 197.405 13.1367 196.27 12.6874C194.212 11.8659 192.321 10.8479 190.375 9.79483C190.963 8.23623 191.684 6.72678 192.532 5.29456C192.945 4.59249 193.4 3.89744 193.953 3.30068V3.29366Z" fill="#1D1D1B" stroke="#1D1D1B" stroke-width="2" stroke-linecap="round" stroke-linejoin="round"/>
<path d="M207.885 15.1377C208.446 14.6392 208.586 13.7967 208.453 13.0525C208.159 11.3676 206.534 10.0196 204.833 10.0406C203.831 10.0547 202.872 10.483 202.088 11.1078C201.388 11.6624 200.8 12.3926 200.555 13.2561C202.788 14.4918 205.379 14.7235 207.892 15.1377H207.885Z" fill="white" stroke="#1D1D1B" stroke-width="2" stroke-linecap="round" stroke-linejoin="round"/>
<path d="M200.805 23.6047C201.274 24.1804 202.212 24.3067 202.814 23.8644C203.416 23.4221 203.584 22.4884 203.178 21.8635" stroke="#1D1D1B" stroke-width="2" stroke-linecap="round" stroke-linejoin="round"/>
<path d="M197.359 17.7704C198.214 18.9428 199.607 19.7081 201.056 19.7853" stroke="#1D1D1B" stroke-width="2" stroke-linecap="round" stroke-linejoin="round"/>
<path d="M204.523 20.1925C205.231 20.5646 206.036 20.7401 206.827 20.698" stroke="#1D1D1B" stroke-width="2" stroke-linecap="round" stroke-linejoin="round"/>
<path d="M196.578 15.3202L200.73 16.963C201.542 17.286 202.404 17.644 202.901 18.3672" stroke="#1D1D1B" stroke-width="2" stroke-linecap="round" stroke-linejoin="round"/>
<path d="M205.02 18.7182C205.881 18.29 207.001 18.5006 207.652 19.2026" stroke="#1D1D1B" stroke-width="2" stroke-linecap="round" stroke-linejoin="round"/>
<path d="M196.438 24.3347C197.593 25.2404 198.951 25.8793 200.386 26.1812" stroke="#1D1D1B" stroke-width="2" stroke-linecap="round" stroke-linejoin="round"/>
<path d="M190.113 27.9855C190.638 29.846 192.039 31.4467 193.817 32.2049C195.596 32.9632 197.71 32.8649 199.419 31.9522" stroke="#1D1D1B" stroke-width="2" stroke-linecap="round" stroke-linejoin="round"/>
<path d="M122.479 7.92027C120.616 7.43584 118.306 9.15591 118.6 11.1779C118.838 12.8137 120.175 14.2319 121.792 14.5689C122.318 14.6812 122.878 14.6812 123.389 14.4916C125.853 13.579 125.041 9.75969 123.424 8.41172C123.137 8.17301 122.815 8.01154 122.486 7.92729L122.479 7.92027Z" fill="#1D1D1B" stroke="#1D1D1B" stroke-width="2" stroke-linecap="round" stroke-linejoin="round"/>
<path d="M125.67 34.943L128.744 34.2199C128.583 27.6204 125.404 21.4212 124.963 14.8357C124.956 14.6953 124.942 14.5338 124.844 14.4285C124.683 14.26 124.41 14.3162 124.186 14.3654C123.073 14.6321 121.441 13.9301 120.629 14.9902C119.726 16.1697 121.392 17.974 121.665 19.1464C121.973 20.4874 122.085 21.8284 122.456 23.1763C123.528 27.0939 124.599 31.0114 125.677 34.936L125.67 34.943Z" fill="#1D1D1B" stroke="#1D1D1B" stroke-width="2" stroke-linecap="round" stroke-linejoin="round"/>
<path d="M121.784 27.5712C122.162 27.7117 122.659 27.7959 122.841 27.4378C122.904 27.3115 122.911 27.15 122.897 26.9955C122.771 25.9565 121.749 25.3457 120.937 24.7489C120.173 24.1873 116.253 21.0841 116.168 23.8433C116.112 25.5282 120.678 27.157 121.791 27.5712H121.784Z" fill="white" stroke="#1D1D1B" stroke-width="2" stroke-linecap="round" stroke-linejoin="round"/>
<path d="M122.45 25.1632C122.912 25.2966 123.529 25.3668 123.774 24.9806C123.865 24.8402 123.879 24.6717 123.858 24.5103C123.753 23.415 122.499 22.8112 121.519 22.2145C120.595 21.6528 115.855 18.5286 115.624 21.4492C115.484 23.2325 121.092 24.77 122.45 25.1632Z" fill="white" stroke="#1D1D1B" stroke-width="2" stroke-linecap="round" stroke-linejoin="round"/>
<path d="M121.716 21.7722C122.178 21.9056 122.794 21.9758 123.039 21.5897C123.13 21.4492 123.144 21.2807 123.123 21.1193C123.018 20.024 121.765 19.4203 120.785 18.8235C119.861 18.2618 115.12 15.1376 114.889 18.0582C114.749 19.8415 120.358 21.379 121.716 21.7722Z" fill="white" stroke="#1D1D1B" stroke-width="2" stroke-linecap="round" stroke-linejoin="round"/>
<path d="M120.237 18.6199C120.658 18.8376 121.246 19.0271 121.575 18.6971C121.694 18.5778 121.743 18.4163 121.764 18.2548C121.904 17.1596 120.819 16.3312 119.985 15.5519C119.208 14.8217 115.266 10.841 114.391 13.6493C113.852 15.3623 118.998 17.967 120.237 18.6129V18.6199Z" fill="white" stroke="#1D1D1B" stroke-width="2" stroke-linecap="round" stroke-linejoin="round"/>
<path d="M126.895 32.6683C126.895 35.1326 128.232 37.5547 130.304 38.8817" stroke="#1D1D1B" stroke-width="2" stroke-linecap="round" stroke-linejoin="round"/>
<path d="M132.336 16.8226C130.705 15.5167 131.307 13.5018 130.299 11.6694C129.592 10.3846 128.597 9.23317 127.337 8.48196C126.077 7.73074 124.34 6.59339 122.912 6.92336C122.352 7.04974 121.939 8.17305 121.827 8.74172C121.729 9.22615 122.044 9.69654 122.38 10.0616C122.912 10.6233 123.549 11.0866 124.256 11.4096C124.592 11.564 124.957 11.6974 125.237 11.9432C126.14 12.7365 125.769 14.1828 125.706 15.3833C125.594 17.4965 126.791 19.6238 128.653 20.6137" fill="white"/>
<path d="M132.336 16.8226C130.705 15.5167 131.307 13.5018 130.299 11.6694C129.592 10.3846 128.597 9.23317 127.337 8.48196C126.077 7.73074 124.34 6.59339 122.912 6.92336C122.352 7.04974 121.939 8.17305 121.827 8.74172C121.729 9.22615 122.044 9.69654 122.38 10.0616C122.912 10.6233 123.549 11.0866 124.256 11.4096C124.592 11.564 124.957 11.6974 125.237 11.9432C126.14 12.7365 125.769 14.1828 125.706 15.3833C125.594 17.4965 126.791 19.6238 128.653 20.6137" stroke="#1D1D1B" stroke-width="2" stroke-linecap="round" stroke-linejoin="round"/>
<path d="M78.9866 118.567C77.7053 117.184 75.8988 116.187 74.0224 116.264C70.8576 116.39 68.47 119.528 68.0569 122.681C67.8399 124.352 68.0499 126.261 68.4 128.22C72.314 125.58 76.634 123.551 81.0101 121.663C80.4709 120.539 79.8268 119.472 78.9866 118.56V118.567Z" fill="#1D1D1B" stroke="#1D1D1B" stroke-width="2" stroke-linecap="round" stroke-linejoin="round"/>
<path d="M79.7894 138.428C79.4603 137.782 79.3273 136.996 79.4463 136.132C80.7066 136.526 82.0159 135.816 82.8421 134.82C83.5423 133.977 83.6754 132.798 83.6543 131.695C83.6123 128.859 82.8071 126.086 81.7709 123.446C81.5328 122.842 81.2808 122.245 81.0007 121.663C76.6246 123.544 72.3046 125.58 68.3906 128.22C68.8877 130.993 69.6789 133.865 69.98 136.252C70.022 136.582 70.05 136.947 69.847 137.2C69.6719 137.417 69.3779 137.487 69.1048 137.544C68.9438 137.579 68.7827 137.607 68.6217 137.642C71.3243 140.422 76.0925 139.537 79.7964 138.428H79.7894Z" fill="white" stroke="#1D1D1B" stroke-width="2" stroke-linecap="round" stroke-linejoin="round"/>
<path d="M94.2631 150.609C101.188 145.154 105.886 136.954 107.146 128.22C105.41 126.64 103.491 125.363 101.125 125.201C100.824 125.798 100.474 126.374 100.033 126.942C96.3216 131.73 91.7355 135.837 86.5682 138.99C85.693 139.523 84.7758 140.036 83.7675 140.204C81.9471 140.506 80.4557 139.748 79.7836 138.421C76.0797 139.53 71.3185 140.415 68.6088 137.635C64.7929 138.414 60.984 139.13 57.1611 139.72C54.8435 140.078 50.9926 140.38 50.2994 143.167C49.6132 145.87 52.0078 147.78 54.1503 148.482C56.0548 149.114 58.0363 149.423 59.9967 149.816C61.3551 150.089 62.6994 150.398 63.9947 150.869C64.2188 150.953 64.4358 151.037 64.6529 151.122C63.9247 149.598 63.4416 147.829 62.0903 146.923C63.4416 147.822 63.9247 149.598 64.6529 151.122C67.5096 153.144 73.6221 156.198 78.6563 157.335C84.3277 158.62 89.3619 160.431 95.0333 161.716C94.4662 159.23 94.039 155.18 93.4719 152.694C93.3879 152.315 93.2969 151.915 93.4229 151.55C93.5559 151.143 93.92 150.862 94.2561 150.595L94.2631 150.609Z" fill="white" stroke="#1D1D1B" stroke-width="2" stroke-linecap="round" stroke-linejoin="round"/>
<path d="M108.302 123.277C108.799 122.617 109.527 122.175 110.185 121.684C112.377 120.055 114.022 117.689 114.778 115.056C112.573 113.996 110.087 112.915 107.763 113.68C105.186 114.53 103.821 117.31 102.98 119.893C102.364 121.796 101.958 123.551 101.125 125.201C103.492 125.363 105.41 126.64 107.146 128.22C107.209 127.778 107.273 127.342 107.322 126.893C107.455 125.629 107.546 124.288 108.302 123.27V123.277Z" fill="white" stroke="#1D1D1B" stroke-width="2" stroke-linecap="round" stroke-linejoin="round"/>
<path d="M68.2852 128.403C74.1106 124.675 80.3211 121.55 86.7837 119.093" stroke="#1D1D1B" stroke-width="2" stroke-linecap="round" stroke-linejoin="round"/>
<path d="M290.066 138.962C289.492 140.85 288.673 142.669 287.636 144.34C286.978 145.4 286.208 146.474 286.166 147.724C286.103 149.612 287.685 151.094 289.142 152.301C289.583 152.666 290.031 153.038 290.472 153.403C291.382 154.155 292.39 155.215 292.026 156.338" stroke="#1D1D1B" stroke-width="2" stroke-linecap="round" stroke-linejoin="round"/>
<path d="M277.567 105.936C277.91 107.067 277.028 108.253 275.971 108.766C274.914 109.278 273.695 109.32 272.54 109.552C270.944 109.875 269.361 110.626 268.388 111.939C267.499 113.147 267.212 114.684 266.946 116.166C266.329 119.627 265.72 123.109 265.755 126.626C265.804 131.808 267.268 136.94 266.869 142.107C269.956 142.114 272.918 143.862 275.985 143.483C277.973 143.237 279.864 142.1 281.852 142.325C283.099 142.465 284.513 143.097 285.493 142.311C285.941 141.953 286.151 141.377 286.34 140.829C289.491 131.632 291.298 121.979 291.69 112.262C291.704 111.855 291.718 111.441 291.557 111.069C291.242 110.324 290.352 110.001 289.547 109.952C288.742 109.903 287.923 110.051 287.139 109.875C285.948 109.608 285.01 108.625 284.506 107.509C284.002 106.393 283.883 105.143 283.82 103.921C283.778 103.128 283.316 102.939 282.657 102.489C281.635 101.794 280.158 102.23 279.304 103.121C278.449 104.013 277.924 104.75 277.56 105.936H277.567Z" fill="white" stroke="#1D1D1B" stroke-width="2" stroke-linecap="round" stroke-linejoin="round"/>
<path d="M275.599 102.63C275.789 103.598 276.083 104.616 276.818 105.276C277.63 106.007 278.82 106.154 279.892 105.978C282.902 105.487 285.143 102.854 286.41 100.074C287.397 97.9046 287.971 95.4755 287.579 93.1165C286.942 89.3043 281.817 84.7759 278.239 88.2863C275.067 91.3965 274.829 98.6629 275.599 102.623V102.63Z" fill="white" stroke="#1D1D1B" stroke-width="2" stroke-linecap="round" stroke-linejoin="round"/>
<path d="M281.46 91.3192C285.892 92.7655 286.642 97.4343 286.803 101.506C287.027 107.004 286.817 112.515 286.186 117.977C285.864 120.75 285.465 123.72 286.768 126.191C287.335 127.272 288.28 128.227 289.47 128.501C292.32 129.154 294.715 125.826 297.634 125.798C296.955 124.443 297.389 122.828 297.529 121.319C298.005 116.102 294.778 111.349 293.538 106.259C292.873 103.535 292.789 100.713 292.446 97.9328C292.124 95.3351 291.571 92.7585 290.801 90.2591C290.444 89.1007 290.023 87.9282 289.246 86.9945C288.182 85.7167 285.311 84.8602 283.687 84.7198C281.964 84.5724 280.256 85.3797 279.024 86.5943C278.366 87.2472 276.608 89.0586 277.119 90.0906C277.63 91.1227 280.501 91.0103 281.46 91.3263V91.3192Z" fill="white" stroke="#1D1D1B" stroke-width="2" stroke-linecap="round" stroke-linejoin="round"/>
<path d="M307.164 132.201C308.613 129.779 309.398 126.69 308.592 124.085C308.298 125.524 307.948 126.956 307.584 128.368C306.842 131.253 302.536 130.853 299.574 131.113C299.35 132.082 299.112 133.085 298.531 133.893C298.51 133.921 298.482 133.949 298.461 133.984C301.682 135.416 305.407 134.553 307.171 132.201H307.164Z" fill="white" stroke="#1D1D1B" stroke-width="2" stroke-linecap="round" stroke-linejoin="round"/>
<path d="M271.952 113.891C271.426 112.536 271.153 111.082 270.411 109.833C269.865 108.906 268.997 108.092 267.933 107.958C268.535 109.271 269.018 110.64 269.375 112.037C266.028 111.209 264.124 106.821 260.679 106.8C261.883 108.941 263.592 110.795 265.622 112.171C263.213 111.272 261.526 108.499 258.956 108.541C259.944 110.401 261.512 111.946 263.388 112.894C261.694 111.918 259.881 111.146 258.011 110.598C259.271 112.262 260.994 113.561 262.933 114.319C261.813 114.122 259.699 113.238 258.585 113.575C258.228 113.687 257.913 114.052 258.004 114.417C258.088 114.761 258.452 114.944 258.781 115.07C260.413 115.702 262.128 116.102 263.732 116.79C265.944 117.738 267.898 119.549 269.718 121.424C271.258 120.427 273.1 119.409 274.766 118.131C273.562 116.846 272.561 115.435 271.959 113.884L271.952 113.891Z" fill="white" stroke="#1D1D1B" stroke-width="2" stroke-linecap="round" stroke-linejoin="round"/>
<path d="M306.618 97.1956C305.302 95.5949 303.993 93.9872 302.676 92.3865C301.052 90.3996 299.295 88.3215 296.872 87.486L299.295 90.6313C297.789 88.7497 295.829 87.2403 293.63 86.2714C294.085 87.6124 294.848 88.841 295.85 89.845C294.456 88.4198 292.741 87.3175 290.865 86.6505C291.131 87.6966 291.663 88.6725 292.391 89.4729C292.713 89.7186 293.007 89.9854 293.273 90.2873C292.951 90.0415 292.657 89.7677 292.391 89.4729C291.348 88.6795 290.059 88.2091 288.75 88.1811C290.942 90.87 293.245 93.4747 295.647 95.974C294.414 95.7985 293.175 95.623 291.943 95.4475C293.763 97.8345 297.537 97.4624 299.981 99.1965C300.639 99.6669 301.178 100.271 301.689 100.903C303.524 99.9618 305.302 98.9297 306.618 97.2097V97.1956Z" fill="white" stroke="#1D1D1B" stroke-width="2" stroke-linecap="round" stroke-linejoin="round"/>
<path d="M317.468 145.863C316.425 142.872 315.858 139.713 315.781 136.54C315.577 127.771 319.092 118.658 315.97 110.465C314.667 107.053 312.322 104.16 310.004 101.338C308.87 99.9547 307.743 98.5717 306.608 97.1956C305.292 98.9227 303.514 99.9477 301.679 100.889C301.812 101.05 301.945 101.211 302.071 101.38C304.788 104.813 307.568 108.373 308.709 112.599C309.724 116.341 309.36 120.252 308.576 124.085C309.381 126.69 308.597 129.779 307.147 132.201C305.39 134.553 301.658 135.416 298.437 133.984C297.849 134.749 296.876 135.276 295.945 135.051C295.294 134.89 294.782 134.405 294.299 133.942C290.371 130.179 286.177 126.949 281.794 123.839C279.526 122.231 276.83 120.371 274.744 118.138C273.077 119.423 271.236 120.434 269.695 121.431C270.872 122.639 271.985 123.881 273.084 124.948C276.438 128.206 279.813 131.436 282.999 134.862C284.672 136.659 286.352 138.47 287.725 140.513C290.917 145.266 292.22 152.898 291.38 158.564C301.063 156.682 312.42 151.304 317.804 147.569C317.909 147.492 317.993 147.492 318.049 147.541C317.867 146.923 317.573 146.221 317.447 145.863H317.468Z" fill="white" stroke="#1D1D1B" stroke-width="2" stroke-linecap="round" stroke-linejoin="round"/>
<path d="M295.217 125.489C295.175 126.57 295.315 127.701 295.91 128.606C297.037 130.326 299.565 130.705 301.427 129.842C303.29 128.978 304.571 127.181 305.397 125.299C306.412 122.983 306.888 120.434 306.769 117.907C306.671 115.899 305.418 113.385 303.255 112.992C300.566 112.501 298.521 115.758 296.925 117.415C296.652 117.696 296.344 117.998 295.952 118.033C295.721 118.054 295.49 117.977 295.259 118.033C294.643 118.18 294.643 119.065 294.839 119.669C295.616 121.986 295.301 123.2 295.217 125.496V125.489Z" fill="white" stroke="#1D1D1B" stroke-width="2" stroke-linecap="round" stroke-linejoin="round"/>
<path d="M303.908 116.081C304.573 117.261 304.342 118.728 303.866 120.181C302.634 123.944 299.259 139.341 306.863 137.277C307.038 134.307 307.073 131.428 307.808 128.501C308.193 130.698 308.837 132.847 309.72 134.897C309.867 135.234 310.028 135.578 310.315 135.795C310.791 136.146 311.449 136.062 312.03 135.95C314.733 135.458 319.235 134.461 321.034 132.138C321.104 132.046 317.954 127.827 317.73 127.244C317.008 125.363 316.693 123.425 316.301 121.501C315.489 117.506 314.152 112.388 310.455 110.142C308.76 109.117 306.905 108.211 304.923 108.183C301.885 108.141 299.245 110.128 296.864 112.023C296.598 112.234 302.319 114.614 302.69 114.846C303.257 115.197 303.656 115.618 303.908 116.074V116.081Z" fill="#1D1D1B" stroke="#1D1D1B" stroke-width="2" stroke-linecap="round" stroke-linejoin="round"/>
<path d="M295.129 123.509C296.165 123.937 297.369 123.93 298.399 123.488" stroke="#1D1D1B" stroke-width="2" stroke-linecap="round" stroke-linejoin="round"/>
<path d="M297.984 117.071C298.916 117.071 299.819 117.682 300.169 118.553" stroke="#1D1D1B" stroke-width="2" stroke-linecap="round" stroke-linejoin="round"/>
<path d="M79.9648 130.705C80.9101 130.881 81.9113 130.755 82.7865 130.354" stroke="#1D1D1B" stroke-width="2" stroke-linecap="round" stroke-linejoin="round"/>
<path d="M82.2179 126.584C81.8538 126.662 81.5107 126.851 81.2656 127.132" stroke="#1D1D1B" stroke-width="2" stroke-linecap="round" stroke-linejoin="round"/>
<path d="M127.473 155.159C127.452 155.109 127.424 155.06 127.403 155.011C125.981 151.417 128.138 149.753 129.566 146.804C130.533 144.803 130.918 142.472 130.862 140.261C130.757 136.154 128.803 131.492 124.203 131.042C119.309 130.565 116.2 135.48 115.969 139.86C115.738 144.164 116.396 148.854 113.812 152.414C117.831 155.65 122.957 156.134 127.466 155.152L127.473 155.159Z" fill="white" stroke="#1D1D1B" stroke-width="2" stroke-linecap="round" stroke-linejoin="round"/>
<path d="M135.663 159.455C133.807 158.269 131.847 157.398 130.062 156.949C124.131 159.259 116.618 159.483 112.34 154C110.576 155.517 108.342 156.401 106.116 157.082C102.699 158.128 99.7512 159.778 97.0625 162.144C113.11 166.034 124.523 166.771 143.309 168.126C142.623 164.384 139.353 161.814 135.663 159.455Z" fill="#1D1D1B" stroke="#1D1D1B" stroke-width="2" stroke-linecap="round" stroke-linejoin="round"/>
<path d="M130.053 156.949C129.962 156.928 129.878 156.9 129.787 156.879C129.367 156.78 128.926 156.703 128.548 156.485C128.044 156.198 127.701 155.692 127.463 155.152C122.954 156.127 117.828 155.65 113.809 152.413C113.452 152.912 113.025 153.382 112.528 153.832C112.465 153.888 112.395 153.937 112.332 153.993C116.61 159.476 124.123 159.252 130.053 156.942V156.949Z" fill="white" stroke="#1D1D1B" stroke-width="2" stroke-linecap="round" stroke-linejoin="round"/>
<path d="M114.569 148.166C115.612 149.317 117.131 149.556 119.477 147.773C120.982 146.628 122.859 140.099 123.734 140.099C124.945 140.092 125.876 144.361 125.806 144.375C128.887 143.918 127.144 140.836 127.123 138.779C127.123 138.442 127.13 138.091 127.284 137.789C127.529 137.298 128.075 137.052 128.481 136.687C129.132 136.09 129.391 135.157 129.391 134.272C129.419 127.834 119.624 126.633 115.339 129.371C110.998 132.145 111.278 137.242 112.251 141.7C112.72 143.869 113.273 146.734 114.576 148.173L114.569 148.166Z" fill="#1D1D1B" stroke="#1D1D1B" stroke-width="2" stroke-linecap="round" stroke-linejoin="round"/>
<path d="M167.176 155.418C165.425 153.108 165.621 149.872 165.103 146.986C163.955 140.612 156.694 145.428 156.75 150.04C156.778 152.034 157.465 154.246 157.009 156.24C160.552 157.84 164.081 157.005 167.176 155.418Z" fill="white" stroke="#1D1D1B" stroke-width="2" stroke-linecap="round" stroke-linejoin="round"/>
<path d="M175.573 159.694C172.765 158.353 169.292 158.009 167.311 155.608C167.262 155.552 167.22 155.488 167.171 155.425C164.076 157.019 160.547 157.847 157.004 156.247C156.892 156.724 156.724 157.187 156.458 157.63C155.002 160.073 151.886 160.199 149.442 160.958C146.095 161.997 143.246 164.566 141.859 167.796C155.331 168.343 168.802 168.898 182.273 169.446C181.937 165.331 179.291 161.477 175.573 159.701V159.694Z" fill="white" stroke="#1D1D1B" stroke-width="2" stroke-linecap="round" stroke-linejoin="round"/>
<path d="M152.872 137.74C151.633 140.857 151.906 144.747 153.264 147.724C153.74 148.77 154.37 149.76 155.218 150.532C157.206 152.336 160.147 152.68 162.8 152.322C163.949 152.168 165.118 151.88 166.035 151.171C167.569 149.991 168.08 147.927 168.388 146.011C169.515 138.927 168.486 133.998 160.084 134.054C160.266 134.054 160.525 133.858 160.672 133.745C160.112 134.202 157.318 133.605 156.373 133.956C154.84 134.525 153.915 135.578 153.208 136.996C153.089 137.242 152.977 137.487 152.872 137.747V137.74Z" fill="white" stroke="#1D1D1B" stroke-width="2" stroke-linecap="round" stroke-linejoin="round"/>
<path d="M155.007 135.487C154.622 136.476 155.553 137.544 156.561 137.867C157.877 138.281 159.439 137.86 160.286 136.771C161.133 135.683 161.154 133.998 160.265 132.945C159.376 131.892 157.625 131.681 156.554 132.545C155.469 133.415 155.28 135.002 155.448 136.385" fill="white"/>
<path d="M155.007 135.487C154.622 136.476 155.553 137.544 156.561 137.867C157.877 138.281 159.439 137.86 160.286 136.771C161.133 135.683 161.154 133.998 160.265 132.945C159.376 131.892 157.625 131.681 156.554 132.545C155.469 133.415 155.28 135.002 155.448 136.385" stroke="#1D1D1B" stroke-width="2" stroke-linecap="round" stroke-linejoin="round"/>
<path d="M145.955 141.265C146.214 148.938 147.706 156.521 149.61 163.955C150.387 156.071 151.389 148.201 152.6 140.373C153.041 137.544 153.909 136.217 155.968 134.483C157.088 133.535 157.522 134.497 157.137 132.727C156.92 131.702 155.38 130.474 154.462 130.123C147.965 127.637 145.801 136.912 145.948 141.265H145.955Z" fill="white" stroke="#1D1D1B" stroke-width="2" stroke-linecap="round" stroke-linejoin="round"/>
<path d="M250.42 106.821C249.398 105.206 250.154 103.907 249.321 101.801C248.817 100.53 247.591 99.716 246.443 98.9789C245.022 98.0732 242.837 96.7463 241.192 97.9609C239.868 98.9367 240.471 99.9056 240.338 101.331C240.127 103.577 239.14 105.213 237.754 106.519C238.643 109.405 240.099 111.742 241.129 114.495C244.784 113.013 247.696 109.98 250.42 106.828V106.821Z" fill="white" stroke="#1D1D1B" stroke-width="2" stroke-linecap="round" stroke-linejoin="round"/>
<path d="M261.68 117.605C261.582 117.289 261.463 116.973 261.33 116.664C260.266 114.326 258.026 112.789 255.862 111.413C254.175 110.338 252.76 109.236 251.311 107.867C250.919 107.495 250.639 107.151 250.429 106.821C247.705 109.973 244.785 113.006 241.137 114.488C240.108 111.743 238.652 109.398 237.763 106.512C236.726 107.488 235.466 108.274 234.136 108.983C232.014 110.114 229.704 111.04 227.82 112.227C223.591 114.888 220.72 119.191 217.969 123.369C218.466 122.611 226.014 123.397 228.016 123.523C228.849 122.33 230.033 121.354 231.209 120.603C230.026 121.361 228.842 122.33 228.016 123.523C228.156 123.53 228.268 123.537 228.352 123.537C236.425 123.671 244.785 124.668 252.543 127.104C252.221 125.952 251.808 124.808 252.158 123.832C251.815 124.808 252.221 125.952 252.543 127.104C253.215 127.314 253.88 127.532 254.546 127.764C257.486 128.754 260.21 128.943 263.235 129.526C262.913 126.647 262.591 123.769 262.269 120.89C262.143 119.781 262.016 118.651 261.687 117.584L261.68 117.605Z" fill="white" stroke="#1D1D1B" stroke-width="2" stroke-linecap="round" stroke-linejoin="round"/>
<path d="M241.452 101.282C243.007 103.17 245.548 104.076 247.957 102.468C250.674 100.65 252.515 95.3351 252.823 92.2108C252.942 91.0173 252.928 89.7676 252.431 88.6724C252.046 87.8229 251.388 87.1208 250.667 86.5311C247.915 84.2845 242.559 83.5543 241.207 87.6755C240.122 91.0033 239.415 94.8296 240.066 98.3118C240.269 99.4071 240.766 100.446 241.459 101.289L241.452 101.282Z" fill="white" stroke="#1D1D1B" stroke-width="2" stroke-linecap="round" stroke-linejoin="round"/>
<path d="M252.726 89.185C252.831 89.3043 252.943 89.4237 253.048 89.536C251.983 86.3135 249.96 83.091 246.732 82.0519C246.165 81.8694 245.57 81.7571 245.045 81.4762C244.282 81.062 243.728 80.2827 243.588 79.4192C243.098 80.5003 242.93 81.729 243.126 82.9085C242.195 81.8413 241.677 80.4301 241.684 79.019C241.194 80.1353 240.991 81.3779 241.103 82.5925C239.948 81.75 239.128 80.4582 238.855 79.0541C237.861 82.4521 238.708 86.3416 241.04 89.0024C241.138 89.1148 239.772 86.9454 239.653 87.0366C239.534 87.1279 239.597 87.3175 239.66 87.4579C240.249 88.7076 240.214 90.231 239.569 91.4526C240.179 90.21 240.823 88.9182 241.929 88.0897C243.322 87.0507 245.241 86.9454 246.907 87.4157C248.777 87.9493 250.464 89.1779 251.465 90.8489C252.467 92.5198 252.768 94.619 252.186 96.4865C253.524 94.0643 253.398 91.8739 252.719 89.185H252.726Z" fill="white" stroke="#1D1D1B" stroke-width="2" stroke-linecap="round" stroke-linejoin="round"/>
<path d="M244.538 94.9279C244.405 95.2017 244.468 95.5597 244.685 95.7774" stroke="#1D1D1B" stroke-width="2" stroke-linecap="round" stroke-linejoin="round"/>
<path d="M242.973 98.8454C244.38 99.1824 245.948 98.7331 246.971 97.701" stroke="#1D1D1B" stroke-width="2" stroke-linecap="round" stroke-linejoin="round"/>
<path d="M260.951 151.501C260.972 151.452 261 151.402 261.021 151.353C262.008 148.854 261.21 146.277 258.99 144.768C258.206 144.234 257.352 143.813 256.603 143.23C256.288 142.985 255.986 142.697 255.846 142.325C255.741 142.044 255.734 141.728 255.734 141.426C255.734 136.385 258.038 127.988 264.206 127.385C269.101 126.907 272.209 131.822 272.44 136.203C272.671 140.506 272.013 145.196 274.597 148.756C270.578 151.992 265.453 152.477 260.944 151.494L260.951 151.501Z" fill="white" stroke="#1D1D1B" stroke-width="2" stroke-linecap="round" stroke-linejoin="round"/>
<path d="M252.759 155.797C254.615 154.611 256.575 153.74 258.361 153.291C264.291 155.601 271.804 155.825 276.082 150.342C277.846 151.859 280.08 152.743 282.306 153.424C285.723 154.47 288.671 156.12 291.36 158.486C276.082 162.369 261.511 164.454 245.113 166.729C245.799 162.987 249.069 158.156 252.759 155.797Z" fill="#1D1D1B" stroke="#1D1D1B" stroke-width="2" stroke-linecap="round" stroke-linejoin="round"/>
<path d="M258.367 153.291C258.458 153.27 258.542 153.242 258.633 153.221C259.053 153.122 259.494 153.045 259.873 152.828C260.377 152.54 260.72 152.034 260.958 151.494C265.467 152.47 270.592 151.992 274.611 148.756C274.968 149.254 275.395 149.724 275.892 150.174C275.955 150.23 276.026 150.279 276.089 150.335C271.81 155.818 264.298 155.594 258.367 153.284V153.291Z" fill="#1D1D1B" stroke="#1D1D1B" stroke-width="2" stroke-linecap="round" stroke-linejoin="round"/>
<path d="M261.356 127.09C260.228 126.219 259.101 125.342 257.974 124.471C257.442 124.057 256.867 123.628 256.202 123.551C255.32 123.446 254.494 123.973 253.78 124.506C252.736 125.271 251.735 126.093 250.769 126.963C250.202 127.476 249.621 128.059 249.481 128.81C249.348 129.568 249.712 130.354 250.258 130.895C250.804 131.436 251.511 131.787 252.211 132.11C253.556 132.734 254.928 133.296 256.321 133.802C257.897 134.377 259.542 134.251 261.138 133.752C262.21 133.415 263.323 132.826 263.729 131.78C264.107 130.797 263.75 129.652 263.092 128.831C262.434 128.009 262.182 127.729 261.356 127.083V127.09Z" fill="#1D1D1B" stroke="#1D1D1B" stroke-width="2" stroke-linecap="round" stroke-linejoin="round"/>
<path d="M255.65 132.615C255.559 132.819 255.461 133.043 255.524 133.261C255.587 133.472 255.783 133.605 255.965 133.724C260.943 136.947 266.475 139.32 272.237 140.717C272.237 140.717 273.952 137.642 274.057 137.375C274.59 136.062 274.814 134.609 274.667 133.198C274.422 130.818 273.14 128.564 271.229 127.132C270.354 126.479 269.352 125.995 268.316 125.651C265.963 124.871 261.916 124.422 259.76 125.995C257.834 127.406 256.602 130.53 255.643 132.622L255.65 132.615Z" fill="#1D1D1B" stroke="#1D1D1B" stroke-width="2" stroke-linecap="round" stroke-linejoin="round"/>
<path d="M264.899 139.313L264.023 140.843" stroke="#1D1D1B" stroke-width="2" stroke-linecap="round" stroke-linejoin="round"/>
<path d="M245.759 145.063C246.018 146.593 246.046 148.412 244.848 149.395C243.952 150.132 242.671 150.125 241.523 149.984C239.156 149.703 236.768 148.994 234.941 147.457C233.113 145.919 231.958 143.441 232.462 141.11C232.959 138.807 235.046 137.01 237.364 136.596C243.245 135.55 244.953 140.331 245.759 145.056V145.063Z" fill="white" stroke="#1D1D1B" stroke-width="2" stroke-linecap="round" stroke-linejoin="round"/>
<path d="M219.901 162.888C217.402 164.068 214.706 165.809 214.328 168.554C227.414 168.905 240.536 168.034 253.468 165.956C251.983 164.377 250.282 163.001 248.419 161.884C244.821 159.722 240.725 158.564 236.685 157.426C232.939 156.373 230.418 155.137 227.106 157.833C224.691 159.799 222.814 161.526 219.901 162.895V162.888Z" fill="white" stroke="#1D1D1B" stroke-width="2" stroke-linecap="round" stroke-linejoin="round"/>
<path d="M243.937 155.629C244.532 157.187 245.317 158.662 246.101 160.136C244.952 160.277 243.832 160.621 242.803 161.147C242.089 158.83 241.368 156.513 240.653 154.197C240.541 156.24 240.429 158.29 240.317 160.333C240.296 160.684 240.268 161.056 240.051 161.323C239.883 161.533 239.631 161.646 239.379 161.744C234.632 163.639 229.318 163.155 224.234 162.636C226.111 157.995 226.062 152.778 225.236 147.836C224.563 143.827 223.709 139.783 224.802 135.76C226.244 130.418 234.1 129.715 238.259 131.899C240.156 132.896 241.704 134.454 243.083 136.097C243.174 136.203 243.265 136.322 243.293 136.462C243.335 136.666 243.216 136.87 243.104 137.045C242.32 138.288 241.137 139.594 240.961 141.047C240.786 142.5 241.473 144.234 241.816 145.61C242.565 148.938 242.684 152.364 243.93 155.636L243.937 155.629Z" fill="#1D1D1B" stroke="#1D1D1B" stroke-width="2" stroke-linecap="round" stroke-linejoin="round"/>
<path d="M195.837 141.328C194.304 142.353 193.526 143.75 193.484 145.519C195.921 145.631 198.393 145.589 200.836 145.308C200.822 142.725 198.33 140.071 195.83 141.328H195.837Z" fill="white" stroke="#1D1D1B" stroke-width="2" stroke-linecap="round" stroke-linejoin="round"/>
<path d="M199.232 134.623C195.892 133.577 192.104 134.096 190.087 137.235C188.701 139.39 188.078 142.353 188.442 145.077C190.08 145.287 191.768 145.435 193.483 145.519C193.525 143.75 194.302 142.346 195.836 141.328C198.335 140.078 200.821 142.732 200.842 145.308C202.375 145.133 203.902 144.873 205.386 144.494C205.757 140.218 203.951 136.104 199.239 134.63L199.232 134.623Z" fill="white" stroke="#1D1D1B" stroke-width="2" stroke-linecap="round" stroke-linejoin="round"/>
<path d="M217.814 161.281C216.953 158.851 215.098 156.626 212.598 156.029C210.785 155.594 208.866 156.05 207.018 155.776C204.231 155.362 202.439 152.385 203.811 149.781C204.693 148.11 205.225 146.284 205.379 144.487C199.869 145.898 193.862 145.779 188.442 145.077C188.68 146.881 189.346 148.58 190.522 149.879C191.649 151.129 192.965 152.603 192.489 154.463C191.782 157.223 187.77 157.581 185.502 158.093C181.266 159.048 177.884 162.994 177.583 167.339C177.548 167.81 177.569 168.336 177.891 168.687C178.164 168.982 178.577 169.13 178.976 169.151C192.944 169.733 204.777 168.631 218.753 168.926C218.725 166.35 218.683 163.717 217.822 161.288L217.814 161.281Z" fill="white" stroke="#1D1D1B" stroke-width="2" stroke-linecap="round" stroke-linejoin="round"/>
<path d="M193.714 155.51C198.307 155.278 202.914 155.046 207.416 154.126C207.892 154.028 208.41 153.93 208.83 154.176C209.299 154.449 209.454 155.06 209.482 155.608C209.615 157.946 208.375 160.122 207.185 162.137C206.016 164.11 204.853 166.076 203.684 168.048C203.495 168.364 203.299 168.694 202.984 168.891C202.648 169.102 202.235 169.123 201.843 169.123C200.05 169.151 198.251 168.982 196.493 168.631C195.401 168.414 194.295 168.105 193.427 167.41C192.495 166.665 191.935 165.563 191.403 164.496C190.5 162.678 188.021 159.483 188.427 157.356C188.854 155.116 191.991 155.517 193.721 155.517L193.714 155.51Z" fill="#1D1D1B" stroke="#1D1D1B" stroke-width="2" stroke-linecap="round" stroke-linejoin="round"/>
<path d="M31.9622 189.735C25.7167 197.17 26.0458 209.302 32.6904 216.386" stroke="#1D1D1B" stroke-width="2" stroke-linecap="round" stroke-linejoin="round"/>
<path d="M93.3594 255.295C110.437 261.424 128.207 265.587 146.229 267.679" stroke="#1D1D1B" stroke-width="2" stroke-linecap="round" stroke-linejoin="round"/>
<path d="M264.633 259.472C271.642 257.078 278.65 254.691 285.659 252.297" stroke="#1D1D1B" stroke-width="2" stroke-linecap="round" stroke-linejoin="round"/>
<path d="M349.215 215.649C351.273 213.76 353.115 211.64 354.697 209.344C357.4 205.427 359.388 200.779 359.08 196.026C358.772 191.273 355.705 186.506 351.112 185.291" stroke="#1D1D1B" stroke-width="2" stroke-linecap="round" stroke-linejoin="round"/>
<path d="M332.496 136.195C331.691 137.592 330.69 138.898 329.569 140.028C324.997 144.676 318.997 148.256 313.038 151.023C312.835 151.114 312.639 151.205 312.436 151.303C292.838 160.332 270.944 163.772 249.575 166.229C226.385 168.897 203.014 170.084 179.656 169.782C156.424 169.487 133.207 167.725 110.213 164.495C98.3661 162.831 87.0724 160.1 75.7226 156.414C68.973 154.224 62.1323 151.17 57.6863 145.582C56.8881 144.578 56.2719 143.595 55.8238 142.633C54.7595 140.344 54.6125 138.189 55.0956 136.195H44.355C44.271 136.707 44.201 137.227 44.159 137.753C43.7038 144.121 47.0157 150.342 51.7418 154.673C56.468 159.005 62.4754 161.701 68.5389 163.856C79.2025 167.641 90.3492 169.922 101.545 171.481C107.16 172.26 112.797 172.864 118.44 173.384C123.201 173.826 127.773 175.076 132.457 175.413C177.275 178.593 221.722 178.354 266.148 171.972C283.435 169.494 300.547 165.408 316.791 158.991C325.459 155.579 334.128 151.332 340.24 144.339C342.621 141.615 344.777 139.235 345.834 136.195H332.482H332.496Z" fill="white" stroke="#1D1D1B" stroke-width="2" stroke-linecap="round" stroke-linejoin="round"/>
</svg>
