<svg width="397" height="284" viewBox="0 0 397 284" fill="none" xmlns="http://www.w3.org/2000/svg">
<path d="M189.058 252.294C192.909 252.462 195.12 248.941 192.372 245.785C191.679 244.993 190.669 244.544 189.694 244.144C185.828 242.58 181.801 241.409 178.034 239.613C166.509 234.107 156.178 226.631 145.105 220.255C140.039 217.337 134.358 215.387 129.199 212.519C118.6 206.62 108.537 199.775 99.1747 192.08C96.2705 189.696 93.4016 187.213 90.0734 185.459C83.6996 182.114 76.2164 181.742 69.0159 181.44L59.5047 183.089L41.6836 196.99L63.3205 217.59C68.5425 218.13 73.8351 218.004 79.0288 217.218C79.5376 217.141 80.0817 217.064 80.541 217.288C80.9579 217.491 81.2264 217.898 81.4667 218.291C86.2646 225.873 91.9671 233.048 98.998 238.722C105.768 244.186 114.042 249.145 122.995 246.739C125.532 246.059 128.076 245.371 130.478 244.326C131.75 243.772 132.994 243.106 134.351 242.832C136.76 242.334 139.262 243.106 141.487 244.158C145.671 246.136 150.066 248.408 154.701 249.489C159.69 250.653 164.82 250.87 169.922 251.172C176.303 251.544 182.684 251.915 189.065 252.294H189.058Z" fill="white" stroke="#1D1D1B" stroke-width="3" stroke-linecap="round" stroke-linejoin="round"/>
<path d="M1.53125 168.837C24.3835 173.073 47.4478 176.194 70.604 178.2C66.2441 192.698 64.9792 207.988 65.7989 223.096C55.9061 223.699 46.1123 222.787 36.3114 221.307C28.1923 220.08 20.1579 218.123 12.5476 215.058C29.125 223.51 46.5433 230.327 64.4704 235.384C42.1481 235.896 20.6667 233.434 1.5313 231" fill="white"/>
<path d="M1.53125 168.837C24.3835 173.073 47.4478 176.194 70.604 178.2C66.2441 192.698 64.9792 207.988 65.7989 223.096C55.9061 223.699 46.1123 222.787 36.3114 221.307C28.1923 220.08 20.1579 218.123 12.5476 215.058C29.125 223.51 46.5433 230.327 64.4704 235.384C42.1481 235.896 20.6667 233.434 1.5313 231" stroke="#1D1D1B" stroke-width="3" stroke-linecap="round" stroke-linejoin="round"/>
<path d="M59.9008 223.109C58.9822 227.072 59.6605 231.372 61.7521 234.865" stroke="#1D1D1B" stroke-width="3" stroke-linecap="round" stroke-linejoin="round"/>
<path d="M148.957 229.457C152.872 232.718 156.78 236.064 161.252 238.554C166.058 241.226 171.025 243.078 176.063 245.315C178.883 246.564 181.738 247.819 184.599 248.97C187.998 250.33 194.634 251.586 193.524 256.72C192.895 259.616 190.062 259.673 187.539 260.121C185.016 260.57 182.571 260.255 180.155 259.694C164.8 256.11 148.3 254.09 138.047 242.201" fill="white"/>
<path d="M148.957 229.457C152.872 232.718 156.78 236.064 161.252 238.554C166.058 241.226 171.025 243.078 176.063 245.315C178.883 246.564 181.738 247.819 184.599 248.97C187.998 250.33 194.634 251.586 193.524 256.72C192.895 259.616 190.062 259.673 187.539 260.121C185.016 260.57 182.571 260.255 180.155 259.694C164.8 256.11 148.3 254.09 138.047 242.201" stroke="#1D1D1B" stroke-width="3" stroke-linecap="round" stroke-linejoin="round"/>
<path d="M144.4 236.717C147.594 240.518 151.834 243.31 156.102 245.877C160.172 248.325 164.603 249.72 168.927 251.607C171.379 252.68 174.156 254.027 176.728 255.219C179.223 256.377 184.395 257.162 184.635 260.627C184.961 265.291 177.244 264.562 174.425 263.853C160.808 260.41 146.824 255.696 136.408 245.933C137.136 252.596 142.379 258.382 146.838 263.033C148.174 264.428 152.004 266.105 152.689 267.795C153.947 270.909 150.202 271.569 148.061 270.867C134.974 266.603 126.042 254.841 114.715 247.062" fill="white"/>
<path d="M144.4 236.717C147.594 240.518 151.834 243.31 156.102 245.877C160.172 248.325 164.603 249.72 168.927 251.607C171.379 252.68 174.156 254.027 176.728 255.219C179.223 256.377 184.395 257.162 184.636 260.627C184.961 265.291 177.244 264.562 174.425 263.853C160.808 260.41 146.824 255.696 136.408 245.933C137.136 252.596 142.379 258.382 146.838 263.033C148.174 264.428 152.004 266.105 152.689 267.795C153.947 270.909 150.202 271.568 148.061 270.867C134.974 266.603 126.042 254.841 114.715 247.062" stroke="#1D1D1B" stroke-width="3" stroke-linecap="round" stroke-linejoin="round"/>
<path d="M128.967 259.322C129.327 259.238 129.709 259.049 130.112 258.726C132.189 256.664 136.175 255.324 138.754 253.88C138.945 253.774 139.15 253.655 139.277 253.473C139.446 253.227 139.453 252.912 139.432 252.617C139.319 251.011 138.528 249.524 137.581 248.212C137.404 247.967 137.206 247.707 136.924 247.588C136.627 247.455 136.281 247.49 135.956 247.532C135.129 247.63 134.302 247.735 133.468 247.834C131.483 248.072 128.472 250.176 126.685 251.235C125.483 251.944 123.71 253.087 123.915 254.672C124.035 255.605 124.628 256.405 125.271 257.092C126.367 258.256 127.504 259.666 128.967 259.315V259.322Z" fill="white" stroke="#1D1D1B" stroke-width="3" stroke-linecap="round" stroke-linejoin="round"/>
<path d="M127.573 253.079C127.955 254.833 129.163 256.397 130.774 257.204C132.541 258.087 135.049 257.877 136.06 256.187C136.915 254.763 136.406 252.939 135.742 251.417C135.346 250.505 134.887 249.594 134.18 248.885C130.576 245.238 126.654 248.829 127.573 253.079Z" fill="white" stroke="#1D1D1B" stroke-width="3" stroke-linecap="round" stroke-linejoin="round"/>
<path d="M130.441 253.473C131.077 254.666 132.335 255.633 133.558 254.946C135.084 254.09 133.473 251.166 132.371 250.527C131.282 249.91 130.244 250.485 130.053 251.664C129.961 252.204 130.123 252.87 130.449 253.473H130.441Z" fill="white" stroke="#1D1D1B" stroke-width="3" stroke-linecap="round" stroke-linejoin="round"/>
<path d="M142.208 243.134C142.406 241.963 142.547 240.819 142.992 239.613C143.324 238.708 143.692 237.754 144.462 237.158C145.317 236.492 146.525 236.415 147.571 236.709C148.617 237.004 149.543 237.621 150.426 238.245C151.514 239.017 152.673 239.985 152.772 241.303C152.829 242.096 152.475 242.868 151.966 243.478C150.793 244.888 149.034 245.47 147.804 246.886C146.575 248.303 145.642 250.057 144.674 251.698C144.201 252.505 143.437 253.423 142.526 253.192C142.215 253.115 141.961 252.904 141.706 252.708C139.94 251.284 137.601 250.225 139.558 248.044C140.519 246.971 141.706 245.645 142.01 244.193C142.088 243.835 142.151 243.478 142.208 243.127V243.134Z" fill="white" stroke="#1D1D1B" stroke-width="3" stroke-linecap="round" stroke-linejoin="round"/>
<path d="M146.341 240.048C147.613 240.967 149.231 242.012 150.807 242.349C153.987 243.029 152.708 239.915 151.146 238.611C150.03 237.671 147.557 236.219 145.995 236.885C144.25 237.629 145.274 239.284 146.334 240.048H146.341Z" fill="white" stroke="#1D1D1B" stroke-width="3" stroke-linecap="round" stroke-linejoin="round"/>
<path d="M81.531 187.865C81.6229 188.475 81.7925 189.1 82.2094 189.555C82.6263 190.011 83.3541 190.236 83.8911 189.927C84.3575 189.661 84.5624 189.1 84.6826 188.581C84.9935 187.241 85.0076 185.838 84.7391 184.491C84.6119 183.846 84.3858 183.173 83.8699 182.759C81.5734 180.942 81.3685 186.778 81.531 187.865Z" fill="white" stroke="#1D1D1B" stroke-width="3" stroke-linecap="round" stroke-linejoin="round"/>
<path d="M81.2566 193.386C81.292 193.912 81.3697 194.459 81.6594 194.901C81.9491 195.342 82.5144 195.651 83.0232 195.497C83.5744 195.335 83.85 194.739 84.0266 194.199C84.4223 192.993 85.7296 187.62 83.5956 187.585C81.4616 187.55 81.1648 192.053 81.2566 193.393V193.386Z" fill="white" stroke="#1D1D1B" stroke-width="3" stroke-linecap="round" stroke-linejoin="round"/>
<path d="M80.5262 221.987C80.5615 222.513 80.6392 223.06 80.9289 223.502C81.2187 223.944 81.784 224.253 82.2927 224.098C82.8439 223.937 83.1195 223.341 83.2961 222.801C83.6919 221.594 84.9991 216.222 82.8651 216.187C80.7311 216.152 80.4343 220.655 80.5262 221.994V221.987Z" fill="white" stroke="#1D1D1B" stroke-width="3" stroke-linecap="round" stroke-linejoin="round"/>
<path d="M82.0755 201.01C82.5631 201.164 83.086 200.694 83.4464 199.614C83.6937 198.87 85.0151 191.969 82.3582 193.47C80.634 194.445 80.6199 197.713 81.0297 199.326C81.277 200.322 81.6657 200.883 82.0755 201.01Z" fill="white" stroke="#1D1D1B" stroke-width="3" stroke-linecap="round" stroke-linejoin="round"/>
<path d="M81.5939 206.971C81.7635 207.294 82.0108 207.637 82.3783 207.672C82.8022 207.714 83.1414 207.329 83.3534 206.964C84.1519 205.596 85.2048 199.747 82.2299 199.852C79.4811 199.943 80.9014 205.673 81.5939 206.971Z" fill="white" stroke="#1D1D1B" stroke-width="3" stroke-linecap="round" stroke-linejoin="round"/>
<path d="M82.0734 205.533C79.9253 206.326 80.4977 211.628 81.6636 212.975C83.4655 215.065 83.8541 209.825 83.9107 208.963C83.9813 207.791 84.0944 204.797 82.0805 205.533H82.0734Z" fill="white" stroke="#1D1D1B" stroke-width="3" stroke-linecap="round" stroke-linejoin="round"/>
<path d="M81.362 217.632C81.6093 218.214 81.9202 218.635 82.2594 218.768C84.4641 219.624 85.3544 210.723 82.111 211.116C80.3303 211.334 80.4646 215.521 81.362 217.625V217.632Z" fill="white" stroke="#1D1D1B" stroke-width="3" stroke-linecap="round" stroke-linejoin="round"/>
<path d="M123.25 241.984C123.292 241.093 124.331 240.399 125.186 240.694L123.25 241.984Z" fill="white"/>
<path d="M123.25 241.984C123.292 241.093 124.331 240.399 125.186 240.694" stroke="#1D1D1B" stroke-width="3" stroke-linecap="round" stroke-linejoin="round"/>
<path d="M134.02 235.307C133.942 234.858 134.253 234.416 134.649 234.184C135.044 233.953 135.518 233.904 135.97 233.848" fill="white"/>
<path d="M134.02 235.307C133.942 234.858 134.253 234.416 134.649 234.184C135.044 233.953 135.518 233.904 135.97 233.848" stroke="#1D1D1B" stroke-width="3" stroke-linecap="round" stroke-linejoin="round"/>
<path d="M140.386 229.948C140.181 228.903 141.029 227.774 142.096 227.669L140.386 229.948Z" fill="white"/>
<path d="M140.386 229.948C140.181 228.903 141.029 227.774 142.096 227.669" stroke="#1D1D1B" stroke-width="3" stroke-linecap="round" stroke-linejoin="round"/>
<path d="M143.163 223.572C143.028 223.095 143.198 222.541 143.587 222.226L143.163 223.572Z" fill="white"/>
<path d="M143.163 223.572C143.028 223.095 143.198 222.541 143.587 222.226" stroke="#1D1D1B" stroke-width="3" stroke-linecap="round" stroke-linejoin="round"/>
<path d="M51.013 216.279C51.5995 217.134 52.6595 217.555 53.6982 217.66C54.6098 217.752 55.6132 217.604 56.2491 216.952C56.8922 216.307 57.0264 215.325 57.0406 214.42C57.0547 213.375 56.878 212.19 56.0159 211.593C52.9704 209.496 48.8296 213.073 51.006 216.272L51.013 216.279Z" stroke="#1D1D1B" stroke-width="3" stroke-linecap="round" stroke-linejoin="round"/>
<path d="M41.2035 214.833C42.1787 214.104 42.6521 212.785 42.4189 211.593C41.8395 208.584 37.0486 207.434 35.8473 210.632C34.8015 213.43 38.6668 216.734 41.2035 214.833Z" stroke="#1D1D1B" stroke-width="3" stroke-linecap="round" stroke-linejoin="round"/>
<path d="M26.7402 211.116C27.8143 209.51 27.3833 207.266 25.6732 206.27C24.373 205.512 22.6206 205.667 21.3982 206.543C21.066 206.782 20.7622 207.076 20.5714 207.434C18.6564 211.088 24.4084 214.602 26.7473 211.109L26.7402 211.116Z" stroke="#1D1D1B" stroke-width="3" stroke-linecap="round" stroke-linejoin="round"/>
<path d="M302.787 233.931C304.665 233.515 306.551 233.069 308.477 233.007C312.423 232.884 316.218 234.394 319.982 235.611C338.008 241.473 357.595 241.08 375.59 247.042C376.429 247.319 377.301 247.635 377.895 248.29C378.49 248.945 378.711 250.046 378.125 250.717C367.706 250.331 357.674 254.499 347.318 255.647C338.856 256.586 330.306 255.493 321.883 254.229C310.014 252.45 298.2 250.324 286.394 248.167C281.013 247.181 276.822 245.309 272.353 242.035C271.196 241.188 270.206 240.102 269.469 238.861C269.493 238.9 283.208 235.98 285.086 236.127C290.878 236.574 297.122 235.187 302.78 233.939L302.787 233.931Z" fill="white" stroke="#1D1D1B" stroke-width="3" stroke-linecap="round" stroke-linejoin="round"/>
<path d="M299.824 246.828C296.768 246.044 288.114 244.997 285.058 244.213C279.841 242.871 274.631 241.536 269.469 240C269.611 245.594 269.746 251.188 269.888 256.783C272.707 257.636 275.526 258.482 278.344 259.335C281.305 260.228 284.274 261.128 287.307 261.764C294.322 263.246 301.732 263.378 308.28 266.272C310.719 267.35 312.975 268.786 315.358 269.973C322.12 273.34 329.926 274.659 337.448 273.689C337.939 273.627 338.469 273.534 338.81 273.185C339.174 272.813 339.229 272.246 339.253 271.734C339.459 267.816 342.515 253.501 338.073 253.369C335.231 253.283 328.089 252.492 325.287 251.91C313.909 249.52 311.083 249.722 299.832 246.828H299.824Z" fill="white" stroke="#1D1D1B" stroke-width="3" stroke-linecap="round" stroke-linejoin="round"/>
<path d="M293.052 247.576C293.123 247.009 293.217 246.402 293.602 245.987C293.972 245.588 294.53 245.444 295.065 245.324C305.233 243.017 315.409 240.718 325.577 238.411C330.193 237.365 333.433 238.618 337.86 238.858C343.475 239.153 348.972 239.656 354.469 240.933C352.652 240.51 348.359 242.227 346.369 242.514C343.664 242.897 341.163 243.832 338.513 244.694C332.12 246.77 325.624 248.55 319.066 250.011C318.633 250.107 318.177 250.218 317.878 250.546C317.571 250.881 317.501 251.36 317.454 251.807C316.84 256.853 316.455 261.922 316.298 267C309.48 264.469 301.954 265.659 294.703 265.427C293.917 265.403 293.044 265.323 292.486 264.757C292.085 264.341 291.927 263.759 291.809 263.192C290.764 258.114 292.399 252.653 293.052 247.568V247.576Z" fill="#1D1D1B" stroke="#1D1D1B" stroke-width="3" stroke-linecap="round" stroke-linejoin="round"/>
<path d="M341.606 272.994C341.972 273.01 342.386 272.994 342.863 272.939C347.191 272.502 351.518 271.534 355.782 270.725C360.794 269.765 365.845 269.004 370.841 267.956C373.108 267.48 376.179 267.219 378.231 266.124C381.04 264.624 378.844 264.204 380.149 261.626C380.475 260.975 380.666 260.094 380.149 259.587C379.902 259.349 379.544 259.245 379.289 259.015C378.701 258.476 378.892 257.516 379.242 256.802C379.592 256.088 380.077 255.358 379.95 254.573C379.775 253.533 378.597 252.946 378.247 251.955C378.009 251.272 378.2 250.534 378.231 249.813C378.438 245.806 365.058 249.622 362.313 250.098C357.246 250.979 352.099 251.344 347 252.034C344.144 252.423 336.38 252.01 337.597 256.358C337.923 257.508 338.512 258.635 338.417 259.825C338.297 261.276 337.183 262.808 337.955 264.037C338.289 264.569 338.926 264.894 339.172 265.473C339.315 265.814 339.307 266.195 339.292 266.568C339.156 270.273 338.226 272.875 341.599 272.986L341.606 272.994Z" fill="white" stroke="#1D1D1B" stroke-width="3" stroke-linecap="round" stroke-linejoin="round"/>
<path d="M342.469 257C347.992 256.536 353.515 256.106 359.014 255.484C361.862 255.163 364.719 254.801 367.535 254.33C369.334 254.03 371.678 252.807 373.469 253.026" stroke="#1D1D1B" stroke-width="3" stroke-linecap="round" stroke-linejoin="round"/>
<path d="M343.469 261C345.858 260.138 348.487 260.108 351.051 260.011C358.937 259.721 366.79 258.71 374.469 257" stroke="#1D1D1B" stroke-width="3" stroke-linecap="round" stroke-linejoin="round"/>
<path d="M378.469 259C373.575 261.072 368.558 262.748 363.469 264" stroke="#1D1D1B" stroke-width="3" stroke-linecap="round" stroke-linejoin="round"/>
<path d="M345.469 267C349.485 266.852 353.494 266.523 357.469 266" stroke="#1D1D1B" stroke-width="3" stroke-linecap="round" stroke-linejoin="round"/>
<path d="M283.864 223.549C283.864 223.549 288.564 223.033 290.925 222.978C317.889 222.416 344.868 222.291 371.831 222.596C368.855 224.401 366.525 227.245 365.352 230.511C364.84 231.926 364.455 233.543 363.211 234.403C362.494 234.895 361.613 235.051 360.755 235.184C339.829 238.583 318.589 240.076 297.389 239.63C291.87 239.513 286.344 239.263 280.88 238.489C278.022 238.083 275.7 237.872 273.094 236.739C270.488 235.606 267.78 234.465 264.836 233.942C262.994 233.613 262.427 233.363 261.254 231.91C266.836 230.605 283.856 223.549 283.856 223.549H283.864Z" fill="white" stroke="#1D1D1B" stroke-width="3" stroke-linecap="round" stroke-linejoin="round"/>
<path d="M368.779 214C367.039 220.126 365.189 221.728 362.229 227.378C359.033 229.847 353.388 231.457 348.216 231.832C339.761 232.449 327.314 231.879 318.875 232.699C320.072 232.582 322.544 229.839 323.528 229.073C324.913 227.995 326.275 226.885 327.7 225.862C329.448 224.612 333.124 221.33 335.281 221.298C343.24 221.181 349.452 220.908 356.584 219.243C360.898 218.235 364.819 215.977 368.779 214Z" fill="white" stroke="#1D1D1B" stroke-width="3" stroke-linecap="round" stroke-linejoin="round"/>
<path d="M278.74 248.499C285.101 248.538 291.469 248.585 297.83 248.624C302.499 248.656 307.167 248.687 311.828 248.718C320.346 248.773 328.872 248.835 337.374 248.398C342.05 248.155 346.734 248.163 351.419 248.179C354.757 248.194 358.087 248.585 361.425 248.476C362.582 248.437 364.613 248.577 365.629 247.96C366.699 247.311 367.51 245.053 367.715 243.897C367.856 243.107 367.833 242.303 367.809 241.506C367.738 239.294 367.675 237.075 367.605 234.864C367.581 234.192 367.549 233.481 367.156 232.934C366.14 231.519 363.031 231.84 361.519 231.918C358.968 232.043 356.426 232.168 353.875 232.285C345.711 232.66 337.539 232.965 329.368 233.191C314.851 233.59 300.334 233.746 285.809 233.668C280.802 233.637 275.811 233.277 270.828 232.832C268.348 232.605 265.86 232.387 263.38 232.121C262.168 231.988 258.68 231.636 260.53 234.121C260.719 234.379 260.987 234.59 261.137 234.871C261.9 236.286 259.523 238.075 260.42 239.411C260.523 239.56 260.649 239.685 260.743 239.833C261.271 240.701 260.192 241.748 260.302 242.756C260.405 243.631 261.389 244.295 261.271 245.17C261.16 245.991 260.153 246.608 260.704 247.483C261.578 248.882 267.002 248.335 268.356 248.366C271.812 248.445 275.268 248.468 278.716 248.491L278.74 248.499Z" fill="white" stroke="#1D1D1B" stroke-width="3" stroke-linecap="round" stroke-linejoin="round"/>
<path d="M300.026 233.629C300.711 233.574 301.419 233.504 302.002 233.145C302.789 232.66 303.175 231.754 303.561 230.91C304.883 227.995 306.623 225.26 308.701 222.814C307.883 222.416 306.93 222.408 306.017 222.439C297.184 222.681 285.926 224.143 278.849 217.602C278.66 217.423 278.455 217.235 278.195 217.204C277.881 217.165 277.597 217.36 277.345 217.548C272.134 221.416 266.355 224.526 260.246 226.753C263.513 229.331 268.622 230.488 272.622 231.386C277.093 232.387 281.651 232.902 286.202 233.379C290.791 233.856 295.42 233.996 300.026 233.637V233.629Z" fill="white" stroke="#1D1D1B" stroke-width="3" stroke-linecap="round" stroke-linejoin="round"/>
<path d="M372.967 239.904C373.4 239.021 374.234 236.614 373.825 235.7C373.668 235.348 373.345 235.067 373.306 234.692C373.25 234.121 373.888 233.637 373.786 233.074C373.707 232.605 373.18 232.371 372.896 231.988C372.046 230.839 373.605 228.941 372.636 227.886C372.495 227.737 372.321 227.62 372.188 227.471C371.802 227.026 371.873 226.346 372.085 225.799C372.298 225.252 372.621 224.737 372.691 224.158C372.983 221.619 370.235 223.557 369.456 224.26C368.267 225.33 367.315 226.628 366.472 227.972C365.102 230.16 362.418 234.371 365.134 236.559C365.299 236.692 365.496 236.833 365.543 237.036C365.575 237.184 365.527 237.341 365.472 237.481C365.268 238.028 364.992 238.56 364.913 239.138C364.835 239.716 364.992 240.373 365.472 240.701C365.583 240.779 365.716 240.841 365.772 240.959C365.803 241.029 365.811 241.115 365.803 241.201C365.764 241.873 365.394 242.475 365.252 243.131C365.11 243.787 365.339 244.639 366 244.78C366.315 245.514 365.693 246.468 365.653 247.226C365.622 247.827 365.748 248.413 365.827 249.007C366.307 248.179 367.259 247.663 367.929 246.975C368.724 246.163 369.511 245.334 370.243 244.459C371.322 243.178 372.243 241.404 372.983 239.911L372.967 239.904Z" fill="white" stroke="#1D1D1B" stroke-width="3" stroke-linecap="round" stroke-linejoin="round"/>
<path d="M326.374 248.491C325.682 243.826 324.981 239.169 324.288 234.504C324.202 233.934 324.115 233.34 324.28 232.777C324.454 232.183 324.879 231.699 325.296 231.238C328.461 227.729 331.641 224.283 335.278 221.298C331.665 221.337 328.051 221.298 324.438 221.197C322.218 221.126 320.376 221.345 318.242 221.697C315.565 222.142 312.66 221.666 309.952 221.627C307.244 221.587 306.906 223.15 305.197 225.026C302.962 227.479 300.568 229.909 298.978 232.848C297.53 235.52 298.805 238.732 299.136 241.552C299.45 244.256 299.773 246.96 300.088 249.664C302.206 249.421 326.367 248.374 326.382 248.491H326.374Z" fill="#1D1D1B" stroke="#1D1D1B" stroke-width="3" stroke-linecap="round" stroke-linejoin="round"/>
<path d="M266.727 237.528C274.796 237.794 282.873 237.81 290.942 237.567" stroke="#1D1D1B" stroke-width="3" stroke-linecap="round" stroke-linejoin="round"/>
<path d="M267.031 241.521C275.864 240.802 284.744 240.091 293.585 240.732" stroke="#1D1D1B" stroke-width="3" stroke-linecap="round" stroke-linejoin="round"/>
<path d="M266.898 244.592C276.023 244.553 285.147 244.514 294.279 244.475" stroke="#1D1D1B" stroke-width="3" stroke-linecap="round" stroke-linejoin="round"/>
<path d="M328.461 237.395C330.484 236.825 332.641 237.012 334.743 237.153C340.254 237.513 345.788 237.45 351.291 236.958C353.259 236.786 355.29 236.559 357.18 237.13" stroke="#1D1D1B" stroke-width="3" stroke-linecap="round" stroke-linejoin="round"/>
<path d="M328.668 241.888C338.076 241.232 347.515 241.084 356.938 241.443" stroke="#1D1D1B" stroke-width="3" stroke-linecap="round" stroke-linejoin="round"/>
<path d="M329.895 245.17C338.775 244.616 347.686 244.459 356.582 244.694" stroke="#1D1D1B" stroke-width="3" stroke-linecap="round" stroke-linejoin="round"/>
<path d="M366.488 233.637C367.362 231.769 368.622 230.089 370.165 228.706" stroke="#1D1D1B" stroke-width="3" stroke-linecap="round" stroke-linejoin="round"/>
<path d="M368.141 237.856C368.424 236.551 369.188 235.356 370.266 234.551" stroke="#1D1D1B" stroke-width="3" stroke-linecap="round" stroke-linejoin="round"/>
<path d="M272.974 131.229C272.974 131.19 272.974 131.145 272.974 131.106C272.127 115.247 260.261 104.371 250.87 92.9496C241.961 82.1063 233.039 71.276 224 60.5367C223.381 59.8025 217.703 51.9608 216.849 52.2012C216.849 52.2012 215.508 52.578 211.464 51.3956C207.582 50.2586 204.183 47.5429 200.158 47.0752C196.218 46.6139 192.389 48.381 188.573 49.505C187.719 49.7584 186.827 49.9728 185.942 50.0572C184.372 53.6565 185.381 58.4252 185.29 62.1414C185.206 65.6108 186.052 69.1905 185.753 72.6274C185.056 80.651 175.854 87.4338 170.403 92.3974C154.519 107.067 140.14 123.413 127.577 141.079C126.196 143.028 124.816 145.022 124.054 147.29C123.136 150.044 123.188 153.02 123.253 155.917C123.344 160.134 122.002 165.851 124.712 169.327C128.183 173.784 133.516 177.37 138.205 180.365C148.241 186.765 159.423 191.078 170.527 195.185C177.495 197.764 184.483 200.304 191.62 202.39C197.892 204.228 204.815 206.937 211.346 205.677C225.589 202.929 238.933 195.678 249.288 185.368C254.114 180.56 259.538 174.661 262.417 168.476C266.409 159.9 269.522 150.908 271.671 141.689C272.472 138.252 273.143 134.744 272.974 131.229Z" fill="white" stroke="#1D1D1B" stroke-width="3" stroke-linecap="round" stroke-linejoin="round"/>
<path d="M181.92 122.391C180.857 123.407 179.703 124.695 179.99 126.132C180.088 126.611 180.335 127.039 180.583 127.459C182.833 131.298 185.083 135.136 187.333 138.975C187.594 139.415 187.861 139.868 188.292 140.153C188.676 140.406 189.139 140.496 189.589 140.58C193.822 141.357 198.061 142.14 202.293 142.917C202.776 143.008 203.33 143.079 203.708 142.768C203.982 142.542 204.087 142.173 204.171 141.83C205.28 137.234 205.9 132.521 206.017 127.796C206.036 126.935 206.03 126.009 205.541 125.297C205.097 124.644 204.334 124.288 203.597 124.003C199.763 122.533 195.576 122.307 191.468 122.093C188.102 121.925 184.614 121.77 181.503 123.051C180.818 123.336 180.048 123.86 180.127 124.598" fill="#1D1D1B"/>
<path d="M181.92 122.391C180.857 123.407 179.703 124.695 179.99 126.132C180.088 126.611 180.335 127.039 180.583 127.459C182.833 131.298 185.083 135.136 187.333 138.975C187.594 139.415 187.861 139.868 188.292 140.153C188.676 140.406 189.139 140.496 189.589 140.58C193.822 141.357 198.061 142.14 202.293 142.917C202.776 143.008 203.33 143.079 203.708 142.768C203.982 142.542 204.087 142.173 204.171 141.83C205.28 137.234 205.9 132.521 206.017 127.796C206.036 126.935 206.03 126.009 205.541 125.297C205.097 124.644 204.334 124.288 203.597 124.003C199.763 122.533 195.576 122.307 191.468 122.093C188.102 121.925 184.614 121.77 181.503 123.051C180.818 123.336 180.048 123.86 180.127 124.598" stroke="#1D1D1B" stroke-width="3" stroke-linecap="round" stroke-linejoin="round"/>
<path d="M169.836 126.67C172.268 127.026 174.714 127.304 177.166 127.505C177.916 127.563 178.718 127.602 179.351 127.2C179.924 126.838 180.231 126.184 180.655 125.653C181.548 124.527 182.996 123.945 184.431 123.789C185.866 123.634 187.313 123.854 188.735 124.074C194.696 125 200.656 125.919 206.617 126.844C207.197 124.449 207.647 122.158 208.775 119.977C209.46 118.65 210.98 115.277 208.208 115.627C198.439 116.85 188.585 116.002 178.777 116.358C176.52 116.442 174.068 116.39 171.851 116.824C170.175 117.154 170.071 117.886 169.823 119.536C169.725 120.19 168.942 126.54 169.842 126.67H169.836Z" fill="white" stroke="#1D1D1B" stroke-width="3" stroke-linecap="round" stroke-linejoin="round"/>
<path d="M232.41 125.427C226.182 126.76 220.534 130.372 216.797 135.48C211.932 142.127 212.8 152.381 217.515 158.828C225.295 169.45 244.52 173.405 253.761 162.492C259.806 155.352 261.424 143.506 256.024 135.564C251.778 129.317 244.181 125.013 236.544 125C235.155 125 233.76 125.136 232.403 125.427H232.41Z" fill="#1D1D1B" stroke="#1D1D1B" stroke-width="3" stroke-linecap="round" stroke-linejoin="round"/>
<path d="M202.443 153.688C205.039 154.096 207.641 154.51 210.236 154.918C211.821 149.397 212.616 143.707 213.138 137.959C213.223 137.014 214.032 135.039 213.373 134.217C212.936 133.667 210.836 133.402 210.132 133.182C208.971 132.826 206.695 131.66 205.489 132.146C204.093 132.703 204.021 136.334 203.741 137.739C202.815 142.438 202 147.157 201.308 151.895C201.23 152.42 201.191 153.047 201.595 153.397C201.823 153.591 202.137 153.643 202.436 153.695L202.443 153.688Z" fill="white" stroke="#1D1D1B" stroke-width="3" stroke-linecap="round" stroke-linejoin="round"/>
<path d="M201.863 148.283C205.026 148.892 208.202 149.448 211.378 149.947" stroke="#1D1D1B" stroke-width="3" stroke-linecap="round" stroke-linejoin="round"/>
<path d="M203.043 143.202L211.847 145.299" stroke="#1D1D1B" stroke-width="3" stroke-linecap="round" stroke-linejoin="round"/>
<path d="M204.062 137.797C206.932 138.289 209.782 138.878 212.606 139.57C212.749 139.603 212.932 139.739 212.847 139.855" stroke="#1D1D1B" stroke-width="3" stroke-linecap="round" stroke-linejoin="round"/>
<path d="M253.097 122.003C254.127 115.193 254.538 108.286 254.329 101.399C254.316 100.907 254.46 99.1722 254.114 98.8162C253.756 98.4472 252.986 98.3242 252.471 98.2983C245.956 97.9941 239.474 97.3468 232.959 97.0425C232.424 100.913 231.883 106.39 231.348 110.261C231.113 111.969 229.144 119.019 230.383 120.151C231.191 120.889 234.772 120.572 235.887 120.656L241.378 121.09C245.284 121.394 249.191 121.705 253.097 122.009V122.003Z" fill="white" stroke="#1D1D1B" stroke-width="3" stroke-linecap="round" stroke-linejoin="round"/>
<path d="M208.853 154.51C209.766 148.49 210.627 141.894 211.533 135.868C211.651 135.085 211.774 134.282 212.114 133.564C212.479 132.793 213.079 132.159 213.679 131.557C216.548 128.676 219.776 126.139 223.272 124.035C225.196 122.87 227.217 121.828 228.919 120.358C229.18 120.132 229.441 119.892 229.761 119.782C230.106 119.659 230.478 119.698 230.837 119.731C237.776 120.41 244.714 121.09 251.653 121.77C252.084 121.815 252.54 121.86 252.892 122.113C253.186 122.32 253.368 122.637 253.544 122.941C256.068 127.298 258.598 131.654 261.122 136.017C259.446 136.535 257.868 137.376 256.505 138.483C253.394 131.783 246.534 126.948 239.138 126.236C231.743 125.524 224.074 128.961 219.724 134.942C215.622 140.58 214.618 148.354 213.685 155.248C212.864 155.041 208.84 154.51 208.84 154.51H208.853Z" fill="white" stroke="#1D1D1B" stroke-width="3" stroke-linecap="round" stroke-linejoin="round"/>
<path d="M205.613 131C205.554 131.311 205.509 131.66 205.704 131.906C205.848 132.088 206.083 132.165 206.311 132.23C207.922 132.703 209.539 133.175 211.15 133.648C211.606 133.784 212.089 133.92 212.552 133.809C212.943 133.719 213.276 133.466 213.595 133.214C218.754 129.188 223.834 125.045 228.816 120.805C229.592 120.145 230.388 119.452 230.877 118.559C231.347 117.692 231.49 116.688 231.627 115.711C232.371 110.435 233.61 101.6 234.353 96.324C234.855 92.7638 223.351 94.3432 221.264 94.3044C219.895 94.2785 218.728 94.4468 217.397 94.1102C216.478 93.8772 213.302 93.7995 212.995 94.7446C212.174 97.295 211.124 103.302 210.621 105.593C209.741 109.555 208.965 113.633 208.176 117.62C207.296 122.074 206.441 126.54 205.62 131.007L205.613 131Z" fill="white" stroke="#1D1D1B" stroke-width="3" stroke-linecap="round" stroke-linejoin="round"/>
<path d="M234.713 116.144C234.673 116.429 234.641 116.74 234.791 116.98C234.973 117.264 235.352 117.348 235.684 117.407C240.138 118.158 244.671 118.442 249.184 118.268C249.418 118.261 249.673 118.242 249.836 118.073C249.973 117.938 250.012 117.73 250.038 117.536C250.273 115.853 250.136 114.144 249.999 112.455C249.79 109.892 249.581 107.328 249.373 104.765C249.347 104.454 249.321 104.13 249.177 103.846C248.799 103.101 247.827 102.933 246.986 102.868C245.31 102.732 243.653 102.402 241.971 102.292C240.778 102.214 237.882 101.502 236.995 102.635C236.33 103.483 236.369 105.367 236.284 106.357C235.984 109.73 235.182 112.804 234.706 116.144H234.713Z" fill="white" stroke="#1D1D1B" stroke-width="3" stroke-linecap="round" stroke-linejoin="round"/>
<path d="M212.531 112.817C212.244 114.041 211.958 115.271 211.664 116.494C211.762 116.255 218.636 117.53 219.314 117.627C221.674 117.976 224.127 118.015 226.455 118.585C226.455 115.691 226.689 112.707 227.068 109.84C227.289 108.137 229.213 101.619 227.153 100.926C224.114 99.9166 220.898 99.4829 217.696 99.6188C214.494 99.7547 215.173 101.548 214.573 104.118C213.894 107.018 213.21 109.911 212.531 112.811V112.817Z" fill="white" stroke="#1D1D1B" stroke-width="3" stroke-linecap="round" stroke-linejoin="round"/>
<path d="M209.476 128.107C209.358 128.644 209.247 129.188 209.143 129.731C209.065 130.139 209.078 130.702 209.489 130.787C209.691 130.825 209.88 130.715 210.056 130.605C212.006 129.362 213.806 127.906 215.56 126.411C216.845 125.317 218.906 124.236 219.988 122.999C221.26 121.543 219.643 121.537 218.038 121.142C216.062 120.663 214.008 120.384 211.973 120.281C211.797 120.268 211.602 120.268 211.458 120.378C211.321 120.481 211.269 120.656 211.23 120.824C210.597 123.245 210.01 125.653 209.489 128.107H209.476Z" fill="#1D1D1B" stroke="#1D1D1B" stroke-width="3" stroke-linecap="round" stroke-linejoin="round"/>
<path d="M228.58 141.448C226.669 144.121 226.376 147.811 227.699 150.814C228.834 153.39 231.123 155.455 233.843 156.258C236.562 157.061 239.653 156.536 241.903 154.834C244.825 152.62 246.064 148.523 245.007 145.034C242.914 138.114 233.125 135.085 228.58 141.454V141.448Z" fill="white" stroke="#1D1D1B" stroke-width="3" stroke-linecap="round" stroke-linejoin="round"/>
<path d="M169.041 134.567C165.206 135.389 161.73 137.616 159.428 140.755C156.435 144.852 156.963 151.164 159.872 155.132C161.854 157.837 164.776 159.889 168.05 160.724C169.915 161.197 171.865 161.301 173.795 161.229C175.138 161.184 176.488 161.055 177.76 160.621C180.486 159.689 182.606 157.397 183.773 154.782C184.947 152.167 185.26 149.241 185.208 146.38C185.188 145.306 185.116 144.218 184.79 143.195C184.484 142.224 183.949 141.331 183.342 140.503C180.134 136.107 174.382 133.421 169.034 134.567H169.041Z" fill="#1D1D1B" stroke="#1D1D1B" stroke-width="3" stroke-linecap="round" stroke-linejoin="round"/>
<path d="M164.006 142.367C162.154 144.963 161.867 148.542 163.151 151.455C164.253 153.954 166.471 155.96 169.105 156.737C171.74 157.514 174.74 157.009 176.925 155.358C179.755 153.216 180.961 149.235 179.938 145.849C177.903 139.137 168.408 136.198 163.999 142.373L164.006 142.367Z" fill="white" stroke="#1D1D1B" stroke-width="3" stroke-linecap="round" stroke-linejoin="round"/>
<path d="M171.729 124.851C172.649 127.013 171.899 129.796 169.916 131.078C169.173 131.557 166.127 132.716 165.43 131.725C165.064 131.214 165.338 130.333 165.312 129.757C165.26 128.618 165.156 127.479 165.247 126.34C165.338 125.213 165.045 122.715 165.958 121.867C167.745 120.197 171.084 123.271 171.729 124.851Z" fill="white" stroke="#1D1D1B" stroke-width="3" stroke-linecap="round" stroke-linejoin="round"/>
<path d="M167.638 124.184C167.54 123.258 167.37 122.54 167.136 122.249C166.699 121.724 165.74 121.427 165.062 121.789C164.579 122.048 164.39 122.54 164.266 122.987C163.712 124.98 162.681 131.045 165.57 132.068C167.416 132.722 167.957 127.285 167.644 124.178L167.638 124.184Z" fill="white" stroke="#1D1D1B" stroke-width="3" stroke-linecap="round" stroke-linejoin="round"/>
<path d="M252.008 94.7316C253.031 96.0845 253.984 97.7869 254.257 99.4699C250.482 99.8324 246.106 99.0815 242.284 98.7838C238.019 98.4472 233.754 97.9811 229.541 97.2367C224.663 96.3693 219.844 95.845 214.94 95.2236C213.694 95.0682 212.448 94.8481 213.961 93.573L217.483 90.6083C220.555 90.1746 223.222 90.5953 226.307 90.9514C234.021 91.8446 241.743 92.7315 249.458 93.6247C250.605 93.7542 251.323 93.8254 252.014 94.7446L252.008 94.7316Z" fill="white" stroke="#1D1D1B" stroke-width="3" stroke-linecap="round" stroke-linejoin="round"/>
<path d="M175.509 129.939C182.657 132.023 187.45 139.357 187.907 146.743C188.089 149.662 190.124 148.911 190.946 146.684C191.617 144.859 191.148 142.82 190.639 140.988C189.315 136.25 186.1 132.146 182.298 129.071C180.159 127.336 177.407 126.482 174.681 126.152C173.566 126.016 171.623 125.815 171.609 127.349C171.59 129.071 174.316 129.589 175.509 129.939Z" fill="white" stroke="#1D1D1B" stroke-width="3" stroke-linecap="round" stroke-linejoin="round"/>
<path d="M160.163 140.587C158.84 141.241 157.353 142.121 157.19 143.571C157.137 144.057 157.242 144.536 157.353 145.015C158.331 149.351 159.309 153.682 160.294 158.019C160.405 158.517 160.529 159.035 160.848 159.43C161.135 159.786 161.552 160.013 161.957 160.226C165.759 162.239 169.561 164.246 173.363 166.259C173.793 166.486 174.302 166.725 174.758 166.537C175.091 166.402 175.3 166.084 175.482 165.78C177.934 161.728 179.956 157.423 181.508 152.957C181.789 152.141 182.062 151.261 181.815 150.432C181.593 149.675 180.973 149.106 180.354 148.614C177.145 146.063 173.219 144.594 169.372 143.163C166.215 141.992 162.935 140.807 159.583 141.092C158.84 141.157 157.953 141.428 157.803 142.153" fill="#1D1D1B"/>
<path d="M160.163 140.587C158.84 141.241 157.353 142.121 157.19 143.571C157.137 144.057 157.242 144.536 157.353 145.015C158.331 149.351 159.309 153.682 160.294 158.019C160.405 158.517 160.529 159.035 160.848 159.43C161.135 159.786 161.552 160.013 161.957 160.226C165.759 162.239 169.561 164.246 173.363 166.259C173.793 166.486 174.302 166.725 174.758 166.537C175.091 166.402 175.3 166.084 175.482 165.78C177.934 161.728 179.956 157.423 181.508 152.957C181.789 152.141 182.062 151.261 181.815 150.432C181.593 149.675 180.973 149.106 180.354 148.614C177.145 146.063 173.219 144.594 169.372 143.163C166.215 141.992 162.935 140.807 159.583 141.092C158.84 141.157 157.953 141.428 157.803 142.153" stroke="#1D1D1B" stroke-width="3" stroke-linecap="round" stroke-linejoin="round"/>
<path d="M147.351 141.047C149.561 142.115 151.811 143.111 154.087 144.037C154.778 144.315 155.541 144.6 156.265 144.406C156.924 144.231 157.413 143.701 157.981 143.319C159.174 142.516 160.733 142.393 162.148 142.671C163.563 142.95 164.874 143.597 166.165 144.231C171.565 146.898 176.971 149.559 182.371 152.226C183.649 150.115 184.777 148.063 186.518 146.322C187.575 145.261 190.046 142.503 187.294 142.005C177.61 140.25 168.467 136.49 159.011 133.887C156.833 133.292 154.511 132.509 152.268 132.263C150.572 132.075 150.246 132.742 149.509 134.237C149.216 134.832 146.542 140.652 147.357 141.047H147.351Z" fill="white" stroke="#1D1D1B" stroke-width="3" stroke-linecap="round" stroke-linejoin="round"/>
<path d="M207.378 158.602C201.033 158.006 194.55 159.76 189.438 163.515C182.779 168.402 180.484 178.435 183.027 185.989C187.22 198.45 204.346 207.972 216.469 200.34C224.406 195.343 229.545 184.533 226.812 175.347C224.66 168.117 218.725 161.741 211.454 159.443C210.13 159.022 208.761 158.737 207.372 158.608L207.378 158.602Z" fill="#1D1D1B" stroke="#1D1D1B" stroke-width="3" stroke-linecap="round" stroke-linejoin="round"/>
<path d="M170.218 176.571C172.572 177.736 174.926 178.908 177.274 180.073C180.463 175.283 182.948 170.098 185.191 164.77C185.563 163.89 186.926 162.252 186.554 161.275C186.3 160.621 184.389 159.741 183.783 159.32C182.785 158.634 180.965 156.841 179.668 156.938C178.168 157.055 176.994 160.492 176.302 161.747C173.987 165.948 171.783 170.208 169.683 174.512C169.448 174.991 169.22 175.574 169.501 176.027C169.657 176.279 169.938 176.422 170.218 176.564V176.571Z" fill="white" stroke="#1D1D1B" stroke-width="3" stroke-linecap="round" stroke-linejoin="round"/>
<path d="M171.309 171.243C174.139 172.771 176.995 174.253 179.878 175.684" stroke="#1D1D1B" stroke-width="3" stroke-linecap="round" stroke-linejoin="round"/>
<path d="M173.984 166.751C176.573 168.298 179.156 169.839 181.745 171.386" stroke="#1D1D1B" stroke-width="3" stroke-linecap="round" stroke-linejoin="round"/>
<path d="M176.59 161.903C179.172 163.23 181.709 164.647 184.194 166.149C184.318 166.227 184.455 166.408 184.337 166.492" stroke="#1D1D1B" stroke-width="3" stroke-linecap="round" stroke-linejoin="round"/>
<path d="M228.142 161.527C231.194 155.339 233.685 148.879 235.576 142.251C235.713 141.778 236.378 140.166 236.156 139.72C235.928 139.26 235.23 138.91 234.741 138.736C228.624 136.496 222.638 133.939 216.52 131.699C214.838 135.227 212.653 140.289 210.971 143.817C210.227 145.377 206.203 151.507 207.045 152.957C207.593 153.902 211.101 154.672 212.138 155.087L217.244 157.145C220.877 158.608 224.503 160.071 228.135 161.527H228.142Z" fill="white" stroke="#1D1D1B" stroke-width="3" stroke-linecap="round" stroke-linejoin="round"/>
<path d="M176.082 179.276C178.782 173.807 181.606 167.774 184.306 162.311C184.658 161.599 185.016 160.874 185.564 160.291C186.145 159.67 186.908 159.242 187.664 158.848C191.277 156.957 195.125 155.514 199.096 154.549C201.287 154.019 203.531 153.63 205.598 152.73C205.911 152.595 206.237 152.446 206.576 152.433C206.942 152.42 207.287 152.562 207.62 152.705C214.03 155.43 220.441 158.155 226.845 160.88C227.243 161.048 227.66 161.23 227.921 161.579C228.136 161.864 228.215 162.22 228.293 162.563C229.375 167.476 230.464 172.383 231.547 177.296C229.793 177.289 228.032 177.619 226.402 178.26C225.469 170.939 220.402 164.278 213.567 161.385C206.726 158.491 198.379 159.475 192.412 163.877C186.79 168.026 183.471 175.14 180.484 181.426C179.76 180.985 176.089 179.27 176.089 179.27L176.082 179.276Z" fill="white" stroke="#1D1D1B" stroke-width="3" stroke-linecap="round" stroke-linejoin="round"/>
<path d="M180.138 155.889C179.988 156.168 179.838 156.485 179.949 156.776C180.027 156.99 180.235 157.132 180.425 157.262C181.82 158.194 183.216 159.126 184.605 160.064C185.003 160.33 185.42 160.602 185.89 160.641C186.294 160.673 186.685 160.53 187.063 160.388C193.207 158.09 199.304 155.669 205.35 153.112C206.295 152.711 207.26 152.297 207.997 151.585C208.708 150.899 209.152 149.986 209.582 149.093C211.891 144.283 215.758 136.231 218.066 131.428C219.625 128.178 208.18 126.243 206.204 125.589C204.906 125.155 203.739 124.961 202.578 124.249C201.776 123.751 198.763 122.728 198.189 123.537C196.637 125.718 193.807 131.136 192.626 133.169C190.585 136.684 188.602 140.341 186.64 143.901C184.448 147.889 182.277 151.882 180.138 155.896V155.889Z" fill="white" stroke="#1D1D1B" stroke-width="3" stroke-linecap="round" stroke-linejoin="round"/>
<path d="M212.395 150.439C212.271 150.698 212.141 150.983 212.219 151.255C212.304 151.585 212.636 151.779 212.943 151.928C216.96 153.973 221.193 155.605 225.549 156.789C225.771 156.847 226.018 156.906 226.227 156.802C226.403 156.711 226.501 156.53 226.586 156.349C227.323 154.815 227.707 153.145 228.092 151.494C228.673 148.989 229.253 146.484 229.833 143.979C229.905 143.675 229.977 143.357 229.925 143.047C229.794 142.225 228.914 141.772 228.138 141.461C226.579 140.827 225.099 140.017 223.527 139.409C222.412 138.975 219.869 137.435 218.675 138.244C217.782 138.852 217.247 140.658 216.862 141.577C215.551 144.704 213.856 147.397 212.389 150.439H212.395Z" fill="white" stroke="#1D1D1B" stroke-width="3" stroke-linecap="round" stroke-linejoin="round"/>
<path d="M192.256 140.626C191.61 141.707 190.958 142.794 190.312 143.875C190.476 143.675 196.645 146.944 197.264 147.248C199.41 148.29 201.738 149.06 203.779 150.297C204.66 147.539 205.794 144.762 207.02 142.141C207.751 140.587 211.566 134.943 209.805 133.667C207.216 131.797 204.281 130.418 201.19 129.589C198.099 128.761 198.197 130.677 196.84 132.942C195.308 135.499 193.782 138.063 192.249 140.619L192.256 140.626Z" fill="white" stroke="#1D1D1B" stroke-width="3" stroke-linecap="round" stroke-linejoin="round"/>
<path d="M184.696 154.284C184.422 154.763 184.155 155.242 183.881 155.727C183.679 156.09 183.522 156.64 183.888 156.841C184.064 156.938 184.285 156.893 184.481 156.841C186.718 156.239 188.876 155.384 191.009 154.491C192.568 153.837 194.863 153.417 196.265 152.562C197.922 151.559 196.383 151.06 194.968 150.206C193.226 149.157 191.355 148.277 189.444 147.571C189.274 147.507 189.092 147.448 188.922 147.507C188.759 147.565 188.661 147.72 188.57 147.863C187.233 149.979 185.942 152.103 184.696 154.284Z" fill="#1D1D1B" stroke="#1D1D1B" stroke-width="3" stroke-linecap="round" stroke-linejoin="round"/>
<path d="M198.862 172.726C196.227 174.706 194.831 178.131 195.177 181.393C195.477 184.19 197.029 186.843 199.377 188.423C201.724 190.002 204.829 190.43 207.496 189.478C210.952 188.242 213.385 184.707 213.437 181.063C213.541 173.839 205.135 168.02 198.862 172.732V172.726Z" fill="white" stroke="#1D1D1B" stroke-width="3" stroke-linecap="round" stroke-linejoin="round"/>
<path d="M144.186 148.335C140.28 147.966 136.289 149.054 133.139 151.358C129.037 154.368 127.628 160.543 129.193 165.198C130.263 168.376 132.421 171.205 135.291 172.978C136.928 173.988 138.754 174.668 140.612 175.179C141.904 175.535 143.234 175.813 144.577 175.781C147.46 175.71 150.173 174.163 152.084 172.02C153.994 169.878 155.188 167.185 156.003 164.44C156.31 163.411 156.57 162.349 156.57 161.275C156.57 160.252 156.336 159.249 156.01 158.278C154.281 153.125 149.619 148.847 144.173 148.335H144.186Z" fill="#1D1D1B" stroke="#1D1D1B" stroke-width="3" stroke-linecap="round" stroke-linejoin="round"/>
<path d="M137.012 154.265C134.455 156.187 133.099 159.514 133.438 162.673C133.732 165.385 135.238 167.962 137.514 169.489C139.79 171.017 142.803 171.438 145.392 170.512C148.744 169.314 151.105 165.884 151.15 162.343C151.255 155.333 143.096 149.688 137.012 154.258V154.265Z" fill="white" stroke="#1D1D1B" stroke-width="3" stroke-linecap="round" stroke-linejoin="round"/>
<path d="M149.699 139.881C149.92 142.218 148.355 144.646 146.079 145.273C145.225 145.507 141.971 145.701 141.599 144.549C141.41 143.953 141.938 143.196 142.088 142.639C142.382 141.539 142.629 140.419 143.066 139.364C143.497 138.315 143.973 135.849 145.101 135.311C147.312 134.256 149.562 138.185 149.692 139.881H149.699Z" fill="white" stroke="#1D1D1B" stroke-width="3" stroke-linecap="round" stroke-linejoin="round"/>
<path d="M146.004 138.017C146.193 137.105 146.252 136.367 146.108 136.024C145.854 135.396 145.026 134.826 144.269 134.968C143.728 135.072 143.402 135.48 143.147 135.868C142.013 137.603 139.189 143.079 141.628 144.918C143.193 146.096 145.358 141.073 145.997 138.017H146.004Z" fill="white" stroke="#1D1D1B" stroke-width="3" stroke-linecap="round" stroke-linejoin="round"/>
<path d="M235.389 135.201C235.95 136.8 236.348 138.703 236.094 140.393C232.389 139.61 228.437 137.584 224.883 136.153C220.918 134.554 216.999 132.832 213.203 130.858C208.814 128.573 204.38 126.625 199.893 124.566C198.752 124.042 197.63 123.459 199.463 122.695L203.721 120.922C206.78 121.427 209.199 122.631 212.029 123.887C219.118 127.045 226.207 130.204 233.289 133.363C234.339 133.829 235.004 134.114 235.389 135.195V135.201Z" fill="white" stroke="#1D1D1B" stroke-width="3" stroke-linecap="round" stroke-linejoin="round"/>
<path d="M151.758 145.863C157.94 149.992 160.282 158.42 158.469 165.592C157.751 168.434 159.923 168.324 161.384 166.447C162.577 164.906 162.753 162.822 162.819 160.925C162.995 156.006 161.175 151.138 158.488 147.067C156.975 144.775 154.615 143.131 152.117 142.005C151.093 141.545 149.306 140.768 148.823 142.225C148.282 143.862 150.721 145.17 151.758 145.863Z" fill="white" stroke="#1D1D1B" stroke-width="3" stroke-linecap="round" stroke-linejoin="round"/>
<path d="M181.491 6.15205C183.23 5.90626 185.181 5.82654 186.546 6.9625C187.345 7.62681 187.97 8.70963 189 8.77606C188.787 9.85889 187.963 10.6959 187.184 11.4532C185.832 12.7686 184.479 14.0772 183.024 15.2663C181.292 16.6813 179.392 17.9169 177.28 18.5812C174.762 19.3718 161.2 19.5312 162.037 14.529C162.874 9.52673 177.743 6.67685 181.498 6.15205H181.491Z" fill="white" stroke="#1D1D1B" stroke-width="3" stroke-linecap="round" stroke-linejoin="round"/>
<path d="M204 41.3034C203.981 30.9042 203.968 20.5051 203.948 10.1124C203.948 8.14783 203.916 6.07846 202.975 4.35618C202.035 2.63389 199.85 1.4355 198.086 2.27372C195.979 3.28221 195.22 6.68748 192.886 6.68094C190.72 6.67439 189.384 3.50486 187.245 3.85194C185.909 4.06804 185.228 5.53493 184.632 6.75952C180.825 14.6571 171.559 19.4049 163 18.0297C173.919 25.685 183.166 37.2171 187.75 50C192.393 49.0963 198.417 46.7519 200.563 46.0708C201.601 45.7434 202.697 45.357 203.339 44.4664C203.974 43.5758 204 42.3971 204 41.3034Z" fill="white" stroke="#1D1D1B" stroke-width="3" stroke-linecap="round" stroke-linejoin="round"/>
<path d="M242.708 26.3092C238.399 21.9659 237.309 31.452 237.14 33.9401C236.63 41.333 236.691 49.2423 238.232 56.5435C238.755 59.0207 241.107 67.9596 244.999 63.6638C247.728 60.6594 248.812 55.1819 249.317 51.3054C250.016 46.0102 249.494 40.554 247.792 35.4885C247.243 33.8524 245.2 28.8282 242.707 26.3157L242.708 26.3092Z" fill="#1D1D1B" stroke="#1D1D1B" stroke-width="3" stroke-linecap="round" stroke-linejoin="round"/>
<path d="M195.597 80.9994C196.26 81.0059 196.852 80.9603 197.326 80.8691C209.213 78.4973 177.218 65.2309 183.938 76.4383C185.959 79.8135 192.036 80.9603 195.597 80.9994Z" fill="white" stroke="#1D1D1B" stroke-width="3" stroke-linecap="round" stroke-linejoin="round"/>
<path d="M181.895 72.4958C182.667 73.0333 183.605 73.3449 184.516 73.6381C188.887 75.0615 193.49 76.5093 198.072 75.8251C199.657 75.5869 201.281 75.0432 202.265 73.8703C203.249 72.6974 203.309 70.7853 202.054 69.8689C201.063 69.142 199.664 69.2275 198.402 69.2703C194.533 69.3985 190.637 68.7632 187.045 67.4193C184.945 66.6312 182.264 64.9513 180.594 66.9244C179.26 68.5005 180.382 71.4267 181.901 72.4897L181.895 72.4958Z" fill="white" stroke="#1D1D1B" stroke-width="3" stroke-linecap="round" stroke-linejoin="round"/>
<path d="M183.774 66.5262C189.571 68.8283 198.879 69.4989 201.268 68.6413C203.669 67.7772 207.517 65.6621 206.942 62.7216C206.232 59.0783 201.449 59.7683 198.795 59.8005C194.871 59.8456 191.004 59.0009 187.15 58.3432C184.716 57.924 181.714 57.4855 179.978 59.6715C177.576 62.7087 179.887 64.985 183.774 66.5262Z" fill="white" stroke="#1D1D1B" stroke-width="3" stroke-linecap="round" stroke-linejoin="round"/>
<path d="M202.956 52.4264C204.729 52.3479 206.914 52.3806 207.739 53.9764C208.275 55.0098 207.933 56.3374 207.191 57.2334C206.45 58.1295 205.373 58.6592 204.303 59.0974C197.488 61.8835 189.519 61.5958 182.924 58.3257C174.607 54.2053 181.086 48.1491 187.817 50.5428C192.582 52.2367 197.94 52.6618 202.962 52.4329L202.956 52.4264Z" fill="white" stroke="#1D1D1B" stroke-width="3" stroke-linecap="round" stroke-linejoin="round"/>
<path d="M253.727 27C242.951 30.2632 231.527 30.8398 220.286 30.2108C212.601 29.7783 205.85 29.9159 199.21 33.9261C196.91 35.3153 170.736 45.0786 181.65 49.1543C182.539 49.4885 183.487 49.5541 184.434 49.4754C185.375 49.3968 186.323 49.1675 187.231 48.9054C191.29 47.739 195.355 45.8977 199.55 46.3957C203.831 46.9068 207.458 49.7703 211.595 50.9825C215.901 52.2472 217.326 51.854 217.326 51.854C220.652 55.4317 223.639 59.4223 226.972 63C227.214 62.4299 227.88 61.4995 228.273 61.0277C229.331 59.7368 230.867 58.8129 232.475 58.2887C234.671 57.5744 237.01 57.4958 239.317 57.4303C249.545 57.1223 259.772 56.8143 270 56.5064L253.727 27Z" fill="white" stroke="#1D1D1B" stroke-width="3" stroke-linecap="round" stroke-linejoin="round"/>
<path d="M256.908 23.2817C264.631 22.9322 366.805 24.6353 374.531 25.0372C389.996 25.8414 379.351 25.3036 394.835 25.0399C394.835 41.6378 393.999 55.7501 393.999 67.5C376.499 67.5 312.621 65.2564 296.085 64.924C283.592 64.6719 255.541 66.6426 243.165 64.924C247.662 56.9102 248.016 46.5657 246.654 37.4892C246.318 35.2574 245.808 33.0008 244.854 30.9441C242.714 26.3184 240.129 25.3185 240.751 25.0399C242.954 24.0657 254.536 23.3958 256.914 23.2883L256.908 23.2817Z" fill="white" stroke="#1D1D1B" stroke-width="3" stroke-linecap="round" stroke-linejoin="round"/>
<path d="M275.209 259.628C264.997 258.514 254.803 257.3 244.6 256.119C236.57 255.192 228.531 254.264 220.501 253.311C216.554 252.847 212.607 252.358 208.66 251.886C207.301 251.725 205.918 251.759 204.594 251.498C203.533 251.287 202.039 250.308 201.19 251.557C200.366 252.771 202.471 254.508 202.777 255.698C203.1 256.988 201.937 258.261 202.132 259.569C202.259 260.429 202.955 261.112 203.176 261.955C203.6 263.541 202.31 265.405 203.227 266.771C203.337 266.94 203.482 267.1 203.516 267.294C203.55 267.513 203.431 267.724 203.329 267.927C203.108 268.365 202.938 268.854 203.023 269.335C203.159 270.052 204.186 270.533 204.814 270.777C207.378 271.772 210.714 271.874 213.43 272.253C219.16 273.071 224.923 273.628 230.67 274.378C243.411 276.04 256.161 277.651 268.91 279.228C273.808 279.835 278.698 280.434 283.595 281.024C285.726 281.277 291.94 283.099 292.16 279.649C292.22 278.646 291.906 277.634 292.101 276.647C292.296 275.686 292.958 274.876 293.204 273.923C293.451 272.97 292.941 271.68 291.957 271.722C291.77 270.802 292.245 269.892 292.517 268.998C292.788 268.104 292.763 266.923 291.94 266.459C291.15 266.012 289.919 266.434 289.402 265.692C288.96 265.059 289.486 264.216 289.554 263.448C289.877 260.058 277.552 259.872 275.209 259.619V259.628Z" fill="white" stroke="#1D1D1B" stroke-width="3" stroke-linecap="round" stroke-linejoin="round"/>
<path d="M324.715 250.823C324.494 250.679 324.104 250.646 323.425 250.747C321.939 250.975 320.352 251.784 318.909 252.223C315.861 253.159 312.78 253.985 309.69 254.787C304.733 256.077 299.767 257.317 294.827 258.649C292.739 259.214 288.486 259.037 287.111 260.994C286.449 261.93 286.78 263.296 287.247 264.241C287.824 265.413 287.866 265.388 287.892 266.754C287.909 267.665 287.654 269.495 288.053 270.229C288.257 270.6 288.639 270.853 288.877 271.207C289.759 272.514 288.342 274.53 289.293 275.795C290.362 277.229 290.727 278.013 289.708 279.784C289.25 280.577 288.741 281.463 288.953 282.357C289.131 283.099 296.924 279.632 297.569 279.447C301.27 278.376 304.954 277.279 308.655 276.208C312.627 275.061 316.6 273.914 320.581 272.784C322.338 272.287 324.104 271.789 325.869 271.3C328.229 270.642 329.078 270.735 329.239 268.087C329.248 267.91 329.256 267.716 329.163 267.564C329.044 267.37 328.806 267.302 328.619 267.176C328.076 266.796 328.093 266.004 328.237 265.354C328.382 264.705 328.594 263.996 328.263 263.431C328.136 263.22 327.949 263.052 327.813 262.849C327.346 262.158 327.541 261.238 327.635 260.412C327.728 259.585 327.567 258.557 326.786 258.253C326.506 258.143 326.175 258.152 325.929 257.975C325.47 257.637 325.632 256.929 325.878 256.414C326.124 255.9 326.429 255.293 326.132 254.812C325.861 254.365 325.19 254.281 324.935 253.825C324.817 253.606 324.808 253.353 324.825 253.1C324.876 251.97 325.207 251.126 324.74 250.814L324.715 250.823Z" fill="white" stroke="#1D1D1B" stroke-width="3" stroke-linecap="round" stroke-linejoin="round"/>
<path d="M244.395 239.513C243.02 239.218 241.636 238.99 240.261 238.796C225.389 242.92 216.01 244.498 202.25 250.258V251.059L286.744 261.112L324.551 250.494L324.484 250.477C320.12 250.241 264.649 244.219 244.387 239.505L244.395 239.513Z" fill="white" stroke="#1D1D1B" stroke-width="3" stroke-linecap="round" stroke-linejoin="round"/>
<path d="M232.428 259.653C232.25 263.069 232.08 266.493 231.919 269.908C231.86 271.148 231.172 273.839 231.936 274.901C232.607 275.854 234.559 275.989 235.578 276.234C238.294 276.883 241.061 277.381 243.862 277.71C245.662 277.92 247.478 278.064 249.286 278.216C252.139 278.443 254.999 278.722 257.86 278.899C262.605 279.194 262.299 275.972 262.291 272.093C262.291 270.98 262.367 258.633 262.435 258.658C257.715 257.41 252.478 257.182 247.631 256.566C245.136 256.246 242.631 255.934 240.136 255.613C238.599 255.411 237.089 254.981 235.552 254.778C232.972 254.433 232.675 255.242 232.547 257.696C232.513 258.354 232.479 259.012 232.445 259.67L232.428 259.653Z" fill="#1D1D1B" stroke="#1D1D1B" stroke-width="3" stroke-linecap="round" stroke-linejoin="round"/>
<path d="M218.929 251.919C214.066 250.519 209.371 248.057 206.129 244.194C217.13 240.188 227.851 235.448 238.198 230C245.116 237.658 255.294 242.296 265.65 242.516C264.809 242.499 262.526 244.675 261.745 245.164C260.311 246.066 258.851 246.918 257.348 247.711C254.36 249.305 251.253 250.688 248.062 251.843C244.87 252.999 241.602 253.952 238.283 254.61C235.524 255.149 233.793 254.399 231.136 253.969C227.027 253.302 222.945 253.092 218.912 251.928L218.929 251.919Z" fill="white" stroke="#1D1D1B" stroke-width="3" stroke-linecap="round" stroke-linejoin="round"/>
<path d="M264.835 259.122C273.764 260.952 283.416 258.945 290.86 253.707C291.471 253.277 292.066 252.83 292.728 252.484C293.381 252.139 294.086 251.911 294.782 251.658C297.057 250.848 299.264 249.878 301.462 248.9C307.268 246.336 313.134 243.747 318.244 239.986C314.348 242.153 310.418 244.329 306.19 245.746C301.963 247.163 297.362 247.804 293.008 246.808C290.147 246.159 287.618 244.869 284.689 245.088C281.761 245.307 278.934 246.235 276.167 247.205C272.321 248.563 268.442 250.064 265.268 252.611C264.223 253.446 263.222 254.475 262.959 255.782C262.696 257.089 263.527 258.835 264.843 259.105L264.835 259.122Z" fill="white" stroke="#1D1D1B" stroke-width="3" stroke-linecap="round" stroke-linejoin="round"/>
<path d="M285.473 245.13C281.492 244.675 277.527 244.11 273.589 243.418C270.397 242.861 267.282 241.908 263.98 242.136C262.24 242.263 260.559 242.693 258.904 243.174C258.242 243.368 257.58 243.57 256.926 243.781C250.347 245.881 244.142 248.74 237.971 251.59C235.815 252.586 234.321 253.522 233.328 254.702C243.158 256.069 252.979 257.123 262.808 258.666C268.402 256.128 273.92 253.471 279.531 250.958C281.738 249.971 284.131 249.296 286.338 248.301C286.941 248.031 289.666 247.053 289.683 246.361C289.717 245.113 286.491 245.248 285.464 245.139L285.473 245.13Z" fill="#1D1D1B" stroke="#1D1D1B" stroke-width="3" stroke-linecap="round" stroke-linejoin="round"/>
<path d="M297.967 255.47C305.743 252.181 312.729 246.935 317.703 240.154C310.887 244.253 303.731 247.77 296.321 250.679C295.226 251.11 294.122 251.523 293.129 252.139C292.289 252.653 291.533 253.294 290.744 253.884C288.63 255.461 286.262 256.634 283.8 257.561C281.805 258.312 279.089 258.557 277.383 259.822C284.072 260.336 291.864 258.059 297.967 255.478V255.47Z" fill="white" stroke="#1D1D1B" stroke-width="3" stroke-linecap="round" stroke-linejoin="round"/>
<path d="M293.355 277.237C303.983 274.066 314.568 270.727 325.094 267.227" stroke="#1D1D1B" stroke-width="3" stroke-linecap="round" stroke-linejoin="round"/>
<path d="M291.141 272.987C295.402 270.44 300.529 269.934 305.376 268.829C312.557 267.193 319.339 264.174 326.054 261.163" stroke="#1D1D1B" stroke-width="3" stroke-linecap="round" stroke-linejoin="round"/>
<path d="M290.285 268.078C301.651 265.253 312.873 261.863 323.891 257.924" stroke="#1D1D1B" stroke-width="3" stroke-linecap="round" stroke-linejoin="round"/>
<path d="M290.531 264.258C300.785 260.707 311.209 257.671 321.76 255.149" stroke="#1D1D1B" stroke-width="3" stroke-linecap="round" stroke-linejoin="round"/>
<path d="M205.5 256.583C213.589 256.288 221.713 256.786 229.709 258.067" stroke="#1D1D1B" stroke-width="3" stroke-linecap="round" stroke-linejoin="round"/>
<path d="M205.766 260.808C213.77 261.137 221.766 261.871 229.703 263.001" stroke="#1D1D1B" stroke-width="3" stroke-linecap="round" stroke-linejoin="round"/>
<path d="M206.137 265.439C213.955 266.08 220.389 266.602 228.207 267.243" stroke="#1D1D1B" stroke-width="3" stroke-linecap="round" stroke-linejoin="round"/>
<path d="M264.367 262.959C270.08 263.288 275.784 263.785 281.471 264.46" stroke="#1D1D1B" stroke-width="3" stroke-linecap="round" stroke-linejoin="round"/>
<path d="M264.895 266.543C270.836 267.193 276.778 267.842 282.712 268.483" stroke="#1D1D1B" stroke-width="3" stroke-linecap="round" stroke-linejoin="round"/>
<path d="M266.688 274.437C272.383 275.534 278.198 275.989 283.995 275.804" stroke="#1D1D1B" stroke-width="3" stroke-linecap="round" stroke-linejoin="round"/>
<path d="M264.879 270.954C271.177 271.072 277.467 271.443 283.732 272.076" stroke="#1D1D1B" stroke-width="3" stroke-linecap="round" stroke-linejoin="round"/>
</svg>
