<svg width="298" height="257" viewBox="0 0 298 257" fill="none" xmlns="http://www.w3.org/2000/svg">
<path d="M275.378 37.3789H295.163C295.163 35.7516 295.163 34.1244 295.163 32.4913H275.156C275.074 33.9839 275.074 35.7633 275.378 37.3789Z" fill="white" stroke="#1D1D1B" stroke-width="2" stroke-linecap="round" stroke-linejoin="round"/>
<path d="M193.588 248.274C196.076 250.27 199.794 248.859 202.891 249.632C205.005 250.165 206.738 251.704 208.811 252.371C210.55 252.933 212.424 252.851 214.245 252.717C216.71 252.535 219.169 252.266 221.616 251.921C221.2 248.678 220.234 245.154 217.5 243.357C216.282 242.555 214.83 242.186 213.548 241.502C211.106 240.196 209.262 237.755 206.58 237.082C204.56 236.573 202.458 237.17 200.391 237.439C197.973 237.755 192.75 236.128 191.298 238.774C190.08 240.992 191.691 246.758 193.593 248.274H193.588Z" fill="#1D1D1B" stroke="#1D1D1B" stroke-width="2" stroke-linecap="round" stroke-linejoin="round"/>
<path d="M111.668 243.579C111.036 244.299 110.292 244.92 109.695 245.669C108.659 246.968 108.102 248.671 108.29 250.322C108.477 251.973 109.426 253.547 110.86 254.39C111.873 254.981 113.062 255.198 114.233 255.251C116.774 255.362 119.678 254.46 120.673 252.119C121.47 250.246 121.031 247.612 122.781 246.576C123.285 246.277 123.882 246.19 124.386 245.891C125.586 245.183 125.855 243.591 125.961 242.198C126.136 239.903 126.177 237.439 124.959 235.484C122.969 232.282 118.097 231.826 115.462 234.553C113.138 236.965 113.963 240.945 111.662 243.579H111.668Z" fill="#1D1D1B" stroke="#1D1D1B" stroke-width="2" stroke-linecap="round" stroke-linejoin="round"/>
<path d="M136.968 139.396C135.276 147.345 129.31 153.579 125.364 160.685C123.068 164.817 121.441 169.289 120.07 173.82C113.805 194.593 112.951 216.561 112.184 238.241C116.686 239.722 121.382 240.618 126.119 240.91C128.315 230.409 129.673 219.739 130.171 209.021C130.288 206.487 130.364 203.923 131.025 201.477C132.501 196.033 136.828 192.217 140.171 187.803C143.514 183.39 146.94 178.415 149.984 173.498C150.728 172.292 152.326 168.142 153.907 168.165C155.336 168.189 157.292 172.233 158.105 173.287C161.027 177.074 164.294 180.586 167.058 184.496C171.344 190.56 176.309 196.138 181.836 201.096C182.352 201.559 182.879 202.021 183.247 202.606C183.769 203.426 183.938 204.415 184.102 205.369C185.712 214.957 187.323 224.55 188.933 234.138C189.044 234.817 189.173 235.531 189.6 236.07C190.004 236.585 190.631 236.877 191.24 237.117C194.876 238.546 199.039 238.704 202.845 237.966C208.196 236.924 208.536 235.906 207.646 230.772C205.989 221.214 203.904 211.732 201.398 202.366C198.699 192.275 195.221 181.727 189.483 172.889C182.533 162.183 176.28 151.027 170.776 139.508C170.559 139.057 170.325 138.583 169.898 138.325C169.353 138.003 168.668 138.126 168.048 138.232C158.363 139.917 146.512 136.996 136.974 139.39L136.968 139.396Z" fill="white" stroke="#1D1D1B" stroke-width="2" stroke-linecap="round" stroke-linejoin="round"/>
<path d="M262.699 2.04839C262.699 2.04839 262.693 2.06009 262.688 2.06595C263.121 1.70304 263.56 1.43379 264.017 1.2699C263.466 1.42794 262.992 1.67378 262.699 2.05424V2.04839Z" fill="white" stroke="#1D1D1B" stroke-width="2" stroke-linecap="round" stroke-linejoin="round"/>
<path d="M268.656 1.06504C267.935 1.06504 266.431 0.918704 265.078 1.06504C265.084 1.06504 265.09 1.06504 265.096 1.06504C270.623 1.06504 275.102 16.2778 275.102 35.0435C275.102 53.8092 270.758 68.542 265.347 68.9986C266.448 69.303 267.777 69.022 268.65 69.022C274.177 69.022 278.656 53.8092 278.656 35.0435C278.656 16.2778 274.183 1.06504 268.656 1.06504Z" fill="white" stroke="#1D1D1B" stroke-width="2" stroke-linecap="round" stroke-linejoin="round"/>
<path d="M264.016 1.26408C264.349 1.17042 264.707 1.10604 265.081 1.06506C264.724 1.06506 264.367 1.1353 264.016 1.26408Z" fill="white" stroke="#1D1D1B" stroke-width="2" stroke-linecap="round" stroke-linejoin="round"/>
<path d="M265.1 1.06506C265.1 1.06506 265.088 1.06506 265.083 1.06506C264.708 1.10604 264.351 1.17042 264.017 1.26408C263.566 1.42797 263.121 1.69722 262.688 2.06013C258.326 5.7243 255.094 19.0991 255.094 35.0377C255.094 53.8034 259.573 69.0162 265.1 69.0162C265.188 69.0162 265.27 69.0045 265.352 68.9928C270.762 68.5362 275.107 53.5107 275.107 35.0377C275.107 16.5646 270.627 1.06506 265.1 1.06506Z" fill="white" stroke="#1D1D1B" stroke-width="2" stroke-linecap="round" stroke-linejoin="round"/>
<path d="M266.571 26.4099C266.138 25.5611 265.64 25.0636 265.101 25.0636C264.99 25.0753 264.885 25.0929 264.791 25.1221C264.656 25.169 264.528 25.2509 264.399 25.3563C263.117 26.4333 262.168 30.3608 262.168 35.0435C262.168 40.5573 263.485 45.0234 265.107 45.0234C265.131 45.0234 265.154 45.0234 265.183 45.0175C265.693 44.9766 266.167 44.4907 266.577 43.6771C265.699 41.9504 265.107 38.7369 265.107 35.0435C265.107 31.3501 265.699 28.1366 266.577 26.4099H266.571Z" fill="white" stroke="#1D1D1B" stroke-width="2" stroke-linecap="round" stroke-linejoin="round"/>
<path d="M266.571 26.4098C265.693 28.1365 265.102 31.35 265.102 35.0434C265.102 38.7369 265.693 41.9562 266.571 43.6771C267.449 41.9503 268.041 38.731 268.041 35.0434C268.041 31.3558 267.449 28.1365 266.571 26.4098Z" fill="white" stroke="#1D1D1B" stroke-width="2" stroke-linecap="round" stroke-linejoin="round"/>
<path d="M243.484 2.04839C243.484 2.04839 243.479 2.06009 243.473 2.06595C243.906 1.70304 244.345 1.43379 244.802 1.2699C244.251 1.42794 243.777 1.67378 243.484 2.05424V2.04839Z" fill="white" stroke="#1D1D1B" stroke-width="2" stroke-linecap="round" stroke-linejoin="round"/>
<path d="M249.441 1.06504C248.721 1.06504 247.216 0.918704 245.863 1.06504C245.869 1.06504 245.875 1.06504 245.881 1.06504C251.408 1.06504 255.887 16.2778 255.887 35.0435C255.887 53.8092 251.543 68.542 246.133 68.9986C247.233 69.303 248.562 69.022 249.435 69.022C254.962 69.022 259.441 53.8092 259.441 35.0435C259.441 16.2778 254.968 1.06504 249.441 1.06504Z" fill="white" stroke="#1D1D1B" stroke-width="2" stroke-linecap="round" stroke-linejoin="round"/>
<path d="M244.801 1.26408C245.135 1.17042 245.492 1.10604 245.866 1.06506C245.509 1.06506 245.152 1.1353 244.801 1.26408Z" fill="white" stroke="#1D1D1B" stroke-width="2" stroke-linecap="round" stroke-linejoin="round"/>
<path d="M245.885 1.06506C245.885 1.06506 245.874 1.06506 245.868 1.06506C245.493 1.10604 245.136 1.17042 244.802 1.26408C244.351 1.42797 243.906 1.69722 243.473 2.06013C239.111 5.7243 235.879 19.0991 235.879 35.0377C235.879 53.8034 240.358 69.0162 245.885 69.0162C245.973 69.0162 246.055 69.0045 246.137 68.9928C251.547 68.5362 255.892 53.5107 255.892 35.0377C255.892 16.5646 251.413 1.06506 245.885 1.06506Z" fill="white" stroke="#1D1D1B" stroke-width="2" stroke-linecap="round" stroke-linejoin="round"/>
<path d="M247.356 26.4099C246.923 25.5611 246.425 25.0636 245.887 25.0636C245.775 25.0753 245.67 25.0929 245.576 25.1221C245.442 25.169 245.313 25.2509 245.184 25.3563C243.902 26.4333 242.953 30.3608 242.953 35.0435C242.953 40.5573 244.271 45.0234 245.892 45.0234C245.916 45.0234 245.939 45.0234 245.969 45.0175C246.478 44.9766 246.952 44.4907 247.362 43.6771C246.484 41.9504 245.892 38.7369 245.892 35.0435C245.892 31.3501 246.484 28.1366 247.362 26.4099H247.356Z" fill="white" stroke="#1D1D1B" stroke-width="2" stroke-linecap="round" stroke-linejoin="round"/>
<path d="M247.356 26.4098C246.478 28.1365 245.887 31.35 245.887 35.0434C245.887 38.7369 246.478 41.9562 247.356 43.6771C248.235 41.9503 248.826 38.731 248.826 35.0434C248.826 31.3558 248.235 28.1365 247.356 26.4098Z" fill="white" stroke="#1D1D1B" stroke-width="2" stroke-linecap="round" stroke-linejoin="round"/>
<path d="M223.977 2.04839C223.977 2.04839 223.971 2.06009 223.965 2.06595C224.398 1.70304 224.837 1.43379 225.294 1.2699C224.744 1.42794 224.269 1.67378 223.977 2.05424V2.04839Z" fill="white" stroke="#1D1D1B" stroke-width="2" stroke-linecap="round" stroke-linejoin="round"/>
<path d="M229.937 1.06504C229.217 1.06504 227.712 0.918704 226.359 1.06504C226.365 1.06504 226.371 1.06504 226.377 1.06504C231.904 1.06504 236.383 16.2778 236.383 35.0435C236.383 53.8092 232.039 68.542 226.629 68.9986C227.729 69.303 229.059 69.022 229.931 69.022C235.458 69.022 239.937 53.8092 239.937 35.0435C239.937 16.2778 235.458 1.06504 229.937 1.06504Z" fill="white" stroke="#1D1D1B" stroke-width="2" stroke-linecap="round" stroke-linejoin="round"/>
<path d="M225.293 1.26408C225.627 1.17042 225.984 1.10604 226.359 1.06506C226.001 1.06506 225.644 1.1353 225.293 1.26408Z" fill="white" stroke="#1D1D1B" stroke-width="2" stroke-linecap="round" stroke-linejoin="round"/>
<path d="M226.378 1.06506C226.378 1.06506 226.366 1.06506 226.36 1.06506C225.985 1.10604 225.628 1.17042 225.294 1.26408C224.843 1.42797 224.398 1.69722 223.965 2.06013C219.603 5.7243 216.371 19.0991 216.371 35.0377C216.371 53.8034 220.85 69.0162 226.378 69.0162C226.465 69.0162 226.547 69.0045 226.629 68.9928C232.039 68.5362 236.384 53.5107 236.384 35.0377C236.384 16.5646 231.905 1.06506 226.378 1.06506Z" fill="white" stroke="#1D1D1B" stroke-width="2" stroke-linecap="round" stroke-linejoin="round"/>
<path d="M227.848 26.4099C227.415 25.5611 226.917 25.0636 226.379 25.0636C226.267 25.0753 226.162 25.0929 226.068 25.1221C225.934 25.169 225.805 25.2509 225.676 25.3563C224.394 26.4333 223.445 30.3608 223.445 35.0435C223.445 40.5573 224.763 45.0234 226.385 45.0234C226.408 45.0234 226.431 45.0234 226.461 45.0175C226.97 44.9766 227.444 44.4907 227.854 43.6771C226.976 41.9504 226.385 38.7369 226.385 35.0435C226.385 31.3501 226.976 28.1366 227.854 26.4099H227.848Z" fill="white" stroke="#1D1D1B" stroke-width="2" stroke-linecap="round" stroke-linejoin="round"/>
<path d="M227.849 26.4098C226.97 28.1365 226.379 31.35 226.379 35.0434C226.379 38.7369 226.97 41.9562 227.849 43.6771C228.727 41.9503 229.318 38.731 229.318 35.0434C229.318 31.3558 228.727 28.1365 227.849 26.4098Z" fill="white" stroke="#1D1D1B" stroke-width="2" stroke-linecap="round" stroke-linejoin="round"/>
<path d="M18.0155 34.9385L15.1406 40.6747L23.3788 39.9899L28.6777 27.5106L18.0155 34.9385Z" fill="white" stroke="#1D1D1B" stroke-width="2" stroke-linecap="round" stroke-linejoin="round"/>
<path d="M228.905 32.4973H83.9727C84.2596 34.1245 84.5113 35.7518 84.5874 37.3848H229.11C229.42 35.8044 229.409 34.1772 228.911 32.4973H228.905Z" fill="white" stroke="#1D1D1B" stroke-width="2" stroke-linecap="round" stroke-linejoin="round"/>
<path d="M75.2969 2.04839C75.2969 2.04839 75.291 2.06009 75.2852 2.06595C75.7184 1.70304 76.1576 1.43379 76.6143 1.2699C76.0639 1.42794 75.5896 1.67378 75.2969 2.05424V2.04839Z" fill="white" stroke="#1D1D1B" stroke-width="2" stroke-linecap="round" stroke-linejoin="round"/>
<path d="M81.2494 1.06504C80.5292 1.06504 79.0244 0.918704 77.6719 1.06504C77.6777 1.06504 77.6836 1.06504 77.6894 1.06504C83.2167 1.06504 87.6959 16.2778 87.6959 35.0435C87.6959 53.8092 83.3514 68.542 77.9412 68.9986C79.042 69.303 80.3711 69.022 81.2435 69.022C86.7708 69.022 91.25 53.8092 91.25 35.0435C91.25 16.2778 86.7766 1.06504 81.2494 1.06504Z" fill="white" stroke="#1D1D1B" stroke-width="2" stroke-linecap="round" stroke-linejoin="round"/>
<path d="M76.6055 1.26408C76.9392 1.17042 77.2964 1.10604 77.6711 1.06506C77.3139 1.06506 76.9568 1.1353 76.6055 1.26408Z" fill="white" stroke="#1D1D1B" stroke-width="2" stroke-linecap="round" stroke-linejoin="round"/>
<path d="M77.69 1.06506C77.69 1.06506 77.6783 1.06506 77.6725 1.06506C77.2977 1.10604 76.9406 1.17042 76.6068 1.26408C76.156 1.42797 75.711 1.69722 75.2777 2.06013C70.9156 5.7243 67.6836 19.0991 67.6836 35.0377C67.6836 53.8034 72.1628 69.0162 77.69 69.0162C77.7779 69.0162 77.8598 69.0045 77.9418 68.9928C83.352 68.5362 87.6965 53.5107 87.6965 35.0377C87.6965 16.5646 83.2173 1.06506 77.69 1.06506Z" fill="white" stroke="#1D1D1B" stroke-width="2" stroke-linecap="round" stroke-linejoin="round"/>
<path d="M79.1609 26.4099C78.7276 25.5611 78.2299 25.0636 77.6912 25.0636C77.58 25.0753 77.4746 25.0929 77.3809 25.1221C77.2462 25.169 77.1174 25.2509 76.9886 25.3563C75.7063 26.4333 74.7578 30.3608 74.7578 35.0435C74.7578 40.5573 76.0752 45.0234 77.6971 45.0234C77.7205 45.0234 77.7439 45.0234 77.7732 45.0175C78.2826 44.9766 78.7569 44.4907 79.1667 43.6771C78.2885 41.9504 77.6971 38.7369 77.6971 35.0435C77.6971 31.3501 78.2885 28.1366 79.1667 26.4099H79.1609Z" fill="white" stroke="#1D1D1B" stroke-width="2" stroke-linecap="round" stroke-linejoin="round"/>
<path d="M79.1611 26.4098C78.2828 28.1365 77.6914 31.35 77.6914 35.0434C77.6914 38.7369 78.2828 41.9562 79.1611 43.6771C80.0393 41.9503 80.6307 38.731 80.6307 35.0434C80.6307 31.3558 80.0393 28.1365 79.1611 26.4098Z" fill="white" stroke="#1D1D1B" stroke-width="2" stroke-linecap="round" stroke-linejoin="round"/>
<path d="M134.567 75.4718C132.816 73.0544 131.142 70.5433 129.309 68.2606C128.238 66.9201 127.078 65.6324 126.247 64.1281C125.544 62.8579 125.093 61.459 124.479 60.142C122.921 56.8056 122.786 55.7228 120.269 53.0361C117.921 50.5192 116.486 47.1652 116.293 43.7293C116.246 42.8806 116.27 42.0201 116.469 41.189C116.861 39.5442 117.892 38.1218 118.336 36.4888C118.828 34.6977 118.506 32.6022 117.189 31.291C115.871 29.974 113.506 29.7282 112.153 31.0042C112.013 31.1388 111.878 31.291 111.82 31.4842C111.673 31.9759 112.124 32.4558 112.587 32.6783C113.049 32.9007 113.594 33.0178 113.945 33.3924C114.718 34.206 114.056 35.6049 113.12 36.2312C110.128 38.2448 106.328 36.5356 102.902 37.2497C103.898 39.2574 106.017 42.5879 107.013 44.5956C107.949 46.4862 108.898 48.4003 109.448 50.4372C110.174 53.1356 110.198 55.9861 110.906 58.6904C111.539 61.0961 112.727 63.3555 114.349 65.2461C119.42 71.1462 120.503 78.5916 123.659 85.4868C128.079 83.3328 131.903 79.8033 134.561 75.4718H134.567Z" fill="white" stroke="#1D1D1B" stroke-width="2" stroke-linecap="round" stroke-linejoin="round"/>
<path d="M203.806 33.8553C204.321 33.2817 204.316 30.8291 203.876 30.1911C202.641 30.3082 201.575 29.2253 200.422 29.6936C196.516 31.274 197.764 36.4249 199.017 39.4452C200.984 44.1922 193.899 49.1032 191.914 52.5917C190.761 54.617 190.187 56.9115 189.291 59.0655C187.974 62.238 185.989 65.0769 184.01 67.8864L178.758 75.367C180.239 79.7101 183.606 83.667 187.851 85.2122C190.006 82.5022 191.955 79.6399 193.355 76.4557C194.391 74.091 195.117 71.5799 196.423 69.3556C197.974 66.7158 200.275 64.6847 201.593 61.9278C203.185 58.5914 204.714 55.173 205.937 51.6786C206.956 48.7637 206.131 44.9824 207.7 42.3367C208.631 40.768 211.47 38.3155 211.523 36.3722C209.585 36.4776 200.287 37.7887 203.8 33.8553H203.806Z" fill="white" stroke="#1D1D1B" stroke-width="2" stroke-linecap="round" stroke-linejoin="round"/>
<path d="M152.96 100.402C155.887 102.158 158.815 100.987 161.157 99.2313C164.319 95.6784 165.343 91.0601 166.04 86.2721C162.369 87.1442 158.347 87.0096 154.523 86.8165C151.964 86.6877 150.202 86.8574 148.123 86.4184C147.749 91.7449 148.235 97.2471 152.96 100.402V100.402Z" stroke="#1D1D1B" stroke-width="2" stroke-linecap="round" stroke-linejoin="round"/>
<path d="M178.763 75.3611C178.365 75.9288 177.972 76.4908 177.574 77.0585C175.794 79.593 173.962 82.186 171.415 83.9537C169.775 85.0951 167.954 85.8209 166.034 86.2717C165.337 91.0597 164.312 95.6779 161.151 99.2309C158.809 100.987 155.881 102.158 152.953 100.402C148.228 97.2525 147.742 91.7445 148.117 86.418C147.461 86.2775 146.77 86.0785 146.015 85.7917C141.097 83.9011 137.718 79.833 134.562 75.4723C131.91 79.8037 128.081 83.3391 123.66 85.4873C124.211 86.6931 124.819 87.8813 125.528 89.0403C126.998 91.4401 128.824 93.6234 130.054 96.152C132.045 100.238 132.343 104.909 132.753 109.439C133.28 115.263 134.041 121.07 135.037 126.829C135.505 129.539 136.448 132.413 136.565 135.159C136.782 140.251 138.421 141.146 143.082 142.943C147.783 144.758 153.047 144.536 157.948 143.839C159.898 143.564 161.842 143.213 163.739 142.657C165.917 142.019 168.013 141.123 169.974 139.982C171.778 138.934 171.286 137.412 171.62 135.352C172.826 127.924 172.006 120.069 174.828 113.092C175.531 111.359 176.444 109.72 177.088 107.964C177.873 105.822 178.236 103.545 178.804 101.332C179.957 96.8369 181.69 92.3767 184.753 88.8881C185.812 87.6823 186.849 86.459 187.856 85.2005C183.611 83.6552 180.244 79.6925 178.763 75.3552V75.3611Z" fill="#1D1D1B" stroke="#1D1D1B" stroke-width="2" stroke-linecap="round" stroke-linejoin="round"/>
<path d="M148.394 88.708C149.054 90.706 149.918 92.6809 151.336 94.24C152.755 95.7991 154.821 96.8962 156.934 96.7634C158.907 96.6422 160.699 95.4699 161.948 93.957C163.197 92.4441 163.973 90.6078 164.627 88.76C165.485 86.3521 166.168 83.8864 166.676 81.386C167.008 79.7403 167.265 78.0542 167.119 76.3796C166.623 70.8014 160.955 66.2107 155.334 66.8286C143.672 68.1047 145.879 81.0626 148.394 88.6965V88.708Z" fill="white" stroke="#1D1D1B" stroke-linecap="round" stroke-linejoin="round"/>
<path d="M151.367 75.1504C151.759 75.3319 152.146 75.5192 152.532 75.6714C154.189 76.3387 156.063 76.3445 157.761 75.8177C159.184 75.3787 160.823 73.4939 162.293 73.652C165.244 73.9798 165.976 79.6282 166.883 81.7413C167.398 79.6575 168.3 77.6849 168.821 75.6011C169.992 70.8892 168.312 63.7599 163.464 61.5239C162.457 61.0615 161.332 60.9444 160.232 60.8274C156.133 60.4176 152.544 61.4186 148.527 62.1561C148.352 62.1912 148.164 62.2263 148.024 62.3434C147.866 62.478 147.801 62.6887 147.754 62.8877C147.596 63.5316 147.514 64.1989 147.52 64.8662C147.017 64.4096 146.32 64.1638 145.641 64.2047C145.383 66.0076 145.968 67.9099 147.192 69.2561C145.816 69.0162 144.493 68.5011 143.316 67.7518C143.17 69.9937 143.621 72.2706 144.598 74.29C144.786 74.6822 145.014 75.0802 145.395 75.2909C146.361 75.8236 147.432 74.8343 148.504 74.571C149.482 74.331 150.43 74.7114 151.373 75.1446L151.367 75.1504Z" fill="white" stroke="#1D1D1B" stroke-width="2" stroke-linecap="round" stroke-linejoin="round"/>
<path d="M80.3244 32.4973H69.8086V37.3848H80.5469C80.6289 35.8922 80.6289 34.1128 80.3244 32.4973Z" fill="white" stroke="#1D1D1B" stroke-width="2" stroke-linecap="round" stroke-linejoin="round"/>
<path d="M154.008 92.2717C155.513 92.8629 157.216 92.5117 158.516 91.3411" stroke="#1D1D1B" stroke-linecap="round" stroke-linejoin="round"/>
<path d="M155.248 82.8649C155.758 84.4804 152.871 87.1027 156.566 86.9388" stroke="#1D1D1B" stroke-linecap="round" stroke-linejoin="round"/>
<path d="M158.66 81.5777C159.697 81.1094 160.903 81.045 161.98 81.4079" stroke="#1D1D1B" stroke-linecap="round" stroke-linejoin="round"/>
<path d="M159.551 81.5659C159.615 81.8879 159.767 82.1922 159.984 82.4439C160.043 82.5083 160.119 82.5786 160.207 82.5727C160.294 82.5727 160.365 82.4908 160.411 82.4147C160.587 82.1396 160.675 81.8001 160.646 81.4723" stroke="#1D1D1B" stroke-linecap="round" stroke-linejoin="round"/>
<path d="M149.219 81.6121C150.232 81.0736 151.438 81.0736 152.515 81.6121" stroke="#1D1D1B" stroke-linecap="round" stroke-linejoin="round"/>
<path d="M150.734 81.7467C150.553 82.0511 150.693 82.6481 150.957 82.7008C151.22 82.7535 151.454 82.2325 151.331 81.8696" stroke="#1D1D1B" stroke-linecap="round" stroke-linejoin="round"/>
<path d="M153.147 79.0785C151.478 78.5165 149.593 78.6043 147.988 79.3301" stroke="#1D1D1B" stroke-linecap="round" stroke-linejoin="round"/>
<path d="M157.309 79.1717C158.228 78.8908 159.171 78.6918 160.125 78.5747C161.372 78.4225 162.766 78.4635 163.708 79.2888" stroke="#1D1D1B" stroke-linecap="round" stroke-linejoin="round"/>
<path d="M152.169 96.5266C152.075 95.1043 152.227 93.6643 152.631 92.3005C152.76 91.8557 152.936 91.3991 153.299 91.1123C153.673 90.8196 154.171 90.7728 154.645 90.7318C155.652 90.6499 156.659 90.5796 157.667 90.5211C158.065 90.4977 158.48 90.4743 158.861 90.6031C159.634 90.8665 160.079 91.6567 160.407 92.4059C160.981 93.717 161.426 95.0867 161.724 96.4856C161.97 94.7238 162.122 92.9502 162.175 91.1708C162.198 90.3338 162.175 89.4031 161.595 88.7944C160.951 88.1154 159.886 88.1037 158.949 88.1447C157.754 88.1915 156.566 88.2442 155.371 88.291C154.458 88.3261 153.533 88.3671 152.643 88.5837C151.255 88.9232 150.482 90.0821 150.652 91.4869C150.851 93.1375 151.571 94.9813 152.174 96.5266H152.169Z" fill="white" stroke="#1D1D1B" stroke-linecap="round" stroke-linejoin="round"/>
<path d="M56.082 2.04839C56.082 2.04839 56.0762 2.06009 56.0703 2.06595C56.5036 1.70304 56.9427 1.43379 57.3994 1.2699C56.849 1.42794 56.3748 1.67378 56.082 2.05424V2.04839Z" fill="white" stroke="#1D1D1B" stroke-width="2" stroke-linecap="round" stroke-linejoin="round"/>
<path d="M62.0345 1.06504C61.3143 1.06504 59.8096 0.918704 58.457 1.06504C58.4629 1.06504 58.4687 1.06504 58.4746 1.06504C64.0019 1.06504 68.481 16.2778 68.481 35.0435C68.481 53.8092 64.1365 68.542 58.7264 68.9986C59.8271 69.303 61.1563 69.022 62.0287 69.022C67.5559 69.022 72.0351 53.8092 72.0351 35.0435C72.0351 16.2778 67.5618 1.06504 62.0345 1.06504Z" fill="white" stroke="#1D1D1B" stroke-width="2" stroke-linecap="round" stroke-linejoin="round"/>
<path d="M57.3906 1.26408C57.7244 1.17042 58.0815 1.10604 58.4563 1.06506C58.0991 1.06506 57.7419 1.1353 57.3906 1.26408Z" fill="white" stroke="#1D1D1B" stroke-width="2" stroke-linecap="round" stroke-linejoin="round"/>
<path d="M58.4752 1.06506C58.4752 1.06506 58.4635 1.06506 58.4576 1.06506C58.0829 1.10604 57.7257 1.17042 57.392 1.26408C56.9411 1.42797 56.4962 1.69722 56.0629 2.06013C51.7008 5.7243 48.4688 19.0991 48.4688 35.0377C48.4688 53.8034 52.9479 69.0162 58.4752 69.0162C58.563 69.0162 58.645 69.0045 58.727 68.9928C64.1371 68.5362 68.4816 53.5107 68.4816 35.0377C68.4816 16.5646 64.0024 1.06506 58.4752 1.06506Z" fill="white" stroke="#1D1D1B" stroke-width="2" stroke-linecap="round" stroke-linejoin="round"/>
<path d="M59.946 26.4099C59.5128 25.5611 59.0151 25.0636 58.4764 25.0636C58.3651 25.0753 58.2598 25.0929 58.1661 25.1221C58.0314 25.169 57.9026 25.2509 57.7738 25.3563C56.4915 26.4333 55.543 30.3608 55.543 35.0435C55.543 40.5573 56.8604 45.0234 58.4822 45.0234C58.5057 45.0234 58.5291 45.0234 58.5584 45.0175C59.0678 44.9766 59.542 44.4907 59.9519 43.6771C59.0736 41.9504 58.4822 38.7369 58.4822 35.0435C58.4822 31.3501 59.0736 28.1366 59.9519 26.4099H59.946Z" fill="white" stroke="#1D1D1B" stroke-width="2" stroke-linecap="round" stroke-linejoin="round"/>
<path d="M59.9462 26.4098C59.0679 28.1365 58.4766 31.35 58.4766 35.0434C58.4766 38.7369 59.0679 41.9562 59.9462 43.6771C60.8245 41.9503 61.4158 38.731 61.4158 35.0434C61.4158 31.3558 60.8245 28.1365 59.9462 26.4098Z" fill="white" stroke="#1D1D1B" stroke-width="2" stroke-linecap="round" stroke-linejoin="round"/>
<path d="M61.1838 32.4973H50.668V37.3848H61.4063C61.4883 35.8922 61.4883 34.1128 61.1838 32.4973Z" fill="white" stroke="#1D1D1B" stroke-width="2" stroke-linecap="round" stroke-linejoin="round"/>
<path d="M248.555 37.3789H240.492C240.492 35.7516 240.492 34.1244 240.492 32.4913H248.777C248.859 33.9839 248.859 35.7633 248.555 37.3789Z" fill="white" stroke="#1D1D1B" stroke-width="2" stroke-linecap="round" stroke-linejoin="round"/>
<path d="M267.773 37.3789H259.711C259.711 35.7516 259.711 34.1244 259.711 32.4913H267.996C268.078 33.9839 268.078 35.7633 267.773 37.3789Z" fill="white" stroke="#1D1D1B" stroke-width="2" stroke-linecap="round" stroke-linejoin="round"/>
<path d="M36.5703 2.04839C36.5703 2.04839 36.5644 2.06009 36.5586 2.06595C36.9919 1.70304 37.431 1.43379 37.8877 1.2699C37.3373 1.42794 36.8631 1.67378 36.5703 2.05424V2.04839Z" fill="white" stroke="#1D1D1B" stroke-width="2" stroke-linecap="round" stroke-linejoin="round"/>
<path d="M42.5228 1.06504C41.8026 1.06504 40.2979 0.918704 38.9453 1.06504C38.9512 1.06504 38.957 1.06504 38.9629 1.06504C44.4901 1.06504 48.9693 16.2778 48.9693 35.0435C48.9693 53.8092 44.6248 68.542 39.2146 68.9986C40.3154 69.303 41.6445 69.022 42.517 69.022C48.0442 69.022 52.5234 53.8092 52.5234 35.0435C52.5234 16.2778 48.0501 1.06504 42.5228 1.06504Z" fill="white" stroke="#1D1D1B" stroke-width="2" stroke-linecap="round" stroke-linejoin="round"/>
<path d="M37.8789 1.26408C38.2126 1.17042 38.5698 1.10604 38.9445 1.06506C38.5874 1.06506 38.2302 1.1353 37.8789 1.26408Z" fill="white" stroke="#1D1D1B" stroke-width="2" stroke-linecap="round" stroke-linejoin="round"/>
<path d="M38.9635 1.06506C38.9635 1.06506 38.9518 1.06506 38.9459 1.06506C38.5712 1.10604 38.214 1.17042 37.8803 1.26408C37.4294 1.42797 36.9844 1.69722 36.5512 2.06013C32.1891 5.7243 28.957 19.0991 28.957 35.0377C28.957 53.8034 33.4362 69.0162 38.9635 69.0162C39.0513 69.0162 39.1333 69.0045 39.2152 68.9928C44.6254 68.5362 48.9699 53.5107 48.9699 35.0377C48.9699 16.5646 44.4907 1.06506 38.9635 1.06506Z" fill="white" stroke="#1D1D1B" stroke-width="2" stroke-linecap="round" stroke-linejoin="round"/>
<path d="M40.4343 26.4099C40.001 25.5611 39.5033 25.0636 38.9647 25.0636C38.8534 25.0753 38.748 25.0929 38.6544 25.1221C38.5197 25.169 38.3909 25.2509 38.2621 25.3563C36.9798 26.4333 36.0312 30.3608 36.0312 35.0435C36.0312 40.5573 37.3487 45.0234 38.9705 45.0234C38.994 45.0234 39.0174 45.0234 39.0466 45.0175C39.556 44.9766 40.0303 44.4907 40.4402 43.6771C39.5619 41.9504 38.9705 38.7369 38.9705 35.0435C38.9705 31.3501 39.5619 28.1366 40.4402 26.4099H40.4343Z" fill="white" stroke="#1D1D1B" stroke-width="2" stroke-linecap="round" stroke-linejoin="round"/>
<path d="M40.4345 26.4098C39.5562 28.1365 38.9648 31.35 38.9648 35.0434C38.9648 38.7369 39.5562 41.9562 40.4345 43.6771C41.3128 41.9503 41.9041 38.731 41.9041 35.0434C41.9041 31.3558 41.3128 28.1365 40.4345 26.4098Z" fill="white" stroke="#1D1D1B" stroke-width="2" stroke-linecap="round" stroke-linejoin="round"/>
<path d="M41.6522 32.4973H3.57031V37.3848H41.8746C41.9566 35.8922 41.9566 34.1128 41.6522 32.4973Z" fill="white" stroke="#1D1D1B" stroke-width="2" stroke-linecap="round" stroke-linejoin="round"/>
<path d="M28.2666 11.39L37.4651 10.1783C37.4651 10.1783 32.0608 52.8607 29.6016 74.237C26.4925 73.7453 23.319 73.6341 20.1865 73.9034C23.0146 58.4389 28.6765 27.51 28.6765 27.51L26.311 31.9585L18.8398 31.941L28.2666 11.39Z" fill="white" stroke="#1D1D1B" stroke-width="2" stroke-linecap="round" stroke-linejoin="round"/>
<path d="M37.465 10.1783H40.4394L33.1088 72.8381L29.6016 74.237L37.465 10.1783Z" fill="white" stroke="#1D1D1B" stroke-width="2" stroke-linecap="round" stroke-linejoin="round"/>
<path d="M101.037 36.682C101.236 37.1795 101.564 37.7356 102.097 37.759C102.43 37.7707 102.747 37.5483 102.916 37.2556C103.086 36.9629 103.145 36.6234 103.174 36.2898C103.297 34.8265 102.957 33.369 102.571 31.9584C102.337 31.1096 101.991 29.939 101.101 29.5526C100.211 29.1663 99.7137 29.5819 99.5849 30.4189C99.3038 32.2452 100.381 35.0313 101.043 36.6878L101.037 36.682Z" fill="white" stroke="#1D1D1B" stroke-width="2" stroke-linecap="round" stroke-linejoin="round"/>
<path d="M105.186 27.6569C105.824 28.6051 106.047 29.7699 106.111 30.9113C106.199 32.3805 106.474 35.032 105.408 36.2378C104.214 37.5899 103.043 35.8398 102.809 34.6457C102.452 32.8312 101.848 30.6655 102.001 28.81C102.13 27.2471 104.126 26.0823 105.186 27.6569Z" fill="white" stroke="#1D1D1B" stroke-width="2" stroke-linecap="round" stroke-linejoin="round"/>
<path d="M108.429 26.6733C109.032 27.6391 109.219 28.8157 109.249 29.9512C109.284 31.4204 109.477 34.0836 108.37 35.2484C107.135 36.5596 106.017 34.7685 105.823 33.5744C105.525 31.754 104.998 29.5649 105.209 27.7152C105.384 26.1524 107.422 25.0578 108.429 26.6675V26.6733Z" fill="white" stroke="#1D1D1B" stroke-width="2" stroke-linecap="round" stroke-linejoin="round"/>
<path d="M112.671 26.5214C113.274 27.4872 113.462 28.6637 113.491 29.7992C113.526 31.2684 113.719 33.9317 112.613 35.0965C111.377 36.4076 110.259 34.6165 110.066 33.4224C109.767 31.602 109.24 29.4129 109.451 27.5633C109.626 26.0004 111.664 24.9058 112.671 26.5155V26.5214Z" fill="white" stroke="#1D1D1B" stroke-width="2" stroke-linecap="round" stroke-linejoin="round"/>
<path d="M214.474 36.115C214.339 36.6301 214.087 37.2272 213.561 37.315C213.227 37.3735 212.887 37.1862 212.682 36.9228C212.477 36.6594 212.372 36.3258 212.302 35.998C211.991 34.5639 212.144 33.0772 212.349 31.6197C212.471 30.7476 212.665 29.5418 213.502 29.0442C214.339 28.5467 214.884 28.8979 215.118 29.7057C215.627 31.4792 214.919 34.3825 214.474 36.1092V36.115Z" fill="white" stroke="#1D1D1B" stroke-width="2" stroke-linecap="round" stroke-linejoin="round"/>
<path d="M209.197 27.6915C208.688 28.71 208.618 29.8982 208.694 31.0337C208.793 32.5029 208.858 35.1662 210.07 36.2256C211.428 37.4138 212.365 35.5232 212.447 34.3174C212.57 32.4736 212.892 30.2494 212.506 28.4232C212.184 26.8837 210.046 25.9882 209.197 27.6856V27.6915Z" fill="white" stroke="#1D1D1B" stroke-width="2" stroke-linecap="round" stroke-linejoin="round"/>
<path d="M205.859 27.1298C205.385 28.1658 205.35 29.3541 205.467 30.4896C205.619 31.9529 205.771 34.6162 207.012 35.6347C208.406 36.7761 209.284 34.862 209.325 33.6504C209.39 31.8066 209.636 29.5706 209.191 27.762C208.816 26.2343 206.655 25.4089 205.859 27.1357V27.1298Z" fill="white" stroke="#1D1D1B" stroke-width="2" stroke-linecap="round" stroke-linejoin="round"/>
<path d="M201.636 27.5219C201.162 28.5579 201.127 29.7462 201.244 30.8817C201.396 32.345 201.549 35.0083 202.79 36.0268C204.183 37.1682 205.062 35.2541 205.103 34.0425C205.167 32.1987 205.413 29.9627 204.968 28.1541C204.593 26.6263 202.433 25.801 201.636 27.5278V27.5219Z" fill="white" stroke="#1D1D1B" stroke-width="2" stroke-linecap="round" stroke-linejoin="round"/>
<path d="M131.137 151.6C132.419 152.156 133.894 151.659 135.171 151.097C137.214 150.195 139.217 149.083 140.698 147.409C143.444 144.295 143.889 139.841 144.211 135.703" stroke="#1D1D1B" stroke-width="2" stroke-linecap="round" stroke-linejoin="round"/>
<path d="M160.055 135.691C159.961 137.108 160.705 138.431 161.425 139.654C163.351 142.932 165.424 146.362 168.756 148.188C170.635 149.218 172.778 149.657 174.909 149.933" stroke="#1D1D1B" stroke-width="2" stroke-linecap="round" stroke-linejoin="round"/>
<path d="M150.266 138.606L151.759 153.819C151.8 154.241 151.847 154.674 152.022 155.06C152.619 156.371 154.364 156.605 155.805 156.535C155.483 150.857 155.155 145.18 154.833 139.502" stroke="#1D1D1B" stroke-width="2" stroke-linecap="round" stroke-linejoin="round"/>
<path d="M139.426 162.517C142.388 162.324 145.357 162.312 148.32 162.488C146.768 164.513 145.316 166.615 143.964 168.78" stroke="#1D1D1B" stroke-width="2" stroke-linecap="round" stroke-linejoin="round"/>
<path d="M167.69 162.885C165.981 162.154 164.113 161.802 162.251 161.867C161.174 161.902 159.938 162.195 159.47 163.166C159.4 163.313 159.353 163.477 159.405 163.629C159.487 163.869 159.763 163.968 160.009 164.038C162.345 164.729 164.529 165.935 166.361 167.545" stroke="#1D1D1B" stroke-width="2" stroke-linecap="round" stroke-linejoin="round"/>
<path d="M182.32 192.211C184.346 195.108 187.01 197.549 190.073 199.317" stroke="#1D1D1B" stroke-width="2" stroke-linecap="round" stroke-linejoin="round"/>
<path d="M124.943 196.057C124.527 198.878 123.391 201.594 121.676 203.871" stroke="#1D1D1B" stroke-width="2" stroke-linecap="round" stroke-linejoin="round"/>
<path d="M1.9252 25.8126C1.25186 26.6437 0.801014 27.7442 1.08792 28.7744C1.37482 29.8045 2.63367 30.5479 3.56464 30.0328C4.27897 29.6348 4.51903 28.71 4.51317 27.8905C4.51317 27.2115 4.36094 26.4857 3.88082 26.0116C3.4007 25.5375 2.50486 25.438 2.07158 25.9648" stroke="#1D1D1B" stroke-width="2" stroke-linecap="round" stroke-linejoin="round"/>
<path d="M6.12891 25.6493V29.7173" stroke="#1D1D1B" stroke-width="2" stroke-linecap="round" stroke-linejoin="round"/>
<path d="M9.22045 25.0748C8.65835 26.4269 7.52831 27.5274 6.16406 28.0659C7.44634 27.9781 8.72276 28.9087 9.02723 30.1497" stroke="#1D1D1B" stroke-width="2" stroke-linecap="round" stroke-linejoin="round"/>
<path d="M12.7814 29.5592L12.4477 25.1926C11.2415 25.1107 11.5519 24.9058 10.3516 25.0814C11.4055 25.0053 13.2089 24.9351 14.2569 24.859" stroke="#1D1D1B" stroke-width="2" stroke-linecap="round" stroke-linejoin="round"/>
<path d="M282.926 25.3503L283.289 30.0154" stroke="#1D1D1B" stroke-width="2" stroke-linecap="round" stroke-linejoin="round"/>
<path d="M282.961 27.4457L285.818 27.6388" stroke="#1D1D1B" stroke-width="2" stroke-linecap="round" stroke-linejoin="round"/>
<path d="M286.109 24.8934L286.285 29.5585" stroke="#1D1D1B" stroke-width="2" stroke-linecap="round" stroke-linejoin="round"/>
<path d="M288.991 25.7894C288.159 25.9884 287.849 27.0186 287.872 27.8674C287.896 28.8624 288.358 30.0331 289.348 30.1911C290.296 30.3433 291.11 29.4302 291.339 28.4995C291.52 27.7854 291.456 26.9659 290.999 26.3865C290.542 25.807 289.629 25.5729 289.032 26.0002" stroke="#1D1D1B" stroke-width="2" stroke-linecap="round" stroke-linejoin="round"/>
<path d="M293.519 29.4072L292.723 25.3508C292.939 24.7304 293.349 24.385 293.97 24.5958C294.59 24.8065 294.971 25.5499 294.772 26.1762C294.573 26.8025 293.829 27.1888 293.203 27.0015" stroke="#1D1D1B" stroke-width="2" stroke-linecap="round" stroke-linejoin="round"/>
<path d="M294.279 27.06C295.134 26.8083 296.234 26.6268 296.779 27.3351C297.288 28.0023 296.855 29.0442 296.129 29.4657C295.403 29.8871 294.507 29.8637 293.664 29.8286" stroke="#1D1D1B" stroke-width="2" stroke-linecap="round" stroke-linejoin="round"/>
</svg>
