<svg width="321" height="267" viewBox="0 0 321 267" fill="none" xmlns="http://www.w3.org/2000/svg">
<path d="M256.105 34.0193C244.089 50.6481 226.658 62.8548 207.332 69.4611C215.643 81.1738 225.353 93.2377 237.137 101.826C256.272 94.8505 273.53 83.0009 284.098 65.3247C273.298 56.3378 263.831 45.7559 256.111 34.0253L256.105 34.0193Z" fill="white" stroke="#1D1D1B" stroke-width="2" stroke-linecap="round" stroke-linejoin="round"/>
<path d="M217.512 70.7466C224.166 80.3405 232.81 88.5478 242.741 94.7017L217.512 70.7466Z" fill="white"/>
<path d="M217.512 70.7466C224.166 80.3405 232.81 88.5478 242.741 94.7017" stroke="#1D1D1B" stroke-width="2" stroke-linecap="round" stroke-linejoin="round"/>
<path d="M222.832 68.1339C229.337 77.3469 237.696 85.2506 247.263 91.2379L222.832 68.1339Z" fill="white"/>
<path d="M222.832 68.1339C229.337 77.3469 237.696 85.2506 247.263 91.2379" stroke="#1D1D1B" stroke-width="2" stroke-linecap="round" stroke-linejoin="round"/>
<path d="M230.125 65.5687C235.272 74.8175 243.279 82.4534 252.763 87.167L230.125 65.5687Z" fill="white"/>
<path d="M230.125 65.5687C235.272 74.8175 243.279 82.4534 252.763 87.167" stroke="#1D1D1B" stroke-width="2" stroke-linecap="round" stroke-linejoin="round"/>
<path d="M235.426 62.7834C240.603 71.1216 247.674 78.2754 255.949 83.5544L235.426 62.7834Z" fill="white"/>
<path d="M235.426 62.7834C240.603 71.1216 247.674 78.2754 255.949 83.5544" stroke="#1D1D1B" stroke-width="2" stroke-linecap="round" stroke-linejoin="round"/>
<path d="M239.691 59.4802C245.184 68.0624 253.089 75.0793 262.27 79.5133L239.691 59.4802Z" fill="white"/>
<path d="M239.691 59.4802C245.184 68.0624 253.089 75.0793 262.27 79.5133" stroke="#1D1D1B" stroke-width="2" stroke-linecap="round" stroke-linejoin="round"/>
<path d="M244.191 55.332C245.139 57.5043 246.604 59.4029 248.159 61.1883C253.527 67.378 260.056 72.5499 267.312 76.3589" fill="white"/>
<path d="M244.191 55.332C245.139 57.5043 246.604 59.4029 248.159 61.1883C253.527 67.378 260.056 72.5499 267.312 76.3589" stroke="#1D1D1B" stroke-width="2" stroke-linecap="round" stroke-linejoin="round"/>
<path d="M181.071 111.14C180.952 110.735 180.672 110.235 180.267 110.342C180.005 110.414 179.88 110.699 179.796 110.955C179.183 112.824 179.153 115.181 178.373 116.937C177.741 118.359 176.222 119.692 175.186 120.841C173.285 122.954 171.367 125.079 169.097 126.787C167.751 127.804 166.208 128.661 164.564 129.078C162.437 129.614 159.875 128.197 160.602 131.387C161.162 133.845 162.383 137.755 162.234 140.898C162.157 140.88 162.073 140.85 161.996 140.832C161.043 140.6 160.06 140.356 159.059 140.1C158.964 140.612 158.868 141.13 158.779 141.648C159.065 141.957 159.375 143.35 159.673 145.034C157.48 145.986 154.889 146.564 153.817 148.653C152.691 150.843 153.894 153.456 155.085 155.616C157.54 160.074 159.988 164.526 162.443 168.983C162.8 169.638 163.235 170.352 163.962 170.537C164.552 170.686 165.159 170.442 165.719 170.192C170.366 168.156 175.013 166.115 179.654 164.079C182.179 162.972 184.866 161.722 186.254 159.348C187.142 157.836 187.386 156.039 187.517 154.289C187.636 152.753 187.678 151.218 187.726 149.682C188.119 136.702 184.693 123.573 181.071 111.134V111.14Z" fill="white" stroke="#1D1D1B" stroke-width="2" stroke-linecap="round" stroke-linejoin="round"/>
<path d="M181.882 112.729C181.882 112.729 181.834 112.693 181.816 112.675C182.555 114.187 180.804 117.716 180.291 119.246C178.409 124.852 176.181 130.423 169.699 131.601C166.327 132.214 162.771 134.047 160.12 131.167C157.534 128.358 154.657 125.632 152.381 122.591C150.695 120.335 148.33 118.252 147.163 115.633C146.102 113.247 146.68 110.878 145.59 108.45C144.351 105.682 142.432 103.224 141.235 100.379C140.574 98.7962 139.948 97.1714 139.722 95.4693C139.162 91.1901 142.528 84.9885 145.304 81.8282C149.337 77.2395 155.527 74.6982 161.633 74.9065C167.739 75.1148 173.667 78.0073 177.759 82.5424C182.65 87.9643 183.073 95.2491 182.007 102.022C182.436 101.349 183.3 101.094 183.985 101.623C184.634 102.123 184.849 102.998 184.968 103.807C185.289 105.986 185.224 108.224 184.771 110.378C184.61 111.134 184.384 111.925 183.824 112.461C183.276 112.991 182.507 113.235 181.876 112.741L181.882 112.729Z" fill="white" stroke="#1D1D1B" stroke-width="2" stroke-linecap="round" stroke-linejoin="round"/>
<path d="M171.2 75.2751C169.342 72.2695 165.994 70.24 162.473 69.9782C158.428 69.6746 154.579 71.5494 150.677 72.6623C146.465 73.8646 142.009 74.1978 137.666 73.6324C138.721 75.4001 140.353 76.8225 142.254 77.6141C140.723 77.3879 139.162 77.3224 137.619 77.4176C139.12 78.8817 141.199 79.7447 143.296 79.7626C139.477 80.0602 136.475 83.6073 135.838 87.3806C135.2 91.1539 136.481 95.0165 138.334 98.3613C140.186 101.706 142.605 104.718 144.529 108.027C143.123 103.004 141.717 97.6411 143.266 92.6597C144.035 90.2017 145.477 88.0174 146.531 85.6665C146.531 87.6722 146.162 89.6779 145.453 91.5586C146.495 89.9993 147.538 88.434 148.58 86.8747L147.794 89.5767C151.988 88.2733 154.675 83.6549 159.006 82.8931C161.585 82.4408 164.48 83.4347 166.732 82.0956C168.496 81.0422 169.234 78.8817 169.61 76.8642C169.824 77.376 170.885 77.2629 171.206 76.8106C171.528 76.3583 171.498 75.7512 171.206 75.281L171.2 75.2751Z" fill="#1D1D1B" stroke="#1D1D1B" stroke-width="2" stroke-linecap="round" stroke-linejoin="round"/>
<path d="M171.2 89.0298C171.956 89.6666 172.755 90.2678 173.541 90.8451C176.698 93.1543 179.897 95.7789 181.768 99.2725C181.893 98.2845 181.953 97.2847 182.036 96.2967L183.537 101.064C184.199 96.7788 184.24 92.3627 183.668 88.0597C183.263 85.0125 182.531 81.9712 181.065 79.4061C179.6 76.841 177.324 74.7877 174.709 74.3115C173.97 74.1806 173.189 74.1747 172.516 74.5556C171.843 74.9365 171.319 75.7637 171.402 76.6267C170.664 76.3529 169.865 76.0732 169.121 76.3291C168.465 76.5493 168.352 77.0433 168.078 77.579C167.816 78.0848 167.667 78.4003 167.339 78.9121C166.571 80.1143 166.368 81.4534 166.738 82.8521C167.405 85.3636 169.168 87.3396 171.194 89.0477L171.2 89.0298Z" fill="#1D1D1B" stroke="#1D1D1B" stroke-width="2" stroke-linecap="round" stroke-linejoin="round"/>
<path d="M128.857 122.478C129.673 121.603 130.358 120.615 131.168 119.734C131.955 118.877 132.848 118.127 133.623 117.264C134.641 116.121 135.434 114.8 136.309 113.544C137.251 112.193 138.305 110.92 139.544 109.83C140.206 109.253 141.689 108.426 141.528 107.39C141.379 106.462 140.158 106.045 139.354 106.051C138.097 106.069 136.113 106.414 135.052 107.122C133.468 108.182 132.342 109.509 131.121 110.937C130.453 111.723 128.553 112.443 129.012 110.586C129.155 109.997 129.572 109.521 129.977 109.069C130.99 107.932 132.008 106.795 133.021 105.658C133.474 105.152 133.932 104.641 134.534 104.325C135.404 103.867 136.435 103.891 137.418 103.867C138.436 103.837 144.048 103.915 143.083 101.576C142.594 100.403 139.634 100.266 138.567 100.183C137.406 100.088 136.464 100.29 135.446 100.843C134.695 101.248 127.35 105.343 127.796 105.92C127.505 105.539 127.904 105.033 128.017 104.569C128.154 104.004 127.82 103.397 127.338 103.063C126.855 102.73 126.259 102.617 125.682 102.54C122.703 102.147 119.617 102.587 116.865 103.807C115.769 104.295 114.684 104.932 114.023 105.932C112.986 107.503 113.207 109.574 112.635 111.372C112.242 112.604 111.473 113.699 111.146 114.955C110.943 115.74 110.919 116.562 110.788 117.359C110.532 118.966 109.519 119.984 108.566 121.263C107.404 122.823 106.165 124.323 104.861 125.769C103.753 126.995 102.519 128.358 102.531 130.012C102.543 131.506 103.568 132.774 104.545 133.911C105.951 135.541 107.357 137.178 108.769 138.809C108.912 138.975 109.084 139.154 109.305 139.16C109.513 139.16 109.686 139.011 109.835 138.868C113.195 135.672 116.555 132.476 119.915 129.28C122.679 126.65 126.301 125.251 128.869 122.472L128.857 122.478Z" fill="white" stroke="#1D1D1B" stroke-width="2" stroke-linecap="round" stroke-linejoin="round"/>
<path d="M132.778 97.0824C133.385 97.38 133.993 97.6776 134.601 97.9752C134.839 98.0942 135.077 98.2073 135.268 98.3918C135.494 98.6061 135.643 98.8917 135.78 99.1715C136.674 101.005 137.341 102.939 137.764 104.933C137.812 105.159 137.859 105.397 137.806 105.629C137.693 106.111 137.144 106.397 136.65 106.355C136.156 106.313 135.715 106.034 135.327 105.724C134.583 105.123 133.951 104.385 133.475 103.552C133.242 103.147 133.028 102.695 132.617 102.469C132.152 102.219 131.586 102.332 131.068 102.254C129.591 102.028 127.494 99.4274 127.458 97.9454C127.392 95.0946 131.39 96.404 132.778 97.0824Z" fill="white" stroke="#1D1D1B" stroke-width="2" stroke-linecap="round" stroke-linejoin="round"/>
<path d="M105.276 121.947C105.371 121.834 105.478 121.715 105.621 121.674C105.842 121.614 106.062 121.751 106.247 121.882C110.488 124.852 114.736 127.828 118.978 130.797C115.254 134.16 111.9 137.921 108.975 141.998C107.956 143.421 106.985 144.885 105.871 146.236C105.639 146.516 105.335 146.819 104.978 146.777C104.734 146.748 104.543 146.563 104.364 146.391C102.351 144.385 100.361 142.29 99.0681 139.755C95.0826 131.928 100.438 127.512 105.27 121.947H105.276Z" fill="black" stroke="#1D1D1B" stroke-width="2" stroke-linecap="round" stroke-linejoin="round"/>
<path d="M124.978 96.9272C125.437 96.7368 125.943 96.5939 126.431 96.6951C126.991 96.8082 127.438 97.2129 127.861 97.6057C128.802 98.4865 129.75 99.3733 130.691 100.254C131.072 100.611 131.471 100.986 131.68 101.468C131.894 101.956 131.906 102.504 131.9 103.034C131.888 105.021 131.745 107.009 131.471 108.979C131.43 109.271 131.376 109.58 131.179 109.795C130.745 110.259 129.94 109.979 129.505 109.515C127.915 107.836 128.826 104.95 127.694 102.932C127.504 102.593 125.615 102.129 125.186 101.909C124.424 101.516 123.423 101.046 122.869 100.379C121.558 98.8079 123.614 97.4926 124.978 96.9272Z" fill="white" stroke="#1D1D1B" stroke-width="2" stroke-linecap="round" stroke-linejoin="round"/>
<path d="M114.977 104.682L119.224 100.462C119.683 100.01 120.153 99.546 120.749 99.296C122.358 98.6175 124.097 99.7067 125.741 100.284C126.278 100.474 126.85 100.617 127.278 100.986C127.678 101.331 127.904 101.831 128.118 102.313C128.559 103.307 129 104.301 129.441 105.289C129.566 105.563 129.679 105.908 129.501 106.146C129.393 106.289 129.209 106.355 129.036 106.39C128.279 106.545 127.463 106.331 126.879 105.825C126.236 105.265 125.89 104.402 125.193 103.914C124.514 103.444 123.627 103.42 122.799 103.409C122.572 103.409 122.334 103.409 122.137 103.516C121.988 103.593 121.875 103.724 121.768 103.855C120.749 105.069 119.915 106.432 119.296 107.89" fill="white"/>
<path d="M114.977 104.682L119.224 100.462C119.683 100.01 120.153 99.546 120.749 99.296C122.358 98.6175 124.097 99.7066 125.741 100.284C126.278 100.474 126.85 100.617 127.278 100.986C127.678 101.331 127.904 101.831 128.118 102.313C128.559 103.307 129 104.301 129.441 105.289C129.566 105.563 129.679 105.908 129.501 106.146C129.393 106.289 129.209 106.355 129.036 106.39C128.279 106.545 127.463 106.331 126.879 105.825C126.236 105.265 125.89 104.402 125.193 103.914C124.514 103.444 123.627 103.42 122.799 103.409C122.572 103.409 122.334 103.409 122.137 103.516C121.988 103.593 121.875 103.724 121.768 103.855C120.749 105.069 119.915 106.432 119.296 107.89" stroke="#1D1D1B" stroke-width="2" stroke-linecap="round" stroke-linejoin="round"/>
<path d="M162.699 97.0528C162.056 97.4456 161.383 97.8741 161.025 98.5347C160.668 99.1953 160.751 100.171 161.413 100.534C161.746 100.719 162.157 100.719 162.527 100.636C163.986 100.302 164.927 98.9454 166.173 98.2133C168.544 96.8206 171.284 96.7849 173.768 95.8446C173.935 95.7791 174.12 95.6958 174.167 95.5232C174.263 95.2197 173.869 94.9995 173.56 94.928C169.247 93.8925 166.298 94.8388 162.699 97.0528Z" fill="#1D1D1B"/>
<path d="M193.787 142.338C192.494 141.457 191.058 140.82 189.629 140.195C188.985 139.916 188.276 139.624 187.603 139.826C186.298 140.207 186.144 141.933 185.726 143.225C185.584 143.671 185.375 144.094 185.137 144.492C185.935 144.361 186.727 144.219 187.496 144.052C189.521 143.617 191.66 142.772 193.793 142.344L193.787 142.338Z" fill="white" stroke="#1D1D1B" stroke-width="2" stroke-linecap="round" stroke-linejoin="round"/>
<path d="M99.6717 177.143C102.65 172.673 102.591 166.924 103.895 161.716C104.753 158.288 106.129 154.818 107.917 151.783C109.305 149.42 109.924 146.998 110.949 144.427C111.938 141.939 113.969 137.654 112.289 135.065C111.866 134.41 111.241 133.91 110.627 133.428C107.94 131.333 105.123 129.405 102.198 127.655C98.8853 125.679 96.6275 129.542 94.4947 131.762C90.694 135.714 87.2685 139.844 84.1647 144.355C78.7912 152.158 73.6083 160.193 70.9334 169.412C69.3369 174.899 65.7982 185.886 72.0356 189.718C79.1069 194.063 89.3118 190.754 96.6215 188.742C107.13 185.856 116.68 180.648 127.01 177.357C128.118 177.006 129.333 176.655 130.417 177.089C131.311 190.129 130.656 203.538 129.012 216.513C128.035 224.22 126.76 231.886 125.818 239.593C125.104 245.467 124.234 252.049 130.936 254.382C138.347 256.96 145.758 260.245 153.3 262.661C168.247 267.452 183.879 266.684 198.921 262.905C202.37 262.036 205.891 260.894 208.5 258.447C212.045 255.132 213.296 250.044 214.178 245.235C216.966 229.993 217.722 214.483 218.735 199.039C219.241 191.314 219.807 183.588 220.731 175.899C221.315 171.042 223.441 161.502 220.707 157.116C220.195 156.294 215.59 152.045 214.887 151.39C209.442 146.272 200.803 141.707 193.077 140.987C192.022 140.892 194.143 140.767 193.077 140.987C190.95 141.421 188.829 142.272 186.816 142.719C186.053 142.885 185.267 143.028 184.468 143.165C183.986 143.986 183.343 144.724 182.693 145.427C177.415 151.122 170.951 155.604 165.81 161.425C163.433 158.532 161.014 154.753 160.234 151.015C160.014 149.962 159.037 141.154 158.268 140.297C158.363 139.773 158.453 139.249 158.548 138.731C146.234 135.565 135.612 136.571 124.412 143.046C118.58 146.415 112.748 149.783 106.981 153.271C107.512 152.95 107.976 152.348 108.381 151.599M158.709 141.588C158.709 141.588 158.661 141.57 158.643 141.576C158.667 141.576 158.691 141.576 158.709 141.588Z" fill="white"/>
<path d="M99.6717 177.143C102.65 172.673 102.591 166.924 103.895 161.716C104.753 158.288 106.129 154.818 107.917 151.783C109.305 149.42 109.924 146.998 110.949 144.427C111.938 141.939 113.969 137.654 112.289 135.065C111.866 134.41 111.241 133.91 110.627 133.428C107.94 131.333 105.123 129.405 102.198 127.655C98.8853 125.679 96.6275 129.542 94.4947 131.762C90.6939 135.714 87.2685 139.844 84.1647 144.355C78.7912 152.158 73.6083 160.193 70.9334 169.412C69.3369 174.899 65.7982 185.886 72.0356 189.718C79.1069 194.063 89.3118 190.754 96.6215 188.742C107.13 185.856 116.68 180.648 127.01 177.357C128.118 177.006 129.333 176.655 130.417 177.089C131.311 190.129 130.656 203.538 129.012 216.513C128.035 224.22 126.76 231.886 125.818 239.593C125.104 245.467 124.234 252.049 130.936 254.382C138.347 256.96 145.758 260.245 153.3 262.661C168.247 267.452 183.879 266.684 198.921 262.905C202.37 262.036 205.891 260.894 208.5 258.447C212.045 255.132 213.296 250.044 214.178 245.235C216.966 229.993 217.722 214.483 218.735 199.039C219.241 191.314 219.807 183.588 220.731 175.899C221.315 171.042 223.441 161.502 220.707 157.116C220.195 156.294 215.59 152.045 214.887 151.39C209.442 146.272 200.803 141.707 193.077 140.987C192.022 140.892 194.143 140.767 193.077 140.987C190.95 141.421 188.829 142.272 186.816 142.719C186.053 142.885 185.267 143.028 184.468 143.165C183.986 143.986 183.343 144.724 182.693 145.427C177.415 151.122 170.951 155.604 165.81 161.425C163.433 158.532 161.014 154.753 160.234 151.015C160.014 149.962 159.037 141.154 158.268 140.297C158.363 139.773 158.453 139.249 158.548 138.731C146.234 135.565 135.612 136.571 124.412 143.046C118.58 146.415 112.748 149.783 106.981 153.271C107.512 152.95 107.976 152.348 108.381 151.599M158.709 141.588C158.709 141.588 158.661 141.57 158.643 141.576C158.667 141.576 158.691 141.576 158.709 141.588Z" stroke="#1D1D1B" stroke-width="2" stroke-linecap="round" stroke-linejoin="round"/>
<path d="M148.611 100.873C147.646 101.046 146.693 101.26 145.752 101.54C144.894 101.796 144 102.159 143.494 102.903C143.381 103.069 143.291 103.278 143.369 103.462C143.488 103.736 143.869 103.736 144.161 103.694C145.621 103.492 147.092 103.325 148.558 103.2C149.624 103.111 151.644 103.385 152.561 102.796C155.54 100.879 149.636 100.689 148.605 100.873H148.611Z" fill="#1D1D1B"/>
<path d="M140.587 105.634C140.301 104.396 140.622 103.254 142.118 102.539C143.256 101.998 144.572 102.075 145.829 102.129C149.898 102.313 154.896 102.462 158.733 100.849C161.986 99.4802 164.857 97.3257 168.157 96.058C171.785 94.6654 175.723 95.3081 179.488 95.8676C180.674 96.0461 181.913 96.2723 182.86 97.0103C183.557 97.5578 185.011 100.313 183.688 100.867C183.325 101.022 181.704 100.194 181.085 100.23C179.947 100.302 178.869 100.92 177.975 101.587C176.337 102.807 175.038 104.414 173.483 105.735C172.047 106.955 170.409 107.914 168.688 108.681C166.692 109.574 164.279 110.187 162.397 109.074C161.568 108.586 160.949 107.812 160.204 107.205C159.46 106.598 158.471 106.128 157.553 106.414C156.129 106.86 155.808 108.663 155.146 110.003C153.044 114.252 147.378 113.919 144.358 111.122C143.184 110.038 141.045 107.699 140.575 105.64L140.587 105.634Z" fill="white" stroke="#1D1D1B" stroke-width="2" stroke-linecap="round" stroke-linejoin="round"/>
<path d="M157.582 113.026C156.975 113.936 157.195 115.305 158.059 115.978C159.018 116.728 160.382 116.555 161.586 116.347" stroke="#1D1D1B" stroke-width="2" stroke-linecap="round" stroke-linejoin="round"/>
<path d="M155.766 121.031C158.536 121.829 160.782 121.115 163.421 120.186C166.221 119.204 169.479 118.056 171.755 116.103" stroke="#1D1D1B" stroke-width="2" stroke-linecap="round" stroke-linejoin="round"/>
<path d="M162.962 100.45C162.706 100.593 162.48 100.712 162.301 100.807C161.878 101.027 161.455 101.266 161.145 101.623C159.96 103.003 162.229 106.211 163.469 106.943C165.423 108.104 167.662 107.08 169.479 106.158C171.523 105.128 173.614 103.664 174.525 101.48C176.545 96.6233 172.13 96.7007 168.747 97.6648C166.441 98.3195 165.023 99.3194 162.962 100.45Z" fill="#1D1D1B"/>
<path d="M152.662 104.004C153.407 104.236 153.603 104.778 153.538 105.938C153.448 107.551 153.365 110.836 151.095 111.009C148.522 111.205 145.882 110.265 144.054 108.498C143.529 107.992 143.059 107.408 142.814 106.73C142.129 104.825 144.465 104.236 145.912 104.058C147.801 103.82 149.713 103.784 151.613 103.861C152.042 103.879 152.388 103.921 152.656 104.01L152.662 104.004Z" fill="#1D1D1B"/>
<path d="M158.695 122.287C160.709 124.643 163.592 124.786 166.261 123.423C168.763 122.144 169.752 119.757 170.646 117.246" stroke="#1D1D1B" stroke-width="2" stroke-linecap="round" stroke-linejoin="round"/>
<path d="M157.626 134.857C157.375 134.708 157.107 134.547 156.815 134.559C156.44 134.571 156.136 134.857 155.868 135.124C150.578 140.499 145.89 146.468 141.91 152.872C145.103 151.664 148.296 150.456 151.49 149.247C151.942 149.075 152.419 148.902 152.895 148.992C153.36 149.081 153.741 149.402 154.087 149.724C157.363 152.771 159.931 156.729 163.911 158.782C163.029 158.33 162.743 152.568 162.606 151.533C162.29 149.033 162.1 146.522 162.04 144.004C161.998 142.266 162.576 139.677 161.837 138.047C161.146 136.517 158.966 135.672 157.62 134.857H157.626Z" fill="black" stroke="#1D1D1B" stroke-width="2" stroke-linecap="round" stroke-linejoin="round"/>
<path d="M181.287 147.266C184.498 143.01 186.845 137.922 186.959 132.595C189.955 135.136 193.965 137.612 196.449 140.641C198.772 143.474 198.021 148.974 197.324 152.241C196.878 154.33 196.187 156.36 195.257 158.282C194.959 158.901 192.076 162.841 192.195 163.144C191.272 160.776 189.985 158.544 188.412 156.55C187.364 155.223 185.332 152.33 183.521 152.086C181.615 151.83 178.69 154.669 177.093 155.586C174.949 156.818 172.673 157.967 170.23 158.461C173.513 154.419 178.082 151.509 181.287 147.266Z" fill="black" stroke="#1D1D1B" stroke-width="2" stroke-linecap="round" stroke-linejoin="round"/>
<path d="M140.85 194.272C158.889 189.189 176.731 183.404 194.323 176.947C197.158 184.053 199.762 191.26 202.121 198.539C202.401 199.396 202.651 200.408 202.121 201.14C201.823 201.557 201.335 201.777 200.864 201.985C196.783 203.759 192.553 205.181 188.467 206.943C180.007 210.585 171.971 215.698 162.862 217.055C160.157 217.459 157.411 217.513 154.677 217.572C153.61 217.596 152.508 217.614 151.513 217.215C148.225 215.906 148.124 211.288 146.831 208.496C144.668 203.842 142.834 198.998 140.844 194.266L140.85 194.272Z" fill="white" stroke="#1D1D1B" stroke-width="2" stroke-linecap="round" stroke-linejoin="round"/>
<path d="M141.374 204.425L201.561 182.922C202.258 182.648 203.044 182.993 203.318 183.69L219.397 224.631C219.671 225.327 219.325 226.113 218.628 226.386L157.816 250.222C157.119 250.496 156.332 250.151 156.058 249.455L139.98 208.514C139.253 207.002 139.831 205.044 141.368 204.419L141.374 204.425Z" fill="white" stroke="#1D1D1B" stroke-width="2" stroke-linecap="round" stroke-linejoin="round"/>
<path d="M150.897 185.797C154.972 185.874 159.101 185.945 163.074 185.041C165.445 184.499 167.727 183.624 170.098 183.101C172.135 182.654 174.22 182.47 176.293 182.214C179.814 181.779 183.305 181.119 186.79 180.464C190.948 179.678 195.107 178.899 199.265 178.113C200.635 185.463 201.672 192.873 202.363 200.318C192.861 202.158 183.68 205.675 174.047 206.627C170.282 207.002 166.494 206.978 162.723 207.175C160.786 207.276 158.85 207.425 156.932 207.716C155.782 207.895 153.078 209.038 151.999 208.46C149.831 207.3 150.975 200.402 150.963 198.36L150.897 185.797Z" fill="white" stroke="#1D1D1B" stroke-width="2" stroke-linecap="round" stroke-linejoin="round"/>
<path d="M202.739 180.175L141.929 204.008C141.23 204.281 140.886 205.069 141.16 205.766L157.236 246.705C157.51 247.403 158.298 247.747 158.996 247.473L219.807 223.64C220.505 223.366 220.849 222.579 220.575 221.881L204.499 180.943C204.225 180.245 203.437 179.901 202.739 180.175Z" fill="white" stroke="#1D1D1B" stroke-width="2" stroke-linecap="round" stroke-linejoin="round"/>
<path d="M161.641 233.154C161.921 233.802 162.189 234.397 162.409 234.897C162.582 235.29 162.761 235.713 162.671 236.129C162.558 236.629 162.094 236.963 161.659 237.242C160.187 238.201 158.793 239.314 157.268 240.188C155.249 241.343 150.918 241.129 152.764 244.581C153.211 245.42 153.837 246.194 153.998 247.134C154.373 249.282 154.081 250.633 155.54 252.431C156.857 254.056 157.518 254.127 158.251 256.323C160.688 263.638 172.048 254.74 175.337 252.794C178.792 250.752 182.241 248.711 185.697 246.67C186.137 246.408 186.608 246.116 186.828 245.652C187.037 245.212 186.977 244.694 186.9 244.212C186.495 241.623 185.732 239.093 184.642 236.719C184.428 236.254 184.195 235.784 183.79 235.469C183.218 235.022 182.438 234.993 181.711 234.993C177.076 234.993 172.382 235.344 168.605 232.082C166.389 230.166 165.156 227.875 163.499 225.667C161.962 223.613 160.259 223.685 159.871 226.143C159.568 228.065 160.67 230.928 161.635 233.154H161.641Z" fill="white" stroke="#1D1D1B" stroke-width="2" stroke-linecap="round" stroke-linejoin="round"/>
<path d="M178.545 233.338C178.712 234.076 178.885 234.82 179.051 235.558C180.016 239.766 181.035 244.098 183.555 247.598C183.698 247.794 183.853 247.991 184.073 248.086C184.24 248.157 184.425 248.151 184.604 248.151C190.549 248.003 195.893 244.539 200.361 240.623C198.734 238.748 197.114 236.867 195.488 234.992C194.088 233.38 192.557 230.785 190.71 229.69C189.036 228.696 186.891 229.969 185.271 230.582C183.007 231.445 180.761 232.362 178.539 233.338H178.545Z" fill="black" stroke="#1D1D1B" stroke-width="2" stroke-linecap="round" stroke-linejoin="round"/>
<path d="M200.368 175.774C204.228 186.028 212.098 200.675 217.823 210.019C216.274 210.531 214.743 211.085 213.236 211.71C202.953 215.947 194.214 223.339 185.355 229.832C187.506 234.337 189.258 240.843 192.367 244.717C195.316 248.395 202.542 245.991 206.48 245.044C217.364 242.42 227.873 238.266 237.613 232.748C244.357 228.922 251.244 223.702 252.828 216.114C252.852 216.001 252.87 215.888 252.888 215.774C253.746 213.733 254.008 211.4 253.722 208.877C253.466 206.615 252.31 204.568 251.178 202.592C247.514 196.2 243.052 190.409 239.222 184.195C235.338 177.899 227.915 160.437 210.489 147.885" fill="white"/>
<path d="M200.368 175.774C204.228 186.028 212.098 200.675 217.823 210.019C216.274 210.531 214.743 211.085 213.236 211.71C202.953 215.947 194.214 223.339 185.355 229.832C187.506 234.337 189.258 240.843 192.367 244.717C195.316 248.395 202.542 245.991 206.48 245.044C217.364 242.42 227.873 238.266 237.613 232.748C244.357 228.922 251.244 223.702 252.828 216.114C252.852 216.001 252.87 215.888 252.888 215.774C253.746 213.733 254.008 211.4 253.722 208.877C253.466 206.615 252.31 204.568 251.178 202.592C247.514 196.2 243.052 190.409 239.222 184.195C235.338 177.899 227.915 160.437 210.489 147.885" stroke="#1D1D1B" stroke-width="2" stroke-linecap="round" stroke-linejoin="round"/>
<path d="M179.41 211.15C181.06 213.638 184.021 214.929 186.97 214.447C184.479 216.096 183.187 219.054 183.669 222C182.019 219.512 179.058 218.221 176.109 218.703C178.6 217.054 179.892 214.096 179.41 211.15Z" stroke="#1D1D1B" stroke-width="2" stroke-linecap="round" stroke-linejoin="round"/>
<path d="M180.639 102.992C180.782 101.962 181.318 101.022 181.944 100.189C182.498 99.4508 183.255 98.7188 184.178 98.7545C185.089 98.7902 185.816 99.6056 186.054 100.48C186.293 101.355 186.15 102.29 186.001 103.188C185.626 105.498 185.256 107.807 184.881 110.116C184.744 110.949 184.601 111.806 184.124 112.503C183.648 113.199 182.748 113.681 181.956 113.401C181.152 113.116 180.77 112.217 180.484 111.414" fill="white"/>
<path d="M180.639 102.992C180.782 101.962 181.318 101.022 181.944 100.189C182.498 99.4508 183.255 98.7188 184.178 98.7545C185.089 98.7902 185.816 99.6056 186.054 100.48C186.293 101.355 186.15 102.29 186.001 103.188C185.626 105.498 185.256 107.807 184.881 110.116C184.744 110.949 184.601 111.806 184.124 112.503C183.648 113.199 182.748 113.681 181.956 113.401C181.152 113.116 180.77 112.217 180.484 111.414" stroke="#1D1D1B" stroke-width="2" stroke-linecap="round" stroke-linejoin="round"/>
<path d="M172.016 113.14C172.611 113.348 173.219 113.562 173.708 113.955C174.196 114.348 174.565 114.955 174.494 115.58" stroke="#1D1D1B" stroke-width="2" stroke-linecap="round" stroke-linejoin="round"/>
<path d="M164.039 126.822C164.974 126.358 166.005 126.072 167.048 125.995" stroke="#1D1D1B" stroke-width="2" stroke-linecap="round" stroke-linejoin="round"/>
<path d="M244.136 80.7924C235.963 83.9288 227.688 86.8035 219.33 89.4162C215.196 90.7077 211.043 91.9337 206.873 93.0943C204.883 93.6478 202.542 94.3322 200.332 94.7488C202.643 117.317 215.404 139.612 233.526 154.098C249.176 147.135 263.921 138.13 277.247 127.375C259.56 118.418 246.775 100.427 244.13 80.7983L244.136 80.7924Z" fill="white" stroke="#1D1D1B" stroke-width="2" stroke-linecap="round" stroke-linejoin="round"/>
<path d="M208.094 100.986C219.198 99.5636 229.999 95.832 239.608 90.1066L208.094 100.986Z" fill="white"/>
<path d="M208.094 100.986C219.198 99.5636 229.999 95.832 239.608 90.1066" stroke="#1D1D1B" stroke-width="2" stroke-linecap="round" stroke-linejoin="round"/>
<path d="M210.07 106.741C221.282 104.759 232.148 100.843 242.049 95.225L210.07 106.741Z" fill="white"/>
<path d="M210.07 106.741C221.282 104.759 232.148 100.843 242.049 95.225" stroke="#1D1D1B" stroke-width="2" stroke-linecap="round" stroke-linejoin="round"/>
<path d="M211.973 112.562C223.238 110.521 234.134 106.45 243.981 100.611L211.973 112.562Z" fill="white"/>
<path d="M211.973 112.562C223.238 110.521 234.134 106.45 243.981 100.611" stroke="#1D1D1B" stroke-width="2" stroke-linecap="round" stroke-linejoin="round"/>
<path d="M214.57 119.365C225.883 116.353 236.779 111.77 246.841 105.783L214.57 119.365Z" fill="white"/>
<path d="M214.57 119.365C225.883 116.353 236.779 111.77 246.841 105.783" stroke="#1D1D1B" stroke-width="2" stroke-linecap="round" stroke-linejoin="round"/>
<path d="M216.543 125.905C227.868 121.93 238.752 116.686 248.909 110.3L216.543 125.905Z" fill="white"/>
<path d="M216.543 125.905C227.868 121.93 238.752 116.686 248.909 110.3" stroke="#1D1D1B" stroke-width="2" stroke-linecap="round" stroke-linejoin="round"/>
<path d="M219.48 131.488C230.43 126.965 241.082 121.715 251.346 115.8L219.48 131.488Z" fill="white"/>
<path d="M219.48 131.488C230.43 126.965 241.082 121.715 251.346 115.8" stroke="#1D1D1B" stroke-width="2" stroke-linecap="round" stroke-linejoin="round"/>
<path d="M223.852 135.791C234.986 131.304 245.632 125.614 255.545 118.841L223.852 135.791Z" fill="white"/>
<path d="M223.852 135.791C234.986 131.304 245.632 125.614 255.545 118.841" stroke="#1D1D1B" stroke-width="2" stroke-linecap="round" stroke-linejoin="round"/>
<path d="M226.883 140.903C238.38 136.868 249.133 130.738 258.463 122.9L226.883 140.903Z" fill="white"/>
<path d="M226.883 140.903C238.38 136.868 249.133 130.738 258.463 122.9" stroke="#1D1D1B" stroke-width="2" stroke-linecap="round" stroke-linejoin="round"/>
<path d="M232.723 144.956C243.291 140.886 253.204 135.124 261.967 127.953L232.723 144.956Z" fill="white"/>
<path d="M232.723 144.956C243.291 140.886 253.204 135.124 261.967 127.953" stroke="#1D1D1B" stroke-width="2" stroke-linecap="round" stroke-linejoin="round"/>
<path d="M109.233 58.492C93.6308 50.4335 79.1128 35.7331 68.7768 21.36C56.4034 30.0136 43.5534 37.953 30.3281 44.9878C42.0641 62.3248 57.6068 77.418 75.2405 89.1188C88.6505 80.8045 101.167 72.127 109.233 58.4979V58.492Z" fill="white" stroke="#1D1D1B" stroke-width="2" stroke-linecap="round" stroke-linejoin="round"/>
<path d="M41.0078 48.8683C50.4502 43.5357 59.6602 37.7805 68.5843 31.6265" stroke="#1D1D1B" stroke-width="2" stroke-linecap="round" stroke-linejoin="round"/>
<path d="M43.5234 53.7304C53.6807 48.6597 63.3554 42.6307 72.3868 35.7567" stroke="#1D1D1B" stroke-width="2" stroke-linecap="round" stroke-linejoin="round"/>
<path d="M48.4453 57.6404C57.5541 52.2304 66.4603 46.4872 75.1461 40.4225" stroke="#1D1D1B" stroke-width="2" stroke-linecap="round" stroke-linejoin="round"/>
<path d="M51.9453 61.688C60.9171 56.522 69.591 50.8263 77.8955 44.6486" stroke="#1D1D1B" stroke-width="2" stroke-linecap="round" stroke-linejoin="round"/>
<path d="M54.7422 65.9488C64.2918 60.8126 73.3589 54.7776 81.7766 47.9512" stroke="#1D1D1B" stroke-width="2" stroke-linecap="round" stroke-linejoin="round"/>
<path d="M59.793 69.3712C68.872 64.0922 77.5399 58.1168 85.7074 51.5165" stroke="#1D1D1B" stroke-width="2" stroke-linecap="round" stroke-linejoin="round"/>
<path d="M76.4964 148.194C66.494 159.561 55.0023 169.53 41.0859 175.512C51.267 192.98 54.621 214.286 50.7964 234.147C66.9408 231.665 81.7329 224.059 94.7735 214.024C96.2867 190.825 89.9361 166.888 76.4904 148.188L76.4964 148.194Z" fill="white" stroke="#1D1D1B" stroke-width="2" stroke-linecap="round" stroke-linejoin="round"/>
<path d="M49.2969 179.178C58.7631 173.762 67.58 167.216 75.4973 159.717" stroke="#1D1D1B" stroke-width="2" stroke-linecap="round" stroke-linejoin="round"/>
<path d="M50.1484 184.838C57.5177 180.678 64.6784 176.149 71.5889 171.268C74.3769 169.298 77.1888 167.203 79.0058 164.317" stroke="#1D1D1B" stroke-width="2" stroke-linecap="round" stroke-linejoin="round"/>
<path d="M52.4492 189.576C57.4057 186.856 62.3027 184.041 67.146 181.131C71.9833 178.22 76.8326 175.155 80.6036 170.953" stroke="#1D1D1B" stroke-width="2" stroke-linecap="round" stroke-linejoin="round"/>
<path d="M53.7461 195.468C64.6421 190.612 74.7517 184.011 83.5805 176.001" stroke="#1D1D1B" stroke-width="2" stroke-linecap="round" stroke-linejoin="round"/>
<path d="M55.9609 201.307C67.2858 196.629 77.8125 190.028 86.957 181.881" stroke="#1D1D1B" stroke-width="2" stroke-linecap="round" stroke-linejoin="round"/>
<path d="M57.668 206.591C69.0941 201.735 79.7995 195.2 89.3431 187.26" stroke="#1D1D1B" stroke-width="2" stroke-linecap="round" stroke-linejoin="round"/>
<path d="M56.9453 212.4C68.2226 208.299 78.773 202.211 87.9652 194.503" stroke="#1D1D1B" stroke-width="2" stroke-linecap="round" stroke-linejoin="round"/>
<path d="M57.7148 218.703C68.9385 214.316 80.6029 209.115 89.8904 201.294" stroke="#1D1D1B" stroke-width="2" stroke-linecap="round" stroke-linejoin="round"/>
<path d="M57.875 226.19C69.3846 221.971 80.3223 216.204 90.3068 209.103" stroke="#1D1D1B" stroke-width="2" stroke-linecap="round" stroke-linejoin="round"/>
<path d="M94.6688 63.0982C94.6688 63.0982 90.4725 90.5931 67.875 108.081L90.2948 118.096C90.2948 118.096 113.637 98.2507 116.547 75.4806L94.6688 63.0982Z" fill="white" stroke="#1D1D1B" stroke-width="2" stroke-linecap="round" stroke-linejoin="round"/>
<path d="M110.421 77.1457L99.2621 71.1109C99.2621 71.1109 98.7968 74.8383 95.6749 72.6238C95.6749 72.6238 89.6089 92.9597 78.4244 103.204C78.4244 103.204 80.8186 104.108 78.0859 106.948L88.0184 111.639C88.0184 111.639 89.3805 107.506 92.5869 110.878C92.5869 110.878 107.596 96.2814 111.614 81.2197C111.614 81.2197 108.137 80.3491 110.421 77.1457Z" fill="white" stroke="#1D1D1B" stroke-width="2" stroke-linecap="round" stroke-linejoin="round"/>
<path d="M87.8235 106.052C88.8048 106.052 89.6002 105.257 89.6002 104.277C89.6002 103.297 88.8048 102.502 87.8235 102.502C86.8423 102.502 86.0469 103.297 86.0469 104.277C86.0469 105.257 86.8423 106.052 87.8235 106.052Z" fill="white" stroke="#1D1D1B" stroke-width="2" stroke-linecap="round" stroke-linejoin="round"/>
<path d="M102.628 82.0141C103.609 82.0141 104.405 81.2195 104.405 80.2392C104.405 79.2589 103.609 78.4642 102.628 78.4642C101.647 78.4642 100.852 79.2589 100.852 80.2392C100.852 81.2195 101.647 82.0141 102.628 82.0141Z" fill="white" stroke="#1D1D1B" stroke-width="2" stroke-linecap="round" stroke-linejoin="round"/>
<path d="M95.8947 101.505C100.404 101.505 104.059 97.8531 104.059 93.3485C104.059 88.8439 100.404 85.1921 95.8947 85.1921C91.3857 85.1921 87.7305 88.8439 87.7305 93.3485C87.7305 97.8531 91.3857 101.505 95.8947 101.505Z" fill="white" stroke="#1D1D1B" stroke-width="2" stroke-linecap="round" stroke-linejoin="round"/>
<path d="M217.77 184.826C217.77 184.826 245.539 177.625 253.283 148.035L272.116 169.301C272.116 169.301 257.734 200.973 232.67 204.711L217.778 184.826H217.77Z" fill="white" stroke="#1D1D1B" stroke-width="2" stroke-linecap="round" stroke-linejoin="round"/>
<path d="M252.469 160.123C252.598 160.209 252.399 159.968 252.469 160.123C253.411 162.333 256.487 161.781 257.317 160.261C257.464 159.994 257.836 159.95 258.043 160.183L266.375 169.12C263.289 170.674 264.534 173.55 264.629 173.576C261.673 179.145 252.175 194.842 237.525 198.434C237.655 197.45 237.378 196.543 236.41 196.163C235.442 195.783 234.483 196.111 233.887 196.837L227.586 188.28C228.001 188.038 228.347 187.667 228.537 187.183C228.9 186.26 228.589 185.249 227.854 184.662C233.264 182.599 247.447 172.539 252.469 160.114V160.123Z" fill="white" stroke="#1D1D1B" stroke-width="2" stroke-linecap="round" stroke-linejoin="round"/>
<path d="M257.317 172.315C258.377 172.315 259.236 171.457 259.236 170.398C259.236 169.339 258.377 168.481 257.317 168.481C256.257 168.481 255.398 169.339 255.398 170.398C255.398 171.457 256.257 172.315 257.317 172.315Z" fill="white" stroke="#1D1D1B" stroke-width="2" stroke-linecap="round" stroke-linejoin="round"/>
<path d="M237.059 191.993C238.119 191.993 238.978 191.135 238.978 190.076C238.978 189.017 238.119 188.159 237.059 188.159C236 188.159 235.141 189.017 235.141 190.076C235.141 191.135 236 191.993 237.059 191.993Z" fill="white" stroke="#1D1D1B" stroke-width="2" stroke-linecap="round" stroke-linejoin="round"/>
<path d="M249.126 189.368C253.756 189.368 257.509 185.618 257.509 180.993C257.509 176.367 253.756 172.617 249.126 172.617C244.496 172.617 240.742 176.367 240.742 180.993C240.742 185.618 244.496 189.368 249.126 189.368Z" fill="white" stroke="#1D1D1B" stroke-width="2" stroke-linecap="round" stroke-linejoin="round"/>
<path d="M216.121 45.2019C216.121 45.2019 187.071 46.059 171.146 19.4778L158.871 45.4992C158.871 45.4992 181.845 72.2291 207.278 68.7654L216.121 45.2106V45.2019Z" fill="white" stroke="#1D1D1B" stroke-width="2" stroke-linecap="round" stroke-linejoin="round"/>
<path d="M175.357 31.006C175.252 31.1284 175.374 30.8398 175.357 31.006C175.068 33.4201 171.916 33.7612 170.682 32.5192C170.463 32.3005 170.086 32.3705 169.955 32.6504L164.387 43.6974C167.836 44.3359 167.434 47.4848 167.355 47.5372C171.811 52.1205 185.495 64.6982 200.764 64.0335C200.362 63.1151 200.37 62.153 201.202 61.5057C202.034 60.8584 203.067 60.9022 203.846 61.4532L207.55 51.342C207.077 51.2283 206.639 50.9659 206.315 50.5461C205.702 49.7501 205.711 48.683 206.263 47.8958C200.414 47.4235 183.771 41.6507 175.357 30.9972V31.006Z" fill="white" stroke="#1D1D1B" stroke-width="2" stroke-linecap="round" stroke-linejoin="round"/>
<path d="M173.561 44.3097C174.634 44.3097 175.504 43.4404 175.504 42.368C175.504 41.2956 174.634 40.4262 173.561 40.4262C172.487 40.4262 171.617 41.2956 171.617 42.368C171.617 43.4404 172.487 44.3097 173.561 44.3097Z" fill="white" stroke="#1D1D1B" stroke-width="2" stroke-linecap="round" stroke-linejoin="round"/>
<path d="M198.846 57.7096C199.919 57.7096 200.79 56.8403 200.79 55.7679C200.79 54.6955 199.919 53.8261 198.846 53.8261C197.773 53.8261 196.902 54.6955 196.902 55.7679C196.902 56.8403 197.773 57.7096 198.846 57.7096Z" fill="white" stroke="#1D1D1B" stroke-width="2" stroke-linecap="round" stroke-linejoin="round"/>
<path d="M184.532 58.838C189.222 58.838 193.024 55.0394 193.024 50.3537C193.024 45.6679 189.222 41.8694 184.532 41.8694C179.841 41.8694 176.039 45.6679 176.039 50.3537C176.039 55.0394 179.841 58.838 184.532 58.838Z" fill="white" stroke="#1D1D1B" stroke-width="2" stroke-linecap="round" stroke-linejoin="round"/>
<path d="M142.09 1C142.09 1 136.189 27.9667 107.973 36.5065L129.164 53.819C129.164 53.819 159.136 38.8182 161.8 14.579L142.09 1Z" fill="white" stroke="#1D1D1B" stroke-width="2" stroke-linecap="round" stroke-linejoin="round"/>
<path d="M119.585 35.2842C119.677 35.4089 119.436 35.226 119.585 35.2842C121.75 36.1074 121.333 39.0926 119.902 39.9408C119.644 40.0905 119.627 40.448 119.852 40.6393L128.766 48.3143C130.148 45.2876 132.969 46.3852 132.994 46.4683C138.255 43.4166 153.02 33.7043 155.934 19.485C154.993 19.6513 154.103 19.4185 153.703 18.5038C153.303 17.5891 153.578 16.6495 154.261 16.0591L145.779 10.3215C145.563 10.729 145.221 11.0782 144.764 11.2778C143.89 11.6603 142.899 11.4025 142.308 10.7124C140.519 15.9926 131.363 30.004 119.577 35.2925L119.585 35.2842Z" fill="white" stroke="#1D1D1B" stroke-width="2" stroke-linecap="round" stroke-linejoin="round"/>
<path d="M129.664 41.4043C130.685 41.4043 131.512 40.5778 131.512 39.5583C131.512 38.5388 130.685 37.7123 129.664 37.7123C128.644 37.7123 127.816 38.5388 127.816 39.5583C127.816 40.5778 128.644 41.4043 129.664 41.4043Z" fill="white" stroke="#1D1D1B" stroke-width="2" stroke-linecap="round" stroke-linejoin="round"/>
<path d="M147.86 21.1979C148.88 21.1979 149.707 20.3714 149.707 19.3519C149.707 18.3324 148.88 17.5059 147.86 17.5059C146.839 17.5059 146.012 18.3324 146.012 19.3519C146.012 20.3714 146.839 21.1979 147.86 21.1979Z" fill="white" stroke="#1D1D1B" stroke-width="2" stroke-linecap="round" stroke-linejoin="round"/>
<path d="M139.55 39.3587C144.009 39.3587 147.624 35.7475 147.624 31.2928C147.624 26.8381 144.009 23.2269 139.55 23.2269C135.091 23.2269 131.477 26.8381 131.477 31.2928C131.477 35.7475 135.091 39.3587 139.55 39.3587Z" fill="white" stroke="#1D1D1B" stroke-width="2" stroke-linecap="round" stroke-linejoin="round"/>
<path d="M225.199 209.103C223.739 208.455 222.041 208.532 220.51 208.99C218.979 209.448 217.591 210.264 216.215 211.073C217.537 208.205 220.492 205.086 223.56 204.33" stroke="#1D1D1B" stroke-width="2" stroke-linecap="round" stroke-linejoin="round"/>
<path d="M277.477 83.6064C277.477 83.6064 299.304 99.4539 295.901 128.036L319.686 115.87C319.686 115.87 317.988 83.1838 297.339 71.3022L277.477 83.6145V83.6064Z" fill="white" stroke="#1D1D1B" stroke-width="2" stroke-linecap="round" stroke-linejoin="round"/>
<path d="M299.353 117.171C299.499 117.138 299.247 117.284 299.353 117.171C300.937 115.562 303.439 117.098 303.65 118.715C303.691 118.999 304 119.162 304.259 119.032L314.625 114.066C312.456 111.636 314.536 109.548 314.625 109.564C313.951 103.664 311.043 86.654 299.45 78.4783C299.231 79.3885 298.671 80.0875 297.696 80.0875C296.721 80.0875 295.99 79.4698 295.722 78.6246L287.265 83.9559C287.541 84.3135 287.72 84.7523 287.72 85.2399C287.72 86.1745 287.103 86.9547 286.258 87.2148C290.287 90.88 299.239 104.566 299.361 117.171H299.353Z" fill="white" stroke="#1D1D1B" stroke-width="2" stroke-linecap="round" stroke-linejoin="round"/>
<path d="M307.12 111.636C308.116 111.636 308.923 110.828 308.923 109.832C308.923 108.836 308.116 108.028 307.12 108.028C306.124 108.028 305.316 108.836 305.316 109.832C305.316 110.828 306.124 111.636 307.12 111.636Z" fill="white" stroke="#1D1D1B" stroke-width="2" stroke-linecap="round" stroke-linejoin="round"/>
<path d="M296.159 87.4342C297.155 87.4342 297.962 86.6265 297.962 85.63C297.962 84.6336 297.155 83.8259 296.159 83.8259C295.163 83.8259 294.355 84.6336 294.355 85.63C294.355 86.6265 295.163 87.4342 296.159 87.4342Z" fill="white" stroke="#1D1D1B" stroke-width="2" stroke-linecap="round" stroke-linejoin="round"/>
<path d="M303.595 105.622C307.947 105.622 311.474 102.093 311.474 97.7391C311.474 93.3854 307.947 89.856 303.595 89.856C299.243 89.856 295.715 93.3854 295.715 97.7391C295.715 102.093 299.243 105.622 303.595 105.622Z" fill="white" stroke="#1D1D1B" stroke-width="2" stroke-linecap="round" stroke-linejoin="round"/>
<path d="M56.2041 129.627C56.2041 129.627 32.1267 112.667 27.294 84.4681L1 93.1192C1 93.1192 11.569 127.885 32.4977 142.294L56.2041 129.627Z" fill="white" stroke="#1D1D1B" stroke-width="2" stroke-linecap="round" stroke-linejoin="round"/>
<path d="M34.1045 136.117L46.0529 129.674C46.0529 129.674 42.847 127.609 46.852 126.248C46.852 126.248 30.1471 110.554 25.8567 95.3652C25.8567 95.3652 23.2597 96.4311 21.7091 92.3388L10.0366 96.3169C10.0366 96.3169 14.0796 100.504 8.32422 100.628C8.32422 100.628 16.553 123.479 29.6239 135.242C29.6239 135.242 32.278 132.615 34.1045 136.108V136.117Z" fill="white" stroke="#1D1D1B" stroke-width="2" stroke-linecap="round" stroke-linejoin="round"/>
<path d="M17.6485 103.007C16.5355 102.313 16.0884 101.113 16.6687 100.333C17.2585 99.5622 18.6569 99.5241 19.7795 100.228C20.902 100.923 21.3111 102.094 20.7213 102.855C20.1314 103.616 18.7616 103.693 17.6485 102.998V103.007Z" fill="white" stroke="#1D1D1B" stroke-width="2" stroke-linecap="round" stroke-linejoin="round"/>
<path d="M34.4368 129.522C33.4855 129.036 33.1525 127.971 33.7043 127.152C34.256 126.343 35.4927 126.105 36.4536 126.6C37.4049 127.095 37.7093 128.123 37.148 128.922C36.5867 129.731 35.3786 129.998 34.4368 129.512V129.522Z" fill="white" stroke="#1D1D1B" stroke-width="2" stroke-linecap="round" stroke-linejoin="round"/>
<path d="M21.4546 122.108C16.6981 119.377 14.6718 113.847 17.1357 110.021C19.7232 106.348 25.9733 105.958 30.8915 108.889C35.6956 111.677 37.1892 116.541 34.4399 120.024C31.8143 123.65 26.097 124.697 21.4546 122.108Z" fill="white" stroke="#1D1D1B" stroke-width="2" stroke-linecap="round" stroke-linejoin="round"/>
</svg>
