<svg width="1052" height="355" viewBox="0 0 1052 355" fill="none" xmlns="http://www.w3.org/2000/svg">
<path d="M1031.62 228.26L887.844 215.294L869.176 278.198L1031.62 228.26Z" fill="white" stroke="black" stroke-width="4" stroke-linecap="round" stroke-linejoin="round"/>
<path d="M904.249 298.132L908.458 238.814L1031.62 228.26L904.249 298.132Z" fill="white" stroke="black" stroke-width="4" stroke-linecap="round" stroke-linejoin="round"/>
<path d="M906.313 268.682L869.178 278.199L908.459 238.814L906.313 268.682Z" fill="#B8EEF4" stroke="black" stroke-width="4" stroke-linecap="round" stroke-linejoin="round"/>
<path d="M852.059 227.985L880.51 240.006L887.844 215.294L852.059 227.985Z" fill="#B8EEF4" stroke="black" stroke-width="4" stroke-linecap="round" stroke-linejoin="round"/>
<path d="M2 2C21.4386 142.8 114.379 224.955 229.245 260.423C278.293 275.576 371.294 280.816 415.547 244.53C418.436 242.153 421.324 239.135 421.405 235.453C421.525 230.253 415.547 226.377 410.211 226.922C404.875 227.468 400.441 231.168 397.111 235.278C391.916 241.706 388.566 249.75 388.887 257.911C389.288 268.701 395.888 278.4 403.832 285.958C447.443 327.483 518.778 326.275 575.489 325.905C669.192 325.302 760.989 305.707 851 281.887" stroke="black" stroke-width="4" stroke-linecap="round" stroke-linejoin="round" stroke-dasharray="2 7"/>
</svg>
