<svg width="109" height="123" viewBox="0 0 109 123" fill="none" xmlns="http://www.w3.org/2000/svg">
<path d="M59.8087 2C59.8087 2 50.7744 61.3615 2 99.0898L50.365 120.696C50.365 120.696 100.722 77.8659 107 28.7345L59.8087 2Z" fill="#DCF672" stroke="black" stroke-width="4" stroke-linecap="round" stroke-linejoin="round"/>
<path d="M96.0205 29.8365L70.1961 15.6958C70.1961 15.6958 69.1122 24.4104 61.877 19.2584C61.877 19.2584 47.8131 67.8191 22.0158 90.9485C22.0158 90.9485 27.4896 93.0038 21.1758 99.6631L44.1549 110.652C44.1549 110.652 47.2983 100.951 54.7231 108.871C54.7231 108.871 89.4628 74.6702 98.7845 39.3733C98.7845 39.3733 90.7364 37.3453 96.0205 29.8091V29.8365Z" fill="white" stroke="black" stroke-width="4" stroke-linecap="round" stroke-linejoin="round"/>
<path d="M43.5423 96.9566C45.8115 96.9566 47.651 95.1171 47.651 92.848C47.651 90.5788 45.8115 88.7393 43.5423 88.7393C41.2731 88.7393 39.4336 90.5788 39.4336 92.848C39.4336 95.1171 41.2731 96.9566 43.5423 96.9566Z" fill="#DCF672" stroke="black" stroke-width="4" stroke-linecap="round" stroke-linejoin="round"/>
<path d="M78.2376 41.2608C80.5068 41.2608 82.3463 39.4213 82.3463 37.1522C82.3463 34.883 80.5068 33.0435 78.2376 33.0435C75.9684 33.0435 74.1289 34.883 74.1289 37.1522C74.1289 39.4213 75.9684 41.2608 78.2376 41.2608Z" fill="#DCF672" stroke="black" stroke-width="4" stroke-linecap="round" stroke-linejoin="round"/>
<path d="M62.2599 86.9133C72.8493 86.9133 81.4338 78.3288 81.4338 67.7393C81.4338 57.1499 72.8493 48.5654 62.2599 48.5654C51.6704 48.5654 43.0859 57.1499 43.0859 67.7393C43.0859 78.3288 51.6704 86.9133 62.2599 86.9133Z" fill="#DCF672" stroke="black" stroke-width="4" stroke-linecap="round" stroke-linejoin="round"/>
</svg>
