<svg width="755" height="778" viewBox="0 0 755 778" fill="none" xmlns="http://www.w3.org/2000/svg">
<path d="M108 147.099C123.562 145.602 142.619 161.337 135.988 178.114C134.996 180.63 133.056 182.829 130.508 183.691C128.681 184.326 126.516 184.212 124.915 183.079C122.253 181.197 122.005 176.98 123.9 174.327C125.794 171.675 129.2 170.451 132.447 170.451C136.597 170.451 140.995 171.811 144.378 174.191C152.136 179.655 155.609 189.019 158 197.838" stroke="black" stroke-width="4" stroke-linecap="round" stroke-linejoin="round" stroke-dasharray="2 7"/>
<path d="M287.784 664.345C285.942 663.568 50.6895 525.566 50.6895 525.566L514.105 434.171L749.062 546.284L287.784 664.345Z" fill="white" stroke="black" stroke-width="4" stroke-miterlimit="10"/>
<path d="M514.103 434.171L434.291 559.243" stroke="black" stroke-width="4" stroke-linecap="round" stroke-linejoin="round"/>
<path d="M50.6875 525.566L434.29 559.243" stroke="black" stroke-width="4" stroke-linecap="round" stroke-linejoin="round"/>
<path d="M564.783 423.124L560.178 518.639L670.685 490.824L659.28 397.75L564.783 423.124Z" fill="white" stroke="black" stroke-width="4" stroke-miterlimit="10"/>
<path d="M579.233 438.337C579.175 436.73 580.42 435.102 581.988 434.662C583.556 434.222 584.895 435.196 584.953 436.803C585.011 438.41 583.767 440.064 582.198 440.478C580.628 440.892 579.291 439.944 579.233 438.337Z" fill="black" stroke="black" stroke-width="4" stroke-miterlimit="10"/>
<path d="M640.003 422.225C639.944 420.593 641.188 418.939 642.757 418.524C644.327 418.11 645.665 419.084 645.723 420.691C645.781 422.298 644.538 423.977 642.969 424.392C641.4 424.806 640.061 423.832 640.003 422.225Z" fill="black" stroke="black" stroke-width="4" stroke-miterlimit="10"/>
<path d="M642.861 421.458C642.861 421.458 641.647 364.415 609.996 373.857L610.932 373.594C579.23 381.608 582.091 437.57 582.091 437.57" stroke="black" stroke-width="4" stroke-miterlimit="10"/>
<path d="M564.48 552.324L555.188 561.777L565.574 558.567C573.079 556.228 581.204 556.931 588.207 560.51L596.719 564.852" fill="white"/>
<path d="M564.48 552.324L555.188 561.777L565.574 558.567C573.079 556.228 581.204 556.931 588.207 560.51L596.719 564.852" stroke="black" stroke-width="4" stroke-linecap="round" stroke-linejoin="round"/>
<path d="M570.674 563.237L555.188 561.777" stroke="black" stroke-width="4" stroke-linecap="round" stroke-linejoin="round"/>
<path d="M512.142 562.716L521.972 567.47L536.223 565.143L529.23 571.755L537.453 579.402L523.239 579.199L513.075 586.462L512.57 577.413L499.481 576.531L512.11 570.329L512.142 562.716Z" stroke="black" stroke-width="4" stroke-linecap="round" stroke-linejoin="round"/>
<path d="M626.602 558.794C629.308 558.696 631.456 557.361 631.401 555.811C631.345 554.261 629.106 553.084 626.4 553.182C623.694 553.279 621.545 554.615 621.601 556.164C621.657 557.714 623.896 558.891 626.602 558.794Z" stroke="black" stroke-width="4" stroke-linecap="round" stroke-linejoin="round"/>
<path d="M616.582 552.309C619.288 552.212 621.437 550.876 621.381 549.327C621.325 547.777 619.086 546.6 616.38 546.697C613.674 546.795 611.526 548.13 611.582 549.68C611.638 551.23 613.876 552.407 616.582 552.309Z" stroke="black" stroke-width="4" stroke-linecap="round" stroke-linejoin="round"/>
<path d="M606.551 545.494C609.257 545.396 611.406 544.061 611.35 542.511C611.294 540.962 609.055 539.784 606.349 539.882C603.643 539.979 601.495 541.315 601.55 542.865C601.606 544.414 603.845 545.591 606.551 545.494Z" stroke="black" stroke-width="4" stroke-linecap="round" stroke-linejoin="round"/>
<path d="M10 83L94.2764 99.9795V139.108L10 83Z" fill="#B8EEF4" stroke="black" stroke-width="4" stroke-linecap="round" stroke-linejoin="round"/>
<path d="M70.8765 144.554L78.5234 109.928L10 83L70.8765 144.554Z" fill="white" stroke="black" stroke-width="4" stroke-linecap="round" stroke-linejoin="round"/>
<path d="M74.6875 127.367L94.2755 139.108L78.5224 109.928L74.6875 127.367Z" fill="black" stroke="black" stroke-width="4" stroke-linecap="round" stroke-linejoin="round"/>
<path d="M112.556 113.306L94.2773 115.351V99.9795L112.556 113.306Z" fill="black" stroke="black" stroke-width="4" stroke-linecap="round" stroke-linejoin="round"/>
<path d="M217.466 688.357C217.577 691.567 217.443 694.83 218.096 697.969C218.748 701.109 220.255 704.239 222.955 706.015C225.187 707.47 227.942 707.839 230.597 707.69C236.097 707.361 241.271 704.996 245.946 702.094C250.221 699.44 254.425 696.004 255.988 691.2C257.268 687.243 256.59 682.928 255.753 678.835C253.112 665.847 249.301 653.072 244.342 640.778C243.244 638.041 241.927 635.118 239.383 633.601C236.115 631.654 231.984 632.593 228.341 633.694C220.39 636.114 204.101 642.002 206.787 652.969C208.148 658.535 212.048 663.565 213.899 669.027C216.038 675.242 217.234 681.775 217.469 688.331L217.466 688.357Z" fill="black" stroke="black" stroke-width="4" stroke-linecap="round" stroke-linejoin="round"/>
<path d="M285.718 707.533C285.003 712.141 282.448 716.538 279.273 719.825C274.253 725.033 267.571 728.237 261.84 732.67C252.891 739.613 246.572 749.415 237.367 756.034C228.739 762.267 216.633 765.596 206.272 767.66C197.873 769.335 185.764 768.747 178.777 762.989C175.829 760.573 173.673 756.834 174.408 753.214C181.519 756.028 188.999 758.884 196.637 758.268C201.371 757.877 205.885 756.156 210.14 754.139C217.469 750.635 224.273 746.139 230.316 740.836C239.028 733.173 246.003 723.926 252.946 714.729C257.504 708.669 262.088 702.612 266.65 696.526C270.641 691.228 272.138 687.002 278.61 691.901C282.704 695.009 286.042 700.055 285.913 705.37C285.884 706.086 285.829 706.799 285.721 707.507L285.718 707.533Z" fill="white" stroke="black" stroke-width="4" stroke-linecap="round" stroke-linejoin="round"/>
<path d="M215.278 685.601C214.839 688.269 214.701 691.104 214.082 692.552C211.228 699.314 206.841 705.74 202.346 711.487C198.288 716.671 193.746 721.427 189.373 726.335C184.844 731.439 180.511 736.699 176.347 742.111C173.59 745.712 170.794 750.108 172.135 754.446C172.994 757.183 175.425 759.22 178.134 760.224C180.844 761.227 183.755 761.401 186.625 761.463C195.667 761.62 204.872 760.81 213.192 757.26C225.465 752.005 234.283 741.557 243.737 732.54C252.384 724.284 263.03 716.711 269.821 706.75C274.143 700.423 275.354 691.021 269.982 685.582C268.575 684.142 266.831 683.089 265.21 681.891C259.813 677.834 255.92 671.818 254.463 665.229C254.164 663.889 253.81 662.329 252.537 661.81C251.291 661.295 249.802 662.19 249.234 663.431C248.665 664.671 248.769 666.095 248.881 667.441C249.58 674.823 250.675 682.703 247.156 689.228C245.97 691.437 244.054 693.51 241.583 693.919C237.098 694.684 233.808 690.15 230.756 686.789C228.461 684.261 224.644 680.599 221.295 679.602C217.145 678.38 215.92 681.864 215.272 685.653L215.278 685.601Z" fill="white" stroke="black" stroke-width="4" stroke-linecap="round" stroke-linejoin="round"/>
<path d="M268.009 689.327C267.765 688.206 267.555 687.01 267.998 685.941C268.779 684.005 271.193 683.403 272.835 682.098C274.626 680.651 275.523 678.169 275.008 675.925C274.492 673.681 272.628 671.815 270.37 671.29C269.33 671.064 268.184 671.066 267.292 670.484C266.772 670.131 266.406 669.609 265.919 669.207C264.538 668.009 262.377 668.028 260.737 668.853C259.097 669.678 258.056 669.931 257.129 671.504C258.487 673.605 259.848 675.68 261.265 677.734C261.563 676.756 261.747 677.017 262.323 676.177C262.898 675.337 263.83 674.644 264.845 674.627C266.558 674.557 267.945 676.635 267.209 678.176C266.538 679.618 264.782 680.056 263.478 680.973C262.233 681.842 260.232 684.651 261.247 686.26C262.055 687.578 266.565 688.681 268.009 689.327Z" fill="white" stroke="black" stroke-width="4" stroke-linecap="round" stroke-linejoin="round"/>
<path d="M240.551 569.031C237.202 560.12 233.228 551.323 231.72 541.93C231.311 539.458 231.133 536.826 232.167 534.546C232.98 532.8 234.443 531.422 235.965 530.238C246.767 521.776 261.042 519.735 274.223 515.862C287.376 511.987 301.268 504.466 304.965 491.272C306.907 484.326 305.662 476.828 303.356 469.982C301.05 463.135 297.606 456.451 292.094 451.769C275.807 437.883 242.524 450.004 224.531 454.017C209.927 457.3 195.325 460.556 180.694 463.836C170.466 466.128 160.212 468.417 150.154 471.314C140.925 473.961 130.999 477.806 126.485 486.269C123.083 492.702 123.55 500.483 125.054 507.584C130.532 533.715 144.637 557.104 156.065 581.066C171.258 612.867 186.602 644.979 197.066 678.743C219.228 673.689 243.167 668.704 264.462 661.685C264.965 653.109 248.547 590.387 240.524 569.028L240.551 569.031Z" fill="#B8EEF4" stroke="black" stroke-width="4" stroke-linecap="round" stroke-linejoin="round"/>
<path d="M197.16 716.995C199.984 722.115 201.004 728.095 202.832 733.528" stroke="black" stroke-width="4" stroke-linecap="round" stroke-linejoin="round"/>
<path d="M186.769 730.674C194.557 725.73 201.906 718.098 211.473 717.623" stroke="black" stroke-width="4" stroke-linecap="round" stroke-linejoin="round"/>
<path d="M211.145 698.425C214.244 703.23 217.613 709.639 218.023 715.362" stroke="black" stroke-width="4" stroke-linecap="round" stroke-linejoin="round"/>
<path d="M203.7 712.682C208.099 707.083 217.257 701.577 224.055 700.145" stroke="black" stroke-width="4" stroke-linecap="round" stroke-linejoin="round"/>
<path d="M209.668 567.65C222.826 599.538 232.36 639.325 238.729 667.21" stroke="black" stroke-width="4" stroke-linecap="round" stroke-linejoin="round"/>
<path d="M178.653 219.528C172.749 216.059 167.429 215 160.811 213.12C159.752 212.829 158.428 212.617 157.714 213.385C156.814 214.365 157.687 215.927 158.614 216.906C162.267 220.798 167.111 223.605 172.379 224.902C173.147 225.087 173.967 225.273 174.47 225.829C174.761 226.146 174.92 226.544 175.052 226.941C176.244 230.038 177.461 233.162 178.653 236.26" fill="white"/>
<path d="M178.653 219.528C172.749 216.059 167.429 215 160.811 213.12C159.752 212.829 158.428 212.617 157.714 213.385C156.814 214.365 157.687 215.927 158.614 216.906C162.267 220.798 167.111 223.605 172.379 224.902C173.147 225.087 173.967 225.273 174.47 225.829C174.761 226.146 174.92 226.544 175.052 226.941C176.244 230.038 177.461 233.162 178.653 236.26" stroke="black" stroke-width="4" stroke-linecap="round" stroke-linejoin="round"/>
<path d="M285.784 291.594C275.142 278.065 262.356 287.543 252.588 298.292C247.109 304.328 242.661 311.371 238.929 318.89C235.064 326.674 232.02 334.802 229.293 343.035C227.334 348.966 223.681 354.446 222.596 360.668C221.511 366.89 223.099 373.429 225.693 378.83C235.011 398.131 261.906 383.675 272.495 372.106C272.839 371.735 273.157 371.364 273.448 371.02C279.298 364.03 283.613 356.061 287.187 347.748C290.549 339.938 290.999 331.678 291.872 323.364C292.269 319.552 293.09 315.819 292.957 312.033C292.799 308.088 292.957 302.422 291.475 298.742C290.39 296.068 287.61 293.897 285.81 291.62L285.784 291.594Z" fill="#BF96F8" stroke="black" stroke-width="4" stroke-linecap="round" stroke-linejoin="round"/>
<path d="M208.302 299.562C203.564 284.074 204.94 267.818 201.79 252.118C198.64 236.418 191.731 221.936 179.448 211.637C172.354 205.68 175.054 212.882 177.357 217.091C181.01 223.816 183.922 230.912 185.96 238.192" fill="white"/>
<path d="M208.302 299.562C203.564 284.074 204.94 267.818 201.79 252.118C198.64 236.418 191.731 221.936 179.448 211.637C172.354 205.68 175.054 212.882 177.357 217.091C181.01 223.816 183.922 230.912 185.96 238.192" stroke="black" stroke-width="4" stroke-linecap="round" stroke-linejoin="round"/>
<path d="M174.152 225.485C169.943 224.373 163.167 222.758 158.984 223.791C157.263 224.214 155.357 225.67 156.072 227.259C156.469 228.159 157.555 228.556 158.534 228.821C160.387 229.324 165.523 230.489 167.217 231.363" fill="white"/>
<path d="M174.152 225.485C169.943 224.373 163.167 222.758 158.984 223.791C157.263 224.214 155.357 225.67 156.072 227.259C156.469 228.159 157.555 228.556 158.534 228.821C160.387 229.324 165.523 230.489 167.217 231.363" stroke="black" stroke-width="4" stroke-linecap="round" stroke-linejoin="round"/>
<path d="M164.28 231.601C160.601 234.089 157.318 237.134 154.592 240.576C153.692 241.714 152.845 243.382 153.824 244.521C154.883 245.791 156.974 245.077 158.351 244.229C159.224 243.673 161.766 241.158 162.718 241.185C164.174 241.211 165.524 244.388 166.186 245.553C168.278 249.154 169.919 252.966 171.931 256.567C174.922 261.941 179.104 267.157 185.061 269.222" fill="white"/>
<path d="M164.28 231.601C160.601 234.089 157.318 237.134 154.592 240.576C153.692 241.714 152.845 243.382 153.824 244.521C154.883 245.791 156.974 245.077 158.351 244.229C159.224 243.673 161.766 241.158 162.718 241.185C164.174 241.211 165.524 244.388 166.186 245.553C168.278 249.154 169.919 252.966 171.931 256.567C174.922 261.941 179.104 267.157 185.061 269.222" stroke="black" stroke-width="4" stroke-linecap="round" stroke-linejoin="round"/>
<path d="M179.344 266.178C180.456 269.937 182.229 273.485 183.447 277.218C185.829 284.605 185.909 292.6 183.685 299.934" fill="white"/>
<path d="M179.344 266.178C180.456 269.937 182.229 273.485 183.447 277.218C185.829 284.605 185.909 292.6 183.685 299.934" stroke="black" stroke-width="4" stroke-linecap="round" stroke-linejoin="round"/>
<path d="M180.824 286.325C189.162 284.922 203.139 282.275 209.042 280.66C210.975 286.723 215.634 294.903 214.496 301.152C214.099 303.402 210.445 302.29 208.566 303.614C207.401 304.435 205.945 304.726 204.516 304.964C198.586 306.05 192.657 307.135 186.727 308.221C186.25 308.3 185.721 308.379 185.297 308.168C184.821 307.929 184.609 307.373 184.424 306.897C182.015 300.331 180.771 293.341 180.797 286.352L180.824 286.325Z" fill="#BF96F8" stroke="black" stroke-width="4" stroke-linecap="round" stroke-linejoin="round"/>
<path d="M81.4772 681.709C79.333 684.118 77.03 686.395 75.3093 689.122C73.5887 691.849 72.5563 695.185 73.324 698.309C73.9328 700.877 75.7064 703.075 77.7182 704.769C81.9272 708.317 87.3274 710.144 92.7012 711.256C97.6514 712.262 103.052 712.659 107.499 710.25C111.152 708.264 113.614 704.637 115.837 701.116C122.852 689.864 128.835 677.976 133.706 665.639C134.791 662.885 135.823 659.867 135.029 657.008C133.997 653.354 130.344 651.183 126.955 649.489C119.517 645.782 103.66 638.872 98.0484 648.668C95.216 653.645 94.5807 659.973 92.1982 665.215C89.4716 671.198 85.8715 676.785 81.5037 681.683L81.4772 681.709Z" fill="black" stroke="black" stroke-width="4" stroke-linecap="round" stroke-linejoin="round"/>
<path d="M117.875 742.55C114.195 745.409 109.298 746.839 104.745 747.051C97.5182 747.395 90.4503 745.118 83.2765 744.403C71.9996 743.291 60.6962 746.071 49.4458 744.562C38.8836 743.159 27.8185 737.255 18.871 731.615C11.6178 727.062 3.22633 718.298 2.11452 709.323C1.63803 705.537 2.61748 701.354 5.63525 699.209C8.86478 706.146 12.3326 713.374 18.3151 718.166C22.0212 721.158 26.4684 722.984 30.9686 724.441C38.6983 726.929 46.7192 728.359 54.7401 728.65C66.3346 729.074 77.7704 727.141 89.1002 725.235C96.5917 723.964 104.083 722.693 111.548 721.449C118.087 720.337 122.084 718.298 123.407 726.32C124.255 731.404 123.222 737.361 119.463 741.12C118.96 741.623 118.431 742.1 117.848 742.55H117.875Z" fill="white" stroke="black" stroke-width="4" stroke-linecap="round" stroke-linejoin="round"/>
<path d="M81.7946 678.162C79.6504 679.803 77.612 681.762 76.1561 682.398C69.4323 685.336 61.835 687.004 54.6082 688.09C48.0962 689.069 41.5313 689.387 34.9928 689.97C28.1896 690.552 21.4393 691.399 14.689 692.485C10.2153 693.2 5.15927 694.497 3.1739 698.548C1.90326 701.142 2.30034 704.293 3.5445 706.861C4.78867 709.429 6.80051 711.574 8.86529 713.586C15.3244 719.913 22.5776 725.659 31.0485 728.783C43.5696 733.416 57.176 731.88 70.2265 731.827C82.1652 731.774 95.1098 733.601 106.89 731.033C114.381 729.392 121.714 723.408 121.555 715.757C121.528 713.745 120.973 711.785 120.628 709.8C119.49 703.154 120.814 696.085 124.281 690.287C124.97 689.122 125.79 687.719 125.234 686.475C124.679 685.231 122.984 684.886 121.714 685.389C120.443 685.892 119.543 687.004 118.696 688.063C114.143 693.888 109.51 700.374 102.469 702.704C100.086 703.499 97.2804 703.684 95.1892 702.281C91.4302 699.766 92.145 694.179 92.2244 689.652C92.3038 686.263 92.0391 680.942 90.2919 677.923C88.1213 674.19 84.8388 675.858 81.7681 678.188L81.7946 678.162Z" fill="white" stroke="black" stroke-width="4" stroke-linecap="round" stroke-linejoin="round"/>
<path d="M117.53 717.16C118.113 716.18 118.801 715.174 119.86 714.698C121.766 713.824 123.937 715.042 126.028 715.227C128.331 715.413 130.687 714.221 131.852 712.236C133.016 710.25 132.937 707.602 131.666 705.696C131.084 704.822 130.237 704.028 129.999 702.996C129.866 702.387 129.946 701.751 129.893 701.116C129.707 699.289 128.119 697.833 126.372 697.303C124.625 696.774 123.513 696.509 121.739 697.012C121.289 699.474 120.866 701.91 120.469 704.372C121.369 703.869 121.475 703.896 122.481 703.684C123.487 703.472 124.625 703.605 125.392 704.293C126.69 705.405 126.266 707.867 124.678 708.503C123.195 709.085 121.607 708.185 120.045 707.973C118.563 707.761 115.174 708.423 114.777 710.276C114.46 711.785 117.001 715.704 117.583 717.16H117.53Z" fill="white" stroke="black" stroke-width="4" stroke-linecap="round" stroke-linejoin="round"/>
<path d="M243.851 355.479C234.798 338.959 232.469 319.949 224.077 303.217C217.221 289.529 203.641 304.091 192.841 302.793C185.217 301.867 180.558 296.413 174.919 304.302C170.34 310.709 172.034 321.167 173.305 328.316C176.031 343.618 178.758 358.921 181.484 374.25C183.178 383.808 184.952 393.551 189.505 402.103C194.058 410.654 201.973 418.041 211.582 419.418C219.233 420.53 223.151 419.444 230.616 417.432C243.719 413.911 252.481 401.944 260.184 390.745" fill="#BF96F8"/>
<path d="M243.851 355.479C234.798 338.959 232.469 319.949 224.077 303.217C217.221 289.529 203.641 304.091 192.841 302.793C185.217 301.867 180.558 296.413 174.919 304.302C170.34 310.709 172.034 321.167 173.305 328.316C176.031 343.618 178.758 358.921 181.484 374.25C183.178 383.808 184.952 393.551 189.505 402.103C194.058 410.654 201.973 418.041 211.582 419.418C219.233 420.53 223.151 419.444 230.616 417.432C243.719 413.911 252.481 401.944 260.184 390.745" stroke="black" stroke-width="4" stroke-linecap="round" stroke-linejoin="round"/>
<path d="M401.864 449.308C401.599 448.832 401.334 448.381 401.043 447.931C391.91 433.608 374.016 434.72 359.244 437.182C346.009 439.406 333.488 444.675 321.046 449.732C279.115 466.755 236.257 481.582 192.764 494.105C183.049 496.911 173.043 499.691 164.863 505.648C156.287 511.87 150.41 521.03 144.877 530.058C136.618 543.534 128.65 557.222 121.026 571.095C109.988 591.19 99.6109 611.656 89.9488 632.439C88.5193 635.483 83.2514 643.956 81.3984 650.521C105.488 656.028 130.53 666.354 150.992 681.471C168.358 645.226 188.079 610.093 209.997 576.39C218.045 564.026 229.004 548.538 243.59 543.667C252.696 540.622 262.411 540.066 272.02 539.695C293.727 538.848 315.54 538.875 336.982 535.38C357.894 531.964 380.633 528.999 393.631 509.672C401.652 497.758 406.417 484.52 406.284 470.012C406.231 462.89 405.358 455.53 401.864 449.308Z" fill="#B8EEF4" stroke="black" stroke-width="4" stroke-linecap="round" stroke-linejoin="round"/>
<path d="M167.508 453.809L86.5312 479.569L250.47 499.002L335.311 473.903L167.508 453.809Z" fill="white" stroke="black" stroke-width="4" stroke-linecap="round" stroke-linejoin="round"/>
<path d="M248.273 506.706L254.547 497.784L335.312 473.903V481.608L248.273 506.706Z" fill="white" stroke="black" stroke-width="4" stroke-linecap="round" stroke-linejoin="round"/>
<path d="M392.81 294.11C399.454 296.704 407.343 298.425 413.457 294.745C420.128 290.721 422.034 281.851 421.452 274.068C420.578 262.524 415.734 251.669 410.413 241.397C401.069 223.367 375.868 190.193 352.811 209.6C336.24 223.526 342.169 249.366 353.526 264.245C363.638 277.457 377.297 288.047 392.81 294.11Z" fill="black" stroke="black" stroke-width="4" stroke-linecap="round" stroke-linejoin="round"/>
<path d="M389.051 145.688C398.422 153.657 404.801 164.512 411.208 174.996C419.281 188.207 427.991 201.551 440.618 210.499C451.894 218.495 465.501 222.44 478.948 225.617C492.396 228.794 506.135 231.389 518.709 237.134C531.283 242.879 542.824 252.384 547.669 265.33C551.772 276.238 550.66 288.734 545.736 299.298C540.813 309.862 532.262 318.493 522.335 324.582C497.293 339.991 462.589 338.191 439.744 319.658C436.964 323.152 431.432 322.252 427.302 320.505C408.64 312.615 395.801 295.009 387.383 276.556C378.992 258.129 374.147 238.246 365.968 219.713C359.085 204.092 349.952 189.61 341.402 174.837C338.755 170.257 336.055 165.359 336.055 160.064C336.055 149.632 347.437 139.916 356.57 136.554C367.371 132.582 380.845 138.751 388.971 145.661L389.051 145.688Z" fill="black" stroke="black" stroke-width="4" stroke-linecap="round" stroke-linejoin="round"/>
<path d="M398.422 277.139C398.872 281.534 397.999 285.929 397.152 290.271C396.119 295.513 394.425 301.549 389.475 303.535C386.881 304.594 383.916 304.223 381.216 303.455C368.668 299.908 359.403 288.682 346.829 285.187C335.87 282.143 324.116 285.478 312.839 284.102C308.366 283.546 303.521 281.904 301.377 277.933C300.318 275.974 300.054 273.697 299.842 271.499C299.498 267.766 295.289 261.73 297.592 258.765C301.271 253.999 311.489 254.608 317.525 254.635C329.12 254.688 341.402 251.961 353.023 251.934C363.771 251.934 373.724 256.197 382.883 261.492C390.269 265.781 397.443 267.131 398.475 277.112L398.422 277.139Z" fill="black" stroke="black" stroke-width="4" stroke-linecap="round" stroke-linejoin="round"/>
<path d="M379.653 282.91C376.979 280.898 374.358 278.727 370.944 276.926C347.622 264.483 319.986 267.21 295.473 274.252C295.288 274.305 295.102 274.358 294.891 274.411C314.241 303.931 350.719 300.251 379.653 282.91Z" fill="white" stroke="black" stroke-width="4" stroke-linecap="round" stroke-linejoin="round"/>
<path d="M413.005 443.404C408.293 430.061 402.02 417.908 399.584 403.876C397.043 389.236 396.858 373.747 401.729 359.557C407.208 343.618 428.174 314.442 418.564 300.596C413.482 293.262 401.12 291.806 389.102 288.073C385.237 286.882 382.404 284.975 379.651 282.91C350.718 300.278 314.24 303.932 294.889 274.412C276.65 279.76 253.752 291.753 256.346 314.178C258.173 329.931 250.179 344.254 250.92 360.113C251.476 371.762 257.22 382.167 260.582 393.127C264.632 406.365 262.806 412.666 258.597 425.454C258.332 426.301 258.067 427.148 257.855 428.022C255.87 436.282 256.929 450.394 264.209 456.06C272.044 462.149 283.612 462.97 293.116 463.605C302.831 464.267 312.043 467.55 321.546 468.662C332.717 469.959 343.782 471.415 354.821 473.639C368.215 476.34 381.531 479.887 395.19 480.338C400.802 480.523 406.917 479.967 411.073 476.154C415.361 472.236 416.341 465.855 416.156 460.057C415.97 454.392 414.911 448.779 413.032 443.431L413.005 443.404Z" fill="#BF96F8" stroke="black" stroke-width="4" stroke-linecap="round" stroke-linejoin="round"/>
<path d="M361.095 274.544C355.854 258.024 356.41 241.768 361.095 225.326C355.113 224.717 348.918 224.109 343.147 225.803C339.044 226.994 335.365 229.298 331.897 231.76C326.497 235.599 318.555 240.55 314.399 245.633C311.276 249.445 313.367 252.437 313.446 256.832C313.526 261.227 312.361 265.543 310.084 269.223C306.749 274.65 318.052 281.375 321.917 282.752C329.091 285.346 336.424 284.817 343.756 283.387C346.271 282.884 362.472 278.807 361.122 274.544H361.095Z" fill="white" stroke="black" stroke-width="4" stroke-linecap="round" stroke-linejoin="round"/>
<path d="M301.589 221.646C302.383 228.265 303.31 233.878 306.513 239.729C308.207 242.826 310.139 245.871 312.813 248.148C316.89 251.643 322.475 253.072 327.849 252.834C333.223 252.596 338.411 250.875 343.308 248.625C352.838 244.256 361.786 237.531 366.1 227.974C368.456 229.244 371.421 229.033 373.857 227.894C376.292 226.756 378.224 224.77 379.813 222.626C381.719 220.005 383.254 216.801 382.751 213.598C382.248 210.394 379.045 207.508 375.895 208.355C380.077 200.73 381.216 188.578 379.071 180.265C376.716 171.078 369.542 163.93 362.05 158.131C356.068 153.498 349.503 149.289 342.117 147.488C334.705 145.688 326.419 146.562 320.172 150.93C314.984 154.557 309.266 156.225 307.333 162.262C305.745 167.16 306.857 172.719 306.169 177.776C305.666 181.43 304.713 188.393 303.839 192.047C301.589 201.498 300.451 211.824 301.616 221.646H301.589Z" fill="white" stroke="black" stroke-width="4" stroke-linecap="round" stroke-linejoin="round"/>
<path d="M340.555 190.114C347.437 188.314 355.22 190.67 359.958 195.965" stroke="black" stroke-width="4" stroke-linecap="round" stroke-linejoin="round"/>
<path d="M325.652 186.513C320.808 182.012 314.217 179.947 308.34 181.695" stroke="black" stroke-width="4" stroke-linecap="round" stroke-linejoin="round"/>
<path d="M342.751 139.202C341.031 132.53 330.839 131.577 325.227 133.324C317.947 135.574 311.356 140.949 307.994 147.833C306.512 150.877 305.241 154.081 304.209 157.337C301.932 169.331 301.191 181.324 301.747 193.317C302.144 193.106 302.594 192.603 303.123 191.755C304.685 189.214 305.135 185.745 305.4 182.833C305.823 178.147 306.856 172.984 309.662 169.198C312.097 165.915 315.221 162.368 318.291 159.667C320.753 157.523 323.718 155.987 326.815 155.034C333.327 152.995 345.054 147.965 342.778 139.175L342.751 139.202Z" fill="black" stroke="black" stroke-width="4" stroke-linecap="round" stroke-linejoin="round"/>
<path d="M334.996 149.871C331.845 160.62 336.187 172.852 344.684 180.159C353.182 187.466 365.2 190.008 376.238 187.996C372.426 193.264 372.85 201.181 377.218 205.999C378.859 207.799 380.897 209.15 382.909 210.553C395.801 219.634 407.078 232.713 408.798 248.386C412.107 234.645 410.546 220.137 407.395 206.37C406.072 200.572 404.431 194.72 401.201 189.717C396.621 182.648 389.448 177.909 383.359 172.296C379.547 168.775 376.159 165.412 375.444 160.223C374.491 153.366 391.354 169.834 392.015 163.559C392.28 160.885 404.669 164.062 397.839 154.822C382.83 134.515 367.026 131.974 360.064 132C349.873 132.053 337.96 139.863 335.022 149.871H334.996Z" fill="black" stroke="black" stroke-width="4" stroke-linecap="round" stroke-linejoin="round"/>
<path d="M321.732 193.608C320.223 191.676 318.079 190.246 315.723 189.558C313.367 188.869 310.799 188.975 308.496 189.796" stroke="black" stroke-width="4" stroke-linecap="round" stroke-linejoin="round"/>
<path d="M352.888 201.551C351.379 199.618 349.235 198.188 346.879 197.5C344.523 196.812 341.955 196.918 339.652 197.738" stroke="black" stroke-width="4" stroke-linecap="round" stroke-linejoin="round"/>
<path d="M344.05 200.837C344.183 200.016 344.527 199.195 344.765 198.798C344.897 198.56 345.03 198.322 345.294 198.189C345.744 197.951 346.433 198.083 346.856 198.427C347.28 198.772 347.465 199.248 347.571 199.698C347.809 200.837 347.465 202.028 346.433 202.743C344.818 203.855 343.865 201.949 344.05 200.837Z" fill="black" stroke="black" stroke-width="4" stroke-linecap="round" stroke-linejoin="round"/>
<path d="M312.441 192.39C312.573 191.57 312.917 190.749 313.156 190.352C313.288 190.114 313.42 189.875 313.685 189.743C314.135 189.505 314.823 189.637 315.247 189.981C315.67 190.325 315.856 190.802 315.962 191.252C316.2 192.39 315.856 193.582 314.823 194.297C313.209 195.409 312.256 193.502 312.441 192.39Z" fill="black" stroke="black" stroke-width="4" stroke-linecap="round" stroke-linejoin="round"/>
<path d="M324.089 203.59C323.771 204.675 323.162 205.681 322.315 206.423C320.965 207.641 319.192 209.547 319.642 211.559C320.145 213.968 322.739 215.292 324.936 215.769" stroke="black" stroke-width="4" stroke-linecap="round" stroke-linejoin="round"/>
<path d="M311.328 220.189C315.299 221.937 320.17 223.367 325.04 224.187C329.911 225.008 334.835 225.273 338.938 224.876" stroke="black" stroke-width="4" stroke-linecap="round" stroke-linejoin="round"/>
<path d="M315.009 221.646C314.241 225.617 317.312 230.806 321.203 231.706C325.095 232.606 329.065 233.295 334.863 225.114" stroke="black" stroke-width="4" stroke-linecap="round" stroke-linejoin="round"/>
<path d="M318 238.394C320.356 237.626 323.03 237.996 325.068 239.373" stroke="black" stroke-width="4" stroke-linecap="round" stroke-linejoin="round"/>
<path d="M321.76 428.207L305.401 435.673C296.956 439.062 288.38 439.83 279.406 441.021C276.573 441.392 273.688 441.868 271.173 443.245C268.685 444.595 266.752 446.74 264.767 448.725C256.111 457.277 245.178 463.313 235.728 471.071C234.404 472.156 233.001 473.983 234.06 475.333C234.404 475.783 234.933 476.022 235.489 476.207C240.175 477.796 245.231 475.439 249.466 472.951C252.405 471.256 255.264 469.429 258.07 467.55C254.019 472.395 249.069 476.551 245.787 481.926C242.901 486.638 248.831 486.956 251.875 485.818C255.74 484.361 259.128 481.82 262.093 478.934C260.32 482.164 258.546 485.42 256.772 488.65C256.375 489.392 255.952 490.212 256.137 491.033C256.349 492.066 257.514 492.728 258.573 492.701C259.631 492.701 260.823 492.41 261.537 491.642C274.244 478.484 284.409 471.256 284.409 471.256C284.409 471.256 277.341 484.944 276.335 486.85C275.858 487.777 275.382 488.889 275.911 489.789C276.044 490.001 276.256 490.133 276.441 490.239C280.094 492.489 286.368 485.685 288.724 483.567C290.471 482.005 292.165 480.39 293.833 478.775C296.718 475.942 299.445 475.651 303.151 474.83C307.889 473.771 313.025 471.388 316.228 467.655C318.61 464.876 320.331 460.11 323.957 458.707C327.081 457.515 330.178 456.483 333.275 455.027L321.76 428.26V428.207Z" fill="white" stroke="black" stroke-width="4" stroke-linecap="round" stroke-linejoin="round"/>
<path d="M340.555 274.597C345.293 268.005 346.855 261.571 350.058 254.105" stroke="black" stroke-width="4" stroke-linecap="round" stroke-linejoin="round"/>
<path d="M51.4571 365.143L46.2422 371.127L248.273 506.707L253.488 497.97L219.261 385.211L51.4571 365.143Z" fill="white" stroke="black" stroke-width="4" stroke-linecap="round" stroke-linejoin="round"/>
<path d="M46.2422 371.126L84.3613 487.3L248.273 506.707L214.046 391.194L46.2422 371.126Z" fill="white" stroke="black" stroke-width="4" stroke-linecap="round" stroke-linejoin="round"/>
<path d="M308.284 430.854C307.199 433.846 321.732 463.207 321.785 463.207C329.674 461.01 338.33 456.694 346.007 453.835C346.404 453.703 344.339 452.67 344.551 452.3C344.789 451.902 344.683 451.399 344.577 450.976C343.253 445.204 341.85 439.432 340.447 433.661C339.68 430.563 339.918 423.785 336.344 422.25C332.982 420.82 308.47 430.431 308.311 430.854H308.284Z" fill="#BF96F8" stroke="black" stroke-width="4" stroke-linecap="round" stroke-linejoin="round"/>
<path d="M399.401 290.747C415.575 292.918 430.823 313.515 435.8 320.902C441.967 330.089 448.162 339.276 454.33 348.437C458.856 355.188 463.409 361.939 467.38 369.034C469.418 372.688 471.324 376.474 472.251 380.578C474.554 390.85 470.424 401.361 466.374 411.077C463.568 417.802 460.683 424.633 455.997 430.219C446.282 441.736 430.585 445.919 415.946 449.493C409.116 451.161 402.392 451.691 395.51 453.332C382.565 456.403 370.468 462.281 356.888 462.546C352.176 462.652 344.79 461.857 340.714 459.686C331.131 454.577 332.481 437.765 328.669 429.028C327.584 426.539 325.413 424.606 325.307 421.641C325.042 415.34 333.249 411.66 337.696 409.515C349.581 403.797 361.732 398.581 374.068 393.921C377.165 392.756 380.262 391.618 383.359 390.506C385.265 389.844 392.095 387.567 392.095 387.567C392.095 387.567 377.906 350.819 382.062 335.04" fill="#BF96F8"/>
<path d="M399.401 290.747C415.575 292.918 430.823 313.515 435.8 320.902C441.967 330.089 448.162 339.276 454.33 348.437C458.856 355.188 463.409 361.939 467.38 369.034C469.418 372.688 471.324 376.474 472.251 380.578C474.554 390.85 470.424 401.361 466.374 411.077C463.568 417.802 460.683 424.633 455.997 430.219C446.282 441.736 430.585 445.919 415.946 449.493C409.116 451.161 402.392 451.691 395.51 453.332C382.565 456.403 370.468 462.281 356.888 462.546C352.176 462.652 344.79 461.857 340.714 459.686C331.131 454.577 332.481 437.765 328.669 429.028C327.584 426.539 325.413 424.606 325.307 421.641C325.042 415.34 333.249 411.66 337.696 409.515C349.581 403.797 361.732 398.581 374.068 393.921C377.165 392.756 380.262 391.618 383.359 390.506C385.265 389.844 392.095 387.567 392.095 387.567C392.095 387.567 377.906 350.819 382.062 335.04" stroke="black" stroke-width="4" stroke-linecap="round" stroke-linejoin="round"/>
<path d="M152.209 438.215C140.059 442.875 140.72 449.944 140.853 457.198C139.556 448.54 131.958 441.074 123.938 439.195C124.467 439.327 125.976 438.48 126.505 438.242C127.405 437.871 128.252 437.447 129.099 436.944C130.741 435.938 132.17 434.641 133.176 433.026C135.717 429.028 136.061 424.421 135.717 419.894C136.22 423.309 136.67 426.275 138.047 428.631C140.562 432.946 144.665 436.123 149.588 437.606C150.012 437.738 151.812 438.427 152.183 438.189L152.209 438.215Z" fill="#DCF672" stroke="black" stroke-width="4" stroke-linecap="round" stroke-linejoin="round"/>
<path d="M303.838 279.548C306.141 281.401 309.027 283.387 311.674 284.737C313.897 285.876 316.518 286.538 318.503 288.1C320.356 289.582 322.156 291.224 323.533 293.183C324.195 294.136 324.777 295.195 325.095 296.307C325.651 298.213 324.486 300.252 322.554 298.584C321.23 297.445 319.88 296.492 318.398 295.566C316.544 294.427 314.639 293.289 312.627 292.468C303.812 288.894 293.091 289.026 286.314 281.772C283.587 278.86 281.999 277.43 283.349 273.512C284.434 270.361 286.235 267.237 286.87 263.954C287.214 262.127 286.817 259.347 288.246 257.918C291.158 255.005 293.038 264.325 293.62 265.569C296.055 270.811 299.285 275.894 303.838 279.575V279.548Z" fill="#BF96F8" stroke="black" stroke-width="4" stroke-linecap="round" stroke-linejoin="round"/>
<path d="M287.266 367.632C288.139 372.609 291.528 377.984 294.307 382.087C299.469 389.712 303.625 396.464 305.902 405.571" stroke="black" stroke-width="4" stroke-linecap="round" stroke-linejoin="round"/>
<path d="M372.769 298.08C403.106 285.769 409.962 295.909 411.709 295.645C414.991 295.168 404.773 282.195 403.635 277.774C402.417 273.061 397.997 267.925 393.708 265.41C395.349 270.016 391.326 274.941 386.243 277.112C381.161 279.283 375.522 280.342 371.154 283.651C367.528 286.378 365.092 290.429 361.307 292.918C359.136 294.347 356.648 295.195 354.186 295.962C350.189 297.233 336.688 300.86 328.297 299.828C337.959 301.866 363.716 301.76 372.769 298.08Z" fill="#BF96F8" stroke="black" stroke-width="4" stroke-linecap="round" stroke-linejoin="round"/>
<path d="M339.311 299.88C346.061 299.033 356.676 296.333 362.076 292.202C364.882 290.031 367.106 287.199 369.938 285.054C375.841 280.553 383.862 279.521 389.686 274.914C392.545 272.637 394.875 268.772 393.392 265.436C392.704 263.874 391.301 262.762 389.951 261.703C385.239 257.996 380.474 254.263 375.047 251.748C369.621 249.233 363.4 247.962 357.576 249.445C356.914 251.907 357.417 255.957 357.761 258.499C366.047 257.096 374.306 258.843 379.812 265.197C380.633 266.151 381.427 267.289 381.268 268.533C381.109 269.937 379.839 270.89 378.674 271.684C372.347 276.026 365.12 278.568 359.111 283.333C353.102 288.099 351.223 291.62 337.881 293.632C334.149 294.188 329.463 293.923 327.663 297.921C327.001 299.377 327.557 300.383 329.198 300.489C330.31 300.569 331.449 300.41 332.56 300.41C334.81 300.41 337.06 300.198 339.311 299.933V299.88Z" fill="#BF96F8" stroke="black" stroke-width="4" stroke-linecap="round" stroke-linejoin="round"/>
<path d="M293.806 255.137C292.138 255.535 290.55 256.064 289.2 257.414C286.844 260.062 288.062 264.166 289.412 267.449C291.318 272.135 293.356 276.98 297.115 280.369C302.383 285.108 310.086 286.167 315.698 290.482C317.631 291.965 319.272 293.818 320.728 295.804C322.025 297.578 322.872 300.04 325.44 298.795C327.531 297.789 328.802 290.773 309.451 282.248C303.733 279.733 300.98 272.505 300 266.442C299.736 264.748 299.656 262.948 300.45 261.412C301.615 259.188 304.289 258.288 306.698 257.6C308.683 257.017 311.171 257.176 313.474 256.832C313.739 256.805 312.839 248.148 312.839 248.148C312.839 248.148 307.518 249.71 305.533 250.743C302.595 252.278 299.947 253.655 296.797 254.476C295.818 254.74 294.812 254.899 293.833 255.137H293.806Z" fill="#BF96F8" stroke="black" stroke-width="4" stroke-linecap="round" stroke-linejoin="round"/>
<path d="M403.688 398.793C400.697 393.815 397.308 389.844 391.961 387.541C393.84 386.879 396.09 387.514 398.023 387.673C402.603 388.07 408.982 388.414 412.768 391.115" stroke="black" stroke-width="4" stroke-linecap="round" stroke-linejoin="round"/>
<path d="M254.734 471.23C259.367 466.067 264.449 460.454 268.923 457.012" stroke="black" stroke-width="4" stroke-linecap="round" stroke-linejoin="round"/>
<path d="M262.117 478.908C265.347 474.645 270.165 469.509 273.738 466.041" stroke="black" stroke-width="4" stroke-linecap="round" stroke-linejoin="round"/>
<path d="M194.749 269.249C190.328 265.992 185.828 262.656 182.466 258.394C180.137 255.455 178.416 252.146 176.484 248.969C174.683 245.95 172.804 242.8 170.633 240.02C169.257 238.299 167.774 237.161 167.113 235.069C165.18 228.953 170.263 230.992 173.783 232.819C179.978 236.022 185.299 240.92 190.302 245.712" fill="white"/>
<path d="M194.749 269.249C190.328 265.992 185.828 262.656 182.466 258.394C180.137 255.455 178.416 252.146 176.484 248.969C174.683 245.95 172.804 242.8 170.633 240.02C169.257 238.299 167.774 237.161 167.113 235.069C165.18 228.953 170.263 230.992 173.783 232.819C179.978 236.022 185.299 240.92 190.302 245.712" stroke="black" stroke-width="4" stroke-linecap="round" stroke-linejoin="round"/>
<path d="M36.9763 690.605C36.5263 690.393 36.3939 690.393 36.5527 690.526C44.1766 692.458 53.5475 696.138 58.5242 702.625" stroke="black" stroke-width="4" stroke-linecap="round" stroke-linejoin="round"/>
<path d="M42.9883 705.723C46.3766 701.646 48.812 697.966 49.7915 688.249" stroke="black" stroke-width="4" stroke-linecap="round" stroke-linejoin="round"/>
<path d="M56.7773 687.878C64.4012 688.646 74.6192 692.273 79.6753 697.965" stroke="black" stroke-width="4" stroke-linecap="round" stroke-linejoin="round"/>
<path d="M63.5547 703.393C67.6578 696.827 69.7226 692.035 70.7285 684.437" stroke="black" stroke-width="4" stroke-linecap="round" stroke-linejoin="round"/>
<path d="M193.264 524.922C187.017 534.956 174.84 544.064 163.113 545.97" stroke="black" stroke-width="4" stroke-linecap="round" stroke-linejoin="round"/>
<path d="M397.297 540.337C397.297 540.337 362.794 591.469 297.204 585.952L326.885 639.386C326.885 639.386 401.446 632.933 426.971 584.8L397.297 540.337Z" fill="#DCF672" stroke="black" stroke-width="4" stroke-linecap="round" stroke-linejoin="round"/>
<path d="M313.747 601.448L327.394 626.201C328.218 625.635 329.204 625.256 330.289 625.231C333.228 625.125 335.705 627.445 335.812 630.384C335.823 630.6 335.774 630.828 335.755 631.05C350.827 628.793 394.244 619.82 414.183 589.352C411.841 588.843 410.016 586.832 409.931 584.324C409.847 581.817 411.367 579.869 413.499 579.142C411.735 576.651 409.972 574.16 408.238 571.663C405.224 567.391 402.689 564.458 399.957 560.038C400.189 560.429 393.591 562.371 392.131 556.331C391.902 556.594 391.673 556.857 391.444 557.12C360.178 592.914 315.066 592.404 314.93 591.87C320.74 595.939 315.909 600.714 313.783 601.472L313.747 601.448Z" fill="white" stroke="black" stroke-width="4" stroke-linecap="round" stroke-linejoin="round"/>
<path d="M335.319 615.713C337.838 615.221 339.481 612.78 338.989 610.261C338.497 607.741 336.057 606.097 333.538 606.589C331.019 607.081 329.375 609.522 329.867 612.041C330.359 614.561 332.8 616.205 335.319 615.713Z" fill="#DCF672" stroke="black" stroke-width="4" stroke-linecap="round" stroke-linejoin="round"/>
<path d="M396.448 585.461C398.967 584.969 400.61 582.528 400.118 580.008C399.626 577.489 397.186 575.845 394.667 576.337C392.148 576.828 390.504 579.269 390.996 581.789C391.488 584.308 393.928 585.952 396.448 585.461Z" fill="#DCF672" stroke="black" stroke-width="4" stroke-linecap="round" stroke-linejoin="round"/>
<path d="M369.039 620.908C380.01 618.766 387.168 608.135 385.026 597.162C382.884 586.189 372.254 579.029 361.283 581.171C350.312 583.312 343.154 593.944 345.296 604.917C347.438 615.89 358.068 623.049 369.039 620.908Z" fill="#DCF672" stroke="black" stroke-width="4" stroke-linecap="round" stroke-linejoin="round"/>
<path d="M372 26.4617C372 26.4617 416.046 57.9272 409.18 114.71L457.164 90.5341C457.164 90.5341 453.77 25.6056 412.082 2L372 26.4617Z" fill="#DCF672" stroke="black" stroke-width="4" stroke-linecap="round" stroke-linejoin="round"/>
<path d="M415.14 97.5899C414.932 97.8752 415.451 97.5121 415.14 97.5899C417.912 93.8286 422.653 97.0192 423.223 98.861L444.573 88.0179C444.106 87.3176 443.821 86.4615 443.821 85.5536C443.821 83.0633 445.842 81.0141 448.356 81.0141C448.537 81.0141 448.718 81.04 448.926 81.0659C447.475 68.2255 441.127 31.1569 415.891 13.3359C415.399 15.3074 413.637 16.786 411.512 16.786C409.388 16.786 407.781 15.4371 407.211 13.5953L388.816 25.2166C389.437 25.9948 389.8 26.9546 389.8 28.0181C389.8 30.0415 388.453 31.7535 386.613 32.3242C395.371 40.3138 415.943 64.7755 415.14 97.5899Z" fill="white"/>
<path d="M415.14 97.5899C415.451 97.5121 414.932 97.8752 415.14 97.5899ZM415.14 97.5899C417.912 93.8286 422.653 97.0192 423.223 98.861L444.573 88.0179C444.106 87.3176 443.821 86.4615 443.821 85.5536C443.821 83.0633 445.842 81.0141 448.356 81.0141C448.537 81.0141 448.718 81.04 448.926 81.0659C447.475 68.2255 441.127 31.1569 415.891 13.3359C415.399 15.3074 413.637 16.786 411.512 16.786C409.388 16.786 407.781 15.4371 407.211 13.5953L388.816 25.2166C389.437 25.9948 389.8 26.9546 389.8 28.0181C389.8 30.0415 388.453 31.7535 386.613 32.3242C395.371 40.3138 415.943 64.7755 415.14 97.5899Z" stroke="black" stroke-width="4" stroke-linecap="round" stroke-linejoin="round"/>
<path d="M432.059 85.5284C434.234 85.5284 435.998 83.7631 435.998 81.5855C435.998 79.4079 434.234 77.6426 432.059 77.6426C429.884 77.6426 428.121 79.4079 428.121 81.5855C428.121 83.7631 429.884 85.5284 432.059 85.5284Z" fill="#DCF672" stroke="black" stroke-width="4" stroke-linecap="round" stroke-linejoin="round"/>
<path d="M408.196 32.8175C410.371 32.8175 412.134 31.0522 412.134 28.8746C412.134 26.6969 410.371 24.9316 408.196 24.9316C406.021 24.9316 404.258 26.6969 404.258 28.8746C404.258 31.0522 406.021 32.8175 408.196 32.8175Z" fill="#DCF672" stroke="black" stroke-width="4" stroke-linecap="round" stroke-linejoin="round"/>
<path d="M424.39 72.4279C433.863 72.4279 441.542 64.7395 441.542 55.2555C441.542 45.7714 433.863 38.083 424.39 38.083C414.918 38.083 407.238 45.7714 407.238 55.2555C407.238 64.7395 414.918 72.4279 424.39 72.4279Z" fill="#DCF672" stroke="black" stroke-width="4" stroke-linecap="round" stroke-linejoin="round"/>
<path d="M540.23 207.947C541.887 207.983 599.799 226.052 643.025 228.072L634.67 277.867C634.67 277.867 563.775 273.211 531.911 257.272L540.23 207.947Z" fill="#DCF672" stroke="black" stroke-width="4" stroke-linecap="round" stroke-linejoin="round"/>
<path d="M620.657 269.326C620.744 266.619 623.033 264.497 625.742 264.617C626.352 264.631 626.923 264.787 627.467 265.008L632.678 239.735C632.308 239.817 631.934 239.837 631.544 239.843C628.836 239.754 626.712 237.462 626.829 234.754C626.846 234.206 626.975 233.699 627.153 233.237C599.605 230.531 567.444 222.028 554.475 218.539C554.372 221.231 552.097 223.337 549.404 223.232C548.685 223.208 548.018 223.025 547.424 222.729L542.342 247.23C542.342 247.23 542.513 247.205 542.606 247.2C545.313 247.289 547.438 249.581 547.321 252.289C547.28 253.557 546.733 254.695 545.92 255.536C568.407 264.246 606.452 268.668 620.698 270.074C620.67 269.841 620.64 269.577 620.642 269.343L620.657 269.326Z" fill="white" stroke="black" stroke-width="4" stroke-linecap="round" stroke-linejoin="round"/>
<path d="M616.187 253.493C617.902 255.031 620.538 254.889 622.075 253.176C623.612 251.463 623.468 248.827 621.753 247.289C620.038 245.751 617.402 245.892 615.865 247.605C614.328 249.318 614.472 251.954 616.187 253.493Z" fill="#DCF672" stroke="black" stroke-width="4" stroke-linecap="round" stroke-linejoin="round"/>
<path d="M554.085 241.084C555.8 242.622 558.436 242.481 559.973 240.768C561.51 239.054 561.366 236.419 559.652 234.88C557.937 233.342 555.301 233.484 553.764 235.197C552.227 236.91 552.371 239.546 554.085 241.084Z" fill="#DCF672" stroke="black" stroke-width="4" stroke-linecap="round" stroke-linejoin="round"/>
<path d="M574.495 260.67C582.406 267.767 594.568 267.114 601.659 259.21C608.751 251.306 608.086 239.144 600.176 232.047C592.265 224.949 580.103 225.603 573.011 233.507C565.92 241.411 566.584 253.572 574.495 260.67Z" fill="#DCF672" stroke="black" stroke-width="4" stroke-linecap="round" stroke-linejoin="round"/>
</svg>
