<svg width="762" height="374" viewBox="0 0 762 374" fill="none" xmlns="http://www.w3.org/2000/svg">
<path d="M356.687 189.647C356.076 183.389 355.067 177.288 353.771 171.273C351.7 171.633 349.415 171.404 347.247 170.572C343.546 169.142 341.213 166.418 338.084 164.401C334.956 162.403 329.919 161.202 326.435 163.216C325.057 164.019 324.187 165.187 323.514 166.355C321.316 170.25 321.138 174.873 324.217 178.193C328.222 182.526 336.713 183.823 340.21 188.402C343.395 192.598 340.599 198.835 334.489 201.163C329.197 203.195 323.032 202.341 317.184 202.715C307.482 203.327 298.072 207.73 292.997 214.012C288.904 219.056 287.582 225.07 283.018 229.924C278.453 234.779 268.103 237.817 263.092 233.661C259.497 230.705 260.787 225.974 262.266 221.972C264.6 215.642 266.934 209.313 269.266 202.964C270.884 198.575 272.509 194.047 271.802 189.628C271.007 184.707 265.973 183.545 262.402 180.43C258.745 177.244 255.71 173.368 253.635 169.043C249.822 161.031 255.431 153.378 252.013 145.583C250.872 142.959 248.642 140.48 245.159 139.482C242.912 138.835 240.339 138.89 237.882 139.13C230.533 139.847 202.664 148.905 209.38 131.619C210.733 128.141 213.491 125.352 216.355 122.829C220.577 119.11 225.13 115.752 229.959 112.801C232.969 110.972 236.373 108.947 237.228 105.616C238.686 99.9826 232.098 93.3828 235.95 88.8932C238.229 86.2302 242.644 86.7045 245.841 88.2032C249.057 89.6999 252.014 91.9699 255.565 92.2531C264.847 92.9805 269.217 83.7167 271.65 76.5905C272.737 73.414 273.08 68.6569 274.595 65.2222C264.862 59.8741 254.56 55.5461 243.793 52.3065C245.899 56.9427 238.274 60.4819 234.383 61.5506C228.883 63.0717 223.174 63.8652 217.471 63.9102C211.907 63.9614 205.965 63.3802 201.092 66.08C198.908 67.2969 197.095 69.0878 194.935 70.3419C185.496 75.8689 173.643 69.7635 162.706 70.2211C153.472 70.5911 145.154 75.6939 136.186 77.9864C131.424 79.1992 125.784 78.8838 121.118 77.4499C118.337 76.5799 114.329 74.2353 115.216 70.8225C115.476 69.8524 115.895 68.9061 116.396 67.9912C92.1042 82.4473 72.1775 103.11 58.5274 127.589C59.9949 128.508 61.3192 129.776 63.0144 130.811C70.449 135.4 76.8269 130.979 83.9153 128.594C93.5589 125.369 102.659 120.407 112.722 118.854C119.604 117.788 127.682 118.889 131.628 124.428C133.794 127.464 134.55 131.582 137.72 133.615C140.597 135.46 144.397 134.872 147.861 134.672C154.984 134.252 162.902 136.333 166.7 142.182C171.703 149.881 167.223 160.435 160.248 166.607C153.274 172.779 144.224 176.241 136.759 181.831C134.301 183.665 131.905 185.927 131.247 188.864C130.723 191.159 131.347 193.519 131.729 195.824C133.724 207.989 127.11 222.294 114.764 225.251C106.975 227.114 98.1875 224.39 91.1291 228.09C79.522 234.183 80.77 253.015 69.0872 258.938C66.8372 260.083 64.2906 260.607 62.1785 261.955C55.7469 266.027 57.772 272.659 56.6408 278.812C56.6289 278.892 56.5956 278.954 56.5837 279.034C74.3903 313.057 103.993 339.493 139.45 353.529C143.718 347.05 151.859 342.142 158.235 338.508C169.217 332.26 182.817 336.502 193.778 329.842C202.007 324.827 208.635 320.952 218.822 322.28C227.793 323.451 235.944 328.324 244.789 329.822C252.313 331.095 260.429 328.748 268.185 328.975C273.319 329.143 279.251 327.619 283.65 330.949C286.115 332.814 287.487 334.767 287.998 336.783C334.409 304.973 362.555 249.557 356.702 189.606L356.687 189.647Z" fill="white" stroke="black" stroke-width="4" stroke-linecap="round" stroke-linejoin="round"/>
<path d="M268.169 329.016C260.41 328.769 252.277 331.138 244.773 329.863C235.927 328.365 227.796 323.49 218.806 322.321C208.619 320.993 202.011 324.866 193.762 329.883C182.803 336.562 169.201 332.301 158.219 338.549C151.843 342.183 143.68 347.073 139.434 353.57C162.199 362.586 187.377 366.485 213.442 363.94C241.163 361.234 266.532 351.554 288.004 336.842C287.492 334.825 286.118 332.853 283.655 331.007C279.256 327.677 273.341 329.18 268.19 329.033L268.169 329.016Z" fill="white" stroke="black" stroke-width="4" stroke-linecap="round" stroke-linejoin="round"/>
<path d="M62.1591 261.976C64.2711 260.628 66.8373 260.102 69.0677 258.959C80.77 253.034 79.5025 234.204 91.1097 228.111C98.1681 224.411 106.975 227.133 114.745 225.273C127.11 222.314 133.724 208.009 131.71 195.845C131.327 193.54 130.723 191.179 131.227 188.886C131.885 185.948 134.282 183.687 136.74 181.852C144.204 176.262 153.252 172.781 160.229 166.628C167.205 160.476 171.664 149.904 166.681 142.203C162.882 136.354 154.964 134.274 147.841 134.693C144.377 134.894 140.577 135.481 137.701 133.636C134.531 131.604 133.773 127.466 131.608 124.449C127.663 118.91 119.585 117.809 112.702 118.875C102.639 120.428 93.52 125.393 83.8958 128.615C76.8055 130.98 70.4295 135.421 62.9949 130.833C61.2978 129.778 59.9754 128.53 58.508 127.61C43.2705 154.979 35.8765 187.094 39.1521 220.646C41.2096 241.722 47.3029 261.399 56.5467 279.076C56.5586 278.997 56.5918 278.934 56.6037 278.854C57.7525 272.68 55.7099 266.07 62.1415 261.997L62.1591 261.976Z" fill="#DCF672" stroke="black" stroke-width="4" stroke-linecap="round" stroke-linejoin="round"/>
<path d="M121.119 77.4695C125.788 78.9229 131.428 79.2383 136.188 78.0059C145.155 75.7134 153.474 70.6107 162.707 70.2406C173.646 69.8025 185.5 75.908 194.937 70.3615C197.095 69.0879 198.908 67.297 201.094 66.0995C205.967 63.3997 211.908 63.981 217.473 63.9298C223.176 63.8847 228.883 63.0717 234.384 61.5702C238.256 60.5034 245.9 56.9623 243.795 52.3261C224.472 46.5169 203.745 44.2694 182.437 46.3496C158.302 48.7057 135.964 56.3581 116.415 67.9894C115.914 68.9043 115.495 69.8506 115.235 70.8207C114.35 74.253 118.358 76.5975 121.137 77.4481L121.119 77.4695Z" fill="white" stroke="black" stroke-width="4" stroke-linecap="round" stroke-linejoin="round"/>
<path d="M274.598 65.2612C273.105 68.7135 272.743 73.4725 271.654 76.6295C269.22 83.7557 264.87 93.0176 255.568 92.2921C252.018 92.0089 249.039 89.7213 245.844 88.2422C242.628 86.7454 238.232 86.2692 235.953 88.9322C232.101 93.4218 238.689 100.022 237.232 105.655C236.376 108.986 232.972 111.011 229.962 112.84C225.134 115.791 220.581 119.149 216.358 122.868C213.512 125.37 210.734 128.16 209.383 131.658C202.689 148.962 230.538 139.906 237.886 139.169C240.362 138.927 242.915 138.874 245.163 139.521C248.645 140.519 250.877 143.018 252.017 145.622C255.435 153.417 249.825 161.07 253.638 169.082C255.694 173.409 258.749 177.283 262.405 180.469C265.977 183.584 271.01 184.746 271.806 189.667C272.532 194.084 270.888 198.614 269.27 203.003C266.936 209.333 264.601 215.662 262.269 222.011C260.79 226.013 259.52 230.742 263.095 233.7C268.106 237.856 278.476 234.816 283.021 229.963C287.586 225.109 288.909 219.115 293.001 214.051C298.077 207.788 307.488 203.386 317.188 202.754C323.016 202.382 329.179 203.217 334.493 201.202C340.62 198.852 343.416 192.616 340.214 188.441C336.736 183.86 328.245 182.563 324.221 178.233C321.141 174.912 321.32 170.289 323.518 166.394C324.189 165.206 325.059 164.039 326.439 163.255C329.903 161.243 334.939 162.425 338.087 164.44C341.215 166.437 343.549 169.181 347.251 170.611C349.399 171.444 351.704 171.672 353.775 171.313C343.787 125.051 314.091 86.9724 274.58 65.2826L274.598 65.2612Z" fill="#DCF672" stroke="black" stroke-width="4" stroke-linecap="round" stroke-linejoin="round"/>
<path d="M184.074 46.2088C241.818 40.5715 295.933 110.651 304.37 197.077C312.808 283.503 272.839 358.122 215.076 363.761C157.312 369.4 103.666 303.92 95.229 217.494C86.7917 131.068 126.311 51.8479 184.074 46.2088Z" stroke="black" stroke-width="4" stroke-linecap="round" stroke-linejoin="round"/>
<path d="M46.7856 154.714C45.9901 154.831 160.538 41.5982 315.617 99.006" stroke="black" stroke-width="4" stroke-linecap="round" stroke-linejoin="round"/>
<path d="M39.5472 224.682C39.5472 224.682 188.873 100.988 351.507 163.208" stroke="black" stroke-width="4" stroke-linecap="round" stroke-linejoin="round"/>
<path d="M140.581 225.643C133.829 228.448 127.77 234.727 123.012 239.207C113.495 248.166 112.934 253.909 120.527 263.757C128.077 273.549 130.221 284.027 132.835 295.68C134.089 301.265 138.546 309.431 143.55 302.428C146.945 297.687 146.497 286.65 155.135 287.834C162.995 288.917 166.107 302.253 172.971 306.031C179.418 309.574 193.777 315.946 198.369 307.547C203.278 298.565 193.981 287.998 188.396 281.792C184.201 277.124 179.679 273.55 177.462 267.37C175.379 261.551 175.908 255.083 174.073 249.18C171.111 239.609 160.389 226.544 150.249 224.483C146.896 223.806 143.644 224.36 140.542 225.647L140.581 225.643Z" fill="#DCF672" stroke="black" stroke-width="4" stroke-linecap="round" stroke-linejoin="round"/>
<path d="M184.074 46.2087C207.273 43.9439 233.025 113.19 241.586 200.883C250.147 288.577 238.274 361.496 215.075 363.761C191.876 366.026 166.124 296.779 157.563 209.086C149.002 121.393 160.875 48.4735 184.074 46.2087Z" stroke="black" stroke-width="4" stroke-linecap="round" stroke-linejoin="round"/>
<path d="M67.4487 294.978C67.4487 294.978 185.499 185.969 352.433 242.849" stroke="black" stroke-width="4" stroke-linecap="round" stroke-linejoin="round"/>
<path d="M273.657 250.598C265.156 250.405 263.308 254.463 263.678 262.083C264.011 269.116 262.723 275.481 260.273 282.038C258.9 285.715 254.88 292.307 257.826 296.074C261.757 301.063 266.723 296.091 269.107 292.69C272.545 287.788 275.542 283.815 279.279 279.356C284.249 273.419 289.478 252.99 273.64 250.62L273.657 250.598Z" fill="#DCF672" stroke="black" stroke-width="4" stroke-linecap="round" stroke-linejoin="round"/>
<path d="M24.0975 19.3404L35.2707 34.1189L52.7786 28.0593L42.1761 43.2524L53.3494 58.0309L35.6235 52.6423L25.021 67.8355L24.6683 49.312L6.9424 43.9234L24.4503 37.8639L24.0975 19.3404Z" fill="#FCDC41" stroke="black" stroke-width="4" stroke-linecap="round" stroke-linejoin="round"/>
<path d="M736.215 121.477L739.484 139.713L757.838 142.24L741.504 150.984L744.773 169.22L731.409 156.388L715.076 165.132L723.15 148.458L709.787 135.626L728.141 138.152L736.215 121.477Z" fill="#FCDC41" stroke="black" stroke-width="4" stroke-linecap="round" stroke-linejoin="round"/>
<rect x="580" y="176" width="59" height="66" fill="white" stroke="black" stroke-width="4" stroke-linecap="round" stroke-linejoin="round"/>
<rect x="639" y="151" width="59" height="91" fill="white" stroke="black" stroke-width="4" stroke-linecap="round" stroke-linejoin="round"/>
<rect x="698" y="193" width="59" height="49" fill="white" stroke="black" stroke-width="4" stroke-linecap="round" stroke-linejoin="round"/>
<path d="M597.422 208.98V203.909H621.314V208.98H612.408V233H606.328V208.98H597.422Z" fill="black"/>
<path d="M683.26 218.454C683.26 221.627 682.659 224.326 681.456 226.551C680.263 228.776 678.634 230.476 676.57 231.65C674.515 232.815 672.204 233.398 669.638 233.398C667.053 233.398 664.732 232.81 662.678 231.636C660.623 230.462 658.999 228.762 657.805 226.537C656.612 224.311 656.016 221.617 656.016 218.454C656.016 215.282 656.612 212.583 657.805 210.358C658.999 208.132 660.623 206.437 662.678 205.273C664.732 204.098 667.053 203.511 669.638 203.511C672.204 203.511 674.515 204.098 676.57 205.273C678.634 206.437 680.263 208.132 681.456 210.358C682.659 212.583 683.26 215.282 683.26 218.454ZM677.024 218.454C677.024 216.399 676.716 214.667 676.101 213.256C675.495 211.845 674.638 210.774 673.53 210.045C672.422 209.316 671.125 208.952 669.638 208.952C668.151 208.952 666.854 209.316 665.746 210.045C664.638 210.774 663.776 211.845 663.161 213.256C662.554 214.667 662.251 216.399 662.251 218.454C662.251 220.509 662.554 222.242 663.161 223.653C663.776 225.064 664.638 226.134 665.746 226.864C666.854 227.593 668.151 227.957 669.638 227.957C671.125 227.957 672.422 227.593 673.53 226.864C674.638 226.134 675.495 225.064 676.101 223.653C676.716 222.242 677.024 220.509 677.024 218.454Z" fill="black"/>
<path d="M717.527 233V203.909H729.005C731.211 203.909 733.091 204.331 734.644 205.173C736.197 206.007 737.381 207.167 738.195 208.653C739.019 210.131 739.431 211.835 739.431 213.767C739.431 215.699 739.014 217.403 738.181 218.881C737.347 220.358 736.14 221.509 734.559 222.332C732.987 223.156 731.083 223.568 728.848 223.568H721.533V218.639H727.854C729.038 218.639 730.013 218.436 730.78 218.028C731.557 217.612 732.134 217.039 732.513 216.31C732.901 215.571 733.096 214.724 733.096 213.767C733.096 212.801 732.901 211.958 732.513 211.239C732.134 210.51 731.557 209.946 730.78 209.548C730.004 209.141 729.019 208.938 727.826 208.938H723.678V233H717.527Z" fill="black"/>
<path d="M686.007 106.627V95L615.65 103.05L616.83 114.205L631.438 132.834L556.54 182.879L515.563 152.049L432.297 215.298V226.136L444.35 239.6L516.535 175.369L555.929 205.026L642.61 147.088L659.322 168.4L686.007 106.627Z" fill="black" stroke="black" stroke-width="4" stroke-linecap="round" stroke-linejoin="round"/>
<path d="M685.71 95.5938L616.533 103.172L631.142 121.8L556.243 171.846L515.266 141.016L432 215.103L444.053 228.567L516.238 164.336L555.632 193.993L642.313 136.054L659.025 157.367L685.71 95.5938Z" fill="white" stroke="black" stroke-width="4" stroke-linecap="round" stroke-linejoin="round"/>
<path d="M413.183 32.0673C414.928 32.586 471.025 68.5165 516.221 83.1895L492.932 133.506C492.932 133.506 419.195 108.017 390.069 81.896L413.183 32.0673Z" fill="#DCF672" stroke="black" stroke-width="4" stroke-linecap="round" stroke-linejoin="round"/>
<path d="M480.569 120.397C481.446 117.555 484.486 115.971 487.321 116.884C487.963 117.075 488.522 117.407 489.033 117.798L501.882 92.5418C501.466 92.5216 501.064 92.4345 500.649 92.327C497.807 91.4479 496.221 88.4049 497.131 85.5701C497.308 84.995 497.591 84.4956 497.914 84.0572C469.521 73.2033 437.925 54.8718 425.201 47.4155C424.311 50.2371 421.291 51.8081 418.47 50.9158C417.714 50.6819 417.062 50.295 416.518 49.8091L404.031 74.2851C404.031 74.2851 404.219 74.3083 404.319 74.3301C407.161 75.2092 408.747 78.2522 407.837 81.087C407.427 82.4177 406.517 83.4649 405.412 84.1191C426.702 99.8653 465.715 115.581 480.396 121.201C480.433 120.946 480.478 120.658 480.549 120.41L480.569 120.397Z" fill="white" stroke="black" stroke-width="4" stroke-linecap="round" stroke-linejoin="round"/>
<path d="M480.423 102.33C481.793 104.457 484.626 105.071 486.751 103.703C488.875 102.334 489.487 99.5004 488.117 97.3739C486.747 95.2473 483.914 94.633 481.79 96.0017C479.665 97.3705 479.053 100.204 480.423 102.33Z" fill="#DCF672" stroke="black" stroke-width="4" stroke-linecap="round" stroke-linejoin="round"/>
<path d="M418.247 71.1806C419.617 73.3071 422.45 73.9214 424.575 72.5527C426.699 71.1839 427.311 68.3505 425.941 66.224C424.571 64.0974 421.739 63.4831 419.614 64.8518C417.489 66.2206 416.877 69.054 418.247 71.1806Z" fill="#DCF672" stroke="black" stroke-width="4" stroke-linecap="round" stroke-linejoin="round"/>
<path d="M434.184 97.842C440.504 107.653 453.575 110.488 463.377 104.173C473.18 97.8576 476.003 84.7847 469.683 74.9734C463.362 65.1621 450.292 62.3278 440.489 68.6428C430.686 74.9578 427.863 88.0307 434.184 97.842Z" fill="#DCF672" stroke="black" stroke-width="4" stroke-linecap="round" stroke-linejoin="round"/>
</svg>
