<svg width="632" height="461" viewBox="0 0 632 461" fill="none" xmlns="http://www.w3.org/2000/svg">
<path d="M127.291 458.327C138.429 456.437 148.577 463.396 158.363 457.027C164.16 453.259 168.618 450.175 175.606 449.304C182.594 448.432 189.261 449.371 196.062 448.888C202.863 448.405 207.937 444.651 214.363 443.23C221.244 441.701 227.67 442.237 234.591 442.988C242.061 443.806 250.469 442.653 257.243 439.207C261.955 436.807 265.396 433.361 271.032 433.106C275.209 432.918 280.523 435.439 284.553 433.736C289.466 431.645 287.512 421.575 287.458 416.909C287.351 405.807 286.28 396.086 285.436 385.292C284.566 374.123 287.779 363.034 286.842 351.865C285.45 335.319 272.638 321.588 256.841 321.213L128.188 387.343C123.221 397.534 127.492 415.675 127.505 426.295C127.505 438.979 128.268 445.71 127.291 458.368" fill="black"/>
<path d="M149.477 325.021C139.959 326.443 132.81 334.313 125.862 339.462C119.985 343.82 113.492 347.454 107.561 351.731C101.858 355.834 98.5652 361.653 93.5181 365.837C92.7952 360.741 94.4418 355.298 95.1246 350.216C97.4942 332.369 97.4808 318.103 93.7323 300.846C84.2406 303.943 73.9457 302.884 65.4447 297.682C65.418 309.307 64.8155 320.758 63.0618 332.892C60.4512 350.967 54.6277 369.028 54.119 387.263C53.7709 399.626 51.5486 423.211 70.6257 422.648C89.1404 422.112 113.211 404.614 126.505 394.866C135.206 388.483 143.4 381.31 152.864 375.88C156.064 374.043 158.675 373.828 159.946 370.865C163.441 362.713 168.34 356.29 169.197 347.333C170.322 335.735 164.712 322.729 149.477 325.008V325.021Z" fill="black" stroke="black" stroke-width="4" stroke-linecap="round" stroke-linejoin="round"/>
<path d="M93.7189 300.846C93.4913 299.813 93.2638 298.781 93.0094 297.722C91.2289 290.253 90.8272 280.827 86.6236 274.404C81.5899 266.708 64.3202 257.456 64.9092 273.519C65.2172 281.833 65.4447 289.797 65.4313 297.681C73.9323 302.884 84.2273 303.943 93.7189 300.846Z" fill="white" stroke="black" stroke-width="4" stroke-linecap="round" stroke-linejoin="round"/>
<path d="M287.873 433.441C287.753 426 287.525 425.088 287.445 416.882C287.338 405.78 286.267 396.059 285.423 385.265C284.553 374.096 287.766 363.007 286.829 351.838C285.436 335.292 272.625 321.561 256.828 321.186L128.175 387.316C123.208 397.507 128.67 415.715 127.492 426.268C125.778 441.741 128.255 445.683 127.278 458.341" stroke="black" stroke-width="4" stroke-linecap="round" stroke-linejoin="round"/>
<path d="M375.775 285.574C361.786 318.33 362.067 359.012 337.38 385.533C323.391 400.564 306.844 390.789 297.981 373.198C289.119 355.606 286.04 325.906 294.273 306.92C301.449 290.387 323.377 288.617 336.885 283.214C345.185 279.888 356.98 267.74 366.217 270.905C372.147 272.929 377.154 283.495 375.789 285.587L375.775 285.574Z" fill="black" stroke="black" stroke-width="4" stroke-linecap="round" stroke-linejoin="round"/>
<path d="M384.144 325.383C382.417 316.896 382.952 305.941 382.885 297.507C382.778 284.849 381.814 272.219 381.814 259.561V182.315C381.814 172.326 382.042 162.296 381.814 152.307C381.399 133.281 382.591 114.455 381.747 95.375C381.466 89.006 381.252 81.6046 381.252 75.2222C364.17 78.9765 345.548 84.2997 328.439 89.4217C293.19 99.9741 255.906 102.106 220.402 111.197C200.054 116.413 180.642 121.843 160.025 125.879C129.944 131.779 99.7819 137.424 70.0619 144.973C69.7272 148.821 69.7004 152.776 69.9816 156.598C71.4006 175.49 71.8424 194.436 72.8465 213.356C75.2294 258.462 77.3179 303.554 78.5227 348.7C78.9511 364.697 78.1881 381.698 79.6071 397.279C79.8615 400.122 79.9954 405.15 79.6071 406.571C90.3572 404.439 100.545 403.219 111.175 400.403C129.207 395.63 147.401 393.592 165.527 389.583C203.735 381.149 240.684 368.303 278.423 358.059C304.248 351.047 330.674 344.128 355.87 335.104C365.214 331.766 375.054 329.955 384.532 327.153C384.385 326.563 384.251 325.96 384.117 325.356L384.144 325.383Z" fill="white" stroke="black" stroke-width="4" stroke-linecap="round" stroke-linejoin="round"/>
<path d="M202.156 246.635C206.253 244.905 212.371 231.658 213.79 226.12C215.691 218.652 215.022 211.398 219.198 204.6C223.857 197.024 233.322 196.434 241.073 199.223C250.324 202.562 254.822 207.523 256.429 217.351C258.932 232.623 249.374 246.166 250.297 261.103C250.445 263.436 251.221 273.6 253.604 273.814" stroke="black" stroke-width="4" stroke-linecap="round" stroke-linejoin="round"/>
<path d="M294.007 231.202C295.038 219.832 291.397 205.351 283.953 196.582C275.305 186.364 264.113 180.183 250.378 180.451C238.637 180.693 224.098 180.719 213.924 187.33C199.961 196.407 195.235 213.476 196.6 229.352C198.019 245.938 208.877 262.792 224.138 269.644C235.21 274.619 248.075 277.019 260.057 274.257C279.053 269.885 292.334 249.558 294.007 231.189V231.202Z" stroke="black" stroke-width="4" stroke-linecap="round" stroke-linejoin="round"/>
<path d="M291.557 167.62C291.316 173.211 289.562 178.99 289.964 184.528C291.57 206.317 286.871 245.536 259.588 249.505C245.464 251.557 234.152 241.889 226.936 231.001C222.786 224.726 220.497 217.472 218.783 210.205C217.069 202.938 215.249 195.603 214.231 187.974C213.013 178.91 212.397 169.966 215.115 161.103C219.921 145.415 235.865 128.038 253.416 128.776C262.627 129.164 272.828 131.444 280.338 137.049C283.819 139.636 286.577 144.101 288.545 147.95C291.57 153.863 291.838 161.103 291.557 167.633V167.62Z" fill="white" stroke="black" stroke-width="4" stroke-linecap="round" stroke-linejoin="round"/>
<path d="M268.838 194.798C268.449 199.934 280.07 208.502 270.484 211.747" stroke="black" stroke-width="4" stroke-linecap="round" stroke-linejoin="round"/>
<path d="M249.438 214.228C256.319 222.018 266.587 222.93 276.266 222.085" stroke="black" stroke-width="4" stroke-linecap="round" stroke-linejoin="round"/>
<path d="M244.068 189.489C247.189 186.11 254.244 186.12 257.827 188.668" stroke="black" stroke-width="4" stroke-linecap="round" stroke-linejoin="round"/>
<path d="M252.591 191.288C252.19 195.539 246.848 192.75 248.227 189.585C247.932 187.091 252.953 187.453 252.591 191.288Z" fill="black" stroke="black" stroke-width="4" stroke-linecap="round" stroke-linejoin="round"/>
<path d="M275.543 189.274C279.077 186.324 286.065 187.263 289.292 190.253" stroke="black" stroke-width="4" stroke-linecap="round" stroke-linejoin="round"/>
<path d="M282.6 191.942C281.395 196.032 276.682 192.278 278.65 189.435C278.838 186.928 283.697 188.242 282.6 191.942Z" fill="black" stroke="black" stroke-width="4" stroke-linecap="round" stroke-linejoin="round"/>
<path d="M203.882 189.663C204.19 190.226 204.511 190.776 204.846 191.339C208.501 197.44 212.678 201.919 217.992 206.397C216.721 199.304 214.819 190.937 216.426 183.75C217.403 185.895 218.474 188.135 219.974 189.998C219.211 189.06 219.077 184.85 218.675 183.375C218.059 181.068 218.34 178.883 218.581 176.523C219.893 180.411 220.777 187.652 225.355 189.1C224.391 186.968 223.843 184.501 223.588 182.155C223.026 176.872 222.357 171.066 223.026 165.783C223.642 160.996 225.208 156.169 227.511 151.919C228.274 150.511 230.536 146.528 232.531 146.475C233.589 146.448 233.16 146.743 233.856 147.387C236.039 149.425 237.002 151.262 239.867 152.79C247.364 156.759 259.587 159.655 267.352 155.15C264.5 153.192 261.582 149.746 259.292 147.172C261.662 150.095 267.512 152.857 271.154 152.428C273.108 152.2 282.051 148.566 282.359 146.649C280.993 150.216 284.394 155.472 286.643 157.912C289.093 160.567 291.837 163.343 293.337 166.668C294.1 168.357 295.224 172.326 293.752 173.922C293.457 172.165 294.528 170.302 295.064 168.679C297.875 160.138 302.132 146.394 295.305 138.604C292.989 135.963 289.401 134.541 286.804 132.329C289.401 130.773 293.203 129.366 293.711 126.054C289.253 125.933 284.889 125.732 280.699 124.042C275.906 122.098 271.408 119.886 266.348 118.679C262.171 117.687 257.632 115.568 253.362 115.622C250.939 115.649 248.556 116.131 246.213 116.654C245.182 116.882 240.269 117.298 239.72 118.049C240.912 116.386 242.344 114.16 244.058 113.007C238.127 115.769 231.781 117.11 225.637 119.269C219.492 121.428 215.047 125.129 211.66 130.572C209.25 134.447 208.032 138.819 207.992 143.377C207.979 145.053 208.38 145.174 207.215 146.086C206.533 146.622 205.207 146.729 204.404 147.279C202.65 148.499 201.499 150.417 200.642 152.334C195.582 163.705 197.951 179.03 203.869 189.677L203.882 189.663Z" fill="black" stroke="black" stroke-width="4" stroke-linecap="round" stroke-linejoin="round"/>
<path d="M219.171 189.086C218.769 187.196 217.042 185.989 215.141 185.868C210.107 185.587 208.434 191.151 208.273 195.093C208.006 201.811 214.739 218.96 223.16 211.049" fill="white"/>
<path d="M219.171 189.086C218.769 187.196 217.042 185.989 215.141 185.868C210.107 185.587 208.434 191.151 208.273 195.093C208.006 201.811 214.739 218.96 223.16 211.049" stroke="black" stroke-width="4" stroke-linecap="round" stroke-linejoin="round"/>
<path d="M250.497 215.769C249.225 221.106 251.538 227.435 257 229.5C259.972 230.626 265.55 231.511 268 229.5C269.633 228.159 271.916 224.203 273 222.5" stroke="black" stroke-width="4" stroke-linecap="round" stroke-linejoin="round"/>
<path d="M246 216.59C246.054 214.485 248.985 211.883 251.074 212.004" stroke="black" stroke-width="4" stroke-linecap="round" stroke-linejoin="round"/>
<path d="M275.062 178.561C278.5 177 289.598 175.74 290 180.5" stroke="black" stroke-width="4" stroke-linecap="round" stroke-linejoin="round"/>
<path d="M261.5 177.823C253.802 175.839 247.251 175.661 239.5 179" stroke="black" stroke-width="4" stroke-linecap="round" stroke-linejoin="round"/>
<path d="M83.7031 217.123L101.897 202.347L121.509 185.855L122.393 204.788C122.393 204.788 115.538 208.944 110.839 211.613C113.088 211.921 123.236 212.404 123.236 212.404L124.802 229.258L83.7031 217.123Z" stroke="black" stroke-width="4" stroke-linecap="round" stroke-linejoin="round"/>
<path d="M111.481 249.518C111.481 249.518 111.414 249.438 111.374 249.397C110.196 248.11 108.536 247.091 106.956 246.367C103.676 244.852 99.6063 244.53 96.3666 247.239C93.823 249.344 92.096 251.516 91.8684 254.828C91.3329 262.216 96.2193 268.464 101.614 272.567C104.466 274.753 107.545 276.63 110.33 278.909C111.896 280.183 114.239 282.087 115.122 283.978C118.402 279.472 122.874 275.584 125.993 270.904C130.866 263.543 138.015 254.64 134.547 245.563C130.478 234.97 115.631 245.375 114.065 253.755C114.239 252.803 112.231 250.336 111.494 249.505L111.481 249.518Z" stroke="black" stroke-width="4" stroke-linecap="round" stroke-linejoin="round"/>
<path d="M117.653 294.812L123.516 311.05L141.603 306.397L126.073 321.629L131.937 338.818L117.318 330.344L102.485 345.255L109.593 326.523L93.3945 319.175L112.873 313.879L117.653 294.812Z" stroke="black" stroke-width="4" stroke-linecap="round" stroke-linejoin="round"/>
<path d="M348.062 158.783C350.285 162.779 359.656 175.356 362.093 177.113C363.686 175.115 366.002 173.76 367.97 172.098C366.417 168.33 356.697 157.55 355.211 155.458C353.016 156.839 350.7 158.421 348.062 158.797V158.783Z" fill="white" stroke="black" stroke-width="4" stroke-linecap="round" stroke-linejoin="round"/>
<path d="M341.168 121.146C336.898 121.173 332.641 122.782 329.187 126.268C324.073 131.43 322.439 140.749 324.113 147.641C325.893 154.976 333.497 158.904 340.432 159.883C345.024 160.54 348.197 159.682 352.333 157.832C356.283 156.062 359.589 150.832 360.366 146.662C361.33 141.433 360.66 135.493 357.889 130.881C354.181 124.713 347.675 121.092 341.182 121.133L341.168 121.146Z" fill="white" stroke="black" stroke-width="4" stroke-linecap="round" stroke-linejoin="round"/>
<path d="M341.627 128.91C339.056 128.923 336.499 129.889 334.424 131.994C331.345 135.091 330.368 140.709 331.372 144.853C332.443 149.264 337.021 151.624 341.185 152.214C343.956 152.603 345.857 152.093 348.347 150.98C350.73 149.921 352.711 146.77 353.18 144.263C353.756 141.112 353.354 137.545 351.694 134.769C349.458 131.055 345.549 128.883 341.64 128.91H341.627Z" fill="white" stroke="black" stroke-width="4" stroke-linecap="round" stroke-linejoin="round"/>
<path d="M160.254 311.988C167.162 312.752 174.752 310.58 181.245 308.596C193.093 304.989 204.66 302.589 216.682 299.947C230.431 296.917 243.631 292.251 257.634 289.623C272.387 286.861 287.314 285.104 302.12 282.61C316.726 280.157 331.238 274.069 346.312 274.994" stroke="black" stroke-width="4" stroke-linecap="round" stroke-linejoin="round"/>
<path d="M161.098 333.522C167.229 329.244 176.748 328.172 183.696 326.791C196.574 324.23 209.292 320.985 222.131 318.343C242.078 314.254 262.065 309.802 281.839 304.908C294.998 301.65 308.426 299.665 321.559 296.501C330.622 294.316 340.783 293.726 349.472 290.642" stroke="black" stroke-width="4" stroke-linecap="round" stroke-linejoin="round"/>
<path d="M320.098 337.061C319.978 334.071 321.397 328.721 320.205 326.134C319.121 323.76 315.935 324.739 313.927 325.061C308.92 325.852 304.141 327.917 299.334 329.781C296.028 331.054 292.587 332.033 289.414 333.709C291.637 330.558 293.926 327.019 296.269 323.961C294.194 327.957 291.342 331.054 288.785 334.433C290.244 335.05 297.166 335.238 297.259 337.303" stroke="black" stroke-width="4" stroke-linecap="round" stroke-linejoin="round"/>
<path d="M335.601 333.469C335.601 330.13 335.12 326.456 336.298 323.278C337.904 318.934 342.148 318.25 346.178 317.137C351.399 315.702 357.383 314.093 362.577 313.423C359.485 312.096 355.401 309.91 352.563 307.912C354.745 308.945 356.914 309.91 359.096 310.969C360.355 311.586 362.39 311.841 363.327 312.766C361.305 315.314 356.928 317.593 355.79 320.288" stroke="black" stroke-width="4" stroke-linecap="round" stroke-linejoin="round"/>
<path d="M2 92.9613C4.11521 94.8385 34.9464 135.466 40.0202 143.082C43.4876 140.575 47.1022 138.416 50.9711 136.525C53.488 135.292 57.0758 134.058 59.2044 132.422C57.9861 133.361 17.9578 83.8972 16.3513 82.8916C14.9992 83.9643 2.58905 93.4708 2.01339 92.9613H2Z" fill="white" stroke="black" stroke-width="4" stroke-linecap="round" stroke-linejoin="round"/>
<path d="M10.4219 102.535C12.0284 100.886 13.916 99.6121 15.8839 98.4321L10.4219 102.535Z" fill="white"/>
<path d="M10.4219 102.535C12.0284 100.886 13.916 99.6121 15.8839 98.4321" stroke="black" stroke-width="4" stroke-linecap="round" stroke-linejoin="round"/>
<path d="M15.668 108.931C17.4753 108.461 18.9613 106.973 20.6749 106.195L15.668 108.931Z" fill="white"/>
<path d="M15.668 108.931C17.4753 108.461 18.9613 106.973 20.6749 106.195" stroke="black" stroke-width="4" stroke-linecap="round" stroke-linejoin="round"/>
<path d="M22.2695 116.225C23.4075 115.501 24.4517 114.616 25.4557 113.718L22.2695 116.225Z" fill="white"/>
<path d="M22.2695 116.225C23.4075 115.501 24.4517 114.616 25.4557 113.718" stroke="black" stroke-width="4" stroke-linecap="round" stroke-linejoin="round"/>
<path d="M27.5039 123.988C28.6954 123.117 29.9538 122.353 31.1453 121.481L27.5039 123.988Z" fill="white"/>
<path d="M27.5039 123.988C28.6954 123.117 29.9538 122.353 31.1453 121.481" stroke="black" stroke-width="4" stroke-linecap="round" stroke-linejoin="round"/>
<path d="M36.2705 81.8059C34.49 80.921 31.9732 81.5914 31.103 83.0931C29.8981 85.1714 31.103 89.5292 32.0669 91.527C34.1419 95.8043 39.7512 100.846 44.8385 99.3173C45.4141 102.079 46.5788 104.761 47.4222 107.456C48.7744 111.801 49.6044 116.333 51.01 120.623C51.7731 122.97 52.9512 125.061 53.9419 127.314C54.4774 128.534 54.9861 131.444 55.9768 132.275C56.9674 133.107 56.124 132.704 57.3824 132.731C57.9849 132.745 61.1711 131.806 61.5459 131.39C64.1966 128.494 49.7249 97.9228 50.9833 97.5072C54.7719 96.4077 58.1455 91.9963 58.3865 88.0811C58.5605 85.3591 57.3289 79.0304 54.8121 77.4482C53.4064 76.5632 49.832 77.5152 48.5602 78.2795C49.2697 82.302 49.7382 89.7169 43.7675 89.1403C41.8798 88.9526 40.1796 87.9202 39.0417 86.4318C38.292 85.453 37.5825 82.5166 36.2705 81.7925V81.8059Z" fill="white" stroke="black" stroke-width="4" stroke-linecap="round" stroke-linejoin="round"/>
<path d="M71.2265 89.7298C73.7969 81.6847 78.4156 74.7123 81.2671 66.7611C81.9632 64.8303 83.6634 61.6391 82.7129 59.7083C81.99 58.2468 80.4237 58.8099 81.0797 56.6244C81.6553 54.6667 84.5202 49.4777 86.3141 48.6061C88.2419 47.6675 92.7669 48.8341 92.9944 51.261C93.222 53.6879 92.0975 55.8467 91.2809 57.9786C90.8926 58.9977 90.6383 60.1776 89.8752 60.9419C89.4736 61.3575 88.5766 60.9419 88.1214 61.3978C85.7251 63.8113 84.9218 69.1478 83.9446 72.2988C82.7665 76.0934 81.7758 79.9684 80.5174 83.7496C79.4866 86.847 79.018 90.4672 77.532 93.3634C75.6578 93.6182 70.2359 92.7735 71.1998 89.7298H71.2265Z" fill="white" stroke="black" stroke-width="4" stroke-linecap="round" stroke-linejoin="round"/>
<path d="M51.7738 128.896C51.2249 127.877 51.0509 126.496 51.4123 124.659C52.9787 116.855 57.4634 109.293 60.5158 101.999C62.0553 98.3113 63.7421 94.6911 65.3085 91.0037C65.9243 89.5422 66.5267 87.4505 67.6914 86.2974C70.5028 83.4816 79.7803 84.4738 82.3774 87.3835C85.2289 90.5747 80.8914 99.9472 79.6598 103.192C77.8792 107.898 75.175 112.471 72.9661 117.003C71.6273 119.751 70.2216 122.621 68.7089 125.289C67.4638 127.475 65.4022 129.58 63.0326 130.344C58.9896 131.631 53.5142 132.101 51.7872 128.909L51.7738 128.896Z" fill="black" stroke="black" stroke-width="4" stroke-linecap="round" stroke-linejoin="round"/>
<path d="M19.1374 128.091C15.9512 131.149 16.4599 135.533 16.4866 140.789C16.5402 151.932 17.4907 163.047 17.7852 174.19C17.9325 179.607 16.1654 185.493 21.1053 188.684C26.4736 192.157 36.3268 190.923 42.418 189.985C50.6647 188.711 60.2099 186.633 68.2825 184.34C79.7957 181.068 91.6971 179.54 103.143 176.12C114.108 172.849 112.22 161.277 112.421 151.194C112.702 137.276 112.22 122.513 110.52 108.703C109.154 97.6409 107.949 97.0241 96.2889 97.9493C87.8415 98.6197 75.4715 99.9337 69.8087 106.45C67.3989 109.226 65.9397 114.737 63.0882 116.828C60.5044 118.732 55.3904 118.893 52.2712 119.564C48.5762 120.355 44.8679 121.065 41.1195 121.454C34.5061 122.138 27.5446 123.305 21.5872 126.375C20.5966 126.885 19.7933 127.461 19.1507 128.078L19.1374 128.091Z" fill="white" stroke="black" stroke-width="4" stroke-linecap="round" stroke-linejoin="round"/>
<path d="M76.1653 156.826C70.9442 159.588 69.3645 149.867 75.7101 150.336C75.9109 148.271 73.2602 145.308 72.4971 143.35C71.801 145 69.2574 147.051 67.3564 146.407C64.6387 145.482 65.5491 142.599 65.4286 140.427C63.2866 140.722 60.917 140.333 58.7884 140.722C59.5113 142.693 60.2209 147.038 56.633 146.783C54.5848 146.635 53.2862 143.887 52.8444 142.13C51.9073 142.921 50.9836 143.82 50.0331 144.705C49.203 145.496 48.3462 146.273 47.4761 146.984C47.7572 146.756 49.618 150.712 49.6716 151.06C50.2874 154.359 48.1588 154.814 45.468 154.935C45.468 156.839 44.9994 158.716 44.8789 160.553C44.9325 159.642 51.0237 161.639 51.0103 164.321C51.0103 164.871 49.9661 168.478 49.2298 168.263C51.827 169.041 54.4375 170.476 56.3117 172.5C56.7937 170.998 58.1592 169.269 59.846 168.907C63.1661 168.196 62.9519 169.617 63.0054 172.085C65.3349 171.669 67.6241 170.73 70.0472 170.449C68.7219 166.507 71.5734 164.495 75.5896 164.428C75.429 161.505 76.0716 159.762 76.1385 156.799L76.1653 156.826Z" fill="white" stroke="black" stroke-width="4" stroke-linecap="round" stroke-linejoin="round"/>
<path d="M60.0879 151.864C58.1199 152.159 56.5268 153.688 55.9511 155.646C54.7329 159.749 58.9767 163.543 62.752 161.787C66.8217 159.896 67.1564 153.835 62.6448 152.159C61.7479 151.824 60.8777 151.744 60.0745 151.864H60.0879Z" stroke="black" stroke-width="4" stroke-linecap="round" stroke-linejoin="round"/>
<path d="M92.0707 131.444C92.2046 130.344 91.8432 128.829 91.7494 127.716C90.076 127.756 88.4561 126.71 87.76 125.195C87.0505 123.653 87.7466 122.259 88.6837 121.293C86.8363 119.832 84.2391 118.075 81.8294 117.713C82.0168 121.387 75.9925 123.399 73.7835 119.296C71.4407 120.972 69.0712 123.09 68.8168 123.908C68.4554 125.088 72.0833 124.713 71.3337 128.883C70.8517 131.484 70.3296 130.867 68.4688 132.396C68.7097 132.047 70.758 137.893 70.9856 138.268C73.6898 135.721 79.5401 137.799 79.3393 141.567C79.6338 141.956 84.5069 140.669 85.1361 140.548C86.5819 140.28 86.515 140.669 86.7693 139.207C86.9166 138.349 87.171 137.437 87.5993 136.552C87.8537 136.056 88.4829 135.158 88.9649 134.876C89.6342 134.474 90.8793 134.608 91.4549 133.924C92.0975 133.133 92.0038 132.355 92.1109 131.457L92.0707 131.444Z" stroke="black" stroke-width="4" stroke-linecap="round" stroke-linejoin="round"/>
<path d="M80.2101 131.377C81.4004 131.377 82.3654 130.411 82.3654 129.218C82.3654 128.026 81.4004 127.06 80.2101 127.06C79.0197 127.06 78.0547 128.026 78.0547 129.218C78.0547 130.411 79.0197 131.377 80.2101 131.377Z" fill="black" stroke="black" stroke-width="4" stroke-linecap="round" stroke-linejoin="round"/>
<path d="M68.2684 218.478C67.0367 217.875 65.6578 217.714 64.1049 218.277C61.2266 219.336 61.1463 221.535 61.9897 224.297C64.2923 231.819 70.0757 239.583 75.8189 244.839C80.2233 248.875 85.7389 247.843 83.4229 240.615C81.7361 235.373 78.6704 230.827 75.3235 226.51C73.4493 224.096 71.2939 219.953 68.2684 218.465V218.478Z" fill="white" stroke="black" stroke-width="4" stroke-linecap="round" stroke-linejoin="round"/>
<path d="M66.1936 233.817C64.8013 233.12 63.2484 232.932 61.4812 233.589C58.2281 234.796 58.121 237.317 59.0849 240.481C61.6954 249.089 68.2419 257.979 74.7348 264C79.7283 268.625 85.9668 267.432 83.3295 259.159C81.4285 253.152 77.9477 247.95 74.1591 243.015C72.0439 240.253 69.6074 235.52 66.1802 233.817H66.1936Z" fill="white" stroke="black" stroke-width="4" stroke-linecap="round" stroke-linejoin="round"/>
<path d="M61.748 251.301C60.4361 250.913 59.0438 250.993 57.6113 251.811C54.9606 253.34 55.2418 255.525 56.5537 258.113C60.1148 265.139 67.1164 271.803 73.6762 276C78.7099 279.231 83.9577 277.274 80.4502 270.543C77.8932 265.662 74.1046 261.706 70.075 258.019C67.8259 255.954 64.9878 252.253 61.7614 251.301H61.748Z" fill="white" stroke="black" stroke-width="4" stroke-linecap="round" stroke-linejoin="round"/>
<path d="M60.0494 265.662C59.1123 265.326 58.1216 265.367 57.1175 266.01C55.2567 267.204 55.4977 268.973 56.475 271.092C59.1257 276.844 64.2396 282.368 68.9654 285.881C72.6068 288.59 76.3017 287.088 73.6912 281.577C71.7901 277.582 69.0189 274.31 66.0871 271.253C64.4538 269.537 62.3654 266.493 60.0494 265.662Z" fill="white" stroke="black" stroke-width="4" stroke-linecap="round" stroke-linejoin="round"/>
<path d="M385.857 201.114C387.129 200.792 388.508 200.819 390.007 201.422C392.778 202.549 392.671 204.238 391.6 206.276C388.668 211.787 382.269 217.097 376.111 220.489C371.385 223.09 365.99 221.696 368.922 216.413C371.037 212.578 374.478 209.441 378.173 206.504C380.234 204.855 382.724 201.932 385.857 201.127V201.114Z" fill="white" stroke="black" stroke-width="4" stroke-linecap="round" stroke-linejoin="round"/>
<path d="M386.608 213.088C388.054 212.712 389.62 212.739 391.307 213.436C394.439 214.723 394.319 216.668 393.101 218.987C389.767 225.303 382.525 231.377 375.55 235.265C370.195 238.255 364.104 236.66 367.41 230.612C369.82 226.228 373.716 222.621 377.893 219.256C380.235 217.365 383.06 214.013 386.608 213.088Z" fill="white" stroke="black" stroke-width="4" stroke-linecap="round" stroke-linejoin="round"/>
<path d="M389.553 226.979C390.892 226.831 392.257 227.032 393.623 227.837C396.126 229.298 395.658 230.948 394.145 232.785C390.021 237.772 382.484 242.103 375.617 244.597C370.342 246.515 365.281 244.436 369.351 239.663C372.296 236.204 376.42 233.589 380.731 231.216C383.14 229.888 386.273 227.354 389.566 226.992L389.553 226.979Z" fill="white" stroke="black" stroke-width="4" stroke-linecap="round" stroke-linejoin="round"/>
<path d="M390.009 238.161C390.973 238.014 391.95 238.148 392.901 238.751C394.654 239.864 394.253 241.205 393.115 242.72C389.995 246.837 384.44 250.497 379.433 252.669C375.591 254.332 372.03 252.777 375.109 248.848C377.344 245.992 380.37 243.793 383.543 241.782C385.323 240.655 387.639 238.537 390.009 238.161Z" fill="white" stroke="black" stroke-width="4" stroke-linecap="round" stroke-linejoin="round"/>
<path d="M455.084 64.3482C452.567 67.1506 449.328 69.5641 444.963 71.7095C434.575 76.8449 422.432 79.2048 411.334 82.3155C397.853 86.0833 383.957 90.3338 370.208 92.7473C361.787 94.2222 353.675 96.9441 345.388 98.942C339.471 100.377 331.585 99.8806 326.793 104.024C319.189 110.607 314.128 120.784 307.18 127.864C306.578 119.966 307.381 111.868 307.02 103.957C301.477 104.641 296.551 108.797 290.874 106.759C286.323 105.123 284.381 100.913 283.672 96.448C281.436 82.396 281.249 62.7124 288.505 50.0415C298.478 32.6373 325.655 27.4751 343.366 23.0905C369.498 16.6277 396.059 9.10555 422.74 5.27074C435.016 3.51424 460.158 -1.99663 466.022 13.4231C469.837 23.4526 465.888 36.8342 463.291 46.7698C461.376 54.1042 459.208 59.7626 455.098 64.3348L455.084 64.3482Z" fill="white" stroke="black" stroke-width="4" stroke-linecap="round" stroke-linejoin="round"/>
<path d="M310.152 53.9568C321.625 48.7677 337.021 48.513 349.257 45.657C366.165 41.7149 382.766 36.5392 399.58 32.2485C413.624 28.6685 427.68 25.0348 441.858 22.085" stroke="black" stroke-width="4" stroke-linecap="round" stroke-linejoin="round"/>
<path d="M302.668 66.628C314.917 65.1129 327.368 59.7495 339.724 57.4298C359.23 53.7559 378.186 48.3657 397.585 44.2225C407.866 42.037 418 39.4223 428.135 36.7138C433.168 35.373 439.568 32.9192 444.668 32.7852" stroke="black" stroke-width="4" stroke-linecap="round" stroke-linejoin="round"/>
<path d="M305.988 78.722C323.847 76.523 341.277 69.43 359.19 66.6008C374.947 64.1068 390.918 59.8295 406.367 55.9143C419.58 52.5622 433.075 48.9017 446.021 45.3887" stroke="black" stroke-width="4" stroke-linecap="round" stroke-linejoin="round"/>
<path d="M292.883 60.2454C293.097 58.1805 287.367 52.0395 285.493 51.1948C281.209 49.2505 272.052 51.5032 267.125 52.0797C262.882 52.5758 214.031 61.3852 205.811 62.2299C199.238 62.9137 194.619 63.0478 192.959 56.8129C191.219 50.2562 190.255 39.3417 194.191 33.5225C200.965 23.5198 216.173 25.2897 226.428 23.2516C248.437 18.8939 248.865 18.7196 260.285 17.3787C269.79 16.2658 278.505 13.45 288.09 12.8333C296.364 12.2969 304.717 8.81073 311.13 16.5072C315.641 21.9242 314.008 36.0164 309.537 41.0714C305.788 45.3085 297.153 45.8716 294.195 49.8003C292.602 51.9188 293.351 55.5927 292.856 60.232L292.883 60.2454Z" fill="white" stroke="black" stroke-width="4" stroke-linecap="round" stroke-linejoin="round"/>
<path d="M220.816 30.7734L223.293 37.9738L232.436 36.5525L224.27 42.6131L226.707 50.2291L219.652 46.0993L211.833 52.0526L215.903 44.1953L208.031 40.508L217.898 38.8453L220.816 30.7734Z" fill="black" stroke="black" stroke-width="4" stroke-linecap="round" stroke-linejoin="round"/>
<path d="M252.222 26.1743L254.699 33.3746L263.856 31.9533L255.676 38.014L258.126 45.6299L251.071 41.5001L243.253 47.4535L247.323 39.5961L239.438 35.9088L249.304 34.2462L252.222 26.1743Z" fill="black" stroke="black" stroke-width="4" stroke-linecap="round" stroke-linejoin="round"/>
<path d="M282.32 21.6826L284.797 28.8829L293.954 27.4616L285.774 33.5357L288.224 41.1382L281.155 37.0084L273.351 42.9618L277.42 35.1044L269.535 31.4171L279.402 29.7545L282.32 21.6826Z" fill="black" stroke="black" stroke-width="4" stroke-linecap="round" stroke-linejoin="round"/>
<path d="M434.4 300C422.692 296.756 414.59 283.639 411.94 275.705C404.642 253.843 418.804 232.044 439.895 217.591C452.233 209.132 469.958 201.468 486.488 199.401C497.848 197.986 516.137 205.268 509.795 215.874C503.669 226.097 485.619 221.041 480.775 213.043C472.673 199.608 478.668 182.373 487.465 170.082C494.633 160.065 505.342 151.4 517.028 144.34C525.803 139.029 539.01 131.159 551 131" stroke="black" stroke-width="4" stroke-linecap="round" stroke-linejoin="round" stroke-dasharray="2 5"/>
<path d="M629.544 95.2016L561.075 94.9099L560.011 129.252L629.544 95.2016Z" fill="white" stroke="black" stroke-width="4" stroke-linecap="round" stroke-linejoin="round"/>
<path d="M581.126 136.258C578.215 126.309 575.537 116.25 573.074 106.089C594.621 99.9072 614.469 99.6344 629.547 95.1886C621.559 102.711 585.72 132.609 581.126 136.258Z" fill="white" stroke="black" stroke-width="4" stroke-linecap="round" stroke-linejoin="round"/>
<path d="M576.937 122.14L560.012 129.252L573.072 106.102L576.937 122.14Z" fill="black" stroke="black" stroke-width="4" stroke-linecap="round" stroke-linejoin="round"/>
<path d="M546.258 103.878L560.663 108.418L561.073 94.9091L546.258 103.878Z" fill="black" stroke="black" stroke-width="4" stroke-linecap="round" stroke-linejoin="round"/>
<path d="M377.06 310.796C373.847 313.826 374.302 318.21 374.289 323.466C374.235 334.609 375.079 345.738 375.266 356.88C375.36 362.297 373.539 368.17 378.439 371.415C383.767 374.941 393.647 373.802 399.738 372.917C407.998 371.723 417.557 369.739 425.656 367.527C437.196 364.376 449.124 362.954 460.597 359.656C471.602 356.491 469.821 344.893 470.129 334.823C470.557 320.905 470.209 306.143 468.63 292.319C467.371 281.243 466.166 280.613 454.506 281.431C446.059 282.021 433.675 283.214 427.945 289.664C425.509 292.413 423.996 297.91 421.118 299.975C418.507 301.852 413.407 301.959 410.274 302.603C406.579 303.367 402.857 304.038 399.096 304.386C392.482 305.003 385.494 306.103 379.51 309.119C378.519 309.616 377.702 310.179 377.046 310.796H377.06Z" fill="white" stroke="black" stroke-width="4" stroke-linecap="round" stroke-linejoin="round"/>
</svg>
