<svg width="2421" height="372" viewBox="0 0 2421 372" fill="none" xmlns="http://www.w3.org/2000/svg">
<path d="M753.268 1H1668.06L2418.33 371H3L753.268 1Z" stroke="black" stroke-miterlimit="10"/>
<path d="M74.6831 335.633H2346.64" stroke="black" stroke-miterlimit="10"/>
<path d="M138.3 304.27H2283.03" stroke="black" stroke-miterlimit="10"/>
<path d="M195.205 276.215H2226.13" stroke="black" stroke-miterlimit="10"/>
<path d="M246.358 250.965H2174.97" stroke="black" stroke-miterlimit="10"/>
<path d="M292.587 228.176H2128.7" stroke="black" stroke-miterlimit="10"/>
<path d="M334.611 207.465H2086.72" stroke="black" stroke-miterlimit="10"/>
<path d="M372.964 188.555H2048.36" stroke="black" stroke-miterlimit="10"/>
<path d="M408.082 171.217H2013.25" stroke="black" stroke-miterlimit="10"/>
<path d="M440.397 155.299H1980.93" stroke="black" stroke-miterlimit="10"/>
<path d="M470.154 140.609H1951.13" stroke="black" stroke-miterlimit="10"/>
<path d="M497.736 126.992H1923.54" stroke="black" stroke-miterlimit="10"/>
<path d="M523.336 114.383H1897.94" stroke="black" stroke-miterlimit="10"/>
<path d="M547.151 102.625H1874.13" stroke="black" stroke-miterlimit="10"/>
<path d="M569.419 91.6875H1851.91" stroke="black" stroke-miterlimit="10"/>
<path d="M590.191 81.4102H1831.14" stroke="black" stroke-miterlimit="10"/>
<path d="M609.657 71.8281H1811.62" stroke="black" stroke-miterlimit="10"/>
<path d="M627.965 62.7812H1793.36" stroke="black" stroke-miterlimit="10"/>
<path d="M645.162 54.3047H1776.12" stroke="black" stroke-miterlimit="10"/>
<path d="M661.392 46.2969H1759.89" stroke="black" stroke-miterlimit="10"/>
<path d="M676.704 38.7617H1744.57" stroke="black" stroke-miterlimit="10"/>
<path d="M691.195 31.6074H1730.08" stroke="black" stroke-miterlimit="10"/>
<path d="M704.915 24.8301H1716.37" stroke="black" stroke-miterlimit="10"/>
<path d="M717.956 18.3984H1703.37" stroke="black" stroke-miterlimit="10"/>
<path d="M730.322 12.3164H1691.01" stroke="black" stroke-miterlimit="10"/>
<path d="M742.061 6.51562H1679.22" stroke="black" stroke-miterlimit="10"/>
<path d="M1632.85 1L2325.44 371" stroke="black" stroke-miterlimit="10"/>
<path d="M1597.68 1L2232.55 371" stroke="black" stroke-miterlimit="10"/>
<path d="M1562.47 1L2139.61 371" stroke="black" stroke-miterlimit="10"/>
<path d="M1527.3 1L2046.72 371" stroke="black" stroke-miterlimit="10"/>
<path d="M1492.13 1L1953.83 371" stroke="black" stroke-miterlimit="10"/>
<path d="M1456.92 1L1860.94 371" stroke="black" stroke-miterlimit="10"/>
<path d="M1421.76 1L1768.05 371" stroke="black" stroke-miterlimit="10"/>
<path d="M1386.59 1L1675.16 371" stroke="black" stroke-miterlimit="10"/>
<path d="M1351.38 1L1582.22 371" stroke="black" stroke-miterlimit="10"/>
<path d="M1316.21 1L1489.33 371" stroke="black" stroke-miterlimit="10"/>
<path d="M1281.04 1L1396.44 371" stroke="black" stroke-miterlimit="10"/>
<path d="M1245.83 1L1303.55 371" stroke="black" stroke-miterlimit="10"/>
<path d="M1210.66 1V371" stroke="black" stroke-miterlimit="10"/>
<path d="M1175.45 1L1117.77 371" stroke="black" stroke-miterlimit="10"/>
<path d="M1140.28 1L1024.88 371" stroke="black" stroke-miterlimit="10"/>
<path d="M1105.12 1L931.947 371" stroke="black" stroke-miterlimit="10"/>
<path d="M1069.91 1L839.057 371" stroke="black" stroke-miterlimit="10"/>
<path d="M1034.74 1L746.167 371" stroke="black" stroke-miterlimit="10"/>
<path d="M999.574 1L653.278 371" stroke="black" stroke-miterlimit="10"/>
<path d="M964.36 1L560.388 371" stroke="black" stroke-miterlimit="10"/>
<path d="M929.194 1L467.498 371" stroke="black" stroke-miterlimit="10"/>
<path d="M894.027 1L374.559 371" stroke="black" stroke-miterlimit="10"/>
<path d="M858.813 1L281.669 371" stroke="black" stroke-miterlimit="10"/>
<path d="M823.648 1L188.779 371" stroke="black" stroke-miterlimit="10"/>
<path d="M788.433 1L95.8896 371" stroke="black" stroke-miterlimit="10"/>
</svg>
