<svg width="275" height="95" fill="none" xmlns="http://www.w3.org/2000/svg"><path d="M5.781 71.488c-1.627.651-2.864.293-3.71-1.074-.782-1.367-.456-2.604.976-3.71a66.258 66.258 0 0 0 7.812-5.665 62.24 62.24 0 0 1 8.008-5.762c3.841-2.343 7.975-3.32 12.402-2.93 4.167.977 6.316 3.614 6.446 7.91-.456 3.19-1.823 5.958-4.102 8.302a109.21 109.21 0 0 1-7.031 7.52 85.25 85.25 0 0 0-3.32 3.71c-.26.326-.326.39-.196.195-.13.196-.26.358-.39.489-.195.325-.39.618-.586.879a22.136 22.136 0 0 0-.88 1.757c-.13.13-.162.13-.097 0 .065-.195.065-.195 0 0 0 .13-.032.26-.097.391l-.196.781c-.065.13-.097.098-.097-.097.065-.196.097-.196.097 0v.683-.293.195c.065.196.13.359.196.489 0 .13-.065.098-.196-.098-.065-.195-.032-.195.098 0 .13.26.26.488.39.684-.13-.26-.13-.293 0-.098.196.13.261.195.196.195.13 0 .195.033.195.098l.586.195 1.367.391.293.098h.488c.326.065.652.065.977 0h.39c-.13 0-.032-.033.294-.098.39-.065.781-.163 1.172-.293a3.79 3.79 0 0 0 .488-.195c-.26.13-.26.13 0 0a9.705 9.705 0 0 0 1.953-1.172c1.237-.847 2.54-1.92 3.906-3.223a265.036 265.036 0 0 1 4.492-4.199 47.692 47.692 0 0 1 12.012-8.3c1.498-.652 2.735-.326 3.711.976.716 1.562.39 2.832-.976 3.808a47.47 47.47 0 0 0-12.598 8.887 42.331 42.331 0 0 1-9.766 7.91c-3.45 1.693-6.966 1.823-10.547.39-3.515-1.692-4.98-4.491-4.394-8.398.911-3.06 2.506-5.729 4.785-8.007 2.344-2.54 4.72-5.046 7.129-7.52a48.713 48.713 0 0 0 1.758-1.855c.26-.326.488-.619.683-.88.196-.26.228-.292.098-.097a4.78 4.78 0 0 1 .293-.488c.456-.586.846-1.172 1.172-1.758.195-.326.358-.619.488-.879.065-.13.033-.098-.098.098-.065.195-.065.162 0-.098l.196-.39c.065-.261.13-.554.195-.88-.065.326-.098.391-.098.196 0-.196.033-.358.098-.489.065-.26.065-.325 0-.195a14.602 14.602 0 0 1-.39-.976c0-.13-.066-.228-.196-.293-.13-.13-.26-.228-.39-.293.13.13-.033.065-.489-.196.196.066.163.066-.097 0-.26-.13-.489-.195-.684-.195.26 0 .26 0 0 0h-.586c-1.497 0-3.125.358-4.883 1.074-.586.196-1.237.456-1.953.782-.846.455-1.627.911-2.344 1.367a115.326 115.326 0 0 0-7.226 5.37 73.364 73.364 0 0 1-7.227 5.274Zm51.27-9.472c1.237-.977 2.474-.977 3.71 0 .977 1.237.977 2.474 0 3.71-2.473 2.93-4.068 6.283-4.784 10.06-.326 1.627-.424 3.352-.293 5.175.195 1.823.944 3.32 2.246 4.492 2.734 1.953 5.794 2.702 9.18 2.246 3.385-.52 6.38-1.66 8.984-3.418 5.664-3.971 9.31-9.31 10.937-16.015.716-3.06.13-5.827-1.758-8.301-2.018-2.084-4.492-3.028-7.421-2.832-3.386.586-6.055 2.344-8.008 5.273-1.953 2.93-3.516 5.892-4.688 8.887-.586 1.432-1.627 2.018-3.125 1.758-1.497-.586-2.116-1.628-1.855-3.125a67.89 67.89 0 0 1 3.125-7.032 26.603 26.603 0 0 1 4.59-6.152c3.645-3.58 7.975-5.143 12.988-4.687 4.102.716 7.292 2.8 9.57 6.25 2.214 3.971 2.637 8.17 1.27 12.597-2.604 8.66-7.845 15.17-15.723 19.532-4.102 2.018-8.398 2.8-12.89 2.343a18.69 18.69 0 0 1-6.153-1.855c-1.953-.977-3.548-2.409-4.785-4.297a13.461 13.461 0 0 1-1.758-6.348c-.065-2.343.163-4.59.684-6.738a28.698 28.698 0 0 1 5.957-11.523Zm61.621-9.18c.911-1.237 1.953-1.497 3.125-.781 1.237.716 1.562 1.758.976 3.125a193.236 193.236 0 0 0-15.918 35.547c-.651 1.367-1.66 1.888-3.027 1.562-1.302-.39-1.823-1.335-1.562-2.832a198.488 198.488 0 0 1 16.406-36.621Zm23.242-.879c1.563.26 2.344 1.074 2.344 2.441 0 .586-.228 1.14-.684 1.66a2.26 2.26 0 0 1-1.66.684c-15.039-1.237-29.818.098-44.336 4.004-1.562.195-2.539-.358-2.93-1.66-.325-1.367.228-2.344 1.66-2.93 14.975-4.036 30.176-5.436 45.606-4.199Zm.293 10.059c1.237-.977 2.474-.977 3.711 0 .977 1.237.977 2.474 0 3.71-2.474 2.93-4.069 6.283-4.785 10.06-.326 1.627-.423 3.352-.293 5.175.195 1.823.944 3.32 2.246 4.492 2.734 1.953 5.794 2.702 9.18 2.246 3.385-.52 6.38-1.66 8.984-3.418 5.664-3.971 9.31-9.31 10.938-16.015.716-3.06.13-5.827-1.758-8.301-2.019-2.084-4.492-3.028-7.422-2.832-3.386.586-6.055 2.344-8.008 5.273-1.953 2.93-3.516 5.892-4.688 8.887-.585 1.432-1.627 2.018-3.124 1.758-1.498-.586-2.116-1.628-1.856-3.125a67.783 67.783 0 0 1 3.125-7.032 26.601 26.601 0 0 1 4.59-6.152c3.646-3.58 7.975-5.143 12.988-4.687 4.102.716 7.292 2.8 9.57 6.25 2.214 3.971 2.637 8.17 1.27 12.597-2.604 8.66-7.845 15.17-15.723 19.532-4.101 2.018-8.398 2.8-12.89 2.343-2.149-.26-4.2-.879-6.153-1.855-1.953-.977-3.548-2.409-4.785-4.297-1.107-1.953-1.692-4.069-1.758-6.348-.065-2.343.163-4.59.684-6.738a28.697 28.697 0 0 1 5.957-11.523Zm53.418-5.176c1.693-.26 2.865.39 3.516 1.953.26 1.693-.391 2.865-1.953 3.516-6.641 1.497-10.678 5.533-12.11 12.109-.39 2.995.228 5.631 1.856 7.91 1.692 2.214 4.036 3.58 7.031 4.102 3.19.455 6.055-.163 8.594-1.856 2.604-1.692 4.589-3.906 5.957-6.64 1.432-2.8 2.05-5.762 1.855-8.887-.391-2.67-1.855-4.525-4.394-5.566a15.765 15.765 0 0 0-3.907-1.075c-1.627 0-3.287-.13-4.98-.39-1.628-.391-3.028-1.14-4.199-2.246a84.032 84.032 0 0 1-3.418-3.418c-.716-.847-.977-1.758-.782-2.735.261-1.041.944-1.725 2.051-2.05a116.09 116.09 0 0 0 16.699-4.786 73.35 73.35 0 0 0 14.844-6.933c7.487-4.818 12.337-11.524 14.551-20.117.586-2.084.846-4.2.781-6.348 0-2.018-.358-3.809-1.074-5.371a1.932 1.932 0 0 0-.684-.586 7.702 7.702 0 0 0-1.171-.293 12.24 12.24 0 0 0-4.297.586c-7.683 2.278-14.258 6.38-19.727 12.304-3.125 3.19-5.827 6.869-8.105 11.036-2.279 4.166-3.223 8.593-2.832 13.28 0 .782-.293 1.466-.879 2.052-.586.52-1.237.78-1.953.78-1.628 0-2.572-.943-2.833-2.831-.39-6.315 1.107-12.175 4.493-17.578a59.59 59.59 0 0 1 10.937-13.575 50.256 50.256 0 0 1 12.988-8.496 33.915 33.915 0 0 1 10.547-3.125c4.427-.39 7.487 1.465 9.18 5.567 1.497 4.948 1.465 9.928-.098 14.941-2.994 10.156-9.017 17.936-18.066 23.34a92.398 92.398 0 0 1-15.332 6.934 122.074 122.074 0 0 1-16.504 4.687c.391-1.562.814-3.125 1.27-4.687a20.328 20.328 0 0 0 4.199 4.004 6.954 6.954 0 0 0 2.832.39c1.041 0 2.083.098 3.125.293 4.232.586 7.65 2.507 10.254 5.762a11.172 11.172 0 0 1 2.051 5.86 20.24 20.24 0 0 1-.391 6.25c-.846 3.906-2.572 7.389-5.176 10.449-2.799 3.19-6.217 5.273-10.254 6.25-4.036.976-7.975.585-11.816-1.172-3.711-1.888-6.283-4.655-7.715-8.301-1.432-3.646-1.563-7.422-.391-11.328 2.604-7.487 7.748-12.142 15.43-13.965Zm43.457-5.664c.911-1.302 1.986-1.595 3.223-.88 1.237.717 1.562 1.824.976 3.321a221.59 221.59 0 0 0-16.406 38.867c-.651 1.498-1.693 2.051-3.125 1.66-1.367-.39-1.921-1.367-1.66-2.93a221.428 221.428 0 0 1 16.992-40.038Zm-11.035 23.047c-1.563.195-2.539-.391-2.93-1.758-.39-1.367.163-2.377 1.66-3.028a34.565 34.565 0 0 1 5.762-1.074c1.432-.13 2.897-.13 4.395 0 1.823 0 3.645.13 5.468.39 1.888.261 3.483 1.075 4.786 2.442 2.473 3.32 2.571 6.771.292 10.352-1.171 1.693-2.636 2.995-4.394 3.906a44.913 44.913 0 0 1-5.371 2.441 2487.344 2487.344 0 0 1-12.403 4.883c-1.497.26-2.506-.293-3.027-1.66-.26-1.497.293-2.506 1.66-3.027a933.474 933.474 0 0 1 12.11-4.785 33.417 33.417 0 0 0 3.906-1.66c1.367-.651 2.474-1.498 3.32-2.54.716-1.041 1.009-2.148.879-3.32 0-.781-.488-1.432-1.465-1.953-1.041-.325-2.213-.488-3.515-.488a86.141 86.141 0 0 0-4.102-.098 16.72 16.72 0 0 0-3.125.098c.065 0-.163.032-.683.097l-.977.196c-.716.195-1.465.39-2.246.586ZM269.16 51.37c.912-1.302 1.986-1.595 3.223-.879 1.237.716 1.562 1.823.976 3.32a221.59 221.59 0 0 0-16.406 38.868c-.651 1.497-1.693 2.05-3.125 1.66-1.367-.39-1.92-1.367-1.66-2.93a221.426 221.426 0 0 1 16.992-40.039Z" fill="#000"/><path d="m5.781 71.488.372.929.088-.035.08-.052-.54-.842Zm-3.71-1.074-.869.496.009.016.01.014.85-.526Zm.976-3.71-.526-.851-.045.027-.04.032.61.791Zm7.812-5.665.645.765.001-.002-.646-.763Zm8.008-5.762.518.856.003-.002-.52-.854Zm12.402-2.93.229-.973-.07-.016-.07-.006-.088.996Zm6.446 7.91.99.142.012-.085-.003-.087-1 .03Zm-4.102 8.302-.717-.697-.023.023-.022.026.762.648Zm-7.031 7.52-.698-.717-.014.014-.014.014.726.688Zm-3.32 3.71-.765-.644-.008.01-.008.01.78.624Zm-.586.684-.707-.707-.087.087-.064.105.858.515Zm-.586.879-.8-.6-.041.054-.033.06.874.486Zm-.88 1.757.708.708.131-.132.076-.17-.914-.406Zm-.194.391-.895-.447-.049.098-.026.106.97.243Zm-.196.781.895.447.049-.098.027-.106-.97-.243Zm-.097-.097-.949-.317-.051.154v.163h1Zm.097.585h-1v.163l.052.154.948-.317Zm.196.489h1v-.236l-.106-.211-.894.447Zm-.196-.098-.948.316.042.127.074.112.832-.555Zm.098 0 .894-.447-.027-.056-.035-.051-.832.554Zm.39.684-.831.555 1.726-1.002-.894.447Zm0-.098-.831.555.11.166.167.111.555-.832Zm.391.293h-1v.72l.684.229.316-.949Zm.586.195-.316.95.02.006.021.006.275-.962Zm1.367.391.317-.949-.021-.007-.02-.005-.276.961Zm.293.098-.316.948.154.052h.162v-1Zm.489 0 .196-.98-.097-.02h-.1v1Zm.976 0v-1h-.099l-.097.02.196.98Zm.684-.098-.165-.986-.016.002-.015.003.196.981Zm1.172-.293.316.949-.316-.949Zm.488-.195-.414-.91-.017.007-.016.008.447.895Zm1.953-1.172-.565-.826-.025.018-.024.019.614.789Zm3.906-3.223.69.724.002-.001-.692-.723Zm4.492-4.199.675.738.006-.005.006-.006-.687-.727Zm12.012-8.3-.398-.918-.02.008-.018.01.436.9Zm3.711.976.91-.417-.045-.097-.065-.086-.8.6Zm-.976 3.808.437.9.075-.037.069-.049-.581-.814Zm-12.598 8.887-.7-.713-.02.018-.017.02.737.675Zm-9.766 7.91.44.898.035-.017.033-.02-.508-.86Zm-10.547.39-.433.902.03.015.032.012.371-.928Zm-4.394-8.398-.959-.285-.02.067-.01.07.989.148Zm4.785-8.007.707.707.014-.014.014-.015-.735-.678Zm7.129-7.52-.707-.707-.01.01.717.697Zm1.758-1.855.743.669.02-.022.018-.023-.781-.624Zm.781-.977-.894-.447 1.726 1.002-.832-.555Zm.293-.488-.79-.614-.022.029-.02.03.832.555Zm1.172-1.758-.858-.515-.008.015-.008.014.874.486Zm.488-.879-.894-.447.894.447Zm-.098.098-.832-.555-.074.111-.042.128.948.316Zm0-.098-.894-.447-.05.098-.026.107.97.242Zm.196-.39.894.447.05-.099.026-.106-.97-.243Zm.195-1.172.895.447.049-.098.026-.107-.97-.242Zm0-.196-.919.394.85 1.982.964-1.929-.895-.447Zm-.39-.976h-1v.162l.05.154.95-.316Zm-.196-.293-.707.707.115.114.145.073.447-.894Zm-.39-.293.447-.895-1.155 1.602.707-.707Zm-.489-.196.317-.948-.813 1.817.496-.869Zm-.097 0-.448.895.099.049.106.027.243-.97Zm-6.153.88.317.948.03-.01.03-.013-.377-.926Zm-1.953.78-.414-.91-.03.014-.03.016.474.88Zm-2.344 1.368L19.697 60l-.014.009-.013.01.564.825Zm-7.226 5.37-.628-.778-.01.009.638.77ZM5.41 70.56c-.681.272-1.16.285-1.5.187-.325-.094-.663-.332-.99-.86l-1.7 1.053c.52.84 1.223 1.465 2.135 1.729.898.26 1.851.126 2.798-.252L5.41 70.56Zm-2.471-.642c-.293-.512-.325-.894-.243-1.203.087-.332.35-.748.962-1.22l-1.223-1.583c-.82.633-1.436 1.39-1.674 2.294-.244.928-.048 1.849.441 2.704l1.737-.992Zm.634-2.365a67.254 67.254 0 0 0 7.93-5.749l-1.288-1.53a65.254 65.254 0 0 1-7.694 5.579l1.052 1.7Zm7.932-5.75a61.24 61.24 0 0 1 7.88-5.67l-1.035-1.711a63.243 63.243 0 0 0-8.137 5.854l1.292 1.526Zm7.883-5.672c3.661-2.234 7.582-3.159 11.794-2.787l.175-1.992c-4.642-.41-8.99.618-13.01 3.072l1.041 1.707Zm11.653-2.81c1.925.451 3.288 1.261 4.19 2.368.902 1.108 1.424 2.611 1.484 4.6l2-.062c-.07-2.309-.688-4.272-1.934-5.801-1.246-1.53-3.041-2.526-5.283-3.052l-.457 1.947Zm5.684 6.795c-.425 2.978-1.695 5.551-3.829 7.746l1.434 1.394c2.424-2.493 3.889-5.454 4.375-8.857l-1.98-.283Zm-3.874 7.795a108.205 108.205 0 0 1-6.967 7.45l1.396 1.434a110.19 110.19 0 0 0 7.095-7.589l-1.524-1.295Zm-6.995 7.48a86.226 86.226 0 0 0-3.36 3.754l1.53 1.288a84.146 84.146 0 0 1 3.282-3.667l-1.452-1.376Zm-3.375 3.773c-.146.183-.187.227-.17.21a.977.977 0 0 1 .198-.15c.025-.013.218-.13.493-.13a1 1 0 0 1 .97.757c.062.251.007.454 0 .483-.028.111-.07.192-.072.195-.025.05-.042.07-.002.01l-1.664-1.11c-.025.038-.082.124-.123.206-.006.012-.05.098-.08.214-.007.03-.063.235 0 .487a1.002 1.002 0 0 0 .971.758c.277 0 .471-.117.499-.132a1.042 1.042 0 0 0 .224-.173c.081-.081.203-.232.318-.375l-1.562-1.25Zm-.247.266a2.214 2.214 0 0 1-.265.335l1.414 1.415c.187-.188.358-.405.515-.64l-1.664-1.11Zm-.416.528c-.18.3-.357.565-.528.794l1.6 1.2c.219-.292.433-.615.643-.965l-1.715-1.029Zm-.602.908c-.34.61-.646 1.223-.919 1.837l1.828.813c.248-.558.527-1.118.839-1.679l-1.748-.971Zm-.712 1.536c-.023.023-.02.018.003 0 .01-.008.046-.037.102-.07.02-.01.208-.125.48-.125a.992.992 0 0 1 .962.751c.062.248.007.445.002.467-.024.098-.058.156-.045.132l-1.79-.895c-.02.04-.073.148-.105.278-.01.038-.066.248-.002.504a1.008 1.008 0 0 0 .978.763c.28 0 .48-.119.513-.138.07-.04.124-.082.154-.106.063-.05.12-.104.162-.146l-1.414-1.415Zm1.558 1.024v-.003l.002-.002v-.002l.001-.002.001-.005.002-.004v-.003l.001-.001.002-.005.002-.008.01-.03.016-.045a3.84 3.84 0 0 0 .009-.028v-.003h.001l.001-.004v-.001l-.948-.317-.949-.316v.002l-.003.007a.533.533 0 0 0-.003.011l-.003.008-.001.004-.001.002v.002l-.004.01-.004.01-.008.026v.002l-.001.002v.001l-.001.001v.001l-.002.004v.003l-.001.001v.001l-.001.002-.001.004a.718.718 0 0 0-.014.042l1.897.633v-.003l.002-.002v-.002l.001-.002.001-.005.002-.004v-.003l.001-.001.002-.005.002-.008.01-.03.016-.045a3.84 3.84 0 0 0 .009-.028v-.003h.001l.001-.004v-.001l-.948-.317-.949-.316v.002l-.003.007a.533.533 0 0 0-.003.011l-.003.008-.001.004-.001.002v.002l-.004.01-.004.01-.008.026v.002l-.001.002v.001l-.001.001v.001l-.002.004v.003l-.001.001v.001l-.001.002-.001.004a.718.718 0 0 0-.014.042l1.897.633Zm-1.949-.317c0-.019.003-.035.006-.047.003-.011.005-.014.002-.01l1.79.895c.125-.252.202-.535.202-.838h-2Zm-.067.148-.025.098-.024.098-.025.097-.024.098-.012.049-.013.049-.012.049-.012.048-.012.05-.012.048-.013.049-.012.049 1.94.485.025-.098.024-.097.025-.098.024-.098.012-.049.013-.049.012-.048.012-.05.012-.048.012-.049.013-.049.012-.048-1.94-.486Zm-.12.577a.848.848 0 0 1 .145-.193.986.986 0 0 1 1.384.006.952.952 0 0 1 .264.511c.005.04.004.055.004.026h-2c0 .068.002.16.016.257.007.048.02.123.049.21.023.07.088.246.252.41a1.014 1.014 0 0 0 1.445-.006c.133-.133.207-.28.23-.327l-1.79-.894Zm1.745.666c.012-.036.009-.019-.011.021-.008.015-.043.085-.11.165-.021.026-.277.351-.754.351a.988.988 0 0 1-.884-.544c-.064-.127-.08-.235-.084-.255-.01-.06-.008-.09-.008-.054h2c0-.062-.001-.166-.02-.275a1.098 1.098 0 0 0-.099-.31c-.05-.101-.31-.562-.905-.562-.486 0-.75.331-.782.37-.077.092-.123.18-.143.22a1.839 1.839 0 0 0-.097.24l1.897.633Zm-1.85-.316V84.574h2V84.183h-2Zm0 .39V84.867h2V84.574h-2Zm2 .293V84.555h-2V84.575h2V84.554h-2V84.868h2Zm-1-.293h-1V84.77h2V84.575h-1Zm-.95.512c.075.223.157.433.25.619l1.79-.894a2.819 2.819 0 0 1-.142-.358l-1.897.633Zm.145.172c0-.02 0-.07.013-.138a.933.933 0 0 1 .142-.35.978.978 0 0 1 1.243-.333.879.879 0 0 1 .251.188c.012.014.009.012-.013-.02l-1.664 1.11c.044.066.098.14.159.212.038.045.167.196.373.298a1.023 1.023 0 0 0 1.316-.346c.11-.164.146-.322.16-.401.017-.09.02-.167.02-.22h-2Zm1.753-.414c-.013-.04-.002-.015.007.042.002.01.026.137-.001.301a.994.994 0 0 1-1.45.707.95.95 0 0 1-.163-.112c-.054-.047-.087-.086-.092-.091-.014-.017-.01-.016.016.024l1.664-1.11a2.311 2.311 0 0 0-.143-.195 1.057 1.057 0 0 0-.325-.272 1.006 1.006 0 0 0-1.48.72c-.03.177-.004.322.001.357.018.105.05.204.069.261l1.897-.632Zm-1.745.763c.144.29.295.555.453.791l1.664-1.109a5.39 5.39 0 0 1-.329-.576l-1.789.894Zm2.179-.21a2.891 2.891 0 0 1-.054-.112l.008.02.022.07c.004.017.032.117.032.249a.994.994 0 0 1-.756.967.997.997 0 0 1-1-.324c-.014-.016-.01-.013.022.034l1.664-1.11a2.54 2.54 0 0 0-.125-.173c-.004-.005-.08-.107-.199-.195a1.013 1.013 0 0 0-.847-.172 1.001 1.001 0 0 0-.76.973c0 .136.03.242.036.267a1.22 1.22 0 0 0 .076.206c.025.058.057.124.092.194l1.789-.894Zm-1.45 1.181c.102.068.09.068.044.022a.972.972 0 0 1-.268-.67.991.991 0 0 1 .546-.886.96.96 0 0 1 .429-.103v2a1.011 1.011 0 0 0 .85-1.582 1.144 1.144 0 0 0-.143-.173 2.344 2.344 0 0 0-.348-.272l-1.11 1.664Zm.75.363a.784.784 0 0 1-.3-.081.925.925 0 0 1-.504-.821h2a1.076 1.076 0 0 0-.601-.968 1.323 1.323 0 0 0-.594-.13v2Zm-.12.047.293.097.073.025.073.024.074.025.073.024.632-1.897-.293-.098-.073-.024-.073-.025-.073-.024-.074-.025-.632 1.898Zm.627.208a27.404 27.404 0 0 0 .342.097l.086.025a27.347 27.347 0 0 1 .17.049l.086.024.17.049.172.049.17.049.172.049.55-1.924a27.404 27.404 0 0 0-.172-.048l-.085-.025a27.347 27.347 0 0 1-.171-.049c-.005 0-.08-.023-.086-.024a27.404 27.404 0 0 0-.17-.049l-.171-.049-.171-.048-.171-.05-.171-.048-.55 1.923Zm1.642-.571-.316.949h.001l.004.001.013.005.055.018.042.014.024.008.012.004.007.002.007.003.028.01c.01.002.02.006.031.01l.07.022.632-1.897a.158.158 0 0 0-.01-.003l-.004-.002h-.003l-.002-.001-.004-.002-.004-.001-.009-.003a6.6 6.6 0 0 1-.033-.01l-.06-.02-.091-.031-.032-.011a7.022 7.022 0 0 1-.031-.01l-.003-.001h-.002v-.001h-.002l-.002-.001h-.001l-.317.948Zm.293 1.098H24.121v-2H24.042v2H24.122v-2H23.945v2Zm.098-2H24.026v2H24.435v-2H24.027v2H24.044v-2Zm.195 1.98c.454.091.913.091 1.368 0l-.392-1.96c-.196.038-.388.038-.584 0l-.392 1.96Zm1.172.02H25.817v-2H25.8v2H25.818v-2H25.41v2Zm.39-2h.019a.758.758 0 0 1 .196.031c.026.008.244.061.438.255a.998.998 0 0 1 .15 1.219c-.133.22-.314.324-.338.338a.923.923 0 0 1-.172.08c-.021.008.02-.005.197-.04l-.392-1.962c-.15.03-.32.066-.438.106-.02.006-.119.038-.224.101-.03.018-.214.124-.348.348a1.003 1.003 0 0 0 .15 1.225c.197.196.418.251.45.26a1.073 1.073 0 0 0 .313.039v-2Zm.458 1.888a8.707 8.707 0 0 0 1.324-.33l-.633-1.898c-.343.115-.683.2-1.02.256l.33 1.972Zm1.324-.33a4.76 4.76 0 0 0 .62-.25l-.895-1.789c-.075.038-.19.086-.358.141l.633 1.898Zm-.275-2.039-.086.043-.017.009-.009.004-.007.004-.004.002-.004.001-.002.001-.001.001-.004.002c-.017.008.004-.002-.013.007l-.021.01-.015.008-.006.002-.004.002v.001h-.002v.001l.447.894.447.895.003-.002.009-.004a.229.229 0 0 1 .009-.005h.002l.002-.002h.002a.204.204 0 0 1 .01-.006l.012-.006.146-.073-.894-1.789-.086.043-.017.009-.009.004-.007.004-.004.002-.004.001-.002.001-.001.001-.004.002c-.017.008.004-.002-.013.007l-.021.01-.015.008-.006.002-.004.002v.001h-.002v.001l.447.894.447.895.003-.002.009-.004a.229.229 0 0 1 .009-.005h.002l.002-.002h.002a.204.204 0 0 1 .01-.006l.012-.006.146-.073-.894-1.789Zm.86 1.805a10.716 10.716 0 0 0 2.154-1.293l-1.228-1.579a8.709 8.709 0 0 1-1.753 1.051l.828 1.821Zm2.105-1.257c1.29-.883 2.634-1.994 4.03-3.324l-1.378-1.448c-1.338 1.274-2.599 2.312-3.782 3.121l1.13 1.651Zm4.032-3.325a264.144 264.144 0 0 1 4.476-4.184l-1.349-1.477a265.915 265.915 0 0 0-4.509 4.215l1.383 1.446Zm4.488-4.195a46.695 46.695 0 0 1 11.762-8.128l-.873-1.8a48.694 48.694 0 0 0-12.262 8.474l1.373 1.454Zm11.724-8.11c.6-.262 1.05-.286 1.398-.195.346.091.724.333 1.114.854l1.6-1.2c-.586-.782-1.316-1.354-2.206-1.588-.89-.234-1.807-.096-2.703.294l.797 1.834Zm2.403.475c.293.639.324 1.108.233 1.46-.089.348-.335.728-.882 1.119l1.163 1.627c.82-.586 1.42-1.329 1.657-2.25.235-.917.07-1.865-.353-2.789l-1.818.833Zm-.505 2.493a48.47 48.47 0 0 0-12.86 9.073l1.4 1.426a46.47 46.47 0 0 1 12.335-8.7l-.875-1.799Zm-12.897 9.11a41.333 41.333 0 0 1-9.536 7.725l1.015 1.723a43.335 43.335 0 0 0 9.995-8.096l-1.474-1.352Zm-9.47 7.688c-3.195 1.568-6.415 1.688-9.734.36l-.743 1.857c3.843 1.537 7.653 1.397 11.359-.421l-.881-1.796Zm-9.672.388c-1.61-.775-2.672-1.764-3.283-2.932-.612-1.17-.826-2.62-.556-4.417l-1.978-.297c-.316 2.11-.091 4.011.762 5.641.854 1.632 2.282 2.89 4.188 3.807l.867-1.802Zm-3.87-7.212c.864-2.9 2.372-5.424 4.534-7.586L19.625 74.1c-2.395 2.395-4.077 5.21-5.037 8.43l1.917.57Zm4.562-7.615a388.094 388.094 0 0 1 7.11-7.5l-1.433-1.396a389.983 389.983 0 0 0-7.147 7.54l1.47 1.356Zm7.101-7.49c.6-.6 1.197-1.231 1.794-1.894l-1.486-1.338a47.618 47.618 0 0 1-1.722 1.817l1.414 1.414ZM30 66.057c.265-.331.5-.633.702-.903l-1.6-1.2c-.187.25-.409.534-.664.854L30 66.059Zm.702-.903c.048-.064.082-.11.106-.139.043-.055.018-.02-.028.026a.95.95 0 0 1-.07.064c-.006.005-.128.111-.316.174a1 1 0 0 1-1.265-1.263c.018-.054.037-.094.044-.109a.905.905 0 0 1 .02-.041l.017-.028-.042.063 1.664 1.11a3.955 3.955 0 0 0 .123-.197 1.006 1.006 0 0 0 .104-.68 1 1 0 0 0-1.298-.752 1.036 1.036 0 0 0-.395.245c-.062.062-.123.142-.137.16l-.127.167 1.6 1.2Zm.192-.25c.04-.079.112-.203.231-.382l-1.664-1.109a5.734 5.734 0 0 0-.355.596l1.788.894Zm.188-.322a14.73 14.73 0 0 0 1.257-1.886l-1.748-.972c-.298.537-.66 1.08-1.087 1.63l1.578 1.228Zm1.24-1.858c.205-.34.381-.657.526-.946l-1.79-.894c-.115.232-.265.502-.45.811l1.714 1.03Zm.526-.946c.012-.024.054-.108.084-.198a1.038 1.038 0 0 0 .047-.436 1.002 1.002 0 0 0-1.511-.748c-.11.066-.181.138-.198.155-.076.076-.137.164-.149.18-.03.042-.063.09-.098.143l1.665 1.11.06-.09c.03-.04-.003.01-.063.07-.013.013-.081.083-.188.147a.998.998 0 0 1-1.462-1.163c.022-.066.044-.105.024-.064l1.789.894Zm-1.941-.666-.017.05a.694.694 0 0 1 .015-.036c.004-.007.029-.063.073-.128.015-.024.079-.12.19-.212.062-.052.516-.412 1.087-.126a1 1 0 0 1 .552.89c0 .066-.007.115-.008.124a.78.78 0 0 1-.005.033l.001-.006.03-.127-1.94-.486a7.015 7.015 0 0 0-.06.261s-.018.094-.018.202a1.017 1.017 0 0 0 .122.482 1 1 0 0 0 .431.416c.572.285 1.026-.075 1.089-.127.112-.093.176-.19.193-.215.045-.069.073-.129.08-.143a3.044 3.044 0 0 0 .083-.22l-1.898-.632Zm1.843.666.049-.097.049-.098.006-.012.006-.013.006-.012.006-.012.006-.012.006-.012.006-.013.006-.012.007-.012.006-.012.006-.012.006-.013.006-.012.006-.012.006-.012.006-.012-1.789-.895-.048.098-.05.098-.005.012-.006.012-.007.012-.006.012-.006.013-.006.012-.006.012-.006.012-.006.012-.006.013-.006.012-.007.012-.006.012-.006.012-.006.013-.006.012 1.789.894Zm.27-.595c.07-.279.14-.588.207-.925l-1.961-.393c-.063.314-.125.59-.185.833l1.94.485Zm-1.755-1.318a3.515 3.515 0 0 1-.032.15c-.015.06-.003-.011.045-.108a.993.993 0 0 1 1.846.205c.031.122.024.212.024.145h-2c0 .03-.002.185.036.34a1.005 1.005 0 0 0 1.883.205c.065-.13.097-.266.106-.303a5.42 5.42 0 0 0 .054-.241l-1.961-.393Zm1.883.392c0-.043.004-.066.005-.073.002-.006 0 .007-.012.032l-1.79-.895a2.078 2.078 0 0 0-.203.936h2Zm.068-.246c.018-.072.035-.142.047-.205.008-.036.032-.154.032-.282a1.01 1.01 0 0 0-.809-.997 1.005 1.005 0 0 0-.91.278c-.096.096-.152.191-.166.214-.024.04-.044.078-.058.107l1.789.894-.016.028a.986.986 0 0 1-1.031.44.996.996 0 0 1-.8-.964c0-.094.017-.155.008-.11a2.625 2.625 0 0 1-.026.112l1.94.485Zm-.05-.832c-.196-.455-.311-.747-.362-.899l-1.897.633c.08.239.225.598.42 1.054l1.838-.788Zm-.31-.582a1.3 1.3 0 0 0-.217-.726 1.365 1.365 0 0 0-.532-.462l-.894 1.79a.7.7 0 0 1-.357-.601h2Zm-.489-1a2.526 2.526 0 0 0-.65-.48l-.895 1.788a.572.572 0 0 1 .131.106l1.414-1.414Zm-1.805 1.12a.813.813 0 0 1-.077-.094.99.99 0 0 1 1.131-1.493c.01.005-.012-.004-.082-.04a8.824 8.824 0 0 1-.257-.143l-.992 1.737c.218.124.432.241.589.304.036.015.127.05.24.07a1.008 1.008 0 0 0 1.01-1.582 1.314 1.314 0 0 0-.147-.172l-1.415 1.414Zm-.097.047.049.017a.679.679 0 0 1-.035-.016c-.008-.003-.063-.028-.129-.072-.024-.016-.119-.079-.212-.19-.051-.062-.411-.516-.126-1.087a1 1 0 0 1 .891-.552c.066 0 .115.007.124.008l.032.005-.006-.001a5.407 5.407 0 0 1-.127-.03l-.485 1.94a7.015 7.015 0 0 0 .26.06c.001 0 .095.018.202.018a1.01 1.01 0 0 0 .482-.122 1 1 0 0 0 .416-.431c.286-.572-.074-1.026-.126-1.089a1.006 1.006 0 0 0-.216-.193c-.068-.046-.128-.073-.142-.08a3.044 3.044 0 0 0-.22-.083l-.632 1.898Zm.666-1.843c-.337-.168-.723-.3-1.131-.3v2c-.013 0 0-.003.043.01.043.012.107.035.193.079l.895-1.789ZM30 58.622H30.195v-2H30v2H30.195v-2H30v2Zm0-2H29.415v2H30v-2Zm-.586 0c-1.656 0-3.413.395-5.26 1.147l.755 1.852c1.668-.68 3.167-1 4.505-1v-2Zm-5.199 1.125c-.627.209-1.31.483-2.05.82l.827 1.82c.692-.315 1.31-.561 1.855-.743l-.632-1.897Zm-2.111.85A38.41 38.41 0 0 0 19.698 60l1.073 1.687a36.436 36.436 0 0 1 2.281-1.33l-.948-1.76Zm-2.434 1.421a116.324 116.324 0 0 0-7.29 5.418l1.255 1.558a114.292 114.292 0 0 1 7.164-5.325l-1.13-1.65Zm-7.3 5.427a72.388 72.388 0 0 1-7.128 5.201L6.32 72.33a74.399 74.399 0 0 0 7.325-5.345l-1.276-1.54Zm44.68-3.43-.619-.784-.079.062-.065.077.764.646Zm3.712 0 .785-.619-.073-.092-.093-.073-.62.785Zm0 3.712.764.645.01-.013.01-.013-.784-.62Zm-4.785 10.058.98.196.002-.01-.982-.186Zm-.293 5.176-.998.071.001.018.002.017.995-.106Zm2.246 4.492-.67.743.043.038.045.033.582-.814Zm9.18 2.246.133.991.01-.001.008-.001-.152-.989Zm8.984-3.418.56.83.007-.006.007-.005-.574-.819ZM87.03 68.266l.972.235.002-.008-.974-.227Zm-1.758-8.301.795-.607-.035-.047-.041-.042-.719.696Zm-7.421-2.832-.067-.998-.052.004-.052.008.17.986Zm-12.696 14.16.926.379.003-.007.003-.008-.932-.364Zm-3.125 1.758-.364.931.094.037.099.017.171-.985Zm-1.855-3.125-.936-.354-.033.089-.016.093.985.172Zm3.125-7.032-.88-.477-.004.01-.006.01.89.458Zm4.59-6.152-.701-.713-.007.006.708.707Zm12.988-4.687.172-.985-.04-.008-.042-.003-.09.996Zm9.57 6.25.874-.487-.019-.033-.02-.031-.835.55Zm1.27 12.597-.956-.295-.002.007.958.288ZM75.996 90.434l.442.897.021-.01.022-.013-.485-.874Zm-12.89 2.343-.12.993.009.001.01.001.1-.995Zm-10.938-6.152-.87.493.016.028.017.027.837-.548Zm-1.758-6.348-1 .028 1-.028Zm.684-6.738-.969-.25-.001.007-.002.007.972.236ZM57.67 62.8c.491-.387.898-.517 1.236-.517.338 0 .745.13 1.236.517l1.24-1.57c-.746-.588-1.577-.947-2.476-.947-.898 0-1.729.359-2.475.948l1.24 1.57Zm2.307-.165c.388.491.517.898.517 1.236 0 .338-.13.745-.517 1.236l1.57 1.24c.589-.747.947-1.577.947-2.476s-.358-1.73-.947-2.475l-1.57 1.24Zm.02 2.446c-2.585 3.062-4.255 6.573-5.003 10.518l1.965.373c.684-3.608 2.204-6.802 4.567-9.6l-1.528-1.29ZM54.997 75.59c-.345 1.724-.446 3.54-.31 5.443l1.995-.142c-.124-1.743-.03-3.377.276-4.909l-1.961-.392Zm-.307 5.478c.22 2.056 1.077 3.784 2.572 5.13l1.338-1.487c-1.11-.999-1.75-2.265-1.921-3.856l-1.989.213Zm2.66 5.2c2.945 2.104 6.26 2.912 9.894 2.423l-.267-1.982c-3.138.423-5.941-.266-8.465-2.069l-1.163 1.628Zm9.912 2.42c3.518-.54 6.655-1.73 9.392-3.577l-1.119-1.658c-2.47 1.668-5.324 2.758-8.577 3.259l.304 1.977Zm9.407-3.587c5.862-4.11 9.65-9.656 11.335-16.599l-1.944-.471c-1.57 6.469-5.074 11.6-10.54 15.433l1.149 1.637Zm11.337-16.606c.783-3.348.135-6.422-1.937-9.136l-1.59 1.214c1.705 2.233 2.228 4.693 1.58 7.466l1.947.456Zm-2.013-9.225c-2.226-2.297-4.988-3.349-8.207-3.134l.133 1.996c2.64-.176 4.826.66 6.637 2.53l1.437-1.392Zm-8.311-3.121c-3.663.633-6.568 2.552-8.67 5.703l1.665 1.11c1.805-2.708 4.238-4.305 7.346-4.843l-.341-1.97Zm-8.67 5.703c-1.989 2.984-3.586 6.01-4.786 9.078l1.863.728c1.143-2.922 2.67-5.82 4.588-8.696l-1.664-1.11Zm-4.78 9.063c-.233.57-.513.868-.786 1.021-.27.152-.658.232-1.242.13l-.343 1.971c.913.159 1.795.076 2.566-.358.769-.432 1.303-1.144 1.656-2.006l-1.851-.758Zm-1.835 1.206c-.61-.239-.929-.526-1.092-.8-.159-.268-.243-.647-.143-1.223l-1.97-.343c-.16.922-.066 1.813.393 2.587.456.766 1.195 1.293 2.083 1.641l.729-1.862Zm-1.285-1.84a66.897 66.897 0 0 1 3.08-6.928l-1.78-.915a68.922 68.922 0 0 0-3.17 7.135l1.87.708Zm3.069-6.908a25.603 25.603 0 0 1 4.418-5.923l-1.415-1.414a27.601 27.601 0 0 0-4.761 6.382l1.758.955Zm4.411-5.916c3.44-3.379 7.482-4.834 12.197-4.405l.181-1.992c-5.31-.483-9.927 1.187-13.78 4.97l1.402 1.427Zm12.116-4.416c3.833.669 6.782 2.597 8.908 5.816l1.669-1.102c-2.432-3.682-5.863-5.921-10.233-6.684l-.344 1.97Zm8.869 5.752c2.078 3.727 2.476 7.644 1.187 11.815l1.911.59c1.446-4.682.998-9.164-1.351-13.38l-1.747.974Zm1.185 11.822c-2.53 8.41-7.601 14.71-15.25 18.945l.97 1.75c8.106-4.49 13.516-11.211 16.195-20.119l-1.915-.576ZM75.555 89.536c-3.936 1.937-8.045 2.683-12.349 2.246l-.202 1.99c4.682.475 9.166-.341 13.434-2.441l-.883-1.795Zm-12.33 2.249a17.691 17.691 0 0 1-5.825-1.757l-.894 1.788a19.69 19.69 0 0 0 6.48 1.954l.24-1.985ZM57.4 90.028c-1.79-.895-3.252-2.206-4.396-3.951l-1.672 1.096c1.33 2.03 3.057 3.585 5.174 4.643l.894-1.788Zm-4.362-3.896a12.463 12.463 0 0 1-1.628-5.883l-2 .057c.07 2.439.7 4.715 1.888 6.812l1.74-.986ZM51.41 80.25c-.063-2.26.157-4.418.656-6.475l-1.944-.472c-.543 2.24-.779 4.575-.712 7.002l2-.055Zm.652-6.462a27.7 27.7 0 0 1 5.752-11.126l-1.527-1.292a29.698 29.698 0 0 0-6.162 11.92l1.937.498Zm66.61-20.952-.805-.593-.034.045-.028.05.867.498Zm3.125-.781-.522.853.011.006.01.006.501-.865Zm.976 3.125.867.498.03-.05.023-.054-.92-.394Zm-15.918 35.547.903.43.027-.057.02-.059-.95-.314Zm-3.027 1.562-.287.958.027.008.029.007.231-.973Zm-1.562-2.832-.95-.315-.023.07-.013.074.986.171Zm39.648-37.5.164-.986-.042-.007-.042-.004-.08.997Zm1.66 4.102.707.707.024-.024.022-.025-.753-.658Zm-1.66.683-.082.997.041.003h.041v-1Zm-44.336 4.004.124.992.069-.008.067-.018-.26-.966Zm-2.93-1.66-.972.232.006.028.009.027.957-.287Zm1.66-2.93-.26-.965-.06.016-.058.024.379.925Zm23.169-2.727c.376-.51.687-.692.902-.746.194-.048.472-.034.896.225l1.043-1.707c-.747-.456-1.575-.67-2.424-.458-.826.206-1.492.773-2.027 1.5l1.61 1.186Zm1.819-.509c.47.273.651.536.718.751.07.223.074.57-.16 1.115l1.839.788c.352-.823.486-1.68.23-2.5-.258-.826-.859-1.441-1.625-1.885l-1.002 1.731Zm.61 1.761a194.25 194.25 0 0 0-16 35.73l1.899.63a192.154 192.154 0 0 1 15.835-35.363l-1.734-.997Zm-15.953 35.616c-.263.551-.547.826-.801.957-.245.126-.584.183-1.092.062l-.463 1.946c.859.204 1.708.164 2.472-.23.755-.39 1.301-1.06 1.689-1.876l-1.805-.86Zm-1.838 1.034c-.469-.14-.675-.339-.778-.526-.114-.205-.193-.562-.086-1.177l-1.971-.342c-.153.882-.102 1.746.305 2.485.418.757 1.123 1.226 1.956 1.476l.574-1.916Zm-.9-1.56a197.458 197.458 0 0 1 16.324-36.436l-1.734-.998a199.578 199.578 0 0 0-16.489 36.805l1.899.63Zm38.535-36.828c.652.11 1.009.312 1.2.512.176.183.308.46.308.943h2c0-.883-.259-1.697-.865-2.328-.589-.614-1.404-.948-2.315-1.1l-.328 1.973Zm1.508 1.455c0 .302-.11.629-.436 1.002l1.505 1.317c.585-.668.931-1.448.931-2.319h-2Zm-.391.953c-.266.267-.564.391-.953.391v2c.913 0 1.722-.33 2.367-.976l-1.414-1.414Zm-.871.395c-15.153-1.247-30.048.098-44.678 4.034l.52 1.932c14.406-3.876 29.069-5.2 43.994-3.973l.164-1.993Zm-44.542 4.008c-.651.081-1.048-.011-1.287-.146-.219-.124-.423-.35-.56-.81l-1.916.575c.252.843.732 1.545 1.49 1.975.737.418 1.61.504 2.521.39l-.248-1.984Zm-1.833-.9c-.12-.502-.054-.816.068-1.033.131-.23.412-.5.998-.74l-.757-1.85c-.846.346-1.558.858-1.98 1.604-.431.76-.48 1.618-.274 2.483l1.945-.464Zm.948-1.732c14.863-4.007 29.95-5.396 45.265-4.168l.16-1.994c-15.544-1.246-30.861.164-45.946 4.23l.52 1.932Zm45.638 4.894-.62-.785-.078.062-.065.077.763.646Zm3.711 0 .785-.62-.073-.092-.092-.073-.62.785Zm0 3.71.764.646.011-.013.01-.013-.785-.62Zm-4.785 10.06.98.195.002-.01-.982-.186Zm-.293 5.175-.998.071.002.018.002.017.994-.106Zm2.246 4.492-.669.743.042.038.046.033.581-.814Zm9.18 2.246.133.991.009-.001.01-.001-.152-.989Zm8.984-3.418.559.83.008-.006.007-.005-.574-.819Zm10.938-16.015.971.235.002-.008-.973-.227Zm-1.758-8.301.795-.607-.036-.047-.041-.042-.718.696Zm-7.422-2.832-.067-.998-.052.004-.052.008.171.986Zm-12.696 14.16.926.379.003-.007.003-.008-.932-.364Zm-3.124 1.758-.365.931.094.037.099.017.172-.985Zm-1.856-3.125-.935-.354-.034.089-.016.093.985.172Zm3.125-7.032-.879-.477-.005.01-.005.01.889.458Zm4.59-6.152-.701-.713-.006.006.707.707Zm12.988-4.687.172-.985-.04-.008-.041-.003-.091.996Zm9.57 6.25.874-.487-.018-.033-.021-.031-.835.55Zm1.27 12.597-.956-.295-.002.007.958.288Zm-15.723 19.532.442.897.022-.01.021-.013-.485-.874Zm-12.89 2.343-.121.993.01.001.01.001.101-.995Zm-10.938-6.152-.87.493.016.028.018.027.836-.548Zm-1.758-6.348-.999.028.999-.028Zm.684-6.738-.968-.25-.002.007-.002.007.972.236Zm6.577-10.739c.491-.387.897-.517 1.235-.517.339 0 .745.13 1.236.517l1.24-1.57c-.746-.588-1.577-.947-2.476-.947-.898 0-1.729.359-2.475.948l1.24 1.57Zm2.306-.165c.388.491.517.898.517 1.236 0 .338-.129.745-.517 1.236l1.57 1.24c.589-.747.947-1.577.947-2.476s-.358-1.73-.947-2.475l-1.57 1.24Zm.021 2.446c-2.585 3.062-4.256 6.573-5.004 10.518l1.965.373c.684-3.608 2.204-6.802 4.567-9.6l-1.528-1.29Zm-5.002 10.508c-.345 1.724-.446 3.54-.31 5.443l1.995-.142c-.124-1.743-.03-3.377.276-4.909l-1.961-.392Zm-.306 5.478c.22 2.056 1.077 3.784 2.571 5.13l1.338-1.487c-1.11-.999-1.75-2.265-1.921-3.856l-1.988.213Zm2.659 5.2c2.945 2.104 6.261 2.912 9.894 2.423l-.267-1.982c-3.138.423-5.941-.266-8.465-2.069l-1.162 1.628Zm9.913 2.42c3.518-.54 6.654-1.73 9.391-3.577l-1.118-1.658c-2.472 1.668-5.325 2.758-8.577 3.259l.304 1.977Zm9.406-3.587c5.863-4.11 9.65-9.656 11.335-16.599l-1.943-.471c-1.57 6.469-5.074 11.6-10.54 15.433l1.148 1.637Zm11.337-16.606c.784-3.348.135-6.422-1.936-9.136l-1.59 1.214c1.704 2.233 2.228 4.693 1.579 7.466l1.947.456Zm-2.013-9.225c-2.226-2.297-4.988-3.349-8.207-3.134l.133 1.996c2.641-.176 4.827.66 6.637 2.53l1.437-1.392Zm-8.311-3.121c-3.663.633-6.568 2.552-8.669 5.703l1.664 1.11c1.805-2.708 4.239-4.305 7.346-4.843l-.341-1.97Zm-8.669 5.703c-1.989 2.984-3.586 6.01-4.787 9.078l1.863.728c1.143-2.922 2.671-5.82 4.588-8.696l-1.664-1.11Zm-4.781 9.063c-.233.57-.513.868-.785 1.021-.271.152-.659.232-1.243.13l-.343 1.971c.913.159 1.795.076 2.566-.358.769-.432 1.303-1.144 1.656-2.006l-1.851-.758Zm-1.835 1.206c-.609-.239-.928-.526-1.092-.8-.158-.268-.243-.647-.143-1.223l-1.97-.343c-.161.922-.066 1.813.394 2.587.455.766 1.194 1.293 2.082 1.641l.729-1.862Zm-1.285-1.84a66.983 66.983 0 0 1 3.079-6.928l-1.778-.915a69.007 69.007 0 0 0-3.171 7.135l1.87.708Zm3.069-6.908a25.577 25.577 0 0 1 4.418-5.923l-1.414-1.414a27.594 27.594 0 0 0-4.762 6.382l1.758.955Zm4.412-5.916c3.44-3.379 7.481-4.834 12.197-4.405l.181-1.992c-5.311-.483-9.928 1.187-13.78 4.97l1.402 1.427Zm12.115-4.416c3.833.669 6.782 2.597 8.908 5.816l1.669-1.102c-2.432-3.682-5.862-5.921-10.233-6.684l-.344 1.97Zm8.869 5.752c2.078 3.727 2.476 7.644 1.188 11.815l1.91.59c1.447-4.682.998-9.164-1.351-13.38l-1.747.974Zm1.185 11.822c-2.529 8.41-7.601 14.71-15.249 18.945l.969 1.75c8.107-4.49 13.517-11.211 16.196-20.119l-1.916-.576Zm-15.206 18.922c-3.936 1.937-8.045 2.683-12.348 2.246l-.202 1.99c4.681.475 9.165-.341 13.433-2.441l-.883-1.795Zm-12.329 2.249a17.681 17.681 0 0 1-5.825-1.757l-.895 1.788a19.692 19.692 0 0 0 6.479 1.954l.241-1.985Zm-5.825-1.757c-1.79-.895-3.253-2.206-4.396-3.951l-1.673 1.096c1.33 2.03 3.057 3.585 5.174 4.643l.895-1.788Zm-4.363-3.896a12.468 12.468 0 0 1-1.628-5.883l-1.999.057a14.47 14.47 0 0 0 1.887 6.812l1.74-.986Zm-1.628-5.882c-.063-2.26.157-4.418.656-6.475l-1.944-.472c-.543 2.24-.779 4.575-.711 7.002l1.999-.055Zm.652-6.462a27.712 27.712 0 0 1 5.752-11.126l-1.526-1.292a29.695 29.695 0 0 0-6.162 11.92l1.936.498Zm58.407-16.948-.152-.989-.04.007-.039.009.231.973Zm3.516 1.953.988-.152-.019-.12-.046-.113-.923.385Zm-1.953 3.516.219.975.085-.019.08-.033-.384-.923Zm-12.11 12.109-.977-.213-.009.042-.005.042.991.129Zm1.856 7.91-.814.581.009.014.01.013.795-.608Zm7.031 4.102-.171.985.014.002.015.003.142-.99Zm8.594-1.856-.545-.838-.01.006.555.832Zm5.957-6.64-.891-.456-.004.008.895.448Zm1.855-8.887.998-.063-.002-.04-.006-.042-.99.145Zm-4.394-5.566-.389.921.009.004.38-.926Zm-3.907-1.075.142-.99-.071-.01h-.071v1Zm-4.98-.39-.234.972.041.01.041.006.152-.988Zm-7.617-5.664-.764.646.018.02.019.02.727-.686Zm-.782-2.735-.97-.242-.006.023-.004.023.98.196Zm2.051-2.05-.202-.98-.041.008-.039.012.282.96Zm16.699-4.786-.319-.947-.014.004-.013.005.346.938Zm14.844-6.933.522.853.01-.006.009-.006-.541-.841Zm14.551-20.117-.963-.271-.003.01-.002.011.968.25Zm.781-6.348h-1v.015l.001.015.999-.03Zm-1.074-5.371.909-.417-.045-.097-.064-.086-.8.6Zm-.684-.586.448-.895-.064-.031-.067-.023-.317.949Zm-1.171-.293.164-.987-.059-.01-.06-.002-.045.999Zm-4.297.586.284.958.009-.002.01-.003-.303-.953Zm-19.727 12.304.714.7.011-.01.01-.011-.735-.679ZM199.727 44.34h1v-.042l-.004-.041-.996.083Zm-.879 2.05.664.748.022-.02.021-.02-.707-.707Zm-4.786-2.05-.998.062.003.037.005.038.99-.137Zm4.493-17.578.847.53.007-.01.007-.012-.861-.508Zm10.937-13.575-.669-.743-.01.01.679.733Zm12.988-8.496.412.912.011-.005.011-.005-.434-.902Zm10.547-3.125-.088-.996-.018.002-.018.002.124.992Zm9.18 5.567.957-.29-.014-.047-.019-.045-.924.382Zm-.098 14.941-.954-.297-.003.007-.002.007.959.283Zm-18.066 23.34.492.87.011-.005.01-.006-.513-.859Zm-15.332 6.934-.327-.946-.013.005.34.94Zm-16.504 4.687-.97-.242-.387 1.548 1.562-.327-.205-.979Zm1.27-4.687.784-.621-1.202-1.518-.542 1.859.96.28Zm4.199 4.004-.578.816.112.08.129.045.337-.941Zm2.832.39v-1h-.033l-.034.002.067.998Zm3.125.293-.184.983.023.004.024.004.137-.99Zm10.254 5.762.818-.576-.018-.025-.019-.024-.781.625Zm2.051 5.86-.999.06.001.016.002.017.996-.094Zm-.391 6.25-.977-.214v.002l.977.211Zm-5.176 10.449.752.66.005-.007.005-.005-.762-.648Zm-22.07 5.078-.454.89.019.01.019.009.416-.91Zm-8.106-19.63-.944-.328-.007.02-.007.021.958.288Zm15.582-12.976c.689-.106 1.167-.012 1.511.179.342.19.667.541.93 1.17l1.846-.769c-.389-.933-.975-1.689-1.805-2.15-.828-.46-1.782-.561-2.786-.407l.304 1.977Zm2.375 1.117c.106.689.012 1.167-.179 1.51-.19.343-.541.668-1.17.93l.769 1.847c.934-.39 1.689-.975 2.15-1.805.46-.828.561-1.782.407-2.786l-1.977.304Zm-1.184 2.388c-3.469.782-6.32 2.243-8.495 4.419-2.177 2.176-3.622 5.012-4.372 8.453l1.954.426c.683-3.135 1.972-5.605 3.832-7.465 1.86-1.86 4.349-3.167 7.52-3.882l-.439-1.95ZM184.087 74.29c-.421 3.224.246 6.119 2.033 8.62l1.627-1.162c-1.468-2.056-2.038-4.434-1.677-7.2l-1.983-.258Zm2.052 8.647c1.86 2.432 4.436 3.92 7.655 4.479l.342-1.97c-2.771-.482-4.883-1.73-6.408-3.724l-1.589 1.215Zm7.684 4.484c3.419.488 6.534-.176 9.29-2.014l-1.109-1.664c-2.322 1.548-4.936 2.12-7.898 1.698l-.283 1.98Zm9.281-2.007c2.75-1.788 4.858-4.136 6.306-7.032l-1.789-.895c-1.286 2.573-3.15 4.652-5.607 6.25l1.09 1.677Zm6.302-7.024c1.514-2.959 2.17-6.1 1.963-9.404l-1.996.124c.184 2.945-.397 5.729-1.748 8.37l1.781.91Zm1.955-9.487c-.443-3.026-2.146-5.174-5.005-6.347l-.759 1.85c2.219.911 3.446 2.474 3.785 4.787l1.979-.29Zm-4.996-6.343a16.787 16.787 0 0 0-4.153-1.143l-.283 1.98c1.285.184 2.504.52 3.66 1.006l.776-1.843Zm-4.295-1.153c-1.574 0-3.183-.126-4.828-.379l-.304 1.977a33.71 33.71 0 0 0 5.132.402v-2Zm-4.747-.363c-1.464-.351-2.706-1.018-3.746-2l-1.373 1.453c1.304 1.232 2.862 2.062 4.652 2.492l.467-1.945Zm-3.746-2a83.122 83.122 0 0 1-3.377-3.378l-1.454 1.373a84.855 84.855 0 0 0 3.458 3.459l1.373-1.455Zm-3.341-3.337c-.544-.644-.692-1.252-.564-1.893l-1.961-.392c-.263 1.312.11 2.527.998 3.577l1.527-1.292Zm-.574-1.846c.166-.668.565-1.1 1.362-1.334l-.564-1.919c-1.416.417-2.385 1.352-2.739 2.768l1.941.485Zm1.283-1.314a117.168 117.168 0 0 0 16.843-4.827l-.693-1.876a115.124 115.124 0 0 1-16.555 4.744l.405 1.959Zm16.816-4.817a74.369 74.369 0 0 0 15.046-7.028l-1.043-1.707a72.403 72.403 0 0 1-14.642 6.84l.639 1.895Zm15.065-7.04c7.698-4.954 12.702-11.87 14.978-20.71l-1.936-.498c-2.151 8.349-6.848 14.844-14.124 19.526l1.082 1.682ZM237.799 20c.613-2.18.886-4.398.818-6.649l-1.999.061a19.954 19.954 0 0 1-.745 6.047l1.926.541Zm.818-6.618c0-2.137-.379-4.074-1.165-5.788l-1.818.833c.647 1.411.983 3.056.983 4.955h2Zm-1.274-5.971a2.932 2.932 0 0 0-1.036-.88l-.895 1.788a.94.94 0 0 1 .331.292l1.6-1.2Zm-1.167-.935a8.742 8.742 0 0 0-1.324-.33l-.329 1.972c.337.056.677.141 1.02.255l.633-1.897Zm-1.443-.343a13.247 13.247 0 0 0-4.646.632l.607 1.906a11.24 11.24 0 0 1 3.948-.54l.091-1.998Zm-4.627.626c-7.856 2.33-14.587 6.53-20.177 12.585l1.47 1.357c5.347-5.793 11.767-9.797 19.276-12.025l-.569-1.917ZM209.95 19.324c-3.193 3.26-5.949 7.013-8.269 11.255l1.755.96c2.237-4.092 4.886-7.695 7.942-10.816l-1.428-1.4Zm-8.269 11.255c-2.371 4.337-3.358 8.96-2.951 13.844l1.993-.166c-.374-4.49.527-8.722 2.713-12.719l-1.755-.96Zm-2.954 13.76c0 .5-.175.934-.586 1.345l1.414 1.414c.761-.761 1.172-1.694 1.172-2.758h-2Zm-.544 1.304c-.421.375-.841.529-1.288.529v2c.985 0 1.867-.367 2.617-1.034l-1.329-1.495Zm-1.288.529c-.611 0-.977-.17-1.222-.415-.264-.264-.507-.736-.62-1.554l-1.981.273c.148 1.07.507 2.015 1.187 2.695.699.7 1.618 1 2.636 1v-2Zm-1.834-1.894c-.378-6.105 1.066-11.757 4.341-16.985l-1.695-1.062c-3.495 5.579-5.046 11.645-4.643 18.17l1.997-.123Zm4.355-17.008a58.62 58.62 0 0 1 10.755-13.348l-1.358-1.469a60.618 60.618 0 0 0-11.12 13.8l1.723 1.017Zm10.745-13.34a49.246 49.246 0 0 1 12.731-8.327l-.823-1.823a51.238 51.238 0 0 0-13.246 8.664l1.338 1.487Zm12.753-8.337a32.9 32.9 0 0 1 10.237-3.034l-.248-1.985a34.91 34.91 0 0 0-10.856 3.216l.867 1.803Zm10.201-3.03c2.054-.182 3.701.164 5.009.957 1.308.793 2.374 2.093 3.159 3.994l1.848-.763c-.907-2.2-2.218-3.879-3.97-4.941-1.752-1.062-3.848-1.45-6.222-1.24l.176 1.993Zm8.135 4.86c1.438 4.753 1.409 9.528-.095 14.354l1.909.595c1.621-5.201 1.657-10.386.1-15.529l-1.914.58Zm-.1 14.368c-2.924 9.917-8.787 17.49-17.62 22.765l1.026 1.717c9.266-5.534 15.447-13.52 18.513-23.916l-1.919-.566Zm-17.599 22.753a91.4 91.4 0 0 1-15.167 6.859l.654 1.89a93.326 93.326 0 0 0 15.497-7.009l-.984-1.74Zm-15.18 6.863a121.065 121.065 0 0 1-16.369 4.65l.41 1.957a123.069 123.069 0 0 0 16.639-4.726l-.68-1.88Zm-15.194 5.87c.388-1.55.807-3.1 1.26-4.65l-1.92-.56c-.46 1.575-.886 3.15-1.28 4.726l1.94.485Zm-.484-4.309a21.331 21.331 0 0 0 4.405 4.2l1.156-1.633a19.325 19.325 0 0 1-3.993-3.808l-1.568 1.241Zm4.646 4.325a7.96 7.96 0 0 0 3.235.447l-.133-1.996a5.957 5.957 0 0 1-2.429-.334l-.673 1.883Zm3.169.45c.979 0 1.959.09 2.941.275l.368-1.966a17.922 17.922 0 0 0-3.309-.31v2Zm2.988.283c3.985.551 7.17 2.346 9.61 5.396l1.562-1.25c-2.769-3.46-6.42-5.507-10.898-6.127l-.274 1.98Zm9.573 5.346a10.166 10.166 0 0 1 1.87 5.345l1.997-.121a12.177 12.177 0 0 0-2.231-6.375l-1.636 1.151Zm1.873 5.378a19.258 19.258 0 0 1-.372 5.943l1.954.427c.477-2.182.614-4.37.409-6.557l-1.991.187Zm-.372 5.945c-.812 3.744-2.462 7.077-4.96 10.012l1.523 1.297c2.71-3.185 4.51-6.818 5.391-10.886l-1.954-.423Zm-4.951 10c-2.666 3.04-5.905 5.012-9.737 5.939l.47 1.943c4.242-1.026 7.839-3.22 10.771-6.562l-1.504-1.32Zm-9.737 5.939c-3.814.922-7.524.556-11.165-1.11l-.832 1.819c4.041 1.85 8.209 2.265 12.467 1.234l-.47-1.944Zm-11.128-1.092c-3.508-1.784-5.9-4.372-7.237-7.775l-1.862.732c1.528 3.888 4.278 6.835 8.192 8.826l.907-1.783Zm-7.237-7.775c-1.347-3.428-1.474-6.974-.364-10.675l-1.916-.575c-1.233 4.112-1.1 8.118.418 11.982l1.862-.732Zm-.377-10.634c2.492-7.166 7.368-11.576 14.716-13.32l-.462-1.946c-8.016 1.902-13.427 6.801-16.143 14.61l1.889.656Zm57.942-19.957-.819-.574-.032.046-.027.049.878.479Zm3.223-.88-.501.866.501-.865Zm.976 3.321.88.475.029-.054.022-.056-.931-.365Zm-16.406 38.867.917.4.021-.05.016-.05-.954-.3Zm-3.125 1.66-.275.962.012.003.263-.965Zm-1.66-2.93-.954-.298-.021.066-.012.068.987.165Zm5.957-16.991.124.992.06-.008.058-.014-.242-.97Zm-1.27-4.785-.266-.965-.068.02-.064.027.398.918Zm5.762-1.075-.09-.996-.009.001.099.995Zm4.395 0-.087.996.043.004h.044v-1Zm5.468.39-.141.99.005.002.136-.991Zm4.786 2.442.801-.597-.036-.049-.041-.043-.724.69Zm.292 10.352.823.57.011-.017.01-.016-.844-.537Zm-4.394 3.906-.46-.888-.007.004-.007.004.474.88Zm-5.371 2.441-.355-.934-.007.002-.007.003.369.93Zm-12.403 4.883.172.986.099-.018.093-.036-.364-.932Zm-3.027-1.66-.985.171.016.095.035.09.934-.356Zm1.66-3.027.356.934.009-.003.009-.004-.374-.927Zm12.11-4.785-.331-.944-.015.005-.015.006.361.933Zm3.906-1.66-.43-.903-.009.004-.008.004.447.894Zm3.32-2.54.776.631.026-.031.022-.033-.824-.566Zm.879-3.32h-1v.056l.006.055.994-.11Zm-1.465-1.953.471-.882-.083-.044-.089-.029-.299.955Zm-3.515-.488-.048.999h.048v-1Zm-4.102-.098-.062.998.031.002h.031v-1Zm-3.125.098-.124-.992.124 1.992v-1Zm-.683.097-.125-.992-.036.005-.036.007.197.98Zm-.977.196-.196-.98-.034.006-.033.009.263.965ZM269.16 51.37l-.819-.573-.032.045-.027.049.878.48Zm4.199 2.441.881.475.028-.053.023-.057-.932-.364ZM256.953 92.68l.917.398.021-.048.016-.05-.954-.3Zm-3.125 1.66-.275.961.012.004.263-.965Zm-1.66-2.93-.954-.299-.021.066-.011.069.986.164Zm-12.267-39.66c.378-.54.701-.742.933-.806.212-.058.514-.046.97.218l1.002-1.73c-.781-.453-1.635-.653-2.498-.417-.842.23-1.512.825-2.045 1.587l1.638 1.147Zm1.903-.588c.452.262.639.532.713.784.08.271.076.685-.167 1.307l1.862.729c.343-.876.47-1.764.224-2.6-.252-.855-.846-1.496-1.63-1.95l-1.002 1.73Zm.597 1.98a222.526 222.526 0 0 0-16.48 39.043l1.908.599a220.584 220.584 0 0 1 16.332-38.692l-1.76-.95Zm-16.443 38.944c-.27.62-.565.917-.822 1.053-.242.129-.586.187-1.123.04l-.526 1.93c.895.245 1.788.221 2.588-.203.785-.418 1.336-1.145 1.717-2.023l-1.834-.797Zm-1.933 1.097c-.502-.143-.73-.354-.845-.557-.126-.221-.212-.6-.104-1.247l-1.973-.329c-.152.916-.092 1.807.337 2.562.438.773 1.17 1.247 2.035 1.494l.55-1.923Zm-.981-1.67a220.43 220.43 0 0 1 16.916-39.858l-1.756-.958a222.423 222.423 0 0 0-17.068 40.22l1.908.597Zm4.879-18.283c-.643.08-1.031-.017-1.266-.158-.22-.132-.435-.379-.578-.882l-1.923.55c.247.864.716 1.593 1.472 2.047.742.445 1.623.543 2.543.428l-.248-1.985Zm-1.844-1.04c-.141-.493-.085-.805.037-1.026.134-.244.432-.536 1.06-.81l-.797-1.834c-.869.378-1.597.916-2.017 1.682-.431.787-.456 1.664-.206 2.538l1.923-.55Zm.964-1.788a33.574 33.574 0 0 1 5.596-1.044l-.199-1.99c-2.01.201-3.986.57-5.929 1.106l.532 1.927Zm5.587-1.043a23.764 23.764 0 0 1 4.217 0l.173-1.992a25.757 25.757 0 0 0-4.571 0l.181 1.992Zm4.304.004c1.775 0 3.55.127 5.327.38l.283-1.979c-1.87-.267-3.74-.4-5.61-.4v2Zm5.332.382c1.666.23 3.053.938 4.197 2.14l1.449-1.38c-1.46-1.532-3.263-2.45-5.373-2.742l-.273 1.981Zm4.12 2.048c1.139 1.529 1.689 3.027 1.731 4.509.042 1.483-.423 3.047-1.48 4.708l1.687 1.074c1.222-1.92 1.847-3.872 1.792-5.839-.056-1.969-.792-3.856-2.127-5.647l-1.603 1.195Zm.272 9.185c-1.083 1.564-2.425 2.754-4.032 3.587l.92 1.776c1.909-.99 3.496-2.404 4.757-4.225l-1.645-1.138Zm-4.046 3.595a43.9 43.9 0 0 1-5.252 2.387l.71 1.87a45.958 45.958 0 0 0 5.49-2.496l-.948-1.761Zm-5.266 2.392c-4.1 1.627-8.232 3.254-12.397 4.88l.727 1.864a2479.65 2479.65 0 0 0 12.408-4.885l-.738-1.859Zm-12.205 4.827c-.597.104-.978.026-1.228-.111-.244-.135-.494-.396-.693-.92l-1.869.712c.321.844.837 1.542 1.601 1.961.759.417 1.632.485 2.532.329l-.343-1.97Zm-1.871-.846c-.103-.597-.025-.978.112-1.228.134-.245.396-.494.919-.694l-.712-1.869c-.843.322-1.542.837-1.961 1.602-.416.759-.485 1.631-.328 2.531l1.97-.342Zm1.049-1.929a931.473 931.473 0 0 1 12.097-4.78l-.722-1.865a935.484 935.484 0 0 0-12.123 4.79l.748 1.855Zm12.066-4.768a34.468 34.468 0 0 0 4.023-1.71l-.894-1.789a32.502 32.502 0 0 1-3.79 1.61l.661 1.889Zm4.006-1.702c1.484-.706 2.715-1.64 3.666-2.81l-1.552-1.262c-.741.912-1.724 1.671-2.974 2.267l.86 1.805Zm3.714-2.875c.842-1.224 1.208-2.569 1.049-3.997l-1.988.22c.102.916-.118 1.785-.709 2.644l1.648 1.133Zm1.055-3.887c0-1.297-.845-2.222-1.994-2.835l-.941 1.764c.804.43.935.805.935 1.071h2Zm-2.166-2.907c-1.155-.361-2.43-.534-3.814-.534v2c1.22 0 2.288.152 3.217.443l.597-1.91Zm-3.767-.533a87.159 87.159 0 0 0-4.149-.099v2c1.351 0 2.703.032 4.054.097l.095-1.998Zm-4.086-.097a17.732 17.732 0 0 0-3.312.103l.248 1.985c.98-.123 1.96-.153 2.939-.092l.125-1.996Zm-3.188 2.096a.822.822 0 0 1-.133-.01 1.01 1.01 0 0 1-.371-.132 1.001 1.001 0 0 1 .154-1.79.928.928 0 0 1 .093-.03l.055-.013-.061.01c-.105.014-.284.038-.545.07l.249 1.985c.26-.033.455-.058.578-.076a3.284 3.284 0 0 0 .25-.046.98.98 0 0 0 .449-.26 1 1 0 0 0-.568-1.698c-.078-.011-.142-.01-.15-.01v2Zm-.88-1.883a420.576 420.576 0 0 1-.976.195l.392 1.961c.091-.018.397-.08.488-.097l.245-.05.244-.048-.393-1.961Zm-1.043.211c-.709.193-1.451.387-2.226.58l.485 1.94c.788-.196 1.544-.393 2.267-.59l-.526-1.93Zm39.949-20.727c.378-.54.701-.742.934-.805.211-.058.513-.046.969.218l1.002-1.731c-.781-.452-1.635-.652-2.498-.417-.841.23-1.512.825-2.045 1.588l1.638 1.147Zm1.903-.587c.452.262.639.532.713.784.08.27.077.684-.167 1.306l1.863.729c.342-.876.469-1.764.223-2.6-.251-.855-.845-1.496-1.63-1.95l-1.002 1.73Zm.597 1.98a222.522 222.522 0 0 0-16.48 39.042l1.908.6a220.513 220.513 0 0 1 16.333-38.693l-1.761-.95ZM256.036 92.28c-.269.62-.565.917-.822 1.054-.241.128-.586.187-1.123.04l-.526 1.93c.895.244 1.788.22 2.588-.204.785-.417 1.336-1.145 1.717-2.023l-1.834-.797Zm-1.933 1.097c-.502-.143-.73-.353-.845-.557-.126-.22-.211-.6-.104-1.246l-1.972-.33c-.153.917-.092 1.807.336 2.563.438.773 1.17 1.246 2.035 1.493l.55-1.923Zm-.981-1.67a220.428 220.428 0 0 1 16.916-39.858l-1.756-.958a222.43 222.43 0 0 0-17.068 40.22l1.908.597Z" fill="#000"/></svg>