<svg width="878" height="312" viewBox="0 0 878 312" fill="none" xmlns="http://www.w3.org/2000/svg">
<path d="M0.6875 0.689453V1448.31" stroke="black" stroke-width="2" stroke-linecap="round" stroke-linejoin="round"/>
<path d="M52.3789 0.689453V1448.31" stroke="black" stroke-width="2" stroke-linecap="round" stroke-linejoin="round"/>
<path d="M104.066 0.689453V1448.31" stroke="black" stroke-width="2" stroke-linecap="round" stroke-linejoin="round"/>
<path d="M155.758 0.689453V1448.31" stroke="black" stroke-width="2" stroke-linecap="round" stroke-linejoin="round"/>
<path d="M207.445 0.689453V1448.31" stroke="black" stroke-width="2" stroke-linecap="round" stroke-linejoin="round"/>
<path d="M259.137 0.689453V1448.31" stroke="black" stroke-width="2" stroke-linecap="round" stroke-linejoin="round"/>
<path d="M310.824 0.689453V1448.31" stroke="black" stroke-width="2" stroke-linecap="round" stroke-linejoin="round"/>
<path d="M362.516 0.689453V1448.31" stroke="black" stroke-width="2" stroke-linecap="round" stroke-linejoin="round"/>
<path d="M414.203 0.689453V1448.31" stroke="black" stroke-width="2" stroke-linecap="round" stroke-linejoin="round"/>
<path d="M465.895 0.689453V1448.31" stroke="black" stroke-width="2" stroke-linecap="round" stroke-linejoin="round"/>
<path d="M517.586 0.689453V1448.31" stroke="black" stroke-width="2" stroke-linecap="round" stroke-linejoin="round"/>
<path d="M569.273 0.689453V1448.31" stroke="black" stroke-width="2" stroke-linecap="round" stroke-linejoin="round"/>
<path d="M620.965 0.689453V1448.31" stroke="black" stroke-width="2" stroke-linecap="round" stroke-linejoin="round"/>
<path d="M672.652 0.689453V1448.31" stroke="black" stroke-width="2" stroke-linecap="round" stroke-linejoin="round"/>
<path d="M724.344 0.689453V1448.31" stroke="black" stroke-width="2" stroke-linecap="round" stroke-linejoin="round"/>
<path d="M776.031 0.689453V1448.31" stroke="black" stroke-width="2" stroke-linecap="round" stroke-linejoin="round"/>
<path d="M827.723 0.689453V1448.31" stroke="black" stroke-width="2" stroke-linecap="round" stroke-linejoin="round"/>
<path d="M0.6875 0.689453H1448" stroke="black" stroke-width="2" stroke-linecap="round" stroke-linejoin="round"/>
<path d="M0.6875 52.3901H1448" stroke="black" stroke-width="2" stroke-linecap="round" stroke-linejoin="round"/>
<path d="M0.6875 104.091H1448" stroke="black" stroke-width="2" stroke-linecap="round" stroke-linejoin="round"/>
<path d="M0.6875 155.792H1448" stroke="black" stroke-width="2" stroke-linecap="round" stroke-linejoin="round"/>
<path d="M0.6875 207.492H1448" stroke="black" stroke-width="2" stroke-linecap="round" stroke-linejoin="round"/>
<path d="M0.6875 259.193H1448" stroke="black" stroke-width="2" stroke-linecap="round" stroke-linejoin="round"/>
<path d="M0.6875 310.894H1448" stroke="black" stroke-width="2" stroke-linecap="round" stroke-linejoin="round"/>
</svg>
