<svg width="567" height="392" viewBox="0 0 567 392" fill="none" xmlns="http://www.w3.org/2000/svg">
<path d="M451.249 26.6279C454.58 30.2196 456.915 34.0736 456.866 37.6816C460.441 21.1175 470.336 4.24187 488.607 2.15906C509.523 -0.235344 516.626 24.9387 516.56 41.552C516.462 66.3817 503.416 91.769 493.424 113.942C485.407 131.736 474.957 150.908 463.299 166.701C458.205 149.268 444.93 133.95 434.333 119.518C425.01 106.824 414.38 95.3114 405.09 82.5685C399.996 75.5821 397.253 69.6617 393.66 61.8225C386.623 46.4392 385.839 29.8424 399.343 17.8867C409.041 9.30949 421.303 8.01388 432.88 13.4095C443.493 18.3459 452.114 26.8575 458.433 36.5992" fill="black"/>
<path d="M451.249 26.6279C454.58 30.2196 456.915 34.0736 456.866 37.6816C460.441 21.1175 470.336 4.24187 488.607 2.15906C509.523 -0.235344 516.626 24.9387 516.56 41.552C516.462 66.3817 503.416 91.769 493.424 113.942C485.407 131.736 474.957 150.908 463.299 166.701C458.205 149.268 444.93 133.95 434.333 119.518C425.01 106.824 414.38 95.3114 405.09 82.5685C399.996 75.5821 397.253 69.6617 393.66 61.8225C386.623 46.4392 385.839 29.8424 399.343 17.8867C409.041 9.30949 421.303 8.01388 432.88 13.4095C443.493 18.3459 452.114 26.8575 458.433 36.5992" stroke="black" stroke-width="4" stroke-linecap="round" stroke-linejoin="round"/>
<path d="M451.578 48.921C438.41 62.4698 465.677 81.9696 470.988 61.9807C474.367 49.2634 461.899 41.4047 451.578 48.921Z" stroke="white" stroke-width="4" stroke-linecap="round" stroke-linejoin="round"/>
<path d="M476.664 39.5089C477.968 44.7961 477.488 58.1916 483.666 60.7761C494.375 65.2695 494.117 41.2825 493.912 35.7588C493.397 43.8502 496.383 50.4043 500.193 57.2626" stroke="white" stroke-width="4" stroke-linecap="round" stroke-linejoin="round"/>
<path d="M442.906 113.506C442.906 104.104 443.432 95.1556 444.584 85.8379C449.228 88.9606 452.737 100.377 457.228 104.389C458.482 99.5542 457.94 84.9481 462.364 82.8159C464.33 87.0802 465.584 91.9321 466.906 96.5322C467.669 99.1512 470.008 104.389 471.55 106.605" stroke="white" stroke-width="4" stroke-linecap="round" stroke-linejoin="round"/>
<path d="M474.628 76.6782C474.449 81.5685 477.984 97.4287 479.484 102.253C479.484 102.253 489.5 96.5035 493.035 96.5035" stroke="white" stroke-width="4" stroke-linecap="round" stroke-linejoin="round"/>
<path d="M476.664 92.0227C480.234 89.3564 485.169 87.71 487.917 85.8848" stroke="white" stroke-width="4" stroke-linecap="round" stroke-linejoin="round"/>
<path d="M474.621 76.6778C480.248 74.8709 481.002 75.7457 485.874 73.6089" stroke="white" stroke-width="4" stroke-linecap="round" stroke-linejoin="round"/>
<path d="M393.339 284.704C382.381 267.831 374.41 248.063 365.26 229.968C359.153 217.872 353.508 205.71 347.831 193.361C337.071 169.961 328.99 146.231 319.388 122.369C315.309 112.221 310.921 101.962 303.171 93.3334C299.004 88.6886 90.9987 97.3618 9.60673 106.662C4.81118 107.213 2 115.016 2 115.016C9.60673 135.962 18.5694 154.133 24.9635 173.714C34.5766 203.168 47.0892 231.663 60.8144 259.323C67.5171 272.817 75.3994 288.38 82.0471 301.896C84.6157 307.113 90.9546 317.988 94.5045 320.816C121.172 321.389 142.713 309.612 169.304 307.421C207.216 304.306 245.018 301.83 282.81 297.317C301.893 295.039 320.832 291.803 339.882 289.239C356.672 286.982 374.818 284.693 391.773 284.693" fill="black"/>
<path d="M393.339 284.704C382.381 267.831 374.41 248.063 365.26 229.968C359.153 217.872 353.508 205.71 347.831 193.361C337.071 169.961 328.99 146.231 319.388 122.369C315.309 112.221 310.921 101.962 303.171 93.3334C299.004 88.6886 90.9987 97.3618 9.60673 106.662C4.81118 107.213 2 115.016 2 115.016C9.60673 135.962 18.5694 154.133 24.9635 173.714C34.5766 203.168 47.0892 231.663 60.8144 259.323C67.5171 272.817 75.3994 288.38 82.0471 301.896C84.6157 307.113 90.9546 317.988 94.5045 320.816C121.172 321.389 142.713 309.612 169.304 307.421C207.216 304.306 245.018 301.83 282.81 297.317C301.893 295.039 320.832 291.803 339.882 289.239C356.672 286.982 374.818 284.693 391.773 284.693" stroke="black" stroke-width="4" stroke-linecap="round" stroke-linejoin="round"/>
<path d="M416.588 293.179C407.879 289.833 399.181 288.358 390.802 285.815C375.865 289.547 360.761 287.951 345.085 288.589C282.247 291.121 217.259 294.742 155.28 305.385C142.79 307.531 131.6 307.895 119.077 308.225C112.903 308.39 97.7889 302.358 97.0723 308.742C96.3006 315.599 93.8863 320.761 97.0723 321.708C107.49 324.779 123.068 332.626 132.868 337.205C153.957 347.067 175.796 355.861 197.47 364.468C212.276 370.346 226.122 377.995 241.258 382.937C247.245 384.896 254.168 388.55 260.397 389.266C261.565 389.398 262.756 389.431 263.957 389.387C265.324 389.266 266.702 389.134 268.069 389.002C273.229 388.242 314.007 382.321 329.375 380.185C360.827 375.827 440.367 364.754 448.856 364.127C486.824 357.6 524.714 350.49 562.659 343.203C564.478 342.818 564.313 330.678 564.313 330.678C521.539 317.635 458.899 308.863 416.577 293.168L416.588 293.179Z" fill="black" stroke="black" stroke-width="4" stroke-linecap="round" stroke-linejoin="round"/>
<path d="M416.588 280.213C407.879 276.867 399.181 275.392 390.802 272.85C375.864 276.581 360.761 274.985 345.085 275.623C282.246 278.155 217.258 281.776 155.28 292.419C142.79 294.565 131.6 294.929 119.077 295.259C112.903 295.424 105.296 295.556 99.5856 298.517C95.3854 300.696 93.8861 307.795 97.0721 308.731C107.49 311.802 123.067 319.649 132.868 324.228C153.957 334.09 175.796 342.884 197.47 351.491C212.276 357.369 226.122 365.018 241.258 369.96C247.244 371.919 254.168 375.574 260.396 376.289C261.565 376.421 262.756 376.454 263.957 376.41C265.324 376.289 266.702 376.157 268.069 376.025C273.229 375.265 314.007 369.344 329.375 367.209C360.827 362.85 440.367 351.777 448.856 351.15C486.823 344.623 524.714 337.513 562.659 330.227C513.249 316.215 465.161 298.209 416.577 280.191L416.588 280.213Z" fill="white" stroke="black" stroke-width="4" stroke-linecap="round" stroke-linejoin="round"/>
<path d="M372.876 221.614C366.769 209.518 361.125 197.356 355.447 185.007C344.687 161.607 336.607 137.877 327.005 114.014C322.926 103.866 318.538 93.6084 310.788 84.9793C305.342 78.9037 9.60547 106.662 9.60547 106.662C13.497 126.408 26.1749 145.779 32.569 165.36C42.1821 194.813 54.6946 223.309 68.4198 250.969C75.1226 264.463 79.5764 278.782 87.1721 291.781C93.1362 301.984 95.1867 308.368 97.0718 308.742C123.739 309.314 150.319 301.258 176.909 299.067C214.822 295.952 252.624 293.476 290.415 288.963C309.498 286.685 328.438 283.449 347.488 280.884C364.278 278.628 384 276.339 400.966 276.339C390.008 259.466 382.038 239.698 372.887 221.603L372.876 221.614Z" fill="white" stroke="black" stroke-width="4" stroke-linecap="round" stroke-linejoin="round"/>
<path d="M379.801 264.397C379.801 264.397 378.863 261.425 374.509 253.401C365.447 236.682 356.363 215.473 348.745 198.094C336.442 170.027 325.065 141.663 312.079 113.916C309.334 108.049 307.316 102.469 302.906 97.2187C299.941 93.6856 292.169 95.2926 264.818 97.2187C248.888 98.3414 231.238 99.8273 215.319 100.84C179.721 103.085 146.009 106.255 110.456 109.216C96.5656 110.372 83.1491 111.021 69.2916 112.496C59.0721 113.585 26.1758 117.185 26.1758 117.185C26.1758 117.185 35.4361 140.617 38.5781 148.102C45.38 164.292 52.4576 180.197 57.9918 196.905C67.4395 225.434 82.7743 252.026 96.0254 278.881C100.81 288.6 106.212 296.734 106.212 296.734C106.212 296.734 147.431 290.78 161.939 289.701C171.894 288.963 182.764 288.083 192.653 286.696C203.721 285.133 215.131 285.221 226.255 284.077C258.402 280.775 290.559 277.363 322.53 272.762C332.54 271.32 345.934 268.711 356.319 267.314C362.316 266.51 379.801 264.419 379.801 264.419V264.397Z" stroke="black" stroke-width="4" stroke-linecap="round" stroke-linejoin="round"/>
<path d="M116.266 119.749C134.841 148.894 143.705 184.28 159.426 214.889C166.194 228.064 174.022 241.349 179.865 254.865C182.378 260.677 184.076 268.15 187.857 272.74" stroke="black" stroke-width="4" stroke-linecap="round" stroke-linejoin="round"/>
<path d="M57.2305 143.578C73.0282 142.037 88.1866 138.559 104.337 138.559" stroke="black" stroke-width="4" stroke-linecap="round" stroke-linejoin="round"/>
<path d="M65.6328 160.066C84.2969 157.457 96.644 155.553 109.355 153.605" stroke="black" stroke-width="4" stroke-linecap="round" stroke-linejoin="round"/>
<path d="M69.293 176.179C85.0907 174.638 100.249 171.16 116.4 171.16" stroke="black" stroke-width="4" stroke-linecap="round" stroke-linejoin="round"/>
<path d="M75.5742 193.735C95.3517 191.368 106.718 189.541 121.38 188.331" stroke="black" stroke-width="4" stroke-linecap="round" stroke-linejoin="round"/>
<path d="M113.93 276.614C128.184 272.321 145.106 270.296 159.78 269.085" stroke="black" stroke-width="4" stroke-linecap="round" stroke-linejoin="round"/>
<path d="M150.815 131.283C152.303 131.173 153.912 131.437 155.599 132.153C162.269 134.993 165.422 146.549 159.204 151.414C152.997 156.279 143.539 150.523 142.37 143.402C141.389 137.425 145.159 131.691 150.815 131.272V131.283Z" fill="black" stroke="black" stroke-width="4" stroke-linecap="round" stroke-linejoin="round"/>
<path d="M173.316 136.325C196.137 134.531 271.928 125.692 281.541 126.21" stroke="black" stroke-width="4" stroke-linecap="round" stroke-linejoin="round"/>
<path d="M187.859 191.28C210.68 189.486 286.471 180.648 296.084 181.165" stroke="black" stroke-width="4" stroke-linecap="round" stroke-linejoin="round"/>
<path d="M191.309 201.505C215.893 199.711 297.549 190.873 307.912 191.39" stroke="black" stroke-width="4" stroke-linecap="round" stroke-linejoin="round"/>
<path d="M197.734 212.897C216.299 211.467 277.947 204.378 285.763 204.797" stroke="black" stroke-width="4" stroke-linecap="round" stroke-linejoin="round"/>
<path d="M204.848 224.355C219.565 223.254 268.447 217.784 274.653 218.103" stroke="black" stroke-width="4" stroke-linecap="round" stroke-linejoin="round"/>
<path d="M258.623 143.006L263.859 149.687L272.172 150.193L267.619 155.641L270.783 162.377L262.735 160.231L256.374 165.085L255.955 157.193L248.855 152.394L256.65 150.303L258.623 143.006Z" fill="black"/>
<path d="M258.623 143.006L263.859 149.687L272.172 150.193L267.619 155.641L270.783 162.377L262.735 160.231L256.374 165.085L255.955 157.193L248.855 152.394L256.65 150.303L258.623 143.006Z" stroke="black" stroke-width="4" stroke-linecap="round" stroke-linejoin="round"/>
<path d="M307.911 159.515C303.126 153.275 306.808 144.238 295.597 146.263C291.451 147.012 284.164 148.509 280.615 150.534C282.522 146.825 286.171 144.183 287.67 140.133C284.892 143.853 283.007 148.333 279.953 151.833C283.801 153.043 287.979 155.025 291.914 156.015" stroke="black" stroke-width="4" stroke-linecap="round" stroke-linejoin="round"/>
<path d="M201.683 258.189C201.882 262.03 206.181 265.607 210.26 266.158C216.698 267.027 223.644 266.103 229.905 264.562C235.197 263.263 242.572 263.912 247.059 260.566C250.488 258.013 250.146 252.025 247.423 249.032C244.226 245.532 237.744 246.005 233.654 246.753C228.439 247.711 223.103 247.942 217.911 249.032C213.567 249.934 206.743 250.484 203.48 253.83C202.124 255.217 201.606 256.714 201.683 258.178V258.189Z" fill="black" stroke="black" stroke-width="4" stroke-linecap="round" stroke-linejoin="round"/>
<path d="M256.043 251.475C256.286 255.316 260.629 258.838 264.708 259.345C271.158 260.137 278.081 259.136 284.332 257.518C289.601 256.153 296.987 256.714 301.441 253.324C304.848 250.727 304.429 244.739 301.673 241.789C298.432 238.322 291.96 238.884 287.881 239.676C282.678 240.689 277.353 240.986 272.161 242.131C267.828 243.088 261.015 243.715 257.785 247.094C256.451 248.492 255.944 250 256.043 251.464V251.475Z" stroke="black" stroke-width="4" stroke-linecap="round" stroke-linejoin="round"/>
<path d="M340.73 177.038C358.545 171.612 378.246 166.78 394.495 156.511C401.562 152.042 410.15 144.965 418.638 143.93C425.319 143.116 431.041 141.751 437.754 140.816C448.591 139.297 449.594 138.449 439.474 127.278C436.729 124.251 428.615 115.842 429.343 111.23C430.126 106.31 442.759 103.592 441.392 96.8225C440.544 92.585 436.354 93.5976 433.036 95.1055C429.718 96.6134 427.48 99.222 423.897 100.466C420.127 101.775 415.055 104.483 412.222 107.862C409.003 111.681 408.463 118.88 406.368 123.447C403.182 130.37 398.729 136.292 393.283 141.575C385.411 149.203 373.858 155.311 363.308 158.294C355.536 160.495 344.401 164.039 336.155 163.313C336.034 166.648 340.179 173.538 340.73 177.038Z" fill="white" stroke="black" stroke-width="4" stroke-linecap="round" stroke-linejoin="round"/>
<path d="M441.842 35.7588C442.142 40.1007 440.941 53.0424 436.102 54.9535C430.98 56.9652 422.888 45.8842 420.402 42.1123" stroke="white" stroke-width="4" stroke-linecap="round" stroke-linejoin="round"/>
<path d="M369.824 299.639C376.417 302.644 383.803 305.198 390.208 308.566C397.947 307.124 412.83 305.352 412.83 305.352L412.433 298.462L370.938 293.211L369.824 299.628V299.639Z" fill="white" stroke="black" stroke-width="4" stroke-linecap="round" stroke-linejoin="round"/>
<path d="M370.938 293.222C377.53 296.227 384.916 298.781 391.321 302.149C399.06 300.707 404.617 299.65 412.422 298.472C407.207 295.501 398.377 293.057 393.14 290.085C384.111 291.318 379.955 291.913 370.938 293.233V293.222Z" fill="white" stroke="black" stroke-width="4" stroke-linecap="round" stroke-linejoin="round"/>
<path d="M390.66 303.821V307.343" stroke="black" stroke-width="4" stroke-linecap="round" stroke-linejoin="round"/>
<path d="M340.852 304.57C347.444 307.575 354.83 310.129 361.235 313.497C368.974 312.055 383.857 310.283 383.857 310.283L383.46 303.393L341.965 298.143L340.852 304.559V304.57Z" fill="white" stroke="black" stroke-width="4" stroke-linecap="round" stroke-linejoin="round"/>
<path d="M341.965 298.153C348.557 301.158 355.944 303.712 362.349 307.08C370.088 305.638 375.644 304.581 383.449 303.404C378.235 300.432 369.404 297.988 364.168 295.017C355.139 296.249 350.983 296.844 341.965 298.164V298.153Z" fill="white" stroke="black" stroke-width="4" stroke-linecap="round" stroke-linejoin="round"/>
<path d="M361.688 308.753V312.275" stroke="black" stroke-width="4" stroke-linecap="round" stroke-linejoin="round"/>
<path d="M310.238 307.784C316.831 310.789 324.217 313.343 330.622 316.711C338.361 315.269 353.244 313.497 353.244 313.497L352.847 306.607L311.352 301.356L310.238 307.773V307.784Z" fill="white" stroke="black" stroke-width="4" stroke-linecap="round" stroke-linejoin="round"/>
<path d="M311.352 301.367C317.944 304.372 325.33 306.926 331.735 310.294C339.474 308.852 345.031 307.795 352.836 306.617C347.621 303.646 338.791 301.202 333.554 298.23C324.526 299.463 320.369 300.058 311.352 301.378V301.367Z" fill="white" stroke="black" stroke-width="4" stroke-linecap="round" stroke-linejoin="round"/>
<path d="M331.074 311.966V315.488" stroke="black" stroke-width="4" stroke-linecap="round" stroke-linejoin="round"/>
<path d="M278.137 310.998C284.729 314.002 292.115 316.556 298.521 319.924C306.26 318.482 321.142 316.71 321.142 316.71L320.745 309.82L279.25 304.57L278.137 310.987V310.998Z" fill="white" stroke="black" stroke-width="4" stroke-linecap="round" stroke-linejoin="round"/>
<path d="M279.262 304.57C285.854 307.575 293.24 310.128 299.646 313.496C307.385 312.054 312.941 310.998 320.746 309.82C315.531 306.848 306.701 304.405 301.465 301.433C292.436 302.666 288.28 303.26 279.262 304.581V304.57Z" fill="white" stroke="black" stroke-width="4" stroke-linecap="round" stroke-linejoin="round"/>
<path d="M298.984 315.18V318.702" stroke="black" stroke-width="4" stroke-linecap="round" stroke-linejoin="round"/>
<path d="M435.746 54.1724C436.662 58.3445 438.855 62.355 440.289 66.4948C440.842 68.1281 443.26 78.5585 442.863 74.8714" stroke="white" stroke-width="4" stroke-linecap="round" stroke-linejoin="round"/>
<path d="M248.855 314.355C255.448 317.359 262.834 319.913 269.239 323.281C276.978 321.839 291.861 320.067 291.861 320.067L291.464 313.177L249.969 307.927L248.855 314.344V314.355Z" fill="white" stroke="black" stroke-width="4" stroke-linecap="round" stroke-linejoin="round"/>
<path d="M249.98 307.938C256.573 310.943 263.959 313.496 270.364 316.864C278.103 315.423 283.66 314.366 291.465 313.188C286.25 310.216 277.42 307.773 272.183 304.801C263.154 306.034 258.998 306.628 249.98 307.949V307.938Z" fill="white" stroke="black" stroke-width="4" stroke-linecap="round" stroke-linejoin="round"/>
<path d="M269.703 318.538V322.06" stroke="black" stroke-width="4" stroke-linecap="round" stroke-linejoin="round"/>
<path d="M218.242 317.569C224.835 320.574 232.221 323.127 238.626 326.495C246.365 325.053 261.248 323.281 261.248 323.281L260.851 316.391L219.356 311.141L218.242 317.558V317.569Z" fill="white" stroke="black" stroke-width="4" stroke-linecap="round" stroke-linejoin="round"/>
<path d="M219.355 311.141C225.948 314.146 233.334 316.7 239.739 320.068C247.478 318.626 253.035 317.569 260.84 316.391C255.625 313.42 246.795 310.976 241.558 308.004C232.529 309.237 228.373 309.831 219.355 311.152V311.141Z" fill="white" stroke="black" stroke-width="4" stroke-linecap="round" stroke-linejoin="round"/>
<path d="M239.078 321.752V325.274" stroke="black" stroke-width="4" stroke-linecap="round" stroke-linejoin="round"/>
<path d="M186.148 320.772C192.741 323.777 200.127 326.33 206.532 329.698C214.271 328.257 229.154 326.484 229.154 326.484L228.757 319.594L187.262 314.344L186.148 320.761V320.772Z" fill="white" stroke="black" stroke-width="4" stroke-linecap="round" stroke-linejoin="round"/>
<path d="M187.262 314.355C193.854 317.36 201.24 319.913 207.646 323.281C215.385 321.84 220.941 320.783 228.746 319.605C223.531 316.633 214.701 314.19 209.465 311.218C200.436 312.451 196.28 313.045 187.262 314.366V314.355Z" fill="white" stroke="black" stroke-width="4" stroke-linecap="round" stroke-linejoin="round"/>
<path d="M206.984 324.965V328.476" stroke="black" stroke-width="4" stroke-linecap="round" stroke-linejoin="round"/>
<path d="M406.48 311.812C413.073 314.817 420.459 317.37 426.864 320.738C434.603 319.297 449.486 317.524 449.486 317.524L449.089 310.634L407.594 305.384L406.48 311.801V311.812Z" fill="white" stroke="black" stroke-width="4" stroke-linecap="round" stroke-linejoin="round"/>
<path d="M407.605 305.396C414.198 308.4 421.584 310.954 427.989 314.322C435.728 312.88 441.285 311.823 449.09 310.646C443.875 307.674 435.045 305.231 429.808 302.259C420.779 303.492 416.623 304.086 407.605 305.407V305.396Z" fill="white" stroke="black" stroke-width="4" stroke-linecap="round" stroke-linejoin="round"/>
<path d="M427.328 315.995V319.517" stroke="black" stroke-width="4" stroke-linecap="round" stroke-linejoin="round"/>
<path d="M377.508 316.744C384.1 319.749 391.487 322.302 397.892 325.67C405.631 324.228 420.513 322.456 420.513 322.456L420.117 315.566L378.621 310.316L377.508 316.733V316.744Z" fill="white" stroke="black" stroke-width="4" stroke-linecap="round" stroke-linejoin="round"/>
<path d="M378.633 310.327C385.225 313.332 392.612 315.885 399.017 319.253C406.756 317.811 412.312 316.755 420.117 315.577C414.903 312.605 406.072 310.162 400.836 307.19C391.807 308.423 387.651 309.017 378.633 310.338V310.327Z" fill="white" stroke="black" stroke-width="4" stroke-linecap="round" stroke-linejoin="round"/>
<path d="M398.355 320.926V324.448" stroke="black" stroke-width="4" stroke-linecap="round" stroke-linejoin="round"/>
<path d="M346.895 319.958C353.487 322.962 360.873 325.516 367.278 328.884C375.017 327.442 389.9 325.67 389.9 325.67L389.503 318.78L348.008 313.53L346.895 319.947V319.958Z" fill="white" stroke="black" stroke-width="4" stroke-linecap="round" stroke-linejoin="round"/>
<path d="M348.02 313.541C354.612 316.545 361.998 319.099 368.403 322.467C376.142 321.025 381.699 319.968 389.504 318.791C384.289 315.819 375.459 313.376 370.222 310.404C361.194 311.637 357.037 312.231 348.02 313.552V313.541Z" fill="white" stroke="black" stroke-width="4" stroke-linecap="round" stroke-linejoin="round"/>
<path d="M367.742 324.14V327.662" stroke="black" stroke-width="4" stroke-linecap="round" stroke-linejoin="round"/>
<path d="M314.801 323.171C321.393 326.176 328.78 328.73 335.185 332.098C342.924 330.656 357.806 328.884 357.806 328.884L357.41 321.994L315.914 316.744L314.801 323.16V323.171Z" fill="white" stroke="black" stroke-width="4" stroke-linecap="round" stroke-linejoin="round"/>
<path d="M315.914 316.744C322.507 319.749 329.893 322.302 336.298 325.67C344.037 324.228 349.593 323.172 357.398 321.994C352.184 319.022 343.353 316.579 338.117 313.607C329.088 314.84 324.932 315.434 315.914 316.755V316.744Z" fill="white" stroke="black" stroke-width="4" stroke-linecap="round" stroke-linejoin="round"/>
<path d="M335.637 327.354V330.876" stroke="black" stroke-width="4" stroke-linecap="round" stroke-linejoin="round"/>
<path d="M285.523 326.529C292.116 329.534 299.502 332.087 305.907 335.455C313.646 334.013 328.529 332.241 328.529 332.241L328.132 325.351L286.637 320.101L285.523 326.518V326.529Z" fill="white" stroke="black" stroke-width="4" stroke-linecap="round" stroke-linejoin="round"/>
<path d="M286.637 320.112C293.229 323.117 300.615 325.67 307.021 329.038C314.76 327.596 320.316 326.54 328.121 325.362C322.906 322.39 314.076 319.947 308.84 316.975C299.811 318.208 295.655 318.802 286.637 320.123V320.112Z" fill="white" stroke="black" stroke-width="4" stroke-linecap="round" stroke-linejoin="round"/>
<path d="M306.359 330.711V334.233" stroke="black" stroke-width="4" stroke-linecap="round" stroke-linejoin="round"/>
<path d="M254.895 329.743C261.487 332.748 268.873 335.301 275.278 338.669C283.017 337.227 297.9 335.455 297.9 335.455L297.503 328.565L256.008 323.315L254.895 329.732V329.743Z" fill="white" stroke="black" stroke-width="4" stroke-linecap="round" stroke-linejoin="round"/>
<path d="M256.02 323.315C262.612 326.319 269.998 328.873 276.403 332.241C284.142 330.799 289.699 329.742 297.504 328.565C292.289 325.593 283.459 323.149 278.222 320.178C269.194 321.41 265.037 322.005 256.02 323.326V323.315Z" fill="white" stroke="black" stroke-width="4" stroke-linecap="round" stroke-linejoin="round"/>
<path d="M275.742 333.925V337.447" stroke="black" stroke-width="4" stroke-linecap="round" stroke-linejoin="round"/>
<path d="M222.805 332.945C229.397 335.95 236.783 338.504 243.189 341.872C250.928 340.43 265.81 338.658 265.81 338.658L265.413 331.768L223.918 326.518L222.805 332.934V332.945Z" fill="white" stroke="black" stroke-width="4" stroke-linecap="round" stroke-linejoin="round"/>
<path d="M223.93 326.528C230.522 329.533 237.908 332.087 244.314 335.455C252.053 334.013 257.609 332.956 265.414 331.779C260.199 328.807 251.369 326.363 246.133 323.392C237.104 324.624 232.948 325.219 223.93 326.539V326.528Z" fill="white" stroke="black" stroke-width="4" stroke-linecap="round" stroke-linejoin="round"/>
<path d="M243.652 337.139V340.65" stroke="black" stroke-width="4" stroke-linecap="round" stroke-linejoin="round"/>
<path d="M438.738 322.225C445.331 325.23 452.717 327.783 459.122 331.151C466.861 329.71 481.744 327.938 481.744 327.938L481.347 321.047L439.852 315.797L438.738 322.214V322.225Z" fill="white" stroke="black" stroke-width="4" stroke-linecap="round" stroke-linejoin="round"/>
<path d="M439.852 315.808C446.444 318.813 453.83 321.367 460.235 324.735C467.974 323.293 473.531 322.236 481.336 321.058C476.121 318.087 467.291 315.643 462.054 312.671C453.026 313.904 448.869 314.498 439.852 315.819V315.808Z" fill="white" stroke="black" stroke-width="4" stroke-linecap="round" stroke-linejoin="round"/>
<path d="M459.574 326.408V329.93" stroke="black" stroke-width="4" stroke-linecap="round" stroke-linejoin="round"/>
<path d="M409.766 327.156C416.358 330.161 423.744 332.714 430.149 336.082C437.888 334.64 452.771 332.868 452.771 332.868L452.374 325.978L410.879 320.728L409.766 327.145V327.156Z" fill="white" stroke="black" stroke-width="4" stroke-linecap="round" stroke-linejoin="round"/>
<path d="M410.879 320.739C417.471 323.744 424.858 326.298 431.263 329.666C439.002 328.224 444.558 327.167 452.363 325.99C447.149 323.018 438.318 320.574 433.082 317.603C424.053 318.835 419.897 319.43 410.879 320.75V320.739Z" fill="white" stroke="black" stroke-width="4" stroke-linecap="round" stroke-linejoin="round"/>
<path d="M430.602 331.35V334.861" stroke="black" stroke-width="4" stroke-linecap="round" stroke-linejoin="round"/>
<path d="M317.766 336.941C324.358 339.946 331.744 342.499 338.149 345.867C345.889 344.425 420.324 334.597 420.324 334.597L419.927 327.707L318.89 330.524L317.777 336.941H317.766Z" fill="white" stroke="black" stroke-width="4" stroke-linecap="round" stroke-linejoin="round"/>
<path d="M318.891 330.524C325.483 333.529 332.869 336.082 339.274 339.45C347.013 338.008 410.855 329.522 418.66 328.344C413.446 325.373 404.615 322.929 399.379 319.958C390.35 321.19 327.908 329.214 318.891 330.535V330.524Z" fill="white" stroke="black" stroke-width="4" stroke-linecap="round" stroke-linejoin="round"/>
<path d="M338.613 341.123V344.645" stroke="black" stroke-width="4" stroke-linecap="round" stroke-linejoin="round"/>
<path d="M287.152 340.155C293.745 343.16 301.131 345.713 307.536 349.081C315.275 347.639 330.158 345.867 330.158 345.867L329.761 338.977L288.266 333.727L287.152 340.144V340.155Z" fill="white" stroke="black" stroke-width="4" stroke-linecap="round" stroke-linejoin="round"/>
<path d="M288.266 333.727C294.858 336.731 302.244 339.285 308.649 342.653C316.388 341.211 321.945 340.155 329.75 338.977C324.535 336.005 315.705 333.562 310.468 330.59C301.44 331.823 297.283 332.417 288.266 333.738V333.727Z" fill="white" stroke="black" stroke-width="4" stroke-linecap="round" stroke-linejoin="round"/>
<path d="M307.988 344.337V347.86" stroke="black" stroke-width="4" stroke-linecap="round" stroke-linejoin="round"/>
<path d="M255.062 343.369C261.655 346.374 269.041 348.927 275.446 352.295C283.185 350.853 298.068 349.081 298.068 349.081L297.671 342.191L256.176 336.941L255.062 343.358V343.369Z" fill="white" stroke="black" stroke-width="4" stroke-linecap="round" stroke-linejoin="round"/>
<path d="M256.176 336.941C262.768 339.945 270.155 342.499 276.56 345.867C284.299 344.425 289.855 343.368 297.66 342.191C292.446 339.219 283.615 336.775 278.379 333.804C269.35 335.036 265.194 335.631 256.176 336.952V336.941Z" fill="white" stroke="black" stroke-width="4" stroke-linecap="round" stroke-linejoin="round"/>
<path d="M275.898 347.551V351.073" stroke="black" stroke-width="4" stroke-linecap="round" stroke-linejoin="round"/>
</svg>
