<svg width="131" height="112" viewBox="0 0 131 112" fill="none" xmlns="http://www.w3.org/2000/svg">
<path d="M107.286 22.8402C107.286 22.8402 65.4926 57.2416 12.4213 35.913L23.3545 88.5196C23.3545 88.5196 86.9491 102.046 120.54 67.8876L107.286 22.8402Z" fill="#DCF672" stroke="black" stroke-width="4" stroke-linecap="round" stroke-linejoin="round"/>
<path d="M27.4174 46.1003C27.1954 45.8263 27.4121 46.4208 27.4174 46.1003C30.333 49.7517 26.0239 53.5058 24.0974 53.5797L29.0453 77.008C29.8425 76.7388 30.7432 76.685 31.6201 76.92C34.0255 77.5646 35.4819 80.047 34.8315 82.4746C34.7845 82.6498 34.7125 82.8183 34.6338 83.0118C47.4123 84.9336 84.8607 88.3962 108.606 68.6326C106.829 67.6469 105.857 65.5624 106.407 63.5102C106.957 61.458 108.675 60.2555 110.602 60.1816L104.138 39.4049C103.225 39.8041 102.204 39.9061 101.177 39.6308C99.2225 39.1071 97.9175 37.3626 97.8423 35.438C87.8584 41.8292 58.9058 55.3692 27.4174 46.1003Z" fill="white"/>
<path d="M27.4174 46.1003C27.4121 46.4208 27.1954 45.8263 27.4174 46.1003ZM27.4174 46.1003C30.333 49.7517 26.0239 53.5058 24.0974 53.5797L29.0453 77.008C29.8425 76.7388 30.7432 76.685 31.6201 76.92C34.0255 77.5646 35.4819 80.047 34.8315 82.4746C34.7845 82.6498 34.7125 82.8183 34.6338 83.0118C47.4123 84.9336 84.8607 88.3962 108.606 68.6326C106.829 67.6469 105.857 65.5624 106.407 63.5102C106.957 61.458 108.675 60.2555 110.602 60.1816L104.138 39.4049C103.225 39.8041 102.204 39.9061 101.177 39.6308C99.2225 39.1071 97.9175 37.3626 97.8423 35.438C87.8584 41.8292 58.9058 55.3692 27.4174 46.1003Z" stroke="black" stroke-width="4" stroke-linecap="round" stroke-linejoin="round"/>
<path d="M34.6878 65.5643C34.1249 67.6652 35.3737 69.8253 37.4771 70.3889C39.5805 70.9525 41.742 69.7062 42.3049 67.6053C42.8679 65.5044 41.6191 63.3444 39.5157 62.7808C37.4122 62.2172 35.2507 63.4634 34.6878 65.5643Z" fill="#DCF672" stroke="black" stroke-width="4" stroke-linecap="round" stroke-linejoin="round"/>
<path d="M91.7776 56.1576C91.2147 58.2585 92.4635 60.4185 94.5669 60.9821C96.6703 61.5457 98.8318 60.2995 99.3948 58.1986C99.9577 56.0977 98.7089 53.9376 96.6055 53.374C94.5021 52.8104 92.3406 54.0567 91.7776 56.1576Z" fill="#DCF672" stroke="black" stroke-width="4" stroke-linecap="round" stroke-linejoin="round"/>
<path d="M49.3275 61.5472C46.8758 70.6972 52.3146 80.1047 61.4755 82.5594C70.6365 85.014 80.0504 79.5863 82.5021 70.4363C84.9539 61.2862 79.515 51.8788 70.3541 49.4241C61.1932 46.9694 51.7793 52.3971 49.3275 61.5472Z" fill="#DCF672" stroke="black" stroke-width="4" stroke-linecap="round" stroke-linejoin="round"/>
</svg>
