<svg width="442" height="390" viewBox="0 0 442 390" fill="none" xmlns="http://www.w3.org/2000/svg">
<path d="M230.657 89.4225C234.971 86.8159 241.112 86.0435 245.91 86.9687C251.89 88.1272 257.427 91.4177 261.556 95.8667C265.017 99.5916 269.766 106.8 268.414 112.198C266.313 112.206 264.365 110.967 262.224 110.984C258.361 111.016 253.966 114.218 250.401 115.553C241.628 118.844 228.943 110.525 226.102 102.255C224.017 96.1805 226.488 91.9487 230.665 89.4225H230.657Z" fill="black" stroke="black" stroke-width="4" stroke-linecap="round" stroke-linejoin="round"/>
<path d="M37.6076 125.038C36.8311 126.421 40.9923 131.753 42.0896 133.356C50.4963 145.623 50.9437 159.072 47.5422 173.245C47.0948 175.11 46.428 176.915 45.8287 178.738C45.4067 180.003 43.9127 184.019 46.6643 181.986C49.0783 180.197 51.3995 177.953 53.6615 175.954C56.6833 173.271 60.6925 170.284 64.9719 170.301C77.0334 170.352 84.8494 180.619 94.1762 186.441C98.7425 189.292 97.1641 185.799 95.3241 182.872C90.0994 174.553 84.4442 165.948 82.2497 156.237C81.1693 151.453 81.0427 146.433 82.6886 141.759C83.5073 139.439 84.4864 137.161 85.6428 134.993C86.7063 132.994 88.3944 131.222 89.4073 129.239C90.4201 127.257 88.023 127.577 86.9089 128.412C83.0937 131.264 79.0338 134.006 74.7376 136.098C70.4245 138.208 64.5414 137.862 60.0257 136.689C54.7419 135.322 50.8171 132.58 46.3183 129.594C45.6093 129.121 38.2913 123.907 37.6161 125.055L37.6076 125.038Z" fill="white" stroke="black" stroke-width="4" stroke-linecap="round" stroke-linejoin="round"/>
<path d="M47.9242 95.9223C47.5612 96.5635 49.4857 99.027 49.9921 99.761C53.8747 105.422 54.0773 111.632 52.5074 118.178C52.2964 119.039 51.9925 119.874 51.714 120.709C51.5198 121.292 50.8277 123.148 52.1022 122.211C53.2164 121.384 54.2883 120.347 55.335 119.427C56.7276 118.187 58.5846 116.812 60.5596 116.82C66.1304 116.845 69.7345 121.587 74.0392 124.27C76.1493 125.586 75.415 123.975 74.571 122.625C72.157 118.786 69.5488 114.812 68.536 110.332C68.038 108.122 67.9789 105.802 68.7385 103.65C69.1184 102.579 69.5657 101.533 70.1059 100.529C70.5955 99.6007 71.3804 98.7908 71.8447 97.8712C72.3089 96.9516 71.2032 97.1034 70.6883 97.4915C68.9242 98.8077 67.0504 100.073 65.0669 101.043C63.0749 102.014 60.3571 101.853 58.2723 101.313C55.8329 100.681 54.0182 99.4151 51.9419 98.0399C51.6127 97.8206 48.2365 95.4161 47.9242 95.9476V95.9223Z" fill="white" stroke="black" stroke-width="4" stroke-linecap="round" stroke-linejoin="round"/>
<path d="M9.26544 111.454C9.04599 111.842 10.2192 113.344 10.5315 113.791C12.8949 117.242 13.0215 121.03 12.0677 125.02C11.9411 125.544 11.7554 126.058 11.5866 126.564C11.4684 126.919 11.0464 128.049 11.8229 127.476C12.5066 126.969 13.1565 126.337 13.7896 125.78C14.6421 125.029 15.7731 124.185 16.9717 124.185C20.3648 124.202 22.5677 127.087 25.1927 128.733C26.4757 129.534 26.0368 128.555 25.5135 127.729C24.0448 125.383 22.4496 122.962 21.8334 120.228C21.5296 118.879 21.4958 117.47 21.96 116.153C22.1879 115.495 22.4665 114.863 22.7956 114.247C23.0995 113.681 23.5722 113.184 23.8591 112.627C24.1461 112.07 23.4709 112.163 23.1586 112.391C22.0866 113.192 20.9387 113.968 19.7317 114.559C18.5163 115.149 16.8619 115.057 15.5874 114.728C14.1019 114.34 12.9962 113.572 11.7301 112.728C11.5275 112.593 9.46801 111.125 9.28232 111.454H9.26544Z" fill="white" stroke="black" stroke-width="4" stroke-linecap="round" stroke-linejoin="round"/>
<path d="M119.936 60.6213C119.936 60.6213 119.939 60.6455 119.949 60.6608C115.319 62.4844 111.238 65.767 106.458 67.2314C104.388 67.8658 102.518 69.0255 100.473 69.6655C100.039 69.7993 93.2424 51.4764 91.4301 50.1626C92.68 49.6362 110.995 41.3198 110.91 41.1248C111.71 42.9734 112.343 44.7167 112.927 46.6036C114.493 51.656 117.952 55.7825 119.936 60.6213Z" fill="black" stroke="black" stroke-width="4" stroke-linecap="round" stroke-linejoin="round"/>
<path d="M139.83 52.8443C139.83 52.8443 139.854 52.8418 139.869 52.8321C141.693 57.4592 144.977 61.5385 146.441 66.3162C147.076 68.3852 148.236 70.254 148.876 72.298C149.01 72.7323 130.678 79.5275 129.364 81.3391C128.837 80.0897 120.519 61.7834 120.324 61.8684C122.173 61.0691 123.917 60.4353 125.805 59.852C130.86 58.2864 134.989 54.828 139.83 52.8443Z" fill="white" stroke="black" stroke-width="4" stroke-linecap="round" stroke-linejoin="round"/>
<path d="M130.701 32.4949C130.701 32.4949 130.698 32.4707 130.689 32.4554C135.318 30.6317 139.399 27.3492 144.179 25.8848C146.249 25.2504 148.119 24.0907 150.164 23.4507C150.598 23.3168 157.395 41.6398 159.207 42.9536C157.957 43.48 139.642 51.7964 139.727 51.9913C138.928 50.1427 138.294 48.3994 137.71 46.5125C136.144 41.4601 132.685 37.3336 130.701 32.4949Z" fill="black" stroke="black" stroke-width="4" stroke-linecap="round" stroke-linejoin="round"/>
<path d="M149.47 72.8567C149.47 72.8567 149.468 72.8325 149.458 72.8172C154.087 70.9936 158.169 67.711 162.949 66.2466C165.019 65.6122 166.888 64.4525 168.933 63.8125C169.368 63.6786 176.164 82.0016 177.977 83.3154C176.727 83.8418 158.412 92.1582 158.497 92.3531C157.697 90.5046 157.063 88.7612 156.48 86.8743C154.914 81.8219 151.454 77.6954 149.47 72.8567Z" fill="black" stroke="black" stroke-width="4" stroke-linecap="round" stroke-linejoin="round"/>
<path d="M119.196 110.04C119.196 110.04 119.206 110.063 119.216 110.078C123.595 107.718 128.739 106.714 132.944 104.005C134.764 102.834 136.854 102.157 138.668 101.003C139.05 100.76 129.414 83.7528 129.586 81.5202C128.378 82.1401 110.208 90.7674 110.115 90.5733C111.016 92.3789 111.937 93.979 113.004 95.6537C115.854 100.111 116.776 105.408 119.205 110.047L119.196 110.04Z" fill="black" stroke="black" stroke-width="4" stroke-linecap="round" stroke-linejoin="round"/>
<path d="M265.043 26.6042C264.342 24.4606 260.896 17.9883 259.632 14.6406C254.294 15.9605 254.396 19.8322 251.144 18.7001C246.493 17.0873 248.325 14.2205 248.137 10.5178C244.438 10.9913 235.699 11.0159 231.74 10.9939C232.863 12.873 236.818 16.3194 235.131 17.7768C233.203 19.4529 230.531 19.3186 228.591 17.7768C227.963 17.2761 225.23 12.978 225.23 12.978C225.23 12.978 223.132 14.1602 220.607 15.1837C218.787 15.9212 217.869 21.2881 216.37 22.4948C216.24 22.5976 220.207 24.0693 220.428 24.4734C222.277 27.8071 220.753 32.8084 216.869 33.7442C215.763 34.0144 216.381 37.1497 216.09 38.363C215.938 38.9828 213.658 36.8037 213.704 37.4889C213.786 38.7391 213.806 40.0076 213.766 41.2613C213.736 42.3259 213.401 43.4729 213.507 44.5234C213.51 44.5393 217.44 44.7372 217.838 44.8271C219.169 45.1316 220.485 45.9519 221.424 46.9562C223.382 49.0576 222.077 53.0041 220.799 55.1691C219.681 57.0635 225.406 65.4054 227.324 66.2091C230.413 67.4981 232.601 64.1655 232.601 64.1655C232.601 64.1655 232.144 63.0662 232.733 61.4294C233.588 59.0726 236.607 56.5336 239.32 57.0688C241.833 57.5716 244.869 60.0838 244.909 62.2782C248.906 61.5848 252.832 60.0064 256.977 59.5661C253.844 51.1189 261.67 51.0965 261.67 51.0965C263.747 50.2845 264.454 49.4192 266.292 48.8908C266.039 43.8943 266.841 42.0108 266.996 36.9641C258.019 41.6252 253.697 28.9377 265.034 26.5975L265.043 26.6042ZM241.089 49.2722C234.204 49.3611 228.155 42.3276 230.427 34.8646C231.254 32.1374 233.001 29.8059 235.269 28.3107C236.644 28.29 238.079 28.5367 239.547 29.0877C248.802 32.5737 248.581 44.5111 241.088 49.2643L241.089 49.2722Z" fill="black" stroke="black" stroke-width="4" stroke-linecap="round" stroke-linejoin="round"/>
<path d="M260.41 28.812C259.427 24.8396 256.263 20.1961 254.999 16.8484C253.792 19.6459 249.763 22.0401 246.513 20.9159C241.862 19.3031 243.113 15.4794 242.925 11.7768C239.226 12.2502 235.323 11.3713 231.676 12.2113C232.798 14.0904 232.187 18.5351 230.508 19.9912C228.58 21.6674 225.907 21.5331 223.967 19.9912C223.339 19.4906 219.84 15.8394 220.607 15.1924C219 16.539 218.171 17.4079 216.541 18.9131C215.104 20.2483 213.649 21.5781 212.148 22.7769C212.018 22.8796 215.582 26.2758 215.803 26.6799C217.652 30.0137 216.128 35.0149 212.244 35.9507C211.138 36.2209 208.958 35.8515 208.666 37.0647C208.515 37.6845 209.042 39.0168 209.08 39.6955C209.161 40.9456 209.181 42.2141 209.141 43.4678C209.111 44.5325 208.776 45.6794 208.882 46.73C208.885 46.7458 212.816 46.9437 213.214 47.0336C214.544 47.3382 215.86 48.1585 216.799 49.1627C218.757 51.2641 217.452 55.2107 216.174 57.3757C215.057 59.27 215.769 59.3411 217.685 60.1369C220.775 61.4259 223.64 63.2406 226.085 65.5314C227.944 67.274 227.518 65.2648 228.115 63.6267C228.97 61.2699 231.989 58.7309 234.702 59.2661C237.215 59.7689 240.251 62.2811 240.291 64.4755C244.288 63.7821 248.214 62.2037 252.358 61.7634C250.138 55.0094 253.192 49.2857 261.674 51.0881C261.421 46.0916 262.223 44.2081 262.377 39.1614C253.401 43.8225 249.563 27.9093 260.416 28.7948L260.41 28.812ZM241.087 49.273C234.202 49.3618 228.153 42.3283 230.425 34.8654C231.252 32.1381 232.999 29.8067 235.267 28.3115C236.642 28.2908 238.077 28.5375 239.545 29.0885C248.8 32.5744 248.579 44.5119 241.086 49.265L241.087 49.273Z" fill="white" stroke="black" stroke-width="4" stroke-linecap="round" stroke-linejoin="round"/>
<path d="M308.279 59.1525C308.237 56.9991 308.135 54.6762 307.933 54.6849C305.924 54.7194 303.987 53.446 303.16 51.6247C302.318 49.765 303.165 48.1105 304.297 46.9555C302.094 45.1959 298.989 43.0617 296.095 42.6211C292.483 46.7731 286.419 44.4455 286.419 44.4455L280.904 47.0333C280.904 47.0333 284.345 50.9224 283.398 55.911C282.806 59.0319 282.178 58.2786 279.921 60.0899C280.213 59.6835 282.629 66.6907 282.891 67.1452C286.149 64.119 294.608 68.0772 294.34 72.5799C294.686 73.0532 299.255 70.465 299.854 69.9921C301.147 68.966 301.256 69.4861 301.022 68.1548C300.765 66.6805 301.235 65.0142 302.175 63.8745C302.944 62.9419 301.68 65.5368 302.789 65.3393C303.985 65.1196 307.141 63.8707 308.303 63.6972C308.307 63.4195 308.306 60.8681 308.272 59.1618L308.279 59.1525Z" fill="black" stroke="black" stroke-width="4" stroke-linecap="round" stroke-linejoin="round"/>
<path d="M230.424 34.8651C231.251 32.1378 232.998 29.8064 235.266 28.3112C234.819 28.319 234.375 28.3506 233.945 28.4127C229.656 29.0152 226.153 32.3343 224.856 36.5811C222.139 45.5107 231.327 53.8334 239.616 50.0589C240.133 49.8278 240.618 49.5529 241.077 49.2661C234.192 49.3549 228.142 42.3214 230.414 34.8585L230.424 34.8651Z" fill="black" stroke="black" stroke-width="4" stroke-linecap="round" stroke-linejoin="round"/>
<path d="M302.763 61.7399C302.721 59.5865 302.619 57.2637 302.417 57.2723C300.408 57.3068 298.471 56.0334 297.644 54.2121C296.802 52.3524 297.649 50.6979 298.782 49.5429C296.578 47.7833 293.473 45.6491 290.579 45.2085C290.777 49.6189 283.52 51.9696 280.903 47.0329C278.073 49.0276 275.219 51.5314 274.908 52.5197C274.454 53.9388 278.83 53.5178 277.882 58.4984C277.291 61.6193 276.662 60.866 274.405 62.6773C274.697 62.2709 277.114 69.2781 277.376 69.7326C280.633 66.7064 287.644 69.2381 287.376 73.7408C287.722 74.2141 293.576 72.704 294.337 72.5716C295.804 72.3158 295.739 72.0656 295.505 70.7343C295.248 69.26 295.718 67.5937 296.658 66.4539C297.427 65.5213 298.286 65.3892 299.404 65.1904C300.599 64.9708 301.632 65.5032 302.795 65.3297C302.798 65.0519 302.797 63.4463 302.755 61.7412L302.763 61.7399Z" fill="white" stroke="black" stroke-width="4" stroke-linecap="round" stroke-linejoin="round"/>
<path d="M289.289 62.9451C291.303 62.6163 292.669 60.7181 292.34 58.7053C292.012 56.6925 290.113 55.3274 288.099 55.6562C286.086 55.9849 284.72 57.8832 285.048 59.8959C285.377 61.9087 287.276 63.2739 289.289 62.9451Z" fill="black" stroke="black" stroke-width="4" stroke-linecap="round" stroke-linejoin="round"/>
<path d="M298.62 50.0507C300.336 48.9227 301.975 47.7746 303.898 47.0124L298.62 50.0507Z" fill="white"/>
<path d="M298.62 50.0507C300.336 48.9227 301.975 47.7746 303.898 47.0124" stroke="black" stroke-width="4" stroke-linecap="round" stroke-linejoin="round"/>
<path d="M402.901 225.684C402.732 221.5 404.149 207.807 401.573 204.67C400.398 203.246 397.549 203.31 395.513 202.9C387.963 201.387 380.558 198.909 373.177 196.777C368.871 195.538 362.666 192.505 358.086 192.964C358.504 203.463 357.023 213.728 356.943 224.235C356.903 230.358 356.379 236.593 355.47 242.643C355.212 244.372 351.164 257.808 351.663 258.323C347.703 254.188 346.021 245.805 343.228 240.591C339.976 234.525 336.233 228.668 331.75 223.431C324.547 215.032 313.922 210.631 303.435 207.944C298.171 206.592 292.81 205.675 287.442 204.911C281.655 204.082 276.165 205.305 270.41 204.621C267.851 204.316 265.026 203.02 262.506 203.052C259.255 215.04 248.502 220.454 236.3 221.186C228.718 221.637 210.27 220.615 210.576 209.336L209.513 209.81C203.493 211.613 197.851 215.337 192.579 218.58C185.616 222.86 178.3 226.544 171.33 230.808C160.754 237.285 152.705 242.981 146.813 253.866C145.316 256.633 144.189 259.578 143.554 262.715C143.264 264.147 143.167 265.531 143.215 266.867C140.978 278.91 140.922 293.014 142.813 304.196C137.187 292.185 132.688 279.594 125.057 268.379C119.496 260.213 114.683 250.326 107.753 242.908C99.3415 255.459 85.731 264.429 72.8047 272.088C73.9476 274.252 75.4527 276.392 76.3381 277.913C82.3103 288.13 88.6688 298.026 93.9649 308.629C104.791 330.311 126.216 399.371 161.832 371.551C169.374 365.662 172.883 353.433 176.022 344.792C178.976 336.683 179.443 321.646 180.192 309.731C181.898 312.217 183.339 314.888 184.401 317.809C193.561 342.87 187.741 352.829 186.872 368.735L188.297 368.783C196.128 367.094 202.237 360.44 210.399 362.669C217.643 365.082 224.886 367.496 231.326 366.691C259.907 360.094 286.991 363.642 313.858 369.877C325.553 366.876 337.908 362.451 341.787 350.448C345.892 337.745 341.61 322.378 339.026 308.243C347.912 319.756 358.4 330.021 363.688 331.212C400.044 339.418 398.885 290.23 401.622 268.001C403.344 253.97 403.505 239.795 402.926 225.684H402.901Z" fill="white"/>
<path d="M302.815 372.605C316.473 368.96 336.611 366.41 341.771 350.448C345.876 337.745 341.594 322.378 339.01 308.243C347.896 319.756 358.383 330.021 363.671 331.212C400.028 339.418 398.869 290.23 401.605 268.001C403.328 253.97 403.489 239.795 402.909 225.684C402.74 221.5 404.157 207.807 401.581 204.67C400.406 203.246 397.557 203.31 395.521 202.9C387.971 201.387 380.566 198.909 373.185 196.777C368.879 195.538 362.673 192.505 358.094 192.964C358.512 203.463 357.031 213.728 356.951 224.235C356.91 230.358 356.387 236.593 355.478 242.643C355.22 244.372 351.172 257.808 351.671 258.323C347.711 254.188 346.029 245.805 343.236 240.591C339.984 234.525 336.241 228.668 331.758 223.431C324.554 215.032 313.93 210.631 303.442 207.944C298.178 206.592 292.818 205.675 287.449 204.911C281.662 204.082 276.173 205.305 270.418 204.621C267.859 204.316 265.034 203.02 262.514 203.052C259.263 215.04 248.509 220.454 236.307 221.186C228.726 221.637 210.278 220.615 210.584 209.336L209.521 209.81C203.501 211.613 197.858 215.337 192.586 218.58C185.624 222.86 178.308 226.544 171.338 230.808C160.762 237.285 152.713 242.981 146.821 253.866C145.324 256.633 144.197 259.578 143.561 262.715C143.272 264.148 143.175 265.531 143.223 266.867C140.986 278.91 140.929 293.014 142.821 304.196C137.195 292.185 132.695 279.594 125.065 268.379C119.504 260.213 114.69 250.326 107.76 242.908C99.3494 255.459 85.7388 264.429 72.8125 272.088C73.9554 274.252 75.4605 276.392 76.3459 277.913C82.3181 288.13 88.6767 298.026 93.9728 308.629C104.798 330.311 126.224 399.371 161.84 371.551C169.382 365.662 172.891 353.433 176.03 344.792C178.984 336.683 179.451 321.646 180.199 309.731C181.906 312.217 183.346 314.888 184.409 317.809C193.568 342.87 187.749 352.829 186.88 368.735" stroke="black" stroke-width="4" stroke-linecap="round" stroke-linejoin="round"/>
<path d="M100.429 277.962C97.4989 279.997 90.5689 282.024 87.0516 279.973C84.1942 278.308 83.4135 273.183 81.9164 270.463C78.7452 264.687 75.3245 258.275 69.6179 254.59C66.0523 252.289 61.5852 251.139 57.5286 250.262C50.6147 248.774 44.6264 244.832 38.0103 242.611C33.1327 240.97 27.5791 241.018 22.5405 240.045C20.3915 239.626 12.8901 238.548 11.1032 237.14C8.97029 235.467 8.41493 234.011 11.5459 232.901C16.4074 231.187 26.7581 232.699 31.7966 232.386C32.7464 232.329 33.0523 231.251 34.002 231.211C28.7703 229.57 23.6352 227.575 18.5001 225.764C15.2162 224.606 2.79688 219.256 2.79688 214.839C2.79688 207.228 14.1698 214.445 16.4718 215.153C22.7176 217.068 28.714 219.972 34.8149 222.514C31.2332 221.018 0.422484 200.213 9.68664 195.49C12.5037 194.058 20.0696 199.489 22.0013 201.436C25.5669 205.048 29.3015 207.606 33.5352 210.527C36.1671 212.345 40.4974 216.609 43.9342 216.303C42.2037 213.978 39.3545 212.45 37.294 210.374C34.1066 207.156 30.9274 203.785 28.5771 199.891C27.5388 198.169 24.593 193.029 26.082 190.856C29.9696 185.185 36.3845 196.054 37.8815 197.791C43.5076 204.324 52.5062 213.576 61.4323 214.163C60.5871 210.696 50.3974 193.696 57.1101 191.806C60.8447 190.752 64.9496 199.682 66.8491 201.878C70.0767 205.611 74.3747 208.87 77.2401 212.804C81.1035 218.114 80.9023 224.719 82.9064 230.712C84.6611 235.958 89.3374 240.383 92.1947 245.226C97.8691 254.856 114.86 267.953 100.437 277.962H100.429Z" fill="white" stroke="black" stroke-width="4" stroke-linecap="round" stroke-linejoin="round"/>
<path d="M209.175 181.459C214.93 189.842 214.648 200.382 211.839 209.682C211.155 211.951 210.342 215.193 211.348 217.461C213.232 221.717 219.84 224.195 223.808 225.724C235.398 230.189 255.979 227.55 260.897 214.445C263.392 207.783 261.653 200.792 260.478 194.018C259.037 185.739 257.186 177.863 257.194 169.416C257.194 168.386 257.709 165.409 256.864 164.741C256.132 164.162 248.614 168.844 247.463 169.271C242.078 171.234 236.259 172.191 230.77 173.905C228.098 174.734 225.49 175.989 222.769 176.624C220.838 177.075 218.826 176.922 216.95 177.59C214.125 177.131 207.074 178.386 209.191 181.467L209.175 181.459Z" fill="white" stroke="black" stroke-width="4" stroke-linecap="round" stroke-linejoin="round"/>
<path d="M197.506 138.281C195.365 143.398 194.23 148.981 194.037 154.452C193.441 171.065 196.669 191.798 217.547 191.315C225.652 191.13 236.06 189.247 242.885 184.831C249.71 180.414 255.876 174.525 260.769 167.847C268.939 156.697 275.651 141.009 272.561 127.074C270.138 116.133 262.741 104.644 252.511 99.5196C245.621 96.0683 238.015 95.9878 230.667 97.7014C224.365 99.1737 217.893 101.869 212.686 105.722C208.678 108.691 207.036 113.406 206.319 118.12C205.136 125.932 200.444 131.25 197.506 138.273V138.281Z" fill="white" stroke="black" stroke-width="4" stroke-linecap="round" stroke-linejoin="round"/>
<path d="M219.84 146.077C218.793 147.629 216.596 148.45 215.88 150.067C214.777 152.521 216.91 155.144 218.874 156.254" stroke="black" stroke-width="4" stroke-linecap="round" stroke-linejoin="round"/>
<path d="M206.502 133.478C206.317 137.009 210.358 139.23 213.287 139.777" stroke="black" stroke-width="4" stroke-linecap="round" stroke-linejoin="round"/>
<path d="M231.961 146.077C234.094 149.512 239.326 150.558 242.875 148.981" stroke="black" stroke-width="4" stroke-linecap="round" stroke-linejoin="round"/>
<path d="M221.903 129.6C218.691 126.109 214.393 125.135 209.781 125.24" stroke="black" stroke-width="4" stroke-linecap="round" stroke-linejoin="round"/>
<path d="M234.395 135.369C241.912 134.379 248.045 138.877 251.369 145.546" stroke="black" stroke-width="4" stroke-linecap="round" stroke-linejoin="round"/>
<path d="M205.777 157.71C206.003 159.448 207.87 161.114 209.053 162.2C213.866 166.649 219.42 168.66 225.907 168.378" stroke="black" stroke-width="4" stroke-linecap="round" stroke-linejoin="round"/>
<path d="M207.477 167.646C209.328 171.331 214.455 172.369 218.141 172.739" stroke="black" stroke-width="4" stroke-linecap="round" stroke-linejoin="round"/>
<path d="M260.093 113.349C258.371 114.532 255.844 114.564 253.928 115.151C250.242 116.269 246.539 117.388 242.756 118.088C235.875 119.367 227.198 118.152 220.308 117.09C213.137 115.98 205.796 110.541 202.512 103.671C199.229 96.8 198.601 90.2995 198.496 82.6486C200.879 85.6896 202.842 89.1169 206.722 90.0501C206.046 86.5183 205.378 82.8336 205.579 78.9639C209.885 81.651 211.946 87.2987 217.628 87.9825C217.54 86.9688 217.032 86.3976 216.638 85.3678C215.898 83.4289 215.793 81.828 215.664 79.7362C215.568 79.6638 215.568 79.6799 215.648 79.7845C222.586 85.7379 229.725 83.8232 237.967 84.1289C242.732 84.3059 247.714 84.6116 251.723 87.54C257.445 91.7235 264.456 98.2321 264.705 106.116" fill="black"/>
<path d="M260.093 113.349C258.371 114.532 255.844 114.564 253.928 115.151C250.242 116.269 246.539 117.388 242.756 118.088C235.875 119.367 227.198 118.152 220.308 117.09C213.137 115.98 205.796 110.541 202.512 103.671C199.229 96.8 198.601 90.2995 198.496 82.6486C200.879 85.6896 202.842 89.1169 206.722 90.0501C206.046 86.5183 205.378 82.8336 205.579 78.9639C209.885 81.651 211.946 87.2987 217.628 87.9825C217.54 86.9688 217.032 86.3976 216.638 85.3678C215.898 83.4289 215.793 81.828 215.664 79.7362C215.568 79.6638 215.568 79.6799 215.648 79.7845C222.586 85.7379 229.725 83.8232 237.967 84.1289C242.732 84.3059 247.714 84.6116 251.723 87.54C257.445 91.7235 264.456 98.2321 264.705 106.116" stroke="black" stroke-width="4" stroke-linecap="round" stroke-linejoin="round"/>
<path d="M271.779 111.402C266.796 109.471 259.722 110.823 256.196 114.427C250.425 120.324 259.448 125.256 263.086 128.997C272.946 139.118 269.308 152.899 263.947 164.243C269.034 160.936 270.95 153.527 275.143 149.351C275.368 152.786 273.493 157.493 271.988 160.534C274.226 156.013 277.332 152.577 278.395 147.621C279.256 143.599 280.383 139.697 280.898 135.602C281.904 127.484 281.196 118.208 274.25 112.786C273.517 112.215 272.688 111.756 271.787 111.41L271.779 111.402Z" fill="black" stroke="black" stroke-width="4" stroke-linecap="round" stroke-linejoin="round"/>
<path d="M260.818 158.925C261.51 156.214 264.376 154.267 267.096 154.323C270.935 154.403 271.829 158.909 271.716 162.167C271.571 166.584 268.376 171.153 264.488 173.213C261.526 174.782 256.6 175.514 254.508 172.248" fill="white"/>
<path d="M260.818 158.925C261.51 156.214 264.376 154.267 267.096 154.323C270.935 154.403 271.829 158.909 271.716 162.167C271.571 166.584 268.376 171.153 264.488 173.213C261.526 174.782 256.6 175.514 254.508 172.248" stroke="black" stroke-width="4" stroke-linecap="round" stroke-linejoin="round"/>
<path d="M378.328 226.906C381.893 227.027 388.815 224.968 390.658 221.339C392.156 218.395 390.023 213.664 389.805 210.567C389.338 203.994 388.727 196.753 391.512 190.558C393.258 186.689 396.381 183.302 399.311 180.365C405.911 173.76 410.024 164.959 416.382 158.048C419.095 155.095 421.236 152.078 423.377 148.675C425.148 145.867 428.472 142.287 428.52 138.788C428.544 137.066 427.554 135.28 425.445 135.763C422.958 136.334 415.143 147.597 412.648 149.761C411.086 151.113 414.789 144.701 416.318 141.29C418.773 135.827 421.582 129.335 422.475 123.389C422.854 120.887 423.997 111.595 419.956 111.185C415.924 110.774 413.622 122.07 412.76 124.684C411.352 128.956 409.316 133.309 407.287 137.315C406.313 139.246 405.581 141.829 404.18 143.43C409.074 135.409 412.141 125.706 411.746 116.245C411.674 114.58 411.32 109.511 409.637 108.61C405.09 106.181 403.955 116.462 403.456 118.699C402.329 123.743 400.518 128.635 398.401 133.341C396.92 136.64 395.745 142.633 392.292 144.451C392.477 141.555 394.047 138.731 394.651 135.875C395.584 131.45 396.421 126.889 396.277 122.343C396.212 120.332 395.898 114.419 393.459 113.397C387.117 110.742 387.632 123.357 387.318 125.626C386.135 134.162 383.608 146.817 376.428 152.159C375.253 148.788 374.577 128.981 367.913 131.04C364.202 132.183 365.603 141.909 365.2 144.781C364.516 149.665 362.673 154.733 362.407 159.592C362.045 166.149 365.804 171.588 367.373 177.71C368.75 183.068 367.228 189.319 367.462 194.943C367.929 206.11 360.765 226.327 378.32 226.906H378.328Z" fill="white" stroke="black" stroke-width="4" stroke-linecap="round" stroke-linejoin="round"/>
<path d="M194.18 362.693C194.18 366.37 196.562 369.628 200.063 370.754L250.046 386.748C252.364 387.488 254.795 387.818 257.226 387.713L396.76 381.897V375.718L194.18 362.693Z" fill="white" stroke="black" stroke-width="4" stroke-linecap="round" stroke-linejoin="round"/>
<path d="M356.636 355.791L194.18 362.693L253.548 381.68L396.752 375.718L356.636 355.791Z" fill="white" stroke="black" stroke-width="4" stroke-linecap="round" stroke-linejoin="round"/>
<path d="M178.993 295.895C179.798 286.24 184.627 276.586 183.017 266.127C180.273 251.71 179.291 235.548 186.559 222.112C181.472 225.001 176.304 227.752 171.314 230.809C160.738 237.286 152.689 242.981 146.798 253.867C145.301 256.634 144.174 259.579 143.538 262.716C143.248 264.148 143.152 265.532 143.2 266.868C140.962 278.911 140.906 293.014 142.797 304.197C137.171 292.186 132.672 279.595 125.042 268.38C119.48 260.214 114.667 250.327 107.737 242.909C99.3259 255.46 85.7154 264.43 72.7891 272.089C73.932 274.253 75.4371 276.393 76.3225 277.914C82.2947 288.131 88.6532 298.027 93.9493 308.63C104.775 330.312 126.201 399.372 161.817 371.551C169.358 365.662 172.868 353.434 176.007 344.793C178.405 338.196 179.162 327.021 179.765 316.667C179.017 309.813 178.574 302.958 178.985 295.895H178.993Z" fill="black" stroke="black" stroke-width="4" stroke-linecap="round" stroke-linejoin="round"/>
<path d="M228.049 227.735C251.713 229.827 261.87 219.924 268.671 204.3C266.603 203.809 264.454 203.029 262.482 203.053C259.23 215.04 248.477 220.454 236.275 221.187C228.693 221.637 210.245 220.615 210.551 209.336L209.489 209.811C207.493 210.406 205.537 211.227 203.621 212.168C206.575 222.627 218.286 225.491 228.041 227.743L228.049 227.735Z" fill="black" stroke="black" stroke-width="4" stroke-linecap="round" stroke-linejoin="round"/>
<path d="M402.903 225.684C402.734 221.5 404.151 207.807 401.575 204.67C400.4 203.246 397.551 203.31 395.514 202.9C387.964 201.387 380.56 198.909 373.179 196.777C368.873 195.538 362.667 192.505 358.087 192.964C358.506 203.463 357.025 213.728 356.944 224.235C356.904 230.358 356.381 236.593 355.472 242.643C355.214 244.372 351.165 257.808 351.664 258.323C347.704 254.188 346.022 245.804 343.229 240.591C339.978 234.525 336.235 228.668 331.752 223.431C324.548 215.032 313.924 210.631 303.436 207.944C298.172 206.592 292.812 205.675 287.443 204.911C286.888 204.83 286.341 204.774 285.785 204.734C306.205 220.687 310.543 249.256 321.465 272.563C322.27 274.976 324.685 278.194 325.49 280.608C331.124 290.262 331.124 302.33 339.173 309.571C339.213 309.611 339.245 309.651 339.285 309.683C339.197 309.2 339.1 308.718 339.02 308.243C347.906 319.756 358.393 330.021 363.681 331.212C400.038 339.418 398.879 290.23 401.615 268.001C403.338 253.97 403.499 239.795 402.919 225.684H402.903Z" fill="black" stroke="black" stroke-width="4" stroke-linecap="round" stroke-linejoin="round"/>
<path d="M376.406 152.562C378.829 159.054 383.497 163.503 380.978 171.5" stroke="black" stroke-width="4" stroke-linecap="round" stroke-linejoin="round"/>
<path d="M387.312 166.625C390.749 159.424 398.887 153.543 406.911 152.916" stroke="black" stroke-width="4" stroke-linecap="round" stroke-linejoin="round"/>
<path d="M61.4238 214.155C61.5042 224.388 58.9045 228.926 65.4482 238.097" stroke="black" stroke-width="4" stroke-linecap="round" stroke-linejoin="round"/>
<path d="M40.625 230.261C45.1162 228.443 52.3521 227.453 56.304 230.913" stroke="black" stroke-width="4" stroke-linecap="round" stroke-linejoin="round"/>
<path d="M247.69 189.119C247.255 191.122 247.424 193.238 247.094 195.273C246.257 200.462 244.39 205.442 242.023 210.117" stroke="black" stroke-width="4" stroke-linecap="round" stroke-linejoin="round"/>
<path d="M221.57 198.25C219.678 202.224 219.034 206.488 223.035 209.385" stroke="black" stroke-width="4" stroke-linecap="round" stroke-linejoin="round"/>
<path d="M226.785 275.765C230.27 286.851 237.699 298.082 245.217 306.723C256.992 320.247 262.876 331.494 268.703 348.397" stroke="black" stroke-width="4" stroke-linecap="round" stroke-linejoin="round"/>
<path d="M235.566 259.554C238.931 268.219 243.422 278.179 250.344 284.454" stroke="black" stroke-width="4" stroke-linecap="round" stroke-linejoin="round"/>
<path d="M287.248 297.527L247.141 379.106L253.547 381.68L439.104 295.806L438.436 292.596C435.547 287.238 430.178 285.492 424.101 285.814L294.934 292.354C291.618 292.564 288.68 294.543 287.24 297.527H287.248Z" fill="white" stroke="black" stroke-width="4" stroke-linecap="round" stroke-linejoin="round"/>
<path d="M291.215 303.481L253.547 381.68L396.751 375.71L438.621 297.728C440.126 294.848 437.904 291.429 434.661 291.63L299.328 298.018C295.835 298.235 292.728 300.327 291.207 303.481H291.215Z" fill="white" stroke="black" stroke-width="4" stroke-linecap="round" stroke-linejoin="round"/>
<path d="M356.195 328.002C356.331 332.854 359.317 336.659 363.881 337.85C358.963 338.791 354.561 342.435 352.573 347.037C352.508 342.355 349.595 338.703 345.176 337.85C350.021 336.739 354.359 332.942 356.203 328.002H356.195Z" fill="black" stroke="black" stroke-width="4" stroke-linecap="round" stroke-linejoin="round"/>
<path d="M380.257 130.4C393.548 124.746 402.289 110.435 402.808 95.9837C402.975 91.4227 401.874 86.9502 400.354 82.6761C398.524 77.5003 395.482 72.8455 391.634 68.9441C387.116 64.3733 381.633 60.9208 375.708 59.3382C366.971 57.0052 357.521 57.4762 349.248 61.1194C342.537 64.0763 336.224 70.0015 332.703 76.5933C328.972 83.571 325.753 91.0624 326.91 99.1833C328.365 109.428 334.994 118.782 343.195 124.863C351.373 130.928 362.55 134.136 372.759 132.542C375.393 132.131 377.897 131.398 380.267 130.394L380.257 130.4Z" fill="white" stroke="black" stroke-width="4" stroke-linecap="round" stroke-linejoin="round"/>
<path d="M361.452 58.2707C348.579 67.7766 341.857 83.5423 337.587 98.4823C336.026 103.949 333.894 112.458 335.892 118.071" stroke="black" stroke-width="4" stroke-linecap="round" stroke-linejoin="round"/>
<path d="M376.343 59.8077C373.145 62.6982 369.93 65.9402 367.223 69.295C358.334 80.3231 351.526 94.1443 347.564 107.734C345.88 113.489 344.376 119.189 344.577 125.11" stroke="black" stroke-width="4" stroke-linecap="round" stroke-linejoin="round"/>
<path d="M385.417 63.6144C384.628 67.6839 384.607 71.6155 383.241 75.7275C379.719 86.3346 375.669 96.8409 370.155 106.591C365.231 115.295 361.576 123.11 353.921 129.712C355.386 128.391 355.391 128.723 354.381 129.238" stroke="black" stroke-width="4" stroke-linecap="round" stroke-linejoin="round"/>
<path d="M396.238 74.312C396.01 79.0039 394.69 82.946 393.534 87.4979" stroke="black" stroke-width="4" stroke-linecap="round" stroke-linejoin="round"/>
<path d="M390.701 99.5188C388.642 104.45 386.302 109.548 383.429 113.318C380.14 117.626 377.033 121.906 373.348 125.88C370.646 128.802 368.62 130.935 365.27 132.984M365.27 132.984C365.468 132.829 365.047 133.097 365.27 132.984Z" stroke="black" stroke-width="4" stroke-linecap="round" stroke-linejoin="round"/>
<path d="M334.913 74.45C336.058 75.4491 339.282 75.3907 340.775 75.72C345.875 76.8514 350.868 78.3101 355.706 80.274C365.014 84.0493 373.211 88.0427 381.365 94.0062" stroke="black" stroke-width="4" stroke-linecap="round" stroke-linejoin="round"/>
<path d="M386.766 97.124C392.028 99.7948 396.584 103.968 400.099 108.612" stroke="black" stroke-width="4" stroke-linecap="round" stroke-linejoin="round"/>
<path d="M329.367 84.0005C332.012 87.052 335.683 90.2965 339.181 92.1988C340.649 92.9995 343.123 94.5786 344.18 95.1019" stroke="black" stroke-width="4" stroke-linecap="round" stroke-linejoin="round"/>
<path d="M355.234 101.232C357.449 103.853 361.456 105.26 364.409 106.77C374.146 111.749 385.032 113.982 395.602 116.893" stroke="black" stroke-width="4" stroke-linecap="round" stroke-linejoin="round"/>
<path d="M327.965 97.6113C331.214 100.967 335.243 103.344 338.96 106.167C346.268 111.726 354.721 116.884 363.404 120.019C367.741 121.586 372.55 122.829 377.019 124.04C380.215 124.913 384.011 125.662 387.293 125.967" stroke="black" stroke-width="4" stroke-linecap="round" stroke-linejoin="round"/>
<path d="M345.345 63.7301C346.861 63.527 348.284 63.8547 349.759 64.1531C360.94 66.3884 370.989 70.3832 380.792 76.0407C389.898 81.2904 397.275 86.7896 402.144 94.2118" stroke="black" stroke-width="4" stroke-linecap="round" stroke-linejoin="round"/>
<path d="M349.74 90.6574C349.833 91.2392 349.863 91.8297 349.828 92.4372C349.746 93.6925 349.172 96.7171 349.899 97.8455C350.683 99.0504 355.035 95.2756 355.933 94.7905C357.347 94.038 358.82 93.3884 360.323 92.8513C361.305 92.5024 363.087 92.5368 363.841 91.7517C364.79 90.7592 362.963 88.9134 362.536 87.9623C361.677 86.0764 361.039 84.0508 360.99 81.9688C360.959 80.8392 361.352 79.7818 360.912 78.6535C359.813 75.8328 355.569 80.3585 354.181 81.014C352.734 81.6967 351.174 82.2183 349.584 82.4361C347.372 82.7361 346.441 82.9601 347.639 85.2602C348.552 87.013 349.451 88.7533 349.75 90.6515L349.74 90.6574Z" fill="white" stroke="black" stroke-width="4" stroke-linecap="round" stroke-linejoin="round"/>
<path d="M393.259 82.4436C393.353 83.0253 393.383 83.6159 393.347 84.2233C393.265 85.4786 392.692 88.5032 393.419 89.6316C394.203 90.8365 398.555 87.0617 399.453 86.5767C400.867 85.8241 402.34 85.1745 403.843 84.6375C404.825 84.2885 406.607 84.323 407.36 83.5378C408.309 82.5453 406.483 80.6995 406.056 79.7485C405.197 77.8625 404.558 75.8369 404.509 73.755C404.479 72.6253 404.872 71.5679 404.432 70.4396C403.332 67.6189 399.088 72.1446 397.7 72.8001C396.253 73.4828 394.693 74.0044 393.104 74.2222C390.891 74.5222 389.961 74.7462 391.159 77.0463C392.072 78.7991 392.97 80.5395 393.269 82.4377L393.259 82.4436Z" fill="white" stroke="black" stroke-width="4" stroke-linecap="round" stroke-linejoin="round"/>
<path d="M356.158 47.1172C356.213 47.4886 356.237 47.8777 356.217 48.2718C356.169 49.0845 355.789 51.0494 356.268 51.7798C356.776 52.5617 359.592 50.1145 360.18 49.8059C361.096 49.3172 362.046 48.8983 363.028 48.5493C363.663 48.3231 364.823 48.3441 365.308 47.842C365.928 47.1943 364.741 46.001 364.457 45.3846C363.903 44.1643 363.488 42.8515 363.455 41.5042C363.439 40.7695 363.693 40.0915 363.408 39.353C362.698 37.5253 359.949 40.4601 359.043 40.8819C358.105 41.3213 357.091 41.6615 356.06 41.806C354.625 41.9966 354.02 42.1442 354.796 43.6338C355.39 44.7695 355.968 45.9007 356.164 47.1275L356.158 47.1172Z" fill="white" stroke="black" stroke-width="4" stroke-linecap="round" stroke-linejoin="round"/>
</svg>
