<svg width="335" height="363" viewBox="0 0 335 363" fill="none" xmlns="http://www.w3.org/2000/svg">
<path d="M181.843 128.209C201.415 126.313 218.616 134.01 236.414 140.923C249.435 145.981 262.776 150.605 275.552 156.243C280.337 158.36 284.974 160.95 289.767 162.96C292.27 164.014 294.756 165.313 296.45 167.503C298.494 170.142 298.822 173.075 299.607 176.197C300.228 178.689 300.572 181.246 300.752 183.812C302.682 211.536 302.756 239.342 303.001 267.115C303.124 281.422 306.796 296.702 305.349 310.854C303.811 325.872 308.236 340.375 307.32 355.018C300.711 357.273 292.164 355.516 285.318 355.246C272.403 354.732 261.639 357.926 249.157 359.626C224.309 363.009 199.747 353.081 174.694 355.246C162.515 356.3 150.827 361.481 138.542 358.596C125.013 355.418 111.779 351.635 98.0956 349.069C80.3631 345.752 57.5922 346.83 39.966 348.718C39.099 333.977 40.9393 319.098 40.0233 304.26C39.9088 302.372 39.8024 300.485 39.6961 298.605C38.8864 283.408 38.5183 268.316 36.7189 253.11C34.8377 237.209 30.1919 222.011 33.12 205.923C36.588 186.852 45.9941 168.181 64.3646 159.806C72.8464 155.941 81.9335 150.834 90.6198 147.5C103.821 142.434 116.515 138.978 130.068 134.958C134.559 133.626 139.131 132.548 143.703 131.534C153.608 129.345 165.492 128.462 175.545 129.336" fill="black"/>
<path d="M181.843 128.209C201.415 126.313 218.616 134.01 236.414 140.923C249.435 145.981 262.776 150.605 275.552 156.243C280.337 158.36 284.974 160.95 289.767 162.96C292.27 164.014 294.756 165.313 296.45 167.503C298.494 170.142 298.821 173.075 299.607 176.197C300.228 178.689 300.572 181.246 300.752 183.812C302.682 211.536 302.756 239.342 303.001 267.115C303.124 281.422 306.796 296.702 305.349 310.854C303.811 325.872 308.236 340.375 307.32 355.018C300.711 357.273 292.164 355.516 285.318 355.246C272.403 354.732 261.639 357.926 249.157 359.626C224.309 363.009 199.747 353.081 174.694 355.246C162.515 356.3 150.827 361.481 138.542 358.596C125.013 355.418 111.779 351.635 98.0956 349.069C80.3631 345.752 57.5922 346.83 39.966 348.718C39.099 333.977 40.9393 319.098 40.0233 304.26C39.9088 302.372 39.8024 300.485 39.6961 298.605C38.8864 283.408 38.5183 268.316 36.7189 253.11C34.8377 237.209 30.1919 222.011 33.12 205.923C36.588 186.852 45.9941 168.181 64.3646 159.806C72.8464 155.941 81.9335 150.834 90.6198 147.5C103.821 142.434 116.515 138.978 130.068 134.958C134.559 133.626 139.131 132.548 143.703 131.534C153.608 129.345 165.492 128.462 175.545 129.336" stroke="black" stroke-width="4" stroke-linecap="round" stroke-linejoin="round"/>
<path d="M326.402 251.116C334.786 237.225 331.49 218.277 326.517 203.806C321.266 188.518 310.772 175.674 296.671 167.699C296.123 167.388 271.716 192.285 266.285 203.765C258.687 219.846 258.515 239.881 262.106 257.195C256.38 256.476 250.589 255.356 245.019 254.858C244.005 254.768 242.999 254.695 241.993 254.637C224.833 252.611 207.469 252.325 190.235 253.649C186.497 253.935 138.698 259.859 138.821 260.856C141.209 279.788 141.904 282.084 140.824 300.918C142.648 301.146 186.865 311.826 188.624 312.079C214.969 315.903 241.584 317.317 268.134 316.287C276.248 315.968 285.122 314.13 293.195 314.939C300.196 315.642 306.699 316.671 313.913 316.254C317.921 316.026 318.06 314.261 319.777 311.409C321.618 308.361 323.826 305.314 325.65 302.16C334.982 285.973 334.917 267.752 326.411 251.108L326.402 251.116Z" fill="white" stroke="black" stroke-width="4" stroke-linecap="round" stroke-linejoin="round"/>
<path d="M144.186 99.5449C142.19 100.084 143.687 119.842 143.532 122.963C143.302 127.571 142.206 132.008 142.223 136.616C142.247 142.214 144.873 143.807 149.797 146.103C167.456 154.323 184.853 157.444 203.698 153.457C208.368 152.468 219.001 151.537 221.602 145.621C223.451 141.405 222.052 132.147 221.921 127.726C221.667 119.359 222.273 108.263 219.68 100.288C203.771 99.9535 187.863 100.64 171.93 100.615C164.716 100.607 157.649 100.444 150.492 99.8799C148.578 99.7247 146.689 100.141 144.186 99.5531V99.5449Z" fill="white" stroke="black" stroke-width="4" stroke-linecap="round" stroke-linejoin="round"/>
<path d="M226.844 58.9108C227.735 56.1817 232.487 55.0868 234.549 56.0673C238.295 57.8568 238.728 65.7581 238.434 69.484C238.107 73.5613 236.757 78.8316 234.27 81.961C233.314 83.1622 230.115 85.9403 228.7 84.9598" fill="white"/>
<path d="M226.844 58.9108C227.735 56.1817 232.487 55.0868 234.549 56.0673C238.295 57.8568 238.728 65.7581 238.434 69.484C238.107 73.5613 236.757 78.8316 234.27 81.961C233.314 83.1622 230.115 85.9403 228.7 84.9598" stroke="black" stroke-width="4" stroke-linecap="round" stroke-linejoin="round"/>
<path d="M142.081 54.9972C136.003 49.2448 130.9 59.246 130.695 65.3497C130.507 70.8243 132.028 75.9638 135.783 79.5835C138.13 81.8468 142.907 85.3603 145.328 81.3076" fill="white"/>
<path d="M142.081 54.9972C136.003 49.2448 130.9 59.246 130.695 65.3497C130.507 70.8243 132.028 75.9638 135.783 79.5835C138.13 81.8468 142.907 85.3603 145.328 81.3076" stroke="black" stroke-width="4" stroke-linecap="round" stroke-linejoin="round"/>
<path d="M172.51 279.927C172.493 275.817 143.204 255.398 140.742 252.382C136.938 247.717 130.354 241.793 125.209 238.606C118.592 234.513 109.726 229.291 102.577 226.244L102.553 226.309C96.6148 222.166 88.1167 226.799 81.2788 224.593C74.2856 222.346 67.6686 219.421 60.1683 219.633C55.0481 219.78 51.1957 216.953 56.7412 221.88C56.8557 221.978 56.9702 222.085 57.0929 222.183C61.4688 225.958 69.3781 225.533 74.6373 227.616C81.6633 230.394 79.6594 231.849 87.0043 233.843L80.4609 246.843L77.6309 252.554C72.3799 249.4 80.7472 251.435 74.8827 250.127C69.4108 248.91 63.6199 246.867 57.9354 247.684C53.674 248.297 53.2242 251.843 55.1463 255.103C57.0438 258.323 61.3788 258.355 64.5769 259.295C71.0875 261.207 77.9008 262.817 84.3051 264.998C91.4783 267.441 98.4715 269.974 105.129 273.553C112.082 277.296 118.592 282.525 127.033 280.572C134.746 278.791 172.534 287.918 172.51 279.918V279.927Z" fill="white" stroke="black" stroke-width="4" stroke-linecap="round" stroke-linejoin="round"/>
<path d="M142.164 31.3013C142.164 42.1197 141.052 59.9405 140.348 73.2182C139.964 80.5067 137.093 95.2389 140.25 101.833C142.164 105.828 147.857 108.713 151.079 111.475C154.973 114.8 158.768 117.905 162.473 121.492C166.178 125.079 171.732 128.83 176.435 128.617C178.905 128.503 179.952 126.681 182.348 126.934C183.886 127.097 186.021 129.124 187.55 129.565C192.63 131.028 200.065 128.781 204.808 126.264C208.89 124.107 212.595 119.629 216.619 117.055C218.386 115.92 220.063 115.151 221.576 113.648C228.545 106.719 227.211 93.7763 227.866 84.1428C228.684 72.0416 228.782 59.6381 228.798 47.5043C228.814 37.2743 228.831 27.1995 219.785 22.3705C208.612 16.4057 195.018 18.3994 183.166 20.1562C175.674 21.2674 168.035 21.1122 160.633 22.5748C155.324 23.6288 150.523 25.6716 145.387 27.3384C145.288 28.0738 145.19 29.0462 142.156 31.3013H142.164Z" fill="white" stroke="black" stroke-width="4" stroke-linecap="round" stroke-linejoin="round"/>
<path d="M142.253 5.52219C141.852 6.02879 141.517 6.6171 141.263 7.30346C138.368 15.0822 140.38 23.7761 139.48 31.8408C139.014 36.0243 138.016 47.7332 144.404 41.3926C148.567 37.2663 149.541 31.9797 155.291 29.7735C160.509 27.7716 166.676 26.8892 171.845 29.5447C177.595 32.5026 177.882 41.0576 184.098 42.3813C192.506 44.1707 194.199 33.0419 200.841 30.3455C210.811 26.3009 220.25 34.0469 224.094 43.9828C225.027 46.385 227.636 56.1003 230.613 55.6427C235.504 54.8828 235.406 27.6327 235.529 23.9967C235.75 17.3292 236.412 10.4983 229.803 7.89994C223.195 5.30158 214.492 6.84589 207.376 5.00743C199.859 3.06274 191.844 4.85218 184.212 4.42729C173.318 3.82264 162.521 1.20794 151.553 2.23748C148.355 2.5398 144.404 2.80127 142.261 5.50585L142.253 5.52219Z" fill="black" stroke="black" stroke-width="4" stroke-linecap="round" stroke-linejoin="round"/>
<path d="M170.137 106.294C180.721 106.58 193.194 102.732 202.518 97.0365C206.223 94.7731 207.238 90.9083 201.856 91.6028H207.589" stroke="black" stroke-width="4" stroke-linecap="round" stroke-linejoin="round"/>
<path d="M179.168 75.3838C177.597 78.2191 174.203 84.9846 175.52 88.3429C176.698 91.3416 181.54 91.6766 184.133 92.1097" stroke="black" stroke-width="4" stroke-linecap="round" stroke-linejoin="round"/>
<path d="M171.047 79.8939C173.378 76.6337 172.053 71.9436 174.793 68.6425C177.157 65.8072 180.837 65.6601 183.872 67.1309C188.403 69.3289 186.816 72.777 187.381 77.4508C188.264 84.8046 193.098 84.1918 199.036 83.9303C203.445 83.7342 215.329 85.2377 217.742 79.8122C219.615 75.596 216.736 69.2472 222.747 68.5363C224.481 68.332 233.765 68.6507 232.448 64.9493C231.548 62.4081 226.199 63.3233 224.334 63.1517C218.887 62.6614 213.415 62.6614 207.968 62.1466C194.987 60.9047 182.056 62.9801 169.157 60.7984C163.407 59.8261 157.584 59.4257 151.76 59.2705C148.897 59.1969 145.74 59.581 142.918 59.1561C141.291 58.9109 139.156 57.5954 138.42 59.8996C138.035 61.1008 138.371 62.1875 139.05 63.1762C140.669 65.5294 140.906 66.9675 140.906 69.7865C140.906 71.7148 140.522 75.4244 141.593 77.1485C144.44 81.716 151.188 81.8794 155.613 81.7896C158.254 81.7405 160.438 81.5935 163.031 82.0755C165.853 82.5985 169.084 82.6312 171.039 79.9021L171.047 79.8939Z" fill="black" stroke="black" stroke-width="4" stroke-linecap="round" stroke-linejoin="round"/>
<path d="M205.994 259.908C201.094 249.735 198.812 238.86 194.813 228.327C193.872 225.851 185.161 205.89 185.922 205.261C190.65 201.363 197.463 199.329 202.918 196.363C211.531 191.689 220.25 187.26 228.969 182.766C236.429 178.926 243.929 175.257 251.634 171.956C256.459 169.889 261.817 168.148 266.103 165.223C276.335 184.016 279.778 205.694 285.667 225.802C281.676 229.594 277.357 230.738 272.802 233.81C267.084 237.667 261.015 241.196 255.118 244.784C247.601 249.351 240.829 255.128 232.936 259.05C227.603 261.706 221.837 263.315 216.529 266.061C209.993 269.435 208.84 265.815 205.994 259.9V259.908Z" fill="white" stroke="black" stroke-width="4" stroke-linecap="round" stroke-linejoin="round"/>
<path d="M193.527 207.679C197.617 209.232 202.68 209.755 206.949 210.711C212.07 211.863 217.64 212.582 222.833 213.334C229.949 214.363 236.934 215.589 243.797 217.721C246.496 211.185 249.449 204.746 252.589 198.405C255.485 192.547 257.219 186.386 259.746 180.364C260.679 178.133 262.478 175.625 262.912 173.329" stroke="black" stroke-width="4" stroke-linecap="round" stroke-linejoin="round"/>
<path d="M202.289 231.13L205.168 226.897L208.235 222.215L209.609 226.113C209.609 226.113 208.44 227.412 207.622 228.262C208.113 228.188 210.264 227.649 210.264 227.649L211.654 231.073L202.289 231.122V231.13Z" stroke="black" stroke-width="4" stroke-linecap="round" stroke-linejoin="round"/>
<path d="M210.141 236.147C210.141 236.147 210.117 236.13 210.109 236.13C209.781 235.934 209.372 235.828 208.988 235.771C208.211 235.665 207.336 235.853 206.829 236.621C206.428 237.217 206.207 237.781 206.363 238.492C206.714 240.069 208.129 241.066 209.52 241.58C210.256 241.858 211.016 242.054 211.744 242.357C212.153 242.528 212.767 242.773 213.069 243.117C213.47 241.964 214.165 240.878 214.525 239.701C215.082 237.854 216.022 235.542 214.722 233.867C213.2 231.914 210.747 235.019 210.951 236.866C210.927 236.653 210.354 236.269 210.141 236.139V236.147Z" stroke="black" stroke-width="4" stroke-linecap="round" stroke-linejoin="round"/>
<path d="M214.288 245.216L216.537 248.24L220.03 246.131L217.74 250.29L220.046 253.51L216.447 252.66L214.28 256.713L214.591 252.35L210.738 251.835L214.484 249.506L214.288 245.216Z" stroke="black" stroke-width="4" stroke-linecap="round" stroke-linejoin="round"/>
<path d="M267.983 230.337C267.713 229.577 267.648 228.098 267.133 227.526C266.666 227.003 265.93 227.51 265.431 227.755C264.213 228.36 263.149 229.267 262.062 230.133C261.317 230.721 260.508 231.244 259.829 231.931C260.148 230.942 260.45 229.855 260.81 228.883C260.597 230.076 260.115 231.089 259.73 232.167C260.156 232.208 261.947 231.702 262.135 232.225" stroke="black" stroke-width="4" stroke-linecap="round" stroke-linejoin="round"/>
<path d="M271.673 228.18C271.403 227.322 270.986 226.423 271.035 225.517C271.101 224.275 272.131 223.76 273.08 223.155C274.307 222.371 275.714 221.48 276.998 220.892C276.098 220.802 274.879 220.565 273.988 220.287C274.626 220.377 275.264 220.451 275.91 220.549C276.286 220.606 276.826 220.508 277.137 220.671C276.826 221.488 275.877 222.42 275.804 223.204" stroke="black" stroke-width="4" stroke-linecap="round" stroke-linejoin="round"/>
<path d="M216.455 268.855C213.24 258.028 212.725 246.932 210.46 235.902C209.928 233.311 204.513 212.214 205.364 211.716C210.648 208.619 217.698 207.696 223.563 205.636C232.805 202.393 242.129 199.418 251.454 196.371C259.428 193.764 267.42 191.346 275.558 189.311C280.653 188.036 286.215 187.17 290.918 184.972C298.018 205.154 297.961 227.102 300.562 247.888C296.014 250.993 291.573 251.435 286.583 253.747C280.326 256.648 273.775 259.164 267.37 261.763C259.224 265.072 251.609 269.697 243.201 272.319C237.516 274.093 231.562 274.763 225.886 276.626C218.9 278.913 218.336 275.163 216.463 268.863L216.455 268.855Z" fill="white" stroke="black" stroke-width="4" stroke-linecap="round" stroke-linejoin="round"/>
<path d="M212.48 215.311C216.267 217.5 221.183 218.816 225.24 220.442C230.107 222.395 235.489 223.996 240.502 225.565C247.365 227.714 254.064 230.043 260.501 233.23C264.214 227.199 268.148 221.324 272.262 215.564C276.057 210.245 278.757 204.435 282.208 198.895C283.492 196.844 285.668 194.655 286.453 192.457" stroke="black" stroke-width="4" stroke-linecap="round" stroke-linejoin="round"/>
<path d="M217.387 239.856L220.904 236.139L224.683 232.012L225.419 236.081C225.419 236.081 224.053 237.176 223.112 237.887C223.611 237.887 225.819 237.699 225.819 237.699L226.646 241.294L217.387 239.856Z" stroke="black" stroke-width="4" stroke-linecap="round" stroke-linejoin="round"/>
<path d="M224.34 246.058C224.34 246.058 224.324 246.042 224.315 246.034C224.021 245.789 223.637 245.617 223.269 245.503C222.516 245.274 221.625 245.315 220.995 245.993C220.504 246.524 220.193 247.039 220.234 247.766C220.332 249.376 221.567 250.593 222.86 251.32C223.538 251.713 224.258 252.031 224.929 252.44C225.305 252.669 225.87 253.012 226.115 253.396C226.696 252.325 227.554 251.353 228.094 250.258C228.937 248.526 230.229 246.393 229.223 244.53C228.037 242.357 225.117 245.037 225.019 246.892C225.027 246.679 224.52 246.205 224.34 246.05V246.058Z" stroke="black" stroke-width="4" stroke-linecap="round" stroke-linejoin="round"/>
<path d="M226.982 255.675L228.724 259.017L232.503 257.489L229.583 261.232L231.341 264.778L227.93 263.364L225.149 267.017L226.147 262.759L222.426 261.64L226.491 259.932L226.982 255.675Z" stroke="black" stroke-width="4" stroke-linecap="round" stroke-linejoin="round"/>
<path d="M282.363 249.539C282.216 248.746 282.388 247.276 281.971 246.63C281.586 246.042 280.785 246.426 280.253 246.581C278.952 246.981 277.758 247.717 276.548 248.387C275.722 248.853 274.838 249.237 274.053 249.809C274.527 248.885 275.002 247.856 275.509 246.957C275.108 248.101 274.47 249.024 273.914 250.021C274.323 250.127 276.18 249.915 276.278 250.462" stroke="black" stroke-width="4" stroke-linecap="round" stroke-linejoin="round"/>
<path d="M286.356 247.995C286.225 247.104 285.964 246.148 286.152 245.266C286.413 244.048 287.518 243.705 288.548 243.256C289.881 242.675 291.411 242.022 292.777 241.646C291.902 241.409 290.732 240.984 289.898 240.567C290.519 240.755 291.133 240.935 291.755 241.131C292.114 241.246 292.662 241.237 292.949 241.45C292.507 242.202 291.427 242.978 291.231 243.738" stroke="black" stroke-width="4" stroke-linecap="round" stroke-linejoin="round"/>
<path d="M222.907 278.333C221.877 267.09 223.545 256.109 223.48 244.841C223.463 242.193 222.294 220.451 223.218 220.124C229.009 218.122 236.1 218.588 242.251 217.721C251.952 216.349 261.677 215.246 271.418 214.085C279.753 213.089 288.063 212.28 296.438 211.871C301.681 211.618 307.308 211.863 312.355 210.613C315.365 231.8 311.005 253.306 309.484 274.199C304.421 276.356 299.972 275.923 294.631 277.214C287.924 278.832 281.004 280.025 274.224 281.316C265.586 282.966 257.211 286.014 248.451 286.937C242.529 287.567 236.558 287.06 230.628 287.779C223.324 288.662 223.513 284.862 222.907 278.325V278.333Z" fill="white" stroke="black" stroke-width="4" stroke-linecap="round" stroke-linejoin="round"/>
<path d="M229.508 225.051C232.796 227.935 237.36 230.19 241.016 232.576C245.408 235.436 250.373 238.067 254.986 240.584C261.292 244.032 267.41 247.627 273.095 252.015C277.912 246.835 282.934 241.834 288.087 236.989C292.856 232.511 296.635 227.347 301.109 222.583C302.769 220.818 305.329 219.094 306.531 217.101" stroke="black" stroke-width="4" stroke-linecap="round" stroke-linejoin="round"/>
<path d="M229.508 250.078L233.687 247.12L238.202 243.811L238.129 247.946C238.129 247.946 236.575 248.754 235.511 249.269C235.994 249.367 238.202 249.612 238.202 249.612L238.309 253.306L229.516 250.086L229.508 250.078Z" stroke="black" stroke-width="4" stroke-linecap="round" stroke-linejoin="round"/>
<path d="M235.11 257.522C235.11 257.522 235.093 257.506 235.085 257.497C234.848 257.203 234.496 256.958 234.161 256.77C233.466 256.394 232.582 256.264 231.838 256.811C231.257 257.236 230.848 257.677 230.75 258.396C230.529 259.998 231.503 261.428 232.623 262.392C233.212 262.907 233.858 263.356 234.439 263.895C234.758 264.198 235.249 264.639 235.412 265.064C236.189 264.132 237.22 263.348 237.973 262.375C239.142 260.839 240.827 259.001 240.197 256.983C239.461 254.621 236.075 256.672 235.609 258.478C235.658 258.274 235.257 257.71 235.11 257.514V257.522Z" stroke="black" stroke-width="4" stroke-linecap="round" stroke-linejoin="round"/>
<path d="M235.815 267.466L236.87 271.086L240.878 270.326L237.279 273.422L238.31 277.246L235.243 275.196L231.791 278.227L233.615 274.256L230.18 272.426L234.506 271.551L235.815 267.466Z" stroke="black" stroke-width="4" stroke-linecap="round" stroke-linejoin="round"/>
<path d="M285.054 273.153C285.078 271.813 285.839 269.443 285.373 268.25C284.939 267.156 283.492 267.523 282.576 267.613C280.302 267.842 278.102 268.651 275.901 269.37C274.388 269.86 272.818 270.211 271.346 270.89C272.425 269.533 273.538 267.997 274.666 266.682C273.636 268.422 272.278 269.738 271.043 271.2C271.681 271.511 274.789 271.772 274.781 272.695" stroke="black" stroke-width="4" stroke-linecap="round" stroke-linejoin="round"/>
<path d="M292.113 271.919C292.195 270.424 292.072 268.757 292.678 267.368C293.512 265.464 295.434 265.252 297.274 264.851C299.663 264.337 302.386 263.765 304.742 263.593C303.384 262.923 301.601 261.845 300.374 260.88C301.331 261.395 302.288 261.885 303.237 262.408C303.793 262.711 304.693 262.882 305.094 263.323C304.12 264.418 302.092 265.334 301.519 266.51" stroke="black" stroke-width="4" stroke-linecap="round" stroke-linejoin="round"/>
<path d="M190.797 55.7818H190.012C192.694 55.7818 195.312 55.839 197.962 55.267C201.307 54.5479 203.916 52.734 207.033 51.3613C209.094 50.4543 211.13 48.8937 213.298 48.3789C215.465 47.8641 219.49 48.6894 220.487 50.8383" stroke="black" stroke-width="4" stroke-linecap="round" stroke-linejoin="round"/>
<path d="M171.52 54.3353C163.308 52.8073 155.203 53.4855 146.934 53.1587" stroke="black" stroke-width="4" stroke-linecap="round" stroke-linejoin="round"/>
<path d="M243.915 267C241.976 269.076 240.103 271.388 238.148 273.602C239.678 272.238 241.175 270.816 242.557 269.304C243.751 267.997 246.009 265.677 247.972 263.176C246.475 263.863 245.003 265.848 243.915 267Z" fill="white" stroke="black" stroke-width="4" stroke-linecap="round" stroke-linejoin="round"/>
<path d="M238.139 273.602C235.112 276.307 231.914 278.799 229.035 281.364C232.536 279.55 235.423 276.666 238.139 273.602Z" fill="white" stroke="black" stroke-width="4" stroke-linecap="round" stroke-linejoin="round"/>
<path d="M230.025 281.471C232.986 278.823 236.249 276.503 238.965 273.578C241.68 270.652 244.24 267.891 246.882 265.047C249.001 262.776 252.182 260.578 252.837 257.268C253.082 256.035 252.583 254.711 251.52 254.155C250.35 253.543 249.328 254.229 248.412 254.874C241.304 259.891 234.196 264.9 227.089 269.917C235.415 264.009 243.921 257.914 249.581 249.073C250.277 247.986 250.481 246.565 249.917 245.396C248.641 242.732 245.107 244.13 242.915 245.756L217.773 264.443C216.186 265.619 214.337 266.371 212.407 266.444C208.751 266.583 207.835 264.238 207.001 262.032C205.275 257.473 203.549 252.905 201.823 248.346C198.142 255.904 190.691 260.749 182.945 262.906C173.425 265.562 165.532 263.029 155.913 261.648C141.943 259.646 127.957 257.71 113.897 256.852C104.662 256.288 93.9066 254.891 84.9177 257.628C81.0816 258.796 71.9537 261.084 70.6532 265.325C72.9106 248.664 76.3541 233.246 68.9682 217.419C65.533 210.057 61.0753 203.087 56.3068 196.632C54.9246 194.769 53.9921 166.808 52.2418 167.74C37.4619 175.649 21.7742 185.062 11.9265 199.198C2.07871 213.333 -1.82278 238.304 7.97591 253.657C-1.26659 270.751 5.09683 296.701 19.754 308.77C21.4389 310.159 23.2301 311.393 24.8578 312.847C26.3709 314.195 27.8187 315.772 29.7162 316.336C31.1312 316.753 32.628 316.557 34.0921 316.549C38.9751 316.524 33.9776 315.282 38.6398 316.843C48.7247 320.209 59.3659 321.092 69.9416 321.484C118.485 323.273 141.281 302.47 189.685 306.784C201.332 307.822 221.739 309.685 235.341 301.065C238.024 299.365 248.109 290.647 250.219 288.179C251.512 286.667 245.819 286.757 245.377 284.339C245.271 283.742 244.682 283.383 244.15 283.62C238.621 286.112 241.083 286.553 235.906 289.715C244.249 285.426 250.62 277.001 252.706 267.384C252.943 266.281 252.657 265.072 251.831 264.361C250.678 263.372 249.524 264.034 248.559 264.712C244.928 267.27 242.384 270.759 239.104 273.684C238.801 274.027 238.49 274.37 238.18 274.713" fill="white"/>
<path d="M230.025 281.471C232.986 278.823 236.249 276.503 238.965 273.578C241.68 270.652 244.24 267.891 246.882 265.047C249.001 262.776 252.182 260.578 252.837 257.268C253.082 256.035 252.583 254.711 251.52 254.155C250.35 253.543 249.328 254.229 248.412 254.874C241.304 259.891 234.196 264.9 227.089 269.917C235.415 264.009 243.921 257.914 249.581 249.073C250.277 247.986 250.481 246.565 249.917 245.396C248.641 242.732 245.107 244.13 242.915 245.756L217.773 264.443C216.186 265.619 214.337 266.371 212.407 266.444C208.751 266.583 207.835 264.238 207.001 262.032C205.275 257.473 203.549 252.905 201.823 248.346C198.142 255.904 190.691 260.749 182.945 262.906C173.425 265.562 165.532 263.029 155.913 261.648C141.943 259.646 127.957 257.71 113.897 256.852C104.662 256.288 93.9066 254.891 84.9177 257.628C81.0817 258.796 71.9537 261.084 70.6532 265.325C72.9106 248.664 76.3541 233.246 68.9682 217.419C65.533 210.057 61.0753 203.087 56.3068 196.632C54.9246 194.769 53.9921 166.808 52.2418 167.74C37.4619 175.649 21.7742 185.062 11.9265 199.198C2.07871 213.333 -1.82278 238.304 7.97591 253.657C-1.26659 270.751 5.09683 296.701 19.754 308.77C21.4389 310.159 23.2301 311.393 24.8578 312.847C26.3709 314.195 27.8187 315.772 29.7162 316.336C31.1312 316.753 32.628 316.557 34.0921 316.549C38.9751 316.524 33.9776 315.282 38.6398 316.843C48.7247 320.209 59.3659 321.092 69.9416 321.484C118.485 323.273 141.281 302.47 189.685 306.784C201.332 307.822 221.739 309.685 235.341 301.065C238.024 299.365 248.109 290.647 250.219 288.179C251.512 286.667 245.819 286.757 245.377 284.339C245.271 283.742 244.682 283.383 244.15 283.62C238.621 286.112 241.083 286.553 235.906 289.715C244.249 285.426 250.62 277.001 252.706 267.384C252.943 266.281 252.657 265.072 251.831 264.361C250.677 263.372 249.524 264.034 248.559 264.712C244.928 267.27 242.384 270.759 239.104 273.684C238.801 274.027 238.49 274.37 238.18 274.713" stroke="black" stroke-width="4" stroke-linecap="round" stroke-linejoin="round"/>
<path d="M219.473 306.695C225.182 306.155 232.134 303.557 237.164 301.138C242.178 298.728 245.891 293.785 249.768 289.503C252.419 286.578 255.878 280.425 250.104 280.319C249.981 280.319 247.266 281.267 247.143 281.267C242.653 281.267 240.927 287.37 236.935 288.939C231.602 291.031 227.971 291.243 222.916 294.013" fill="white"/>
<path d="M219.473 306.695C225.182 306.155 232.134 303.557 237.164 301.138C242.178 298.728 245.891 293.785 249.768 289.503C252.419 286.578 255.878 280.425 250.104 280.319C249.981 280.319 247.266 281.267 247.143 281.267C242.653 281.267 240.927 287.37 236.935 288.939C231.602 291.031 227.971 291.243 222.916 294.013" stroke="black" stroke-width="4" stroke-linecap="round" stroke-linejoin="round"/>
<path d="M221.599 301.081C228.315 299.087 233.108 296.677 238.629 292.591C244.15 288.506 247.552 281.732 251.298 275.702C253.858 271.576 256.729 263.396 249.793 264.63C249.654 264.655 246.587 266.428 246.448 266.461C241.066 267.506 240.273 275.228 235.815 278.047C229.86 281.806 225.558 282.909 220.078 287.419" fill="white"/>
<path d="M221.599 301.081C228.315 299.087 233.108 296.677 238.629 292.591C244.15 288.506 247.552 281.732 251.298 275.702C253.858 271.576 256.729 263.396 249.793 264.63C249.654 264.655 246.587 266.428 246.448 266.461C241.066 267.506 240.273 275.228 235.815 278.047C229.86 281.806 225.558 282.909 220.078 287.419" stroke="black" stroke-width="4" stroke-linecap="round" stroke-linejoin="round"/>
<path d="M218.788 294.226C225.658 290.941 233.502 286.872 239.031 281.552C244.544 276.25 247.767 268.397 251.374 261.289C253.836 256.435 256.429 247.186 249.296 249.694C249.149 249.751 246.066 252.17 245.918 252.227C240.397 254.27 239.931 262.678 235.449 266.461C229.462 271.51 222.28 274.558 216.809 280.327" fill="white"/>
<path d="M218.788 294.226C225.658 290.941 233.502 286.872 239.031 281.552C244.544 276.25 247.767 268.397 251.374 261.289C253.836 256.435 256.429 247.186 249.296 249.694C249.149 249.751 246.066 252.17 245.918 252.227C240.397 254.27 239.931 262.678 235.449 266.461C229.462 271.51 222.28 274.558 216.809 280.327" stroke="black" stroke-width="4" stroke-linecap="round" stroke-linejoin="round"/>
<path d="M214.5 284.71C221.371 281.425 231.498 274.567 237.019 269.247C242.532 263.944 244.282 258.453 247.889 251.353C250.351 246.499 254.097 240.845 246.793 240.224C246.638 240.208 246.499 240.33 246.352 240.388C240.831 242.43 237.199 250.029 232.709 253.804C226.722 258.854 218.714 260.594 213.242 266.363" fill="white"/>
<path d="M214.5 284.71C221.371 281.425 231.498 274.567 237.019 269.247C242.532 263.944 244.282 258.453 247.889 251.353C250.351 246.499 254.097 240.845 246.793 240.224C246.638 240.208 246.499 240.33 246.352 240.388C240.831 242.43 237.199 250.029 232.709 253.804C226.722 258.854 218.714 260.594 213.242 266.363" stroke="black" stroke-width="4" stroke-linecap="round" stroke-linejoin="round"/>
<path d="M109.635 229.561C103.599 225.214 94.5606 221.48 87.5428 219.225C80.5496 216.978 72.6403 217.86 65.1318 218.081C60.0116 218.228 51.2844 220.311 56.8217 225.238C56.9363 225.336 60.4124 226.856 60.5351 226.954C64.911 230.729 71.9042 227.224 77.1634 229.308C84.1894 232.086 87.9109 234.962 95.2558 236.964" fill="white"/>
<path d="M109.635 229.561C103.599 225.214 94.5606 221.48 87.5428 219.225C80.5496 216.978 72.6403 217.86 65.1318 218.081C60.0116 218.228 51.2844 220.311 56.8217 225.238C56.9363 225.336 60.4124 226.856 60.5351 226.954C64.911 230.729 71.9042 227.224 77.1634 229.308C84.1894 232.086 87.9109 234.962 95.2558 236.964" stroke="black" stroke-width="4" stroke-linecap="round" stroke-linejoin="round"/>
<path d="M100.793 237.765C94.7571 233.418 85.6373 228.907 78.6278 226.652C71.6345 224.405 66.3508 225.451 58.8504 225.663C53.7303 225.811 47.3259 225.23 50.434 231.767C50.4995 231.906 50.663 231.971 50.7857 232.069C55.1616 235.844 63.0709 235.42 68.3301 237.503C75.3561 240.281 80.7135 246.32 88.0584 248.321" fill="white"/>
<path d="M100.793 237.765C94.7571 233.418 85.6373 228.907 78.6278 226.652C71.6345 224.405 66.3508 225.451 58.8504 225.663C53.7303 225.811 47.3259 225.23 50.434 231.767C50.4995 231.906 50.663 231.971 50.7857 232.069C55.1616 235.844 63.0709 235.42 68.3301 237.503C75.3561 240.281 80.7135 246.32 88.0584 248.321" stroke="black" stroke-width="4" stroke-linecap="round" stroke-linejoin="round"/>
<path d="M96.0347 247.627C89.9985 243.28 82.2201 239.211 75.2105 236.947C68.2173 234.7 60.5288 236.416 53.0285 236.776C50.5093 236.898 45.6508 237.936 49.7568 242.879C49.8549 242.994 49.9858 243.084 50.1085 243.182C54.4844 246.957 62.1156 247.455 67.6529 248.615C74.8833 250.135 78.9238 251.238 86.1624 256.468" fill="white"/>
<path d="M96.0347 247.627C89.9985 243.28 82.2201 239.211 75.2105 236.947C68.2173 234.7 60.5288 236.416 53.0285 236.776C50.5093 236.898 45.6508 237.936 49.7568 242.879C49.8549 242.994 49.9858 243.084 50.1085 243.182C54.4844 246.957 62.1156 247.455 67.6529 248.615C74.8833 250.135 78.9238 251.238 86.1624 256.468" stroke="black" stroke-width="4" stroke-linecap="round" stroke-linejoin="round"/>
<path d="M86.956 255.316C82.0076 252.276 77.9425 249.171 72.0944 248.068C66.8597 247.08 59.8828 247.913 54.7381 248.142C52.3907 248.248 47.565 250.724 51.401 255.267C51.491 255.373 51.6218 255.455 51.7282 255.545C54.6972 258.07 63.8825 257.726 69.8778 258.813C72.1353 259.222 72.2171 259.442 73.6239 259.728" fill="white"/>
<path d="M86.956 255.316C82.0076 252.276 77.9425 249.171 72.0944 248.068C66.8597 247.08 59.8828 247.913 54.7381 248.142C52.3907 248.248 47.565 250.724 51.401 255.267C51.491 255.373 51.6218 255.455 51.7282 255.545C54.6972 258.07 63.8825 257.726 69.8778 258.813C72.1353 259.222 72.2171 259.442 73.6239 259.728" stroke="black" stroke-width="4" stroke-linecap="round" stroke-linejoin="round"/>
<path d="M26.7742 295.709C26.1027 292.99 26.0579 290.167 25.843 287.392C25.6908 285.423 25.3237 283.472 25.1088 281.513C25.073 281.203 24.8939 279.309 25.0909 280.65C26.237 277.846 31.4301 282.019 31.9225 283.922C32.6209 286.642 28.4396 289.717 25.7535 289.473" stroke="black" stroke-width="4" stroke-linecap="round" stroke-linejoin="round"/>
<path d="M34 295.709C34.4567 292.718 36.2437 289.661 37.3457 286.758C38.2094 284.498 38.5966 281.775 40.1453 279.709C41.7933 282.596 41.972 285.807 42.7067 288.896C43.1931 290.962 44.3745 292.88 45 294.84" stroke="black" stroke-width="4" stroke-linecap="round" stroke-linejoin="round"/>
<path d="M36 290.709C38.3229 291.412 41.5619 290.742 44.0974 290.84" stroke="black" stroke-width="4" stroke-linecap="round" stroke-linejoin="round"/>
<path d="M57.3471 280.841C52.0224 278.57 49.3069 283.669 49.0288 287.476C48.898 289.339 49.3642 291.341 50.8119 292.763C52.5377 294.454 55.8258 294.789 58.1814 294.144" stroke="black" stroke-width="4" stroke-linecap="round" stroke-linejoin="round"/>
<path d="M70.2697 281.789C66.8181 277.769 61.2317 282.067 60.6019 285.744C59.8249 290.279 63.571 295.108 69.1165 292.934" stroke="black" stroke-width="4" stroke-linecap="round" stroke-linejoin="round"/>
<path d="M75.3681 279.709C75.1472 285.012 75.3681 290.339 75.4335 295.634C78.2799 295.332 84.676 295.079 83.2037 290.813C82.3122 288.223 77.4456 287.929 75 288.607" stroke="black" stroke-width="4" stroke-linecap="round" stroke-linejoin="round"/>
<path d="M87.1207 281.024C86.9408 285.371 86.1965 290.233 87.0226 294.49" stroke="black" stroke-width="4" stroke-linecap="round" stroke-linejoin="round"/>
<path d="M92 295.414C93.4641 290.233 95.3289 284.595 97.8072 279.709C98.7642 284.464 100.915 289.808 103.165 294.212" stroke="black" stroke-width="4" stroke-linecap="round" stroke-linejoin="round"/>
<path d="M107 279.709C107 282.012 107 284.976 107 287.348C107 289.721 107 292.267 107 294.709" stroke="black" stroke-width="4" stroke-linecap="round" stroke-linejoin="round"/>
<path d="M114.623 280.709C113.276 283.685 110.78 286.808 108 288.697C111.337 289.396 114.418 291.759 117 293.709" stroke="black" stroke-width="4" stroke-linecap="round" stroke-linejoin="round"/>
<path d="M122 294.709C122.301 292.557 123.455 290.397 124.122 288.304C124.927 285.77 126.244 283.286 126.748 280.709C126.472 282.104 129.415 286.51 130.26 287.896C131.39 289.742 132.431 292.183 134 293.841" stroke="black" stroke-width="4" stroke-linecap="round" stroke-linejoin="round"/>
<path d="M123 290.709C125.976 290.709 128.978 290.709 132 290.709" stroke="black" stroke-width="4" stroke-linecap="round" stroke-linejoin="round"/>
<path d="M202.86 81.5775C202.557 81.5775 201.976 81.4794 201.518 80.8421C201.068 80.2047 201.175 79.4367 201.232 79.0281V78.9464C201.314 78.4398 202.009 76.4053 202.148 76.0049C202.197 75.8578 202.246 75.7189 202.295 75.5882C201.379 75.58 200.872 75.1714 200.619 74.8201C199.989 73.9867 200.291 72.949 200.39 72.6058C200.692 71.5681 201.216 70.6366 201.682 69.8195L201.944 69.3537C203.146 67.1721 204.316 65.4399 206.123 64.0672C206.221 63.9936 206.32 63.9201 206.426 63.8547C206.958 63.5034 207.465 63.3154 207.939 63.3154C208.52 63.3154 209.027 63.5851 209.33 64.0508C209.714 64.6391 209.706 65.4154 209.289 66.355C208.88 67.2783 208.405 68.1526 207.923 69.0024C208.201 69.1576 208.438 69.3864 208.618 69.6806C209.698 71.4864 207.718 75.2205 207.694 75.2532C206.704 77.0916 205.747 78.6686 204.757 80.074C204.725 80.123 204.684 80.1884 204.643 80.2619C204.348 80.7522 203.849 81.5856 202.876 81.5856L202.86 81.5775Z" fill="white"/>
<path d="M207.924 64.6145C208.316 64.6145 208.439 65.023 208.079 65.8319C207.327 67.5478 206.313 69.0921 205.446 70.7427C206.133 70.2688 206.623 70.0645 206.967 70.0645C208.333 70.0645 207.27 73.2675 206.533 74.632C205.658 76.2499 204.726 77.835 203.679 79.3221C203.466 79.6245 203.172 80.2781 202.861 80.2781C202.771 80.2781 202.673 80.221 202.583 80.0902C202.411 79.8451 202.509 79.3793 202.542 79.1097C202.599 78.6521 204.129 74.0764 204.317 74.0764C204.251 74.0601 204.178 74.0601 204.104 74.0601C203.613 74.0601 202.885 74.2807 202.329 74.2807C201.732 74.2807 201.323 74.0274 201.634 72.9652C201.945 71.9029 202.55 70.9224 203.074 69.9828C204.137 68.0626 205.208 66.3876 206.901 65.1047C206.975 65.0475 207.057 64.9903 207.139 64.9331C207.458 64.7207 207.728 64.6145 207.924 64.6145ZM207.924 62.0161C207.188 62.0161 206.435 62.2694 205.691 62.7678C205.568 62.8495 205.446 62.9394 205.331 63.0293C203.344 64.5409 202.084 66.3957 200.8 68.7244C200.718 68.8715 200.628 69.0268 200.546 69.182C200.047 70.0645 199.483 71.0695 199.139 72.2461C198.665 73.9048 199.115 74.9834 199.581 75.5962C199.777 75.8577 200.113 76.209 200.62 76.4787C200.235 77.6471 200.015 78.4233 199.966 78.7747V78.8401C199.884 79.3467 199.712 80.5314 200.464 81.5937C201.045 82.4108 201.92 82.8765 202.861 82.8765C204.579 82.8765 205.429 81.4629 205.748 80.9237C205.773 80.8828 205.797 80.8338 205.822 80.8011C206.828 79.3712 207.818 77.7533 208.832 75.8658C211.081 71.6823 209.969 69.419 209.723 69.0104C209.666 68.9205 209.609 68.8307 209.543 68.7408C209.862 68.1443 210.181 67.5315 210.468 66.8778C211.22 65.1783 210.852 64.0098 210.41 63.3398C209.871 62.5145 208.938 62.0161 207.932 62.0161H207.924Z" fill="black"/>
<path d="M153.493 79.0441C153.19 79.0441 152.61 78.9461 152.152 78.3087C151.702 77.6714 151.808 76.9033 151.865 76.4948V76.4131C151.947 75.9065 152.634 73.8719 152.773 73.4716C152.822 73.3245 152.871 73.1856 152.92 73.0548C152.004 73.0467 151.497 72.6381 151.244 72.2868C150.614 71.4533 150.916 70.4156 151.015 70.0724C151.317 69.0347 151.841 68.1033 152.307 67.278L152.569 66.8122C153.771 64.6306 154.941 62.8984 156.748 61.5257C156.846 61.4521 156.945 61.3786 157.051 61.3132C157.583 60.9537 158.09 60.7739 158.564 60.7739C159.145 60.7739 159.652 61.0436 159.954 61.5093C160.339 62.0976 160.323 62.8739 159.914 63.8135C159.505 64.7368 159.03 65.6111 158.548 66.4609C158.826 66.6161 159.063 66.8449 159.243 67.1391C160.323 68.9449 158.343 72.679 158.319 72.7117C157.329 74.5501 156.364 76.1271 155.382 77.5325C155.35 77.5815 155.309 77.6469 155.268 77.7204C154.973 78.2107 154.474 79.0441 153.501 79.0441H153.493Z" fill="white"/>
<path d="M158.565 62.0894C158.957 62.0894 159.08 62.498 158.72 63.3069C157.967 65.0228 156.945 66.5671 156.086 68.2176C156.773 67.7437 157.264 67.5395 157.608 67.5395C158.973 67.5395 157.91 70.7425 157.174 72.107C156.299 73.7248 155.366 75.31 154.32 76.7971C154.107 77.0994 153.812 77.7531 153.502 77.7531C153.412 77.7531 153.313 77.6959 153.223 77.5652C153.052 77.3201 153.15 76.8543 153.183 76.5847C153.24 76.1271 154.769 71.5514 154.957 71.5514C154.892 71.535 154.818 71.535 154.745 71.535C154.254 71.535 153.526 71.7556 152.97 71.7556C152.373 71.7556 151.964 71.5023 152.275 70.4401C152.586 69.3779 153.191 68.3974 153.714 67.4577C154.778 65.5376 155.849 63.8625 157.542 62.5797C157.616 62.5225 157.698 62.4653 157.779 62.4081C158.098 62.1957 158.368 62.0894 158.565 62.0894ZM158.565 59.4911C157.828 59.4911 157.076 59.7444 156.332 60.2428C156.209 60.3245 156.086 60.4144 155.972 60.5043C153.984 62.0159 152.725 63.8707 151.44 66.1994C151.359 66.3465 151.269 66.5017 151.187 66.6488C150.688 67.5313 150.124 68.5363 149.78 69.7129C149.306 71.3716 149.756 72.4502 150.222 73.063C150.418 73.3245 150.753 73.6758 151.26 73.9455C150.876 75.1139 150.655 75.8901 150.606 76.2415V76.3069C150.524 76.8135 150.353 77.9982 151.105 79.0605C151.686 79.8776 152.561 80.3433 153.502 80.3433C155.219 80.3433 156.07 78.9297 156.389 78.3904C156.413 78.3496 156.438 78.3006 156.462 78.2679C157.469 76.838 158.458 75.2201 159.472 73.3326C161.722 69.1491 160.609 66.8858 160.364 66.4772C160.307 66.3873 160.249 66.2975 160.184 66.2076C160.503 65.6111 160.822 64.9983 161.108 64.3446C161.861 62.6451 161.493 61.4766 161.051 60.8066C160.511 59.9813 159.579 59.4829 158.573 59.4829L158.565 59.4911Z" fill="black"/>
<path d="M174.848 117.881C178.34 114.032 184.687 115.176 188.384 117.881" stroke="black" stroke-width="4" stroke-linecap="round" stroke-linejoin="round"/>
<path d="M43.7422 187.375C52.2567 190.659 61.1148 201.134 65.0408 209.068" stroke="black" stroke-width="4" stroke-linecap="round" stroke-linejoin="round"/>
<path d="M12.6134 247.12C11.1739 248.158 8.68739 251.737 8.51562 254.49C11.1084 254.36 14.6827 258.208 15.4761 259.401" stroke="black" stroke-width="4" stroke-linecap="round" stroke-linejoin="round"/>
<path d="M318.629 244.669C321.115 247.357 325 248.305 326.775 251.549C324.51 252.423 322.817 254.94 321.901 256.942" stroke="black" stroke-width="4" stroke-linecap="round" stroke-linejoin="round"/>
<path d="M167.462 308.577C168.744 308.435 170.017 308.115 171.141 307.72C174.854 306.426 174.283 304.753 173.126 301.4C169.521 290.936 168.818 280.446 169.38 269.579C169.463 268.007 169.513 266.696 169.852 265.183C170.273 263.326 172.274 261.082 169.455 260.107C168.041 259.611 166.337 259.922 164.857 259.779C163.377 259.636 161.765 259.686 160.318 260.191C158.16 260.939 157.738 263.166 156.928 265.032C155.878 267.427 156.068 270.369 156.093 272.932C156.101 273.933 156.109 274.958 156.068 276.025C155.82 282.127 156.258 288.263 157.292 294.281C157.771 297.088 157.994 299.929 158.805 302.669C159.317 304.417 160.095 306.216 161.5 307.418C163.137 308.821 165.444 308.83 167.47 308.594L167.462 308.577Z" fill="white" stroke="black" stroke-width="4" stroke-linecap="round" stroke-linejoin="round"/>
<path d="M158.592 299.385C161.029 299.636 163.476 299.81 165.922 299.645C167.648 299.523 169.756 299.68 171.422 299.272C172.636 298.977 174.206 298.517 175.056 297.536C175.559 296.955 175.707 296.122 175.846 295.393C176.193 293.563 175.863 291.836 175.742 289.997C175.577 287.524 175.481 285.043 175.438 282.57C175.395 280.262 175.082 278.041 174.97 275.733C174.892 274.136 175.03 272.557 174.718 270.978C174.484 269.798 174.44 268.375 173.287 267.69C171.942 266.892 170.545 266.709 169.01 266.709C166.234 266.718 163.484 266.788 160.708 266.892C159.121 266.952 157.516 266.935 155.946 267.039C154.627 267.126 153.083 267.499 152.32 268.688C150.281 271.889 151.21 276.41 151.218 279.976C151.227 284.114 151.123 288.331 151.496 292.504C151.721 295.003 152.398 298.89 155.469 299.272C156.623 299.419 158.071 299.332 158.6 299.385H158.592Z" fill="white" stroke="black" stroke-width="4" stroke-linecap="round" stroke-linejoin="round"/>
<path d="M171 288.211C170.119 288.244 169.239 288.311 168.369 288.255C167.058 288.167 165.799 288.532 164.478 288.554C163.321 288.577 162.123 288.51 160.956 288.554C159.399 288.61 157.853 288.654 156.297 288.709L156 278.23C157.239 278.828 170.703 277.487 170.703 277.742L171 288.222V288.211Z" stroke="black" stroke-width="4" stroke-linecap="round" stroke-linejoin="round"/>
<path d="M156 278.709C156.223 279.035 156.552 279.286 156.87 279.527C157.953 280.335 159.088 281.125 160.202 281.915C161.179 282.602 162.336 284.154 163.789 283.587C164.649 283.253 165.413 282.389 166.145 281.859C167.079 281.19 168.045 280.558 169 279.908" stroke="black" stroke-width="4" stroke-linecap="round" stroke-linejoin="round"/>
</svg>
