<svg width="34" height="65" fill="none" xmlns="http://www.w3.org/2000/svg"><g clip-path="url(#clip0_2_798)"><path d="M13.08 13.34c.554.357 1.11.696 1.67 1.016a79.432 79.432 0 001.286 9.012l.487-2.33a36.835 36.835 0 001.762-.688l-1.394 6.726c.461 1.778.98 3.486 1.551 5.115l2.707-13.186c.625-.325 1.249-.67 1.868-1.034l-3.535 16.96a49.088 49.088 0 001.733 3.774l4.765-22.649c.652-.46 1.298-.943 1.935-1.448l-6.782 32.14c.713.94 1.45 1.819 2.212 2.63l7.782-37.573a43.881 43.881 0 001.88-1.92h.102L21.74 65h-1.63l.64-3.09C8.393 51.674 0 30.033 0 5.167 0 3.428.041 1.705.122 0c.472.759.972 1.511 1.501 2.255-.026.966-.039 1.937-.039 2.913 0 24.162 8.022 44.931 19.532 54.971l.753-3.635C10.96 47.051 4.038 27.599 4.007 5.317a44.2 44.2 0 001.602 1.784c.379 20.825 6.87 38.622 16.632 47.608l.716-3.456C14.624 43 9.013 27.54 8.207 9.62c.546.486 1.1.953 1.66 1.401.83 13.782 4.551 25.829 10.023 33.98l.82-3.897c-4.03-7.084-6.838-16.802-7.63-27.765z" fill="url(#paint0_linear_2_798)"/><path d="M13.656 58.975c-.909-1.263-2.695-3.933-3.545-5.885.596 2.503.962 4.375 1.071 4.998l.015.006 1.482 6.895h1.651l-.773-3.55C14.63 62.705 15.832 63.864 17.1 65h2.004c-1.741-1.56-3.875-3.848-5.342-5.885a4.313 4.313 0 00-.105-.14z" fill="url(#paint1_linear_2_798)"/></g><defs><linearGradient id="paint0_linear_2_798" x1="22.462" y1="64.931" x2="-19.311" y2="10.518" gradientUnits="userSpaceOnUse"><stop stop-color="#ECBC48"/><stop offset=".16" stop-color="#F6D976" stop-opacity=".56"/><stop offset=".31" stop-color="#DAB966" stop-opacity=".36"/><stop offset=".56" stop-color="#A0621D" stop-opacity=".67"/><stop offset=".77" stop-color="#ECA24C"/><stop offset=".94" stop-color="#ECBC48" stop-opacity=".19"/></linearGradient><linearGradient id="paint1_linear_2_798" x1="22.462" y1="64.931" x2="-19.311" y2="10.518" gradientUnits="userSpaceOnUse"><stop stop-color="#ECBC48"/><stop offset=".16" stop-color="#F6D976" stop-opacity=".56"/><stop offset=".31" stop-color="#DAB966" stop-opacity=".36"/><stop offset=".56" stop-color="#A0621D" stop-opacity=".67"/><stop offset=".77" stop-color="#ECA24C"/><stop offset=".94" stop-color="#ECBC48" stop-opacity=".19"/></linearGradient><clipPath id="clip0_2_798"><path fill="#fff" d="M0 0h33.171v65H0z"/></clipPath></defs></svg>