<svg width="34" height="65" viewBox="0 0 34 65" fill="none" xmlns="http://www.w3.org/2000/svg">
<g clip-path="url(#clip0_2_798)">
<path d="M13.0807 13.3397C13.6337 13.6968 14.1904 14.0358 14.7499 14.3563C15.0183 17.4873 15.4541 20.5022 16.036 23.3676L16.5232 21.0389C17.1105 20.8267 17.6981 20.5971 18.2852 20.3502L16.8911 27.0759C17.352 28.8539 17.871 30.5621 18.4421 32.1911L21.1486 19.0053C21.7742 18.6801 22.3976 18.3352 23.0173 17.9707L19.4824 34.9315C20.025 36.2543 20.6037 37.5142 21.2147 38.7053L25.9804 16.0564C26.6322 15.5961 27.2776 15.1133 27.9153 14.6082L21.1334 46.7482C21.8456 47.6889 22.5834 48.5669 23.345 49.3779L31.1269 11.8049C31.7798 11.178 32.4068 10.5376 33.0073 9.88581H33.1086L21.7401 65H20.1094L20.7494 61.9093C8.39397 51.6748 0 30.0338 0 5.16842C0 3.42826 0.0410614 1.70456 0.121615 0C0.593577 0.758868 1.09415 1.51132 1.62321 2.25527C1.59726 3.22064 1.58414 4.19187 1.58414 5.16842C1.58414 29.3303 9.60646 50.0995 21.1162 60.139L21.869 56.504C10.9604 47.0512 4.03779 27.5993 4.00705 5.31748C4.52956 5.93203 5.06388 6.52675 5.60864 7.1012C5.98782 27.926 12.4784 45.723 22.2407 54.7091L22.9567 51.2528C14.6236 43.0003 9.01301 27.541 8.20714 9.62084C8.75328 10.1071 9.30697 10.5744 9.867 11.0224C10.6978 24.8041 14.4181 36.8508 19.8898 45.0024L20.7099 41.1047C16.6806 34.0205 13.8716 24.3031 13.0807 13.3397Z" fill="url(#paint0_linear_2_798)"/>
<path d="M13.6559 58.9749C12.7472 57.7121 10.9606 55.0425 10.1106 53.0898C10.707 55.5934 11.0735 57.4648 11.1822 58.0876L11.1972 58.0937L12.6788 64.9891H14.3304L13.5572 61.4388C14.629 62.7045 15.8318 63.8645 17.0995 65.0002H19.1029C17.3619 63.4406 15.2277 61.1521 13.7614 59.1151C13.7273 59.0677 13.692 59.021 13.6559 58.9749Z" fill="url(#paint1_linear_2_798)"/>
</g>
<defs>
<linearGradient id="paint0_linear_2_798" x1="22.462" y1="64.9312" x2="-19.3115" y2="10.5178" gradientUnits="userSpaceOnUse">
<stop stop-color="#ECBC48"/>
<stop offset="0.16" stop-color="#F6D976" stop-opacity="0.56"/>
<stop offset="0.31" stop-color="#DAB966" stop-opacity="0.36"/>
<stop offset="0.56" stop-color="#A0621D" stop-opacity="0.67"/>
<stop offset="0.77" stop-color="#ECA24C"/>
<stop offset="0.94" stop-color="#ECBC48" stop-opacity="0.19"/>
</linearGradient>
<linearGradient id="paint1_linear_2_798" x1="22.4621" y1="64.9314" x2="-19.3115" y2="10.518" gradientUnits="userSpaceOnUse">
<stop stop-color="#ECBC48"/>
<stop offset="0.16" stop-color="#F6D976" stop-opacity="0.56"/>
<stop offset="0.31" stop-color="#DAB966" stop-opacity="0.36"/>
<stop offset="0.56" stop-color="#A0621D" stop-opacity="0.67"/>
<stop offset="0.77" stop-color="#ECA24C"/>
<stop offset="0.94" stop-color="#ECBC48" stop-opacity="0.19"/>
</linearGradient>
<clipPath id="clip0_2_798">
<rect width="33.1711" height="65" fill="white"/>
</clipPath>
</defs>
</svg>
