<svg width="27" height="27" viewBox="0 0 27 27" fill="none" xmlns="http://www.w3.org/2000/svg">
<circle cx="13.7151" cy="13.5517" r="13.2759" fill="white"/>
<g clip-path="url(#clip0_12_2469)">
<path d="M13.8178 26.5021C20.9134 26.5021 26.6654 20.75 26.6654 13.6545C26.6654 6.55896 20.9134 0.806885 13.8178 0.806885C6.72229 0.806885 0.970215 6.55896 0.970215 13.6545C0.970215 20.75 6.72229 26.5021 13.8178 26.5021Z" fill="#F0F0F0"/>
<path d="M13.8179 0.806885C8.72433 0.806885 4.32322 3.77112 2.24512 8.06859H25.3906C23.3126 3.77112 18.9114 0.806885 13.8179 0.806885V0.806885Z" fill="#338AF3"/>
<path d="M13.8179 26.5022C18.9114 26.5022 23.3126 23.538 25.3907 19.2405H2.24512C4.32322 23.538 8.72433 26.5022 13.8179 26.5022Z" fill="#338AF3"/>
<path d="M17.6577 13.6546L16.0887 14.3927L16.9242 15.9123L15.2204 15.5863L15.0045 17.3075L13.8178 16.0416L12.631 17.3075L12.4151 15.5863L10.7113 15.9122L11.5468 14.3926L9.97778 13.6546L11.5468 12.9165L10.7113 11.397L12.4151 11.7229L12.631 10.0017L13.8178 11.2676L15.0046 10.0017L15.2204 11.7229L16.9243 11.397L16.0887 12.9166L17.6577 13.6546Z" fill="#FFDA44"/>
</g>
<defs>
<clipPath id="clip0_12_2469">
<rect width="25.6952" height="25.6952" fill="white" transform="translate(0.970215 0.806885)"/>
</clipPath>
</defs>
</svg>
