<svg width="28" height="27" viewBox="0 0 28 27" fill="none" xmlns="http://www.w3.org/2000/svg">
<circle cx="14.1106" cy="13.3724" r="13.2759" fill="white"/>
<g clip-path="url(#clip0_12_2538)">
<path d="M27.0609 13.4752C27.0609 20.5707 21.3088 26.3228 14.2133 26.3228C7.11784 26.3228 1.36572 20.5707 1.36572 13.4752C1.36572 13.4782 14.2133 0.629019 14.2133 0.627563C21.3088 0.627563 27.0609 6.37968 27.0609 13.4752Z" fill="#0052B4"/>
<path d="M14.179 13.4752H14.2133C14.2133 13.4635 14.2133 13.4524 14.2133 13.4408C14.2019 13.4523 14.1904 13.4637 14.179 13.4752Z" fill="#F0F0F0"/>
<path d="M14.2133 7.33065C14.2133 5.07003 14.2133 3.58869 14.2133 0.627563H14.2112C7.11663 0.628718 1.36572 6.38028 1.36572 13.4751H8.06881V9.70053L11.8434 13.4751H14.179C14.1905 13.4637 14.2019 13.4522 14.2134 13.4407C14.2134 12.5752 14.2134 11.8029 14.2134 11.1053L10.4387 7.33065H14.2133Z" fill="#F0F0F0"/>
<path d="M7.86558 2.30334C5.85618 3.44753 4.18569 5.11803 3.0415 7.12742V13.4752H6.39307V5.65497V5.65491H14.2134C14.2134 4.59785 14.2134 3.59082 14.2134 2.30334H7.86558Z" fill="#D80027"/>
<path d="M14.2133 11.8952L9.64875 7.33071H8.06885C8.06885 7.33066 8.06885 7.33071 8.06885 7.33071L14.2133 13.4751H14.2133C14.2133 13.4751 14.2133 12.3858 14.2133 11.8952Z" fill="#D80027"/>
<path d="M9.11428 15.7096L9.81939 17.184L11.4116 16.8159L10.6986 18.2865L11.979 19.3019L10.3848 19.6612L10.3893 21.2955L9.11428 20.2731L7.83935 21.2955L7.84382 19.6612L6.24951 19.3019L7.53001 18.2865L6.81686 16.8159L8.40921 17.184L9.11428 15.7096Z" fill="#F0F0F0"/>
<path d="M20.6013 18.5024L20.9539 19.2396L21.75 19.0556L21.3934 19.7909L22.0337 20.2986L21.2366 20.4783L21.2388 21.2954L20.6013 20.7841L19.9638 21.2954L19.966 20.4783L19.1689 20.2986L19.8092 19.7909L19.4526 19.0556L20.2487 19.2396L20.6013 18.5024Z" fill="#F0F0F0"/>
<path d="M17.3216 10.6823L17.6741 11.4195L18.4702 11.2354L18.1137 11.9707L18.7539 12.4784L17.9568 12.6581L17.959 13.4752L17.3216 12.964L16.6841 13.4752L16.6863 12.6581L15.8892 12.4784L16.5294 11.9707L16.1729 11.2354L16.969 11.4195L17.3216 10.6823Z" fill="#F0F0F0"/>
<path d="M20.6013 6.2135L20.9539 6.95073L21.75 6.7667L21.3935 7.50198L22.0337 8.00966L21.2366 8.18937L21.2388 9.0065L20.6013 8.49526L19.9638 9.0065L19.966 8.18937L19.1689 8.00966L19.8091 7.50198L19.4526 6.7667L20.2487 6.95073L20.6013 6.2135Z" fill="#F0F0F0"/>
<path d="M23.4661 9.56506L23.8186 10.3023L24.6148 10.1182L24.2582 10.8535L24.8985 11.3612L24.1013 11.5409L24.1035 12.358L23.4661 11.8468L22.8286 12.358L22.8308 11.5409L22.0337 11.3612L22.6739 10.8535L22.3174 10.1182L23.1135 10.3023L23.4661 9.56506Z" fill="#F0F0F0"/>
<path d="M21.4176 13.4752L21.6949 14.3287H22.5923L21.8663 14.8562L22.1437 15.7096L21.4176 15.1821L20.6916 15.7096L20.9689 14.8562L20.2429 14.3287H21.1403L21.4176 13.4752Z" fill="#F0F0F0"/>
</g>
<defs>
<clipPath id="clip0_12_2538">
<rect width="25.6952" height="25.6952" fill="white" transform="translate(1.36572 0.627563)"/>
</clipPath>
</defs>
</svg>
