<svg width="27" height="27" viewBox="0 0 27 27" fill="none" xmlns="http://www.w3.org/2000/svg">
<circle cx="13.3196" cy="13.5517" r="13.2759" fill="white"/>
<g clip-path="url(#clip0_12_2436)">
<path d="M17.891 1.606C16.4992 1.08958 14.9938 0.806885 13.4223 0.806885C11.8508 0.806885 10.3454 1.08958 8.95362 1.606L7.83643 13.6545L8.95362 25.703C10.3454 26.2195 11.8508 26.5021 13.4223 26.5021C14.9938 26.5021 16.4992 26.2195 17.891 25.703L19.0082 13.6545L17.891 1.606Z" fill="#FFDA44"/>
<path d="M26.27 13.6545C26.27 8.13056 22.7835 3.42131 17.8911 1.60608V25.7031C22.7835 23.8877 26.27 19.1786 26.27 13.6545V13.6545Z" fill="#D80027"/>
<path d="M0.574707 13.6545C0.574707 19.1786 4.06123 23.8877 8.95361 25.7031V1.60608C4.06123 3.42131 0.574707 8.13056 0.574707 13.6545V13.6545Z" fill="black"/>
</g>
<defs>
<clipPath id="clip0_12_2436">
<rect width="25.6952" height="25.6952" fill="white" transform="translate(0.574707 0.806885)"/>
</clipPath>
</defs>
</svg>
