<svg width="27" height="27" viewBox="0 0 27 27" fill="none" xmlns="http://www.w3.org/2000/svg">
<circle cx="13.7151" cy="13.5517" r="13.2759" fill="white"/>
<g clip-path="url(#clip0_12_2502)">
<path d="M13.8178 26.5021C20.9134 26.5021 26.6654 20.75 26.6654 13.6545C26.6654 6.55896 20.9134 0.806885 13.8178 0.806885C6.72229 0.806885 0.970215 6.55896 0.970215 13.6545C0.970215 20.75 6.72229 26.5021 13.8178 26.5021Z" fill="#6DA544"/>
<path d="M13.8178 5.83423L24.431 13.6545L13.8178 21.4748L3.20459 13.6545L13.8178 5.83423Z" fill="#FFDA44"/>
<path d="M13.8178 18.1232C16.2858 18.1232 18.2865 16.1225 18.2865 13.6545C18.2865 11.1865 16.2858 9.18579 13.8178 9.18579C11.3498 9.18579 9.34912 11.1865 9.34912 13.6545C9.34912 16.1225 11.3498 18.1232 13.8178 18.1232Z" fill="#F0F0F0"/>
<path d="M11.5835 13.3752C10.8064 13.3752 10.0565 13.4934 9.35059 13.7127C9.38185 16.1538 11.3694 18.1233 13.8179 18.1233C15.3319 18.1233 16.6691 17.3696 17.4774 16.2178C16.0944 14.4866 13.9665 13.3752 11.5835 13.3752V13.3752Z" fill="#0052B4"/>
<path d="M18.2038 14.5107C18.2576 14.2334 18.2867 13.9474 18.2867 13.6545C18.2867 11.1865 16.2859 9.18579 13.8179 9.18579C11.9764 9.18579 10.3956 10.3 9.71143 11.8908C10.3162 11.7655 10.9423 11.6995 11.5836 11.6995C14.1791 11.6994 16.5271 12.7783 18.2038 14.5107V14.5107Z" fill="#0052B4"/>
</g>
<defs>
<clipPath id="clip0_12_2502">
<rect width="25.6952" height="25.6952" fill="white" transform="translate(0.970215 0.806885)"/>
</clipPath>
</defs>
</svg>
