<svg width="27" height="27" viewBox="0 0 27 27" fill="none" xmlns="http://www.w3.org/2000/svg">
<circle cx="13.3196" cy="13.3724" r="13.2759" fill="white"/>
<g clip-path="url(#clip0_12_2439)">
<path d="M13.4223 26.3228C20.5179 26.3228 26.2699 20.5707 26.2699 13.4752C26.2699 6.37963 20.5179 0.627563 13.4223 0.627563C6.32678 0.627563 0.574707 6.37963 0.574707 13.4752C0.574707 20.5707 6.32678 26.3228 13.4223 26.3228Z" fill="#F0F0F0"/>
<path d="M26.27 13.4751C26.27 8.38155 23.3058 3.98044 19.0083 1.90234V25.0479C23.3058 22.9698 26.27 18.5687 26.27 13.4751V13.4751Z" fill="#D80027"/>
<path d="M0.574707 13.4751C0.574707 18.5687 3.53894 22.9698 7.83642 25.0479V1.90234C3.53894 3.98044 0.574707 8.38155 0.574707 13.4751Z" fill="#D80027"/>
<path d="M15.6567 15.151L17.891 14.0338L16.7739 13.4752V12.358L14.5395 13.4752L15.6567 11.2408H14.5395L13.4223 9.56506L12.3051 11.2408H11.1879L12.3051 13.4752L10.0708 12.358V13.4752L8.95361 14.0338L11.1879 15.151L10.6294 16.2682H12.8638V17.9439H13.9809V16.2682H16.2153L15.6567 15.151Z" fill="#D80027"/>
</g>
<defs>
<clipPath id="clip0_12_2439">
<rect width="25.6952" height="25.6952" fill="white" transform="translate(0.574707 0.627563)"/>
</clipPath>
</defs>
</svg>
