<svg width="28" height="27" viewBox="0 0 28 27" fill="none" xmlns="http://www.w3.org/2000/svg">
<circle cx="14.2461" cy="13.6689" r="13.2759" fill="white"/>
<g clip-path="url(#clip0_12_2511)">
<path d="M19.935 2.1989C18.2459 1.38217 16.351 0.924072 14.3491 0.924072C12.3472 0.924072 10.4522 1.38217 8.76319 2.1989L7.646 13.7717L8.76319 25.3445C10.4522 26.1612 12.3472 26.6193 14.3491 26.6193C16.351 26.6193 18.2459 26.1612 19.935 25.3445L21.0522 13.7717L19.935 2.1989Z" fill="#D80027"/>
<path d="M14.349 9.30298L15.4581 12.7166H19.0478L16.1439 14.8266L17.253 18.2404L14.349 16.1305L11.445 18.2404L12.5544 14.8266L9.65039 12.7166H13.2398L14.349 9.30298Z" fill="#FFDA44"/>
<path d="M8.76317 2.19934C4.46575 4.27734 1.50146 8.6781 1.50146 13.7717C1.50146 18.8653 4.46575 23.266 8.76317 25.344V2.19934Z" fill="#496E2D"/>
<path d="M19.9351 2.19934V25.344C24.2325 23.266 27.1968 18.8652 27.1968 13.7717C27.1968 8.67815 24.2325 4.27734 19.9351 2.19934Z" fill="#FFDA44"/>
</g>
<defs>
<clipPath id="clip0_12_2511">
<rect width="25.6952" height="25.6952" fill="white" transform="translate(1.50146 0.924072)"/>
</clipPath>
</defs>
</svg>
