<svg width="28" height="27" viewBox="0 0 28 27" fill="none" xmlns="http://www.w3.org/2000/svg">
<circle cx="13.9241" cy="13.3724" r="13.2759" fill="white"/>
<g clip-path="url(#clip0_12_2373)">
<path d="M14.0268 26.3228C21.1223 26.3228 26.8744 20.5707 26.8744 13.4752C26.8744 6.37963 21.1223 0.627563 14.0268 0.627563C6.93127 0.627563 1.1792 6.37963 1.1792 13.4752C1.1792 20.5707 6.93127 26.3228 14.0268 26.3228Z" fill="#F0F0F0"/>
<path d="M26.0753 9.00647H1.97831C1.4619 10.3983 1.1792 11.9037 1.1792 13.4752C1.1792 15.0467 1.4619 16.5521 1.97831 17.9439H26.0754C26.5918 16.5521 26.8744 15.0467 26.8744 13.4752C26.8744 11.9037 26.5918 10.3983 26.0753 9.00647Z" fill="#D80027"/>
<path d="M14.0267 0.627563C10.1328 0.627563 6.64368 2.36018 4.2876 5.09627H23.7658C21.4098 2.36018 17.9207 0.627563 14.0267 0.627563V0.627563Z" fill="#0052B4"/>
<path d="M23.7659 21.8541H4.2876C6.64368 24.5902 10.1328 26.3228 14.0267 26.3228C17.9207 26.3228 21.4098 24.5902 23.7659 21.8541Z" fill="#0052B4"/>
</g>
<defs>
<clipPath id="clip0_12_2373">
<rect width="25.6952" height="25.6952" fill="white" transform="translate(1.1792 0.627563)"/>
</clipPath>
</defs>
</svg>
