<svg width="28" height="27" viewBox="0 0 28 27" fill="none" xmlns="http://www.w3.org/2000/svg">
<circle cx="13.8506" cy="13.6689" r="13.2759" fill="white"/>
<g clip-path="url(#clip0_12_2445)">
<path d="M26.8012 13.7717C26.8012 12.2002 26.5185 10.6948 26.0021 9.303L13.9536 8.74438L1.90507 9.30295C1.38865 10.6948 1.10596 12.2002 1.10596 13.7717C1.10596 15.3432 1.38865 16.8487 1.90507 18.2404L13.9536 18.799L26.0021 18.2405C26.5185 16.8487 26.8012 15.3432 26.8012 13.7717Z" fill="#F0F0F0"/>
<path d="M13.9535 26.6193C19.4775 26.6193 24.1867 23.1327 26.002 18.2404H1.90503C3.72031 23.1327 8.42951 26.6193 13.9535 26.6193Z" fill="#0052B4"/>
<path d="M1.90503 9.30297H26.0021C24.1867 4.41059 19.4775 0.924072 13.9535 0.924072C8.42951 0.924072 3.72031 4.41059 1.90503 9.30297V9.30297Z" fill="#D80027"/>
<path d="M17.3052 9.86161H15.0708L15.4432 7.06861L16.9328 5.95142L18.4223 7.06861V9.30299L17.3052 9.86161Z" fill="#338AF3"/>
<path d="M10.602 9.86161H12.8364L12.464 7.06861L10.9744 5.95142L9.48486 7.06861V9.30299L10.602 9.86161Z" fill="#338AF3"/>
<path d="M15.4431 9.86161H12.4639V7.06861L13.9535 5.95142L15.4431 7.06861V9.86161Z" fill="#0052B4"/>
<path d="M9.48486 9.30298V15.4474C9.48486 16.9105 10.1916 18.2116 11.2816 19.0273L12.0637 18.8316L13.0505 19.8244C13.3424 19.8845 13.6443 19.9162 13.9536 19.9162C14.2613 19.9162 14.5617 19.8849 14.852 19.8254L15.9785 18.8874L16.6255 19.0255C17.7151 18.2099 18.4223 16.9101 18.4223 15.4474V9.30298H9.48486Z" fill="#F0F0F0"/>
<path d="M9.48486 9.30298H11.2723V11.0905H9.48486V9.30298Z" fill="#D80027"/>
<path d="M13.0598 9.30298H14.8473V11.0905H13.0598V9.30298Z" fill="#D80027"/>
<path d="M16.6348 9.30298H18.4222V11.0905H16.6348V9.30298Z" fill="#D80027"/>
<path d="M11.2722 11.0905H13.0597V12.8779H11.2722V11.0905Z" fill="#D80027"/>
<path d="M14.8474 11.0905H16.6349V12.8779H14.8474V11.0905Z" fill="#D80027"/>
<path d="M9.48486 12.8773H11.2723V14.6648H9.48486V12.8773Z" fill="#D80027"/>
<path d="M11.2722 14.6649H13.0597V16.4524H11.2722V14.6649Z" fill="#D80027"/>
<path d="M13.0598 12.8773H14.8473V14.6648H13.0598V12.8773Z" fill="#D80027"/>
<path d="M16.6348 12.8773H18.4222V14.6648H16.6348V12.8773Z" fill="#D80027"/>
<path d="M14.8474 14.6649H16.6349V16.4524H14.8474V14.6649Z" fill="#D80027"/>
<path d="M13.0598 16.4524H14.8473V18.2399H13.0598V16.4524Z" fill="#D80027"/>
<path d="M11.2722 16.4525H9.6001C9.75347 17.117 10.055 17.725 10.4684 18.24H11.2722V16.4525Z" fill="#D80027"/>
<path d="M16.6348 18.24H17.4385C17.8521 17.725 18.1535 17.1169 18.3069 16.4525H16.6348V18.24Z" fill="#D80027"/>
<path d="M11.2722 18.24V19.0199C11.7921 19.4111 12.3996 19.6916 13.0597 19.8262V18.24H11.2722Z" fill="#D80027"/>
<path d="M14.8474 18.24V19.8262C15.5075 19.6917 16.115 19.4111 16.6349 19.0199V18.24H14.8474Z" fill="#D80027"/>
</g>
<defs>
<clipPath id="clip0_12_2445">
<rect width="25.6952" height="25.6952" fill="white" transform="translate(1.10596 0.924072)"/>
</clipPath>
</defs>
</svg>
