<svg width="28" height="28" viewBox="0 0 28 28" fill="none" xmlns="http://www.w3.org/2000/svg">
<circle cx="14.1106" cy="13.8483" r="13.2759" fill="white"/>
<g clip-path="url(#clip0_12_2541)">
<path d="M14.2133 26.7986C21.3089 26.7986 27.0609 21.0465 27.0609 13.951C27.0609 6.85546 21.3089 1.10339 14.2133 1.10339C7.11779 1.10339 1.36572 6.85546 1.36572 13.951C1.36572 21.0465 7.11779 26.7986 14.2133 26.7986Z" fill="#F0F0F0"/>
<path d="M11.4205 12.2752H26.9522C26.131 5.97153 20.7409 1.10339 14.2134 1.10339C13.2541 1.10339 12.3197 1.20944 11.4204 1.40878V12.2752H11.4205Z" fill="#D80027"/>
<path d="M8.0687 12.2752V2.66553C4.54098 4.59036 2.01552 8.12099 1.47437 12.2752H8.0687V12.2752Z" fill="#D80027"/>
<path d="M8.06865 15.6267H1.47437C2.01552 19.781 4.54098 23.3116 8.0687 25.2364L8.06865 15.6267Z" fill="#D80027"/>
<path d="M11.4204 15.6268V26.4932C12.3197 26.6925 13.2541 26.7986 14.2134 26.7986C20.7409 26.7986 26.131 21.9304 26.9522 15.6267H11.4204V15.6268Z" fill="#D80027"/>
</g>
<defs>
<clipPath id="clip0_12_2541">
<rect width="25.6952" height="25.6952" fill="white" transform="translate(1.36572 1.10339)"/>
</clipPath>
</defs>
</svg>
