<svg width="28" height="27" viewBox="0 0 28 27" fill="none" xmlns="http://www.w3.org/2000/svg">
<circle cx="13.9241" cy="13.3724" r="13.2759" fill="white"/>
<g clip-path="url(#clip0_12_2340)">
<path d="M1.1792 13.4752C1.1792 6.37968 6.93131 0.627563 14.0268 0.627563C21.1223 0.627563 26.8744 6.37968 26.8744 13.4752L14.0268 14.5924L1.1792 13.4752Z" fill="#FFDA44"/>
<path d="M2.89844 19.8989C5.11992 23.739 9.2715 26.3227 14.0269 26.3227C18.7822 26.3227 22.9338 23.739 25.1553 19.8989L14.0269 19.061L2.89844 19.8989Z" fill="#D80027"/>
<path d="M25.1552 19.899C26.2484 18.0093 26.8744 15.8154 26.8744 13.4752H1.1792C1.1792 15.8154 1.80522 18.0093 2.89837 19.899H25.1552Z" fill="#0052B4"/>
<path d="M14.0268 17.9439C16.4948 17.9439 18.4955 15.9432 18.4955 13.4752C18.4955 11.0072 16.4948 9.00647 14.0268 9.00647C11.5588 9.00647 9.55811 11.0072 9.55811 13.4752C9.55811 15.9432 11.5588 17.9439 14.0268 17.9439Z" fill="#FFDA44"/>
<path d="M14.0268 16.2681C12.4868 16.2681 11.2339 15.0152 11.2339 13.4752V11.7994C11.2339 10.2594 12.4868 9.00647 14.0268 9.00647C15.5668 9.00647 16.8198 10.2594 16.8198 11.7994V13.4752C16.8198 15.0152 15.5669 16.2681 14.0268 16.2681Z" fill="#338AF3"/>
<path d="M18.4956 6.7721H15.1441C15.1441 6.15511 14.6439 5.65491 14.0269 5.65491C13.4099 5.65491 12.9097 6.15511 12.9097 6.7721H9.55811C9.55811 7.38913 10.0955 7.88929 10.7125 7.88929H10.6753C10.6753 8.50632 11.1754 9.00648 11.7925 9.00648C11.7925 9.62351 12.2926 10.1237 12.9097 10.1237H15.1441C15.7611 10.1237 16.2612 9.62351 16.2612 9.00648C16.8783 9.00648 17.3784 8.50632 17.3784 7.88929H17.3412C17.9582 7.88929 18.4956 7.38908 18.4956 6.7721V6.7721Z" fill="black"/>
</g>
<defs>
<clipPath id="clip0_12_2340">
<rect width="25.6952" height="25.6952" fill="white" transform="translate(1.1792 0.627563)"/>
</clipPath>
</defs>
</svg>
