<svg width="27" height="27" viewBox="0 0 27 27" fill="none" xmlns="http://www.w3.org/2000/svg">
<circle cx="13.3196" cy="13.5517" r="13.2759" fill="white"/>
<g clip-path="url(#clip0_12_2403)">
<path d="M13.4223 26.5021C20.5179 26.5021 26.2699 20.75 26.2699 13.6545C26.2699 6.55896 20.5179 0.806885 13.4223 0.806885C6.32678 0.806885 0.574707 6.55896 0.574707 13.6545C0.574707 20.75 6.32678 26.5021 13.4223 26.5021Z" fill="#F0F0F0"/>
<path d="M26.1612 11.9787H15.0982H15.0981V0.915638C14.5495 0.844223 13.9903 0.806885 13.4223 0.806885C12.8544 0.806885 12.2951 0.844223 11.7466 0.915638V11.9786V11.9787H0.68346C0.612045 12.5273 0.574707 13.0864 0.574707 13.6545C0.574707 14.2225 0.612045 14.7817 0.68346 15.3303H11.7465H11.7465V26.3934C12.2951 26.4648 12.8544 26.5021 13.4223 26.5021C13.9903 26.5021 14.5495 26.4648 15.0981 26.3934V15.3304V15.3303H26.1612C26.2326 14.7817 26.2699 14.2225 26.2699 13.6545C26.2699 13.0864 26.2326 12.5273 26.1612 11.9787V11.9787Z" fill="#D80027"/>
</g>
<defs>
<clipPath id="clip0_12_2403">
<rect width="25.6952" height="25.6952" fill="white" transform="translate(0.574707 0.806885)"/>
</clipPath>
</defs>
</svg>
