<svg width="28" height="27" viewBox="0 0 28 27" fill="none" xmlns="http://www.w3.org/2000/svg">
<circle cx="13.9241" cy="13.5517" r="13.2759" fill="white"/>
<g clip-path="url(#clip0_12_2370)">
<path d="M1.1792 13.6545C1.1792 15.226 1.4619 16.7314 1.97831 18.1232L14.0268 19.2404L26.0753 18.1232C26.5917 16.7314 26.8744 15.226 26.8744 13.6545C26.8744 12.083 26.5917 10.5776 26.0753 9.18579L14.0268 8.0686L1.97831 9.18579C1.4619 10.5776 1.1792 12.083 1.1792 13.6545V13.6545Z" fill="#FFDA44"/>
<path d="M26.0753 9.18578C24.26 4.29345 19.5508 0.806885 14.0268 0.806885C8.50275 0.806885 3.79355 4.29345 1.97827 9.18578H26.0753Z" fill="#D80027"/>
<path d="M1.97827 18.1232C3.79355 23.0155 8.50275 26.5021 14.0268 26.5021C19.5508 26.5021 24.26 23.0155 26.0753 18.1232H1.97827Z" fill="#D80027"/>
</g>
<defs>
<clipPath id="clip0_12_2370">
<rect width="25.6952" height="25.6952" fill="white" transform="translate(1.1792 0.806885)"/>
</clipPath>
</defs>
</svg>
