<svg width="28" height="27" viewBox="0 0 28 27" fill="none" xmlns="http://www.w3.org/2000/svg">
<circle cx="14.1106" cy="13.5517" r="13.2759" fill="white"/>
<g clip-path="url(#clip0_12_2535)">
<path d="M14.2133 26.5021C21.3089 26.5021 27.0609 20.75 27.0609 13.6545C27.0609 6.55896 21.3089 0.806885 14.2133 0.806885C7.11779 0.806885 1.36572 6.55896 1.36572 13.6545C1.36572 20.75 7.11779 26.5021 14.2133 26.5021Z" fill="#F0F0F0"/>
<path d="M27.061 13.6545C27.061 8.13043 23.5745 3.42123 18.6821 1.60596V25.703C23.5745 23.8877 27.061 19.1785 27.061 13.6545V13.6545Z" fill="#D80027"/>
<path d="M1.36572 13.6545C1.36572 19.1785 4.85229 23.8877 9.74462 25.703V1.60596C4.85229 3.42123 1.36572 8.13043 1.36572 13.6545Z" fill="#0052B4"/>
</g>
<defs>
<clipPath id="clip0_12_2535">
<rect width="25.6952" height="25.6952" fill="white" transform="translate(1.36572 0.806885)"/>
</clipPath>
</defs>
</svg>
