<svg width="28" height="28" viewBox="0 0 28 28" fill="none" xmlns="http://www.w3.org/2000/svg">
<circle cx="13.9241" cy="13.8483" r="13.2759" fill="white"/>
<g clip-path="url(#clip0_12_2376)">
<path d="M1.97827 18.4198C3.79355 23.3121 8.50275 26.7987 14.0268 26.7987C19.5508 26.7987 24.26 23.3121 26.0753 18.4198L14.0268 17.3026L1.97827 18.4198Z" fill="#FFDA44"/>
<path d="M14.0268 1.10339C8.50275 1.10339 3.79355 4.58991 1.97827 9.48229L14.0268 10.5994L26.0753 9.48224C24.26 4.58991 19.5508 1.10339 14.0268 1.10339Z" fill="black"/>
<path d="M1.97831 9.4823C1.4619 10.8741 1.1792 12.3795 1.1792 13.951C1.1792 15.5225 1.4619 17.0279 1.97831 18.4197H26.0754C26.5918 17.0279 26.8744 15.5225 26.8744 13.951C26.8744 12.3795 26.5918 10.8741 26.0753 9.4823H1.97831Z" fill="#D80027"/>
</g>
<defs>
<clipPath id="clip0_12_2376">
<rect width="25.6952" height="25.6952" fill="white" transform="translate(1.1792 1.10339)"/>
</clipPath>
</defs>
</svg>
