<svg width="28" height="27" viewBox="0 0 28 27" fill="none" xmlns="http://www.w3.org/2000/svg">
<circle cx="14.1106" cy="13.3724" r="13.2759" fill="white"/>
<g clip-path="url(#clip0_12_2571)">
<path d="M1.36572 13.4752C1.36572 15.0467 1.64842 16.5521 2.16483 17.9439L14.2133 18.5025L26.2618 17.944C26.7783 16.5521 27.0609 15.0467 27.0609 13.4752C27.0609 11.9037 26.7783 10.3983 26.2618 9.0065L14.2133 8.44788L2.16483 9.00645C1.64842 10.3983 1.36572 11.9037 1.36572 13.4752V13.4752Z" fill="#FFDA44"/>
<path d="M14.2133 0.627563C8.68927 0.627563 3.98007 4.11408 2.16479 9.00646H26.2618C24.4465 4.11408 19.7373 0.627563 14.2133 0.627563V0.627563Z" fill="#D80027"/>
<path d="M26.2618 17.9438H2.16479C3.98007 22.8362 8.68927 26.3227 14.2133 26.3227C19.7373 26.3227 24.4465 22.8362 26.2618 17.9438Z" fill="#496E2D"/>
<path d="M14.2133 9.00647L15.3224 12.4201H18.9121L16.0082 14.5301L17.1173 17.9439L14.2133 15.8341L11.3092 17.9439L12.4186 14.5301L9.51465 12.4201H13.1042L14.2133 9.00647Z" fill="black"/>
</g>
<defs>
<clipPath id="clip0_12_2571">
<rect width="25.6952" height="25.6952" fill="white" transform="translate(1.36572 0.627563)"/>
</clipPath>
</defs>
</svg>
