<svg width="27" height="27" viewBox="0 0 27 27" fill="none" xmlns="http://www.w3.org/2000/svg">
<circle cx="13.3196" cy="13.3724" r="13.2759" fill="white"/>
<g clip-path="url(#clip0_12_2406)">
<path d="M13.4223 26.3228C20.5179 26.3228 26.2699 20.5707 26.2699 13.4752C26.2699 6.37963 20.5179 0.627563 13.4223 0.627563C6.32678 0.627563 0.574707 6.37963 0.574707 13.4752C0.574707 20.5707 6.32678 26.3228 13.4223 26.3228Z" fill="#F0F0F0"/>
<path d="M17.5952 10.1236H15.9143C15.9282 10.3083 15.9361 10.4947 15.9361 10.6822C15.9361 11.925 15.6254 13.1296 15.0839 13.9871C14.9168 14.2515 14.6361 14.625 14.2603 14.877V10.1235H12.5845V14.877C12.2088 14.625 11.928 14.2516 11.7609 13.9871C11.2193 13.1296 10.9087 11.925 10.9087 10.6822C10.9087 10.4947 10.9166 10.3083 10.9305 10.1236H9.24957C9.23878 10.3074 9.23291 10.4936 9.23291 10.6822C9.23291 14.1277 11.0731 16.8267 13.4223 16.8267C15.7715 16.8267 17.6118 14.1277 17.6118 10.6822C17.6119 10.4936 17.606 10.3074 17.5952 10.1236V10.1236Z" fill="#D80027"/>
<path d="M5.8814 6.77208H7.55716V7.88927H9.23292V6.77208H10.9087V7.88927H12.5844V6.77208H14.2602V7.88927H15.936V6.77208H17.6117V7.88927H19.2875V6.77208H20.9632V7.88927H24.995C22.9171 3.5918 18.5159 0.627563 13.4224 0.627563C8.32887 0.627563 3.92771 3.5918 1.84961 7.88927H5.8814V6.77208Z" fill="#6DA544"/>
<path d="M20.9634 19.061V20.1782H19.2876V19.061H17.6119V20.1782H15.9361V19.061H14.2603V20.1782H12.5846V19.061H10.9088V20.1782H9.23307V19.061H7.55716V20.1782H5.8814V19.061H1.84961C3.92771 23.3585 8.32882 26.3227 13.4224 26.3227C18.516 26.3227 22.9171 23.3585 24.9952 19.061H20.9634Z" fill="#D80027"/>
</g>
<defs>
<clipPath id="clip0_12_2406">
<rect width="25.6952" height="25.6952" fill="white" transform="translate(0.574707 0.627563)"/>
</clipPath>
</defs>
</svg>
