<svg width="27" height="27" viewBox="0 0 27 27" fill="none" xmlns="http://www.w3.org/2000/svg">
<circle cx="13.4551" cy="13.6689" r="13.2759" fill="white"/>
<g clip-path="url(#clip0_12_2379)">
<path d="M13.5581 26.6193C20.6536 26.6193 26.4057 20.8672 26.4057 13.7717C26.4057 6.67614 20.6536 0.924072 13.5581 0.924072C6.46252 0.924072 0.710449 6.67614 0.710449 13.7717C0.710449 20.8672 6.46252 26.6193 13.5581 26.6193Z" fill="#F0F0F0"/>
<path d="M13.5581 19.3576C16.6431 19.3576 19.144 16.8567 19.144 13.7717C19.144 10.6867 16.6431 8.18579 13.5581 8.18579C10.4731 8.18579 7.97217 10.6867 7.97217 13.7717C7.97217 16.8567 10.4731 19.3576 13.5581 19.3576Z" fill="#D80027"/>
</g>
<defs>
<clipPath id="clip0_12_2379">
<rect width="25.6952" height="25.6952" fill="white" transform="translate(0.710449 0.924072)"/>
</clipPath>
</defs>
</svg>
