<svg width="27" height="27" viewBox="0 0 27 27" fill="none" xmlns="http://www.w3.org/2000/svg">
<circle cx="13.6416" cy="13.6689" r="13.2759" fill="white"/>
<g clip-path="url(#clip0_12_2577)">
<path d="M13.7446 26.6193C20.8401 26.6193 26.5922 20.8672 26.5922 13.7717C26.5922 6.67614 20.8401 0.924072 13.7446 0.924072C6.64904 0.924072 0.896973 6.67614 0.896973 13.7717C0.896973 20.8672 6.64904 26.6193 13.7446 26.6193Z" fill="#F0F0F0"/>
<path d="M18.2133 13.7717C18.2133 14.8889 16.2126 17.6818 13.7446 17.6818C11.2766 17.6818 9.27588 14.8889 9.27588 13.7717C9.27588 11.3036 11.2766 9.30298 13.7446 9.30298C16.2126 9.30298 18.2133 11.3036 18.2133 13.7717Z" fill="#D80027"/>
<path d="M18.2133 13.7717C18.2133 16.2398 16.2126 18.2404 13.7446 18.2404C11.2766 18.2404 9.27588 16.2398 9.27588 13.7717" fill="#0052B4"/>
<path d="M18.481 17.7217L19.6657 16.5369L20.4556 17.3268L19.2708 18.5115L18.481 17.7217Z" fill="black"/>
<path d="M16.5056 19.6964L17.6904 18.5116L18.4802 19.3015L17.2955 20.4863L16.5056 19.6964Z" fill="black"/>
<path d="M20.8506 20.0912L22.0353 18.9064L22.8252 19.6963L21.6404 20.881L20.8506 20.0912Z" fill="black"/>
<path d="M18.8755 22.0662L20.0603 20.8814L20.8501 21.6713L19.6653 22.856L18.8755 22.0662Z" fill="black"/>
<path d="M19.6658 18.9065L20.8505 17.7217L21.6404 18.5116L20.4556 19.6963L19.6658 18.9065Z" fill="black"/>
<path d="M17.6909 20.8812L18.8757 19.6965L19.6655 20.4863L18.4808 21.6711L17.6909 20.8812Z" fill="black"/>
<path d="M20.8557 9.82385L17.6963 6.66447L18.4862 5.87462L21.6456 9.034L20.8557 9.82385Z" fill="black"/>
<path d="M17.6958 9.0343L16.511 7.84954L17.3009 7.05972L18.4856 8.24448L17.6958 9.0343Z" fill="black"/>
<path d="M19.6704 11.0094L18.4856 9.82464L19.2755 9.03482L20.4602 10.2196L19.6704 11.0094Z" fill="black"/>
<path d="M20.0652 6.66431L18.8804 5.47954L19.6703 4.68969L20.855 5.87445L20.0652 6.66431Z" fill="black"/>
<path d="M22.0408 8.63965L20.856 7.45489L21.6459 6.66503L22.8306 7.84979L22.0408 8.63965Z" fill="black"/>
<path d="M5.45166 18.9043L8.61104 22.0637L7.82118 22.8535L4.66181 19.6942L5.45166 18.9043Z" fill="black"/>
<path d="M8.61084 19.6935L9.7956 20.8782L9.00578 21.6681L7.82102 20.4833L8.61084 19.6935Z" fill="black"/>
<path d="M6.63599 17.7192L7.82075 18.904L7.0309 19.6939L5.84613 18.5091L6.63599 17.7192Z" fill="black"/>
<path d="M7.8208 16.5342L10.9802 19.6936L10.1903 20.4834L7.03095 17.324L7.8208 16.5342Z" fill="black"/>
<path d="M8.6106 5.47717L5.45122 8.63655L4.66136 7.8467L7.82074 4.68732L8.6106 5.47717Z" fill="black"/>
<path d="M9.79541 6.66174L6.63603 9.82112L5.84618 9.03127L9.00556 5.87189L9.79541 6.66174Z" fill="black"/>
<path d="M10.9812 7.84729L7.82182 11.0067L7.03201 10.2168L10.1914 7.05747L10.9812 7.84729Z" fill="black"/>
</g>
<defs>
<clipPath id="clip0_12_2577">
<rect width="25.6952" height="25.6952" fill="white" transform="translate(0.896973 0.924072)"/>
</clipPath>
</defs>
</svg>
