<svg width="27" height="27" viewBox="0 0 27 27" fill="none" xmlns="http://www.w3.org/2000/svg">
<circle cx="13.7151" cy="13.3724" r="13.2759" fill="white"/>
<g clip-path="url(#clip0_12_2472)">
<path d="M13.8178 26.3228C20.9134 26.3228 26.6654 20.5707 26.6654 13.4752C26.6654 6.37963 20.9134 0.627563 13.8178 0.627563C6.72229 0.627563 0.970215 6.37963 0.970215 13.4752C0.970215 20.5707 6.72229 26.3228 13.8178 26.3228Z" fill="#6DA544"/>
<path d="M8.23193 15.9889C8.23193 16.9144 8.98221 17.6647 9.90769 17.6647H14.935C14.935 18.4359 15.5602 19.0611 16.3315 19.0611H18.0073C18.7785 19.0611 19.4037 18.4359 19.4037 17.6647V15.9889H8.23193Z" fill="#F0F0F0"/>
<path d="M19.5435 7.88928V11.7994C19.5435 12.4155 19.0423 12.9166 18.4263 12.9166V14.5924C19.9663 14.5924 21.2192 13.3394 21.2192 11.7994V7.88928H19.5435Z" fill="#F0F0F0"/>
<path d="M7.53369 11.7994C7.53369 12.4155 7.03254 12.9166 6.4165 12.9166V14.5924C7.95656 14.5924 9.20945 13.3394 9.20945 11.7994V7.88928H7.53369V11.7994Z" fill="#F0F0F0"/>
<path d="M17.0298 7.88928H18.7055V11.7994H17.0298V7.88928Z" fill="#F0F0F0"/>
<path d="M14.5161 10.1235C14.5161 10.2776 14.3908 10.4028 14.2368 10.4028C14.0828 10.4028 13.9575 10.2775 13.9575 10.1235V7.88916H12.2817V10.1235C12.2817 10.2776 12.1564 10.4028 12.0025 10.4028C11.8485 10.4028 11.7232 10.2775 11.7232 10.1235V7.88916H10.0474V10.1235C10.0474 11.2016 10.9244 12.0786 12.0025 12.0786C12.4176 12.0786 12.8027 11.9482 13.1196 11.7265C13.4366 11.9481 13.8216 12.0786 14.2368 12.0786C14.3204 12.0786 14.4027 12.0728 14.4835 12.0625C14.3648 12.5517 13.9241 12.9165 13.3989 12.9165V14.5922C14.939 14.5922 16.1919 13.3393 16.1919 11.7993V10.1235V7.88916H14.5161V10.1235H14.5161Z" fill="#F0F0F0"/>
<path d="M10.0474 12.9166H12.561V14.5924H10.0474V12.9166Z" fill="#F0F0F0"/>
</g>
<defs>
<clipPath id="clip0_12_2472">
<rect width="25.6952" height="25.6952" fill="white" transform="translate(0.970215 0.627563)"/>
</clipPath>
</defs>
</svg>
