<svg width="27" height="28" viewBox="0 0 27 28" fill="none" xmlns="http://www.w3.org/2000/svg">
<circle cx="13.3196" cy="13.8483" r="13.2759" fill="white"/>
<g clip-path="url(#clip0_12_2442)">
<path d="M13.4223 26.7986C20.5179 26.7986 26.2699 21.0465 26.2699 13.951C26.2699 6.85546 20.5179 1.10339 13.4223 1.10339C6.32678 1.10339 0.574707 6.85546 0.574707 13.951C0.574707 21.0465 6.32678 26.7986 13.4223 26.7986Z" fill="#D80027"/>
<path d="M21.0149 11.647H15.2147L13.4224 6.13074L11.63 11.647H5.82983L10.5223 15.0562L8.72988 20.5726L13.4224 17.1633L18.1149 20.5727L16.3225 15.0563L21.0149 11.647ZM11.8356 14.6295L12.4417 12.7641H14.403L15.0092 14.6295V14.6295L13.4224 15.7824L11.8356 14.6295L11.8356 14.6295ZM14.0401 11.647H12.8047L13.4224 9.74593L14.0401 11.647ZM15.9594 13.9391L15.5777 12.7642H17.5765L15.9594 13.9391ZM11.267 12.7642L10.8853 13.9391L9.26813 12.7642H11.267ZM10.8549 17.6478L11.4726 15.7468L12.472 16.4729L10.8549 17.6478ZM14.3727 16.4729L15.3721 15.7468L15.9898 17.6478L14.3727 16.4729Z" fill="#FFDA44"/>
</g>
<defs>
<clipPath id="clip0_12_2442">
<rect width="25.6952" height="25.6952" fill="white" transform="translate(0.574707 1.10339)"/>
</clipPath>
</defs>
</svg>
