<svg width="27" height="28" viewBox="0 0 27 28" fill="none" xmlns="http://www.w3.org/2000/svg">
<circle cx="13.7151" cy="13.8483" r="13.2759" fill="white"/>
<g clip-path="url(#clip0_12_2475)">
<path d="M13.8178 26.7986C20.9134 26.7986 26.6654 21.0465 26.6654 13.951C26.6654 6.85546 20.9134 1.10339 13.8178 1.10339C6.72229 1.10339 0.970215 6.85546 0.970215 13.951C0.970215 21.0465 6.72229 26.7986 13.8178 26.7986Z" fill="#F0F0F0"/>
<path d="M26.6655 13.951C26.6655 8.85738 23.7013 4.45627 19.4038 2.37817V25.5237C23.7013 23.4456 26.6655 19.0445 26.6655 13.951V13.951Z" fill="#D80027"/>
<path d="M0.970215 13.951C0.970215 19.0445 3.93445 23.4456 8.23192 25.5237V2.37817C3.93445 4.45627 0.970215 8.85738 0.970215 13.951Z" fill="#6DA544"/>
<path d="M10.4663 13.9511C10.4663 15.8021 11.9669 17.3026 13.8179 17.3026C15.6689 17.3026 17.1694 15.8021 17.1694 13.9511V12.8339H10.4663V13.9511Z" fill="#6DA544"/>
<path d="M18.2866 11.7167H14.9351C14.9351 11.0997 14.4349 10.5995 13.8179 10.5995C13.2009 10.5995 12.7007 11.0997 12.7007 11.7167H9.34912C9.34912 12.3337 9.88656 12.8339 10.5035 12.8339H10.4663C10.4663 13.4509 10.9665 13.9511 11.5835 13.9511C11.5835 14.5681 12.0837 15.0682 12.7007 15.0682H14.9351C15.5521 15.0682 16.0523 14.5681 16.0523 13.9511C16.6693 13.9511 17.1695 13.4509 17.1695 12.8339H17.1322C17.7492 12.8339 18.2866 12.3337 18.2866 11.7167Z" fill="#FF9811"/>
</g>
<defs>
<clipPath id="clip0_12_2475">
<rect width="25.6952" height="25.6952" fill="white" transform="translate(0.970215 1.10339)"/>
</clipPath>
</defs>
</svg>
