<svg width="27" height="27" viewBox="0 0 27 27" fill="none" xmlns="http://www.w3.org/2000/svg">
<circle cx="13.4551" cy="13.6689" r="13.2759" fill="white"/>
<g clip-path="url(#clip0_12_2346)">
<path d="M13.5581 26.6193C20.6536 26.6193 26.4057 20.8672 26.4057 13.7717C26.4057 6.67614 20.6536 0.924072 13.5581 0.924072C6.46252 0.924072 0.710449 6.67614 0.710449 13.7717C0.710449 20.8672 6.46252 26.6193 13.5581 26.6193Z" fill="#F0F0F0"/>
<path d="M13.558 0.924072C8.034 0.924072 3.3248 4.41059 1.50952 9.30297H25.6066C23.7912 4.41059 19.082 0.924072 13.558 0.924072V0.924072Z" fill="#A2001D"/>
<path d="M13.558 26.6193C19.082 26.6193 23.7912 23.1327 25.6065 18.2404H1.50952C3.3248 23.1327 8.034 26.6193 13.558 26.6193Z" fill="#0052B4"/>
</g>
<defs>
<clipPath id="clip0_12_2346">
<rect width="25.6952" height="25.6952" fill="white" transform="translate(0.710449 0.924072)"/>
</clipPath>
</defs>
</svg>
