<svg width="28" height="27" viewBox="0 0 28 27" fill="none" xmlns="http://www.w3.org/2000/svg">
<circle cx="14.1106" cy="13.5517" r="13.2759" fill="white"/>
<g clip-path="url(#clip0_12_2568)">
<path d="M1.36572 13.6545C1.36572 19.1784 4.85224 23.8876 9.74452 25.7029L10.8618 13.6544L9.74452 1.60596C4.85224 3.42128 1.36572 8.13043 1.36572 13.6545Z" fill="#6DA544"/>
<path d="M27.061 13.6545C27.061 6.559 21.3089 0.806885 14.2134 0.806885C12.6419 0.806885 11.1365 1.08958 9.74463 1.606V25.703C11.1365 26.2195 12.6419 26.5021 14.2134 26.5021C21.3089 26.5021 27.061 20.75 27.061 13.6545Z" fill="#D80027"/>
<path fill-rule="evenodd" clip-rule="evenodd" d="M12.8627 16.1326C11.6649 16.0965 6.17219 12.668 6.13452 12.122L6.43783 11.6162C6.98265 12.4079 12.5978 15.7422 13.1493 15.624L12.8627 16.1324" fill="#FFFF00"/>
<path d="M12.8627 16.1326C11.6649 16.0965 6.17219 12.668 6.13452 12.122L6.43783 11.6162C6.98265 12.4079 12.5978 15.7422 13.1493 15.624L12.8627 16.1324" stroke="black" stroke-width="0.00368742" stroke-linecap="round" stroke-linejoin="round"/>
<path fill-rule="evenodd" clip-rule="evenodd" d="M6.37394 11.5475C6.26648 11.8367 7.80723 12.7893 9.66102 13.9167C11.5147 15.0441 13.1131 15.7409 13.2316 15.6409C13.2388 15.628 13.2899 15.5402 13.2852 15.5409C13.263 15.5744 13.2089 15.5849 13.1246 15.5606C12.6238 15.4162 11.3176 14.8166 9.69989 13.8356C8.08226 12.8546 6.67486 11.9505 6.45611 11.5664C6.4409 11.5398 6.43006 11.4912 6.43226 11.4534L6.42695 11.4534L6.38037 11.5348L6.37397 11.5475H6.37394L6.37394 11.5475ZM12.8908 16.1485C12.8704 16.1853 12.8326 16.1865 12.7606 16.1786C12.3126 16.1291 10.9531 15.4679 9.34435 14.5049C7.47249 13.3844 5.92655 12.3634 6.09427 12.0966L6.1399 12.0159L6.14889 12.0187C5.99807 12.4709 9.19985 14.3017 9.38834 14.4184C11.2409 15.5661 12.8028 16.2364 12.941 16.0622L12.8907 16.1487V16.1486L12.8908 16.1485Z" fill="#FFFF00" stroke="black" stroke-width="0.00368742" stroke-linecap="round" stroke-linejoin="round"/>
<path fill-rule="evenodd" clip-rule="evenodd" d="M9.7671 12.4527C10.966 12.4432 12.4454 12.2889 13.2968 11.9496L13.1134 11.6515C12.6102 11.93 11.1226 12.1132 9.75697 12.1406C8.1418 12.1257 7.00172 11.9753 6.43048 11.592L6.25732 11.9094C7.30741 12.3538 8.38346 12.4481 9.76711 12.4527" fill="#FFFF00"/>
<path d="M9.7671 12.4527C10.966 12.4432 12.4454 12.2889 13.2968 11.9496L13.1134 11.6515C12.6102 11.93 11.1226 12.1132 9.75697 12.1406C8.1418 12.1257 7.00172 11.9753 6.43048 11.592L6.25732 11.9094C7.30741 12.3538 8.38346 12.4481 9.76711 12.4527" stroke="black" stroke-width="0.00368742" stroke-linecap="round" stroke-linejoin="round"/>
<path fill-rule="evenodd" clip-rule="evenodd" d="M13.3462 11.9564C13.3169 12.0032 12.7617 12.1947 11.9437 12.336C11.3891 12.4206 10.6656 12.4929 9.76281 12.4937C8.90506 12.4945 8.20438 12.4335 7.6739 12.3616C6.81525 12.227 6.37208 12.0396 6.20825 11.9734C6.22392 11.9423 6.23399 11.9204 6.2491 11.8913C6.72073 12.0791 7.16595 12.1923 7.68755 12.2726C8.21453 12.344 8.90677 12.4059 9.76027 12.4051C10.6589 12.4042 11.3744 12.3264 11.9258 12.2444C12.7646 12.1091 13.2228 11.935 13.2871 11.8541L13.3463 11.9564H13.3463H13.3462ZM13.1852 11.6541C13.0943 11.7271 12.6413 11.8878 11.8443 12.0151C11.3124 12.0913 10.6361 12.1595 9.77203 12.1604C8.95113 12.1612 8.28045 12.1059 7.77032 12.0316C6.96091 11.9258 6.53012 11.7352 6.37481 11.6796C6.39026 11.6528 6.406 11.6263 6.42215 11.5997C6.543 11.6606 6.95873 11.8293 7.7792 11.9456C8.28355 12.0171 8.95525 12.0704 9.77208 12.0695C10.6321 12.0687 11.3007 11.9991 11.8292 11.9233C12.6303 11.8131 13.0614 11.6082 13.1269 11.5569L13.1853 11.6541V11.6541L13.1852 11.6541Z" fill="#FFFF00" stroke="black" stroke-width="0.00368742" stroke-linecap="round" stroke-linejoin="round"/>
<path fill-rule="evenodd" clip-rule="evenodd" d="M5.83029 13.8971C6.56769 14.2937 8.2055 14.4936 9.75537 14.5074C11.1665 14.5096 13.005 14.2892 13.6925 13.9249L13.6735 13.528C13.4585 13.8641 11.4883 14.1865 9.74006 14.1733C7.99178 14.1601 6.36833 13.8901 5.82715 13.5405L5.8303 13.897" fill="#FFFF00"/>
<path d="M5.83029 13.8971C6.56769 14.2937 8.2055 14.4936 9.75537 14.5074C11.1665 14.5096 13.005 14.2892 13.6925 13.9249L13.6735 13.528C13.4585 13.8641 11.4883 14.1865 9.74006 14.1733C7.99178 14.1601 6.36833 13.8901 5.82715 13.5405L5.8303 13.897" stroke="black" stroke-width="0.00368742" stroke-linecap="round" stroke-linejoin="round"/>
<path fill-rule="evenodd" clip-rule="evenodd" d="M13.7301 13.84L13.7301 13.9347C13.6268 14.0582 12.9789 14.245 12.1665 14.3765C11.5481 14.4713 10.742 14.5428 9.73745 14.5428C8.78312 14.5428 8.02208 14.4747 7.4319 14.3841C6.49898 14.2483 5.90225 14.0104 5.78247 13.9394L5.78299 13.8289C6.14281 14.0682 7.11764 14.2432 7.44499 14.2967C8.03133 14.3867 8.78785 14.4543 9.73742 14.4543C10.7372 14.4543 11.5389 14.3832 12.1533 14.2891C12.7362 14.2049 13.5666 13.9859 13.7301 13.8401H13.7301L13.7301 13.84ZM13.7305 13.5033L13.7305 13.598C13.6272 13.7215 12.9793 13.9082 12.1669 14.0397C11.5485 14.1345 10.7424 14.206 9.73784 14.206C8.78352 14.206 8.02248 14.138 7.43229 14.0473C6.49938 13.9115 5.90265 13.6737 5.78287 13.6026L5.78339 13.4922C6.1432 13.7314 7.11804 13.9064 7.44539 13.9599C8.03173 14.05 8.78824 14.1175 9.73781 14.1175C10.7376 14.1175 11.5393 14.0465 12.1537 13.9522C12.7366 13.868 13.567 13.6491 13.7305 13.5032L13.7305 13.5033L13.7305 13.5033Z" fill="#FFFF00" stroke="black" stroke-width="0.00368742" stroke-linecap="round" stroke-linejoin="round"/>
<path fill-rule="evenodd" clip-rule="evenodd" d="M9.75201 16.0644C8.05611 16.0543 6.60299 15.6021 6.29614 15.5274L6.5199 15.8777C7.06191 16.1057 8.47954 16.4454 9.76828 16.4078C11.0571 16.3702 12.1833 16.2704 12.977 15.884L13.2065 15.521C12.6656 15.7757 10.8248 16.0618 9.75199 16.0644" fill="#FFFF00"/>
<path d="M9.75201 16.0644C8.05611 16.0543 6.60299 15.6021 6.29614 15.5274L6.5199 15.8777C7.06191 16.1057 8.47954 16.4454 9.76828 16.4078C11.0571 16.3702 12.1833 16.2704 12.977 15.884L13.2065 15.521C12.6656 15.7757 10.8248 16.0618 9.75199 16.0644" stroke="black" stroke-width="0.00368742" stroke-linecap="round" stroke-linejoin="round"/>
<path fill-rule="evenodd" clip-rule="evenodd" d="M13.0631 15.8028C13.0294 15.8543 12.995 15.9052 12.9602 15.9546C12.5858 16.0866 11.9959 16.2252 11.747 16.2656C11.2386 16.3704 10.4519 16.4478 9.75367 16.4481C8.25135 16.4261 7.02161 16.1321 6.44308 15.8812L6.3964 15.8009L6.40402 15.7889L6.48319 15.8196C7.51202 16.1877 8.66753 16.3345 9.76214 16.3609C10.4575 16.3633 11.1536 16.2812 11.7166 16.1805C12.5798 16.0075 12.9288 15.8772 13.0359 15.8181L13.0631 15.8028H13.0631L13.0631 15.8028ZM13.2621 15.4747C13.2629 15.4757 13.2638 15.4767 13.2646 15.4778C13.2394 15.5203 13.2135 15.5636 13.1868 15.6071C12.9872 15.6785 12.4453 15.837 11.654 15.9477C11.1327 16.0187 10.8086 16.0875 9.7715 16.1076C7.82807 16.0582 6.56979 15.6782 6.27087 15.5844L6.22656 15.4995C7.35285 15.7935 8.50333 15.9987 9.77156 16.0197C10.7204 15.9995 11.1241 15.9296 11.6411 15.8591C12.5638 15.7157 13.0287 15.5637 13.1682 15.5199C13.1665 15.5174 13.1644 15.5147 13.1621 15.512L13.2622 15.4746L13.2621 15.4747L13.2621 15.4747Z" fill="#FFFF00" stroke="black" stroke-width="0.00353941" stroke-linecap="round" stroke-linejoin="round"/>
<path fill-rule="evenodd" clip-rule="evenodd" d="M13.2825 13.584C13.288 14.6996 12.7171 15.7007 12.2572 16.1424C11.6066 16.7672 10.7441 17.1691 9.73672 17.1876C8.61186 17.2083 7.55123 16.475 7.26675 16.1528C6.71054 15.523 6.2577 14.7232 6.24319 13.6453C6.31209 12.4277 6.79008 11.5795 7.48296 10.9979C8.17584 10.4163 9.0984 10.133 9.86674 10.1533C10.7532 10.1767 11.7888 10.6116 12.5043 11.4749C12.9731 12.0405 13.1761 12.6544 13.2825 13.584ZM9.74628 9.76404C11.9066 9.76404 13.6833 11.522 13.6833 13.6776C13.6833 15.8331 11.9066 17.5912 9.74628 17.5912C7.58597 17.5912 5.82397 15.8331 5.82397 13.6776C5.82397 11.522 7.58597 9.76404 9.74628 9.76404" fill="#FFFF00"/>
<path d="M9.74628 9.76404C11.9066 9.76404 13.6833 11.522 13.6833 13.6776C13.6833 15.8331 11.9066 17.5912 9.74628 17.5912C7.58597 17.5912 5.82397 15.8331 5.82397 13.6776C5.82397 11.522 7.58597 9.76404 9.74628 9.76404M13.2825 13.584C13.288 14.6996 12.7171 15.7007 12.2572 16.1424C11.6066 16.7672 10.7441 17.1691 9.73672 17.1876C8.61186 17.2083 7.55123 16.475 7.26675 16.1528C6.71054 15.523 6.2577 14.7232 6.24319 13.6453C6.31209 12.4277 6.79008 11.5795 7.48296 10.9979C8.17584 10.4163 9.0984 10.133 9.86674 10.1533C10.7532 10.1767 11.7888 10.6116 12.5043 11.4749C12.9731 12.0405 13.1761 12.6544 13.2825 13.584Z" stroke="black" stroke-width="0.00368742" stroke-linecap="round" stroke-linejoin="round"/>
<path fill-rule="evenodd" clip-rule="evenodd" d="M9.75681 9.75061C11.9191 9.75061 13.6826 11.5143 13.6826 13.6768C13.6826 15.8392 11.919 17.6029 9.75681 17.6029C7.59455 17.6029 5.83105 15.8393 5.83105 13.6768C5.83105 11.5143 7.59459 9.75061 9.75681 9.75061V9.75061ZM5.91745 13.6768C5.91745 15.7886 7.65157 17.5166 9.75681 17.5166C11.8621 17.5166 13.5962 15.7886 13.5962 13.6768C13.5962 11.565 11.862 9.83698 9.75681 9.83698C7.65157 9.83698 5.91745 11.5651 5.91745 13.6768Z" fill="#FFFF00" stroke="black" stroke-width="0.00368742" stroke-linecap="round" stroke-linejoin="round"/>
<path fill-rule="evenodd" clip-rule="evenodd" d="M9.76001 10.0769C11.7318 10.0769 13.356 11.6954 13.356 13.6733C13.356 15.6512 11.7318 17.2696 9.76001 17.2696C7.78823 17.2696 6.16406 15.6512 6.16406 13.6733C6.16406 11.6954 7.78827 10.0769 9.76001 10.0769V10.0769ZM6.25042 13.6733C6.25042 15.6036 7.83557 17.1832 9.76001 17.1832C11.6844 17.1832 13.2696 15.6036 13.2696 13.6733C13.2696 11.7429 11.6845 10.1633 9.76001 10.1633C7.83557 10.1633 6.25042 11.7429 6.25042 13.6733Z" fill="#FFFF00" stroke="black" stroke-width="0.00368742" stroke-linecap="round" stroke-linejoin="round"/>
<path fill-rule="evenodd" clip-rule="evenodd" d="M9.91823 9.73474H9.58179L9.58218 17.6234H9.91978L9.91823 9.73474Z" fill="#FFFF00" stroke="black" stroke-width="0.00368742" stroke-linecap="round" stroke-linejoin="round"/>
<path fill-rule="evenodd" clip-rule="evenodd" d="M9.88444 9.68982H9.97007L9.97081 17.6693H9.8851L9.88447 9.68982H9.88444ZM9.55054 9.68989H9.63684L9.63696 17.6694H9.55059V9.68989H9.55054Z" fill="#FFFF00" stroke="black" stroke-width="0.00368742" stroke-linecap="round" stroke-linejoin="round"/>
<path fill-rule="evenodd" clip-rule="evenodd" d="M13.6852 13.8288V13.5372L13.4477 13.316L12.0996 12.9591L10.1568 12.7609L7.81743 12.8798L6.15215 13.2763L5.81592 13.5253V13.817L6.66759 13.4349L8.68973 13.1177H10.6326L12.06 13.2763L13.0512 13.5142L13.6852 13.8288Z" fill="#FFFF00" stroke="black" stroke-width="0.00368742" stroke-linecap="round" stroke-linejoin="round"/>
<path fill-rule="evenodd" clip-rule="evenodd" d="M9.75829 13.0689C10.6854 13.0672 11.585 13.1568 12.2984 13.2957C13.0347 13.4429 13.5528 13.627 13.73 13.8338L13.7298 13.9362C13.5162 13.6788 12.8189 13.4902 12.2819 13.3823C11.5738 13.2446 10.6803 13.1557 9.75829 13.1574C8.78537 13.1592 7.87941 13.2513 7.1817 13.3875C6.62184 13.4986 5.8752 13.7193 5.78198 13.9369V13.8303C5.83317 13.6796 6.38914 13.4545 7.16909 13.2983C7.87204 13.1613 8.77966 13.0707 9.75829 13.0689V13.0689ZM9.75869 12.7322C10.6858 12.7305 11.5853 12.8201 12.2988 12.959C13.0351 13.1062 13.5532 13.2903 13.7304 13.4971L13.7302 13.5994C13.5165 13.3422 12.8193 13.1535 12.2823 13.0457C11.5742 12.9079 10.6807 12.819 9.75869 12.8207C8.78576 12.8225 7.88421 12.9147 7.18641 13.0508C6.64615 13.1532 5.86901 13.3826 5.78234 13.6003V13.4936C5.83353 13.3446 6.40076 13.1113 7.16948 12.9616C7.87243 12.8246 8.78005 12.7341 9.75869 12.7322V12.7322Z" fill="#FFFF00" stroke="black" stroke-width="0.00368742" stroke-linecap="round" stroke-linejoin="round"/>
<path fill-rule="evenodd" clip-rule="evenodd" d="M9.73987 11.0146C11.2009 11.0073 12.4753 11.2189 13.0583 11.5175L13.271 11.8855C12.7643 11.6123 11.3894 11.3284 9.742 11.3708C8.3997 11.3791 6.96545 11.5186 6.24585 11.9025L6.49975 11.4779C7.09033 11.1717 8.4831 11.0163 9.73992 11.0147" fill="#FFFF00"/>
<path d="M9.73987 11.0146C11.2009 11.0073 12.4753 11.2189 13.0583 11.5175L13.271 11.8855C12.7643 11.6123 11.3894 11.3284 9.742 11.3708C8.3997 11.3791 6.96545 11.5186 6.24585 11.9025L6.49975 11.4779C7.09033 11.1717 8.4831 11.0163 9.73992 11.0147" stroke="black" stroke-width="0.00368742" stroke-linecap="round" stroke-linejoin="round"/>
<path fill-rule="evenodd" clip-rule="evenodd" d="M9.75903 11.3183C10.5924 11.3161 11.3976 11.3631 12.0379 11.4786C12.6343 11.5896 13.203 11.7562 13.2844 11.8458L13.3474 11.9572C13.1496 11.8281 12.6575 11.6843 12.0255 11.5644C11.3909 11.4451 10.5862 11.4056 9.75757 11.4078C8.817 11.4046 8.08626 11.4542 7.45912 11.5636C6.79586 11.6877 6.33568 11.865 6.22217 11.9492L6.28395 11.8315C6.50453 11.7189 6.85451 11.5833 7.44264 11.4774C8.09119 11.3589 8.8297 11.3234 9.75909 11.3183H9.75905L9.75903 11.3183ZM9.75868 10.9819C10.5562 10.9798 11.3436 11.0242 11.9573 11.1346C12.4414 11.2288 12.9201 11.3759 13.0954 11.5068L13.1876 11.6534C13.0309 11.4791 12.4408 11.314 11.9199 11.2215C11.3108 11.1164 10.5561 11.0749 9.75866 11.0682C8.92174 11.0706 8.14829 11.1218 7.54811 11.2311C6.97553 11.3401 6.60604 11.4691 6.4497 11.5698L6.53079 11.4474C6.74653 11.3338 7.09508 11.2295 7.53404 11.1442C8.13866 11.0342 8.91686 10.9842 9.75871 10.9819H9.75868Z" fill="#FFFF00" stroke="black" stroke-width="0.00368742" stroke-linecap="round" stroke-linejoin="round"/>
<path fill-rule="evenodd" clip-rule="evenodd" d="M11.7092 15.3087C10.9869 15.1739 10.2633 15.1543 9.7578 15.1603C7.32304 15.1888 6.53651 15.6602 6.44051 15.8029L6.25854 15.5063C6.87843 15.057 8.20427 14.805 9.77099 14.8308C10.5845 14.8441 11.2866 14.8981 11.8771 15.0125L11.7092 15.3088" fill="#FFFF00"/>
<path d="M11.7092 15.3087C10.9869 15.1739 10.2633 15.1543 9.7578 15.1603C7.32304 15.1888 6.53651 15.6602 6.44051 15.8029L6.25854 15.5063C6.87843 15.057 8.20427 14.805 9.77099 14.8308C10.5845 14.8441 11.2866 14.8981 11.8771 15.0125L11.7092 15.3088" stroke="black" stroke-width="0.00368742" stroke-linecap="round" stroke-linejoin="round"/>
<path fill-rule="evenodd" clip-rule="evenodd" d="M9.74376 15.1184C10.4211 15.1285 11.0859 15.1565 11.7275 15.2762L11.6811 15.3582C11.0851 15.2482 10.4498 15.2061 9.74606 15.2095C8.84747 15.2025 7.93862 15.2864 7.14738 15.5135C6.89771 15.583 6.48439 15.7435 6.44225 15.8761L6.39602 15.7999C6.40934 15.7215 6.65915 15.5588 7.12613 15.4276C8.03244 15.1681 8.88019 15.1243 9.74376 15.1184V15.1184L9.74376 15.1184ZM9.77449 14.7776C10.4762 14.7907 11.2009 14.8232 11.9053 14.9627L11.8569 15.0481C11.2208 14.9218 10.6131 14.8797 9.77863 14.8669C8.8772 14.8685 7.921 14.9328 7.05161 15.1855C6.77092 15.2673 6.28649 15.4441 6.27035 15.584L6.22412 15.5021C6.23465 15.375 6.654 15.2092 7.03131 15.0994C7.90741 14.8447 8.8661 14.7792 9.77451 14.7776L9.77449 14.7776Z" fill="#FFFF00" stroke="black" stroke-width="0.00353941" stroke-linecap="round" stroke-linejoin="round"/>
<path fill-rule="evenodd" clip-rule="evenodd" d="M13.2329 15.5514L12.9403 16.0053L12.0997 15.2588L9.91893 13.7917L7.46065 12.4436L6.18433 12.0071L6.45632 11.5027L6.54871 11.4524L7.3417 11.6506L9.95858 12.9987L11.4653 13.9503L12.7341 14.8623L13.2495 15.457L13.2329 15.5514Z" fill="#FFFF00" stroke="black" stroke-width="0.00368742" stroke-linecap="round" stroke-linejoin="round"/>
<path fill-rule="evenodd" clip-rule="evenodd" d="M6.13831 12.019C6.36217 11.8672 8.00735 12.6001 9.72878 13.6381C11.4457 14.6791 13.0862 15.8553 12.9381 16.0755L12.8894 16.1521L12.8671 16.1697C12.8718 16.1663 12.8965 16.1361 12.8646 16.0545C12.7915 15.8138 11.6278 14.8852 9.69687 13.7193C7.8145 12.5969 6.24572 11.9204 6.08887 12.1138L6.13831 12.019H6.13828L6.13831 12.019ZM13.2927 15.545C13.4342 15.2654 11.9083 14.1158 10.0164 12.9966C8.08094 11.8997 6.68603 11.254 6.43124 11.4465L6.37463 11.5496C6.37414 11.5552 6.37669 11.5425 6.38865 11.5333C6.43498 11.4929 6.51177 11.4956 6.54642 11.495C6.98515 11.5015 8.23816 12.0782 9.99618 13.086C10.7665 13.5347 13.2503 15.1276 13.2408 15.5756C13.2415 15.6141 13.244 15.622 13.2295 15.6411L13.2927 15.545V15.5449L13.2927 15.545Z" fill="#FFFF00" stroke="black" stroke-width="0.00368742" stroke-linecap="round" stroke-linejoin="round"/>
<path d="M7.40534 14.1094C7.40534 14.7546 7.66952 15.338 8.09751 15.7645C8.52632 16.1918 9.10905 16.4615 9.75522 16.4615C10.4047 16.4615 10.9942 16.1977 11.4211 15.772C11.8481 15.3464 12.1127 14.7589 12.1129 14.1115H12.1128V10.9717L7.40479 10.9661L7.40527 14.1094H7.40535L7.40534 14.1094Z" fill="white" stroke="black" stroke-width="0.00431402"/>
<path d="M7.49323 14.1137V14.1155C7.49323 14.7323 7.74863 15.2941 8.15835 15.7019C8.56889 16.1104 9.13429 16.3645 9.75283 16.3645C10.3746 16.3645 10.9388 16.1123 11.3476 15.7053C11.7563 15.2983 12.0096 14.7365 12.0097 14.1175H12.0096V11.0714L7.49593 11.0707L7.49316 14.1137L7.49323 14.1137ZM11.1022 11.9827L11.1023 13.9212L11.1007 14.1262H11.1007C11.1007 14.1802 11.0975 14.2417 11.0912 14.2941C11.0545 14.6005 10.9135 14.8677 10.7048 15.0755C10.4604 15.3188 10.1231 15.4697 9.75132 15.4697C9.3815 15.4697 9.05194 15.3135 8.80651 15.0692C8.55474 14.8186 8.40882 14.475 8.40882 14.1197L8.4083 11.9777L11.1021 11.9826L11.1022 11.9827L11.1022 11.9827Z" fill="#FF0000" stroke="black" stroke-width="0.00326488"/>
<path d="M7.7854 11.866C7.79075 11.6471 7.94608 11.5953 7.94719 11.5945C7.94831 11.5938 8.11497 11.6503 8.11441 11.868L7.7854 11.866" fill="#FFFF00"/>
<path d="M7.65154 11.5987L7.62451 11.8503L7.78868 11.8507C7.79026 11.6425 7.94625 11.6079 7.95002 11.6087C7.95356 11.6085 8.10818 11.6547 8.11231 11.8507H8.2769L8.24717 11.5972L7.65156 11.5987V11.5988L7.65154 11.5987Z" fill="#FFFF00" stroke="black" stroke-width="0.00321764"/>
<path d="M7.61338 11.8513H8.28529C8.29945 11.8513 8.31102 11.8653 8.31102 11.8824C8.31102 11.8995 8.29945 11.9134 8.28529 11.9134H7.61338C7.59922 11.9134 7.58765 11.8995 7.58765 11.8824C7.58765 11.8653 7.59922 11.8513 7.61338 11.8513Z" fill="#FFFF00" stroke="black" stroke-width="0.00321764"/>
<path d="M7.85767 11.8501C7.8584 11.7187 7.94736 11.6816 7.94781 11.6816C7.94785 11.6816 8.04069 11.72 8.04142 11.8501H7.85767" fill="#FFFF00"/>
<path d="M7.85767 11.8501C7.8584 11.7187 7.94736 11.6816 7.94781 11.6816C7.94785 11.6816 8.04069 11.72 8.04142 11.8501H7.85767" stroke="black" stroke-width="0.00321764"/>
<path d="M7.62771 11.494H8.27182C8.28539 11.494 8.29651 11.5066 8.29651 11.522C8.29651 11.5373 8.28539 11.5499 8.27182 11.5499H7.62771C7.61415 11.5499 7.60303 11.5374 7.60303 11.522C7.60303 11.5066 7.61415 11.494 7.62771 11.494Z" fill="#FFFF00" stroke="black" stroke-width="0.00321764"/>
<path d="M7.64128 11.5503H8.25736C8.27033 11.5503 8.28096 11.5628 8.28096 11.5782C8.28096 11.5936 8.27033 11.6061 8.25736 11.6061H7.64128C7.62831 11.6061 7.61768 11.5936 7.61768 11.5782C7.61768 11.5628 7.62831 11.5503 7.64128 11.5503Z" fill="#FFFF00" stroke="black" stroke-width="0.00321764"/>
<path d="M7.84015 11.1305L7.88879 11.1305V11.1651H7.92428V11.1298L7.97411 11.1299V11.1651H8.0097V11.1298H8.05957L8.05949 11.2095C8.05949 11.2221 8.04942 11.2302 8.03774 11.2302H7.86283C7.85108 11.2302 7.84024 11.2208 7.84021 11.2093L7.84009 11.1305H7.84012L7.84015 11.1305Z" fill="#FFFF00" stroke="black" stroke-width="0.00321764"/>
<path d="M8.02339 11.2371L8.03437 11.4929L7.86377 11.4923L7.87506 11.2365L8.02339 11.2371" fill="#FFFF00"/>
<path d="M8.02339 11.2371L8.03437 11.4929L7.86377 11.4923L7.87506 11.2365L8.02339 11.2371" stroke="black" stroke-width="0.00321764"/>
<path d="M7.81535 11.3557L7.82056 11.4936L7.65698 11.4937L7.6616 11.3557H7.81538H7.81535L7.81535 11.3557Z" fill="#FFFF00" stroke="black" stroke-width="0.00321764"/>
<path d="M7.63116 11.2557L7.67872 11.2558V11.2904H7.71351V11.255L7.76226 11.2552V11.2904H7.79712V11.255L7.8459 11.2551L7.84582 11.3349C7.84582 11.3473 7.83596 11.3554 7.82456 11.3554H7.65339C7.64192 11.3554 7.63126 11.3461 7.63122 11.3346L7.6311 11.2557H7.63114L7.63116 11.2557Z" fill="#FFFF00" stroke="black" stroke-width="0.00321764"/>
<path d="M7.93264 11.3179C7.93159 11.2931 7.9674 11.2928 7.96698 11.3179V11.3789H7.93264V11.318" fill="black"/>
<path d="M7.72119 11.4064C7.72107 11.3824 7.75438 11.3819 7.75396 11.4064V11.4535H7.72121V11.4064" fill="black"/>
<path d="M9.46828 13.7682V13.7684C9.46828 13.8561 9.50195 13.936 9.55598 13.994C9.61011 14.0521 9.68466 14.0883 9.7662 14.0883C9.84817 14.0883 9.92258 14.0524 9.97646 13.9945C10.0303 13.9366 10.0638 13.8568 10.0638 13.7687V13.3418L9.46934 13.3413L9.46826 13.7682" fill="#003399"/>
<path d="M9.60482 13.5627C9.63736 13.5627 9.66374 13.5363 9.66374 13.5037C9.66374 13.4712 9.63736 13.4448 9.60482 13.4448C9.57228 13.4448 9.5459 13.4712 9.5459 13.5037C9.5459 13.5363 9.57228 13.5627 9.60482 13.5627Z" fill="white"/>
<path d="M9.93441 13.5629C9.96695 13.5629 9.99333 13.5365 9.99333 13.504C9.99333 13.4714 9.96695 13.4451 9.93441 13.4451C9.90187 13.4451 9.87549 13.4714 9.87549 13.504C9.87549 13.5365 9.90187 13.5629 9.93441 13.5629Z" fill="white"/>
<path d="M9.76937 13.7212C9.80191 13.7212 9.82829 13.6949 9.82829 13.6623C9.82829 13.6298 9.80191 13.6034 9.76937 13.6034C9.73683 13.6034 9.71045 13.6298 9.71045 13.6623C9.71045 13.6949 9.73683 13.7212 9.76937 13.7212Z" fill="white"/>
<path d="M9.60482 13.887C9.63736 13.887 9.66374 13.8606 9.66374 13.8281C9.66374 13.7955 9.63736 13.7692 9.60482 13.7692C9.57228 13.7692 9.5459 13.7955 9.5459 13.8281C9.5459 13.8606 9.57228 13.887 9.60482 13.887Z" fill="white"/>
<path d="M9.93416 13.8865C9.9667 13.8865 9.99308 13.8601 9.99308 13.8276C9.99308 13.7951 9.9667 13.7687 9.93416 13.7687C9.90162 13.7687 9.87524 13.7951 9.87524 13.8276C9.87524 13.8601 9.90162 13.8865 9.93416 13.8865Z" fill="white"/>
</g>
<defs>
<clipPath id="clip0_12_2568">
<rect width="25.6952" height="25.6952" fill="white" transform="translate(1.36572 0.806885)"/>
</clipPath>
</defs>
</svg>
