<svg width="28" height="27" viewBox="0 0 28 27" fill="none" xmlns="http://www.w3.org/2000/svg">
<circle cx="13.9241" cy="13.5517" r="13.2759" fill="white"/>
<g clip-path="url(#clip0_12_2337)">
<path d="M14.0268 26.5021C21.1223 26.5021 26.8744 20.75 26.8744 13.6545C26.8744 6.55896 21.1223 0.806885 14.0268 0.806885C6.93127 0.806885 1.1792 6.55896 1.1792 13.6545C1.1792 20.75 6.93127 26.5021 14.0268 26.5021Z" fill="#F0F0F0"/>
<path d="M26.8744 13.6545C26.8744 6.559 21.1223 0.806885 14.0268 0.806885C11.5135 0.806885 9.16912 1.52931 7.18888 2.77673L10.005 3.97322L6.20654 5.5871L10.005 7.20093L6.20654 8.81471L10.005 10.4284L6.20654 12.042L10.005 13.6554L6.20654 15.2692L10.005 16.8829L6.20654 18.4964L10.005 20.1101L6.20654 21.7238L10.005 23.3374L7.19014 24.5332C9.17013 25.78 11.514 26.5021 14.0268 26.5021C21.1223 26.5021 26.8744 20.75 26.8744 13.6545Z" fill="#751A46"/>
</g>
<defs>
<clipPath id="clip0_12_2337">
<rect width="25.6952" height="25.6952" fill="white" transform="translate(1.1792 0.806885)"/>
</clipPath>
</defs>
</svg>
