<svg width="28" height="28" viewBox="0 0 28 28" fill="none" xmlns="http://www.w3.org/2000/svg">
<circle cx="13.9241" cy="13.8483" r="13.2759" fill="white"/>
<g clip-path="url(#clip0_12_2343)">
<path d="M19.6127 2.37822C17.9237 1.56149 16.0287 1.10339 14.0268 1.10339C12.0249 1.10339 10.13 1.56149 8.44092 2.37822L7.32373 13.951L8.44092 25.5238C10.13 26.3405 12.0249 26.7986 14.0268 26.7986C16.0287 26.7986 17.9237 26.3405 19.6127 25.5238L20.7299 13.951L19.6127 2.37822Z" fill="#FFDA44"/>
<path d="M14.0267 9.4823L15.1358 12.896H18.7255L15.8216 15.0059L16.9307 18.4197L14.0267 16.3099L11.1227 18.4197L12.2321 15.0059L9.32812 12.896H12.9176L14.0267 9.4823Z" fill="#496E2D"/>
<path d="M8.44091 2.37866C4.14348 4.45671 1.1792 8.85747 1.1792 13.951C1.1792 19.0445 4.14348 23.4453 8.44091 25.5233V2.37866Z" fill="#496E2D"/>
<path d="M19.6128 2.37866V25.5233C23.9102 23.4453 26.8745 19.0445 26.8745 13.951C26.8745 8.85747 23.9102 4.45671 19.6128 2.37866Z" fill="#D80027"/>
</g>
<defs>
<clipPath id="clip0_12_2343">
<rect width="25.6952" height="25.6952" fill="white" transform="translate(1.1792 1.10339)"/>
</clipPath>
</defs>
</svg>
