<svg width="27" height="27" viewBox="0 0 27 27" fill="none" xmlns="http://www.w3.org/2000/svg">
<circle cx="13.7151" cy="13.3724" r="13.2759" fill="white"/>
<g clip-path="url(#clip0_12_2505)">
<path d="M13.8178 26.3228C20.9134 26.3228 26.6654 20.5707 26.6654 13.4752C26.6654 6.37963 20.9134 0.627563 13.8178 0.627563C6.72229 0.627563 0.970215 6.37963 0.970215 13.4752C0.970215 20.5707 6.72229 26.3228 13.8178 26.3228Z" fill="#F0F0F0"/>
<path d="M13.8178 0.627563C6.72233 0.627563 0.970215 6.37968 0.970215 13.4752C0.970215 15.0467 1.25291 16.5521 1.76933 17.9439H25.8664C26.3828 16.5521 26.6654 15.0467 26.6654 13.4752C26.6654 6.37968 20.9133 0.627563 13.8178 0.627563Z" fill="#0052B4"/>
<path d="M13.8178 0.627563C8.29376 0.627563 3.58456 4.11408 1.76929 9.00646H25.8663C24.051 4.11408 19.3418 0.627563 13.8178 0.627563V0.627563Z" fill="#D80027"/>
<path d="M4.29248 7.88928V14.2983C4.29248 17.944 9.05518 19.0611 9.05518 19.0611C9.05518 19.0611 13.8178 17.944 13.8178 14.2983V7.88928H4.29248Z" fill="#D80027"/>
<path d="M6.26221 9.00648H11.8482V6.7721L10.731 7.33067L9.05521 5.65491L7.3794 7.33067L6.26221 6.7721V9.00648Z" fill="#FFDA44"/>
<path d="M12.7007 15.1907L9.06982 11.5598L5.43896 15.1907L6.62391 16.3756L9.06982 13.9297L11.5157 16.3756L12.7007 15.1907Z" fill="#FFDA44"/>
<path d="M12.7007 11.7994H11.0066C11.1018 11.635 11.1573 11.4446 11.1573 11.241C11.1573 10.6239 10.6571 10.1238 10.0401 10.1238C9.61374 10.1238 9.24351 10.3626 9.05517 10.7136C8.86682 10.3626 8.4966 10.1238 8.07027 10.1238C7.45328 10.1238 6.95308 10.6239 6.95308 11.241C6.95308 11.4446 7.00848 11.6351 7.10373 11.7994H5.43896C5.43896 12.4165 5.97641 12.9166 6.59334 12.9166H6.55615C6.55615 13.5337 7.05631 14.0338 7.67334 14.0338C7.67334 14.5801 8.0657 15.034 8.58387 15.1312L7.70361 17.1187C8.12547 17.2901 8.58648 17.3854 9.06987 17.3854C9.55326 17.3854 10.0143 17.2901 10.4361 17.1187L9.55587 15.1312C10.074 15.0341 10.4664 14.5802 10.4664 14.0338C11.0834 14.0338 11.5836 13.5337 11.5836 12.9166H11.5464C12.1633 12.9166 12.7007 12.4164 12.7007 11.7994V11.7994Z" fill="#F0F0F0"/>
</g>
<defs>
<clipPath id="clip0_12_2505">
<rect width="25.6952" height="25.6952" fill="white" transform="translate(0.970215 0.627563)"/>
</clipPath>
</defs>
</svg>
