<svg width="27" height="27" viewBox="0 0 27 27" fill="none" xmlns="http://www.w3.org/2000/svg">
<circle cx="13.6416" cy="13.6689" r="13.2759" fill="white"/>
<g clip-path="url(#clip0_12_2544)">
<path d="M13.7446 26.6193C20.8401 26.6193 26.5922 20.8672 26.5922 13.7717C26.5922 6.67614 20.8401 0.924072 13.7446 0.924072C6.64904 0.924072 0.896973 6.67614 0.896973 13.7717C0.896973 20.8672 6.64904 26.6193 13.7446 26.6193Z" fill="#D80027"/>
<path d="M13.7446 19.9162C17.1381 19.9162 19.8891 17.1652 19.8891 13.7717C19.8891 10.3782 17.1381 7.6272 13.7446 7.6272C10.3511 7.6272 7.6001 10.3782 7.6001 13.7717C7.6001 17.1652 10.3511 19.9162 13.7446 19.9162Z" fill="#F0F0F0"/>
<path d="M14.5015 11.4222L15.5557 12.8749L17.2628 12.3213L16.2071 13.7727L17.2611 15.2253L15.5544 14.6696L14.4987 16.121L14.4998 14.3263L12.7932 13.7706L14.5004 13.2171L14.5015 11.4222Z" fill="#D80027"/>
<path d="M15.1411 17.4026C13.1358 17.4026 11.5102 15.777 11.5102 13.7717C11.5102 11.7665 13.1358 10.1409 15.1411 10.1409C15.7663 10.1409 16.3546 10.299 16.8682 10.5773C16.0625 9.78933 14.9606 9.30298 13.7446 9.30298C11.2766 9.30298 9.27588 11.3037 9.27588 13.7717C9.27588 16.2397 11.2766 18.2404 13.7446 18.2404C14.9606 18.2404 16.0625 17.754 16.8682 16.9661C16.3546 17.2445 15.7663 17.4026 15.1411 17.4026Z" fill="#D80027"/>
</g>
<defs>
<clipPath id="clip0_12_2544">
<rect width="25.6952" height="25.6952" fill="white" transform="translate(0.896973 0.924072)"/>
</clipPath>
</defs>
</svg>
