<svg width="28" height="28" viewBox="0 0 28 28" fill="none" xmlns="http://www.w3.org/2000/svg">
<circle cx="14.1106" cy="13.8483" r="13.2759" fill="white"/>
<g clip-path="url(#clip0_12_2574)">
<path d="M14.2133 26.7986C21.3089 26.7986 27.0609 21.0465 27.0609 13.951C27.0609 6.85546 21.3089 1.10339 14.2133 1.10339C7.11779 1.10339 1.36572 6.85546 1.36572 13.951C1.36572 21.0465 7.11779 26.7986 14.2133 26.7986Z" fill="#F0F0F0"/>
<path d="M14.2134 10.5994H26.6184C26.2963 9.40424 25.8066 8.27802 25.1753 7.2478H14.2134V10.5994Z" fill="#338AF3"/>
<path d="M6.2159 24.0056H22.2108C23.3833 23.0718 24.3888 21.9375 25.1753 20.6541H3.25146C4.03793 21.9374 5.04346 23.0718 6.2159 24.0056V24.0056Z" fill="#338AF3"/>
<path d="M14.2134 1.10339V3.89634H22.2109C20.0162 2.14847 17.237 1.10339 14.2134 1.10339V1.10339Z" fill="#338AF3"/>
<path d="M14.2134 10.5994H26.6184C26.2963 9.40424 25.8066 8.27802 25.1753 7.2478H14.2134V10.5994Z" fill="#338AF3"/>
<path d="M1.36572 13.951C1.36572 15.1107 1.5203 16.234 1.80831 17.3026H26.6184C26.9064 16.234 27.0609 15.1107 27.0609 13.951H1.36572Z" fill="#338AF3"/>
<path d="M12.5376 8.62232L10.9685 9.3604L11.8041 10.88L10.1002 10.5541L9.88434 12.2753L8.69765 11.0094L7.51085 12.2753L7.295 10.5541L5.59118 10.8799L6.42668 9.36035L4.85767 8.62232L6.42673 7.88433L5.59118 6.3647L7.29495 6.69061L7.5109 4.96948L8.69765 6.23537L9.88439 4.96948L10.1002 6.69061L11.8041 6.3647L10.9686 7.88438L12.5376 8.62232Z" fill="#FFDA44"/>
</g>
<defs>
<clipPath id="clip0_12_2574">
<rect width="25.6952" height="25.6952" fill="white" transform="translate(1.36572 1.10339)"/>
</clipPath>
</defs>
</svg>
