<svg width="27" height="28" viewBox="0 0 27 28" fill="none" xmlns="http://www.w3.org/2000/svg">
<circle cx="13.3196" cy="13.8483" r="13.2759" fill="white"/>
<g clip-path="url(#clip0_12_2409)">
<path d="M13.4223 26.7986C20.5179 26.7986 26.2699 21.0465 26.2699 13.951C26.2699 6.85546 20.5179 1.10339 13.4223 1.10339C6.32678 1.10339 0.574707 6.85546 0.574707 13.951C0.574707 21.0465 6.32678 26.7986 13.4223 26.7986Z" fill="#F0F0F0"/>
<path d="M12.8638 13.9511H26.2699C26.2699 12.7915 26.1154 11.6681 25.8274 10.5995H12.8638V13.9511Z" fill="#D80027"/>
<path d="M12.8638 7.24793H24.3843C23.5978 5.96458 22.5922 4.83022 21.4198 3.89636H12.8638V7.24793Z" fill="#D80027"/>
<path d="M13.4222 26.7986C16.4459 26.7986 19.225 25.7535 21.4197 24.0056H5.4248C7.61944 25.7535 10.3986 26.7986 13.4222 26.7986Z" fill="#D80027"/>
<path d="M2.46043 20.6541H24.3843C25.0157 19.6238 25.5053 18.4976 25.8274 17.3025H1.01733C1.33938 18.4976 1.82904 19.6238 2.46043 20.6541V20.6541Z" fill="#D80027"/>
<path d="M6.52596 3.10973H7.69675L6.60771 3.90091L7.02371 5.1811L5.93472 4.38992L4.84573 5.1811L5.20507 4.07516C4.24621 4.87387 3.4058 5.80963 2.71323 6.8523H3.08837L2.39515 7.35591C2.28715 7.53608 2.18357 7.71911 2.0843 7.90485L2.41533 8.92367L1.79774 8.47496C1.64422 8.80022 1.5038 9.1328 1.37758 9.47231L1.74228 10.5949H3.08837L1.99934 11.386L2.41533 12.6662L1.32634 11.8751L0.674025 12.349C0.608733 12.8739 0.574707 13.4084 0.574707 13.951H13.4223C13.4223 6.85551 13.4223 6.01901 13.4223 1.10339C10.8843 1.10339 8.51839 1.83962 6.52596 3.10973V3.10973ZM7.02371 12.6662L5.93472 11.8751L4.84573 12.6662L5.26173 11.386L4.17269 10.5949H5.51878L5.93472 9.31467L6.35066 10.5949H7.69675L6.60771 11.386L7.02371 12.6662ZM6.60771 7.64348L7.02371 8.92367L5.93472 8.13249L4.84573 8.92367L5.26173 7.64348L4.17269 6.8523H5.51878L5.93472 5.5721L6.35066 6.8523H7.69675L6.60771 7.64348ZM11.6321 12.6662L10.5431 11.8751L9.45411 12.6662L9.8701 11.386L8.78107 10.5949H10.1272L10.5431 9.31467L10.959 10.5949H12.3051L11.2161 11.386L11.6321 12.6662ZM11.2161 7.64348L11.6321 8.92367L10.5431 8.13249L9.45411 8.92367L9.8701 7.64348L8.78107 6.8523H10.1272L10.5431 5.5721L10.959 6.8523H12.3051L11.2161 7.64348ZM11.2161 3.90091L11.6321 5.1811L10.5431 4.38992L9.45411 5.1811L9.8701 3.90091L8.78107 3.10973H10.1272L10.5431 1.82953L10.959 3.10973H12.3051L11.2161 3.90091Z" fill="#0052B4"/>
</g>
<defs>
<clipPath id="clip0_12_2409">
<rect width="25.6952" height="25.6952" fill="white" transform="translate(0.574707 1.10339)"/>
</clipPath>
</defs>
</svg>
