<svg width="28" height="27" viewBox="0 0 28 27" fill="none" xmlns="http://www.w3.org/2000/svg">
<circle cx="13.8506" cy="13.6689" r="13.2759" fill="white"/>
<g clip-path="url(#clip0_12_2412)">
<path d="M13.9536 26.6193C21.0491 26.6193 26.8012 20.8672 26.8012 13.7717C26.8012 6.67614 21.0491 0.924072 13.9536 0.924072C6.85803 0.924072 1.10596 6.67614 1.10596 13.7717C1.10596 20.8672 6.85803 26.6193 13.9536 26.6193Z" fill="#F0F0F0"/>
<path d="M26.8012 13.7717C26.8012 20.8672 21.0491 26.6193 13.9536 26.6193C6.85807 26.6193 1.10596 20.8672 1.10596 13.7717" fill="#496E2D"/>
<path d="M9.88518 10.4287C9.19795 10.5329 7.45636 10.6965 6.77686 10.5849L6.90964 10.9048C8.03424 10.8006 9.112 11.1651 10.1117 10.7858L9.88518 10.4287Z" fill="#C8102E" stroke="black" stroke-width="0.00496517"/>
<path d="M7.22174 11.2098C6.79215 11.0834 6.08148 10.347 5.96436 9.90063C6.30016 10.1312 7.10457 10.4288 7.39354 10.399C7.2998 10.466 7.0655 10.6445 6.88587 10.6668C6.97184 10.8305 7.13579 11.0387 7.22174 11.2098Z" fill="#C8102E" stroke="black" stroke-width="0.00496517"/>
<path d="M8.60425 10.9865C8.72926 11.1576 9.38526 11.087 9.71714 10.8787L9.62733 10.7336L9.56096 10.8564L9.45554 10.7411L9.42823 10.9233L9.24469 10.7894L9.21341 10.9494L9.09629 10.808L9.05337 10.9829L8.88152 10.8489L8.81515 11.0312C8.76332 10.9697 8.73434 10.8922 8.73312 10.8118C8.66675 10.8378 8.61208 10.9233 8.60425 10.9865Z" fill="#C8102E" stroke="black" stroke-width="0.00496517"/>
<path d="M8.65894 10.4324C8.65894 10.477 8.7136 10.6072 8.81518 10.6444C8.81909 10.5886 8.74875 10.4584 8.79173 10.4027L8.88154 10.4845L8.9089 10.3282L9.02995 10.4138L9.04163 10.2316L9.16659 10.3134V10.1125C8.96352 10.1311 8.7136 10.3654 8.65894 10.4324Z" fill="#C8102E" stroke="black" stroke-width="0.00496517"/>
<path d="M21.3322 12.4594C21.2795 12.3404 21.1155 12.1954 20.971 12.1061C21.0274 11.974 21.1153 11.765 21.2032 11.5486C20.9845 11.5933 20.5297 11.6263 20.2642 11.5966C20.764 11.1205 21.8105 10.1386 22.1542 9.69226C22.0292 10.3022 22.1229 11.6709 22.3728 12.147C22.1073 12.0428 21.8003 11.8272 21.6286 11.5892C21.5272 11.9309 21.403 12.3033 21.3341 12.4557" fill="#C8102E"/>
<path d="M21.3322 12.4594C21.2795 12.3404 21.1155 12.1954 20.971 12.1061C21.0274 11.974 21.1153 11.765 21.2032 11.5486C20.9845 11.5933 20.5297 11.6263 20.2642 11.5966C20.764 11.1205 21.8105 10.1386 22.1542 9.69226C22.0292 10.3022 22.1229 11.6709 22.3728 12.147C22.1073 12.0428 21.8003 11.8272 21.6286 11.5892C21.5272 11.9309 21.403 12.3033 21.3341 12.4557" stroke="black" stroke-width="0.00496517"/>
<path d="M11.5798 9.84857C11.611 10.0048 11.6188 10.1238 11.736 10.1684C11.8531 10.2131 12.1108 10.3023 12.2749 10.5701C12.0796 10.5181 11.8063 10.4437 11.7828 10.6222C11.7605 10.7921 11.8388 10.7871 11.9703 10.8156C12.1421 10.8528 12.3061 11.0536 12.3139 11.3214C12.1733 11.2396 11.9781 11.1727 11.8531 11.1727C11.7281 11.1727 11.693 11.1949 11.6618 11.3437C11.6102 11.5891 11.7048 11.6041 11.8219 11.6189C11.9391 11.6338 12.189 11.7454 12.2046 12.1545C12.0718 12.0429 11.8055 11.9808 11.6422 11.9537C11.5524 11.9388 11.5368 11.9834 11.5251 12.1397C11.5134 12.2959 11.5329 12.348 11.6891 12.3926C11.8453 12.4372 12.025 12.5488 12.0718 12.7868C11.9234 12.7199 11.6891 12.7422 11.6188 12.7719C11.5485 12.8017 11.5104 12.9679 11.6589 13.2878C11.9783 13.1848 12.3078 13.1165 12.6419 13.0843C13.3801 13.0103 13.2042 12.519 13.2042 11.7454C13.2042 10.9718 14.8286 10.1089 17.2966 8.74023C16.703 10.1833 17.5153 10.0494 17.9682 9.88578C18.4212 9.72209 19.4833 9.30557 20.3112 8.96338C19.1709 9.69234 18.593 10.466 19.5927 10.8082C18.3118 11.1949 17.7183 12.2512 18.4212 12.9207C17.9419 12.759 17.2776 13.0641 16.9994 13.489C17.4992 13.4443 18.468 13.5604 19.0616 13.7241C19.6268 13.8799 20.5598 13.6974 20.6477 13.2173C20.6524 13.1931 20.6547 13.1685 20.6548 13.1439C20.6548 12.9765 20.6117 12.8501 20.5457 12.7581C20.4006 12.5554 20.1462 12.5116 20.0066 12.5116C19.8035 12.5116 19.5927 12.5934 19.5927 12.7347C19.5927 12.8761 19.7176 12.9356 19.9675 12.9356C20.1042 12.9356 20.3148 12.9582 20.5457 12.7581C20.6117 12.8501 20.6548 12.9765 20.6548 13.1439C20.6546 13.1682 20.6521 13.1924 20.6474 13.2163C20.4289 13.3342 20.1846 13.3962 19.9362 13.3968C19.4364 13.3968 18.9679 13.2033 18.9679 12.6827C18.9679 12.162 19.5302 11.8644 19.9831 11.8644C20.6079 11.8644 21.4826 12.1025 21.4826 13.0546C21.4826 14.2597 19.8237 14.8232 18.8396 14.8232C19.0046 14.9551 19.1904 15.0779 19.3896 15.1522C20.0865 15.4126 20.7017 15.7325 20.9203 16.2234C20.6548 16.2234 20.2174 16.0152 20.0144 15.8069C20.5767 16.4615 19.8947 17.6656 19.9675 18.0682C20.0456 18.4996 20.5767 18.2318 20.5767 18.5666C20.5767 18.8641 20.2643 18.812 20.1472 18.6782C20.03 18.5443 19.6544 18.4318 19.4599 18.5666C19.2881 18.6856 19.0226 18.7451 18.9054 18.6261C18.7883 18.5071 18.3587 18.5517 18.1791 18.7154C17.9995 18.879 17.7486 18.8918 17.6714 18.7674C17.5889 18.6343 17.61 18.4724 17.9441 18.4164C17.7957 18.2676 17.3434 18.5219 17.2654 18.2393C17.2092 18.0362 17.3278 17.9417 17.7183 17.9715C17.6792 17.8748 17.3903 17.8302 17.4293 17.6293C17.4684 17.4285 17.6941 17.3041 17.9604 17.5996C18.6711 18.3881 18.9991 17.9492 19.2412 17.607C19.1631 17.4285 19.249 17.3095 19.3974 17.1979C19.3193 17.0714 19.3661 16.8929 19.4208 16.7739C19.3037 16.707 19.2334 16.4094 19.3584 16.3053C19.2568 16.3053 19.1006 16.1936 19.1006 16.0003C18.9613 16.085 18.7827 16.0668 18.6633 15.9557C18.5149 16.0375 18.1244 16.0524 17.9526 15.8738C17.7183 15.9631 17.3043 15.9407 17.1951 15.7697C16.9889 15.8218 16.6093 15.6506 16.5312 15.4647C16.4108 15.4559 16.2938 15.4204 16.1888 15.3606C15.8765 15.5838 15.4535 16.0152 15.8752 16.3425C16.2969 16.6698 17.1716 16.4019 17.1872 17.2202C16.9842 17.0566 16.6093 17.1012 16.4843 16.9375C16.0626 17.5326 15.4535 18.0756 14.5553 18.2988C14.6881 18.3806 14.9302 18.3881 15.0239 18.3806C15.2186 18.3651 15.3831 18.5219 15.2348 18.7079C15.0864 18.8939 14.7818 18.7376 14.6022 18.5815C14.3437 18.3566 14.1726 18.4847 14.1024 18.5368C14.0321 18.5889 13.9383 18.6187 13.8134 18.4996C13.6884 18.3806 13.5713 18.4625 13.5088 18.5368C13.4073 18.6577 13.173 18.3806 12.7981 18.7079C12.6179 18.8653 12.189 18.6633 12.3608 18.4327C12.1811 18.4773 11.8635 18.2288 12.1265 17.9864C12.3686 17.7632 12.8294 18.2765 13.2042 18.1277C13.12 18.0256 12.9444 17.8364 12.5794 17.793C12.392 17.7706 12.3588 17.563 12.4467 17.4136C12.556 17.2276 12.8919 17.3541 13.1183 17.6442C13.2967 17.8728 13.5323 17.8748 13.7743 17.8302C13.9444 17.7222 14.2078 17.7186 14.325 17.7558C14.325 17.6442 14.5084 17.5475 14.649 17.5475C14.6412 17.3987 14.6881 17.2648 14.9146 17.2276C14.9335 17.2245 14.953 17.2215 14.9731 17.2197C14.8153 17.2269 14.6624 17.1642 14.5551 17.0483C14.2423 17.1247 13.8957 16.9775 13.8447 16.6962C13.3502 16.6617 13.3011 16.1627 13.4229 16.0003C13.4328 15.9869 13.444 15.9744 13.4562 15.963C13.309 16.0737 13.121 16.1249 12.8884 16.0443C12.6697 16.3415 12.2892 16.4712 11.9346 16.3695C11.8363 16.5181 11.6865 16.6251 11.5141 16.67C11.5286 16.8503 11.4897 17.0546 11.2518 17.2946C11.3142 16.9673 10.8769 16.8631 10.9706 16.3276C10.9394 16.7144 9.76009 17.3541 9.57263 18.2021C9.74448 18.2765 9.93194 18.3285 10.0491 18.3062C10.3437 18.2501 10.4395 18.5443 10.3536 18.6633C10.2677 18.7823 10.0256 18.8418 9.9241 18.7376C9.82259 18.6336 9.61169 18.7748 9.51017 18.5815C9.40868 18.3881 9.12748 18.455 9.01036 18.5815C8.89324 18.7079 8.50271 18.4178 8.22157 18.7079C8.11639 18.8164 7.76081 18.9311 7.5499 18.8716C7.33905 18.812 7.21409 18.6038 7.28438 18.4922C7.14381 18.3657 7.14186 18.2108 7.27661 18.0756C7.22579 17.8859 7.39139 17.5111 7.671 17.6591C7.84671 17.752 8.46952 18.191 9.01232 17.6888C9.48294 17.2481 9.20878 16.8949 9.51018 16.8483C9.47351 16.6693 9.5883 16.4466 9.71326 16.4019C9.67693 16.3277 9.67034 16.2424 9.69483 16.1635C9.62386 16.158 9.55399 16.1427 9.48722 16.118C9.25317 16.1843 9.01146 16.2197 8.76823 16.2234C8.76823 16.4019 8.5496 16.8334 8.36214 17.0417C8.29969 15.4052 6.73772 15.2415 6.52681 13.9398C6.51904 14.1332 6.30813 14.3266 6.28473 14.4902C6.26129 14.6539 6.15978 14.7803 5.97231 14.706C5.78492 14.6316 5.73802 14.3191 5.92548 14.2745C6.11295 14.2299 6.0778 13.9323 6.19492 13.8952C6.31204 13.858 6.33158 13.7389 6.28473 13.5902C6.23784 13.4414 6.30813 13.2629 6.35502 13.1513C6.40185 13.0397 6.33158 12.8538 6.16756 12.7868C6.0036 12.7199 5.94893 12.5562 6.01138 12.4149C5.83958 12.2959 5.88857 12.0387 6.12072 11.9909C6.40969 11.9314 6.40185 12.3851 6.56587 12.4372C6.54248 12.348 6.5737 12.1769 6.64399 12.0653C6.55026 11.8718 6.66744 11.7157 6.85484 11.7157C7.18287 11.7157 7.07352 12.2363 6.99541 12.4C7.10475 12.2512 7.2766 12.0801 7.40933 12.1992C7.54213 12.3181 7.52045 12.5667 7.3781 12.6752C7.26093 12.7645 7.01885 12.9058 7.08914 13.062C7.22971 13.3001 7.3156 13.5827 7.33127 13.9472C7.5265 14.0886 7.65146 14.2522 7.65146 14.3861C7.78028 14.3936 8.02706 14.4954 8.06147 14.639C8.21764 14.6241 8.45091 14.654 8.51831 14.7915C8.56913 14.7655 8.70461 14.7568 8.78665 14.7642C8.78692 14.648 8.82732 14.5355 8.90101 14.4456C8.6355 14.1629 8.64327 13.7167 8.91663 13.5381C8.83881 13.3528 8.86979 13.01 9.12748 12.8314C9.12191 12.6454 9.17437 12.4 9.43206 12.2438C9.393 12.0429 9.5258 11.7678 9.68981 11.7529C9.65074 11.5595 9.68026 11.3207 9.90671 11.2091C9.85339 11.1532 9.82566 11.0776 9.83013 11.0004C9.43285 11.0822 9.2776 11.3138 9.15092 11.5297C9.13531 11.4404 9.11187 11.3214 9.05719 11.2322C9.05719 11.4627 8.87756 11.5446 8.86979 11.8644C8.737 11.7305 8.69016 11.5148 8.69794 11.366C8.70418 11.247 8.49493 11.1355 8.55737 10.9272C8.86979 11.2024 9.5024 10.5999 10.0491 10.7933C9.51017 9.71469 9.1197 10.2354 8.84634 10.4214C8.57298 10.6073 8.37775 10.3321 8.40903 10.1536C8.04194 10.0717 7.60457 10.0866 7.1282 10.1759C7.47961 9.73697 8.30747 9.5436 8.91663 9.58821C9.18215 9.11961 9.5024 9.18656 9.81476 9.23116C10.019 9.26038 10.2575 9.26102 10.4942 9.24965C10.6426 8.85539 11.5095 8.81463 11.5954 8.5022C11.6735 8.56168 11.6261 8.78554 11.548 8.9789C11.7738 8.91453 11.9677 8.84578 12.0327 8.7105C12.0718 8.83692 12.0093 9.17909 11.9234 9.28324C12.0125 9.25949 12.1046 9.24946 12.1967 9.25349C11.9234 9.40225 11.5798 9.62541 11.5251 9.66261C11.4705 9.69981 11.4392 9.77417 11.5798 9.84857C11.4236 9.87832 10.9863 10.0271 10.8066 9.90811" fill="#C8102E"/>
<path d="M11.5798 9.84857C11.611 10.0048 11.6188 10.1238 11.736 10.1684C11.8531 10.2131 12.1108 10.3023 12.2749 10.5701C12.0796 10.5181 11.8063 10.4437 11.7828 10.6222C11.7605 10.7921 11.8388 10.7871 11.9703 10.8156C12.1421 10.8528 12.3061 11.0536 12.3139 11.3214C12.1733 11.2396 11.9781 11.1727 11.8531 11.1727C11.7281 11.1727 11.693 11.1949 11.6618 11.3437C11.6102 11.5891 11.7048 11.6041 11.8219 11.6189C11.9391 11.6338 12.189 11.7454 12.2046 12.1545C12.0718 12.0429 11.8055 11.9808 11.6422 11.9537C11.5524 11.9388 11.5368 11.9834 11.5251 12.1397C11.5134 12.2959 11.5329 12.348 11.6891 12.3926C11.8453 12.4372 12.025 12.5488 12.0718 12.7868C11.9234 12.7199 11.6891 12.7422 11.6188 12.7719C11.5485 12.8017 11.5104 12.9679 11.6589 13.2878C11.9783 13.1848 12.3078 13.1165 12.6419 13.0843C13.3801 13.0103 13.2042 12.519 13.2042 11.7454C13.2042 10.9718 14.8286 10.1089 17.2966 8.74023C16.703 10.1833 17.5153 10.0494 17.9682 9.88578C18.4212 9.72209 19.4833 9.30557 20.3112 8.96338C19.1709 9.69234 18.593 10.466 19.5927 10.8082C18.3118 11.1949 17.7183 12.2512 18.4212 12.9207C17.9419 12.759 17.2776 13.0641 16.9994 13.489C17.4992 13.4443 18.468 13.5604 19.0616 13.7241C19.6268 13.8799 20.5598 13.6974 20.6477 13.2173C20.6524 13.1931 20.6547 13.1685 20.6548 13.1439C20.6548 12.9765 20.6117 12.8501 20.5457 12.7581C20.4006 12.5554 20.1462 12.5116 20.0066 12.5116C19.8035 12.5116 19.5927 12.5934 19.5927 12.7347C19.5927 12.8761 19.7176 12.9356 19.9675 12.9356C20.1042 12.9356 20.3148 12.9582 20.5457 12.7581C20.6117 12.8501 20.6548 12.9765 20.6548 13.1439C20.6546 13.1682 20.6521 13.1924 20.6474 13.2163C20.4289 13.3342 20.1846 13.3962 19.9362 13.3968C19.4364 13.3968 18.9679 13.2033 18.9679 12.6827C18.9679 12.162 19.5302 11.8644 19.9831 11.8644C20.6079 11.8644 21.4826 12.1025 21.4826 13.0546C21.4826 14.2597 19.8237 14.8232 18.8396 14.8232C19.0046 14.9551 19.1904 15.0779 19.3896 15.1522C20.0865 15.4126 20.7017 15.7325 20.9203 16.2234C20.6548 16.2234 20.2174 16.0152 20.0144 15.8069C20.5767 16.4615 19.8947 17.6656 19.9675 18.0682C20.0456 18.4996 20.5767 18.2318 20.5767 18.5666C20.5767 18.8641 20.2643 18.812 20.1472 18.6782C20.03 18.5443 19.6544 18.4318 19.4599 18.5666C19.2881 18.6856 19.0226 18.7451 18.9054 18.6261C18.7883 18.5071 18.3587 18.5517 18.1791 18.7154C17.9995 18.879 17.7486 18.8918 17.6714 18.7674C17.5889 18.6343 17.61 18.4724 17.9441 18.4164C17.7957 18.2676 17.3434 18.5219 17.2654 18.2393C17.2092 18.0362 17.3278 17.9417 17.7183 17.9715C17.6792 17.8748 17.3903 17.8302 17.4293 17.6293C17.4684 17.4285 17.6941 17.3041 17.9604 17.5996C18.6711 18.3881 18.9991 17.9492 19.2412 17.607C19.1631 17.4285 19.249 17.3095 19.3974 17.1979C19.3193 17.0714 19.3661 16.8929 19.4208 16.7739C19.3037 16.707 19.2334 16.4094 19.3584 16.3053C19.2568 16.3053 19.1006 16.1936 19.1006 16.0003C18.9613 16.085 18.7827 16.0668 18.6633 15.9557C18.5149 16.0375 18.1244 16.0524 17.9526 15.8738C17.7183 15.9631 17.3043 15.9407 17.1951 15.7697C16.9889 15.8218 16.6093 15.6506 16.5312 15.4647C16.4108 15.4559 16.2938 15.4204 16.1888 15.3606C15.8765 15.5838 15.4535 16.0152 15.8752 16.3425C16.2969 16.6698 17.1716 16.4019 17.1872 17.2202C16.9842 17.0566 16.6093 17.1012 16.4843 16.9375C16.0626 17.5326 15.4535 18.0756 14.5553 18.2988C14.6881 18.3806 14.9302 18.3881 15.0239 18.3806C15.2186 18.3651 15.3831 18.5219 15.2348 18.7079C15.0864 18.8939 14.7818 18.7376 14.6022 18.5815C14.3437 18.3566 14.1726 18.4847 14.1024 18.5368C14.0321 18.5889 13.9383 18.6187 13.8134 18.4996C13.6884 18.3806 13.5713 18.4625 13.5088 18.5368C13.4073 18.6577 13.173 18.3806 12.7981 18.7079C12.6179 18.8653 12.189 18.6633 12.3608 18.4327C12.1811 18.4773 11.8635 18.2288 12.1265 17.9864C12.3686 17.7632 12.8294 18.2765 13.2042 18.1277C13.12 18.0256 12.9444 17.8364 12.5794 17.793C12.392 17.7706 12.3588 17.563 12.4467 17.4136C12.556 17.2276 12.8919 17.3541 13.1183 17.6442C13.2967 17.8728 13.5323 17.8748 13.7743 17.8302C13.9444 17.7222 14.2078 17.7186 14.325 17.7558C14.325 17.6442 14.5084 17.5475 14.649 17.5475C14.6412 17.3987 14.6881 17.2648 14.9146 17.2276C14.9335 17.2245 14.953 17.2215 14.9731 17.2197C14.8153 17.2269 14.6624 17.1642 14.5551 17.0483C14.2423 17.1247 13.8957 16.9775 13.8447 16.6962C13.3502 16.6617 13.3011 16.1627 13.4229 16.0003C13.4328 15.9869 13.444 15.9744 13.4562 15.963C13.309 16.0737 13.121 16.1249 12.8884 16.0443C12.6697 16.3415 12.2892 16.4712 11.9346 16.3695C11.8363 16.5181 11.6865 16.6251 11.5141 16.67C11.5286 16.8503 11.4897 17.0546 11.2518 17.2946C11.3142 16.9673 10.8769 16.8631 10.9706 16.3276C10.9394 16.7144 9.76009 17.3541 9.57263 18.2021C9.74448 18.2765 9.93194 18.3285 10.0491 18.3062C10.3437 18.2501 10.4395 18.5443 10.3536 18.6633C10.2677 18.7823 10.0256 18.8418 9.9241 18.7376C9.82259 18.6336 9.61169 18.7748 9.51017 18.5815C9.40868 18.3881 9.12748 18.455 9.01036 18.5815C8.89324 18.7079 8.50271 18.4178 8.22157 18.7079C8.11639 18.8164 7.76081 18.9311 7.5499 18.8716C7.33905 18.812 7.21409 18.6038 7.28438 18.4922C7.14381 18.3657 7.14186 18.2108 7.27661 18.0756C7.22579 17.8859 7.39139 17.5111 7.671 17.6591C7.84671 17.752 8.46952 18.191 9.01232 17.6888C9.48294 17.2481 9.20878 16.8949 9.51018 16.8483C9.47351 16.6693 9.5883 16.4466 9.71326 16.4019C9.67693 16.3277 9.67034 16.2424 9.69483 16.1635C9.62386 16.158 9.55399 16.1427 9.48722 16.118C9.25317 16.1843 9.01146 16.2197 8.76823 16.2234C8.76823 16.4019 8.5496 16.8334 8.36214 17.0417C8.29969 15.4052 6.73772 15.2415 6.52681 13.9398C6.51904 14.1332 6.30813 14.3266 6.28473 14.4902C6.26129 14.6539 6.15978 14.7803 5.97231 14.706C5.78492 14.6316 5.73802 14.3191 5.92548 14.2745C6.11295 14.2299 6.0778 13.9323 6.19492 13.8952C6.31204 13.858 6.33158 13.7389 6.28473 13.5902C6.23784 13.4414 6.30813 13.2629 6.35502 13.1513C6.40185 13.0397 6.33158 12.8538 6.16756 12.7868C6.0036 12.7199 5.94893 12.5562 6.01138 12.4149C5.83958 12.2959 5.88857 12.0387 6.12072 11.9909C6.40969 11.9314 6.40185 12.3851 6.56587 12.4372C6.54248 12.348 6.5737 12.1769 6.64399 12.0653C6.55026 11.8718 6.66744 11.7157 6.85484 11.7157C7.18287 11.7157 7.07352 12.2363 6.99541 12.4C7.10475 12.2512 7.2766 12.0801 7.40933 12.1992C7.54213 12.3181 7.52045 12.5667 7.3781 12.6752C7.26093 12.7645 7.01885 12.9058 7.08914 13.062C7.22971 13.3001 7.3156 13.5827 7.33127 13.9472C7.5265 14.0886 7.65146 14.2522 7.65146 14.3861C7.78028 14.3936 8.02706 14.4954 8.06147 14.639C8.21764 14.6241 8.45091 14.654 8.51831 14.7915C8.56913 14.7655 8.70461 14.7568 8.78665 14.7642C8.78692 14.648 8.82732 14.5355 8.90101 14.4456C8.6355 14.1629 8.64327 13.7167 8.91663 13.5381C8.83881 13.3528 8.86979 13.01 9.12748 12.8314C9.12191 12.6454 9.17437 12.4 9.43206 12.2438C9.393 12.0429 9.5258 11.7678 9.68981 11.7529C9.65074 11.5595 9.68026 11.3207 9.90671 11.2091C9.85339 11.1532 9.82566 11.0776 9.83013 11.0004C9.43285 11.0822 9.2776 11.3138 9.15092 11.5297C9.13531 11.4404 9.11187 11.3214 9.05719 11.2322C9.05719 11.4627 8.87756 11.5446 8.86979 11.8644C8.737 11.7305 8.69016 11.5148 8.69794 11.366C8.70418 11.247 8.49493 11.1355 8.55737 10.9272C8.86979 11.2024 9.5024 10.5999 10.0491 10.7933C9.51017 9.71469 9.1197 10.2354 8.84634 10.4214C8.57298 10.6073 8.37775 10.3321 8.40903 10.1536C8.04194 10.0717 7.60457 10.0866 7.1282 10.1759C7.47961 9.73697 8.30747 9.5436 8.91663 9.58821C9.18215 9.11961 9.5024 9.18656 9.81476 9.23116C10.019 9.26038 10.2575 9.26102 10.4942 9.24965C10.6426 8.85539 11.5095 8.81463 11.5954 8.5022C11.6735 8.56168 11.6261 8.78554 11.548 8.9789C11.7738 8.91453 11.9677 8.84578 12.0327 8.7105C12.0718 8.83692 12.0093 9.17909 11.9234 9.28324C12.0125 9.25949 12.1046 9.24946 12.1967 9.25349C11.9234 9.40225 11.5798 9.62541 11.5251 9.66261C11.4705 9.69981 11.4392 9.77417 11.5798 9.84857C11.4236 9.87832 10.9863 10.0271 10.8066 9.90811" stroke="black" stroke-width="0.00496517"/>
<path d="M5.64429 11.8606C5.85122 11.7193 6.13419 11.8238 6.19486 12.0317C6.23392 12.1656 5.99669 12.265 5.97618 12.1396C5.94887 11.9722 5.83561 11.8681 5.64429 11.8606Z" fill="#C8102E" stroke="black" stroke-width="0.00496517"/>
<path d="M6.45581 11.4282C6.69666 11.3493 6.93628 11.5266 6.93182 11.7424C6.92893 11.8813 6.67173 11.9117 6.68986 11.786C6.71404 11.6182 6.6369 11.4875 6.45581 11.4282Z" fill="#C8102E" stroke="black" stroke-width="0.00496517"/>
<path d="M7.35168 11.809C7.58139 11.9136 7.62155 12.2001 7.45943 12.351C7.35505 12.4481 7.14934 12.2979 7.25488 12.2204C7.3957 12.117 7.43696 11.9722 7.35168 11.809Z" fill="#C8102E" stroke="black" stroke-width="0.00496517"/>
<path d="M5.52222 14.8155C5.72265 14.9651 6.01003 14.8722 6.07995 14.6668C6.12495 14.5347 5.8923 14.4257 5.86628 14.5502C5.83151 14.7163 5.71372 14.8158 5.52222 14.8155Z" fill="#C8102E" stroke="black" stroke-width="0.00496517"/>
<path d="M6.93286 17.8237C7.01679 17.5947 7.31139 17.525 7.48662 17.6619C7.59939 17.7501 7.46537 17.9613 7.37286 17.87C7.24938 17.748 7.09387 17.7249 6.93286 17.8237Z" fill="#C8102E" stroke="black" stroke-width="0.00496517"/>
<path d="M6.66943 18.4396C6.68339 18.1974 7.02416 18.0452 7.23237 18.1304C7.36645 18.1853 7.29924 18.4237 7.18371 18.3604C7.02961 18.2759 6.79537 18.3022 6.66943 18.4396Z" fill="#C8102E" stroke="black" stroke-width="0.00496517"/>
<path d="M7.0397 19.011C6.95233 18.7832 7.13386 18.5516 7.3605 18.5518C7.5064 18.5519 7.54325 18.7962 7.4109 18.7813C7.23433 18.7615 7.09859 18.8375 7.0397 19.011Z" fill="#C8102E" stroke="black" stroke-width="0.00496517"/>
<path d="M10.7129 18.8076C10.7431 18.5667 10.5105 18.381 10.29 18.4307C10.148 18.4627 10.171 18.7086 10.2962 18.6652C10.4634 18.6073 10.6138 18.6515 10.7129 18.8076Z" fill="#C8102E" stroke="black" stroke-width="0.00496517"/>
<path d="M12.122 18.8846C12.0697 18.6472 12.2841 18.4427 12.5084 18.4737C12.6528 18.4937 12.6526 18.7405 12.5238 18.7078C12.352 18.6641 12.2063 18.7208 12.122 18.8846Z" fill="#C8102E" stroke="black" stroke-width="0.00496517"/>
<path d="M15.6356 18.8265C15.6551 18.5846 15.4146 18.4084 15.1965 18.4668C15.056 18.5045 15.0898 18.7492 15.2131 18.7009C15.3775 18.6364 15.5297 18.6746 15.6356 18.8265Z" fill="#C8102E" stroke="black" stroke-width="0.00496517"/>
<path d="M11.7049 18.3809C11.6676 18.141 11.9175 17.9345 12.1394 17.9782C12.2823 18.0063 12.2437 18.2672 12.1171 18.2272C11.9483 18.1738 11.7993 18.2222 11.7049 18.3809Z" fill="#C8102E" stroke="black" stroke-width="0.00496517"/>
<path d="M12.0317 17.6906C12.0457 17.4484 12.3341 17.294 12.5423 17.3793C12.6763 17.4341 12.5834 17.6823 12.4679 17.6189C12.3139 17.5344 12.1577 17.5532 12.0317 17.6906Z" fill="#C8102E" stroke="black" stroke-width="0.00496517"/>
<path d="M17.4091 19.0109C17.3568 18.7735 17.5712 18.569 17.7955 18.6C17.9399 18.6201 17.9397 18.8669 17.8109 18.8342C17.6391 18.7905 17.4934 18.8472 17.4091 19.0109Z" fill="#C8102E" stroke="black" stroke-width="0.00496517"/>
<path d="M20.899 18.8973C20.953 18.6603 20.74 18.4544 20.5155 18.4839C20.3711 18.5029 20.3694 18.7498 20.4984 18.7179C20.6706 18.6754 20.8159 18.733 20.899 18.8973Z" fill="#C8102E" stroke="black" stroke-width="0.00496517"/>
<path d="M16.9597 18.4608C16.923 18.2208 17.1503 18.0293 17.3721 18.0735C17.515 18.102 17.4987 18.3483 17.3723 18.3081C17.2037 18.2543 17.0545 18.3023 16.9597 18.4608Z" fill="#C8102E" stroke="black" stroke-width="0.00496517"/>
<path d="M17.0896 17.8058C17.0943 17.5632 17.3514 17.4096 17.5627 17.4876C17.6987 17.5378 17.6406 17.7784 17.5228 17.7191C17.3655 17.6399 17.2102 17.6641 17.0896 17.8058Z" fill="#C8102E" stroke="black" stroke-width="0.00496517"/>
<path d="M17.9685 9.88574C17.3749 10.0792 15.0788 10.942 14.6571 11.0759C14.2354 11.2098 14.0168 11.2396 13.7668 11.79" stroke="black" stroke-width="0.00496517"/>
<path d="M16.8594 9.24597C15.3599 10.1684 14.1416 10.9717 13.798 11.7305C13.4543 12.4892 13.4778 12.9504 12.6421 13.0843" stroke="black" stroke-width="0.00496517"/>
<path d="M10.2366 14.5125C10.6114 14.096 11.3924 13.5902 12.1421 13.5604C11.996 13.7867 11.8705 14.0257 11.7673 14.2745" stroke="black" stroke-width="0.00496517"/>
<path d="M11.7517 14.5571C11.9392 14.319 12.4077 13.8132 12.7045 13.6049C12.5639 14.0067 12.3297 14.9588 12.4546 15.6133C12.5327 14.9885 12.8763 14.0215 13.2356 13.4711C13.5011 14.081 13.8603 14.9439 13.8603 15.4944C13.9384 14.8398 13.7823 13.7091 13.548 13.2182C14.1884 13.5305 14.985 14.4232 15.3286 14.9737C15.0943 14.2 14.2977 13.2628 13.8759 12.9652C14.9225 13.1437 16.4376 13.7835 16.9999 14.2596C16.0784 13.4413 14.9537 12.8016 14.1571 12.504C15.4067 12.3999 17.7497 12.6677 18.4213 12.9206C17.4373 12.385 15.4067 12.1024 14.1884 12.1768C15.4692 11.656 17.7497 11.061 19.5928 10.808C18.187 10.8824 16.3751 11.2395 14.5164 11.6412C15.3442 11.1056 17.9058 10.094 18.515 9.91541" stroke="black" stroke-width="0.00496517"/>
<path d="M10.6116 9.52871C10.7231 9.17762 11.1782 9.08443 11.5482 8.97888" stroke="black" stroke-width="0.00496517"/>
<path d="M11.2285 9.78907C10.9161 9.76674 10.8606 9.66102 11.0332 9.54357C11.1426 9.46917 11.3691 9.35016 11.5253 9.33529C11.4862 9.32788 11.3769 9.29809 11.3222 9.29068C11.4862 9.22373 11.7596 9.127 11.8533 9.03772" stroke="black" stroke-width="0.00496517"/>
<path d="M10.8653 9.22375C10.7458 9.23407 10.6204 9.24358 10.4944 9.24965" stroke="black" stroke-width="0.00496517"/>
<path d="M10.0571 10.9717C9.98089 10.9755 9.90508 10.9851 9.83032 11.0003" stroke="black" stroke-width="0.00496517"/>
<path d="M8.78671 14.7642C8.78368 14.9781 8.86067 15.1855 9.00258 15.3456C9.12754 15.4795 9.89294 15.5242 9.92416 15.2712" stroke="black" stroke-width="0.00496517"/>
<path d="M8.90112 14.4456C9.16665 14.7282 10.0257 14.5571 10.0257 14.3489" stroke="black" stroke-width="0.00496517"/>
<path d="M8.91675 13.5381C9.01047 13.7612 10.0101 13.9621 10.0257 13.7017" stroke="black" stroke-width="0.00496517"/>
<path d="M9.12769 12.8314C9.13552 13.0918 10.0459 13.2609 10.0727 13.0695" stroke="black" stroke-width="0.00496517"/>
<path d="M9.43213 12.2438C9.47119 12.4446 10.0726 12.638 10.1585 12.5487" stroke="black" stroke-width="0.00496517"/>
<path d="M9.68994 11.7528C9.7184 11.8939 10.1507 12.0206 10.2991 11.9685" stroke="black" stroke-width="0.00496517"/>
<path d="M9.90698 11.2091C9.99558 11.3116 10.1675 11.4069 10.4633 11.4553" stroke="black" stroke-width="0.00496517"/>
<path d="M8.40918 10.1534C8.41695 9.99723 8.57313 9.97494 8.54975 9.81873" stroke="black" stroke-width="0.00496517"/>
<path d="M10.0491 10.7932C10.1037 10.875 10.2443 11.0461 10.2599 11.1726C10.338 11.1131 10.4005 10.9866 10.4239 10.9271C10.4985 10.9891 10.5529 11.072 10.5801 11.1651C10.6114 11.0759 10.6661 10.9197 10.6738 10.823C10.7857 10.8478 10.8901 10.8987 10.9784 10.9717C10.994 10.875 10.9472 10.7486 10.8691 10.6965C10.9554 10.7001 11.0413 10.6822 11.119 10.6444C11.0643 10.5701 10.9784 10.4733 10.8925 10.4287C10.9707 10.4064 11.0799 10.3172 11.1268 10.28C11.0565 10.2502 10.9316 10.1832 10.8535 10.1461C10.9003 10.1014 10.9394 10.0122 10.9628 9.94519" stroke="black" stroke-width="0.00496517"/>
<path d="M8.75267 9.58447C8.70193 9.58447 8.67848 9.69603 8.7722 9.7667C8.83961 9.81755 8.83857 10.0271 8.71754 10.0791" stroke="black" stroke-width="0.00496517"/>
<path d="M10.5804 11.1652C10.2368 11.9239 9.92047 13.3632 10.0298 14.4046" stroke="black" stroke-width="0.00496517"/>
<path d="M10.4006 15.8291C10.4006 15.9854 10.6584 16.0151 10.6505 15.6432" stroke="black" stroke-width="0.00496517"/>
<path d="M10.6272 15.8291C10.6584 15.963 10.9239 15.9928 10.8693 15.5985" stroke="black" stroke-width="0.00496517"/>
<path d="M10.5178 15.9332C10.5334 16.2233 10.7287 16.2085 10.7443 15.9332" stroke="black" stroke-width="0.00496517"/>
<path d="M10.8772 15.7325C10.9553 15.911 11.1739 15.8217 11.1115 15.4275" stroke="black" stroke-width="0.00496517"/>
<path d="M11.1191 15.5985C11.2051 15.7473 11.4081 15.6283 11.4316 15.3679" stroke="black" stroke-width="0.00496517"/>
<path d="M10.104 14.7728C9.97001 14.9126 9.81628 15.2264 10.0025 15.5241C10.1119 15.6989 10.4125 15.7956 10.4437 15.6915" stroke="black" stroke-width="0.00496517"/>
<path d="M10.0024 15.5242C9.88131 15.5428 9.70328 15.7899 9.7915 16.0262C9.85401 16.1936 10.2133 16.2941 10.2679 16.1713" stroke="black" stroke-width="0.00496517"/>
<path d="M13.6729 15.7324C14.0633 15.7771 14.5788 15.5242 14.61 15.0183" stroke="black" stroke-width="0.00496517"/>
<path d="M14.5632 15.2564C14.7819 15.3903 15.2349 15.435 15.4223 15.0928" stroke="black" stroke-width="0.00496517"/>
<path d="M14.7663 15.3605C14.5632 15.8068 14.3792 16.281 14.7975 16.625C15.1411 16.9077 15.3964 16.4863 15.8128 16.9077C15.9378 17.0342 15.7894 17.2722 14.532 17.964" stroke="black" stroke-width="0.00496517"/>
<path d="M8.5185 14.7915C8.60054 14.9589 8.5927 15.2862 8.43652 15.2415" stroke="black" stroke-width="0.00496517"/>
<path d="M7.28442 18.4922C7.54995 18.1054 7.86347 18.418 8.08882 18.3508" stroke="black" stroke-width="0.00496517"/>
<path d="M9.35802 9.65137C9.31113 9.75924 9.43584 9.91016 9.55326 9.92292C9.68992 9.93779 9.88515 9.85225 9.84223 9.71464" fill="white"/>
<path d="M9.35802 9.65137C9.31113 9.75924 9.43584 9.91016 9.55326 9.92292C9.68992 9.93779 9.88515 9.85225 9.84223 9.71464" stroke="black" stroke-width="0.00496517"/>
<path d="M9.22144 9.66257C9.29171 9.56956 10.1118 9.8634 10.4398 9.6551" stroke="black" stroke-width="0.00496517"/>
<path d="M6.56599 12.4371C6.53477 12.504 6.54647 12.7012 6.66756 12.8091" stroke="black" stroke-width="0.00496517"/>
<path d="M12.3611 18.4326C12.4236 18.3582 12.6548 18.2831 12.8258 18.3248C12.9937 18.3656 13.2944 18.3099 13.4896 18.2355" stroke="black" stroke-width="0.00496517"/>
<path d="M10.5802 11.1652C10.5021 11.8941 10.6779 13.0137 11.1269 13.5121" stroke="black" stroke-width="0.00496517"/>
<path d="M10.3442 11.8124C10.3571 12.461 10.5239 13.2312 10.8535 13.6551" stroke="black" stroke-width="0.00496517"/>
<path d="M10.1641 12.5193C10.229 13.0102 10.3751 13.5038 10.606 13.8244" stroke="black" stroke-width="0.00496517"/>
<path d="M10.0505 13.2644C10.1285 13.5557 10.2384 13.8231 10.381 14.0242" stroke="black" stroke-width="0.00496517"/>
<path d="M10.0105 13.9694C10.0544 14.0631 10.1064 14.1528 10.1661 14.2375" stroke="black" stroke-width="0.00496517"/>
<path d="M10.5646 11.6189C10.5412 11.8495 10.3928 12.028 10.26 12.1322" stroke="black" stroke-width="0.00496517"/>
<path d="M10.5801 11.9387C10.5568 12.1693 10.3927 12.3776 10.178 12.478" stroke="black" stroke-width="0.00496517"/>
<path d="M10.627 12.2587C10.6036 12.4892 10.3693 12.7719 10.1038 12.8983" stroke="black" stroke-width="0.00496517"/>
<path d="M10.6896 12.5785C10.6662 12.8091 10.3616 13.1587 10.0515 13.2709" stroke="black" stroke-width="0.00496517"/>
<path d="M10.7871 12.8983C10.6973 13.2108 10.338 13.5753 10.0217 13.6571" stroke="black" stroke-width="0.00496517"/>
<path d="M10.9277 13.2183C10.9042 13.4488 10.4239 13.9175 10.01 14.0514" stroke="black" stroke-width="0.00496517"/>
<path d="M8.06147 14.6389C8.11222 14.8509 7.9443 15.0443 7.8584 14.9922" stroke="black" stroke-width="0.00496517"/>
<path d="M8.95592 15.3754C8.14368 15.2117 7.53977 14.939 7.20654 14.3042C7.12059 14.1406 7.34711 14.0959 7.3315 13.9471" stroke="black" stroke-width="0.00496517"/>
<path d="M7.08919 13.0619C6.94862 12.8239 6.91734 12.5635 6.99545 12.3999" stroke="black" stroke-width="0.00496517"/>
<path d="M7.65181 14.3861C7.65181 14.52 7.48388 14.6911 7.42529 14.6279" stroke="black" stroke-width="0.00496517"/>
<path d="M9.00274 15.3456C8.90913 15.5622 9.09017 15.9757 9.48744 16.1179" stroke="black" stroke-width="0.00496517"/>
<path d="M9.79155 16.0262C9.74467 16.0596 9.71063 16.1081 9.69507 16.1635" stroke="black" stroke-width="0.00496517"/>
<path d="M10.1117 16.4688C10.0413 16.5804 9.76805 16.4986 9.71338 16.4019" stroke="black" stroke-width="0.00496517"/>
<path d="M9.01232 17.6887C8.68117 17.9988 8.34384 18.0163 7.94044 18.0606C7.5343 18.1053 7.42109 17.9305 7.27661 18.0755" stroke="black" stroke-width="0.00496517"/>
<path d="M11.658 15.3605C11.7049 15.5688 11.6892 15.7771 11.5018 16.0895C11.3983 16.2619 11.4964 16.4478 11.5142 16.6699" stroke="black" stroke-width="0.00496517"/>
<path d="M13.4565 15.963C13.6356 15.8284 13.7537 15.6064 13.8137 15.4349" stroke="black" stroke-width="0.00496517"/>
<path d="M12.8884 16.0442C13.0921 15.7788 13.1239 15.4195 12.97 15.1224" stroke="black" stroke-width="0.00496517"/>
<path d="M11.9346 16.3694C12.0546 16.1929 12.1264 15.9414 12.1264 15.6134" stroke="black" stroke-width="0.00496517"/>
<path d="M9.51025 16.8483C9.54149 17.0007 9.78362 17.0677 9.82267 16.9933" stroke="black" stroke-width="0.00496517"/>
<path d="M11.4472 15.0555C11.4472 15.2043 11.291 15.3159 11.1738 15.2266C11.1894 15.4423 11.0255 15.5093 10.9083 15.4052C10.9318 15.7102 10.6662 15.7399 10.4944 15.5019C10.2991 16.4168 9.64313 17.1011 9.59624 17.5475C9.58063 17.6516 9.16279 17.6219 9.27212 17.3169" stroke="black" stroke-width="0.00496517"/>
<path d="M14.2823 15.896C14.048 15.8682 13.6359 15.7996 13.4565 15.9629" stroke="black" stroke-width="0.00496517"/>
<path d="M14.3759 16.5953C14.1594 16.6771 13.9844 16.7059 13.845 16.6962" stroke="black" stroke-width="0.00496517"/>
<path d="M14.9734 17.2197C15.1892 17.2116 15.4118 17.075 15.5006 16.7367" stroke="black" stroke-width="0.00496517"/>
<path d="M14.5552 17.0483C14.7363 17.0053 14.89 16.8863 14.9771 16.7218" stroke="black" stroke-width="0.00496517"/>
<path d="M15.6177 17.2945C15.4817 17.2536 15.1947 17.1996 14.9734 17.2197" stroke="black" stroke-width="0.00496517"/>
<path d="M14.8445 17.793C14.9304 17.7483 14.7898 17.5475 14.6492 17.5475" stroke="black" stroke-width="0.00496517"/>
<path d="M13.2043 18.1276C13.4032 18.0464 13.5941 17.9468 13.7744 17.8301" stroke="black" stroke-width="0.00496517"/>
<path d="M14.3252 17.7557C14.4312 17.7894 14.5868 17.9194 14.5321 17.964" stroke="black" stroke-width="0.00496517"/>
<path d="M15.3286 14.9738C15.4536 15.182 15.6878 15.3159 16.0002 15.182C16.0222 15.2448 16.0965 15.3092 16.1889 15.3606" stroke="black" stroke-width="0.00496517"/>
<path d="M17.0547 14.9216C17.2109 15.0406 16.9376 15.4795 16.5315 15.4646" stroke="black" stroke-width="0.00496517"/>
<path d="M19.2412 17.607C19.2954 17.7308 19.499 17.7185 19.5771 17.607C19.6663 17.4795 19.827 17.0862 19.7333 16.2978C19.6396 15.5093 18.843 15.4052 17.9214 15.2266C16.9998 15.0481 16.7655 14.7654 16.5781 14.2448" stroke="black" stroke-width="0.00496517"/>
<path d="M19.3977 17.1979C19.4758 17.3243 19.6945 17.2946 19.7257 17.1681" stroke="black" stroke-width="0.00496517"/>
<path d="M19.4209 16.7738C19.5381 16.8408 19.7645 16.8184 19.7567 16.6697" stroke="black" stroke-width="0.00496517"/>
<path d="M19.3586 16.3052C19.4601 16.3052 19.7335 16.3201 19.7179 16.201" stroke="black" stroke-width="0.00496517"/>
<path d="M19.1008 16.0003C19.1867 15.9407 19.4289 15.6878 19.2961 15.6134" stroke="black" stroke-width="0.00496517"/>
<path d="M18.6636 15.9557C18.8119 15.8738 18.9759 15.4498 18.7963 15.4126" stroke="black" stroke-width="0.00496517"/>
<path d="M17.9526 15.8738C18.1869 15.7845 18.4056 15.3233 18.2494 15.2936" stroke="black" stroke-width="0.00496517"/>
<path d="M17.1953 15.7696C17.5779 15.6729 17.6951 15.182 17.5467 15.1373" stroke="black" stroke-width="0.00496517"/>
<path d="M17.7185 17.9714C18.1171 18.0018 18.3355 18.2021 18.4917 18.2839" stroke="black" stroke-width="0.00496517"/>
<path d="M17.6248 13.9323C17.9879 13.8988 18.3449 14.4278 18.8398 14.8232" stroke="black" stroke-width="0.00496517"/>
<path d="M21.6289 11.5892C21.6972 11.3587 21.7545 11.1422 21.7796 11.0164" stroke="black" stroke-width="0.00496517"/>
<path d="M17.9441 18.4163C18.0373 18.4016 18.1316 18.3946 18.226 18.3955" stroke="black" stroke-width="0.00496517"/>
<path d="M21.4827 10.8379C21.4299 10.9803 21.3165 11.2701 21.2034 11.5487" stroke="black" stroke-width="0.00496517"/>
<path d="M11.659 13.2877C10.9702 13.5139 10.2569 13.9482 9.79932 14.7505C10.0492 14.81 10.5334 14.7505 10.7521 14.6761C10.7677 14.8696 10.7677 15.1225 10.7677 15.2861C10.9864 15.1225 11.2519 14.8844 11.455 14.825C11.4393 15.0183 11.4393 15.3605 11.4393 15.4944C11.7362 15.1969 12.2984 15.1671 12.4547 15.6134C12.5796 14.9588 13.6105 14.9291 13.8604 15.4944C14.1416 14.9737 14.8601 14.7803 15.3287 14.9737C15.5317 14.4232 16.422 14.1257 16.9999 14.2596C16.8084 14.0074 16.8426 13.7286 16.9996 13.4889" stroke="black" stroke-width="0.00496517"/>
</g>
<defs>
<clipPath id="clip0_12_2412">
<rect width="25.6952" height="25.6952" fill="white" transform="translate(1.10596 0.924072)"/>
</clipPath>
</defs>
</svg>
