<svg width="119" height="37" viewBox="0 0 119 37" fill="none" xmlns="http://www.w3.org/2000/svg">
<path fill-rule="evenodd" clip-rule="evenodd" d="M40.6583 0.865605V16.8617H42.8039V6.34837L47.9926 12.3758L53.1594 6.35076V16.8617H55.305V0.86377L47.9918 9.24794L40.6583 0.865605ZM9.92094 3.66651V16.8617H12.0664V1.55176H0.478516V16.8617H2.60345V3.66651H9.92094ZM16.1972 1.55176V16.8617H18.3426V10.8846H20.6158C22.2051 10.8846 23.5128 10.4218 24.4267 9.59055C25.3431 8.75695 25.835 7.57837 25.835 6.20782C25.835 4.8273 25.3433 3.65303 24.4255 2.8266C23.5109 2.00313 22.2032 1.55176 20.6158 1.55176H16.1972ZM18.3426 8.83187V3.58377H20.5953C21.6517 3.58377 22.4091 3.85944 22.8993 4.30395C23.3857 4.74503 23.6485 5.38794 23.6485 6.20782C23.6485 7.03883 23.3852 7.68098 22.8998 8.11887C22.4102 8.56067 21.6531 8.83187 20.5953 8.83187H18.3426ZM28.6083 16.8617V1.55176H37.5482V3.66651H30.7332V7.9632H36.3166V10.078H30.7332V14.747H37.5482V16.8617H28.6083ZM59.4241 17.5123V1.55176H61.5489V12.2981L72.1411 0.902268V16.8617H69.9955V6.11642L59.4241 17.5123ZM78.839 10.4193L74.5136 16.8617H77.0537L81.0568 10.8846H83.3679V16.8617H85.4927V1.55176H80.9511C79.3636 1.55176 78.0559 2.00313 77.1411 2.8266C76.2235 3.65303 75.7316 4.8273 75.7316 6.20782C75.7316 7.27836 76.0248 8.24506 76.628 9.00541C77.1519 9.66572 77.8947 10.152 78.839 10.4193ZM80.9714 8.83187C79.9134 8.83187 79.1506 8.56062 78.6555 8.11795C78.1652 7.67938 77.8975 7.0372 77.8975 6.20782C77.8975 5.38961 78.1644 4.74667 78.6563 4.30491C79.1518 3.85944 79.915 3.58377 80.9714 3.58377H83.3679V8.83187H80.9714ZM95.5949 16.8617V1.55176H100.014C101.601 1.55176 102.909 2.00313 103.823 2.8266C104.741 3.65303 105.233 4.8273 105.233 6.20782C105.233 7.57837 104.741 8.75695 103.824 9.59055C102.91 10.4218 101.603 10.8846 100.014 10.8846H97.7405V16.8617H95.5949ZM97.7405 3.58377H99.9929C101.049 3.58377 101.807 3.85944 102.297 4.30395C102.784 4.74503 103.046 5.38794 103.046 6.20782C103.046 7.03883 102.783 7.68098 102.298 8.11887C101.808 8.56067 101.051 8.83187 99.9929 8.83187H97.7405V3.58377ZM113.451 7.8805H110.131V3.66651H117.192V1.55176H108.006V16.8617H113.123C114.677 16.8617 116.035 16.4894 117.011 15.7366C117.998 14.9761 118.568 13.8482 118.568 12.4125C118.568 11.0367 118.051 9.89316 117.136 9.09745C116.225 8.30566 114.946 7.8805 113.451 7.8805ZM110.131 14.809V9.91251H113.39C114.406 9.91251 115.163 10.1735 115.66 10.5955C116.152 11.0126 116.422 11.6139 116.422 12.3711C116.422 13.1392 116.151 13.734 115.662 14.1425C115.166 14.557 114.409 14.809 113.39 14.809H110.131ZM16.3833 24.4715C13.1402 24.4635 10.4957 27.0926 10.4957 30.3277C10.4957 33.5823 13.1243 36.2114 16.3714 36.2154C19.6225 36.2154 22.2471 33.5943 22.255 30.3432C22.263 27.1085 19.6344 24.4795 16.3833 24.4715ZM16.3714 34.4532C14.1036 34.4532 12.256 32.6081 12.256 30.3432C12.256 28.0904 14.0996 26.2452 16.3476 26.2337C18.6154 26.2217 20.4788 28.0389 20.4907 30.3037C20.5026 32.6081 18.663 34.4532 16.3714 34.4532ZM27.311 34.3746L27.307 34.3782C27.2952 34.3902 27.2833 34.4061 27.2674 34.4377H31.401V36.2154H23.1259C23.1353 36.2046 23.2841 36.0406 23.5269 35.7733L23.5277 35.7721C24.7277 34.4504 28.2198 30.6034 28.5424 30.202C28.6829 30.0289 28.8069 29.8414 28.9305 29.6539L28.9307 29.6535C28.9882 29.5665 29.0456 29.4795 29.1046 29.3941C29.3422 29.0498 29.4372 28.6621 29.4768 28.2543C29.5282 27.6958 29.358 27.2131 29.0056 26.7894C28.8235 26.5676 28.5899 26.4291 28.3207 26.3541C27.9485 26.2512 27.5723 26.2037 27.1962 26.3262C26.5547 26.5361 26.1786 26.9992 26.0163 27.6408C25.9827 27.778 25.9727 27.9176 25.9626 28.0577C25.9596 28.0995 25.9566 28.141 25.9529 28.1829C25.9503 28.2244 25.9512 28.2663 25.952 28.3102C25.9525 28.3329 25.9529 28.3565 25.9529 28.3808H24.092L24.0934 28.3481C24.0948 28.3138 24.0961 28.2799 24.0973 28.246C24.1026 28.1063 24.1077 27.9683 24.1198 27.8307C24.1633 27.3794 24.2583 26.9398 24.4444 26.5241C24.9473 25.4078 25.8025 24.7388 27.0061 24.5329C27.798 24.3985 28.574 24.4815 29.3105 24.8178C29.7302 25.0121 30.0786 25.3009 30.3914 25.6336C30.8903 26.1678 31.207 26.7934 31.2862 27.5219C31.3852 28.4442 31.2229 29.3151 30.7279 30.1146C30.3716 30.6927 29.9717 31.2393 29.5362 31.7575C29.0495 32.3384 28.5576 32.9141 28.0662 33.4893C27.8141 33.7842 27.5621 34.079 27.311 34.3746ZM4.65368 34.3914L4.73523 34.2964C5.19789 33.759 6.8823 31.8034 7.45032 31.0518C7.7633 30.6405 8.05246 30.2128 8.28616 29.75C8.51591 29.2952 8.63081 28.8125 8.66249 28.3018C8.70605 27.6096 8.61099 26.9446 8.26238 26.3354C7.85043 25.6193 7.28001 25.0691 6.50756 24.7528C5.8183 24.4719 5.09736 24.4085 4.36847 24.5313C3.14841 24.7408 2.28485 25.4214 1.78573 26.5532C1.59163 26.996 1.50052 27.4632 1.46487 27.942C1.45697 28.0365 1.45957 28.1311 1.46221 28.2268C1.46353 28.2755 1.46487 28.3242 1.46487 28.3732H3.31082C3.31082 28.3461 3.31036 28.3198 3.30992 28.2938C3.30904 28.2436 3.3082 28.1945 3.31082 28.1474C3.31322 28.1155 3.3153 28.0832 3.31739 28.0513C3.3256 27.9244 3.33389 27.7959 3.36232 27.6727C3.50888 27.0515 3.85747 26.5967 4.45959 26.3513C4.78043 26.2205 5.10924 26.2365 5.44197 26.2919C5.84997 26.3629 6.19858 26.5412 6.44417 26.8855C6.73337 27.2929 6.8799 27.7321 6.82844 28.2384C6.78483 28.6736 6.66998 29.0774 6.42438 29.4412C6.24613 29.7065 6.06389 29.9678 5.87375 30.2208C5.68361 30.4741 5.48158 30.7194 5.26767 30.9568C4.74875 31.5345 1.03309 35.6018 0.549818 36.1284C0.53101 36.1472 0.514682 36.1683 0.494945 36.1938C0.489742 36.2006 0.484301 36.2078 0.478516 36.2154H8.75361V34.4349H4.62201C4.63785 34.4109 4.64574 34.399 4.65368 34.3914ZM40.2876 24.4751C40.2911 24.4763 40.2949 24.4771 40.2972 24.4795V33.0625H41.4183V34.7261H40.3012V36.2154H38.4717V34.7301H33.1431C34.4309 32.8786 35.7153 31.033 36.9986 29.1891C38.093 27.6164 39.1867 26.045 40.2812 24.4715C40.2829 24.4731 40.2852 24.4743 40.2876 24.4751ZM36.3458 33.0585H38.4637V30.0165C38.1539 30.4609 37.8472 30.9022 37.5413 31.3422C37.1432 31.9147 36.7465 32.4852 36.3458 33.0585Z" fill="white"/>
</svg>
