<svg width="256" height="76" viewBox="0 0 256 76" fill="none" xmlns="http://www.w3.org/2000/svg">
<path d="M9.03939 45.8974L0 47.8203V67.7602L51.5597 56.3464V43.8509L9.03939 45.8974Z" fill="url(#paint0_linear_6694_3877)"/>
<path d="M46.7903 41.2652V2.78473L3.16943 12.6036V49.5543L46.7903 41.2652Z" fill="url(#paint1_linear_6694_3877)"/>
<path d="M54.6245 20.4635L9.03955 31.4653V58.6487L54.6245 48.9449V20.4635Z" fill="url(#paint2_linear_6694_3877)"/>
<path d="M21.2533 58.4101C21.2533 58.4101 25.4837 62.1134 21.6705 68.1723C21.6705 68.1723 18.2934 69.1801 17.2323 69.7965L16.1421 75.2905H38.817L37.349 70.1931C37.349 70.1931 35.6012 69.1458 32.6053 68.0264C32.6053 68.0264 30.0454 65.0321 30.7373 59.4093L21.2515 58.4101" fill="white"/>
<path d="M12.4355 30.5656L6.09672 32.1108C6.09672 32.1108 3.52655 53.474 23.0801 59.6359" fill="white"/>
<path d="M11.9185 31.7022C11.9185 31.7022 17.373 59.3715 25.1385 60.139L30.7389 59.4093C30.7389 59.4093 41.2548 51.2318 44.5169 41.7855C47.724 32.4989 46.5411 22.3847 46.5411 22.3847L11.9185 31.7022Z" fill="white"/>
<path d="M7.52148 31.7641L46.8244 22.3264L46.7471 27.7912L7.52148 32.5006V31.7641Z" fill="white"/>
<path d="M12.4355 30.9503V26.7594C12.4355 26.7594 13.9807 18.8618 25.1405 18.8618C37.0368 18.8618 37.8454 26.2444 37.9416 27.4702L12.4355 30.9503Z" fill="white"/>
<path d="M12.4644 30.9039V26.713C12.4644 26.713 14.0095 19.2514 25.1693 19.2514C34.7255 19.2514 37.1428 26.1928 37.239 27.4221L12.4644 30.9039Z" fill="white"/>
<path d="M44.9291 25.0596L44.8844 24.5343L36.8683 26.3988C36.5861 25.2394 36.0304 24.1644 35.2476 23.2638C33.2577 21.0146 30.2051 20.0017 27.2743 19.8163C25.5003 19.7227 23.7215 19.8379 21.9743 20.1596C20.2231 20.503 18.4736 21.1228 16.9868 22.1478C15.5 23.1728 14.2398 24.6235 13.6766 26.3593C13.6595 26.416 13.644 26.4795 13.6286 26.5413C13.6028 27.6521 13.5753 29.8308 13.565 30.9417C13.565 31.1803 13.565 31.419 13.565 31.6576L7.88388 32.9435V32.9693C7.87186 33.0242 7.86327 33.0637 7.85469 33.1101L7.83065 33.2423C7.62234 34.5224 7.53268 35.819 7.56282 37.1156C7.65725 44.8415 11.491 51.7932 17.7508 56.2296C19.3941 57.4092 21.141 58.4372 22.9701 59.3011C21.3293 58.4505 19.7606 57.4675 18.2796 56.3618C15.4811 54.2621 13.0431 51.6112 11.364 48.55C9.35105 44.8634 8.39399 40.6929 8.5981 36.4975L10.0746 36.1782C9.98166 37.1803 9.96158 38.1879 10.0145 39.193C10.3682 46.7026 14.1556 53.2714 20.3519 57.5001C21.338 58.1812 22.3637 58.8032 23.4234 59.3629C22.383 58.7672 21.3786 58.1108 20.4154 57.3971C15.5566 53.8397 12.1572 48.6547 11.1854 42.6817C10.8019 40.4692 10.7608 38.2109 11.0635 35.9859L12.9246 35.5481L13.5599 35.4107C13.5719 36.8254 13.608 38.2401 13.7093 39.6548C14.3222 46.8503 17.1207 54.3325 22.9633 58.8685C17.6409 53.814 15.0656 46.8142 14.6535 39.5879C14.5574 37.8075 14.5677 34.5008 14.5883 31.5048C14.6038 31.4842 14.6175 31.4619 14.6312 31.4396C14.8207 31.1703 15.0235 30.9107 15.239 30.6618C18.144 27.2538 22.3984 26.2185 26.7198 26.1979C29.3913 26.1567 32.1297 26.6031 34.535 27.8084C35.4742 28.2925 36.3755 28.9226 36.9713 29.8068L37.1018 30.6086C37.4442 34.2613 37.5016 37.935 37.2735 41.5966C37.1018 44.1479 36.7584 46.7026 36.0905 49.1715C35.7851 50.2969 35.3795 51.3927 34.8784 52.4456C35.3167 51.6168 35.6915 50.7558 35.9995 49.8703C36.6042 48.0982 37.0523 46.2765 37.3387 44.4261C38.077 39.8059 38.2229 35.112 37.9911 30.442L41.6704 29.6437C42.0862 32.146 42.1441 34.6948 41.8421 37.2134C41.5452 39.8322 40.8462 42.3895 39.7698 44.7952C37.9637 48.8247 35.5549 52.5847 32.8164 56.0511C31.9449 57.1691 31.0069 58.2338 30.0076 59.2393C31.2232 58.1405 32.5074 57.119 33.6818 55.9772C34.8554 54.8262 35.965 53.6117 37.0056 52.3392C38.0358 51.1219 39.1002 49.7484 40.0583 48.471C40.2986 48.1568 40.563 47.798 40.7879 47.4684C44.9926 41.2945 45.7617 32.3753 44.9291 25.0596ZM8.68738 35.2682C8.73774 34.8184 8.80069 34.3703 8.87623 33.9239L13.5582 32.9092C13.5582 33.3281 13.5582 33.747 13.5582 34.1677L8.68738 35.2682ZM36.106 28.4007C34.8286 27.3104 33.2491 26.6477 31.6593 26.1687C29.5216 25.5248 27.2894 25.2519 25.0596 25.3618C21.7013 25.5129 18.295 26.6426 15.8004 28.9535C15.3555 29.3706 14.9529 29.8307 14.5986 30.327C14.6089 28.8934 14.6175 27.5972 14.6123 26.6649C14.7579 26.1707 14.968 25.6979 15.2373 25.2588C17.3456 21.7684 21.655 20.503 25.5248 20.3124C29.381 20.0206 34.0371 21.2636 35.9978 24.8794C36.2661 25.3834 36.4746 25.9169 36.6193 26.4692L36.8408 27.8307L43.7599 26.3112C43.8148 26.7542 43.8634 27.1989 43.9058 27.6452L36.9198 29.2505C36.6785 28.9399 36.4058 28.6551 36.106 28.4007ZM42.8018 41.6653C42.2191 43.708 41.3404 45.6544 40.1939 47.4426C39.1226 49.0101 37.9328 50.6446 36.7601 52.1417C35.7664 53.4372 34.702 54.6769 33.5719 55.8553C32.437 57.0331 31.1871 58.0873 30.0093 59.2307C31.0342 58.2492 31.9996 57.2075 32.9006 56.1112C36.5215 51.7348 39.6823 46.876 41.6155 41.5056C42.779 38.0799 43.2767 34.4633 43.0817 30.8507C43.0542 30.3528 43.0147 29.8549 42.9529 29.3587L44.0157 29.1286C44.2835 33.3436 43.971 37.6083 42.8036 41.6653H42.8018Z" fill="#001958"/>
<path d="M13.5635 31.6577L7.55273 33.0037V36.4065L8.29958 33.5411L13.5635 31.6577Z" fill="#001958"/>
<path d="M45.2296 24.4536V30.5502L44.8828 24.5342L45.2296 24.4536Z" fill="#001958"/>
<path d="M8.87654 33.9239C8.87654 33.9239 7.96659 42.5289 11.948 49.5475C11.948 49.5475 7.55282 43.9797 8.1709 35.9841C8.27391 34.5969 8.87654 33.9239 8.87654 33.9239Z" fill="#001958"/>
<path d="M9.79639 35.4829L9.89768 38.5338H10.6068V35.3627L9.79639 35.4829Z" fill="#001958"/>
<path d="M9.89795 38.532C9.95566 39.8337 10.1158 41.1288 10.377 42.4053L10.4765 36.264L10.1126 35.6442L9.89795 38.532Z" fill="#001958"/>
<path d="M11.0637 35.9927C11.0637 35.9927 10.8663 43.535 12.5952 47.6006L10.8234 43.8234L10.48 35.6476L11.0637 35.9927Z" fill="#001958"/>
<path d="M17.4072 74.4955C17.5652 73.1495 17.8176 71.7485 18.0717 70.4248C19.1858 69.8106 20.3698 69.3327 21.5981 69.0015C26.5771 67.6091 32.1295 68.2203 36.6518 70.7492C36.899 71.6283 37.1531 72.6928 37.3591 73.5873C37.4267 73.8883 37.4896 74.1899 37.548 74.4921L37.4604 74.5247L36.1882 71.0909L36.226 71.1304C32.0324 69.3042 27.3938 68.7536 22.8892 69.5474C21.3959 69.7969 19.9369 70.2204 18.5421 70.8093L18.5781 70.7647C18.2571 71.8566 17.8244 73.4156 17.4965 74.5212L17.4072 74.4955Z" fill="#001958"/>
<path d="M29.977 61.3683C29.8053 64.1153 30.4921 67.161 32.5523 69.1046L33.2391 69.666C32.5747 69.5303 31.7935 69.3518 31.1256 69.2642C29.0206 68.9767 26.8906 68.9192 24.7731 69.0925C23.7373 69.1737 22.7106 69.346 21.7051 69.6076L22.0588 69.1423C23.0511 67.6538 23.8718 66.033 24.0624 64.2406C24.2498 62.4331 23.852 60.6132 22.9275 59.0488C23.5075 59.7771 23.9449 60.6083 24.2169 61.4988C25.0942 64.2458 24.3165 67.2881 22.385 69.3964L22.1704 69.0702C24.701 68.5088 27.321 68.4848 29.8963 68.6856C30.7618 68.754 31.622 68.8779 32.4717 69.0565L32.2759 69.4376C32.0096 69.1762 31.7703 68.8886 31.5617 68.5792C30.1075 66.4949 29.7058 63.8457 29.989 61.3683H29.977Z" fill="#001958"/>
<path d="M33.2767 74.547L32.2638 69.4393C32.2638 69.4393 30.777 69.3689 28.2617 69.1663L28.751 74.547H33.2767Z" fill="#001958"/>
<path d="M30.0111 67.6245C30.0111 67.6245 27.7448 63.3649 28.9295 59.6393C28.9295 59.6393 32.7375 56.197 34.1179 48.1671C35.4983 40.1372 34.9454 29.4754 34.9454 29.4754C34.9454 29.4754 33.8689 27.8941 31.1992 27.501C31.1992 27.501 32.0267 42.6851 31.6662 47.525C31.0859 55.3025 30.7082 57.064 28.6342 59.3715C28.6342 59.3715 27.2607 61.7476 27.9337 67.4872C28.629 67.4659 29.3247 67.5119 30.0111 67.6245Z" fill="#001958"/>
<path d="M48.1431 3.30157V3.31359C49.0147 3.32126 49.8483 3.67211 50.4631 4.29011C51.0778 4.9081 51.4243 5.74345 51.4275 6.61515C51.4347 5.74065 51.7872 4.90443 52.4082 4.28862C53.0291 3.67281 53.8682 3.32729 54.7428 3.32732V3.31359C53.8705 3.30682 53.0361 2.95636 52.4206 2.33827C51.805 1.72018 51.4581 0.884314 51.4549 0.0120239C51.4481 0.886232 51.0963 1.72237 50.4761 2.33846C49.8558 2.95454 49.0173 3.30069 48.1431 3.30157Z" fill="#0092F3"/>
<path d="M43.3218 9.99223C43.8517 9.99718 44.3585 10.2105 44.7325 10.5861C45.1064 10.9616 45.3175 11.4693 45.3202 11.9993C45.3248 11.4677 45.5391 10.9594 45.9166 10.5851C46.2941 10.2108 46.8042 10.0008 47.3358 10.0008C46.8056 9.99675 46.2984 9.78372 45.9242 9.40796C45.55 9.0322 45.3392 8.52404 45.3374 7.99377C45.3329 8.52537 45.1185 9.03365 44.741 9.40795C44.3635 9.78225 43.8534 9.99225 43.3218 9.99223Z" fill="#0092F3"/>
<path d="M51.6436 12.7135C52.1743 12.718 52.6818 12.9316 53.0559 13.308C53.4301 13.6845 53.6407 14.1932 53.642 14.724C53.6465 14.1924 53.8609 13.6841 54.2384 13.3098C54.6159 12.9355 55.126 12.7255 55.6576 12.7255V12.7169C55.128 12.7129 54.6212 12.5003 54.2472 12.1253C53.8731 11.7503 53.6619 11.243 53.6592 10.7133C53.6551 11.2452 53.4409 11.7539 53.0634 12.1286C52.6858 12.5033 52.1755 12.7135 51.6436 12.7135Z" fill="#0092F3"/>
<path d="M46.2456 18.4152C46.7762 18.4193 47.2837 18.6326 47.6579 19.0087C48.0321 19.3848 48.2427 19.8934 48.2441 20.424C48.2477 19.892 48.4617 19.383 48.8394 19.0082C49.217 18.6335 49.7276 18.4234 50.2597 18.4238V18.4152C49.7293 18.4112 49.2218 18.1982 48.8474 17.8225C48.473 17.4468 48.2617 16.9386 48.2595 16.4082C48.2568 16.9409 48.0435 17.4508 47.6662 17.8268C47.2889 18.2028 46.7783 18.4143 46.2456 18.4152Z" fill="#0092F3"/>
<path d="M12.0161 16.4289L12.6411 16.034L13.1561 16.8443L14.0798 16.2623L13.5647 15.4502L14.1897 15.0554L15.5632 17.2203L14.9382 17.6152L14.4232 16.8049L13.4978 17.3886L14.0128 18.199L13.3879 18.5939L12.0161 16.4289Z" fill="white"/>
<path d="M15.6597 15.7851C15.3953 15.0211 15.797 14.3377 16.5267 14.0871C17.2564 13.8364 17.9929 14.1248 18.2556 14.8889C18.5183 15.6529 18.1183 16.3362 17.3972 16.5886C16.6761 16.8409 15.9189 16.5388 15.6597 15.7851ZM17.5483 15.1344C17.5011 15.022 17.4221 14.9259 17.321 14.8578C17.2199 14.7898 17.1012 14.7528 16.9793 14.7513C16.8575 14.7499 16.7378 14.7841 16.6352 14.8498C16.5326 14.9155 16.4514 15.0098 16.4016 15.121C16.3518 15.2322 16.3357 15.3556 16.3551 15.4759C16.3745 15.5962 16.4287 15.7082 16.511 15.7981C16.5932 15.888 16.7 15.9519 16.8181 15.9819C16.9362 16.0119 17.0605 16.0068 17.1757 15.9671C17.2573 15.9403 17.3324 15.8967 17.3962 15.8392C17.46 15.7817 17.5111 15.7115 17.5462 15.6331C17.5813 15.5547 17.5996 15.4699 17.5999 15.384C17.6003 15.2981 17.5827 15.2131 17.5483 15.1344Z" fill="white"/>
<path d="M18.8154 13.4518L20.3606 13.172C20.9426 13.0672 21.3495 13.2939 21.4526 13.8587C21.5556 14.4236 21.2517 14.779 20.6697 14.8888L19.8473 15.0382L19.9932 15.8469L19.2704 15.9773L18.8154 13.4518ZM19.6516 13.9446L19.7357 14.4064L20.4705 14.2742C20.6576 14.2399 20.7349 14.1368 20.7092 13.9926C20.6834 13.8484 20.5787 13.778 20.3864 13.8124L19.6516 13.9446Z" fill="white"/>
<path d="M22.1958 12.9023L22.9341 12.856L23.0302 14.4012L24.0603 12.7907L24.7986 12.7444L24.9583 15.3008L24.22 15.3472L24.1256 13.8123L23.0989 15.4107L22.3606 15.4571L22.1958 12.9023Z" fill="white"/>
<path d="M25.606 15.3232H25.5493L25.5733 14.5849H25.6266C25.8755 14.5935 25.9476 14.4768 25.9906 14.1832L26.1897 12.7479L28.3255 12.8183L28.2414 15.3764L27.5014 15.3507L27.5667 13.4346L26.7923 13.4089L26.6739 14.257C26.5726 14.9901 26.37 15.3472 25.606 15.3232Z" fill="white"/>
<path d="M31.5904 14.8957C31.5062 15.4914 31.0925 15.7387 30.4847 15.6528L28.9858 15.4417L29.3447 12.9058L30.0726 13.0088L29.9679 13.7522L30.7388 13.8604C31.3397 13.9428 31.6831 14.2965 31.5904 14.8957ZM29.8735 14.3806L29.7979 14.9163L30.4727 15.0107C30.6941 15.0433 30.816 14.9712 30.8349 14.7892C30.8538 14.6073 30.7697 14.5077 30.5482 14.4751L29.8735 14.3806Z" fill="white"/>
<path d="M32.2908 14.6501C32.3322 14.4784 32.4088 14.3171 32.5157 14.1765C32.6227 14.0359 32.7576 13.9191 32.9121 13.8334C33.0666 13.7477 33.2371 13.695 33.413 13.6786C33.5889 13.6623 33.7663 13.6827 33.9339 13.7384C34.7752 13.9771 34.9022 14.6501 34.8696 14.9403L34.1485 14.736C34.1198 14.6468 34.0685 14.5665 33.9996 14.503C33.9307 14.4396 33.8466 14.395 33.7553 14.3737C33.412 14.2758 33.1167 14.5007 33.0154 14.8561C32.9141 15.2115 33.0445 15.5532 33.3948 15.6511C33.4835 15.6821 33.5789 15.6895 33.6714 15.6723C33.7638 15.6551 33.8502 15.6141 33.9219 15.5532L34.6395 15.7558C34.5399 15.9755 34.0833 16.5318 33.2145 16.2863C33.0426 16.246 32.881 16.1704 32.7398 16.0645C32.5985 15.9585 32.4808 15.8244 32.394 15.6707C32.3072 15.5169 32.2532 15.3469 32.2355 15.1712C32.2177 14.9956 32.2366 14.8181 32.2908 14.6501Z" fill="white"/>
<path d="M36.0836 14.4802L36.7463 14.8098L36.269 15.7644L37.6614 15.2665L38.5078 15.6871L36.9094 16.2571L37.4142 18.0032L36.5197 17.5568L36.1025 16.0975L35.6029 17.0967L34.9453 16.7705L36.0836 14.4802Z" fill="white"/>
<path d="M90.5786 70.5895C90.5786 68.4822 91.8698 67.258 94.4278 67.258H96.8639V65.6136H98.2282V67.258H100.664C103.222 67.258 104.513 68.4761 104.513 70.5895C104.513 72.7029 103.222 73.9758 100.664 73.9758H98.2282V75.8699H96.8639V73.9758H94.4278C91.8698 73.9758 90.5786 72.648 90.5786 70.5895ZM96.8457 68.5248H94.4095C92.7955 68.5248 92.0099 69.2983 92.0099 70.6139C92.0099 71.9294 92.7955 72.7089 94.4095 72.7089H96.8457V68.5248ZM98.2099 68.5248V72.7089H100.646C102.26 72.7089 103.046 71.8502 103.046 70.6139C103.046 69.3775 102.26 68.5248 100.646 68.5248H98.2099Z" fill="white"/>
<path d="M106.871 65.7537H108.235V73.9026L114.484 65.7537H115.848V75.7298H114.484V67.5503L108.235 75.7298H106.871V65.7537Z" fill="white"/>
<path d="M118.941 65.7537H120.306V70.0656H126.433V65.7537H127.797V75.7298H126.433V71.3324H120.306V75.7298H118.941V65.7537Z" fill="white"/>
<path d="M137.578 73.3301H132.268L131.153 75.7298H129.807L134.411 65.6988H135.496L140.118 75.7298H138.687L137.578 73.3301ZM137.012 72.112L134.923 67.5564L132.828 72.112H137.012Z" fill="white"/>
<path d="M141.482 75.815H141.147V74.4752H141.385C142.554 74.4752 142.877 73.6895 143.084 71.4665L143.62 65.7476H150.928V75.7237H149.564V67.0144H144.789L144.351 71.6248C144.101 74.4081 143.565 75.815 141.482 75.815Z" fill="white"/>
<path d="M164.717 71.5456C163.621 71.7703 162.505 71.8867 161.386 71.8928C158.785 71.8928 157.482 70.8574 157.482 68.2385V65.8024H158.84V68.2385C158.84 70.1083 159.656 70.7539 161.374 70.7539C162.497 70.7433 163.617 70.6251 164.717 70.4007V65.8207H166.082V75.7968H164.717V71.5456Z" fill="white"/>
<path d="M169.169 65.7537H176.983V67.0204H170.521V69.8037H174.382V71.0645H170.521V74.4751H177.555V75.7358H169.169V65.7537Z" fill="white"/>
<path d="M182.72 67.0204H178.573V65.7537H188.226V67.0204H184.085V75.7298H182.72V67.0204Z" fill="white"/>
<path d="M198.872 72.648C198.872 74.5847 197.654 75.6932 195.345 75.6932H190.345V65.7171H191.709V69.481H195.364C197.684 69.5176 198.872 70.7843 198.872 72.648ZM191.679 70.7783V74.4325H195.388C196.777 74.4325 197.465 73.7565 197.465 72.6054C197.465 71.5274 196.777 70.7783 195.388 70.7783H191.679ZM200.541 65.7476H201.917V75.7237H200.553L200.541 65.7476Z" fill="white"/>
<path d="M205.024 65.7537H210.213C212.418 65.7537 213.569 66.8073 213.569 68.6344C213.569 70.4615 212.418 71.57 210.213 71.57H206.388V75.7298H205.024V65.7537ZM206.388 67.0204V70.3093H210.256C211.528 70.3093 212.162 69.621 212.162 68.6648C212.162 67.7086 211.553 67.0204 210.256 67.0204H206.388Z" fill="white"/>
<path d="M215.961 65.7537H223.769V67.0204H217.307V69.8037H221.169V71.0645H217.307V74.4751H224.336V75.7358H215.961V65.7537Z" fill="white"/>
<path d="M225.42 75.7298L229.775 70.6747L225.512 65.7537H227.339L230.695 69.6637L234.069 65.7537H235.738L231.523 70.626L235.926 75.7419H234.197L230.628 71.643L227.071 75.7419L225.42 75.7298Z" fill="white"/>
<path d="M129.707 7.21759H140.788L140.308 10.2183H132.94L132.674 11.9448H137.059L136.565 15.0181H132.187L131.873 17.045H139.953L139.438 20.2011H127.646L129.707 7.21759Z" fill="white"/>
<path d="M146.403 10.4116H141.758L142.266 7.21063H155.267L154.742 10.4116H150.097L148.54 20.1942H144.849L146.403 10.4116Z" fill="white"/>
<path d="M155.54 14.3481C155.388 10.1078 158.33 7 162.353 7C167.018 7 168.389 10.1078 168.551 11.6064H164.784C164.556 11.1979 164.219 10.8613 163.81 10.6349C163.401 10.4084 162.937 10.3012 162.47 10.3253C160.398 10.3253 159.241 12.0795 159.317 14.1651C159.376 15.8468 160.315 17.0899 161.925 17.0899C162.389 17.1127 162.852 17.0154 163.268 16.8073C163.684 16.5992 164.04 16.2875 164.3 15.902H168.047C167.71 17.2269 166.932 18.3973 165.84 19.2198C164.748 20.0423 163.408 20.4676 162.042 20.4255C158.185 20.4255 155.668 17.9151 155.54 14.3481Z" fill="white"/>
<path d="M171.206 7.21759H174.918L173.679 15.0422L180.64 7.21759H184.352L182.28 20.2011H178.578L179.822 12.411L172.857 20.2011H169.134L171.206 7.21759Z" fill="white"/>
<path d="M190.319 10.4116H185.675L186.186 7.21063H199.176L198.658 10.4116H194.014L192.457 20.1942H188.765L190.319 10.4116Z" fill="white"/>
<path d="M200.993 7.21759H204.701L203.462 15.0422L210.423 7.21759H214.138L212.067 20.2011H208.365L209.605 12.411L202.629 20.2011H198.931L200.993 7.21759Z" fill="white"/>
<path d="M121.213 12.0277H117.901L118.157 10.4358H125.971L126.479 7.21759H114.956L114.189 12.0277H111.696L111.23 14.9697H113.723L112.891 20.1977H120.571C124.151 20.1977 126.548 18.6265 126.441 15.4808C126.358 13.2708 124.486 12.0277 121.213 12.0277ZM120.867 16.9829H117.111L117.456 14.9697H121.354C122.121 14.9697 122.515 15.246 122.532 15.757C122.542 16.5616 121.9 16.9725 120.878 16.9725L120.867 16.9829Z" fill="white"/>
<path d="M90.3184 28.6507H93.5124V33.2536L97.9255 28.6507H102L96.931 33.9201L102.231 39.6867H97.9186L93.5124 34.8697V39.6867H90.3253L90.3184 28.6507Z" fill="white"/>
<path d="M104.963 39.6867L107.187 36.0023L102.304 28.6507H106.103L108.979 33.0016L111.607 28.6507H115.06L108.409 39.7005L104.963 39.6867Z" fill="white"/>
<path d="M126.945 36.0955C126.945 38.4885 125.36 39.6867 122.746 39.6867H116.158V28.6369H125.951V31.3717H119.328V32.753H122.746C125.36 32.753 126.945 33.8925 126.945 36.0955ZM119.328 35.2426V36.9691H122.484C123.292 36.9691 123.682 36.7033 123.682 36.1128C123.682 35.5223 123.292 35.2599 122.484 35.2599L119.328 35.2426Z" fill="white"/>
<path d="M128.33 34.1687C128.33 30.688 130.926 28.4642 134.252 28.4642C137.577 28.4642 140.174 30.688 140.174 34.1687C140.174 37.6494 137.577 39.8732 134.252 39.8732C130.926 39.8732 128.33 37.6045 128.33 34.1687ZM136.942 34.1687C136.942 32.5526 135.93 31.2923 134.252 31.2923C132.573 31.2923 131.562 32.5526 131.562 34.1687C131.562 35.7847 132.573 37.0451 134.252 37.0451C135.93 37.0451 136.942 35.7847 136.942 34.1687Z" fill="white"/>
<path d="M142.025 28.6507H145.212V33.2536L149.629 28.6507H153.7L148.631 33.9201L153.941 39.6867H149.629L145.212 34.8697V39.6867H142.025V28.6507Z" fill="white"/>
<path d="M158.755 28.6507H165.53C168.082 28.6507 169.635 29.9249 169.635 32.3973C169.635 34.8697 168.082 36.1439 165.53 36.1439H161.925V39.6867H158.755V28.6507ZM161.925 31.3855V33.409H165.143C165.965 33.409 166.369 33.0326 166.369 32.3973C166.369 31.7619 165.982 31.3855 165.143 31.3855H161.925Z" fill="white"/>
<path d="M170.91 34.1687C170.91 30.688 173.506 28.4642 176.832 28.4642C180.157 28.4642 182.754 30.688 182.754 34.1687C182.754 37.6494 180.16 39.8732 176.832 39.8732C173.503 39.8732 170.91 37.6045 170.91 34.1687ZM179.522 34.1687C179.522 32.5526 178.51 31.2923 176.832 31.2923C175.153 31.2923 174.145 32.5526 174.145 34.1687C174.145 35.7847 175.153 37.0451 176.832 37.0451C178.51 37.0451 179.522 35.7847 179.522 34.1687Z" fill="white"/>
<path d="M184.124 34.1687C184.124 30.8434 186.486 28.4642 189.877 28.4642C193.637 28.4642 194.96 31.1058 195.16 32.3489H191.925C191.701 32.0135 191.395 31.7417 191.036 31.5602C190.676 31.3786 190.276 31.2934 189.873 31.313C188.302 31.313 187.37 32.5872 187.37 34.1721C187.37 35.7571 188.302 37.0313 189.873 37.0313C190.28 37.0577 190.685 36.9757 191.05 36.7937C191.414 36.6117 191.723 36.3362 191.945 35.9954H195.163C195.008 37.0313 193.782 39.8662 189.88 39.8662C186.486 39.8731 184.124 37.4802 184.124 34.1687Z" fill="white"/>
<path d="M196.204 34.1687C196.204 30.8434 198.569 28.4642 201.956 28.4642C205.717 28.4642 207.039 31.1058 207.24 32.3489H204.011C203.788 32.013 203.482 31.7409 203.123 31.5592C202.763 31.3776 202.362 31.2928 201.96 31.313C200.389 31.313 199.456 32.5872 199.456 34.1721C199.456 35.7571 200.389 37.0313 201.96 37.0313C202.366 37.0567 202.771 36.9742 203.135 36.7922C203.499 36.6103 203.808 36.3354 204.032 35.9954H207.247C207.091 37.0313 205.848 39.8662 201.963 39.8662C198.569 39.8731 196.204 37.4802 196.204 34.1687Z" fill="white"/>
<path d="M209 28.6507H212.187V35.3048L217.049 28.6507H220.24V39.7005H217.053V33.0637L212.191 39.6867H209.003L209 28.6507Z" fill="white"/>
<path d="M222.571 28.6507H225.765V35.3048L230.63 28.6507H233.817V39.7005H230.63V33.0637L225.765 39.6867H222.578L222.571 28.6507Z" fill="white"/>
<path d="M69.5723 47.3076H80.4978V58.3574H77.314V50.07H72.7594V58.3574H69.5723V47.3076Z" fill="white"/>
<path d="M82.3525 52.8256C82.3525 49.3415 84.9458 47.1212 88.2745 47.1212C91.6033 47.1212 94.1966 49.3415 94.1966 52.8256C94.1966 56.3097 91.5998 58.5301 88.2745 58.5301C84.9492 58.5301 82.3525 56.2614 82.3525 52.8256ZM90.9645 52.8256C90.9645 51.2096 89.9527 49.9492 88.2745 49.9492C86.5964 49.9492 85.5846 51.2096 85.5846 52.8256C85.5846 54.4416 86.5964 55.6986 88.2745 55.6986C89.9527 55.6986 90.9645 54.4416 90.9645 52.8256Z" fill="white"/>
<path d="M99.8561 47.3076H104.473L106.759 53.4298L109.041 47.3076H113.458V58.3574H110.35V50.8124L107.587 58.3505H105.474L102.767 50.8746V58.3505H99.8457L99.8561 47.3076Z" fill="white"/>
<path d="M115.792 47.3076H118.979V53.9582L123.841 47.3076H127.028V58.3574H123.841V51.7344L118.979 58.3574H115.792V47.3076Z" fill="white"/>
<path d="M129.362 47.3076H132.549V51.4512H137.259V47.3076H140.446V58.3574H137.259V54.2137H132.549V58.3574H129.362V47.3076Z" fill="white"/>
<path d="M142.781 47.3076H145.968V53.9582L150.833 47.3076H154.017V58.3574H150.833V51.7344L145.968 58.3574H142.781V47.3076Z" fill="white"/>
<path d="M156.307 51.6758H161.638V54.4728H156.307V51.6758Z" fill="white"/>
<path d="M163.347 52.7151C163.347 50.1046 164.949 48.7683 167.608 48.7683H169.877V47.1522H173.047V48.7683H175.316C177.974 48.7683 179.577 50.1046 179.577 52.7151C179.577 55.3256 177.974 56.6827 175.302 56.6827H173.047V58.5163H169.877V56.6827H167.622C164.949 56.6827 163.347 55.2807 163.347 52.7151ZM169.877 51.5031H168.012C167.063 51.5031 166.631 51.876 166.631 52.7151C166.631 53.461 167.097 53.9271 168.012 53.9271H169.877V51.5031ZM173.047 51.5031V53.9202H174.911C175.83 53.9202 176.293 53.4541 176.293 52.7082C176.293 51.8691 175.858 51.4962 174.911 51.4962L173.047 51.5031Z" fill="white"/>
<path d="M181.911 58.3436L184.135 54.6591L179.252 47.3076H183.05L185.927 51.6584L188.555 47.3076H192.008L185.354 58.3574L181.911 58.3436Z" fill="white"/>
<path d="M196.414 50.0424H192.418V47.3076H203.579V50.0424H199.584V58.3298H196.414V50.0424Z" fill="white"/>
<path d="M216.034 54.7525C216.034 57.1455 214.446 58.3437 211.835 58.3437H205.243V47.2939H215.036V50.0287H208.417V51.4099H211.835C214.446 51.4099 216.034 52.5391 216.034 54.7525ZM208.417 53.8962V55.6227H211.573C212.381 55.6227 212.767 55.3602 212.767 54.7698C212.767 54.1793 212.381 53.9134 211.573 53.9134L208.417 53.8962Z" fill="white"/>
<path d="M217.418 52.8256C217.418 49.3415 220.012 47.1212 223.34 47.1212C226.669 47.1212 229.262 49.3415 229.262 52.8256C229.262 56.3097 226.666 58.5301 223.34 58.5301C220.015 58.5301 217.418 56.2614 217.418 52.8256ZM226.027 52.8256C226.027 51.2096 225.019 49.9492 223.34 49.9492C221.662 49.9492 220.651 51.2096 220.651 52.8256C220.651 54.4416 221.662 55.6986 223.34 55.6986C225.019 55.6986 226.027 54.4416 226.027 52.8256Z" fill="white"/>
<path d="M230.354 58.499H230.102V55.3015H230.337C231.411 55.3015 231.718 54.787 231.846 53.5128L232.498 47.2973H241.715V58.3471H238.541V50.0597H235.202L234.812 53.7269C234.47 56.9279 233.648 58.499 230.354 58.499Z" fill="white"/>
<path d="M245.696 58.3436L247.919 54.6591L243.03 47.3076H246.828L249.705 51.6584L252.332 47.3076H255.785L249.131 58.3574L245.696 58.3436Z" fill="white"/>
<defs>
<linearGradient id="paint0_linear_6694_3877" x1="0" y1="55.8055" x2="51.5597" y2="55.8055" gradientUnits="userSpaceOnUse">
<stop stop-color="#0092F3" stop-opacity="0"/>
<stop offset="0.04" stop-color="#0092F3" stop-opacity="0.07"/>
<stop offset="0.19" stop-color="#0191F2" stop-opacity="0.31"/>
<stop offset="0.34" stop-color="#0291F2" stop-opacity="0.52"/>
<stop offset="0.48" stop-color="#0291F2" stop-opacity="0.69"/>
<stop offset="0.62" stop-color="#0290F1" stop-opacity="0.83"/>
<stop offset="0.76" stop-color="#0390F1" stop-opacity="0.92"/>
<stop offset="0.89" stop-color="#0390F1" stop-opacity="0.98"/>
<stop offset="1" stop-color="#0390F1"/>
</linearGradient>
<linearGradient id="paint1_linear_6694_3877" x1="24.979" y1="6.91383" x2="24.979" y2="48.8109" gradientUnits="userSpaceOnUse">
<stop stop-color="#041854"/>
<stop offset="1" stop-color="#0390F1"/>
</linearGradient>
<linearGradient id="paint2_linear_6694_3877" x1="31.8329" y1="23.8355" x2="31.8329" y2="58.0409" gradientUnits="userSpaceOnUse">
<stop stop-color="#041854"/>
<stop offset="1" stop-color="#0390F1"/>
</linearGradient>
</defs>
</svg>
