<svg width="229" height="43" fill="none" xmlns="http://www.w3.org/2000/svg"><path d="M10.79 40.98c-.366.22-.842.33-1.28.257H1.421c-.915 0-1.28-.403-1.061-1.208l6.55-28.213a16.07 16.07 0 0 1 1.537-4.062c.695-1.317 1.573-2.525 2.671-3.513a12.5 12.5 0 0 1 3.989-2.452A14.608 14.608 0 0 1 20.56.874h17.492c.476 0 .732.074.878.183.147.147.074.55-.073 1.208L37.32 8.779c-.073.366-.22.731-.476.988a1.345 1.345 0 0 1-.914.256H21.695c-.659 0-1.317.11-1.94.33a3.656 3.656 0 0 0-1.207.804c-.33.293-.55.659-.732 1.061-.183.366-.293.732-.403 1.135l-.805 3.513h15.15c.476 0 .732.073.878.22.11.402.073.804-.073 1.207l-1.39 6.001c-.183.878-.66 1.318-1.391 1.318H14.559l-3.403 14.417c-.037.33-.183.66-.403.915l.037.037Zm51.048-19.906c.292-1.39.475-2.818.585-4.245.11-1.171 0-2.379-.256-3.513-.183-.952-.659-1.83-1.39-2.452-.916-.622-2.013-.951-3.111-.878-1.098 0-2.196.293-3.11.878a9.879 9.879 0 0 0-2.599 2.342c-.805 1.061-1.463 2.232-2.012 3.476a20.167 20.167 0 0 0-1.318 4.136 30.49 30.49 0 0 0-.805 4.793c-.11 1.208 0 2.415.33 3.586.256.915.841 1.72 1.61 2.27.951.585 2.012.877 3.11.804 1.171 0 2.269-.366 3.257-.988a8.974 8.974 0 0 0 2.598-2.378 16.18 16.18 0 0 0 1.866-3.513 27.618 27.618 0 0 0 1.318-4.172m11.454-.073a37.4 37.4 0 0 1-3.074 8.71 23.604 23.604 0 0 1-4.794 6.586 19.367 19.367 0 0 1-6.733 4.135 25.175 25.175 0 0 1-8.71 1.464 18.403 18.403 0 0 1-7.794-1.39 10.028 10.028 0 0 1-4.647-4.063c-1.098-1.976-1.684-4.245-1.72-6.513a31.837 31.837 0 0 1 .988-8.71 35.45 35.45 0 0 1 3.184-8.563 25.001 25.001 0 0 1 4.976-6.586c1.94-1.793 4.172-3.22 6.66-4.172C54.373.801 57.154.252 60.008.252c2.635-.073 5.27.402 7.721 1.464a10.708 10.708 0 0 1 4.72 4.208 13.985 13.985 0 0 1 1.867 6.514c.11 2.89-.22 5.781-.915 8.599m67.076 7.025a3.202 3.202 0 0 0-.33-2.708c-.475-.695-1.39-1.06-2.671-1.06h-6.733l-1.793 7.5h6.77c.695 0 1.354-.072 2.012-.329a4.72 4.72 0 0 0 2.342-2.122c.22-.402.366-.842.476-1.28m-7.831-12.296h6.001c.805 0 1.574-.22 2.269-.586.805-.512 1.317-1.317 1.464-2.268.219-.66.11-1.428-.33-1.976a2.477 2.477 0 0 0-1.939-.66h-6.257l-1.208 5.527v-.037Zm15.15 3.476a7.197 7.197 0 0 1 2.342 1.72c.585.695.988 1.537 1.28 2.379.293.878.403 1.793.403 2.744 0 .952-.11 1.867-.329 2.781a15.014 15.014 0 0 1-2.269 5.05c-1.061 1.5-2.342 2.855-3.843 3.916a18.641 18.641 0 0 1-5.049 2.525 19.265 19.265 0 0 1-5.782.878h-14.894c-1.61 0-2.525-.256-2.854-.878-.329-.586-.329-1.61 0-2.928l7.648-32.714c.183-1.062.622-2.05 1.317-2.855.586-.658 1.72-.914 3.257-.914h14.967c1.61 0 3.184.182 4.72.585a8.46 8.46 0 0 1 3.477 1.866 6.724 6.724 0 0 1 1.939 3.184 9.803 9.803 0 0 1-.146 4.72 10.245 10.245 0 0 1-2.269 4.319 12.51 12.51 0 0 1-3.806 3.256l-.073.33-.036.036Zm34.359 21.994H164.48a12.337 12.337 0 0 1-5.379-.988 6.166 6.166 0 0 1-2.781-2.598 7.456 7.456 0 0 1-.879-3.513c0-1.317.147-2.598.476-3.842l4.318-18.407a16.026 16.026 0 0 1 1.537-4.062c.695-1.317 1.574-2.525 2.671-3.513a12.499 12.499 0 0 1 3.989-2.452c1.72-.658 3.55-.951 5.379-.914h16.943c.476 0 .732.073.878.22.147.146.074.548-.073 1.207l-1.537 6.513c-.073.366-.219.732-.475.988-.257.22-.586.293-.915.257h-13.686a5.84 5.84 0 0 0-1.94.329c-.439.183-.878.44-1.207.805a3.651 3.651 0 0 0-.732 1.061 10.26 10.26 0 0 0-.403 1.135l-.585 2.378h15.442c.476 0 .732.073.878.22.11.402.074.805-.073 1.207l-1.39 5.965c-.183.878-.659 1.317-1.391 1.317h-15.442l-.988 4.319c-.147.548-.183 1.134-.147 1.72 0 .365.183.695.476.914.293.22.622.366.988.403h15.955c.476 0 .732.073.878.183.146.146.073.549-.073 1.207l-1.537 6.514c-.22.878-.659 1.317-1.391 1.317m43.15-31.068h-9.917l-6.989 29.933c-.037.33-.183.659-.403.915a1.9 1.9 0 0 1-1.281.256h-8.16c-.878 0-1.244-.402-1.061-1.208l6.989-29.933h-9.587c-.805 0-1.135-.476-.915-1.317l1.537-6.44c.036-.44.219-.88.549-1.208.292-.147.658-.22.988-.183H227.5c.329-.037.658 0 .915.183.146.146.146.548 0 1.207l-1.537 6.44a1.46 1.46 0 0 1-1.537 1.318m-135.77 9.331-4.94 20.602c-.036.33-.183.659-.402.915-.366.22-.842.33-1.281.256H74.75c-.878 0-1.208-.403-1.061-1.208l8.306-34.507c.403-1.793.989-3 1.72-3.66.732-.658 1.94-.878 3.513-.878h4.465a2.76 2.76 0 0 1 1.061.33c.33.219.622.475.878.805.293.439.586.914.805 1.39l5.306 12.296 2.855 7.062H103l4.94-20.748c.037-.33.183-.66.403-.915.366-.22.841-.33 1.281-.256h8.197c.878 0 1.28.402 1.061 1.207l-8.234 34.581a7.377 7.377 0 0 1-1.61 3.257c-.768.878-2.013 1.317-3.732 1.28h-4.465a3.117 3.117 0 0 1-1.134-.329 2.435 2.435 0 0 1-.915-.805 7.612 7.612 0 0 1-.805-1.39l-5.27-12.113-2.927-7.099-.256-.073h.036Z" fill="#fff"/></svg>