<svg width="25" height="25" viewBox="0 0 25 25" fill="none" xmlns="http://www.w3.org/2000/svg">
<g clip-path="url(#clip0_330_18)">
<path d="M23.029 13.494C23.369 13.975 23.628 14.497 23.809 15.069C23.989 15.639 24.08 16.229 24.08 16.84C24.08 17.715 23.903 18.537 23.553 19.307C23.202 20.075 22.719 20.752 22.103 21.34C21.487 21.922 20.77 22.379 19.946 22.711C19.122 23.043 18.255 23.206 17.333 23.206C16.02 23.206 14.842 22.896 13.797 22.277C13.507 22.317 13.215 22.346 12.92 22.368C12.624 22.388 12.331 22.396 12.038 22.396C10.504 22.396 9.064 22.121 7.717 21.573C6.373 21.022 5.196 20.274 4.182 19.321C3.171 18.372 2.374 17.253 1.8 15.972C1.221 14.691 0.932 13.322 0.932 11.867C0.932 11.585 0.946 11.317 0.976 11.069C1.003 10.821 1.04 10.568 1.078 10.315C0.358 9.31602 0 8.24302 0 7.09202C0 6.23602 0.177 5.42702 0.528 4.66602C0.878 3.90602 1.358 3.24502 1.974 2.68402C2.59 2.12202 3.311 1.68002 4.13 1.35602C4.951 1.03202 5.822 0.874023 6.744 0.874023C7.408 0.874023 8.031 0.952023 8.623 1.11102C9.215 1.27202 9.769 1.49602 10.28 1.78902C10.569 1.74802 10.865 1.71902 11.157 1.69602C11.453 1.67802 11.749 1.66702 12.038 1.66702C13.577 1.66702 15.022 1.93502 16.373 2.46802C17.721 2.99702 18.901 3.73002 19.915 4.66002C20.929 5.59402 21.728 6.67502 22.308 7.90502C22.886 9.13702 23.175 10.459 23.175 11.867C23.176 12.386 23.128 12.929 23.029 13.494ZM17.333 16.696C17.807 16.072 18.041 15.339 18.041 14.497C18.041 13.834 17.909 13.277 17.649 12.825C17.378 12.375 16.996 11.998 16.503 11.697C16.05 11.405 15.461 11.146 14.74 10.914C14.015 10.732 13.246 10.554 12.433 10.372L11.542 10.169C11.303 10.118 11.113 10.075 10.97 10.036C10.811 9.99702 10.664 9.95402 10.524 9.90302C10.392 9.85602 10.252 9.80102 10.112 9.74102C9.84 9.62702 9.612 9.47202 9.431 9.29002C9.291 9.13302 9.221 8.92202 9.221 8.66002C9.221 8.27702 9.449 7.93502 9.902 7.63202C10.415 7.34902 11.042 7.21302 11.787 7.22202C12.648 7.22202 13.253 7.34902 13.594 7.60402C14.006 7.90602 14.329 8.27802 14.56 8.71702C14.761 9.03902 14.965 9.27902 15.176 9.43702C15.377 9.59102 15.656 9.67402 16.007 9.68502C16.402 9.68502 16.729 9.55402 17.004 9.29002C17.273 9.04402 17.402 8.76702 17.395 8.45502C17.395 8.09402 17.293 7.73902 17.093 7.39702C16.895 7.07602 16.562 6.73402 16.103 6.37102C15.871 6.21502 15.616 6.07202 15.341 5.94102C15.065 5.80902 14.755 5.69302 14.418 5.59502C14.065 5.49902 13.694 5.42502 13.303 5.37502C12.911 5.32602 12.483 5.30302 12.009 5.30302C10.815 5.30302 9.808 5.44902 8.988 5.74102C8.107 6.04502 7.44 6.46302 6.988 7.00502C6.536 7.52102 6.31 8.14102 6.31 8.86502C6.31 9.62702 6.529 10.247 6.961 10.725C7.396 11.242 7.985 11.633 8.73 11.898C9.438 12.181 10.343 12.429 11.453 12.643C11.868 12.741 12.231 12.824 12.552 12.887C12.868 12.949 13.155 13.02 13.406 13.097C13.879 13.226 14.263 13.442 14.556 13.749C14.869 14.015 15.026 14.357 15.026 14.779C15.026 15.362 14.74 15.834 14.175 16.194C13.641 16.563 12.919 16.745 12.01 16.732C11.282 16.732 10.755 16.648 10.421 16.478C10.006 16.289 9.7 16.049 9.499 15.763C9.244 15.437 9.04 15.075 8.876 14.684C8.733 14.313 8.54 14.033 8.288 13.844C8.053 13.653 7.778 13.558 7.455 13.558C7.043 13.558 6.703 13.673 6.434 13.899C6.165 14.156 6.036 14.457 6.042 14.795C6.042 15.384 6.26 15.973 6.692 16.563C7.121 17.17 7.672 17.644 8.343 17.985C9.326 18.493 10.561 18.75 12.045 18.76C13.256 18.76 14.335 18.58 15.274 18.221C16.196 17.812 16.884 17.305 17.333 16.696Z" fill="white"/>
</g>
<defs>
<clipPath id="clip0_330_18">
<rect width="24.08" height="24.08" fill="white"/>
</clipPath>
</defs>
</svg>
