<svg width="129" height="13" fill="none" xmlns="http://www.w3.org/2000/svg"><path d="M.403 10.14V1.223h4.634c.979 0 1.724.226 2.234.678.511.444.766 1.076.766 1.896 0 .804-.26 1.444-.778 1.921-.52.47-1.26.704-2.223.704H1.622v3.716H.403zm4.671-7.786H1.621v2.939h3.453c.553 0 .975-.134 1.268-.402.293-.268.44-.624.44-1.068 0-.468-.147-.828-.44-1.08-.284-.259-.707-.389-1.268-.389zm7.147 1.432c.92 0 1.678.314 2.272.942.595.627.892 1.443.892 2.448h-5.16c.033.586.242 1.076.627 1.469.393.393.887.59 1.482.59a2.53 2.53 0 001.004-.188c.293-.126.49-.243.59-.352.11-.109.193-.217.251-.326h1.13c-.025.159-.1.339-.226.54a3.177 3.177 0 01-.514.615c-.218.218-.524.402-.917.552a3.855 3.855 0 01-1.318.214c-.946 0-1.729-.31-2.348-.93-.611-.627-.917-1.401-.917-2.322 0-.938.297-1.712.892-2.323.594-.62 1.347-.93 2.26-.93zm0 .98c-.486 0-.9.129-1.243.388-.335.26-.561.616-.678 1.068h3.817c-.134-.46-.369-.816-.704-1.068-.326-.26-.724-.389-1.192-.389zm4.976 5.373V3.936h1.105v2.687l3.264-2.687h1.632l-3.666 2.976 3.83 3.227h-1.62l-3.44-2.838v2.838h-1.105zm7.958-2.762l.339-3.44h4.62v6.202h-1.142V4.966H26.41l-.238 2.486c-.1.988-.297 1.7-.59 2.135-.293.427-.762.64-1.406.64h-.34v-1.03h.151c.419 0 .7-.12.841-.364.143-.242.252-.728.327-1.456zm12.092 1.695c-.076.15-.184.305-.327.464-.134.16-.372.327-.715.503a2.6 2.6 0 01-1.156.25c-.845 0-1.56-.292-2.147-.878-.586-.594-.879-1.385-.879-2.373 0-.98.293-1.766.88-2.36.585-.595 1.3-.892 2.146-.892.595 0 1.08.134 1.457.402.377.267.623.527.74.778v-1.03h1.143v6.203h-1.142V9.072zm-.54-.465c.377-.418.565-.941.565-1.57 0-.627-.188-1.15-.565-1.569-.368-.418-.85-.627-1.444-.627-.611 0-1.11.209-1.494.627-.377.419-.565.942-.565 1.57 0 .628.188 1.15.565 1.57.385.418.883.627 1.494.627.594 0 1.076-.21 1.444-.628zm4.045 1.532V3.936h1.52l2.473 4.885 2.474-4.885h1.468v6.203H47.57V5.267l-2.486 4.91h-.791l-2.461-4.86v4.822h-1.08zm15.071-1.067a2.16 2.16 0 01-.326.464c-.134.16-.373.327-.716.503a2.6 2.6 0 01-1.155.25c-.845 0-1.561-.292-2.147-.878-.586-.594-.879-1.385-.879-2.373 0-.98.293-1.766.879-2.36.586-.595 1.302-.892 2.147-.892.594 0 1.08.134 1.457.402.376.267.623.527.74.778v-1.03h1.143v6.203h-1.143V9.072zm-.54-.465c.377-.418.565-.941.565-1.57 0-.627-.188-1.15-.565-1.569-.368-.418-.85-.627-1.444-.627-.61 0-1.109.209-1.494.627-.376.419-.565.942-.565 1.57 0 .628.189 1.15.565 1.57.385.418.883.627 1.494.627.595 0 1.076-.21 1.444-.628zm3.97 1.532V8.356h1.457v1.783h-1.457zm8.195-1.004v1.004h-1.13V.898h1.13V4.99c.109-.25.36-.515.753-.79.402-.277.904-.415 1.507-.415.862 0 1.586.297 2.172.891.586.586.88 1.373.88 2.36 0 .989-.294 1.78-.88 2.374-.586.586-1.31.879-2.172.879-.603 0-1.1-.13-1.494-.39-.385-.267-.64-.523-.766-.765zm-.025-2.097c0 .628.192 1.15.577 1.57.385.418.888.627 1.507.627.62 0 1.122-.21 1.507-.628.385-.418.577-.941.577-1.57 0-.635-.192-1.159-.577-1.569-.385-.418-.887-.627-1.507-.627-.62 0-1.122.209-1.507.627-.385.41-.577.934-.577 1.57zm9.932-3.252c.92 0 1.678.314 2.273.942.594.627.891 1.443.891 2.448h-5.16c.033.586.243 1.076.628 1.469.393.393.887.59 1.481.59a2.54 2.54 0 001.005-.188c.293-.126.49-.243.59-.352.109-.109.192-.217.25-.326h1.13a1.48 1.48 0 01-.225.54 3.177 3.177 0 01-.515.615c-.218.218-.523.402-.916.552a3.854 3.854 0 01-1.319.214c-.946 0-1.728-.31-2.348-.93-.61-.627-.916-1.401-.916-2.322 0-.938.297-1.712.891-2.323.594-.62 1.348-.93 2.26-.93zm0 .98c-.485 0-.9.129-1.243.388-.335.26-.56.616-.678 1.068h3.817c-.134-.46-.368-.816-.703-1.068-.326-.26-.724-.389-1.193-.389zm6.03 3.301v-3.1h-1.832v-1.03h1.833V1.223h1.142v2.712h2.5v1.03h-2.5v2.838c0 .46.093.79.277.992.192.192.527.288 1.004.288h1.218v1.055h-1.469c-1.448 0-2.172-.69-2.172-2.072zm9.867-2.197a1.429 1.429 0 00-.163-.251 2.171 2.171 0 00-.314-.326 1.466 1.466 0 00-.553-.327 2.301 2.301 0 00-.778-.125 1.8 1.8 0 00-1.407.64c-.368.418-.552.937-.552 1.557 0 .62.184 1.142.552 1.57.377.418.85.627 1.42.627.292 0 .556-.042.79-.125.235-.084.419-.189.553-.314.142-.134.247-.243.314-.327.066-.092.121-.18.163-.263h1.13a1.786 1.786 0 01-.201.514c-.1.201-.255.427-.465.678-.2.251-.502.465-.904.64-.401.168-.862.252-1.38.252-.888 0-1.637-.314-2.248-.942-.603-.628-.904-1.398-.904-2.31 0-.921.301-1.691.904-2.31.602-.628 1.347-.942 2.235-.942.519 0 .979.083 1.38.25.403.168.708.378.917.629.21.25.365.477.465.678.1.192.167.368.2.527h-1.154zm2.96-3.126V.948h1.193v1.796h-1.193zm.025 7.395V3.936h1.142v6.203h-1.142zm4.548-2.072v-3.1h-1.833v-1.03h1.833V1.223h1.143v2.712h2.499v1.03h-2.499v2.838c0 .46.092.79.276.992.193.192.528.288 1.005.288h1.218v1.055h-1.469c-1.449 0-2.173-.69-2.173-2.072zm6.035 4.885L108.151 10l-2.813-6.065h1.294l2.122 4.722 2.122-4.722h1.18l-4.068 9.016h-1.168zm6.128-2.813V8.356h1.456v1.783h-1.456zm4.884-3.503v3.503h-1.143V3.936h1.143V5.08c.117-.31.343-.586.678-.829.343-.242.837-.364 1.481-.364h1.557V5.03h-1.582c-.778 0-1.331.125-1.657.377-.318.25-.477.66-.477 1.23zm10.254 2.875c-.527.511-1.23.766-2.109.766s-1.587-.255-2.122-.766c-.528-.519-.791-1.184-.791-1.996V3.936h1.142v3.365c0 .578.155 1.043.465 1.394.309.343.741.515 1.293.515.553 0 .984-.172 1.293-.515.31-.351.465-.816.465-1.394V3.936h1.155v3.579c0 .812-.264 1.477-.791 1.996z" fill="#fff"/></svg>