<svg width="142" height="43" viewBox="0 0 142 43" fill="none" xmlns="http://www.w3.org/2000/svg">
<path fill-rule="evenodd" clip-rule="evenodd" d="M48.9473 0.281977V19.3873H51.5099V6.83044L57.7072 14.0294L63.8783 6.8333V19.3873H66.4408V0.279785L57.7062 10.2936L48.9473 0.281977ZM12.2354 3.6273V19.3873H14.7979V1.1015H0.957642V19.3873H3.49561V3.6273H12.2354ZM19.7316 1.1015V19.3873H22.2941V12.2484H25.0091C26.9073 12.2484 28.4691 11.6956 29.5606 10.7028C30.6553 9.70718 31.2427 8.29952 31.2427 6.66257C31.2427 5.01371 30.6555 3.6112 29.5592 2.62414C28.4669 1.64061 26.905 1.1015 25.0091 1.1015H19.7316ZM22.2941 9.79667V3.52848H24.9845C26.2463 3.52848 27.1509 3.85773 27.7364 4.38864C28.3173 4.91546 28.6312 5.68333 28.6312 6.66257C28.6312 7.65511 28.3168 8.42207 27.7371 8.94507C27.1523 9.47274 26.248 9.79667 24.9845 9.79667H22.2941ZM34.555 19.3873V1.1015H45.2326V3.6273H37.093V8.75915H43.7616V11.2849H37.093V16.8615H45.2326V19.3873H34.555ZM71.3606 20.1644V1.1015H73.8985V13.9367L86.5494 0.325767V19.3873H83.9868V6.5534L71.3606 20.1644ZM94.5492 11.6927L89.3831 19.3873H92.4169L97.1981 12.2484H99.9584V19.3873H102.496V1.1015H97.0718C95.1758 1.1015 93.6139 1.64061 92.5213 2.62414C91.4253 3.6112 90.8378 5.01371 90.8378 6.66257C90.8378 7.9412 91.188 9.09579 91.9085 10.0039C92.5341 10.7926 93.4214 11.3734 94.5492 11.6927ZM97.0961 9.79667C95.8324 9.79667 94.9214 9.47269 94.3301 8.94398C93.7444 8.42017 93.4247 7.65316 93.4247 6.66257C93.4247 5.68533 93.7435 4.91741 94.331 4.38979C94.9228 3.85773 95.8343 3.52848 97.0961 3.52848H99.9584V9.79667H97.0961ZM114.562 19.3873V1.1015H119.84C121.736 1.1015 123.298 1.64061 124.39 2.62414C125.486 3.6112 126.073 5.01371 126.073 6.66257C126.073 8.29952 125.486 9.70718 124.391 10.7028C123.299 11.6956 121.738 12.2484 119.84 12.2484H117.125V19.3873H114.562ZM117.125 3.52848H119.815C121.077 3.52848 121.981 3.85773 122.567 4.38864C123.148 4.91546 123.462 5.68333 123.462 6.66257C123.462 7.65511 123.147 8.42207 122.568 8.94507C121.983 9.47274 121.079 9.79667 119.815 9.79667H117.125V3.52848ZM135.889 8.66037H131.924V3.6273H140.358V1.1015H129.386V19.3873H135.497C137.353 19.3873 138.975 18.9426 140.141 18.0435C141.32 17.1351 142 15.7881 142 14.0732C142 12.4301 141.383 11.0642 140.29 10.1139C139.202 9.16817 137.674 8.66037 135.889 8.66037ZM131.924 16.9356V11.0873H135.816C137.03 11.0873 137.934 11.3991 138.527 11.9032C139.114 12.4012 139.437 13.1195 139.437 14.0238C139.437 14.9412 139.114 15.6516 138.53 16.1395C137.937 16.6346 137.033 16.9356 135.816 16.9356H131.924ZM19.9539 28.4762C16.0804 28.4667 12.9219 31.6068 12.9219 35.4707C12.9219 39.3579 16.0614 42.498 19.9397 42.5028C23.8227 42.5028 26.9574 39.3722 26.9669 35.4892C26.9764 31.6258 23.8369 28.4857 19.9539 28.4762ZM19.9397 40.3981C17.2311 40.3981 15.0244 38.1943 15.0244 35.4892C15.0244 32.7985 17.2263 30.5947 19.9113 30.5809C22.6198 30.5666 24.8454 32.737 24.8596 35.4421C24.8739 38.1943 22.6767 40.3981 19.9397 40.3981ZM33.0056 40.3042L33.0009 40.3085C32.9867 40.3228 32.9725 40.3419 32.9536 40.3795H37.8906V42.5028H28.0071C28.0182 42.4899 28.196 42.2941 28.486 41.9748L28.4869 41.9734C29.9202 40.3947 34.091 35.7999 34.4763 35.3206C34.6442 35.1138 34.7922 34.8898 34.9399 34.6659L34.9402 34.6654C35.0088 34.5615 35.0774 34.4576 35.1478 34.3557C35.4316 33.9444 35.5451 33.4813 35.5924 32.9943C35.6538 32.3272 35.4505 31.7507 35.0296 31.2446C34.8121 30.9797 34.5331 30.8144 34.2115 30.7248C33.767 30.6018 33.3177 30.5451 32.8685 30.6914C32.1024 30.9421 31.6531 31.4953 31.4592 32.2615C31.4192 32.4254 31.4072 32.5922 31.3951 32.7594C31.3915 32.8094 31.3879 32.859 31.3836 32.909C31.3805 32.9586 31.3815 33.0086 31.3825 33.061C31.383 33.0882 31.3836 33.1163 31.3836 33.1454H29.161L29.1626 33.1063C29.1643 33.0653 29.1658 33.0248 29.1673 32.9843C29.1735 32.8175 29.1797 32.6527 29.1941 32.4883C29.2461 31.9494 29.3596 31.4243 29.5819 30.9278C30.1824 29.5945 31.2039 28.7954 32.6415 28.5496C33.5873 28.389 34.5141 28.4881 35.3937 28.8898C35.895 29.1218 36.3111 29.4668 36.6848 29.8642C37.2806 30.5023 37.6589 31.2494 37.7535 32.1195C37.8717 33.2211 37.6778 34.2613 37.0867 35.2162C36.6611 35.9067 36.1835 36.5594 35.6633 37.1784C35.082 37.8722 34.4945 38.5598 33.9076 39.2469C33.6065 39.599 33.3055 39.9511 33.0056 40.3042ZM5.94435 40.3242L6.04174 40.2108C6.59433 39.569 8.60614 37.2332 9.28457 36.3355C9.65838 35.8442 10.0037 35.3334 10.2829 34.7807C10.5573 34.2375 10.6945 33.6609 10.7324 33.051C10.7844 32.2243 10.6708 31.43 10.2545 30.7024C9.76245 29.8471 9.08116 29.19 8.15857 28.8121C7.33533 28.4767 6.47426 28.4009 5.6037 28.5477C4.14649 28.7978 3.11508 29.6107 2.51895 30.9625C2.28711 31.4915 2.1783 32.0494 2.13572 32.6212C2.12628 32.7341 2.12939 32.8471 2.13253 32.9614C2.13412 33.0196 2.13572 33.0777 2.13572 33.1363H4.34047C4.34047 33.1039 4.33992 33.0725 4.33939 33.0415C4.33835 32.9814 4.33734 32.9228 4.34047 32.8666C4.34334 32.8285 4.34582 32.7899 4.34831 32.7518C4.35812 32.6003 4.36802 32.4468 4.40197 32.2996C4.57703 31.5577 4.99337 31.0145 5.71252 30.7214C6.09573 30.5651 6.48846 30.5842 6.88585 30.6504C7.37316 30.7353 7.78952 30.9482 8.08285 31.3595C8.42826 31.846 8.60328 32.3706 8.54181 32.9753C8.48973 33.4951 8.35255 33.9773 8.05922 34.4119C7.84632 34.7288 7.62866 35.0409 7.40156 35.343C7.17446 35.6455 6.93317 35.9386 6.67767 36.2221C6.05789 36.9121 1.62001 41.7699 1.0428 42.3989C1.02034 42.4213 1.00084 42.4465 0.977265 42.477C0.97105 42.4851 0.964552 42.4937 0.957642 42.5028H10.8412V40.3762H5.90651C5.92543 40.3476 5.93486 40.3333 5.94435 40.3242ZM48.5045 28.4805C48.5087 28.4819 48.5132 28.4829 48.516 28.4857V38.737H49.855V40.724H48.5208V42.5028H46.3356V40.7288H39.9713C41.5095 38.5174 43.0434 36.3131 44.5762 34.1107C45.8833 32.2324 47.1896 30.3555 48.4969 28.4762C48.4989 28.4781 48.5016 28.4795 48.5045 28.4805ZM43.7966 38.7323H46.3261V35.099C45.9561 35.6298 45.5898 36.1568 45.2244 36.6824C44.749 37.3662 44.2751 38.0475 43.7966 38.7323Z" fill="white"/>
</svg>
