<svg width="40" height="78" viewBox="0 0 40 78" fill="none" xmlns="http://www.w3.org/2000/svg">
<g clip-path="url(#clip0_2_1031)">
<path d="M15.6233 15.9326C16.2837 16.3591 16.9486 16.7639 17.6169 17.1467C17.9374 20.8864 18.458 24.4873 19.1529 27.9096L19.7349 25.1283C20.4363 24.8748 21.1381 24.6006 21.8393 24.3057L20.1742 32.3386C20.7247 34.4622 21.3446 36.5025 22.0268 38.4482L25.2593 22.6994C26.0065 22.311 26.751 21.8991 27.4912 21.4637L23.2692 41.7212C23.9173 43.3011 24.6084 44.8059 25.3383 46.2285L31.0303 19.1773C31.8087 18.6275 32.5796 18.0509 33.3413 17.4476L25.2412 55.8348C26.0917 56.9583 26.973 58.0069 27.8826 58.9756L37.1772 14.0994C37.9569 13.3507 38.7058 12.5859 39.4231 11.8073H39.544L25.9658 77.6342H24.018L24.7825 73.9428C10.0255 61.719 0 35.8716 0 6.17302C0 4.09462 0.0490426 2.03588 0.145254 0C0.708951 0.906371 1.30683 1.80508 1.93872 2.69363C1.90772 3.84665 1.89205 5.00665 1.89205 6.17302C1.89205 35.0313 11.4737 59.8374 25.2206 71.8283L26.1197 67.4868C13.0908 56.1966 4.82262 32.9638 4.78591 6.35105C5.40998 7.08505 6.04816 7.79537 6.6988 8.48148C7.15169 33.3541 14.9038 54.6103 26.5637 65.343L27.4188 61.2149C17.466 51.3583 10.7649 32.8942 9.80238 11.4909C10.4547 12.0716 11.116 12.6298 11.7849 13.1649C12.7772 29.6253 17.2206 44.0135 23.7558 53.7497L24.7353 49.0943C19.9228 40.6331 16.5678 29.0269 15.6233 15.9326Z" fill="url(#paint0_linear_2_1031)"/>
<path d="M16.3103 70.4382C15.2249 68.9299 13.091 65.7414 12.0758 63.4092C12.7881 66.3994 13.2259 68.6345 13.3557 69.3783L13.3736 69.3856L15.1432 77.6213H17.1159L16.1924 73.3809C17.4725 74.8926 18.909 76.2781 20.4231 77.6346H22.816C20.7365 75.7718 18.1876 73.0386 16.4362 70.6056C16.3955 70.549 16.3534 70.4931 16.3103 70.4382Z" fill="url(#paint1_linear_2_1031)"/>
</g>
<defs>
<linearGradient id="paint0_linear_2_1031" x1="26.828" y1="77.552" x2="-23.0651" y2="12.5622" gradientUnits="userSpaceOnUse">
<stop stop-color="#ECBC48"/>
<stop offset="0.16" stop-color="#F6D976" stop-opacity="0.56"/>
<stop offset="0.31" stop-color="#DAB966" stop-opacity="0.36"/>
<stop offset="0.56" stop-color="#A0621D" stop-opacity="0.67"/>
<stop offset="0.77" stop-color="#ECA24C"/>
<stop offset="0.94" stop-color="#ECBC48" stop-opacity="0.19"/>
</linearGradient>
<linearGradient id="paint1_linear_2_1031" x1="26.8281" y1="77.5523" x2="-23.0651" y2="12.5626" gradientUnits="userSpaceOnUse">
<stop stop-color="#ECBC48"/>
<stop offset="0.16" stop-color="#F6D976" stop-opacity="0.56"/>
<stop offset="0.31" stop-color="#DAB966" stop-opacity="0.36"/>
<stop offset="0.56" stop-color="#A0621D" stop-opacity="0.67"/>
<stop offset="0.77" stop-color="#ECA24C"/>
<stop offset="0.94" stop-color="#ECBC48" stop-opacity="0.19"/>
</linearGradient>
<clipPath id="clip0_2_1031">
<rect width="39.6186" height="77.6342" fill="white"/>
</clipPath>
</defs>
</svg>
