<svg width="34" height="34" viewBox="0 0 34 34" fill="none" xmlns="http://www.w3.org/2000/svg">
<path id="Vector" d="M32.603 10.2499C31.7643 8.29584 30.567 6.54434 29.0401 5.03817C27.5131 3.53199 25.7345 2.35101 23.7564 1.52375C21.706 0.667971 19.5313 0.234375 17.2871 0.234375C15.0429 0.234375 12.8653 0.667971 10.8149 1.52375C8.83385 2.35101 7.05818 3.53199 5.53122 5.03817C4.00426 6.54434 2.80698 8.29869 1.96831 10.2499C1.10071 12.2724 0.661133 14.4204 0.661133 16.634C0.661133 18.7735 1.07179 20.853 1.88444 22.8156C1.89601 22.847 1.90757 22.8784 1.92493 22.9097L1.93071 22.924C1.94228 22.9554 1.95674 22.9839 1.96831 23.0153C2.80698 24.9693 4.00426 26.7208 5.53122 28.227C7.05818 29.7332 8.83674 30.9142 10.8149 31.7414C12.8653 32.5972 15.0429 33.0308 17.2871 33.0308C19.5313 33.0308 21.7089 32.5972 23.7593 31.7414C25.7403 30.9142 27.516 29.7332 29.043 28.227C30.5699 26.7208 31.7672 24.9665 32.6059 23.0153C33.4735 20.9928 33.9131 18.8448 33.9131 16.6312C33.9102 14.4204 33.4706 12.2724 32.603 10.2499ZM25.1388 29.1056C24.5055 29.4964 23.8432 29.8387 23.1578 30.1297L23.4528 29.3823L25.1388 29.1056ZM7.74358 23.7884L10.945 27.5681V29.9215C8.03856 28.5665 5.644 26.3129 4.1315 23.5088L7.74358 23.7884ZM7.49776 17.3215L7.3387 22.0397L3.32175 21.7288C2.70865 20.0999 2.39632 18.3855 2.39632 16.634C2.39632 16.0007 2.43681 15.3675 2.52067 14.7427L4.8545 13.6958L7.49776 17.3215ZM25.3036 10.8689L27.088 8.89489L30.9719 10.8546C31.7209 12.5719 32.1229 14.3919 32.1692 16.2717L29.2917 18.9674L26.6224 16.9364L25.3036 10.8689ZM20.2109 21.2124L25.7461 18.4283L28.4241 20.4679L27.5565 26.9719L23.0074 27.7164L19.3606 25.4514L20.2109 21.2124ZM13.7907 6.61566L16.2633 9.95035L13.5651 14.9224L8.73842 16.0892L6.1501 12.5434L8.43765 7.95638L13.7907 6.61566ZM19.5949 19.6007L15.2222 15.4901L17.7729 10.789L23.6465 11.4052L24.8525 16.9564L19.5949 19.6007ZM24.0138 9.725L17.7614 9.0689L15.2916 5.73991L19.138 2.06004C20.5811 2.23691 21.9837 2.62201 23.3111 3.20394L25.8329 7.71391L24.0138 9.725ZM8.34222 4.89839C9.58287 3.977 10.9479 3.25529 12.4083 2.75608C13.808 2.27684 15.2685 2.0087 16.755 1.9545L13.7097 4.86986L8.54466 6.16209L8.34222 4.89839ZM9.22138 17.7351L13.8919 16.6055L18.4959 20.9357L17.6515 25.1433L12.1423 26.3129L9.05364 22.6644L9.22138 17.7351ZM12.6831 27.9503L18.2328 26.7722L21.7581 28.9658L21.0091 30.8571C19.7973 31.1652 18.548 31.3221 17.2871 31.3221C15.7139 31.3221 14.1667 31.0796 12.6831 30.6032V27.9503ZM32.0188 18.7735C31.692 20.9757 30.862 23.0638 29.5838 24.9037L30.1708 20.505L32.0188 18.7735ZM27.5189 7.18618L26.2464 4.91265C27.4668 5.82548 28.5484 6.92374 29.4363 8.15607L27.5189 7.18618ZM2.94579 12.6689C3.63987 10.2271 4.95861 8.01914 6.79501 6.21914L6.93382 7.08634L4.49878 11.9729L2.94579 12.6689Z" fill="#00F0FF"/>
</svg>
