<svg width="246" height="34" viewBox="0 0 246 34" fill="none" xmlns="http://www.w3.org/2000/svg">
<g clip-path="url(#clip0_5715_60774)">
<path d="M44.1603 0.522949H70.6427L69.4975 8.00015H51.8903L51.2461 12.2622H61.7675L60.5507 19.9637H50.1009L49.3852 25.0482H68.7102L67.4934 32.974H39.2217L44.1603 0.522949Z" fill="white"/>
<path d="M84.1037 8.52355H73.0098L74.2265 0.522949H105.29L104.001 8.52355H92.9073L89.1855 32.974H80.3819L84.1037 8.52355Z" fill="white"/>
<path d="M105.931 18.3187C105.573 7.7758 112.587 -0.000488281 122.178 -0.000488281C133.344 -0.000488281 136.636 7.7758 136.994 11.5144H127.976C127.546 10.6171 125.972 8.29921 122.465 8.29921C117.526 8.29921 114.735 12.7108 114.949 17.87C115.093 22.0573 117.311 25.1977 121.176 25.1977C124.755 25.1977 126.33 23.0293 126.831 22.2068H135.777C135.205 25.1229 131.555 33.4974 121.463 33.4974C112.23 33.4974 106.217 27.2913 105.931 18.3187Z" fill="white"/>
<path d="M143.365 0.522949H152.24L149.306 20.0384L165.982 0.522949H174.857L169.919 32.974H161.044L163.978 13.5333L147.301 32.974H138.426L143.365 0.522949Z" fill="white"/>
<path d="M189.029 8.52355H177.935L179.152 0.522949H210.215L208.998 8.52355H197.904L194.182 32.974H185.379L189.029 8.52355Z" fill="white"/>
<path d="M214.582 0.522949H223.458L220.452 20.1132L237.128 0.597721H246.004L241.065 33.0488H232.19L235.124 13.6081L218.447 33.0488H209.572L214.582 0.522949Z" fill="white"/>
<path d="M23.8361 12.5617H15.963L16.6071 8.59875H35.288L36.5047 0.598145H8.87713L7.08778 12.5617H1.14714L0.00195312 19.8893H5.9426L3.93853 32.9744H22.2615C30.8504 32.9744 36.5763 29.0863 36.29 21.1605C36.1468 15.6273 31.7093 12.5617 23.8361 12.5617ZM23.0488 24.8991H14.0305L14.8178 19.8893H24.1224C25.9833 19.8893 26.9138 20.5623 26.9138 21.8334C27.0569 23.8522 25.4823 24.8991 23.0488 24.8991Z" fill="white"/>
</g>
<defs>
<clipPath id="clip0_5715_60774">
<rect width="246" height="33.4979" fill="white"/>
</clipPath>
</defs>
</svg>
