<svg width="113" height="113" viewBox="0 0 113 113" fill="none" xmlns="http://www.w3.org/2000/svg">
<path d="M56.3009 112.602C87.395 112.602 112.602 87.3951 112.602 56.3009C112.602 25.2068 87.395 0 56.3009 0C25.2068 0 0 25.2068 0 56.3009C0 87.3951 25.2068 112.602 56.3009 112.602Z" fill="#F2B1CA"/>
<path d="M56.1374 2.10718C25.6133 2.18724 1.7936 27.3628 2.0951 56.2925C1.77146 84.9616 25.2863 110.476 56.2617 110.493C86.9646 110.51 110.502 85.3364 110.507 56.3096C110.512 27.0596 86.6444 2.02883 56.1374 2.10888V2.10718ZM58.9087 47.2494C59.0654 47.4317 59.1983 47.631 59.309 47.8439C59.1983 47.631 59.0637 47.4317 58.9087 47.2494Z" fill="#010201"/>
<path d="M28.6158 25.019H82.033C82.0432 25.174 82.0602 25.3086 82.0602 25.4432C82.0602 35.4197 82.0568 45.3945 82.0636 55.3711C82.067 61.5202 80.9752 67.4598 78.5701 73.1268C74.4735 82.7814 67.8406 90.1842 58.6851 95.3113C57.7057 95.8598 56.6939 96.3486 55.6821 96.8392C55.5203 96.9176 55.2563 96.9193 55.0927 96.8426C45.5369 92.3679 38.2977 85.471 33.484 76.0719C31.101 71.4184 29.5459 66.4889 28.9974 61.2851C28.7385 58.8187 28.6482 56.3267 28.6363 53.8449C28.5937 44.6979 28.6158 35.5509 28.6141 26.4022C28.6141 25.9644 28.6141 25.5283 28.6141 25.019H28.6158ZM29.6787 26.0666C29.6787 26.2761 29.6787 26.4311 29.6787 26.5878C29.6924 36.44 29.7196 46.2905 29.7128 56.1427C29.7111 58.6688 29.9308 61.1659 30.3856 63.6477C31.6035 70.2976 34.2233 76.3496 38.2108 81.8003C42.4113 87.5423 47.7326 91.9608 54.0537 95.2159C55.0297 95.7184 55.832 95.8717 56.7109 95.175C56.7825 95.1188 56.8761 95.0899 56.9596 95.0456C67.4778 89.5233 74.7171 81.1581 78.6501 69.9501C80.0503 65.9625 80.907 61.8421 80.9411 57.6127C81.0212 47.2308 80.999 36.8471 81.0178 26.4635C81.0178 26.3306 80.9973 26.1978 80.9871 26.0649H29.6787V26.0666Z" fill="#F2B1CA"/>
<path d="M49.918 96.1269C36.8584 94.4985 22.8074 85.3719 17.2869 69.3996C11.7765 53.4562 17.0876 37.4771 26.8342 27.9553C26.9074 28.6997 26.9415 29.3146 26.3453 29.967C21.133 35.6698 17.8268 42.3486 16.6396 49.9797C14.9413 60.8948 17.3652 70.8798 23.9708 79.7509C29.2648 86.8607 36.2622 91.5926 44.7926 94.0352C45.5267 94.2447 46.2677 94.4457 47.0189 94.5768C48.1278 94.771 48.9335 95.4728 49.918 96.1269Z" fill="#F2B1CA"/>
<path d="M83.8559 27.9536C94.2821 38.1976 98.8198 54.6843 93.1255 70.1286C86.9457 86.8862 72.0601 94.8153 60.8623 96.0792C61.7634 95.5239 62.472 94.8715 63.4224 94.6603C68.9686 93.4356 74.082 91.2246 78.6198 87.7975C86.5335 81.8255 91.7475 74.0378 93.7029 64.2861C96.1455 52.1071 93.3605 41.1205 85.6154 31.4012C85.2458 30.9379 84.883 30.4507 84.4367 30.0675C83.7639 29.4883 83.7009 28.7917 83.8559 27.9519V27.9536Z" fill="#F2B1CA"/>
<path d="M78.1122 23.2524C77.6319 23.2524 77.1498 23.2746 76.6712 23.2422C76.4685 23.2286 76.2555 23.1298 76.0784 23.0208C72.5593 20.8558 68.8 19.27 64.7954 18.2446C60.4144 17.122 55.9601 16.887 51.4905 17.289C45.6395 17.8153 40.1785 19.6515 35.1673 22.7278C34.3105 23.2541 33.4895 23.2694 32.4521 23.2064C37.8245 19.5595 43.5955 17.2498 49.9268 16.4254C60.1725 15.0933 69.5648 17.4099 78.1378 23.1195C78.1309 23.1638 78.1224 23.2081 78.1156 23.2524H78.1122Z" fill="#F2B1CA"/>
<path d="M48.7702 100.057C49.6202 99.9834 50.2095 100.247 50.5928 101.011C50.9045 101.631 51.332 102.194 51.7391 102.828C52.3251 102.131 52.8974 101.491 53.4186 100.813C53.6809 100.472 53.9518 100.336 54.3657 100.437C54.5582 100.484 54.7626 100.479 55.0249 100.503C54.8886 102.508 54.754 104.494 54.6195 106.495H53.2347C53.3062 105.335 53.3778 104.18 53.451 103.024C53.422 103.003 53.3931 102.983 53.3641 102.964C52.7782 103.637 52.1939 104.312 51.5671 105.034C51.0544 104.242 50.5621 103.486 49.9932 102.607C49.8944 103.928 49.8075 105.1 49.7189 106.308C49.2607 106.233 48.8519 106.167 48.375 106.088C48.5096 104.056 48.6424 102.051 48.7736 100.057H48.7702Z" fill="#FAFAFA"/>
<path d="M43.9323 101.731C43.251 102.249 42.568 102.768 41.8253 103.332C41.4795 102.46 41.1457 101.617 40.7675 100.66C40.4047 101.908 40.0811 103.022 39.7472 104.175C39.3094 104.039 38.9279 103.918 38.4561 103.77C38.9994 101.806 39.5343 99.8777 40.0657 97.9597C40.9617 97.9972 41.2904 98.234 41.5698 98.9971C41.8304 99.7108 42.0995 100.421 42.3959 101.218C42.8013 100.912 43.1556 100.646 43.5082 100.377C43.7313 100.206 43.9817 100.058 44.1691 99.8555C44.7278 99.2475 45.3512 99.2696 46.1109 99.6528C45.5761 101.552 45.0361 103.475 44.503 105.364C44.4093 105.393 44.3786 105.412 44.3513 105.408C43.5235 105.298 43.2169 104.843 43.4315 104.042C43.6325 103.291 43.8318 102.542 44.0311 101.791C43.9971 101.772 43.9647 101.751 43.9306 101.733L43.9323 101.731Z" fill="#FAFAFA"/>
<path d="M72.7638 15.5873C72.4095 15.4749 72.0723 15.3999 71.7674 15.2586C71.6431 15.2006 71.5562 15.0065 71.5034 14.8566C71.0929 13.6966 70.6977 12.5315 70.294 11.3681C70.248 11.2369 70.1935 11.1109 70.0981 10.8724C69.6723 12.046 69.2805 13.1243 68.87 14.2553C68.451 14.1003 68.0387 13.9487 67.5703 13.7749C68.2465 11.8587 68.9074 9.98327 69.5718 8.09937C70.2974 8.21179 70.805 8.4724 71.0213 9.25424C71.3432 10.4227 71.7844 11.5572 72.2818 12.7274C72.6736 11.6628 73.0653 10.5982 73.4843 9.46035C73.9204 9.61365 74.3326 9.75673 74.7755 9.91173C74.0942 11.8348 73.435 13.6932 72.7621 15.5856L72.7638 15.5873Z" fill="#FAFAFA"/>
<path d="M27.1121 14.6881C27.3744 14.5195 27.5805 14.3407 27.8207 14.2436C28.0115 14.1669 28.2687 14.1141 28.4509 14.1788C29.7386 14.6387 31.0144 15.1327 32.3822 15.5381C31.798 14.5502 31.2154 13.5622 30.6107 12.5402C31.0161 12.3086 31.3892 12.0956 31.8133 11.8538C32.8643 13.5827 33.8982 15.2809 34.9475 17.0064C34.428 17.405 33.9629 17.7133 33.239 17.3948C32.1863 16.9315 31.0809 16.5891 29.9975 16.1973C29.9141 16.1666 29.8272 16.1445 29.6126 16.0798C30.2428 17.1648 30.8134 18.1476 31.4062 19.1697C31.0093 19.4047 30.6534 19.6159 30.2497 19.8527C29.1919 18.1119 28.1579 16.4119 27.1104 14.6881H27.1121Z" fill="#FAFAFA"/>
<path d="M8.39008 38.4923C8.37816 38.4293 8.36965 38.4123 8.37305 38.4003C8.61266 37.5611 9.14069 37.2841 9.95716 37.5691C11.4697 38.0971 12.9823 38.6235 14.5085 39.1566C14.3654 39.855 14.1014 40.3575 13.3247 40.5789C12.1749 40.9043 11.0626 41.3659 9.91117 41.8735C10.9758 42.2669 12.0404 42.6621 13.1475 43.0709C13.0028 43.4951 12.8699 43.8851 12.7166 44.3348C10.7952 43.6722 8.91811 43.0249 7.05464 42.3811C7.04612 42.3197 7.03421 42.2891 7.03932 42.2601C7.14152 41.4527 7.60825 41.0746 8.3952 40.8668C9.47172 40.5823 10.5091 40.1446 11.5634 39.7715C11.5668 39.7289 11.5719 39.6881 11.5753 39.6455C10.5159 39.2622 9.45638 38.879 8.39008 38.494V38.4923Z" fill="#FAFAFA"/>
<path d="M101.353 76.0378C101.353 77.7292 99.8964 79.1686 98.2033 79.1532C96.4727 79.1379 95.0657 77.6969 95.0862 75.9612C95.1066 74.2561 96.5238 72.9053 98.2799 72.9139C99.9629 72.9241 101.355 74.3379 101.353 76.0378ZM98.1198 74.2987C97.2051 74.3021 96.4488 75.0533 96.4471 75.9629C96.4437 76.9201 97.2971 77.7735 98.2425 77.7599C99.1998 77.7446 100.016 76.9525 100.002 76.0514C99.9884 75.0686 99.1572 74.2953 98.1198 74.2987Z" fill="#FAFAFA"/>
<path d="M62.4324 12.7514C60.6746 12.7411 59.2965 11.3478 59.3102 9.59334C59.3221 7.9462 60.7444 6.44895 62.3813 6.50005C64.3981 6.56307 65.5308 8.0484 65.5649 9.64444C65.6006 11.3597 64.1579 12.7616 62.4324 12.7514ZM62.429 7.87466C61.5126 7.85592 60.7069 8.68545 60.695 9.65977C60.6831 10.5864 61.4326 11.3767 62.3541 11.4091C63.3148 11.4449 64.1511 10.6307 64.1613 9.64785C64.1732 8.65139 63.4323 7.89339 62.429 7.87466Z" fill="#FAFAFA"/>
<path d="M98.6202 65.2571C100.605 65.7562 102.531 66.2399 104.517 66.7407C104.294 67.5873 104.144 68.4202 103.853 69.2021C103.429 70.3467 102.037 70.6669 101.104 69.8953C101.02 69.8272 100.94 69.7522 100.886 69.7028C100.535 69.8408 100.22 70.0401 99.8841 70.0844C98.7428 70.2394 97.7872 69.2804 97.9729 68.1255C98.1245 67.1768 98.3919 66.2467 98.6219 65.2571H98.6202ZM99.5281 66.911C99.4259 67.3675 99.2811 67.7593 99.2743 68.1528C99.2709 68.3538 99.4702 68.6451 99.6575 68.7421C99.9045 68.8682 100.189 68.737 100.293 68.4355C100.427 68.0438 100.535 67.6435 100.666 67.204C100.259 67.0984 99.9318 67.0149 99.5281 66.911ZM101.828 67.5004C101.739 67.9603 101.407 68.3878 101.811 68.7898C101.93 68.9074 102.235 68.9653 102.39 68.8971C102.86 68.6944 102.809 68.2107 102.928 67.79C102.536 67.6861 102.197 67.5975 101.828 67.4987V67.5004Z" fill="#FAFAFA"/>
<path d="M11.3728 60.9409C9.31348 61.055 7.35292 61.164 5.32082 61.2782C5.25098 60.2459 5.02613 59.2444 5.30888 58.282C5.62911 57.1833 6.74141 56.8477 7.90991 57.4115C8.29827 56.8903 8.77862 56.5105 9.49403 56.5497C10.3559 56.5973 11.0765 57.231 11.1599 58.0929C11.2485 59.0076 11.2996 59.9257 11.3745 60.9409H11.3728ZM8.81099 59.7111C9.27089 59.6787 9.62178 59.6532 9.99992 59.6259C9.96926 59.2001 9.99992 58.7828 9.8892 58.408C9.82618 58.1968 9.54343 57.9328 9.34073 57.9157C9.1772 57.9021 8.87401 58.2036 8.83484 58.4063C8.75478 58.8185 8.81099 59.258 8.81099 59.7111ZM7.64249 59.7468C7.62205 59.4709 7.61013 59.2239 7.58288 58.9786C7.54711 58.6533 7.33758 58.4148 7.03609 58.471C6.83339 58.5085 6.58301 58.7487 6.51658 58.9514C6.428 59.2256 6.49443 59.551 6.49443 59.8593C6.8845 59.8201 7.23879 59.786 7.64249 59.7451V59.7468Z" fill="#FAFAFA"/>
<path d="M95.0329 25.2454C95.5508 26.1277 96.1248 26.9198 96.5064 27.797C97.0617 29.0694 96.5064 30.5922 95.3549 31.328C94.1591 32.0911 92.5341 31.9293 91.5632 30.9209C91.2617 30.6075 91.0096 30.2447 90.7507 29.8921C90.502 29.5548 90.2755 29.2023 90.0029 28.8037C91.6688 27.6267 93.3074 26.4667 95.0312 25.2471L95.0329 25.2454ZM91.8664 29.1886C92.2872 29.9415 92.7845 30.5155 93.6754 30.4525C94.4385 30.398 94.9938 29.9824 95.2884 29.2755C95.6376 28.4391 95.1692 27.8191 94.6871 27.1702C93.7384 27.8498 92.8152 28.5107 91.8647 29.1886H91.8664Z" fill="#FAFAFA"/>
<path d="M25.2556 23.9405C24.9235 24.2403 24.6032 24.5282 24.2455 24.8501C22.8812 23.3324 21.5474 21.8471 20.1592 20.3039C20.9308 19.6753 21.6394 19.0127 22.4332 18.4779C22.9901 18.1032 23.6579 18.1389 24.237 18.5562C24.823 18.9787 25.1875 19.505 24.9678 20.2766C24.9218 20.4385 24.8962 20.6071 24.857 20.791C25.9148 20.9784 26.9555 21.1641 28.1257 21.3719C27.6829 21.7654 27.3405 22.1145 26.947 22.3922C26.8176 22.4842 26.5553 22.4075 26.3594 22.3803C25.4958 22.2559 24.6339 22.1214 23.7703 21.9919C23.7447 22.0277 23.7175 22.0617 23.692 22.0975C24.2047 22.7022 24.7191 23.3086 25.2556 23.9422V23.9405ZM22.8266 21.2067C23.1111 20.9273 23.4024 20.7093 23.5897 20.4231C23.6868 20.2766 23.6783 19.936 23.5693 19.8133C23.4586 19.6873 23.123 19.6242 22.9663 19.7009C22.6427 19.8559 22.3701 20.1199 22.0516 20.3601C22.3173 20.6497 22.5337 20.8881 22.8266 21.2084V21.2067Z" fill="#FAFAFA"/>
<path d="M66.2619 105.318C66.6621 104.191 67.0045 103.17 67.3912 102.171C67.5257 101.823 67.4406 101.636 67.1731 101.425C66.3538 100.779 65.5499 100.113 64.6777 99.4026C65.1393 99.2817 65.5175 99.1488 65.9058 99.0943C66.0949 99.0688 66.3385 99.1403 66.5003 99.251C67.013 99.6002 67.5002 99.9886 68.0589 100.408C68.2497 99.8574 68.4455 99.372 68.5818 98.8712C68.7044 98.4198 68.9429 98.1405 69.4045 98.0314C69.6856 97.965 69.9564 97.8492 70.3346 97.7214C70.1659 98.2665 70.0314 98.7213 69.8832 99.1727C69.706 99.7041 69.5391 100.242 69.3245 100.759C69.1916 101.077 69.2563 101.28 69.5169 101.476C70.2766 102.05 71.0295 102.634 71.7841 103.215C71.9068 103.308 72.0277 103.406 72.2253 103.561C71.7364 103.736 71.314 103.906 70.8779 104.032C70.7791 104.061 70.6224 103.957 70.5151 103.882C69.919 103.458 69.3296 103.024 68.6704 102.544C68.4217 103.21 68.1713 103.808 67.9754 104.422C67.8545 104.801 67.6756 105.037 67.2583 105.087C66.9551 105.123 66.6604 105.221 66.2619 105.317V105.318Z" fill="#FAFAFA"/>
<path d="M57.7641 106.456C58.2274 105.635 58.6754 104.838 59.125 104.043C59.4532 103.465 59.4016 102.934 58.97 102.452C58.3875 101.799 57.8067 101.147 57.1509 100.411C57.7181 100.367 58.2001 100.314 58.6856 100.304C58.7929 100.302 58.9189 100.435 59.0075 100.532C59.4317 100.985 59.8473 101.447 60.3191 101.966C60.6342 101.411 60.9408 100.926 61.1929 100.415C61.3565 100.081 61.5745 99.9241 61.9441 99.9002C62.2814 99.8781 62.6135 99.7895 63.0751 99.7078C62.8111 100.202 62.6016 100.592 62.3904 100.982C62.1008 101.517 61.8368 102.067 61.5097 102.578C61.3138 102.883 61.3837 103.067 61.6017 103.3C62.3461 104.099 63.0751 104.912 63.8723 105.79C63.38 105.879 62.9644 105.973 62.5437 106.015C62.4227 106.027 62.2609 105.918 62.1638 105.819C61.6511 105.296 61.152 104.758 60.5933 104.169C60.2237 104.796 59.8575 105.37 59.5441 105.969C59.3635 106.317 59.1353 106.484 58.7452 106.462C58.4386 106.445 58.1303 106.458 57.7607 106.458L57.7641 106.456Z" fill="#FAFAFA"/>
<path d="M80.6483 19.9532C80.2378 19.7165 79.8784 19.5359 79.5514 19.306C79.4662 19.2464 79.4287 19.0198 79.4679 18.9023C79.7456 18.0779 79.4151 17.5839 78.6503 17.2994C78.5924 17.2773 78.5379 17.2432 78.4902 17.204C77.8497 16.6675 77.2263 16.5533 76.5807 17.2194C76.4956 17.3079 76.2315 17.3028 76.0936 17.2415C75.7853 17.1035 75.5059 16.9042 75.1499 16.6896C75.3799 16.5108 75.5536 16.3677 75.7358 16.2348C77.1735 15.1839 78.6281 14.1567 80.0419 13.0768C80.5155 12.714 80.7965 13.0479 81.1627 13.1977C81.5239 13.3459 81.5 13.5895 81.4557 13.9132C81.1781 15.8924 80.9226 17.8734 80.6483 19.9549V19.9532ZM79.7626 16.5516C79.8478 15.9418 79.9261 15.3917 80.0045 14.8415C79.967 14.8244 79.9312 14.8074 79.8938 14.7904C79.4679 15.1208 79.0421 15.4513 78.5668 15.8209C78.9944 16.0815 79.3453 16.2979 79.7626 16.5516Z" fill="#FAFAFA"/>
<path d="M105.538 54.2909C105.572 54.7508 105.603 55.1647 105.64 55.6826C104.177 55.732 102.744 55.8529 101.317 55.8052C99.9763 55.7592 99.0514 54.2126 99.3802 52.7647C99.6135 51.7393 100.392 51.0324 101.433 50.9421C102.584 50.8416 103.739 50.7735 104.891 50.6747C105.211 50.6475 105.364 50.7462 105.357 51.075C105.35 51.3697 105.357 51.6661 105.357 52.0221C104.839 52.0663 104.316 52.1106 103.794 52.1549C103.063 52.2162 102.329 52.2571 101.6 52.3423C100.951 52.4172 100.636 52.826 100.673 53.4648C100.71 54.0831 101.099 54.4817 101.734 54.4732C102.484 54.463 103.233 54.4016 103.981 54.3642C104.492 54.3386 105.003 54.3165 105.536 54.2909H105.538Z" fill="#FAFAFA"/>
<path d="M6.19652 66.8192C6.09432 66.3627 6.00405 65.9675 5.89844 65.4974C7.2526 65.1959 8.57781 64.8552 9.92176 64.6287C10.3459 64.5571 10.8705 64.6985 11.2623 64.9063C12.2502 65.4326 12.6199 66.3678 12.5194 67.4324C12.4206 68.497 11.7886 69.197 10.7308 69.4645C9.52487 69.7694 8.31719 70.0624 7.0567 70.3741C6.93577 69.8971 6.83527 69.4968 6.72115 69.0489C7.73975 68.7951 8.71918 68.5532 9.6969 68.3079C9.93878 68.2466 10.1824 68.1887 10.4174 68.1103C11.0477 67.9042 11.2981 67.4392 11.138 66.7953C11.0034 66.2503 10.5196 65.9198 9.92687 66.0373C8.8248 66.2537 7.73124 66.5075 6.63428 66.7442C6.50142 66.7732 6.36515 66.7919 6.19311 66.8226L6.19652 66.8192Z" fill="#FAFAFA"/>
<path d="M12.3951 79.3489C12.7835 79.5652 13.148 79.7679 13.5057 79.9672C13.022 81.4151 13.6198 82.3911 14.5669 82.6347C15.64 82.9106 16.6194 82.2787 16.8426 81.2379C17.064 80.2091 16.3895 79.4545 14.9195 79.1224V77.8363C16.0096 77.5962 17.4217 78.4598 17.9497 79.6913C18.58 81.1613 18.1286 82.6773 16.7898 83.5954C15.6247 84.3925 13.9554 84.2222 12.918 83.1985C11.8671 82.1611 11.6269 80.5157 12.3917 79.3506L12.3951 79.3489Z" fill="#FAFAFA"/>
<path d="M50.1534 10.2355C50.322 10.2764 50.4736 10.3037 50.6218 10.3497C50.8892 10.4314 51.1516 10.5251 51.4156 10.6137C51.0698 11.9082 49.6679 12.828 48.1894 12.7497C46.7995 12.6747 45.5424 11.5147 45.3159 10.0959C45.0961 8.72465 45.9154 7.25296 47.1793 6.74877C48.6033 6.17985 50.1755 6.59206 50.9642 7.77078C50.6354 8.02458 50.3033 8.27838 49.9166 8.57647C49.4056 7.96496 48.7225 7.6788 47.968 7.91386C47.5881 8.03309 47.21 8.35844 46.9732 8.69229C46.4179 9.47924 46.6956 10.6188 47.4893 11.1162C48.4092 11.6936 49.392 11.3819 50.1534 10.2355Z" fill="#FAFAFA"/>
<path d="M37.4614 15.7714C37.5244 14.5092 37.5807 13.3254 37.6437 12.1416C37.6897 11.3001 37.7612 10.4587 37.7936 9.6172C37.8055 9.32422 37.889 9.13344 38.1836 9.07553C38.5073 9.01251 38.8156 8.68546 39.1648 9.05339C40.5803 10.5506 42.0043 12.0411 43.4998 13.6116C43.0365 13.7853 42.6601 13.9522 42.2683 14.0527C42.161 14.08 41.9753 13.9284 41.8714 13.8177C41.2054 13.1006 41.2088 13.0954 40.3009 13.4242C40.1545 13.477 40.0097 13.5349 39.8649 13.5894C38.8769 13.9624 38.8871 13.9624 38.8241 14.9947C38.8156 15.1327 38.6793 15.32 38.5533 15.3813C38.2348 15.5329 37.889 15.6266 37.4648 15.7731L37.4614 15.7714ZM39.1205 10.7993C39.0796 10.8164 39.0404 10.8334 38.9996 10.8521V12.6032C39.4339 12.4431 39.8308 12.2949 40.2924 12.1245C39.8734 11.6493 39.4969 11.2235 39.1205 10.7993Z" fill="#FAFAFA"/>
<path d="M99.0975 34.4932C98.7636 34.6652 98.5013 34.7981 98.2134 34.9463C98.486 35.5288 98.7483 36.0892 99.0327 36.6956C98.641 36.8898 98.285 37.0687 97.8847 37.2679C97.5747 36.6837 97.2766 36.1233 96.9666 35.5373C96.677 35.6787 96.4028 35.8116 96.0706 35.9717C96.4164 36.7212 96.7451 37.4349 97.096 38.1929C96.7196 38.399 96.3721 38.5897 95.9803 38.8044C95.3995 37.6495 94.8357 36.5287 94.2412 35.3466C96.0502 34.4523 97.8438 33.5683 99.6953 32.6536C100.263 33.805 100.811 34.9173 101.392 36.0977C101.005 36.2987 100.639 36.4878 100.228 36.7007C99.852 35.9683 99.4858 35.2546 99.0958 34.4949L99.0975 34.4932Z" fill="#FAFAFA"/>
<path d="M16.6006 26.4736C16.8714 26.6967 17.1099 26.8909 17.3841 27.1157C17.7895 26.6167 18.1762 26.1397 18.602 25.6151C18.9512 25.8706 19.2714 26.1057 19.6308 26.3697C19.2374 26.9079 18.8643 27.4172 18.4623 27.9674C18.7195 28.1633 18.9614 28.3456 19.239 28.5568C19.7637 27.9214 20.2662 27.3116 20.801 26.6644C21.14 26.925 21.4568 27.1685 21.8333 27.4564C21.0463 28.4597 20.273 29.4459 19.4537 30.4901C17.8389 29.2279 16.2718 28.0032 14.6758 26.7546C15.4798 25.7241 16.2429 24.7447 17.0366 23.7261C17.396 24.0071 17.7128 24.2524 18.0706 24.5318C17.5715 25.1893 17.0962 25.8178 16.5989 26.4736H16.6006Z" fill="#FAFAFA"/>
<path d="M98.094 45.0401C100.078 44.6023 102.007 44.1765 104.008 43.7336C104.282 44.9498 104.546 46.1115 104.827 47.3567C104.41 47.4623 104.017 47.5628 103.574 47.6735C103.385 46.9053 103.202 46.1711 103.01 45.3944C102.676 45.4642 102.378 45.5256 102.025 45.5988C102.139 46.1882 102.248 46.7469 102.369 47.3737C101.969 47.4776 101.572 47.5798 101.136 47.6939C100.968 47.0705 100.813 46.4931 100.652 45.902C99.8757 46.0638 99.1467 46.2137 98.3904 46.3704C98.2899 45.919 98.1979 45.5119 98.0923 45.0401H98.094Z" fill="#FAFAFA"/>
<path d="M104.08 60.2614C104.146 59.7044 104.199 59.2428 104.259 58.7488C104.685 58.7965 105.08 58.8408 105.545 58.8919C105.409 60.3857 105.277 61.8369 105.141 63.3393C104.703 63.2933 104.306 63.2507 103.838 63.1996C103.877 62.6972 103.915 62.21 103.954 61.6819C102.373 61.5167 100.827 61.3549 99.2407 61.188C99.2901 60.7315 99.3361 60.3176 99.3889 59.8304C100.963 59.9752 102.506 60.1166 104.082 60.2597L104.08 60.2614Z" fill="#FAFAFA"/>
<path d="M12.3336 32.9635C12.073 33.4217 11.8345 33.8407 11.5756 34.2972C11.1991 34.0775 10.8414 33.868 10.436 33.6312C11.1651 32.3384 11.8805 31.0711 12.6282 29.7476C12.9996 29.9503 13.359 30.1461 13.7576 30.3625C13.5259 30.8309 13.3096 31.2704 13.0745 31.7456C14.4389 32.5274 15.7692 33.2905 17.1472 34.0809C16.9173 34.4897 16.7146 34.8491 16.4795 35.263C15.0862 34.4897 13.732 33.7385 12.3353 32.9635H12.3336Z" fill="#FAFAFA"/>
<path d="M93.0763 81.7387C92.5892 82.4286 92.1327 83.0742 91.6506 83.7555C91.2878 83.5085 90.9472 83.2752 90.5469 83.0026C91.2912 81.9312 92.0135 80.8888 92.7629 79.8105C94.4424 80.9688 96.0845 82.0999 97.7214 83.2275C97.2989 84.0246 96.7317 84.1848 96.0197 83.7078C95.0607 83.0657 94.1 82.4235 93.078 81.7387H93.0763Z" fill="#FAFAFA"/>
<path d="M13.233 73.6121C12.9417 72.8473 12.659 72.1097 12.3541 71.3109C12.7186 71.1593 13.0831 71.0077 13.5396 70.8186C14.0268 72.0007 14.502 73.159 15.0147 74.4025C13.1513 75.1639 11.327 75.9082 9.42261 76.6849C9.2693 76.2966 9.10579 75.9508 9.00529 75.5863C8.98315 75.5079 9.162 75.3172 9.28465 75.2643C10.431 74.7772 11.5859 74.3088 12.7373 73.8352C12.8941 73.7705 13.0473 73.6956 13.233 73.6104V73.6121Z" fill="#FAFAFA"/>
<path d="M87.6938 17.9023C86.665 19.1219 85.6804 20.2887 84.6567 21.5032C85.2819 22.0466 85.8899 22.5746 86.5219 23.1248C86.2477 23.4587 85.9819 23.7823 85.6804 24.1468C84.6993 23.3054 83.7335 22.4775 82.7319 21.619C84.0435 20.0809 85.3381 18.5649 86.665 17.0081C87.0159 17.3147 87.3293 17.5872 87.6921 17.904L87.6938 17.9023Z" fill="#FAFAFA"/>
<path d="M26.5839 96.8322C26.4443 96.2684 26.2586 95.7097 26.1768 95.1374C26.0865 94.5003 25.768 94.2039 25.1429 94.1086C24.5518 94.02 23.9761 93.8428 23.3901 93.601C23.988 93.4596 24.5791 93.2654 25.1838 93.1904C25.8447 93.1087 26.1002 92.7714 26.1819 92.1446C26.2586 91.5535 26.4409 90.9761 26.5754 90.3918C26.6146 90.3918 26.6538 90.3918 26.6929 90.3901C26.8599 91.1379 27.0421 91.884 27.1869 92.6369C27.2397 92.9094 27.3453 93.0286 27.6247 93.0831C28.3827 93.2313 29.1338 93.417 29.8867 93.589C29.8884 93.6282 29.8901 93.6674 29.8918 93.7066C29.1952 93.8701 28.5002 94.0489 27.7984 94.192C27.439 94.2653 27.2448 94.4101 27.1767 94.8052C27.0592 95.4849 26.8633 96.1526 26.7015 96.8254C26.6623 96.8271 26.6231 96.8288 26.5839 96.8305V96.8322Z" fill="#F2B1CA"/>
<path d="M80.8169 93.5941C81.5408 93.4255 82.2596 93.2381 82.9886 93.0967C83.3038 93.0354 83.4298 92.8804 83.4911 92.5909C83.6444 91.8601 83.8165 91.1328 84.0754 90.3867C84.1606 90.7172 84.2457 91.0493 84.3326 91.3798C84.4689 91.9061 84.4535 92.5823 84.7857 92.9145C85.1178 93.2449 85.7941 93.2313 86.3204 93.3659C86.6457 93.4493 86.9728 93.526 87.2981 93.7117C86.598 93.8752 85.8997 94.054 85.1962 94.1988C84.8538 94.2687 84.6647 94.4049 84.5949 94.778C84.4637 95.4729 84.2696 96.156 83.9885 96.839C83.8267 96.1849 83.6427 95.5342 83.5082 94.875C83.4281 94.4765 83.2595 94.2618 82.8371 94.1852C82.1523 94.0608 81.4812 93.8701 80.8032 93.7066C80.8083 93.6708 80.8118 93.6333 80.8169 93.5975V93.5941Z" fill="#F2B1CA"/>
<path d="M11.9812 47.7469C11.8892 48.2323 11.8125 48.6411 11.724 49.113C9.73444 48.7536 7.7875 48.401 5.86271 48.0535C5.83546 47.9836 5.81333 47.9547 5.81503 47.9274C5.88998 46.6908 5.89168 46.6857 7.08914 46.8901C8.70221 47.1677 10.3136 47.4539 11.9812 47.7469Z" fill="#FAFAFA"/>
<path d="M54.7031 6.10474H56.059V12.0835H54.7031V6.10474Z" fill="#FAFAFA"/>
<path d="M106.011 52.7444C106.149 52.7853 106.251 52.8125 106.352 52.8483C107.469 53.2469 107.488 53.2775 107.396 54.5329C106.309 54.1684 105.846 53.5875 106.011 52.7461V52.7444Z" fill="#FAFAFA"/>
<path d="M35.7021 45.2803C36.6492 45.1049 37.5963 44.9277 38.5433 44.7523C39.6335 44.553 40.7236 44.3537 41.8137 44.1578C42.0914 44.1084 42.3265 44.0352 42.5156 43.7729C42.6365 43.6042 42.9039 43.4492 43.1066 43.4475C45.0382 43.4237 46.9698 43.4339 48.9201 43.5157C48.111 43.7661 47.302 44.0164 46.4571 44.2771C46.9783 44.9567 47.2747 45.6414 47.3019 46.4914C47.3411 47.711 46.3021 49.2372 44.6158 49.4348C43.9497 49.5132 43.2735 49.4978 42.6024 49.5285C41.904 49.5609 41.3794 50.0225 41.2755 50.6885C41.1665 51.3903 41.5753 52.1619 42.1902 52.3714C42.3469 52.4242 42.5291 52.4106 42.6995 52.414C44.4199 52.4446 46.1403 52.4361 47.8572 52.5111C50.603 52.6303 52.5857 54.0236 53.945 56.3521C54.5173 57.3333 54.7592 58.4166 54.7865 59.6532C54.5889 59.4761 54.4629 59.3705 54.347 59.2546C52.8924 57.8119 51.4326 56.376 49.995 54.9162C49.6969 54.6147 49.4073 54.4478 48.9798 54.4989C48.6902 54.533 48.3955 54.5057 48.0361 54.5943C48.1485 54.6897 48.266 54.7799 48.37 54.8838C50.3288 56.8393 52.274 58.8084 54.255 60.7417C54.6724 61.1488 54.8683 61.5508 54.8137 62.1265C54.7695 62.6 54.8052 63.0821 54.8052 63.559C54.7473 63.5948 54.6911 63.6289 54.6332 63.6646C54.2056 63.1979 53.7951 62.7124 53.3471 62.2645C50.9045 59.8202 48.4483 57.3895 46.0108 54.94C45.7042 54.6317 45.4078 54.4376 44.9581 54.4989C44.6839 54.5364 44.4011 54.5057 44.0366 54.5057C44.1763 54.6624 44.2666 54.7748 44.3671 54.8753C47.7397 58.2463 51.1123 61.6189 54.4952 64.9813C54.7269 65.2113 54.8223 65.4361 54.812 65.758C54.7899 66.4581 54.8052 67.1582 54.8052 67.9809C54.5327 67.7305 54.3385 67.5636 54.1596 67.383C49.501 62.709 44.8423 58.0367 40.187 53.3593C39.2281 52.3952 38.9675 51.225 39.3558 49.9492C39.7629 48.6155 40.7066 47.7928 42.071 47.5168C42.57 47.4163 43.0981 47.464 43.6142 47.4419C43.8799 47.43 44.1473 47.4283 44.408 47.3908C44.9309 47.3158 45.2988 46.8781 45.2682 46.3926C45.2375 45.8884 44.8542 45.5018 44.3126 45.495C41.8274 45.4609 39.3405 45.4405 36.8553 45.4166C36.472 45.4132 36.0871 45.4166 35.7021 45.4166C35.7021 45.3706 35.6987 45.3263 35.6987 45.2803H35.7021ZM44.5204 44.1204H43.3485V44.708H44.5204V44.1204Z" fill="#FAFAFA"/>
<path d="M62.6012 54.5072C62.155 54.5072 61.707 54.4851 61.2641 54.5208C61.1227 54.5328 60.9728 54.6741 60.8587 54.79C59.2439 56.4218 57.6342 58.0587 56.0229 59.6956C55.965 59.6701 55.907 59.6445 55.8491 59.6207C55.9394 59.0228 55.9565 58.4011 56.1319 57.8287C57.0194 54.9433 59.0106 53.2041 61.9233 52.579C62.8567 52.378 63.8549 52.4768 64.8224 52.4478C65.9466 52.4138 67.0725 52.3984 68.1967 52.3542C68.8644 52.3269 69.4163 51.7018 69.4334 51.0068C69.4504 50.2948 68.9054 49.6152 68.2342 49.5573C67.5801 49.501 66.9226 49.4908 66.2669 49.4517C63.8685 49.3086 62.5842 46.7893 63.8719 44.7572C63.969 44.6039 64.0729 44.454 64.1938 44.2718C63.3456 44.0163 62.5348 43.7727 61.7223 43.5291L61.741 43.3724C62.2197 43.3724 62.7 43.3673 63.1787 43.3724C64.5856 43.3877 65.9926 43.3928 67.3979 43.4405C67.6551 43.449 67.9906 43.5632 68.1405 43.7488C68.3977 44.0674 68.7077 44.1304 69.0603 44.1951C70.8863 44.5341 72.7106 44.8816 74.5349 45.229C74.6508 45.2512 74.7632 45.2938 74.8671 45.4317C73.8638 45.4317 72.8605 45.4317 71.8572 45.4317C70.0432 45.4317 68.2291 45.4317 66.4167 45.4386C65.9483 45.4403 65.5225 45.7997 65.4101 46.2647C65.3045 46.7093 65.5259 47.0278 65.8683 47.2577C66.0147 47.3548 66.2175 47.3974 66.398 47.4093C66.9908 47.4451 67.5869 47.4332 68.178 47.4775C69.6395 47.5882 70.6615 48.3342 71.21 49.6918C71.7414 51.0051 71.5404 52.2179 70.5491 53.2382C68.2717 55.5803 65.9773 57.9071 63.6761 60.2271C61.242 62.6799 58.7943 65.1174 56.3533 67.5651C56.2341 67.6843 56.1421 67.8325 56.0365 67.9671C55.9871 67.9467 55.936 67.9262 55.8866 67.9075C55.8866 67.0745 55.873 66.2399 55.9002 65.4087C55.9053 65.2724 56.0723 65.1259 56.1881 65.0084C59.5692 61.6238 62.9555 58.2427 66.3401 54.8615C66.4287 54.7729 66.5309 54.698 66.6024 54.5651C65.8955 54.5753 65.2329 54.3488 64.5839 55.0182C61.7564 57.9378 58.8607 60.7892 55.8985 63.7564C55.8985 62.8843 55.8883 62.1178 55.9105 61.353C55.9139 61.2457 56.0723 61.1366 56.1711 61.0396C58.2151 58.9921 60.2591 56.9464 62.3066 54.9041C62.4122 54.7985 62.5552 54.7286 62.6796 54.6435C62.6523 54.5992 62.6234 54.5566 62.5961 54.5123L62.6012 54.5072ZM67.3485 44.1133H66.1936V44.7146H67.3485V44.1133Z" fill="#FAFAFA"/>
<path d="M55.3538 73.2289C57.3365 71.2394 59.2698 69.3027 61.1912 67.3558C61.3036 67.2416 61.3632 67.0304 61.3683 66.8618C61.3871 66.1277 61.399 65.3901 61.3649 64.6577C61.3445 64.2165 61.445 63.8775 61.8027 63.6016C61.9849 63.4619 62.1161 63.2575 62.2711 63.0821C62.3086 63.0957 62.3477 63.1093 62.3852 63.1229V65.9267C62.4295 65.9488 62.4721 65.9692 62.5164 65.9914C63.1449 65.3782 63.7803 64.7701 64.3969 64.145C64.465 64.0751 64.4497 63.9099 64.4497 63.789C64.4497 63.0855 64.4769 62.3786 64.4258 61.6785C64.3884 61.1658 64.511 60.7723 64.9215 60.4589C65.068 60.3465 65.177 60.1881 65.3576 59.9905C65.3848 60.1625 65.4104 60.2562 65.4121 60.3533C65.4291 61.6206 65.4581 62.8862 65.4461 64.1535C65.4444 64.3698 65.3286 64.6355 65.1787 64.7939C64.3458 65.6626 63.4788 66.499 62.639 67.3626C62.513 67.492 62.4006 67.7016 62.3989 67.8736C62.3869 73.0348 62.3886 78.1942 62.3903 83.3554C62.3903 83.3997 62.4039 83.4456 62.4193 83.5342H65.4291V84.6005H61.3717V68.7934C59.6241 70.6177 57.9599 72.3534 56.2497 74.1368C56.9634 74.8301 57.8594 75.6971 58.631 76.4466C57.5153 77.6168 56.4388 78.7444 55.3248 79.9129C54.2432 78.7614 53.1752 77.6253 52.0731 76.4517C52.8413 75.6869 53.7254 74.8062 54.5856 73.9495C52.8396 72.1967 51.1124 70.4627 49.3426 68.6861V84.5937H45.2478V83.5921H48.3155V83.0811C48.3155 78.0613 48.3121 73.0416 48.3223 68.0218C48.3223 67.7152 48.2337 67.5023 48.0157 67.291C47.164 66.4615 46.326 65.6184 45.4965 64.7701C45.3773 64.6491 45.2563 64.4635 45.2529 64.3051C45.2341 62.9322 45.2426 61.5593 45.2426 60.0297C45.7077 60.5832 46.3379 60.8149 46.2647 61.6138C46.1999 62.3275 46.2357 63.0514 46.2613 63.7702C46.2681 63.9627 46.3549 64.1978 46.4878 64.334C47.0346 64.9029 47.612 65.4429 48.2849 66.0953V63.1076C48.9219 63.6714 49.4704 64.1024 49.3495 65.0069C49.2541 65.7257 49.1553 66.5501 49.4142 67.182C49.6663 67.7969 50.3698 68.2262 50.8774 68.7355C52.3542 70.2191 53.831 71.7027 55.3555 73.2323L55.3538 73.2289ZM55.3572 74.658C54.7184 75.3496 54.1308 75.985 53.6078 76.5505C54.1716 77.1211 54.7985 77.7547 55.3521 78.3151C55.938 77.7275 56.5615 77.1041 57.1065 76.5573C56.5666 75.9713 55.9874 75.3428 55.3572 74.658Z" fill="#F2B1CA"/>
<path d="M40.2752 37.4091C39.3179 36.3939 38.4628 35.4911 37.6095 34.5866C37.5737 34.6003 37.5362 34.6139 37.5004 34.6292V38.7088H35.4155V31.679C36.0798 31.679 36.7595 31.6671 37.4374 31.6909C37.5498 31.6943 37.6674 31.8374 37.7645 31.9345C38.594 32.7624 39.4201 33.5936 40.2854 34.464C41.1252 33.6225 41.9343 32.7845 42.7791 31.9805C42.9563 31.8119 43.2526 31.7063 43.503 31.6858C44.043 31.6415 44.5898 31.6722 45.1553 31.6722V38.7122H43.1079V34.5509C42.1898 35.4758 41.2972 36.3786 40.2752 37.4091Z" fill="#F2B1CA"/>
<path d="M66.466 37.4073C65.5206 36.3836 64.6843 35.4774 63.848 34.5696C63.8037 34.5917 63.7611 34.6121 63.7168 34.6343V38.7002H61.6387V31.6773C62.2876 31.6773 62.952 31.6636 63.6163 31.6892C63.7423 31.6943 63.8752 31.8425 63.9825 31.9481C64.8137 32.7708 65.6381 33.6003 66.4966 34.4588C67.3279 33.6242 68.1506 32.8134 68.9529 31.9822C69.1794 31.7471 69.4094 31.6517 69.733 31.6653C70.2627 31.6909 70.7942 31.6721 71.3546 31.6721V38.7019H69.3379V34.5065C68.3976 35.457 67.4931 36.3683 66.466 37.4056V37.4073Z" fill="#F2B1CA"/>
<path d="M57.0837 36.7534C56.4722 37.4569 55.9391 38.0684 55.3207 38.7787C54.6922 38.065 54.1573 37.4569 53.5595 36.7772C53.3108 37.2831 53.0757 37.6374 52.9582 38.0275C52.7708 38.6509 52.3893 38.8247 51.7812 38.7497C51.3707 38.6986 50.9483 38.7395 50.4355 38.7395C50.6485 38.2745 50.8052 37.9117 50.9772 37.5557C51.8698 35.7195 52.7742 33.8884 53.6566 32.0487C53.7911 31.7694 53.9427 31.6621 54.2579 31.6723C55.0073 31.6978 55.7585 31.6706 56.508 31.6893C56.6477 31.6927 56.8571 31.7796 56.9117 31.8886C58.012 34.1081 59.0954 36.3378 60.1804 38.5641C60.1923 38.5879 60.1804 38.622 60.1804 38.7361C59.5314 38.7361 58.8824 38.7463 58.2335 38.7242C58.1398 38.7208 58.0257 38.5675 57.9678 38.4602C57.6952 37.956 57.4397 37.4432 57.0837 36.7534ZM54.3311 35.2153C54.6752 35.5849 54.9818 35.9153 55.2799 36.2356C55.6495 35.8796 56.0055 35.5372 56.3734 35.1829C56.0327 34.5373 55.6989 33.9088 55.3225 33.1968C54.9528 33.948 54.6394 34.5867 54.3311 35.2153Z" fill="#F2B1CA"/>
<path d="M58.825 49.5368C58.7228 48.0872 58.1095 46.9511 56.7502 46.3396C54.5819 45.3636 52.1512 46.7842 51.894 49.1501C51.8821 49.2574 51.8753 49.3665 51.865 49.4721H48.7343C48.7223 49.4329 48.7121 49.3954 48.7002 49.3562C49.6967 48.9185 50.6914 48.4807 51.7458 48.0174C50.9963 47.3327 50.2911 46.6888 49.5859 46.0449C49.6047 46.0074 49.6234 45.97 49.6404 45.9325C50.6199 46.1727 51.601 46.4128 52.6486 46.6701C52.3897 45.6089 52.1529 44.6328 51.9144 43.6568C51.9451 43.6364 51.9775 43.6176 52.0081 43.5972C52.7849 44.282 53.5616 44.9667 54.3928 45.7008C54.7045 44.6397 54.9924 43.6551 55.282 42.6723C55.3143 42.6638 55.3467 42.657 55.379 42.6484C55.6737 43.65 55.9684 44.6516 56.2818 45.7162C57.1148 44.9667 57.9 44.2632 58.6836 43.558C58.7125 43.5717 58.7432 43.5853 58.7721 43.5989C58.532 44.5954 58.2918 45.5901 58.0295 46.6769C59.0958 46.4129 60.0803 46.1693 61.0648 45.924C61.0802 45.9546 61.0972 45.9836 61.1125 46.0143C60.4074 46.6666 59.7005 47.3173 58.9271 48.0327C59.9815 48.4909 60.9831 48.9253 61.9846 49.3579C61.9778 49.4142 61.9727 49.4704 61.9659 49.5266H58.813L58.8215 49.5351L58.825 49.5368Z" fill="#F2B1CA"/>
<path d="M73.2031 31.696H75.271V38.6747H73.2031V31.696Z" fill="#F2B1CA"/>
<path d="M49.0153 38.7036H47.0054V31.6978H49.0153V38.7036Z" fill="#F2B1CA"/>
<path d="M58.8167 49.5286C58.8082 51.3954 57.253 52.9506 55.3776 52.9642C53.5499 52.9779 51.9334 51.484 51.8857 49.687C51.9914 49.7517 52.0867 49.7875 52.1515 49.8539C53.9196 51.6901 57.4523 51.4414 58.7469 49.5541C58.7571 49.5388 58.7996 49.5439 58.8269 49.5388L58.8184 49.5303L58.8167 49.5286Z" fill="#F2B1CA"/>
</svg>
