<svg width="73" height="80" viewBox="0 0 73 80" fill="none" xmlns="http://www.w3.org/2000/svg">
<path d="M15.4065 13.219H16.4859V5.12874L15.4065 4.15171V13.2185V13.219ZM22.5455 13.219H23.5859V4.29517L22.5455 5.28556V13.219ZM25.0683 0.243594L23.5859 0.19165L19.8927 3.69609L20.6339 4.38669L25.0683 0.243594ZM15.6539 0.19165H14.1325L15.2638 1.33787L20.6344 6.41841L24.0284 3.21376V13.2185H25.0688V0.843168L20.6734 4.98577L15.6539 0.19165ZM13.9241 0.647762V13.219H14.9645V3.10987L19.5416 7.49982L20.3352 6.70534L15.2119 1.8202L13.9246 0.647762H13.9241ZM26.2515 0.491437V13.219H27.2786V6.13198H32.8705V5.18068H27.2786V1.52041L26.2515 0.491437ZM27.526 1.14246H34.067V0.19165H26.5769L27.526 1.14246ZM28.7615 2.47122H34.067V1.52041H27.7211V4.7775H28.7615V2.47171V2.47122ZM27.7211 6.54901V12.9321L28.7615 11.9031V7.44788H32.8705V6.54901H27.7211ZM34.2225 12.3197H29.0079L28.0588 13.2185H34.2225V12.3197ZM34.2225 10.9523H29.2035V11.9031H34.2225V10.9523ZM39.7754 2.32825C40.2564 2.32825 40.6336 2.40641 40.9457 2.54988C41.2316 2.67998 41.479 2.86252 41.6479 3.03171C41.8173 3.22712 41.9338 3.38344 41.9862 3.53977C42.0513 3.66987 42.0904 3.74803 42.0904 3.74803H43.1698C43.1698 3.74803 43.1437 3.65701 43.0918 3.50069C43.04 3.3315 42.9491 3.13609 42.8187 2.90161C42.6755 2.66712 42.4805 2.41977 42.2207 2.18528C41.9738 1.9508 41.6484 1.74253 41.2583 1.5862C40.8682 1.42988 40.3739 1.35172 39.8021 1.35172C39.2949 1.35172 38.8396 1.44274 38.4624 1.63815C38.0722 1.84642 37.773 2.09376 37.5523 2.40641C37.331 2.7062 37.2012 3.03171 37.175 3.35772C37.1622 3.67037 37.253 3.97015 37.4481 4.2175C37.6693 4.46485 38.0204 4.6474 38.4885 4.75178C38.1764 4.2175 38.0727 3.77475 38.2026 3.42302C38.3196 3.05793 38.5409 2.78436 38.8525 2.60231C39.1907 2.41977 39.4766 2.32875 39.7759 2.32875L39.7754 2.32825ZM39.7235 6.31453C40.2568 6.41891 40.8682 6.54901 41.5442 6.7182C42.2202 6.87453 42.8444 7.08329 43.4167 7.30442C43.9757 7.53891 44.3658 7.79961 44.587 8.0989C44.4833 7.61707 44.2616 7.25198 43.95 6.99177C43.6246 6.73106 43.1827 6.48371 42.6493 6.24923C42.2464 6.06718 41.8301 5.92372 41.3753 5.80647C40.92 5.68923 40.4909 5.59821 40.0746 5.50718C39.6455 5.42902 39.2816 5.3375 38.9823 5.24647C38.8391 5.19453 38.6831 5.15545 38.5404 5.11637C38.1764 5.02534 37.851 4.9081 37.5518 4.778C37.253 4.6474 37.0446 4.45199 36.9276 4.19178C36.7197 3.57934 36.7454 3.03221 36.9928 2.56323C37.253 2.0814 37.6303 1.70345 38.1503 1.42988C38.6707 1.15631 39.2164 0.999987 39.7887 0.999987C40.361 0.999987 40.8939 1.09101 41.362 1.27356C41.8173 1.44324 42.2074 1.67723 42.5323 1.95129C42.8444 2.22486 43.0913 2.51129 43.2607 2.8373C43.4296 3.16281 43.5076 3.46259 43.5076 3.74902H44.5219C44.5219 3.74902 44.5085 3.60556 44.4438 3.30627C44.392 3.01984 44.2488 2.65475 44.0276 2.23822C43.7935 1.83454 43.4552 1.44373 42.9871 1.07864C42.5061 0.726914 41.8558 0.466208 41.0366 0.297021C39.8924 0.127834 38.969 0.179778 38.2535 0.466702C37.5513 0.727408 37.0313 1.06578 36.6802 1.43037C36.3291 1.75638 36.0822 2.17292 35.9262 2.69383C35.7444 3.21524 35.7444 3.72281 35.861 4.23086C36.0042 4.60881 36.2639 4.93432 36.6674 5.20789C37.0836 5.48146 37.5518 5.70308 38.0979 5.88513C38.6441 6.06767 39.1902 6.21064 39.7235 6.31502V6.31453ZM40.1393 11.0953C39.7102 11.0953 39.3591 11.03 39.0732 10.9261C38.8001 10.8351 38.5794 10.7045 38.41 10.5482C38.2411 10.3918 38.1241 10.2484 38.0461 10.1054C37.9681 9.94907 37.929 9.83183 37.9029 9.71459C37.8767 9.6107 37.8767 9.57162 37.8767 9.57162H36.7716C36.7716 9.676 36.8106 9.85805 36.8496 10.0535C36.9014 10.2617 36.9923 10.4833 37.1617 10.7441C37.3177 10.9785 37.5518 11.213 37.8767 11.4475C38.1236 11.6429 38.5661 11.8121 39.2031 11.9684C39.8144 12.1248 40.6075 12.0723 41.5699 11.864C42.3501 11.5905 42.8439 11.2254 43.0913 10.796C43.3125 10.3532 43.3382 9.93621 43.1432 9.5454C42.9353 9.15459 42.5842 8.88102 42.0899 8.75092C42.3891 9.36335 42.4671 9.83183 42.2978 10.1707C42.1155 10.4962 41.8296 10.7441 41.4134 10.8742C40.9842 11.0043 40.5679 11.0958 40.1388 11.0958L40.1393 11.0953ZM44.4567 8.50307C44.3915 8.43777 44.3268 8.35961 44.2745 8.2948C44.1836 8.17756 44.0532 8.04745 43.8844 7.93021C43.7283 7.82583 43.4424 7.69572 43.0651 7.55226C42.6622 7.39594 42.0642 7.22626 41.2706 7.01799C40.9067 6.92696 40.5033 6.84831 40.0613 6.75728C39.528 6.6529 38.969 6.5228 38.4095 6.39269C37.8762 6.23637 37.3562 6.05382 36.9009 5.83269C36.4328 5.59821 36.0689 5.28556 35.7958 4.90761C35.7958 5.42852 35.978 5.85842 36.3419 6.21015C36.7059 6.57523 37.3039 6.90074 38.1364 7.20053C38.5394 7.35686 39.0465 7.49982 39.684 7.64329C40.126 7.74717 40.5941 7.87777 41.0494 7.99502C41.5309 8.12512 41.9595 8.26859 42.3758 8.45063C42.7659 8.62032 43.0908 8.82858 43.3377 9.06307C43.5846 9.31042 43.715 9.59734 43.715 9.89664C43.715 10.3003 43.598 10.6783 43.3511 11.0819C43.117 11.4599 42.753 11.7983 42.2849 12.059C41.7906 12.3063 41.1793 12.4369 40.4381 12.4369C39.6189 12.4369 38.9423 12.3325 38.4224 12.1505C37.9019 11.9551 37.5123 11.7206 37.213 11.4342C36.9271 11.1477 36.7192 10.8608 36.5889 10.5744C36.4585 10.3008 36.3805 10.0535 36.3676 9.85805C36.3286 9.66264 36.3158 9.57162 36.3158 9.57162H35.3795C35.3795 9.57162 35.3924 9.676 35.4057 9.87091C35.4319 10.0792 35.4837 10.3532 35.6136 10.6525C35.7306 10.978 35.9128 11.3041 36.1726 11.6429C36.4195 11.9813 36.7839 12.2811 37.252 12.5546C37.9019 12.9197 38.5522 13.128 39.2026 13.1799C39.8267 13.2324 40.4638 13.2324 41.1013 13.1671C41.8425 13.128 42.5057 12.9455 43.117 12.6071C43.715 12.2944 44.1441 11.8774 44.4043 11.3694C44.6384 10.8351 44.7683 10.3013 44.8073 9.75416C44.8335 9.20703 44.7164 8.79 44.4562 8.50357L44.4567 8.50307ZM50.1784 2.32825C50.6594 2.32825 51.0367 2.40641 51.3488 2.54988C51.6347 2.67998 51.8821 2.86252 52.0509 3.03171C52.2198 3.22712 52.3369 3.38344 52.3892 3.53977C52.4544 3.66987 52.4934 3.74803 52.4934 3.74803H53.5724C53.5724 3.74803 53.5467 3.65701 53.4944 3.50069C53.4425 3.3315 53.3511 3.13609 53.2213 2.90161C53.0786 2.66712 52.8835 2.41977 52.6233 2.18528C52.3764 1.9508 52.051 1.74253 51.6613 1.5862C51.2712 1.42988 50.7769 1.35172 50.2046 1.35172C49.6975 1.35172 49.2427 1.44274 48.8654 1.63815C48.4753 1.84642 48.176 2.09376 47.9553 2.40641C47.7341 2.7062 47.6042 3.03171 47.578 3.35772C47.5647 3.67037 47.6561 3.97015 47.8511 4.2175C48.0723 4.46485 48.4234 4.6474 48.8916 4.75178C48.5795 4.2175 48.4753 3.77475 48.6057 3.42302C48.7227 3.05793 48.9434 2.78436 49.2555 2.60231C49.5938 2.41977 49.8797 2.32875 50.1789 2.32875L50.1784 2.32825ZM50.1261 6.31453C50.6594 6.41891 51.2702 6.54901 51.9468 6.7182C52.6228 6.87453 53.247 7.08329 53.8193 7.30442C54.3783 7.53891 54.7689 7.79961 54.9896 8.0989C54.8854 7.61707 54.6642 7.25198 54.3521 6.99177C54.0272 6.73106 53.5847 6.48371 53.0519 6.24923C52.6489 6.06718 52.2327 5.92372 51.7774 5.80647C51.3226 5.68923 50.893 5.59821 50.4772 5.50718C50.0481 5.42902 49.6841 5.3375 49.3849 5.24647C49.2422 5.19453 49.0861 5.15545 48.9429 5.11637C48.579 5.02534 48.2536 4.9081 47.9548 4.778C47.6556 4.6474 47.4477 4.45199 47.3306 4.19178C47.1227 3.57934 47.1484 3.03221 47.3958 2.56323C47.6561 2.0814 48.0328 1.70345 48.5533 1.42988C49.0733 1.15631 49.6194 0.999987 50.1918 0.999987C50.7641 0.999987 51.2969 1.09101 51.765 1.27356C52.2198 1.44324 52.6104 1.67723 52.9354 1.95129C53.2474 2.22486 53.4944 2.51129 53.6637 2.8373C53.8331 3.16281 53.9106 3.46259 53.9106 3.74902H54.9249C54.9249 3.74902 54.9116 3.60556 54.8469 3.30627C54.795 3.01984 54.6518 2.65475 54.4306 2.23822C54.1965 1.83454 53.8583 1.44373 53.3902 1.07864C52.9087 0.726914 52.2588 0.466208 51.4396 0.297021C50.295 0.127834 49.372 0.179778 48.6565 0.466702C47.9543 0.727408 47.4343 1.06578 47.0832 1.43037C46.7321 1.75638 46.4852 2.17292 46.3292 2.69383C46.147 3.21524 46.147 3.72281 46.264 4.23086C46.4072 4.60881 46.667 4.93432 47.0704 5.20789C47.4867 5.48146 47.9548 5.70308 48.501 5.88513C49.0471 6.06767 49.5933 6.21064 50.1266 6.31502L50.1261 6.31453ZM50.5424 11.0953C50.1133 11.0953 49.7621 11.03 49.4762 10.9261C49.2032 10.8351 48.9824 10.7045 48.8131 10.5482C48.6442 10.3918 48.5271 10.2484 48.4491 10.1054C48.3711 9.94907 48.3321 9.83183 48.3059 9.71459C48.2797 9.6107 48.2797 9.57162 48.2797 9.57162H47.1746C47.1746 9.676 47.2136 9.85805 47.2526 10.0535C47.3045 10.2617 47.3953 10.4833 47.5647 10.7441C47.7208 10.9785 47.9548 11.213 48.2797 11.4475C48.5266 11.6429 48.9691 11.8121 49.6061 11.9684C50.2174 12.1248 51.0105 12.0723 51.9729 11.864C52.7531 11.5905 53.2474 11.2254 53.4944 10.796C53.7156 10.3532 53.7413 9.93621 53.5462 9.5454C53.3383 9.15459 52.9872 8.88102 52.4929 8.75092C52.7922 9.36335 52.8702 9.83183 52.7008 10.1707C52.5186 10.4962 52.2327 10.7441 51.8164 10.8742C51.3873 11.0043 50.971 11.0958 50.5419 11.0958L50.5424 11.0953ZM54.8592 8.50307C54.794 8.43777 54.7294 8.35961 54.6775 8.2948C54.5867 8.17756 54.4563 8.04745 54.2874 7.93021C54.1314 7.82583 53.8454 7.69572 53.4682 7.55226C53.0652 7.39594 52.4667 7.22626 51.6737 7.01799C51.3097 6.92696 50.9063 6.84831 50.4643 6.75728C49.931 6.6529 49.372 6.5228 48.8126 6.39269C48.2792 6.23637 47.7593 6.05382 47.304 5.83269C46.8358 5.59821 46.4719 5.28556 46.1988 4.90761C46.1988 5.42852 46.3811 5.85842 46.745 6.21015C47.1094 6.57523 47.7074 6.90074 48.5395 7.20053C48.9424 7.35686 49.4496 7.49982 50.0871 7.64329C50.529 7.74717 50.9972 7.87777 51.4525 7.99502C51.9334 8.12512 52.3625 8.26859 52.7788 8.45063C53.1689 8.62032 53.4939 8.82858 53.7413 9.06307C53.9882 9.31042 54.1185 9.59734 54.1185 9.89664C54.1185 10.3003 54.0015 10.6783 53.7541 11.0819C53.52 11.4599 53.1561 11.7983 52.688 12.059C52.1942 12.3063 51.5828 12.4369 50.8416 12.4369C50.0224 12.4369 49.3464 12.3325 48.8259 12.1505C48.3054 11.9551 47.9158 11.7206 47.6166 11.4342C47.3306 11.1477 47.1223 10.8608 46.9924 10.5744C46.8625 10.3008 46.7845 10.0535 46.7712 9.85805C46.7322 9.66264 46.7193 9.57162 46.7193 9.57162H45.7831C45.7831 9.57162 45.7959 9.676 45.8092 9.87091C45.8349 10.0792 45.8872 10.3532 46.0171 10.6525C46.1341 10.978 46.3164 11.3041 46.5761 11.6429C46.823 11.9813 47.1874 12.2811 47.6556 12.5546C48.3059 12.9197 48.9563 13.128 49.6061 13.1799C50.2303 13.2324 50.8673 13.2324 51.5048 13.1671C52.246 13.128 52.9092 12.9455 53.5205 12.6071C54.1185 12.2944 54.5476 11.8774 54.8079 11.3694C55.0419 10.8351 55.1718 10.3013 55.2108 9.75416C55.2365 9.20703 55.12 8.79 54.8597 8.50357L54.8592 8.50307ZM57.5125 13.219V0.19165H56.4592V13.219H57.5125ZM59.0986 13.219V0.19165H58.0453V13.219H59.0986Z" fill="#FF7CAF"/>
<path d="M0.0310059 26.1567L8.45191 25.3899V79.9002H13.3984V20.9065L0.0310059 21.9092V26.1567ZM16.4017 20.9065H15.1652V79.9002H20.1117V24.682L16.4022 20.9065H16.4017ZM0.0310059 32.1154L6.74432 31.5846V27.16L0.0310059 27.6314V32.1149V32.1154ZM31.4767 47.3352C32.7719 33.826 37.8952 26.9824 46.9052 26.9824C49.0839 26.9824 51.0863 27.5726 52.9706 28.7519C54.737 29.8729 56.327 31.4065 57.5635 33.2354C58.918 35.0643 59.919 37.1291 60.6256 39.3706C61.2735 41.5532 61.6266 43.7952 61.6266 45.9778C61.6266 48.3375 61.5086 50.9926 61.391 54.0602C61.2147 57.1867 60.6256 60.0183 59.6247 62.6734C58.6825 65.3279 57.0924 67.275 54.7957 68.6315C52.6171 69.9885 49.4957 70.1656 45.5502 69.0446C45.5502 69.0446 45.727 69.2217 46.08 69.5759C46.3156 69.8707 46.7867 70.3427 47.4933 70.6375C48.2587 71.0506 49.0834 71.4043 50.2023 71.7585C51.3801 72.1122 52.6758 72.2304 54.3246 72.2304C56.5033 72.2304 58.6825 71.1688 60.8024 68.868C62.9811 66.6854 64.5712 63.3813 65.6309 59.0161C66.7498 54.6503 66.9266 49.223 66.102 42.7341C65.1598 37.0114 63.2166 32.4691 60.2133 29.1066C57.1512 25.7441 53.618 23.7381 49.6725 22.9714C45.6089 22.2046 41.6047 22.9714 37.6596 25.154C36.1288 25.9208 34.5975 27.2777 32.9487 29.1655C31.3586 31.0532 30.0046 33.7672 28.7089 37.1296C27.5311 40.4921 26.942 44.7989 26.7657 49.9903C26.707 55.7125 27.4724 60.9038 29.0037 65.3284C30.5937 69.753 33.008 73.2925 36.1881 75.77C39.427 78.4245 43.5488 79.7815 48.4952 79.8997L54.2076 79.6049C48.1422 79.6049 43.3725 78.012 39.8981 74.9443C36.4824 71.8179 34.1269 67.8059 32.7724 62.7916C31.4772 57.9544 31.0648 52.7037 31.4772 47.3352H31.4767ZM44.4322 21.4373C50.6152 21.0836 55.5029 22.3812 59.1541 25.5077C62.8048 28.5164 65.337 32.5868 66.8096 37.5422C68.2816 42.4976 68.7527 47.7478 68.2816 53.2345C67.575 60.3136 65.9849 65.4461 63.3939 68.6909C60.8029 72.1122 57.2697 73.7051 52.7943 73.7645C45.9047 73.3514 41.4289 69.0451 39.3094 60.9632C38.4848 57.6596 38.0729 54.0607 37.9549 50.1674C37.9549 46.3919 38.4848 42.8518 39.6038 39.5482C40.6635 36.1857 42.3715 33.7672 44.727 32.1154C47.0825 30.4636 50.0858 30.3453 53.7958 31.7023C53.4422 31.2303 52.9711 30.6407 52.0882 30.0505C51.3815 29.3426 50.2038 28.9295 48.7313 28.6935C47.2592 28.4576 45.3161 28.5758 43.0194 29.2837C41.3706 29.6968 39.663 31.0537 37.8962 33.2363C36.1298 35.5372 34.7753 38.6048 33.8331 42.6752C32.9497 46.7456 32.8322 51.7598 33.7151 57.7773C34.5985 62.9687 36.1886 67.2755 38.7203 70.7562C41.2526 74.1776 44.3734 76.3607 48.2602 77.4223C52.0289 78.425 56.3868 78.0125 61.2157 76.1247C64.8077 74.7089 67.6935 71.759 69.7542 67.3933C71.8741 62.9098 72.993 57.1877 72.993 50.108C72.993 46.1554 72.5807 42.2621 71.521 38.4866C70.6376 34.6522 69.1068 31.2892 66.9281 28.4576C64.7494 25.567 61.8048 23.4433 58.0949 22.0863C54.4437 20.7888 49.8507 20.6117 44.4332 21.4373H44.4322Z" fill="#FF7CAF"/>
</svg>
