<svg width="103" height="139" viewBox="0 0 103 139" fill="none" xmlns="http://www.w3.org/2000/svg">
<path d="M81.1844 86.3199C81.2357 92.3373 79.791 97.9476 76.4695 102.99C71.69 110.247 65.0156 114.709 56.4148 116.131C49.6312 117.253 43.1736 116.152 37.2075 112.723C29.6361 108.37 24.6679 101.919 22.9352 93.3386C20.5984 81.7688 24.0176 71.96 33.0105 64.3124C38.9733 59.2367 46.0565 57.1349 53.8712 57.696C61.7504 58.2636 68.2957 61.6281 73.6461 67.3774C74.7897 68.607 75.8969 69.8813 76.9345 71.202C79.4484 74.4076 80.6383 78.1263 80.9494 82.1495C81.057 83.538 81.1116 84.9281 81.1877 86.3199H81.1844Z" fill="#FDD030"/>
<path d="M95.2582 86.409C94.9222 63.0113 75.9102 43.5293 51.6635 43.4763C27.7313 43.473 8.18804 62.97 8.09702 86.7962C8.00269 110.967 27.4417 130.414 51.2366 130.646C75.6653 130.887 95.609 110.954 95.2582 86.4073V86.409ZM76.4696 102.99C71.6901 110.247 65.0157 114.712 56.4149 116.13C49.6313 117.252 43.1737 116.152 37.2076 112.723C29.6362 108.37 24.668 101.919 22.9353 93.3383C20.5985 81.7685 24.0176 71.9596 33.0106 64.3121C38.9734 59.2364 46.0566 57.1346 53.8712 57.6956C61.7505 58.2633 68.2958 61.6278 73.6462 67.3771C74.7898 68.6067 75.8969 69.881 76.9346 71.2017C79.4485 74.4073 80.6384 78.126 80.9495 82.1492C81.0571 83.5377 81.1117 84.9278 81.1878 86.3196C81.2391 92.337 79.7944 97.9473 76.4729 102.99H76.4696Z" fill="#23558B"/>
<path d="M76.7096 22.6671C76.4349 23.0477 76.42 23.5244 76.7956 23.9331C76.9694 24.1218 77.0952 24.3568 77.3021 24.6646C76.6401 24.7623 76.0757 24.8384 75.518 24.936C74.9073 25.0403 74.2884 26.1375 74.5019 26.7085C74.722 27.2943 74.3364 28.332 73.772 28.3436C72.7559 28.3585 72.1883 28.9989 71.5544 29.5947C70.6111 30.4784 69.6794 31.3705 68.7178 32.2857C68.794 32.4131 68.8635 32.524 68.928 32.6365C69.3087 33.2803 69.2292 33.4938 68.5292 33.7288C68.0426 33.8932 67.8799 34.2346 68.041 34.7532C68.1849 35.2199 68.031 35.531 67.5494 35.6104C67.2317 35.6617 66.8875 35.6584 66.573 35.5955C60.0906 34.2253 53.542 33.934 46.947 34.3361C43.3905 34.5562 39.8588 34.9584 36.347 35.5807C36.0938 35.6237 35.7926 35.3738 35.5113 35.2612C35.6338 35.0362 35.7612 34.8094 35.8737 34.5778C35.9532 34.4139 36.1054 34.1988 36.0574 34.078C36.0028 33.9439 35.7579 33.8181 35.5874 33.8099C34.99 33.7801 34.3859 33.7983 33.6197 33.7983C33.8183 33.5087 33.9093 33.3531 34.0252 33.219C34.2105 32.9989 34.4223 32.7987 34.6077 32.5753C34.9122 32.2095 34.9486 31.9249 34.4952 31.5773C33.3185 30.6721 32.1948 29.6957 31.0297 28.7738C30.8261 28.6117 30.5233 28.5206 30.2552 28.4909C29.34 28.3932 28.822 27.7048 29.1116 26.8127C29.2275 26.4586 29.1629 26.2368 28.9411 25.9886C28.673 25.689 28.4413 25.3547 28.1534 25.0734C28.0309 24.9575 27.8141 24.9079 27.6387 24.8897C27.1207 24.8351 26.6011 24.8102 25.9275 24.7623C26.2568 24.3104 26.4951 23.9381 26.7781 23.6038C27.0926 23.238 27.1538 22.9087 26.894 22.4635C26.0831 21.0668 25.5617 19.5591 25.5816 17.9306C25.5998 16.6 26.1095 15.3903 26.8228 14.2831C27.8836 12.6364 29.4161 11.6236 31.2763 11.0626C33.1 10.5165 34.9635 10.5264 36.8336 10.6257C37.2324 10.6472 37.6329 10.7928 38.0268 10.7697C38.2552 10.7581 38.5415 10.5744 38.6822 10.3824C39.5643 9.14947 40.8485 8.61988 42.2453 8.26903C44.0872 7.80565 45.9176 8.06382 47.7414 8.40971C48.3454 8.52555 48.9313 8.72746 49.532 8.86151C49.6876 8.89791 49.9689 8.8764 50.0136 8.78869C50.3611 8.12671 50.712 7.45811 50.9536 6.75476C51.0479 6.47673 50.9569 6.04147 50.7865 5.78165C50.1708 4.85157 49.9474 3.96617 50.6491 2.95665C51 2.45024 51.1952 1.83459 51.4666 1.27357C51.5213 1.16434 51.6123 1.07166 51.7314 0.911133C52.1981 1.85611 52.5391 2.73489 53.0405 3.51271C53.5138 4.24751 53.2027 4.77875 52.8204 5.35136C52.683 5.55823 52.5308 5.75682 52.4116 5.97031C52.1485 6.43701 52.3388 7.01624 52.6797 7.4035C53.0769 7.84868 53.3665 8.3915 53.6926 8.87971C54.7848 8.6265 55.935 8.24256 57.1117 8.11678C58.4787 7.97114 59.9201 7.81392 61.2391 8.09526C62.6491 8.39481 63.8986 9.27193 64.8386 10.4585C64.9479 10.5959 65.0554 10.7299 65.1779 10.8789C67.2036 10.6141 69.2342 10.5644 71.2483 11.0493C71.8821 11.2016 72.5027 11.4217 73.125 11.6203C75.0927 12.2492 76.2363 13.6824 77.0389 15.5061C77.5569 16.6894 77.7439 17.9223 77.6943 19.1669C77.6579 20.0241 77.3252 20.8682 77.1051 21.7138C77.0191 22.0465 76.928 22.3659 76.7079 22.6721L76.7096 22.6671Z" fill="#FDD030"/>
<path d="M103 87.4781C102.823 89.4309 102.689 91.5195 102.428 93.5931C102.212 95.306 101.881 97.0073 101.542 98.7019C100.979 101.517 100.018 104.211 98.9289 106.859C98.4176 108.104 97.936 109.375 97.2856 110.548C95.6257 113.54 93.8631 116.479 91.624 119.089C90.1296 120.832 88.6137 122.563 87.0166 124.21C85.9757 125.284 84.8271 126.277 83.6223 127.165C81.7092 128.575 79.7597 129.951 77.7307 131.184C76.0509 132.205 74.2553 133.045 72.4696 133.88C71.01 134.561 69.5139 135.189 67.9897 135.705C66.3579 136.258 64.6848 136.705 63.0066 137.098C61.6545 137.416 60.271 137.603 58.8974 137.822C57.9839 137.967 57.067 138.098 56.1452 138.172C55.3194 138.24 54.4853 138.209 53.6562 138.245C52.7559 138.285 51.8573 138.406 50.9586 138.391C49.969 138.374 48.9826 138.242 47.9929 138.164C47.0298 138.09 46.0616 138.067 45.1067 137.939C43.8489 137.77 42.5862 137.587 41.3533 137.292C39.3806 136.822 37.4112 136.321 35.4782 135.712C33.9987 135.247 32.5655 134.624 31.1323 134.022C30.0119 133.552 28.9031 133.044 27.8274 132.481C26.5332 131.804 25.2357 131.114 24.016 130.315C22.5829 129.375 21.1993 128.349 19.8522 127.288C18.8311 126.484 17.8646 125.603 16.9362 124.691C15.594 123.374 14.3247 121.982 12.9957 120.65C12.011 119.662 11.2432 118.51 10.3892 117.421C9.20094 115.905 8.19308 114.28 7.20839 112.638C6.73011 111.841 6.34615 110.987 5.93738 110.151C5.45414 109.163 4.93283 108.188 4.53067 107.167C3.77105 105.232 3.00812 103.293 2.39083 101.31C1.88276 99.6734 1.53853 97.982 1.20588 96.2973C0.937782 94.9353 0.68623 93.5534 0.621687 92.1715C0.505841 89.6725 0.527358 87.1653 0.510809 84.663C0.505844 83.824 0.515773 82.9783 0.603485 82.1442C0.714367 81.09 0.886483 80.0407 1.07515 78.9981C1.33166 77.5782 1.55011 76.1417 1.93075 74.7532C2.46199 72.8119 3.11735 70.9038 3.73961 68.989C4.07722 67.9513 4.43138 66.9186 4.83023 65.9025C4.99572 65.4788 5.34988 65.1296 5.52199 64.7076C6.23859 62.9484 7.34243 61.4077 8.28245 59.7775C8.97587 58.5727 9.89437 57.502 10.6374 56.322C11.5311 54.9004 12.8187 53.828 13.8547 52.5338C14.4074 51.8421 15.0032 51.1784 15.642 50.5678C16.5291 49.7221 17.5088 48.9757 18.3859 48.1217C19.9995 46.5512 21.9225 45.396 23.7297 44.0919C24.9412 43.2181 26.3181 42.5744 27.6205 41.828C28.4149 41.3729 29.1828 40.8598 30.0119 40.4759C30.8758 40.077 31.8059 39.8205 32.6946 39.4697C38.5498 37.1627 44.6168 35.9479 50.9156 35.8602C58.0352 35.7609 64.8734 37.07 71.4518 39.7907C72.703 40.3087 73.9094 40.9095 75.1142 41.5185C77.8945 42.9235 80.5127 44.5835 82.9471 46.528C84.1403 47.4813 85.4146 48.3584 86.4854 49.4358C88.2926 51.2529 89.9889 53.1826 91.6869 55.1056C92.5193 56.0489 93.3054 57.0419 94.0137 58.0812C94.7535 59.1702 95.3725 60.3402 96.046 61.4739C96.9844 63.0527 97.8168 64.6828 98.5218 66.3824C98.8909 67.2745 99.3989 68.1135 99.7134 69.0221C100.212 70.4669 100.678 71.9315 101.019 73.4193C101.58 75.8686 102.135 78.3295 102.492 80.8136C102.802 82.9634 102.833 85.1545 102.998 87.4748L103 87.4781ZM52.367 38.7796C26.0218 38.4105 3.89849 59.3175 3.41028 86.2352C2.93034 112.704 23.9333 134.748 50.6491 135.336C77.0406 135.917 99.4254 115.046 99.9534 87.953C100.47 61.4788 79.4452 39.2314 52.367 38.7796Z" fill="#23558B"/>
<path d="M51.7345 0.904486C52.2012 1.85112 52.5421 2.72824 53.0419 3.50441C53.5152 4.24086 53.2041 4.77045 52.8234 5.34471C52.6877 5.55158 52.5355 5.74852 52.4146 5.96366C52.1548 6.43036 52.3418 7.00959 52.6844 7.39519C53.0816 7.84038 53.3696 8.3832 53.6972 8.87306C54.7878 8.61986 55.938 8.23591 57.1164 8.11013C58.4833 7.9645 59.9248 7.80893 61.2421 8.08862C62.6522 8.38816 63.9016 9.26694 64.8433 10.4535C64.9509 10.5892 65.0601 10.7249 65.1826 10.8756C67.2082 10.6091 69.2405 10.5595 71.2513 11.0444C71.8868 11.1966 72.5041 11.4184 73.128 11.617C75.0957 12.2425 76.2393 13.6774 77.0403 15.5028C77.5599 16.6844 77.7469 17.919 77.6956 19.1635C77.6609 20.0191 77.3282 20.8648 77.1081 21.7088C77.0221 22.0431 76.9311 22.3609 76.7093 22.6687C76.4346 23.0477 76.4213 23.526 76.797 23.9331C76.9708 24.1218 77.0949 24.3584 77.3034 24.6646C76.6414 24.7639 76.0771 24.8384 75.5177 24.936C74.9087 25.0419 74.2898 26.1391 74.5032 26.7101C74.7234 27.2959 74.3394 28.3336 73.7751 28.3419C72.7589 28.3601 72.1913 29.0005 71.5574 29.5947C70.6158 30.4784 69.6824 31.3704 68.7192 32.2823C68.797 32.4114 68.8648 32.5223 68.931 32.6332C69.31 33.2786 69.2339 33.4904 68.5322 33.7271C68.0456 33.8904 67.8829 34.2318 68.044 34.7515C68.188 35.2165 68.034 35.5277 67.5525 35.6071C67.2364 35.6584 66.8905 35.6584 66.5777 35.5922C60.0953 34.2236 53.5466 33.9306 46.95 34.3344C43.3935 34.5529 39.8619 34.9567 36.3517 35.5773C36.0985 35.622 35.794 35.3721 35.5143 35.2596C35.6368 35.0312 35.7659 34.8061 35.8784 34.5744C35.9578 34.4106 36.1101 34.1971 36.0604 34.0763C36.0058 33.9422 35.7609 33.8164 35.5921 33.8082C34.993 33.7767 34.389 33.7966 33.6227 33.7966C33.8246 33.507 33.914 33.3514 34.0282 33.2157C34.2152 32.9939 34.4254 32.7937 34.6107 32.5719C34.9152 32.2062 34.9516 31.9199 34.4998 31.574C33.3215 30.6687 32.1995 29.694 31.0344 28.7722C30.8275 28.6083 30.5263 28.5173 30.2582 28.4892C29.343 28.3915 28.8267 27.7014 29.1146 26.8127C29.2288 26.4585 29.1659 26.2351 28.9442 25.9885C28.6761 25.6873 28.4427 25.353 28.1564 25.0734C28.0373 24.9575 27.8205 24.9095 27.6401 24.8897C27.1237 24.835 26.6041 24.8102 25.9305 24.7622C26.2582 24.3104 26.4965 23.9381 26.7811 23.6038C27.0939 23.2347 27.1552 22.907 26.897 22.4602C26.0861 21.0634 25.5631 19.5574 25.5846 17.9289C25.6028 16.5967 26.1126 15.3869 26.8258 14.2798C27.8883 12.6315 29.4191 11.6203 31.281 11.0592C33.1047 10.5115 34.9665 10.5214 36.8366 10.6223C37.2371 10.6439 37.636 10.7895 38.0298 10.7663C38.2582 10.7531 38.5445 10.571 38.6835 10.3774C39.5656 9.14447 40.8515 8.61489 42.2466 8.26404C44.0903 7.799 45.9206 8.05883 47.7427 8.40471C48.3468 8.51891 48.9343 8.72246 49.535 8.85651C49.6889 8.89127 49.9703 8.86975 50.0166 8.78204C50.3625 8.12006 50.715 7.45146 50.9566 6.74811C51.051 6.47008 50.9599 6.03317 50.7895 5.775C50.1738 4.84161 49.9504 3.95787 50.6505 2.94835C51.0013 2.44193 51.1949 1.82629 51.468 1.26526C51.521 1.15604 51.6137 1.06502 51.7328 0.902832L51.7345 0.904486ZM41.0303 25.5533C41.3116 26.9799 42.0894 27.5541 43.4415 27.4184C44.4527 27.3175 44.8069 26.8673 44.6596 25.8793C44.6232 25.6311 44.5239 25.3597 44.5867 25.1346C44.7175 24.6695 44.883 24.1946 45.1445 23.7941C45.2603 23.617 45.722 23.4714 45.8842 23.5624C46.1424 23.708 46.3741 24.0423 46.4469 24.3386C46.5661 24.8201 46.533 25.3365 46.5958 25.8363C46.6538 26.2964 46.8308 26.6902 47.3124 26.8739C48.9624 27.5045 50.3642 26.7631 50.7614 25.0436C50.8987 24.4494 50.7696 24.2525 50.1738 24.1846C49.257 24.0787 48.3567 24.034 47.8768 24.9294C47.6484 24.5289 47.4779 24.1433 47.228 23.8172C46.9682 23.4763 46.5694 23.2314 46.3443 22.8723C46.0216 22.3543 46.1722 22.1292 46.768 22.068C47.3091 22.0117 47.4002 21.7966 47.2347 21.2901C47.0857 20.8367 47.0443 20.3485 46.9434 19.8023H49.0435C48.9872 19.5193 48.8979 19.2943 48.9128 19.0791C48.9277 18.8805 48.9988 18.5959 49.1412 18.5098C49.823 18.0977 49.8346 18.1176 49.3199 17.4854C49.2222 17.3663 49.1263 17.2438 49.0402 17.1147C48.5901 16.4362 48.6083 16.1284 49.0899 15.4498C49.1709 15.3356 49.2173 15.1701 49.2173 15.0278C49.2272 13.5781 49.2305 12.1267 49.2123 10.677C49.2107 10.5313 49.0733 10.2963 48.9508 10.2583C47.1734 9.70219 45.3762 9.23219 43.4879 9.42747C41.4523 9.6393 39.9992 11.0162 39.6136 13.0204C39.319 14.5545 39.7096 15.9248 40.5238 17.214C40.8879 17.7883 41.1163 18.3857 40.6827 19.0411C40.6099 19.1503 40.5586 19.291 40.547 19.42C40.5288 19.6368 40.5503 19.857 40.5553 20.0771C40.7655 20.0191 40.9856 19.9844 41.1809 19.8934C41.3563 19.8123 41.5036 19.6683 41.6674 19.5491C41.6674 20.0489 41.6426 20.4925 41.674 20.931C41.7121 21.4672 41.866 21.5268 42.331 21.2372C42.4055 21.1908 42.4816 21.1445 42.5958 21.075C43.0096 22.0994 43.6534 22.8474 44.7936 23.1503C44.1647 23.6716 43.5309 24.0754 43.4432 24.9029C43.4316 25.0088 43.1585 25.1296 42.9897 25.1677C42.3526 25.3117 41.7088 25.4242 41.0352 25.5533H41.0303ZM56.6331 19.7163C56.5553 20.2359 56.5636 20.6778 56.4147 21.0584C56.1416 21.7535 56.1863 21.9074 56.9492 21.9422C57.3828 21.962 57.4986 22.2136 57.3365 22.4999C57.0981 22.9219 56.8003 23.3489 56.4229 23.6369C56.1565 23.8404 55.9612 23.996 55.9347 24.3352C55.9198 24.5123 55.8602 24.6877 55.794 24.984C55.1701 23.8669 54.2268 23.9794 53.2868 24.0903C52.8069 24.1482 52.696 24.4312 52.7969 24.8764C53.1743 26.5297 54.1954 27.19 55.8751 26.8508C56.6265 26.6985 56.8896 26.4321 56.9955 25.6642C57.0535 25.2438 57.1015 24.8168 57.1048 24.3932C57.1081 23.9132 57.2719 23.4565 57.7386 23.4383C58.0613 23.425 58.5164 23.7113 58.6985 23.9976C58.9169 24.3419 58.9434 24.8268 58.9815 25.2571C59.008 25.5583 58.859 25.8743 58.8905 26.1739C58.9169 26.442 59.008 26.7879 59.1983 26.9368C59.8867 27.4747 60.6927 27.4416 61.454 27.1271C62.154 26.8392 62.4536 26.2252 62.5346 25.4341C61.8627 25.3067 61.2421 25.1743 60.6166 25.0734C60.2889 25.0204 60.1499 24.8599 60.0324 24.5454C59.9 24.1896 59.6451 23.8686 59.4068 23.564C59.2562 23.3721 59.0344 23.2347 58.7978 23.0311C59.948 22.7333 60.6017 21.9654 60.9757 20.9889C61.2488 21.0965 61.4887 21.1892 61.727 21.2819C61.7916 21.0154 61.8925 20.7506 61.9124 20.4809C61.9356 20.1433 61.8925 19.8007 61.876 19.4399C62.2566 19.6683 62.6042 19.8768 62.9517 20.0837C63.0196 20.044 63.0874 20.0042 63.1553 19.9645C63.0675 19.612 63.0543 19.2181 62.8789 18.9186C62.4933 18.2616 62.7101 17.7055 63.0344 17.1379C63.1784 16.8863 63.3406 16.6447 63.4714 16.3865C65.0071 13.3381 63.6302 8.99387 58.9252 9.30666C57.5135 9.40099 56.1217 9.81804 54.7283 10.1225C54.581 10.154 54.3873 10.4254 54.384 10.5876C54.3575 12.0373 54.3625 13.4887 54.3758 14.9401C54.3758 15.0924 54.4535 15.2794 54.5578 15.3902C54.9517 15.809 54.9467 16.2657 54.6919 16.7258C54.5148 17.0435 54.2864 17.3365 54.0547 17.6195C53.7965 17.9356 53.8793 18.2053 54.2169 18.2963C54.7961 18.4502 54.758 18.7928 54.624 19.2264C54.5826 19.3621 54.5959 19.516 54.5793 19.7196H56.6364L56.6331 19.7163ZM37.0352 20.3319C37.535 20.3832 37.962 20.4279 38.3178 20.4643C38.5346 20.0506 38.7415 19.7229 38.8772 19.3671C38.9516 19.1702 38.9996 18.8739 38.9053 18.7167C37.9438 17.1246 37.401 15.4134 37.3811 13.5533C37.3778 13.1809 37.2653 13.0187 36.9111 12.9889C35.6417 12.883 34.3757 12.7456 33.1047 12.6745C31.6914 12.595 30.4485 13.027 29.391 14.0034C28.3699 14.9451 28.1928 16.125 28.2077 17.4341C28.2176 18.2285 28.2805 18.9699 28.7042 19.6484C29.0153 20.1499 29.1246 20.6894 28.9905 21.257C28.7605 22.2302 29.1212 22.9352 29.8345 23.5955C30.9318 24.61 30.9003 24.6431 32.2954 24.0407C32.4014 23.9943 32.5089 23.948 32.6182 23.9083C33.247 23.6832 33.578 23.804 33.9487 24.3584C34.4287 25.0734 34.0927 25.7784 33.9189 26.4751C33.813 26.9004 33.5962 27.2298 33.0733 27.3042C32.6496 27.3655 32.4311 27.8123 32.6579 28.0771C33.108 28.6017 33.6558 29.0171 34.3923 28.9923C35.0476 28.9691 35.3108 28.4842 34.8722 28.0324C34.283 27.425 34.5164 26.8276 34.7282 26.2153C34.9003 25.7138 35.3058 25.5715 35.8039 25.6741C36.2756 25.7717 36.4808 26.068 36.4626 26.5463C36.451 26.8359 36.4626 27.1271 36.494 27.4151C36.5089 27.5558 36.5536 27.7279 36.648 27.8189C37.108 28.2608 38.3708 28.3303 38.902 27.9629C39.4415 27.5905 39.6914 26.6373 39.4349 25.9439C38.6802 25.8048 37.9852 25.8942 37.3546 26.6472C37.4291 25.5185 36.9773 25.0187 36.0455 24.9062C35.8668 24.8847 35.7113 24.6778 35.4398 24.4792C36.7175 24.0191 36.921 23.1222 36.7853 22.0415H38.0497C37.6906 21.4374 37.3811 20.9161 37.0336 20.3319H37.0352ZM63.8536 26.02C63.9132 26.4536 63.9248 26.859 64.0324 27.238C64.2442 27.9794 64.8946 28.3121 65.7899 28.1979C66.7266 28.0771 66.9252 27.8686 66.9832 26.9352C66.9898 26.8193 67.0014 26.7018 66.9931 26.5876C66.9567 26.0763 67.1983 25.7883 67.6948 25.6956C68.2178 25.5963 68.5719 25.8148 68.7391 26.298C68.9459 26.8988 69.1313 27.4747 68.5653 28.0556C68.1582 28.4726 68.3799 28.9029 68.9741 28.979C69.6063 29.0618 70.0961 28.7341 70.5314 28.3402C70.682 28.2029 70.8574 27.9331 70.8144 27.7825C70.7598 27.5889 70.4983 27.4532 70.3212 27.2976C70.0763 27.0825 69.7171 26.917 69.6029 26.6489C69.4043 26.1772 69.2901 25.646 69.2571 25.1329C69.2008 24.2608 70.0481 23.6749 70.8624 23.9761C71.1884 24.0969 71.5045 24.2459 71.8206 24.3882C72.279 24.5951 72.6894 24.5223 73.0452 24.1714C73.4176 23.8057 73.7701 23.4201 74.1507 23.0626C74.4586 22.773 74.5446 22.4585 74.5016 22.0299C74.4221 21.2322 74.2616 20.4081 74.7763 19.6716C75.2745 18.96 75.2943 18.159 75.2066 17.3398C75.1387 16.7126 75.2 16.0258 74.9567 15.473C74.3708 14.1424 73.2935 13.2802 71.857 13.0022C70.0481 12.6546 68.2359 12.835 66.4436 13.1941C66.2947 13.2239 66.0895 13.492 66.0862 13.6542C66.0465 15.5425 65.5003 17.267 64.5107 18.864C64.4362 18.9831 64.3998 19.1966 64.4561 19.3141C64.6629 19.7411 64.9161 20.1466 65.1577 20.5686C65.545 20.5256 65.9339 20.4809 66.4072 20.4279C66.0547 21.0187 65.7552 21.5218 65.3977 22.1226H66.6654C66.6654 22.3874 66.6919 22.5992 66.6604 22.8011C66.5479 23.5326 66.9964 23.9414 67.5012 24.3303C67.622 24.423 67.7213 24.5438 67.8305 24.653C67.6865 24.7573 67.5508 24.936 67.3969 24.9542C66.4767 25.0618 66.01 25.5467 66.0349 26.5694C65.449 25.8661 64.7242 25.8992 63.852 26.0216L63.8536 26.02ZM51.7576 31.7511C51.7576 31.7676 51.7576 31.7858 51.7576 31.8024C52.4113 31.8024 53.0667 31.7974 53.7204 31.804C54.0348 31.8073 54.336 31.7627 54.346 31.3804C54.3559 30.9931 54.0481 30.9319 53.7386 30.9286C52.4477 30.9186 51.1569 30.8938 49.8677 30.9236C49.6691 30.9286 49.4771 31.1834 49.2818 31.3224C49.4705 31.4648 49.6509 31.7147 49.8511 31.7312C50.4817 31.7842 51.1205 31.7511 51.756 31.7511H51.7576ZM45.2603 31.1073C43.9545 31.2513 42.8226 31.3572 41.6989 31.521C41.5267 31.5459 41.3943 31.8322 41.2421 31.9993C41.4291 32.1201 41.626 32.3568 41.8031 32.3435C42.9351 32.2575 44.0671 32.135 45.1908 31.9728C45.3828 31.9447 45.5367 31.665 45.7088 31.5012C45.5317 31.3456 45.3546 31.19 45.2603 31.1089V31.1073ZM53.7965 28.5156C53.0998 27.9761 52.3815 27.4201 51.708 26.9004C51.0046 27.4383 50.2847 27.9894 49.5979 28.5156H53.7965ZM58.3973 31.2149C58.3013 31.3042 58.1308 31.4631 57.9604 31.622C58.1375 31.7792 58.2963 32.044 58.4916 32.0738C59.4813 32.231 60.4776 32.3485 61.4771 32.4246C61.6791 32.4395 61.8975 32.2211 62.1093 32.1102C61.9438 31.9397 61.7982 31.6518 61.6095 31.6203C60.6017 31.4565 59.5839 31.3555 58.3973 31.2132V31.2149ZM56.0059 28.5951C57.2173 28.6729 58.3725 28.7473 59.5111 28.8202C58.8772 28.418 58.2533 28.0241 57.6261 27.6253C57.1346 27.9199 56.6099 28.2326 56.0059 28.5951ZM45.7767 27.6203C45.1511 28.0258 44.557 28.4114 43.9032 28.8334C45.0799 28.7506 46.1937 28.6712 47.3753 28.5885C46.7829 28.2293 46.2781 27.9232 45.7767 27.6187V27.6203ZM35.3091 33.6195C35.9165 33.4673 36.4494 33.3646 36.9558 33.1876C37.0931 33.1396 37.2504 32.8417 37.2173 32.701C37.1875 32.5703 36.8995 32.3899 36.7539 32.413C36.2243 32.4975 35.6964 32.6298 35.1899 32.8102C35.0609 32.8549 34.945 33.1462 34.9599 33.3133C34.9715 33.4358 35.2048 33.5368 35.3091 33.6212V33.6195ZM63.2496 28.14C62.5876 28.4544 61.962 28.7523 61.3994 29.0204C62.351 29.1462 63.3886 29.2835 64.4643 29.4275C64.0158 28.9526 63.6137 28.5256 63.2496 28.14ZM40.1713 28.1334C39.8172 28.5057 39.3952 28.9492 38.9384 29.4308C40.029 29.2852 41.0733 29.1445 41.9868 29.0221C41.449 28.7589 40.825 28.4544 40.1713 28.1334ZM66.8706 32.4958C66.7713 32.5885 66.533 32.7093 66.5148 32.8566C66.4966 33.0039 66.6621 33.2736 66.8061 33.3249C67.2215 33.4722 67.6633 33.5732 68.1036 33.6179C68.2608 33.6344 68.4395 33.4358 68.6083 33.3349C68.4991 33.1561 68.4279 32.8748 68.2757 32.8185C67.8619 32.6679 67.4134 32.6116 66.8723 32.4958H66.8706ZM38.6802 32.3353C38.6984 32.7755 38.9401 33.0386 39.3571 33.0502C39.7791 33.0634 40.0571 32.7987 40.0687 32.375C40.0787 31.9546 39.8255 31.6733 39.3952 31.665C38.9698 31.6551 38.7266 31.9083 38.6802 32.3353ZM47.2363 30.6406C46.8226 30.6886 46.5545 30.8955 46.5445 31.3357C46.5346 31.7792 46.8027 32.0291 47.2181 32.039C47.6401 32.049 47.9148 31.7875 47.9215 31.3605C47.9281 30.9352 47.6633 30.7002 47.2363 30.6423V30.6406ZM63.9712 33.1578C64.3832 33.1048 64.6646 32.9013 64.6662 32.461C64.6695 32.0208 64.3832 31.7709 63.9761 31.766C63.5657 31.761 63.286 32.0076 63.2877 32.4528C63.2877 32.8913 63.5475 33.1098 63.9712 33.1578ZM57.0286 31.3009C56.9591 30.9368 56.7572 30.6489 56.3203 30.6572C55.8933 30.6638 55.6401 30.912 55.6385 31.3489C55.6368 31.7941 55.9099 32.0324 56.3253 32.0374C56.7539 32.0423 56.9757 31.7643 57.0303 31.3009H57.0286ZM51.9993 14.8772C51.4101 14.9633 51.1701 15.1718 51.1883 15.5971C51.2049 15.9927 51.4465 16.2194 51.8172 16.2194C52.2161 16.2194 52.5239 15.9562 52.461 15.5657C52.4163 15.291 52.1283 15.0576 52.0009 14.8772H51.9993ZM52.4593 22.2285C52.4593 22.1342 52.4593 22.0398 52.4593 21.9472C52.2028 21.7767 51.9595 21.4987 51.6848 21.4623C51.2876 21.4093 50.9914 21.7453 51.0791 22.1226C51.137 22.3675 51.4746 22.7035 51.6997 22.7134C51.9463 22.7233 52.2061 22.4056 52.461 22.2302L52.4593 22.2285ZM73.4176 26.5082C73.1611 26.8888 72.8913 27.1156 72.9128 27.3092C72.9344 27.5094 73.2422 27.6766 73.4242 27.8586C73.6063 27.6766 73.9124 27.5078 73.9323 27.3092C73.9521 27.1139 73.6791 26.8905 73.4176 26.5082ZM63.4333 24.4842C63.6948 24.0986 63.9761 23.8669 63.948 23.6815C63.9165 23.478 63.617 23.2066 63.4019 23.1768C63.2546 23.1553 62.9203 23.4863 62.9136 23.67C62.9054 23.8785 63.1685 24.0969 63.4316 24.4858L63.4333 24.4842ZM40.6993 23.7974C40.6993 23.718 40.6993 23.6385 40.6976 23.5591C40.4808 23.4184 40.2425 23.1437 40.0538 23.1735C39.8503 23.2066 39.5855 23.5094 39.5524 23.7262C39.5309 23.8652 39.8734 24.1929 40.0588 24.1979C40.2673 24.2045 40.4841 23.943 40.6993 23.7974ZM30.8457 27.3853C30.8457 27.3075 30.8474 27.2281 30.849 27.1503C30.6372 27.0047 30.422 26.7415 30.2135 26.7465C30.0282 26.7498 29.6856 27.0758 29.7071 27.2165C29.7402 27.435 30 27.7411 30.2036 27.7742C30.3922 27.8057 30.6306 27.5276 30.8474 27.3853H30.8457ZM52.5934 11.3902C52.2293 11.1503 52.0108 10.8938 51.804 10.9037C51.6252 10.912 51.2992 11.2595 51.3273 11.3902C51.3753 11.6037 51.6418 11.8702 51.8536 11.9099C52.0158 11.9397 52.2359 11.655 52.5917 11.3902H52.5934ZM68.0407 30.1077C67.3903 29.2488 67.3539 29.2405 66.3328 29.7701C66.9136 29.8843 67.4532 29.9919 68.0407 30.1077ZM37.0418 29.7751C36.2684 29.4882 35.7261 29.5969 35.415 30.1011C35.9777 29.9886 36.5089 29.8826 37.0418 29.7751Z" fill="#23558B"/>
<path d="M52.3666 38.7797C79.4449 39.2315 100.469 61.479 99.953 87.9532C99.4251 115.045 77.0402 135.917 50.6488 135.336C23.9329 134.747 2.92998 112.705 3.40992 86.2354C3.89813 59.3176 26.0215 38.4107 52.3666 38.7797ZM51.6632 43.4765C27.731 43.4731 8.18776 62.9701 8.09673 86.7964C8.00406 110.965 27.4431 130.413 51.2379 130.648C75.6666 130.888 95.6104 110.954 95.2596 86.4075C94.9253 63.0115 75.9132 43.5278 51.6632 43.4765Z" fill="#FDD030"/>
<path d="M51.8272 121.045C51.5177 120.999 51.2761 120.962 50.9931 120.919C51.0196 120.673 51.0444 120.446 51.0759 120.16H53.8611C53.8926 120.352 53.9323 120.585 53.9737 120.832C53.689 120.905 53.4524 120.964 53.2455 121.017V124.779C53.7503 124.749 54.1971 124.771 54.6191 124.676C54.8475 124.625 55.1371 124.415 55.2165 124.208C55.4333 123.644 55.7809 123.543 56.3237 123.748C56.2873 124.031 56.2476 124.325 56.2079 124.627C57.0916 124.595 57.1065 124.572 56.9956 123.817C56.8483 122.808 56.711 121.797 56.5653 120.769C56.284 120.754 56.0573 120.742 55.7825 120.729V119.963C56.6563 119.834 57.5451 119.701 58.4718 119.564C58.5463 119.792 58.6158 120.006 58.6837 120.216C57.934 120.645 57.9307 120.645 58.0697 121.558C58.2021 122.434 58.3461 123.309 58.4818 124.17C59.5641 124.287 60.0507 123.986 60.5372 123.094C60.6497 122.887 61.042 122.834 61.3961 122.669V124.673C59.7759 124.949 58.1276 125.232 56.4528 125.519C56.3618 125.315 56.2956 125.168 56.1847 124.919C56.135 125.151 56.1036 125.298 56.0606 125.499C53.4391 125.79 50.8045 125.773 48.1334 125.53V124.787C48.3138 124.761 48.4958 124.732 48.7374 124.696C48.5719 124.335 48.7192 123.832 48.1483 123.711C46.73 123.413 46.6638 123.435 46.1176 124.416C46.3195 124.473 46.5115 124.527 46.7002 124.58C46.6853 125.373 46.672 125.393 45.9389 125.28C45.2521 125.174 44.567 125.049 43.852 124.928C43.8189 124.769 43.7842 124.61 43.7478 124.435C41.9075 124.979 40.3816 123.953 38.6968 123.579C38.7498 123.301 38.7928 123.079 38.8326 122.869C38.8872 122.844 38.9236 122.809 38.9534 122.814C39.4973 122.906 39.8526 122.681 40.0192 122.139C40.3021 121.219 40.5885 120.299 40.888 119.329C40.6646 119.24 40.4759 119.164 40.2508 119.074C40.1218 119.404 40.0092 119.687 39.8686 120.042C39.6286 119.973 39.3985 119.905 39.099 119.819C39.2976 119.084 39.1106 118.553 38.1755 118.449C37.7138 119.552 37.2322 120.698 36.739 121.876C37.0518 122.037 37.3216 122.176 37.6277 122.333C37.5069 122.571 37.3977 122.786 37.2587 123.063C36.231 122.624 35.2446 122.202 34.2202 121.764C34.3145 121.479 34.3907 121.25 34.4651 121.024C35.0984 121.209 35.5475 121.002 35.8123 120.403C36.178 119.574 36.5454 118.745 36.9095 117.921C36.183 117.393 36.1184 117.428 35.4316 117.96C35.2661 118.088 34.8872 117.941 34.5214 117.912C34.8441 117.216 35.0924 116.678 35.3638 116.09C35.9347 116.367 36.4676 116.683 37.0386 116.891C38.96 117.59 40.8963 118.252 42.8276 118.925C43.1007 119.021 43.382 119.096 43.6534 119.193C44.7258 119.584 45.449 120.769 44.1416 121.85C44.8086 122.548 44.8566 123.299 44.2773 124.095C44.7424 124.309 44.9823 124.001 45.1925 123.716C45.9952 122.626 46.816 121.547 47.5492 120.411C47.8504 119.943 48.1565 119.764 48.6315 119.864C49.1445 121.335 49.6443 122.791 50.1607 124.243C50.3527 124.782 51.0957 125.082 51.6203 124.835C51.7147 124.79 51.7693 124.641 51.8173 124.531C51.8454 124.464 51.8222 124.378 51.8222 124.301V121.044L51.8272 121.045ZM41.1644 123.369C41.8115 123.567 42.3741 123.819 42.8971 123.404C43.0444 123.288 43.1272 122.915 43.056 122.732C42.8111 122.096 42.1971 122.003 41.5914 121.84C41.4441 122.366 41.3117 122.841 41.1644 123.369ZM41.8578 120.916C42.7912 121.206 43.2264 121.123 43.3373 120.678C43.4532 120.214 43.1205 119.931 42.2053 119.748C42.0928 120.123 41.9803 120.504 41.8578 120.916ZM47.2728 122.685C47.617 122.71 47.8355 122.725 48.1251 122.747C48.0192 122.43 47.9381 122.189 47.8255 121.85C47.6269 122.151 47.4846 122.368 47.2745 122.685H47.2728Z" fill="#FDD030"/>
<path d="M27.5275 65.8048C27.5275 65.6459 27.4828 65.4688 27.5358 65.3298C27.7426 64.787 27.645 64.4196 27.1634 64.077C26.6785 63.7344 26.0231 63.7328 25.6739 64.1217C25.2106 64.6397 24.7604 65.1742 24.345 65.732C23.9197 66.3046 24.4344 67.6236 25.1444 67.8056C25.2569 67.8337 25.4356 67.751 25.5333 67.6633C25.7468 67.473 25.9288 67.2479 26.139 67.0195C26.321 67.1767 26.4485 67.2876 26.6355 67.4481C25.8841 68.3484 25.151 69.2272 24.3847 70.1457C24.0902 69.7071 23.784 69.3679 24.2292 68.8863C24.3235 68.7853 24.2739 68.4527 24.1812 68.2922C22.9615 66.1838 21.7302 64.082 20.4774 61.9918C20.249 61.6111 20.206 61.3546 20.5287 60.9872C21.1957 60.2276 21.1708 60.1995 22.1241 60.5238C24.2639 61.252 26.4071 61.9752 28.5403 62.7249C28.921 62.859 29.1891 62.8176 29.477 62.5495C29.7881 62.2599 30.134 62.01 30.4667 61.7435C31.1767 61.1742 31.2544 60.5387 30.7033 59.8238C29.5134 58.2797 28.3219 56.7357 27.1154 55.1717C26.8159 55.3621 26.5428 55.5358 26.2697 55.7079C26.2151 55.6914 26.1588 55.6748 26.1042 55.6599C26.1473 55.4729 26.1241 55.1999 26.2416 55.1105C27.2958 54.3012 28.3732 53.5234 29.4456 52.7373C29.9652 53.295 29.3695 53.5218 29.1328 53.9024C30.5263 55.8023 31.928 57.7121 33.3612 59.6633C34.0463 59.1453 34.7331 58.705 35.3124 58.1523C35.549 57.9256 35.5904 57.4605 35.6467 57.0915C35.6996 56.7456 35.6583 56.3832 35.6583 56.029C35.7046 56.0091 35.7509 55.9909 35.7973 55.9711C36.2242 56.499 36.6529 57.0253 37.103 57.5813C33.6756 60.0191 30.2168 62.341 27.7327 65.77C27.6648 65.78 27.597 65.7915 27.5275 65.8015V65.8048ZM22.0628 62.8093C22.6173 63.746 23.079 64.5255 23.5755 65.3679C24.0438 64.7589 24.4509 64.2309 24.9077 63.6368C23.966 63.3637 23.0939 63.1089 22.0628 62.8093Z" fill="#FDD030"/>
<path d="M80.683 59.301C80.4513 58.9949 80.256 58.7367 80.0442 58.457C80.3471 58.1128 80.6383 57.7818 80.918 57.4624C80.9925 57.4823 81.0405 57.479 81.0603 57.5021C82.0235 58.558 83.0314 59.5791 83.9267 60.6912C84.3619 61.2324 84.7293 61.9109 84.8766 62.5828C85.2821 64.438 83.7165 66.0781 81.8034 65.9109C81.5535 65.8894 81.3053 65.8447 80.9197 65.7934C80.6433 66.8592 80.2924 67.9233 80.1286 69.0156C80.0723 69.3863 80.4927 69.8265 80.731 70.3098C80.5572 70.4438 80.3222 70.6242 80.0756 70.8145C79.3408 70.0036 78.6176 69.2258 77.9275 68.4182C77.8266 68.299 77.8332 68.021 77.8878 67.8455C78.1824 66.884 78.5117 65.9341 78.8146 64.9759C78.8774 64.7773 78.8775 64.5605 78.9072 64.3519C78.8526 64.3189 78.7997 64.2841 78.7451 64.251C78.1691 64.7111 77.5916 65.1695 76.971 65.666C77.2324 66.0102 77.4741 66.3263 77.7554 66.6954C77.5684 66.8294 77.3913 66.9568 77.1861 67.1041C76.1484 65.9175 75.1323 64.7558 74.0698 63.541C74.2155 63.402 74.3578 63.2663 74.5266 63.1041C74.8278 63.3673 75.1009 63.6039 75.4203 63.8836C77.1795 62.3528 78.9205 60.8352 80.683 59.3027V59.301ZM82.103 61.186C81.2424 61.9192 80.4116 62.6292 79.5792 63.3375C80.496 64.4612 81.5386 64.5191 82.5498 63.5245C83.2382 62.8476 83.0992 62.0516 82.1013 61.186H82.103Z" fill="#FDD030"/>
<path d="M48.4679 54.2386C47.6189 54.3942 46.9668 54.285 46.323 53.719C44.8998 52.4712 43.3938 51.316 41.9209 50.1244C41.8067 50.0318 41.6826 49.954 41.5038 49.8299C41.6577 51.1952 41.7835 52.4811 41.9556 53.762C42.0864 54.7302 42.5928 55.038 43.9217 55.0065C43.9813 55.2051 44.0442 55.417 44.122 55.6818C42.8841 55.8621 41.709 56.0343 40.4927 56.2113C40.4331 55.8787 40.3818 55.6007 40.3222 55.2697C40.6664 55.1787 40.9908 55.0926 41.3599 54.995C40.9577 53.2208 40.5622 51.4716 40.165 49.7223C40.16 49.7041 40.1501 49.6859 40.1501 49.666C40.0822 48.7111 39.7694 48.0094 38.6308 48.2411C38.424 47.7479 38.563 47.546 39.0313 47.4947C39.5295 47.4401 40.0475 47.4004 40.5125 47.2299C41.4774 46.8791 42.1658 47.2101 42.8907 47.8538C44.2014 49.0189 45.5949 50.0913 47.0843 51.311C46.8443 50.1509 46.6441 49.1431 46.4257 48.1385C46.3412 47.7463 46.3363 47.225 46.0847 47.0098C45.8381 46.7996 45.3235 46.9023 44.8915 46.8658C44.8369 46.6275 44.7806 46.3909 44.7095 46.0847C45.9424 45.9027 47.1356 45.7256 48.3917 45.5386C48.4149 45.9142 48.4331 46.2337 48.4579 46.6325H47.23C47.6487 49.2076 48.0525 51.6999 48.4662 54.2386H48.4679Z" fill="#FDD030"/>
<path d="M77.436 110.459C77.249 110.247 77.0968 110.075 76.9197 109.873C77.4195 109.325 77.9342 108.807 78.3975 108.246C79.0595 107.442 79.6801 106.601 80.3272 105.784C80.6019 105.436 80.8717 105.077 81.1911 104.772C82.199 103.813 83.2151 104.062 83.6785 105.4C83.7811 105.362 83.8804 105.322 83.983 105.287C85.072 104.911 86.0467 105.621 85.9011 106.765C85.8249 107.361 85.628 107.998 85.3003 108.493C84.6218 109.517 83.8192 110.459 83.0496 111.458C82.7782 111.28 82.5746 111.146 82.3711 111.012C82.7297 110.445 82.6579 109.96 82.1559 109.557C81.4344 108.978 80.7095 108.4 80.0028 107.836C79.9466 107.856 79.9251 107.857 79.9118 107.869C78.8096 108.748 78.8047 108.872 79.8307 109.802C80.1601 110.1 80.4861 110.403 80.8171 110.699C81.5055 111.314 81.6545 112.074 81.35 112.913C80.9395 114.043 80.1402 114.838 79.0463 115.31C78.1443 115.698 77.4162 115.495 76.7707 114.739C76.2196 114.093 75.6718 113.443 75.0794 112.744C74.8344 112.905 74.6011 113.055 74.3313 113.231C74.1824 113.012 74.0434 112.809 73.8911 112.587C74.6458 111.932 75.3855 111.29 76.1534 110.623C76.3404 110.783 76.5126 110.932 76.7145 111.104C76.5341 111.344 76.3653 111.568 76.1518 111.851C76.7691 112.546 77.3814 113.236 77.9987 113.924C78.0483 113.979 78.1245 114.015 78.194 114.048C78.7186 114.3 79.5527 113.909 80.1021 113.156C80.5573 112.534 80.5771 112.008 80.1154 111.535C79.6702 111.078 79.1654 110.679 78.7335 110.212C78.376 109.827 78.0814 109.797 77.7438 110.201C77.671 110.287 77.5717 110.35 77.4377 110.462L77.436 110.459ZM83.8804 109.004C84.1518 108.552 84.4464 108.183 84.6003 107.761C84.688 107.521 84.64 107.066 84.4778 106.947C84.2809 106.803 83.8423 106.806 83.609 106.932C83.1985 107.156 82.8626 107.52 82.434 107.877C82.9884 108.309 83.3806 108.614 83.8804 109.002V109.004ZM81.8812 107.452C82.0848 107.065 82.3049 106.727 82.434 106.356C82.4869 106.206 82.3909 105.899 82.2635 105.817C82.1096 105.717 81.7885 105.693 81.6512 105.792C81.3417 106.014 81.1017 106.331 80.8105 106.634C81.2043 106.935 81.5088 107.167 81.8829 107.452H81.8812Z" fill="#FDD030"/>
<path d="M69.3516 50.0052C68.9445 50.702 68.5242 51.4219 68.0244 52.2775C67.9118 51.4914 67.7894 50.8708 67.7447 50.2469C67.7166 49.8497 67.561 49.5915 67.2234 49.4227C66.8444 49.234 66.4787 49.0023 66.0782 48.8782C65.1795 48.6002 64.4861 49.2357 64.7658 50.1376C64.9313 50.6689 65.2871 51.1637 65.6413 51.6089C65.9491 51.9961 66.3678 52.299 66.7468 52.6283C67.7182 53.469 67.8903 54.7599 67.1506 55.8075C66.3545 56.9345 64.6384 57.8514 62.99 56.6747C62.6292 56.4165 62.2403 56.1964 61.868 55.9548C60.4762 55.0561 60.2081 54.1062 60.8733 52.5572C61.019 52.2196 61.1861 52.0872 61.3996 52.2113C61.6694 53.1927 61.8283 54.1128 62.1774 54.9535C62.5945 55.9614 63.6024 56.4115 64.6003 56.2063C65.0604 56.112 65.4542 55.8985 65.5866 55.4153C65.7207 54.9237 65.6495 54.4571 65.2507 54.0847C64.5457 53.4244 63.8241 52.7806 63.1489 52.0905C62.8295 51.7645 62.5564 51.3722 62.3363 50.9701C61.8432 50.0681 62.0533 49.3797 62.9271 48.8617C64.549 47.8985 66.3794 48.059 67.8523 49.2258C68.261 49.5501 68.789 49.7222 69.35 50.0086L69.3516 50.0052Z" fill="#FDD030"/>
<path d="M77.5996 55.1139C77.0899 55.761 76.5802 56.4064 75.9546 57.1991C75.9546 56.4246 75.9265 55.8173 75.9645 55.2148C75.991 54.7862 75.8801 54.4652 75.516 54.2302C75.1917 54.0216 74.8921 53.7701 74.5545 53.588C74.1855 53.3878 73.7171 53.2537 73.4291 53.6162C73.1908 53.9157 72.9922 54.3907 73.0469 54.7448C73.1263 55.2562 73.4027 55.7593 73.684 56.2111C73.9554 56.6513 74.3394 57.0221 74.672 57.4225C75.521 58.4453 75.4664 59.7279 74.5181 60.6596C73.4672 61.6923 71.6964 62.1739 70.3129 60.8152C70.01 60.5173 69.6708 60.2558 69.3464 59.9811C68.087 58.907 67.943 57.9141 68.84 56.4875C68.9867 56.2536 69.235 56.2006 69.5847 56.3286C69.5847 56.9972 69.5102 57.6989 69.6013 58.3791C69.7436 59.4432 70.2665 60.274 71.3902 60.5686C72.0886 60.7507 72.7705 60.5421 73.0551 60.0738C73.3547 59.5823 73.2388 58.9583 72.7721 58.3758C72.1433 57.5914 71.4697 56.835 70.9252 55.9943C69.7998 54.255 70.3361 53.1528 72.3865 52.8334C73.9521 52.5884 75.2215 53.0899 76.2922 54.25C76.6166 54.6009 77.1081 54.7978 77.598 55.1122L77.5996 55.1139Z" fill="#FDD030"/>
<path d="M59.7445 54.1162C59.6486 54.4389 59.5939 54.616 59.5261 54.8444C58.8227 54.7517 58.1409 54.6408 57.4541 54.5796C56.7673 54.5183 56.0755 54.5051 55.3523 54.4687C55.2398 54.2006 55.2828 54.0599 55.6469 54.002C56.433 53.8779 56.6763 53.5039 56.4396 52.736C56.1004 51.6321 55.7164 51.2912 54.788 51.4434C54.4305 51.5014 54.0548 51.4517 53.6874 51.4534C52.8484 51.4567 52.1003 52.4132 52.337 53.2126C52.3734 53.3334 52.5505 53.4575 52.6862 53.4906C52.9427 53.5535 53.2141 53.5519 53.4922 53.5783C53.5418 53.9077 53.5617 54.1526 53.1397 54.1476C52.1748 54.1377 51.2116 54.1443 50.1938 54.1443C50.2849 53.6793 50.3345 53.297 50.9253 53.2854C51.1123 53.2821 51.3689 53.0785 51.4681 52.8981C52.6034 50.8559 53.7338 48.8088 54.8227 46.7417C55.1057 46.2039 55.4053 45.8712 56.054 45.992C56.2741 46.0334 56.5091 45.9987 56.769 45.9987C57.2075 48.213 57.6858 50.381 58.0482 52.5688C58.2121 53.5535 58.452 54.2867 59.7412 54.1162H59.7445ZM55.6337 50.8609C55.3424 50.0401 55.0859 49.3168 54.8293 48.5936L54.5828 48.5887C54.2452 49.3201 53.9092 50.05 53.5517 50.8262C53.7288 50.8427 53.8215 50.8593 53.9158 50.8593C54.4537 50.8609 54.9915 50.8593 55.6353 50.8593L55.6337 50.8609Z" fill="#FDD030"/>
<path d="M24.4395 108.668C26.2947 108.69 28.3766 110.614 28.552 112.468C28.7407 114.457 26.9451 115.887 24.9989 115.237C23.4118 114.705 22.346 113.583 21.8694 111.981C21.3414 110.207 22.5826 108.645 24.4395 108.668ZM25.032 109.873C24.0324 109.888 23.0543 110.922 23.0791 111.935C23.1073 113.003 24.3601 114.24 25.3944 114.224C26.3079 114.209 27.2314 113.142 27.2297 112.102C27.2281 111.051 26.0514 109.858 25.0303 109.873H25.032Z" fill="#FDD030"/>
<path d="M31.746 119.945C30.1606 119.938 28.3203 118.682 27.7427 117.213C27.0692 115.498 28.2475 113.749 30.1772 113.6C31.7543 113.479 33.8197 114.841 34.336 116.342C34.9566 118.149 33.6608 119.952 31.746 119.943V119.945ZM33.0568 116.832C33.1014 115.786 32.0721 114.737 30.9533 114.687C30.0232 114.646 29.022 115.647 28.969 116.673C28.9144 117.731 30.0596 118.841 31.2462 118.881C32.1664 118.911 33.0104 117.957 33.0568 116.834V116.832Z" fill="#FDD030"/>
<path d="M71.7343 118.379C71.8932 118.907 72.0504 119.384 72.1762 119.869C72.2077 119.991 72.1928 120.198 72.1133 120.267C70.9515 121.269 69.7037 122.086 68.0852 122.089C66.9863 122.093 66.1092 121.699 65.6259 120.671C65.141 119.642 65.328 118.662 66.0099 117.785C66.9681 116.552 68.3268 115.974 69.7914 115.506C70.0711 116.049 70.3343 116.559 70.6189 117.111C70.3971 117.264 70.1787 117.413 69.9669 117.557C69.0467 116.749 68.5833 116.744 67.6019 117.512C66.7761 118.157 66.5676 119.018 67.0194 119.93C67.4695 120.84 68.2904 121.196 69.2982 120.916C70.4418 120.6 70.8556 120.115 70.9532 118.983C70.9753 118.728 71.2368 118.526 71.7377 118.377L71.7343 118.379Z" fill="#FDD030"/>
<path d="M24.7623 107.529C24.2841 107.862 23.8273 108.18 23.3143 108.537C23.1454 108.345 22.975 108.15 22.8078 107.96C23.3258 107.013 23.2762 106.785 22.3461 105.879C21.992 106.128 21.6328 106.381 21.2373 106.657C21.5186 107.018 21.7735 107.354 22.0383 107.682C22.484 108.236 22.388 108.719 21.7503 109.133C21.3151 108.512 20.8782 107.889 20.4181 107.23C20.0375 107.495 19.6949 107.733 19.3076 108.003C19.5228 108.354 19.7181 108.675 19.9431 109.042C19.7396 109.178 19.5377 109.313 19.258 109.499C18.5579 108.481 17.8761 107.49 17.1694 106.462C17.3846 106.275 17.5683 106.116 17.7785 105.934C18.0101 106.204 18.2154 106.445 18.4553 106.725C19.5112 106.023 20.5339 105.343 21.5931 104.638C21.4409 104.339 21.3052 104.072 21.1479 103.761C21.3879 103.644 21.6063 103.538 21.8149 103.435C22.8062 104.812 23.7727 106.154 24.7607 107.526L24.7623 107.529Z" fill="#FDD030"/>
<path d="M72.9745 120.023C72.7693 119.764 72.6286 119.586 72.4598 119.374C72.6898 119.179 72.9033 118.997 73.1747 118.765C72.5012 117.702 71.8342 116.652 71.1524 115.577C70.8876 115.698 70.6642 115.799 70.3845 115.927C70.2736 115.697 70.1677 115.48 70.0469 115.23C70.8346 114.712 71.6058 114.207 72.43 113.666C72.5872 113.843 72.7494 114.023 72.9629 114.262C72.7345 114.429 72.5194 114.588 72.2711 114.77C73.0026 115.869 73.6828 116.89 74.406 117.975C74.8297 117.656 75.2285 117.413 75.5496 117.092C75.7184 116.923 75.8624 116.6 75.8243 116.38C75.725 115.809 75.8938 115.486 76.5194 115.387C76.7411 115.879 76.9795 116.412 77.2707 117.059C75.874 118.022 74.4507 119.003 72.9728 120.023H72.9745Z" fill="#FDD030"/>
<path d="M28.2675 75.1386C28.9129 75.5043 29.3846 75.0426 29.8413 74.4915C30.2087 75.2892 30.5347 76.0471 30.9021 76.7836C31.4152 77.8113 32.049 78.7497 32.9443 79.501C33.1065 79.6367 33.1926 79.9297 33.2124 80.1597C33.2522 80.6148 33.4408 80.9458 33.7768 81.252C35.0197 82.3873 36.2427 83.5441 37.469 84.6959C38.0118 85.2056 38.1442 86.1754 37.7917 86.844C37.6494 87.1121 37.4938 87.3918 37.4375 87.6847C37.2952 88.4311 37.4508 89.0501 38.2981 89.29C38.462 89.3364 38.5993 89.4671 38.7598 89.5317C39.4417 89.8031 39.92 90.187 39.733 91.0327C39.7032 91.1701 39.8041 91.3786 39.9084 91.4978C40.6912 92.4063 41.0404 93.5085 41.3316 94.6339C41.4508 95.094 41.6924 95.415 42.126 95.6351C42.745 95.9479 43.579 96.1746 43.8769 96.6926C44.1897 97.2355 43.9795 98.0795 43.9961 98.7911C43.9978 98.8689 44.0077 98.9483 43.9961 99.0228C43.8405 99.9909 44.2278 100.724 44.8136 101.492C45.3995 102.262 45.7586 103.21 46.1773 104.1C46.3395 104.444 46.5199 104.597 46.9154 104.577C47.6486 104.542 48.3867 104.55 49.1215 104.574C49.4822 104.585 49.7222 104.516 49.7553 104.107C49.7868 103.731 49.9854 103.585 50.3759 103.504C52.7375 103.016 54.8575 101.931 56.9014 100.703C58.2419 99.8966 59.5162 98.9781 60.8369 98.1357C61.3664 97.7981 61.7719 97.3943 61.8861 96.7605C61.9556 96.3832 62.1823 96.2508 62.5414 96.2723C63.4417 96.3236 64.1749 95.9942 64.822 95.367C66.3611 93.8726 67.9366 92.4179 69.4707 90.9185C69.6809 90.7133 69.81 90.3558 69.8447 90.053C69.9622 89.0186 70.0202 87.9777 70.1046 86.8937C70.99 86.8109 71.8456 86.7315 72.7426 86.6488C72.7426 85.3 72.7574 84.0058 72.726 82.7149C72.721 82.5296 72.5324 82.2681 72.3586 82.182C71.6172 81.8196 70.8708 81.4373 70.0864 81.2007C69.3532 80.9806 68.5605 80.9673 67.8091 80.7969C67.5179 80.7307 67.1753 80.5453 67.0181 80.307C66.7583 79.9131 66.6043 79.4398 66.4504 78.9863C66.179 78.1853 65.6362 77.7269 64.9527 77.7749C64.2725 77.8229 63.6337 78.4766 63.5344 79.2313C63.3971 80.2706 63.3987 80.2772 62.371 80.4295C61.34 80.5817 60.3089 80.7207 59.2464 80.8697C58.9883 80.2706 58.7086 79.7162 58.51 79.1353C58.3594 78.6918 58.088 78.5312 57.656 78.5395C57.5021 78.5428 57.3466 78.5031 57.1927 78.5147C56.7806 78.5428 56.5307 78.3939 56.4943 77.9537C56.443 77.3264 56.1037 76.8498 55.7131 76.3798C54.5282 74.9516 53.3664 73.5018 52.107 71.9528C53.2175 71.784 53.6759 71.1568 53.3813 70.0215C54.2948 70.1257 55.0925 70.2101 55.8869 70.3177C55.9812 70.331 56.1252 70.4766 56.1318 70.5676C56.3205 73.6044 58.6374 74.5461 60.9808 75.2941C62.1277 75.6599 63.4202 75.5887 64.6499 75.6566C64.9097 75.6715 65.2291 75.4812 65.4442 75.2958C66.0681 74.7629 66.5332 74.7563 67.0959 75.3603C67.306 75.5871 67.4815 75.8453 67.6867 76.0769C69.1414 77.7236 70.9949 77.6508 72.6697 76.6562C72.7972 76.58 72.8733 76.345 72.8931 76.1746C72.9577 75.5871 72.9858 74.9946 73.1116 74.4021C76.1699 80.6231 76.6234 87.1171 74.6987 93.6872C72.4711 101.292 66.9999 106.169 60.2162 109.993C60.1997 109.684 60.1765 109.505 60.1815 109.327C60.203 108.456 60.2278 107.586 60.2576 106.717C60.2891 105.818 59.877 105.272 58.9568 105.231C58.2336 105.197 57.4723 105.235 56.7806 105.431C55.7446 105.722 54.7582 106.185 53.7437 106.563C51.6701 107.332 49.5931 108.094 47.4582 108.878V106.745C46.7284 106.654 46.0466 106.53 45.3581 106.498C44.8633 106.475 44.7127 106.276 44.7772 105.821C44.8021 105.651 44.7822 105.472 44.7971 105.3C44.86 104.577 44.8385 103.986 44.0656 103.496C43.5542 103.172 43.2729 102.435 42.975 101.838C42.8111 101.509 42.6506 101.348 42.2882 101.264C40.6217 100.88 39.258 100.006 38.5497 98.4187C38.2336 97.7088 38.1641 96.8532 38.1392 96.0588C38.1128 95.1966 37.9572 94.6488 37.0602 94.197C35.1752 93.2454 34.5298 91.4531 34.5265 89.4423C34.5265 88.7456 34.3693 88.1663 33.9853 87.6103C33.7553 87.2776 33.5898 86.897 33.3465 86.5743C33.1347 86.2929 32.8831 86.0232 32.6001 85.8147C31.9464 85.3364 31.4566 84.7191 31.2927 83.9528C31.0676 82.9003 30.9965 81.818 30.8376 80.7505C30.8045 80.5238 30.7284 80.2722 30.591 80.0985C30.3295 79.7658 30.0201 79.4679 29.7089 79.1767C29.0883 78.5941 28.5902 78.0463 28.7606 77.0269C28.8583 76.4361 28.4412 75.7592 28.2642 75.1469L28.2675 75.1386Z" fill="#23558B"/>
<path d="M54.854 95.0197C50.3525 88.6183 45.8941 82.2782 41.4439 75.948C38.6951 76.6862 37.6359 76.1069 37.3711 73.6659C37.5614 73.9191 37.6988 74.1177 37.8527 74.3047C38.6256 75.2513 39.5904 75.4152 40.628 74.7681C40.8564 74.6257 41.1179 74.4834 41.2635 74.2716C41.7683 73.5418 42.4402 73.4573 43.228 73.6493C43.5441 73.7271 43.875 73.7403 44.355 73.8049C43.7377 74.2269 43.2147 74.5844 42.6454 74.9749C44.2358 77.2588 45.8097 79.5211 47.4034 81.8099C48.1365 81.4011 48.8084 80.9824 49.5217 80.6481C49.8626 80.4876 50.2813 80.4214 50.662 80.4297C51.2147 80.4429 51.7642 80.5621 52.4891 80.6597C51.9098 80.9956 51.4597 81.2571 50.9615 81.5467C51.0741 81.7172 51.1667 81.8744 51.276 82.0201C52.2176 83.2712 53.1097 84.5654 54.1225 85.7586C55.3107 87.1603 55.6417 89.0685 53.7816 90.6754C54.2516 91.4003 54.7232 92.1285 55.2346 92.9162C55.7013 92.577 56.168 92.2807 56.5851 91.9233C57.0137 91.5559 57.4655 91.4202 58.0199 91.5211C58.4171 91.5939 58.8258 91.6105 59.4018 91.6717C57.8329 92.8269 56.3732 93.9026 54.8556 95.0213L54.854 95.0197ZM52.6446 89.1843C53.5615 88.5571 53.7121 87.5327 53.0153 86.6572C52.0637 85.464 51.0906 84.2873 50.1258 83.1057C49.9851 82.9319 49.8378 82.7648 49.6856 82.5844C49.2685 82.8972 48.9044 83.1702 48.5139 83.4615C49.914 85.4028 51.2793 87.2944 52.6446 89.186V89.1843Z" fill="#23558B"/>
<path d="M62.2784 89.4558C62.29 89.9507 61.9259 90.3429 61.4344 90.3627C60.9131 90.3842 60.5076 90.0053 60.4944 89.4889C60.4828 88.9809 60.8866 88.5721 61.398 88.5737C61.8796 88.5737 62.2652 88.961 62.2768 89.4542L62.2784 89.4558Z" fill="#23558B"/>
</svg>
