<svg width="58" height="80" viewBox="0 0 58 80" fill="none" xmlns="http://www.w3.org/2000/svg">
<path d="M0.592285 0.19165V10.9327H2.47188V5.89513H4.9959C5.54366 6.16366 5.91958 6.71145 5.91958 7.35591V10.9327H7.6488V6.88331C7.6488 6.16366 7.31585 5.5192 6.73586 5.14326C7.31585 4.62769 7.69177 3.87582 7.69177 3.02728C7.69177 1.49131 6.39216 0.19165 4.82405 0.19165H0.592285ZM2.47188 1.83503H4.6522C5.29663 1.83503 5.8444 2.38282 5.8444 3.02728C5.8444 3.70396 5.29663 4.25176 4.6522 4.25176H2.47188V1.83503ZM12.858 0.19165C10.6132 0.19165 8.7873 1.99614 8.7873 4.19805V6.93701C8.7873 9.13892 10.6132 10.9327 12.858 10.9327C15.1027 10.9327 16.9179 9.13892 16.9179 6.93701V4.19805C16.9179 1.99614 15.092 0.19165 12.858 0.19165ZM12.858 1.77058C14.0609 1.77058 15.049 2.72653 15.049 3.94027V7.19479C15.049 8.37631 14.0609 9.36448 12.858 9.36448C11.655 9.36448 10.6561 8.37631 10.6561 7.19479V3.94027C10.6561 2.72653 11.6443 1.77058 12.858 1.77058ZM17.9382 0.19165V10.9327H19.7856V3.19914L24.0281 8.89188V10.9327H25.8755V0.19165H24.0281V5.64809L19.7856 0.19165H17.9382ZM34.8116 0.19165H30.1824C28.3458 0.19165 26.8528 1.69539 26.8528 3.53211V10.9327H28.7539V5.49771H32.9749V10.9327H34.8116V0.19165ZM28.7539 3.94027V3.59655C28.7539 2.6406 29.5702 1.82429 30.5261 1.82429H32.9749V3.94027H28.7539ZM37.5504 0.19165H35.6386V6.85108C35.6386 9.08521 37.486 10.9327 39.7952 10.9327H41.2559V9.343H39.9778C38.6352 9.343 37.5504 8.24741 37.5504 6.85108V0.19165ZM41.9433 0.19165V10.9327H45.8099C47.5176 10.9327 48.9353 9.43967 48.9353 7.67814V3.45692C48.9353 1.69539 47.5176 0.19165 45.8099 0.19165H41.9433ZM43.7692 9.23559V1.89947H45.9495C46.6261 1.89947 47.1739 2.43652 47.1739 3.12395V8.01111C47.1739 8.69854 46.6261 9.23559 45.9495 9.23559H43.7692ZM53.9297 0.19165C51.6849 0.19165 49.859 1.99614 49.859 4.19805V6.93701C49.859 9.13892 51.6849 10.9327 53.9297 10.9327C56.1745 10.9327 57.9896 9.13892 57.9896 6.93701V4.19805C57.9896 1.99614 56.1637 0.19165 53.9297 0.19165ZM53.9297 1.77058C55.1326 1.77058 56.1208 2.72653 56.1208 3.94027V7.19479C56.1208 8.37631 55.1326 9.36448 53.9297 9.36448C52.7267 9.36448 51.7279 8.37631 51.7279 7.19479V3.94027C51.7279 2.72653 52.716 1.77058 53.9297 1.77058Z" fill="#FDCB39"/>
<path d="M28.9367 66.432L28.8739 49.38V49.0039C28.8739 49.0039 28.9367 46.6216 29.5642 44.5528C30.2545 42.5467 32.0115 39.9763 32.0115 39.9763C32.0115 39.9763 30.5682 42.672 30.129 44.4901C29.6897 46.1201 29.4387 47.3112 29.4387 49.0039V49.3173L29.5014 66.4947C29.5014 66.9336 29.4387 67.4351 29.5642 67.8112L29.5014 67.8739H29.1249C28.8739 67.8739 28.8112 67.8112 28.8112 67.8112C28.8112 67.8112 28.8739 67.6859 28.8739 67.5605C28.9367 67.3097 28.9367 66.7455 28.9367 66.432ZM14.8176 18.7863L11.3035 30.2588C11.3035 30.2588 17.5159 28.9423 22.4733 28.6288C27.4306 28.3154 38.0984 28.6288 38.0984 28.6288C38.0984 28.6288 32.639 31.638 29.878 34.5218C27.1169 37.3429 25.1088 43.1732 24.3558 46.6839C23.6028 50.1319 23.9165 63.924 23.9165 63.924C23.9165 63.924 23.9793 70.9454 23.6655 73.265C23.3518 75.5219 22.4733 78.4684 22.4733 78.4684C22.4733 78.4684 24.5441 79.4088 28.1837 79.5968C31.7605 79.8476 35.6511 78.5938 35.6511 78.5938C35.6511 78.5938 34.2706 75.2711 34.2078 70.5693C34.1451 65.8674 34.1451 53.3292 34.1451 53.3292C34.1451 53.3292 34.8981 44.8032 37.8474 39.9759C40.734 35.1487 46.6326 29.8826 46.6326 29.8826L45.3149 25.3689C42.742 24.4912 38.1612 23.2374 31.886 22.8612C24.6696 22.4224 19.3984 23.5508 16.9511 24.2404L17.1394 23.5508C19.7749 22.9239 24.9833 21.8581 31.9488 22.297C37.9729 22.6104 42.4283 23.8016 45.1266 24.6793L43.3068 18.5355C43.3068 18.5355 35.4628 16.3413 27.4306 17.0936C19.3357 17.8459 14.8176 18.7863 14.8176 18.7863Z" fill="#FDCB39"/>
</svg>
