<svg width="88" height="88" viewBox="0 0 88 88" fill="none" xmlns="http://www.w3.org/2000/svg">
<path d="M44 85C21.9429 85 4 67.0571 4 45C4 22.9429 21.9429 5 44 5C66.0571 5 84 22.9429 84 45C84 67.0571 66.0571 85 44 85ZM44 8.80952C24.0381 8.80952 7.80952 25.0381 7.80952 45C7.80952 64.9619 24.0381 81.1905 44 81.1905C63.9619 81.1905 80.1905 64.9619 80.1905 45C80.1905 25.0381 63.9619 8.80952 44 8.80952Z" fill="#06DCFF"/>
<path d="M11.1616 66.2383V62.4287C23.8854 62.4287 36.4188 55.0573 42.3235 44.1049L45.6759 45.9144C39.1235 58.0668 25.2569 66.2383 11.1616 66.2383Z" fill="#06DCFF"/>
<path d="M75.3523 65.0005C68.8951 53.8385 56.8761 46.9052 43.9999 46.9052H42.9332L42.3809 45.9909C38.457 39.629 36.3809 32.0481 36.3809 24.0481C36.3809 16.6576 37.4475 10.9814 39.7142 6.1814L43.1618 7.81949C41.1047 12.1433 40.1904 17.1528 40.1904 24.0481C40.1904 30.9624 41.8856 37.5338 45.0856 43.1147C58.8951 43.4957 71.6951 51.0766 78.6475 63.0957L75.3523 65.0005Z" fill="#06DCFF"/>
<path d="M26.6095 80.6385L26.0571 76.867C41.8095 74.5242 55.3905 64.0289 61.5238 49.4766L65.0286 50.9623C58.3809 66.7337 43.6571 78.1051 26.6095 80.6385Z" fill="#06DCFF"/>
<path d="M80.5905 43.8951C71.8095 33.7046 59.1809 27.857 45.9047 27.857C42.8952 27.857 40.6667 28.0094 38.6476 28.3142L38.0571 24.5618C40.2667 24.1999 42.6857 24.0475 45.9047 24.0475C60.2857 24.0475 73.9809 30.3713 83.4667 41.4189L80.5905 43.8951Z" fill="#06DCFF"/>
<path d="M29.2192 60.0286C21.543 51.0762 17.3335 39.6476 17.3335 27.8571C17.3335 23.1524 18.0002 18.4857 19.2954 14.0095L22.9525 15.0762C21.7525 19.2095 21.143 23.5143 21.143 27.8571C21.143 38.7524 25.0287 49.2857 32.1144 57.5524L29.2192 60.0286Z" fill="#06DCFF"/>
</svg>
