<svg width="88" height="88" viewBox="0 0 88 88" fill="none" xmlns="http://www.w3.org/2000/svg">
<path d="M80.773 28.7984C78.7754 24.1443 75.9237 19.9725 72.2868 16.3851C68.6498 12.7977 64.4136 9.98479 59.7021 8.01442C54.8184 5.97611 49.6385 4.94336 44.2933 4.94336C38.9481 4.94336 33.7614 5.97611 28.8777 8.01442C24.1593 9.98479 19.9299 12.7977 16.293 16.3851C12.6561 19.9725 9.80437 24.1511 7.8068 28.7984C5.74036 33.6157 4.69336 38.7318 4.69336 44.0043C4.69336 49.1001 5.67148 54.0532 7.60705 58.7277C7.6346 58.8025 7.66215 58.8772 7.70348 58.9519L7.71726 58.9859C7.74481 59.0606 7.77925 59.1286 7.8068 59.2033C9.80437 63.8575 12.6561 68.0292 16.293 71.6167C19.9299 75.2041 24.1662 78.017 28.8777 79.9873C33.7614 82.0257 38.9481 83.0584 44.2933 83.0584C49.6385 83.0584 54.8253 82.0257 59.709 79.9873C64.4274 78.017 68.6567 75.2041 72.2937 71.6167C75.9306 68.0292 78.7823 63.8507 80.7799 59.2033C82.8463 54.3861 83.8933 49.2699 83.8933 43.9975C83.8864 38.7318 82.8394 33.6157 80.773 28.7984ZM62.9947 73.7093C61.4862 74.6402 59.9088 75.4555 58.2763 76.1485L58.9789 74.3684L62.9947 73.7093ZM21.5624 61.0446L29.1876 70.0472V75.6525C22.265 72.4252 16.5616 67.0576 12.9591 60.3787L21.5624 61.0446ZM20.9769 45.6417L20.5981 56.8796L11.0305 56.1391C9.57017 52.2595 8.82625 48.176 8.82625 44.0043C8.82625 42.4959 8.92268 40.9876 9.12244 39.4996L14.6812 37.0061L20.9769 45.6417ZM63.3873 30.2728L67.6373 25.5711L76.8881 30.2389C78.6721 34.3291 79.6296 38.6639 79.7398 43.1414L72.8861 49.5621L66.5283 44.7245L63.3873 30.2728ZM51.2573 54.9093L64.4412 48.2779L70.8196 53.1359L68.7532 68.6271L57.9181 70.4005L49.2321 65.0057L51.2573 54.9093ZM35.9656 20.1424L41.8549 28.085L35.4283 39.9277L23.932 42.7066L17.7671 34.2611L23.2156 23.3358L35.9656 20.1424ZM49.7901 51.0704L39.3752 41.2797L45.4505 30.0826L59.4404 31.5502L62.3127 44.772L49.7901 51.0704ZM60.3152 27.5483L45.423 25.9856L39.5405 18.0565L48.7018 9.29177C52.1389 9.71302 55.4797 10.6303 58.6414 12.0163L64.6478 22.7582L60.3152 27.5483ZM22.9883 16.0522C25.9433 13.8576 29.1945 12.1386 32.673 10.9496C36.0069 9.80814 39.4854 9.16947 43.0259 9.04037L35.7727 15.9842L23.4705 19.0621L22.9883 16.0522ZM25.0823 46.6269L36.2066 43.9363L47.1726 54.2502L45.1612 64.2719L32.0393 67.0576L24.6828 58.3676L25.0823 46.6269ZM33.3274 70.9576L46.5458 68.1515L54.9424 73.3764L53.1584 77.8811C50.2723 78.6149 47.2966 78.9886 44.2933 78.9886C40.5462 78.9886 36.861 78.411 33.3274 77.2764V70.9576ZM79.3816 49.1001C78.6032 54.3453 76.6263 59.3188 73.5818 63.7012L74.98 53.2243L79.3816 49.1001ZM68.6636 21.5013L65.6328 16.0862C68.5396 18.2604 71.1158 20.8762 73.2305 23.8114L68.6636 21.5013ZM10.135 34.5601C11.7882 28.7441 14.9292 23.4852 19.3031 19.198L19.6338 21.2635L13.8339 32.9023L10.135 34.5601Z" fill="#06DCFF"/>
</svg>
