<svg width="412" height="117" viewBox="0 0 412 117" fill="none" xmlns="http://www.w3.org/2000/svg">
<path d="M30.2654 66.082H53.9377V80.3984C53.9377 81.5286 53.3726 82.0938 52.2423 82.0938C51.0702 82.0938 50.4842 81.5286 50.4842 80.3984V76.4426C45.0004 80.9217 38.2608 83.1612 30.2654 83.1612C22.6049 83.1612 16.0746 81.11 10.6745 77.0077C5.10702 72.7797 2.32328 67.6308 2.32328 61.561C2.32328 55.4912 5.10702 50.3423 10.6745 46.1144C16.1164 41.9701 22.6467 39.898 30.2654 39.898C34.9119 39.898 39.2655 40.7562 43.326 42.4725C47.3865 44.1469 50.7354 46.4702 53.3726 49.4423C53.6656 49.7772 53.8121 50.1539 53.8121 50.5725C53.8121 51.7447 53.2261 52.3307 52.054 52.3307C51.5098 52.3307 51.0702 52.1214 50.7353 51.7028C48.4749 49.1074 45.5237 47.0772 41.8818 45.612C38.2817 44.1469 34.4096 43.4143 30.2654 43.4143C23.5258 43.4143 17.7699 45.1934 12.9978 48.7516C8.22566 52.2679 5.83959 56.5377 5.83959 61.561C5.83959 66.5425 8.22566 70.8123 12.9978 74.3704C17.7699 77.8868 23.5258 79.6449 30.2654 79.6449C34.3259 79.6449 38.1352 78.9542 41.6934 77.5728C45.2516 76.1495 48.1818 74.1821 50.4842 71.6704V69.5355H30.2654C29.0933 69.5355 28.5072 68.9704 28.5072 67.8401C28.5072 66.668 29.0933 66.082 30.2654 66.082ZM86.6662 39.898C94.243 39.898 100.752 41.9701 106.194 46.1144C111.762 50.3842 114.546 55.5331 114.546 61.561C114.546 67.589 111.762 72.7379 106.194 77.0077C100.836 81.11 94.3267 83.1612 86.6662 83.1612C79.0056 83.1612 72.4754 81.11 67.0753 77.0077C61.5078 72.7797 58.7241 67.6308 58.7241 61.561C58.7241 55.4912 61.5078 50.3423 67.0753 46.1144C72.5172 41.9701 79.0475 39.898 86.6662 39.898ZM111.092 61.561C111.092 56.5377 108.706 52.2679 103.934 48.7516C99.1616 45.1934 93.4058 43.4143 86.6662 43.4143C79.9266 43.4143 74.1707 45.1934 69.3986 48.7516C64.6264 52.2679 62.2404 56.5377 62.2404 61.561C62.2404 66.5425 64.6264 70.8123 69.3986 74.3704C74.1707 77.8868 79.9266 79.6449 86.6662 79.6449C93.4058 79.6449 99.1616 77.8868 103.934 74.3704C108.706 70.8123 111.092 66.5425 111.092 61.561ZM170.961 78.6402C172.133 78.6402 172.719 79.2263 172.719 80.3984C172.719 81.5286 172.133 82.0938 170.961 82.0938H118.969V42.7236C118.969 41.5515 119.555 40.9655 120.728 40.9655C121.9 40.9655 122.486 41.5515 122.486 42.7236V78.6402H170.961ZM217.212 41.7818C221.315 43.205 224.622 45.7167 227.133 49.3167C229.687 52.8749 230.963 56.8307 230.963 61.1843C230.963 65.5378 229.687 69.5146 227.133 73.1146C224.622 76.6728 221.315 79.1635 217.212 80.5868C214.952 81.3821 212.67 81.7798 210.368 81.7798H177.214V40.5887H210.368C212.67 40.5887 214.952 40.9864 217.212 41.7818ZM216.082 77.3216C219.473 76.1077 222.215 74.0146 224.308 71.0425C226.401 68.0704 227.447 64.7843 227.447 61.1843C227.447 57.5842 226.401 54.2982 224.308 51.326C222.215 48.3539 219.473 46.2609 216.082 45.0469C214.324 44.419 212.419 44.105 210.368 44.105H180.73V78.2635H210.368C212.419 78.2635 214.324 77.9495 216.082 77.3216ZM287.205 62.9424H238.73V78.2635H287.205C288.377 78.2635 288.963 78.8496 288.963 80.0217C288.963 81.1938 288.377 81.7798 287.205 81.7798H235.214V40.5887H287.205C288.377 40.5887 288.963 41.1748 288.963 42.3469C288.963 43.519 288.377 44.105 287.205 44.105H238.73V59.4261H287.205C288.377 59.4261 288.963 60.0122 288.963 61.1843C288.963 62.3564 288.377 62.9424 287.205 62.9424ZM345.895 78.9542C346.355 79.2891 346.586 79.7496 346.586 80.3356C346.586 81.5077 345.979 82.0938 344.765 82.0938C344.388 82.0938 344.053 81.9891 343.76 81.7798L319.711 63.6959L295.662 81.7798C295.369 81.9891 295.034 82.0938 294.657 82.0938C293.443 82.0938 292.836 81.5077 292.836 80.3356C292.836 79.7496 293.067 79.2891 293.527 78.9542L316.823 61.561L293.527 44.105C292.606 43.4353 292.502 42.619 293.213 41.6562C293.548 41.1957 294.029 40.9655 294.657 40.9655C295.034 40.9655 295.369 41.0701 295.662 41.2794L319.711 59.3633L343.76 41.2794C344.053 41.0701 344.388 40.9655 344.765 40.9655C345.979 40.9655 346.586 41.5515 346.586 42.7236C346.586 43.3097 346.355 43.7702 345.895 44.105L322.599 61.561L345.895 78.9542ZM350.877 42.7236C350.877 41.5515 351.442 40.9655 352.573 40.9655C353.745 40.9655 354.331 41.5515 354.331 42.7236V80.3984C354.331 81.5286 353.745 82.0938 352.573 82.0938C351.442 82.0938 350.877 81.5286 350.877 80.3984V42.7236ZM384.155 77.7651L409.291 40.0315V80.7673C409.291 81.8269 408.761 82.3567 407.702 82.3567C406.603 82.3567 406.053 81.8269 406.053 80.7673V50.8041L384.155 83.7106L362.198 50.8041V80.7673C362.198 81.8269 361.668 82.3567 360.608 82.3567C359.509 82.3567 358.96 81.8269 358.96 80.7673V40.0315L384.155 77.7651Z" fill="url(#paint0_radial_50_535)"/>
<path d="M266.859 98.2362C268.141 98.681 269.174 99.4659 269.959 100.591C270.757 101.703 271.156 102.939 271.156 104.3C271.156 105.66 270.757 106.903 269.959 108.028C269.174 109.14 268.141 109.918 266.859 110.363C266.152 110.611 265.439 110.736 264.72 110.736H254.359V97.8634H264.72C265.439 97.8634 266.152 97.9877 266.859 98.2362ZM266.505 109.342C267.565 108.963 268.422 108.309 269.076 107.38C269.73 106.451 270.057 105.425 270.057 104.3C270.057 103.175 269.73 102.148 269.076 101.219C268.422 100.29 267.565 99.636 266.505 99.2566C265.956 99.0604 265.361 98.9623 264.72 98.9623H255.458V109.637H264.72C265.361 109.637 265.956 109.539 266.505 109.342ZM280.706 109.303L289.085 96.7253V110.304C289.085 110.657 288.908 110.834 288.555 110.834C288.188 110.834 288.005 110.657 288.005 110.304V100.316L280.706 111.285L273.387 100.316V110.304C273.387 110.657 273.21 110.834 272.857 110.834C272.491 110.834 272.308 110.657 272.308 110.304V96.7253L280.706 109.303ZM306.277 100.512C306.512 100.8 306.499 101.055 306.238 101.278C306.133 101.369 306.009 101.415 305.865 101.415C305.708 101.415 305.577 101.356 305.472 101.238C304.753 100.427 303.824 99.7929 302.686 99.3351C301.561 98.8642 300.351 98.6287 299.056 98.6287C296.95 98.6287 295.151 99.1847 293.66 100.297C292.168 101.409 291.423 102.743 291.423 104.3C291.423 105.856 292.168 107.191 293.66 108.302C295.151 109.414 296.95 109.97 299.056 109.97C300.351 109.97 301.561 109.741 302.686 109.284C303.824 108.813 304.753 108.172 305.472 107.361C305.577 107.243 305.708 107.184 305.865 107.184C306.009 107.184 306.133 107.23 306.238 107.321C306.499 107.544 306.512 107.799 306.277 108.087C305.479 109.015 304.439 109.741 303.157 110.265C301.875 110.788 300.508 111.05 299.056 111.05C296.662 111.05 294.621 110.409 292.934 109.127C291.194 107.805 290.324 106.196 290.324 104.3C290.324 102.403 291.194 100.794 292.934 99.4725C294.621 98.1905 296.662 97.5495 299.056 97.5495C300.508 97.5495 301.875 97.8111 303.157 98.3344C304.439 98.8576 305.479 99.5836 306.277 100.512ZM324.021 100.512C324.257 100.8 324.243 101.055 323.982 101.278C323.877 101.369 323.753 101.415 323.609 101.415C323.452 101.415 323.321 101.356 323.217 101.238C322.497 100.427 321.568 99.7929 320.43 99.3351C319.305 98.8642 318.095 98.6287 316.8 98.6287C314.694 98.6287 312.895 99.1847 311.404 100.297C309.913 101.409 309.167 102.743 309.167 104.3C309.167 105.856 309.913 107.191 311.404 108.302C312.895 109.414 314.694 109.97 316.8 109.97C318.095 109.97 319.305 109.741 320.43 109.284C321.568 108.813 322.497 108.172 323.217 107.361C323.321 107.243 323.452 107.184 323.609 107.184C323.753 107.184 323.877 107.23 323.982 107.321C324.243 107.544 324.257 107.799 324.021 108.087C323.223 109.015 322.183 109.741 320.901 110.265C319.619 110.788 318.252 111.05 316.8 111.05C314.406 111.05 312.365 110.409 310.678 109.127C308.938 107.805 308.068 106.196 308.068 104.3C308.068 102.403 308.938 100.794 310.678 99.4725C312.365 98.1905 314.406 97.5495 316.8 97.5495C318.252 97.5495 319.619 97.8111 320.901 98.3344C322.183 98.8576 323.223 99.5836 324.021 100.512ZM343.815 98.2362C345.097 98.681 346.13 99.4659 346.915 100.591C347.713 101.703 348.112 102.939 348.112 104.3C348.112 105.66 347.713 106.903 346.915 108.028C346.13 109.14 345.097 109.918 343.815 110.363C343.108 110.611 342.395 110.736 341.676 110.736H331.315V97.8634H341.676C342.395 97.8634 343.108 97.9877 343.815 98.2362ZM343.462 109.342C344.521 108.963 345.378 108.309 346.032 107.38C346.686 106.451 347.013 105.425 347.013 104.3C347.013 103.175 346.686 102.148 346.032 101.219C345.378 100.29 344.521 99.636 343.462 99.2566C342.912 99.0604 342.317 98.9623 341.676 98.9623H332.414V109.637H341.676C342.317 109.637 342.912 109.539 343.462 109.342ZM349.813 98.5306C349.813 98.1643 349.996 97.9812 350.362 97.9812C350.729 97.9812 350.912 98.1643 350.912 98.5306V106.144C350.912 107.688 351.854 108.786 353.738 109.441C354.954 109.859 356.445 110.068 358.211 110.068C359.977 110.068 361.469 109.859 362.685 109.441C364.569 108.786 365.511 107.688 365.511 106.144V98.5306C365.511 98.1643 365.694 97.9812 366.06 97.9812C366.427 97.9812 366.61 98.1643 366.61 98.5306V106.144C366.61 107.975 365.661 109.323 363.764 110.186C362.326 110.84 360.474 111.167 358.211 111.167C355.961 111.167 354.117 110.84 352.678 110.186C350.768 109.323 349.813 107.975 349.813 106.144V98.5306ZM383.583 104.3C384.669 104.993 385.212 105.974 385.212 107.243C385.212 108.198 384.872 109.022 384.191 109.715C383.511 110.396 382.694 110.736 381.739 110.736H368.435V97.8634H381.739C382.694 97.8634 383.511 98.2101 384.191 98.9034C384.872 99.5836 385.212 100.401 385.212 101.356C385.212 102.625 384.669 103.606 383.583 104.3ZM381.739 98.9623H369.514V103.75H381.739C382.393 103.75 382.949 103.515 383.407 103.044C383.877 102.573 384.113 102.01 384.113 101.356C384.113 100.702 383.877 100.14 383.407 99.6687C382.949 99.1977 382.393 98.9623 381.739 98.9623ZM381.739 109.637C382.393 109.637 382.949 109.401 383.407 108.93C383.877 108.459 384.113 107.897 384.113 107.243C384.113 106.589 383.877 106.026 383.407 105.555C382.949 105.084 382.393 104.849 381.739 104.849H369.514V109.637H381.739ZM407.358 109.833C407.449 109.938 407.495 110.062 407.495 110.206C407.495 110.559 407.319 110.736 406.965 110.736C406.795 110.736 406.651 110.67 406.534 110.539L403.316 106.811H390.522L387.422 110.539C387.317 110.67 387.186 110.736 387.029 110.736C386.65 110.736 386.46 110.546 386.46 110.167C386.46 110.036 386.499 109.925 386.578 109.833L396.801 97.5691L407.358 109.833ZM391.444 105.712H402.393L396.821 99.2566L391.444 105.712ZM409.136 98.5306C409.136 98.1643 409.312 97.9812 409.665 97.9812C410.032 97.9812 410.215 98.1643 410.215 98.5306V110.304C410.215 110.657 410.032 110.834 409.665 110.834C409.312 110.834 409.136 110.657 409.136 110.304V98.5306Z" fill="white"/>
<path opacity="0.89" d="M304.22 35.025C303.863 33.7156 303.557 32.4316 303.302 31.1732C303.047 29.9317 302.851 28.8178 302.715 27.8315C302.579 26.8451 302.511 26.1139 302.511 25.6377C302.511 24.3793 302.715 23.2314 303.123 22.194C303.531 21.1567 304.058 20.2468 304.705 19.4646C305.351 18.6653 306.048 17.9935 306.796 17.4493C307.545 16.8882 308.267 16.4715 308.965 16.1994C309.679 15.9103 310.283 15.7658 310.776 15.7658C311.201 15.7658 311.575 15.8593 311.898 16.0464C312.221 16.2334 312.536 16.5991 312.842 17.1432C313.148 17.6874 313.471 18.4867 313.811 19.5411C314.135 20.5104 314.441 21.2502 314.73 21.7604C315.019 22.2535 315.333 22.5937 315.674 22.7807C316.014 22.9508 316.405 23.0358 316.847 23.0358C317.204 23.0358 317.459 23.1378 317.612 23.3419C317.782 23.529 317.867 23.7586 317.867 24.0307C317.867 24.3028 317.748 24.5578 317.51 24.7959C317.272 25.017 316.966 25.1275 316.592 25.1275C315.929 25.1275 315.359 25.0085 314.883 24.7704C314.424 24.5323 314.024 24.2092 313.684 23.8011L314.271 23.3164C314.067 23.8096 313.803 24.2177 313.48 24.5408C313.174 24.8469 312.825 25.0765 312.434 25.2296C312.06 25.3826 311.66 25.4592 311.235 25.4592C310.742 25.4592 310.232 25.3656 309.704 25.1786C309.177 25.0085 308.659 24.7534 308.148 24.4133C307.638 24.0562 307.154 23.6225 306.694 23.1123C306.252 22.6022 305.861 22.024 305.521 21.3777L305.776 21.4287C305.3 22.092 304.985 22.8147 304.832 23.597C304.679 24.3623 304.603 25.0425 304.603 25.6377C304.603 26.1139 304.654 26.7176 304.756 27.4489C304.858 28.1971 304.985 28.9879 305.138 29.8212C305.308 30.6545 305.487 31.4793 305.674 32.2956C305.878 33.1289 306.065 33.8771 306.235 34.5403L304.22 35.025ZM311.439 23.3674C311.745 23.3674 311.992 23.3079 312.179 23.1889C312.383 23.0698 312.519 22.8913 312.587 22.6532C312.655 22.4151 312.63 22.1175 312.51 21.7604C312.306 21.1481 312.119 20.6125 311.949 20.1533C311.779 19.6771 311.609 19.286 311.439 18.9799C311.286 18.6568 311.124 18.4187 310.954 18.2656C310.784 18.1126 310.606 18.0361 310.419 18.0361C310.232 18.0361 309.994 18.0786 309.704 18.1636C309.432 18.2486 309.135 18.3762 308.812 18.5462C308.506 18.7163 308.191 18.9289 307.868 19.184C307.545 19.439 307.239 19.7367 306.95 20.0768L306.975 19.8727C307.349 20.655 307.8 21.3097 308.327 21.8369C308.871 22.3641 309.415 22.7552 309.96 23.0103C310.521 23.2484 311.014 23.3674 311.439 23.3674ZM316.58 25.1275L316.835 23.0358C317.685 23.0358 318.348 22.9763 318.825 22.8572C319.301 22.7212 319.658 22.4746 319.896 22.1175C320.151 21.7434 320.355 21.2077 320.508 20.5104C320.661 19.8132 320.848 18.9034 321.069 17.781L323.059 18.1636C322.991 18.4697 322.914 18.8098 322.829 19.184C322.744 19.5581 322.668 19.9322 322.6 20.3064C322.549 20.6635 322.523 20.9781 322.523 21.2502C322.523 21.5053 322.54 21.7434 322.574 21.9644C322.608 22.1855 322.736 22.3726 322.957 22.5256C323.178 22.6787 323.552 22.8062 324.079 22.9083C324.607 22.9933 325.363 23.0358 326.35 23.0358C326.707 23.0358 326.962 23.1378 327.115 23.3419C327.285 23.529 327.37 23.7586 327.37 24.0307C327.37 24.3028 327.251 24.5578 327.013 24.7959C326.775 25.017 326.469 25.1275 326.095 25.1275C325.057 25.1275 324.232 25.0765 323.62 24.9745C323.008 24.8554 322.54 24.6854 322.217 24.4643C321.911 24.2432 321.69 23.9711 321.554 23.648C321.435 23.3079 321.341 22.9168 321.273 22.4746L322.039 22.5256C321.767 23.0698 321.469 23.512 321.146 23.8521C320.84 24.1922 320.483 24.4558 320.074 24.6429C319.666 24.8299 319.173 24.9575 318.595 25.0255C318.034 25.0935 317.362 25.1275 316.58 25.1275ZM323.008 29.9487C322.651 29.9487 322.345 29.8212 322.09 29.5661C321.852 29.328 321.733 29.0389 321.733 28.6988C321.733 28.3587 321.852 28.0611 322.09 27.806C322.345 27.5509 322.651 27.4234 323.008 27.4234C323.348 27.4234 323.637 27.5509 323.875 27.806C324.13 28.0611 324.258 28.3587 324.258 28.6988C324.258 29.0389 324.13 29.328 323.875 29.5661C323.637 29.8212 323.348 29.9487 323.008 29.9487ZM319.513 29.9487C319.156 29.9487 318.85 29.8212 318.595 29.5661C318.357 29.328 318.238 29.0389 318.238 28.6988C318.238 28.3587 318.357 28.0611 318.595 27.806C318.85 27.5509 319.156 27.4234 319.513 27.4234C319.853 27.4234 320.142 27.5509 320.381 27.806C320.636 28.0611 320.763 28.3587 320.763 28.6988C320.763 29.0389 320.636 29.328 320.381 29.5661C320.142 29.8212 319.853 29.9487 319.513 29.9487ZM326.096 25.1275L326.351 23.0358C326.895 23.0358 327.337 23.0018 327.677 22.9338C328.017 22.8487 328.298 22.6532 328.519 22.3471C328.757 22.024 328.978 21.5223 329.182 20.842C329.386 20.1618 329.625 19.2095 329.897 17.985L331.81 18.5207C331.708 18.9459 331.589 19.4561 331.453 20.0513C331.317 20.6465 331.249 21.1907 331.249 21.6838C331.249 21.9559 331.317 22.194 331.453 22.3981C331.589 22.6022 331.818 22.7637 332.141 22.8828C332.482 22.9848 332.932 23.0358 333.493 23.0358C334.004 23.0358 334.42 22.9933 334.743 22.9083C335.066 22.8232 335.33 22.6192 335.534 22.2961C335.755 21.9729 335.951 21.4543 336.121 20.74C336.291 20.0258 336.469 19.0479 336.656 17.8065L338.595 18.1636C338.544 18.4697 338.485 18.8438 338.417 19.286C338.349 19.7281 338.281 20.1703 338.213 20.6125C338.162 21.0376 338.136 21.3947 338.136 21.6838C338.136 21.9219 338.187 22.1515 338.289 22.3726C338.408 22.5766 338.629 22.7382 338.952 22.8572C339.292 22.9763 339.794 23.0358 340.457 23.0358C341.308 23.0358 341.92 22.8572 342.294 22.5001C342.685 22.143 342.881 21.5988 342.881 20.8675C342.881 20.4764 342.872 20.0683 342.855 19.6431C342.838 19.201 342.804 18.7163 342.753 18.1891C342.719 17.6449 342.66 17.0242 342.575 16.327L344.437 16.1994C344.539 17.5769 344.649 18.7078 344.768 19.5921C344.904 20.4764 345.091 21.1737 345.33 21.6838C345.585 22.177 345.925 22.5256 346.35 22.7297C346.775 22.9338 347.336 23.0358 348.033 23.0358C348.391 23.0358 348.646 23.1378 348.799 23.3419C348.969 23.529 349.054 23.7586 349.054 24.0307C349.054 24.3028 348.935 24.5578 348.697 24.7959C348.459 25.017 348.153 25.1275 347.778 25.1275C347.2 25.1275 346.681 25.051 346.222 24.898C345.78 24.7279 345.389 24.5068 345.049 24.2347C344.726 23.9456 344.454 23.6225 344.233 23.2654C344.029 22.8913 343.884 22.5001 343.799 22.092L344.258 22.245C344.071 23.0103 343.773 23.6055 343.365 24.0307C342.974 24.4388 342.507 24.7279 341.962 24.898C341.418 25.051 340.84 25.1275 340.228 25.1275C339.479 25.1275 338.867 25.034 338.391 24.8469C337.915 24.6599 337.541 24.3793 337.269 24.0052C337.014 23.614 336.844 23.1208 336.759 22.5256H337.626C337.303 23.2569 336.963 23.8096 336.605 24.1837C336.248 24.5578 335.806 24.8129 335.279 24.949C334.752 25.068 334.055 25.1275 333.187 25.1275C332.762 25.1275 332.303 25.0595 331.81 24.9235C331.334 24.7874 330.917 24.5238 330.56 24.1327C330.203 23.7246 329.99 23.1208 329.922 22.3216L330.687 22.1685C330.398 23.0358 330.041 23.682 329.616 24.1072C329.208 24.5153 328.715 24.7874 328.136 24.9235C327.558 25.0595 326.878 25.1275 326.096 25.1275ZM347.768 25.1275L348.024 23.0358H350.421C351.425 23.0358 352.215 22.9848 352.794 22.8828C353.389 22.7637 353.823 22.6192 354.095 22.4491C354.384 22.262 354.571 22.0665 354.656 21.8624C354.758 21.6413 354.809 21.4202 354.809 21.1992C354.809 20.808 354.656 20.3234 354.35 19.7452C354.061 19.167 353.457 18.4187 352.539 17.5004C352.062 17.0242 351.586 16.5905 351.11 16.1994C350.634 15.7913 350.192 15.4341 349.784 15.128C349.392 14.8049 349.078 14.5328 348.84 14.3117C348.602 14.0907 348.483 13.9206 348.483 13.8016C348.483 13.5465 348.5 13.2999 348.534 13.0618C348.585 12.8237 348.644 12.6026 348.712 12.3986C348.797 12.1945 348.899 12.0329 349.018 11.9139C349.358 11.5568 349.792 11.1997 350.319 10.8425C350.864 10.4854 351.493 10.1113 352.207 9.72014C352.938 9.329 353.755 8.91235 354.656 8.4702C355.574 8.01104 356.578 7.50936 357.666 6.96517L358.533 8.85283C357.173 9.49906 356.033 10.0518 355.115 10.5109C354.214 10.9531 353.448 11.3527 352.819 11.7098C352.19 12.05 351.637 12.3731 351.161 12.6792C350.685 12.9853 350.2 13.3254 349.707 13.6995L350.09 12.7302C351.161 13.5805 352.105 14.3798 352.921 15.128C353.755 15.8763 354.452 16.5991 355.013 17.2963C355.574 17.9765 355.999 18.6483 356.288 19.3115C356.578 19.9747 356.722 20.6465 356.722 21.3267C356.722 21.7008 356.654 22.109 356.518 22.5511C356.382 22.9933 356.093 23.4099 355.651 23.8011C355.209 24.1922 354.545 24.5153 353.661 24.7704C352.777 25.0085 351.586 25.1275 350.09 25.1275H347.768ZM369.37 23.0358C370.221 23.0358 370.892 22.9508 371.386 22.7807C371.896 22.6107 372.261 22.3641 372.482 22.041C372.72 21.7008 372.84 21.3097 372.84 20.8675C372.84 20.5274 372.746 20.1193 372.559 19.6431C372.389 19.167 372.151 18.6398 371.845 18.0616C371.539 17.4664 371.181 16.8456 370.773 16.1994C370.382 15.5362 369.957 14.8644 369.498 14.1842L371.258 13.0363C371.921 14.0397 372.499 14.992 372.993 15.8933C373.486 16.7776 373.902 17.6109 374.243 18.3932C374.583 19.1584 374.855 19.8812 375.059 20.5614C375.297 21.3097 375.56 21.8624 375.85 22.2195C376.156 22.5766 376.47 22.8062 376.793 22.9083C377.117 22.9933 377.414 23.0358 377.686 23.0358C378.043 23.0358 378.307 23.1378 378.477 23.3419C378.647 23.529 378.732 23.7586 378.732 24.0307C378.732 24.3028 378.613 24.5578 378.375 24.7959C378.137 25.017 377.831 25.1275 377.457 25.1275C376.895 25.1275 376.343 25.0255 375.799 24.8214C375.271 24.6004 374.812 24.2517 374.421 23.7756C374.03 23.2824 373.758 22.6277 373.605 21.8114L374.625 20.9951C374.625 21.6753 374.481 22.3386 374.192 22.9848C373.902 23.614 373.375 24.1327 372.61 24.5408C371.862 24.949 370.782 25.1531 369.37 25.1531C368.758 25.1531 368.163 25.102 367.585 25C367.023 24.898 366.505 24.7534 366.029 24.5663C365.552 24.3623 365.136 24.1242 364.779 23.8521L365.799 22.092C366.139 22.3131 366.615 22.5256 367.228 22.7297C367.84 22.9338 368.554 23.0358 369.37 23.0358ZM377.462 25.1275L377.692 23.0358C378.661 23.0358 379.342 22.9423 379.733 22.7552C380.124 22.5681 380.345 22.2365 380.396 21.7604C380.464 21.2842 380.481 20.621 380.447 19.7707L379.962 6.7866H382.029L382.539 19.5411C382.573 20.4424 382.539 21.2417 382.437 21.9389C382.352 22.6362 382.131 23.2229 381.773 23.699C381.433 24.1752 380.915 24.5323 380.217 24.7704C379.537 25.0085 378.619 25.1275 377.462 25.1275ZM385.568 30.8671L385.109 28.7753C386.13 28.6393 387.065 28.4437 387.915 28.1886C388.782 27.9505 389.522 27.6019 390.134 27.1428C390.764 26.6836 391.248 26.0799 391.588 25.3316C391.929 24.5834 392.099 23.648 392.099 22.5256C392.099 21.3692 391.886 20.4084 391.461 19.6431C391.036 18.8779 390.483 18.4952 389.803 18.4952C389.446 18.4952 389.114 18.6313 388.808 18.9034C388.502 19.1755 388.247 19.5411 388.043 20.0002C387.856 20.4594 387.762 20.9611 387.762 21.5053C387.762 21.8114 387.83 22.0665 387.966 22.2705C388.102 22.4576 388.298 22.6107 388.553 22.7297C388.825 22.8317 389.165 22.9083 389.573 22.9593C389.981 23.0103 390.458 23.0358 391.002 23.0358H396.384C396.741 23.0358 396.996 23.1378 397.149 23.3419C397.319 23.529 397.404 23.7586 397.404 24.0307C397.404 24.3028 397.285 24.5578 397.047 24.7959C396.809 25.017 396.503 25.1275 396.129 25.1275H390.032C389.267 25.1275 388.553 25.017 387.89 24.7959C387.243 24.5749 386.716 24.2347 386.308 23.7756C385.917 23.2994 385.721 22.6787 385.721 21.9134C385.721 21.1992 385.832 20.5189 386.053 19.8727C386.274 19.2095 386.572 18.6228 386.946 18.1126C387.337 17.5854 387.788 17.1688 388.298 16.8626C388.825 16.5565 389.395 16.4035 390.007 16.4035C390.789 16.4035 391.486 16.6331 392.099 17.0922C392.711 17.5514 393.195 18.2486 393.553 19.184C393.91 20.1023 394.088 21.2672 394.088 22.6787C394.088 24.2602 393.765 25.6207 393.119 26.7601C392.49 27.9165 391.537 28.8348 390.262 29.5151C389.004 30.1953 387.439 30.646 385.568 30.8671ZM396.121 25.1275L396.35 23.0358C397.235 23.0358 398.102 22.9678 398.952 22.8317C399.803 22.6957 400.636 22.5001 401.452 22.245C402.269 21.9899 403.051 21.6838 403.799 21.3267C404.564 20.9526 405.287 20.5274 405.967 20.0513C405.525 19.6601 405.015 19.32 404.437 19.0309C403.859 18.7418 403.221 18.5207 402.524 18.3677C401.843 18.1976 401.121 18.1126 400.355 18.1126C400.083 18.1126 399.828 18.1211 399.59 18.1381C399.352 18.1551 399.114 18.1891 398.876 18.2401C398.638 18.2741 398.366 18.3252 398.06 18.3932L397.651 16.4545C398.111 16.3185 398.57 16.2164 399.029 16.1484C399.488 16.0634 399.93 16.0208 400.355 16.0208C401.24 16.0208 402.039 16.1314 402.753 16.3525C403.467 16.5565 404.114 16.8116 404.692 17.1177C405.287 17.4238 405.84 17.7299 406.35 18.0361C406.877 18.3422 407.387 18.6058 407.88 18.8268C408.374 19.0309 408.884 19.1329 409.411 19.1329H409.947L410.125 20.9696C409.394 20.9696 408.722 21.0716 408.11 21.2757C407.498 21.4798 406.894 21.7434 406.299 22.0665C405.721 22.3726 405.108 22.7042 404.462 23.0613C403.816 23.4014 403.102 23.7331 402.32 24.0562C401.537 24.3623 400.636 24.6174 399.616 24.8214C398.612 25.0255 397.447 25.1275 396.121 25.1275ZM403.238 29.7447C402.881 29.7447 402.575 29.6171 402.32 29.362C402.081 29.1239 401.962 28.8348 401.962 28.4947C401.962 28.1546 402.081 27.857 402.32 27.6019C402.575 27.3468 402.881 27.2193 403.238 27.2193C403.578 27.2193 403.867 27.3468 404.105 27.6019C404.36 27.857 404.488 28.1546 404.488 28.4947C404.488 28.8348 404.36 29.1239 404.105 29.362C403.867 29.6171 403.578 29.7447 403.238 29.7447Z" fill="white"/>
<defs>
<radialGradient id="paint0_radial_50_535" cx="0" cy="0" r="1" gradientUnits="userSpaceOnUse" gradientTransform="translate(212.301 55.0039) rotate(98.7291) scale(44.816 292.549)">
<stop stop-color="#FFE1B5"/>
<stop offset="1" stop-color="#CE9744"/>
</radialGradient>
</defs>
</svg>
