<svg width="40" height="40" viewBox="0 0 40 40" fill="none" xmlns="http://www.w3.org/2000/svg">
<path d="M9.65131 27.5536H7.74914V14.9441L3.93457 16.3451V14.6271L9.35474 12.5919H9.65131V27.5536Z" fill="white"/>
<path d="M24.2244 16.5497C24.2244 17.2928 24.0267 17.9541 23.6312 18.5337C23.2426 19.1132 22.7142 19.5666 22.0461 19.8938C22.8233 20.2279 23.4369 20.7154 23.8869 21.3562C24.3437 21.9971 24.5721 22.7232 24.5721 23.5345C24.5721 24.8231 24.1358 25.8492 23.2631 26.6128C22.3972 27.3764 21.2552 27.7582 19.8371 27.7582C18.4054 27.7582 17.2566 27.3764 16.3907 26.6128C15.5317 25.8424 15.1022 24.8163 15.1022 23.5345C15.1022 22.73 15.3203 22.0039 15.7567 21.3562C16.1998 20.7085 16.81 20.2177 17.5872 19.8836C16.9259 19.5563 16.4044 19.1029 16.0226 18.5234C15.6408 17.9439 15.4499 17.286 15.4499 16.5497C15.4499 15.2952 15.8521 14.2998 16.6566 13.5635C17.4611 12.8271 18.5213 12.459 19.8371 12.459C21.1462 12.459 22.2029 12.8271 23.0074 13.5635C23.8187 14.2998 24.2244 15.2952 24.2244 16.5497ZM22.6802 23.4936C22.6802 22.6618 22.4143 21.9835 21.8825 21.4585C21.3575 20.9335 20.6689 20.671 19.8167 20.671C18.9644 20.671 18.2793 20.9301 17.7611 21.4483C17.2498 21.9664 16.9941 22.6482 16.9941 23.4936C16.9941 24.339 17.243 25.0038 17.7407 25.4878C18.2452 25.9719 18.944 26.2139 19.8371 26.2139C20.7234 26.2139 21.4189 25.9719 21.9234 25.4878C22.4279 24.997 22.6802 24.3322 22.6802 23.4936ZM19.8371 14.0134C19.094 14.0134 18.4906 14.2453 18.027 14.7089C17.5702 15.1657 17.3418 15.7895 17.3418 16.5804C17.3418 17.3371 17.5668 17.9507 18.0168 18.4212C18.4736 18.8848 19.0804 19.1166 19.8371 19.1166C20.5939 19.1166 21.1973 18.8848 21.6473 18.4212C22.1041 17.9507 22.3325 17.3371 22.3325 16.5804C22.3325 15.8236 22.0972 15.2066 21.6268 14.7293C21.1564 14.2521 20.5598 14.0134 19.8371 14.0134Z" fill="white"/>
<path d="M32.5694 19.5666H36.7215V21.3562H32.5694V26.0605H30.6672V21.3562H26.5152V19.5666H30.6672V15.2202H32.5694V19.5666Z" fill="white"/>
<path fill-rule="evenodd" clip-rule="evenodd" d="M20 38.7576C30.3595 38.7576 38.7576 30.3595 38.7576 20C38.7576 9.64048 30.3595 1.24242 20 1.24242C9.64048 1.24242 1.24242 9.64048 1.24242 20C1.24242 30.3595 9.64048 38.7576 20 38.7576ZM20 40C31.0457 40 40 31.0457 40 20C40 8.9543 31.0457 0 20 0C8.9543 0 0 8.9543 0 20C0 31.0457 8.9543 40 20 40Z" fill="white"/>
</svg>
