<svg width="365" height="40" viewBox="0 0 365 40" fill="none" xmlns="http://www.w3.org/2000/svg">
<path d="M16.9891 1.09855H0.244507V8.90514H8.95621V39.0001H16.9891V1.09855Z" fill="#06DCFF"/>
<path d="M22.5329 24.4052C22.5329 33.5129 29.0384 39.8487 37.7501 39.8487C46.4618 39.8487 53.3067 33.626 53.3067 24.4052V15.6369C53.3067 6.41608 46.5184 0.25 37.8632 0.25C29.1515 0.25 22.5329 6.47265 22.5329 15.6935V24.4052ZM30.5658 15.6935C30.5658 10.9982 33.6771 8.22631 37.8632 8.22631C42.106 8.22631 45.2173 11.0548 45.2173 15.6369V24.4052C45.2173 29.0439 41.9928 31.8158 37.7501 31.8158C33.6205 31.8158 30.5658 29.1005 30.5658 24.4052V15.6935Z" fill="#06DCFF"/>
<path d="M57.7784 24.4052C57.7784 33.5129 64.2839 39.8487 72.9956 39.8487C81.7073 39.8487 88.5522 33.626 88.5522 24.4052V15.6369C88.5522 6.41608 81.7638 0.25 73.1087 0.25C64.397 0.25 57.7784 6.47265 57.7784 15.6935V24.4052ZM65.8112 15.6935C65.8112 10.9982 68.9226 8.22631 73.1087 8.22631C77.3514 8.22631 80.4627 11.0548 80.4627 15.6369V24.4052C80.4627 29.0439 77.2383 31.8158 72.9956 31.8158C68.866 31.8158 65.8112 29.1005 65.8112 24.4052V15.6935Z" fill="#06DCFF"/>
<path d="M105.454 24.4052C105.454 33.5129 111.959 39.8487 120.671 39.8487C129.383 39.8487 136.227 33.626 136.227 24.4052V15.6369C136.227 6.41608 129.439 0.25 120.784 0.25C112.072 0.25 105.454 6.47265 105.454 15.6935V24.4052ZM113.487 15.6935C113.487 10.9982 116.598 8.22631 120.784 8.22631C125.027 8.22631 128.138 11.0548 128.138 15.6369V24.4052C128.138 29.0439 124.914 31.8158 120.671 31.8158C116.541 31.8158 113.487 29.1005 113.487 24.4052V15.6935Z" fill="#06DCFF"/>
<path d="M140.699 24.4052C140.699 33.5129 147.205 39.8487 155.916 39.8487C164.628 39.8487 171.473 33.626 171.473 24.4052V15.6369C171.473 6.41608 164.685 0.25 156.029 0.25C147.318 0.25 140.699 6.47265 140.699 15.6935V24.4052ZM148.732 15.6935C148.732 10.9982 151.843 8.22631 156.029 8.22631C160.272 8.22631 163.383 11.0548 163.383 15.6369V24.4052C163.383 29.0439 160.159 31.8158 155.916 31.8158C151.787 31.8158 148.732 29.1005 148.732 24.4052V15.6935Z" fill="#06DCFF"/>
<path d="M175.945 24.4052C175.945 33.5129 182.45 39.8487 191.162 39.8487C199.873 39.8487 206.718 33.626 206.718 24.4052V15.6369C206.718 6.41608 199.93 0.25 191.275 0.25C182.563 0.25 175.945 6.47265 175.945 15.6935V24.4052ZM183.977 15.6935C183.977 10.9982 187.089 8.22631 191.275 8.22631C195.518 8.22631 198.629 11.0548 198.629 15.6369V24.4052C198.629 29.0439 195.404 31.8158 191.162 31.8158C187.032 31.8158 183.977 29.1005 183.977 24.4052V15.6935Z" fill="#06DCFF"/>
<path d="M246.787 23.3869C262.796 23.3869 262.739 1.09855 246.787 1.09855H230.438V16.4289H225.63V23.3869H230.438V26.4417H225.63V33.3997H230.438V39.0001H238.471V33.3997H253.292V26.4417H238.471V23.3869H246.787ZM246.165 8.90514C251.822 8.90514 251.765 16.4289 246.165 16.4289H238.471V8.90514H246.165Z" fill="#06DCFF"/>
<path d="M270.552 16.0003H274.795V10.4947H281.067V16.0003H285.31V1.30501H281.067V6.81056H274.795V1.30501H270.552V16.0003Z" fill="white"/>
<path d="M295.664 16.2487C300.093 16.2487 303.55 13.2268 303.55 8.65265C303.55 4.01639 300.093 1.05664 295.664 1.05664C291.235 1.05664 287.778 4.01639 287.778 8.65265C287.778 13.2268 291.214 16.2487 295.664 16.2487ZM295.664 12.4817C293.429 12.4817 292.084 10.8052 292.084 8.65265C292.084 6.5001 293.45 4.8236 295.664 4.8236C297.9 4.8236 299.245 6.5001 299.245 8.65265C299.245 10.8052 297.9 12.4817 295.664 12.4817Z" fill="white"/>
<path d="M306.005 16.0003H315.236C318.651 16.0003 320.431 14.3445 320.431 11.8194C320.431 9.83241 319.313 8.67334 318.072 8.218C319.065 7.78335 320.038 6.81056 320.038 5.29964C320.038 2.94012 318.32 1.30501 315.112 1.30501H306.005V16.0003ZM314.284 4.61662C315.153 4.61662 315.712 4.92708 315.712 5.71359C315.712 6.5001 315.153 6.81056 314.284 6.81056H310.165V4.61662H314.284ZM314.346 10.1222C315.464 10.1222 316.085 10.5154 316.085 11.4054C316.085 12.2747 315.464 12.6887 314.346 12.6887H310.165V10.1222H314.346Z" fill="white"/>
<path d="M331.555 5.6101H327.084V1.30501H322.862V16.0003H331.555C335.074 16.0003 337.226 14.2617 337.226 10.8052C337.226 7.3487 335.074 5.6101 331.555 5.6101ZM338.572 16.0003H342.815V1.30501H338.572V16.0003ZM330.996 9.25288C332.279 9.25288 332.88 9.83241 332.88 10.8052C332.88 11.8608 332.279 12.3575 330.996 12.3575H327.084V9.25288H330.996Z" fill="white"/>
<path d="M345.925 16.0003H349.816V6.04475L353.417 16.0003H356.232L359.895 5.96196V16.0003H364.035V1.30501H358.157L355.114 9.45985L352.072 1.30501H345.925V16.0003Z" fill="white"/>
<path d="M271.27 36.6255H274.526L279.497 29.86V36.6255H282.752V25.3498H279.497L274.526 32.147V25.3498H271.27V36.6255Z" fill="white"/>
<path d="M285.135 36.6255H288.391V28.1449H295.283V25.3498H285.135V36.6255Z" fill="white"/>
<path d="M296.953 36.6255H300.193V33.0045H303.877C306.482 33.0045 308.07 31.6864 308.07 29.1771C308.07 26.652 306.482 25.3498 303.877 25.3498H296.953V36.6255ZM303.48 28.1449C304.338 28.1449 304.735 28.4943 304.735 29.1771C304.735 29.8283 304.322 30.2094 303.48 30.2094H300.193V28.1449H303.48Z" fill="white"/>
<path d="M315.431 36.8161C318.829 36.8161 321.481 34.4974 321.481 30.9876C321.481 27.4302 318.829 25.1592 315.431 25.1592C312.032 25.1592 309.38 27.4302 309.38 30.9876C309.38 34.4974 312.016 36.8161 315.431 36.8161ZM315.431 33.9257C313.716 33.9257 312.683 32.6393 312.683 30.9876C312.683 29.336 313.731 28.0496 315.431 28.0496C317.146 28.0496 318.178 29.336 318.178 30.9876C318.178 32.6393 317.146 33.9257 315.431 33.9257Z" fill="white"/>
<path d="M323.365 36.6255H326.621V31.7023L331.131 36.6255H335.53L330.115 30.7335L335.292 25.3498H331.131L326.621 30.0506V25.3498H323.365V36.6255Z" fill="white"/>
<path d="M345.123 36.6255H348.633L343.853 25.3498H340.343L335.531 36.6255H338.834L339.486 35.0373H344.472L345.123 36.6255ZM340.597 32.3693L341.979 29.0025L343.361 32.3693H340.597Z" fill="white"/>
<path d="M349.979 36.6255H352.964V28.9866L355.728 36.6255H357.888L360.699 28.923V36.6255H363.875V25.3498H359.365L357.03 31.607L354.695 25.3498H349.979V36.6255Z" fill="white"/>
<path d="M264.336 3.99996L265.536 3.39996L265.056 2.55996L263.928 3.30396L264.012 1.95996H263.052L263.136 3.30396L262.02 2.57196L261.528 3.39996L262.728 3.99996L261.528 4.59996L262.008 5.43996L263.136 4.69596L263.052 6.03996H264.012L263.928 4.69596L265.056 5.42796L265.548 4.59996L264.336 3.99996Z" fill="#06DCFF"/>
</svg>
