<svg width="105" height="40" viewBox="0 0 105 40" fill="none" xmlns="http://www.w3.org/2000/svg">
<path d="M3.97101 15.2674V1.22294H17.877V15.2674H13.8219V4.74395H8.0261V15.2674H3.97101Z" fill="white"/>
<path d="M27.7584 15.5048C25.5956 15.5048 23.7956 14.8322 22.3582 13.4871C20.9339 12.142 20.2218 10.3947 20.2218 8.24518C20.2218 6.06927 20.9339 4.31536 22.3582 2.98345C23.7956 1.65153 25.5956 0.985572 27.7584 0.985572C29.9211 0.985572 31.7145 1.65153 33.1388 2.98345C34.5762 4.31536 35.2949 6.06927 35.2949 8.24518C35.2949 10.3947 34.5762 12.142 33.1388 13.4871C31.7014 14.8322 29.9079 15.5048 27.7584 15.5048ZM25.266 10.876C25.8858 11.5618 26.7166 11.9046 27.7584 11.9046C28.8002 11.9046 29.631 11.5618 30.2508 10.876C30.8706 10.1771 31.1805 9.30016 31.1805 8.24518C31.1805 7.19019 30.8706 6.31983 30.2508 5.63409C29.631 4.93517 28.8002 4.5857 27.7584 4.5857C26.7166 4.5857 25.8858 4.93517 25.266 5.63409C24.6462 6.31983 24.3363 7.19019 24.3363 8.24518C24.3363 9.30016 24.6462 10.1771 25.266 10.876Z" fill="white"/>
<path d="M42.3385 9.41225C42.233 10.4936 42.0747 11.3838 41.8637 12.0827C41.6527 12.7816 41.3362 13.4014 40.9142 13.9421C40.5054 14.4828 39.9581 14.8718 39.2724 15.1092C38.5867 15.3465 37.7229 15.4652 36.6811 15.4652H36.3646V11.4101H36.6613C37.3207 11.4101 37.7822 11.2453 38.046 10.9156C38.3097 10.5727 38.4878 9.97931 38.5801 9.13532L39.4109 1.22294H51.141V15.2674H47.0859V4.74395H42.833L42.3385 9.41225Z" fill="white"/>
<path d="M60.5876 15.2674H56.1962L59.0249 10.5793L52.8137 1.22294H57.66L61.3195 6.76161L64.6625 1.22294H69.0538L60.5876 15.2674Z" fill="white"/>
<path d="M79.7785 15.2674V10.5595C78.4994 10.731 77.2993 10.8167 76.1784 10.8167C74.1871 10.8167 72.6838 10.3815 71.6683 9.51116C70.6529 8.62761 70.1452 7.1836 70.1452 5.17913V1.22294H74.2003V5.17913C74.2003 5.93081 74.3915 6.47149 74.7739 6.80117C75.1564 7.13085 75.7498 7.29569 76.5542 7.29569C77.0685 7.29569 77.596 7.27591 78.1367 7.23635C78.6774 7.1836 79.0862 7.13744 79.3631 7.09788L79.7785 7.03854V1.22294H83.8336V15.2674H79.7785Z" fill="white"/>
<path d="M86.8037 15.2674V1.22294H90.8588V9.68918L97.0502 1.22294H101.105V15.2674H97.0502V6.84073L90.8588 15.2674H86.8037Z" fill="white"/>
<path d="M7.63976 39.2674H3.68357V29.5154L0.28125 31.4144V27.7549L4.67262 25.1636H7.63976V39.2674Z" fill="white"/>
<path d="M12.0381 26.39C13.0403 25.4273 14.4184 24.946 16.1723 24.946C17.9262 24.946 19.3043 25.4273 20.3065 26.39C21.3087 27.3395 21.8099 28.6319 21.8099 30.2671V34.2233C21.8099 35.8585 21.3087 37.1574 20.3065 38.1201C19.3043 39.0696 17.9262 39.5443 16.1723 39.5443C14.4184 39.5443 13.0403 39.0696 12.0381 38.1201C11.0358 37.1574 10.5347 35.8585 10.5347 34.2233V30.2671C10.5347 28.6319 11.0358 27.3395 12.0381 26.39ZM14.9063 35.4695C15.1964 35.8123 15.6184 35.9838 16.1723 35.9838C16.7262 35.9838 17.1416 35.8123 17.4185 35.4695C17.7086 35.1266 17.8537 34.6716 17.8537 34.1046V30.3858C17.8537 29.8187 17.7086 29.3638 17.4185 29.0209C17.1416 28.678 16.7262 28.5066 16.1723 28.5066C15.6184 28.5066 15.1964 28.678 14.9063 29.0209C14.6294 29.3638 14.4909 29.8187 14.4909 30.3858V34.1046C14.4909 34.6716 14.6294 35.1266 14.9063 35.4695Z" fill="white"/>
<path d="M25.9272 26.39C26.9295 25.4273 28.3075 24.946 30.0614 24.946C31.8154 24.946 33.1934 25.4273 34.1957 26.39C35.1979 27.3395 35.699 28.6319 35.699 30.2671V34.2233C35.699 35.8585 35.1979 37.1574 34.1957 38.1201C33.1934 39.0696 31.8154 39.5443 30.0614 39.5443C28.3075 39.5443 26.9295 39.0696 25.9272 38.1201C24.925 37.1574 24.4239 35.8585 24.4239 34.2233V30.2671C24.4239 28.6319 24.925 27.3395 25.9272 26.39ZM28.7955 35.4695C29.0856 35.8123 29.5076 35.9838 30.0614 35.9838C30.6153 35.9838 31.0307 35.8123 31.3076 35.4695C31.5978 35.1266 31.7428 34.6716 31.7428 34.1046V30.3858C31.7428 29.8187 31.5978 29.3638 31.3076 29.0209C31.0307 28.678 30.6153 28.5066 30.0614 28.5066C29.5076 28.5066 29.0856 28.678 28.7955 29.0209C28.5185 29.3638 28.3801 29.8187 28.3801 30.3858V34.1046C28.3801 34.6716 28.5185 35.1266 28.7955 35.4695Z" fill="white"/>
<path d="M44.665 26.39C45.6673 25.4273 47.0453 24.946 48.7992 24.946C50.5532 24.946 51.9312 25.4273 52.9335 26.39C53.9357 27.3395 54.4368 28.6319 54.4368 30.2671V34.2233C54.4368 35.8585 53.9357 37.1574 52.9335 38.1201C51.9312 39.0696 50.5532 39.5443 48.7992 39.5443C47.0453 39.5443 45.6673 39.0696 44.665 38.1201C43.6628 37.1574 43.1617 35.8585 43.1617 34.2233V30.2671C43.1617 28.6319 43.6628 27.3395 44.665 26.39ZM47.5333 35.4695C47.8234 35.8123 48.2454 35.9838 48.7992 35.9838C49.3531 35.9838 49.7685 35.8123 50.0454 35.4695C50.3356 35.1266 50.4806 34.6716 50.4806 34.1046V30.3858C50.4806 29.8187 50.3356 29.3638 50.0454 29.0209C49.7685 28.678 49.3531 28.5066 48.7992 28.5066C48.2454 28.5066 47.8234 28.678 47.5333 29.0209C47.2563 29.3638 47.1179 29.8187 47.1179 30.3858V34.1046C47.1179 34.6716 47.2563 35.1266 47.5333 35.4695Z" fill="white"/>
<path d="M58.5542 26.39C59.5564 25.4273 60.9345 24.946 62.6884 24.946C64.4423 24.946 65.8204 25.4273 66.8226 26.39C67.8249 27.3395 68.326 28.6319 68.326 30.2671V34.2233C68.326 35.8585 67.8249 37.1574 66.8226 38.1201C65.8204 39.0696 64.4423 39.5443 62.6884 39.5443C60.9345 39.5443 59.5564 39.0696 58.5542 38.1201C57.5519 37.1574 57.0508 35.8585 57.0508 34.2233V30.2671C57.0508 28.6319 57.5519 27.3395 58.5542 26.39ZM61.4224 35.4695C61.7125 35.8123 62.1345 35.9838 62.6884 35.9838C63.2423 35.9838 63.6577 35.8123 63.9346 35.4695C64.2247 35.1266 64.3698 34.6716 64.3698 34.1046V30.3858C64.3698 29.8187 64.2247 29.3638 63.9346 29.0209C63.6577 28.678 63.2423 28.5066 62.6884 28.5066C62.1345 28.5066 61.7125 28.678 61.4224 29.0209C61.1455 29.3638 61.007 29.8187 61.007 30.3858V34.1046C61.007 34.6716 61.1455 35.1266 61.4224 35.4695Z" fill="white"/>
<path d="M72.4433 26.39C73.4456 25.4273 74.8236 24.946 76.5776 24.946C78.3315 24.946 79.7095 25.4273 80.7118 26.39C81.714 27.3395 82.2151 28.6319 82.2151 30.2671V34.2233C82.2151 35.8585 81.714 37.1574 80.7118 38.1201C79.7095 39.0696 78.3315 39.5443 76.5776 39.5443C74.8236 39.5443 73.4456 39.0696 72.4433 38.1201C71.4411 37.1574 70.94 35.8585 70.94 34.2233V30.2671C70.94 28.6319 71.4411 27.3395 72.4433 26.39ZM75.3116 35.4695C75.6017 35.8123 76.0237 35.9838 76.5776 35.9838C77.1314 35.9838 77.5468 35.8123 77.8238 35.4695C78.1139 35.1266 78.2589 34.6716 78.2589 34.1046V30.3858C78.2589 29.8187 78.1139 29.3638 77.8238 29.0209C77.5468 28.678 77.1314 28.5066 76.5776 28.5066C76.0237 28.5066 75.6017 28.678 75.3116 29.0209C75.0346 29.3638 74.8962 29.8187 74.8962 30.3858V34.1046C74.8962 34.6716 75.0346 35.1266 75.3116 35.4695Z" fill="white"/>
<path d="M88.9657 37.2695V34.8167H91.0427V33.9463H88.9657V31.4935H91.0427V25.2229H99.4694C101.091 25.2229 102.364 25.612 103.287 26.39C104.223 27.1549 104.692 28.2231 104.692 29.5945C104.692 31.0583 104.237 32.1529 103.327 32.8782C102.417 33.6035 101.131 33.9661 99.4694 33.9661H95.078V34.8167H102.08V37.2695H95.078V39.2674H91.0427V37.2695H88.9657ZM98.9748 28.7044H95.078V31.2759H98.9748C100.017 31.2759 100.538 30.8473 100.538 29.9901C100.538 29.133 100.017 28.7044 98.9748 28.7044Z" fill="white"/>
</svg>
