<?xml version="1.0" standalone="no"?>
<!DOCTYPE svg PUBLIC "-//W3C//DTD SVG 20010904//EN"
 "http://www.w3.org/TR/2001/REC-SVG-20010904/DTD/svg10.dtd">
<svg version="1.0" xmlns="http://www.w3.org/2000/svg"
 width="180.000000pt" height="180.000000pt" viewBox="0 0 180.000000 180.000000"
 preserveAspectRatio="xMidYMid meet">
<metadata>
Created by potrace 1.14, written by Peter Selinger 2001-2017
</metadata>
<g transform="translate(0.000000,180.000000) scale(0.100000,-0.100000)"
fill="#000000" stroke="none">
<path d="M1072 1788 c-5 -7 -17 -30 -26 -51 -16 -40 -16 -39 -16 -63 0 -13 -3
-14 -13 -5 -8 6 -17 7 -23 1 -5 -5 -22 2 -43 20 -37 33 -46 37 -36 18 4 -7 1
-6 -7 2 -17 19 -30 21 -166 23 -89 2 -111 -1 -107 -11 3 -8 0 -10 -8 -5 -18
12 -87 11 -87 -2 0 -7 -3 -7 -8 0 -4 6 -18 10 -32 10 -14 -1 -38 3 -55 8 -44
13 -85 16 -79 6 3 -5 -2 -9 -11 -9 -36 0 -36 -142 1 -198 9 -13 11 -21 4 -17
-7 4 -4 -4 5 -19 10 -14 14 -26 10 -26 -5 0 2 -8 13 -19 12 -10 22 -25 22 -34
0 -9 10 -23 22 -31 12 -9 18 -16 13 -16 -6 0 -2 -7 8 -14 17 -13 32 -86 18
-86 -3 0 -6 -26 -6 -58 0 -53 -2 -57 -25 -60 -15 -2 -34 6 -48 18 -12 11 -22
18 -22 14 0 -4 -8 1 -19 10 -10 9 -28 18 -40 19 -11 1 -21 4 -21 8 0 4 -10 7
-22 8 -13 0 -42 2 -65 4 -26 2 -43 -1 -43 -7 0 -6 -5 -4 -10 4 -6 10 -10 11
-10 3 0 -7 -7 -13 -16 -13 -21 0 -84 -39 -84 -52 0 -5 -7 -16 -15 -25 -8 -8
-13 -19 -10 -24 4 -5 2 -9 -3 -9 -6 0 -10 -31 -10 -70 0 -38 3 -68 7 -65 4 2
7 -9 6 -25 -1 -17 2 -30 8 -30 5 0 7 -7 3 -15 -3 -8 -1 -15 4 -15 6 0 9 -3 8
-7 -3 -14 14 -63 22 -63 4 0 11 -7 14 -16 4 -10 2 -13 -7 -9 -6 4 -2 -2 10
-13 12 -11 19 -22 16 -26 -4 -3 -2 -6 4 -6 6 0 9 -13 8 -30 -1 -16 2 -30 7
-30 5 0 6 -5 3 -10 -3 -6 -2 -10 3 -10 5 0 9 -8 9 -17 0 -27 14 -63 24 -63 5
0 6 -7 3 -15 -4 -8 -2 -15 4 -15 5 0 13 -12 16 -26 4 -14 17 -36 30 -49 13
-13 21 -26 18 -29 -3 -3 1 -6 9 -6 8 0 23 -14 34 -30 11 -16 24 -30 28 -30 4
0 17 -9 29 -20 12 -11 28 -20 35 -20 7 0 13 -4 13 -10 0 -5 8 -10 18 -10 10 0
23 -5 29 -11 7 -7 22 -13 35 -15 13 -2 39 -6 58 -10 19 -4 63 -7 98 -7 46 0
62 -4 62 -14 0 -8 4 -12 8 -9 5 3 9 0 10 -7 0 -7 3 -23 7 -37 3 -14 8 -35 11
-48 2 -12 13 -38 24 -57 11 -19 17 -35 14 -35 -12 0 45 -48 64 -54 12 -4 22
-11 22 -16 0 -13 200 -5 253 10 26 8 47 18 47 22 0 4 7 5 15 2 8 -4 15 -1 15
5 0 6 3 10 8 9 12 -2 59 20 67 31 3 6 15 11 26 11 11 0 18 4 15 8 -2 4 9 14
25 21 16 7 44 27 61 44 18 18 28 25 23 17 -8 -13 -6 -13 8 -1 9 7 14 17 11 22
-5 8 9 13 29 10 4 0 7 4 7 9 0 6 15 25 33 42 17 18 32 35 32 38 0 3 10 16 23
30 12 13 22 28 22 33 0 5 9 22 21 38 11 16 17 33 14 39 -3 5 -2 10 3 10 5 0 9
6 10 13 0 6 4 26 8 42 3 17 6 47 6 68 0 21 5 37 12 37 6 0 4 5 -4 10 -13 9
-13 10 0 10 9 0 11 3 5 8 -15 11 -17 32 -4 48 6 8 7 14 2 14 -5 0 -10 7 -10
15 0 8 3 15 6 15 3 0 7 66 9 147 2 81 6 151 8 155 3 5 0 8 -5 8 -6 0 -11 5
-11 12 0 6 3 8 6 5 8 -8 63 63 64 81 0 7 5 10 10 7 6 -3 10 3 10 14 0 12 5 21
11 21 5 0 7 5 4 10 -3 6 -1 10 5 10 6 0 9 4 5 9 -3 5 -1 12 5 16 6 4 8 11 5
16 -4 5 -2 9 4 9 6 0 8 7 5 15 -4 8 -1 15 5 15 6 0 11 11 11 25 0 14 4 25 8
25 18 0 22 202 4 208 -7 2 -12 10 -12 18 0 8 -4 14 -10 14 -5 0 -10 5 -10 10
0 24 -94 100 -124 100 -8 0 -16 4 -18 10 -1 5 -18 10 -35 12 -18 1 -33 7 -33
12 0 6 -5 5 -11 -1 -9 -9 -17 -8 -33 1 -11 7 -36 12 -53 11 -18 -1 -33 1 -33
5 0 3 -18 6 -40 5 -22 -1 -40 2 -40 5 0 4 -15 6 -32 5 -18 -1 -35 1 -38 5 -3
4 -21 10 -41 13 -19 2 -45 9 -56 16 -29 15 -78 14 -91 -1z"/>
</g>
</svg>
