<svg xmlns="http://www.w3.org/2000/svg" xmlns:xlink="http://www.w3.org/1999/xlink"><symbol id="arrow-down" viewBox="0 0 17 28"><g><g transform="rotate(90 8.5 14)"><path d="M21.835 13.792a1.57 1.57 0 0 1-.463 1.138l-6.461 6.441a1.58 1.58 0 1 1-2.237-2.233l3.783-3.788H-4.12a1.57 1.57 0 0 1 0-3.14h20.613l-3.82-3.819a1.582 1.582 0 1 1 2.238-2.237l6.46 6.44c.298.297.465.7.464 1.12z"/></g></g></symbol><symbol id="arrow-top-right" viewBox="0 0 34 45"><g><g transform="rotate(-60 17 22.5)"><path d="M39.819 22.247a2.85 2.85 0 0 1-.842 2.066L27.246 36.01a2.87 2.87 0 0 1-4.063-4.055l6.871-6.878-37.366.001a2.85 2.85 0 1 1 0-5.702h37.43l-6.934-6.935a2.873 2.873 0 1 1 4.062-4.062l11.732 11.695a2.85 2.85 0 0 1 .84 2.031z"/></g></g></symbol><symbol id="benefits-1" viewBox="0 0 29 32"><g><g><g><path d="M9.948 1.933c5.19 0 8.02 1.66 8.02 2.512 0 .452-.943 1.394-3.482 1.994-2.695.661-6.347.667-9.072-.002-2.533-.598-3.476-1.54-3.476-1.992 0-.853 2.828-2.512 8.01-2.512zm4.557 10.383c-2.694.675-6.425.675-9.109-.001C2.86 11.7 1.94 10.785 1.94 10.32V7.169c.79.468 1.802.86 3.021 1.147 1.5.367 3.225.562 4.988.562 1.77 0 3.5-.195 4.99-.56 1.223-.289 2.238-.68 3.03-1.149v3.14c0 .003-.003.006-.003.01v.011c-.01.468-.932 1.375-3.46 1.986zm-7.66 6.164a14.331 14.331 0 0 1-1.45-.283c-2.521-.61-3.46-1.553-3.46-2.002V13.04c.784.466 1.788.858 2.995 1.15 1.487.376 3.223.574 5.018.574 1.791 0 3.53-.198 5.019-.571 1.21-.292 2.214-.684 3-1.15v1.4a.967.967 0 0 0 1.932 0l.002-10C19.901 1.528 14.894 0 9.947 0 5.005 0 .003 1.526.003 4.445.003 10.323 0 16.2 0 22.078c0 1.898 2.254 3.43 6.028 4.098a.968.968 0 0 0 .338-1.904c-3.055-.54-4.43-1.608-4.43-2.194V18.92c.786.468 1.791.861 3.003 1.154a16.18 16.18 0 0 0 1.643.32.968.968 0 0 0 1.09-.826.966.966 0 0 0-.826-1.088z"/></g><g><path d="M23.487 29.55c-2.695.676-6.426.678-9.11-.002-2.536-.613-3.456-1.528-3.456-1.993v-3.152c.79.468 1.803.859 3.022 1.147 1.499.367 3.224.561 4.987.561 1.77 0 3.5-.194 4.99-.56 1.224-.29 2.238-.68 3.03-1.15v3.153c0 .468-.92 1.381-3.463 1.997zM18.93 19.169c5.19 0 8.02 1.659 8.02 2.512 0 .452-.942 1.392-3.482 1.994-2.696.661-6.347.667-9.071-.002-2.532-.6-3.475-1.54-3.475-1.992-.001-.853 2.826-2.512 8.008-2.512zm0-1.933c-4.941 0-9.943 1.526-9.943 4.445v5.875c0 1.702 1.8 3.113 4.926 3.87 1.486.376 3.221.575 5.017.575 1.793 0 3.531-.199 5.02-.572 3.135-.758 4.935-2.17 4.935-3.873V21.68c-.001-2.918-5.009-4.445-9.955-4.445z"/></g></g></g></symbol><symbol id="benefits-2" viewBox="0 0 32 28"><g><g><g><path d="M1.933 9.97V7.52h28.134v2.45zm25.61-7.825a2.526 2.526 0 0 1 2.524 2.523v.918H1.933v-.918a2.526 2.526 0 0 1 2.524-2.523zM4.458.21C2 .21 0 2.21 0 4.667v15.001c0 2.457 2 4.457 4.457 4.457h12.746a.967.967 0 0 0 0-1.933H4.457a2.526 2.526 0 0 1-2.524-2.524v-7.763h28.134v1.653a.967.967 0 0 0 1.933 0v-8.89c0-2.457-2-4.457-4.456-4.457z"/></g><g><path d="M5.593 15.864h2.96a.967.967 0 0 0 0-1.933h-2.96a.966.966 0 0 0 0 1.933z"/></g><g><path d="M5.593 19.503h5.92a.967.967 0 0 0 0-1.933h-5.92a.967.967 0 0 0 0 1.933z"/></g><g><path d="M26.738 19.242l-1.73 1.395-.375-.48a.968.968 0 0 0-1.522 1.195l.98 1.25a.969.969 0 0 0 1.367.157l2.493-2.01a.967.967 0 0 0-1.213-1.507z"/></g><g><path d="M25.992 25.778a.973.973 0 0 1-.768 0c-3.567-1.548-4.038-5.63-4.075-7.315a.155.155 0 0 1 .084-.142l4.305-2.164a.15.15 0 0 1 .137-.001l4.308 2.166a.15.15 0 0 1 .083.141c-.036 1.684-.508 5.766-4.074 7.315zm4.86-9.183l-4.308-2.166a2.088 2.088 0 0 0-1.872.001l-4.306 2.164a2.095 2.095 0 0 0-1.149 1.911c.045 2.056.647 7.05 5.237 9.045a2.903 2.903 0 0 0 2.308 0c4.59-1.993 5.192-6.99 5.237-9.044a2.091 2.091 0 0 0-1.147-1.911z"/></g></g></g></symbol><symbol id="benefits-3" viewBox="0 0 32 30"><g><g><g><path d="M15.006 18.668l-7.95 3.016c-.003.004-.01.007-.024 0-.014-.003-.017-.014-.017-.017l-2.669-7.035c-.003-.004-.007-.01 0-.024.004-.014.014-.018.018-.018l7.95-3.02zm-7.964 4.756c.213 0 .428-.039.63-.115l9.578-3.632L13.322 9.33l-9.574 3.628a1.762 1.762 0 0 0-.988.93 1.765 1.765 0 0 0-.042 1.356l2.668 7.035a1.776 1.776 0 0 0 1.656 1.145z"/></g><g><path d="M4.858 20.884l-1.069.404a.475.475 0 0 1-.608-.275l-1.27-3.35a.475.475 0 0 1 .275-.61l1.064-.407zm-1.232 2.171c.26 0 .525-.045.783-.143l2.693-1.023-2.84-7.487-2.692 1.023a2.216 2.216 0 0 0-1.284 2.853l1.27 3.35a2.214 2.214 0 0 0 2.07 1.427z"/></g><g><path d="M13.806 10.603l6.287-7.901 6.617 17.44-9.947-1.742zm14.665 10.994c.275-.33.351-.79.198-1.193L21.384 1.202a1.202 1.202 0 0 0-2.067-.32l-7.487 9.415 3.66 9.644 11.846 2.077a1.192 1.192 0 0 0 1.134-.421z"/></g><g><path d="M12.693 21.402l.201.53a.762.762 0 0 1-.097.72l-.863 1.19 1.708 3.256-1.485.563-2.582-5.076zm-.87 8.173c.125 0 .25-.021.372-.066l2.787-1.058a1.053 1.053 0 0 0 .56-1.475l-1.569-2.985.23-.317a2.49 2.49 0 0 0 .316-2.359l-.817-2.153-6.555 2.487 3.736 7.348c.188.366.554.578.94.578z"/></g><g transform="rotate(69.218 29.37 9.16)"><path d="M28.497 10.808V7.506h1.739v3.302z"/></g><g transform="rotate(43.797 26.06 4.04)"><path d="M25.19 5.694V2.39h1.74v3.305z"/></g><g transform="rotate(4.64 30.285 15.18)"><path d="M28.633 16.05v-1.739h3.302v1.74z"/></g><g transform="rotate(69.218 9.1 15.125)"><path d="M8.233 17.86v-5.466h1.74v5.466z"/></g></g></g></symbol><symbol id="benefits-4" viewBox="0 0 32 32"><g><g><g><path d="M3.818 22.08a1.745 1.745 0 0 1 3.492 0 1.746 1.746 0 0 1-3.492 0zm2.904 3.65a3.84 3.84 0 0 0 2.67-3.655 3.831 3.831 0 1 0-7.664 0 3.844 3.844 0 0 0 2.67 3.655H4.17a3.836 3.836 0 0 0-3.836 3.827v1.398c0 .575.475 1.04 1.05 1.04.574 0 1.04-.47 1.04-1.04v-1.398a1.74 1.74 0 0 1 1.742-1.741h2.782a1.74 1.74 0 0 1 1.741 1.741v1.398c0 .575.47 1.04 1.04 1.04.57 0 1.05-.47 1.05-1.04v-1.398c.01-2.112-1.714-3.827-3.827-3.827z"/></g><g><path d="M24.713 22.08a1.74 1.74 0 0 1 1.741-1.742 1.74 1.74 0 1 1 0 3.479 1.738 1.738 0 0 1-1.741-1.737zm3.135 3.65h-.24a3.847 3.847 0 0 0 2.678-3.655 3.837 3.837 0 0 0-3.836-3.831 3.837 3.837 0 0 0-3.832 3.836c0 1.71 1.131 3.157 2.678 3.655h-.24a3.828 3.828 0 0 0-3.826 3.827v1.398c0 .574.47 1.04 1.04 1.04.57 0 1.04-.47 1.04-1.04v-1.403c0-.963.788-1.741 1.742-1.741h2.791c.955 0 1.742.778 1.742 1.741v1.398c0 .575.461 1.04 1.04 1.04.575 0 1.04-.47 1.04-1.04v-1.398a3.815 3.815 0 0 0-3.817-3.827z"/></g><g><path d="M14.268 3.832A1.73 1.73 0 0 1 16 2.095a1.74 1.74 0 1 1 0 3.478 1.735 1.735 0 0 1-1.732-1.741zm-2.438 9.92c.574 0 1.04-.47 1.04-1.04v-1.398c0-.964.787-1.742 1.742-1.742h2.795c.955 0 1.733.778 1.733 1.742v1.397a1.045 1.045 0 0 0 2.09 0v-1.397a3.831 3.831 0 0 0-3.827-3.827h-.236a3.84 3.84 0 0 0 2.67-3.66A3.83 3.83 0 0 0 16 0a3.828 3.828 0 0 0-3.827 3.827 3.845 3.845 0 0 0 2.67 3.66h-.231a3.825 3.825 0 0 0-3.827 3.827v1.397c.004.57.461 1.04 1.045 1.04z"/></g><g><path d="M20.18 23.636h-3.13v-7.903c0-.579-.47-1.045-1.05-1.045a1.04 1.04 0 0 0-1.036 1.045v7.903H11.83c-.584 0-1.04.47-1.04 1.045 0 .574.46 1.045 1.04 1.045h8.35c.584 0 1.05-.47 1.05-1.045s-.466-1.045-1.05-1.045z"/></g></g></g></symbol><symbol id="benefits-bg-1" viewBox="0 0 333 279"><g><g clip-path="url(#clip-d0a40be9-d032-428a-8ee6-4a202437d431)" transform="rotate(-122 300.515 41.91)"><g><path fill="none" stroke-miterlimit="20" stroke-width="2" d="M85.997 45.029v0l133.931-33.848v0l118.538 84.061v0l-49.496 122.32v0l-127.954 63.596v0L62.392 166.529v0z"/></g><g><path fill="none" stroke-miterlimit="20" stroke-width="2" d="M174.988-.78v0l101.924-176.744v0L319.12 3.706v0L514.214 15.88v0L345.06 131.524v0L328.516 278.07v0L198.453 131.524v0L35.715 57.278v0z"/></g><g><path fill="none" stroke-miterlimit="20" stroke-width="2" d="M312.85-163.495v0l133.932-33.847v0l118.537 84.06v0L387.87 72.634v0z"/></g><g transform="rotate(43 295.49 57.465)"><path fill="none" stroke-miterlimit="20" stroke-width="2" d="M73.885-7.665v0l253.428-144.653v0L517.1 43.689v0L235.759 267.248v0z"/></g><g><path fill="none" stroke-miterlimit="20" stroke-width="2" d="M270.902-116.341v0l93.84-23.715v0l83.053 58.896v0l-34.68 85.706v0l-89.65 44.558v0l-69.102-80.316v0z"/></g></g></g></symbol><symbol id="benefits-bg-2" viewBox="0 0 362 242"><g><g clip-path="url(#clip-deca8b4a-7c23-428f-9b6f-b6e19d06a2d0)" transform="rotate(145 344.35 -75.07)"><g><path fill="none" stroke-miterlimit="20" d="M233.703-31.703v0l133.932-33.848v0l118.538 84.06v0l-49.496 122.319v0l-127.955 63.596v0l-98.624-114.63v0z"/></g><g><path fill="none" stroke-miterlimit="20" d="M114.946-177.812v0L216.87-354.556v0l42.208 181.23v0l195.094 12.175v0L285.018-45.507v0l-16.545 146.545v0L138.411-45.507v0l-162.738-74.246v0z"/></g><g><path fill="none" stroke-miterlimit="20" d="M460.556-240.227v0l133.932-33.847v0l118.538 84.06v0L535.576-4.1v0z"/></g><g transform="rotate(43 443.2 -19.27)"><path fill="none" stroke-miterlimit="20" d="M221.592-84.399v0L475.02-229.052v0L664.807-33.044v0L383.466 190.514v0z"/></g></g></g></symbol><symbol id="benefits-bg-3" viewBox="0 0 302 336"><g><g clip-path="url(#clip-d8fb8348-c602-47f4-9d32-5d264928941c)" transform="rotate(58 297.23 90.94)"><g><path fill="none" stroke-miterlimit="20" stroke-width="2" d="M82.707 94.063v0l133.931-33.848v0l118.538 84.06v0l-49.496 122.32v0L157.726 330.19v0L59.102 215.56v0z"/></g><g><path fill="none" stroke-miterlimit="20" stroke-width="2" d="M171.699 48.253v0L273.623-128.49v0L315.83 52.74v0l195.093 12.175v0L341.771 180.558v0l-16.545 146.545v0L195.164 180.558v0L32.425 106.312v0z"/></g><g><path fill="none" stroke-miterlimit="20" stroke-width="2" d="M309.56-114.46v0l133.932-33.848v0l118.538 84.06v0L384.58 121.666v0z"/></g><g transform="rotate(43 292.205 106.495)"><path fill="none" stroke-miterlimit="20" stroke-width="2" d="M70.596 41.367v0l253.428-144.652v0L513.81 92.722v0L232.47 316.28v0z"/></g><g><path fill="none" stroke-miterlimit="20" stroke-width="2" d="M267.612-67.307v0l93.839-23.715v0l83.054 58.897v0l-34.68 85.703v0l-89.65 44.558v0l-69.102-80.314v0z"/></g></g></g></symbol><symbol id="benefits-bg-4" viewBox="0 0 374 234"><g><g clip-path="url(#clip-12f464be-9e03-46ed-8b47-acf3264c253e)" transform="rotate(58 297.23 -11.06)"><g><path fill="none" stroke-miterlimit="20" stroke-width="2" d="M82.707-7.937v0l133.931-33.848v0l118.538 84.06v0l-49.496 122.32v0L157.726 228.19v0L59.102 113.56v0z"/></g><g><path fill="none" stroke-miterlimit="20" stroke-width="2" d="M171.699-53.747v0L273.623-230.49v0L315.83-49.26v0l195.093 12.175v0L341.771 78.558v0l-16.545 146.545v0L195.164 78.558v0L32.425 4.312v0z"/></g><g><path fill="none" stroke-miterlimit="20" stroke-width="2" d="M309.56-216.46v0l133.932-33.848v0l118.538 84.06v0L384.58 19.666v0z"/></g><g transform="rotate(43 292.205 4.495)"><path fill="none" stroke-miterlimit="20" stroke-width="2" d="M70.596-60.633v0l253.428-144.652v0L513.81-9.278v0L232.47 214.28v0z"/></g><g><path fill="none" stroke-miterlimit="20" stroke-width="2" d="M267.612-169.307v0l93.839-23.715v0l83.054 58.897v0l-34.68 85.703v0l-89.65 44.558v0l-69.102-80.314v0z"/></g></g></g></symbol><symbol id="card-1" viewBox="0 0 32 32"><g><g><g><g/><g><g><path d="M16.917 26.962c-.302.026-.608.038-.917.038-6.071 0-11-4.929-11-11S9.929 5 16 5s11 4.929 11 11c0 4.415-2.608 8.226-6.364 9.977a1 1 0 0 0 .844 1.813C25.92 25.722 29 21.217 29 16c0-7.175-5.825-13-13-13S3 8.825 3 16s5.825 13 13 13c.364 0 .725-.015 1.083-.044a1 1 0 0 0-.166-1.994z"/></g></g><g><g><path d="M5.959 18.841c.617.397 1.374.581 2.108.78.446.122.894.226 1.196.555.494.539 1.263 1.391 1.664 2.286.176.392.307.788.154 1.144-.17.395-.651.92-1.252 1.499a11.016 11.016 0 0 1-4.582-6.781c.26.205.504.384.712.517zm-1.284-3.644A1 1 0 0 0 3 15.932V16c0 4.784 2.59 8.969 6.444 11.226a1 1 0 0 0 1.183-.128c1.107-1.018 2.006-2.035 2.292-2.704.365-.851.253-1.815-.167-2.751-.492-1.097-1.409-2.158-2.015-2.819-.462-.504-1.066-.803-1.732-1.012-.657-.207-1.396-.288-1.964-.653-.635-.408-1.63-1.289-2.366-1.962z"/></g></g><g><g><path d="M17.724 5.134zm0 0a6.21 6.21 0 0 1-.492.726c-.501.6-1.279.954-2.026 1.184-.584.18-1.492.06-2.286.089-.835.03-1.573.209-2.045.586-.519.416-.779 1.125-.866 1.957-.04.385-.052.799-.109 1.177-.027.183-.039.361-.144.478-.578.643-1.717 1.232-2.693 1.171-.346-.021-.829-.201-1.34-.431C7.306 7.938 11.313 5 16 5c.586 0 1.163.046 1.724.134zm-14.19 7.172a1 1 0 0 0 .513 1.18c1.033.514 2.189.968 2.89 1.012 1.557.097 3.385-.805 4.306-1.829.429-.477.618-1.198.689-1.979.034-.379.046-.771.11-1.115.02-.114.006-.233.082-.294.089-.07.218-.084.357-.106.281-.045.6-.05.925-.05.868 0 1.77.021 2.388-.169 1.11-.342 2.23-.923 2.974-1.816.367-.44.889-1.32 1.372-2.217a.999.999 0 0 0-.61-1.437A12.995 12.995 0 0 0 16 3C10.108 3 5.126 6.929 3.534 12.306z"/></g></g><g><g><path d="M24.526 22.948c-.584-.273-1.227-.518-1.773-.751a8.518 8.518 0 0 1-.668-.33c-.13-.867.14-1.964.551-2.821.243-.506.506-.95.827-1.101.068-.032.156-.02.252-.012.223.016.47.074.73.155.701.218 1.471.595 2.127.96a10.965 10.965 0 0 1-2.046 3.9zm-.282 2.105a1 1 0 0 0 1.247-.172 12.973 12.973 0 0 0 3.212-6.106.999.999 0 0 0-.459-1.068c-1.022-.62-2.575-1.427-3.792-1.683-.731-.154-1.376-.108-1.844.113-.632.298-1.299 1.048-1.776 2.046-.636 1.328-.957 3.07-.653 4.352.087.368.439.83 1.108 1.184.76.402 2.08.804 2.956 1.334z"/></g></g></g></g></g></symbol><symbol id="card-2" viewBox="0 0 32 28"><g><g><g><path d="M29 26H3c-.551 0-1-.449-1-1V10.741l9.963 5.812.037.02V18a1 1 0 0 0 1 1v2a1 1 0 0 0 .553.894l2 1a1 1 0 0 0 .894 0l2-1A1 1 0 0 0 19 21v-2a1 1 0 0 0 1-1v-1.428l.054-.029L30 10.741V25c0 .551-.449 1-1 1zm-14-7h2v1.382l-1 .5-1-.5zm3-2h-4v-2h4zM3 6h26c.551 0 1 .449 1 1v1.43c-.02.01-.04.018-.058.03L20 14.259V14a1 1 0 0 0-1-1h-6a1 1 0 0 0-1 1v.259L2 8.426V7c0-.551.449-1 1-1zm9-3c0-.551.449-1 1-1h6c.551 0 1 .449 1 1v1h-8zm17 1h-7V3c0-1.654-1.346-3-3-3h-6c-1.654 0-3 1.346-3 3v1H3C1.346 4 0 5.346 0 7v18c0 1.654 1.346 3 3 3h26c1.654 0 3-1.346 3-3V7c0-1.654-1.346-3-3-3z"/></g></g></g></symbol><symbol id="card-3" viewBox="0 0 32 32"><g><g><g><path d="M29.701 29.703c-.373.373-1.068.522-2.001-.412L22.408 24l1.586-1.586 5.291 5.292c.947.948.738 1.676.416 1.998zm-10.055-8.467a12.098 12.098 0 0 0 1.586-1.586L22.58 21l-1.586 1.585zM7.998 14.999a1.001 1.001 0 0 1 0 2 1.001 1.001 0 0 1 0-2zm4.999-7a1.001 1.001 0 1 1-1-1c.551 0 1 .45 1 1zm4.998 7a1.001 1.001 0 1 1-1-1c.552 0 1 .449 1 1zm-5.998 7c-5.513 0-9.998-4.486-9.998-10C2 6.486 6.484 2 11.997 2c4.48 0 8.282 2.965 9.548 7.035l-3.257 3.259a2.98 2.98 0 0 0-2.122-.176l-1.713-2.399c.342-.487.543-1.08.543-1.718 0-1.655-1.345-3-3-3-1.653 0-2.998 1.345-2.998 3 0 .807.32 1.54.841 2.08l-1.471 2.943a3.003 3.003 0 0 0-3.37 2.976c0 1.654 1.346 3 3 3s3-1.346 3-3a2.99 2.99 0 0 0-.842-2.08l1.47-2.943a2.988 2.988 0 0 0 1.2-.094l1.713 2.398a2.983 2.983 0 0 0-.543 1.72c0 1.653 1.346 2.999 3 2.999a3.003 3.003 0 0 0 2.706-4.292l2.276-2.277c.01.189.016.378.016.57 0 5.513-4.485 9.999-9.997 9.999zm18.702 4.292l-8.307-8.308a12.011 12.011 0 0 0 1.369-8.337l6.231-6.232V4a1 1 0 1 0 2 0V1a1 1 0 0 0-1-1h-3a1 1 0 0 0 0 2h.586l-5.471 5.473C21.317 3.093 17.01 0 11.997 0 5.382 0 0 5.383 0 12c0 6.616 5.382 11.999 11.997 11.999 2.177 0 4.22-.584 5.982-1.602l8.307 8.308c.912.913 1.9 1.295 2.793 1.295.815 0 1.562-.41 2.085-.934 1.097-1.096 1.28-3.028-.465-4.775z"/></g></g></g></symbol><symbol id="card-4" viewBox="0 0 32 32"><g><g><g><g><path d="M16 2c3.86 0 7 3.14 7 7s-3.14 7-7 7-7-3.14-7-7 3.14-7 7-7zm0 16c4.963 0 9-4.037 9-9s-4.037-9-9-9-9 4.037-9 9 4.037 9 9 9z"/></g><g><path d="M18.586 30H6v-6c0-.895.716-1.394 1.316-1.656 1.346-.587 3.142-.412 4.003.389A1 1 0 0 0 12 23h7a1.001 1.001 0 0 1 0 2h-7a1 1 0 0 0 0 2h7c1.654 0 3-1.346 3-3 0-.643-.203-1.239-.549-1.728l4.535-2.834c1.2-.75 2.576-.861 2.96-.606l.484.323zM2 25h2v5H2zm29.995-6.098a1 1 0 0 0-.44-.734l-1.5-1c-1.324-.882-3.63-.363-5.129.574l-5.313 3.321A2.999 2.999 0 0 0 19 21h-6.64c-.709-.532-1.636-.874-2.658-.973-1.095-.106-2.225.065-3.185.484-1.234.537-2.061 1.417-2.375 2.489H1a1 1 0 0 0-1 1v7a1 1 0 0 0 1 1h18a1 1 0 0 0 .707-.293l12-12a1 1 0 0 0 .288-.805z"/></g><g><path d="M16 12c-.551 0-1-.449-1-1a1 1 0 0 0-2 0c0 1.304.836 2.415 2 2.828V14a1 1 0 1 0 2 0v-.172A3.005 3.005 0 0 0 19 11c0-1.654-1.346-3-3-3a1.001 1.001 0 0 1 0-2c.551 0 1 .449 1 1a1 1 0 0 0 2 0 3.005 3.005 0 0 0-2-2.828V4a1 1 0 0 0-2 0v.172A3.005 3.005 0 0 0 13 7c0 1.654 1.346 3 3 3a1.001 1.001 0 0 1 0 2z"/></g></g></g></g></symbol><symbol id="check-down" viewBox="0 0 24 12"><g><g><path fill="none" stroke-linecap="round" stroke-linejoin="round" stroke-miterlimit="20" stroke-width="2" d="M1 1v0l11 10v0L23 1v0"/></g></g></symbol><symbol id="mail" viewBox="0 0 71 47"><g><g><path d="M35.055 23.84L67.841 2.33A7.208 7.208 0 0 0 62.92.394H7.19c-1.83 0-3.577.687-4.92 1.935zM62.92 46.45a7.185 7.185 0 0 0 5.114-2.118 7.185 7.185 0 0 0 2.119-5.114V8.09L35.055 31.12-.042 8.09v31.128c0 1.932.752 3.748 2.118 5.114a7.185 7.185 0 0 0 5.115 2.119z"/></g></g></symbol><symbol id="s" viewBox="0 0 47 70"><g><g><path d="M22.24 69.973c-3.553 0-7.077-.547-10.472-1.626a34.3 34.3 0 0 1-9.397-4.66 5.006 5.006 0 0 1-2.076-3.453 5.007 5.007 0 0 1 1.148-3.863l.494-.582a4.963 4.963 0 0 1 3.792-1.751 5.02 5.02 0 0 1 2.884.91c4.379 3.054 9.306 4.736 13.873 4.736 1.843 0 3.521-.206 4.988-.614 1.425-.395 2.652-.98 3.647-1.74 1.963-1.497 3-3.66 3-6.256 0-1.32-.244-2.448-.747-3.451-.462-.922-1.145-1.738-2.09-2.497-1.789-1.437-4.336-2.52-7.287-3.773l-.244-.103-9.125-3.956c-3.872-1.61-6.972-3.703-9.212-6.218-2.841-3.19-4.282-7.053-4.282-11.485 0-5.176 2.246-9.933 6.323-13.394C9.474 4.484 11.86 3.146 14.55 2.22c2.786-.96 5.814-1.445 9-1.445 2.911 0 5.822.446 8.65 1.327a29.398 29.398 0 0 1 7.758 3.729 4.996 4.996 0 0 1 2.132 3.395 5.012 5.012 0 0 1-1.06 3.879 4.967 4.967 0 0 1-3.878 1.846 5.046 5.046 0 0 1-2.652-.755c-3.415-2.108-6.997-3.132-10.95-3.132-3.128 0-5.756.722-7.602 2.089-1.868 1.382-2.855 3.37-2.855 5.748 0 1.23.273 2.307.836 3.292.505.885 1.238 1.68 2.24 2.432 1.873 1.405 4.409 2.443 7.093 3.542l.449.184 9 3.773c4.367 1.819 7.547 3.983 9.725 6.618a15.78 15.78 0 0 1 2.777 4.962c.658 1.923.992 4.086.992 6.43 0 5.42-2.26 10.384-6.363 13.978-2.11 1.848-4.645 3.289-7.536 4.283-3.044 1.047-6.43 1.578-10.066 1.578z"/></g></g></symbol><symbol id="share" viewBox="0 0 30 34"><g><g><path d="M24.38 31.102a2.84 2.84 0 0 1-2.828-2.827 2.84 2.84 0 0 1 2.827-2.828 2.84 2.84 0 0 1 2.828 2.828 2.818 2.818 0 0 1-2.828 2.827zM5.62 19.861a2.84 2.84 0 0 1-2.827-2.828 2.84 2.84 0 0 1 2.828-2.827 2.84 2.84 0 0 1 2.827 2.827c-.034 1.552-1.276 2.828-2.827 2.828zM24.38 2.964a2.84 2.84 0 0 1 2.827 2.828 2.84 2.84 0 0 1-2.828 2.827 2.84 2.84 0 0 1-2.827-2.827c.034-1.586 1.276-2.828 2.827-2.828zm0 19.69c-1.38 0-2.621.483-3.587 1.276l-9.655-5.793c.069-.38.103-.724.103-1.138 0-.414-.034-.759-.103-1.138l9.655-5.793a5.686 5.686 0 0 0 3.586 1.276A5.622 5.622 0 0 0 30 5.723C30 2.619 27.483.137 24.38.137a5.622 5.622 0 0 0-5.621 5.62c0 .38.034.759.103 1.138l-9.655 5.793a5.686 5.686 0 0 0-3.586-1.275 5.622 5.622 0 0 0 0 11.241c1.379 0 2.62-.483 3.586-1.276l9.655 5.793c-.069.38-.103.724-.103 1.138a5.622 5.622 0 0 0 11.241 0c0-3.103-2.517-5.655-5.62-5.655z"/></g></g></symbol><symbol id="telegram" viewBox="0 0 48 48">
<path d="M41.4193 7.30899C41.4193 7.30899 45.3046 5.79399 44.9808 9.47328C44.8729 10.9883 43.9016 16.2908 43.1461 22.0262L40.5559 39.0159C40.5559 39.0159 40.3401 41.5048 38.3974 41.9377C36.4547 42.3705 33.5408 40.4227 33.0011 39.9898C32.5694 39.6652 24.9068 34.7955 22.2086 32.4148C21.4531 31.7655 20.5897 30.4669 22.3165 28.9519L33.6487 18.1305C34.9438 16.8319 36.2389 13.8019 30.8426 17.4812L15.7331 27.7616C15.7331 27.7616 14.0063 28.8437 10.7686 27.8698L3.75342 25.7055C3.75342 25.7055 1.16321 24.0823 5.58815 22.459C16.3807 17.3729 29.6555 12.1786 41.4193 7.30899Z"/>
</symbol></svg>