<svg width="213" height="29" viewBox="0 0 213 29" fill="none" xmlns="http://www.w3.org/2000/svg">
<path d="M38.4481 1.34119H61.3535L60.3627 7.53533H45.129L44.5761 11.085H53.6463L52.6227 17.4296H43.5525L42.9066 21.6219H59.6156L58.5618 28.1551H34.1812L38.4481 1.34119Z" fill="white"/>
<path d="M72.9603 7.95101H63.3591L64.41 1.34119H91.2868L90.1975 7.95101H80.5963L77.3777 28.1579H69.7443L72.9575 7.95101H72.9603Z" fill="white"/>
<path d="M91.8486 16.0699C91.5393 7.30785 97.6236 0.886719 105.938 0.886719C115.578 0.886719 118.413 7.34613 118.747 10.4063H110.963C110.594 9.68706 109.242 7.76181 106.182 7.76181C101.91 7.76181 99.5065 11.3881 99.6571 15.6925C99.7802 19.1683 101.726 21.7362 105.052 21.7362C108.15 21.7362 109.521 19.9231 109.953 19.2805H117.702C117.184 21.698 114.026 28.6113 105.295 28.6113C97.317 28.6113 92.1086 23.4372 91.8459 16.0726L91.8486 16.0699Z" fill="white"/>
<path d="M124.246 1.34119H131.917L129.356 17.5061L143.749 1.34119H151.424L147.154 28.1551H139.482L142.047 12.064L127.651 28.1551H119.979L124.243 1.34119H124.246Z" fill="white"/>
<path d="M163.753 7.95101H154.152L155.206 1.34119H182.08L180.99 7.95101H171.389L168.171 28.1579H160.537L163.751 7.95101H163.753Z" fill="white"/>
<path d="M185.822 1.34119H193.494L190.932 17.5061L205.325 1.34119H213L208.73 28.1551H201.059L203.623 12.064L189.227 28.1551H181.555L185.819 1.34119H185.822Z" fill="white"/>
<path d="M20.8849 11.2737H14.0426L14.5708 7.9893H30.7105L31.7588 1.34119H7.94742L6.36548 11.2737H1.20908L0.248413 17.3557H5.39659L3.6778 28.1579H19.552C26.9609 28.1579 31.9121 24.9118 31.6821 18.4141C31.5207 13.8443 27.6506 11.2764 20.8822 11.2764L20.8849 11.2737ZM20.1898 21.5098H12.4032L13.0847 17.353H21.1367C22.7241 17.353 23.537 17.9218 23.5753 18.9801C23.6356 20.6401 22.3054 21.5098 20.187 21.5098H20.1898Z" fill="white"/>
</svg>
