<svg width="92" height="92" viewBox="0 0 92 92" fill="none" xmlns="http://www.w3.org/2000/svg">
<path d="M45.4993 73C32.5429 73 22 62.4097 22 49.395V26.605C22 13.5888 32.5429 3 45.4993 3C58.4557 3 69 13.5888 69 26.605V49.395C69 62.4097 58.4571 73 45.4993 73ZM45.4993 5.62114C33.9813 5.62114 24.6109 15.0352 24.6109 26.605V49.395C24.6109 60.9648 33.9813 70.3774 45.4993 70.3774C57.0172 70.3774 66.3891 60.9648 66.3891 49.395V26.605C66.3891 15.0352 57.0187 5.62114 45.4993 5.62114Z" fill="#F6F6F6"/>
<path d="M45.5007 36C44.3074 35.9988 43.1632 35.4858 42.3194 34.5736C41.4756 33.6614 41.0011 32.4245 41 31.1345V24.7802C41.0207 23.5048 41.5039 22.2891 42.3455 21.3951C43.1872 20.501 44.32 20 45.5 20C46.68 20 47.8128 20.501 48.6545 21.3951C49.4961 22.2891 49.9793 23.5048 50 24.7802V31.1345C49.9989 32.4243 49.5246 33.6609 48.681 34.5731C47.8375 35.4852 46.6938 35.9984 45.5007 36ZM45.5007 22.5844C44.9615 22.584 44.4442 22.8151 44.0625 23.2268C43.6809 23.6386 43.4661 24.1973 43.4654 24.7802V31.1345C43.4583 31.4276 43.5056 31.7192 43.6044 31.9922C43.7033 32.2653 43.8517 32.5141 44.041 32.7241C44.2302 32.9341 44.4565 33.101 44.7063 33.2149C44.9562 33.3289 45.2247 33.3876 45.4959 33.3876C45.767 33.3876 46.0355 33.3289 46.2854 33.2149C46.5352 33.101 46.7615 32.9341 46.9507 32.7241C47.14 32.5141 47.2884 32.2653 47.3873 31.9922C47.4861 31.7192 47.5334 31.4276 47.5263 31.1345V24.7802C47.5271 24.1982 47.3142 23.6397 46.9344 23.2272C46.5547 22.8147 46.039 22.5819 45.5007 22.5799V22.5844Z" fill="#F6F6F6"/>
<path d="M45.5 89C45.1859 89.0002 44.8818 88.8902 44.6412 88.6894L33.4585 79.3282C33.1945 79.0998 33.0313 78.7773 33.0041 78.4303C32.9768 78.0833 33.0877 77.7396 33.3128 77.4731C33.5379 77.2067 33.8592 77.0389 34.2075 77.006C34.5557 76.973 34.9031 77.0775 35.1747 77.2969L45.5 85.9331L55.8253 77.2969C56.0969 77.0775 56.4442 76.973 56.7925 77.006C57.1408 77.0389 57.4621 77.2067 57.6872 77.4731C57.9123 77.7396 58.0232 78.0833 57.9959 78.4303C57.9687 78.7773 57.8055 79.0998 57.5415 79.3282L46.3573 88.6894C46.1171 88.89 45.8136 89 45.5 89Z" fill="#F6F6F6"/>
</svg>
