<svg width="88" height="88" viewBox="0 0 88 88" fill="none" xmlns="http://www.w3.org/2000/svg">
<path d="M34.1631 5.40079L35.4402 5.36077C35.4402 5.36077 35.9111 5.60809 36.3596 3.60705L36.8754 4.68626L37.1221 3.56209L38.7143 3.71947C38.7143 3.71947 39.4319 4.28156 39.9477 3C39.9477 3 43.8497 4.6413 45.5316 3.04497C45.5316 3.04497 46.608 3.96679 48.402 3.80941C50.196 3.65202 53.1113 5.20338 53.1561 7.4967C53.1561 7.4967 53.8289 6.93461 56.5424 6.97958C56.4975 6.61984 58.0224 5.38325 56.5424 4.41646C56.5424 4.41646 57.7757 3.29229 72.1728 4.82116C72.1728 4.82116 72.9352 4.7762 72.3297 3.74196C71.7243 2.70772 73.294 3.17987 72.9352 3.1349C72.9352 3.1349 73.4061 6.32756 75.1329 4.37149C75.1329 4.37149 79.1246 6.28259 79.1694 4.52888L79.9319 5.00103L82.1296 5.046C82.1296 5.046 81.8829 6.12521 84.3945 6.64233C84.3945 6.64233 85.3139 10.8018 84.0806 11.4763C84.0806 11.4763 85.6279 18.8284 84.5515 31.6665L82.1968 31.7114L83.1163 34.0722C83.1163 34.0722 80.7616 34.7917 82.0399 37.04C82.0399 37.04 83.2732 36.5229 82.3987 37.3997C82.3987 37.3997 82.1968 38.3216 83.5199 38.5914C83.5199 38.5914 82.7575 41.784 84.3497 41.6716C84.3497 41.6716 83.1163 44.5495 84.0357 45.224C84.0357 45.224 83.3181 46.5505 83.5648 48.9113C83.5648 48.9113 83.206 49.316 82.5332 48.7539C82.5332 48.7539 81.2101 49.9455 84.686 49.5858L85 82.8164C85 82.8164 78.4518 79.0167 75.9402 81.5348L79.0125 81.7822L78.8106 82.1869L77.4875 82.2318C77.4875 82.2318 77.5324 83.7158 76.5233 82.3443C76.5233 82.3443 74.0565 84.6601 69.5041 82.3892C69.5041 82.3892 67.3065 83.3111 65.5125 81.9171C65.5125 81.9171 64.2791 81.6698 64.0324 82.8839C64.0324 82.8839 62.0814 82.5241 59.3679 83.356L59.5698 82.6365H59.211L59.1661 83.5134C59.1661 83.5134 58.7625 83.8731 58.2018 83.6708L58.5606 82.4342C58.5606 82.4342 57.7309 82.1869 57.4394 82.9513L58.1121 82.7939L57.9103 83.6708C57.9103 83.6708 56.3181 85.2671 54.3671 83.9855L56.363 83.8282C56.363 83.8282 56.7218 83.5809 56.6769 83.2211C56.6769 83.2211 48.8505 83.1087 49.0972 83.7382L49.7027 84.2104C49.7027 84.2104 47.1013 85.1772 45.9128 84.3678L45.8679 83.6033L45.4643 83.6483L44.7915 84.6151C44.7915 84.6151 43.6703 82.6141 40.1719 83.7382L40.4186 84.6151C40.4186 84.6151 39.1852 84.5027 38.7367 85.0872L36.7857 81.8946C36.7857 81.8946 33.9153 83.2211 32.4801 81.6922C32.4801 81.6922 32.2334 81.7372 32.1213 82.4567C32.1213 82.4567 30.9327 82.4117 30.3721 80.613C30.3721 80.613 29.4527 80.8603 29.8115 82.4567C29.8115 82.4567 28.8472 81.3775 28.7799 80.7704L28.0623 81.5348L28.5781 82.1419L28.3314 82.4567C28.3314 82.4567 27.255 81.3325 26.7841 81.5798L26.8289 82.2543L26.358 82.4117L25.7525 81.4899C25.7525 81.4899 25.0797 81.8496 25.0349 82.3667L24.7882 82.007L24.4294 82.2543H23.9585C23.9585 82.2543 23.8015 81.2201 23.5548 81.0627L23.3081 81.7372H22.3887V81.1301L21.5141 81.7372C21.5141 81.7372 20.4826 81.5798 20.2807 82.5691L19.7201 82.3218C19.7201 82.3218 19.8322 81.2426 19.4061 80.7704C19.4061 80.7704 18.8455 80.5231 18.7334 81.8496C18.7334 81.8496 18.0606 82.0969 17.8588 81.1301H17.3879L17.5 82.4117C17.5 82.4117 17.2533 81.4899 15.1453 81.7372C15.1453 81.7372 12.7458 81.8946 12.4319 81.0627L12.2301 82.3443C12.2301 82.3443 12.0731 81.2201 9.83056 82.2318L9.31478 82.1869L9.35963 81.5124H9.04568L8.84385 82.6365L8.32807 82.5241C8.32807 82.5241 8.84385 81.6473 8.28322 81.4449C8.28322 81.4449 7.45349 81.6473 7.36379 82.4792L6.84801 82.2318L6.89286 81.1077L4.5382 80.7479C4.5382 80.7479 6.08555 77.9825 4.94186 68.8317C4.94186 68.8317 4.98671 65.639 5.50249 64.8296L6.73588 64.7846L7.09469 56.0611L5.50249 55.8137C5.50249 55.8137 4.78488 52.5761 5.18854 45.2915C5.18854 45.2915 5.43521 45.1341 6.15282 45.7636L6.35465 45.4039L5.63704 44.9992L5.68189 44.2347L7.07226 44.9992L7.18438 41.9189C7.18438 41.9189 4.3588 40.6374 6.15282 36.0732C6.15282 36.0732 3.6412 28.159 5.39036 9.72257L4.91943 9.47525C4.91943 9.47525 4.76246 10.7118 4 9.52021L4.15698 5.36077L5.07641 5.47318L4.96429 5.78795L4.60548 5.90037L4.76246 7.81147L5.07641 7.85644L5.50249 4.55136C5.50249 4.55136 8.03654 7.15945 11.0864 4.03424L11.5573 4.93358L13.755 5.046L14.2708 5.4507L14.5847 4.61881L14.8987 4.66378L15.4593 5.42822L15.863 4.95606L16.7824 5.00103L17.343 5.60809L17.7018 5.24835L21.3796 5.36077L22.2542 4.84365L22.3663 5.36077L24.0033 5.56312L24.6761 4.6413C24.6761 4.6413 25.6404 6.03527 27.3895 6.12521C29.1387 6.23762 32.6146 6.01279 32.6146 6.01279C32.6146 6.01279 33.6462 6.97958 34.005 6.01279C34.1368 5.65755 34.1718 5.4815 34.1631 5.40079ZM22.8991 71.6147C23.5925 71.8328 23.7566 71.125 23.7566 71.125L24.4518 71.5522L35.7766 67.9323L19.7874 52.4412C19.7874 52.4412 15.6387 61.3672 14.8762 63.7279C14.1138 66.0662 15.0781 66.4259 15.0781 66.4259L21.8505 71.4622L21.9178 70.7877L22.2766 70.8327L22.7475 70.5179L22.7924 71.2599L22.9718 70.8777C23.2184 70.473 23.3978 70.8777 23.3978 70.8777C23.218 71.3671 23.0446 71.5614 22.8991 71.6147ZM22.8991 71.6147C22.7818 71.5778 22.6497 71.5146 22.5008 71.4173C22.5008 71.4173 22.6636 71.7006 22.8991 71.6147ZM13.5532 19.5703L33.2201 40.6149C33.2201 40.6149 34.7002 40.4125 35.1711 41.5817C35.642 42.7733 34.8571 41.7391 34.8571 41.7391L34.2517 41.2669L42.1902 49.9006C42.1902 49.9006 41.2259 47.225 42.5042 49.6533C43.7824 52.059 45.8231 53.8127 45.8231 53.8127L46.137 53.3405L44.9485 52.014C44.9485 52.014 44.0739 50.9798 45.3073 51.6543L46.8546 53.6553C46.8546 53.6553 46.4958 54.7795 47.6844 55.7688L47.4377 54.9369C47.4377 54.9369 48.4693 55.499 49.3439 57.2527L49.299 56.5782L50.1736 57.4101L49.8148 57.8822L58 66.6733C58 66.6733 59.9062 71.1924 70.1321 70.5179C70.1321 70.5179 74.9983 64.3125 75.402 55.0043L68.6296 50.4402L64.6827 50.0804L64.7276 49.4059L66.2076 50.013L66.7234 50.058L65.8488 49.3385L66.2525 48.8663L33.7359 26.6751C33.7359 26.6751 31.6952 26.7875 31.7849 25.4385L30.9551 25.3936L30.4842 24.9214L30.0133 25.2811L29.7666 25.0338L30.0806 24.5167L28.8023 23.7972L29.4078 24.5617L29.0939 24.7191L27.7708 23.3925L28.0847 23.0328L22.0299 18.7609C22.0523 18.7834 19.294 15.8156 13.5532 19.5703ZM68.0017 32.5208L69.6387 21.9761L69.1678 21.9986L69.2126 22.4033C69.2126 22.4033 69.0108 23.3026 68.809 22.5157C68.6071 21.7288 69.0556 21.4814 69.0556 21.4814L69.5939 21.6388L69.6163 21.3016L66.0507 18.6935C66.0507 18.6935 64.7948 17.7492 62.3056 18.5361C59.8164 19.323 52.1022 21.2791 52.1022 21.2791L65.5573 31.6215L65.7367 31.2618L65.0864 30.947C65.0864 30.947 64.6603 30.4074 65.4676 30.4299C66.2973 30.4524 66.0731 32.0037 66.0731 32.0037H66.8356L67.2616 32.5658L68.0017 32.5208ZM34.1631 5.40079L34.005 5.40574C34.005 5.40574 34.1485 5.26184 34.1631 5.40079Z" fill="#06DCFF"/>
</svg>
