<svg width="120" height="148" viewBox="0 0 120 148" fill="none" xmlns="http://www.w3.org/2000/svg">
<path d="M35.7911 59.6011L24.2229 62.062V87.5801L90.2066 72.9732V56.9821L35.7911 59.6011Z" fill="url(#paint0_linear_6690_3380)"/>
<path d="M84.103 53.673V4.42749L28.2791 16.9932V64.2811L84.103 53.673Z" fill="url(#paint1_linear_6690_3380)"/>
<path d="M94.1287 27.052L35.7911 41.1316V75.9196L94.1287 63.5011V27.052Z" fill="url(#paint2_linear_6690_3380)"/>
<path d="M51.4219 75.6141C51.4219 75.6141 56.8358 80.3535 51.9558 88.1073C51.9558 88.1073 47.6339 89.3971 46.2761 90.1859L44.8809 97.2169H73.8991L72.0205 90.6934C72.0205 90.6934 69.7838 89.3531 65.9497 87.9206C65.9497 87.9206 62.6737 84.0887 63.5592 76.8929L51.4197 75.6141" fill="white"/>
<path d="M40.1372 39.9803L32.0252 41.9578C32.0252 41.9578 28.736 69.2974 53.7598 77.1831" fill="white"/>
<path d="M39.4758 41.4348C39.4758 41.4348 46.4563 76.8446 56.3942 77.8268L63.5614 76.893C63.5614 76.893 77.0192 66.4278 81.1938 54.3388C85.2982 42.4542 83.7843 29.5106 83.7843 29.5106L39.4758 41.4348Z" fill="white"/>
<path d="M33.8488 41.5137L84.1468 29.4358L84.0479 36.4294L33.8488 42.4563V41.5137Z" fill="white"/>
<path d="M40.1371 40.4726V35.1093C40.1371 35.1093 42.1146 25.0022 56.3963 25.0022C71.6206 25.0022 72.6555 34.4501 72.7785 36.0189L40.1371 40.4726Z" fill="white"/>
<path d="M40.1746 40.413V35.0497C40.1746 35.0497 42.152 25.5007 56.4337 25.5007C68.6633 25.5007 71.7569 34.384 71.88 35.9572L40.1746 40.413Z" fill="white"/>
<path d="M81.7212 32.9338L81.664 32.2615L71.4054 34.6476C71.0443 33.1638 70.333 31.7881 69.3312 30.6356C66.7847 27.7573 62.8781 26.4609 59.1275 26.2236C56.8572 26.1039 54.5806 26.2514 52.3448 26.6631C50.1036 27.1025 47.8647 27.8957 45.9619 29.2074C44.0592 30.5191 42.4464 32.3758 41.7257 34.5971C41.7038 34.6696 41.684 34.7509 41.6642 34.83C41.6313 36.2516 41.5961 39.0398 41.5829 40.4614C41.5829 40.7668 41.5829 41.0722 41.5829 41.3776L34.3124 43.0233V43.0563C34.2971 43.1266 34.2861 43.1771 34.2751 43.2364L34.2443 43.4056C33.9777 45.0438 33.863 46.7032 33.9016 48.3625C34.0224 58.2498 38.9287 67.1462 46.9397 72.8238C49.0427 74.3333 51.2783 75.649 53.6191 76.7545C51.5193 75.6659 49.5117 74.4079 47.6164 72.993C44.035 70.3058 40.915 66.9133 38.7661 62.9957C36.1901 58.2777 34.9653 52.9406 35.2265 47.5715L37.1161 47.1628C36.9971 48.4454 36.9714 49.7348 37.0392 51.0211C37.4918 60.6316 42.3388 69.038 50.2684 74.4497C51.5304 75.3213 52.843 76.1173 54.1992 76.8336C52.8678 76.0713 51.5824 75.2312 50.3497 74.3178C44.1317 69.7653 39.7812 63.1298 38.5376 55.4858C38.0468 52.6543 37.9942 49.7642 38.3816 46.9167L40.7634 46.3564L41.5763 46.1807C41.5917 47.9912 41.6379 49.8016 41.7675 51.6121C42.5519 60.8205 46.1333 70.3959 53.6103 76.2008C46.7991 69.7323 43.5033 60.7744 42.976 51.5264C42.8529 49.2479 42.8661 45.0162 42.8925 41.1821C42.9122 41.1557 42.9298 41.1271 42.9474 41.0986C43.1899 40.754 43.4495 40.4218 43.7252 40.1033C47.4428 35.7418 52.8875 34.4169 58.4178 34.3906C61.8366 34.3378 65.3411 34.9091 68.4194 36.4515C69.6212 37.0711 70.7748 37.8775 71.5372 39.009L71.7042 40.0351C72.1424 44.7097 72.2158 49.4112 71.9239 54.0971C71.7042 57.3622 71.2647 60.6316 70.41 63.7911C70.0192 65.2313 69.5 66.6336 68.8588 67.9812C69.4197 66.9204 69.8993 65.8187 70.2936 64.6854C71.0674 62.4175 71.6409 60.0862 72.0074 57.7181C72.9522 51.8055 73.1389 45.7984 72.8423 39.822L77.5509 38.8003C78.0831 42.0027 78.157 45.2645 77.7706 48.4877C77.3906 51.8391 76.4961 55.1118 75.1186 58.1905C72.8072 63.3473 69.7245 68.1591 66.22 72.5953C65.1046 74.0261 63.9042 75.3886 62.6254 76.6754C64.181 75.2692 65.8245 73.9619 67.3274 72.5008C68.8293 71.0277 70.2494 69.4734 71.5811 67.8449C72.8994 66.2871 74.2617 64.5294 75.4877 62.8947C75.7953 62.4926 76.1337 62.0334 76.4215 61.6115C81.8025 53.7104 82.7868 42.296 81.7212 32.9338ZM35.3407 45.9983C35.4052 45.4226 35.4857 44.8492 35.5824 44.2779L41.5741 42.9794C41.5741 43.5155 41.5741 44.0516 41.5741 44.5899L35.3407 45.9983ZM70.4298 37.2096C68.7951 35.8143 66.7737 34.9662 64.7391 34.3532C62.0034 33.5292 59.1467 33.1799 56.2931 33.3205C51.9954 33.5139 47.6362 34.9596 44.4437 37.9171C43.8743 38.4508 43.3591 39.0396 42.9056 39.6748C42.9188 37.8402 42.9298 36.1813 42.9232 34.9882C43.1095 34.3558 43.3784 33.7507 43.723 33.1887C46.4211 28.7218 51.9361 27.1025 56.8885 26.8586C61.8234 26.4851 67.7822 28.0759 70.2914 32.7031C70.6347 33.3481 70.9016 34.0309 71.0868 34.7377L71.3702 36.4801L80.2249 34.5356C80.2952 35.1025 80.3574 35.6715 80.4116 36.2428L71.4713 38.2972C71.1625 37.8997 70.8135 37.5352 70.4298 37.2096ZM78.9988 54.185C78.253 56.7992 77.1286 59.2901 75.6613 61.5786C74.2903 63.5846 72.7676 65.6763 71.2669 67.5923C69.9952 69.2501 68.633 70.8367 67.1868 72.3448C65.7344 73.852 64.1349 75.2011 62.6276 76.6644C63.9391 75.4083 65.1747 74.0752 66.3277 72.6722C70.9615 67.0715 75.0065 60.8535 77.4806 53.9807C78.9696 49.5966 79.6065 44.9682 79.357 40.3449C79.3218 39.7078 79.2713 39.0706 79.1922 38.4356L80.5523 38.1412C80.895 43.5353 80.4951 48.9931 79.001 54.185H78.9988Z" fill="#001958"/>
<path d="M41.5807 41.3777L33.8883 43.1003V47.4551L34.8441 43.788L41.5807 41.3777Z" fill="#001958"/>
<path d="M82.1056 32.1584V39.9607L81.6617 32.2617L82.1056 32.1584Z" fill="#001958"/>
<path d="M35.5824 44.278C35.5824 44.278 34.4179 55.2903 39.5132 64.2724C39.5132 64.2724 33.8884 57.1469 34.6794 46.9146C34.8112 45.1393 35.5824 44.278 35.5824 44.278Z" fill="#001958"/>
<path d="M36.76 46.2731L36.8896 50.1775H37.7971V46.1193L36.76 46.2731Z" fill="#001958"/>
<path d="M36.8896 50.1752C36.9635 51.841 37.1685 53.4984 37.5027 55.132L37.6301 47.2727L37.1643 46.4795L36.8896 50.1752Z" fill="#001958"/>
<path d="M38.3816 46.9255C38.3816 46.9255 38.1289 56.5778 40.3415 61.7807L38.074 56.9469L37.6345 46.4839L38.3816 46.9255Z" fill="#001958"/>
<path d="M46.5002 96.1996C46.7024 94.477 47.0254 92.6841 47.3506 90.9901C48.7764 90.2041 50.2916 89.5926 51.8636 89.1686C58.2354 87.3867 65.3411 88.1689 71.1285 91.4054C71.4449 92.5303 71.7701 93.8926 72.0338 95.0373C72.1202 95.4226 72.2007 95.8085 72.2754 96.1952L72.1634 96.237L70.5353 91.8426L70.5836 91.8931C65.2169 89.556 59.2806 88.8514 53.5159 89.8673C51.6047 90.1866 49.7376 90.7286 47.9526 91.4823L47.9987 91.4251C47.5879 92.8226 47.0342 94.8176 46.6145 96.2326L46.5002 96.1996Z" fill="#001958"/>
<path d="M62.5858 79.3999C62.3661 82.9154 63.245 86.8132 65.8816 89.3004L66.7605 90.0189C65.9101 89.8454 64.9104 89.6168 64.0557 89.5048C61.3619 89.1369 58.6359 89.0632 55.9261 89.2851C54.6005 89.3889 53.2866 89.6095 51.9998 89.9442L52.4524 89.3488C53.7224 87.4438 54.7726 85.3697 55.0165 83.0758C55.2564 80.7627 54.7473 78.4336 53.5642 76.4315C54.3064 77.3636 54.8662 78.4274 55.2142 79.5669C56.337 83.0824 55.3417 86.9758 52.8698 89.674L52.5952 89.2565C55.8339 88.538 59.1868 88.5073 62.4825 88.7643C63.5902 88.8519 64.691 89.0104 65.7783 89.2389L65.5278 89.7267C65.187 89.3922 64.8808 89.0241 64.6138 88.6281C62.7528 85.9607 62.2386 82.5705 62.6012 79.3999H62.5858Z" fill="#001958"/>
<path d="M66.8089 96.2655L65.5125 89.7289C65.5125 89.7289 63.6097 89.6388 60.3909 89.3795L61.0171 96.2655H66.8089Z" fill="#001958"/>
<path d="M62.6298 87.4065C62.6298 87.4065 59.7295 81.9553 61.2456 77.1874C61.2456 77.1874 66.1189 72.782 67.8855 62.5058C69.652 52.2295 68.9445 38.585 68.9445 38.585C68.9445 38.585 67.5669 36.5614 64.1503 36.0582C64.1503 36.0582 65.2093 55.4902 64.7479 61.684C64.0053 71.6373 63.5219 73.8916 60.8677 76.8446C60.8677 76.8446 59.1099 79.8855 59.9712 87.2307C60.861 87.2035 61.7513 87.2623 62.6298 87.4065Z" fill="#001958"/>
<path d="M85.8341 5.08896V5.10434C86.9496 5.11416 88.0164 5.56316 88.8031 6.35404C89.5899 7.14492 90.0333 8.21397 90.0373 9.32953C90.0466 8.21038 90.4977 7.14023 91.2924 6.35214C92.087 5.56406 93.1609 5.12188 94.2801 5.12192V5.10434C93.1638 5.09567 92.096 4.64718 91.3082 3.85618C90.5205 3.06517 90.0765 1.99547 90.0725 0.87915C90.0638 1.99792 89.6136 3.06798 88.8198 3.85641C88.026 4.64485 86.9529 5.08784 85.8341 5.08896Z" fill="#0092F3"/>
<path d="M79.6646 13.6514C80.3428 13.6577 80.9913 13.9307 81.4699 14.4114C81.9484 14.892 82.2186 15.5417 82.2221 16.2199C82.2279 15.5396 82.5022 14.8891 82.9853 14.4101C83.4685 13.9311 84.1212 13.6624 84.8016 13.6624C84.123 13.6572 83.4738 13.3846 82.995 12.9037C82.5162 12.4228 82.2464 11.7725 82.2441 11.0939C82.2383 11.7742 81.9639 12.4247 81.4808 12.9037C80.9977 13.3827 80.3449 13.6514 79.6646 13.6514Z" fill="#0092F3"/>
<path d="M90.3142 17.1338C90.9934 17.1396 91.6429 17.413 92.1217 17.8947C92.6005 18.3764 92.87 19.0275 92.8717 19.7067C92.8775 19.0264 93.1519 18.3759 93.635 17.8969C94.1181 17.4179 94.7709 17.1492 95.4512 17.1492V17.1382C94.7734 17.133 94.1249 16.861 93.6462 16.3811C93.1675 15.9011 92.8972 15.2519 92.8937 14.5741C92.8885 15.2548 92.6144 15.9058 92.1312 16.3853C91.648 16.8648 90.9949 17.1338 90.3142 17.1338Z" fill="#0092F3"/>
<path d="M83.4065 24.4308C84.0855 24.436 84.735 24.709 85.2138 25.1903C85.6927 25.6717 85.9623 26.3225 85.964 27.0015C85.9687 26.3207 86.2426 25.6693 86.7259 25.1897C87.2092 24.7101 87.8626 24.4412 88.5435 24.4418V24.4308C87.8647 24.4256 87.2153 24.1531 86.7362 23.6722C86.257 23.1914 85.9867 22.5411 85.9838 21.8623C85.9803 22.544 85.7074 23.1966 85.2246 23.6778C84.7417 24.159 84.0882 24.4297 83.4065 24.4308Z" fill="#0092F3"/>
<path d="M39.6011 21.8886L40.4008 21.3833L41.06 22.4203L42.2421 21.6755L41.5829 20.6362L42.3827 20.1309L44.1405 22.9015L43.3407 23.4069L42.6815 22.3698L41.4972 23.1168L42.1564 24.1539L41.3566 24.6593L39.6011 21.8886Z" fill="white"/>
<path d="M44.2636 21.0647C43.9252 20.087 44.4393 19.2125 45.3731 18.8917C46.307 18.5709 47.2495 18.9401 47.5857 19.9178C47.9219 20.8956 47.4099 21.77 46.4871 22.093C45.5643 22.416 44.5953 22.0293 44.2636 21.0647ZM46.6805 20.232C46.6201 20.0882 46.519 19.9652 46.3897 19.8781C46.2603 19.791 46.1083 19.7436 45.9524 19.7418C45.7964 19.74 45.6433 19.7838 45.512 19.8679C45.3806 19.9519 45.2767 20.0725 45.213 20.2149C45.1493 20.3573 45.1286 20.5151 45.1535 20.6691C45.1784 20.823 45.2477 20.9664 45.353 21.0814C45.4583 21.1965 45.5949 21.2783 45.746 21.3167C45.8972 21.3551 46.0563 21.3485 46.2037 21.2976C46.3081 21.2634 46.4043 21.2077 46.4859 21.1341C46.5676 21.0605 46.6329 20.9706 46.6778 20.8703C46.7227 20.77 46.7461 20.6614 46.7466 20.5514C46.7471 20.4415 46.7245 20.3327 46.6805 20.232Z" fill="white"/>
<path d="M48.3019 18.0787L50.2793 17.7206C51.0242 17.5866 51.5449 17.8766 51.6768 18.5995C51.8086 19.3223 51.4197 19.7772 50.6748 19.9178L49.6224 20.1089L49.8091 21.1438L48.8841 21.3108L48.3019 18.0787ZM49.3719 18.7093L49.4796 19.3004L50.42 19.1312C50.6595 19.0872 50.7583 18.9554 50.7254 18.7708C50.6924 18.5863 50.5584 18.4962 50.3123 18.5401L49.3719 18.7093Z" fill="white"/>
<path d="M52.6282 17.3756L53.573 17.3163L53.696 19.2937L55.0143 17.2328L55.9591 17.1735L56.1635 20.4451L55.2187 20.5044L55.0978 18.5401L53.7839 20.5857L52.8391 20.645L52.6282 17.3756Z" fill="white"/>
<path d="M56.9917 20.4736H56.9192L56.9499 19.5288H57.0181C57.3366 19.5398 57.4289 19.3904 57.4839 19.0147L57.7387 17.1779L60.472 17.2679L60.3644 20.5417L59.4174 20.5088L59.5009 18.0567L58.51 18.0238L58.3583 19.1092C58.2287 20.0474 57.9694 20.5044 56.9917 20.4736Z" fill="white"/>
<path d="M64.6513 19.9265C64.5436 20.689 64.0141 21.0054 63.2363 20.8955L61.3181 20.6252L61.7773 17.38L62.7089 17.5118L62.5749 18.4632L63.5614 18.6016C64.3305 18.7071 64.7699 19.1597 64.6513 19.9265ZM62.4541 19.2674L62.3574 19.9529L63.2209 20.0738C63.5043 20.1155 63.6603 20.0232 63.6845 19.7903C63.7087 19.5574 63.601 19.43 63.3176 19.3882L62.4541 19.2674Z" fill="white"/>
<path d="M65.5475 19.6123C65.6004 19.3925 65.6985 19.1862 65.8353 19.0062C65.9722 18.8263 66.1449 18.6768 66.3426 18.5671C66.5403 18.4574 66.7586 18.39 66.9836 18.3691C67.2087 18.3481 67.4357 18.3742 67.6502 18.4456C68.7268 18.751 68.8894 19.6123 68.8477 19.9836L67.9249 19.7222C67.8882 19.608 67.8225 19.5054 67.7344 19.4241C67.6462 19.3429 67.5385 19.2858 67.4217 19.2586C66.9823 19.1333 66.6044 19.4212 66.4747 19.876C66.3451 20.3308 66.5121 20.768 66.9603 20.8933C67.0739 20.9331 67.1959 20.9424 67.3142 20.9205C67.4326 20.8985 67.5431 20.8459 67.6348 20.768L68.5533 21.0273C68.4258 21.3086 67.8414 22.0204 66.7296 21.7062C66.5096 21.6546 66.3027 21.558 66.122 21.4224C65.9413 21.2868 65.7906 21.1152 65.6796 20.9184C65.5685 20.7216 65.4994 20.504 65.4767 20.2792C65.4539 20.0544 65.4781 19.8273 65.5475 19.6123Z" fill="white"/>
<path d="M70.4011 19.3948L71.2492 19.8166L70.6384 21.0383L72.4203 20.4011L73.5035 20.9394L71.4579 21.6689L72.1039 23.9034L70.9592 23.3321L70.4252 21.4645L69.7859 22.7433L68.9443 22.3258L70.4011 19.3948Z" fill="white"/>
<path d="M13.3058 144.61C13.3058 143.274 14.1245 142.498 15.7466 142.498H17.2915V141.455H18.1566V142.498H19.7014C21.3235 142.498 22.1422 143.27 22.1422 144.61C22.1422 145.95 21.3235 146.757 19.7014 146.757H18.1566V147.958H17.2915V146.757H15.7466C14.1245 146.757 13.3058 145.915 13.3058 144.61ZM17.2799 143.301H15.735C14.7116 143.301 14.2134 143.791 14.2134 144.626C14.2134 145.46 14.7116 145.954 15.735 145.954H17.2799V143.301ZM18.145 143.301V145.954H19.6898C20.7133 145.954 21.2115 145.41 21.2115 144.626C21.2115 143.842 20.7133 143.301 19.6898 143.301H18.145Z" fill="white"/>
<path d="M23.6368 141.543H24.5019V146.711L28.4644 141.543H29.3295V147.87H28.4644V142.683L24.5019 147.87H23.6368V141.543Z" fill="white"/>
<path d="M31.2915 141.543H32.1566V144.278H36.0419V141.543H36.907V147.87H36.0419V145.081H32.1566V147.87H31.2915V141.543Z" fill="white"/>
<path d="M43.1094 146.348H39.7417L39.0349 147.87H38.1814L41.1011 141.509H41.7886L44.7199 147.87H43.8123L43.1094 146.348ZM42.7502 145.575L41.4256 142.687L40.097 145.575H42.7502Z" fill="white"/>
<path d="M45.5851 147.923H45.3727V147.074H45.5233C46.2648 147.074 46.4695 146.576 46.6008 145.166L46.9407 141.539H51.5752V147.866H50.7101V142.343H47.6822L47.4041 145.266C47.2458 147.031 46.9059 147.923 45.5851 147.923Z" fill="white"/>
<path d="M60.3189 145.216C59.6236 145.359 58.916 145.433 58.2063 145.437C56.5572 145.437 55.7307 144.78 55.7307 143.119V141.574H56.592V143.119C56.592 144.305 57.1095 144.714 58.1986 144.714C58.9109 144.708 59.6209 144.633 60.3189 144.49V141.586H61.184V147.912H60.3189V145.216Z" fill="white"/>
<path d="M63.142 141.543H68.097V142.347H63.9994V144.112H66.4479V144.911H63.9994V147.074H68.4601V147.873H63.142V141.543Z" fill="white"/>
<path d="M71.7352 142.347H69.1051V141.543H75.2265V142.347H72.6003V147.87H71.7352V142.347Z" fill="white"/>
<path d="M81.9775 145.915C81.9775 147.143 81.2051 147.846 79.7413 147.846H76.5706V141.52H77.4357V143.907H79.7529C81.2244 143.93 81.9775 144.733 81.9775 145.915ZM77.4164 144.73V147.047H79.7684C80.6489 147.047 81.0853 146.618 81.0853 145.888C81.0853 145.205 80.6489 144.73 79.7684 144.73H77.4164ZM83.0357 141.539H83.9085V147.866H83.0434L83.0357 141.539Z" fill="white"/>
<path d="M85.8781 141.543H89.1685C90.5666 141.543 91.2966 142.212 91.2966 143.37C91.2966 144.529 90.5666 145.232 89.1685 145.232H86.7432V147.87H85.8781V141.543ZM86.7432 142.347V144.432H89.1956C90.0028 144.432 90.4044 143.996 90.4044 143.389C90.4044 142.783 90.0182 142.347 89.1956 142.347H86.7432Z" fill="white"/>
<path d="M92.8143 141.543H97.7655V142.347H93.6679V144.112H96.1164V144.911H93.6679V147.074H98.1247V147.873H92.8143V141.543Z" fill="white"/>
<path d="M98.8123 147.87L101.574 144.664L98.8702 141.543H100.029L102.157 144.023L104.296 141.543H105.355L102.682 144.633L105.474 147.877H104.377L102.114 145.278L99.8589 147.877L98.8123 147.87Z" fill="white"/>
<path d="M38.8033 104.244H45.8541L45.5487 106.153H40.8599L40.6907 107.251H43.4811L43.1669 109.207H40.3809L40.1809 110.497H45.3223L44.995 112.505H37.4916L38.8033 104.244Z" fill="white"/>
<path d="M49.4268 106.276H46.4716L46.7946 104.239H55.067L54.733 106.276H51.7778L50.7868 112.501H48.438L49.4268 106.276Z" fill="white"/>
<path d="M55.2406 108.781C55.144 106.083 57.016 104.105 59.5757 104.105C62.5441 104.105 63.4164 106.083 63.5196 107.036H61.1225C60.9779 106.776 60.7633 106.562 60.5031 106.418C60.2428 106.274 59.9474 106.206 59.6504 106.221C58.3321 106.221 57.596 107.337 57.6444 108.664C57.6817 109.734 58.2793 110.525 59.3032 110.525C59.5989 110.54 59.8934 110.478 60.1581 110.345C60.4229 110.213 60.6491 110.015 60.8149 109.769H63.1988C62.9847 110.612 62.4893 111.357 61.7946 111.881C61.0998 112.404 60.2473 112.675 59.3779 112.648C56.9237 112.648 55.3219 111.05 55.2406 108.781Z" fill="white"/>
<path d="M65.2091 104.244H67.571L66.7822 109.222L71.2118 104.244H73.5738L72.2554 112.505H69.9L70.691 107.548L66.2593 112.505H63.8907L65.2091 104.244Z" fill="white"/>
<path d="M77.3706 106.276H74.4154L74.7406 104.239H83.0064L82.6768 106.276H79.7216L78.7307 112.501H76.3819L77.3706 106.276Z" fill="white"/>
<path d="M84.1622 104.244H86.522L85.7332 109.222L90.1627 104.244H92.5269L91.2086 112.505H88.8532L89.642 107.548L85.2037 112.505H82.8505L84.1622 104.244Z" fill="white"/>
<path d="M33.3983 107.304H31.2912L31.4538 106.291H36.4261L36.749 104.244H29.417L28.9293 107.304H27.3429L27.0463 109.176H28.6326L28.1031 112.503H32.9897C35.2681 112.503 36.793 111.503 36.7249 109.501C36.6721 108.095 35.4813 107.304 33.3983 107.304ZM33.1786 110.457H30.7881L31.0078 109.176H33.4884C33.9762 109.176 34.2267 109.352 34.2377 109.677C34.2443 110.189 33.8356 110.451 33.1852 110.451L33.1786 110.457Z" fill="white"/>
<path d="M13.7401 117.882H15.7725V120.81L18.5805 117.882H21.1732L17.9477 121.235L21.3204 124.904H18.5761L15.7725 121.839V124.904H13.7445L13.7401 117.882Z" fill="white"/>
<path d="M23.0583 124.904L24.4733 122.559L21.3665 117.882H23.7834L25.6136 120.65L27.2857 117.882H29.4829L25.2511 124.913L23.0583 124.904Z" fill="white"/>
<path d="M37.0458 122.619C37.0458 124.141 36.0373 124.904 34.374 124.904H30.1818V117.873H36.413V119.613H32.1988V120.492H34.374C36.0373 120.492 37.0458 121.217 37.0458 122.619ZM32.1988 122.076V123.175H34.207C34.7212 123.175 34.9694 123.005 34.9694 122.63C34.9694 122.254 34.7212 122.087 34.207 122.087L32.1988 122.076Z" fill="white"/>
<path d="M37.9268 121.393C37.9268 119.178 39.579 117.763 41.6949 117.763C43.8108 117.763 45.4631 119.178 45.4631 121.393C45.4631 123.607 43.8108 125.022 41.6949 125.022C39.579 125.022 37.9268 123.579 37.9268 121.393ZM43.4066 121.393C43.4066 120.364 42.7628 119.562 41.6949 119.562C40.6271 119.562 39.9833 120.364 39.9833 121.393C39.9833 122.421 40.6271 123.223 41.6949 123.223C42.7628 123.223 43.4066 122.421 43.4066 121.393Z" fill="white"/>
<path d="M46.6407 117.882H48.6687V120.81L51.479 117.882H54.0694L50.844 121.235L54.2232 124.904H51.479L48.6687 121.839V124.904H46.6407V117.882Z" fill="white"/>
<path d="M57.2861 117.882H61.597C63.2207 117.882 64.2095 118.692 64.2095 120.266C64.2095 121.839 63.2207 122.649 61.597 122.649H59.3031V124.904H57.2861V117.882ZM59.3031 119.622V120.909H61.3509C61.8739 120.909 62.1309 120.67 62.1309 120.266C62.1309 119.861 61.8848 119.622 61.3509 119.622H59.3031Z" fill="white"/>
<path d="M65.0203 121.393C65.0203 119.178 66.6725 117.763 68.7884 117.763C70.9043 117.763 72.5566 119.178 72.5566 121.393C72.5566 123.607 70.9065 125.022 68.7884 125.022C66.6703 125.022 65.0203 123.579 65.0203 121.393ZM70.5001 121.393C70.5001 120.364 69.8563 119.562 68.7884 119.562C67.7206 119.562 67.079 120.364 67.079 121.393C67.079 122.421 67.7206 123.223 68.7884 123.223C69.8563 123.223 70.5001 122.421 70.5001 121.393Z" fill="white"/>
<path d="M73.429 121.393C73.429 119.277 74.9318 117.763 77.0895 117.763C79.4822 117.763 80.3237 119.444 80.4512 120.235H78.3924C78.2505 120.021 78.0556 119.848 77.8269 119.733C77.5981 119.617 77.3433 119.563 77.0873 119.576C76.0876 119.576 75.4943 120.386 75.4943 121.395C75.4943 122.403 76.0876 123.214 77.0873 123.214C77.3457 123.231 77.604 123.179 77.8356 123.063C78.0673 122.947 78.264 122.772 78.4056 122.555H80.4534C80.3545 123.214 79.5745 125.018 77.0917 125.018C74.9318 125.022 73.429 123.5 73.429 121.393Z" fill="white"/>
<path d="M81.1146 121.393C81.1146 119.277 82.6197 117.763 84.7751 117.763C87.1679 117.763 88.0094 119.444 88.1368 120.235H86.0825C85.9409 120.021 85.7461 119.848 85.5172 119.732C85.2884 119.617 85.0334 119.563 84.7773 119.576C83.7776 119.576 83.1844 120.386 83.1844 121.395C83.1844 122.403 83.7776 123.214 84.7773 123.214C85.0357 123.23 85.2937 123.178 85.5252 123.062C85.7568 122.946 85.9535 122.771 86.0956 122.555H88.1412C88.0424 123.214 87.2514 125.018 84.7795 125.018C82.6197 125.022 81.1146 123.5 81.1146 121.393Z" fill="white"/>
<path d="M89.2574 117.882H91.2854V122.116L94.3791 117.882H96.4093V124.913H94.3813V120.69L91.2876 124.904H89.2596L89.2574 117.882Z" fill="white"/>
<path d="M97.8923 117.882H99.9247V122.116L103.021 117.882H105.049V124.913H103.021V120.69L99.9247 124.904H97.8967L97.8923 117.882Z" fill="white"/>
<path d="M0.539307 129.753H7.4912V136.784H5.4654V131.511H2.56731V136.784H0.539307V129.753Z" fill="white"/>
<path d="M8.67114 133.264C8.67114 131.047 10.3212 129.634 12.4393 129.634C14.5574 129.634 16.2075 131.047 16.2075 133.264C16.2075 135.481 14.5552 136.894 12.4393 136.894C10.3234 136.894 8.67114 135.45 8.67114 133.264ZM14.1509 133.264C14.1509 132.236 13.5072 131.434 12.4393 131.434C11.3715 131.434 10.7277 132.236 10.7277 133.264C10.7277 134.292 11.3715 135.092 12.4393 135.092C13.5072 135.092 14.1509 134.292 14.1509 133.264Z" fill="white"/>
<path d="M19.8087 129.753H22.7464L24.2009 133.649L25.6532 129.753H28.4634V136.784H26.486V131.983L24.7282 136.78H23.3835L21.6609 132.023V136.78H19.8021L19.8087 129.753Z" fill="white"/>
<path d="M29.9487 129.753H31.9767V133.985L35.0704 129.753H37.0984V136.784H35.0704V132.57L31.9767 136.784H29.9487V129.753Z" fill="white"/>
<path d="M38.5837 129.753H40.6117V132.39H43.6087V129.753H45.6367V136.784H43.6087V134.147H40.6117V136.784H38.5837V129.753Z" fill="white"/>
<path d="M47.1218 129.753H49.1498V133.985L52.2457 129.753H54.2715V136.784H52.2457V132.57L49.1498 136.784H47.1218V129.753Z" fill="white"/>
<path d="M55.7283 132.532H59.1207V134.312H55.7283V132.532Z" fill="white"/>
<path d="M60.2084 133.194C60.2084 131.533 61.2279 130.682 62.9197 130.682H64.3633V129.654H66.3803V130.682H67.8238C69.5157 130.682 70.5352 131.533 70.5352 133.194C70.5352 134.855 69.5157 135.718 67.815 135.718H66.3803V136.885H64.3633V135.718H62.9285C61.2279 135.718 60.2084 134.826 60.2084 133.194ZM64.3633 132.423H63.1768C62.5725 132.423 62.2979 132.66 62.2979 133.194C62.2979 133.668 62.5945 133.965 63.1768 133.965H64.3633V132.423ZM66.3803 132.423V133.961H67.5668C68.1512 133.961 68.4456 133.664 68.4456 133.189C68.4456 132.655 68.1688 132.418 67.5668 132.418L66.3803 132.423Z" fill="white"/>
<path d="M72.0206 136.775L73.4356 134.431L70.3287 129.753H72.7456L74.5759 132.522L76.248 129.753H78.4451L74.2112 136.784L72.0206 136.775Z" fill="white"/>
<path d="M81.2487 131.493H78.7065V129.753H85.8079V131.493H83.2657V136.766H81.2487V131.493Z" fill="white"/>
<path d="M93.733 134.49C93.733 136.013 92.7223 136.775 91.0612 136.775H86.8668V129.744H93.098V131.484H88.886V132.363H91.0612C92.7223 132.363 93.733 133.082 93.733 134.49ZM88.886 133.945V135.044H90.8943C91.4084 135.044 91.6545 134.877 91.6545 134.501C91.6545 134.125 91.4084 133.956 90.8943 133.956L88.886 133.945Z" fill="white"/>
<path d="M94.614 133.264C94.614 131.047 96.2641 129.634 98.3822 129.634C100.5 129.634 102.15 131.047 102.15 133.264C102.15 135.481 100.498 136.894 98.3822 136.894C96.2663 136.894 94.614 135.45 94.614 133.264ZM100.092 133.264C100.092 132.236 99.45 131.434 98.3822 131.434C97.3143 131.434 96.6706 132.236 96.6706 133.264C96.6706 134.292 97.3143 135.092 98.3822 135.092C99.45 135.092 100.092 134.292 100.092 133.264Z" fill="white"/>
<path d="M102.845 136.874H102.684V134.839H102.834C103.517 134.839 103.713 134.512 103.794 133.701L104.209 129.746H110.074V136.777H108.054V131.504H105.93L105.681 133.837C105.464 135.874 104.941 136.874 102.845 136.874Z" fill="white"/>
<path d="M112.607 136.775L114.022 134.431L110.911 129.753H113.328L115.158 132.522L116.83 129.753H119.027L114.793 136.784L112.607 136.775Z" fill="white"/>
<defs>
<linearGradient id="paint0_linear_6690_3380" x1="24.2229" y1="72.2811" x2="90.2066" y2="72.2811" gradientUnits="userSpaceOnUse">
<stop stop-color="#0092F3" stop-opacity="0"/>
<stop offset="0.04" stop-color="#0092F3" stop-opacity="0.07"/>
<stop offset="0.19" stop-color="#0191F2" stop-opacity="0.31"/>
<stop offset="0.34" stop-color="#0291F2" stop-opacity="0.52"/>
<stop offset="0.48" stop-color="#0291F2" stop-opacity="0.69"/>
<stop offset="0.62" stop-color="#0290F1" stop-opacity="0.83"/>
<stop offset="0.76" stop-color="#0390F1" stop-opacity="0.92"/>
<stop offset="0.89" stop-color="#0390F1" stop-opacity="0.98"/>
<stop offset="1" stop-color="#0390F1"/>
</linearGradient>
<linearGradient id="paint1_linear_6690_3380" x1="56.1899" y1="9.71173" x2="56.1899" y2="63.3297" gradientUnits="userSpaceOnUse">
<stop stop-color="#041854"/>
<stop offset="1" stop-color="#0390F1"/>
</linearGradient>
<linearGradient id="paint2_linear_6690_3380" x1="64.961" y1="31.3673" x2="64.961" y2="75.1418" gradientUnits="userSpaceOnUse">
<stop stop-color="#041854"/>
<stop offset="1" stop-color="#0390F1"/>
</linearGradient>
</defs>
</svg>
