<svg width="18" height="18" viewBox="0 0 18 18" fill="none" xmlns="http://www.w3.org/2000/svg">
<path d="M16.9386 5.31117C16.4938 4.27495 15.8589 3.34614 15.0492 2.54742C14.2395 1.74871 13.2963 1.12244 12.2473 0.68375C11.16 0.229934 10.0067 0 8.81666 0C7.62658 0 6.47178 0.229934 5.38446 0.68375C4.33395 1.12244 3.39232 1.74871 2.58258 2.54742C1.77284 3.34614 1.13793 4.27646 0.693186 5.31117C0.233107 6.38369 0 7.52277 0 8.69664C0 9.83118 0.217771 10.934 0.648712 11.9747C0.654846 11.9913 0.660981 12.008 0.670182 12.0246L0.67325 12.0322C0.679384 12.0488 0.687052 12.064 0.693186 12.0806C1.13793 13.1168 1.77284 14.0456 2.58258 14.8443C3.39232 15.6431 4.33548 16.2693 5.38446 16.708C6.47178 17.1618 7.62658 17.3918 8.81666 17.3918C10.0067 17.3918 11.1615 17.1618 12.2488 16.708C13.2994 16.2693 14.241 15.6431 15.0507 14.8443C15.8605 14.0456 16.4954 13.1153 16.9401 12.0806C17.4002 11.0081 17.6333 9.869 17.6333 8.69512C17.6318 7.52277 17.3987 6.38369 16.9386 5.31117ZM12.9804 15.3103C12.6445 15.5175 12.2933 15.699 11.9299 15.8533L12.0863 15.457L12.9804 15.3103ZM3.75578 12.4905L5.45347 14.4949V15.7429C3.91221 15.0244 2.64239 13.8293 1.84032 12.3423L3.75578 12.4905ZM3.62543 9.0612L3.54108 11.5632L1.41091 11.3984C1.08579 10.5346 0.920159 9.62545 0.920159 8.69664C0.920159 8.36082 0.941629 8.02499 0.986104 7.6937L2.22372 7.13854L3.62543 9.0612ZM13.0678 5.63943L14.014 4.59262L16.0736 5.63186C16.4708 6.54252 16.684 7.50764 16.7086 8.50452L15.1826 9.93405L13.7671 8.85699L13.0678 5.63943ZM10.3671 11.1246L13.3024 9.64814L14.7225 10.7297L14.2625 14.1787L11.8501 14.5736L9.91624 13.3725L10.3671 11.1246ZM6.96254 3.38396L8.27376 5.15233L6.84292 7.78901L4.28334 8.40771L2.91077 6.5274L4.12385 4.09494L6.96254 3.38396ZM10.0405 10.2699L7.72167 8.09004L9.0743 5.59707L12.189 5.92382L12.8285 8.86758L10.0405 10.2699ZM12.3838 5.03283L9.06816 4.6849L7.75847 2.91955L9.79816 0.968142C10.5634 1.06193 11.3072 1.26615 12.0111 1.57474L13.3484 3.96636L12.3838 5.03283ZM4.07324 2.4733C4.73115 1.98469 5.45501 1.60197 6.22948 1.33725C6.97174 1.08311 7.7462 0.940913 8.53447 0.912171L6.91959 2.45817L4.18059 3.14344L4.07324 2.4733ZM4.53945 9.28055L7.01621 8.68151L9.4577 10.9778L9.00989 13.2091L6.08838 13.8293L4.4505 11.8945L4.53945 9.28055ZM6.37517 14.6976L9.31814 14.0729L11.1876 15.2361L10.7904 16.2391C10.1478 16.4024 9.4853 16.4856 8.81666 16.4856C7.98238 16.4856 7.1619 16.3571 6.37517 16.1044V14.6976ZM16.6288 9.83118C16.4555 10.999 16.0154 12.1063 15.3375 13.082L15.6488 10.7494L16.6288 9.83118ZM14.2425 3.6865L13.5677 2.48086C14.2149 2.96494 14.7885 3.54733 15.2593 4.20083L14.2425 3.6865ZM1.21154 6.59396C1.57961 5.29907 2.27893 4.12822 3.25276 3.17369L3.32637 3.63356L2.03508 6.22485L1.21154 6.59396Z" fill="#06DCFF"/>
</svg>
