<svg width="55" height="60" viewBox="0 0 55 60" fill="none" xmlns="http://www.w3.org/2000/svg">
<path d="M11.5693 9.8025H12.3815V3.71493L11.5693 2.97976V9.80212V9.8025ZM16.9411 9.8025H17.7239V3.08771L16.9411 3.83293V9.8025ZM18.8394 0.0390849L17.7239 0L14.945 2.63693L15.5027 3.15657L18.8394 0.0390849ZM11.7555 0H10.6107L11.4619 0.862474L15.5031 4.68535L18.0569 2.274V9.80212H18.8398V0.490237L15.5324 3.60735L11.7555 0ZM10.4539 0.343203V9.8025H11.2367V2.19583L14.6808 5.49906L15.2779 4.90125L11.4229 1.22541L10.4542 0.343203H10.4539ZM19.7297 0.225576V9.8025H20.5025V4.46983H24.7102V3.75401H20.5025V0.99983L19.7297 0.225576ZM20.6887 0.71544H25.6105V0H19.9745L20.6887 0.71544ZM21.6183 1.71527H25.6105V0.99983H20.8354V3.45064H21.6183V1.71564V1.71527ZM20.8354 4.78362V9.5866L21.6183 8.81235V5.45998H24.7102V4.78362H20.8354ZM25.7275 9.12577H21.8038L21.0896 9.80212H25.7275V9.12577ZM25.7275 8.09691H21.9509V8.81235H25.7275V8.09691ZM29.9058 1.60769C30.2677 1.60769 30.5516 1.66651 30.7864 1.77446C31.0015 1.87235 31.1877 2.00971 31.3148 2.13701C31.4422 2.28405 31.5299 2.40168 31.5693 2.5193C31.6183 2.6172 31.6477 2.67601 31.6477 2.67601H32.4599C32.4599 2.67601 32.4402 2.60752 32.4012 2.4899C32.3622 2.36259 32.2938 2.21556 32.1957 2.03912C32.088 1.86268 31.9412 1.67656 31.7458 1.50012C31.56 1.32368 31.3151 1.16696 31.0216 1.04934C30.7281 0.93171 30.3561 0.872897 29.9258 0.872897C29.5442 0.872897 29.2017 0.941388 28.9178 1.08842C28.6242 1.24513 28.3991 1.43125 28.233 1.66651C28.0665 1.89208 27.9688 2.13701 27.9491 2.38232C27.9394 2.61757 28.0078 2.84315 28.1546 3.02927C28.321 3.21539 28.5852 3.35274 28.9375 3.43128C28.7026 3.02927 28.6246 2.69612 28.7223 2.43145C28.8104 2.15674 28.9769 1.9509 29.2113 1.81391C29.4658 1.67656 29.681 1.60807 29.9061 1.60807L29.9058 1.60769ZM29.8668 4.60718C30.2681 4.68572 30.7281 4.78362 31.2367 4.91093C31.7454 5.02855 32.2151 5.18564 32.6457 5.35203C33.0663 5.52847 33.3599 5.72464 33.5263 5.94984C33.4483 5.58728 33.2815 5.31257 33.047 5.11677C32.8021 4.92061 32.4696 4.73449 32.0683 4.55805C31.7651 4.42106 31.4519 4.31311 31.1097 4.22489C30.7671 4.13667 30.4442 4.06818 30.1309 3.99969C29.8081 3.94088 29.5342 3.87201 29.309 3.80352C29.2013 3.76444 29.0839 3.73503 28.9765 3.70562C28.7026 3.63713 28.4578 3.54891 28.2326 3.45101C28.0078 3.35274 27.851 3.20571 27.7629 3.00991C27.6065 2.54908 27.6258 2.13739 27.812 1.78451C28.0078 1.42195 28.2917 1.13756 28.6829 0.93171C29.0746 0.725863 29.4852 0.608236 29.9158 0.608236C30.3465 0.608236 30.7474 0.676728 31.0996 0.814083C31.4422 0.94176 31.7357 1.11783 31.9802 1.32405C32.2151 1.5299 32.4008 1.74542 32.5283 1.99073C32.6554 2.23566 32.7141 2.46123 32.7141 2.67676H33.4773C33.4773 2.67676 33.4672 2.56881 33.4186 2.34361C33.3796 2.12808 33.2718 1.85337 33.1053 1.53995C32.9292 1.2362 32.6747 0.942133 32.3225 0.667422C31.9605 0.402761 31.4712 0.206592 30.8548 0.0792866C29.9938 -0.0480186 29.299 -0.00893371 28.7606 0.206964C28.2322 0.403133 27.841 0.657743 27.5768 0.932082C27.3126 1.17739 27.1268 1.49081 27.0094 1.88278C26.8727 2.27511 26.8727 2.65703 26.9604 3.03932C27.0681 3.32371 27.2636 3.56864 27.5671 3.77449C27.8804 3.98033 28.2326 4.1471 28.6436 4.28408C29.0545 4.42143 29.4655 4.52901 29.8668 4.60755V4.60718ZM30.1796 8.20448C29.8567 8.20448 29.5925 8.15535 29.3774 8.07718C29.1719 8.00869 29.0058 7.91042 28.8784 7.79279C28.7513 7.67516 28.6633 7.56721 28.6045 7.45964C28.5458 7.34201 28.5165 7.25379 28.4968 7.16557C28.4771 7.0874 28.4771 7.05799 28.4771 7.05799H27.6455C27.6455 7.13653 27.6749 7.27352 27.7042 7.42055C27.7433 7.57726 27.8116 7.74403 27.9391 7.94019C28.0565 8.11664 28.2326 8.29308 28.4771 8.46952C28.6629 8.61655 28.9958 8.74386 29.4751 8.86148C29.9351 8.97911 30.5319 8.93965 31.2561 8.78294C31.8431 8.57709 32.2147 8.30238 32.4009 7.97928C32.5673 7.64613 32.5866 7.33233 32.4399 7.03826C32.2834 6.7442 32.0193 6.53835 31.6473 6.44045C31.8725 6.90128 31.9312 7.25379 31.8037 7.50877C31.6666 7.7537 31.4515 7.94019 31.1383 8.03809C30.8154 8.13599 30.5021 8.20485 30.1792 8.20485L30.1796 8.20448ZM33.4282 6.25396C33.3792 6.20482 33.3305 6.14601 33.2911 6.09725C33.2228 6.00903 33.1247 5.91113 32.9976 5.82291C32.8802 5.74437 32.665 5.64647 32.3812 5.53852C32.078 5.42089 31.628 5.29322 31.0309 5.1365C30.757 5.06801 30.4535 5.00883 30.1209 4.94033C29.7196 4.86179 29.299 4.76389 28.878 4.666C28.4767 4.54837 28.0855 4.41101 27.7429 4.24462C27.3906 4.06818 27.1168 3.83293 26.9113 3.54854C26.9113 3.9405 27.0484 4.26398 27.3223 4.52864C27.5961 4.80335 28.0461 5.04828 28.6725 5.27386C28.9757 5.39149 29.3573 5.49906 29.837 5.60701C30.1696 5.68518 30.5218 5.78345 30.8644 5.87167C31.2267 5.96957 31.5492 6.07752 31.8624 6.2145C32.156 6.34218 32.4005 6.49889 32.5863 6.67533C32.772 6.86145 32.8701 7.07735 32.8701 7.30255C32.8701 7.6063 32.7821 7.89069 32.5963 8.19443C32.4202 8.47882 32.1463 8.73343 31.7941 8.9296C31.4221 9.11572 30.9621 9.21399 30.4044 9.21399C29.788 9.21399 29.2789 9.13545 28.8877 8.99847C28.496 8.85143 28.2029 8.67499 27.9777 8.45947C27.7626 8.24394 27.6061 8.02804 27.5081 7.81252C27.41 7.60667 27.3512 7.42055 27.3416 7.27352C27.3122 7.12648 27.3026 7.05799 27.3026 7.05799H26.5981C26.5981 7.05799 26.6077 7.13653 26.6178 7.2832C26.6375 7.43991 26.6765 7.64613 26.7742 7.87133C26.8623 8.11626 26.9994 8.36157 27.1948 8.61655C27.3806 8.87116 27.6548 9.09674 28.0071 9.30258C28.496 9.57729 28.9854 9.73401 29.4748 9.77309C29.9444 9.81255 30.4237 9.81255 30.9034 9.76341C31.4612 9.73401 31.9602 9.59665 32.4202 9.34204C32.8701 9.10679 33.193 8.79299 33.3888 8.4107C33.565 8.00869 33.6627 7.60704 33.692 7.19535C33.7117 6.78365 33.6237 6.46986 33.4279 6.25433L33.4282 6.25396ZM37.7336 1.60769C38.0955 1.60769 38.3794 1.66651 38.6142 1.77446C38.8293 1.87235 39.0155 2.00971 39.1426 2.13701C39.2696 2.28405 39.3577 2.40168 39.3971 2.5193C39.4461 2.6172 39.4755 2.67601 39.4755 2.67601H40.2874C40.2874 2.67601 40.268 2.60752 40.2287 2.4899C40.1896 2.36259 40.1209 2.21556 40.0232 2.03912C39.9158 1.86268 39.769 1.67656 39.5732 1.50012C39.3874 1.32368 39.1426 1.16696 38.8494 1.04934C38.5559 0.93171 38.1839 0.872897 37.7533 0.872897C37.3717 0.872897 37.0295 0.941388 36.7456 1.08842C36.452 1.24513 36.2269 1.43125 36.0608 1.66651C35.8943 1.89208 35.7966 2.13701 35.7769 2.38232C35.7669 2.61757 35.8356 2.84315 35.9824 3.02927C36.1489 3.21539 36.413 3.35274 36.7653 3.43128C36.5304 3.02927 36.452 2.69612 36.5501 2.43145C36.6382 2.15674 36.8043 1.9509 37.0391 1.81391C37.2936 1.67656 37.5088 1.60807 37.734 1.60807L37.7336 1.60769ZM37.6942 4.60718C38.0955 4.68572 38.5551 4.78362 39.0642 4.91093C39.5728 5.02855 40.0425 5.18564 40.4732 5.35203C40.8938 5.52847 41.1877 5.72464 41.3538 5.94984C41.2754 5.58728 41.1089 5.31257 40.8741 5.11677C40.6296 4.92061 40.2967 4.73449 39.8957 4.55805C39.5925 4.42106 39.2793 4.31311 38.9367 4.22489C38.5945 4.13667 38.2712 4.06818 37.9584 3.99969C37.6355 3.94088 37.3616 3.87201 37.1365 3.80352C37.0291 3.76444 36.9117 3.73503 36.8039 3.70562C36.5301 3.63713 36.2852 3.54891 36.0604 3.45101C35.8352 3.35274 35.6788 3.20571 35.5908 3.00991C35.4343 2.54908 35.4536 2.13739 35.6398 1.78451C35.8356 1.42195 36.1191 1.13756 36.5108 0.93171C36.902 0.725863 37.313 0.608236 37.7436 0.608236C38.1743 0.608236 38.5752 0.676728 38.9274 0.814083C39.2696 0.94176 39.5636 1.11783 39.808 1.32405C40.0429 1.5299 40.2287 1.74542 40.3561 1.99073C40.4836 2.23566 40.5419 2.46123 40.5419 2.67676H41.3051C41.3051 2.67676 41.2951 2.56881 41.2464 2.34361C41.2074 2.12808 41.0996 1.85337 40.9332 1.53995C40.757 1.2362 40.5025 0.942133 40.1503 0.667422C39.788 0.402761 39.299 0.206592 38.6826 0.0792866C37.8213 -0.0480186 37.1268 -0.00893371 36.5884 0.206964C36.06 0.403133 35.6688 0.657743 35.4046 0.932082C35.1404 1.17739 34.9546 1.49081 34.8372 1.88278C34.7001 2.27511 34.7001 2.65703 34.7882 3.03932C34.8959 3.32371 35.0914 3.56864 35.3949 3.77449C35.7082 3.98033 36.0604 4.1471 36.4714 4.28408C36.8823 4.42143 37.2933 4.52901 37.6946 4.60755L37.6942 4.60718ZM38.0074 8.20448C37.6845 8.20448 37.4204 8.15535 37.2052 8.07718C36.9997 8.00869 36.8336 7.91042 36.7062 7.79279C36.5791 7.67516 36.4911 7.56721 36.4324 7.45964C36.3736 7.34201 36.3443 7.25379 36.3246 7.16557C36.3049 7.0874 36.3049 7.05799 36.3049 7.05799H35.4733C35.4733 7.13653 35.5027 7.27352 35.532 7.42055C35.5711 7.57726 35.6394 7.74403 35.7669 7.94019C35.8843 8.11664 36.0604 8.29308 36.3049 8.46952C36.4907 8.61655 36.8236 8.74386 37.3029 8.86148C37.7629 8.97911 38.3597 8.93965 39.0839 8.78294C39.6709 8.57709 40.0429 8.30238 40.2287 7.97928C40.3951 7.64613 40.4144 7.33233 40.2677 7.03826C40.1112 6.7442 39.8471 6.53835 39.4751 6.44045C39.7003 6.90128 39.759 7.25379 39.6315 7.50877C39.4944 7.7537 39.2793 7.94019 38.9661 8.03809C38.6432 8.13599 38.33 8.20485 38.0071 8.20485L38.0074 8.20448ZM41.2557 6.25396C41.2066 6.20482 41.1579 6.14601 41.1189 6.09725C41.0506 6.00903 40.9525 5.91113 40.8254 5.82291C40.708 5.74437 40.4928 5.64647 40.209 5.53852C39.9058 5.42089 39.4554 5.29322 38.8587 5.1365C38.5848 5.06801 38.2813 5.00883 37.9487 4.94033C37.5474 4.86179 37.1268 4.76389 36.7058 4.666C36.3045 4.54837 35.9133 4.41101 35.5707 4.24462C35.2184 4.06818 34.9446 3.83293 34.7391 3.54854C34.7391 3.9405 34.8762 4.26398 35.1501 4.52864C35.4243 4.80335 35.8743 5.04828 36.5004 5.27386C36.8036 5.39149 37.1851 5.49906 37.6648 5.60701C37.9974 5.68518 38.3496 5.78345 38.6922 5.87167C39.0541 5.96957 39.377 6.07752 39.6903 6.2145C39.9838 6.34218 40.2283 6.49889 40.4144 6.67533C40.6002 6.86145 40.6983 7.07735 40.6983 7.30255C40.6983 7.6063 40.6103 7.89069 40.4241 8.19443C40.248 8.47882 39.9741 8.73343 39.6219 8.9296C39.2503 9.11572 38.7903 9.21399 38.2326 9.21399C37.6162 9.21399 37.1075 9.13545 36.7159 8.99847C36.3242 8.85143 36.0311 8.67499 35.8059 8.45947C35.5908 8.24394 35.434 8.02804 35.3362 7.81252C35.2385 7.60667 35.1798 7.42055 35.1698 7.27352C35.1404 7.12648 35.1308 7.05799 35.1308 7.05799H34.4263C34.4263 7.05799 34.4359 7.13653 34.446 7.2832C34.4653 7.43991 34.5047 7.64613 34.6024 7.87133C34.6904 8.11626 34.8276 8.36157 35.023 8.61655C35.2088 8.87116 35.483 9.09674 35.8352 9.30258C36.3246 9.57729 36.814 9.73401 37.3029 9.77309C37.7726 9.81255 38.2519 9.81255 38.7316 9.76341C39.2893 9.73401 39.7883 9.59665 40.2484 9.34204C40.6983 9.10679 41.0212 8.79299 41.217 8.4107C41.3932 8.00869 41.4909 7.60704 41.5202 7.19535C41.5395 6.78365 41.4519 6.46986 41.256 6.25433L41.2557 6.25396ZM43.2521 9.8025V0H42.4595V9.8025H43.2521ZM44.4456 9.8025V0H43.653V9.8025H44.4456Z" fill="#FF7CAF"/>
<path d="M0 19.5375L6.33634 18.9605V59.977H10.0583V15.5869L0 16.3414V19.5375ZM12.3182 15.5869H11.3878V59.977H15.1098V18.4278L12.3186 15.5869H12.3182ZM0 24.0211L5.05146 23.6217V20.2924L0 20.6471V24.0207V24.0211ZM23.6614 35.4733C24.636 25.3083 28.491 20.1587 35.2707 20.1587C36.91 20.1587 38.4167 20.6028 39.8346 21.4902C41.1637 22.3337 42.3602 23.4877 43.2906 24.8638C44.3098 26.24 45.0629 27.7937 45.5946 29.4803C46.0821 31.1226 46.3478 32.8096 46.3478 34.4519C46.3478 36.2275 46.259 38.2253 46.1706 40.5335C46.0379 42.8861 45.5946 45.0168 44.8415 47.0145C44.1325 49.012 42.9361 50.4771 41.2079 51.4978C39.5686 52.5188 37.2199 52.6521 34.2511 51.8086C34.2511 51.8086 34.3841 51.9419 34.6498 52.2084C34.827 52.4302 35.1815 52.7853 35.7132 53.0072C36.2891 53.318 36.9096 53.5842 37.7516 53.8507C38.6378 54.1168 39.6128 54.2058 40.8535 54.2058C42.4928 54.2058 44.1325 53.407 45.7277 51.6757C47.367 50.0334 48.5635 47.5472 49.3609 44.2626C50.2028 40.9776 50.3358 36.8938 49.7153 32.0111C49.0064 27.7051 47.5443 24.2872 45.2844 21.7571C42.9803 19.227 40.3217 17.7176 37.3529 17.1406C34.2953 16.5637 31.2822 17.1406 28.3138 18.7829C27.1619 19.3599 26.0097 20.381 24.769 21.8014C23.5726 23.2219 22.5538 25.264 21.5788 27.7941C20.6926 30.3242 20.2493 33.5649 20.1167 37.4711C20.0724 41.7768 20.6484 45.6831 21.8006 49.0123C22.997 52.3416 24.8136 55.005 27.2065 56.8692C29.6436 58.8666 32.7451 59.8876 36.4671 59.9766L40.7654 59.7547C36.2014 59.7547 32.6125 58.5561 29.9981 56.2479C27.428 53.8954 25.6556 50.8765 24.6364 47.1035C23.6618 43.4638 23.3515 39.5128 23.6618 35.4733H23.6614ZM33.4098 15.9863C38.0622 15.7202 41.74 16.6966 44.4874 19.0491C47.2344 21.313 49.1398 24.3758 50.2478 28.1045C51.3554 31.8332 51.7099 35.7838 51.3554 39.9123C50.8237 45.239 49.6273 49.1009 47.6777 51.5424C45.728 54.1168 43.0695 55.3154 39.702 55.3601C34.5179 55.0493 31.15 51.809 29.5552 45.7277C28.9347 43.2419 28.6248 40.5339 28.536 37.6044C28.536 34.7635 28.9347 32.0997 29.7767 29.6139C30.574 27.0838 31.8593 25.264 33.6317 24.0211C35.404 22.7782 37.6639 22.6892 40.4555 23.7103C40.1895 23.3551 39.835 22.9114 39.1706 22.4674C38.6389 21.9347 37.7527 21.6239 36.6447 21.4463C35.5371 21.2687 34.0749 21.3577 32.3468 21.8904C31.1061 22.2012 29.8212 23.2222 28.4918 24.8646C27.1627 26.5958 26.1435 28.9041 25.4345 31.9669C24.7698 35.0296 24.6814 38.8026 25.3457 43.3305C26.0105 47.2368 27.2069 50.4775 29.1119 53.0965C31.0173 55.6709 33.3656 57.3136 36.2902 58.1124C39.126 58.867 42.4051 58.5565 46.0387 57.1361C48.7415 56.0707 50.9129 53.8511 52.4634 50.5661C54.0586 47.1925 54.9006 42.8868 54.9006 37.5597C54.9006 34.5855 54.5903 31.656 53.7929 28.8151C53.1282 25.9299 51.9763 23.3994 50.337 21.2687C48.6976 19.0938 46.4819 17.4957 43.6904 16.4747C40.943 15.4983 37.487 15.3651 33.4106 15.9863H33.4098Z" fill="#FF7CAF"/>
</svg>
