<svg width="44" height="60" viewBox="0 0 44 60" fill="none" xmlns="http://www.w3.org/2000/svg">
<path d="M0 0V8.08212H1.4143V4.29161H3.31351C3.72568 4.49366 4.00854 4.90585 4.00854 5.39077V8.08212H5.3097V5.03516C5.3097 4.49366 5.05917 4.00873 4.62276 3.72586C5.05917 3.33792 5.34203 2.77217 5.34203 2.13368C5.34203 0.977936 4.36414 0 3.18421 0H0ZM1.4143 1.23656H3.0549C3.5398 1.23656 3.95197 1.64875 3.95197 2.13368C3.95197 2.64285 3.5398 3.05504 3.0549 3.05504H1.4143V1.23656ZM9.22935 0C7.54026 0 6.16637 1.3578 6.16637 3.01463V5.07557C6.16637 6.73241 7.54026 8.08212 9.22935 8.08212C10.9184 8.08212 12.2842 6.73241 12.2842 5.07557V3.01463C12.2842 1.3578 10.9104 0 9.22935 0ZM9.22935 1.18807C10.1345 1.18807 10.878 1.90738 10.878 2.82066V5.26954C10.878 6.15857 10.1345 6.90213 9.22935 6.90213C8.32419 6.90213 7.57259 6.15857 7.57259 5.26954V2.82066C7.57259 1.90738 8.31611 1.18807 9.22935 1.18807ZM13.052 0V8.08212H14.4421V2.26299L17.6344 6.54652V8.08212H19.0244V0H17.6344V4.10572L14.4421 0H13.052ZM25.7484 0H22.2652C20.8832 0 19.7599 1.1315 19.7599 2.51354V8.08212H21.1903V3.99257H24.3664V8.08212H25.7484V0ZM21.1903 2.82066V2.56203C21.1903 1.84272 21.8045 1.22848 22.5238 1.22848H24.3664V2.82066H21.1903ZM27.8093 0H26.3707V5.01091C26.3707 6.69199 27.7608 8.08212 29.4984 8.08212H30.5975V6.88597H29.6357C28.6255 6.88597 27.8093 6.06159 27.8093 5.01091V0ZM31.1147 0V8.08212H34.0241C35.3091 8.08212 36.3759 6.9587 36.3759 5.63324V2.45696C36.3759 1.1315 35.3091 0 34.0241 0H31.1147ZM32.4886 6.80514V1.28506H34.1292C34.6383 1.28506 35.0505 1.68916 35.0505 2.20642V5.88378C35.0505 6.40104 34.6383 6.80514 34.1292 6.80514H32.4886ZM40.1339 0C38.4448 0 37.0709 1.3578 37.0709 3.01463V5.07557C37.0709 6.73241 38.4448 8.08212 40.1339 8.08212C41.823 8.08212 43.1888 6.73241 43.1888 5.07557V3.01463C43.1888 1.3578 41.8149 0 40.1339 0ZM40.1339 1.18807C41.0391 1.18807 41.7826 1.90738 41.7826 2.82066V5.26954C41.7826 6.15857 41.0391 6.90213 40.1339 6.90213C39.2288 6.90213 38.4772 6.15857 38.4772 5.26954V2.82066C38.4772 1.90738 39.2207 1.18807 40.1339 1.18807Z" fill="#FDCB39"/>
<path d="M21.328 49.8432L21.2808 37.0123V36.7293C21.2808 36.7293 21.328 34.9367 21.8002 33.38C22.3196 31.8705 23.6417 29.9365 23.6417 29.9365C23.6417 29.9365 22.5556 31.9649 22.2251 33.3329C21.8946 34.5594 21.7057 35.4556 21.7057 36.7293V36.9651L21.7529 49.8904C21.7529 50.2206 21.7057 50.5979 21.8002 50.881L21.7529 50.9281H21.4696C21.2808 50.9281 21.2336 50.881 21.2336 50.881C21.2336 50.881 21.2808 50.7866 21.2808 50.6923C21.328 50.5036 21.328 50.079 21.328 49.8432ZM10.704 13.9919L8.05981 22.6245C8.05981 22.6245 12.7344 21.6339 16.4646 21.398C20.1948 21.1621 28.2218 21.398 28.2218 21.398C28.2218 21.398 24.1138 23.6623 22.0363 25.8322C19.9587 27.955 18.4477 32.342 17.8811 34.9836C17.3145 37.5781 17.5506 47.956 17.5506 47.956C17.5506 47.956 17.5978 53.2393 17.3617 54.9847C17.1256 56.6829 16.4646 58.9 16.4646 58.9C16.4646 58.9 18.0227 59.6076 20.7614 59.7491C23.4528 59.9378 26.3803 58.9943 26.3803 58.9943C26.3803 58.9943 25.3415 56.4942 25.2943 52.9563C25.2471 49.4183 25.2471 39.9839 25.2471 39.9839C25.2471 39.9839 25.8137 33.5685 28.0329 29.9362C30.2049 26.3039 34.6434 22.3414 34.6434 22.3414L33.6518 18.945C31.7159 18.2846 28.269 17.3412 23.5472 17.0581C18.1172 16.7279 14.1509 17.577 12.3094 18.0959L12.4511 17.577C14.4342 17.1053 18.3533 16.3034 23.5944 16.6336C28.1273 16.8695 31.4798 17.7657 33.5102 18.4261L32.1408 13.8033C32.1408 13.8033 26.2386 12.1522 20.1948 12.7183C14.1037 13.2844 10.704 13.9919 10.704 13.9919Z" fill="#FDCB39"/>
</svg>
