<svg width="88" height="121" viewBox="0 0 88 121" fill="none" xmlns="http://www.w3.org/2000/svg">
<path d="M0 0V16.3253H2.85679V8.66872H6.69305C7.5256 9.07686 8.09696 9.90944 8.09696 10.889V16.3253H10.7252V10.1706C10.7252 9.07686 10.2191 8.09734 9.33762 7.52595C10.2191 6.74234 10.7905 5.59957 10.7905 4.30987C10.7905 1.97536 8.81524 0 6.43186 0H0ZM2.85679 2.49777H6.17067C7.15014 2.49777 7.98269 3.33036 7.98269 4.30987C7.98269 5.33837 7.15014 6.17096 6.17067 6.17096H2.85679V2.49777ZM18.6426 0C15.2308 0 12.4556 2.74265 12.4556 6.08933V10.2523C12.4556 13.599 15.2308 16.3253 18.6426 16.3253C22.0544 16.3253 24.8133 13.599 24.8133 10.2523V6.08933C24.8133 2.74265 22.0381 0 18.6426 0ZM18.6426 2.39982C20.4709 2.39982 21.9728 3.85277 21.9728 5.69752V10.6441C21.9728 12.4399 20.4709 13.9418 18.6426 13.9418C16.8143 13.9418 15.2961 12.4399 15.2961 10.6441V5.69752C15.2961 3.85277 16.7979 2.39982 18.6426 2.39982ZM26.3641 0V16.3253H29.1719V4.57108L35.6201 13.2235V16.3253H38.4279V0H35.6201V8.29324L29.1719 0H26.3641ZM52.0099 0H44.974C42.1826 0 39.9134 2.28554 39.9134 5.07716V16.3253H42.8029V8.06469H49.2184V16.3253H52.0099V0ZM42.8029 5.69752V5.17511C42.8029 3.72216 44.0435 2.48144 45.4964 2.48144H49.2184V5.69752H42.8029ZM56.1727 0H53.2669V10.1217C53.2669 13.5173 56.0747 16.3253 59.5845 16.3253H61.8046V13.9091H59.862C57.8214 13.9091 56.1727 12.244 56.1727 10.1217V0ZM62.8494 0V16.3253H68.7262C71.3218 16.3253 73.4766 14.0561 73.4766 11.3787V4.96288C73.4766 2.28554 71.3218 0 68.7262 0H62.8494ZM65.6246 13.7459V2.59572H68.9384C69.9669 2.59572 70.7994 3.41198 70.7994 4.4568V11.8848C70.7994 12.9296 69.9669 13.7459 68.9384 13.7459H65.6246ZM81.0676 0C77.6557 0 74.8806 2.74265 74.8806 6.08933V10.2523C74.8806 13.599 77.6557 16.3253 81.0676 16.3253C84.4794 16.3253 87.2382 13.599 87.2382 10.2523V6.08933C87.2382 2.74265 84.4631 0 81.0676 0ZM81.0676 2.39982C82.8959 2.39982 84.3978 3.85277 84.3978 5.69752V10.6441C84.3978 12.4399 82.8959 13.9418 81.0676 13.9418C79.2392 13.9418 77.721 12.4399 77.721 10.6441V5.69752C77.721 3.85277 79.2229 2.39982 81.0676 2.39982Z" fill="#0076C8"/>
<path d="M43.0807 100.679L42.9854 74.7615V74.1898C42.9854 74.1898 43.0808 70.569 44.0345 67.4246C45.0837 64.3755 47.7542 60.4689 47.7542 60.4689C47.7542 60.4689 45.5605 64.5661 44.8929 67.3293C44.2253 69.8067 43.8438 71.6171 43.8438 74.1898V74.6663L43.9391 100.774C43.9391 101.441 43.8438 102.203 44.0345 102.775L43.9391 102.87H43.3669C42.9854 102.87 42.89 102.775 42.89 102.775C42.89 102.775 42.9854 102.585 42.9854 102.394C43.0807 102.013 43.0807 101.155 43.0807 100.679ZM21.6211 28.2621L16.28 45.6992C16.28 45.6992 25.7223 43.6982 33.257 43.2218C40.7917 42.7454 57.0057 43.2218 57.0057 43.2218C57.0057 43.2218 48.7079 47.7954 44.5114 52.1785C40.3148 56.4663 37.2628 65.3278 36.1183 70.6637C34.9738 75.9044 35.4507 96.867 35.4507 96.867C35.4507 96.867 35.546 107.539 35.0691 111.064C34.5923 114.495 33.257 118.973 33.257 118.973C33.257 118.973 36.4044 120.402 41.9362 120.688C47.3727 121.069 53.286 119.164 53.286 119.164C53.286 119.164 51.1877 114.113 51.0924 106.967C50.997 99.8208 50.997 80.7639 50.997 80.7639C50.997 80.7639 52.1415 67.8052 56.6242 60.4683C61.0115 53.1314 69.9768 45.1275 69.9768 45.1275L67.9739 38.267C64.0635 36.933 57.1011 35.0273 47.5634 34.4556C36.5952 33.7886 28.5836 35.5037 24.8639 36.5519L25.15 35.5037C29.1558 34.5509 37.072 32.9311 47.6588 33.598C56.8149 34.0745 63.5866 35.8849 67.6878 37.2189L64.9219 27.881C64.9219 27.881 52.9999 24.546 40.7917 25.6894C28.4882 26.8328 21.6211 28.2621 21.6211 28.2621Z" fill="#0076C8"/>
</svg>
