<svg width="108" height="133" viewBox="0 0 108 133" fill="none" xmlns="http://www.w3.org/2000/svg">
<path d="M32.0454 53.0657L21.5942 55.289V78.3431L81.2066 65.1466V50.6996L32.0454 53.0657Z" fill="url(#paint0_linear_6694_4093)"/>
<path d="M75.6923 47.7101V3.21967L25.2587 14.572V57.2938L75.6923 47.7101Z" fill="url(#paint1_linear_6694_4093)"/>
<path d="M84.7499 23.6595L32.0454 36.3796V67.8085L84.7499 56.5892V23.6595Z" fill="url(#paint2_linear_6694_4093)"/>
<path d="M46.1669 67.5326C46.1669 67.5326 51.058 71.8143 46.6492 78.8195C46.6492 78.8195 42.7447 79.9847 41.5179 80.6973L40.2574 87.0494H66.4737L64.7765 81.1558C64.7765 81.1558 62.7557 79.945 59.2919 78.6507C59.2919 78.6507 56.3322 75.1888 57.1322 68.6879L46.1649 67.5326" fill="white"/>
<path d="M35.9719 35.3395L28.6432 37.126C28.6432 37.126 25.6716 61.8257 48.2791 68.95" fill="white"/>
<path d="M35.3743 36.6535C35.3743 36.6535 41.6807 68.6442 50.659 69.5315L57.1341 68.6879C57.1341 68.6879 69.2924 59.2332 73.064 48.3116C76.772 37.5746 75.4043 25.8808 75.4043 25.8808L35.3743 36.6535Z" fill="white"/>
<path d="M30.2906 36.725L75.7319 25.8133L75.6426 32.1316L30.2906 37.5766V36.725Z" fill="white"/>
<path d="M35.9718 35.7841V30.9387C35.9718 30.9387 37.7583 21.8076 50.661 21.8076C64.4153 21.8076 65.3502 30.3432 65.4614 31.7605L35.9718 35.7841Z" fill="white"/>
<path d="M36.0056 35.7305V30.885C36.0056 30.885 37.7921 22.2581 50.6948 22.2581C61.7435 22.2581 64.5384 30.2836 64.6496 31.7049L36.0056 35.7305Z" fill="white"/>
<path d="M73.5405 28.9735L73.4889 28.3661L64.2208 30.5218C63.8946 29.1813 63.252 27.9384 62.3469 26.8971C60.0463 24.2967 56.5169 23.1256 53.1285 22.9112C51.0774 22.803 49.0207 22.9363 47.0007 23.3082C44.976 23.7052 42.9532 24.4218 41.2342 25.6069C39.5151 26.7919 38.0581 28.4693 37.407 30.4761C37.3872 30.5416 37.3693 30.6151 37.3515 30.6866C37.3217 31.9709 37.2899 34.4899 37.278 35.7742C37.278 36.0501 37.278 36.326 37.278 36.6019L30.7096 38.0887V38.1185C30.6957 38.182 30.6857 38.2277 30.6758 38.2813L30.648 38.4341C30.4072 39.9141 30.3035 41.4132 30.3384 42.9123C30.4475 51.845 34.8801 59.8823 42.1175 65.0116C44.0175 66.3754 46.0372 67.5641 48.152 68.5629C46.2549 67.5794 44.4412 66.4428 42.7289 65.1645C39.4933 62.7368 36.6746 59.6719 34.7332 56.1326C32.4059 51.8702 31.2994 47.0484 31.5353 42.1977L33.2425 41.8285C33.135 42.9872 33.1118 44.1522 33.173 45.3142C33.5819 53.9967 37.9609 61.5914 45.1248 66.4806C46.265 67.268 47.4508 67.9872 48.676 68.6343C47.4732 67.9456 46.3119 67.1866 45.1983 66.3615C39.5806 62.2485 35.6503 56.2537 34.5268 49.3478C34.0833 46.7897 34.0358 44.1787 34.3858 41.6062L36.5376 41.1L37.2721 40.9412C37.286 42.5769 37.3276 44.2125 37.4448 45.8482C38.1534 54.1674 41.389 62.8182 48.1441 68.0626C41.9905 62.2187 39.0129 54.1258 38.5365 45.7708C38.4254 43.7123 38.4373 39.8891 38.4611 36.4253C38.479 36.4014 38.4948 36.3756 38.5107 36.3498C38.7298 36.0385 38.9643 35.7384 39.2134 35.4506C42.5721 31.5103 47.491 30.3134 52.4873 30.2895C55.576 30.2419 58.7421 30.758 61.5231 32.1515C62.6089 32.7113 63.6511 33.4398 64.3399 34.4621L64.4908 35.3891C64.8867 39.6122 64.953 43.8598 64.6893 48.0933C64.4908 51.043 64.0937 53.9967 63.3216 56.8512C62.9684 58.1523 62.4994 59.4192 61.9201 60.6366C62.4269 59.6783 62.8602 58.683 63.2164 57.6591C63.9155 55.6102 64.4336 53.504 64.7647 51.3646C65.6183 46.0229 65.787 40.5958 65.519 35.1965L69.7729 34.2735C70.2537 37.1667 70.3205 40.1135 69.9714 43.0255C69.6281 46.0532 68.82 49.0099 67.5755 51.7914C65.4872 56.4502 62.7022 60.7974 59.5361 64.8052C58.5284 66.0979 57.444 67.3288 56.2886 68.4914C57.694 67.221 59.1788 66.0399 60.5366 64.7198C61.8935 63.389 63.1764 61.9848 64.3796 60.5136C65.5706 59.1062 66.8013 57.5182 67.909 56.0413C68.1869 55.678 68.4926 55.2632 68.7526 54.882C73.6139 47.7439 74.5032 37.4317 73.5405 28.9735ZM31.6386 40.7764C31.6968 40.2564 31.7696 39.7383 31.8569 39.2222L37.2701 38.049C37.2701 38.5334 37.2701 39.0177 37.2701 39.504L31.6386 40.7764ZM63.3394 32.8363C61.8626 31.5758 60.0364 30.8096 58.1982 30.2558C55.7267 29.5113 53.1459 29.1958 50.5678 29.3228C46.6851 29.4975 42.7468 30.8037 39.8625 33.4755C39.3481 33.9578 38.8827 34.4897 38.473 35.0635C38.4849 33.406 38.4948 31.9073 38.4889 30.8295C38.6571 30.2581 38.9001 29.7115 39.2114 29.2037C41.6491 25.1682 46.6315 23.7052 51.1057 23.4849C55.5641 23.1474 60.9475 24.5846 63.2144 28.7651C63.5245 29.3478 63.7657 29.9646 63.933 30.6032L64.189 32.1773L72.1887 30.4206C72.2522 30.9327 72.3085 31.4468 72.3574 31.9629L64.2803 33.8189C64.0014 33.4598 63.6861 33.1306 63.3394 32.8363ZM71.0811 48.1727C70.4073 50.5344 69.3914 52.7848 68.0658 54.8523C66.8271 56.6646 65.4515 58.5543 64.0957 60.2853C62.9468 61.7831 61.7162 63.2165 60.4095 64.5789C59.0974 65.9406 57.6523 67.1594 56.2906 68.4815C57.4755 67.3466 58.5917 66.1422 59.6334 64.8747C63.8198 59.8148 67.4742 54.1972 69.7094 47.988C71.0547 44.0273 71.6301 39.8458 71.4046 35.669C71.3728 35.0933 71.3272 34.5177 71.2557 33.944L72.4845 33.678C72.7941 38.5512 72.4329 43.482 71.083 48.1727H71.0811Z" fill="#001958"/>
<path d="M37.276 36.6019L30.3264 38.1582V42.0925L31.1899 38.7795L37.276 36.6019Z" fill="#001958"/>
<path d="M73.8878 28.2728V35.3216L73.4868 28.3661L73.8878 28.2728Z" fill="#001958"/>
<path d="M31.8569 39.2222C31.8569 39.2222 30.8048 49.1711 35.4081 57.2859C35.4081 57.2859 30.3264 50.8485 31.041 41.6042C31.1601 40.0003 31.8569 39.2222 31.8569 39.2222Z" fill="#001958"/>
<path d="M32.9208 41.0245L33.0379 44.5519H33.8577V40.8856L32.9208 41.0245Z" fill="#001958"/>
<path d="M33.038 44.55C33.1047 46.055 33.2899 47.5523 33.5918 49.0282L33.7069 41.9278L33.2861 41.2112L33.038 44.55Z" fill="#001958"/>
<path d="M34.3857 41.6141C34.3857 41.6141 34.1574 50.3344 36.1564 55.0349L34.1078 50.6678L33.7108 41.2151L34.3857 41.6141Z" fill="#001958"/>
<path d="M41.7205 86.1303C41.9031 84.574 42.1949 82.9543 42.4887 81.4238C43.7768 80.7137 45.1457 80.1612 46.5659 79.7782C52.3225 78.1684 58.7421 78.875 63.9706 81.799C64.2565 82.8153 64.5503 84.046 64.7885 85.0802C64.8665 85.4283 64.9393 85.777 65.0068 86.1263L64.9056 86.164L63.4347 82.194L63.4783 82.2396C58.6298 80.1282 53.2667 79.4916 48.0587 80.4095C46.3321 80.6978 44.6452 81.1875 43.0326 81.8684L43.0742 81.8168C42.703 83.0793 42.2028 84.8817 41.8237 86.1601L41.7205 86.1303Z" fill="#001958"/>
<path d="M56.2528 70.9528C56.0543 74.1289 56.8483 77.6503 59.2304 79.8974L60.0244 80.5465C59.2562 80.3897 58.353 80.1832 57.5808 80.082C55.1471 79.7496 52.6844 79.683 50.2362 79.8835C49.0386 79.9773 47.8516 80.1766 46.689 80.479L47.0979 79.941C48.2452 78.22 49.1941 76.3461 49.4144 74.2738C49.6311 72.184 49.1712 70.0798 48.1023 68.2711C48.7728 69.1132 49.2786 70.0742 49.5931 71.1037C50.6074 74.2797 49.7082 77.7972 47.475 80.2348L47.2269 79.8577C50.1528 79.2086 53.182 79.1808 56.1595 79.413C57.1602 79.4921 58.1548 79.6353 59.1371 79.8418L58.9108 80.2825C58.6029 79.9802 58.3262 79.6477 58.085 79.2899C56.4037 76.8801 55.9392 73.8172 56.2667 70.9528H56.2528Z" fill="#001958"/>
<path d="M60.068 86.1898L58.8969 80.2844C58.8969 80.2844 57.1778 80.203 54.2698 79.9688L54.8355 86.1898H60.068Z" fill="#001958"/>
<path d="M56.2925 78.1862C56.2925 78.1862 53.6723 73.2614 55.042 68.9539C55.042 68.9539 59.4448 64.9739 61.0407 55.6899C62.6367 46.4059 61.9975 34.0789 61.9975 34.0789C61.9975 34.0789 60.7529 32.2507 57.6662 31.7961C57.6662 31.7961 58.623 49.3517 58.2061 54.9475C57.5352 63.9397 57.0985 65.9763 54.7005 68.6442C54.7005 68.6442 53.1125 71.3915 53.8906 78.0274C54.6945 78.0028 55.4989 78.056 56.2925 78.1862Z" fill="#001958"/>
<path d="M77.2563 3.81723V3.83113C78.2642 3.84 79.2279 4.24564 79.9387 4.96015C80.6495 5.67467 81.0501 6.64049 81.0537 7.64833C81.0621 6.63725 81.4696 5.67043 82.1876 4.95844C82.9055 4.24645 83.8757 3.84697 84.8868 3.847V3.83113C83.8783 3.82329 82.9136 3.4181 82.2019 2.70348C81.4903 1.98886 81.0891 1.02244 81.0855 0.013916C81.0776 1.02466 80.6709 1.99139 79.9537 2.70369C79.2366 3.416 78.2671 3.81621 77.2563 3.81723Z" fill="#0092F3"/>
<path d="M71.6825 11.5529C72.2952 11.5586 72.8811 11.8052 73.3135 12.2395C73.7459 12.6737 73.99 13.2606 73.9931 13.8734C73.9983 13.2588 74.2461 12.6711 74.6826 12.2383C75.1191 11.8056 75.7088 11.5628 76.3235 11.5628C75.7104 11.5581 75.124 11.3118 74.6914 10.8774C74.2588 10.4429 74.015 9.85539 74.0129 9.24231C74.0077 9.85693 73.7599 10.4446 73.3234 10.8774C72.8869 11.3101 72.2971 11.5529 71.6825 11.5529Z" fill="#0092F3"/>
<path d="M81.3038 14.6991C81.9174 14.7043 82.5042 14.9513 82.9368 15.3865C83.3694 15.8217 83.6129 16.4099 83.6144 17.0236C83.6196 16.4089 83.8675 15.8213 84.3039 15.3885C84.7404 14.9558 85.3302 14.713 85.9448 14.713V14.7031C85.3324 14.6984 84.7466 14.4526 84.3141 14.019C83.8816 13.5854 83.6374 12.9989 83.6343 12.3865C83.6295 13.0015 83.3819 13.5897 82.9454 14.0229C82.5089 14.456 81.9188 14.6991 81.3038 14.6991Z" fill="#0092F3"/>
<path d="M75.063 21.2914C75.6764 21.2961 76.2632 21.5427 76.6958 21.9776C77.1285 22.4125 77.372 23.0005 77.3736 23.6139C77.3778 22.9988 77.6252 22.4103 78.0618 21.977C78.4985 21.5437 79.0888 21.3008 79.704 21.3014V21.2914C79.0907 21.2867 78.504 21.0405 78.0711 20.6061C77.6382 20.1717 77.394 19.5842 77.3914 18.9709C77.3883 19.5868 77.1417 20.1764 76.7055 20.6111C76.2693 21.0458 75.6788 21.2904 75.063 21.2914Z" fill="#0092F3"/>
<path d="M35.4874 18.9948L36.21 18.5382L36.8055 19.4751L37.8734 18.8022L37.2779 17.8633L38.0005 17.4067L39.5885 19.9099L38.8659 20.3664L38.2704 19.4295L37.2005 20.1044L37.796 21.0413L37.0735 21.4979L35.4874 18.9948Z" fill="white"/>
<path d="M39.6998 18.2503C39.3941 17.367 39.8586 16.5769 40.7022 16.2871C41.5459 15.9973 42.3974 16.3308 42.7011 17.2141C43.0049 18.0975 42.5423 18.8875 41.7086 19.1793C40.8749 19.4711 39.9995 19.1217 39.6998 18.2503ZM41.8833 17.498C41.8288 17.3681 41.7375 17.2569 41.6206 17.1783C41.5037 17.0996 41.3664 17.0568 41.2255 17.0551C41.0846 17.0535 40.9463 17.0931 40.8276 17.169C40.709 17.245 40.6151 17.3539 40.5575 17.4825C40.5 17.6111 40.4813 17.7538 40.5038 17.8929C40.5262 18.032 40.5889 18.1614 40.684 18.2654C40.7791 18.3693 40.9025 18.4432 41.0391 18.4779C41.1756 18.5126 41.3194 18.5067 41.4526 18.4607C41.5469 18.4298 41.6338 18.3794 41.7075 18.313C41.7813 18.2465 41.8404 18.1653 41.8809 18.0747C41.9215 17.984 41.9426 17.8859 41.9431 17.7866C41.9435 17.6873 41.9231 17.589 41.8833 17.498Z" fill="white"/>
<path d="M43.3481 15.5527L45.1347 15.2291C45.8076 15.108 46.278 15.37 46.3971 16.0231C46.5162 16.6762 46.1649 17.0871 45.492 17.2141L44.5411 17.3868L44.7099 18.3218L43.8742 18.4726L43.3481 15.5527ZM44.3149 16.1224L44.4121 16.6564L45.2617 16.5035C45.4781 16.4638 45.5674 16.3447 45.5376 16.178C45.5079 16.0112 45.3868 15.9298 45.1644 15.9695L44.3149 16.1224Z" fill="white"/>
<path d="M47.2567 14.9175L48.1103 14.8639L48.2214 16.6504L49.4125 14.7885L50.266 14.7349L50.4506 17.6906L49.5971 17.7442L49.4879 15.9696L48.3008 17.8176L47.4473 17.8712L47.2567 14.9175Z" fill="white"/>
<path d="M51.1989 17.7164H51.1334L51.1612 16.8628H51.2227C51.5106 16.8727 51.594 16.7378 51.6436 16.3983L51.8738 14.7388L54.3432 14.8202L54.2459 17.7779L53.3904 17.7481L53.4658 15.5328L52.5706 15.5031L52.4336 16.4837C52.3165 17.3313 52.0823 17.7442 51.1989 17.7164Z" fill="white"/>
<path d="M58.1188 17.2221C58.0216 17.9109 57.5432 18.1967 56.8405 18.0975L55.1075 17.8533L55.5224 14.9214L56.3641 15.0406L56.243 15.9001L57.1343 16.0251C57.829 16.1204 58.226 16.5293 58.1188 17.2221ZM56.1338 16.6266L56.0465 17.2459L56.8266 17.3551C57.0827 17.3928 57.2236 17.3094 57.2454 17.099C57.2673 16.8886 57.17 16.7735 56.9139 16.7358L56.1338 16.6266Z" fill="white"/>
<path d="M58.9287 16.9382C58.9765 16.7396 59.065 16.5532 59.1887 16.3906C59.3123 16.2281 59.4684 16.093 59.647 15.9939C59.8256 15.8948 60.0228 15.8339 60.2261 15.815C60.4295 15.7961 60.6346 15.8196 60.8283 15.8841C61.801 16.1601 61.9479 16.9382 61.9102 17.2737L61.0765 17.0374C61.0433 16.9343 60.984 16.8415 60.9043 16.7682C60.8247 16.6948 60.7274 16.6432 60.6219 16.6186C60.2249 16.5055 59.8835 16.7655 59.7664 17.1764C59.6492 17.5873 59.8001 17.9823 60.205 18.0955C60.3077 18.1314 60.4179 18.1399 60.5248 18.12C60.6317 18.1002 60.7316 18.0527 60.8144 17.9823L61.6442 18.2166C61.529 18.4706 61.001 19.1138 59.9966 18.8299C59.7979 18.7833 59.611 18.696 59.4477 18.5735C59.2844 18.4509 59.1483 18.2959 59.048 18.1182C58.9476 17.9404 58.8852 17.7438 58.8647 17.5407C58.8441 17.3376 58.8659 17.1324 58.9287 16.9382Z" fill="white"/>
<path d="M63.3135 16.7418L64.0797 17.1229L63.5279 18.2266L65.1378 17.6509L66.1164 18.1372L64.2683 18.7963L64.8519 20.815L63.8177 20.2989L63.3353 18.6117L62.7577 19.7669L61.9974 19.3898L63.3135 16.7418Z" fill="white"/>
<path d="M11.7313 129.866C11.7313 128.659 12.471 127.957 13.9365 127.957H15.3321V127.015H16.1137V127.957H17.5094C18.9748 127.957 19.7145 128.655 19.7145 129.866C19.7145 131.077 18.9748 131.806 17.5094 131.806H16.1137V132.891H15.3321V131.806H13.9365C12.471 131.806 11.7313 131.045 11.7313 129.866ZM15.3217 128.683H13.926C13.0014 128.683 12.5513 129.126 12.5513 129.88C12.5513 130.634 13.0014 131.08 13.926 131.08H15.3217V128.683ZM16.1032 128.683V131.08H17.4989C18.4235 131.08 18.8736 130.588 18.8736 129.88C18.8736 129.172 18.4235 128.683 17.4989 128.683H16.1032Z" fill="white"/>
<path d="M21.0648 127.096H21.8464V131.764L25.4263 127.096H26.2078V132.811H25.4263V128.125L21.8464 132.811H21.0648V127.096Z" fill="white"/>
<path d="M27.9803 127.096H28.7619V129.566H32.272V127.096H33.0536V132.811H32.272V130.292H28.7619V132.811H27.9803V127.096Z" fill="white"/>
<path d="M38.657 131.436H35.6145L34.9759 132.811H34.2048L36.8426 127.064H37.4637L40.112 132.811H39.292L38.657 131.436ZM38.3325 130.738L37.1357 128.128L35.9355 130.738H38.3325Z" fill="white"/>
<path d="M40.8937 132.86H40.7018V132.092H40.8379C41.5078 132.092 41.6927 131.642 41.8114 130.368L42.1184 127.092H46.3054V132.807H45.5238V127.818H42.7883L42.5371 130.459C42.394 132.054 42.087 132.86 40.8937 132.86Z" fill="white"/>
<path d="M54.2048 130.414C53.5767 130.543 52.9374 130.609 52.2963 130.613C50.8064 130.613 50.0597 130.02 50.0597 128.519V127.124H50.8378V128.519C50.8378 129.59 51.3053 129.96 52.2893 129.96C52.9328 129.954 53.5742 129.886 54.2048 129.758V127.134H54.9864V132.849H54.2048V130.414Z" fill="white"/>
<path d="M56.7552 127.096H61.2318V127.821H57.5299V129.416H59.742V130.138H57.5299V132.092H61.5598V132.814H56.7552V127.096Z" fill="white"/>
<path d="M64.5188 127.821H62.1427V127.096H67.673V127.821H65.3004V132.811H64.5188V127.821Z" fill="white"/>
<path d="M73.772 131.045C73.772 132.155 73.0742 132.79 71.7518 132.79H68.8872V127.075H69.6688V129.231H71.7623C73.0916 129.252 73.772 129.978 73.772 131.045ZM69.6513 129.974V132.068H71.7762C72.5718 132.068 72.966 131.68 72.966 131.021C72.966 130.403 72.5718 129.974 71.7762 129.974H69.6513ZM74.7281 127.092H75.5166V132.807H74.735L74.7281 127.092Z" fill="white"/>
<path d="M77.296 127.096H80.2688C81.5319 127.096 82.1913 127.699 82.1913 128.746C82.1913 129.793 81.5319 130.428 80.2688 130.428H78.0776V132.811H77.296V127.096ZM78.0776 127.821V129.706H80.2932C81.0224 129.706 81.3853 129.311 81.3853 128.763C81.3853 128.216 81.0364 127.821 80.2932 127.821H78.0776Z" fill="white"/>
<path d="M83.5625 127.096H88.0356V127.821H84.3336V129.416H86.5457V130.138H84.3336V132.092H88.3601V132.814H83.5625V127.096Z" fill="white"/>
<path d="M88.9812 132.811L91.4759 129.915L89.0335 127.096H90.0803L92.0028 129.336L93.9358 127.096H94.8918L92.4773 129.887L95 132.818H94.0091L91.9644 130.47L89.9267 132.818L88.9812 132.811Z" fill="white"/>
<path d="M34.7668 93.3975H41.1368L40.8609 95.1224H36.6248L36.472 96.115H38.993L38.7091 97.8816H36.1921L36.0115 99.0469H40.6564L40.3607 100.861H33.5818L34.7668 93.3975Z" fill="white"/>
<path d="M44.3644 95.2336H41.6946L41.9864 93.3934H49.46L49.1583 95.2336H46.4884L45.5932 100.857H43.4712L44.3644 95.2336Z" fill="white"/>
<path d="M49.6169 97.4965C49.5295 95.0589 51.2208 93.2724 53.5333 93.2724C56.2151 93.2724 57.0032 95.0589 57.0965 95.9204H54.9308C54.8001 95.6856 54.6062 95.4921 54.3712 95.3619C54.1361 95.2318 53.8692 95.1701 53.6008 95.184C52.4098 95.184 51.7448 96.1924 51.7885 97.3913C51.8222 98.358 52.3622 99.0727 53.2872 99.0727C53.5543 99.0858 53.8203 99.0298 54.0595 98.9102C54.2988 98.7906 54.5031 98.6114 54.6529 98.3898H56.8066C56.6132 99.1514 56.1656 99.8242 55.538 100.297C54.9103 100.77 54.1401 101.014 53.3547 100.99C51.1374 100.99 49.6903 99.5471 49.6169 97.4965Z" fill="white"/>
<path d="M58.6229 93.3975H60.7568L60.0442 97.8955L64.046 93.3975H66.1799L64.9889 100.861H62.8609L63.5755 96.3829L59.5717 100.861H57.4319L58.6229 93.3975Z" fill="white"/>
<path d="M69.61 95.2336H66.9402L67.234 93.3934H74.7016L74.4039 95.2336H71.734L70.8388 100.857H68.7168L69.61 95.2336Z" fill="white"/>
<path d="M75.7457 93.3975H77.8777L77.165 97.8955L81.1668 93.3975H83.3027L82.1117 100.861H79.9838L80.6964 96.3829L76.6866 100.861H74.5607L75.7457 93.3975Z" fill="white"/>
<path d="M29.8837 96.1626H27.9801L28.127 95.2475H32.6191L32.9109 93.3975H26.2869L25.8462 96.1626H24.413L24.145 97.8538H25.5782L25.0998 100.859H29.5145C31.573 100.859 32.9506 99.956 32.8891 98.1476C32.8414 96.8772 31.7655 96.1626 29.8837 96.1626ZM29.6852 99.0111H27.5255L27.724 97.8538H29.9651C30.4058 97.8538 30.6321 98.0126 30.642 98.3064C30.648 98.7689 30.2788 99.0052 29.6912 99.0052L29.6852 99.0111Z" fill="white"/>
<path d="M12.1237 105.719H13.9598V108.365L16.4967 105.719H18.839L15.925 108.748L18.972 112.063H16.4927L13.9598 109.294V112.063H12.1276L12.1237 105.719Z" fill="white"/>
<path d="M20.5421 112.063L21.8205 109.945L19.0137 105.719H21.1972L22.8507 108.22L24.3613 105.719H26.3464L22.5232 112.071L20.5421 112.063Z" fill="white"/>
<path d="M33.1789 109.998C33.1789 111.374 32.2678 112.063 30.7651 112.063H26.9777V105.711H32.6072V107.283H28.7999V108.077H30.7651C32.2678 108.077 33.1789 108.732 33.1789 109.998ZM28.7999 109.508V110.5H30.6142C31.0787 110.5 31.303 110.348 31.303 110.008C31.303 109.669 31.0787 109.518 30.6142 109.518L28.7999 109.508Z" fill="white"/>
<path d="M33.9749 108.891C33.9749 106.89 35.4676 105.611 37.3792 105.611C39.2908 105.611 40.7835 106.89 40.7835 108.891C40.7835 110.891 39.2908 112.17 37.3792 112.17C35.4676 112.17 33.9749 110.866 33.9749 108.891ZM38.9255 108.891C38.9255 107.962 38.3439 107.237 37.3792 107.237C36.4145 107.237 35.8328 107.962 35.8328 108.891C35.8328 109.82 36.4145 110.544 37.3792 110.544C38.3439 110.544 38.9255 109.82 38.9255 108.891Z" fill="white"/>
<path d="M41.8474 105.719H43.6796V108.365L46.2184 105.719H48.5588L45.6448 108.748L48.6977 112.063H46.2184L43.6796 109.294V112.063H41.8474V105.719Z" fill="white"/>
<path d="M51.465 105.719H55.3596C56.8265 105.719 57.7198 106.451 57.7198 107.872C57.7198 109.294 56.8265 110.026 55.3596 110.026H53.2872V112.063H51.465V105.719ZM53.2872 107.291V108.454H55.1373C55.6097 108.454 55.8419 108.238 55.8419 107.872C55.8419 107.507 55.6196 107.291 55.1373 107.291H53.2872Z" fill="white"/>
<path d="M58.4523 108.891C58.4523 106.89 59.945 105.611 61.8566 105.611C63.7682 105.611 65.2609 106.89 65.2609 108.891C65.2609 110.891 63.7702 112.17 61.8566 112.17C59.943 112.17 58.4523 110.866 58.4523 108.891ZM63.4029 108.891C63.4029 107.962 62.8213 107.237 61.8566 107.237C60.8919 107.237 60.3122 107.962 60.3122 108.891C60.3122 109.82 60.8919 110.544 61.8566 110.544C62.8213 110.544 63.4029 109.82 63.4029 108.891Z" fill="white"/>
<path d="M66.049 108.891C66.049 106.979 67.4067 105.611 69.356 105.611C71.5177 105.611 72.278 107.13 72.3931 107.844H70.5331C70.4049 107.652 70.2289 107.495 70.0222 107.391C69.8155 107.287 69.5853 107.238 69.354 107.249C68.4508 107.249 67.9149 107.981 67.9149 108.893C67.9149 109.804 68.4508 110.536 69.354 110.536C69.5875 110.551 69.8208 110.504 70.0301 110.4C70.2394 110.295 70.4171 110.137 70.545 109.941H72.3951C72.3058 110.536 71.6011 112.166 69.358 112.166C67.4067 112.17 66.049 110.794 66.049 108.891Z" fill="white"/>
<path d="M72.9926 108.891C72.9926 106.979 74.3523 105.611 76.2996 105.611C78.4613 105.611 79.2216 107.13 79.3367 107.844H77.4807C77.3528 107.651 77.1768 107.495 76.97 107.39C76.7633 107.286 76.5329 107.237 76.3016 107.249C75.3984 107.249 74.8624 107.981 74.8624 108.893C74.8624 109.804 75.3984 110.536 76.3016 110.536C76.535 110.551 76.7681 110.503 76.9773 110.399C77.1864 110.294 77.3642 110.136 77.4926 109.941H79.3407C79.2513 110.536 78.5367 112.166 76.3036 112.166C74.3523 112.17 72.9926 110.794 72.9926 108.891Z" fill="white"/>
<path d="M80.349 105.719H82.1812V109.544L84.9761 105.719H86.8103V112.071H84.9781V108.255L82.1832 112.063H80.351L80.349 105.719Z" fill="white"/>
<path d="M88.1501 105.719H89.9863V109.544L92.7832 105.719H94.6154V112.071H92.7832V108.255L89.9863 112.063H88.1541L88.1501 105.719Z" fill="white"/>
<path d="M0.197632 116.444H6.47825V122.796H4.64806V118.032H2.02981V122.796H0.197632V116.444Z" fill="white"/>
<path d="M7.54419 119.616C7.54419 117.613 9.03494 116.336 10.9485 116.336C12.8621 116.336 14.3528 117.613 14.3528 119.616C14.3528 121.619 12.8601 122.895 10.9485 122.895C9.03693 122.895 7.54419 121.591 7.54419 119.616ZM12.4948 119.616C12.4948 118.687 11.9132 117.962 10.9485 117.962C9.98379 117.962 9.40218 118.687 9.40218 119.616C9.40218 120.545 9.98379 121.267 10.9485 121.267C11.9132 121.267 12.4948 120.545 12.4948 119.616Z" fill="white"/>
<path d="M17.6063 116.444H20.2603L21.5744 119.963L22.8865 116.444H25.4253V122.796H23.6388V118.458L22.0508 122.792H20.8359L19.2797 118.494V122.792H17.6003L17.6063 116.444Z" fill="white"/>
<path d="M26.7672 116.444H28.5994V120.267L31.3943 116.444H33.2265V122.796H31.3943V118.988L28.5994 122.796H26.7672V116.444Z" fill="white"/>
<path d="M34.5684 116.444H36.4005V118.826H39.1081V116.444H40.9403V122.796H39.1081V120.414H36.4005V122.796H34.5684V116.444Z" fill="white"/>
<path d="M42.2821 116.444H44.1143V120.267L46.9112 116.444H48.7414V122.796H46.9112V118.988L44.1143 122.796H42.2821V116.444Z" fill="white"/>
<path d="M50.0575 118.955H53.1224V120.563H50.0575V118.955Z" fill="white"/>
<path d="M54.105 119.552C54.105 118.052 55.026 117.283 56.5545 117.283H57.8587V116.354H59.6809V117.283H60.9851C62.5136 117.283 63.4346 118.052 63.4346 119.552C63.4346 121.053 62.5136 121.833 60.9771 121.833H59.6809V122.887H57.8587V121.833H56.5624C55.026 121.833 54.105 121.027 54.105 119.552ZM57.8587 118.855H56.7868C56.2409 118.855 55.9927 119.07 55.9927 119.552C55.9927 119.981 56.2607 120.249 56.7868 120.249H57.8587V118.855ZM59.6809 118.855V120.245H60.7528C61.2809 120.245 61.5468 119.977 61.5468 119.548C61.5468 119.066 61.2967 118.851 60.7528 118.851L59.6809 118.855Z" fill="white"/>
<path d="M64.7765 122.788L66.0549 120.67L63.248 116.444H65.4316L67.0851 118.945L68.5957 116.444H70.5807L66.7556 122.796L64.7765 122.788Z" fill="white"/>
<path d="M73.1136 118.016H70.8169V116.444H77.2325V118.016H74.9358V122.78H73.1136V118.016Z" fill="white"/>
<path d="M84.3925 120.723C84.3925 122.099 83.4794 122.788 81.9787 122.788H78.1893V116.436H83.8189V118.008H80.0136V118.802H81.9787C83.4794 118.802 84.3925 119.451 84.3925 120.723ZM80.0136 120.231V121.224H81.8279C82.2924 121.224 82.5147 121.073 82.5147 120.733C82.5147 120.394 82.2924 120.241 81.8279 120.241L80.0136 120.231Z" fill="white"/>
<path d="M85.1885 119.616C85.1885 117.613 86.6792 116.336 88.5928 116.336C90.5064 116.336 91.9971 117.613 91.9971 119.616C91.9971 121.619 90.5044 122.895 88.5928 122.895C86.6812 122.895 85.1885 121.591 85.1885 119.616ZM90.1371 119.616C90.1371 118.687 89.5575 117.962 88.5928 117.962C87.6281 117.962 87.0465 118.687 87.0465 119.616C87.0465 120.545 87.6281 121.267 88.5928 121.267C89.5575 121.267 90.1371 120.545 90.1371 119.616Z" fill="white"/>
<path d="M92.6245 122.877H92.4796V121.039H92.6146C93.2319 121.039 93.4086 120.743 93.4821 120.011L93.8572 116.438H99.1553V122.79H97.331V118.026H95.4115L95.1872 120.134C94.9907 121.974 94.5182 122.877 92.6245 122.877Z" fill="white"/>
<path d="M101.444 122.788L102.722 120.67L99.9115 116.444H102.095L103.749 118.945L105.259 116.444H107.244L103.419 122.796L101.444 122.788Z" fill="white"/>
<defs>
<linearGradient id="paint0_linear_6694_4093" x1="21.5942" y1="64.5213" x2="81.2066" y2="64.5213" gradientUnits="userSpaceOnUse">
<stop stop-color="#0092F3" stop-opacity="0"/>
<stop offset="0.04" stop-color="#0092F3" stop-opacity="0.07"/>
<stop offset="0.19" stop-color="#0191F2" stop-opacity="0.31"/>
<stop offset="0.34" stop-color="#0291F2" stop-opacity="0.52"/>
<stop offset="0.48" stop-color="#0291F2" stop-opacity="0.69"/>
<stop offset="0.62" stop-color="#0290F1" stop-opacity="0.83"/>
<stop offset="0.76" stop-color="#0390F1" stop-opacity="0.92"/>
<stop offset="0.89" stop-color="#0390F1" stop-opacity="0.98"/>
<stop offset="1" stop-color="#0390F1"/>
</linearGradient>
<linearGradient id="paint1_linear_6694_4093" x1="50.4745" y1="7.99366" x2="50.4745" y2="56.4343" gradientUnits="userSpaceOnUse">
<stop stop-color="#041854"/>
<stop offset="1" stop-color="#0390F1"/>
</linearGradient>
<linearGradient id="paint2_linear_6694_4093" x1="58.3986" y1="27.5581" x2="58.3986" y2="67.1058" gradientUnits="userSpaceOnUse">
<stop stop-color="#041854"/>
<stop offset="1" stop-color="#0390F1"/>
</linearGradient>
</defs>
</svg>
