<svg width="854" height="268" fill="none" xmlns="http://www.w3.org/2000/svg"><path d="M128.761 86.224v2.27c9.905 1.789 17.471 5.503 22.699 11.143 5.227 5.503 7.841 12.656 7.841 21.46 0 13.757-3.989 23.868-11.968 30.334-7.841 6.465-19.947 9.698-36.317 9.698H9.286V18.749h98.428c16.92 0 29.026 2.957 36.317 8.872 7.291 5.916 10.937 15.752 10.937 29.508 0 15.545-8.736 25.244-26.207 29.095Zm-35.904 17.127H63.143v20.635h30.126c4.678 0 8.117-.825 10.318-2.476 2.201-1.651 3.302-4.402 3.302-8.254 0-3.714-1.032-6.259-3.096-7.635-2.063-1.513-5.709-2.27-10.936-2.27Zm-3.095-47.46h-26.62v19.397h27.239c4.127 0 7.153-.688 9.079-2.064 2.063-1.513 3.095-4.058 3.095-7.635 0-3.714-.894-6.259-2.682-7.634-1.789-1.376-5.159-2.064-10.111-2.064Zm161.195 108.333c-16.646 0-30.402-1.1-41.27-3.301-10.73-2.339-19.741-6.397-27.032-12.175-7.153-5.778-12.312-13.344-15.476-22.698-3.026-9.355-4.539-21.323-4.539-35.905 0-14.857 1.65-27.1 4.952-36.73 3.302-9.767 8.735-17.402 16.302-22.905 7.703-5.64 16.783-9.492 27.238-11.555 10.455-2.201 23.73-3.302 39.825-3.302 16.095 0 29.37 1.1 39.825 3.302 10.455 2.063 19.466 5.915 27.032 11.555 7.703 5.503 13.206 13.138 16.508 22.905 3.301 9.63 4.952 21.873 4.952 36.73 0 28.339-6.534 47.804-19.603 58.397-13.069 10.455-35.974 15.682-68.714 15.682Zm0-40.651c14.857 0 24.28-1.925 28.27-5.777 3.989-3.99 5.984-13.207 5.984-27.651 0-7.979-.344-13.963-1.032-17.952-.688-4.127-2.407-7.498-5.159-10.111-2.613-2.614-5.984-4.196-10.111-4.746-3.989-.688-9.973-1.032-17.952-1.032-15.132 0-24.693 1.926-28.683 5.778-3.851 3.851-5.777 13.206-5.777 28.063 0 14.444 1.994 23.661 5.984 27.651 3.989 3.852 13.481 5.777 28.476 5.777Zm152.965-32.809c0 24.762-3.851 42.714-11.555 53.857-7.566 11.005-19.672 16.508-36.318 16.508h-17.745v-38.381c6.465 0 10.936-2.958 13.412-8.873 2.476-6.053 3.714-15.682 3.714-28.889V18.748h140.524V161.13H441.89V61.049h-37.968v29.715Zm158.334-72.016v52H615.7v-52h54.064V161.13H615.7v-47.873h-53.444v47.873h-53.857V18.749h53.857ZM672.873 161.13l64.381-142.38h50.762l63.968 142.38h-60.048l-5.984-16.302h-48.904l-5.984 16.302h-58.191Zm88.937-83.984-13.413 36.524h26.413l-13-36.524ZM91.104 167.23v76.012H62.242v-53.429H33.71v53.429H4.957V167.23h86.147Zm52.555 77.665c-8.886 0-16.23-.588-22.032-1.763-5.728-1.248-10.539-3.415-14.431-6.5-3.819-3.084-6.573-7.123-8.263-12.117-1.615-4.994-2.423-11.384-2.423-19.169 0-7.931.881-14.468 2.644-19.609 1.762-5.214 4.663-9.29 8.703-12.228 4.112-3.011 8.96-5.067 14.541-6.169 5.582-1.175 12.669-1.762 21.261-1.762 8.593 0 15.68.587 21.262 1.762 5.581 1.102 10.392 3.158 14.431 6.169 4.113 2.938 7.05 7.014 8.813 12.228 1.763 5.141 2.644 11.678 2.644 19.609 0 15.129-3.489 25.521-10.466 31.176-6.976 5.582-19.204 8.373-36.684 8.373Zm0-21.702c7.932 0 12.963-1.029 15.093-3.085 2.129-2.13 3.194-7.05 3.194-14.762 0-4.259-.183-7.454-.55-9.584-.368-2.203-1.286-4.002-2.754-5.398-1.396-1.395-3.195-2.24-5.398-2.533-2.13-.368-5.325-.551-9.585-.551-8.078 0-13.182 1.028-15.312 3.084-2.057 2.057-3.085 7.051-3.085 14.982 0 7.712 1.065 12.632 3.195 14.762 2.13 2.056 7.197 3.085 15.202 3.085Zm134.867-55.963v53.429h11.016v39.108h-26.329v-16.525h-46.929v16.525h-26.329v-39.108h11.016c1.763-3.746 3.011-7.528 3.746-11.347.734-3.892 1.138-7.234 1.212-10.025.147-2.79.22-7.931.22-15.422V167.23h72.377Zm-47.15 21.922c0 14.322-1.505 25.007-4.516 32.058h23.134v-33.6h-18.618v1.542Zm148.628-21.922v53.429h11.016v39.108h-26.328v-16.525h-46.93v16.525h-26.328v-39.108h11.016c1.762-3.746 3.011-7.528 3.745-11.347.735-3.892 1.139-7.234 1.212-10.025.147-2.79.22-7.931.22-15.422V167.23h72.377Zm-47.149 21.922c0 14.322-1.506 25.007-4.517 32.058h23.134v-33.6h-18.617v1.542Zm132.624 34.041v20.049h-71.606V167.23h71.606v20.05h-42.853v8.592h42.853V214.6h-42.853v8.593h42.853Zm87.615-25.889c0 10.943-2.387 19.022-7.16 24.236-4.774 5.215-12.045 7.822-21.813 7.822h-23.685v13.88h-28.752V167.23h52.217c10.282 0 17.699 2.35 22.253 7.051 4.627 4.626 6.94 12.301 6.94 23.023Zm-38.226-9.694h-14.432v21.262h14.652c3.158 0 5.471-.808 6.94-2.424 1.543-1.689 2.314-4.48 2.314-8.372 0-4.113-.661-6.867-1.983-8.263-1.322-1.468-3.819-2.203-7.491-2.203Zm82.826-20.38h28.753v38.447l17.846-38.447h29.744l-19.168 36.354 22.583 39.658h-31.507l-12.558-29.083h-6.94v29.083h-28.753v-29.083h-6.94l-12.558 29.083h-31.507l22.473-39.768-19.168-36.244h29.854l17.846 38.447V167.23Zm166.513 76.012h-33.379l-15.533-30.074h-7.491v30.074h-28.752V167.23h28.752v37.786l23.024-37.786h30.846l-24.016 35.252 26.549 40.76Zm30.762-76.012v37.235l29.634-37.235h24.236v76.012h-28.532v-36.243l-30.185 36.243h-23.685V167.23h28.532Z" fill="#fff"/></svg>