<svg width="1929" height="1817" viewBox="0 0 1929 1817" fill="none" xmlns="http://www.w3.org/2000/svg">
<path d="M1278.6 374.25C1273.24 372.324 1269.88 369.715 1274.05 363.548C1275.36 361.622 1276.87 358.77 1276.34 356.893C1274.92 351.847 1280.85 342.608 1271.66 342.34C1263.15 342.096 1271.75 348.702 1270.29 352.603C1267.37 360.379 1266.88 369.082 1265.27 377.37C1264.78 379.905 1263.18 382.05 1260.45 382.001C1257.18 381.953 1257.79 378.686 1256.76 376.663C1252.11 367.546 1256.86 357.356 1251.09 347.288C1246.02 338.464 1243.68 341.219 1239.31 345.046C1231 352.359 1234.51 363.207 1232.17 372.324C1231.29 375.688 1234.9 375.517 1237.22 374.103C1243.41 370.374 1248.28 375.712 1250.96 378.491C1255.57 383.22 1247.06 383.464 1245.24 385.609C1238.19 393.922 1235.9 402.6 1237.19 412.863C1237.39 414.399 1237.48 415.959 1237.66 417.495C1219.5 415.813 1238.85 437.069 1225.08 438.069C1225.44 439.068 1225.57 440.385 1226.27 441.043C1228.34 442.92 1230.66 442.554 1232.98 441.262C1237.29 438.873 1238.87 436.07 1236.68 430.878C1233.93 424.393 1239.12 421.517 1243.82 419.055C1246.77 417.519 1249.35 417.105 1252.16 420.542C1256.37 425.685 1253.16 428.416 1250.01 431.755C1247.38 434.534 1243.68 436.582 1246.92 441.896C1249.21 445.65 1245.11 446.357 1242.29 446.674C1233.73 447.625 1229.9 454.133 1224.01 459.253C1207.41 473.757 1196.97 488.798 1202.41 511.59C1202.7 512.834 1201.02 514.443 1200.51 515.978C1198.83 521.171 1192.76 530.093 1196.12 530.775C1204.09 532.36 1198.83 522.219 1202.34 518.318C1204.38 516.027 1205.02 511.493 1209.02 512.541C1213.26 513.662 1210.09 517.197 1210.14 519.684C1210.19 522.487 1209.26 526.558 1210.72 527.923C1221.32 537.576 1213.35 544.256 1207.48 551.301C1205.38 553.812 1204.99 559.15 1199.9 557.273C1195.63 555.713 1196.1 551.593 1196.17 547.888C1196.17 546.62 1197.73 544.695 1195.12 544.28C1194.95 544.256 1194.8 546.62 1194.1 547.327C1188.3 553.3 1187.25 560.588 1187.27 568.535C1187.27 573.606 1187.49 579.578 1185.03 583.576C1178.91 593.546 1179.69 596.764 1191.68 592.791C1193.88 592.059 1195.9 592.084 1196.63 594.473C1198 598.787 1194.95 603.127 1192.05 603.224C1167.36 604.15 1177.67 623.725 1174.18 635.841C1173.4 638.522 1172.62 641.179 1172.06 643.91C1167.21 666.41 1162.44 688.91 1157.63 711.434C1157.39 712.58 1157.24 713.75 1157.05 714.92C1167.16 714.164 1164.17 724.671 1168.77 728.45C1171.94 731.058 1171.36 727.036 1171.87 725.695C1178.43 708.704 1185.64 691.908 1191.22 674.576C1200.83 644.763 1212.55 615.778 1224.1 586.696C1248.18 526.095 1271.56 465.201 1296.2 404.843C1307.93 376.127 1322.28 348.507 1334.67 320.059C1350.83 282.957 1367.96 246.343 1385.29 209.801C1400.48 177.794 1414.42 145.299 1433.65 115.291C1443.59 99.7628 1450.47 82.2844 1458.9 65.7811C1474.84 34.4564 1494.56 5.3989 1513.33 -24.195C1517.77 -31.1668 1527.91 -32.0688 1532.9 -28.1197C1538.65 -23.5855 1545.48 -18.7101 1551.09 -16.3699C1564.52 -10.7388 1573.83 3.66811 1585.16 5.98393C1599.88 8.98232 1612.19 17.2218 1620.53 24.7299C1630.47 33.7007 1645.05 38.8199 1650.97 52.3249C1652.12 54.9332 1654.53 55.2745 1656.99 55.6889C1669.72 57.8098 1669.98 66.2442 1664.26 74.2399C1658.58 82.1625 1656.19 91.1821 1654.65 99.7628C1653.21 107.759 1651.46 109.319 1644.29 107.222C1639.32 105.76 1633.98 103.005 1638.3 113.463C1639.81 117.144 1638.79 121.824 1643 125.895C1644.9 127.723 1641.27 133.55 1636.86 134.256C1634.23 134.671 1631.67 133.866 1628.89 135.548C1622.19 139.571 1621.48 141.838 1618.97 150.053C1615.7 160.803 1610.49 170.822 1599.88 176.648C1595.11 179.281 1588.01 181.743 1592.16 188.813C1596.13 195.614 1600.61 189.763 1605.25 187.618C1615.53 182.889 1620.33 173.236 1626.94 165.264C1632.28 158.804 1639.47 155.708 1646.22 158.658C1654.41 162.241 1665.74 163.753 1667.04 176.161C1667.23 177.94 1664.7 181.987 1669.69 179.842C1681.78 174.698 1687.56 185.424 1693.94 191.031C1697.67 194.297 1700.35 196.955 1705.3 197.93C1710.4 198.953 1712.74 203.926 1716.17 207.022C1725.7 215.676 1736.43 222.843 1744.67 233.203C1747.23 236.421 1749.96 238.786 1750.4 243.1C1750.59 244.978 1751.59 248.073 1752.71 248.317C1770.16 252.096 1761.17 258.824 1755 265.674C1753.54 267.283 1752.81 270.11 1752.81 272.377C1752.81 285.249 1745.86 291.879 1734.04 295.073C1724.63 297.632 1724.75 297.973 1729.31 306.262C1729.85 307.261 1730.34 309.431 1730.14 309.528C1720.27 313.916 1724.66 325.325 1718.81 332.101C1712.83 339.025 1714.86 349.726 1709.76 357.722C1708.5 359.696 1711.23 359.77 1712.69 358.721C1715.3 356.844 1718.83 355.406 1720.2 352.846C1728.58 337.05 1741.33 324.301 1750.61 309.309C1766.6 283.567 1785.93 260.359 1803.63 235.909C1827.39 203.098 1856.33 174.796 1882.99 144.495C1897.2 128.357 1920.21 132.94 1928.69 153.441C1929.26 154.831 1930.5 156.732 1931.69 156.952C1946.34 159.633 1955.31 171.724 1966.04 179.842C1976.35 187.618 1986.1 197.491 1995.68 206.827C2004.74 215.701 2008.59 229.742 2022.02 234.154V241.467C2010.62 247.391 1999.58 248.561 1987.9 241.248C1975.96 233.764 1961.45 235.739 1951.53 244.709C1925.38 268.355 1906.27 297.973 1884.09 324.959C1863.08 350.531 1846.75 379.466 1827.49 406.305C1824.18 410.937 1820.74 415.349 1815.87 418.47C1813.65 419.884 1811.6 423.223 1808.67 420.274C1806.26 417.836 1807.72 414.886 1809.26 412.473C1812.26 407.695 1815.01 402.673 1818.64 398.407C1827.61 387.925 1832.05 375.127 1837.88 362.987C1841.39 355.699 1851.94 353.895 1852.7 343.656C1852.91 340.658 1856.42 337.928 1852.89 334.685C1855.52 331.833 1859.23 329.639 1858.89 324.959C1858.28 325.203 1857.2 325.349 1857.13 325.715C1855.74 332.077 1843.46 330.103 1846.67 340.707C1848.94 348.19 1838.61 350.311 1836.49 357.307C1834.54 363.719 1828.32 368.813 1824.06 374.542C1823.13 375.785 1821.86 377.199 1821.74 378.613C1820.13 397.7 1818.45 399.504 1796.9 403.965C1795.78 404.209 1794.81 403.868 1795.22 405.794C1797.63 417.519 1791.88 425.978 1781.59 432.608C1776.57 435.851 1779.43 445.358 1775.36 451.159C1774.99 451.671 1780.38 452.671 1782.57 450.818C1785.62 448.259 1788.15 445.089 1790.93 442.189C1793.2 439.8 1795.88 436.801 1799.12 439.385C1802.41 442.018 1801.85 446.162 1799.19 449.185C1777.77 473.586 1770.7 505.545 1754.78 532.774C1748.57 543.427 1747.37 556.761 1737.11 565.318C1735.5 566.658 1735.87 570.632 1735.7 573.411C1735.6 574.825 1736.36 576.287 1736.72 577.726C1737.79 576.702 1739.35 575.849 1739.84 574.605C1742.3 568.413 1746.2 559.955 1752.74 564.464C1758.41 568.389 1755.51 577.555 1750.76 584.112C1743.84 593.717 1737.53 603.736 1731.07 613.658C1729.48 616.095 1726.36 619.337 1733.41 618.338C1736.31 617.923 1742.57 613.974 1742.45 621.434C1742.38 627.431 1747.18 635.402 1737.33 638.863C1729.09 641.764 1720.95 642.008 1712.3 640.424C1694.9 637.23 1679.56 626.48 1661.31 626.699C1656.14 612.829 1642.51 623.555 1633.03 617.168C1624.6 611.488 1611.44 610.172 1601.08 604.882C1590.45 599.446 1580.19 593.4 1569.34 588.281C1557.25 582.577 1557.42 568.048 1556.42 556.079C1554.52 533.335 1558.11 510.957 1561.66 488.53C1565.1 466.858 1567.22 444.968 1569.88 423.15C1570 422.126 1569.61 421.054 1569.46 419.981C1568.76 420.785 1567.61 421.468 1567.42 422.37C1563.54 439.702 1553.77 454.816 1548.77 471.539C1545.72 481.68 1538.19 489.48 1536.63 499.841C1536.07 503.595 1532.66 508.031 1536.17 511.298C1540.51 515.32 1541.99 509.153 1544.82 507.69C1547.16 506.471 1549.6 505.837 1551.4 508.056C1553.57 510.737 1552.6 513.662 1550.18 515.539C1545.28 519.342 1543.21 524.169 1543.24 530.263C1543.26 534.407 1542.19 538.454 1537.9 540.234C1536.92 540.624 1534.56 539.478 1533.88 538.381C1531.29 534.31 1531.56 530.093 1533.85 525.778C1535.05 523.535 1540.46 522.56 1537.48 519.586C1535.19 517.295 1533.22 521.951 1530.93 523.218C1520.54 528.996 1522.52 542.159 1515.06 549.692C1514.69 550.057 1515.08 551.154 1515.13 551.91C1516.08 551.666 1517.45 551.715 1517.89 551.106C1519.47 548.814 1521.23 546.474 1522.03 543.866C1523.15 540.355 1523.52 535.724 1528.37 536.894C1532.22 537.82 1531.25 542.306 1530.81 545.328C1529.1 557.249 1527.93 569.413 1525.88 581.09C1523.88 592.547 1513.52 595.667 1512.67 605.15C1512.53 606.661 1511.28 608.173 1511.48 609.562C1513.09 621.068 1507.65 627.333 1496.97 630.331C1485.76 633.476 1489.83 642.959 1490.59 649.663C1491.22 655.416 1491.17 658.999 1486.71 663.362C1473.87 675.844 1475.21 694.833 1466.7 709.46C1465.34 711.824 1465.78 713.677 1469.55 714.189C1478.18 715.335 1477.28 719.674 1471.99 724.305C1466.58 729.035 1466.29 736.811 1455.56 739.224C1444.67 741.662 1442.23 757.97 1439.3 769.184C1437.26 777.106 1446.11 772.475 1449.81 774.01C1451.2 774.595 1453.86 771.89 1454.49 775.083C1454.71 776.229 1453.37 778.252 1452.2 779.008C1443.33 784.663 1439.62 791.026 1447.3 800.679C1449.64 803.604 1447.3 807.505 1444.03 808.602C1437.53 810.796 1437.79 815.549 1437.01 820.961C1436.65 823.447 1444.55 836.123 1430.58 829.03C1429.36 828.42 1429.04 831.467 1429.41 832.906C1430.38 836.635 1432.7 839.682 1428.02 843.534C1423.66 847.142 1430.33 846.898 1431.48 848.799C1433.84 852.822 1440.43 847.971 1441.72 853.017C1443.91 861.573 1447.18 870.227 1445.4 879.222C1443.38 889.534 1429.14 899.138 1417.05 899.626C1394.82 900.479 1374.18 894.555 1353.99 885.926C1350.48 884.439 1346 884.926 1341.98 885.048C1335.25 885.268 1329.69 882.83 1323.67 879.929C1307.22 871.982 1291.08 863.158 1273.61 857.478C1261.81 853.626 1263.59 844.485 1265.32 835.465C1265.73 833.344 1268.22 830.614 1264.47 829.663C1263.32 829.371 1260.2 831.857 1260.15 833.149C1259.57 845.435 1252.47 855.333 1248.94 866.327C1243.75 882.44 1239.53 899.089 1234.19 915.227C1229.39 929.756 1227.59 945.309 1219.45 958.789C1216.84 963.104 1213.43 967.833 1216.91 974.342C1217.57 975.585 1223.47 988.115 1210.99 989.114C1209.21 989.261 1206.02 994.77 1206.55 997.086C1209.31 1008.71 1203.92 1016.88 1198.73 1026.8C1191.29 1041.01 1185.88 1057.32 1184.25 1073.22C1182.81 1087.38 1173.31 1099.2 1175.16 1113.66C1175.52 1116.48 1172.87 1117.78 1172.06 1119.82C1164.41 1139.45 1153.98 1158.49 1156.88 1180.65C1157.78 1187.54 1150.96 1189.81 1148.57 1194.44C1144.37 1202.56 1142.45 1210.82 1140.21 1219.16C1134.77 1239.22 1129.7 1259.41 1124.68 1279.57C1123.17 1285.66 1119.73 1291.95 1125.05 1297.97C1126.34 1299.44 1126.36 1301.68 1125.02 1302.21C1108.69 1308.63 1112 1322.4 1112.39 1335.15C1112.49 1338.02 1111.64 1340.22 1109.42 1342.61C1106.76 1345.41 1103.64 1349.75 1103.99 1353.11C1106.08 1374.61 1092.85 1392.6 1090.95 1413.06C1090.75 1415.25 1089.63 1419.22 1093.29 1418.42C1105.11 1415.79 1098.79 1420.49 1096.99 1425.34C1095.5 1429.32 1089.68 1437.07 1101.38 1437.09C1104.72 1437.09 1104.72 1439.97 1105.13 1442.33C1105.47 1444.31 1105.35 1447.65 1106.35 1448.04C1124.95 1455.42 1107.64 1466.32 1108.76 1475.34C1109.03 1477.46 1105.62 1486.51 1100.79 1477.05C1099.7 1474.88 1099.06 1476.63 1098.7 1477.24C1098.11 1478.27 1098.04 1479.61 1097.48 1480.66C1095.19 1484.77 1090.56 1486.07 1087.17 1484.85C1082.66 1483.24 1086.09 1479.12 1087.26 1476.63C1089.97 1470.83 1087.87 1463.37 1093.53 1458.72C1094.6 1457.81 1095.43 1457.33 1093.46 1456.64C1087.36 1454.55 1077.73 1463.88 1079.05 1470.88C1080.24 1477.24 1085 1484.58 1073.49 1486.48C1071.81 1486.75 1071.15 1490.09 1072.27 1490.31C1080.27 1491.87 1084.32 1500.4 1091.48 1501.84C1096.92 1502.91 1100.77 1503.76 1102.16 1509.32C1103.06 1512.93 1101.45 1515.69 1098.31 1517.44C1093.04 1520.39 1091.34 1517.98 1088.53 1513.05C1085.78 1508.25 1085.34 1517.93 1080.95 1516.27C1074.81 1513.95 1074.47 1514.37 1073.86 1521.1C1073.18 1528.75 1070.86 1535.89 1064.89 1540.7C1061.87 1543.11 1062.04 1544.01 1064.65 1545.6C1066.52 1546.74 1068.81 1549.03 1067.18 1549.98C1050 1559.93 1067.89 1566.9 1069.5 1574.97C1070.15 1578.31 1076.03 1581.89 1071.01 1584.79C1066.33 1587.5 1061.96 1584.04 1060.01 1578.77C1059.4 1577.12 1060.57 1573.97 1057.6 1574.36C1056.38 1574.53 1054.85 1577.31 1054.58 1579.09C1053.21 1588.38 1047.78 1597.62 1057.02 1606.69C1061.82 1611.39 1055.94 1634.35 1050.17 1637.69C1046.75 1639.67 1045.85 1637.08 1046.51 1634.35C1047.75 1629.14 1045.78 1623.21 1050.75 1618.68C1053.07 1616.56 1050.34 1613.36 1049.39 1610.83C1049.14 1610.22 1047.12 1609.59 1046.46 1609.95C1043.88 1611.39 1044.32 1614.22 1044.54 1616.48C1045.17 1623.19 1041.2 1629.16 1041.44 1635.52C1041.59 1639.76 1027.52 1652.78 1047.39 1647.35C1050.09 1657.44 1052.92 1653 1057.63 1648.22C1061.23 1644.54 1063.91 1649.81 1065.99 1652.37C1068.5 1655.44 1066.4 1657.66 1063.43 1658.83C1057.36 1661.19 1048.51 1658.46 1046.41 1668.21C1046.39 1668.38 1043.37 1668.24 1041.98 1667.7C1040.03 1666.92 1039.49 1660.75 1036.61 1665.36C1035.66 1666.9 1039.98 1671.72 1041.88 1675.06C1047.8 1669.6 1052.19 1681.47 1059.26 1676.21C1063.09 1673.38 1067.08 1679.21 1065.91 1683.25C1063.3 1692.35 1064.82 1702.15 1060.14 1710.87C1053.95 1722.48 1055.58 1736.03 1051.85 1748.32C1050.7 1752.07 1051.85 1756.04 1045.07 1755.41C1035.57 1754.53 1027.13 1767.35 1030.13 1776.69C1032.01 1782.49 1035.71 1788.93 1024.67 1788.93C1022.09 1788.93 1020.28 1791.44 1022.26 1792.41C1026.89 1794.71 1018.5 1801.73 1027.04 1802.56C1034.45 1803.29 1037.08 1808.58 1035.15 1816.45C1032.47 1827.44 1037.88 1839.78 1028.21 1849.97C1024.82 1853.55 1029.96 1850.75 1030.5 1850.65C1034.86 1849.9 1037.76 1851.55 1038.91 1855.67C1043.22 1871.18 1025.33 1897.04 1009.71 1896.14C997.25 1895.41 984.844 1895.19 972.437 1895.19C958.909 1895.19 944.455 1900.06 933.682 1886.95C933.34 1886.53 931.78 1886.41 931.415 1886.78C921.543 1897.02 913.231 1887.53 904.383 1884.73C902.482 1884.12 899.972 1882.93 898.582 1883.61C885.786 1890 873.282 1882.41 860.583 1883.15C848.469 1883.85 842.131 1875.27 843.618 1862.94C849.297 1815.33 854.148 1767.6 860.583 1720.09C866.067 1679.74 871.478 1639.35 878.01 1599.2C886.834 1545.01 894.171 1490.55 903.823 1436.53C910.282 1400.41 915.693 1364.16 921.982 1328.03C930.586 1278.69 937.679 1229.01 948.891 1180.26C954.254 1156.95 954.497 1133.09 962.005 1109.83C969.926 1085.31 970.901 1058.52 974.557 1032.65C977.312 1013.13 983.625 994.355 985.599 974.61C988.329 947.405 997.177 921.322 1001.61 894.312C1007.73 857.234 1017.36 820.717 1023.33 783.615C1028.08 754.094 1037.32 725.549 1041.29 696.028C1045.39 665.654 1053.82 636.474 1061.18 606.929C1065.45 589.744 1065.3 571.436 1069.84 554.348C1080.32 514.711 1084.85 473.879 1094.87 434.29C1099.72 415.13 1104.79 395.994 1109.37 376.76C1110.05 373.933 1112.18 370.081 1107.52 371.056C1103.25 371.958 1099.45 364.718 1095.82 370.885C1095.45 371.495 1092.24 375.298 1096.36 374.274C1099.79 373.421 1101.84 372.421 1102.23 376.565C1102.57 380.368 1100.16 382.489 1096.41 382.928C1085.1 384.244 1084.8 394.897 1080.56 402.015C1076.39 408.987 1068.5 413.838 1074.44 425.442C1078.64 433.632 1068.86 450.599 1066.08 450.696C1051.17 451.208 1056.67 462.69 1053.41 469.174C1049.7 476.536 1041.64 482.508 1046.58 492.454C1046.88 493.039 1046.19 494.843 1045.61 495.063C1037 498.207 1035.88 507.836 1029.89 513.053C1023.82 518.343 1026.08 523.852 1028.23 529.532C1030.62 535.894 1033.93 535.212 1037.52 530.41C1040.73 532.945 1046.39 535.261 1046.61 538.04C1046.97 542.452 1041.54 539.332 1039.15 540.282C1032.62 542.891 1027.08 543.744 1019.5 542.671C1012.9 541.745 1018.24 548.595 1020.21 551.935C1020.72 553.812 1020.04 554.494 1018.16 553.958C1009.8 555.591 1012.78 562.149 1013.46 566.61C1014.31 572.119 1018.29 570.388 1021.84 568.487C1024.65 566.975 1026.09 568.609 1027.28 571.241C1029.45 575.946 1031.62 580.748 1034.49 585.014C1038.1 590.377 1036.79 593.62 1031.67 596.91C1025.13 601.103 1023.26 595.131 1020.04 592.132C1017.24 589.524 1020.28 582.308 1014.53 582.845C1010.12 583.259 1008.05 588.013 1007.56 592.961C1007.19 596.788 1004.59 596.398 1002.81 593.814C1000.78 590.865 999.224 585.331 995.934 592.23C994.374 595.472 986.135 599.372 995.422 604.126C1002.2 607.588 1002.39 611.22 993.716 612.244C990.913 612.56 990.62 614.828 990.986 616.729C991.839 621.141 993.765 617.29 995.13 616.997C1001.49 615.705 1000.32 620.508 1000.49 623.798C1000.71 628.333 999.639 631.453 993.667 631.112C981.09 630.405 973.144 642.715 978.799 653.563C984.185 663.874 991.644 674.527 974.265 681.207C972.51 681.889 970.999 683.693 971.584 686.131C975.191 701.074 968.196 713.238 961.298 725.427C959.226 729.083 957.666 733.203 959.202 737.055C967.075 756.629 963.979 777.618 958.153 795.243C949.452 821.448 953.79 848.556 946.527 874.298C957.422 886.413 941.213 892.532 940.726 901.332C940.019 914.325 939.434 927.611 940.36 940.628C940.969 949.307 938.873 957.156 938.288 965.371C936.582 989.504 936.631 1013.76 940.116 1037.87C940.238 1038.67 940.409 1039.48 940.677 1040.21C950.817 1067.15 940.726 1079.99 911.452 1076.8C887.37 1074.17 864.604 1066.88 842.96 1056.01C840.839 1054.93 838.378 1053.15 836.354 1053.49C815.027 1056.91 802.157 1042.28 787.752 1030.99C783.754 1027.87 779.221 1029.09 774.906 1028.73C765.376 1027.95 760.111 1023.78 760.452 1013.32C761.525 981.85 764.133 950.525 767.131 919.152C771.372 874.664 780.951 831.004 785.071 786.565C787.142 764.186 790.555 741.93 796.015 720.039C796.112 719.649 796.38 719.284 796.405 718.894C796.624 712.824 796.844 706.754 797.039 700.684C796.77 700.757 796.234 700.806 796.234 700.879C795.576 708.485 786.752 712.019 786.801 720.064C786.923 735.909 783.072 739.712 766.644 739.59C762.792 739.565 759.599 741.174 758.795 744.1C755.968 754.533 748.314 761.895 742.878 770.646C740.539 774.425 741.855 778.398 744.243 780.47C747.485 783.274 751.629 779.081 751.678 777.106C751.873 770.256 761.184 771.012 761.208 764.284C761.208 762.139 763.792 759.896 766.619 761.7C769.032 763.211 768.959 765.6 767.96 768.16C765.01 775.814 761.525 783.152 758.966 791.099C753.652 807.724 743.488 822.813 735.176 838.464C733.909 840.853 732.032 844.022 728.668 841.852C725.719 839.926 728.424 837.61 729.448 835.636C730.204 834.198 731.349 832.467 729.789 831.419C728.936 830.833 726.986 831.735 725.573 832.125C716.383 834.685 718.041 844.631 713.385 850.335C712.679 851.188 713.58 852.042 718.26 849.506C721.697 847.629 725.183 845.484 727.108 850.579C728.644 854.626 726.889 857.843 722.038 858.136C718.187 858.38 714.872 859.647 712.459 862.67C710.339 865.327 708.486 868.228 706.512 871.007C709.096 870.056 711.777 869.228 714.287 868.106C718.821 866.083 721.868 868.057 722.331 872.25C722.891 877.37 721.234 882.611 714.677 882.026C703.928 881.05 697.908 886.145 694.568 895.652C693.52 898.602 691.253 901.332 696.445 903.258C703.611 905.891 700.15 909.815 696.006 911.254C686.89 914.423 683.527 922.102 682.235 929.829C680.261 941.628 671.681 938.02 666.635 936.313C659.762 933.973 664.027 928.147 665.953 923.369C673.094 905.501 676.556 886.243 686.817 869.544C687.744 868.033 688.133 865.522 686.11 864.181C685.794 863.962 683.941 865.985 682.844 867.009C672.12 877.199 667.976 890.923 665.831 904.501C664.344 913.813 662.589 920.224 652.62 921.102C645.527 921.712 644.308 927.026 643.406 931.999C642.87 934.997 643.918 937.947 641.554 940.945C637.873 945.601 633.51 951.72 645.527 947.844C647.282 947.283 648.866 948.136 649.329 949.867C650.085 952.646 650.402 955.328 647.355 957.375C638.483 963.348 641.871 978.047 630.049 982.24C629.83 982.313 631.073 986.604 631.658 988.895C632.072 990.479 632.609 992.161 630.878 993.258C629.025 994.429 627.197 994.355 625.345 992.917C624.053 991.942 625.101 986.677 621.177 990.382C619.739 991.747 618.861 993.502 619.983 995.867C622.907 1002.03 622.42 1008.66 621.811 1015.17C621.177 1021.97 621.713 1029.02 610.233 1026.75C607.552 1026.22 620.689 1036.5 610.769 1040.26C596.437 1045.69 601.409 1055.52 601.604 1065.78C601.702 1070.7 597.217 1077.48 591.367 1081.14C586.711 1084.04 582.373 1087.09 590.904 1091.11C595.048 1093.08 593.293 1096.54 590.051 1096.84C582.909 1097.5 584.615 1099.93 584.737 1105.83C584.908 1114.92 587.37 1127.67 572.94 1130.94C570.478 1131.5 569.357 1133.87 570.186 1135.57C574.792 1144.91 567.699 1149.71 562.678 1154.95C553.928 1164.12 559.046 1176.16 555.975 1186.69C553.587 1194.88 556.95 1203.95 543.983 1204.41C542.472 1204.46 538.621 1207.63 541.887 1209.41C550.71 1214.26 543.715 1217.6 541.521 1221.62C539.791 1224.82 537.109 1228.21 537.158 1231.47C537.207 1235.54 539.596 1239.57 540.961 1243.61C542.253 1240.71 543.934 1237.93 544.812 1234.91C551.905 1210.39 568.016 1189.28 571.672 1163.34C572.209 1159.46 575.231 1152.98 581.471 1154.73C589.612 1157.02 585.688 1164.09 583.86 1167.87C576.011 1183.99 573.208 1201.8 565.384 1218.26C560.655 1228.18 555.805 1242.64 557.657 1256.21C557.998 1258.77 558.291 1262.75 555.122 1263.77C539.133 1268.92 545.056 1282.32 543.812 1293C543.642 1294.49 544.982 1296.71 544.324 1297.51C535.111 1308.72 538.816 1325.03 529.675 1335.85C521.412 1345.65 518.804 1357.99 514.734 1369.08C508.786 1385.17 503.4 1402.16 503.741 1420.03C503.814 1424.2 503.107 1426.88 508.494 1428.76C513.223 1430.41 515.368 1434.95 511.102 1440.55C506.373 1446.75 508.957 1456.64 501.23 1461.62C505.764 1467.44 505.983 1472.81 500.889 1478.83C497.623 1482.68 494.284 1485.73 489.75 1482.9C483.803 1479.19 488.97 1476.17 491.554 1473.54C493.138 1471.9 494.625 1470.44 492.456 1468.64C489.531 1466.22 486.947 1467.86 485.363 1470.47C479.683 1479.9 476.831 1490.63 476.027 1501.21C475.077 1513.39 476.978 1525.02 465.18 1534.33C460.671 1537.89 453.14 1546.81 462.962 1554.88C463.669 1555.47 462.962 1558.98 461.89 1560.34C456.844 1566.8 459.623 1568.78 466.277 1570.95C477.636 1574.65 473.322 1585.06 471.201 1591.21C468.374 1599.37 469.129 1608.07 465.57 1615.8C464.279 1618.58 464.303 1620.14 467.594 1621.19C470.177 1621.99 475.515 1619.6 474.638 1624.87C474.004 1628.7 470.397 1631.7 465.912 1632.31C462.329 1632.79 457.161 1630.31 457.429 1637.42C457.6 1642.03 457.795 1645.4 463.694 1647.13C470.909 1649.25 466.229 1654.66 465.254 1659C464.766 1661.14 459.648 1665.12 466.497 1665.48C468.959 1665.6 472.322 1662.44 473.102 1666.92C473.833 1671.21 471.055 1675.89 467.399 1676.72C456.918 1679.09 451.896 1683.11 456.04 1694.88C457.356 1698.64 452.189 1702.34 448.679 1705.29C434.834 1716.97 417.017 1725.52 401.076 1723.4C375.848 1720.06 349.816 1724.26 324.613 1712.53C313.572 1707.39 300.068 1700.51 285.809 1700.51C275.133 1700.51 271.672 1693.47 274.938 1680.08C282.714 1648.35 290.708 1616.66 298.435 1584.92C309.988 1537.53 321.274 1490.06 332.925 1442.68C343.382 1400.16 354.569 1357.82 364.66 1315.23C375.458 1269.72 388.962 1224.99 401.125 1179.89C412.483 1137.84 424.5 1096.03 437.004 1054.35C457.113 987.359 476.222 920.078 496.16 853.017C502.912 830.297 512.053 808.26 518.073 785.394C526.482 753.509 535.549 721.892 546.25 690.689C554.22 667.434 559.778 643.3 568.991 620.581C572.696 611.464 573.135 601.469 578.278 593.01C580.52 589.305 579.082 583.893 576.767 583.04C564.287 578.433 572.136 572.826 575.109 567.073C576.596 564.147 577.595 559.808 581.325 561.125C586.175 562.831 581.715 566.488 581.447 569.291C581.349 570.364 580.789 571.388 580.423 572.436C581.179 571.68 582.275 571.071 582.617 570.169C585.322 563.051 589.807 555.932 590.099 548.692C590.904 528.264 599.801 510.883 608.624 493.478C613.206 484.434 612.378 474.586 614.376 465.274C619.373 441.92 629.976 420.395 634.656 397.091C638.02 391.655 637.849 384.927 641.115 379.466C641.53 378.784 641.725 378.004 641.871 377.224C641.773 377.638 641.749 378.077 641.53 378.418C638.02 384.147 638.41 391.387 634.315 396.872C620.178 425.734 605.529 454.353 592.025 483.508C579.96 509.616 566.359 534.992 556.658 562.295C552.807 573.094 543.252 581.992 542.033 594.546C541.887 596.082 540.034 596.959 538.182 596.179C534.453 594.643 534.453 591.426 534.282 588.062C534.136 585.063 538.206 582.357 534.843 579.213C534.258 580.09 533.185 580.968 533.185 581.845C533.307 586.818 524.752 591.255 530.382 595.667C538.279 601.835 539.181 606.466 530.821 612.146C528.993 613.389 527.384 614.633 528.359 616.924C529.724 620.093 529.553 622.799 525.946 623.555C522.07 624.359 518.951 622.019 516.489 619.216C514.1 616.485 515.343 612.682 517.342 611.61C523.85 608.173 521.68 604.272 519.779 599.275C518.561 596.057 518.78 591.767 521.217 588.744C530.309 577.531 531.674 563.831 534.087 550.423C537.865 545.84 541.034 541.087 540.961 534.724C540.863 527.387 547.737 523.34 549.833 517.002C550.71 516.32 551.71 515.856 552.807 515.637C556.731 507.397 564.214 500.816 564.165 490.675C564.165 488.261 569.284 485.97 565.652 483.557C563.068 481.85 559.315 482.85 557.657 486.579C556.706 488.7 555.975 491.577 552.904 490.138C552.27 489.846 552.782 486.482 553.197 484.654C556.414 470.881 561.947 458.229 570.405 446.723C576.962 437.825 578.034 426.392 583.153 416.519C586.955 409.158 588.198 407.11 594.316 413.155C595.901 414.716 597.339 417.47 600.191 414.618C602.019 412.79 603.115 411.035 602.433 408.182C601.531 404.404 599.167 405.184 596.851 406.037C589.027 408.889 591.928 402.625 592.586 400.309C594.365 394.19 596.388 387.925 599.557 382.44C611.013 362.549 616.326 339.878 629.732 320.595C639.165 307.042 643.577 290.1 651.426 275.303C658.348 262.261 666.586 249.95 671.169 235.714C671.949 233.252 674.094 231.668 676.872 233.496C680.26 235.714 682.308 238.737 679.944 242.71C674.021 252.608 668.975 262.822 665.1 273.767C661.37 284.322 656.13 294.341 651.572 304.604C650.792 306.384 649.427 308.577 652.498 309.26C653.205 309.406 654.74 307.359 655.399 306.067C671.949 274.474 688.133 242.71 700.808 209.314C701.661 207.047 703.075 204.999 703.831 202.708C704.269 201.391 704.976 199.222 702.539 198.929C701.905 198.856 700.857 200.416 700.345 201.416C697.103 207.802 694.081 214.335 690.693 220.649C689.206 223.379 687.232 227.012 683.405 225.427C679.164 223.672 679.505 219.333 680.967 215.944C683.527 210.069 686.476 204.268 689.864 198.832C692.204 195.053 694.715 192.835 691.741 187.252C688.889 181.914 693.423 179.037 698.98 181.865C707.243 186.058 708.096 182.913 705.464 175.844C704.001 171.895 705.586 167.629 707.657 165.557C725.109 148.054 724.963 122.239 737.882 102.737C742.732 95.3993 730.691 91.5477 734.152 84.5271C730.521 83.6983 730.057 86.5748 729.814 88.7931C729.034 96.3013 729.351 104.004 727.815 111.342C726.353 118.314 726.426 127.406 715.384 127.602C711.46 127.675 713.873 129.942 714.165 131.746C716.042 144.032 712.435 147.566 699.224 149.541C693.959 150.321 694.568 157.244 693.057 161.266C691.132 166.41 695.031 161.096 696.299 162.12C698.298 163.704 698.858 165.874 697.737 167.288C690.157 176.746 689.06 191.494 674.874 195.687C674.045 195.931 673.533 197.345 672.899 198.222C673.899 198.661 675.215 199.758 675.824 199.465C679.359 197.686 682.893 196.223 684.989 200.952C687.037 205.608 682.82 207.754 679.992 209.436C662.297 219.991 661.248 238.834 656.544 255.825C655.521 259.482 653.546 261.895 649.744 261.018C645.186 259.969 646.088 256.532 647.379 253.29C648.257 251.096 649.061 248.902 649.914 246.708C648.33 248.78 646.307 250.657 645.259 252.949C642.675 258.58 638.97 263.919 644.601 270.476C650.085 276.887 642.334 278.106 639.165 280.739C635.85 283.493 627.782 283.469 634.169 291.123C635.923 293.22 633.974 295.999 632.194 297.559C624.297 304.507 628.343 320.742 613.206 321.985C616.034 328.859 611.622 334.905 610.793 341.365C610.16 346.289 608.843 352.188 602.092 345.655C598.85 342.535 597.363 346.289 596.802 347.678C590.684 362.719 579.862 376.127 580.423 393.556C580.447 394.653 580.277 396.579 579.765 396.725C572.964 398.846 570.332 402.21 575.67 408.475C564.506 416.495 565.53 429.659 561.898 440.872C561.362 442.53 559.412 444.773 557.901 444.943C541.034 446.918 547.712 461.227 544.227 470.247C540.546 479.729 540.181 490.675 529.505 496.94C524.752 499.743 522.119 506.227 518.682 511.152C518.171 511.883 518.439 513.175 518.366 514.223C519.462 513.833 520.681 513.662 521.607 513.053C525.19 510.737 527.945 511.712 529.407 515.369C530.772 518.757 528.115 520.391 525.629 521.999C521.949 524.413 518.341 526.948 514.782 529.532C513.149 530.702 510.298 532.238 510.371 533.432C511.492 548.887 500.255 560.174 495.527 573.411C491.846 583.722 489.847 594.448 485.874 604.345C483.218 610.976 478.952 618.143 473.053 624.091C468.032 629.161 464.303 638.717 465.18 645.64C466.155 653.441 461.378 658.219 458.161 659.072C447.68 661.876 447.777 672.382 449.557 676.16C453.627 684.814 446.583 687.033 444.706 692.298C440.66 703.731 430.788 711.971 428.814 724.33C428.156 728.523 428.643 733.788 421.428 734.885C415.481 735.763 414.335 741.954 413.921 747.391C412.654 764.576 403.733 779.568 400.028 796.047C399.857 796.827 399.686 798.046 399.175 798.266C385.403 804.189 386.987 817.767 383.575 828.956C382.332 833.052 382.6 838.707 375.312 839C371.363 839.171 371.485 844.826 372.143 847.166C376.189 861.841 367.366 870.13 357.982 878.613C355.52 880.855 352.278 884.829 355.544 888.095C363.661 896.164 354.789 904.233 351.888 904.916C343.089 907.036 347.111 917.641 339.579 920.03C337.873 920.566 343.674 925.709 341.505 930.999C336.24 943.748 331.243 956.498 325.101 968.954C321.201 976.853 318.641 985.775 316.862 995.087C313.962 1010.25 310.525 1029.02 296.704 1036.92C286.565 1042.72 293.17 1051.54 287.101 1056.1C296.826 1066.34 282.372 1067.8 279.837 1073.22C278.229 1076.65 275.426 1077.24 278.156 1082.14C281.422 1088.01 281.178 1094.59 271.721 1095.28C270.599 1095.35 269.186 1094.67 269.259 1096.35C270.575 1122.19 255.439 1142.57 247.249 1165.31C243.934 1174.55 240.838 1184.59 238.645 1194.61C236.67 1203.49 233.477 1216.09 220.583 1219.21C219.291 1219.53 218.389 1221.4 217.317 1222.55C218.633 1221.94 219.901 1221.06 221.266 1220.79C225.507 1219.94 224.361 1222.65 224.142 1225.11C223.289 1233.86 223.947 1243.37 212.271 1245.98C211.638 1246.12 211.15 1246.95 210.59 1247.46C222.143 1257.85 203.765 1263.31 206.446 1272.45C207.445 1275.86 203.935 1277.28 201.425 1278.4C195.404 1281.1 194.917 1286.73 195.697 1291.61C198.183 1307.26 194.722 1320.18 181.511 1329.88C175.563 1334.25 174.199 1344.07 174.369 1347.82C175.052 1363.23 169.445 1375.27 161.67 1387.44C156.893 1394.92 155.796 1404.23 153.042 1412.16C149.093 1423.44 150.702 1438.02 139.148 1446.53C136.857 1448.21 133.371 1450.31 140.123 1452.09C144.559 1453.26 139.246 1456.13 138.807 1458.33C137.929 1462.86 123.646 1465.91 137.149 1472.27C138.417 1472.88 137.612 1476.05 136.028 1476.07C127.132 1476.19 130.617 1483.95 128.301 1488.07C127.278 1489.92 123.646 1491.87 126.985 1493.79C129.423 1495.21 133.639 1492.99 134.054 1490.75C136.759 1476.12 145.095 1463.74 149.751 1450.01C154.016 1437.46 165.375 1425.86 157.502 1410.72C157.136 1410.01 158.087 1407.69 158.648 1407.6C179.512 1404.62 172.663 1384.73 177.392 1373.4C186.995 1350.38 196.452 1326.98 202.083 1302.02C205.373 1287.49 215.733 1273.57 221.656 1258.77C226.823 1245.85 232.453 1233.11 237.133 1220.01C243.422 1202.51 250.003 1185.33 253.342 1166.56C255.853 1152.44 266.31 1139.52 271.94 1125.36C281.787 1100.54 294.048 1076.68 301.019 1050.74C303.529 1041.43 309.501 1033.63 313.45 1025.09C324.345 1001.64 326.368 974.488 343.381 953.767C344.625 952.256 346.258 950.16 346.063 948.526C344.6 936.435 353.716 928.245 358.226 918.908C366.172 902.405 369.828 884.439 377.993 868.179C384.087 856.064 389.62 843.656 396.323 831.906C399.418 826.494 400.661 830.931 401.978 834.222C404.366 840.146 406.658 840.877 410.606 834.539C414.799 827.786 415.213 819.523 420.917 813.185C423.646 810.162 424.378 801.947 414.409 805.067C408.242 806.993 407.218 802.507 408.071 798.144C411.094 782.664 422.769 771.621 429.375 757.97C430.106 756.459 431.666 755.289 433.348 756.215C435.907 757.605 435.956 760.457 435.224 762.651C432.665 770.305 429.691 777.813 426.913 785.37C426.255 787.174 424.451 790.002 426.401 790.733C429.009 791.708 428.716 788.442 429.326 786.638C433.031 775.644 443.463 768.574 446.51 757.166C446.948 755.508 448.216 753.826 449.727 755.508C454.31 760.554 459.233 765.99 459.526 772.938C459.794 779.666 453.968 785.443 448.606 786.004C433.128 787.662 440.879 802.605 434.128 808.87C433.518 809.455 434.907 811.454 436.224 810.625C440.05 808.187 442.707 808.553 442.342 813.526C441.976 818.426 437.564 820.595 433.664 820.351C428.692 820.034 424.597 819.742 423.281 825.544C422.672 828.25 422.038 833.296 422.672 833.515C426.352 834.758 426.035 830.541 427.668 828.761C429.106 827.201 429.594 823.618 432.884 825.276C435.566 826.616 435.249 829.127 434.274 831.614C433.372 833.856 432.909 836.318 431.788 838.415C422.184 856.259 417.894 876.541 406.316 893.458C405.561 894.555 405.999 896.53 406.073 898.066C406.365 903.819 404.561 909.84 399.15 910.815C393.252 911.863 386.622 910.132 380.626 908.499C379.236 908.109 374.556 903.331 380.406 900.26C384.818 897.944 380.821 894.458 381.284 891.581C381.917 890.679 382.576 889.802 383.039 888.802C382.259 889.582 381.649 890.509 380.918 891.338C371.046 910.035 362.662 929.39 354.959 949.063C354.253 950.842 352.814 953.28 355.544 954.036C356.885 954.401 359.712 952.841 360.37 951.427C364.1 943.456 368.146 935.485 370.486 927.074C371.802 922.37 374.581 919.371 377.238 915.958C379.431 913.131 383.234 911.644 385.793 913.911C389.498 917.177 384.842 919.201 383.112 921.395C381.893 922.955 379.602 923.808 378.7 925.466C377.871 927.001 377.457 929.927 378.359 930.95C380.406 933.315 381.625 930.219 382.99 929.195C385.208 927.538 387.597 924.393 390.132 927.099C391.692 928.756 391.862 932.511 391.375 935.095C390.79 938.142 389.279 941.286 387.377 943.773C379.09 954.645 377.676 968.491 371.705 979.997C365.44 992.064 365.245 1009.91 346.306 1013C341.846 1013.74 340.31 1017.59 346.306 1019.9C348.988 1020.95 353.18 1023.61 350.791 1025.27C339.872 1032.77 344.527 1045.08 340.578 1054.59C335.606 1066.51 331.487 1078.8 326.563 1090.74C321.639 1102.66 318.251 1115.29 310.817 1126.11C309.988 1127.33 309.915 1129.14 309.696 1130.7C307.746 1143.84 302.237 1146.81 290.44 1141.84C287.613 1140.64 284.42 1134.55 281.495 1139.4C278.277 1144.69 277.424 1151.42 275.669 1157.54C275.572 1157.9 276.596 1159.07 277.107 1159.1C279.764 1159.19 280.3 1157.15 280.666 1155.12C281.349 1151.42 282.372 1146.69 286.979 1148.39C291.123 1149.93 290.001 1154.81 287.735 1157.78C284.176 1162.44 286.102 1168.21 284.005 1172.87C280.666 1180.3 291.293 1171.07 290.05 1178.65C288.978 1185.2 278.204 1211.24 271.453 1214.07C268.186 1215.43 260.898 1215.82 269.893 1220.53C273.914 1222.62 273.402 1227.43 272.038 1230.35C264.238 1247.17 261.922 1266.67 247.517 1280.37C243.154 1284.52 248.467 1289.93 246.079 1295.88C233.502 1327.01 222.655 1358.84 211.15 1390.41C210.102 1393.31 208.859 1396.04 213.027 1397.14C217.366 1398.26 217.219 1394.97 217.731 1392.09C218.389 1388.53 219.437 1383.63 223.557 1384.12C230.138 1384.9 226.677 1390.41 226.067 1393.82C225.263 1398.36 227.189 1398.14 229.602 1396.16C239.205 1388.27 235.72 1398.14 235.866 1401.09C236.207 1407.52 230.577 1411.77 228.627 1417.52C227.262 1421.52 225.945 1428 220.778 1426.64C214.538 1425 220.096 1420.18 220.364 1416.67C220.534 1414.47 220.851 1411.23 217.878 1410.64C215.538 1410.18 214.709 1412.64 214.441 1414.76C213.734 1420.42 207.908 1426.54 217.463 1431.05C220.632 1432.53 219.486 1438.53 218.341 1442.46C217.999 1443.63 216.147 1445.11 215.001 1445.11C212.54 1445.11 203.618 1424.61 204.691 1422.03C206.836 1416.86 213.368 1408.57 207.762 1406.94C202.083 1405.28 202.985 1416.03 201.474 1421.54C199.572 1428.44 194.624 1435.41 203.692 1441.63C205.568 1442.92 205.471 1447.79 199.207 1448.36C189.53 1449.26 178.83 1466.18 180.414 1475.93C180.487 1476.34 179.488 1478.83 181.535 1477.14C190.432 1469.76 193.844 1485.75 202.497 1482.07C204.106 1481.39 205.227 1488.02 203.35 1490.38C195.867 1499.96 194.137 1511.54 190.895 1522.68C190.188 1525.14 188.872 1528.97 185.338 1527.73C183.022 1526.92 183.12 1523.17 184.216 1521.12C187.678 1514.69 183.168 1506.15 189.774 1500.57C190.31 1500.11 189.774 1498.4 189.774 1497.28C188.75 1497.6 187.458 1497.65 186.727 1498.28C182.973 1501.64 181.365 1506.03 180.219 1510.96C178.562 1518.17 181.828 1527.17 173.224 1532.16C172.736 1532.46 172.639 1534.58 173.15 1535.19C175.247 1537.65 182.047 1534.65 180.536 1540.43C180.024 1542.38 173.565 1542.16 171.103 1544.35C166.399 1548.57 167.13 1555.49 164.595 1560.98C158.721 1573.73 154.918 1587.48 149.312 1600.01C145.851 1607.71 143.34 1619.46 132.348 1623.04C126.815 1624.85 125.84 1626.58 132.518 1628.02C132.762 1628.06 133.03 1628.72 133.006 1629.06C132.664 1633.69 125.937 1641.54 135.979 1641.35C141.391 1641.25 145.412 1632.6 146.387 1626.31C149.653 1604.95 159.354 1585.82 166.326 1565.76C168.666 1559.03 170.445 1551.54 177.123 1547.16C180.828 1554.01 176.295 1560.93 177.27 1567.75C178.318 1575.21 171.347 1578.75 169.519 1585.01C163.888 1604.25 156.966 1623.12 150.653 1642.15C147.045 1653.05 134.688 1662.58 122.573 1660.61C109.265 1658.44 112.653 1667.19 112.824 1673.28C112.994 1679.3 120.331 1686.47 108.363 1689.35C105.389 1690.05 108.071 1692.86 109.046 1694.13C114.164 1700.81 106.364 1708.83 111.361 1715.58C111.946 1716.36 111.117 1718.89 108.704 1718.43C105.341 1717.8 102.391 1716.48 101.563 1712.8C100.905 1709.92 104.317 1706.12 100.1 1704.17C98.1016 1703.24 97.3947 1705.75 97.6628 1707.12C98.4915 1711.48 91.3254 1716.72 98.1259 1719.92C101.563 1721.53 102.635 1723.28 102.001 1726.08C100.441 1733.28 99.6371 1738.22 109.923 1733.64C115.042 1731.35 114.457 1736.93 114.286 1739.69C113.994 1744.49 112.702 1749.19 112.117 1754C111.654 1757.77 111.629 1761.41 117.114 1761.7C127.96 1762.28 124.572 1766.65 119.332 1771.04C117.845 1772.28 114.896 1773.11 116.748 1775.25C123.232 1782.81 113.969 1784.27 111.873 1784.37C106.364 1784.66 108.241 1779.23 108.339 1776.08C108.461 1771.13 109.436 1768.74 101.782 1769.57C96.371 1770.16 98.8084 1762.26 99.7103 1757.75C100.368 1754.48 102.952 1749.27 98.6378 1748.49C94.5916 1747.76 90.3992 1751.49 90.3017 1757.02C90.3017 1757.82 90.3992 1758.68 90.1799 1759.46C88.888 1763.99 93.1048 1772.72 85.9631 1772.23C79.8938 1771.82 85.0368 1763.53 83.9156 1758.9C83.5988 1757.63 83.7938 1756.26 83.745 1754.92C83.355 1756.02 83.0625 1757.14 82.5994 1758.19C78.8945 1766.38 70.4122 1775.06 85.6706 1780.98C88.303 1782.01 88.4005 1786.44 87.1818 1788.78C79.8695 1802.92 77.7245 1819.25 68.3404 1832.49C67.2191 1834.08 67.0729 1836.2 64.3186 1836.15C61.5886 1836.1 60.2724 1828.64 57.1037 1834.17C55.1294 1837.61 60.7599 1838.8 62.0274 1841.66C63.8798 1845.8 63.0999 1849.26 60.1749 1852.82C56.9575 1856.75 59.6143 1863.25 61.7593 1863.35C66.561 1863.57 61.8811 1858.67 63.2705 1856.45C66.4635 1851.36 70.8997 1847.24 73.1421 1841.34C74.1902 1838.58 77.3345 1833.78 81.2344 1836.39C84.1837 1838.37 83.8669 1843.97 81.0394 1846.24C75.7502 1850.48 76.4327 1855.6 76.6764 1861.06C76.7252 1862.5 75.2871 1864.21 77.4076 1864.99C77.8951 1865.16 79.5038 1863.69 79.7963 1862.72C82.6969 1853.04 93.4216 1847.7 93.9579 1836.59C94.1285 1833.15 97.2728 1830.37 100.929 1831.83C104.926 1833.42 101.977 1836.63 101.197 1838.97C91.6423 1867.96 78.7239 1896.33 73.5565 1926.07C69.9734 1946.67 56.2994 1964.05 57.8593 1985.77C58.225 1990.82 54.1544 1997.18 51.7657 2001.28C44.8922 2013.08 45.2334 2026.02 42.211 2038.23C36.3855 2061.73 31.3887 2085.55 19.3477 2106.71C13.0835 2117.7 23.5158 2116.46 27.0257 2119.92C29.6338 2122.48 29.7069 2118.6 30.1212 2116.97C30.755 2114.66 30.9987 2111.46 34.338 2112.75C36.7998 2113.71 36.5561 2116.9 36.3124 2119.24C35.0693 2131.33 38.2867 2142.62 42.5278 2153.66C44.5753 2158.97 43.7709 2164.53 39.4566 2166.6C33.2899 2169.6 35.2886 2161.56 32.7781 2159.66C29.0488 2156.83 28.9513 2152 25.5876 2149.25C23.9058 2153.29 21.9071 2157.24 20.6396 2161.41C19.1284 2166.41 18.4215 2171.65 16.9834 2176.67C15.9109 2180.45 17.1541 2181.18 20.7858 2181.84C31.1937 2183.74 33.753 2191.3 30.7794 2200.1C27.6838 2209.24 24.4176 2218.48 20.5908 2227.23C16.0816 2237.54 6.06367 2243 -5.07544 2245.85C-31.3511 2252.58 -58.0898 2251.39 -84.8286 2251.12C-101.549 2250.95 -118.368 2251.31 -134.991 2252.9C-147.52 2254.09 -152.687 2245.81 -159 2238.18V2228.42C-152.175 2224.33 -155.953 2216.46 -152.614 2210.85C-142.425 2193.74 -133.846 2175.94 -127.63 2156.78C-115.93 2120.73 -102.598 2085.26 -91.5803 2048.94C-76.1025 1997.99 -58.2361 1947.77 -43.3189 1896.68C-34.7635 1867.35 -25.1843 1838.22 -14.9958 1809.62C0.847549 1765.19 13.7904 1719.82 29.8775 1675.45C42.0403 1641.93 55.885 1608.88 64.9767 1574.12C69.096 1558.39 75.4089 1542.87 81.3563 1527.48C88.4736 1509.13 96.4684 1491.09 102.757 1472.46C130.081 1391.85 160.988 1312.57 190.529 1232.79C210.37 1179.18 232.527 1126.46 254.122 1073.51C283.03 1002.64 311.768 931.682 341.748 861.256C366.22 803.775 392.447 747.025 417.797 689.934C435.809 649.346 453.408 608.563 471.664 568.072C487.556 532.823 504.082 497.866 520.437 462.812C538.304 424.54 555.293 385.829 574.5 348.263C590.124 317.719 604.139 286.37 620.811 256.289C635.436 229.888 647.063 201.83 661.005 175.039C677.36 143.569 694.593 112.536 711.777 81.48C726.84 54.2751 742.05 27.1189 757.869 0.32843C767.497 -15.9799 778.295 -31.6056 788.824 -47.3533C792.48 -52.8381 812.955 -52.1799 812.857 -46.9389C812.687 -39.4063 816.538 -42.2341 819.707 -41.259C833.844 -36.8711 844.812 -27.7053 855.61 -17.93C862.118 -12.0308 872.794 -10.7876 874.086 0.889114C874.305 2.74178 880.911 3.20494 885.055 0.815979C890.076 -2.0849 897.266 -7.7404 895.609 5.71577C895.146 9.46986 898.656 12.4926 902.214 13.6871C914.011 17.6606 910.16 24.5106 903.311 27.704C895.852 31.1655 895.73 36.7966 894.171 42.6472C893.683 44.4998 892.172 46.6206 895.024 47.6689C896.974 48.4002 901.142 44.2073 900.727 49.9847C900.337 55.4208 895.024 55.4452 891.489 56.3959C876.84 60.3694 868.748 71.9241 862.679 83.8202C859.437 90.207 857.999 98.2027 854.562 105.053C851.71 110.757 847.884 116.291 853.782 122.58C854.928 123.799 855.586 127.358 854.757 128.333C844.544 139.912 849.76 154.173 847.469 167.068C846.494 172.553 843.009 177.233 837.598 180.281C833.966 182.328 831.894 185.595 833.868 190.543C835.623 194.98 838.109 197.32 842.838 196.833C855.708 195.541 855.586 203.707 851.467 211.069C842.424 227.182 840.571 245.197 835.501 262.358C833.698 268.453 831.918 274.961 824.045 276.351C822.973 276.546 821.047 277.594 821.096 277.814C826.312 296.267 804.57 303.507 803.985 319.279C803.863 322.497 797.331 328.079 807.008 329.81C810.371 330.419 807.836 335.051 805.058 336.831C803.205 338.001 800.036 337.538 800.28 341.048C802.206 340.853 804.107 340.56 806.033 340.487C808.787 340.365 811.273 336.148 813.516 338.439C816.026 340.999 812.662 344.412 812.346 347.532C812.102 349.897 811.029 352.164 810.42 354.504C809.518 358.039 808.787 362.183 804.863 363.207C799.208 364.694 801.792 359.014 800.207 356.869C798.964 355.211 797.599 353.139 795.43 354.309C793.919 355.113 792.237 357.21 792.115 358.819C791.676 366.01 794.016 373.323 787.825 379.856C785.461 382.343 789.677 381.611 791.091 381.294C793.407 380.783 796.063 376.59 797.697 381.563C798.988 385.512 797.087 388.705 793.114 390.314C790.165 391.509 786.899 392.167 784.242 393.824C781.78 395.36 777.588 397.091 780.561 401.211C783.218 404.892 786.899 404.233 790.214 401.796C797.014 396.798 799.695 388.754 803.473 381.904C819.463 352.944 839.231 326.397 856.341 298.168C863.41 286.492 889.125 291.294 894.682 304.336C895.779 306.92 896.681 310.26 900.118 310.113C911.793 309.577 920.105 316.866 928.904 322.546C932.146 324.642 933.779 323.935 936.314 322.546C939.848 320.571 944.211 322.594 944.821 324.837C947.697 335.514 956.423 338.049 965.051 340.902C967.781 341.804 968.732 343.997 969.902 345.996C972.047 349.653 972.388 351.433 975.069 345.68C987.378 319.206 999.688 292.659 1013.51 266.966C1026.21 243.32 1038.25 219.284 1051.19 195.736C1064.26 171.944 1075.88 147.103 1088.85 123.116C1107.64 88.3543 1126.26 53.4706 1146.15 19.3426C1164.24 -11.6895 1180.57 -43.7211 1200.46 -73.7781C1214.82 -95.4738 1227.15 -118.486 1241.12 -140.45C1245.28 -147.031 1251.35 -155.222 1260.45 -152.443C1276.85 -147.446 1282.38 -139.353 1281.72 -126.189C1280.48 -124.702 1279.12 -123.337 1277.8 -121.899C1279.14 -123.312 1280.53 -124.653 1282.02 -125.896C1296.42 -136.5 1301.08 -121.533 1308.51 -115.195C1311.27 -112.855 1312.41 -110.051 1316.99 -110.49C1329.94 -111.782 1334.3 -106.2 1331.42 -94.0599C1330.25 -89.1601 1334.47 -90.6958 1336.88 -91.3296C1344 -93.2311 1350.87 -95.3519 1350.9 -83.8215C1350.9 -80.7987 1354.24 -80.4818 1356.5 -80.1649C1366.52 -78.7267 1369.11 -67.8788 1377.37 -63.9541C1380.66 -62.394 1381.29 -57.4454 1376.71 -55.2027C1370.54 -52.2043 1370.01 -49.3278 1373.32 -42.9166C1378.27 -33.2633 1368.91 -9.78807 1359.5 -4.08382C1357.07 -2.6212 1355.19 -2.1824 1353.04 -4.18134C1348.24 -8.66673 1348.02 -2.32867 1346.12 -0.914795C1342.51 1.74231 1345.15 4.03375 1347.8 5.44763C1352.9 8.12912 1357.24 12.9558 1355.85 17.7581C1354.46 22.6091 1348.34 23.7793 1342.66 22.2679C1340.95 21.8047 1331.72 41.2089 1332.89 42.5984C1334.69 44.7436 1336.42 42.9884 1338.2 42.2571C1342.78 40.4288 1346.51 41.6965 1347.61 46.5719C1348.8 51.8861 1344.27 52.0811 1340.73 52.7393C1338 53.2512 1335.27 53.6656 1332.54 54.1532C1331.06 54.4213 1329.03 54.4457 1329.89 56.7372C1330.11 57.3466 1332.08 57.7854 1333.06 57.5416C1340.95 55.5183 1348.19 52.6662 1353.29 63.4165C1356.89 71.0709 1359.92 77.8234 1355.58 85.6972C1351.34 93.4004 1353.77 101.518 1356.5 108.002C1360.62 117.826 1357.85 126.285 1352.75 132.745C1329.84 161.73 1323.4 195.784 1320.72 231.058C1319.72 244.027 1309.15 252.12 1306.12 263.894C1305.34 266.941 1302.17 265.698 1300.05 264.26C1297.76 262.7 1295.42 262.212 1293.72 264.747C1292.94 265.893 1292.45 268.063 1293.03 269.111C1294.33 271.475 1296.54 271.67 1299.3 270.89C1302.17 270.062 1305.98 267.551 1308.19 270.427C1311.1 274.206 1306.93 276.887 1304.86 279.715C1295.69 292.172 1301.78 307.261 1297.79 320.839C1293.13 336.66 1290.65 353.115 1286.92 369.228C1286.23 372.202 1284.84 375.493 1280.97 376.248C1279.19 376.809 1278.43 376.175 1278.68 374.323L1278.6 374.25Z" fill="black" fill-opacity="0.05"/>
</svg>
