<svg width="1929" height="1817" fill="none" xmlns="http://www.w3.org/2000/svg"><path d="M1278.6 374.25c-5.36-1.926-8.72-4.535-4.55-10.702 1.31-1.926 2.82-4.778 2.29-6.655-1.42-5.046 4.51-14.285-4.68-14.553-8.51-.244.09 6.362-1.37 10.263-2.92 7.776-3.41 16.479-5.02 24.767-.49 2.535-2.09 4.68-4.82 4.631-3.27-.048-2.66-3.315-3.69-5.338-4.65-9.117.1-19.307-5.67-29.375-5.07-8.824-7.41-6.069-11.78-2.242-8.31 7.313-4.8 18.161-7.14 27.278-.88 3.364 2.73 3.193 5.05 1.779 6.19-3.729 11.06 1.609 13.74 4.388 4.61 4.729-3.9 4.973-5.72 7.118-7.05 8.313-9.34 16.991-8.05 27.254.2 1.536.29 3.096.47 4.632-18.16-1.682 1.19 19.574-12.58 20.574.36.999.49 2.316 1.19 2.974 2.07 1.877 4.39 1.511 6.71.219 4.31-2.389 5.89-5.192 3.7-10.384-2.75-6.485 2.44-9.361 7.14-11.823 2.95-1.536 5.53-1.95 8.34 1.487 4.21 5.143 1 7.874-2.15 11.213-2.63 2.779-6.33 4.827-3.09 10.141 2.29 3.754-1.81 4.461-4.63 4.778-8.56.951-12.39 7.459-18.28 12.579-16.6 14.504-27.04 29.545-21.6 52.337.29 1.244-1.39 2.853-1.9 4.388-1.68 5.193-7.75 14.115-4.39 14.797 7.97 1.585 2.71-8.556 6.22-12.457 2.04-2.291 2.68-6.825 6.68-5.777 4.24 1.121 1.07 4.656 1.12 7.143.05 2.803-.88 6.874.58 8.239 10.6 9.653 2.63 16.333-3.24 23.378-2.1 2.511-2.49 7.849-7.58 5.972-4.27-1.56-3.8-5.68-3.73-9.385 0-1.268 1.56-3.193-1.05-3.608-.17-.024-.32 2.34-1.02 3.047-5.8 5.973-6.85 13.261-6.83 21.208 0 5.071.22 11.043-2.24 15.041-6.12 9.97-5.34 13.188 6.65 9.215 2.2-.732 4.22-.707 4.95 1.682 1.37 4.314-1.68 8.654-4.58 8.751-24.69.926-14.38 20.501-17.87 32.617-.78 2.681-1.56 5.338-2.12 8.069-4.85 22.5-9.62 45-14.43 67.524-.24 1.146-.39 2.316-.58 3.486 10.11-.756 7.12 9.751 11.72 13.53 3.17 2.608 2.59-1.414 3.1-2.755 6.56-16.991 13.77-33.787 19.35-51.119 9.61-29.813 21.33-58.798 32.88-87.88 24.08-60.601 47.46-121.495 72.1-181.853 11.73-28.716 26.08-56.336 38.47-84.784 16.16-37.102 33.29-73.716 50.62-110.258 15.19-32.007 29.13-64.502 48.36-94.51 9.94-15.528 16.82-33.007 25.25-49.51 15.94-31.325 35.66-60.382 54.43-89.976 4.44-6.972 14.58-7.874 19.57-3.925 5.75 4.535 12.58 9.41 18.19 11.75 13.43 5.631 22.74 20.038 34.07 22.354 14.72 2.998 27.03 11.238 35.37 18.746 9.94 8.97 24.52 14.09 30.44 27.595 1.15 2.608 3.56 2.95 6.02 3.364 12.73 2.12 12.99 10.555 7.27 18.55-5.68 7.923-8.07 16.943-9.61 25.524-1.44 7.996-3.19 9.556-10.36 7.459-4.97-1.462-10.31-4.217-5.99 6.241 1.51 3.681.49 8.361 4.7 12.432 1.9 1.828-1.73 7.655-6.14 8.361-2.63.415-5.19-.39-7.97 1.292-6.7 4.023-7.41 6.29-9.92 14.505-3.27 10.75-8.48 20.769-19.09 26.595-4.77 2.633-11.87 5.095-7.72 12.165 3.97 6.801 8.45.95 13.09-1.195 10.28-4.729 15.08-14.382 21.69-22.354 5.34-6.46 12.53-9.556 19.28-6.606 8.19 3.583 19.52 5.095 20.82 17.503.19 1.779-2.34 5.826 2.65 3.681 12.09-5.144 17.87 5.582 24.25 11.189 3.73 3.266 6.41 5.924 11.36 6.899 5.1 1.023 7.44 5.996 10.87 9.092 9.53 8.654 20.26 15.821 28.5 26.181 2.56 3.218 5.29 5.583 5.73 9.897.19 1.878 1.19 4.973 2.31 5.217 17.45 3.779 8.46 10.507 2.29 17.357-1.46 1.609-2.19 4.436-2.19 6.703 0 12.872-6.95 19.502-18.77 22.696-9.41 2.559-9.29 2.9-4.73 11.189.54.999 1.03 3.169.83 3.266-9.87 4.388-5.48 15.797-11.33 22.573-5.98 6.924-3.95 17.625-9.05 25.621-1.26 1.974 1.47 2.048 2.93.999 2.61-1.877 6.14-3.315 7.51-5.875 8.38-15.796 21.13-28.545 30.41-43.537 15.99-25.742 35.32-48.95 53.02-73.4 23.76-32.811 52.7-61.113 79.36-91.414 14.21-16.138 37.22-11.555 45.7 8.946.57 1.39 1.81 3.291 3 3.511 14.65 2.681 23.62 14.772 34.35 22.89 10.31 7.776 20.06 17.649 29.64 26.985 9.06 8.874 12.91 22.915 26.34 27.327v7.313c-11.4 5.924-22.44 7.094-34.12-.219-11.94-7.484-26.45-5.509-36.37 3.461-26.15 23.646-45.26 53.264-67.44 80.25-21.01 25.572-37.34 54.507-56.6 81.346-3.31 4.632-6.75 9.044-11.62 12.165-2.22 1.414-4.27 4.753-7.2 1.804-2.41-2.438-.95-5.388.59-7.801 3-4.778 5.75-9.8 9.38-14.066 8.97-10.482 13.41-23.28 19.24-35.42 3.51-7.288 14.06-9.092 14.82-19.331.21-2.998 3.72-5.728.19-8.971 2.63-2.852 6.34-5.046 6-9.726-.61.244-1.69.39-1.76.756-1.39 6.362-13.67 4.388-10.46 14.992 2.27 7.483-8.06 9.604-10.18 16.6-1.95 6.412-8.17 11.506-12.43 17.235-.93 1.243-2.2 2.657-2.32 4.071-1.61 19.087-3.29 20.891-24.84 25.352-1.12.244-2.09-.097-1.68 1.829 2.41 11.725-3.34 20.184-13.63 26.814-5.02 3.243-2.16 12.75-6.23 18.551-.37.512 5.02 1.512 7.21-.341 3.05-2.559 5.58-5.729 8.36-8.629 2.27-2.389 4.95-5.388 8.19-2.804 3.29 2.633 2.73 6.777.07 9.8-21.42 24.401-28.49 56.36-44.41 83.589-6.21 10.653-7.41 23.987-17.67 32.544-1.61 1.34-1.24 5.314-1.41 8.093-.1 1.414.66 2.876 1.02 4.315 1.07-1.024 2.63-1.877 3.12-3.121 2.46-6.192 6.36-14.65 12.9-10.141 5.67 3.925 2.77 13.091-1.98 19.648-6.92 9.605-13.23 19.624-19.69 29.546-1.59 2.437-4.71 5.679 2.34 4.68 2.9-.415 9.16-4.364 9.04 3.096-.07 5.997 4.73 13.968-5.12 17.429-8.24 2.901-16.38 3.145-25.03 1.561-17.4-3.194-32.74-13.944-50.99-13.725-5.17-13.87-18.8-3.144-28.28-9.531-8.43-5.68-21.59-6.996-31.95-12.286-10.63-5.436-20.89-11.482-31.74-16.601-12.09-5.704-11.92-20.233-12.92-32.202-1.9-22.744 1.69-45.122 5.24-67.549 3.44-21.672 5.56-43.562 8.22-65.38.12-1.024-.27-2.096-.42-3.169-.7.804-1.85 1.487-2.04 2.389-3.88 17.332-13.65 32.446-18.65 49.169-3.05 10.141-10.58 17.941-12.14 28.302-.56 3.754-3.97 8.19-.46 11.457 4.34 4.022 5.82-2.145 8.65-3.608 2.34-1.219 4.78-1.853 6.58.366 2.17 2.681 1.2 5.606-1.22 7.483-4.9 3.803-6.97 8.63-6.94 14.724.02 4.144-1.05 8.191-5.34 9.971-.98.39-3.34-.756-4.02-1.853-2.59-4.071-2.32-8.288-.03-12.603 1.2-2.243 6.61-3.218 3.63-6.192-2.29-2.291-4.26 2.365-6.55 3.632-10.39 5.778-8.41 18.941-15.87 26.474-.37.365.02 1.462.07 2.218.95-.244 2.32-.195 2.76-.804 1.58-2.292 3.34-4.632 4.14-7.24 1.12-3.511 1.49-8.142 6.34-6.972 3.85.926 2.88 5.412 2.44 8.434-1.71 11.921-2.88 24.085-4.93 35.762-2 11.457-12.36 14.577-13.21 24.06-.14 1.511-1.39 3.023-1.19 4.412 1.61 11.506-3.83 17.771-14.51 20.769-11.21 3.145-7.14 12.628-6.38 19.332.63 5.753.58 9.336-3.88 13.699-12.84 12.482-11.5 31.471-20.01 46.098-1.36 2.364-.92 4.217 2.85 4.729 8.63 1.146 7.73 5.485 2.44 10.116-5.41 4.73-5.7 12.506-16.43 14.919-10.89 2.438-13.33 18.746-16.26 29.96-2.04 7.922 6.81 3.291 10.51 4.826 1.39.585 4.05-2.12 4.68 1.073.22 1.146-1.12 3.169-2.29 3.925-8.87 5.655-12.58 12.018-4.9 21.671 2.34 2.925 0 6.826-3.27 7.923-6.5 2.194-6.24 6.947-7.02 12.359-.36 2.486 7.54 15.162-6.43 8.069-1.22-.61-1.54 2.437-1.17 3.876.97 3.729 3.29 6.776-1.39 10.628-4.36 3.608 2.31 3.364 3.46 5.265 2.36 4.023 8.95-.828 10.24 4.218 2.19 8.556 5.46 17.21 3.68 26.205-2.02 10.312-16.26 19.916-28.35 20.404-22.23.853-42.87-5.071-63.06-13.7-3.51-1.487-7.99-1-12.01-.878-6.73.22-12.29-2.218-18.31-5.119-16.45-7.947-32.59-16.771-50.06-22.451-11.8-3.852-10.02-12.993-8.29-22.013.41-2.121 2.9-4.851-.85-5.802-1.15-.292-4.27 2.194-4.32 3.486-.58 12.286-7.68 22.184-11.21 33.178-5.19 16.113-9.41 32.762-14.75 48.9-4.8 14.529-6.6 30.082-14.74 43.562-2.61 4.315-6.02 9.044-2.54 15.553.66 1.243 6.56 13.773-5.92 14.772-1.78.147-4.97 5.656-4.44 7.972 2.76 11.624-2.63 19.794-7.82 29.714-7.44 14.21-12.85 30.52-14.48 46.42-1.44 14.16-10.94 25.98-9.09 40.44.36 2.82-2.29 4.12-3.1 6.16-7.65 19.63-18.08 38.67-15.18 60.83.9 6.89-5.92 9.16-8.31 13.79-4.2 8.12-6.12 16.38-8.36 24.72-5.44 20.06-10.51 40.25-15.53 60.41-1.51 6.09-4.95 12.38.37 18.4 1.29 1.47 1.31 3.71-.03 4.24-16.33 6.42-13.02 20.19-12.63 32.94.1 2.87-.75 5.07-2.97 7.46-2.66 2.8-5.78 7.14-5.43 10.5 2.09 21.5-11.14 39.49-13.04 59.95-.2 2.19-1.32 6.16 2.34 5.36 11.82-2.63 5.5 2.07 3.7 6.92-1.49 3.98-7.31 11.73 4.39 11.75 3.34 0 3.34 2.88 3.75 5.24.34 1.98.22 5.32 1.22 5.71 18.6 7.38 1.29 18.28 2.41 27.3.27 2.12-3.14 11.17-7.97 1.71-1.09-2.17-1.73-.42-2.09.19-.59 1.03-.66 2.37-1.22 3.42-2.29 4.11-6.92 5.41-10.31 4.19-4.51-1.61-1.08-5.73.09-8.22 2.71-5.8.61-13.26 6.27-17.91 1.07-.91 1.9-1.39-.07-2.08-6.1-2.09-15.73 7.24-14.41 14.24 1.19 6.36 5.95 13.7-5.56 15.6-1.68.27-2.34 3.61-1.22 3.83 8 1.56 12.05 10.09 19.21 11.53 5.44 1.07 9.29 1.92 10.68 7.48.9 3.61-.71 6.37-3.85 8.12-5.27 2.95-6.97.54-9.78-4.39-2.75-4.8-3.19 4.88-7.58 3.22-6.14-2.32-6.48-1.9-7.09 4.83-.68 7.65-3 14.79-8.97 19.6-3.02 2.41-2.85 3.31-.24 4.9 1.87 1.14 4.16 3.43 2.53 4.38-17.18 9.95.71 16.92 2.32 24.99.65 3.34 6.53 6.92 1.51 9.82-4.68 2.71-9.05-.75-11-6.02-.61-1.65.56-4.8-2.41-4.41-1.22.17-2.75 2.95-3.02 4.73-1.37 9.29-6.8 18.53 2.44 27.6 4.8 4.7-1.08 27.66-6.85 31-3.42 1.98-4.32-.61-3.66-3.34 1.24-5.21-.73-11.14 4.24-15.67 2.32-2.12-.41-5.32-1.36-7.85-.25-.61-2.27-1.24-2.93-.88-2.58 1.44-2.14 4.27-1.92 6.53.63 6.71-3.34 12.68-3.1 19.04.15 4.24-13.92 17.26 5.95 11.83 2.7 10.09 5.53 5.65 10.24.87 3.6-3.68 6.28 1.59 8.36 4.15 2.51 3.07.41 5.29-2.56 6.46-6.07 2.36-14.92-.37-17.02 9.38-.02.17-3.04.03-4.43-.51-1.95-.78-2.49-6.95-5.37-2.34-.95 1.54 3.37 6.36 5.27 9.7 5.92-5.46 10.31 6.41 17.38 1.15 3.83-2.83 7.82 3 6.65 7.04-2.61 9.1-1.09 18.9-5.77 27.62-6.19 11.61-4.56 25.16-8.29 37.45-1.15 3.75 0 7.72-6.78 7.09-9.5-.88-17.94 11.94-14.94 21.28 1.88 5.8 5.58 12.24-5.46 12.24-2.58 0-4.39 2.51-2.41 3.48 4.63 2.3-3.76 9.32 4.78 10.15 7.41.73 10.04 6.02 8.11 13.89-2.68 10.99 2.73 23.33-6.94 33.52-3.39 3.58 1.75.78 2.29.68 4.36-.75 7.26.9 8.41 5.02 4.31 15.51-13.58 41.37-29.2 40.47-12.46-.73-24.866-.95-37.273-.95-13.528 0-27.982 4.87-38.755-8.24-.342-.42-1.902-.54-2.267-.17-9.872 10.24-18.184.75-27.032-2.05-1.901-.61-4.411-1.8-5.801-1.12-12.796 6.39-25.3-1.2-37.999-.46-12.114.7-18.452-7.88-16.965-20.21 5.679-47.61 10.53-95.34 16.965-142.85 5.484-40.35 10.895-80.74 17.427-120.89 8.824-54.19 16.161-108.65 25.813-162.67 6.459-36.12 11.87-72.37 18.159-108.5 8.604-49.34 15.697-99.02 26.909-147.77 5.363-23.31 5.606-47.17 13.114-70.43 7.921-24.52 8.896-51.31 12.552-77.18 2.755-19.52 9.068-38.295 11.042-58.04 2.73-27.205 11.578-53.288 16.011-80.298 6.12-37.078 15.75-73.595 21.72-110.697 4.75-29.521 13.99-58.066 17.96-87.587 4.1-30.374 12.53-59.554 19.89-89.099 4.27-17.185 4.12-35.493 8.66-52.581 10.48-39.637 15.01-80.469 25.03-120.058 4.85-19.16 9.92-38.296 14.5-57.53.68-2.827 2.81-6.679-1.85-5.704-4.27.902-8.07-6.338-11.7-.171-.37.61-3.58 4.413.54 3.389 3.43-.853 5.48-1.853 5.87 2.291.34 3.803-2.07 5.924-5.82 6.363-11.31 1.316-11.61 11.969-15.85 19.087-4.17 6.972-12.06 11.823-6.12 23.427 4.2 8.19-5.58 25.157-8.36 25.254-14.91.512-9.41 11.994-12.67 18.478-3.71 7.362-11.77 13.334-6.83 23.28.3.585-.39 2.389-.97 2.609-8.61 3.144-9.73 12.773-15.72 17.99-6.07 5.29-3.81 10.799-1.66 16.479 2.39 6.362 5.7 5.68 9.29.878 3.21 2.535 8.87 4.851 9.09 7.63.36 4.412-5.07 1.292-7.46 2.242-6.53 2.609-12.07 3.462-19.65 2.389-6.6-.926-1.26 5.924.71 9.264.51 1.877-.17 2.559-2.05 2.023-8.36 1.633-5.38 8.191-4.7 12.652.85 5.509 4.83 3.778 8.38 1.877 2.81-1.512 4.25.122 5.44 2.754 2.17 4.705 4.34 9.507 7.21 13.773 3.61 5.363 2.3 8.606-2.82 11.896-6.54 4.193-8.41-1.779-11.63-4.778-2.8-2.608.24-9.824-5.51-9.287-4.41.414-6.48 5.168-6.97 10.116-.37 3.827-2.97 3.437-4.75.853-2.03-2.949-3.586-8.483-6.876-1.584-1.56 3.242-9.799 7.142-.512 11.896 6.778 3.462 6.968 7.094-1.706 8.118-2.803.316-3.096 2.584-2.73 4.485.853 4.412 2.779.561 4.144.268 6.36-1.292 5.19 3.511 5.36 6.801.22 4.535-.851 7.655-6.823 7.314-12.577-.707-20.523 11.603-14.868 22.451 5.386 10.311 12.845 20.964-4.534 27.644-1.755.682-3.266 2.486-2.681 4.924 3.607 14.943-3.388 27.107-10.286 39.296-2.072 3.656-3.632 7.776-2.096 11.628 7.873 19.574 4.777 40.563-1.049 58.188-8.701 26.205-4.363 53.313-11.626 79.055 10.895 12.115-5.314 18.234-5.801 27.034-.707 12.993-1.292 26.279-.366 39.296.609 8.679-1.487 16.528-2.072 24.743-1.706 24.133-1.657 48.389 1.828 72.499.122.8.293 1.61.561 2.34 10.14 26.94.049 39.78-29.225 36.59-24.082-2.63-46.848-9.92-68.492-20.79-2.121-1.08-4.582-2.86-6.606-2.52-21.327 3.42-34.197-11.21-48.602-22.5-3.998-3.12-8.531-1.9-12.846-2.26-9.53-.78-14.795-4.95-14.454-15.41 1.073-31.47 3.681-62.795 6.679-94.168 4.241-44.488 13.82-88.148 17.94-132.587 2.071-22.379 5.484-44.635 10.944-66.526.097-.39.365-.755.39-1.145.219-6.07.439-12.14.634-18.21-.269.073-.805.122-.805.195-.658 7.606-9.482 11.14-9.433 19.185.122 15.845-3.729 19.648-20.157 19.526-3.852-.025-7.045 1.584-7.849 4.51-2.827 10.433-10.481 17.795-15.917 26.546-2.339 3.779-1.023 7.752 1.365 9.824 3.242 2.804 7.386-1.389 7.435-3.364.195-6.85 9.506-6.094 9.53-12.822 0-2.145 2.584-4.388 5.411-2.584 2.413 1.511 2.34 3.9 1.341 6.46-2.95 7.654-6.435 14.992-8.994 22.939-5.314 16.625-15.478 31.714-23.79 47.365-1.267 2.389-3.144 5.558-6.508 3.388-2.949-1.926-.244-4.242.78-6.216.756-1.438 1.901-3.169.341-4.217-.853-.586-2.803.316-4.216.706-9.19 2.56-7.532 12.506-12.188 18.21-.706.853.195 1.707 4.875-.829 3.437-1.877 6.923-4.022 8.848 1.073 1.536 4.047-.219 7.264-5.07 7.557-3.851.244-7.166 1.511-9.579 4.534-2.12 2.657-3.973 5.558-5.947 8.337 2.584-.951 5.265-1.779 7.775-2.901 4.534-2.023 7.581-.049 8.044 4.144.56 5.12-1.097 10.361-7.654 9.776-10.749-.976-16.769 4.119-20.109 13.626-1.048 2.95-3.315 5.68 1.877 7.606 7.166 2.633 3.705 6.557-.439 7.996-9.116 3.169-12.479 10.848-13.771 18.575-1.974 11.799-10.554 8.191-15.6 6.484-6.873-2.34-2.608-8.166-.682-12.944 7.141-17.868 10.603-37.126 20.864-53.825.927-1.511 1.316-4.022-.707-5.363-.316-.219-2.169 1.804-3.266 2.828-10.724 10.19-14.868 23.914-17.013 37.492-1.487 9.312-3.242 15.723-13.211 16.601-7.093.61-8.312 5.924-9.214 10.897-.536 2.998.512 5.948-1.852 8.946-3.681 4.656-8.044 10.775 3.973 6.899 1.755-.561 3.339.292 3.802 2.023.756 2.779 1.073 5.461-1.974 7.508-8.872 5.973-5.484 20.672-17.306 24.865-.219.073 1.024 4.364 1.609 6.655.414 1.584.951 3.266-.78 4.363-1.853 1.171-3.681 1.097-5.533-.341-1.292-.975-.244-6.24-4.168-2.535-1.438 1.365-2.316 3.12-1.194 5.485 2.924 6.163 2.437 12.793 1.828 19.303-.634 6.8-.098 13.85-11.578 11.58-2.681-.53 10.456 9.75.536 13.51-14.332 5.43-9.36 15.26-9.165 25.52.098 4.92-4.387 11.7-10.237 15.36-4.656 2.9-8.994 5.95-.463 9.97 4.144 1.97 2.389 5.43-.853 5.73-7.142.66-5.436 3.09-5.314 8.99.171 9.09 2.633 21.84-11.797 25.11-2.462.56-3.583 2.93-2.754 4.63 4.606 9.34-2.487 14.14-7.508 19.38-8.75 9.17-3.632 21.21-6.703 31.74-2.388 8.19.975 17.26-11.992 17.72-1.511.05-5.362 3.22-2.096 5 8.823 4.85 1.828 8.19-.366 12.21-1.73 3.2-4.412 6.59-4.363 9.85.049 4.07 2.438 8.1 3.803 12.14 1.292-2.9 2.973-5.68 3.851-8.7 7.093-24.52 23.204-45.63 26.86-71.57.537-3.88 3.559-10.36 9.799-8.61 8.141 2.29 4.217 9.36 2.389 13.14-7.849 16.12-10.652 33.93-18.476 50.39-4.729 9.92-9.579 24.38-7.727 37.95.341 2.56.634 6.54-2.535 7.56-15.989 5.15-10.066 18.55-11.31 29.23-.17 1.49 1.17 3.71.512 4.51-9.213 11.21-5.508 27.52-14.649 38.34-8.263 9.8-10.871 22.14-14.941 33.23-5.948 16.09-11.334 33.08-10.993 50.95.073 4.17-.634 6.85 4.753 8.73 4.729 1.65 6.874 6.19 2.608 11.79-4.729 6.2-2.145 16.09-9.872 21.07 4.534 5.82 4.753 11.19-.341 17.21-3.266 3.85-6.605 6.9-11.139 4.07-5.947-3.71-.78-6.73 1.804-9.36 1.584-1.64 3.071-3.1.902-4.9-2.925-2.42-5.509-.78-7.093 1.83-5.68 9.43-8.532 20.16-9.336 30.74-.95 12.18.951 23.81-10.847 33.12-4.509 3.56-12.04 12.48-2.218 20.55.707.59 0 4.1-1.072 5.46-5.046 6.46-2.267 8.44 4.387 10.61 11.359 3.7 7.045 14.11 4.924 20.26-2.827 8.16-2.072 16.86-5.631 24.59-1.291 2.78-1.267 4.34 2.024 5.39 2.583.8 7.921-1.59 7.044 3.68-.634 3.83-4.241 6.83-8.726 7.44-3.583.48-8.751-2-8.483 5.11.171 4.61.366 7.98 6.265 9.71 7.215 2.12 2.535 7.53 1.56 11.87-.488 2.14-5.606 6.12 1.243 6.48 2.462.12 5.825-3.04 6.605 1.44.731 4.29-2.047 8.97-5.703 9.8-10.481 2.37-15.503 6.39-11.359 18.16 1.316 3.76-3.851 7.46-7.361 10.41-13.845 11.68-31.662 20.23-47.603 18.11-25.228-3.34-51.26.86-76.463-10.87-11.041-5.14-24.545-12.02-38.804-12.02-10.676 0-14.137-7.04-10.871-20.43 7.776-31.73 15.77-63.42 23.497-95.16 11.553-47.39 22.839-94.86 34.49-142.24 10.457-42.52 21.644-84.86 31.735-127.45 10.798-45.51 24.302-90.24 36.465-135.34 11.358-42.05 23.375-83.86 35.879-125.54 20.109-66.991 39.218-134.272 59.156-201.333 6.752-22.72 15.893-44.757 21.913-67.623 8.409-31.885 17.476-63.502 28.177-94.705 7.97-23.255 13.528-47.389 22.741-70.108 3.705-9.117 4.144-19.112 9.287-27.571 2.242-3.705.804-9.117-1.511-9.97-12.48-4.607-4.631-10.214-1.658-15.967 1.487-2.926 2.486-7.265 6.216-5.948 4.85 1.706.39 5.363.122 8.166-.098 1.073-.658 2.097-1.024 3.145.756-.756 1.852-1.365 2.194-2.267 2.705-7.118 7.19-14.237 7.482-21.477.805-20.428 9.702-37.809 18.525-55.214 4.582-9.044 3.754-18.892 5.752-28.204 4.997-23.354 15.6-44.879 20.28-68.183 3.364-5.436 3.193-12.164 6.459-17.625.415-.682.61-1.462.756-2.242-.098.414-.122.853-.341 1.194-3.51 5.729-3.12 12.969-7.215 18.454-14.137 28.862-28.786 57.481-42.29 86.636-12.065 26.108-25.666 51.484-35.367 78.787-3.851 10.799-13.406 19.697-14.625 32.251-.146 1.536-1.999 2.413-3.851 1.633-3.729-1.536-3.729-4.753-3.9-8.117-.146-2.999 3.924-5.705.561-8.849-.585.877-1.658 1.755-1.658 2.632.122 4.973-8.433 9.41-2.803 13.822 7.897 6.168 8.799 10.799.439 16.479-1.828 1.243-3.437 2.487-2.462 4.778 1.365 3.169 1.194 5.875-2.413 6.631-3.876.804-6.995-1.536-9.457-4.339-2.389-2.731-1.146-6.534.853-7.606 6.508-3.437 4.338-7.338 2.437-12.335-1.218-3.218-.999-7.508 1.438-10.531 9.092-11.213 10.457-24.913 12.87-38.321 3.778-4.583 6.947-9.336 6.874-15.699-.098-7.337 6.776-11.384 8.872-17.722a7.06 7.06 0 0 1 2.974-1.365c3.924-8.24 11.407-14.821 11.358-24.962 0-2.414 5.119-4.705 1.487-7.118-2.584-1.707-6.337-.707-7.995 3.022-.951 2.121-1.682 4.998-4.753 3.559-.634-.292-.122-3.656.293-5.484 3.217-13.773 8.75-26.425 17.208-37.931 6.557-8.898 7.629-20.331 12.748-30.204 3.802-7.361 5.045-9.409 11.163-3.364 1.585 1.561 3.023 4.315 5.875 1.463 1.828-1.828 2.924-3.583 2.242-6.436-.902-3.778-3.266-2.998-5.582-2.145-7.824 2.852-4.923-3.412-4.265-5.728 1.779-6.119 3.802-12.384 6.971-17.869 11.456-19.891 16.769-42.562 30.175-61.845 9.433-13.553 13.845-30.495 21.694-45.292 6.922-13.042 15.16-25.353 19.743-39.589.78-2.462 2.925-4.046 5.703-2.218 3.388 2.218 5.436 5.241 3.072 9.214-5.923 9.898-10.969 20.112-14.844 31.057-3.73 10.555-8.97 20.574-13.528 30.837-.78 1.78-2.145 3.973.926 4.656.707.146 2.242-1.901 2.901-3.193 16.55-31.593 32.734-63.357 45.409-96.753.853-2.267 2.267-4.315 3.023-6.606.438-1.317 1.145-3.486-1.292-3.779-.634-.073-1.682 1.487-2.194 2.487-3.242 6.386-6.264 12.919-9.652 19.233-1.487 2.73-3.461 6.363-7.288 4.778-4.241-1.755-3.9-6.094-2.438-9.483 2.56-5.875 5.509-11.676 8.897-17.112 2.34-3.779 4.851-5.997 1.877-11.58-2.852-5.338 1.682-8.215 7.239-5.387 8.263 4.193 9.116 1.048 6.484-6.021-1.463-3.949.122-8.215 2.193-10.287 17.452-17.503 17.306-43.318 30.225-62.82 4.85-7.338-7.191-11.19-3.73-18.21-3.631-.829-4.095 2.048-4.338 4.266-.78 7.508-.463 15.211-1.999 22.549-1.462 6.972-1.389 16.064-12.431 16.26-3.924.073-1.511 2.34-1.219 4.144 1.877 12.286-1.73 15.82-14.941 17.795-5.265.78-4.656 7.703-6.167 11.725-1.925 5.144 1.974-.17 3.242.854 1.999 1.584 2.559 3.754 1.438 5.168-7.58 9.458-8.677 24.206-22.863 28.399-.829.244-1.341 1.658-1.975 2.535 1 .439 2.316 1.536 2.925 1.243 3.535-1.779 7.069-3.242 9.165 1.487 2.048 4.656-2.169 6.802-4.997 8.484-17.695 10.555-18.744 29.398-23.448 46.389-1.023 3.657-2.998 6.07-6.8 5.193-4.558-1.049-3.656-4.486-2.365-7.728.878-2.194 1.682-4.388 2.535-6.582-1.584 2.072-3.607 3.949-4.655 6.241-2.584 5.631-6.289 10.97-.658 17.527 5.484 6.411-2.267 7.63-5.436 10.263-3.315 2.754-11.383 2.73-4.996 10.384 1.754 2.097-.195 4.876-1.975 6.436-7.897 6.948-3.851 23.183-18.988 24.426 2.828 6.874-1.584 12.92-2.413 19.38-.633 4.924-1.95 10.823-8.701 4.29-3.242-3.12-4.729.634-5.29 2.023-6.118 15.041-16.94 28.449-16.379 45.878.024 1.097-.146 3.023-.658 3.169-6.801 2.121-9.433 5.485-4.095 11.75-11.164 8.02-10.14 21.184-13.772 32.397-.536 1.658-2.486 3.901-3.997 4.071-16.867 1.975-10.189 16.284-13.674 25.304-3.681 9.482-4.046 20.428-14.722 26.693-4.753 2.803-7.386 9.287-10.823 14.212-.511.731-.243 2.023-.316 3.071 1.096-.39 2.315-.561 3.241-1.17 3.583-2.316 6.338-1.341 7.8 2.316 1.365 3.388-1.292 5.022-3.778 6.63-3.68 2.414-7.288 4.949-10.847 7.533-1.633 1.17-4.484 2.706-4.411 3.9 1.121 15.455-10.116 26.742-14.844 39.979-3.681 10.311-5.68 21.037-9.653 30.934-2.656 6.631-6.922 13.798-12.821 19.746-5.021 5.07-8.75 14.626-7.873 21.549.975 7.801-3.802 12.579-7.019 13.432-10.481 2.804-10.384 13.31-8.604 17.088 4.07 8.654-2.974 10.873-4.851 16.138-4.046 11.433-13.918 19.673-15.892 32.032-.658 4.193-.171 9.458-7.386 10.555-5.947.878-7.093 7.069-7.507 12.506-1.267 17.185-10.188 32.177-13.893 48.656-.171.78-.342 1.999-.853 2.219-13.772 5.923-12.188 19.501-15.6 30.69-1.243 4.096-.975 9.751-8.263 10.044-3.949.171-3.827 5.826-3.169 8.166 4.046 14.675-4.777 22.964-14.161 31.447-2.462 2.242-5.704 6.216-2.438 9.482 8.117 8.069-.755 16.138-3.656 16.821-8.799 2.12-4.777 12.725-12.309 15.114-1.706.536 4.095 5.679 1.926 10.969-5.265 12.749-10.262 25.499-16.404 37.955-3.9 7.899-6.46 16.821-8.239 26.133-2.9 15.163-6.337 33.933-20.158 41.833-10.139 5.8-3.534 14.62-9.603 19.18 9.725 10.24-4.729 11.7-7.264 17.12-1.608 3.43-4.411 4.02-1.681 8.92 3.266 5.87 3.022 12.45-6.435 13.14-1.122.07-2.535-.61-2.462 1.07 1.316 25.84-13.82 46.22-22.01 68.96-3.315 9.24-6.411 19.28-8.604 29.3-1.975 8.88-5.168 21.48-18.062 24.6-1.292.32-2.194 2.19-3.266 3.34 1.316-.61 2.584-1.49 3.949-1.76 4.241-.85 3.095 1.86 2.876 4.32-.853 8.75-.195 18.26-11.871 20.87-.633.14-1.121.97-1.681 1.48 11.553 10.39-6.825 15.85-4.144 24.99.999 3.41-2.511 4.83-5.021 5.95-6.021 2.7-6.508 8.33-5.728 13.21 2.486 15.65-.975 28.57-14.186 38.27-5.948 4.37-7.312 14.19-7.142 17.94.683 15.41-4.924 27.45-12.699 39.62-4.777 7.48-5.874 16.79-8.628 24.72-3.949 11.28-2.34 25.86-13.894 34.37-2.291 1.68-5.777 3.78.975 5.56 4.436 1.17-.877 4.04-1.316 6.24-.878 4.53-15.161 7.58-1.658 13.94 1.268.61.463 3.78-1.121 3.8-8.896.12-5.411 7.88-7.727 12-1.023 1.85-4.655 3.8-1.316 5.72 2.438 1.42 6.654-.8 7.069-3.04 2.705-14.63 11.041-27.01 15.697-40.74 4.265-12.55 15.624-24.15 7.751-39.29-.366-.71.585-3.03 1.146-3.12 20.864-2.98 14.015-22.87 18.744-34.2 9.603-23.02 19.06-46.42 24.691-71.38 3.29-14.53 13.65-28.45 19.573-43.25 5.167-12.92 10.797-25.66 15.477-38.76 6.289-17.5 12.87-34.68 16.209-53.45 2.511-14.12 12.968-27.04 18.598-41.2 9.847-24.82 22.108-48.68 29.079-74.62 2.51-9.31 8.482-17.11 12.431-25.65 10.895-23.45 12.918-50.602 29.931-71.323 1.244-1.511 2.877-3.607 2.682-5.241-1.463-12.091 7.653-20.281 12.163-29.618 7.946-16.503 11.602-34.469 19.767-50.729 6.094-12.115 11.627-24.523 18.33-36.273 3.095-5.412 4.338-.975 5.655 2.316 2.388 5.924 4.68 6.655 8.628.317 4.193-6.753 4.607-15.016 10.311-21.354 2.729-3.023 3.461-11.238-6.508-8.118-6.167 1.926-7.191-2.56-6.338-6.923 3.023-15.48 14.698-26.523 21.304-40.174.731-1.511 2.291-2.681 3.973-1.755 2.559 1.39 2.608 4.242 1.876 6.436-2.559 7.654-5.533 15.162-8.311 22.719-.658 1.804-2.462 4.632-.512 5.363 2.608.975 2.315-2.291 2.925-4.095 3.705-10.994 14.137-18.064 17.184-29.472.438-1.658 1.706-3.34 3.217-1.658 4.583 5.046 9.506 10.482 9.799 17.43.268 6.728-5.558 12.505-10.92 13.066-15.478 1.658-7.727 16.601-14.478 22.866-.61.585.779 2.584 2.096 1.755 3.826-2.438 6.483-2.072 6.118 2.901-.366 4.9-4.778 7.069-8.678 6.825-4.972-.317-9.067-.609-10.383 5.193-.609 2.706-1.243 7.752-.609 7.971 3.68 1.243 3.363-2.974 4.996-4.754 1.438-1.56 1.926-5.143 5.216-3.485 2.682 1.34 2.365 3.851 1.39 6.338-.902 2.242-1.365 4.704-2.486 6.801-9.604 17.844-13.894 38.126-25.472 55.043-.755 1.097-.317 3.072-.243 4.608.292 5.753-1.512 11.774-6.923 12.749-5.898 1.048-12.528-.683-18.524-2.316-1.39-.39-6.07-5.168-.22-8.239 4.412-2.316.415-5.802.878-8.679.633-.902 1.292-1.779 1.755-2.779-.78.78-1.39 1.707-2.121 2.536-9.872 18.697-18.256 38.052-25.959 57.725-.706 1.779-2.145 4.217.585 4.973 1.341.365 4.168-1.195 4.826-2.609 3.73-7.971 7.776-15.942 10.116-24.353 1.316-4.704 4.095-7.703 6.752-11.116 2.193-2.827 5.996-4.314 8.555-2.047 3.705 3.266-.951 5.29-2.681 7.484-1.219 1.56-3.51 2.413-4.412 4.071-.829 1.535-1.243 4.461-.341 5.484 2.047 2.365 3.266-.731 4.631-1.755 2.218-1.657 4.607-4.802 7.142-2.096 1.56 1.657 1.73 5.412 1.243 7.996-.585 3.047-2.096 6.191-3.998 8.678-8.287 10.872-9.701 24.718-15.672 36.224-6.265 12.067-6.46 29.913-25.399 33.003-4.46.74-5.996 4.59 0 6.9 2.682 1.05 6.874 3.71 4.485 5.37-10.919 7.5-6.264 19.81-10.213 29.32-4.972 11.92-9.091 24.21-14.015 36.15-4.924 11.92-8.312 24.55-15.746 35.37-.829 1.22-.902 3.03-1.121 4.59-1.95 13.14-7.459 16.11-19.256 11.14-2.827-1.2-6.02-7.29-8.945-2.44-3.218 5.29-4.071 12.02-5.826 18.14-.097.36.927 1.53 1.438 1.56 2.657.09 3.193-1.95 3.559-3.98.683-3.7 1.706-8.43 6.313-6.73 4.144 1.54 3.022 6.42.756 9.39-3.559 4.66-1.633 10.43-3.73 15.09-3.339 7.43 7.288-1.8 6.045 5.78-1.072 6.55-11.846 32.59-18.597 35.42-3.267 1.36-10.555 1.75-1.56 6.46 4.021 2.09 3.509 6.9 2.145 9.82-7.8 16.82-10.116 36.32-24.521 50.02-4.363 4.15.95 9.56-1.438 15.51-12.577 31.13-23.424 62.96-34.929 94.53-1.048 2.9-2.291 5.63 1.877 6.73 4.339 1.12 4.192-2.17 4.704-5.05.658-3.56 1.706-8.46 5.826-7.97 6.581.78 3.12 6.29 2.51 9.7-.804 4.54 1.122 4.32 3.535 2.34 9.603-7.89 6.118 1.98 6.264 4.93.341 6.43-5.289 10.68-7.239 16.43-1.365 4-2.682 10.48-7.849 9.12-6.24-1.64-.682-6.46-.414-9.97.17-2.2.487-5.44-2.486-6.03-2.34-.46-3.169 2-3.437 4.12-.707 5.66-6.533 11.78 3.022 16.29 3.169 1.48 2.023 7.48.878 11.41-.342 1.17-2.194 2.65-3.34 2.65-2.461 0-11.383-20.5-10.31-23.08 2.145-5.17 8.677-13.46 3.071-15.09-5.679-1.66-4.777 9.09-6.288 14.6-1.902 6.9-6.85 13.87 2.218 20.09 1.876 1.29 1.779 6.16-4.485 6.73-9.677.9-20.377 17.82-18.793 27.57.073.41-.926 2.9 1.121 1.21 8.897-7.38 12.309 8.61 20.962 4.93 1.609-.68 2.73 5.95.853 8.31-7.483 9.58-9.213 21.16-12.455 32.3-.707 2.46-2.023 6.29-5.557 5.05-2.316-.81-2.218-4.56-1.122-6.61 3.462-6.43-1.048-14.97 5.558-20.55.536-.46 0-2.17 0-3.29-1.024.32-2.316.37-3.047 1-3.754 3.36-5.362 7.75-6.508 12.68-1.657 7.21 1.609 16.21-6.995 21.2-.488.3-.585 2.42-.074 3.03 2.097 2.46 8.897-.54 7.386 5.24-.512 1.95-6.971 1.73-9.433 3.92-4.704 4.22-3.973 11.14-6.508 16.63-5.874 12.75-9.677 26.5-15.283 39.03-3.461 7.7-5.972 19.45-16.964 23.03-5.533 1.81-6.508 3.54.17 4.98.244.04.512.7.488 1.04-.342 4.63-7.069 12.48 2.973 12.29 5.412-.1 9.433-8.75 10.408-15.04 3.266-21.36 12.967-40.49 19.939-60.55 2.34-6.73 4.119-14.22 10.797-18.6 3.705 6.85-.828 13.77.147 20.59 1.048 7.46-5.923 11-7.751 17.26-5.631 19.24-12.553 38.11-18.866 57.14-3.608 10.9-15.965 20.43-28.08 18.46-13.308-2.17-9.92 6.58-9.749 12.67.17 6.02 7.507 13.19-4.461 16.07-2.974.7-.292 3.51.683 4.78 5.118 6.68-2.682 14.7 2.315 21.45.585.78-.244 3.31-2.657 2.85-3.363-.63-6.313-1.95-7.141-5.63-.658-2.88 2.754-6.68-1.463-8.63-1.998-.93-2.705 1.58-2.437 2.95.829 4.36-6.338 9.6.463 12.8 3.437 1.61 4.509 3.36 3.875 6.16-1.56 7.2-2.364 12.14 7.922 7.56 5.119-2.29 4.534 3.29 4.363 6.05-.292 4.8-1.584 9.5-2.169 14.31-.463 3.77-.488 7.41 4.997 7.7 10.846.58 7.458 4.95 2.218 9.34-1.487 1.24-4.436 2.07-2.584 4.21 6.484 7.56-2.779 9.02-4.875 9.12-5.509.29-3.632-5.14-3.534-8.29.122-4.95 1.097-7.34-6.557-6.51-5.411.59-2.974-7.31-2.072-11.82.658-3.27 3.242-8.48-1.072-9.26-4.046-.73-8.239 3-8.336 8.53 0 .8.097 1.66-.122 2.44-1.292 4.53 2.925 13.26-4.217 12.77-6.07-.41-.926-8.7-2.047-13.33-.317-1.27-.122-2.64-.171-3.98-.39 1.1-.683 2.22-1.146 3.27-3.705 8.19-12.187 16.87 3.072 22.79 2.632 1.03 2.73 5.46 1.51 7.8-7.311 14.14-9.456 30.47-18.84 43.71-1.122 1.59-1.268 3.71-4.022 3.66-2.73-.05-4.047-7.51-7.215-1.98-1.975 3.44 3.656 4.63 4.923 7.49 1.853 4.14 1.073 7.6-1.852 11.16-3.217 3.93-.56 10.43 1.584 10.53 4.802.22.122-4.68 1.511-6.9 3.193-5.09 7.63-9.21 9.872-15.11 1.048-2.76 4.193-7.56 8.092-4.95 2.95 1.98 2.633 7.58-.195 9.85-5.289 4.24-4.606 9.36-4.363 14.82.05 1.44-1.389 3.15.732 3.93.487.17 2.096-1.3 2.388-2.27 2.9-9.68 13.626-15.02 14.162-26.13.17-3.44 3.315-6.22 6.971-4.76 3.997 1.59 1.048 4.8.268 7.14-9.555 28.99-22.473 57.36-27.64 87.1-3.584 20.6-17.258 37.98-15.698 59.7.366 5.05-3.705 11.41-6.093 15.51-6.874 11.8-6.533 24.74-9.555 36.95-5.825 23.5-10.822 47.32-22.863 68.48-6.264 10.99 4.168 9.75 7.678 13.21 2.608 2.56 2.68-1.32 3.095-2.95.634-2.31.878-5.51 4.217-4.22 2.462.96 2.218 4.15 1.974 6.49-1.243 12.09 1.975 23.38 6.216 34.42 2.047 5.31 1.243 10.87-3.071 12.94-6.167 3-4.168-5.04-6.679-6.94-3.73-2.83-3.827-7.66-7.19-10.41-1.682 4.04-3.68 7.99-4.948 12.16-1.512 5-2.218 10.24-3.657 15.26-1.072 3.78.171 4.51 3.803 5.17 10.408 1.9 12.967 9.46 9.993 18.26-3.095 9.14-6.361 18.38-10.188 27.13-4.51 10.31-14.527 15.77-25.666 18.62-26.276 6.73-53.015 5.54-79.754 5.27-16.72-.17-33.539.19-50.162 1.78-12.529 1.19-17.696-7.09-24.009-14.72v-9.76c6.825-4.09 3.047-11.96 6.386-17.57 10.189-17.11 18.768-34.91 24.984-54.07 11.7-36.05 25.032-71.52 36.05-107.84 15.477-50.95 33.344-101.17 48.261-152.26 8.556-29.33 18.135-58.46 28.323-87.06 15.844-44.43 28.786-89.8 44.873-134.17 12.163-33.52 26.008-66.57 35.1-101.33 4.119-15.73 10.432-31.25 16.38-46.64 7.117-18.35 15.111-36.39 21.4-55.02 27.324-80.61 58.231-159.89 87.772-239.67 19.841-53.61 41.998-106.33 63.593-159.28 28.908-70.87 57.646-141.828 87.626-212.254 24.472-57.481 50.699-114.231 76.049-171.322 18.012-40.588 35.611-81.371 53.867-121.862 15.892-35.249 32.418-70.206 48.773-105.26 17.867-38.272 34.856-76.983 54.063-114.549 15.624-30.544 29.639-61.893 46.311-91.974 14.625-26.401 26.252-54.459 40.194-81.25 16.355-31.47 33.588-62.503 50.772-93.559C726.84 54.275 742.05 27.119 757.869.328c9.628-16.308 20.426-31.934 30.955-47.681 3.656-5.485 24.131-4.827 24.033.414-.17 7.533 3.681 4.705 6.85 5.68 14.137 4.388 25.105 13.554 35.903 23.329 6.508 5.9 17.184 7.142 18.476 18.82.219 1.852 6.825 2.315 10.969-.074 5.021-2.9 12.211-8.556 10.554 4.9-.463 3.754 3.047 6.777 6.605 7.971 11.797 3.974 7.946 10.824 1.097 14.017-7.459 3.462-7.581 9.093-9.14 14.943-.488 1.853-1.999 3.974.853 5.022 1.95.731 6.118-3.462 5.703 2.316-.39 5.436-5.703 5.46-9.238 6.41-14.649 3.974-22.741 15.53-28.81 27.425-3.242 6.387-4.68 14.383-8.117 21.233-2.852 5.704-6.678 11.238-.78 17.527 1.146 1.219 1.804 4.778.975 5.753-10.213 11.579-4.997 25.84-7.288 38.735-.975 5.485-4.46 10.165-9.871 13.213-3.632 2.047-5.704 5.314-3.73 10.262 1.755 4.437 4.241 6.777 8.97 6.29 12.87-1.292 12.748 6.874 8.629 14.236-9.043 16.113-10.896 34.128-15.966 51.289-1.803 6.095-3.583 12.603-11.456 13.993-1.072.195-2.998 1.243-2.949 1.463 5.216 18.453-16.526 25.693-17.111 41.465-.122 3.218-6.654 8.8 3.023 10.531 3.363.609.828 5.241-1.95 7.021-1.853 1.17-5.022.707-4.778 4.217 1.926-.195 3.827-.488 5.753-.561 2.754-.122 5.24-4.339 7.483-2.048 2.51 2.56-.854 5.973-1.17 9.093-.244 2.365-1.317 4.632-1.926 6.972-.902 3.535-1.633 7.679-5.557 8.703-5.655 1.487-3.071-4.193-4.656-6.338-1.243-1.658-2.608-3.73-4.777-2.56-1.511.804-3.193 2.901-3.315 4.51-.439 7.191 1.901 14.504-4.29 21.037-2.364 2.487 1.852 1.755 3.266 1.438 2.316-.511 4.972-4.704 6.606.269 1.291 3.949-.61 7.142-4.583 8.751-2.949 1.195-6.215 1.853-8.872 3.51-2.462 1.536-6.654 3.267-3.681 7.387 2.657 3.681 6.338 3.022 9.653.585 6.8-4.998 9.481-13.042 13.259-19.892 15.99-28.96 35.758-55.507 52.868-83.736 7.069-11.676 32.784-6.874 38.341 6.168 1.097 2.584 1.999 5.924 5.436 5.777 11.675-.536 19.987 6.753 28.786 12.433 3.242 2.096 4.875 1.389 7.41 0 3.534-1.975 7.897.048 8.507 2.291 2.876 10.677 11.602 13.212 20.23 16.065 2.73.902 3.681 3.095 4.851 5.094 2.145 3.657 2.486 5.437 5.167-.316 12.309-26.474 24.619-53.021 38.441-78.714 12.7-23.646 24.74-47.682 37.68-71.23 13.07-23.792 24.69-48.633 37.66-72.62 18.79-34.762 37.41-69.645 57.3-103.773 18.09-31.033 34.42-63.064 54.31-93.121 14.36-21.696 26.69-44.708 40.66-66.672 4.16-6.581 10.23-14.772 19.33-11.993 16.4 4.997 21.93 13.09 21.27 26.254-1.24 1.487-2.6 2.852-3.92 4.29 1.34-1.413 2.73-2.754 4.22-3.997 14.4-10.604 19.06 4.363 26.49 10.701 2.76 2.34 3.9 5.144 8.48 4.705 12.95-1.292 17.31 4.29 14.43 16.43-1.17 4.9 3.05 3.364 5.46 2.73 7.12-1.901 13.99-4.022 14.02 7.508 0 3.023 3.34 3.34 5.6 3.657 10.02 1.438 12.61 12.286 20.87 16.21 3.29 1.561 3.92 6.51-.66 8.752-6.17 2.999-6.7 5.875-3.39 12.286 4.95 9.654-4.41 33.129-13.82 38.833-2.43 1.463-4.31 1.902-6.46-.097-4.8-4.486-5.02 1.852-6.92 3.266-3.61 2.657-.97 4.949 1.68 6.363 5.1 2.681 9.44 7.508 8.05 12.31-1.39 4.851-7.51 6.021-13.19 4.51-1.71-.463-10.94 18.94-9.77 20.33 1.8 2.146 3.53.39 5.31-.34 4.58-1.83 8.31-.562 9.41 4.314 1.19 5.314-3.34 5.51-6.88 6.167-2.73.512-5.46.927-8.19 1.414-1.48.268-3.51.293-2.65 2.584.22.61 2.19 1.048 3.17.805 7.89-2.024 15.13-4.876 20.23 5.874 3.6 7.655 6.63 14.407 2.29 22.281-4.24 7.703-1.81 15.821.92 22.305 4.12 9.824 1.35 18.283-3.75 24.743-22.91 28.985-29.35 63.039-32.03 98.313-1 12.969-11.57 21.062-14.6 32.836-.78 3.047-3.95 1.804-6.07.366-2.29-1.56-4.63-2.048-6.33.487-.78 1.146-1.27 3.316-.69 4.364 1.3 2.364 3.51 2.559 6.27 1.779 2.87-.828 6.68-3.339 8.89-.463 2.91 3.779-1.26 6.46-3.33 9.288-9.17 12.457-3.08 27.546-7.07 41.124-4.66 15.821-7.14 32.276-10.87 48.389-.69 2.974-2.08 6.265-5.95 7.02-1.78.561-2.54-.073-2.29-1.925l-.08-.073Z" fill="#000" fill-opacity=".05"/></svg>