<svg xmlns="http://www.w3.org/2000/svg" width="32" height="30" viewBox="0 0 32 30"><g><g><g><path d="M15.006 18.668l-7.95 3.016c-.003.004-.01.007-.024 0-.014-.003-.017-.014-.017-.017l-2.669-7.035c-.003-.004-.007-.01 0-.024.004-.014.014-.018.018-.018l7.95-3.02zm-7.964 4.756c.213 0 .428-.039.63-.115l9.578-3.632L13.322 9.33l-9.574 3.628a1.762 1.762 0 0 0-.988.93 1.765 1.765 0 0 0-.042 1.356l2.668 7.035a1.776 1.776 0 0 0 1.656 1.145z"/></g><g><path d="M4.858 20.884l-1.069.404a.475.475 0 0 1-.608-.275l-1.27-3.35a.475.475 0 0 1 .275-.61l1.064-.407zm-1.232 2.171c.26 0 .525-.045.783-.143l2.693-1.023-2.84-7.487-2.692 1.023a2.216 2.216 0 0 0-1.284 2.853l1.27 3.35a2.214 2.214 0 0 0 2.07 1.427z"/></g><g><path d="M13.806 10.603l6.287-7.901 6.617 17.44-9.947-1.742zm14.665 10.994c.275-.33.351-.79.198-1.193L21.384 1.202a1.202 1.202 0 0 0-2.067-.32l-7.487 9.415 3.66 9.644 11.846 2.077a1.192 1.192 0 0 0 1.134-.421z"/></g><g><path d="M12.693 21.402l.201.53a.762.762 0 0 1-.097.72l-.863 1.19 1.708 3.256-1.485.563-2.582-5.076zm-.87 8.173c.125 0 .25-.021.372-.066l2.787-1.058a1.053 1.053 0 0 0 .56-1.475l-1.569-2.985.23-.317a2.49 2.49 0 0 0 .316-2.359l-.817-2.153-6.555 2.487 3.736 7.348c.188.366.554.578.94.578z"/></g><g transform="rotate(69.218 29.37 9.16)"><path d="M28.497 10.808V7.506h1.739v3.302z"/></g><g transform="rotate(43.797 26.06 4.04)"><path d="M25.19 5.694V2.39h1.74v3.305z"/></g><g transform="rotate(4.64 30.285 15.18)"><path d="M28.633 16.05v-1.739h3.302v1.74z"/></g><g transform="rotate(69.218 9.1 15.125)"><path d="M8.233 17.86v-5.466h1.74v5.466z"/></g></g></g></svg>