<svg xmlns="http://www.w3.org/2000/svg" width="32" height="28" viewBox="0 0 32 28"><g><g><g><path d="M29 26H3c-.551 0-1-.449-1-1V10.741l9.963 5.812.037.02V18a1 1 0 0 0 1 1v2a1 1 0 0 0 .553.894l2 1a1 1 0 0 0 .894 0l2-1A1 1 0 0 0 19 21v-2a1 1 0 0 0 1-1v-1.428l.054-.029L30 10.741V25c0 .551-.449 1-1 1zm-14-7h2v1.382l-1 .5-1-.5zm3-2h-4v-2h4zM3 6h26c.551 0 1 .449 1 1v1.43c-.02.01-.04.018-.058.03L20 14.259V14a1 1 0 0 0-1-1h-6a1 1 0 0 0-1 1v.259L2 8.426V7c0-.551.449-1 1-1zm9-3c0-.551.449-1 1-1h6c.551 0 1 .449 1 1v1h-8zm17 1h-7V3c0-1.654-1.346-3-3-3h-6c-1.654 0-3 1.346-3 3v1H3C1.346 4 0 5.346 0 7v18c0 1.654 1.346 3 3 3h26c1.654 0 3-1.346 3-3V7c0-1.654-1.346-3-3-3z"/></g></g></g></svg>