<svg xmlns="http://www.w3.org/2000/svg" xmlns:xlink="http://www.w3.org/1999/xlink"><symbol viewBox="0 0 24.825 12.412" id="icon-check-down" xmlns="http://www.w3.org/2000/svg"><path data-name="Контур 106296" d="m1.413 1.412 11 10 11-10"/></symbol><symbol viewBox="0 0 70.195 46.057" id="icon-envelope" xmlns="http://www.w3.org/2000/svg"><path data-name="Вычитание 2" d="M62.962 46.057H7.233A7.233 7.233 0 0 1 0 38.824V7.7l35.1 23.025L70.195 7.7v31.124a7.233 7.233 0 0 1-7.233 7.233ZM35.1 23.446 2.311 1.935A7.211 7.211 0 0 1 7.233 0h55.729a7.208 7.208 0 0 1 4.921 1.935L35.1 23.446Z"/></symbol><symbol viewBox="0 0 48.014 40" id="icon-telegram" xmlns="http://www.w3.org/2000/svg"><path data-name="Контур 59937" d="m.79 20.734 8.775 3.255a6.035 6.035 0 0 0 5.447-.637l18.7-12.466a1.069 1.069 0 0 1 1.319 1.674L21.192 25.368a1.728 1.728 0 0 0 .129 2.645l14.615 11.094a4.366 4.366 0 0 0 6.955-2.81l5.087-32.845a2.99 2.99 0 0 0-4.12-3.211L.739 18.484a1.211 1.211 0 0 0 .051 2.251"/></symbol></svg>