<svg xmlns="http://www.w3.org/2000/svg" width="32" height="32" viewBox="0 0 32 32"><g><g><g><path d="M3.818 22.08a1.745 1.745 0 0 1 3.492 0 1.746 1.746 0 0 1-3.492 0zm2.904 3.65a3.84 3.84 0 0 0 2.67-3.655 3.831 3.831 0 1 0-7.664 0 3.844 3.844 0 0 0 2.67 3.655H4.17a3.836 3.836 0 0 0-3.836 3.827v1.398c0 .575.475 1.04 1.05 1.04.574 0 1.04-.47 1.04-1.04v-1.398a1.74 1.74 0 0 1 1.742-1.741h2.782a1.74 1.74 0 0 1 1.741 1.741v1.398c0 .575.47 1.04 1.04 1.04.57 0 1.05-.47 1.05-1.04v-1.398c.01-2.112-1.714-3.827-3.827-3.827z"/></g><g><path d="M24.713 22.08a1.74 1.74 0 0 1 1.741-1.742 1.74 1.74 0 1 1 0 3.479 1.738 1.738 0 0 1-1.741-1.737zm3.135 3.65h-.24a3.847 3.847 0 0 0 2.678-3.655 3.837 3.837 0 0 0-3.836-3.831 3.837 3.837 0 0 0-3.832 3.836c0 1.71 1.131 3.157 2.678 3.655h-.24a3.828 3.828 0 0 0-3.826 3.827v1.398c0 .574.47 1.04 1.04 1.04.57 0 1.04-.47 1.04-1.04v-1.403c0-.963.788-1.741 1.742-1.741h2.791c.955 0 1.742.778 1.742 1.741v1.398c0 .575.461 1.04 1.04 1.04.575 0 1.04-.47 1.04-1.04v-1.398a3.815 3.815 0 0 0-3.817-3.827z"/></g><g><path d="M14.268 3.832A1.73 1.73 0 0 1 16 2.095a1.74 1.74 0 1 1 0 3.478 1.735 1.735 0 0 1-1.732-1.741zm-2.438 9.92c.574 0 1.04-.47 1.04-1.04v-1.398c0-.964.787-1.742 1.742-1.742h2.795c.955 0 1.733.778 1.733 1.742v1.397a1.045 1.045 0 0 0 2.09 0v-1.397a3.831 3.831 0 0 0-3.827-3.827h-.236a3.84 3.84 0 0 0 2.67-3.66A3.83 3.83 0 0 0 16 0a3.828 3.828 0 0 0-3.827 3.827 3.845 3.845 0 0 0 2.67 3.66h-.231a3.825 3.825 0 0 0-3.827 3.827v1.397c.004.57.461 1.04 1.045 1.04z"/></g><g><path d="M20.18 23.636h-3.13v-7.903c0-.579-.47-1.045-1.05-1.045a1.04 1.04 0 0 0-1.036 1.045v7.903H11.83c-.584 0-1.04.47-1.04 1.045 0 .574.46 1.045 1.04 1.045h8.35c.584 0 1.05-.47 1.05-1.045s-.466-1.045-1.05-1.045z"/></g></g></g></svg>