<svg xmlns="http://www.w3.org/2000/svg" width="333" height="279" viewBox="0 0 333 279"><g><g clip-path="url(#clip-d0a40be9-d032-428a-8ee6-4a202437d431)" transform="rotate(-122 300.515 41.91)"><g><path fill="none" stroke-miterlimit="20" stroke-width="2" d="M85.997 45.029v0l133.931-33.848v0l118.538 84.061v0l-49.496 122.32v0l-127.954 63.596v0L62.392 166.529v0z"/></g><g><path fill="none" stroke-miterlimit="20" stroke-width="2" d="M174.988-.78v0l101.924-176.744v0L319.12 3.706v0L514.214 15.88v0L345.06 131.524v0L328.516 278.07v0L198.453 131.524v0L35.715 57.278v0z"/></g><g><path fill="none" stroke-miterlimit="20" stroke-width="2" d="M312.85-163.495v0l133.932-33.847v0l118.537 84.06v0L387.87 72.634v0z"/></g><g transform="rotate(43 295.49 57.465)"><path fill="none" stroke-miterlimit="20" stroke-width="2" d="M73.885-7.665v0l253.428-144.653v0L517.1 43.689v0L235.759 267.248v0z"/></g><g><path fill="none" stroke-miterlimit="20" stroke-width="2" d="M270.902-116.341v0l93.84-23.715v0l83.053 58.896v0l-34.68 85.706v0l-89.65 44.558v0l-69.102-80.316v0z"/></g></g></g></svg>
