<svg xmlns="http://www.w3.org/2000/svg" width="32" height="32" viewBox="0 0 32 32"><g><g><g><g/><g><g><path d="M16.917 26.962c-.302.026-.608.038-.917.038-6.071 0-11-4.929-11-11S9.929 5 16 5s11 4.929 11 11c0 4.415-2.608 8.226-6.364 9.977a1 1 0 0 0 .844 1.813C25.92 25.722 29 21.217 29 16c0-7.175-5.825-13-13-13S3 8.825 3 16s5.825 13 13 13c.364 0 .725-.015 1.083-.044a1 1 0 0 0-.166-1.994z"/></g></g><g><g><path d="M5.959 18.841c.617.397 1.374.581 2.108.78.446.122.894.226 1.196.555.494.539 1.263 1.391 1.664 2.286.176.392.307.788.154 1.144-.17.395-.651.92-1.252 1.499a11.016 11.016 0 0 1-4.582-6.781c.26.205.504.384.712.517zm-1.284-3.644A1 1 0 0 0 3 15.932V16c0 4.784 2.59 8.969 6.444 11.226a1 1 0 0 0 1.183-.128c1.107-1.018 2.006-2.035 2.292-2.704.365-.851.253-1.815-.167-2.751-.492-1.097-1.409-2.158-2.015-2.819-.462-.504-1.066-.803-1.732-1.012-.657-.207-1.396-.288-1.964-.653-.635-.408-1.63-1.289-2.366-1.962z"/></g></g><g><g><path d="M17.724 5.134zm0 0a6.21 6.21 0 0 1-.492.726c-.501.6-1.279.954-2.026 1.184-.584.18-1.492.06-2.286.089-.835.03-1.573.209-2.045.586-.519.416-.779 1.125-.866 1.957-.04.385-.052.799-.109 1.177-.027.183-.039.361-.144.478-.578.643-1.717 1.232-2.693 1.171-.346-.021-.829-.201-1.34-.431C7.306 7.938 11.313 5 16 5c.586 0 1.163.046 1.724.134zm-14.19 7.172a1 1 0 0 0 .513 1.18c1.033.514 2.189.968 2.89 1.012 1.557.097 3.385-.805 4.306-1.829.429-.477.618-1.198.689-1.979.034-.379.046-.771.11-1.115.02-.114.006-.233.082-.294.089-.07.218-.084.357-.106.281-.045.6-.05.925-.05.868 0 1.77.021 2.388-.169 1.11-.342 2.23-.923 2.974-1.816.367-.44.889-1.32 1.372-2.217a.999.999 0 0 0-.61-1.437A12.995 12.995 0 0 0 16 3C10.108 3 5.126 6.929 3.534 12.306z"/></g></g><g><g><path d="M24.526 22.948c-.584-.273-1.227-.518-1.773-.751a8.518 8.518 0 0 1-.668-.33c-.13-.867.14-1.964.551-2.821.243-.506.506-.95.827-1.101.068-.032.156-.02.252-.012.223.016.47.074.73.155.701.218 1.471.595 2.127.96a10.965 10.965 0 0 1-2.046 3.9zm-.282 2.105a1 1 0 0 0 1.247-.172 12.973 12.973 0 0 0 3.212-6.106.999.999 0 0 0-.459-1.068c-1.022-.62-2.575-1.427-3.792-1.683-.731-.154-1.376-.108-1.844.113-.632.298-1.299 1.048-1.776 2.046-.636 1.328-.957 3.07-.653 4.352.087.368.439.83 1.108 1.184.76.402 2.08.804 2.956 1.334z"/></g></g></g></g></g></svg>