<svg width="88" height="88" viewBox="0 0 88 88" fill="none" xmlns="http://www.w3.org/2000/svg">
<g clip-path="url(#clip0_1_45714)">
<mask id="mask0_1_45714" style="mask-type:alpha" maskUnits="userSpaceOnUse" x="0" y="0" width="88" height="88">
<path d="M51.0516 0C40.9484 0 28.2562 6.24601 17.2377 17.2645C9.14108 25.3611 3.36316 34.7586 1.00457 43.7353C-1.178 52.0432 0.441107 60.2782 3.50727 63.3443C6.73888 66.576 14.8085 68.0296 23.1163 65.847C32.093 63.4884 41.4905 57.7105 49.5871 49.6139C65.5692 33.6318 71.1987 11.3463 63.352 3.49965C60.6413 0.789037 55.628 0 51.0516 0ZM73.844 13.9917C73.9144 14.4142 73.9128 14.8344 73.9128 15.2568C73.9128 27.261 67.0491 41.9763 54.5169 54.5436C45.5402 63.4851 35.0148 69.889 24.8764 72.5644C21.4618 73.4445 18.1896 73.9052 15.1269 73.9052C14.7397 73.9052 14.3857 73.906 14.0337 73.8708L24.4914 84.3285C35.7563 92.2843 55.9621 86.9681 71.4513 71.4437C86.9758 55.9545 92.2919 35.7487 84.3361 24.4838L73.844 13.9917Z" fill="black"/>
</mask>
<g mask="url(#mask0_1_45714)">
<rect x="-8.79547" y="-8.79932" width="105.591" height="105.591" fill="#06DCFF"/>
</g>
</g>
<defs>
<clipPath id="clip0_1_45714">
<rect width="88" height="88" fill="white"/>
</clipPath>
</defs>
</svg>
