<svg width="94" height="180" viewBox="0 0 94 180" fill="none" xmlns="http://www.w3.org/2000/svg">
<g clip-path="url(#clip0_1_2977)">
<path d="M23.7373 1.49475H70.2627V8.35916C70.2627 9.37058 69.861 10.3406 69.1458 11.0558C68.4306 11.7709 67.4606 12.1727 66.4492 12.1727H27.5509C26.5394 12.1727 25.5694 11.7709 24.8543 11.0558C24.1391 10.3406 23.7373 9.37058 23.7373 8.35916V1.49475Z" fill="#89C9EE"/>
<path d="M76.3645 95.339H17.6357C13.4233 95.339 10.0085 98.7538 10.0085 102.966V111.6C10.0085 115.812 13.4233 119.227 17.6357 119.227H76.3645C80.5768 119.227 83.9916 115.812 83.9916 111.6V102.966C83.9916 98.7538 80.5768 95.339 76.3645 95.339Z" fill="#89C9EE"/>
<path d="M79.0339 169.291H13.4407C12.935 169.291 12.45 169.09 12.0924 168.733C11.7348 168.375 11.5339 167.89 11.5339 167.385C11.5339 166.879 11.7348 166.394 12.0924 166.036C12.45 165.679 12.935 165.478 13.4407 165.478H79.0339C79.5396 165.478 80.0246 165.679 80.3822 166.036C80.7398 166.394 80.9407 166.879 80.9407 167.385C80.9407 167.89 80.7398 168.375 80.3822 168.733C80.0246 169.09 79.5396 169.291 79.0339 169.291V169.291Z" fill="#89C9EE"/>
<path d="M82.4661 179.969H11.5339C8.49968 179.969 5.5897 178.764 3.44416 176.618C1.29861 174.473 0.0932617 171.563 0.0932617 168.529V11.4099C0.0932617 8.37566 1.29861 5.46568 3.44416 3.32014C5.5897 1.17459 8.49968 -0.0307617 11.5339 -0.0307617H82.4661C85.5004 -0.0307617 88.4104 1.17459 90.5559 3.32014C92.7015 5.46568 93.9068 8.37566 93.9068 11.4099V168.529C93.9068 171.563 92.7015 174.473 90.5559 176.618C88.4104 178.764 85.5004 179.969 82.4661 179.969ZM11.5339 3.7828C9.5111 3.7828 7.57111 4.58637 6.14075 6.01673C4.71039 7.44709 3.90682 9.38708 3.90682 11.4099V168.529C3.90682 170.551 4.71039 172.491 6.14075 173.922C7.57111 175.352 9.5111 176.156 11.5339 176.156H82.4661C84.489 176.156 86.429 175.352 87.8593 173.922C89.2897 172.491 90.0933 170.551 90.0933 168.529V11.4099C90.0933 9.38708 89.2897 7.44709 87.8593 6.01673C86.429 4.58637 84.489 3.7828 82.4661 3.7828H11.5339Z" fill="#89C9EE"/>
<path d="M82.0849 54.8845H61.3239C60.8182 54.8845 60.3332 54.6836 59.9756 54.326C59.618 53.9684 59.4171 53.4834 59.4171 52.9777C59.4171 52.472 59.618 51.987 59.9756 51.6294C60.3332 51.2718 60.8182 51.0709 61.3239 51.0709H82.0849C82.5906 51.0709 83.0756 51.2718 83.4332 51.6294C83.7908 51.987 83.9917 52.472 83.9917 52.9777C83.9917 53.4834 83.7908 53.9684 83.4332 54.326C83.0756 54.6836 82.5906 54.8845 82.0849 54.8845V54.8845Z" fill="#89C9EE"/>
<path d="M82.0848 69.3761H61.4916C60.9859 69.3761 60.5009 69.1752 60.1433 68.8176C59.7857 68.46 59.5848 67.975 59.5848 67.4693C59.5848 66.9636 59.7857 66.4786 60.1433 66.121C60.5009 65.7634 60.9859 65.5625 61.4916 65.5625H82.0848C82.5906 65.5625 83.0755 65.7634 83.4331 66.121C83.7907 66.4786 83.9916 66.9636 83.9916 67.4693C83.9916 67.975 83.7907 68.46 83.4331 68.8176C83.0755 69.1752 82.5906 69.3761 82.0848 69.3761V69.3761Z" fill="#89C9EE"/>
<path d="M29.6027 78.6967C39.7123 78.6967 47.9078 70.5013 47.9078 60.3916C47.9078 50.282 39.7123 42.0865 29.6027 42.0865C19.4931 42.0865 11.2976 50.282 11.2976 60.3916C11.2976 70.5013 19.4931 78.6967 29.6027 78.6967Z" fill="#89C9EE"/>
<path d="M29.3508 82.1286C41.2971 82.1286 50.9814 72.4443 50.9814 60.4981C50.9814 48.5519 41.2971 38.8676 29.3508 38.8676C17.4046 38.8676 7.72034 48.5519 7.72034 60.4981C7.72034 72.4443 17.4046 82.1286 29.3508 82.1286Z" fill="#89C9EE"/>
<path d="M33.3627 68.4152C33.2559 67.1872 33.294 66.333 33.294 65.2042C33.8508 64.9143 34.8195 63.0533 35.0178 61.4821C35.4525 61.444 36.1466 61.0169 36.3449 59.3313C36.4128 59.0395 36.3934 58.7342 36.2889 58.4534C36.1845 58.1727 35.9997 57.9289 35.7576 57.7525C36.4745 55.6092 37.9542 48.9813 33.0271 48.3025C32.5161 47.4101 31.2195 46.9601 29.5262 46.9601C22.7762 47.0821 21.9601 52.055 23.4246 57.7525C23.189 57.9345 23.0091 58.1789 22.9053 58.458C22.8015 58.737 22.778 59.0395 22.8373 59.3313C23.0432 61.0169 23.7296 61.444 24.172 61.4821C24.3398 63.0533 25.3771 64.9143 25.9339 65.2042C25.9339 66.333 25.9339 67.1872 25.8652 68.4152C24.9042 71.0008 19.9085 71.2372 17.0559 73.7542C20.5624 77.0577 25.2045 78.8873 30.022 78.8643C35.9788 78.9559 41.1042 74.8448 42.1034 73.7465C39.2813 71.2067 34.3313 71.016 33.3627 68.4152Z" fill="#132E48"/>
<path d="M30.8995 112H33.3595V109.036H35.2915L36.9595 112H39.5515L37.7035 108.748C38.6755 108.328 39.2515 107.488 39.2515 106.288C39.2515 104.44 38.0155 103.48 36.1195 103.48H30.8995V112ZM35.8075 105.556C36.4195 105.556 36.7315 105.772 36.7315 106.276C36.7315 106.744 36.4075 106.996 35.8075 106.996H33.3595V105.556H35.8075Z" fill="#132F49"/>
<path d="M40.7556 112H43.2156V103.48H40.7556V112Z" fill="#132F49"/>
<path d="M51.5601 112H53.6241V103.48H51.2721V108.028L47.7921 103.48H45.0441V112H47.4561V106.768L51.5601 112Z" fill="#132F49"/>
<path d="M63.7669 111.028V106.84H59.0389V108.808H61.3909V109.876C61.2229 109.948 60.7189 110.092 59.9869 110.092C58.3549 110.092 57.5389 109.048 57.5389 107.68C57.5389 106.36 58.3189 105.412 59.5309 105.4C60.3709 105.4 60.8029 105.712 60.9829 105.904H63.5869C63.3829 104.932 62.3029 103.288 59.5309 103.288C56.8789 103.288 55.0549 105.1 55.0549 107.68C55.0549 110.404 56.9269 112.168 59.9269 112.168C62.0029 112.168 63.3709 111.34 63.7669 111.028Z" fill="#132F49"/>
</g>
<defs>
<clipPath id="clip0_1_2977">
<rect width="93.8136" height="180" fill="white" transform="translate(0.0932617)"/>
</clipPath>
</defs>
</svg>
