<svg width="196" height="180" viewBox="0 0 196 180" fill="none" xmlns="http://www.w3.org/2000/svg">
<path d="M143.489 58.7856L137.829 53.5479L140.824 51.2509L154.247 63.6042L160.191 58.9128L140.307 40.6708L131.451 47.7042L127.177 43.776L121.719 48.0259L125.986 51.9617L116.254 59.6236L129.422 71.7451C135.599 77.4242 142.149 78.5391 146.985 72.9048C150.391 69.0365 149.149 63.9933 143.489 58.7856ZM135.112 66.7319L128.629 60.746L132.372 57.8204L139.065 63.9784C140.397 65.2055 140.644 66.2829 139.813 67.1584C138.63 68.6698 136.864 68.3481 135.112 66.7319Z" fill="#89C9EE"/>
<path d="M100.93 180C99.4835 180.005 98.0911 179.45 97.0448 178.451L1.76776 88.1238C1.22752 87.613 0.793443 87.0006 0.490428 86.3218C0.187412 85.643 0.0214108 84.9111 0.00193795 84.168C-0.0175349 83.4249 0.109904 82.6853 0.37695 81.9916C0.643996 81.2978 1.0454 80.6636 1.55815 80.1252L51.042 27.9655C51.5525 27.4262 52.1643 26.9927 52.8426 26.6898C53.5208 26.387 54.2521 26.2207 54.9946 26.2006C55.7372 26.1804 56.4764 26.3068 57.1701 26.5724C57.8638 26.838 58.4983 27.2377 59.0373 27.7486L154.352 118.083C155.439 119.116 156.071 120.537 156.111 122.035C156.15 123.534 155.593 124.986 154.561 126.074L105.04 178.219C104.512 178.779 103.875 179.226 103.168 179.532C102.462 179.838 101.7 179.997 100.93 180ZM55.1669 30.6218C55.0051 30.6244 54.8455 30.6595 54.6976 30.7251C54.5497 30.7906 54.4165 30.8853 54.306 31.0034L4.76225 83.1929C4.53821 83.4312 4.4179 83.7486 4.42772 84.0755C4.43755 84.4023 4.5767 84.7119 4.81465 84.9363L100.084 175.226C100.198 175.344 100.336 175.434 100.488 175.493C100.641 175.551 100.805 175.575 100.968 175.563C101.129 175.56 101.289 175.525 101.437 175.46C101.585 175.394 101.718 175.299 101.828 175.181L151.357 123.029C151.471 122.914 151.56 122.777 151.618 122.627C151.676 122.476 151.702 122.315 151.694 122.154C151.692 121.992 151.656 121.832 151.591 121.685C151.525 121.537 151.43 121.404 151.312 121.293L56.0128 30.9585C55.7858 30.74 55.4821 30.6191 55.1669 30.6218Z" fill="#89C9EE"/>
<path d="M53.2474 83.7156C51.9329 82.4769 52.2027 81.2865 52.4385 80.879L48.4753 77.1444C46.7801 79.1399 45.9496 83.2839 50.0501 87.1479C53.6797 90.5682 57.4256 90.8384 59.9031 88.2094C61.8443 86.1493 61.5546 84.0983 60.8301 82.823C61.9685 83.2659 63.6867 83.3293 65.0733 81.8578C67.5877 79.1896 66.9361 75.8715 63.4438 72.5806C59.7357 69.0864 55.8645 69.7353 53.8644 71.7399L57.7491 75.4006C58.068 75.2195 59.0844 74.7697 60.3008 75.916C61.2818 76.8404 61.4244 77.7897 60.7404 78.5156C60.1857 79.1042 59.5172 79.0669 58.8108 78.4013L56.221 75.9608L53.078 79.2962L56.0014 82.0509C56.7469 82.7535 56.8065 83.4764 56.141 84.1827C55.4754 84.889 54.4246 84.8249 53.2474 83.7156Z" fill="#89C9EE"/>
<path d="M77.1584 85.4301C73.6464 82.1207 69.644 82.2014 66.5934 85.4387L62.8958 89.3626C59.8637 92.5803 60.0022 96.6001 63.5141 99.9095C67.026 103.219 71.047 103.119 74.0791 99.9009L77.7767 95.9769C80.8272 92.7397 80.6703 88.7395 77.1584 85.4301ZM66.842 96.3779C65.7237 95.3241 65.8953 94.0412 66.9307 92.9425L70.4065 89.254C71.4418 88.1553 72.7122 87.9078 73.8305 88.9616C74.9488 90.0155 74.7771 91.2983 73.7418 92.397L70.266 96.0855C69.2307 97.1842 67.9603 97.4317 66.842 96.3779Z" fill="#89C9EE"/>
<path d="M90.9343 98.4115C87.4224 95.1022 83.42 95.1829 80.3694 98.4201L76.6718 102.344C73.6397 105.562 73.7781 109.582 77.2901 112.891C80.802 116.2 84.823 116.1 87.855 112.882L91.5527 108.958C94.6032 105.721 94.4463 101.721 90.9343 98.4115ZM80.6179 109.359C79.4996 108.306 79.6713 107.023 80.7066 105.924L84.1824 102.235C85.2178 101.137 86.4882 100.889 87.6065 101.943C88.7248 102.997 88.5531 104.28 87.5178 105.378L84.042 109.067C83.0067 110.166 81.7363 110.413 80.6179 109.359Z" fill="#89C9EE"/>
<path d="M91.7034 122.213L93.7635 124.154L91.8962 126.136L95.8986 129.908L97.7659 127.926L104.711 134.471L107.004 132.038L100.058 125.493L100.853 124.649L105.209 128.754C108.427 131.786 111.664 132.281 114.474 129.299C117.044 126.572 116.598 123.114 113.381 120.082L105.023 112.206L99.162 118.425L97.1019 116.484L94.8094 118.917L96.8695 120.858L96.056 121.722L93.9959 119.78L91.7034 122.213ZM109.636 123.073C110.696 124.071 110.78 124.965 109.985 125.809C109.227 126.613 108.273 126.603 107.233 125.623L103.368 121.981L105.771 119.431L109.636 123.073Z" fill="#89C9EE"/>
<path d="M194.74 53.441C194.43 52.7633 193.992 52.1521 193.449 51.641L140.912 2.50097C139.8 1.48106 138.329 0.941911 136.82 1.00097C136.077 1.02173 135.345 1.19177 134.669 1.50097C134.007 1.81296 133.412 2.25116 132.918 2.79097L84.9537 53.491L88.0753 56.611L136.19 5.81097C136.299 5.69282 136.43 5.59749 136.576 5.53053C136.722 5.46357 136.88 5.42633 137.04 5.42097C137.193 5.42048 137.344 5.45029 137.485 5.50866C137.625 5.56703 137.753 5.65279 137.861 5.76097L190.418 54.881C190.537 54.989 190.633 55.12 190.7 55.2661C190.767 55.4121 190.804 55.5703 190.808 55.731C190.818 56.0562 190.699 56.3723 190.478 56.611L140.732 109.231L143.864 112.351L193.729 59.641C194.222 59.0931 194.602 58.4545 194.85 57.761C195.109 57.0677 195.232 56.3308 195.21 55.591C195.191 54.851 195.032 54.1213 194.74 53.441Z" fill="#89C9EE"/>
</svg>
