<svg width="41" height="20" fill="none" xmlns="http://www.w3.org/2000/svg"><path d="M7.149 19.401H4.77V3.741L0 5.482V3.348L6.778.82h.37v18.581ZM25.372 5.735c0 .923-.247 1.745-.741 2.464-.486.72-1.147 1.283-1.983 1.69.972.414 1.74 1.02 2.302 1.816.572.796.857 1.697.857 2.705 0 1.6-.545 2.875-1.637 3.823-1.083.948-2.51 1.422-4.284 1.422-1.79 0-3.227-.474-4.31-1.422-1.074-.957-1.61-2.231-1.61-3.823 0-1 .272-1.9.818-2.705.554-.805 1.317-1.414 2.289-1.83-.827-.406-1.48-.969-1.957-1.688-.477-.72-.716-1.537-.716-2.452 0-1.557.503-2.794 1.509-3.708C16.915 1.112 18.24.655 19.886.655c1.637 0 2.959.457 3.965 1.372 1.014.914 1.521 2.15 1.521 3.708Zm-1.93 8.624c0-1.033-.333-1.875-.998-2.527-.657-.652-1.518-.978-2.583-.978-1.066 0-1.923.322-2.57.965-.64.643-.96 1.49-.96 2.54s.311 1.876.934 2.477c.63.6 1.504.902 2.621.902 1.108 0 1.978-.301 2.609-.902.63-.61.946-1.435.946-2.477ZM19.885 2.586c-.93 0-1.684.288-2.263.863-.572.568-.857 1.342-.857 2.325 0 .94.281 1.701.844 2.286.571.575 1.33.863 2.276.863.947 0 1.701-.288 2.264-.863.57-.585.857-1.347.857-2.286 0-.94-.295-1.707-.883-2.3-.588-.592-1.334-.888-2.238-.888Zm15.923 6.896H41v2.223h-5.192v5.842h-2.379v-5.842h-5.192V9.482h5.192V4.084h2.379v5.398Z" opacity=".8" fill="#fff"/></svg>