<svg width="108" height="118" viewBox="0 0 108 118" fill="none" xmlns="http://www.w3.org/2000/svg">
<path d="M22.7604 19.2846H24.3583V7.30845L22.7604 5.86214V19.2839V19.2846ZM33.3283 19.2846H34.8685V6.07451L33.3283 7.54059V19.2846ZM37.0629 0.0768925L34.8685 0L29.4014 5.18768L30.4986 6.20998L37.0629 0.0768925ZM23.1266 0H20.8744L22.5491 1.69676L30.4994 9.21758L35.5235 4.47368V19.2839H37.0637V0.964452L30.5571 7.09681L23.1266 0ZM20.5659 0.675189V19.2846H22.1061V4.31989L28.8817 10.8184L30.0564 9.64232L22.4723 2.41076L20.5666 0.675189H20.5659ZM38.8144 0.44378V19.2846H40.3348V8.79357H48.6126V7.38534H40.3348V1.96698L38.8144 0.44378ZM40.7011 1.4075H50.3838V0H39.2961L40.7011 1.4075ZM42.53 3.37448H50.3838V1.96698H40.9898V6.78851H42.53V3.37521V3.37448ZM40.9898 9.41091V18.8599L42.53 17.3367V10.7415H48.6126V9.41091H40.9898ZM50.614 17.9533H42.8948L41.4898 19.2839H50.614V17.9533ZM50.614 15.9292H43.1843V17.3367H50.614V15.9292ZM58.834 3.16284C59.546 3.16284 60.1045 3.27855 60.5665 3.49092C60.9897 3.68352 61.356 3.95374 61.606 4.20419C61.8567 4.49345 62.0292 4.72486 62.1067 4.95627C62.2032 5.14887 62.2609 5.26457 62.2609 5.26457H63.8589C63.8589 5.26457 63.8201 5.12983 63.7434 4.89842C63.6666 4.64797 63.5321 4.35871 63.3391 4.01159C63.1272 3.66448 62.8384 3.29832 62.4539 2.95121C62.0884 2.60409 61.6067 2.29579 61.0292 2.06438C60.4517 1.83297 59.72 1.71727 58.8735 1.71727C58.1228 1.71727 57.4488 1.85201 56.8903 2.14127C56.3129 2.44958 55.8699 2.81573 55.5431 3.27855C55.2156 3.72233 55.0234 4.20419 54.9846 4.68678C54.9656 5.1496 55.1001 5.59338 55.3889 5.95953C55.7164 6.32569 56.2361 6.59591 56.9291 6.75043C56.4671 5.95954 56.3136 5.30412 56.5058 4.78345C56.6791 4.243 57.0066 3.83803 57.4678 3.56854C57.9685 3.29832 58.3918 3.16358 58.8348 3.16358L58.834 3.16284ZM58.7573 9.0638C59.5468 9.21831 60.4517 9.41091 61.4524 9.66136C62.4532 9.89277 63.3772 10.2018 64.2244 10.5291C65.0519 10.8763 65.6293 11.2622 65.9568 11.7052C65.8033 10.992 65.4751 10.4515 65.0138 10.0663C64.5321 9.6804 63.8779 9.31424 63.0884 8.96713C62.4919 8.69764 61.8757 8.48527 61.2025 8.31171C60.5285 8.13816 59.8932 8.00341 59.277 7.86867C58.6418 7.75296 58.1031 7.61748 57.6601 7.48274C57.4481 7.40585 57.2171 7.34799 57.0058 7.29014C56.4671 7.1554 55.9854 6.98184 55.5424 6.78924C55.1001 6.59591 54.7917 6.30665 54.6184 5.92145C54.3107 5.01486 54.3487 4.20492 54.7149 3.51069C55.1001 2.79742 55.6586 2.23794 56.4284 1.83297C57.1988 1.428 58.0066 1.19659 58.8538 1.19659C59.701 1.19659 60.4897 1.33134 61.1827 1.60156C61.8567 1.85274 62.4342 2.19913 62.9152 2.60483C63.3772 3.00979 63.7426 3.4338 63.9934 3.91639C64.2434 4.39825 64.3589 4.84203 64.3589 5.26604H65.8603C65.8603 5.26604 65.8406 5.05367 65.7448 4.61062C65.6681 4.18661 65.4561 3.64617 65.1286 3.02956C64.7821 2.432 64.2814 1.85348 63.5884 1.31303C62.8764 0.792359 61.9137 0.406432 60.701 0.155982C59.0073 -0.0944679 57.6403 -0.0175754 56.5811 0.407164C55.5417 0.793091 54.7719 1.29399 54.2522 1.8337C53.7325 2.3163 53.367 2.9329 53.136 3.70402C52.867 4.47588 52.867 5.22723 53.0395 5.97931C53.2515 6.53879 53.636 7.02065 54.2332 7.42562C54.8494 7.83059 55.5424 8.15866 56.3509 8.42815C57.1593 8.69837 57.9678 8.91001 58.7573 9.06453V9.0638ZM59.3728 16.1408C58.7376 16.1408 58.2178 16.0442 57.7946 15.8904C57.3903 15.7556 57.0636 15.5623 56.8129 15.3309C56.5629 15.0995 56.3896 14.8871 56.2741 14.6755C56.1586 14.4441 56.1009 14.2705 56.0621 14.097C56.0234 13.9432 56.0234 13.8853 56.0234 13.8853H54.3874C54.3874 14.0398 54.4452 14.3093 54.5029 14.5986C54.5797 14.9069 54.7142 15.235 54.9649 15.6209C55.1959 15.968 55.5424 16.3151 56.0234 16.6622C56.3889 16.9515 57.0438 17.202 57.9868 17.4334C58.8918 17.6648 60.0658 17.5871 61.4905 17.2788C62.6454 16.8739 63.3764 16.3334 63.7427 15.6978C64.0701 15.0424 64.1081 14.425 63.8194 13.8465C63.5117 13.268 62.9919 12.863 62.2602 12.6704C62.7032 13.577 62.8187 14.2705 62.5679 14.7721C62.2982 15.254 61.875 15.6209 61.2587 15.8135C60.6235 16.0061 60.0073 16.1416 59.3721 16.1416L59.3728 16.1408ZM65.7638 12.3035C65.6673 12.2069 65.5716 12.0912 65.4941 11.9952C65.3596 11.8217 65.1666 11.6291 64.9166 11.4555C64.6856 11.301 64.2624 11.1084 63.7039 10.896C63.1074 10.6646 62.2222 10.4134 61.0475 10.1051C60.5087 9.97039 59.9115 9.85396 59.2573 9.71921C58.4678 9.56469 57.6403 9.3721 56.8121 9.1795C56.0227 8.94809 55.2529 8.67787 54.5789 8.35052C53.886 8.00341 53.3472 7.54059 52.943 6.98111C52.943 7.75223 53.2127 8.38861 53.7515 8.90928C54.2902 9.44972 55.1754 9.93158 56.4079 10.3754C57.0044 10.6068 57.7551 10.8184 58.6988 11.0308C59.3531 11.1846 60.046 11.3779 60.72 11.5515C61.4327 11.744 62.0672 11.9564 62.6834 12.2259C63.2609 12.4771 63.7419 12.7854 64.1074 13.1325C64.4729 13.4987 64.6659 13.9234 64.6659 14.3664C64.6659 14.964 64.4926 15.5235 64.1272 16.1211C63.7807 16.6805 63.2419 17.1814 62.5489 17.5674C61.8172 17.9335 60.9123 18.1269 59.815 18.1269C58.6023 18.1269 57.6009 17.9723 56.8311 17.7029C56.0607 17.4136 55.4839 17.0665 55.0409 16.6425C54.6177 16.2185 54.3099 15.7937 54.117 15.3697C53.924 14.9647 53.8085 14.5986 53.7895 14.3093C53.7317 14.0201 53.7127 13.8853 53.7127 13.8853H52.3268C52.3268 13.8853 52.3458 14.0398 52.3655 14.3284C52.4042 14.6367 52.481 15.0424 52.6732 15.4854C52.8465 15.9673 53.1162 16.4499 53.5007 16.9515C53.8662 17.4524 54.4057 17.8962 55.0987 18.3011C56.0607 18.8416 57.0234 19.1499 57.9861 19.2268C58.9101 19.3044 59.853 19.3044 60.7968 19.2077C61.894 19.1499 62.8757 18.8797 63.7807 18.3788C64.6659 17.916 65.3011 17.2986 65.6864 16.5465C66.0328 15.7556 66.2251 14.9655 66.2828 14.1555C66.3216 13.3456 66.1483 12.7283 65.7631 12.3043L65.7638 12.3035ZM74.2338 3.16284C74.9458 3.16284 75.5043 3.27855 75.9663 3.49092C76.3895 3.68352 76.7558 3.95374 77.0058 4.20419C77.2558 4.49345 77.429 4.72486 77.5065 4.95627C77.603 5.14887 77.6607 5.26457 77.6607 5.26457H79.2579C79.2579 5.26457 79.2199 5.12983 79.1424 4.89842C79.0657 4.64797 78.9305 4.35871 78.7382 4.01159C78.527 3.66448 78.2382 3.29832 77.853 2.95121C77.4875 2.60409 77.0058 2.29579 76.429 2.06438C75.8515 1.83297 75.1198 1.71727 74.2726 1.71727C73.5218 1.71727 72.8486 1.85201 72.2901 2.14127C71.7126 2.44958 71.2697 2.81573 70.9429 3.27855C70.6154 3.72233 70.4232 4.20419 70.3844 4.68678C70.3647 5.1496 70.4999 5.59338 70.7887 5.95953C71.1162 6.32569 71.6359 6.59591 72.3289 6.75043C71.8669 5.95954 71.7126 5.30412 71.9056 4.78345C72.0789 4.243 72.4056 3.83803 72.8676 3.56854C73.3683 3.29832 73.7916 3.16358 74.2346 3.16358L74.2338 3.16284ZM74.1563 9.0638C74.9458 9.21831 75.8501 9.41091 76.8515 9.66136C77.8522 9.89277 78.7762 10.2018 79.6234 10.5291C80.4509 10.8763 81.0291 11.2622 81.3559 11.7052C81.2016 10.992 80.8742 10.4515 80.4122 10.0663C79.9312 9.6804 79.2762 9.31424 78.4875 8.96713C77.891 8.69764 77.2748 8.48527 76.6008 8.31171C75.9275 8.13816 75.2916 8.00341 74.6761 7.86867C74.0409 7.75296 73.5021 7.61748 73.0591 7.48274C72.8479 7.40585 72.6169 7.34799 72.4049 7.29014C71.8662 7.1554 71.3844 6.98184 70.9422 6.78924C70.4992 6.59591 70.1915 6.30665 70.0182 5.92145C69.7105 5.01486 69.7485 4.20492 70.1147 3.51069C70.4999 2.79742 71.0577 2.23794 71.8281 1.83297C72.5979 1.428 73.4063 1.19659 74.2536 1.19659C75.1008 1.19659 75.8895 1.33134 76.5825 1.60156C77.2558 1.85274 77.834 2.19913 78.315 2.60483C78.7769 3.00979 79.1424 3.4338 79.3932 3.91639C79.6439 4.39825 79.7587 4.84203 79.7587 5.26604H81.2601C81.2601 5.26604 81.2404 5.05367 81.1446 4.61062C81.0679 4.18661 80.8559 3.64617 80.5284 3.02956C80.1819 2.432 79.6812 1.85348 78.9882 1.31303C78.2755 0.792359 77.3135 0.406432 76.1008 0.155982C74.4063 -0.0944679 73.0401 -0.0175754 71.9809 0.407164C70.9415 0.793091 70.1717 1.29399 69.652 1.8337C69.1322 2.3163 68.7668 2.9329 68.5358 3.70402C68.266 4.47588 68.266 5.22723 68.4393 5.97931C68.6513 6.53879 69.0358 7.02065 69.633 7.42562C70.2492 7.83059 70.9422 8.15866 71.7507 8.42815C72.5591 8.69837 73.3676 8.91001 74.1571 9.06453L74.1563 9.0638ZM74.7726 16.1408C74.1373 16.1408 73.6176 16.0442 73.1944 15.8904C72.7901 15.7556 72.4634 15.5623 72.2126 15.3309C71.9627 15.0995 71.7894 14.8871 71.6739 14.6755C71.5584 14.4441 71.5007 14.2705 71.4619 14.097C71.4232 13.9432 71.4232 13.8853 71.4232 13.8853H69.7872C69.7872 14.0398 69.845 14.3093 69.9027 14.5986C69.9795 14.9069 70.114 15.235 70.3647 15.6209C70.5957 15.968 70.9422 16.3151 71.4232 16.6622C71.7887 16.9515 72.4436 17.202 73.3866 17.4334C74.2916 17.6648 75.4656 17.5871 76.8903 17.2788C78.0452 16.8739 78.777 16.3334 79.1424 15.6978C79.4699 15.0424 79.5079 14.425 79.2192 13.8465C78.9114 13.268 78.3917 12.863 77.66 12.6704C78.103 13.577 78.2185 14.2705 77.9677 14.7721C77.698 15.254 77.2748 15.6209 76.6585 15.8135C76.0233 16.0061 75.4071 16.1416 74.7719 16.1416L74.7726 16.1408ZM81.1629 12.3035C81.0664 12.2069 80.9707 12.0912 80.8939 11.9952C80.7594 11.8217 80.5664 11.6291 80.3164 11.4555C80.0854 11.301 79.6622 11.1084 79.1037 10.896C78.5072 10.6646 77.6213 10.4134 76.4473 10.1051C75.9085 9.97039 75.3113 9.85396 74.6571 9.71921C73.8676 9.56469 73.0401 9.3721 72.2119 9.1795C71.4224 8.94809 70.6527 8.67787 69.9787 8.35052C69.2858 8.00341 68.747 7.54059 68.3428 6.98111C68.3428 7.75223 68.6125 8.38861 69.1513 8.90928C69.6907 9.44972 70.576 9.93158 71.8077 10.3754C72.4042 10.6068 73.1549 10.8184 74.0986 11.0308C74.7528 11.1846 75.4458 11.3779 76.1198 11.5515C76.8318 11.744 77.467 11.9564 78.0832 12.2259C78.6607 12.4771 79.1417 12.7854 79.5079 13.1325C79.8734 13.4987 80.0664 13.9234 80.0664 14.3664C80.0664 14.964 79.8932 15.5235 79.5269 16.1211C79.1805 16.6805 78.6417 17.1814 77.9487 17.5674C77.2177 17.9335 76.3128 18.1269 75.2156 18.1269C74.0028 18.1269 73.0021 17.9723 72.2317 17.7029C71.4612 17.4136 70.8844 17.0665 70.4415 16.6425C70.0182 16.2185 69.7097 15.7937 69.5175 15.3697C69.3252 14.9647 69.2097 14.5986 69.19 14.3093C69.1323 14.0201 69.1132 13.8853 69.1132 13.8853H67.7273C67.7273 13.8853 67.7463 14.0398 67.766 14.3284C67.804 14.6367 67.8815 15.0424 68.0738 15.4854C68.247 15.9673 68.5168 16.4499 68.9013 16.9515C69.2668 17.4524 69.8062 17.8962 70.4992 18.3011C71.4619 18.8416 72.4246 19.1499 73.3866 19.2268C74.3106 19.3044 75.2536 19.3044 76.1973 19.2077C77.2945 19.1499 78.2762 18.8797 79.1812 18.3788C80.0664 17.916 80.7017 17.2986 81.0869 16.5465C81.4334 15.7556 81.6256 14.9655 81.6834 14.1555C81.7214 13.3456 81.5489 12.7283 81.1636 12.3043L81.1629 12.3035ZM85.0905 19.2846V0H83.5313V19.2846H85.0905ZM87.4385 19.2846V0H85.8793V19.2846H87.4385Z" fill="black"/>
<path d="M0 38.4366L12.4656 37.3015V117.994H19.7879V30.6646L0 32.1489V38.4366ZM24.2338 30.6646H22.4034V117.994H29.7258V36.2535L24.2346 30.6646H24.2338ZM0 47.2572L9.93783 46.4715V39.9217L0 40.6196V47.2565V47.2572ZM46.5495 69.7875C48.4669 49.7896 56.0509 39.6588 69.3886 39.6588C72.6137 39.6588 75.5779 40.5324 78.3674 42.2783C80.9821 43.9377 83.3359 46.2078 85.1663 48.9152C87.1714 51.6225 88.6532 54.6792 89.6992 57.9973C90.6583 61.2282 91.1809 64.5471 91.1809 67.778C91.1809 71.2711 91.0062 75.2014 90.8322 79.7425C90.5713 84.3707 89.6992 88.5624 88.2175 92.4927C86.8228 96.4223 84.469 99.3047 81.0691 101.313C77.844 103.321 73.2234 103.584 67.3828 101.924C67.3828 101.924 67.6445 102.186 68.1671 102.711C68.5158 103.147 69.2132 103.846 70.2592 104.282C71.3923 104.894 72.613 105.417 74.2694 105.942C76.0129 106.465 77.931 106.64 80.3718 106.64C83.5969 106.64 86.8228 105.069 89.9609 101.663C93.186 98.4318 95.5398 93.5407 97.1085 87.0788C98.765 80.6161 99.0267 72.582 97.8059 62.9762C96.4112 54.5049 93.5347 47.7808 89.0888 42.8033C84.556 37.8258 79.3257 34.8563 73.4851 33.7212C67.4698 32.5861 61.5422 33.7212 55.7023 36.9522C53.4362 38.0872 51.1694 40.096 48.7286 42.8905C46.3748 45.685 44.3704 49.7024 42.4523 54.6799C40.7089 59.6574 39.8368 66.0329 39.5759 73.7178C39.4889 82.1884 40.6219 89.8732 42.8887 96.423C45.2425 102.973 48.8163 108.212 53.5239 111.88C58.3185 115.809 64.4201 117.818 71.7424 117.993L80.1985 117.557C71.2197 117.557 64.1591 115.199 59.0159 110.658C53.9596 106.029 50.4728 100.09 48.4676 92.6678C46.5503 85.5072 45.9399 77.7345 46.5503 69.7875H46.5495ZM65.7278 31.4503C74.8806 30.9267 82.1159 32.8476 87.5209 37.4758C92.9251 41.9297 96.6736 47.9551 98.8534 55.2907C101.032 62.6262 101.73 70.3982 101.033 78.5203C99.9865 88.9996 97.6327 96.5973 93.7971 101.401C89.9616 106.465 84.7314 108.823 78.1064 108.911C67.9076 108.3 61.2819 101.925 58.1445 89.9611C56.9238 85.0708 56.3141 79.7432 56.1394 73.9799C56.1394 68.3909 56.9238 63.1505 58.5802 58.2602C60.1489 53.2827 62.6774 49.7024 66.1642 47.2572C69.651 44.812 74.0969 44.637 79.5889 46.6457C79.0655 45.9471 78.3681 45.0742 77.0611 44.2006C76.0151 43.1526 74.2716 42.5412 72.0918 42.1918C69.9127 41.8425 67.0363 42.0175 63.6364 43.0655C61.1957 43.677 58.6679 45.6857 56.0524 48.9166C53.4377 52.3226 51.4325 56.8637 50.0378 62.8891C48.7301 68.9146 48.5561 76.3372 49.8631 85.2451C51.1709 92.9299 53.5246 99.3054 57.2724 104.458C61.021 109.523 65.6408 112.754 71.3945 114.326C76.9734 115.81 83.4244 115.199 90.5727 112.405C95.89 110.309 100.162 105.942 103.212 99.4797C106.35 92.8428 108.007 84.3721 108.007 73.8921C108.007 68.0409 107.397 62.2776 105.828 56.6886C104.52 51.0125 102.254 46.0343 99.0288 41.8425C95.8037 37.5636 91.4448 34.4198 85.9529 32.4111C80.5479 30.4903 73.749 30.2281 65.7293 31.4503H65.7278Z" fill="black"/>
</svg>
