<svg xmlns="http://www.w3.org/2000/svg" width="387" height="107" viewBox="0 0 387 107"><g><g><g><g><g><g><path fill="#fff" d="M383.329 69.698c-3.34-.991-7.673-1.652-13.106-1.652-3.377 0-5.617.477-5.617 1.652 0 .734.698 1.432 2.35 1.725 3.23.588 6.681.771 10.646 1.395 5.654.881 9.398 3.121 9.398 7.306 0 5.323-4.332 8.884-15.492 8.884-6.094 0-11.931-1.175-16.52-4.258l3.598-5.14c3.083 1.946 7.562 3.23 13.803 3.23 3.928 0 6.535-.587 6.535-2.055 0-.808-1.506-1.542-5.434-1.946-6.204-.844-10.793-1.579-11.93-2.019-3.011-1.138-5.03-3.267-5.03-6.755 0-4.92 4.258-8.223 15.198-8.223 5.434 0 10.353.624 13.657 2.202zm-38.84 1.872c0-1.945-.918-2.606-3.892-2.606H328.19v5.8h12.335c3.047 0 3.965-.66 3.965-2.717zm-2.02-8.994c6.645 0 9.95 2.716 9.95 8.113v.55c0 3.048-1.543 5.104-4.627 6.168v.074c3.378 1.064 4.259 2.827 4.663 6.681.183 1.836.734 3.157 1.138 4.112h-8.26c-.257-.367-.33-.991-.367-1.836-.184-3.708-1.726-5.543-5.36-5.543h-11.417v7.379h-7.71V62.576zm-54.112 0h27.864v6.314h-20.155v3.525h18.43v5.873h-18.43v3.672h20.375v6.314h-28.084zm-12.262 0h7.71v25.698h-9.802L258.18 71.166l-.587-.66-.587.367.293 1.028v16.373h-7.71V62.576h9.803l15.822 17.107.588.661.587-.367-.294-1.101zm-30.25 0v6.388h-12.261v19.31h-7.71v-19.31h-12.261v-6.388zM202.49 71.57c0-1.945-.917-2.606-3.891-2.606H186.19v5.8h12.335c3.047 0 3.964-.66 3.964-2.717zm-2.019-8.994c6.645 0 9.949 2.716 9.949 8.113v.55c0 3.048-1.542 5.104-4.626 6.168v.074c3.378 1.064 4.259 2.827 4.663 6.681.183 1.836.734 3.157 1.138 4.112h-8.26c-.257-.367-.33-.991-.367-1.836-.184-3.708-1.726-5.543-5.36-5.543H186.19v7.379h-7.71V62.576zm-38.73 15.419l-4.295-9.031-.11-.294h-1.763l-.11.294-4.295 9.03zm5.8 10.279l-2.423-4.332H147.79l-2.423 4.332h-8.37l15.161-25.698h8.554l15.198 25.698zm-36.16-16.227c0-2.46-.845-3.083-3.892-3.083h-11.894v6.534h11.858c3.083 0 3.928-.587 3.928-3.047zm-2.79-9.47c6.277 0 10.72 3.23 10.72 9.397v.367c0 6.608-4.993 9.288-9.986 9.288h-13.73v6.645h-7.71V62.576z"/></g><g><path fill="#bf9844" d="M344.11 17.244h40.344v9.142h-29.181v5.103h26.683v8.504h-26.683v5.316h29.5v9.142H344.11zM326.04 30.266c0-2.817-1.33-3.774-5.635-3.774H302.44v8.399h17.86c4.41 0 5.74-.957 5.74-3.934zm-2.924-13.022c9.62 0 14.405 3.933 14.405 11.747v.797c0 4.412-2.233 7.388-6.698 8.93v.106c4.89 1.541 6.166 4.093 6.75 9.674.267 2.658 1.064 4.571 1.649 5.953h-11.96c-.372-.531-.478-1.435-.531-2.658-.266-5.368-2.499-8.026-7.76-8.026h-16.531v10.684h-11.162V17.244zm-49.804 0h11.162V54.45h-11.162zm-17.594 13.713c0-3.56-1.222-4.465-5.634-4.465H232.86v9.462h17.169c4.465 0 5.687-.85 5.687-4.412zm-4.04-13.713c9.09 0 15.521 4.677 15.521 13.607v.532c0 9.567-7.229 13.447-14.457 13.447h-19.88v9.621H221.7V17.244zm-36.569 0l.532 37.207h-11.056l-.532-26.577.213-1.275-.85-.532-.638 1.223L189.7 49.933h-9.78L166.845 27.29l-.744-1.223-.85.532.318 1.275-.531 26.577h-11.056l.532-37.207h17.274l12.12 20.73.212.531h1.382l.213-.531 12.172-20.73zm-107.103 0h40.343v9.142h-29.181v5.103h26.683v8.504h-26.683v5.316h29.5v9.142h-40.662z"/></g></g></g></g><g><g><g><path fill="#fff" d="M11.515 27.767c3.436-4.053 16.214-5.872 25.573-9.182 1.218-.43 4.938-9.066 4.938-9.066S26.68 10.884 19.274 16.11c-7.407 5.227-10.292 9.416-10.292 9.416s-.451.59-1.48 2.599c-.637 1.241-2.446 5.015-2.446 5.015l4.998-3.574c.46-.592 9.648 4.184 10.165 3.574"/></g><g><path fill="#fff" d="M11.08 45.343c3.675-4.426 5.93-5.785 5.93-5.785s-7.565.944-11.073 4.653C2.568 47.772.44 53.61.247 53.859a37.483 37.483 0 0 0-.22 5.682l.2 7.604 2.97-4.601L41.6 106.02 15.304 53.859s-.906-2.435 2.77-6.861"/></g><g><path fill="#bf9844" d="M65.176 13.643c-.096.107-1.615 2.041-2.821 1.953-1.342-.098-3.708-1.478-4.92-1.735-2.23-.473-7.156-1.013-7.156-1.013s4.074-2.71 7.706-3.03c3.633-.322 8.75 1.54 8.786 1.543.033.003-1.498 2.174-1.595 2.282M93.52 26.26c-.392-6.126-4.142-9.9-7.225-12.11-3.083-2.211-10.271-3.4-10.271-3.4s.948-2.422-4.846-6.363C66.132.955 52.913.077 52.913.077 41.983-.61 32.034 3.42 23.955 8.795 16.45 13.789 8.911 25.574 8.911 25.574s1.852-1.715 9.26-6.942c7.406-5.226 18.08-6.29 18.08-6.29s-3.05 1.013-4.268 1.444c-9.36 3.31-17.103 9.975-20.54 14.028-3.435 4.054-5.483 7.513-7.954 13.091C1.017 46.483.163 53.923.163 53.923s2.562-3.304 6.07-7.013c3.509-3.71 10.706-7.305 10.706-7.305s-2.255 1.359-5.93 5.785-4.41 10.198-4.41 10.198l34.93 50.479 29.646-42.813s-4.33-6.9-3.467-19.932c.376-5.676 1.624-11.278 1.662-11.237.038.042-3.868 3.426-8.028 12.077-3.15 6.548-3.743 15.058-3.43 19.592.2 2.908.363 4.131.458 4.638.037.135.07.253.093.349.003.01-.031-.02-.093-.349-.61-2.214-2.82-9.615-.55-19.482 2.022-8.786 3.731-11.015 7.59-15.843 3.805-4.76 11.963-5.736 16.836-5.018 4.873.718 6.524 3.364 6.524 3.364 1.783 2.462.85 4.721.85 4.721s1.13-.218 2.604-2.457C93.7 31.44 93.52 26.26 93.52 26.26"/></g></g></g></g></g></svg>