<svg width="384" height="50" fill="none" xmlns="http://www.w3.org/2000/svg"><path d="M68.934.781h41.339l-1.788 11.163H81.001l-1.006 6.363h16.424l-1.9 11.498H78.207l-1.117 7.59h30.166l-1.899 11.833H61.225L68.935.781Zm62.343 11.945H113.96L115.859.78h48.489l-2.011 11.945H145.02l-5.81 36.502h-13.742l5.809-36.502Zm34.077 14.623C164.795 11.609 175.744 0 190.716 0c17.429 0 22.568 11.61 23.127 17.19h-14.078c-.67-1.339-3.128-4.8-8.602-4.8-7.71 0-12.067 6.587-11.732 14.29.224 6.25 3.687 10.939 9.72 10.939 5.587 0 8.045-3.237 8.827-4.465h13.965c-.893 4.353-6.591 16.855-22.345 16.855-14.412 0-23.797-9.265-24.244-22.66ZM223.786.781h13.854l-4.581 29.135L259.091.781h13.854l-7.709 48.447h-13.854l4.581-29.023-26.032 29.023h-13.854L223.786.781Zm71.281 11.945H277.75L279.649.78h48.489l-1.899 11.945h-17.318l-5.809 36.502h-13.743l5.698-36.502ZM334.953.781h13.854l-4.693 29.247L370.146.893H384l-7.709 48.447h-13.854l4.581-29.024-26.032 29.024h-13.854L334.953.78ZM37.205 18.754h-12.29l1.005-5.917h29.16L56.98.893H13.854l-2.793 17.86H1.788L0 29.694h9.273L6.145 49.228h28.602c13.407 0 22.345-5.804 21.898-17.637-.224-8.26-7.15-12.837-19.44-12.837Zm-1.23 18.418H21.899l1.23-7.479H37.65c2.905 0 4.358 1.005 4.358 2.903.223 3.014-2.235 4.577-6.033 4.577Z" fill="#fff"/></svg>