<svg xmlns="http://www.w3.org/2000/svg" width="362" height="242" viewBox="0 0 362 242"><g><g clip-path="url(#clip-deca8b4a-7c23-428f-9b6f-b6e19d06a2d0)" transform="rotate(145 344.35 -75.07)"><g><path fill="none" stroke-miterlimit="20" d="M233.703-31.703v0l133.932-33.848v0l118.538 84.06v0l-49.496 122.319v0l-127.955 63.596v0l-98.624-114.63v0z"/></g><g><path fill="none" stroke-miterlimit="20" d="M114.946-177.812v0L216.87-354.556v0l42.208 181.23v0l195.094 12.175v0L285.018-45.507v0l-16.545 146.545v0L138.411-45.507v0l-162.738-74.246v0z"/></g><g><path fill="none" stroke-miterlimit="20" d="M460.556-240.227v0l133.932-33.847v0l118.538 84.06v0L535.576-4.1v0z"/></g><g transform="rotate(43 443.2 -19.27)"><path fill="none" stroke-miterlimit="20" d="M221.592-84.399v0L475.02-229.052v0L664.807-33.044v0L383.466 190.514v0z"/></g></g></g></svg>
