<svg xmlns="http://www.w3.org/2000/svg" width="374" height="234" viewBox="0 0 374 234"><g><g clip-path="url(#clip-12f464be-9e03-46ed-8b47-acf3264c253e)" transform="rotate(58 297.23 -11.06)"><g><path fill="none" stroke-miterlimit="20" stroke-width="2" d="M82.707-7.937v0l133.931-33.848v0l118.538 84.06v0l-49.496 122.32v0L157.726 228.19v0L59.102 113.56v0z"/></g><g><path fill="none" stroke-miterlimit="20" stroke-width="2" d="M171.699-53.747v0L273.623-230.49v0L315.83-49.26v0l195.093 12.175v0L341.771 78.558v0l-16.545 146.545v0L195.164 78.558v0L32.425 4.312v0z"/></g><g><path fill="none" stroke-miterlimit="20" stroke-width="2" d="M309.56-216.46v0l133.932-33.848v0l118.538 84.06v0L384.58 19.666v0z"/></g><g transform="rotate(43 292.205 4.495)"><path fill="none" stroke-miterlimit="20" stroke-width="2" d="M70.596-60.633v0l253.428-144.652v0L513.81-9.278v0L232.47 214.28v0z"/></g><g><path fill="none" stroke-miterlimit="20" stroke-width="2" d="M267.612-169.307v0l93.839-23.715v0l83.054 58.897v0l-34.68 85.703v0l-89.65 44.558v0l-69.102-80.314v0z"/></g></g></g></svg>
