<svg xmlns="http://www.w3.org/2000/svg" width="32" height="32" viewBox="0 0 32 32"><g transform="translate(15386.001 19928.426)"><path d="M101.808,113.063a20.668,20.668,0,0,0,3.473,2.81l1.652-2.616a.7.7,0,0,1,.9-.25l6.849,3.424a.7.7,0,0,1,.334.881l-2.282,5.709a.7.7,0,0,1-.765.427A24.988,24.988,0,0,1,91.423,102.9a.7.7,0,0,1,.427-.765l5.709-2.282a.7.7,0,0,1,.881.334l3.423,6.851a.7.7,0,0,1-.25.9L99,109.591a20.668,20.668,0,0,0,2.81,3.473Zm4.281,4.134a.7.7,0,0,1-.942.227,22.489,22.489,0,0,1-7.7-7.7.7.7,0,0,1,.227-.942l2.664-1.684-2.859-5.714-4.586,1.834a23.577,23.577,0,0,0,18.758,18.758l1.834-4.586-5.714-2.858Zm.1-7.673a.7.7,0,0,1-.843-.843l1-4a9.044,9.044,0,1,1,3.844,3.844l-4,1Zm3.926-2.415a.7.7,0,0,1,.509.07,7.652,7.652,0,1,0-2.932-2.932.7.7,0,0,1,.07.508l-.786,3.139,3.139-.785Zm1.471-8.694a.7.7,0,1,1,0-1.391h5.565a.7.7,0,0,1,0,1.391Zm0,2.783a.7.7,0,1,1,0-1.391H117.2a.7.7,0,1,1,0,1.391Zm0,2.783a.7.7,0,1,1,0-1.391h2.783a.7.7,0,1,1,0,1.391Z" transform="translate(-15477.414 -20019.883)"/></g></svg>