<svg xmlns="http://www.w3.org/2000/svg" xmlns:xlink="http://www.w3.org/1999/xlink"><symbol viewBox="0 0 24.825 12.412" id="icon-check-down" xmlns="http://www.w3.org/2000/svg"><path data-name="Контур 106296" d="m1.413 1.412 11 10 11-10"/></symbol><symbol viewBox="0 0 70.195 46.057" id="icon-envelope" xmlns="http://www.w3.org/2000/svg"><path data-name="Вычитание 2" d="M62.962 46.057H7.233A7.233 7.233 0 0 1 0 38.824V7.7l35.1 23.025L70.195 7.7v31.124a7.233 7.233 0 0 1-7.233 7.233ZM35.1 23.446 2.311 1.935A7.211 7.211 0 0 1 7.233 0h55.729a7.208 7.208 0 0 1 4.921 1.935L35.1 23.446Z"/></symbol><symbol viewBox="0 0 25 25" id="icon-skype" xmlns="http://www.w3.org/2000/svg"><g clip-path="url(#ca)"><path d="M23.029 13.494c.34.481.599 1.003.78 1.575.18.57.271 1.16.271 1.771 0 .875-.177 1.697-.527 2.467a6.55 6.55 0 0 1-1.45 2.033 6.81 6.81 0 0 1-2.157 1.371 6.909 6.909 0 0 1-2.613.495c-1.313 0-2.491-.31-3.536-.929-.29.04-.582.069-.877.091-.296.02-.589.028-.882.028-1.534 0-2.974-.275-4.321-.823a11.436 11.436 0 0 1-3.535-2.252A10.366 10.366 0 0 1 1.8 15.972a9.852 9.852 0 0 1-.868-4.105c0-.282.014-.55.044-.798.027-.248.064-.501.102-.754C.358 9.316 0 8.243 0 7.092c0-.856.177-1.665.528-2.426.35-.76.83-1.421 1.446-1.982A6.971 6.971 0 0 1 4.13 1.356 7.052 7.052 0 0 1 6.744.874a7.018 7.018 0 0 1 3.536.915c.289-.041.585-.07.877-.093.296-.018.592-.029.881-.029 1.539 0 2.984.268 4.335.801a11.287 11.287 0 0 1 3.542 2.192 10.42 10.42 0 0 1 2.393 3.245 9.216 9.216 0 0 1 .867 3.962 9.327 9.327 0 0 1-.146 1.627Zm-5.696 3.202c.474-.624.708-1.357.708-2.199 0-.663-.132-1.22-.392-1.672a3.338 3.338 0 0 0-1.146-1.128c-.453-.292-1.042-.551-1.763-.783a92.947 92.947 0 0 0-2.307-.542l-.891-.203a11.264 11.264 0 0 1-.572-.133 4.26 4.26 0 0 1-.446-.133 7.122 7.122 0 0 1-.412-.162 2.097 2.097 0 0 1-.681-.451c-.14-.157-.21-.368-.21-.63 0-.383.228-.725.681-1.028.513-.283 1.14-.419 1.885-.41.861 0 1.466.127 1.807.382.412.302.735.674.966 1.113.201.322.405.562.616.72.201.154.48.237.831.248.395 0 .722-.131.997-.395.269-.246.398-.523.391-.835 0-.361-.102-.716-.302-1.058-.198-.321-.531-.663-.99-1.026a5.953 5.953 0 0 0-1.685-.776 8.21 8.21 0 0 0-1.115-.22c-.392-.049-.82-.072-1.294-.072-1.194 0-2.201.146-3.021.438-.881.304-1.548.722-2 1.264-.452.516-.678 1.136-.678 1.86 0 .762.219 1.382.651 1.86.435.517 1.024.908 1.769 1.173.708.283 1.613.531 2.723.745.415.098.778.181 1.099.244.316.062.603.133.854.21.473.129.857.345 1.15.652.313.266.47.608.47 1.03 0 .583-.286 1.055-.851 1.415-.534.369-1.256.551-2.165.538-.728 0-1.255-.084-1.589-.254-.415-.189-.721-.429-.922-.715a4.67 4.67 0 0 1-.623-1.079c-.143-.371-.336-.651-.588-.84a1.275 1.275 0 0 0-.833-.286c-.412 0-.752.115-1.021.341-.269.257-.398.558-.392.896 0 .589.218 1.178.65 1.768a4.47 4.47 0 0 0 1.651 1.422c.983.508 2.218.765 3.702.775 1.211 0 2.29-.18 3.229-.539.922-.409 1.61-.916 2.059-1.525Z"/></g><defs><clipPath id="ca"><path d="M0 0h24.08v24.08H0z"/></clipPath></defs></symbol><symbol viewBox="0 0 48.014 40" id="icon-telegram" xmlns="http://www.w3.org/2000/svg"><path data-name="Контур 59937" d="m.79 20.734 8.775 3.255a6.035 6.035 0 0 0 5.447-.637l18.7-12.466a1.069 1.069 0 0 1 1.319 1.674L21.192 25.368a1.728 1.728 0 0 0 .129 2.645l14.615 11.094a4.366 4.366 0 0 0 6.955-2.81l5.087-32.845a2.99 2.99 0 0 0-4.12-3.211L.739 18.484a1.211 1.211 0 0 0 .051 2.251"/></symbol></svg>