<?xml version="1.0" encoding="utf-8"?>
<!-- Generator: Adobe Illustrator 24.0.1, SVG Export Plug-In . SVG Version: 6.00 Build 0)  -->
<svg version="1.1" id="Слой_1" xmlns="http://www.w3.org/2000/svg" xmlns:xlink="http://www.w3.org/1999/xlink" x="0px" y="0px"
	 viewBox="0 0 24 24" style="enable-background:new 0 0 24 24;" xml:space="preserve">
<style type="text/css">
	.st0{fill:#BDBDBD;}
</style>
<path class="st0" d="M12,7.3c2.5,0,4.5,2,4.5,4.5c0,0.6-0.1,1.1-0.3,1.7l2.7,2.7c1.4-1.1,2.5-2.6,3.1-4.3C20.4,7.8,16.5,5,12,5
	c-1.3,0-2.5,0.2-3.6,0.6l2,2C10.9,7.4,11.4,7.3,12,7.3z M2.9,4.8L5,6.9l0.4,0.4C3.9,8.5,2.7,10,2,11.8c1.6,4,5.5,6.8,10,6.8
	c1.4,0,2.8-0.3,4-0.8l0.4,0.4l2.7,2.7l1.2-1.2L4.1,3.7L2.9,4.8z M7.9,9.8l1.4,1.4c0,0.2-0.1,0.4-0.1,0.6c0,1.5,1.2,2.7,2.7,2.7
	c0.2,0,0.4,0,0.6-0.1l1.4,1.4c-0.6,0.3-1.3,0.5-2,0.5c-2.5,0-4.5-2-4.5-4.5C7.5,11.1,7.6,10.4,7.9,9.8z M11.9,9.1l2.9,2.9l0-0.1
	c0-1.5-1.2-2.7-2.7-2.7L11.9,9.1z"/>
</svg>
