<svg width="235" height="41" viewBox="0 0 235 41" fill="none" xmlns="http://www.w3.org/2000/svg">
<path d="M222.441 25.4216C236.87 25.4216 236.819 5.33301 222.441 5.33301H207.706V19.1503H203.372V25.4216H207.706V28.1749H203.372V34.4462H207.706V39.4939H214.946V34.4462H228.305V28.1749H214.946V25.4216H222.441ZM221.881 12.3691C226.979 12.3691 226.928 19.1503 221.881 19.1503H214.946V12.3691H221.881Z" fill="#06DCFF"/>
<path d="M158.591 26.3391C158.591 34.5479 164.454 40.2583 172.306 40.2583C180.158 40.2583 186.328 34.6498 186.328 26.3391V18.4362C186.328 10.1254 180.209 4.56787 172.408 4.56787C164.556 4.56787 158.591 10.1764 158.591 18.4872V26.3391ZM165.831 18.4872C165.831 14.2553 168.635 11.7569 172.408 11.7569C176.232 11.7569 179.036 14.3063 179.036 18.4362V26.3391C179.036 30.5199 176.13 33.0183 172.306 33.0183C168.584 33.0183 165.831 30.5709 165.831 26.3391V18.4872Z" fill="#06DCFF"/>
<path d="M126.824 26.3391C126.824 34.5479 132.687 40.2583 140.539 40.2583C148.391 40.2583 154.56 34.6498 154.56 26.3391V18.4362C154.56 10.1254 148.442 4.56787 140.641 4.56787C132.789 4.56787 126.824 10.1764 126.824 18.4872V26.3391ZM134.064 18.4872C134.064 14.2553 136.868 11.757 140.641 11.757C144.465 11.757 147.269 14.3063 147.269 18.4362V26.3391C147.269 30.5199 144.363 33.0183 140.539 33.0183C136.817 33.0183 134.064 30.5709 134.064 26.3391V18.4872Z" fill="#06DCFF"/>
<path d="M95.0568 26.3391C95.0568 34.5479 100.92 40.2583 108.772 40.2583C116.624 40.2583 122.793 34.6498 122.793 26.3391V18.4362C122.793 10.1254 116.675 4.56787 108.874 4.56787C101.022 4.56787 95.0568 10.1764 95.0568 18.4872V26.3391ZM102.297 18.4872C102.297 14.2553 105.101 11.757 108.874 11.757C112.698 11.757 115.502 14.3063 115.502 18.4362V26.3391C115.502 30.5199 112.596 33.0183 108.772 33.0183C105.05 33.0183 102.297 30.5709 102.297 26.3391V18.4872Z" fill="#06DCFF"/>
<path d="M52.0873 26.3391C52.0873 34.5479 57.9508 40.2583 65.8027 40.2583C73.6546 40.2583 79.8239 34.6498 79.8239 26.3391V18.4362C79.8239 10.1254 73.7056 4.56787 65.9046 4.56787C58.0527 4.56787 52.0873 10.1764 52.0873 18.4872V26.3391ZM59.3274 18.4872C59.3274 14.2553 62.1317 11.757 65.9046 11.757C69.7286 11.757 72.5329 14.3063 72.5329 18.4362V26.3391C72.5329 30.5199 69.6266 33.0183 65.8027 33.0183C62.0807 33.0183 59.3274 30.5709 59.3274 26.3391V18.4872Z" fill="#06DCFF"/>
<path d="M20.3202 26.3391C20.3202 34.5479 26.1836 40.2583 34.0355 40.2583C41.8874 40.2583 48.0568 34.6498 48.0568 26.3391V18.4362C48.0568 10.1254 41.9384 4.56787 34.1375 4.56787C26.2856 4.56787 20.3202 10.1764 20.3202 18.4872V26.3391ZM27.5603 18.4872C27.5603 14.2553 30.3645 11.757 34.1375 11.757C37.9615 11.757 40.7657 14.3063 40.7657 18.4362V26.3391C40.7657 30.5199 37.8595 33.0183 34.0355 33.0183C30.3135 33.0183 27.5603 30.5709 27.5603 26.3391V18.4872Z" fill="#06DCFF"/>
<path d="M15.3234 5.33301H0.231445V12.3691H8.08335V39.4939H15.3234V5.33301Z" fill="#06DCFF"/>
<path d="M232.238 0.817383L232.245 1.84019L231.362 1.50182L231.02 2.44773L231.978 2.80148L231.295 3.62435L232.104 4.27803L232.75 3.47054L233.397 4.27034L234.206 3.61666L233.523 2.80148L234.481 2.44773L234.139 1.50182L233.255 1.84019L233.263 0.817383H232.238Z" fill="#06DCFF"/>
</svg>
