<svg xmlns="http://www.w3.org/2000/svg" width="1062.237" height="316.323" viewBox="0 0 1062.237 316.323">
  <g id="Сгруппировать_107639" data-name="Сгруппировать 107639" transform="translate(-351.972 -4699.374)">
    <path id="Контур_114736" data-name="Контур 114736" d="M146.308,0V32.156h43.458v74.2h43.457v-74.2h40.1L274.164,0Z" transform="translate(701.461 4804.34)" fill="#fff"/>
    <path id="Контур_114737" data-name="Контур 114737" d="M149.575,31.454l14.579,32.307h-29.3ZM122.273,0,71.8,106.36h43.612L122.7,90.492h53.608l7.285,15.868H229.77L178.732,0Z" transform="translate(634.54 4804.34)" fill="#fff"/>
    <path id="Контур_114738" data-name="Контур 114738" d="M114.235,47.317c8.144-1.285,21.3-6.859,21.3-21.87v-.709C135.536,10.3,125.244,0,94.8,0H0V106.359H94.789c35.023,0,46.887-12.582,46.887-31.6V73.479c0-19.015-16.58-24.589-27.438-26.161M43.614,26.454H80.348c7.72,0,10.293,2.138,10.293,6.561v.3c0,4-2.574,6.435-10.293,6.435H43.614ZM94.931,71.333c0,3.288-1.285,7.44-11.295,7.44H43.62V64.048H83.636c10.006,0,11.295,3.431,11.295,6.861Z" transform="translate(561.96 4804.335)" fill="#fff"/>
    <path id="Контур_114739" data-name="Контур 114739" d="M464.318.006,435.736,35.317,407.849.006H355.1l57.038,68.9v37.453H455.6V68.91L510.92.006Z" transform="translate(903.289 4804.335)" fill="#fff"/>
    <path id="Контур_114740" data-name="Контур 114740" d="M424.951,98.781V79.2c0-16.866-12.292-22.585-25.588-24.012,11.433-2.146,24.587-8.864,24.587-25.02v-.716c0-15.156-6-29.449-44.173-29.449H286V106.356h43.6V74.766h31.169c15.3,0,20.012,2.717,20.012,16.439v9.009a13.121,13.121,0,0,0,.859,6.147h44.887v-.722a9.823,9.823,0,0,1-1.571-6.859m-46.177-61.9c0,4-1.715,8.005-10.722,8.005H329.6V29.309h38.453V29.3c9.007,0,10.722,3.724,10.722,7.44Z" transform="translate(836.795 4804.34)" fill="#fff"/>
    <path id="Контур_114741" data-name="Контур 114741" d="M263.842,78.921V66.482h65.319V38.608H263.842V27.174h67.473V.013L220.1,0V106.358H332.323V78.921Z" transform="translate(773.298 4804.337)" fill="#fff"/>
    <path id="Контур_114742" data-name="Контур 114742" d="M146.308,0V32.156h43.458v74.2h43.457v-74.2h40.1L274.164,0Z" transform="translate(701.461 4804.34)" fill="#fff"/>
    <path id="Контур_114743" data-name="Контур 114743" d="M149.575,31.454l14.579,32.307h-29.3ZM122.273,0,71.8,106.36h43.612L122.7,90.492h53.608l7.285,15.868H229.77L178.732,0Z" transform="translate(634.54 4804.34)" fill="#fff"/>
    <path id="Контур_114744" data-name="Контур 114744" d="M114.235,47.317c8.144-1.285,21.3-6.859,21.3-21.87v-.709C135.536,10.3,125.244,0,94.8,0H0V106.359H94.789c35.023,0,46.887-12.582,46.887-31.6V73.479c0-19.015-16.58-24.589-27.438-26.161M43.614,26.454H80.348c7.72,0,10.293,2.138,10.293,6.561v.3c0,4-2.574,6.435-10.293,6.435H43.614ZM94.931,71.333c0,3.288-1.285,7.44-11.295,7.44H43.62V64.048H83.636c10.006,0,11.295,3.431,11.295,6.861Z" transform="translate(561.96 4804.335)" fill="#fff"/>
    <path id="Контур_114745" data-name="Контур 114745" d="M464.318.006,435.736,35.317,407.849.006H355.1l57.038,68.9v37.453H455.6V68.91L510.92.006Z" transform="translate(903.289 4804.335)" fill="#fff"/>
    <path id="Контур_114746" data-name="Контур 114746" d="M424.951,98.781V79.2c0-16.866-12.292-22.585-25.588-24.012,11.433-2.146,24.587-8.864,24.587-25.02v-.716c0-15.156-6-29.449-44.173-29.449H286V106.356h43.6V74.766h31.169c15.3,0,20.012,2.717,20.012,16.439v9.009a13.121,13.121,0,0,0,.859,6.147h44.887v-.722a9.823,9.823,0,0,1-1.571-6.859m-46.177-61.9c0,4-1.715,8.005-10.722,8.005H329.6V29.309h38.453V29.3c9.007,0,10.722,3.724,10.722,7.44Z" transform="translate(836.795 4804.34)" fill="#fff"/>
    <path id="Контур_114747" data-name="Контур 114747" d="M263.842,78.921V66.482h65.319V38.608H263.842V27.174h67.473V.013L220.1,0V106.358H332.323V78.921Z" transform="translate(773.298 4804.337)" fill="#fff"/>
    <path id="Контур_114819" data-name="Контур 114819" d="M20.373-28.68H45.208c21.986,0,26.223-11.25,26.223-20.014,0-9.5-5.77-16.216-23.592-16.216H9.489L.87-10.565H17.451ZM22.2-40.874l1.9-11.687h22.79c4.675,0,6.866,1.753,6.866,5.037,0,3.871-2.483,6.647-8.619,6.647ZM153.677-10.565h17.238L150.244-64.91h-21.4L94.508-10.565h17.165l6.136-9.934h32.212ZM125.409-32.77,138.046-53.15,145.5-32.77Zm103.722,2.922h21.4c8.4,0,10.81,3.214,9.788,9.642l-.95,5.99c-.365,2.267-.146,3.068.146,3.652h16.876l.073-.365c-.219-.877-.657-2.267-.073-6.136l1.461-9.13c1.1-7.012-3.214-10.445-8.181-11.979,4.821-1.388,11.979-5.186,11.979-13.586,0-7.085-4.529-13.148-20.452-13.148H218.1l-8.622,54.344h16.581ZM230.957-41.9l1.753-10.663h25.054c4.456,0,6.063,1.972,6.063,4.748,0,2.922-2.118,5.917-7.6,5.917Zm89.986-10.153h22.424L336.8-10.565h16.8l6.574-41.489H382.6l2.045-12.856H322.919ZM426.563-64.91l-8.614,54.344H434.31l5.77-36.668,29.657,36.668h16.288l8.62-54.344H478.281L472.8-29.995,445.046-64.91Zm112.268,0-8.614,54.344h56.317L588.505-23.2H548.554l1.461-8.911h38.419l1.972-12.417H551.984l1.242-8.035h39.3l1.972-12.342ZM649.2-29.849h21.4c8.4,0,10.81,3.214,9.788,9.642l-.945,5.99c-.365,2.267-.146,3.068.146,3.652h16.876l.073-.365c-.219-.877-.657-2.267-.073-6.136l1.461-9.13c1.091-7.012-3.214-10.445-8.181-11.979,4.821-1.388,11.979-5.186,11.979-13.586,0-7.085-4.529-13.148-20.452-13.148h-43.1l-8.622,54.344h16.581ZM651.026-41.9l1.753-10.663h25.054c4.456,0,6.063,1.972,6.063,4.748,0,2.922-2.118,5.917-7.6,5.917ZM804.782-25.613a23.652,23.652,0,0,0,.365-4.09c0-10.08-6.939-14.974-26.222-15.266l-8.765-.146c-9.861-.146-10.883-2.483-10.883-4.529,0-2.191.8-4.894,14.39-4.894h1.023c13.805,0,14.39,4.383,14.609,6.574h17.092c1.091-8.984-3.652-17.9-28.779-17.9h-4.67c-24.18,0-29.656,7.012-30.751,14.463a18.7,18.7,0,0,0-.219,2.849c0,8.327,5.259,15.412,24.18,15.85l9.057.219c10.591.292,12.2,1.9,12.2,4.821,0,2.7-1.023,6.428-16.216,6.428h-.877c-13.659,0-14.682-5.186-14.755-8.619H738.391c-.877,7.743,1.169,20.234,28.706,20.234h4.748c26.661,0,31.336-8.108,32.943-16Z" transform="translate(561.978 5002.972)" fill="#fff"/>
    <path id="Контур_114748" data-name="Контур 114748" d="M20.867,24.792,178.785,0l-46.75,54.835L273.924,40.626,0,165.625,86.211,31.269Z" transform="matrix(0.643, -0.766, 0.766, 0.643, 351.972, 4909.2)" fill="#ff004f"/>
  </g>
</svg>
