<svg width="88" height="88" fill="none" xmlns="http://www.w3.org/2000/svg"><path d="M80.773 28.797a38.913 38.913 0 0 0-8.486-12.413 39.585 39.585 0 0 0-12.585-8.37 39.778 39.778 0 0 0-15.409-3.072 39.812 39.812 0 0 0-15.415 3.071 39.508 39.508 0 0 0-12.585 8.371 38.987 38.987 0 0 0-8.486 12.413 38.352 38.352 0 0 0-3.114 15.206c0 5.096.978 10.05 2.914 14.724.028.075.055.15.096.224l.014.034c.028.075.062.143.09.217a38.912 38.912 0 0 0 8.486 12.414 39.585 39.585 0 0 0 12.585 8.37 39.812 39.812 0 0 0 15.415 3.071 39.813 39.813 0 0 0 15.416-3.07 39.51 39.51 0 0 0 12.585-8.371 38.988 38.988 0 0 0 8.486-12.414 38.352 38.352 0 0 0 3.113-15.206 38.471 38.471 0 0 0-3.12-15.199ZM62.995 73.709a35.116 35.116 0 0 1-4.719 2.44l.703-1.78 4.016-.66ZM21.562 61.044l7.626 9.002v5.606c-6.923-3.228-12.626-8.595-16.229-15.274l8.603.666Zm-.585-15.403-.379 11.238-9.567-.74a34.33 34.33 0 0 1-2.205-12.136c0-1.508.097-3.016.296-4.504l5.56-2.494 6.295 8.636Zm42.41-15.37 4.25-4.7 9.251 4.667A34.201 34.201 0 0 1 79.74 43.14l-6.854 6.421-6.358-4.837-3.14-14.452Zm-12.13 24.637 13.184-6.631 6.379 4.858-2.067 15.491L57.918 70.4l-8.686-5.394 2.025-10.097ZM35.966 20.141l5.889 7.943-6.427 11.843-11.496 2.779-6.165-8.446 5.449-10.925 12.75-3.194ZM49.79 51.07l-10.415-9.79 6.075-11.197 13.99 1.467 2.873 13.222L49.79 51.07Zm10.525-23.522-14.892-1.562-5.883-7.93 9.162-8.764a35.48 35.48 0 0 1 9.94 2.724l6.006 10.742-4.333 4.79ZM22.988 16.051a35.446 35.446 0 0 1 9.685-5.102 35.955 35.955 0 0 1 10.353-1.91l-7.253 6.944-12.303 3.078-.482-3.01Zm2.094 30.575 11.125-2.69 10.966 10.313-2.012 10.022-13.122 2.786-7.356-8.69.4-11.741Zm8.245 24.33 13.219-2.805 8.396 5.224-1.784 4.505a35.963 35.963 0 0 1-8.865 1.108 35.79 35.79 0 0 1-10.966-1.713v-6.318ZM79.382 49.1a34.389 34.389 0 0 1-5.8 14.601l1.398-10.477 4.402-4.124ZM68.664 21.5l-3.031-5.415a35.836 35.836 0 0 1 7.598 7.725l-4.567-2.31ZM10.135 34.56c1.653-5.817 4.794-11.076 9.168-15.363l.33 2.066-5.8 11.638-3.698 1.658Z" fill="#051854"/></svg>