<svg width="356" height="47" fill="none" xmlns="http://www.w3.org/2000/svg"><path d="M63.833.724h38.279l-1.655 10.336h-25.45l-.932 5.892h15.208L87.525 27.6H72.42l-1.035 7.029H99.32l-1.76 10.957H56.695L63.833.724Zm57.729 11.06h-16.036l1.759-11.06h44.9l-1.862 11.06h-16.036l-5.379 33.8h-12.726l5.38-33.8Zm31.555 13.541C152.599 10.75 162.738 0 176.601 0c16.14 0 20.899 10.75 21.416 15.918h-13.036c-.62-1.24-2.896-4.444-7.966-4.444-7.138 0-11.173 6.098-10.863 13.23.207 5.79 3.414 10.13 9.001 10.13 5.173 0 7.449-2.997 8.173-4.134h12.932c-.827 4.031-6.104 15.608-20.691 15.608-13.346 0-22.037-8.58-22.45-20.983ZM207.224.724h12.828l-4.242 26.978L239.916.724h12.829l-7.139 44.86h-12.829l4.242-26.875-24.105 26.876h-12.829L207.224.724Zm66.006 11.06h-16.036l1.759-11.06h44.9l-1.758 11.06h-16.036l-5.38 33.8h-12.725l5.276-33.8ZM310.163.724h12.829l-4.346 27.082L342.752.827h12.829l-7.139 44.861h-12.829l4.242-26.875-24.105 26.875h-12.829L310.163.724ZM34.451 17.366h-11.38l.931-5.479h27.002l1.76-11.06H12.828l-2.587 16.539H1.655L0 27.496h8.587L5.69 45.585h26.485c12.415 0 20.692-5.375 20.278-16.332-.207-7.65-6.622-11.887-18.002-11.887ZM33.313 34.42H20.278l1.138-6.925h13.449c2.69 0 4.035.93 4.035 2.687.207 2.791-2.07 4.238-5.587 4.238Z" fill="#fff"/></svg>