<svg width="203" height="203" fill="none" xmlns="http://www.w3.org/2000/svg"><path d="M101.436 202.871c56.021 0 101.435-45.414 101.435-101.435C202.871 45.414 157.457 0 101.436 0 45.414 0 0 45.414 0 101.436c0 56.021 45.414 101.435 101.436 101.435Z" fill="#F2B1CA"/><path d="M101.141 3.796C46.147 3.94 3.231 49.298 3.774 101.42c-.583 51.653 41.783 97.621 97.591 97.652 55.317.031 97.722-45.324 97.732-97.621.009-52.699-42.992-97.796-97.956-97.652v-.003Zm4.993 81.332Z" fill="#010201"/><path d="M51.558 45.076h96.24c.018.28.049.522.049.764 0 17.974-.006 35.946.006 53.92.006 11.079-1.961 21.78-6.294 31.99-7.381 17.395-19.331 30.732-35.826 39.969-1.765.989-3.588 1.869-5.411 2.753-.291.141-.767.144-1.062.006-17.216-8.062-30.259-20.487-38.932-37.422-4.293-8.384-7.095-17.265-8.083-26.641-.466-4.443-.63-8.933-.65-13.404-.077-16.48-.037-32.96-.04-49.443v-2.492h.003Zm1.915 1.887v.94c.024 17.75.073 35.497.061 53.248a74.492 74.492 0 0 0 1.212 13.521c2.194 11.981 6.914 22.885 14.099 32.705 7.567 10.345 17.155 18.306 28.543 24.171 1.759.905 3.204 1.181 4.788-.074.129-.101.297-.154.448-.233 18.95-9.95 31.993-25.021 39.079-45.214 2.523-7.184 4.066-14.608 4.128-22.228.144-18.705.104-37.413.138-56.12 0-.24-.037-.48-.056-.719h-92.44v.003Z" fill="#F2B1CA"/><path d="M89.937 173.189c-23.53-2.933-48.844-19.376-58.79-48.153-9.928-28.725-.36-57.514 17.2-74.67.132 1.342.194 2.45-.88 3.625-9.391 10.275-15.348 22.308-17.487 36.056-3.06 19.666 1.308 37.656 13.209 53.638 9.538 12.81 22.145 21.335 37.514 25.736 1.322.377 2.657.739 4.01.976 1.999.35 3.45 1.614 5.224 2.792Zm61.144-122.826c18.785 18.457 26.96 48.16 16.701 75.986-11.134 30.192-37.953 44.477-58.128 46.754 1.624-1 2.9-2.176 4.613-2.556 9.992-2.207 19.205-6.19 27.38-12.365 14.258-10.759 23.652-24.79 27.175-42.359 4.401-21.943-.617-41.737-14.571-59.248-.666-.835-1.319-1.713-2.123-2.403-1.213-1.043-1.326-2.299-1.047-3.812v.003Zm-10.348-8.47c-.865 0-1.734.04-2.596-.018-.365-.025-.749-.203-1.068-.399a73.194 73.194 0 0 0-20.328-8.605c-7.894-2.023-15.919-2.446-23.971-1.722-10.542.948-20.38 4.257-29.41 9.8-1.543.947-3.022.975-4.891.861 9.679-6.57 20.076-10.731 31.483-12.217 18.46-2.4 35.382 1.774 50.827 12.061-.012.08-.027.16-.04.24h-.006Z" fill="#F2B1CA"/><path d="M87.868 180.269c1.532-.132 2.593.344 3.284 1.719.561 1.117 1.332 2.133 2.065 3.274 1.056-1.255 2.087-2.409 3.026-3.63.473-.614.96-.86 1.707-.678.346.085.715.076 1.187.119-.245 3.612-.488 7.191-.73 10.797h-2.495c.129-2.09.258-4.171.39-6.255a4.73 4.73 0 0 0-.157-.107c-1.056 1.212-2.108 2.427-3.238 3.728-.923-1.427-1.81-2.789-2.835-4.373-.178 2.382-.335 4.493-.494 6.669l-2.422-.396c.243-3.661.482-7.273.718-10.867h-.006Zm-8.715 3.017-3.797 2.885c-.623-1.572-1.224-3.091-1.905-4.815a6416.5 6416.5 0 0 0-1.839 6.334c-.788-.246-1.476-.464-2.326-.731l2.9-10.468c1.614.068 2.207.495 2.71 1.869.47 1.286.954 2.566 1.488 4.002.73-.552 1.37-1.031 2.004-1.516.402-.307.854-.574 1.191-.939 1.007-1.095 2.13-1.056 3.499-.365-.964 3.422-1.937 6.887-2.897 10.29-.17.052-.224.086-.273.08-1.492-.199-2.044-1.019-1.658-2.462.362-1.353.722-2.703 1.08-4.057-.06-.033-.12-.07-.18-.104l.003-.003Zm51.943-155.202c-.638-.203-1.246-.338-1.795-.593-.224-.104-.381-.454-.476-.724-.739-2.09-1.451-4.189-2.179-6.285-.082-.236-.181-.463-.352-.893l-2.213 6.095-2.342-.866c1.219-3.452 2.409-6.831 3.606-10.225 1.308.202 2.222.672 2.612 2.08.58 2.106 1.375 4.15 2.271 6.258l2.166-5.886c.786.276 1.529.534 2.327.813-1.228 3.465-2.416 6.813-3.628 10.223l.003.003Zm-82.248-1.621c.472-.304.844-.626 1.276-.8.344-.139.808-.234 1.136-.117 2.32.828 4.619 1.718 7.083 2.448-1.053-1.78-2.102-3.56-3.192-5.4l2.167-1.238c1.893 3.115 3.756 6.175 5.647 9.284-.936.718-1.774 1.273-3.078.7-1.897-.835-3.889-1.452-5.84-2.158-.15-.055-.307-.095-.694-.212 1.136 1.955 2.163 3.726 3.231 5.567-.715.424-1.356.804-2.083 1.23l-5.656-9.304h.003ZM15.117 69.35c-.021-.113-.036-.143-.03-.165.431-1.512 1.383-2.011 2.854-1.498 2.725.952 5.45 1.9 8.2 2.86-.258 1.259-.734 2.164-2.133 2.563-2.072.586-4.075 1.418-6.15 2.333l5.83 2.157-.775 2.277c-3.462-1.194-6.844-2.36-10.202-3.52-.015-.11-.036-.166-.027-.218.184-1.454 1.025-2.136 2.443-2.51 1.94-.513 3.808-1.301 5.708-1.974.006-.076.015-.15.021-.227l-5.739-2.074v-.003Zm167.487 67.645c0 3.048-2.624 5.641-5.674 5.613-3.118-.028-5.653-2.624-5.616-5.751.037-3.072 2.59-5.506 5.754-5.49 3.032.018 5.539 2.565 5.536 5.628Zm-5.824-3.133c-1.648.006-3.011 1.359-3.014 2.998-.006 1.725 1.531 3.262 3.235 3.238 1.724-.028 3.194-1.455 3.17-3.078-.025-1.771-1.522-3.164-3.391-3.158ZM112.484 22.974c-3.167-.019-5.65-2.529-5.625-5.69.021-2.967 2.584-5.665 5.533-5.573 3.633.114 5.674 2.79 5.736 5.665.064 3.09-2.535 5.616-5.644 5.598Zm-.006-8.786c-1.651-.034-3.103 1.46-3.124 3.216-.022 1.67 1.328 3.093 2.989 3.151 1.731.065 3.237-1.402 3.256-3.173.021-1.795-1.314-3.16-3.121-3.194Zm65.205 103.384c3.575.899 7.046 1.771 10.624 2.673-.402 1.525-.672 3.026-1.197 4.435-.764 2.062-3.271 2.639-4.953 1.249-.15-.123-.295-.258-.393-.347-.632.248-1.2.607-1.804.687a3.042 3.042 0 0 1-3.444-3.529c.274-1.709.755-3.385 1.17-5.168h-.003Zm1.635 2.98c-.184.822-.445 1.528-.457 2.237-.006.362.353.887.691 1.062.445.227.957-.009 1.144-.552.243-.706.436-1.427.672-2.219-.733-.191-1.322-.341-2.05-.528Zm4.143 1.062c-.159.828-.758 1.599-.03 2.323.214.212.764.316 1.043.193.847-.365.755-1.237.97-1.995-.706-.187-1.317-.346-1.983-.524v.003Zm-162.97-11.819-10.904.608c-.126-1.86-.53-3.664-.021-5.398.577-1.979 2.58-2.584 4.686-1.568.7-.939 1.565-1.624 2.854-1.553 1.553.086 2.851 1.227 3.001 2.78.16 1.648.252 3.302.387 5.131h-.003Zm-4.616-2.215 2.142-.154c-.055-.767 0-1.519-.199-2.194-.114-.38-.623-.856-.988-.887-.295-.024-.841.519-.912.884-.144.743-.043 1.534-.043 2.351Zm-2.105.064c-.037-.497-.058-.942-.107-1.384-.065-.586-.442-1.016-.985-.914-.366.067-.817.5-.936.865-.16.494-.04 1.08-.04 1.636.703-.071 1.34-.132 2.068-.206v.003Zm157.449-62.16c.933 1.59 1.967 3.017 2.654 4.597 1.001 2.293 0 5.036-2.074 6.362-2.155 1.375-5.082 1.083-6.832-.733-.543-.565-.997-1.219-1.463-1.854-.449-.608-.857-1.243-1.348-1.961 3.002-2.12 5.954-4.21 9.06-6.408l.003-.003Zm-5.705 7.105c.758 1.356 1.654 2.39 3.259 2.277 1.375-.099 2.375-.847 2.906-2.12.629-1.508-.215-2.625-1.083-3.794a3535.29 3535.29 0 0 1-5.085 3.637h.003ZM45.502 43.133c-.598.54-1.175 1.059-1.82 1.639-2.458-2.734-4.86-5.41-7.362-8.19 1.39-1.133 2.667-2.327 4.097-3.29 1.004-.676 2.207-.611 3.25.14 1.056.762 1.713 1.71 1.317 3.1-.083.292-.13.595-.2.927 1.906.337 3.781.672 5.89 1.046-.798.71-1.415 1.338-2.124 1.839-.233.165-.706.027-1.059-.022-1.556-.224-3.109-.466-4.665-.7-.046.065-.095.126-.14.19l2.816 3.324v-.003Zm-4.376-4.925c.513-.504 1.038-.896 1.375-1.412.175-.264.16-.878-.037-1.099-.2-.227-.804-.34-1.086-.202-.583.279-1.074.755-1.648 1.187.479.522.868.952 1.396 1.529v-.003Zm78.256 151.541c.722-2.031 1.338-3.87 2.035-5.671.242-.626.089-.964-.393-1.344-1.476-1.163-2.924-2.363-4.496-3.643.832-.218 1.513-.457 2.213-.555.341-.047.779.082 1.071.282.924.629 1.801 1.329 2.808 2.084.344-.992.697-1.866.942-2.768.221-.814.651-1.317 1.482-1.513.507-.12.995-.329 1.676-.559-.304.982-.546 1.801-.813 2.615-.319.957-.62 1.927-1.007 2.857-.239.574-.123.939.347 1.292 1.369 1.034 2.725 2.087 4.085 3.133.221.169.439.344.795.623-.881.316-1.642.623-2.428.85-.178.052-.46-.135-.654-.27-1.074-.764-2.136-1.547-3.323-2.412-.448 1.2-.899 2.277-1.252 3.385-.218.681-.54 1.108-1.292 1.197-.547.064-1.077.242-1.796.414v.003Zm-15.309 2.05c.834-1.479 1.641-2.915 2.452-4.349.591-1.041.498-1.996-.28-2.866-1.049-1.175-2.096-2.351-3.277-3.676 1.022-.08 1.89-.175 2.765-.194.193-.003.42.237.58.411.764.817 1.513 1.648 2.363 2.584.568-1 1.12-1.875 1.574-2.795.295-.602.688-.884 1.354-.927.607-.04 1.206-.2 2.037-.347-.475.89-.853 1.593-1.233 2.296-.522.963-.998 1.955-1.587 2.875-.353.55-.227.881.166 1.301 1.341 1.44 2.654 2.904 4.091 4.487-.887.16-1.636.328-2.394.405-.218.022-.51-.175-.685-.353-.923-.942-1.822-1.912-2.829-2.973-.666 1.129-1.326 2.163-1.89 3.243-.326.626-.737.927-1.44.887-.552-.03-1.108-.006-1.774-.006l.007-.003Zm41.23-155.85c-.74-.426-1.387-.752-1.977-1.166-.153-.108-.22-.516-.15-.727.5-1.486-.095-2.376-1.473-2.888a1.063 1.063 0 0 1-.288-.172c-1.154-.967-2.278-1.172-3.441.027-.153.16-.629.15-.877.04-.556-.248-1.059-.607-1.701-.994.415-.322.728-.58 1.056-.82 2.59-1.893 5.211-3.743 7.758-5.689.853-.654 1.36-.052 2.02.218.65.267.607.706.527 1.289-.5 3.566-.96 7.135-1.454 10.885v-.003Zm-1.596-6.128c.153-1.1.295-2.09.436-3.082-.068-.03-.132-.061-.2-.092l-2.39 1.857c.77.47 1.402.86 2.154 1.316Zm46.438 67.994.184 2.507c-2.636.089-5.217.307-7.789.221-2.415-.083-4.081-2.87-3.489-5.478.42-1.847 1.823-3.121 3.698-3.284 2.074-.18 4.155-.303 6.23-.482.577-.049.853.13.841.722-.013.53 0 1.065 0 1.706l-2.818.24c-1.316.11-2.639.183-3.952.337-1.17.135-1.737.871-1.67 2.022.068 1.114.767 1.832 1.912 1.817 1.35-.018 2.701-.129 4.048-.196.921-.046 1.841-.086 2.802-.132h.003Zm-178.98 22.571c-.184-.822-.347-1.534-.537-2.381 2.44-.543 4.827-1.157 7.249-1.565.764-.129 1.709.125 2.415.5 1.78.948 2.446 2.633 2.265 4.551-.178 1.918-1.317 3.179-3.223 3.661-2.172.55-4.348 1.077-6.62 1.639-.217-.859-.398-1.581-.604-2.388 1.835-.457 3.6-.893 5.361-1.335.436-.11.875-.214 1.299-.356 1.135-.371 1.586-1.209 1.298-2.369-.243-.982-1.114-1.577-2.182-1.365-1.986.389-3.956.847-5.932 1.273-.24.052-.485.086-.795.141l.006-.006Zm11.168 22.575 2 1.114c-.871 2.608.206 4.367 1.912 4.806 1.934.497 3.698-.642 4.1-2.517.4-1.853-.816-3.213-3.464-3.811v-2.317c1.964-.433 4.508 1.123 5.46 3.342 1.135 2.648.321 5.38-2.09 7.034-2.1 1.436-5.107 1.129-6.976-.715-1.894-1.869-2.326-4.834-.949-6.933l.007-.003ZM90.36 18.441c.304.074.577.123.844.206.482.147.954.316 1.43.475-.623 2.333-3.149 3.99-5.813 3.849-2.504-.135-4.769-2.225-5.177-4.782-.396-2.47 1.08-5.122 3.357-6.03 2.566-1.025 5.399-.282 6.82 1.841-.593.458-1.191.915-1.888 1.452-.92-1.102-2.151-1.617-3.51-1.194-.685.215-1.366.801-1.793 1.403-1 1.417-.5 3.47.93 4.367 1.657 1.04 3.428.478 4.8-1.587Zm-22.866 9.974c.114-2.274.215-4.407.329-6.54.082-1.516.211-3.032.27-4.548.021-.528.171-.871.702-.976.583-.113 1.139-.702 1.768-.04 2.55 2.698 5.116 5.383 7.81 8.213-.834.313-1.513.613-2.219.795-.193.049-.527-.224-.715-.424-1.2-1.292-1.193-1.301-2.829-.709-.264.095-.525.2-.786.298-1.78.672-1.761.672-1.875 2.532-.015.248-.26.586-.488.696-.573.273-1.197.442-1.96.706l-.007-.003Zm2.99-8.958a6.73 6.73 0 0 0-.219.095v3.155c.783-.288 1.498-.556 2.33-.862a969.071 969.071 0 0 0-2.112-2.388Zm108.057 42.688c-.601.31-1.074.55-1.592.816.491 1.05.963 2.06 1.476 3.152-.706.35-1.348.672-2.069 1.031-.558-1.053-1.095-2.062-1.654-3.118-.522.255-1.016.494-1.614.783.623 1.35 1.215 2.636 1.847 4.002-.678.37-1.304.715-2.01 1.101l-3.133-6.23c3.259-1.61 6.491-3.203 9.827-4.851 1.021 2.074 2.01 4.078 3.056 6.205-.696.362-1.356.703-2.096 1.086l-2.041-3.974.003-.003ZM29.91 47.697c.487.402.917.752 1.41 1.157l2.195-2.704c.63.46 1.206.884 1.854 1.36l-2.105 2.878c.463.353.899.681 1.399 1.062l2.814-3.41c.61.47 1.182.909 1.86 1.427l-4.287 5.466c-2.91-2.274-5.733-4.48-8.609-6.73l4.254-5.456c.647.506 1.218.948 1.863 1.451-.9 1.185-1.756 2.317-2.652 3.499h.003Zm146.824 33.45c3.575-.788 7.049-1.555 10.655-2.353.494 2.19.969 4.284 1.476 6.527-.752.19-1.461.371-2.259.571-.34-1.384-.669-2.707-1.016-4.106-.601.126-1.138.236-1.773.368.205 1.062.402 2.069.619 3.198-.721.187-1.436.371-2.221.577l-.872-3.229c-1.399.292-2.713.562-4.075.844l-.538-2.397h.004Zm10.785 27.424c.119-1.003.214-1.835.322-2.725.767.086 1.479.166 2.317.258-.246 2.691-.482 5.306-.728 8.013-.788-.083-1.503-.16-2.347-.252.07-.905.138-1.783.208-2.734l-8.491-.89.267-2.446c2.835.261 5.616.515 8.455.773l-.003.003ZM22.221 59.39c-.47.825-.899 1.58-1.365 2.402l-2.053-1.2c1.313-2.329 2.602-4.612 3.95-6.997l2.034 1.108-1.23 2.492 7.337 4.207c-.414.737-.78 1.384-1.203 2.13l-7.466-4.143h-.004Zm145.472 87.876-2.569 3.634-1.988-1.356c1.341-1.931 2.642-3.809 3.992-5.752 3.026 2.087 5.985 4.125 8.934 6.157-.761 1.436-1.783 1.724-3.066.865-1.728-1.157-3.459-2.314-5.3-3.548h-.003ZM23.842 132.625c-.525-1.378-1.034-2.707-1.583-4.146l2.135-.887c.878 2.13 1.734 4.217 2.658 6.457-3.357 1.372-6.644 2.713-10.075 4.112-.276-.699-.57-1.322-.752-1.979-.04-.141.282-.485.503-.58 2.066-.878 4.146-1.722 6.221-2.575.282-.117.558-.252.893-.405v.003ZM157.995 32.254l-5.471 6.488 3.36 2.921a691.11 691.11 0 0 1-1.516 1.842l-5.312-4.555c2.363-2.77 4.695-5.502 7.086-8.307l1.85 1.614.003-.003Z" fill="#FAFAFA"/><path d="M47.896 174.46c-.252-1.016-.586-2.022-.734-3.053-.162-1.148-.736-1.682-1.862-1.854-1.065-.16-2.103-.479-3.158-.915 1.077-.254 2.142-.604 3.231-.739 1.19-.148 1.651-.755 1.799-1.885.138-1.064.466-2.105.708-3.157.071 0 .142 0 .212-.003.3 1.347.63 2.691.89 4.047.095.491.285.706.789.804 1.365.267 2.719.602 4.075.912l.01.212c-1.256.294-2.508.616-3.772.874-.648.132-.998.393-1.12 1.105-.212 1.225-.565 2.428-.856 3.64l-.212.009v.003Zm97.71-5.834c1.304-.304 2.599-.642 3.912-.896.568-.111.795-.39.906-.912.276-1.316.586-2.627 1.052-3.971.154.596.307 1.194.464 1.789.245.949.218 2.167.816 2.765.599.596 1.817.571 2.765.814.586.15 1.176.288 1.762.623-1.262.294-2.52.616-3.787.877-.617.126-.958.372-1.084 1.044a18.892 18.892 0 0 1-1.092 3.713c-.292-1.178-.623-2.351-.866-3.538-.144-.718-.448-1.105-1.209-1.243-1.233-.224-2.443-.568-3.664-.863.009-.064.015-.132.025-.196v-.006Z" fill="#F2B1CA"/><path d="M21.586 86.024c-.166.875-.304 1.611-.463 2.461-3.585-.647-7.093-1.283-10.56-1.909-.05-.125-.09-.178-.086-.227.135-2.228.138-2.237 2.295-1.869 2.906.5 5.81 1.016 8.814 1.544Zm76.972-75.025H101v10.772h-2.442V10.999Zm92.44 84.029c.249.074.433.123.614.187 2.013.718 2.047.774 1.881 3.035-1.958-.656-2.793-1.703-2.495-3.219v-.003ZM64.325 81.58l5.118-.951c1.965-.36 3.928-.718 5.893-1.071.5-.09.923-.221 1.264-.694.218-.304.7-.583 1.065-.586 3.48-.043 6.96-.025 10.474.123l-4.438 1.372c.94 1.224 1.473 2.458 1.523 3.99.07 2.197-1.802 4.946-4.84 5.302-1.2.141-2.418.114-3.627.169-1.259.058-2.204.89-2.391 2.09-.197 1.264.54 2.654 1.648 3.032.282.095.61.07.917.077 3.1.055 6.2.04 9.293.175 4.947.214 8.52 2.725 10.968 6.92 1.031 1.768 1.467 3.719 1.516 5.947-.356-.319-.583-.509-.791-.718-2.621-2.599-5.251-5.186-7.841-7.816-.538-.543-1.06-.844-1.83-.752-.521.061-1.052.012-1.7.172.203.172.414.334.602.522 3.529 3.523 7.034 7.07 10.603 10.553.752.734 1.105 1.458 1.006 2.495-.08.854-.015 1.722-.015 2.581l-.31.191c-.77-.841-1.51-1.716-2.317-2.523-4.4-4.404-8.826-8.783-13.218-13.196-.552-.556-1.086-.905-1.896-.795-.494.068-1.004.012-1.66.012.251.283.414.485.595.666 6.076 6.074 12.153 12.15 18.247 18.208.418.414.59.819.571 1.399-.04 1.262-.012 2.523-.012 4.005-.491-.451-.84-.752-1.163-1.077-8.393-8.421-16.787-16.839-25.174-25.266-1.728-1.737-2.198-3.845-1.498-6.144.734-2.403 2.434-3.885 4.892-4.382.9-.181 1.85-.096 2.78-.135.48-.022.961-.025 1.43-.092.943-.135 1.606-.924 1.55-1.799-.055-.908-.745-1.605-1.721-1.617-4.478-.061-8.958-.098-13.436-.141-.69-.006-1.384 0-2.078 0 0-.083-.006-.163-.006-.246h.007Zm15.887-2.09h-2.111v1.06h2.111v-1.06Zm32.575 18.714c-.804 0-1.611-.04-2.409.025-.255.021-.525.276-.73.485-2.91 2.94-5.81 5.889-8.713 8.838a14.06 14.06 0 0 0-.313-.135c.163-1.077.193-2.197.51-3.228 1.598-5.2 5.186-8.332 10.434-9.459 1.681-.362 3.48-.184 5.223-.236 2.025-.061 4.054-.089 6.079-.169 1.203-.049 2.198-1.175 2.228-2.427.031-1.283-.951-2.507-2.16-2.612-1.178-.101-2.363-.12-3.545-.19-4.321-.258-6.635-4.797-4.314-8.458.174-.276.362-.546.58-.875l-4.453-1.338.033-.282c.863 0 1.728-.01 2.59 0 2.535.028 5.07.037 7.602.123.464.015 1.068.22 1.338.555.464.574 1.022.688 1.657.804 3.29.611 6.577 1.237 9.864 1.863.208.04.411.117.598.365h-5.423c-3.268 0-6.536 0-9.802.013-.844.003-1.611.65-1.813 1.488-.191.8.208 1.375.825 1.79.264.174.629.25.955.272 1.068.065 2.142.043 3.207.123 2.633.2 4.474 1.544 5.462 3.99.958 2.366.596 4.55-1.19 6.389-4.104 4.22-8.237 8.412-12.383 12.592-4.386 4.419-8.796 8.81-13.193 13.22-.215.215-.381.482-.571.725a10.12 10.12 0 0 0-.27-.108c0-1.501-.025-3.004.024-4.502.009-.245.31-.509.519-.721 6.092-6.098 12.192-12.19 18.29-18.281.16-.16.344-.295.473-.534-1.274.018-2.467-.39-3.637.816-5.094 5.26-10.311 10.397-15.648 15.743 0-1.571-.018-2.952.022-4.33.006-.193.291-.39.469-.565 3.683-3.688 7.365-7.374 11.054-11.054.191-.19.448-.316.672-.47-.049-.079-.101-.156-.15-.236l.009-.009Zm8.553-18.726h-2.081v1.083h2.081v-1.083Z" fill="#FAFAFA"/><path d="M99.73 131.934c3.571-3.584 7.055-7.073 10.516-10.581.203-.206.31-.586.319-.89.034-1.323.056-2.652-.006-3.971-.037-.795.145-1.406.789-1.903.328-.252.565-.62.844-.936l.206.074v5.051l.236.117c1.132-1.105 2.277-2.201 3.388-3.327.123-.126.095-.423.095-.641 0-1.268.049-2.541-.043-3.803-.067-.923.153-1.632.893-2.197.264-.203.46-.488.786-.844.049.31.095.479.098.654.031 2.283.083 4.563.061 6.846-.003.39-.211.869-.482 1.154-1.5 1.565-3.062 3.072-4.575 4.628-.227.233-.43.611-.433.921-.021 9.299-.018 18.594-.015 27.893 0 .08.024.162.052.322h5.423v1.921h-7.31v-28.479c-3.149 3.287-6.147 6.414-9.229 9.627 1.286 1.249 2.9 2.811 4.291 4.161-2.01 2.109-3.95 4.14-5.957 6.246l-5.859-6.236c1.385-1.378 2.977-2.965 4.527-4.509L88.9 123.75v28.66h-7.377v-1.805h5.526v-.92c0-9.044-.006-18.088.013-27.132 0-.553-.16-.936-.553-1.317a259.5 259.5 0 0 1-4.538-4.542c-.215-.218-.433-.552-.44-.838-.033-2.473-.018-4.947-.018-7.702.838.997 1.974 1.414 1.842 2.854-.117 1.286-.052 2.59-.007 3.885.013.347.17.77.409 1.016.985 1.025 2.025 1.998 3.237 3.173v-5.383c1.148 1.016 2.136 1.792 1.918 3.422-.171 1.295-.35 2.78.117 3.919.454 1.108 1.722 1.881 2.636 2.799 2.66 2.673 5.322 5.346 8.068 8.101l-.003-.006Zm.005 2.575c-1.15 1.246-2.21 2.391-3.151 3.41l3.142 3.179 3.161-3.167-3.152-3.422ZM72.564 67.4c-1.725-1.83-3.265-3.457-4.803-5.086-.064.025-.132.049-.196.077v7.35h-3.756V57.075c1.197 0 2.421-.021 3.642.022.203.006.415.264.59.439 1.494 1.491 2.983 2.989 4.542 4.557 1.513-1.516 2.97-3.026 4.492-4.475.32-.303.853-.494 1.305-.53.973-.08 1.958-.025 2.977-.025v12.684h-3.69v-7.498c-1.653 1.667-3.261 3.293-5.103 5.15Zm47.187-.004c-1.703-1.845-3.21-3.477-4.717-5.113l-.236.117v7.325h-3.744V57.072c1.169 0 2.366-.024 3.563.022.227.009.466.276.659.466 1.498 1.482 2.983 2.977 4.53 4.524 1.498-1.504 2.98-2.965 4.426-4.463.408-.423.822-.595 1.405-.57.954.046 1.912.012 2.922.012v12.665h-3.634V62.17c-1.694 1.712-3.324 3.354-5.174 5.223v.003Zm-16.904-1.179c-1.102 1.268-2.062 2.37-3.176 3.65l-3.174-3.607c-.448.912-.871 1.55-1.083 2.253-.338 1.123-1.025 1.436-2.12 1.301-.74-.092-1.501-.018-2.425-.018.384-.838.666-1.492.976-2.133 1.608-3.308 3.238-6.607 4.827-9.922.243-.503.516-.697 1.084-.678 1.35.046 2.703-.003 4.054.03.251.007.629.163.727.36 1.982 3.998 3.934 8.016 5.889 12.027.022.043 0 .104 0 .31-1.169 0-2.338.018-3.508-.022-.168-.006-.374-.282-.478-.475-.491-.909-.952-1.833-1.593-3.076Zm-4.96-2.77 1.71 1.837 1.97-1.896c-.614-1.163-1.215-2.296-1.893-3.578-.666 1.353-1.23 2.504-1.786 3.636Zm8.097 25.803c-.184-2.612-1.289-4.66-3.738-5.76-3.907-1.76-8.286.8-8.75 5.063-.021.193-.033.39-.052.58h-5.64c-.022-.07-.04-.138-.062-.209l5.487-2.412-3.891-3.554a4.67 4.67 0 0 0 .098-.202c1.765.432 3.532.865 5.42 1.329-.467-1.912-.893-3.67-1.323-5.43.055-.036.114-.07.169-.107l4.296 3.79c.562-1.912 1.08-3.685 1.602-5.456.059-.016.117-.028.175-.043l1.627 5.527c1.5-1.35 2.915-2.618 4.327-3.888l.16.073-1.339 5.546c1.922-.476 3.695-.915 5.469-1.357.028.056.059.108.086.163-1.27 1.175-2.544 2.348-3.937 3.637 1.899.825 3.704 1.608 5.508 2.387-.012.101-.021.203-.033.304h-5.681l.016.015.006.003Zm25.905-32.144h3.725v12.573h-3.725V57.106ZM88.31 69.731h-3.62V57.11h3.62v12.62Z" fill="#F2B1CA"/><path d="M105.969 89.234c-.016 3.364-2.818 6.166-6.196 6.19-3.293.025-6.206-2.667-6.292-5.905.19.117.363.182.48.301 3.185 3.309 9.55 2.86 11.882-.54.018-.028.095-.018.144-.028l-.015-.015-.003-.003Z" fill="#F2B1CA"/></svg>