<svg width="156" height="170" fill="none" xmlns="http://www.w3.org/2000/svg"><path d="M32.792 27.784h2.303V10.53l-2.303-2.084v19.338Zm15.226 0h2.22V8.752l-2.22 2.112v16.92ZM53.398.111 50.239 0 42.36 7.474l1.58 1.473L53.4.111ZM33.32 0h-3.245l2.413 2.445L43.943 13.28l7.238-6.835v21.338H53.4V1.39l-9.374 8.835L33.32 0Zm-3.69.973v26.811h2.22V6.224l9.762 9.363 1.692-1.695L32.377 3.473l-2.745-2.5h-.001ZM55.923.639v27.145h2.19V12.67H70.04v-2.03H58.113V2.834L55.923.639Zm2.719 1.389h13.95V0H56.616l2.025 2.028Zm2.635 2.834H72.59V2.834H59.057V9.78h2.219V4.862Zm-2.22 8.697v13.613l2.22-2.194v-9.502h8.763v-1.917H59.057Zm13.867 12.307H61.8l-2.024 1.917h13.146v-1.917Zm0-2.916H62.218v2.028h10.705V22.95ZM84.766 4.557c1.025 0 1.83.167 2.496.473.61.277 1.137.666 1.497 1.027.362.417.61.75.722 1.084l.222.444h2.302s-.056-.194-.166-.528c-.11-.36-.305-.777-.583-1.277a6.93 6.93 0 0 0-1.275-1.528c-.527-.5-1.22-.944-2.053-1.278-.832-.333-1.886-.5-3.105-.5-1.082 0-2.053.194-2.858.611-.832.444-1.47.972-1.94 1.639-.473.639-.75 1.333-.805 2.028a2.743 2.743 0 0 0 .582 1.834c.472.528 1.22.917 2.22 1.14-.666-1.14-.888-2.084-.61-2.834.249-.779.72-1.362 1.385-1.75.722-.39 1.332-.584 1.97-.584l-.001-.001Zm-.11 8.502c1.136.222 2.44.5 3.882.86 1.442.334 2.773.78 3.994 1.25 1.192.501 2.024 1.057 2.496 1.695-.221-1.027-.694-1.806-1.359-2.36-.694-.557-1.636-1.085-2.774-1.585a16.56 16.56 0 0 0-2.717-.944c-.971-.25-1.886-.444-2.774-.638a20.896 20.896 0 0 1-2.33-.556c-.305-.111-.638-.194-.942-.278a13.412 13.412 0 0 1-2.109-.721c-.637-.279-1.081-.696-1.331-1.25-.443-1.307-.389-2.474.139-3.474.555-1.028 1.36-1.834 2.469-2.417 1.11-.584 2.273-.917 3.494-.917 1.22 0 2.357.194 3.356.583.97.362 1.802.861 2.495 1.446.666.583 1.193 1.194 1.554 1.89.36.694.527 1.333.527 1.944h2.163s-.029-.306-.167-.944c-.11-.611-.416-1.39-.887-2.278-.5-.861-1.221-1.695-2.22-2.473-1.025-.75-2.412-1.306-4.16-1.667-2.44-.361-4.41-.25-5.935.362-1.498.556-2.607 1.277-3.356 2.055-.749.695-1.275 1.584-1.608 2.695-.387 1.112-.387 2.194-.139 3.278.306.806.86 1.5 1.72 2.083.888.584 1.886 1.057 3.051 1.445 1.165.39 2.33.694 3.467.917v-.001Zm.886 10.196c-.915 0-1.664-.14-2.274-.36-.582-.195-1.053-.474-1.414-.807-.36-.333-.61-.64-.777-.944a3.476 3.476 0 0 1-.305-.834c-.056-.221-.056-.305-.056-.305H78.36c0 .223.083.611.167 1.028.11.444.304.917.665 1.473.333.5.832 1 1.525 1.5.527.417 1.47.778 2.829 1.111 1.304.334 2.995.222 5.048-.223 1.664-.583 2.717-1.362 3.245-2.277.472-.945.526-1.834.11-2.668-.443-.833-1.192-1.417-2.246-1.694.638 1.306.805 2.305.443 3.028-.388.694-.998 1.223-1.886 1.5-.915.278-1.803.473-2.718.473v-.001Zm9.208-5.529a5.838 5.838 0 0 1-.389-.444 3.802 3.802 0 0 0-.832-.777c-.333-.223-.942-.5-1.747-.806-.86-.334-2.135-.696-3.827-1.14-.776-.194-1.637-.362-2.58-.556-1.137-.223-2.33-.5-3.522-.778-1.138-.333-2.247-.722-3.218-1.194-.998-.5-1.775-1.167-2.357-1.973 0 1.111.389 2.028 1.165 2.778.776.779 2.052 1.473 3.827 2.112.86.334 1.941.639 3.3.945.943.221 1.942.5 2.913.75 1.027.277 1.94.583 2.829.971.832.362 1.525.807 2.051 1.307.527.527.805 1.14.805 1.777 0 .861-.25 1.668-.776 2.528-.5.806-1.276 1.528-2.274 2.084-1.054.528-2.358.806-3.939.806-1.747 0-3.19-.222-4.299-.61-1.11-.417-1.941-.918-2.58-1.528-.61-.611-1.052-1.223-1.33-1.834-.278-.583-.445-1.111-.472-1.528a10.87 10.87 0 0 1-.11-.61H75.39s.028.222.056.638a6 6 0 0 0 .444 1.667c.25.694.638 1.39 1.192 2.112.526.722 1.303 1.36 2.302 1.944 1.386.779 2.773 1.223 4.16 1.334a21.84 21.84 0 0 0 4.05-.027c1.58-.084 2.995-.473 4.299-1.195 1.275-.667 2.19-1.556 2.745-2.64.5-1.14.776-2.277.86-3.444.055-1.167-.194-2.057-.75-2.668h.002Zm12.203-13.17c1.026 0 1.83.168 2.496.474.61.277 1.137.666 1.498 1.027.36.417.609.75.721 1.084l.222.444h2.301s-.054-.194-.166-.528c-.111-.36-.305-.777-.582-1.277a6.894 6.894 0 0 0-1.276-1.528c-.526-.5-1.22-.944-2.051-1.278-.832-.333-1.887-.5-3.107-.5-1.082 0-2.052.194-2.856.611-.832.444-1.471.972-1.941 1.639-.472.639-.749 1.333-.805 2.028a2.733 2.733 0 0 0 .582 1.834c.472.528 1.221.917 2.219 1.14-.665-1.14-.887-2.084-.609-2.834.249-.779.72-1.362 1.386-1.75.721-.39 1.331-.584 1.969-.584l-.001-.001Zm-.112 8.503c1.138.222 2.44.5 3.883.86 1.442.334 2.773.78 3.994 1.25 1.192.501 2.025 1.057 2.496 1.695-.222-1.027-.694-1.806-1.36-2.36-.693-.557-1.636-1.085-2.773-1.585a16.523 16.523 0 0 0-2.718-.944c-.97-.25-1.886-.444-2.773-.638a20.96 20.96 0 0 1-2.33-.556c-.304-.111-.637-.194-.942-.278a13.406 13.406 0 0 1-2.108-.721c-.638-.279-1.081-.696-1.331-1.25-.443-1.307-.388-2.474.139-3.474.555-1.028 1.359-1.834 2.469-2.417 1.109-.584 2.274-.917 3.494-.917 1.221 0 2.357.194 3.356.583a8.42 8.42 0 0 1 2.496 1.446c.665.583 1.192 1.194 1.553 1.89.361.694.527 1.333.527 1.944h2.163s-.028-.306-.166-.944c-.111-.611-.416-1.39-.888-2.278-.499-.861-1.221-1.695-2.219-2.473-1.027-.75-2.413-1.306-4.16-1.667-2.442-.361-4.41-.25-5.936.362-1.498.556-2.607 1.277-3.355 2.055-.75.695-1.276 1.584-1.609 2.695-.388 1.112-.388 2.194-.139 3.278.306.806.86 1.5 1.72 2.083.888.584 1.886 1.057 3.051 1.445 1.165.39 2.33.694 3.467.917l-.001-.001Zm.888 10.196c-.915 0-1.664-.14-2.274-.36-.582-.195-1.053-.474-1.414-.807-.36-.333-.61-.64-.776-.944a3.463 3.463 0 0 1-.306-.834c-.056-.221-.056-.305-.056-.305h-2.357c0 .223.084.611.167 1.028.11.444.304.917.665 1.473.333.5.832 1 1.525 1.5.527.417 1.471.778 2.829 1.111 1.304.334 2.996.222 5.048-.223 1.664-.583 2.718-1.362 3.245-2.277.472-.945.527-1.834.111-2.668-.444-.833-1.193-1.417-2.247-1.694.638 1.306.805 2.305.444 3.028-.389.694-.999 1.223-1.887 1.5-.915.278-1.803.473-2.718.473l.001-.001Zm9.207-5.529a5.694 5.694 0 0 1-.388-.444 3.768 3.768 0 0 0-.832-.777c-.332-.223-.942-.5-1.747-.806-.859-.334-2.136-.696-3.827-1.14-.776-.194-1.637-.362-2.579-.556-1.138-.223-2.33-.5-3.523-.778-1.138-.333-2.247-.722-3.218-1.194-.998-.5-1.774-1.167-2.357-1.973 0 1.111.389 2.028 1.165 2.778.777.779 2.053 1.473 3.827 2.112.86.334 1.941.639 3.301.945.943.221 1.941.5 2.912.75 1.026.277 1.941.583 2.829.971.832.362 1.525.807 2.053 1.307.526.527.804 1.14.804 1.777 0 .861-.249 1.668-.777 2.528-.499.806-1.275 1.528-2.274 2.084-1.053.528-2.357.806-3.938.806-1.747 0-3.189-.222-4.299-.61-1.11-.417-1.941-.918-2.579-1.528-.61-.611-1.054-1.223-1.331-1.834-.277-.583-.444-1.111-.472-1.528-.083-.417-.11-.61-.11-.61h-1.997s.027.222.055.638a5.98 5.98 0 0 0 .444 1.667c.25.694.638 1.39 1.192 2.112.527.722 1.304 1.36 2.302 1.944 1.387.779 2.774 1.223 4.16 1.334 1.331.112 2.69.112 4.05-.027 1.581-.084 2.995-.473 4.299-1.195 1.275-.667 2.19-1.556 2.745-2.64.5-1.14.777-2.277.86-3.444.055-1.167-.194-2.057-.749-2.668h-.001Zm5.659 10.058V0h-2.247v27.784h2.247Zm3.382 0V0h-2.246v27.784h2.246ZM0 55.378l17.96-1.636V170h10.55V44.18L0 46.32v9.059ZM34.915 44.18h-2.637V170h10.55V52.233l-7.912-8.053h-.001ZM0 68.086l14.318-1.132v-9.437L0 58.523v9.563Zm67.066 32.461c2.763-28.813 13.69-43.408 32.906-43.408 4.646 0 8.917 1.258 12.936 3.774 3.767 2.39 7.158 5.661 9.795 9.562 2.889 3.9 5.024 8.304 6.531 13.085 1.382 4.655 2.135 9.436 2.135 14.091 0 5.033-.252 10.696-.502 17.238-.376 6.668-1.633 12.708-3.768 18.37-2.009 5.662-5.4 9.814-10.299 12.707-4.646 2.894-11.303 3.272-19.718.881l1.13 1.134a7.779 7.779 0 0 0 3.014 2.264c1.632.881 3.391 1.635 5.778 2.391 2.512.754 5.275 1.006 8.792 1.006 4.646 0 9.294-2.264 13.815-7.171 4.647-4.655 8.038-11.702 10.298-21.012 2.387-9.311 2.764-20.886 1.005-34.726-2.01-12.205-6.154-21.893-12.559-29.064-6.531-7.171-14.066-11.45-22.481-13.085-8.667-1.635-17.207 0-25.621 4.655-3.265 1.635-6.53 4.53-10.047 8.556-3.392 4.026-6.28 9.814-9.043 16.985-2.512 7.172-3.768 16.357-4.144 27.429-.125 12.204 1.507 23.276 4.773 32.713 3.391 9.436 8.54 16.985 15.323 22.269 6.907 5.662 15.698 8.556 26.248 8.808l12.183-.629c-12.936 0-23.109-3.397-30.519-9.94-7.285-6.668-12.308-15.224-15.197-25.919-2.763-10.316-3.642-21.515-2.763-32.964Zm27.631-55.235c13.187-.754 23.611 2.013 31.399 8.681 7.786 6.417 13.186 15.099 16.327 25.667 3.14 10.569 4.144 21.766 3.14 33.468-1.508 15.098-4.899 26.045-10.425 32.965-5.526 7.297-13.061 10.694-22.606 10.821-14.694-.881-24.24-10.066-28.76-27.302-1.76-7.046-2.638-14.722-2.89-23.025 0-8.053 1.13-15.603 3.517-22.648 2.26-7.172 5.903-12.33 10.927-15.853 5.024-3.523 11.429-3.775 19.342-.88-.754-1.008-1.759-2.265-3.642-3.524-1.507-1.51-4.019-2.39-7.16-2.894-3.139-.503-7.284-.251-12.182 1.259-3.516.88-7.158 3.775-10.927 8.43-3.767 4.907-6.656 11.45-8.665 20.13-1.884 8.682-2.135 19.376-.252 32.21 1.884 11.072 5.276 20.257 10.675 27.681 5.4 7.297 12.057 11.953 20.347 14.217 8.037 2.139 17.332 1.259 27.631-2.767 7.66-3.02 13.815-9.311 18.21-18.622 4.521-9.563 6.908-21.767 6.908-36.866 0-8.43-.879-16.733-3.14-24.786-1.884-8.178-5.149-15.35-9.795-21.39-4.647-6.164-10.927-10.693-18.839-13.587-7.788-2.768-17.583-3.146-29.138-1.385h-.002Z" fill="#000"/></svg>