<svg width="487" height="592" fill="none" xmlns="http://www.w3.org/2000/svg"><path d="M428.139 83.944a190.414 190.414 0 0 0-1.279-7.796c-1.791-2.321-4.864-3.202-8.597-3.523-5.018-.434-7.169 1.247-7.058 6.372.027 1.239.332 2.428.582 3.635.492 2.374.261 4.212-2.883 4.489-3.683.325-5.458 2.517-5.068 6.288.534 3.05 2.549 5.41 3.775 8.137.703.853 1.439 1.672 2.065 2.584 1.333 2.409.065 5.998 3.41 7.496 2.403-2.999 4.916-5.888 7.824-8.424a907.377 907.377 0 0 0 8.451-7.473 266.206 266.206 0 0 0-1.222-11.785ZM344.85 9.399a162.656 162.656 0 0 0-6.599 1.75c-5.069 2.607-10.26 4.916-15.708 6.618-.878.281-1.691.696-2.469 1.187-4.391 2.84-9.83 3.552-13.956 6.918-3.08 3.441-2.83 8.113-4.446 12.093-.532 1.43-1.062 2.874-1.298 4.388-.273 1.752-.064 3.423 1.633 4.422 1.74 1.022 3.229.265 4.578-.9a6.902 6.902 0 0 0 1.878-2.573c.579-1.758.896-3.67 2.271-5.016 3.865-3.781 7.465-7.803 10.908-11.96 2.151-2.594 4.82-3.197 7.895-2.26 5.191 1.58 10.706 1.339 15.903 2.92 1.8.548 3.619.052 5.444-.486 5.266-1.554 9.824-4.508 14.619-7.012-6.693-3.734-13.614-7.048-20.653-10.087v-.002Z" fill="#D91425"/><path d="M0 515.558c7.636-3.39 14.095-8.664 20.99-13.222 33.787-22.34 67.498-44.792 101.237-67.203 1.218.538 1.7 1.651 2.175 2.771 1.79 6.479 3.698 12.928 5.212 19.487.099 1.033.015 2.013-.83 2.758-10.895 6.932-22.192 13.175-33.419 19.541-13.117 7.437-26.061 15.182-39.117 22.728a16928.29 16928.29 0 0 1-53.21 30.599c-.917.526-2.02.728-3.038 1.081v-18.54Z" fill="#E7FB03"/><path d="M285 450.57c-4.171-1.988 32.925 16.236 28.729 14.271-5.719-2.842-11.05-6.442-17.055-8.724-1.9-.058-3.552-.761-5.173-1.737-16.072-9.668-32.954-17.823-49.475-26.656-8.03-4.292-16.354-8.316-22.753-15.405-4.918-5.45-10.024-10.854-15.941-15.357-2.084-1.585-3.75-3.65-4.95-6.03-.166-.258-.306-.54-.511-.763-10.601-11.503-22.114-22.109-32.922-33.407-.614-.642-1.387-1.322-2.316-.34-.579.968-.669 2.048-.673 3.131-.048 11.89-.038 23.779-.015 35.669.004 2.462 1.078 4.412 2.459 6.341 6.641 9.286 13.645 18.302 20.44 27.473 13.044 17.606 26.153 35.163 39.395 52.618 1.708 2.251 2.755 4.414 1.153 7.177-3.944 6.81-7.431 13.887-11.732 20.486-2.471 3.792-3.195 3.842-6.978 1.072-10.531-7.715-21.348-15.031-31.966-22.619 4.574 12.518 8.952 25.11 13.348 37.689.111.314.222.627.33.942a786.257 786.257 0 0 0 13.578 8.869c16.427 10.483 33.238 20.36 50.322 29.734 17.04 9.35 34.354 18.197 51.845 26.676.225.108.452.217.677.327v-9.102c0-1.543.136-3.103-.025-4.63-.246-2.351 1.387-2.309 2.893-2.515 9.503-.958 19.034-.424 28.543-.313 4.19.048 5.865-1.202 6.754-5.346 3.935-18.35 8.282-36.61 12.016-55.013 1.37-6.755 2.997-13.486 4.279-20.285 1.246-3.473 6.509-2.129 8.724-5.303 0 0 1.5-15.626 1.5-38 0-15.628-24.152 27.796-84.5-.93Zm-127.965 38.074c-31.8 17.976-63.589 35.978-95.373 53.984-7.427 4.207-14.819 8.476-22.227 12.717 1.51.294 2.698-.036 3.885-.365l107.097-29.766a1413.236 1413.236 0 0 1 6.618-36.568v-.002Z" fill="#F09E00"/><path d="M363.496 551.707c13.799 7.634 27.15 16.025 40.59 24.261 2.672-.002 5.341 0 8.013-.004 18.938-.019 37.877-.098 56.817-.15-.094-3.456-3.25-4.232-5.331-5.736-18.5-13.361-37.003-26.714-55.472-40.119-16.458-11.947-32.906-23.91-49.464-35.719-.44.602-1.208 1.174-1.271 1.816-1.13 11.568-4.763 22.611-7.016 33.941a756.976 756.976 0 0 1-2.807 13.419 342.215 342.215 0 0 1 15.939 8.293l.002-.002Z" fill="#FFB526"/><path d="M486.166 565.702c-26.962-19.057-53.808-38.281-80.69-57.451-11.639-8.301-23.627-16.12-34.757-25.13-3.078-.828-6.177-.538-9.277-.176-1.32 3.667-2.471 7.378-2.793 11.29.476 1.571 1.65 2.53 2.92 3.446 25.429 18.365 50.919 36.65 76.244 55.161 10.403 7.604 21.318 14.527 31.106 22.968 1.189.7 2.442 1.307 3.554 2.113 4.238 3.068 8.474 6.14 12.708 9.214.098-7.156.417-14.306.987-21.437l-.002.002Z" fill="#E7FB03"/><path d="M374.692 397.867a1414.59 1414.59 0 0 0-5.192 43.829c.706 13.319-8.93 20.304-19.5 30.416-8.295 7.936-23.5 15.388-23.5 15.388s.917-4.522 1.768-7.452c1.185-4.077.572-6.209-3.356-7.936-4.065-1.787-7.846-4.223-11.753-6.374 6.153-6.032 9.547-13.824 13.551-21.228 1.118-2.069.299-2.868-1.789-2.814-3.49.09-7.394-1.235-8.347 4.474-.58 3.475-4.201 3.083-6.946 2.659-3.278-.504-4.15-3.084-3.798-5.881.351-2.779.173-4.574-3.285-3.894-1.625-2.353.649-3.135 1.825-4.174 5.475-4.839 11.303-9.267 16.665-14.239 1.479-.907 2.814-1.994 3.965-3.302 2.388-2.628 5.415-4.515 7.986-6.935 2.676-2.519 5.235-2.54 8.034.128 3.419 3.253 3.546 3.12 6.537-.783.373-.488.732-.986 1.118-1.462 7.108-8.753 13.86-17.645 11.895-30.001 4.903-5.099 9.903-10.051 17.461-10.9-1.03 8.798-2.071 17.596-3.082 26.395-.157 1.354-.176 2.724-.259 4.086h.002Z" fill="#B18977"/><path d="M406.509 299.909c-2.148.595-3.881 1.266-3.433 4.239 2.218 14.675-6.092 26.68-10.311 39.72-.255.784-1.02 1.625-1.769 1.994-10.479 5.174-20.482 11.296-31.3 15.797-2.845-1.349-2.201-3.779-1.706-6.005 1.366-6.146 3.758-11.993 5.395-18.075 1.988-7.383 4.414-14.65 6.531-22.002 2.286-7.934 4.526-15.958 7.638-23.654 1.065-2.632 1.643-5.471-.972-7.106-5.311-3.318-5.019-7.402-2.545-12.139.177-.423.398-.828.636-1.22 1.556-1.958 2.088-4.326 2.618-6.695 2.294-5.821 4.603-11.636 7.763-17.067 2.742-2.801 4-.897 4.801 1.645 1.037 3.287.544 6.72.607 10.093.063 3.383-.058 6.77.058 10.153.046 1.341-.158 3.052 1.506 3.531 1.807.52 2.872-.949 3.598-2.269 2.075-3.773 4.259-7.483 6.324-11.263 1.381-2.528 2.271-6.999 6.028-5.556 3.543 1.362.657 5.12.594 7.832-3.462 10.435-4.661 21.145-4.178 32.105.103 2.301 1.189 4.04 2.113 5.938l.004.004Z" fill="#FAC94A"/><path d="M375.26 271.752c-.121.599-.117 1.26-.382 1.784-2.153 4.254-2.276 7.758 2.69 10.349 2.653 1.385 3.246 4.403 1.911 6.887-3.792 7.052-5.456 14.923-7.511 22.396-2.857 10.398-6.782 20.499-8.956 31.121-.834 4.078-3.001 7.97-4.05 12.135-.478 1.9-.545 3.635.736 5.237l-2.803 2.184c-1.375 1.727-3.118 2.745-5.365 2.809a1.731 1.731 0 0 1-.963-1.009c-1.053-13.328-.409-26.683-.672-40.023-.05-2.59 1.368-6.163-1.844-7.465-3.42-1.389-7.256-1.122-10.647.935-1.189.719-2.221 1.643-3.195 2.63-5.077 5.141-4.946 6.768.819 11.029 1.844 1.362 3.838 2.622 4.399 5.104-.38 1.67-1.714 1.368-2.463.761-3.888-3.149-8.95-4.958-11.388-9.79a3.862 3.862 0 0 1-.109-1.391c.641-2.549 2.916-4.024 4.09-6.228 1.884-2.232 3.92-4.301 6.326-5.98 1.679-1.172 3.5-2.15 5.571-1.564 4.75 1.341 7.707-.297 9.084-5.002.212-.726.73-1.341 1.28-1.883 1.031-1.01 3.319-.555 3.385-2.578.063-1.921-1.823-2.203-3.099-2.916-1.062-.595-2.144-1.149-3.191-1.779-1.85-1.183-4.426-1.658-4.482-4.589 1.992-6.013 1.476-7.9-3.281-11.88-2.57-2.148-4.801-4.662-7.381-6.804-1.07-.888-1.976-1.975-1.175-3.558 2.098-1.858 4.676-2.282 7.252-1.902 3.926.58 7.865.517 11.795.732 6.195 1.95 7.803 3.861 8.222 9.878.152 2.175.073 4.436 3.049 4.793 2.735.325 4.783-.58 5.947-3.199.876-1.969 1.061-4.176 1.993-6.091 1.002-2.054 1.189-4.941 4.408-5.133Z" fill="#E1D7A7"/><path d="m408.683 101.285 1.838 1.908c1.001 2.703.154 5.463.05 8.158-.111 2.82-1.938 5.062-4.912 5.291-3.183.246-5.661-1.489-7.012-4.357-.979-2.075-1.519-4.359-2.539-6.585-.369 4.731.728 9.165 1.738 13.612.438 1.933 1.566 3.427 3.36 4.165 3.81 1.568 6.908 4.307 11.117 5.431 6.561 1.752 9.951 7.127 7.886 13.833-4.318 14.03-1.638 28.47-3.673 42.579-.605 4.195 1.668 8.11 1.681 12.296.002.913.281 1.821-.148 2.705-.457 2.111.684 4.457-.947 6.393-.849-.733-1.212-1.7-1.348-2.777-.054-.456.069-1.076-.191-1.351-5.88-6.255-3.383-13.914-3.258-21.03.073-4.126.776-8.293.544-12.446-.49-8.812 1.041-17.528 1.037-26.321-.002-4.779-1.723-8.012-6.147-9.766-3.122-1.239-5.421-4.211-9.083-4.305-1.4-.187-2.336-1.001-2.987-2.2-2.336-8.332-3.387-16.919-4.791-25.431-.429-2.612-1.324-4.714-3.589-6.13-5.855-4.146-11.849-8.084-17.91-11.93-5.263-4.113-11.322-5.907-17.873-6.856-25.147-3.644-50.182-8.016-75.265-12.076-3.664-.595-7.41.023-11.006-1.05-5.34-6.434-11.868-5.831-19.205-4.069-7.617 1.83-15.274 3.752-23.104 4.654-1.666.191-3.331.79-5.012.066-2.244-1.96-3.362-4.76-4.394-7.316-2.007-4.979 1.597-8.135 4.799-11.205 2.62.155 4.094 1.487 4.261 4.157-1.012 1.372-2.505 2.255-3.629 3.531-.993 1.129-1.61 2.271-.768 3.74.812 1.412 1.836 2.473 3.671 2.238 10.84-1.4 21.418-4.082 32.049-6.5 1.917-.435 3.035-2.016 4.138-3.522 1.371-1.412 2.787-2.695 4.971-1.696.314.35.483.768.521 1.24.83 10.31 1.016 10.882 11.09 10.718 5.287-.086 9.771 2.204 14.683 2.949 8.063 1.222 16.3 1.437 24.184 3.666 7.018 1.984 14.35 1.746 21.385 3.481 2.776.685 5.466.916 7.448-1.962.861-1.252 2.411-1.383 3.792-.753 1.272.58 1.806 1.562 1.145 3.016-.983 2.157.94 1.758 1.939 2.044 4.339 1.237 8.938.194 13.447 1.32-3.944-2.482-7.404-5.525-11.069-8.301-3.058-2.317-6.288-2.253-9.463-.127-1.57 1.051-3.231 1.725-5.162 1.798-5.464.204-7.39-2.63-5.106-7.597.778-1.691 1.988-3.122 2.864-4.75.801-1.49 1.621-2.975 2.44-5.007-4.317 1.83-5.921 7.303-11.565 6.867 1.258 1.798 3.293 3.239 1.408 5.222-1.788 1.88-3.352.503-4.885-.542-.638-.436-1.285-.847-1.979-1.189-6.923-3.404-7.113-4.28-2.238-10.216-.526.326.248-.26.031-.137-7.096 4.027-8.95-.034-9.546-6.105.561-.465 1.201-.557 1.894-.407 2.603 2.928 5.318 2.883 8.315.509 1.683-1.333 3.642-2.298 5.584-3.229 1.147-.548 2.448-.744 3.479.184 1.172 1.055.454 2.321-.046 3.395-1.494 3.219-4.199 5.644-6.155 9.123 10.212-6.048 20.071-11.838 29.759-17.912 1.593-.999 3.233-2 5.12-1.867 6.445.455 12.742 1.609 18.565 4.629 1.546 5.9 6.77 7.517 11.417 9.8 2.211 1.085 4.614 1.74 6.727 3.05 2.628 1.629 2.776 3.919 1.627 6.422-1.283 2.792-3.479 1.97-5.511 1.076a107.11 107.11 0 0 1-9.509-4.739c-3.02-1.704-6.015-2.054-9.312-1.007-2.639.838-5.361 1.42-8.112 1.81-1.201.171-2.788.647-3.372-.628-.732-1.597.984-2.323 1.998-3.122 2.29-1.806 4.935-3.124 8.103-5.823-7.73.1-14.494-.194-21.268.24-1.911.123-2.743 1.8-3.688 3.212-2.148 3.212-3.422 6.903-5.558 10.115-.551 1.035-1.594 1.83-1.564 3.242 1.622.258 2.845-.872 4.277-1.177 5.29-2.743 9.657-1.48 14.336 2.098 8.048 6.157 16.272 12.14 24.801 17.629 6.922 4.455 11.961 10.39 15.928 17.499 2.678 4.797 5.427 9.584 8.783 14.343 2.409-3.099 1.387-7.145 3.661-9.926l.008-.012Z" fill="#9E3E11"/><path d="M406.51 299.91c-1.631-.282-3.389-.161-3.435-2.712-.211-12.135-.207-24.225 4.624-35.703 2.205-3.047.64-6.816 1.913-10.043a3.94 3.94 0 0 1 1.028-.932c6.689-1.158 8.038-.494 10.084 4.91 2.833-1.058 3.767-3.579 4.124-6.082.429-3.002 1.053-6.005 1.047-9.075.379-6.647 1.214-13.238 2.194-19.814.605-1.55 1.474-2.19 2.914-.837 1.055.726 1.049 1.867.976 2.916-.853 12.08.263 24.495-4.843 35.918-3.467 7.753-3.396 16.148-5.319 24.167-1.416 5.903-4.49 10.229-9.667 13.267-1.982 1.164-3.765 2.668-5.64 4.018v.002Z" fill="#C9EAF6"/><path d="M418.068 200.319c-5.07-15.19-1.477-30.785-1.479-46.138 0-4.491 1.823-9.999 3.302-14.915.346-1.151 1.429-2.91.296-3.389-3.602-1.525-5.894-5.332-9.876-5.868-4.18-.563-13.029-7.783-14.064-11.811-1.272-4.954-1.854-9.945-1.31-15.355 2.516 1.992 3.978 4.557 4.332 7.379.497 3.94 3.404 5.517 6.253 5.477 3.045-.041 4.182-2.976 4.14-6.157-.027-2.112.549-4.234.856-6.351 1.86 2.399.262 5.98 2.79 8.147.605.031 1.212.065 1.817.098-.136 2.818.257 5.271 2.275 7.663 2.535 3.008 1.433 7.473 3.348 10.881 1.798 11.465 2.809 22.981 2.799 34.604-.004 5.244-.822 10.316-1.844 15.399l-3.635 20.334v.002Z" fill="#A53B0D"/><path d="M351.945 366.25c1.65-.801 3.298-1.604 4.947-2.405 2.887-5.129 27.682-14.965 35.124-18.87 1.741-.913.169 2.205-1.583 5.444-1.131 3.548-8.068 14.492-12.398 16.965-6.246 2.731-11.865 6.395-16.708 11.217-2.91 2.589-6.134 2.393-9.49 1.079-2.829-4.278-2.785-9.588.108-13.43Z" fill="#E10451"/><path d="M431.002 219.624c-.675.142-1.528-.763-2.041.344-9.215.34-10.738 8.996-15.418 14.244-1.231 1.38-2.027 4.327-4.716 1.616-.586-5.94.597-11.809.709-17.726.059-3.137 3.068-3.832 5.578-4.604 2.431-.223 4.891-.279 7.264-.978 5.544-.876 6.309 4.055 8.622 7.104h.002Z" fill="#CFBD8C"/><path d="M415.95 214.131c-4.683 1.07-5.869 4.09-5.607 8.653.253 4.422-.419 8.896-.684 13.347 2.484 4.054.549 8.682 1.677 12.914.004.862-.361 1.613-.713 2.37l-.186.173c-2.89.484-2.598-1.808-3.018-3.469-1.103-4.39-.417-8.864-.202-13.24.398-8.088-1.085-16.17.127-24.236.042-.799-.008-1.597.006-2.398.368-5.162-.567-10.375.578-15.506a1.678 1.678 0 0 1 1.25-.936c.88.288 1.178 1.026 1.409 1.815.28 1.257.249 2.54.247 3.816.029.939 0 1.882 0 2.818.177 3.748-.582 7.565.477 11.321 2.841-.546 1.765-4.53 4.701-4.609l.184 5.669c.409.58.419 1.093-.246 1.498Z" fill="#221D48"/><path d="M416.01 206.964c-1.352 1.404-1.233 3.429-2.109 5.016-.711 1.287-2.01 2.14-3.42 1.838-1.375-.297-.87-1.786-.88-2.783-.034-3.545.027-7.091.052-10.637 1.013-1.81 2.223-1.147 3.356-.198 1.383 1.16 3.062 2.04 3.821 3.827l.288 2.685c-.37.083-.741.166-1.11.252h.002Z" fill="#231A79"/><path d="M415.95 214.13c.082-.5.163-1.001.246-1.499a6274.5 6274.5 0 0 0 6.189-.111c-1.986 1.183-4.118 1.765-6.433 1.61h-.002Z" fill="#A53B0D"/><path d="m130.698 170.723-1.054-2.816a11.354 11.354 0 0 1-.774-5.116c1.004-3.767 4.566-4.856 7.3-6.66 3.849-2.541 6.001-5.279 4.683-10.299-.845-3.219-.897-6.718-1.364-10.062-.599-4.278.696-7.383 3.66-10.349 5.456-5.456 9.914-11.812 15.238-17.399 1.016-1.068 2.115-2.987 3.671-1.854 1.502 1.095.215 2.857-.561 4.127-2.663 4.351-4.511 9.134-7.25 13.443-3.243 5.101-1.848 10.816-1.889 16.283-.025 3.372.29 6.755.156 10.218.351-16.623 8.837-29.786 17.914-42.695.457-.648 1.087-1.082 1.911-1.168 2.688 1.104 1.17 3.129 1.074 4.843-2.044 4.968-4.042 9.962-6.207 14.886-.62 1.41-1.293 2.805-1.521 4.338-.212 1.431-.148 3.025 1.49 3.444 1.626.417 1.891-1.241 2.3-2.324a100.759 100.759 0 0 0 2.476-7.437c.43-1.471.728-3.025 2.257-3.861 2.778-.584 4.267 1.848 6.422 2.732 2.027 1.2 3.222 2.949 3.022 5.329-.538 6.422-1.508 13.111-7.14 16.936-9.677 6.574-10.555 15.399-8.92 25.792 1.143 7.273 1.787 14.692 1.462 22.119-1.356 11.144-2.672 22.294-4.872 33.313-.614 1.331-.712 3.398-2.512 3.435-1.714.036-2.171-1.933-2.932-3.222-4.067-6.875-7.505-14.089-11.321-21.091-1.266-1.796-3.119-1.341-4.923-1.437-3.207-.171-6.707.048-8.322-3.756-2.359-7.836-2.763-15.866-2.528-23.984.057-1.908.553-4.011-.951-5.711l.005.003Z" fill="#15126B"/><path d="M155.64 285.57c-8.47-.874-15.693-5.222-23.435-8.188-6.345-2.43-9.117-6.981-10.52-13.017.383-.255.771-.503 1.132-.789 3.85-3.056 7.878-3.07 12.083-.041 3.308 2.367 7.179 2.056 10.612 1.022 3.022-.912.542-3.675.625-5.607 1.198-1.764 1.73-3.858 2.791-5.69 2.157.378 3.538 3.158 6.197 2.011.323.54.709 1.249.423 1.727-2.855 4.762-.077 8.704 1.677 12.863 1.642 3.898 4.023 7.59 3.834 12.084-1.321 1.934-2.62 3.901-5.417 3.625h-.002Z" fill="#B7A65A"/><path d="M146.492 258.804c2.23 1.637 2.219 4.011 1.523 6.197-.693 2.175-2.889 1.045-4.434 1.239-4.973.621-9.386-.209-12.498-4.724-1.604-2.326-3.168-1.623-4.724.344-1.141 1.441-2.153 3.5-4.678 2.505-3.665-10.229-7.582-20.378-10.892-30.721-1.664-5.201-.72-10.614 1.395-15.707 2.036-.006 2.526 1.685 3.342 3.026.141.442.214.897.235 1.358-1.357 4.484-.759 8.877.887 13.125 2.15 5.555 2.329 11.772 5.752 17.46 1.929-2.363.645-4.426.367-6.345-.377-2.601-1.65-4.985-2.119-7.569-.331-1.823-.676-3.95 1.648-4.707 2.159-.703 4.011.317 5.108 2.221 1.539 2.672 2.736 5.529 3.963 8.361.734 1.698 1.387 3.434 2.079 5.152 1.512 3.763 4.268 5.064 8.27 3.903 3.884-1.129 5.239.258 4.778 4.882h-.002Z" fill="#E8E460"/><path d="M114.781 221.045c-.865-1.035-1.731-2.071-2.594-3.108.483-5.498 2.646-10.606 3.712-15.966.421-2.123 1.871-2.549 3.723-2.516 4.868.09 9.77-.35 14.556.96 3.266 2.019 6.608 3.689 10.592 2.134 2.434-.952 2.64 1.241 3.526 2.477 1.408 5.288.795 10.971 3.417 16.065.903 1.754.033 3.616-2.038 4.509-2.204.949-4.221.765-5.907-1.035-2.321-2.477-4.359-5.214-5.998-8.159-2.689-4.826-6.906-7.158-12.031-8.493-3.278-.855-5.208-.119-6.319 3.291-1.122 3.442-1.775 7.188-4.637 9.841h-.002Z" fill="#BE9D0F"/><path d="m155.64 285.57 4.699-3.635c1.216-.161 1.99.248 2.042 1.585-4.194 3.585-3.846 8.047-3.051 12.977 1.245 7.734 2.012 15.549 3.132 23.31.144 1.001-.146 2.47 1.25 2.63 1.439.167 2.071-1.074 2.421-2.332.334-1.201.299-2.438.299-3.666.01-9.999-.094-19.998.06-29.993.052-3.385-.765-5.988-3.9-7.579-.543-1.971-1.222-3.994 1.779-4.589 3.658.809 5.619 3.07 5.661 6.835.152 13.584.131 27.171.006 40.755-.011 1.241-.232 2.461-.899 3.548-4.122 1.802-4.927 5.12-4.708 9.285.276 5.177.1 10.381.044 15.574-.019 1.675 5.707 5.757 4.664 7.225-6.473 2.669-6.885.378-8.139-13.5-1.491-16.5-2.657-33.831-4.805-49.693-.394-2.918-.634-5.806-.555-8.737Z" fill="#D49C32"/><path d="M408.684 101.285c-.203 1.527-.33 3.066-.622 4.576-.523 2.701-1.147 5.383-1.975 9.213-1.913-2.933-3.544-4.864-4.557-7.081-6.96-15.21-17.938-26.593-32.277-35.042-4.897-2.885-9.531-6.316-13.911-9.95-4.403-3.653-8.785-5.272-14.114-2.362-2.508.609-4.199.129-3.934-2.954 4.743-9.76 12.541-14.619 23.393-14.577 3.458.013 6.916 0 10.541.918l-12.814 8.962c1.841-.267 2.619-.219 3.258-.496 9.971-4.334 19.011-2.1 27.729 3.587 1.035.674 2.995 3.329 4.374.357 1.03-2.221 1.525-4.58-1.956-5.844-3.738-1.356-7.154-3.596-10.888-4.973-4.019-1.483-6.426-3.892-6.647-8.255 1.545-1.418 3.252-.26 4.885-.321 3.045.624 6.034 1.483 9.073 2.132 1.791.655 3.658.552 5.514.527 7.594-.3 14.688-2.955 21.99-4.638 1.639-.378 3.216-1.06 4.96-1.041 1.658.016 2.696.907 1.531 2.173-4.045 4.395-7.257 10.218-14.959 9.68 2.546.536 4.845.67 6.751 2.036.762 2.974-1.979 1.923-3.066 2.717 4.489 2.084 9.691 2.445 13.441 6.032 4.492 6.174 6.693 13.436 9.062 20.503.803 2.394-.943 5.598-3.427 7.519-2.365-.224-1.67-2.153-1.887-3.5-1.001-6.253-.981-6.257-7.184-7.473-10.122-1.984-10.845-1.262-8.445 8.822.459 1.928.315 3.552-1.629 4.18-2.056.663-4.302 2.171-6.369-.184-.92-1.049-1.066-2.571-2.989-4.156-.918 4.934 3.4 7.798 3.306 11.675 1.28 2.414 2.563 4.827 3.844 7.24l-.002-.002Z" fill="#C9EAF6"/><path d="M263.115 47.094c-1.775.259-3.168 1.287-4.578 2.28-3.707.68-6.355-1.665-9.046-3.469-1.656-1.11-.843-3.084-.173-4.68 1.299-3.097 3.237-5.93 4.046-9.682-2.054.553-2.774 2.102-3.589 3.408-2.286 3.658-4.641 7.277-6.85 10.983-.79 1.325-1.566 2.668-2.665 3.763-1.321 1.314-2.904 1.835-4.626.94-2.028-1.053-1.408-2.752-.931-4.438 3.617-12.762 10.076-23.357 22.566-29.385-5.753 3.295-11.338 6.714-17.193 9.64-3.477 1.737-5.859 4.207-7.202 7.967-1.708 4.779-3.441 9.595-6.069 13.977-1.004 1.674-2.249 3.9-4.374.9-.874-1.555-2.063-2.792-3.654-3.626-1.508-1.784-.079-3.173.699-4.566 1.879-3.36 4.052-6.553 5.687-10.053.194-.392.428-.763.674-1.126.843-1.387 2.23-2.482 2.376-4.618-4.466.325-8.781.963-12.946 2.24-3.373 1.034-3.025 4.614-4.239 7.116-2.751 5.534-4.594 11.457-7.385 16.978-1.089 2.152-2.359 3.76-4.987 2.837-2.734-.962-4.578-2.743-3.788-5.947 1.185-4.797 3.102-9.37 4.631-14.558-5.398 4.161-9.175 9.09-12.154 14.719-2.311 4.367-4.776 8.647-8.12 12.347-1.41 1.152-2.961 1.538-4.707.872-.982-.498-1.197-1.445-1.389-2.405 1.783-8.839 5.711-16.275 12.842-22.181 5.178-4.288 9.513-9.582 14.437-14.198 2.826-2.649 6.789-2.77 10.387-3.36 3.218-.527 6.309-1.197 9.137-2.863 9.436-1.77 19.391-1.888 27.263-8.6 1.589-1.356 3.493-2.044 5.498-2.209 20.892-1.712 41.789-3.366 62.688-5.024.45-.036.915.102 1.372.158-.64 3.438-3.808 3.55-6.186 4.451-3.84 1.454-7.938 2.153-11.791 3.617-5.485 2.082-11.058 3.931-16.66 5.669-3.246 1.005-5.888 2.632-7.697 5.53a59.547 59.547 0 0 0-4.863 6.469c-.209.371-.447.722-.695 1.066-2.415 3.366-4.956 6.639-7.678 10.334 4.873-2.381 7.968-6.955 13.201-7.883.657.294 1.139.77 1.468 1.405 1.79 7.156 1.838 7.238-4.398 10.86-2.701 1.57-4.891 4.187-8.335 4.337l-.004.008Z" fill="#F7BB2E"/><path d="M263.115 47.094c2.241-1.541 4.297-3.548 6.76-4.526 5.219-2.073 7.06-5.408 5.281-10.73-.413-.852.011-1.484.593-2.016 6.311-5.765 13.742-8.97 22.246-9.725 1.502 1.43.115 2.434-.615 3.404-.983 1.307-2.199 2.44-3.039 3.864-2.049 2.522-4.401 4.77-6.76 6.985-4.931 4.63-6.674 10.444-6.898 17.328 6.483-3.587 11.851-8.223 17.729-12.099 1.308-.863 2.436-2.62 4.443-1.418-.199.576-.486 1.139-.576 1.731-.313 2.086-2.626 4.655.254 6.122 2.743 1.395 3.759-1.613 5.15-3.273.338-.248.638-.208.899.12 2.663 7.766 4.29 8.35 10.262 3.739.565-.438 1.234-.972 2.396-.325-.943 2.89-4.098 4.213-5.21 7.024-.524 1.327-1.06 2.357.392 3.083 2.832 1.414 6.061 1.981 8.372 4.507.695.76 1.725-.232 2.052-1.155.372-1.045-.066-1.773-1.203-2.024-1.114-.246-2.922-.04-2.409-1.864.392-1.398 1.712-2.067 3.368-1.293 1.588.74 2.597-.39 3.592-1.379 1.531-1.525 3.026-3.089 4.597-4.572 1.178-1.112 2.419-3.078 4.205-1.437 1.654 1.523-.866 2.157-1.3 3.287-1.045 2.73-2.64 5.146-4.198 7.609-1.162 1.835-3.164 4.267-.741 6.182 2.094 1.656 5.05 1.395 7.436.073 7.569-4.192 9.855-3.76 15.964 2.688 1.41 1.49 3.617 2.24 5.485 3.277 1.752.972 3.436 1.981 4.337 4.939-6.881-2.244-13.614-1.546-20.115-2.903-1.272-.265-3.154-1.141-.588-2.601.88-.5 2.426-.697 1.17-2.159-.772-.899-2.476-1.04-2.901-.186-3.584 7.188-9.09 2.426-13.589 2.057-14.314-1.174-28.345-4.561-42.515-6.77-6.858-1.07-13.874-1.54-20.688-2.968-2.057-.432-4.33-1.667-3.738-4.858.47-2.534-2.246-5.168.09-7.74l.01.002Z" fill="#A53B0D"/><path d="M349.395 1.348c-10.863-1.04-21.727-2.373-32.642-.106-2.2 1.985-5.039 2.592-7.681 3.681-3.465 1.429-7.511 1.216-10.544 3.8-1.925 2.976-.419 4.178 2.43 4.436 1.984.18 3.913-.494 5.853-.865 3.744-.719 6.031.627 6.86 4.038 1.366 1.554 3.164 1.003 4.693.661 6.649-1.491 13.434-2.44 19.876-4.789 9.357-2.38 18.987-3.727 28.389-5.934-5.613-2.09-11.342-3.858-17.234-4.922Z" fill="#C9EAF6"/><path d="M302.856 38.161c-6.182 4.234-12.364 8.472-18.55 12.702-1.481 1.014-2.755 2.405-4.739 2.753-1.333-12.13 5.928-19.601 13.945-26.678.461-.413.019.233.369-.26 6.164-8.657 15.528-9.197 24.85-9.793 1.553-.1 3.533-.676 3.877 1.89l-1.796.988c-5.004 1.387-9.721 3.404-14.031 6.332-2.331 3.688-2.313 8.143-3.927 12.066h.002Z" fill="#F09307"/><path d="M363.913 19.364a23.22 23.22 0 0 0-.205-.246c-.269.159-.54.315-.813.466-7.331 4.06-14.379 8.426-23.575 4.97-3.089-1.162-6.891-1.089-10.337-1.909-2.363-.56-4.864-.705-6.847 1.494-4.224 4.682-8.589 9.24-12.821 13.918-1.153 1.274-1.779 2.882-1.629 4.686.298.046.599.086.899.12l1.644-.036c1.422-.726 1.445-2.522 2.615-3.438.271-.335.526-.686.747-1.057 2.142-3.631 5.381-6.303 8.155-9.388 2.503-2.78 5.102-3.873 8.962-2.918 4.608 1.141 9.409 1.49 14.037 2.687 2.941.759 5.855.567 8.51-.976 2.799-1.625 5.75-2.945 8.593-4.483 1.51-.817 2.703-1.501 3.677-2.048a40.528 40.528 0 0 1-1.614-1.837l.002-.005Z" fill="#B62637"/><path d="M404.839 94.048c-1.45-2.516-2.816-5.085-4.37-7.534-1.898-2.99-.865-4.8 2.259-6.157.615 1.316 1.264 2.53 1.76 3.804.858 2.197 1.636 3.828 4.639 2.357 2.419-1.184 4.04-2.113 2.43-5.037-.511-.928-.707-2.03-1.045-3.051-1.441-4.36 1.56-7.774 6.201-6.796 3.153.666 6.194 1.85 9.317 2.685 1.606.43 1.981 1.437 2.375 2.934.651 2.462.025 5.2 1.631 7.43-.436.6-.974 1.545-1.706.799-.576-.59-.68-1.68-.905-2.57-2.096-8.32-2.53-8.658-10.948-9.455-2.292-.216-3.569.772-3.95 2.866-.332 1.81-.259 3.64.298 5.467 1.181 3.875.838 6.639-4.365 6.57-3.757-.05-3.559 3.05-3.619 5.688h-.002Z" fill="#B52A3B"/><path d="M322.609 18.776c-2.507-1.816-5.277-1-7.938-.665-3.014.382-5.978 1.166-8.993 1.54-3.784.466-6.281 2.974-8.838 5.33-1.017.939-1.662 2.22-3.326 1.959.824-2.718 3.812-3.844 4.755-6.474.376-2.234 2.522-1.813 3.867-2.599 3.9-.897 7.673-2.607 11.83-1.917 6.768.084 13.069-2.68 19.731-3.245 1.518-.13 3.028-.332 4.543-.5a61.154 61.154 0 0 1-15.633 6.571h.002Z" fill="#E28935"/><path d="M424.401 56.66c-5.606-1.934-11.361-3.486-16.569-6.45 2.357-.924 4.995-.863 7.21-.407 4.829.993 9.059-.072 13.261-2.118 1.175-.232 2.299-1.254 3.552-.226-.575 1.122-1.351 2.288-2.551 2.51-3.835.709-4.686 3.426-4.905 6.69h.002Z" fill="#B82837"/><path d="M306.783 26.095c4.053-3.493 8.335-6.476 14.029-6.332-4.391 2.745-9.373 4.175-14.029 6.332Z" fill="#E28935"/><path d="M431.855 47.461c-.955.273-1.909.547-2.864.822-.553-.403-1.458-.092-1.812-.895.104-.254.221-.502.354-.744 2.609-.636 5.219-1.275 8.199-2.003-.972 1.825-2.778 1.842-3.875 2.82h-.002Z" fill="#FB737A"/><path d="M127.794 153.076c.008-2.731 1.848-4.848 2.465-7.376.255-1.038.872-2.187.04-3.066-1.018-1.072-1.817.822-3.001.459-.042-4.384 1.868-8.612 1.359-13.069l.929-2.058c-.785-8.147 4.348-13.303 9.352-18.526 3.623-5.047 4.714-11.248 7.559-16.65.544-.94 1.086-1.881 1.628-2.82.182.15.363.303.547.45.847 1.528.284 2.96-.238 4.433-2.924 8.259-6.023 16.421-11.525 23.414-3.34 4.247-4.264 9.486-5.734 14.485-.346 1.177-.62 2.852.3 3.548 5.096 3.867 1.427 8.151.534 12.11-.432 1.919-1.241 4.557-4.219 4.666h.004Z" fill="#86A38A"/><path d="m279.669 428 61.77 23.249L326.5 487.5s-20 9-49.5 8-46-3-46-3l48.669-64.5Z" fill="#B18977"/><path d="M198 404.673c0-13.83 12.609-24.229 26.186-21.598l77.155 14.952c13.401 2.597 21.227 16.646 16.382 29.407l-20.495 53.98a22 22 0 0 1-21.838 14.154l-40.01-2.315a21.986 21.986 0 0 1-8.328-2.167l-16.65-8.073A22 22 0 0 1 198 463.217v-58.544Z" fill="#141974"/><path d="M173.127 59.519c.893.319 1.06 1.032 1.014 1.862.878 1.971-.459 3.26-1.567 4.451-7.442 8.001-15.805 15.122-22.601 23.742-.392.498-.974.724-1.641.567l-.206-.169c-.297-3.007 1.055-5.153 3.197-7.193 5.177-4.931 10.114-10.112 15.23-15.11 2.526-2.465 4.891-5.022 6.572-8.15h.002Z" fill="#86A38A"/><path d="m163.194 356.336-.169-1.132c.038-8.151.267-16.308.032-24.453-.119-4.107 1.33-5.717 5.327-5.112 1.889.684 2.154 2.601 3.068 4.029.31.589.573 1.195.786 1.825 1.103 5.342 4.528 9.638 6.572 14.559 1.587 4.551 4.647 7.185 9.407 8.474 4.169 1.128 8.453 2.38 11.909 5.314.876 9.918.878 19.827.017 29.743-.501 1.172-1.248 1.975-2.666 1.752-9.753-9.876-19.514-19.748-29.254-29.636-1.719-1.746-3.354-3.571-5.029-5.361v-.002Z" fill="#712D8A"/><path d="M302.117 438.578c.703-.24 1.479-.363 2.095-.747.926-.575 1.906-1.476 2.832-.509.515.541.536 1.721.48 2.595-.067 1.053-.634 2.079-.664 3.126-.071 2.399.105 4.814 3.402 4.86 2.739.038 6.013.567 5.669-3.827-.263-3.364 1.608-3.64 4.251-3.679 9.959-.148 10.124-.125 5.836 8.376-2.545 5.045-5.719 9.771-8.591 14.654-.968 1.646-2.539 2.107-4.266 2.311-5.471-2.868-10.943-5.738-16.416-8.606-1.212-.913-1.375-2.252-1.485-3.616-.044-2.566-.253-5.16.146-7.686.602-3.827 2.354-6.801 6.711-7.25v-.002Z" fill="#F8BB30"/><path d="M296.557 453.535c-1.46 1.839-2.922.799-4.392.01-11.094-5.936-22.194-11.859-33.284-17.801-10.199-5.467-20.402-10.932-30.576-16.446-3.027-1.64-5.144-4.343-7.499-6.766-7.202-7.415-14.443-14.79-21.672-22.18.037-10.401.075-20.803.115-31.204 2.93-1.287 5.531.836 8.342.79 5.286 1.59 10.736 2.72 15.614 5.48 5.377 3.533 11.957 3.777 17.66 6.48 3.166 1.499 6.238 2.686 6.125 7.012-.05 1.938 1.7 2.396 3.177 2.801 9.475 2.595 18.851 5.527 28.382 7.974 6.157 1.581 12.471 3.133 18.461 5.516 5.978 1.863 12.032 3.454 18.066 5.096 4.043 1.101 8.195 2.407 9.032 6.787.915 4.784 2.235 10.122-2.399 14.174-6.53 5.774-13.061 11.547-19.591 17.318-7.152 3.014-4.997 9.492-5.561 14.957v.002Z" fill="#141974"/><path d="M352.014 379.212c3.148.424 6.237-.008 9.315-.613.034 3.855-.012 7.709.134 11.557.069 1.813-.442 3.302-1.487 4.712-4.399 5.93-8.861 11.813-13.124 17.839-1.708 2.415-2.801 2.96-5.106.45-4.478-4.876-4.621-4.701-9.602-.452-2.219 1.894-4.537 3.669-6.81 5.498-1.806-2.161-.897-4.729-.941-7.1-.133-7.208-.586-8.435-7.387-10.139-5.911-1.48-11.634-3.796-17.775-4.348-2.884-1.892-6.2-2.572-9.463-3.421-12.877-3.356-25.61-7.229-38.416-10.841-4.547-1.283-5.225-4.36-2.32-8.266 19.297 1.908 38.705 1.316 58.025 2.636 4.77.326 9.552.336 14.312.142 8.8-.357 17.499 1.277 26.282 1.037 1.585-.044 3.022.498 4.366 1.312l-.003-.003Z" fill="#56302F"/><path d="M163.499 354.5S194.5 332 204 359c9.5 27-5.001 93.5-5.001 93.5l-36-28.5s-.5-18-1-44c-.184-9.574-.268-17.264.001-21 .462-6.409 1.499-4.5 1.499-4.5Z" fill="#712D8A"/><path d="M299.34 395.973c7.723.818 15.104 3.123 22.496 5.325 2.461.732 3.575 2.618 3.477 5.34-.138 3.85 0 7.71.021 11.567-.828 1.47-2.05 2.471-3.625 3.055 2.855-4.357 2.084-9.319 1.412-13.851-.555-3.737-4.361-5.16-8.04-5.838-5.822-1.072-11.24-3.712-17.149-4.492-.515-.069-.955-.707-1.431-1.081.941-.755 1.888-.605 2.839-.025Z" fill="#39274F"/><path d="M123.376 437.585c1.838-6.666 21.458-22.419 26.624-27.585 20.5-20.5 3.486-24.939 48.708 35.536 8.991 12.024 18.035 24.011 27.037 36.026 1.825 2.437 2.797 4.583.698 7.836-4.463 6.929-8.257 14.29-12.355 21.456-1.784 3.116-3.306 4.163-7.042 1.425-15.93-11.687-32.46-22.563-48.296-34.373-8.727-6.507-17.802-12.51-26.441-19.117-1.053-.806-1.539-2.457-2.647-3.06-1.487-.807-.444 1.055-1.005 1.403-2.207-6.396-3.984-12.908-5.281-19.549v.002Z" fill="#FFE603"/><path d="M375.26 271.752c-2.914 2.587-3.675 6.224-4.491 9.736-.515 2.213-1.364 4.368-3.095 5.444-2.249 1.4-5.164 1.154-7.58.213-2.133-.83-1.568-3.268-1.316-4.96.803-5.389-2.315-7.813-6.63-9.509-6.145-1.985-10.385-6.999-15.891-10.019-1.788-.983-1.971-3.006-1.917-4.927.046-2.87 2.046-4.91 3.106-7.352 3.7-7.411 3.043-14.859.408-22.411-1.777-5.091-2.915-10.381-4.079-15.637-1.014-4.588.988-6.488 5.66-6.584 7.768-.161 15.597.788 23.26-1.64 3.262-1.034 6.649 1.081 10.053.559.511-.025 1.02-.041 1.531-.066 4.318-.676 8.389-2.624 12.867-2.499 3.295.601 4.094 3.231 4.151 5.873.219 10.308.83 20.622-.755 30.911-.603 3.91-3.49 6.386-5.006 9.684-2.501 5.566-5.002 11.131-7.502 16.698-1.327 1.981-1.356 4.515-2.758 6.463l-.016.023Z" fill="#FEFEFE"/><path d="M385.535 248.568c.682-4.816 4.063-8.658 4.261-13.827.355-9.26.217-18.502.075-27.75-.029-1.892-.604-4.115-3.428-3.99.089-1.616 1.389-1.535 2.467-1.771 8.393-1.378 13.743 3.74 19.053 8.944.111 12.483.179 24.964.382 37.444.025 1.49-1.277 4.082 2.09 3.968-1.8 3.059.594 7.277-2.737 9.911.031-.768.04-1.537.096-2.301.121-1.643 2.136-3.963-.386-4.695-1.89-.55-2.638 2.19-3.464 3.696-2.345 4.274-4.426 8.691-6.7 13.005-.488.926-1.316 1.685-2.048 2.467-1.072 1.147-2.171 2.175-3.994 1.41-1.739-.732-1.992-2.071-1.979-3.733.042-5.997-.017-11.993 0-17.988.004-1.549-.25-3.005-.666-4.513-.861-3.127-1.945-1.066-3.024-.273l.002-.004Z" fill="#E1D6A7"/><path d="M375.274 271.73c.388-2.382.48-4.892 2.76-6.464-.273 2.432-.161 5.026-2.76 6.464Z" fill="#E1D7A7"/><path d="M352.014 379.212c-25.083-.613-50.19-.775-75.238-2.075-9.417-.488-19.14.891-28.336-2.551-1.915.057-3.079-.828-3.431-2.736.534-7.515-.657-15.094.778-22.578 2.768-2.841 5.5-.795 7.93.386 10.622 5.17 21.549 9.655 32.251 14.642.695.323 1.379.678 2.094.953 3.673 1.412 4.109 1.009 4.495-2.912.375-3.833-1.396-8.015 1.712-11.45 5.039-1.304 10.141-.58 15.222-.509 3.654.826 3.7 4.467 5.358 6.858.39.613.732 1.253 1.014 1.92.627 1.89 1.714 3.642 2.196 5.542 1.585 6.232 5.302 8.039 11.73 8.066 7.782.033 13.761-3.579 20.117-6.852a2.187 2.187 0 0 1 1.399.096c.213.083.428.161.642.236-1.136 4.328-1.389 8.649.065 12.962l.002.002Z" fill="#87655D"/><path d="M293.858 351.598c-.031 3.698-.069 7.393-.091 11.091-.04 6.18-.211 6.368-5.676 3.936-10.384-4.622-20.709-9.379-31.066-14.06-3.352-1.514-6.535-3.483-10.285-3.973-1.018-.626-1.439-1.654-1.46-2.73-.173-8.408-.88-16.828.409-25.208a2.845 2.845 0 0 1 1.074-1.249c2.924-1.229 6.038-.889 9.029-.672 5.362.388 10.23-.605 14.587-3.806 3.192-.516 6.014.183 8.385 2.502 3.354 3.277 8.503 3.179 11.959 6.301 2.464 1.903 5.319 2.286 8.306 2.284 7.083-.004 14.168-.044 21.251.025 1.963.019 4.053-.281 5.671 1.316.056.288.094.58.115.874-1.704 1.79-3.961 1.498-6.084 1.523-8.333.1-16.667-.059-24.991.119-7.69 1.526-14.965 4.488-22.482 6.634-5.106 1.458-3.095 5.984-3.304 9.388-.206 3.354 2.37 3.942 4.947 4.138 4.443.34 8.9.073 13.349.163 1.977.04 4.011-.229 5.853.824.166.192.331.386.496.58h.008Z" fill="#CE87B4"/><path d="m293.789 328.404 32.285-.175c3.385 4.664 8.347 7.315 13.087 10.247 1.517-.196 2.449.737 2.687 1.963.951 4.939 2.267 9.884.728 14.955-.565 1.864-1.481 3.622-3.615 3.635-8.215.046-16.477 1.237-24.632-.757-1.326-2.288-2.653-4.578-3.977-6.866-4.02-.841-8.089-.148-12.127-.409-1.614-.104-3.32.494-4.83-.563-1.608-7.375-2.115-14.732.396-22.03h-.002Z" fill="#FDFDFC"/><path d="M314.327 358.272c7.382-1.033 14.803-.359 22.194-.277 3.671.039 5.296-1.396 5.098-4.62-.311-5.025 1.289-10.427-2.457-14.899-1.913-3.143-4.985-4.926-7.995-6.766-2.774-1.695-3.118-3.712-1.422-6.515 4.424-7.307 10.216-10.089 18.504-8.927 3.16.442 2.964 2.538 2.962 4.724-.008 10.925.102 21.852-.09 32.773-.071 4.096 1.398 8.157.182 12.251l-.968.298c-1.201-6.595-5.362-7.001-11.125-6.242-6.385.84-12.94.236-19.42.19-1.535-.011-3.106.006-4.422-1.016l-1.043-.972.002-.002Z" fill="#E4E761"/><path d="M325.957 327.355c-9.944.053-19.889.134-29.836.142-3.049.002-5.508-1.305-7.256-3.856-.177-.747-.355-1.496-.534-2.242-1.295-5.344.058-7.248 5.487-7.323 9.23-.128 18.463-.1 27.692 0 2.747.029 5.496-.709 8.241-.004 2.173 2.49 1.596 5.064.232 7.66-.228 2.672-2.774 3.684-4.026 5.623Z" fill="#7A368C"/><path d="M335.319 257.87c-.282 2.488 1.061 4.075 3.084 5.074 5.104 2.522 9.173 6.474 13.743 9.736-6 .912-12.018-1.795-18.006.092-.544.171-1.009.595-1.512.901-4.999.876-10.022.319-15.034.209-2.613-.059-4.144-1.688-4.958-4.067-.698-2.925-.999-5.882-.613-8.885.128-.47.324-.912.563-1.333 1.619-2.023 3.277-4.015 5.651-5.235 4.949-1.544 8.618.6 11.811 4.1 2.019 2.18 3.506-.478 5.269-.592h.002Z" fill="#EEE9B8"/><path d="M313.301 269.06c1.047 3.009 3.145 3.752 6.266 3.729 4.346-.031 8.833-1.099 13.062.882 3.751 3.298 7.461 6.641 11.261 9.88 3.367 2.868 3.896 8.299.985 11.257-6.885-5.582-15.174-8.433-23.158-11.866-1.412-.607-3.145-1.072-4.507-.561-7.15 2.686-13.778-.88-20.643-1.443a65.974 65.974 0 0 0-2.219-.555c-1.372-.311-2.793-.67-2.651-2.528.128-1.689.974-2.953 2.708-3.247 3.362-.57 6.73-.839 9.538 1.708 1.432 1.299 2.995 2.065 4.984 1.748 2.743-.438 4.793-1.335 3.694-4.779-.471-1.474-.724-3.007.68-4.223v-.002Z" fill="#F9FAF9"/><path d="M296.382 279.816c3.794.34 7.707.1 11.052 2.492.783.559 1.761.62 2.649.202 7.461-3.512 13.966-.596 20.476 2.87 3.099 1.65 6.324 3.127 9.625 4.312 2.601.932 4.147 2.471 4.693 5.114.438 2.528 3.068 2.467 4.505 3.814-.335 2.818-2.252 3.016-4.476 2.71-.29-.09-.68-.144-.821-.371-4.214-6.731-11.447-8.754-18.027-11.985-4.728-2.321-9.236-2.935-14.179-1.537-1.034.292-2.119.348-3.201.321-4.02-.455-7.755-1.767-11.276-3.742-1.024-.717-1.65-1.652-1.585-2.955.061-.474.25-.889.565-1.249v.004Z" fill="#EBA5A7"/><path d="m329.983 321.734-.146-7.162a2.652 2.652 0 0 1-.518-1.203c.061-1.164.522-2.13 1.408-2.891 4.797-1.083 8.81-4.872 14.145-4.126 2.101.038 4.195.315 6.301.086.434.104.783.34 1.043.701-2.003 5.349-5.831 7.804-11.482 7.364-2.592-.204-4.181 1.658-5.971 2.987-1.704 1.264-3.195 2.818-4.778 4.244h-.002Z" fill="#CAE8EE"/><path d="m352.215 307.139-1.248-.326c-.988-.544-2.233-.711-2.784-1.9.194-1.483-.64-2.134-1.921-2.59-.705-.251-1.9-.393-1.266-1.732 1.842.19 3.3-.473 4.384-1.968 1.375.677 2.699 1.491 4.132 2.006 2.234.801 3.813 1.86 3.208 4.618-.624 2.841-2.972 1.343-4.505 1.892Z" fill="#BC8F9F"/><path d="m370.633 82.545 16.926 11.257c1.03 1.981 1.141 4.117 1.132 6.296-.023 6.629.073 13.259-.035 19.886-.073 4.509 1.118 8.503 3.923 12.038 1.535 1.934 2.762 4.086 4.111 6.149 1.291 1.975 2.265 4.198 1.961 6.532-.751 5.782-1.98 11.474-4.606 16.757-2.123 1.187-3.408-.367-4.705-1.558-2.559-2.353-4.916-4.918-7.469-7.279-1.71-2.171-4.063-2.159-6.532-2.1-2.318.054-4.898.638-6.522-1.894a13.686 13.686 0 0 1-1.308-5.838c.023-17.581-.651-35.167.373-52.74.309-1.683-.25-3.372-.039-5.043.196-1.558.471-3.226 2.792-2.463h-.002Z" fill="#F0E8BB"/><path d="M392.971 161.66c2.244-5.204 3.479-10.741 4.399-16.248.89-5.341-3.454-8.931-6.139-12.889-2.215-3.269-3.942-6.497-3.896-10.531.105-9.396.15-18.794.221-28.19 3.002.976 4.111 3.078 4.553 6.186 1.256 8.814 2.883 17.576 4.364 26.359 2.044 5.302 5.512 9.847 8.293 14.719 4.403 7.715 5.762 15.593 5.231 24.223-.37 5.98.346 12.037-.176 17.992-.661 7.548-2.905 14.933-2.223 22.65.154 1.74-1.243 2.712-2.736 1.481-3.924-3.235-7.684-6.636-13.236-6.52-.288.007-.649-.294-.672-.575-.123-1.577-1.575-.588-2.196-1.177-1.285-3.587-1.529-7.147.271-10.647 1.082.791 1.561 2.274 1.437 4.449.244-3.1.945-6.441-3.767-6.898-3.481-1.929-6.676-4.317-9.784-6.73-4.332-3.365-8.916-5.058-14.408-4.647-2.367.177-5.1.346-5.832-3-.242-2.115.105-4.071 1.533-5.737 2.497-1.784 5.494-2.053 8.347-2.76 1.406-.104 2.814-.565 4.222-.012.452 5.566 4.684 7.775 8.881 10.063 5.537 3.018 11.037 6.107 16.337 9.532 1.698.609 3.246 2.914 4.849 2.015 1.815-1.018.134-3.329.19-5.073.184-5.635-1.46-10.52-6.073-14.183-1.131-.896-2.397-2.021-1.992-3.852h.002Z" fill="#D2DE2D"/><path d="M370.633 82.545c-4.032 1.266.065 4.766-1.819 6.622-1.741.49-3.103-.499-4.138-1.52-5.79-5.707-13.259-5.913-20.596-6.372-14.567-.912-29.09-2.33-43.633-3.48-5.511-.435-11.029-.936-16.548-1.128-4.314-.15-7.728-1.58-10.602-4.695-3.026-3.278-6.259-6.338-10.147-8.618-.129-1.796.968-1.568 2.105-1.274 15.45.263 30.393 4.27 45.608 6.284 14.162 1.875 28.178 4.845 42.338 6.747 6.674.897 12.376 3.181 17.43 7.434h.002Z" fill="#C9ABCA"/><path d="M222.427 49.303c1.99 1.462 2.874.505 3.652-1.444 2.002-5.01 4.301-9.905 6.192-14.952 1.022-2.728 2.416-4.845 5.019-6.261 7.502-4.084 14.946-8.276 22.949-11.66-3.383 2.806-6.67 5.736-10.172 8.383-4.72 3.569-9.006 7.281-10.514 13.449-.797 3.262-2.493 6.297-3.634 9.488-.4 1.122-2.048 2.578-.066 3.55 1.681.825 3.22.246 4.294-1.538 3.183-5.28 6.443-10.514 9.719-15.736 1.166-1.857 2.414-3.742 5.444-2.36-1.026 4.074-3.097 7.797-5.039 11.526-1.224 2.35-.895 3.586 1.581 4.535 2.288.876 4.461 2.046 6.685 3.089-.54 3.157-2.964 4.004-5.611 4.555-10.545 2.194-21.105 4.317-31.621 6.636-1.671.37-2.178-.287-2.82-1.434-.924-1.654-3.717-3.133-2.203-5.014 1.552-1.928 2.818-4.9 6.145-4.814v.002Z" fill="#A53B0D"/><path d="m265.255 62.082-2.013.978c-1.666 1.917-4.094 1.898-6.284 2.484-8.13 1.039-16.004 3.717-24.282 3.853-1.551-.635-3.022-1.35-4.849-.874-6.691 1.74-13.574 2.62-20.248 4.482-2.242.626-5.279 2.45-6.752-.159-1.57-2.782-2.444-6.382.503-9.335 4.174-1.37 8.474-.474 12.71-.733 1.271.14 2.614-.287 3.817.447 10.533-2.034 21.191-3.581 31.551-6.274 6.866-1.785 11.897-.715 15.847 5.13Z" fill="#B9A45D"/><path d="M416.832 204.027c-2.954-.102-3.604-4.757-7.179-3.629l-.032-2.789c1.2-1.211 2.132-2.427.052-3.685-.048-.736-.093-1.473-.141-2.209-.87-3.944-.234-7.936-.361-11.903-.119-3.696-.476-7.465.054-11.086 1.994-13.617-2.876-25.264-9.834-36.397-.799-1.279-2.021-2.426-1.299-4.178.108-.108.2-.286.329-.317 5.087-1.279 16.757 7.181 16.619 12.31-.48 17.993-1.183 35.983-1.669 53.976-.054 2.004-1.547 4.926 2.745 5.364 1.581.161 1.008 2.885.716 4.543Z" fill="#1F1C72"/><path d="M310.231 42.825c.359-1.442-.365-3.431 1.961-3.876 2.449 4.068 2.422 4.024 6.597 1.377 2.451-1.554 4.843-3.356 7.984-3.241 1.842.067 3.686-.015 4.681 2.127.988 2.13.06 3.496-1.454 4.793-.699.599-1.316 1.287-1.965 1.992 8.026-4.134 15.261-9.52 23.135-13.843 2.115-1.162 4.301-1.952 6.603-1.495 6.316 1.253 12.729 2.16 18.755 4.595 1.264.51 2.715.913 2.457 2.792-1.567-.23-3.133-.456-4.699-.684-5.062-1.243-10.11-2.54-15.188-3.704-2.51-.576-4.82.069-7.033 1.443-10.147 6.295-20.336 12.523-30.525 18.75-.611.374-1.251.935-2.438.378 1.627-5.25 6.975-8.33 8.516-13.989-4.213-.056-6.918 2.674-9.893 4.579-3.429 2.196-5.9 2.1-7.491-1.992l-.003-.002Z" fill="#291252"/><path d="M398.092 128.151c10.958 15.105 13.607 32.135 11.814 50.266-.436 4.403-.265 8.866-.374 13.3l-1.191.539c-.311 5.203-.104 10.409-.119 15.615l-.256 2.307c-.93-.398-2.055.259-2.91-.853-3.998-5.198-9.212-7.838-15.88-7.219-.234-.928-1.102-1.971.467-2.573 3.594.911 7.613.233 10.677 3.143 1.754 1.664 3.783 3.041 5.619 4.492.394-.365.765-.544.771-.736.607-16.838 2.895-33.605 2.023-50.512-.171-3.305-.961-6.017-2.68-9.006-3.347-5.819-5.642-12.239-9.736-17.689-.655-.871-.963-1.981.157-2.88.54.601 1.08 1.201 1.62 1.804l-.002.002Z" fill="#D6DB68"/><path d="M217.857 63.225c-.936.254-1.873.509-2.811.761-4.474-6.19-4.747-12.207-.105-18.646 2.68-3.717 4.716-7.942 7.325-11.753.914-1.333 1.535-3.57 4.045-2.538-1.679 5.304-6.278 9.104-7.54 14.625-1.335 1.818-2.81 3.552-3.967 5.475-1.168 1.94-1.344 4.167.258 5.942 1.625 1.798 2.163 3.954 2.791 6.132l.004.002Z" fill="#5B2F4D"/><path d="M374.878 80.397c-3.932 1.284-5.527-1.2-7.192-3.306-.586-.74.34-1.702.989-1.569 2.711.563 4.743 2.15 6.203 4.872v.003Z" fill="#A53B0D"/><path d="M337.291 57.683c.665 1.846 1.833 3.023 3.934 2.954-2.013.874-4.024 1.748-6.716 2.92.64-2.77 1.257-4.526 2.782-5.874Z" fill="#F0CEB1"/><path d="M386.426 88.322c-1.859.484-3.383 1.212-4.107-.972-.202-.609-.413-1.376.3-1.585 1.898-.556 2.728.84 3.807 2.557Zm-10.101-5.047c-.079-1.227.855-.887 1.518-1.008 1.11-.202 1.802.318 1.805 1.35.002.989-.714 1.675-1.75 1.535-.981-.131-1.462-.903-1.573-1.875v-.002Z" fill="#A53B0D"/><path d="M410.693 249.806c-2.027-4.43-.78-9.106-1.034-13.673 2.25.438 2.213-1.698 3.003-2.789 2.157-2.978 4.505-5.894 6.149-9.15 2.292-4.541 5.61-5.6 10.151-4.228.058 7.115-1.404 14.091-1.909 21.156-4.413 2.857-7.31 1.841-8.372-2.927-.116-.523.09-1.295-.853-1.257-2.769 2.192-4.388 4.876-4.586 8.511-.092 1.682-.313 3.728-2.549 4.357Z" fill="#322480"/><path d="M410.693 249.807c.469-1.285 1.445-2.622 1.322-3.849-.515-5.158 2.676-8.178 5.943-11.235.154.006.433-.017.444.025 1.754 7.116 4.125 14.174 2.273 21.664-.146.59-.617 1.055-1.049 1.498-.19-.234-.503-.447-.553-.707-.798-4.183-3.615-6.112-8.451-5.788l.071-1.608Z" fill="#C7E3F0"/><path d="M419.625 257.909c-.023-6.96.1-13.924-.726-20.855-.102-.865.14-1.864-.943-2.331 1.445-1.488 1.583-.382 1.758.85.597 4.196 3.043 6.045 7.338 5.548-.724 5.019-.142 10.356-3.863 14.621-1.009 1.156-1.668 2.595-3.566 2.167h.002Z" fill="#8478AF"/><path d="M408.22 207.869c-.24-5.21-.569-10.42.123-15.618-.044 5.208-.083 10.414-.123 15.618Z" fill="#A53B0D"/><path d="M409.673 193.924c.853.271 2.203-1.214 2.568.451.419 1.914-.593 3.086-2.62 3.234.017-1.228.033-2.456.052-3.685Z" fill="#231A79"/><path d="M148.333 90.139c6.212-8.716 14.402-15.578 21.75-23.23 1.604-1.671 3.321-3.234 4.059-5.53l4.609-.457c1.636 2.564 5.655 1.692 6.915 4.806-3.196 7.01-7.038 13.699-11.14 20.17-2.891 4.562-3.55 8.89-2.322 13.981.511 2.121 2.224 4.601-.196 6.764-3.233 5.229-6.115 10.721-9.788 15.62-4.655 6.209-5.815 13.445-7.413 20.63-.853 3.838-1.749 7.667-3.414 11.386 0-8.871-.133-17.745.065-26.612.083-3.675 2.974-6.345 4.486-9.517 1.834-3.85 4.011-7.536 5.481-11.697-6.724 7.645-13.454 15.285-20.164 22.939-.981 1.118-1.062 2.42-.845 3.898.601 4.109.448 8.425 1.66 12.325 1.715 5.514-.258 8.647-4.849 11.206-2.674 1.492-5.066 3.49-7.584 5.26-3.522-2.192-3.124-5.485-2.484-8.847.223-.004.436-.056.636-.157 3.84-3.414 3.757-8.501 5.448-12.829.226-.573.148-1.464-.519-1.529-5.611-.531-3.033-4.818-2.572-6.964 1.6-7.442 5.308-13.899 9.73-20.233 4.37-6.262 6.764-13.801 8.458-21.383h-.007Z" fill="#AC88BA"/><path d="M127.157 153.232c.557 3.026-.258 6.436 2.485 8.847 0 1.942.004 3.886.004 5.828-2.061-4.683-4.885-9.236-2.489-14.675Z" fill="#26782B"/><path d="m163.014 227.26 4.811-34.229c.217-.408.397-1.049.762-1.12 5.777-1.115 6.378-5.852 7.316-10.357 1.039-4.979 2.301-9.909 3.216-14.913.576-3.154 2.071-4.705 5.513-4.958 7.705-.567 7.696-.747 7.7-8.339.005-10.172-.012-20.344.013-30.513.006-2.145-.232-4.33.701-6.376 2.5-2.606 5.773-1.696 8.676-1.544 4.733.246 7.813-1.466 9.974-5.702 2.013-3.949 4.505-7.657 6.856-11.426.918-1.468 1.55-3.508 3.988-3.114 1.301 1.946.089 3.51-.791 5.119-2.434 4.459-5.208 8.703-6.993 13.548-1.637 4.443-5.504 5.815-10.089 5.847-6.563.043-7.804 1.228-7.834 7.856-.041 9.244-.427 18.497.34 27.803 1.008-.476 1.16-1.504 1.35-2.263 2.542-10.193 10.272-13.901 19.505-15.764 1.644-.331 3.373-.922 4.566.96-.592 2.215-2.653 2.538-4.322 2.903-8.576 1.877-13.934 7.129-16.856 15.247-.776 2.156-2.036 4.133-3.162 6.148-2.04 4.95-5.094 9.365-7.377 14.193-1.803 3.815-2.906 7.674-2.414 11.912-.256 3.085.645 6.263-.767 9.248-1.848 1.938-4.297 1.502-6.539 1.445-3.274-.083-4.981 1.421-5.154 4.547a69.517 69.517 0 0 0 1.734 19.7c.413 1.773 1.983 2.657 3.235 3.802 1.918 1.754 4.029 3.471 3.666 6.543-1.295 2.686-1.645 5.523-1.62 8.48.058 7.192.043 14.386.004 21.577-.011 2.125.223 4.309-.974 6.259-5.632 2.253-11.34 2.046-17.093.534-1.946-3.162-2.031-6.695-2.037-10.245-.326-5.264.408-10.587-.895-15.801-.624-5.725-.736-11.417.986-17.003l.005-.004Z" fill="#D4DD2E"/><path d="M193.925 116.042c-.071 13.988-.161 27.977-.196 41.966-.009 3.097.375 6.032-4.555 4.728-2.036-.538-4.38.822-6.773.397-1.718-.305-1.414 1.577-1.664 2.692-1.577 7.021-3.191 14.033-4.716 21.064-.72 3.325-1.55 6.309-6.055 5.414-.642-.127-1.426.466-2.144.726-.1-11.688-1.631-23.272-2.609-34.894-.167-1.979.006-3.652 1.616-4.978 3.325-2.741 5.73-6.385 9.182-9.046 5.389-4.157 5.714-10.502 6.563-16.567.303-2.161-1.543-2.795-2.636-3.975 2.63-3.2 3.817-6.877 4.228-11.002.594-5.974 2.304-11.772 3.124-17.737.59-4.299 3.757-6.103 7.16-4.86.805 8.714 1.744 17.424-.523 26.072h-.002Z" fill="#86665A"/><path d="M193.844 89.486c-3.979 1.28-5.354 3.996-5.857 8.172-.907 7.507-2.713 14.905-4.11 22.353-.418 2.229-1.492 3.631-3.94 3.556-2.338-.09-3.304-2.774-5.592-2.964-2.138-2.747-1.892-5.955-1.763-9.14-.98-1.514 1.761-3.468-.571-4.824-.555-3.765-.893-7.581-1.742-11.28-.567-2.469-.098-4.331 1.164-6.457 4.701-7.92 9.188-15.966 13.755-23.967.136-.846.641-1.533 1.438-1.608 4.899-.456 9.936-2.275 14.481 1.283.292 9.367-2.184 9.294 7.894 6.743 6.353-1.608 12.775-2.932 19.176-4.35 1.783-.395 3.358-.047 4.382 1.66-2.181 3.151-6.19 3.312-8.962 5.498-8.26 4.427-16.323 9.214-24.609 13.594-1.598.845-3.146 2.005-5.144 1.731Z" fill="#A53C0D"/><path d="m163.013 227.26.059 17.472c-.905 1.185-2.076 1.151-3.327.726-2.284-2.067-1.958-5.022-2.584-7.659-.384-1.616-.411-3.583-2.699-3.714-2.088-.119-3.4 1.076-4.261 2.924-1.631 3.5-2.378 7.223-2.937 11.004-4.641 1.026-7.056-.375-8.752-5.558-1.193-3.653-2.125-7.39-3.266-11.067-1.12-3.617-2.943-4.33-6.538-3.148-9.609 3.16-10.141 2.777-13.825-6.599a3.502 3.502 0 0 0-.102-.596c1.335-4.086 2.637-8.187 4.021-12.258.595-1.75 1.859-3.145 3.778-2.697 5.454 1.27 11.308 1.735 14.683 7.39 2.044 3.425 4.58 6.553 6.804 9.876 1.566 2.34 3.591 2.104 5.679 1.122 2.319-1.093 1.304-3.06.507-4.343-2.978-4.788-2.265-9.951-1.956-15.102 4.077 7.525 8.257 14.998 12.18 22.605 1.602 3.105 1.744-.005 2.538-.372l-.002-.006Z" fill="#735450"/><path d="M172.581 111.465c1.368 2.897 1.631 6.005 1.762 9.14-1.278 3.927-2.469 7.888-3.883 11.77-.561 1.541-.755 4.319-3.185 3.499-2.407-.813-4.04-3.074-2.757-5.917 2.767-6.13 4.553-12.689 8.063-18.492Z" fill="#E10555"/><path d="M114.886 221.641c.361.284.815.501 1.07.859 5.11 7.255 5.239 7.586 13.526 4.191 4.144-1.698 5.602-.32 6.532 3.201.976 3.698 2.415 7.24 3.264 11.004.839 3.728 2.267 7.659 7.586 6.737 2.578 1.143 2.959 3.21 2.388 5.68-.277 2.152.39 4.78-2.755 5.493-.455-4.405-2.386-5.479-6.282-3.034-3.141 1.971-5.442 1.814-6.844-2.47-1.714-5.241-4.319-10.186-6.255-15.365-.886-2.37-2.567-3.394-4.536-2.733-2.175.733-.899 2.787-.517 4.299.94 3.719 1.985 7.413 2.886 11.142.415 1.717.53 3.258-1.937 3.813-2.522.567-2.451-1.285-2.843-2.605-2.188-7.365-4.305-14.748-6.422-22.134-.816-2.847.767-5.381 1.143-8.074l-.004-.004Z" fill="#DF8306"/><path d="m149.248 253.311-2.388-5.68c-1.465-5.139 1.687-9.198 3.439-13.478.884-2.156 3.858-1.664 5.888-1.748 1.812-.075 1.518 2.067 1.781 3.302.638 3.006 1.047 6.059 1.548 9.094 5.276 1.001 3.137 5.227 3.61 8.314.3 1.962.015 3.449-2.536 3.001-1.942-.555-3.143-5.052-5.945-1.122-.884.73-.408 2.676-2.081 2.607-2.693-.111-1.577-3.339-3.316-4.295v.005Z" fill="#ADD6EC"/><path d="M154.644 254.998c.2-1.383-.565-3.227 1.775-3.569 3.02-.442 2.336 2.678 3.71 3.813 1.381 1.458 2.949 2.763 3.798 4.655.347 3.329.691 6.656 1.037 9.984 1.126 1.842.411 3.325-.907 4.693-1.494 1.293-.732 3.039-.922 4.595.999 1.65 1.556 3.181-1.047 3.852l-1.75-1.088c-.972-5.319-3.625-10.003-5.638-14.926-1.343-3.283-4.029-6.476.011-9.796.348-.288-.028-1.456-.067-2.215v.002Z" fill="#8B7B15"/><path d="m164.058 274.574.907-4.693c5.569-.033 11.136-.064 16.704-.098.44.407.751.897.939 1.465.732 5.206-.008 10.459.48 15.678.06 12.31.037 24.62.016 36.93-.004 2.139.157 4.334-1.08 6.275-3.777 2.134-7.567 1.769-11.363.048l-2.273-4.54c.098-15.215.052-30.435.4-45.644.088-3.802-3.767-3.118-4.728-5.419l-.002-.002Z" fill="#E7D6A2"/><path d="M162.09 283.022c1.31-1.022.824-2.535 1.047-3.853 3.233-1.539 4.474.495 4.501 3.054.142 12.812.052 25.629.05 38.444 0 3.501-3.377 3.124-5.256 4.325-.916.586-1.068-1.049-1.177-1.919-1.403-11.254-2.774-22.513-4.229-33.761-.513-3.965 3.579-4.038 5.066-6.29h-.002Z" fill="#EE9306"/><path d="M378.985 38.046c-1.586-2.576-4.62-2.267-6.933-3.108-4.28-1.555-8.9-2.179-13.376-3.199-5.198-1.185-8.66 2.597-12.529 4.73-6.428 3.544-12.47 7.786-18.692 11.71-.471.296-1.07.392-1.898.682.242-3.056 2.355-4.474 4.05-6.116.862-.832 1.85-1.138.981-2.853-.682-1.343-1.241-1.612-2.599-1.779-3.959-.484-6.624 2.044-9.609 3.81-1.502.89-2.363 3.344-4.568 2.397-2.388-1.026-1.239-3.519-1.624-5.373.029-.26.095-.509.202-.748 2.941-3.319 6.165-6.376 9.079-9.71 2.373-2.715 4.935-3.729 8.564-3.01 4.676.927 9.473 1.386 14.033 2.752 3.925 1.176 7.164.357 10.537-1.629 4.229-2.49 8.674-4.612 13.071-6.804 1.539-.767 2.863-.878 4.138.551 5.297 5.932 11.653 9.82 19.779 10.602 2.242.215 3.41 2.023 1.651 3.965-1.62 1.79-.721 6.2-5.135 5.187-3.155-.188-6.159-1.043-9.129-2.057h.007Z" fill="#151269"/><path d="M388.114 40.103c3.406-.93 3.333-4.505 4.991-6.758.668-.907-.734-1.479-1.645-1.58-8.003-.898-14.703-4.206-19.744-10.602-1.201-1.525-2.494-1.333-4.056-.505-4.614 2.448-9.328 4.713-13.92 7.2-2.804 1.516-5.434 2.233-8.762 1.389-5.482-1.393-11.001-2.801-16.713-3.152-2.574-.158-4.724.543-5.982 2.674-2.046 3.467-6.462 4.793-7.786 8.896-.119.367-1.375.365-2.102.534 2.755-5.117 7.439-8.54 11.202-12.771 1.324-1.492 3.072-1.318 4.734-1.064 3.947.603 8.149.67 11.749 2.16 7.609 3.152 13.72.032 19.942-3.476 10.159-5.73 10.195-5.775 18.786 2.58 3.781 3.68 8.785 3.592 13.334 3.963 2.586.21 3.923-3.485 5.514-5.694 1.214-1.688 1.852-3.89 4.445-4.662.459 5.936-1.431 10.612-5.967 14.254-2.43 1.95-4.197 4.203-2.274 7.519-2.052.576-3.919-.042-5.746-.905Z" fill="#300C53"/><path d="M427.178 47.386c.68.144 1.45.106 1.813.895-4.895 3.245-10.151 3.491-15.716 2.133-1.729-.42-3.625-.152-5.446-.202 1.604-2.442 4.643.305 6.351-1.76 4.47 1.316 8.802.955 12.998-1.066Z" fill="#F7C9C4"/><path d="M201.107 64.612c-5.313-.198-10.638-1.032-15.919.325-2.346-1.022-6.14.276-6.436-4.02 6.635-10.263 11.2-22.057 22.298-29.83.032 3.26-1.345 5.775-2.135 8.39-.849 2.808-1.659 5.642-2.768 8.35-.991 2.423-.624 3.97 1.743 5.316 2.253 1.278 3.504 1.157 4.572-1.433 2.405-5.842 5.048-11.584 7.594-17.368 1.168-.509 1.173-1.773 1.45-2.678 1.085-3.537 3.297-5.346 7.016-5.419 1.06-.02 2.138-.056 3.2-.233 6.105-1.022 6.173-.95 4.684 4.916l-.094.119c-4.177 2.705-5.383 7.581-8.151 11.317-.861 1.162-1.543 2.59-2.275 3.904-2.397 4.297-6.097 8.537-1.324 13.701.74.801.348 2.651.481 4.015-4.645.209-9.292.415-13.938.624l.002.004Z" fill="#332484"/><path d="M313.967 15.95c-3.73 1.788-7.891 1.759-11.795 2.812-9.415 1.931-18.749 4.052-26.117 10.895-.449.416-1.075.574-1.688.676-.463.055-.915.148-1.297.428-1.504 1.1-3.026 2.446-4.899.803-1.823-1.6-.036-3.072.35-4.587l.096-.133c2.499-1.356 3.41-3.871 4.538-6.226 1.777-3.683 4.539-5.936 8.652-6.843 5.688-1.254 10.889-4.207 16.721-5.05-.494 3.054.522 4.147 3.7 3.254 2.92-.822 6.059-.928 8.917-1.894 3.691-1.247 3.873.282 3.139 3.15-.224.876-.217 1.81-.317 2.72v-.005Z" fill="#331C78"/><path d="M268.522 26.975c-.591 5.208-.171 5.423 5.712 2.904.265.2.353.4.265.602-.087.203-.175.303-.263.303l-15.01 10.462c2.231-5.459 5.637-9.951 9.296-14.27Z" fill="#472744"/><path d="M274.235 30.786a8.04 8.04 0 0 0 0-.905c7.995-7.02 17.149-11.125 27.938-11.12-1.299.57-2.6 1.14-3.9 1.707-8.405 2.363-16.815 4.722-23.116 11.37l-.92-1.052h-.002Z" fill="#843A3E"/><path d="M226.409 30.93c.271-3.775-.407-4.551-5.031-4.416-6.332.184-8.362 4.11-11.321 7.832.719-5.898 3.981-8.822 9.982-9.166 3.448-.199 6.851-1.146 10.77-1.844-1.074 3.285-2.555 5.546-4.402 7.596l.002-.002Z" fill="#5B2F4D"/><path d="M273.156 20.616c-.511 2.807-.532 5.973-4.541 6.228 1.162-2.334 2.71-4.384 4.541-6.228Z" fill="#472744"/><path d="M207.562 360.846c-2.926.192-5.625-.722-8.311-1.7-6.044-.595-11.344-3.592-16.846-5.717-2.397-.926-4.314-4.144-4.518-7.436-.417-.442-.382-.84.106-1.201 1.392-.14 2.447.611 3.079 1.646 4.353 7.131 11.897 7.769 18.936 9.448 3.122.744 6.856.532 7.557 4.958l-.003.002Z" fill="#B31B70"/><path d="m177.965 344.936-.079 1.059c-2.611-4.749-6.249-9.052-6.459-14.846.634-.594 1.324-.53 2.042-.181 1.956 3.068 2.947 6.603 4.718 9.769.755 1.35 1.032 2.864-.222 4.201v-.002Z" fill="#AC1F70"/><path d="m173.289 331.097-1.864.05-.768-.97c3.631-.041 7.263-.085 10.892-.127.348.553.273 1.043-.223 1.468-2.751 1.246-5.446 1.396-8.037-.421Z" fill="#CD967E"/><path d="M173.29 331.097c2.836-.117 5.673-.231 8.51-.348 3.347-1.702 6.87-.937 10.349-.743 1.902.394 3.318 1.598 4.62 2.926 5.508 5.628 11.507 10.738 17.138 16.234 2.607 2.542 11.48 4.11 14.779 2.69 1.842-.792 1.577-2.415 1.744-3.925.786-7.154-1.349-13.678-3.932-20.211-1.024-2.59-3.564-5.423-.673-8.478 6.123-1.141 12.285-.421 18.433-.415.88.154 1.671.473 2.217 1.228l.265 28.537c-.092 6.418-.212 12.833-.26 19.251-.013 1.696.045 3.364-.876 4.881-.695.765-1.565.988-2.476.559-6.62-3.11-13.937-4.182-20.628-7.079-4.981-1.786-9.959-3.573-14.94-5.358-1.443-2.524-4.061-3.778-6.52-3.625-5.85.362-10.347-3.692-15.885-4.193-1.998-.181-2.507-2.54-3.589-3.983-1.101-1.465-1.875-3.2-3.602-4.109.35-3.786-2.595-6.303-3.771-9.507-.538-1.466-.934-2.816-.903-4.332Z" fill="#E20353"/><path d="M222.5 366.204c6.495.943 12.512 3.541 18.724 5.46 1.447.449 2.801 1.179 4.377 1.06.945.619 1.89 1.241 2.837 1.862-.986 4.72 1.089 7.319 5.688 8.018 13.728 2.081 26.342 8.326 40 10.677 1.956.335 3.775 1.213 5.21 2.692l-2.839.025c-15.553-4.334-31.102-8.678-46.659-12.992-2.58-.715-4.681-1.781-4.243-4.974.315-2.292-.976-3.07-2.838-3.969-5.261-2.541-10.988-3.631-16.398-5.682-1.406-.532-3.054-.596-3.861-2.177h.002Z" fill="#3F2652"/><path d="M373.518 205.831c-2.303.151-4.641.455-6.85-.444-3.129-1.274-5.59 1.441-8.334 1.385-6.408-.131-12.784 1.035-19.202.209-3.844-.495-5.502 1.222-4.296 4.791 1.956 5.785 2.939 11.807 4.958 17.603 2.538 7.285 2.736 14.911-1.45 21.994-2.092-1.838-3.174-4.434-4.924-6.556-2.249-2.728-4.91-4.868-7.72-6.914-.479-1.641-.611-3.339-.686-5.02-.108-2.392-1.034-4.03-3.354-4.964-2.663-1.072-4.144-3.137-4.117-6.084.105-11.522-.688-23.058.557-34.556.144-.482.428-.872.832-1.17 1.742-.814 3.1.194 4.508.949 1.403.746 2.225-.263 3.122-1.041 1.243-1.078 2.409-2.33 4.311-1.981 2 .93 1.339 2.227.563 3.625-.665 1.197-2.521 1.814-1.819 3.668 2.628.958 5.138 1.563 7.325-.999.851-.997 2.088-1.034 3.29-.438 1.508 2.186 4.645 3.166 4.738 6.397-.408 1.218-2.736 1.406-1.866 3.26.6 1.285 1.979 1.274 3.185 1.475 5.875.976 11.669 2.219 17.739 2.042 3.195-.094 7.076-.651 9.487 2.769h.003Z" fill="#EDE8BB"/><path d="M389.642 199.532c-.106.868.373 1.842-.467 2.574-.962.146-1.99.086-2.732.893l-12.041 2.707c-1.617-2.411-1.496-5.339-2.374-7.971.432-2.038 2.284-2.046 3.738-2.626 1.03-.296 2.069-.578 3.143-.672 1.226-.062 2.409 1.441 3.673.088.559-6.462-1.116-9.613-6.286-12.291-6.289-3.258-12.75-6.034-19.692-7.601-.459-1.101-1.047-2.24.791-2.653.507 1.496 1.768 1.638 2.993 1.444 10.247-1.623 17.149 4.813 24.532 10.109.859.615 1.729 1.214 2.595 1.821 1.518.323 2.786.876 2.536 2.801-1.318 3.75-.678 7.569-.409 11.375v.002Z" fill="#82655D"/><path d="M326.205 238.358c4.318.413 10.715 7.271 12.139 13.013-.784 2.269-3.124 3.817-3.026 6.499-1.095 2.532-2.666 3.844-5.421 2.117.14-.45.755-1.051.724-1.078-3.431-2.916-2.578-6.17-.872-9.551.161-.321-.34-.805-.603-1.178-1.698-2.486-3.775-2.858-6.37-1.352-1.595.924-3.287 1.692-4.932 2.541-1.214.509-2.418 1.149-3.746.333-.05-.137-.186-.321-.14-.408 1.633-3.16 1.681-6.174-.768-8.988 4.168-1.825 8.366-3.393 13.017-1.946l-.002-.002Z" fill="#E79FA6"/><path d="M372.419 197.47c2.426 2.321 1.729 5.396 1.983 8.238l-.431.144-.453-.018c-2.657-1.269-5.681-1.828-8.382-1.561-6.913.687-13.428-1.374-20.13-2.031-2.361-.232-3.91-.993-4.081-3.886-.207-3.477 2.688-1.299 3.685-2.402 2.042-2.082 4.432-1.531 6.824-.914.699.463 1.164.989.403 1.794.822.73-3.602-.611-.403.976 4.437 2.2 8.988 1.643 13.503.188 2.042-.657 3.98-1.759 6.253-1.275.484.127.893.378 1.229.745v.002Z" fill="#E1E478"/><path d="M315.37 359.244c7.054-.828 14.131-.079 21.193-.326 1.69-.058 3.406.084 5.066-.164 8.692-1.296 8.685-1.329 8.708 7.558-7.953 7.432-17.691 8.107-27.798 7.288-.668-.054-1.598-.505-1.886-1.047-2.246-4.236-5.185-8.218-5.285-13.309h.002Z" fill="#D7A207"/><path d="M293.806 350.611c5.502.524 11.104-.974 16.546.797-5.498.062-10.996.127-16.492.192l-.275-.307-.119-.415.34-.265v-.002Z" fill="#CE87B4"/><path d="m246.475 320.055-1.519-.237a1.574 1.574 0 0 1-.945-1.035c-.413-3.829 1.633-7.456.722-11.407-.64-2.78-1.406-5.279-3.579-7.258a21.325 21.325 0 0 1-4.71-6.217c-1.848-3.686-.669-5.911 3.35-6.55 4.341-.688 6.464-3.232 6.368-7.631-.029-1.504-.551-3.064.346-4.503 2.271-1.957 5.688.229 7.823-2.188 3.431-6.009 3.056-12.959 4.821-19.37.755-2.741.427-5.823 2.632-8.093 2.594-1.036 5.385-1.501 7.946-2.659 1.352 1.652 1.79 3.506 1.239 5.579-.26.417-.596.77-.99 1.062-3.24 3.986-3.062 6.121.485 9.409 3.223 2.984 6.789 4.373 11.305 4.254 5.364-.141 10.796-.748 16.133.495 2.057 1.933.649 3.545-.847 4.519-5.642 3.673-10.309 8.721-17.067 10.882-4.626 1.478-8.645 4.54-11.572 8.628 1.139 1.946 3.281.119 4.209 1.698-1.015 3.147-3.56 4.082-6.468 4.495-6.171-1.519-11.189 1.464-16.243 4.229-1.869 1.022-2.115 2.816-1.865 4.743-.004 5.655 1.742 11.359-.511 16.938l-1.061.219-.002-.002Z" fill="#DAAC96"/><path d="M293.806 350.611a2.08 2.08 0 0 1-.221.68c-6.484.019-12.969.163-19.449.025-6.132-.129-6.197-.327-6.211-6.301-.021-8.489-.015-8.466 7.842-10.902 6.019-1.867 12.018-3.804 18.025-5.711.006 7.403.01 14.805.017 22.207l-.003.002Z" fill="#C9E9F5"/><path d="M247.538 319.836c-.014-5.779-.938-11.548-.166-17.336 3.679-2.78 7.892-1.18 11.878-1.456 4.234.349 8.547-.655 12.727.714 1.76 1.626.736 3.683.865 5.566-.206 2.718.795 5.648-1.391 8.022-6.897 7.214-15.776 3.873-23.91 4.49h-.003Z" fill="#ADD6F2"/><path d="M271.449 315.346c.082-2.736.163-5.473.242-8.209 1.88-.887 3.615-.253 5.346.49 6.503 3.65 13.215 6.002 20.945 5.516 9.627-.602 19.311.309 28.958-.465 1.082-.087 2.152-.046 3.016.768-.042.373-.084.749-.123 1.122-10.708 1.429-21.469.461-32.204.661-8.316.155-8.318.027-8.764 8.41-6.52-1.266-10.94-6.944-17.418-8.295l.002.002Z" fill="#C99282"/><path d="M272.53 289.473c-.152-.019-.331.008-.454-.063-1.742-1.001-3.39 2.889-4.793.402-1.473-2.611.869-4.405 2.667-5.698 3.805-2.732 7.703-5.168 12.1-7.164 6.196-2.814 12.414-6.46 16.389-12.575 4.261-3.75 8.72-6.735 14.719-3.869l.142 8.552c.131 1.491-.453 3.063.705 4.432 2.363 2.792-.288 4.993-1.867 5.356-2.928.674-6.359 2.365-9.052-1.663-2.248-3.362-6.188-1.645-9.436-1.341-.924.088-1.239 1.561-1.057 2.341.475 2.048 2.824.337 3.792 1.633-.002 0 .079.425.079.425-.578.217.219.236-.373.248-7.92.182-14.033 4.724-20.499 8.427-.94.538-1.935.967-3.064.554l.002.003Z" fill="#C7BDD7"/><path d="M313.157 260.506c-5.535-1.101-9.884 2.313-14.72 3.869-5.394-.004-10.834-.453-16.167.106-5.633.591-9.717-1.654-13.542-5.218-2.747-2.559-3.456-6.939-1.448-9.928.62-.922 1.635-.636 2.543-.571.273.146.675.241.778.477 2.517 5.853 7.494 5.78 12.714 5.49 3.846-.213 7.715-.067 11.572-.023 2.021.023 4.142.037 5.806 1.241 3.216 2.323 6.862 2.549 10.585 2.651.816.169 1.55.482 2.055 1.184a2.057 2.057 0 0 1-.176.724v-.002Z" fill="#B98DB8"/><path d="M329.972 247.642c1.391.903 1.94 2.083.648 3.378-3.134 3.144-1.787 5.208 1.477 6.952.494.263.878.734 1.385 1.17-1.208 1.147-2.497.511-3.585.845-3.073-3.879-7.01-5.657-11.979-4.937-.855-.797-.857-1.721-.408-2.713 4.267-1.256 8.282-3.192 12.462-4.695Z" fill="#533338"/><path d="M317.89 252.357c.01.897.018 1.794.029 2.691l-4.587 4.737c-.696-.042-1.393-.084-2.092-.123-3.829-1.292-4.442-3.659-1.487-6.287 2.009-1.785 4.109-3.598 7.129-3.312.845.542 1.464 1.185 1.008 2.296v-.002Z" fill="#57236C"/><path d="M344.995 300.594c.876 1.205 2.328.386 3.336.92 1.77.94 2.119 2.098.068 3.214-1.725 2.277-3.545.801-5.193-.005-3.7-1.806-7.415-3.654-10.865-5.871-4.442-2.853-9.102-4.073-14.314-3.612-1.658.146-3.362.121-4.985-.422a2.834 2.834 0 0 1-1.126-.794c-.517-2.557-2.932-4.268-3.135-6.973 12.515-5.179 21.806 3.072 31.818 7.89 1.927.927 2.955 3.719 4.399 5.651l-.003.002Z" fill="#C75216"/><path d="M272.53 289.473c3.5-2.138 7.171-4.044 10.458-6.47 4.159-3.07 8.676-3.362 13.478-2.76.139 1.045.131 2.149 1.13 2.852.855 4.273-.167 5.771-5.043 5.55-6.771-.309-12.721 1.518-18.269 5.204-2.24 1.489-5.4 1.687-6.501 4.736-.463.889-.987 1.731-1.804 2.347-2.113.892-4.441.229-6.587.907-3.035-1.869-1.343-3.89.006-5.627 1.669-2.149 4.238-2.724 6.808-3.11 2.624-.307 4.338-2.203 6.324-3.627v-.002Z" fill="#E68E2E"/><path d="M266.761 298.612c-.096-1.7.521-2.897 2.154-3.662 7.83-3.673 15.147-8.988 24.584-7.313 3.642.647 3.884-1.985 4.095-4.543l11.181 3.957c1.202 1.95 3.99 2.983 3.425 5.949-5.089 1.095-10.005.331-14.819-1.41-5.075-1.838-9.855-.733-14.623 1.245-4.326 1.793-8.618 3.616-12.623 6.082-1.084.667-2.336.736-3.374-.305Z" fill="#B70A3C"/><path d="M344.764 306.851c-5.017-.157-8.677 4.561-13.847 3.856-2.572 1.043-4.278-.872-6.274-1.816-6.082-1.367-12.237-.263-18.344-.611-.307-.017-.617.025-.922-.007-3.179-.338-7.156 1.133-8.639-3.297-1.049-3.137 1.959-7.048 6.733-9.234 14.297-2.319 27.149 1.892 39.395 8.787.913.513 1.954.987 1.896 2.324l.002-.002Z" fill="#FCFBF9"/><path d="M326.076 308.113c1.164 1.702 3.189 1.798 4.841 2.592l-.957 2.743c-13.866 1.952-27.819.922-41.7.594-4.05-.096-8.543-2.855-12.112-5.819 1.679-2.19 4.143-1.656 6.383-1.785 10.608-.62 21.113 1.631 31.74 1.12 3.907-.188 7.932-.799 11.807.555h-.002Z" fill="#F7C955"/><path d="M344.764 306.851c-7.118-3.264-14.026-7.188-21.424-9.59-6.101-1.982-12.825-.541-19.272-.659-10.347-1.506-20.136-.065-29.163 5.487-.771.476-1.649.859-2.607.39-4.215-.309-8.461.534-12.662-.329-.411-.14-.544-.272-.405-.399a.619.619 0 0 1 .42-.183c1.843-1.725 4.213-.68 6.286-1.193 5.809-2.666 11.563-5.459 17.397-8.06 4.674-2.083 9.534-3.178 14.658-.727 2.737 1.307 5.842 1.741 8.977 1.541 1.825-.117 3.715-.244 5.387.82 11.142-1.913 20.261 3.041 29.255 8.536 2.052 1.254 4.058 2.935 6.791 2.245 1.289.158 2.613.275 2.565 2.083-2.054 2.363-4.132.58-6.203.038Z" fill="#31184F"/><path d="M256.62 64.485c2.206-.476 4.413-.95 6.622-1.425 2.302-.083 4.273.647 5.596 2.58 5.348 7.816 13.048 10.158 22.125 10.533 13.641.563 27.256 1.819 40.878 2.82 7.959.584 15.964.874 23.846 2.007 5.302.76 8.672 5.535 13.127 8.165 1.458 2.536-.079 5.085-.039 7.634.194 12.308.087 24.62.087 36.929 0 5.211-.183 10.429.812 15.587-3.135 2.405-6.889 2.161-10.51 2.386-4.572.284-9.177-.567-13.733.352-5.566-.642-9.869 3.171-14.948 4.264-2.859-2.19-1.716-5.348-1.846-8.13-.244-5.317-.703-6.235-5.877-5.717-11.019 1.103-22.163.93-33.069 3.089-8.147 1.614-14.842-.317-20.038-7.111-1.989-2.601-2.037-4.638.357-6.805 2.515-2.278 5.158-4.397 7.826-6.491 3.203-2.515 4.863-10.879 3.018-14.425-.741-1.42-2.107-1.704-3.423-2.092a240.026 240.026 0 0 0-17.468-4.447c-1.464-.312-3.153-.152-4.029-1.81-1.433-6.076-.497-12.239-.685-18.358-.146-4.758-.05-9.526-.012-14.287.015-1.874.238-3.682 1.381-5.254l.002.006Z" fill="#FEFEFE"/><path d="M392.971 161.66c.075.134.115.315.228.394 7.335 5.14 9.546 12.581 9.438 21.054-.017 1.299.909 2.955-.443 3.794-1.126.696-2.196-.699-3.239-1.225-1.211-.611-2.277-1.514-3.406-2.292-1.543-1.865-1.176-4.132-1.005-6.203.321-3.89-1.314-6.359-4.578-8.257-2.353-1.366-5.075-2.334-6.618-4.843.505-2.81-.098-5.127-2.374-7.152-1.725-1.535-2.59-3.542.363-4.998a2.08 2.08 0 0 1 1.256.111l10.374 9.615.004.002Z" fill="#403279"/><path d="M382.599 152.043c-.277.067-.553.144-.826.227-2.405.805-4.835 1.542-6.845 3.212-1.594 1.325-3.475 1.673-5.5 1.371a9.893 9.893 0 0 1-1.429-.282c-3.854-.922-7.851.232-11.697-.79-1.174-.43-2.098-1.243-3.066-1.99-2.334-2.359-6.213-.036-8.418-2.772 2.28-1.249 4.781-.786 7.148-.676 5.953.273 11.82-.452 17.708-1.024 2.29.013 4.643.363 6.856-.046 2.865-.53 4.722.365 6.067 2.772l.002-.002Z" fill="#B3D4EF"/><path d="m353.92 153.153 1.936 1.864c4.261 1.22 8.707-.323 12.971.859l.027.011c2.286 3.062 1.939 4.622-1.763 7.984l-8.528 2.515c-7.467 4.56-15.222 6.145-23.502 2.272-1.602-1.356-.53-2.632.434-3.444 5.467-4.601 11.183-8.868 17.545-12.191.24-.125.588.025.88.134v-.004Z" fill="#161267"/><path d="M383.625 163.343c1.714 1.198 3.283 2.758 5.173 3.523 5.988 2.42 8.086 6.695 6.939 12.879-.219 1.187-.132 2.43-.184 3.644-7.836-4.465-15.684-8.908-23.504-13.403-2.609-1.499-.667-4.327-1.697-6.311 4.461-4.267 9.765-4.401 13.273-.329v-.003Z" fill="#FAFAF6"/><path d="M334.734 167.548c8.172 4.228 15.972.92 23.831-1.166-.392 1.865-.78 3.73-1.168 5.596-.851.515-.556 1.343-.575 2.086-1.75 2.486-4.445 1.79-6.687 1.589-6.704-.594-12.69.661-17.633 5.498-.655.33-1.341.438-2.058.267-1.798-1.414-.232-2.48.519-3.399 1.944-2.38 4.199-4.456 7.098-6.009-1.306-2.126-4.067-1.49-5.423-3.173-.173-.438-.119-.838.198-1.195.617-.359 1.245-.434 1.896-.094h.002Z" fill="#B7165D"/><path d="M383.626 163.343c-4.514-3.556-8.881-1.207-13.272.328-1.091.069-2.179.135-3.266.2.467-2.69 3.76-4.753 1.764-7.986 2.555-.179 4.944-.238 6.856-2.691 1.36-1.743 3.953-1.034 6.063-.924-3.589 2.532.011 3.621 1.122 5.023 1.548 1.948 4.314 3.552.73 6.048l.003.002Z" fill="#6560A3"/><path d="M390.052 188.157c-.847-.934-1.692-1.867-2.536-2.801 2.429-.863 3.433.315 3.512 2.572.079 2.273.017 4.551-.974 6.849v-6.62h-.002Z" fill="#D6DB68"/><path d="m256.619 64.485.176 38.481c1.651 2.453 1.407 5.075.686 7.734-4.858 3.629-10.692 2.448-13.468-2.768-4.24-7.974-9.901-15.121-13.569-23.42-.463-1.047-1.416-1.045-2.232-1.379-2.609-2.789-3.838-6.272-4.887-9.843 2.597-2.502 6.072-3.251 9.234-4.624l24.06-4.18v-.001Z" fill="#ABD7F5"/><path d="M244.3 319.011c.219.269.435.538.657.807l-19.771.114c-2.482-.926-3.343-3.08-3.865-5.366-1.825-8.016-5.537-15.322-8.453-22.928-1.266-3.304-3.492-4.871-7.077-4.67-2.457.137-4.933.11-7.394.008-3.21-.135-4.551 1.4-4.315 4.464.682 8.883.219 17.789.563 26.68.167 4.276-.006 8.578-1.708 12.637-3.715 0-7.429 0-11.142-.004a2.61 2.61 0 0 0-.246-.701l.2-43.466c.576-5.216.613-10.431-.029-15.645-.017-.384-.036-.767-.052-1.153.002-10.352.05-20.701-.027-31.048-.019-2.486.404-4.593 2.673-5.965 3.434-.353 5.133 2.327 7.192 4.248 1.79 1.671 3.469 3.494 5.108 5.296 3.239 3.566 7.294 4.931 11.824 5.494 1.702.686 2.215 2.19 2.163 3.756-.128 4 1.785 7.048 4.14 10.003 4.705 5.909 9.133 12.037 13.876 17.914 2.336 2.893 3.5 6.026 3.45 9.774-.102 7.554-.052 15.109-.021 22.665.023 5.621.165 5.694 5.634 5.849 2.25.064 4.669-.545 6.617 1.237h.003Z" fill="#E38101"/><path d="M222.402 137.91c-6.065-.661-11.169 2.599-16.577 4.368-2.98.974-3.039 5.009-4.632 7.544-1.677 2.669-2.774 5.706-4.562 8.482-1.597-11.377-1.182-22.713-.94-34.014.081-3.775 1.445-7.375 6.98-6.478 6.174 1.001 10.442-.984 12.062-8.003.882-3.821 3.855-7.175 5.974-10.685.874-1.447 2.06-2.726 1.576-4.613-.986-2.735.878-4.435 2.276-6.308.58-.515.949-1.19 1.404-1.806 2.39-3.235 3.422-3.164 5.612.292 4.51 7.11 8.664 14.433 12.673 21.829 1.518 2.801 3.31 4.232 6.514 3.85 3.537-.421 5.975.956 6.914 4.56.88 8.251-.359 9.686-8.422 9.763-1.389.013-2.778 0-4.168.006-6.526.034-6.615.023-7.489 6.679-.359 2.74-1.75 4.146-4.324 4.63-3.619-.377-7.256.615-10.877-.092l.006-.004Z" fill="#C6D822"/><path d="M207.796 248.319c-6.975 1.064-10.883-3.846-14.946-8.027-2.672-2.752-5.164-5.599-8.533-7.519-1.81-2.174-2.907-4.881-5.988-6.018-2.004-.74-2.113-3.178-2.338-5.189-.743-6.651-2.073-13.221-1.041-20.033.505-3.339 1.992-4.055 4.862-3.896 2.451.135 4.916.046 7.375.054 1.393 1.283 1.443 3.037 1.31 4.666-.342 4.196 1.823 5.164 5.527 5.074 4.086-.1 8.205-.436 12.272.344 2.858 1.31 1.362 2.993.157 4.303-1.756 1.909-3.809 3.546-5.584 5.45-2.509 2.693-2.384 3.072 1.2 3.867 1.045.231 2.123.29 3.17.561 3.081.763 6.655.966 6.353 5.579-1.485 4.679-.861 9.432-.524 14.181.201 2.82.407 5.684-3.27 6.603h-.002Z" fill="#DAAC95"/><path d="m225.134 88.948-2.849 5.565c-4.086 4.98-7 10.725-10.133 16.281-2.14 3.798-4.553 5.804-9.048 5.31-3.026-.334-6.119-.065-9.181-.065-.025-8.851-.05-17.703-.079-26.555 9.823-5.398 19.651-10.795 29.477-16.195 2.518 2.598 3.523 5.998 4.885 9.21-.686 2.311-1.754 4.44-3.074 6.45h.002Z" fill="#FDFCFB"/><path d="M207.621 208.906c-5.173-.046-10.354-.301-15.514-.067-3.652.167-5.439-.788-4.945-4.762.261-2.098.033-4.255.025-6.386l.196-10.164c4.478 6.756 11.292 3.761 17.243 3.942 2.895.088 2.436-2.544 2.25-4.551.509-4.86 4.13-6.605 8.051-8.053.596.451.88 1.083 1.034 1.788.167.876.182 1.773.278 2.655 1.245 4.568 5.594 6.002 8.743 8.647 2.941 3.212 6.42 5.06 10.931 4.543a4.21 4.21 0 0 1 3.037.813c.549.716.194 1.27-.317 1.796-4.712 3.335-9.676 4.441-15.002 1.518-3.096-1.697-5.279-.621-7.655 1.675-2.536 2.453-4.274 6.07-8.355 6.604v.002Z" fill="#B18976"/><path d="M222.402 137.91c3.462-1.712 7.031-1.75 10.668-.672 9.342 1.264 18.651 2.647 27.075 7.319.695 5.842-1.026 7.557-6.618 5.997-6.368-1.777-12.777-3.419-19.107-5.313-3.784-1.132-7.246-.867-10.727.808-1.8.865-3.594 1.747-5.483 2.421-4.259 1.518-6.493 4.535-6.702 9.05a4.71 4.71 0 0 1-.738 2.084c-2.691 1.67-5.719 2.542-8.654 3.65-1.831.169-3.504-.055-4.519-1.863 2.559-5.173 5.06-10.376 7.715-15.499.776-1.495 2.165-2.384 3.875-2.974 4.451-1.537 8.816-3.323 13.215-5.01v.002Z" fill="#8F609D"/><path d="m197.596 161.393 4.362 1.327c1.578 1.399 1.366 3.318 1.414 5.12.091 3.517.206 7.046-.015 10.55-.234 3.7.528 6.649 4.303 8.115 1.737 5.938 1.303 6.61-4.307 6.622-2.916.007-5.865-.285-8.739.057-4.487.536-7.359-.524-7.231-5.661-.839-5.444 1.416-10.082 3.873-14.648 2.071-3.85 4.225-7.659 6.342-11.484l-.002.002Z" fill="#BC0544"/><path d="M163.929 259.897c-2.851-.258-3.091-2.649-3.798-4.657.803-.084 2.478.699 2.246-.398-.721-3.39 1.5-7.709-2.861-10.041 1.186-.023 2.371-.046 3.558-.071 1.545 4.983 1.222 10.072.857 15.165l-.002.002Z" fill="#B6D4BD"/><path d="M181.723 270.939c1.241 5.214 1.197 10.431.029 15.647-.008-5.216-.019-10.431-.029-15.647Zm11.216 59.816c.771-7.938-.161-15.897.49-23.869.471-5.785-.263-11.678-.595-17.516-.154-2.73.72-4.085 3.64-3.802 1.529.148 3.085.021 4.628.019 11.949-.008 12.141.38 15.791 12.035 2.367 7.56 5.502 14.881 8.293 22.308 1.028 3.048 1.756 6.239 3.145 9.113 3.254 6.735 3.794 13.803 3.504 21.099-.096 2.407-.955 3.252-3.31 3.162-3.377-.127-6.764-.096-10.143.019-1.866.062-3.053-.722-4.348-2.011-6.961-6.925-14.05-13.72-21.095-20.559v.002Z" fill="#CD967E"/><path d="m326.205 238.358-12.917 2.703c-2.575 2.155-5.172 3.527-7.89.202-.054-.613.198-1.368-.083-1.825-3.798-6.175-2.405-12.337-.311-18.642.82-2.465.33-5.214.334-7.834.019-13.582-.052-27.162.05-40.744.021-2.849-.359-6.038 3.093-7.563 3.556.428 6.77 1.627 9.375 4.195 2.317 5.762 1.076 11.738 1.039 17.643-.036 9.01-.075 18.02-.106 27.031-.011 2.767.175 5.55-.048 8.301-.255 3.118 1.558 4.972 4.025 5.199 3.36.309 3.646 2.067 3.462 4.593-.162 2.248 1.166 4.499-.023 6.743v-.002Z" fill="#FBFDF9"/><path d="M331.745 180.97c3.813-4.457 8.076-7.615 14.531-6.741 3.444.467 7.025-.075 10.543-.165 8.954.275 16.021 5.663 23.846 8.948 3.121 1.31 4.307 11.085 1.932 12.65-1.688-.624-2.18-2.226-2.526-3.646-1.176-4.818-4.249-7.607-8.82-9.107-1.448-.473-2.758-1.351-4.66-2.231 2.67 1.708 5.037 2.849 7.367 4.008 4.307 2.147 5.74 5.644 5.414 10.168-.821 1.152-2 .972-3.164.851-1.347-.327-2.019-1.418-2.428-2.538-1.51-4.142-4.446-6.795-8.409-8.46-1.51-.721-2.916-1.708-4.939-1.814-.426 2.455 1.143 5.179-.761 7.421-3.169.104-1.097-4.626-4.118-4.53-2.552.081-2.611 3.314-4.738 4.04-2.032.692-3.584.029-4.856-1.606-.644-.828-1.37-2.034-2.571-1.129-1.264.953-.607 2.188.091 3.277 2.092 3.258 6.416 4.219 10.249 2.38 1.344-.645 2.414-2.733 4.343-1.039.148.459.165.916.056 1.385-.603 1.358-1.322 2.62-2.709 3.341-1.249.422-2.474.555-3.606-.319l-7.202-.16c-1.287-2.09-3.926-3.029-4.716-5.54-.934-1.03-.538-2.691-1.946-3.907-1.702 4.806-5.648 5.519-9.899 5.659-1.408-2.301.878-3.047 1.825-4.368.73-1.017 2.979-1.656.903-3.42-.605-1.4-.496-2.597.968-3.408Z" fill="#0F0D54"/><path d="M323.36 188.399c-1.101-.678-2.2-1.358-3.302-2.036-1.933-1.153-1.695-3.064-1.731-4.895-.096-4.891.382-9.805-.555-14.665.282-1.889 1.452-3.172 2.916-4.25 1.748-1.164 3.458-2.392 5.185-3.592 1.291-.897 2.589-2.254 4.418-1.007.824 3.302 1.427 6.662 2.584 9.878l-.129.381c-.223.403-.332 1.008-.666 1.189-6.563 3.598-7.147 9.643-6.659 16.14-.246 1.27-.659 2.423-2.059 2.859l-.002-.002Z" fill="#EB9018"/><path d="M328.049 192.166c3.197-1.929 7.815-1.873 9.023-6.62.181-.711.997-1.644 2.117-1.179.828.344.851 1.185.838 1.948-.025 1.367-.088 2.733-.133 4.099-.718.029-1.963-.155-2.074.117-2.396 5.967-6.384 1.991-9.771 1.635Z" fill="#6C798D"/><path d="m323.36 188.399 1.048-2.956c1.737-1.578 2.942-3.835 5.527-4.327l1.81-.144c-.321 1.136-.644 2.273-.968 3.408-1.766 1.355-3.595 2.64-5.272 4.098-.876.761-1.46.885-2.147-.079h.002Z" fill="#4E1738"/><path d="M318.584 166.464c.934 4.694.11 9.429.296 14.143.079 2.015.223 3.95 1.176 5.756l-1.164.125c-2.018-3.616-.742-7.55-1.076-11.329-.185-2.113.438-4.336-.965-6.259.315-.999-.484-2.789 1.731-2.436h.002Z" fill="#EFE8BA"/><path d="M355.625 195.536c.309-1.149.874-2.11 1.969-2.684 4.198-.374 6.666-2.673 7.404-6.897.132-.755.351-1.465.953-1.99 6.41 1.301 7.976 6.835 10.258 11.742-.872 1.427-2.928.311-3.788 1.765l-.452.008-.449-.05c-3.276-1.441-6.643.177-9.955-.288-2.056-.29-4.353.399-5.94-1.604v-.002Z" fill="#A2B8B3"/><path d="M379.373 194.854c-.912-7.671-7.177-9.871-12.867-12.727-.941-.473-2.901-.746-2.415-2.133.665-1.905 2.3-.766 3.483-.215 3.191 1.483 6.557 2.724 9.465 4.649 3.873 2.565 3.731 7.463 5.558 11.238-1.697 2.213-2.342.219-3.226-.81l.002-.002Z" fill="#786EB6"/><path d="M305.87 241.055c2.472 1.906 4.943-.14 7.417.004 4.87 1.464 5.035 3.154.84 8.631-2.083 3.543-4.761 3.683-7.863 1.37-.98-.73-2.077-1.345-2.924-2.211-4.436-4.536-9.64-6.238-15.839-4.493-.444.128-.888.247-1.322.393-.407.221-.851.433-1.093.813-3.617 5.715-8.647 6.641-14.513 2.649l-.892-5.096c-.907-2.548 1.174-4.142 1.952-6.157 2.046-3.937 3.425-8.224 6.142-11.813 1.44-.922 2.935-.67 4.439-.2 2.54.792 3.101 2.377 1.652 4.551-1.535 2.304-3.435 4.342-5.056 6.586-.532.739-1.208 1.7-.336 2.47.935.826 1.629-.15 2.278-.766 2.886-2.749 5.533-6.015 10.282-4.682 4.958 2.626 10.802 3.596 14.834 7.949l.002.002Z" fill="#EB950E"/><path d="M270.571 248.211c1.524.167 3.103.138 4.565.536 4.437 1.214 8.166 1.393 8.913-4.586.119-.945 1.057-1.465 2.152-1.175.419.536.33 1.114.192 1.725-.453 2.011-2.632 4.324 1.11 5.569 3.224 1.072 8.718.056 9.811-1.969.844-1.564-.165-2.267-1.389-2.747-1.604-.626-3.34-.256-4.985-.509-1.404-.217-3.504.507-3.577-2.081 7.923-2.445 13.605 1.785 18.846 6.668 2.891 2.692 5.265 2.438 7.918.046l3.654-1.287c.576 1.114.006 1.681-.978 2.05-2.985.202-4.843 2.484-6.894 4.128-2.667 2.137-.525 3.735 1.335 5.078-4.006.399-7.9.591-11.106-2.659-1.254-1.27-3.164-.922-4.843-.922-5.665-.004-11.346-.252-16.992.082-4.201.248-7.215-.368-7.599-5.294-.056-.72-.573-1.402-.878-2.102.248-.184.499-.367.749-.553l-.004.002Z" fill="#532E31"/><path d="M316.804 250.453c.325-.684.653-1.366.978-2.05 1.575-.872 3.274-1.579 4.699-2.651 3.379-2.545 5.725-1.635 7.494 1.889-3.425 3.121-7.104 5.584-12.083 4.718l-1.088-1.904v-.002Z" fill="#180C4F"/><path d="M355.625 195.536c3.83.098 7.661.178 11.49.305 1.625.054 3.484-.444 4.405 1.589-4.701.39-8.716 3.506-13.734 3.066-3.279-.286-6.482.084-8.447-3.512.329-.908 1.935.206 2.478-.874 1.266-.19 2.536-.384 3.808-.576v.002Z" fill="#F0F4E3"/><path d="m272.451 237.29-2.77 5.823c-1.441 3.565-4.564 2.72-7.336 2.797-7.685 2.589-15.559 1.483-23.332.853-3.408-.275-3.173-3.733-3.206-6.317-.159-12.193.075-24.386-.14-36.579-.037-2.13.409-3.988 2.432-5.117l1.314-.951c.713-1.162 1.911-1.197 3.066-1.33 4.326.707 7.644-1.214 10.356-4.105-2.501-1.16-6.024.899-8.354-2.038a2.61 2.61 0 0 1-.173-1.293c1.771-3.683 4.293-7.077 4.401-11.407a1.758 1.758 0 0 1 1.022-.792c5.871-.712 8.435 3.802 10.963 7.602 1.67 2.515 3.291 3.222 5.925 2.67 2.186-.017 4.376-.186 6.537.288 4.426 1.906 3.381 5.762 2.982 9.133-.673 5.711-4.017 10.562-5.644 15.989-.306 1.02-.755 2.021-1.259 2.958-3.054 5.681-3.129 10.979 1.518 15.993 1.41 1.52 2.524 3.475 1.7 5.817l-.002.006Z" fill="#FEFEFE"/><path d="M238.101 198.755c-.428 1.136-1.287 2.3-1.216 3.403.832 13.078.191 26.164.258 39.241.017 3.381.887 4.622 4.412 4.505 6.922-.229 13.859-.021 20.79.006-2.269 7.278-3.318 14.826-4.541 22.303-.383 2.344-2.3 3.929-2.131 6.295-4.082 1.287-8.18.008-12.271.018-2.023.007-3.003-1.845-4.133-3.349-5.098-6.789-8.285-14.738-13.278-21.592-5.329-7.316-9.359-15.43-13.822-23.266-1.779-3.12-4.557-3.112-7.333-3.633-2.726-.06-6.608.284-7.544-1.802-.956-2.127 2.847-3.744 4.39-5.727 1.773-2.28 4.682-3.484 5.94-6.255 2.791-2.651 5.809-5.108 8.303-8.014 2.24-2.609 4.368-3.673 7.415-1.616 5.045 3.408 9.915 1.744 14.763-.524l-.002.007Z" fill="#C9EAF6"/><path d="M207.796 248.319c2.029-1.931 2.423-4.067 2.006-6.949-.586-4.038-.233-8.212-.267-12.327-.008-1.124.687-1.604 1.711-1.735 4.561 3.218 6.509 8.295 9.146 12.881 5.249 9.138 11.302 17.785 16.477 26.968.302.537-.002-.173.26.38 1.965 4.109 4.549 7.452 9.528 7.928 1.454 3.744.494 7.577.442 11.38-.027 2.027-1.531 1.437-2.63 1.626-2.601.449-6.368-1.487-7.586 1.46-1.37 3.317 1.861 6.074 4.078 8.105 6.812 6.245 6.096 13.376 3.343 20.976-13.582.368-13.332.359-13.69-13.037-.207-7.72 2.442-15.994-1.425-23.052-3.635-6.636-8.985-12.353-13.732-18.354-3.344-4.226-7.129-8.151-6.082-14.237.183-1.062-.703-1.608-1.577-2.009l-.002-.004Z" fill="#D4DD2A"/><path d="M246.654 275.463c-4.908.726-7.33-1.906-9.52-6.009-3.735-7-7.969-13.753-12.332-20.388-4.7-7.145-8.114-15.086-13.558-21.76-.584-3.698-4.04-3.406-6.411-4.62 6.766-1.512 8.816 3.9 11.148 8.124 5.725 10.37 12.544 20.054 18.471 30.285.993 1.714 2.042 3.418 2.82 5.233 3.625 8.443 11.017 8.276 18.398 8.18-2.83 1.979-6.03.454-9.016.955Z" fill="#D3E4B7"/><path d="M259.649 301.566c.052.196.045.39-.015.581l-12.262.353c-1.239-1.345-1.18-2.739-.054-4.084 2.98-3.556 14.6-6.81 18.888-5.318-1.691.984-3.573 1.749-5.027 3.009-1.562 1.352-4.004 2.822-1.528 5.456l-.002.003Z" fill="#946295"/><path d="M272.296 302.477c9.791-6.295 20.013-10.251 31.772-5.875-2.171.325-3.387 1.998-4.67 3.47-1.322 1.517-2.515 3.329-1.596 5.404.947 2.14 3.135 1.496 4.889 1.51 6.416.053 12.832-.02 19.245.048 1.421.015 3.125-.655 4.14 1.077-16.644.1-33.288-.716-49.93.108l-4.457-1.085c-.381-1.626-.167-3.178.607-4.657Z" fill="#FAE6B8"/><path d="M312.354 293.946c-5.669.142-11.144.128-16.662-2.265-4.31-1.866-8.952-.008-13.245 2.04-5.356 2.553-10.428 5.894-16.514 6.654l.828-1.763c2.108.392 3.264-1.276 4.851-2.109 4.034-2.117 8.076-4.44 12.4-5.716 4.747-1.402 9.74-2.622 14.727.037 4.163 2.219 9.114.524 13.461 2.178l.152.946.002-.002Z" fill="#961559"/><path d="m329.669 157.783-7.959 5.218c-9.803-3.766-20.058-5.986-30.19-8.568-4.777-1.216-9.378-3.003-14.215-3.958-1.405-.328-2.778-.783-4.171-1.158-4.484-1.677-9.563-1.531-13.655-4.416-5.15-2.494-10.877-2.997-16.26-4.694-3.362-1.06-6.771-1.98-10.154-2.964 2.351-.832 3.358-2.159 3.215-4.966-.349-6.789-.14-6.802 6.828-6.825 2.317-.006 4.633-.012 6.95 0 4.349.024 6.524-2.197 6.524-6.664 0-.926.025-1.852.039-2.78-.544-1.529-1.165-3.06 0-4.588.057-2.816.115-5.634.174-8.45 6.457-.475 12.316 2.121 18.327 3.748 7.581 2.053 7.264 2.268 7.631 10.293.207 4.487-.951 7.603-4.884 9.955-2.741 1.64-5.052 3.986-7.617 5.936-1.517 1.152-1.915 2.372-.626 3.886 5.298 6.218 11.428 9.924 20.058 7.373 6.382-1.885 13.123-1.059 19.662-2.048 4.841-.732 9.791-.868 14.698-1.018 5.776-.175 5.686.004 5.928 5.978.121 2.968-1.116 6.142.965 8.91.18 1.024-.252 1.62-1.268 1.804v-.004Z" fill="#EFE8BA"/><path d="M329.67 157.783c.423-.601.845-1.204 1.268-1.804 3.961-3.515 8.447-5.561 13.88-4.958 2.971.995 6.842-1.869 9.105 2.132-6.247 4.997-13.645 8.461-19.187 14.399l-1.862.278c-3.799-2.478-2.741-6.506-3.204-10.047Z" fill="#82665B"/><path d="M368.826 155.876c-4.317-.371-8.762 1.164-12.971-.859 4.303.615 8.744-.866 12.971.859Z" fill="#6560A3"/><path d="M329.935 181.116c-1.683 1.645-2.849 3.956-5.53 4.33-.047-.457-.064-.918-.15-1.367-1.46-7.587 1.279-12.925 8.489-15.87l8.873 3.352c-5.298 2.449-9.113 5.308-11.682 9.555Z" fill="#DF084F"/><path d="M256.62 111.418v4.588c-1.475-2.866-4.103-2.914-6.766-2.667-2.985.275-4.547-.987-6.151-3.625-4.386-7.215-7.542-15.099-12.543-21.996-2.278-3.142-3.171-4.1-4.595.204-.15.453-.941.693-1.433 1.028.538-2.382 1.62-4.5 3.072-6.449 1.748-.92 2.785-.45 3.496 1.448 3.427 9.158 10.236 16.425 14.237 25.279.965 2.14 3.062 2.269 5.156 2.185 1.839-.073 3.685-.002 5.527.005Z" fill="#B9DA9C"/><path d="M207.66 186.507c-4.28.701-6.038-.749-5.725-5.414.406-6.099.052-12.25.025-18.375 2.442-1.677 4.926-3.256 8.053-3.227 6.824 1.105 13.699.473 20.55.594 2.434.042 4.117-.809 4.493-3.479.171-1.209.573-2.386 1.725-3.099 2.254-.993 4.342-.275 6.413.615 1.984 1.314 4.681 1.581 5.849 4.101 2.35 5.072-.29 8.113-7.159 8.222-3.23-.075-6.532-.455-9.243 1.958a26.19 26.19 0 0 1-1.654 1.118c-5.507 2.849-10.056 7.311-15.944 9.524-2.444 2.507-6.474 3.441-7.385 7.462h.002Z" fill="#EC9211"/><path d="M230.588 168.676c.354-.208.707-.419 1.061-.627 2.618-1.479 5.321-1.894 8.368-1.444 3.94.582 7.905 1.104 11.941.947 5.004-.196 9.298 1.646 12.971 5.106 3.01 2.837 6.357 5.312 9.012 8.454.132.667.887-.132.336.148-.215.108-.265-.017-.375-.282-.534-1.266-.647-2.376.913-2.995 2.501 1.979 1.548 4.697 1.558 7.21-.189 1.01-.513 1.944-1.512 2.451-4.244-2.276-7.573-5.744-11.25-8.754-12.018-9.838-24.657-7.967-36.719-2.077-2.301 1.124-3.604 3.769-5.627 5.454-1.748 1.312-3.632 2.069-5.853 1.389l-.077-2.876c2.49-4.658 7.707-5.826 11.45-8.885 1.287-1.051 2.96-1.629 3.803-3.214v-.005Z" fill="#492D88"/><path d="M242.83 197.555c-1.139.082-2.277.165-3.416.246-5.073-.619-10.825 1.118-14.552-4.175-.342-.486-.584-1.045-.872-1.569-1.349-2.286-1.262-4.636-.332-7.031 3.037-2.442 5.169-.502 7.286 1.508.686 3.988 2.626 6.032 6.974 4.699 1.475-.452 3.045-.2 4.514.334 1.316.478 2.597 1.014 2.768 2.691.183 1.802-.593 2.905-2.368 3.295l-.002.002Z" fill="#CDD955"/><path d="m224.329 184.536-.34 7.521c-3.615-2.031-7.768-3.512-8.579-8.405 1.71-.605 3.417-1.212 5.125-1.817 1.71-.588 2.84.311 3.86 1.504.19.409.167.809-.066 1.197Zm6.259-15.859c.413 2.008-1.087 2.559-2.428 3.355-4.455 2.647-8.837 5.413-12.827 8.746-.094-.578-.192-1.156-.288-1.733 4.73-4.132 10.063-7.359 15.541-10.368h.002Z" fill="#5E3346"/><path d="M242.784 155.024c-1.884-.443-3.765-.887-5.649-1.329-.611-.038-1.311.259-1.82-.067-7.1-4.549-13.078-1.182-19.095 2.539-1.7 1.051-3.325 3.026-5.786 1.614-.144-7.97.424-6.943 7.125-10.654 8.977-4.97 17.22-3.792 25.992-.688 3.321 1.174 6.766 2.008 10.178 2.909 5.484 1.446 5.511 1.4 5.746-4.449 4.796.568 9.432 1.775 13.937 3.496 2.126 3.379 1.548 7.067.86 10.604-.53 2.73-5.465 4.684-10.137 4.505-1.387-.054-2.663-.586-4.009-.784-6.641-.62-11.267-5.794-17.345-7.699l.003.003Z" fill="#321B7E"/><path d="M210.436 157.779c2.828-1.462 6.005-2.499 8.42-4.468 6.363-5.187 12.272-3.385 18.281.384-.24.392-.607.757-.694 1.182-1.396 6.733-1.387 6.756-8.416 6.791-4.631.023-9.263-.014-13.893-.035-1.729-.008-3.473-.023-4.117-2.14.139-.571.279-1.143.421-1.714h-.002Z" fill="#CBE8F2"/><path d="M305.869 241.055c-5.087-2.438-10.174-4.874-15.261-7.313-1.898-1.299-2.18-2.82-.688-4.636.784-.953 1.564-1.932 2.517-2.693 5.552-4.432 8.326-9.876 7.59-17.245-.634-6.355.521-12.816-3.058-18.844-2.135-3.596-5.569-6.756-5.423-11.498-.168-3.696-.289-7.38-.068-11.069.189-3.154 1.833-4.743 4.959-4.881 3.227-.14 6.46-.259 9.672.071 1.416.146 3.22.086 3.352 2.28-3.265.955-2.697 3.677-2.703 6.048-.03 15.407-.009 30.815-.011 46.224 0 1.996.079 3.984-.749 5.902-2.054 4.764-3.677 9.482.522 14.116.857.947.901 2.601-.653 3.538h.002Z" fill="#C9E9F3"/><path d="M309.462 165.227c-4.852-2.132-9.935-.716-14.905-.874-1.933-.061-1.662 1.869-1.683 3.208-.065 4.158-.077 8.319-.108 12.478-2.879.061-3.544-2.553-4.821-4.238-1.453-1.917-2.744-3.992-4.06-6.032a6.806 6.806 0 0 1-.501-2.019c.524-5.304-1.049-9.867-4.601-13.861-1.047-1.179-2.319-2.532-1.644-4.464 8.842 2.276 17.687 4.528 26.52 6.831 5.323 1.387 10.604 2.947 15.956 4.215 1.596.378 1.896 1.277 2.094 2.532a2770.71 2770.71 0 0 0-3.124 3.456c-.578.816-1.154 1.629-1.732 2.441l-7.391-3.673Z" fill="#98C1E4"/><path d="M357.739 192.17c-3.103.398-5.154 3.383-8.887 2.859-3.777-.529-5.746-2.795-7.452-5.435-1.175-1.817.041-3.652 1.883-4.539 1.877-.903 2.672.416 3.373 2.001 1.307 2.955 3.971 3.308 4.989.573 1.066-2.866 2.93-3.65 5.018-3.468 2.912.254 1.512 3.126 2.015 4.861.119.411.486.749.74 1.123.513 1.566-.286 2.042-1.679 2.025Z" fill="#274650"/><path d="M357.739 192.17c.759-.509 1.495-1.037 1.679-2.025.717-3.066.421-6.001-1.554-9.09 3.456-.237 5.596 1.852 8.086 2.91.036 1.502.144 3.007.092 4.507-.194 5.354-3.289 6.946-8.449 4.382.098-.217.148-.444.146-.684Z" fill="#F2F4F7"/><path d="M351.668 180.684c.836.115 2.035-.263 2.206.955.188 1.352-1.024 1.256-1.871 1.22-.922-.037-2.373.528-2.421-1.061-.038-1.246 1.235-1.002 2.083-1.114h.003Z" fill="#C4C3FA"/><path d="M284.481 169.515c3.621 2.832 4.68 7.682 8.286 10.524.499 3.813 3.331 6.52 5.185 9.524 2.174 3.525 2.854 7.014 3.11 10.831.125 1.844-.188 3.733.063 5.552 1.312 9.486-1.32 17.291-9.411 22.878-1.879 1.298-2.653 2.851-1.103 4.92-4.261-.498-6.679 2.318-9.138 5.071-1.068 1.195-1.9 3.17-3.992 1.383-1.883-1.608-1.374-3.102.132-4.702 1.257-1.334 2.304-2.867 3.468-4.292 1.053-1.287 3.237-2.54 2.57-4.061-.805-1.835-3.275-1.783-5.271-1.752-1.049-1.821.075-3.264.905-4.686 2.943-5.052 4.199-10.402 3.923-16.302-.302-6.441-.118-12.909-.058-19.37.344-5.185-1.456-10.552 1.329-15.522l.002.004Z" fill="#D3DD2F"/><path d="M284.16 185.396c.087 8.941.398 17.887.148 26.818-.098 3.468-2.384 6.515-4.092 9.546-.672 1.191-1.706 2.171-1.834 3.633-1.975 3.967-3.954 7.934-5.931 11.899-.778-3.76-3.511-6.415-5.532-9.429-1.702-2.539-2.19-4.624-.838-7.592 2.843-6.243 5.481-12.615 7.65-19.118 1.379-4.138 3.356-8.666-.348-12.829-.165-.841.108-1.22.999-.949.974-.399.557-1.354.815-2.038 2.998-1.52 5.986-1.679 8.963.056v.003Z" fill="#EFABB7"/><path d="M287.363 242.976c2.113 1.912 4.662.832 6.989.878 2.651.052 4.941 1.183 5.315 3.429.308 1.858-2.259 3.024-3.957 3.842-3.327 1.604-6.843.807-10.239.06-1.627-.359-2.108-1.698-1.489-3.237.676-1.679 1.477-3.308 2.223-4.958.386-.004.774-.008 1.16-.01l-.002-.004Z" fill="#181260"/><path d="M274.382 187.375c-.334.317-.667.632-.999.949h-7.356c-1.8-5.471-6.608-8.283-10.539-11.849-2.268-2.059-4.41-1.898-6.101.847l-.2-.15c-.507.59-1.412.853-1.759 1.435-2.747 4.609-5.94 6.934-10.837 2.628-.455-.399-1.206-.278-1.7.168-.699.63-.488 1.398-.106 2.09 1.17 2.13 2.767 3.523 5.387 3.723 1.575.121 3.794-.705 4.359 1.911l.167.248c-4.069 2.011-8.026 1.781-11.872-.59-2.067-2.584-4.48-5.006-4.084-9.173-2.377.89-2.379 3.7-4.511 3.952-1.233-.575-2.463-1.153-3.696-1.729 5.248-9.377 15.284-10.366 23.902-11.321 5.578-.62 12.938 1.009 17.883 5.877 3.884 3.822 9.182 6.078 12.062 10.984Z" fill="#110E52"/><path d="M244.532 189.129c-1.26-1.345-2.958-.964-4.37-.755-4.259.632-5.408-2.83-7.268-5.279-.651-.855-.524-2.14.521-2.897 1.145-.83 2.405-1.566 3.794-.486.851.661 1.533 1.552 2.422 2.146 2.192 1.466 4.348 1.542 4.87-1.506.515-3.022 2.427-3.164 4.688-3.18.895 4.939-1.278 8.682-4.655 11.957h-.002Z" fill="#29474D"/><path d="M232.537 187.333c3.566 3.579 8.08 1.525 12.161 2.042 2.931 3.106 6.971.699 10.56 2.288-3.621 3.258-6.672 7.258-12.429 5.89 2.347-3.702 1.944-4.82-2.094-5.243-1.332-.14-2.723.187-4.077.381-5.156.737-5.934.03-5.94-5.483.634-.373 1.237-.277 1.819.123v.002Z" fill="#D3E5ED"/><path d="M249.386 177.322c-1.059-4.011 1.59-4.537 4.04-3.373 4.896 2.326 8.496 6.501 12.221 10.341.732.755.281 2.659.377 4.034-2.922.803-4.386.194-5.998-3.008-2.007-3.981-5.125-7.98-10.64-7.994Z" fill="#9DABAB"/><path d="M277.139 149.425c1.103 1.64 2.017 3.459 3.348 4.885 3.637 3.894 4.634 8.399 3.664 13.491-2.058 2.242-4.701 2.477-7.22 1.418-4.852-2.04-9.807-3.669-14.876-5.039-1.224-.332-2.813-.755-2.48-2.71 1.782.301 3.571.899 5.342.847 6.914-.21 8.443-1.917 8.441-8.897 0-1.673.037-3.348.058-5.021 1.36-.087 2.62.19 3.725 1.031l-.002-.005Z" fill="#562A86"/><path d="M259.575 161.468c8.114 2.418 15.42 7.972 24.578 6.333.111.571.219 1.145.33 1.716-.107 5.289-.211 10.583-.319 15.876a8859.47 8859.47 0 0 1-8.965-.054c-.265-2.38.605-4.855-.607-7.154-3.694-1.875-7.022-4.361-10.401-6.693-4.918-3.395-10.066-4.657-15.96-4.257-2.415.165-5.492 1.127-7.227-1.942.757-.07 1.535-.06 2.269-.229 1.804-.419 4.731 1.423 5.029-2.115.225-2.672.64-5.683-3.275-6.466-.811-.162-1.497-.957-2.242-1.46 6.224.518 10.694 5.601 16.79 6.447v-.002Z" fill="#725352"/><path d="M241.002 165.294c2.772 1.38 5.817 1.086 8.601.663 7.699-1.168 13.155 3.36 18.953 6.954 2.236 1.387 5.338 2.029 6.03 5.272-.129 1.21-.263 2.418-.574 5.248-10.758-16.388-26.526-15.993-42.365-15.384 2.426-3.273 5.832-3.212 9.355-2.753Z" fill="#1E0A4D"/><path d="M241.537 163.323c-3.521-.038-3.586-.067-2.343-2.918.405-.928.34-1.379-.569-1.715-1.035-.381-1.625-1.174-.937-2.086.751-.994 1.932-.823 2.864-.085.826.653 1.475 1.533 2.311 2.171 1.337 1.018 2.92 1.867 3.235 3.665.146.83-.747 1.009-4.559.97l-.002-.002Z" fill="#F29309"/><path d="M232.536 187.333c-.605-.039-1.212-.081-1.819-.123-1.944-1.341-3.933-2.565-6.39-2.674l-.098-.969c.844-1.609 1.712-3.204 2.525-4.829.434-.865.928-1.604 2.032-1.429 1.201.19 1.345 1.177 1.214 2.076-.455 3.087.901 5.552 2.536 7.948Z" fill="#6F8079"/><path d="M243.488 176.339c-.87-.058-1.983.128-1.91-1.241.046-.855.663-1.264 1.572-1.211.928.054 1.984.056 1.975 1.272-.004.83-.755 1.241-1.637 1.18Z" fill="#DCDEFE"/></svg>