<svg width="191" height="255" fill="none" xmlns="http://www.w3.org/2000/svg"><path d="M149.6 158.394c.095 11.159-2.584 21.562-8.743 30.913-8.863 13.457-21.24 21.731-37.189 24.367-12.579 2.081-24.554.04-35.617-6.319-14.04-8.071-23.253-20.033-26.466-35.946-4.333-21.454 2.007-39.643 18.683-53.825 11.058-9.412 24.192-13.31 38.683-12.269 14.611 1.052 26.749 7.292 36.671 17.953a112.71 112.71 0 0 1 6.097 7.092c4.662 5.944 6.869 12.84 7.446 20.301.199 2.574.3 5.152.442 7.733h-.007Z" fill="#FDD030"/><path d="M175.698 158.56c-.623-43.388-35.879-79.515-80.84-79.613-44.38-.006-80.62 36.148-80.789 80.331-.175 44.821 35.872 80.884 79.996 81.313 45.3.448 82.283-36.516 81.633-82.034v.003Zm-34.841 30.747c-8.863 13.457-21.24 21.737-37.189 24.367-12.58 2.081-24.554.04-35.617-6.319-14.04-8.071-23.253-20.033-26.466-35.946-4.334-21.454 2.007-39.643 18.683-53.825 11.057-9.412 24.192-13.31 38.683-12.269 14.611 1.052 26.749 7.292 36.67 17.953a112.397 112.397 0 0 1 6.098 7.092c4.662 5.944 6.868 12.84 7.445 20.301.2 2.574.301 5.152.442 7.733.095 11.159-2.584 21.562-8.743 30.913h-.006Z" fill="#23558B"/><path d="M141.302 40.359c-.509.706-.537 1.59.16 2.348.322.35.555.785.939 1.356-1.228.181-2.274.322-3.308.503-1.133.194-2.281 2.228-1.885 3.287.409 1.087-.307 3.01-1.353 3.032-1.884.028-2.937 1.215-4.112 2.32-1.75 1.639-3.477 3.293-5.26 4.99.141.236.27.442.389.65.706 1.195.559 1.59-.739 2.026-.902.305-1.204.938-.906 1.9.267.865-.018 1.442-.911 1.59a5.201 5.201 0 0 1-1.811-.028c-12.02-2.541-24.164-3.081-36.393-2.335-6.596.408-13.144 1.154-19.657 2.307-.47.08-1.028-.383-1.55-.592.228-.417.464-.838.673-1.267.147-.304.43-.703.34-.927-.101-.249-.555-.482-.871-.497-1.108-.056-2.228-.022-3.65-.022.37-.537.538-.825.753-1.074.343-.408.736-.78 1.08-1.194.565-.678.632-1.206-.209-1.85-2.182-1.679-4.266-3.49-6.426-5.199-.377-.3-.94-.47-1.436-.525-1.697-.18-2.658-1.457-2.12-3.111.214-.657.094-1.069-.317-1.529-.497-.555-.927-1.175-1.46-1.697-.228-.215-.63-.307-.955-.34-.96-.102-1.924-.148-3.173-.237.61-.838 1.052-1.528 1.577-2.148.583-.678.697-1.289.215-2.115-1.504-2.59-2.47-5.386-2.434-8.405.034-2.468.98-4.711 2.302-6.764 1.967-3.054 4.809-4.932 8.258-5.972 3.382-1.013 6.838-.994 10.306-.81.74.04 1.482.31 2.212.267.424-.022.955-.362 1.216-.718 1.635-2.287 4.017-3.269 6.607-3.92 3.415-.859 6.81-.38 10.192.261 1.12.215 2.206.59 3.32.838.289.068.81.028.893-.135.645-1.227 1.295-2.467 1.743-3.771.175-.516.006-1.323-.31-1.805-1.141-1.725-1.556-3.366-.254-5.238.65-.94 1.012-2.081 1.516-3.122.1-.202.27-.374.49-.672.866 1.753 1.498 3.382 2.428 4.825.878 1.362.3 2.347-.408 3.41-.255.383-.537.751-.758 1.147-.488.865-.135 1.94.497 2.658.737.825 1.274 1.832 1.878 2.737 2.026-.47 4.159-1.181 6.341-1.415 2.534-.27 5.207-.561 7.653-.04 2.615.556 4.932 2.182 6.675 4.383.203.255.402.503.629.78 3.757-.492 7.522-.584 11.257.315 1.175.283 2.326.69 3.48 1.06 3.649 1.165 5.77 3.823 7.258 7.205.961 2.194 1.307 4.48 1.215 6.788-.067 1.59-.684 3.155-1.092 4.723-.16.617-.329 1.21-.737 1.777l.003-.01Z" fill="#FDD030"/><path d="M190.055 160.542c-.329 3.622-.577 7.495-1.062 11.34-.399 3.176-1.013 6.331-1.642 9.473-1.043 5.221-2.826 10.217-4.846 15.127-.948 2.308-1.841 4.665-3.047 6.841-3.078 5.548-6.347 10.998-10.499 15.838-2.771 3.232-5.582 6.442-8.544 9.495a50.664 50.664 0 0 1-6.294 5.481c-3.547 2.615-7.163 5.165-10.925 7.451-3.115 1.894-6.445 3.453-9.756 5-2.707 1.264-5.481 2.427-8.308 3.385-3.025 1.025-6.128 1.853-9.24 2.584-2.507.589-5.073.936-7.62 1.341-1.694.27-3.394.512-5.103.65-1.532.126-3.079.068-4.616.135-1.67.074-3.336.298-5.002.27-1.835-.03-3.665-.276-5.5-.42-1.786-.138-3.581-.181-5.352-.417-2.332-.313-4.674-.654-6.96-1.2-3.658-.872-7.31-1.802-10.895-2.931-2.743-.862-5.4-2.016-8.059-3.133a79.89 79.89 0 0 1-6.128-2.858c-2.4-1.255-4.806-2.534-7.068-4.017-2.657-1.743-5.223-3.646-7.721-5.613-1.894-1.491-3.686-3.124-5.407-4.815-2.49-2.443-4.843-5.024-7.307-7.494-1.826-1.832-3.25-3.968-4.834-5.987-2.203-2.811-4.072-5.825-5.898-8.869-.887-1.48-1.6-3.063-2.357-4.613-.896-1.832-1.863-3.64-2.609-5.533-1.408-3.588-2.823-7.184-3.968-10.861-.942-3.035-1.58-6.171-2.197-9.296-.497-2.525-.964-5.088-1.083-7.65-.215-4.634-.175-9.284-.206-13.924-.01-1.556.01-3.124.172-4.671.205-1.955.525-3.9.874-5.834.476-2.633.881-5.296 1.587-7.871.985-3.6 2.2-7.138 3.354-10.689.626-1.924 1.283-3.839 2.023-5.724.307-.785.963-1.433 1.283-2.215 1.328-3.263 3.375-6.12 5.118-9.143 1.286-2.234 2.99-4.219 4.367-6.407 1.658-2.637 4.045-4.625 5.966-7.025a36.948 36.948 0 0 1 3.315-3.646c1.645-1.568 3.461-2.952 5.088-4.536 2.992-2.912 6.558-5.054 9.91-7.472 2.246-1.62 4.8-2.815 7.214-4.199 1.473-.844 2.897-1.795 4.435-2.507 1.602-.74 3.327-1.215 4.974-1.866 10.858-4.278 22.109-6.53 33.789-6.693 13.202-.184 25.883 2.243 38.082 7.288 2.32.961 4.557 2.075 6.791 3.204 5.156 2.606 10.011 5.684 14.525 9.29 2.213 1.768 4.576 3.394 6.561 5.392 3.352 3.37 6.497 6.948 9.646 10.514a56.446 56.446 0 0 1 4.315 5.518c1.371 2.019 2.519 4.189 3.768 6.291a71.218 71.218 0 0 1 4.591 9.102c.685 1.654 1.627 3.21 2.21 4.895.924 2.679 1.789 5.395 2.421 8.154 1.041 4.542 2.069 9.106 2.732 13.712.573 3.986.632 8.05.939 12.352l.003.006ZM96.162 70.237C47.31 69.553 6.284 108.322 5.38 158.238c-.89 49.083 38.057 89.961 87.598 91.05 48.939 1.077 90.449-37.624 91.428-87.865.957-49.093-38.03-90.348-88.243-91.186ZM94.99.003c.865 1.755 1.497 3.382 2.424 4.821.878 1.366.3 2.348-.405 3.413-.252.383-.534.749-.758 1.148-.482.865-.135 1.94.5 2.654.737.826 1.27 1.832 1.878 2.74 2.023-.469 4.156-1.18 6.341-1.414 2.535-.27 5.208-.559 7.65-.04 2.615.556 4.932 2.185 6.678 4.386.2.251.402.503.629.782 3.757-.494 7.525-.586 11.254.313 1.178.282 2.323.694 3.48 1.062 3.649 1.16 5.77 3.82 7.255 7.206.964 2.19 1.31 4.48 1.215 6.788-.064 1.587-.681 3.155-1.089 4.72-.16.62-.329 1.21-.74 1.78-.509.703-.534 1.59.163 2.345.322.35.552.788.939 1.356-1.228.184-2.274.322-3.311.503-1.13.197-2.278 2.231-1.882 3.29.408 1.087-.303 3.01-1.35 3.026-1.884.034-2.937 1.221-4.112 2.323-1.746 1.639-3.477 3.293-5.263 4.984.144.24.27.445.392.65.703 1.197.562 1.59-.739 2.03-.902.302-1.204.935-.906 1.899.267.862-.018 1.44-.911 1.586a5.039 5.039 0 0 1-1.808-.027c-12.02-2.538-24.164-3.081-36.396-2.332-6.596.405-13.144 1.153-19.654 2.304-.47.083-1.034-.38-1.552-.589.227-.424.466-.84.675-1.27.147-.304.43-.7.337-.924-.101-.249-.555-.482-.868-.497-1.111-.059-2.231-.022-3.652-.022.374-.537.54-.825.752-1.077.346-.411.736-.783 1.08-1.194.565-.678.632-1.209-.206-1.85-2.185-1.68-4.265-3.487-6.426-5.196-.383-.304-.942-.473-1.44-.525-1.696-.18-2.654-1.46-2.12-3.109.212-.656.095-1.07-.316-1.528-.497-.558-.93-1.178-1.46-1.697-.222-.215-.624-.304-.958-.34-.958-.102-1.921-.148-3.17-.237.607-.838 1.05-1.528 1.577-2.148.58-.684.694-1.292.215-2.12-1.504-2.59-2.474-5.384-2.434-8.403.034-2.47.98-4.714 2.302-6.767 1.97-3.057 4.809-4.932 8.261-5.972 3.382-1.016 6.835-.998 10.303-.81.742.04 1.482.31 2.212.267.424-.025.955-.363 1.212-.722 1.636-2.286 4.02-3.268 6.608-3.919 3.418-.862 6.813-.38 10.192.261 1.12.212 2.21.59 3.323.838.285.064.807.025.893-.138.641-1.228 1.295-2.467 1.743-3.772.175-.515.006-1.325-.31-1.804-1.141-1.731-1.556-3.37-.257-5.242.65-.939 1.01-2.08 1.516-3.12.098-.203.27-.372.49-.673l.004.003ZM75.14 45.711c.522 2.645 1.964 3.71 4.472 3.459 1.875-.188 2.531-1.022 2.258-2.854-.067-.46-.252-.964-.135-1.381.243-.863.55-1.744 1.034-2.486.215-.329 1.071-.599 1.372-.43.479.27.908.89 1.044 1.44.22.892.16 1.85.276 2.777.107.853.436 1.583 1.329 1.924 3.06 1.17 5.659-.206 6.395-3.394.255-1.102.016-1.467-1.09-1.593-1.7-.196-3.369-.28-4.259 1.381-.423-.743-.74-1.458-1.203-2.062-.482-.633-1.221-1.087-1.639-1.753-.598-.96-.319-1.377.786-1.491 1.004-.104 1.172-.503.865-1.442-.276-.841-.353-1.747-.54-2.76H90c-.105-.524-.27-.941-.243-1.34.028-.369.16-.897.424-1.056 1.264-.764 1.286-.727.331-1.9a8.8 8.8 0 0 1-.519-.687c-.834-1.258-.8-1.83.093-3.087.15-.212.236-.52.236-.783.018-2.688.024-5.38-.01-8.068-.002-.27-.257-.706-.484-.777-3.296-1.03-6.629-1.902-10.13-1.54-3.775.393-6.47 2.946-7.185 6.662-.546 2.845.178 5.386 1.688 7.777.675 1.065 1.099 2.173.295 3.388-.135.203-.23.463-.252.703-.034.402.006.81.015 1.218.39-.107.798-.172 1.16-.34.326-.151.599-.418.903-.639 0 .927-.046 1.75.012 2.563.07.994.356 1.104 1.218.567.138-.086.28-.172.491-.3.767 1.9 1.961 3.286 4.076 3.848-1.166.967-2.342 1.715-2.504 3.25-.022.196-.528.42-.841.49-1.182.268-2.376.477-3.625.716h-.009Zm28.934-10.824c-.145.964-.129 1.783-.406 2.489-.506 1.289-.423 1.574.992 1.639.804.036 1.019.503.718 1.034-.442.782-.995 1.574-1.694 2.108-.494.378-.856.666-.906 1.295-.027.329-.138.654-.26 1.203-1.157-2.071-2.907-1.863-4.65-1.657-.89.108-1.095.632-.908 1.458.7 3.066 2.593 4.29 5.708 3.661 1.393-.282 1.881-.776 2.078-2.2.107-.78.196-1.572.202-2.357.006-.89.31-1.737 1.176-1.771.598-.025 1.442.506 1.779 1.037.406.639.455 1.538.525 2.336.049.558-.227 1.144-.169 1.7.05.497.218 1.138.571 1.415 1.277.997 2.772.936 4.183.352 1.298-.533 1.854-1.672 2.004-3.139-1.246-.236-2.397-.482-3.557-.669-.607-.098-.865-.396-1.083-.979-.246-.66-.718-1.255-1.16-1.82-.279-.356-.691-.61-1.129-.988 2.133-.552 3.345-1.976 4.038-3.787.507.2.952.371 1.394.543.119-.494.306-.985.343-1.485.043-.626-.037-1.261-.067-1.93.706.423 1.35.81 1.995 1.193l.377-.22c-.163-.654-.187-1.385-.513-1.94-.715-1.218-.313-2.25.289-3.302.267-.467.568-.915.81-1.394 2.848-5.652.295-13.708-8.43-13.128-2.618.175-5.199.948-7.783 1.513-.273.058-.632.561-.638.862-.05 2.688-.04 5.38-.015 8.071 0 .283.144.63.337.835.731.776.721 1.623.249 2.477-.329.589-.752 1.132-1.182 1.657-.478.586-.325 1.086.301 1.255 1.074.285 1.003.92.755 1.725-.077.251-.052.537-.083.914h3.815l-.006-.006Zm-36.342 1.142 2.378.245c.402-.767.786-1.375 1.037-2.035.139-.365.228-.914.053-1.206-1.783-2.952-2.79-6.125-2.827-9.575-.006-.69-.215-.99-.871-1.046-2.354-.196-4.702-.451-7.059-.583-2.62-.147-4.925.654-6.886 2.464-1.894 1.747-2.222 3.935-2.195 6.362.019 1.473.136 2.848.921 4.106.577.93.78 1.93.531 2.983-.427 1.805.242 3.112 1.565 4.337 2.035 1.88 1.977 1.942 4.564.825.196-.086.396-.172.598-.245 1.166-.418 1.78-.194 2.467.834.89 1.326.267 2.633-.055 3.925-.196.79-.598 1.4-1.568 1.538-.786.113-1.19.942-.77 1.433.834.973 1.85 1.743 3.216 1.697 1.215-.043 1.703-.942.89-1.78-1.093-1.126-.66-2.234-.267-3.37.319-.93 1.07-1.193 1.995-1.003.874.181 1.255.73 1.221 1.617-.022.537 0 1.078.058 1.611.028.261.11.58.286.75.853.819 3.194.948 4.18.266 1-.69 1.463-2.458.988-3.744-1.4-.258-2.689-.092-3.858 1.304.138-2.092-.7-3.02-2.427-3.228-.332-.04-.62-.424-1.124-.792 2.37-.853 2.747-2.516 2.495-4.52h2.345l-1.884-3.17h.003Zm49.731 10.547c.111.804.132 1.556.332 2.26.392 1.374 1.598 1.99 3.259 1.78 1.737-.225 2.105-.612 2.212-2.343.013-.214.034-.432.019-.644-.068-.948.38-1.482 1.301-1.654.97-.184 1.626.22 1.936 1.117.384 1.114.728 2.182-.322 3.26-.755.773-.344 1.57.758 1.712 1.173.153 2.081-.455 2.888-1.185.279-.255.605-.755.525-1.034-.101-.36-.586-.61-.915-.9-.454-.398-1.12-.705-1.332-1.202a8.818 8.818 0 0 1-.641-2.812c-.104-1.617 1.467-2.703 2.977-2.145.604.224 1.191.5 1.777.764.85.384 1.611.25 2.271-.401.69-.679 1.344-1.394 2.05-2.057.57-.537.73-1.12.65-1.915-.147-1.479-.445-3.007.51-4.373.923-1.32.96-2.805.798-4.324-.126-1.163-.013-2.437-.464-3.462-1.086-2.467-3.084-4.066-5.748-4.581-3.354-.645-6.715-.31-10.038.356-.276.055-.657.552-.663.853-.074 3.501-1.086 6.7-2.922 9.66-.138.222-.205.617-.101.835.384.792.853 1.544 1.301 2.327l2.317-.261-1.872 3.142h2.351c0 .491.049.884-.009 1.258-.209 1.357.623 2.115 1.559 2.836.224.172.408.396.611.599-.267.193-.519.524-.804.558-1.707.2-2.572 1.099-2.526 2.995-1.087-1.304-2.431-1.243-4.048-1.015l.003-.004Zm-22.43 10.628v.095c1.212 0 2.427-.01 3.64.003.582.006 1.14-.077 1.16-.785.018-.719-.553-.832-1.127-.838-2.394-.019-4.787-.065-7.178-.01-.368.01-.724.482-1.086.74.35.264.684.727 1.055.758 1.17.098 2.354.037 3.532.037h.004ZM82.984 56.01c-2.421.267-4.52.464-6.604.767-.32.046-.565.577-.847.887.347.224.712.663 1.04.639 2.1-.16 4.199-.387 6.282-.688.356-.052.642-.57.96-.875-.328-.288-.656-.576-.83-.727v-.003Zm15.83-4.806c-1.292-1-2.624-2.031-3.873-2.995-1.305.997-2.64 2.02-3.913 2.995h7.785Zm8.531 5.006-.81.755c.328.291.623.782.985.837 1.835.292 3.683.51 5.536.651.375.028.78-.378 1.172-.583-.306-.316-.576-.85-.926-.908-1.869-.304-3.757-.492-5.957-.755v.003Zm-4.435-4.858 6.5.417c-1.175-.746-2.332-1.476-3.495-2.216l-3.005 1.799Zm-18.968-1.808c-1.16.752-2.262 1.467-3.474 2.25l6.438-.455-2.964-1.798v.003ZM64.53 60.669c1.126-.283 2.114-.473 3.053-.801.255-.09.547-.642.485-.903-.055-.242-.589-.577-.859-.534-.982.157-1.96.403-2.9.737-.24.083-.454.623-.427.933.022.227.455.414.648.57v-.002Zm51.812-10.161c-1.228.583-2.388 1.135-3.431 1.632 1.765.233 3.689.488 5.683.755l-2.252-2.387Zm-42.796-.013c-.656.69-1.439 1.513-2.286 2.406 2.023-.27 3.959-.53 5.653-.758-.998-.488-2.154-1.052-3.367-1.648Zm49.511 8.09c-.185.172-.626.396-.66.669-.034.273.273.773.54.869.77.273 1.59.46 2.406.543.291.03.623-.338.936-.525-.203-.332-.335-.853-.617-.958-.767-.279-1.599-.383-2.602-.598h-.003Zm-52.276-.298c.034.817.482 1.305 1.255 1.326.783.025 1.299-.466 1.32-1.252.019-.78-.451-1.301-1.249-1.317-.789-.018-1.24.452-1.326 1.243Zm15.866-3.142c-.767.089-1.264.472-1.282 1.289-.019.822.478 1.285 1.249 1.304.782.018 1.292-.466 1.304-1.258.012-.789-.479-1.225-1.27-1.332v-.003Zm31.033 4.667c.764-.098 1.286-.475 1.289-1.291.006-.817-.525-1.28-1.28-1.29-.761-.009-1.28.449-1.276 1.274 0 .813.481 1.218 1.267 1.307Zm-12.874-3.443c-.129-.675-.503-1.209-1.313-1.194-.792.013-1.262.473-1.265 1.283-.003.826.503 1.268 1.274 1.277.795.01 1.206-.507 1.307-1.366h-.003ZM95.48 25.914c-1.093.16-1.538.546-1.504 1.335.03.733.479 1.154 1.166 1.154.74 0 1.31-.488 1.194-1.213-.083-.51-.617-.942-.853-1.276h-.003Zm.853 13.632v-.522c-.476-.316-.927-.832-1.436-.9-.737-.098-1.286.526-1.124 1.225.108.454.734 1.077 1.151 1.096.457.018.94-.571 1.412-.896l-.003-.003Zm38.864 7.936c-.476.706-.976 1.126-.936 1.485.04.371.611.681.948 1.019.338-.338.906-.65.943-1.019.036-.362-.47-.776-.955-1.485Zm-18.514-3.754c.484-.715 1.006-1.144.954-1.488-.058-.377-.614-.88-1.013-.936-.273-.04-.893.574-.905.915-.015.386.473.791.961 1.513l.003-.004Zm-42.158-1.273c0-.147 0-.295-.003-.442-.402-.26-.844-.77-1.194-.715-.377.061-.868.623-.93 1.025-.04.258.596.865.94.875.386.012.788-.473 1.187-.743Zm-18.272 6.653c0-.144.003-.291.006-.435-.392-.27-.791-.759-1.178-.75-.344.007-.98.611-.94.872.062.405.544.973.921 1.034.35.059.792-.457 1.194-.72h-.003Zm40.328-29.66c-.675-.445-1.08-.921-1.463-.903-.332.016-.936.66-.884.902.089.396.583.89.976.964.3.055.709-.473 1.368-.963h.003Zm28.645 34.709c-1.206-1.593-1.273-1.608-3.167-.626 1.077.211 2.078.41 3.167.626Zm-57.483-.617c-1.434-.532-2.44-.33-3.017.604 1.044-.208 2.029-.405 3.017-.604Z" fill="#23558B"/><path d="M96.162 70.237c50.213.838 89.2 42.093 88.243 91.186-.979 50.238-42.489 88.942-91.429 87.865-49.54-1.092-88.488-41.967-87.598-91.05.906-49.916 41.93-88.685 90.784-88Zm-1.304 8.71c-44.38-.006-80.62 36.148-80.789 80.331-.171 44.818 35.875 80.88 80 81.316 45.3.445 82.283-36.52 81.632-82.037-.62-43.385-35.875-79.515-80.843-79.61Z" fill="#FDD030"/><path d="m95.162 222.789-1.547-.234a593 593 0 0 1 .153-1.408h5.165c.058.356.132.788.209 1.246l-1.35.343v6.976c.936-.055 1.764-.015 2.547-.19.423-.095.96-.485 1.108-.869.402-1.046 1.046-1.233 2.053-.853-.068.525-.141 1.071-.215 1.63 1.639-.059 1.666-.102 1.461-1.501-.273-1.872-.528-3.747-.798-5.653-.522-.028-.942-.049-1.452-.074v-1.42l4.987-.74.393 1.209c-1.39.795-1.396.795-1.139 2.489.246 1.623.513 3.247.765 4.843 2.007.218 2.909-.341 3.811-1.995.209-.384.936-.482 1.593-.789v3.717c-3.005.512-6.061 1.037-9.167 1.568l-.497-1.111-.23 1.074c-4.861.54-9.747.509-14.7.058v-1.378c.334-.049.672-.101 1.12-.168-.307-.669-.034-1.602-1.093-1.826-2.63-.553-2.752-.513-3.765 1.307.374.104.73.205 1.08.304-.028 1.47-.052 1.507-1.411 1.298-1.274-.197-2.545-.43-3.87-.654l-.194-.914c-3.412 1.009-6.242-.893-9.366-1.587l.252-1.317c.101-.046.169-.11.224-.101 1.008.17 1.667-.247 1.976-1.252.525-1.706 1.056-3.412 1.611-5.211-.414-.166-.764-.307-1.181-.472-.24.61-.448 1.135-.71 1.795-.444-.129-.87-.255-1.426-.414.368-1.363.021-2.348-1.713-2.542-.856 2.047-1.749 4.171-2.663 6.356l1.647.847c-.224.442-.426.841-.684 1.354-1.906-.814-3.735-1.596-5.634-2.41.175-.527.316-.951.454-1.371 1.174.343 2.007-.04 2.498-1.151.678-1.538 1.36-3.075 2.035-4.603-1.348-.979-1.467-.915-2.74.073-.308.236-1.01-.037-1.689-.089.599-1.292 1.059-2.289 1.562-3.379 1.06.513 2.047 1.099 3.106 1.486 3.563 1.295 7.154 2.522 10.735 3.771.506.178 1.028.316 1.531.497 1.989.725 3.33 2.922.906 4.926 1.236 1.295 1.325 2.688.251 4.165.863.395 1.308-.175 1.697-.703 1.489-2.023 3.011-4.024 4.37-6.129.559-.868 1.127-1.2 2.008-1.016.95 2.729 1.878 5.429 2.835 8.121.356 1 1.734 1.556 2.707 1.098.175-.083.276-.359.365-.564.052-.123.01-.283.01-.427v-6.039l.009.003Zm-19.773 4.308c1.2.369 2.243.835 3.213.065.273-.215.426-.906.294-1.246-.454-1.179-1.592-1.351-2.716-1.654l-.791 2.835Zm1.286-4.548c1.73.537 2.538.384 2.743-.442.215-.859-.402-1.384-2.099-1.724-.209.696-.417 1.402-.644 2.166Zm10.041 3.281c.638.046 1.043.073 1.58.113l-.555-1.663c-.368.559-.632.961-1.022 1.55h-.003ZM50.102 120.352c0-.294-.083-.623.015-.881.384-1.006.202-1.687-.69-2.323-.9-.635-2.115-.638-2.763.083a43.456 43.456 0 0 0-2.464 2.986c-.789 1.062.166 3.508 1.482 3.846.209.052.54-.102.721-.264.396-.353.734-.771 1.124-1.194l.92.795-4.173 5.002c-.547-.813-1.114-1.442-.289-2.335.175-.188.083-.805-.089-1.102a873.655 873.655 0 0 0-6.868-11.683c-.423-.706-.503-1.182.095-1.863 1.237-1.409 1.19-1.461 2.959-.86 3.968 1.351 7.942 2.692 11.898 4.082.706.249 1.203.172 1.737-.325.577-.537 1.218-1.001 1.835-1.495 1.316-1.055 1.46-2.234.439-3.56-2.207-2.863-4.416-5.726-6.654-8.626-.555.353-1.062.675-1.568.994a11.807 11.807 0 0 0-.307-.089c.08-.347.037-.853.255-1.019 1.955-1.5 3.953-2.943 5.941-4.4.964 1.034-.14 1.454-.58 2.16 2.584 3.523 5.184 7.064 7.841 10.683 1.27-.961 2.544-1.777 3.618-2.802.44-.421.516-1.283.62-1.967.099-.642.022-1.314.022-1.971.086-.036.172-.07.258-.107.791.979 1.586 1.955 2.421 2.986-6.356 4.52-12.77 8.826-17.376 15.185-.126.018-.252.04-.38.058v.006Zm-10.134-5.554c1.028 1.737 1.884 3.182 2.805 4.744l2.47-3.21c-1.746-.506-3.363-.979-5.275-1.534Zm108.702-6.506-1.184-1.566c.562-.638 1.102-1.252 1.62-1.844.138.037.227.031.264.074 1.786 1.958 3.655 3.851 5.315 5.913.808 1.004 1.489 2.262 1.762 3.508.752 3.44-2.151 6.482-5.699 6.172-.463-.04-.924-.123-1.639-.218-.512 1.976-1.163 3.949-1.467 5.975-.104.687.676 1.504 1.117 2.4l-1.215.936c-1.362-1.504-2.703-2.946-3.983-4.444-.187-.221-.175-.736-.074-1.062.546-1.783 1.157-3.544 1.719-5.321.116-.368.116-.77.172-1.157-.102-.062-.2-.126-.301-.187-1.068.853-2.139 1.703-3.29 2.624.485.638.933 1.224 1.455 1.908l-1.056.758-5.779-6.607c.27-.258.534-.509.847-.81.559.488 1.065.927 1.657 1.445 3.263-2.838 6.491-5.653 9.759-8.494v-.003Zm2.634 3.495c-1.596 1.36-3.137 2.676-4.68 3.99 1.7 2.083 3.633 2.191 5.508.346 1.277-1.255 1.019-2.731-.831-4.336h.003ZM88.932 98.904c-1.574.288-2.784.086-3.977-.964-2.64-2.314-5.432-4.456-8.164-6.665-.211-.172-.441-.317-.773-.547.285 2.532.519 4.917.838 7.292.242 1.795 1.181 2.366 3.646 2.308.11.368.227.761.371 1.252-2.296.334-4.474.654-6.73.982-.11-.617-.206-1.132-.316-1.746l1.924-.51-2.216-9.777c-.009-.034-.027-.068-.027-.105-.126-1.77-.706-3.071-2.817-2.642-.384-.914-.126-1.289.742-1.384.924-.101 1.884-.175 2.747-.49 1.789-.651 3.066-.038 4.41 1.156 2.43 2.16 5.014 4.15 7.776 6.411-.445-2.151-.816-4.02-1.221-5.883-.157-.727-.166-1.694-.632-2.093-.458-.39-1.412-.2-2.213-.267-.101-.442-.206-.88-.337-1.448 2.286-.338 4.499-.666 6.828-1.013.043.696.077 1.289.123 2.028h-2.278c.777 4.775 1.526 9.397 2.293 14.105h.003Zm53.718 104.253c-.347-.393-.629-.712-.958-1.087.927-1.015 1.881-1.976 2.741-3.016 1.227-1.492 2.378-3.051 3.578-4.567.509-.644 1.01-1.31 1.602-1.875 1.869-1.78 3.753-1.316 4.613 1.163.19-.07.374-.144.564-.208 2.02-.697 3.827.62 3.557 2.74-.141 1.105-.506 2.286-1.114 3.204-1.258 1.9-2.747 3.646-4.174 5.499l-1.258-.828c.665-1.052.532-1.951-.399-2.698-1.338-1.074-2.682-2.145-3.992-3.191-.105.036-.145.04-.169.061-2.044 1.63-2.053 1.86-.151 3.584.611.553 1.216 1.114 1.829 1.664 1.277 1.141 1.553 2.55.989 4.106-.761 2.096-2.244 3.569-4.272 4.444-1.673.721-3.023.343-4.22-1.059-1.022-1.197-2.038-2.403-3.136-3.698-.455.298-.887.577-1.387.902l-.817-1.194 4.195-3.642c.347.297.666.574 1.041.893l-1.044 1.384c1.145 1.289 2.28 2.568 3.425 3.845.092.101.233.169.362.23.973.467 2.52-.258 3.539-1.654.844-1.154.88-2.13.024-3.007-.825-.847-1.761-1.587-2.562-2.452-.663-.715-1.209-.771-1.835-.022-.135.16-.32.276-.568.485l-.003-.006Zm11.95-2.698c.503-.838 1.05-1.522 1.335-2.304.163-.445.074-1.289-.227-1.51-.365-.267-1.179-.261-1.611-.028-.761.414-1.384 1.09-2.179 1.752l2.682 2.087v.003Zm-3.707-2.878c.377-.718.785-1.344 1.025-2.032.098-.279-.08-.847-.316-1-.286-.185-.881-.231-1.136-.046-.574.411-1.019 1-1.559 1.562l1.989 1.516h-.003ZM127.658 91.054l-2.461 4.213c-.209-1.457-.436-2.608-.519-3.765-.052-.737-.34-1.216-.966-1.529-.703-.35-1.381-.78-2.124-1.01-1.666-.515-2.952.664-2.434 2.336.307.985.967 1.903 1.624 2.728.571.719 1.347 1.28 2.05 1.89 1.801 1.56 2.12 3.954.749 5.896-1.477 2.09-4.659 3.79-7.716 1.608-.669-.479-1.39-.887-2.08-1.335-2.581-1.666-3.078-3.428-1.845-6.3.27-.626.58-.872.976-.642.5 1.82.795 3.527 1.443 5.086.773 1.869 2.642 2.703 4.492 2.323.854-.175 1.584-.571 1.829-1.467.249-.912.117-1.777-.622-2.468-1.308-1.224-2.646-2.418-3.898-3.698-.592-.604-1.099-1.332-1.507-2.077-.914-1.673-.525-2.95 1.096-3.91 3.007-1.786 6.401-1.488 9.133.675.758.602 1.737.92 2.777 1.452l.003-.006Zm15.295 9.473c-.945 1.2-1.89 2.397-3.05 3.867 0-1.436-.052-2.563.018-3.68.049-.794-.156-1.39-.831-1.826-.602-.386-1.157-.853-1.783-1.19-.685-.372-1.553-.62-2.087.052-.442.555-.811 1.436-.709 2.093.147.948.66 1.881 1.181 2.719.504.816 1.216 1.504 1.832 2.246 1.575 1.897 1.473 4.275-.285 6.003-1.949 1.915-5.232 2.808-7.798.289-.562-.553-1.191-1.038-1.792-1.547-2.336-1.992-2.603-3.833-.939-6.479.272-.433.732-.532 1.381-.294 0 1.24-.138 2.541.03 3.802.264 1.973 1.234 3.514 3.318 4.06 1.295.338 2.559-.049 3.087-.917.556-.912.341-2.069-.525-3.149-1.166-1.455-2.415-2.857-3.425-4.416-2.086-3.225-1.092-5.27 2.71-5.862 2.903-.454 5.257.476 7.243 2.627.601.65 1.513 1.016 2.421 1.599l.003.003Zm-33.11-1.85c-.178.598-.279.926-.405 1.35-1.304-.172-2.568-.377-3.842-.491-1.274-.114-2.556-.138-3.897-.206-.209-.497-.129-.758.546-.865 1.457-.23 1.909-.924 1.47-2.348-.629-2.047-1.341-2.679-3.063-2.397-.663.108-1.36.016-2.04.019-1.557.006-2.944 1.78-2.505 3.262.067.224.396.454.647.516.476.116.98.113 1.495.162.092.611.129 1.065-.654 1.056-1.789-.018-3.575-.006-5.462-.006.169-.862.26-1.571 1.356-1.593.347-.006.823-.383 1.007-.718 2.105-3.787 4.201-7.583 6.22-11.416.525-.998 1.081-1.614 2.284-1.39.408.076.844.012 1.325.012.814 4.106 1.701 8.126 2.373 12.183.304 1.826.749 3.186 3.139 2.87h.006Zm-7.623-6.037-1.491-4.204-.458-.01c-.626 1.357-1.249 2.71-1.911 4.15.328.03.5.061.675.061.997.003 1.994 0 3.188 0l-.003.003ZM44.375 199.836c3.44.04 7.3 3.609 7.626 7.047.35 3.688-2.98 6.34-6.59 5.134-2.942-.985-4.919-3.066-5.802-6.037-.98-3.29 1.322-6.187 4.766-6.144Zm1.098 2.235c-1.853.027-3.667 1.945-3.621 3.823.052 1.98 2.375 4.275 4.293 4.245 1.694-.028 3.407-2.007 3.404-3.935-.003-1.948-2.185-4.161-4.079-4.133h.003Z" fill="#FDD030"/><path d="M57.924 220.748c-2.94-.013-6.352-2.342-7.423-5.067-1.25-3.179.936-6.423 4.514-6.699 2.925-.224 6.755 2.301 7.712 5.085 1.15 3.351-1.252 6.693-4.803 6.678v.003Zm2.43-5.773c.084-1.939-1.825-3.885-3.9-3.977-1.724-.077-3.581 1.78-3.68 3.683-.1 1.961 2.023 4.02 4.223 4.093 1.707.056 3.272-1.712 3.358-3.796v-.003Zm71.724 2.87c.294.979.586 1.862.819 2.762.058.227.031.61-.117.739-2.154 1.857-4.468 3.373-7.469 3.379-2.038.006-3.664-.724-4.561-2.63-.899-1.909-.552-3.726.712-5.352 1.777-2.286 4.297-3.357 7.013-4.226l1.534 2.977c-.411.282-.816.558-1.209.825-1.706-1.497-2.566-1.506-4.385-.082-1.532 1.196-1.918 2.792-1.081 4.483.835 1.688 2.357 2.348 4.226 1.829 2.121-.586 2.888-1.485 3.069-3.584.041-.473.526-.847 1.455-1.123l-.006.003Zm-87.104-20.12-2.686 1.869-.939-1.071c.96-1.756.869-2.179-.856-3.858-.657.461-1.323.93-2.056 1.443.522.669.994 1.292 1.485 1.899.827 1.027.649 1.925-.534 2.692-.807-1.151-1.617-2.308-2.47-3.529l-2.06 1.433c.4.65.762 1.246 1.179 1.927-.377.252-.752.503-1.27.847l-3.873-5.631 1.129-.979c.43.5.81.948 1.255 1.467l5.819-3.87-.826-1.627 1.237-.604 5.462 7.586.004.006Zm89.402 23.167c-.38-.479-.641-.81-.954-1.203l1.325-1.129a7224.877 7224.877 0 0 0-3.75-5.911l-1.424.648c-.205-.427-.402-.829-.626-1.292 1.461-.961 2.891-1.897 4.419-2.901.292.329.593.663.989 1.105-.424.31-.823.605-1.283.942l3.959 5.945c.785-.592 1.525-1.044 2.12-1.639.313-.313.58-.911.51-1.32-.184-1.058.129-1.657 1.289-1.841.411.912.853 1.9 1.393 3.1l-7.97 5.496h.003Z" fill="#FDD030"/><path d="M51.473 137.661c1.197.678 2.071-.178 2.918-1.2.682 1.479 1.286 2.885 1.968 4.25.95 1.906 2.126 3.646 3.787 5.039.3.252.46.795.497 1.222.073.844.423 1.458 1.046 2.025 2.305 2.106 4.573 4.251 6.847 6.387 1.007.945 1.252 2.743.598 3.983-.264.497-.552 1.016-.656 1.559-.264 1.384.024 2.532 1.595 2.977.304.086.559.328.857.448 1.264.503 2.15 1.215 1.804 2.783-.055.255.132.642.325.863 1.452 1.685 2.1 3.728 2.64 5.815.22.853.669 1.449 1.473 1.857 1.148.58 2.694 1 3.247 1.961.58 1.007.19 2.572.22 3.891.004.145.022.292 0 .43-.288 1.795.43 3.155 1.517 4.579 1.086 1.427 1.752 3.185 2.528 4.836.301.639.636.921 1.37.884a52.15 52.15 0 0 1 4.09-.006c.669.021 1.114-.107 1.175-.865.059-.697.427-.967 1.151-1.118 4.38-.905 8.311-2.918 12.101-5.195 2.485-1.495 4.849-3.198 7.298-4.76.982-.626 1.733-1.375 1.945-2.55.129-.7.55-.945 1.215-.906 1.67.096 3.029-.515 4.229-1.678 2.854-2.771 5.776-5.469 8.621-8.249.39-.381.629-1.044.693-1.605.218-1.918.326-3.849.482-5.859 1.642-.153 3.229-.301 4.892-.454 0-2.501.028-4.901-.031-7.295-.009-.344-.359-.828-.681-.988-1.375-.672-2.759-1.381-4.214-1.82-1.359-.408-2.829-.433-4.222-.749-.54-.122-1.176-.466-1.467-.908-.482-.73-.767-1.608-1.053-2.449-.503-1.485-1.51-2.335-2.777-2.246-1.261.089-2.446 1.301-2.63 2.7-.255 1.927-.252 1.94-2.158 2.222-1.912.282-3.823.54-5.794.816-.478-1.111-.997-2.139-1.365-3.216-.28-.822-.783-1.12-1.584-1.105-.285.007-.574-.067-.859-.046-.764.053-1.228-.224-1.295-1.04-.095-1.163-.724-2.047-1.449-2.918-2.197-2.649-4.351-5.337-6.687-8.21 2.06-.313 2.91-1.476 2.363-3.581 1.694.193 3.173.35 4.646.549.175.025.442.295.455.464.35 5.631 4.646 7.377 8.992 8.764 2.126.679 4.523.547 6.803.672.482.028 1.074-.325 1.473-.669 1.157-.988 2.02-1 3.063.12.39.421.715.899 1.096 1.329 2.697 3.053 6.134 2.918 9.24 1.074.236-.141.377-.577.414-.893.12-1.089.172-2.188.405-3.287 5.672 11.536 6.513 23.578 2.943 35.762-4.13 14.101-14.276 23.145-26.855 30.238-.031-.574-.074-.906-.065-1.237.04-1.614.086-3.229.141-4.84.059-1.666-.705-2.679-2.412-2.756-1.341-.061-2.753.01-4.035.372-1.921.54-3.75 1.399-5.632 2.099-3.845 1.427-7.697 2.838-11.655 4.293v-3.956c-1.354-.168-2.618-.399-3.895-.457-.917-.043-1.197-.411-1.077-1.255.046-.316.01-.648.037-.967.117-1.341.077-2.436-1.356-3.345-.949-.601-1.47-1.967-2.023-3.075-.304-.611-.601-.908-1.273-1.065-3.09-.712-5.62-2.332-6.933-5.275-.586-1.317-.715-2.903-.761-4.376-.05-1.599-.338-2.615-2.001-3.453-3.496-1.765-4.692-5.088-4.699-8.817 0-1.292-.291-2.366-1.003-3.397-.427-.617-.734-1.323-1.185-1.921-.392-.522-.859-1.022-1.384-1.409-1.212-.887-2.12-2.031-2.424-3.452-.417-1.952-.55-3.959-.844-5.939-.061-.42-.203-.886-.457-1.209-.485-.617-1.06-1.169-1.636-1.709-1.15-1.08-2.075-2.096-1.758-3.987.18-1.095-.593-2.35-.921-3.486l.006-.015Z" fill="#23558B"/><path d="M100.775 174.527c-8.347-11.87-16.615-23.627-24.867-35.365-5.097 1.368-7.061.294-7.552-4.232.352.469.607.837.893 1.184 1.433 1.756 3.222 2.059 5.146.859.424-.264.908-.527 1.178-.92.937-1.354 2.183-1.51 3.643-1.154.586.144 1.2.169 2.09.288l-3.17 2.17c2.95 4.235 5.868 8.43 8.823 12.674 1.36-.758 2.605-1.534 3.928-2.154.632-.298 1.409-.42 2.115-.405 1.025.025 2.044.246 3.388.427-1.074.623-1.91 1.107-2.833 1.645.209.316.38.607.583.877 1.746 2.32 3.4 4.72 5.279 6.933 2.203 2.599 2.817 6.138-.632 9.117l2.694 4.156c.865-.629 1.731-1.179 2.504-1.842.795-.681 1.633-.933 2.661-.745.736.135 1.494.165 2.562.279a22770.46 22770.46 0 0 0-8.43 6.211l-.003-.003Zm-4.097-10.821c1.7-1.163 1.98-3.062.688-4.686-1.765-2.212-3.57-4.394-5.359-6.586-.26-.322-.534-.632-.816-.966a750.86 750.86 0 0 1-2.173 1.626c2.597 3.6 5.128 7.108 7.66 10.615v-.003Zm17.864.504c.022.917-.654 1.645-1.565 1.681-.967.04-1.719-.662-1.743-1.62a1.653 1.653 0 0 1 1.675-1.697c.893 0 1.609.718 1.63 1.633l.003.003Z" fill="#23558B"/></svg>