<svg width="129" height="178" fill="none" xmlns="http://www.w3.org/2000/svg"><path d="M0 0v24.068h4.212V12.78h5.655c1.228.602 2.07 1.83 2.07 3.273v8.015h3.875v-9.074c0-1.612-.746-3.056-2.046-3.899a6.327 6.327 0 0 0 2.142-4.741C15.908 2.912 12.996 0 9.482 0H0Zm4.212 3.682h4.885c1.444 0 2.671 1.228 2.671 2.672 0 1.516-1.227 2.744-2.67 2.744H4.211V3.682ZM27.484 0c-5.03 0-9.121 4.043-9.121 8.977v6.137c0 4.934 4.091 8.954 9.121 8.954s9.097-4.02 9.097-8.954V8.977C36.581 4.043 32.49 0 27.484 0Zm0 3.538c2.695 0 4.91 2.142 4.91 4.862v7.292c0 2.648-2.214 4.862-4.91 4.862-2.695 0-4.934-2.214-4.934-4.862V8.4c0-2.72 2.215-4.862 4.934-4.862ZM38.867 0v24.068h4.14V6.738l9.506 12.757v4.573h4.14V0h-4.14v12.226L43.007 0h-4.14Zm37.809 0H66.303c-4.115 0-7.46 3.37-7.46 7.485v16.583h4.26V11.889h9.458v12.179h4.115V0ZM63.102 8.4v-.77c0-2.143 1.83-3.972 3.971-3.972h5.488V8.4h-9.459ZM82.814 0H78.53v14.922c0 5.006 4.14 9.146 9.314 9.146h3.273v-3.562h-2.864c-3.008 0-5.439-2.455-5.439-5.584V0Zm9.843 0v24.068h8.664c3.827 0 7.004-3.346 7.004-7.293V7.317c0-3.948-3.177-7.317-7.004-7.317h-8.664Zm4.092 20.265V3.827h4.885a2.728 2.728 0 0 1 2.744 2.743v10.951a2.728 2.728 0 0 1-2.744 2.744h-4.885ZM119.515 0c-5.03 0-9.122 4.043-9.122 8.977v6.137c0 4.934 4.092 8.954 9.122 8.954 5.029 0 9.097-4.02 9.097-8.954V8.977c0-4.934-4.092-8.977-9.097-8.977Zm0 3.538c2.695 0 4.909 2.142 4.909 4.862v7.292c0 2.648-2.214 4.862-4.909 4.862-2.696 0-4.934-2.214-4.934-4.862V8.4c0-2.72 2.214-4.862 4.934-4.862ZM63.512 148.427l-.14-38.209v-.843s.14-5.338 1.546-9.974c1.547-4.495 5.484-10.254 5.484-10.254s-3.234 6.04-4.218 10.114c-.984 3.652-1.547 6.321-1.547 10.114v.702l.14 38.49c0 .984-.14 2.107.141 2.95l-.14.141h-.844c-.562 0-.703-.141-.703-.141s.14-.281.14-.562c.141-.561.141-1.826.141-2.528ZM31.875 41.666l-7.874 25.707s13.92-2.95 25.028-3.653c11.108-.702 35.012 0 35.012 0s-12.233 6.743-18.42 13.205c-6.186 6.321-10.686 19.385-12.373 27.252-1.688 7.726-.985 38.63-.985 38.63s.141 15.733-.562 20.931c-.703 5.057-2.672 11.659-2.672 11.659s4.64 2.107 12.796 2.529c8.015.561 16.732-2.248 16.732-2.248s-3.093-7.445-3.234-17.981c-.14-10.535-.14-38.63-.14-38.63s1.687-19.104 8.296-29.921c6.468-10.817 19.685-22.616 19.685-22.616l-2.953-10.114c-5.765-1.967-16.03-4.777-30.09-5.62-16.17-.983-27.981 1.546-33.465 3.091l.422-1.545c5.905-1.405 17.576-3.793 33.183-2.81 13.499.703 23.482 3.372 29.528 5.338l-4.077-13.766s-17.577-4.917-35.574-3.231c-18.139 1.686-28.263 3.793-28.263 3.793Z" fill="#0076C8"/></svg>