<svg width="88" height="88" viewBox="0 0 88 88" fill="none" xmlns="http://www.w3.org/2000/svg">
<mask id="mask0_1_45842" style="mask-type:alpha" maskUnits="userSpaceOnUse" x="6" y="6" width="77" height="77">
<path d="M44.5 6C23.2384 6 6 23.2384 6 44.5C6 45.44 6.07675 46.3645 6.14412 47.2885C8.38354 46.7527 10.6882 46.4425 13.0496 46.4425C20.9324 46.4425 28.3371 49.5171 33.91 55.09C39.4829 60.6629 42.5575 68.0676 42.5575 75.9504C42.5575 78.3118 42.2473 80.6165 41.7115 82.8559C42.6355 82.9233 43.56 83 44.5 83C65.7616 83 83 65.7616 83 44.5C83 43.56 82.9233 42.6355 82.8559 41.7115C80.6165 42.2473 78.3118 42.5575 75.9504 42.5575C68.0676 42.5575 60.6629 39.4829 55.09 33.91C49.5171 28.3371 46.4425 20.9324 46.4425 13.0496C46.4425 10.6882 46.7527 8.38354 47.2885 6.14412C46.3645 6.07675 45.44 6 44.5 6ZM53.6488 7.14046C53.1483 9.04621 52.8592 11.0251 52.8592 13.0496C52.8592 19.216 55.2667 25.0099 59.6268 29.3732C63.9869 33.7365 69.784 36.1408 75.9504 36.1408C77.9749 36.1408 79.9506 35.8549 81.8595 35.3512C78.4651 21.4495 67.5505 10.5349 53.6488 7.14046ZM13.0496 52.8592C11.0251 52.8592 9.04942 53.1451 7.14046 53.6488C10.5349 67.5505 21.4495 78.4651 35.3512 81.8595C35.8517 79.9538 36.1408 77.9749 36.1408 75.9504C36.1408 69.784 33.7333 63.9901 29.3732 59.6268C25.0131 55.2635 19.216 52.8592 13.0496 52.8592Z" fill="black"/>
</mask>
<g mask="url(#mask0_1_45842)">
<rect x="-23.2976" y="-16.5366" width="135.219" height="120.571" fill="#06DCFF"/>
</g>
</svg>
