<svg xmlns="http://www.w3.org/2000/svg" width="150.03" height="46.027" viewBox="0 0 150.03 46.027">
  <path id="Batery_main_white" d="M24.8,19.459a7.693,7.693,0,0,0-4.647-2.923,7.837,7.837,0,0,0,4.078-2.731A7.672,7.672,0,0,0,25.8,8.871,7.772,7.772,0,0,0,22.9,2.5Q20.058.15,14.984.15H0V33.785H15.506q5.216,0,8.108-2.443a8.341,8.341,0,0,0,2.94-6.708A8.187,8.187,0,0,0,24.8,19.459Zm-11.38-5.7H8.108V6.715h5.311a4.486,4.486,0,0,1,3.035.91,3.238,3.238,0,0,1,1.091,2.635A3.238,3.238,0,0,1,16.454,12.9,4.657,4.657,0,0,1,13.419,13.758Zm3.793,12.505a4.761,4.761,0,0,1-3.13.91H8.108V19.747h5.88a4.635,4.635,0,0,1,3.177,1.006,3.45,3.45,0,0,1,1.185,2.779A3.372,3.372,0,0,1,17.213,26.263Zm56.254.587v6.935H69.31a10.243,10.243,0,0,1-6.928-2.152q-2.484-2.2-2.484-7.126V13.889H56.649V7.1H59.9V.593h8.17V7.1h5.351v6.792H68.067V24.6a2.243,2.243,0,0,0,.573,1.722,2.8,2.8,0,0,0,1.911.526Zm27.294-4.382a20.725,20.725,0,0,0,.145-2.39,13.825,13.825,0,0,0-1.736-7.027,11.564,11.564,0,0,0-4.724-4.637A14.483,14.483,0,0,0,87.5,6.789a14.629,14.629,0,0,0-7.086,1.673,11.952,11.952,0,0,0-4.821,4.78,15,15,0,0,0-1.687,7.266,14.658,14.658,0,0,0,1.736,7.266,11.952,11.952,0,0,0,4.821,4.78A14.527,14.527,0,0,0,87.5,34.228a14.272,14.272,0,0,0,5.93-1.195,11.957,11.957,0,0,0,4.387-3.3A11.752,11.752,0,0,0,100.278,25H91.5a4.336,4.336,0,0,1-4.291,2.581,5.1,5.1,0,0,1-3.519-1.291A5.69,5.69,0,0,1,82.1,22.468Zm-9.738-7.888a4.187,4.187,0,0,1,1.446,3.346H82.152a5.468,5.468,0,0,1,8.87-3.346Zm19.746-3.053a10.5,10.5,0,0,1,3.549-3.446,8.946,8.946,0,0,1,4.733-1.292v8.664h-2.224a6.681,6.681,0,0,0-4.543,1.34q-1.514,1.292-1.514,4.6v12.4h-8.093V7.076h8.093Zm39.262-4.3L133.39,46.177h-8.748l6.085-13.439L119.936,7.231h9.081l6.133,16.515,6.086-16.515ZM27.439,20.461a16.286,16.286,0,0,1,1.515-7.218,11.713,11.713,0,0,1,4.213-4.78,10.857,10.857,0,0,1,5.917-1.673A9.947,9.947,0,0,1,43.96,7.936a8.361,8.361,0,0,1,3.266,3.012V7.171h8.095V33.846H47.226V30.069a8.726,8.726,0,0,1-3.314,3.012,9.946,9.946,0,0,1-4.876,1.147,10.774,10.774,0,0,1-5.87-1.673,12.063,12.063,0,0,1-4.213-4.828A16.6,16.6,0,0,1,27.439,20.461Zm17.43.3a3.353,3.353,0,0,1,.532,1.356,3.119,3.119,0,0,1-.257,2.049A3.8,3.8,0,0,1,43.7,25.655a6.5,6.5,0,0,1-1.836.709L42.154,28l-1.922.33-.311-1.716c-.294.011-.587.006-.878-.009a7.1,7.1,0,0,1-2.147-.485,5.071,5.071,0,0,1-1.74-1.187l1.4-2.282A3.963,3.963,0,0,0,37.87,23.7a5.335,5.335,0,0,0,1.607.448l-.485-2.679-.288-.011a10.4,10.4,0,0,1-1.455-.141,4.649,4.649,0,0,1-1.315-.423,3.181,3.181,0,0,1-1.033-.862,3.451,3.451,0,0,1-.563-1.425,3.186,3.186,0,0,1,.252-2.085,3.769,3.769,0,0,1,1.464-1.5,6.094,6.094,0,0,1,1.649-.685l-.3-1.679,1.924-.33.319,1.755a6.863,6.863,0,0,1,1.849.211,5.316,5.316,0,0,1,2.451,1.324L42.5,17.9a4.2,4.2,0,0,0-1.87-1.163,5.145,5.145,0,0,0-.538-.133l.463,2.563.307.017a10.238,10.238,0,0,1,1.661.216,4.972,4.972,0,0,1,1.366.489A2.854,2.854,0,0,1,44.869,20.758Zm-7.825-2.8a1.057,1.057,0,0,0,.73.878,4.667,4.667,0,0,0,.776.177l-.426-2.35a2.118,2.118,0,0,0-.476.208,1.225,1.225,0,0,0-.5.477A.856.856,0,0,0,37.044,17.961Zm4.935,5.891a1.479,1.479,0,0,0,.6-.492.93.93,0,0,0,.12-.709,1.008,1.008,0,0,0-.411-.69,1.879,1.879,0,0,0-.9-.328c-.12-.022-.252-.043-.392-.058l.445,2.466A3.271,3.271,0,0,0,41.98,23.852Z" transform="translate(0 -0.151)" fill-rule="evenodd"/>
</svg>
