<svg width="86" height="26" viewBox="0 0 86 26" fill="none" xmlns="http://www.w3.org/2000/svg">
<path d="M0.0878906 9.73541V0.477307H9.25472V9.73541H6.5816V2.79835H2.76101V9.73541H0.0878906Z" fill="white"/>
<path d="M15.7685 9.89189C14.3428 9.89189 13.1562 9.44854 12.2087 8.56185C11.2698 7.67516 10.8004 6.52333 10.8004 5.10636C10.8004 3.67201 11.2698 2.51583 12.2087 1.63783C13.1562 0.759831 14.3428 0.320831 15.7685 0.320831C17.1942 0.320831 18.3764 0.759831 19.3153 1.63783C20.2628 2.51583 20.7366 3.67201 20.7366 5.10636C20.7366 6.52333 20.2628 7.67516 19.3153 8.56185C18.3677 9.44854 17.1855 9.89189 15.7685 9.89189ZM14.1255 6.84062C14.5341 7.29266 15.0817 7.51868 15.7685 7.51868C16.4553 7.51868 17.0029 7.29266 17.4115 6.84062C17.8201 6.37989 18.0243 5.8018 18.0243 5.10636C18.0243 4.41091 17.8201 3.83717 17.4115 3.38513C17.0029 2.9244 16.4553 2.69404 15.7685 2.69404C15.0817 2.69404 14.5341 2.9244 14.1255 3.38513C13.7169 3.83717 13.5127 4.41091 13.5127 5.10636C13.5127 5.8018 13.7169 6.37989 14.1255 6.84062Z" fill="white"/>
<path d="M25.3797 5.8757C25.3101 6.58853 25.2058 7.17531 25.0667 7.63604C24.9277 8.09677 24.719 8.50534 24.4408 8.86176C24.1714 9.21817 23.8106 9.47462 23.3586 9.63109C22.9065 9.78757 22.3371 9.86581 21.6504 9.86581H21.4417V7.19269H21.6373C22.072 7.19269 22.3762 7.08403 22.5501 6.8667C22.724 6.64068 22.8413 6.2495 22.9022 5.69314L23.4498 0.477307H31.1823V9.73541H28.5092V2.79835H25.7057L25.3797 5.8757Z" fill="white"/>
<path d="M37.4095 9.73541H34.5147L36.3794 6.64503L32.285 0.477307H35.4797L37.892 4.12839L40.0957 0.477307H42.9905L37.4095 9.73541Z" fill="white"/>
<path d="M50.0602 9.73541V6.63199C49.2169 6.745 48.4259 6.80151 47.687 6.80151C46.3743 6.80151 45.3833 6.51463 44.7139 5.94089C44.0446 5.35846 43.7099 4.40657 43.7099 3.08522V0.477307H46.383V3.08522C46.383 3.58073 46.509 3.93714 46.7611 4.15447C47.0132 4.3718 47.4044 4.48046 47.9347 4.48046C48.2737 4.48046 48.6215 4.46742 48.9779 4.44134C49.3343 4.40657 49.6038 4.37614 49.7863 4.35006L50.0602 4.31094V0.477307H52.7333V9.73541H50.0602Z" fill="white"/>
<path d="M54.6911 9.73541V0.477307H57.3643V6.05825L61.4457 0.477307H64.1188V9.73541H61.4457V4.18055L57.3643 9.73541H54.6911Z" fill="white"/>
<path d="M68.8658 9.73541V2.77227H65.5146V0.477307H74.877V2.77227H71.5259V9.73541H68.8658Z" fill="white"/>
<path d="M81.7518 3.18954C82.8819 3.18954 83.7599 3.46772 84.3858 4.02407C85.0117 4.58043 85.3247 5.39323 85.3247 6.46248C85.3247 7.53172 85.0117 8.34452 84.3858 8.90088C83.7599 9.45723 82.8819 9.73541 81.7518 9.73541H76.2752V0.477307H78.9353V3.18954H81.7518ZM81.3998 5.48451H78.9353V7.44044H81.3998C82.1908 7.44044 82.5864 7.11445 82.5864 6.46248C82.5864 5.8105 82.1908 5.48451 81.3998 5.48451Z" fill="white"/>
<path d="M22.1072 19.9198C23.2199 19.9198 24.0848 20.1588 24.702 20.6369C25.3192 21.1064 25.6279 21.8018 25.6279 22.7233C25.6279 23.7143 25.3192 24.4662 24.702 24.9791C24.0848 25.4833 23.2199 25.7354 22.1072 25.7354H16.5784V16.4773H24.7933V18.7723H19.2385V19.9198H22.1072ZM21.8855 22.0061H19.2385V23.4404H21.8855C22.5549 23.4404 22.8895 23.2014 22.8895 22.7233C22.8895 22.2452 22.5549 22.0061 21.8855 22.0061Z" fill="white"/>
<path d="M31.7624 25.8919C30.3367 25.8919 29.1501 25.4485 28.2026 24.5618C27.2637 23.6752 26.7943 22.5233 26.7943 21.1064C26.7943 19.672 27.2637 18.5158 28.2026 17.6378C29.1501 16.7598 30.3367 16.3208 31.7624 16.3208C33.188 16.3208 34.3703 16.7598 35.3091 17.6378C36.2567 18.5158 36.7304 19.672 36.7304 21.1064C36.7304 22.5233 36.2567 23.6752 35.3091 24.5618C34.3616 25.4485 33.1793 25.8919 31.7624 25.8919ZM30.1194 22.8406C30.528 23.2927 31.0756 23.5187 31.7624 23.5187C32.4491 23.5187 32.9968 23.2927 33.4054 22.8406C33.8139 22.3799 34.0182 21.8018 34.0182 21.1064C34.0182 20.4109 33.8139 19.8372 33.4054 19.3851C32.9968 18.9244 32.4491 18.694 31.7624 18.694C31.0756 18.694 30.528 18.9244 30.1194 19.3851C29.7108 19.8372 29.5065 20.4109 29.5065 21.1064C29.5065 21.8018 29.7108 22.3799 30.1194 22.8406Z" fill="white"/>
<path d="M38.2771 25.7354V16.4773H40.9502V19.9458H44.9012V16.4773H47.5743V25.7354H44.9012V22.2669H40.9502V25.7354H38.2771Z" fill="white"/>
<path d="M53.8109 25.7354H50.9161L52.7808 22.645L48.6863 16.4773H51.881L54.2933 20.1284L56.497 16.4773H59.3918L53.8109 25.7354Z" fill="white"/>
<path d="M64.3962 25.8919C62.9792 25.8919 61.8187 25.4442 60.9146 24.5488C60.0192 23.6447 59.5715 22.4972 59.5715 21.1064C59.5715 19.7068 60.0192 18.5593 60.9146 17.6639C61.8187 16.7685 62.9792 16.3208 64.3962 16.3208C64.996 16.3208 65.5436 16.4034 66.0392 16.5686C66.5434 16.7251 66.9519 16.925 67.2649 17.1684C67.5865 17.4031 67.8647 17.6769 68.0994 17.9899C68.3341 18.2942 68.5036 18.5767 68.6079 18.8375C68.721 19.0983 68.7948 19.346 68.8296 19.5807H66.1174C65.7436 18.9983 65.1698 18.7071 64.3962 18.7071C63.7529 18.7071 63.24 18.9374 62.8575 19.3982C62.4837 19.8502 62.2968 20.4196 62.2968 21.1064C62.2968 21.7931 62.4837 22.3669 62.8575 22.8276C63.24 23.2796 63.7529 23.5056 64.3962 23.5056C65.1785 23.5056 65.7566 23.2188 66.1304 22.645H68.8296C68.7948 22.845 68.7296 23.071 68.634 23.3231C68.5384 23.5665 68.3732 23.8447 68.1385 24.1576C67.9125 24.4706 67.643 24.7531 67.3301 25.0052C67.0171 25.2486 66.6042 25.4572 66.0913 25.6311C65.5784 25.805 65.0134 25.8919 64.3962 25.8919Z" fill="white"/>
</svg>
