<svg xmlns="http://www.w3.org/2000/svg" width="32" height="28" viewBox="0 0 32 28"><g><g><g><path  d="M1.933 9.97V7.52h28.134v2.45zm25.61-7.825a2.526 2.526 0 0 1 2.524 2.523v.918H1.933v-.918a2.526 2.526 0 0 1 2.524-2.523zM4.458.21C2 .21 0 2.21 0 4.667v15.001c0 2.457 2 4.457 4.457 4.457h12.746a.967.967 0 0 0 0-1.933H4.457a2.526 2.526 0 0 1-2.524-2.524v-7.763h28.134v1.653a.967.967 0 0 0 1.933 0v-8.89c0-2.457-2-4.457-4.456-4.457z"/></g><g><path  d="M5.593 15.864h2.96a.967.967 0 0 0 0-1.933h-2.96a.966.966 0 0 0 0 1.933z"/></g><g><path  d="M5.593 19.503h5.92a.967.967 0 0 0 0-1.933h-5.92a.967.967 0 0 0 0 1.933z"/></g><g><path  d="M26.738 19.242l-1.73 1.395-.375-.48a.968.968 0 0 0-1.522 1.195l.98 1.25a.969.969 0 0 0 1.367.157l2.493-2.01a.967.967 0 0 0-1.213-1.507z"/></g><g><path  d="M25.992 25.778a.973.973 0 0 1-.768 0c-3.567-1.548-4.038-5.63-4.075-7.315a.155.155 0 0 1 .084-.142l4.305-2.164a.15.15 0 0 1 .137-.001l4.308 2.166a.15.15 0 0 1 .083.141c-.036 1.684-.508 5.766-4.074 7.315zm4.86-9.183l-4.308-2.166a2.088 2.088 0 0 0-1.872.001l-4.306 2.164a2.095 2.095 0 0 0-1.149 1.911c.045 2.056.647 7.05 5.237 9.045a2.903 2.903 0 0 0 2.308 0c4.59-1.993 5.192-6.99 5.237-9.044a2.091 2.091 0 0 0-1.147-1.911z"/></g></g></g></svg>
