<svg xmlns="http://www.w3.org/2000/svg" width="302" height="336" viewBox="0 0 302 336"><g><g clip-path="url(#clip-d8fb8348-c602-47f4-9d32-5d264928941c)" transform="rotate(58 297.23 90.94)"><g><path fill="none" stroke-miterlimit="20" stroke-width="2" d="M82.707 94.063v0l133.931-33.848v0l118.538 84.06v0l-49.496 122.32v0L157.726 330.19v0L59.102 215.56v0z"/></g><g><path fill="none" stroke-miterlimit="20" stroke-width="2" d="M171.699 48.253v0L273.623-128.49v0L315.83 52.74v0l195.093 12.175v0L341.771 180.558v0l-16.545 146.545v0L195.164 180.558v0L32.425 106.312v0z"/></g><g><path fill="none" stroke-miterlimit="20" stroke-width="2" d="M309.56-114.46v0l133.932-33.848v0l118.538 84.06v0L384.58 121.666v0z"/></g><g transform="rotate(43 292.205 106.495)"><path fill="none" stroke-miterlimit="20" stroke-width="2" d="M70.596 41.367v0l253.428-144.652v0L513.81 92.722v0L232.47 316.28v0z"/></g><g><path fill="none" stroke-miterlimit="20" stroke-width="2" d="M267.612-67.307v0l93.839-23.715v0l83.054 58.897v0l-34.68 85.703v0l-89.65 44.558v0l-69.102-80.314v0z"/></g></g></g></svg>
