<svg xmlns="http://www.w3.org/2000/svg" width="32" height="32" viewBox="0 0 32 32"><g transform="translate(-3 -2.85)"><path d="M20.4,35.953H16.55A.55.55,0,0,1,16,35.4V31.551a.554.554,0,0,1,.941-.391l3.852,3.852a.554.554,0,0,1-.391.941Zm-3.3-1.1h1.976L17.1,32.877Z" transform="translate(-5.846 -12.66)"/><path d="M48.39,17.79H34.55a.55.55,0,0,1-.55-.55V3.4a.55.55,0,0,1,.55-.55A14.407,14.407,0,0,1,48.94,17.24.55.55,0,0,1,48.39,17.79ZM35.1,16.69H47.829A13.306,13.306,0,0,0,35.1,3.962Z" transform="translate(-13.941)"/><path d="M10.751,40.1H8.55a.55.55,0,1,1,0-1.1h2.2a.55.55,0,0,1,0,1.1Z" transform="translate(-2.249 -16.257)"/><path d="M36.751,47.1h-2.2a.55.55,0,0,1,0-1.1h2.2a.55.55,0,0,1,0,1.1Z" transform="translate(-13.941 -19.405)"/><path d="M43.751,19.1h-2.2a.55.55,0,0,1,0-1.1h2.2a.55.55,0,0,1,0,1.1Z" transform="translate(-17.089 -6.813)"/><path d="M14.053,46.1H8.55a.55.55,0,1,1,0-1.1h5.5a.55.55,0,1,1,0,1.1Z" transform="translate(-2.249 -18.955)"/><path d="M14.053,50.1H8.55a.55.55,0,1,1,0-1.1h5.5a.55.55,0,1,1,0,1.1Z" transform="translate(-2.249 -20.754)"/><path d="M14.556,47.509H3.55a.55.55,0,0,1-.55-.55V31.55A.55.55,0,0,1,3.55,31H10.7a.55.55,0,0,1,.391.16l3.852,3.852a.55.55,0,0,1,.16.391V46.959A.55.55,0,0,1,14.556,47.509ZM4.1,46.408h9.905V35.628L10.478,32.1H4.1Z" transform="translate(0 -12.659)"/><path d="M20.39,34.545a14.312,14.312,0,0,1-4.669-.782.55.55,0,0,1-.366-.516V24.315l-3.527-3.527H6.55a.55.55,0,0,1-.55-.55v-.083A14.357,14.357,0,0,1,18.849,5.847a.549.549,0,0,1,.611.545V21.085H34.153a.55.55,0,0,1,.55.611A14.357,14.357,0,0,1,20.39,34.545ZM16.456,32.85A13.3,13.3,0,0,0,33.515,22.185H18.91a.55.55,0,0,1-.55-.55V7.03A13.257,13.257,0,0,0,7.1,19.687h4.953a.55.55,0,0,1,.391.16L16.3,23.7a.55.55,0,0,1,.16.391Z" transform="translate(-1.349 -1.346)"/></g></svg>