<svg xmlns="http://www.w3.org/2000/svg" width="32" height="32" viewBox="0 0 32 32"><g><g><g><g><path d="M16 2c3.86 0 7 3.14 7 7s-3.14 7-7 7-7-3.14-7-7 3.14-7 7-7zm0 16c4.963 0 9-4.037 9-9s-4.037-9-9-9-9 4.037-9 9 4.037 9 9 9z"/></g><g><path d="M18.586 30H6v-6c0-.895.716-1.394 1.316-1.656 1.346-.587 3.142-.412 4.003.389A1 1 0 0 0 12 23h7a1.001 1.001 0 0 1 0 2h-7a1 1 0 0 0 0 2h7c1.654 0 3-1.346 3-3 0-.643-.203-1.239-.549-1.728l4.535-2.834c1.2-.75 2.576-.861 2.96-.606l.484.323zM2 25h2v5H2zm29.995-6.098a1 1 0 0 0-.44-.734l-1.5-1c-1.324-.882-3.63-.363-5.129.574l-5.313 3.321A2.999 2.999 0 0 0 19 21h-6.64c-.709-.532-1.636-.874-2.658-.973-1.095-.106-2.225.065-3.185.484-1.234.537-2.061 1.417-2.375 2.489H1a1 1 0 0 0-1 1v7a1 1 0 0 0 1 1h18a1 1 0 0 0 .707-.293l12-12a1 1 0 0 0 .288-.805z"/></g><g><path d="M16 12c-.551 0-1-.449-1-1a1 1 0 0 0-2 0c0 1.304.836 2.415 2 2.828V14a1 1 0 1 0 2 0v-.172A3.005 3.005 0 0 0 19 11c0-1.654-1.346-3-3-3a1.001 1.001 0 0 1 0-2c.551 0 1 .449 1 1a1 1 0 0 0 2 0 3.005 3.005 0 0 0-2-2.828V4a1 1 0 0 0-2 0v.172A3.005 3.005 0 0 0 13 7c0 1.654 1.346 3 3 3a1.001 1.001 0 0 1 0 2z"/></g></g></g></g></svg>