<svg width="240" height="127" fill="none" xmlns="http://www.w3.org/2000/svg"><path d="M239.438 20.43h-21.57c-7.119-9.403-18.4-15.495-31.076-15.495H58.609C53.956 2.818 45.765.668 35.626.668c-11.172 0-19.846 2.614-24.248 5.067C4.04 9.82 5.486 15.35 5.964 17.17c.593 2.26 1.884 3.492 2.917 4.247-.233 1.504-1.13 3.608-1.627 4.783l-.22.522c-2.845 6.745-4.42 12.921-4.8 18.885-.44 6.938.515 13.114 2.116 18.645v14.47c-.194.168-.387.33-.568.51C1.342 81.647 0 84.835 0 88.223v14.974c0 5.066 4.124 9.19 9.19 9.19h2.356c.13 2.395.717 5.622 3.453 8.255 3.892 3.75 11.475 5.899 20.795 5.899 7.403 0 13.702-1.362 17.936-3.801h133.056c10.178 0 19.446-3.937 26.39-10.353h4.976c5.067 0 9.191-4.124 9.191-9.19V88.449l12.088-68.018h.007Z" fill="#fff"/><path d="M235.339 23.868h-19.226c-6.403-9.346-17.155-15.496-29.314-15.496H58.06C54.007 6.3 45.953 4.009 35.633 4.009s-18.588 2.4-22.622 4.647c-4.46 2.484-4.466 5.156-3.808 7.673.44 1.666 1.44 2.285 2.408 2.885.168.104.342.213.523.33.6 2.33-.833 5.698-1.801 7.964l-.22.51C7.41 34.42 5.926 40.242 5.57 45.818c-.433 6.802.58 12.863 2.22 18.284v16.322a9.237 9.237 0 0 0-1.594 1.259c-1.781 1.755-2.762 4.079-2.762 6.538v14.973a5.752 5.752 0 0 0 5.75 5.751h5.66v1.678c0 .522.007 1.207.058 1.897.059.729.155 1.368.297 1.962.375 1.517 1.065 2.743 2.11 3.75.214.206.446.407.691.6.24.194.497.381.768.562 1.04.697 2.304 1.316 3.757 1.839.355.129.722.252 1.097.368 3.388 1.045 7.603 1.601 12.178 1.601 2.963 0 5.764-.233 8.326-.685a31.546 31.546 0 0 0 3.847-.916 21.253 21.253 0 0 0 2.666-1.013c.316-.149.625-.297.916-.452.258-.136.51-.278.748-.426.22-.136.414-.271.614-.413h133.869c9.758 0 18.613-3.956 25.041-10.352h6.325a5.752 5.752 0 0 0 5.751-5.751V88.163l11.43-64.289.006-.006Z" fill="#000"/><path d="M56.286 84.145c-.045 2.162-.187 5.267-.606 8.552.026.032.045.058.077.084.936 1.032 2.104 2.317 2.104 4.827v.633h42.803l3.298-14.102h-47.67l-.006.006Z" fill="#DEE1E3"/><path d="M208.821 23.872c-5.454-5.995-13.314-9.765-22.034-9.765H62.702c.013.75-.116 1.491-.31 2.227-.438 1.665-1.439 2.285-2.407 2.885a31.46 31.46 0 0 0-.523.33c-.322 1.251-.051 2.8.413 4.317h148.953l-.007.006ZM56.745 110.627c0 .949-.026 1.956-.18 2.95h130.229c8.409 0 16.012-3.511 21.433-9.139H56.745v6.189Z" fill="#BDC3C7"/><path d="M142.232 42.19h-7.319l-.477 2.69h6.331l1.465-2.69Z" fill="#fff"/><path d="M128.93 35.458h1.297l.659 3.885h1.723l-.775-4.57 2.382-4.563h-1.723l-2.027 3.88h-1.291l.685-3.88h-1.724l-1.607 9.133h1.717l.684-3.885Zm14.316-3.886h2.633l.71-1.362h-3.705c-.613 0-1.207.504-1.316 1.117l-1.414 8.016h1.724l1.374-7.77h-.006Zm42.157 4.757h2.175l-.529 3.014h1.723l1.6-9.133h-1.723l-.832 4.757h-2.175l.832-4.757h-1.723l-1.601 9.133h1.724l.529-3.014Zm-65.498 3.014h3.401c.614 0 1.207-.504 1.317-1.117l1.22-6.912a.957.957 0 0 0-.187-.787c-.168-.207-.426-.317-.717-.317h-3.401c-.613 0-1.207.504-1.317 1.117l-1.219 6.912a.957.957 0 0 0 .187.788.903.903 0 0 0 .716.316Zm1.988-7.77h2.175l-1.129 6.402h-2.175l1.129-6.403Zm26.098 7.77.529-3.014h2.175l-.529 3.014h1.723l1.413-8.029a.953.953 0 0 0-.187-.787c-.168-.207-.426-.317-.716-.317h-3.401c-.613 0-1.207.504-1.317 1.117l-1.413 8.016h1.723Zm1.368-7.77h2.175l-.6 3.394h-2.175l.6-3.395Zm43.763 4.756h2.175l-.53 3.014h1.724l1.413-8.029a.957.957 0 0 0-.187-.787c-.168-.207-.426-.317-.717-.317h-3.401c-.613 0-1.207.504-1.316 1.117l-1.414 8.016h1.723l.53-3.014Zm.839-4.757h2.175l-.601 3.395h-2.175l.601-3.395Zm-13.736 2.685-.897 5.086h1.723l1.614-9.133h-1.485l-3.349 5.273.935-5.273h-1.723l-1.613 9.133h1.549l3.246-5.086Zm-18.369 5.086.529-3.014h2.175l-.529 3.014h1.723l1.414-8.029a.96.96 0 0 0-.187-.787c-.168-.207-.426-.317-.717-.317h-3.401c-.613 0-1.207.504-1.317 1.117l-1.413 8.016h1.723Zm1.368-7.77h2.175l-.6 3.394h-2.175l.6-3.395Z" fill="#BDC3C7"/><path d="M209.377 30.212c-1.962 0-3.84 1.594-4.182 3.556l-5.686 32.012c-.348 1.962.968 3.556 2.93 3.556h5.447l-.858 4.847h4.389l.858-4.847h5.409c1.962 0 3.84-1.594 4.182-3.556l6.325-35.575h-18.82l.006.007Zm-.742 34.903h-4.195l5.447-30.676h4.182l-5.434 30.676Zm8.552 0h-4.163l5.434-30.676h4.176l-5.447 30.676Z" fill="#fff"/><path d="M157.099 31.572h2.634l.709-1.362h-3.704c-.613 0-1.207.504-1.317 1.117l-1.413 8.016h1.723l1.375-7.77h-.007Z" fill="#BDC3C7"/><path d="M145.316 62.043h6.325l1.788-3.298h-7.538l-.575 3.298Zm-13.888.204 2.756-15.65h-5.402l-4.866 27.584h4.918l8.59-15.826-2.788 15.826h5.402l4.866-27.585h-4.982l-8.494 15.651Zm39.322-15.645h-8.687c-1.962 0-3.84 1.594-4.182 3.556l-3.608 20.465c-.349 1.962.968 3.557 2.93 3.557h8.687c1.962 0 3.84-1.595 4.182-3.557l3.608-20.465c.348-1.962-.968-3.556-2.93-3.556Zm-6.106 23.092h-4.621l3.279-18.607h4.621l-3.279 18.607Z" fill="#fff"/><path d="M174.711 30.527c-.168-.207-.426-.317-.716-.317h-4.518l-1.614 9.133h1.723l.53-3.014h2.781c.614 0 1.207-.504 1.317-1.117l.691-3.898a.957.957 0 0 0-.188-.787h-.006Zm-2.175 4.44h-2.175l.6-3.395h2.175l-.6 3.395Zm-55.64 3.254.633-3.595a.96.96 0 0 0-.187-.787c-.168-.207-.426-.317-.717-.317h-2.801l.342-1.955h3.873l.71-1.362h-4.951c-.619 0-1.207.504-1.316 1.117l-1.414 8.015h4.505c.613 0 1.207-.503 1.317-1.116h.006Zm-3.859-.245.542-3.085h2.175l-.542 3.085h-2.175Z" fill="#BDC3C7"/><path d="M195.661 46.602h-14.386c-1.962 0-3.84 1.594-4.182 3.556l-2.756 15.618c-.348 1.963.968 3.557 2.93 3.557h4.963l-.851 4.847h4.388l.852-4.847h5.034c1.962 0 3.84-1.594 4.183-3.557l2.755-15.618c.349-1.962-.968-3.556-2.93-3.556Zm-12.688 18.503h-3.705l2.517-14.276h3.705l-2.517 14.276Zm8.183 0h-3.795l2.517-14.276h3.795l-2.517 14.276Z" fill="#fff"/><path d="M98.09 35.458h1.298l.659 3.885h1.723l-.775-4.57 2.382-4.563h-1.723l-2.027 3.88H98.33l.69-3.88h-1.723l-1.613 9.133h1.723l.684-3.885Zm6.371 3.885h3.401c.613 0 1.207-.504 1.316-1.117l1.414-8.016h-1.723l-.736 4.176h-2.182l.736-4.176h-1.723l-.781 4.434a.956.956 0 0 0 .187.788c.168.206.426.316.717.316h2.801l-.394 2.227h-2.175l.168-.936h-1.724l-.213 1.194a.957.957 0 0 0 .188.787c.167.207.426.316.716.316l.007.007Z" fill="#BDC3C7"/><path d="M97.478 46.602c-1.962 0-4.066 1.594-4.685 3.556L85.164 74.18h5.596l7.331-23.093h3.305L97.323 74.18h5.596l4.86-27.578h-10.3ZM85.94 30.212H71.336l.471 4.485-6.97 39.486h5.596l6.97-39.486h5.718l-6.97 39.486h5.589l7.132-40.422c.348-1.962-.968-3.556-2.93-3.556v.007Zm28.395 31.323h4.828l2.343-4.485h-6.377l1.052-5.957h7.764l2.343-4.486h-11.352c-1.962 0-3.841 1.594-4.183 3.556l-4.233 24.022h14.218l.794-4.486h-8.623l1.439-8.157-.013-.007Z" fill="#fff"/><path d="M214.488 84.144h-41.629l-3.304 14.102h43.958c3.524 0 4.918 1.272 5.757 3.046V88.43c0-2.511-1.794-4.28-4.782-4.28v-.006Z" fill="#DEE1E3"/><path d="M138.443 86.12h-2.052c-.161 0-.265.02-.31.064-.045.046-.077.123-.11.24l-1.239 5.201h-.103l-.71-1.762-1.329-3.091a2.562 2.562 0 0 0-.207-.349.775.775 0 0 0-.219-.194.942.942 0 0 0-.278-.09 3.052 3.052 0 0 0-.374-.02h-.749c-.407 0-.703.078-.884.233-.187.155-.336.458-.439.91l-2.072 8.674c-.045.2.039.304.258.304h2.053c.161 0 .264-.02.31-.065.045-.045.077-.123.103-.239l1.239-5.176h.103l.73 1.794 1.316 3.034c.065.142.129.258.2.348a.776.776 0 0 0 .226.194.735.735 0 0 0 .284.084c.11.013.226.02.362.02h.748c.433 0 .742-.11.93-.323a2 2 0 0 0 .4-.82l2.071-8.674c.052-.2-.038-.304-.258-.304v.007Zm8.616.606a2.076 2.076 0 0 0-.877-.464 4.491 4.491 0 0 0-1.181-.142h-3.763c-.394 0-.671.077-.82.239-.155.16-.264.4-.342.716l-1.923 8.216c-.078.335-.078.58 0 .73.084.148.316.225.716.225h3.757c.503 0 .981-.07 1.445-.226a4.533 4.533 0 0 0 1.272-.639c.38-.277.71-.6.974-.98a3.57 3.57 0 0 0 .562-1.266c.058-.232.084-.464.084-.703 0-.233-.033-.465-.097-.678a1.899 1.899 0 0 0-.323-.594 1.679 1.679 0 0 0-.581-.438l.02-.084a3.16 3.16 0 0 0 .955-.82c.284-.355.471-.716.561-1.09.11-.465.116-.86.033-1.188a1.657 1.657 0 0 0-.478-.807l.006-.007Zm-2.943 6.216a1.497 1.497 0 0 1-.116.316 1.12 1.12 0 0 1-.232.303c-.097.097-.22.174-.355.233a1.292 1.292 0 0 1-.497.084h-1.697l.445-1.898h1.697c.317 0 .536.09.665.271.123.18.155.407.09.684v.007Zm.504-3.802c-.065.278-.194.465-.375.562a1.212 1.212 0 0 1-.567.142h-1.511l.323-1.388h1.568c.22 0 .381.058.484.174.104.117.129.284.078.504v.006Zm12.12-3.02h-4.266c-.509 0-.961.077-1.355.232a3.264 3.264 0 0 0-1.007.613 3.233 3.233 0 0 0-.677.884 4.117 4.117 0 0 0-.381 1.02l-1.085 4.628a4.407 4.407 0 0 0-.109.968c0 .329.071.626.219.89.142.265.381.478.704.646.322.161.774.245 1.349.245h4.466c.18 0 .303-.11.355-.33l.38-1.632c.039-.161.046-.265.02-.297-.026-.032-.097-.051-.213-.051h-3.672c-.123 0-.239-.007-.343-.02a.492.492 0 0 1-.251-.103.39.39 0 0 1-.123-.239 1.095 1.095 0 0 1 .039-.432l.252-1.085h3.878c.181 0 .304-.11.355-.329l.349-1.503c.039-.162.045-.265.019-.304-.026-.039-.097-.058-.213-.058h-3.879l.142-.607a2.82 2.82 0 0 1 .097-.29 1.03 1.03 0 0 1 .174-.258.887.887 0 0 1 .304-.194 1.31 1.31 0 0 1 .484-.077h3.44c.103 0 .181-.02.232-.065.052-.045.091-.129.116-.251l.381-1.633c.039-.162.045-.265.02-.297-.026-.032-.097-.052-.213-.052l.012-.02Zm9.449.051c-.032-.032-.11-.051-.226-.051h-7.622c-.116 0-.2.02-.252.051-.051.033-.096.136-.135.297l-.381 1.62c-.052.22.026.33.226.33h2.414l-1.762 7.518c-.045.2.039.304.258.304h2.052c.162 0 .265-.02.31-.065.045-.045.078-.123.103-.239l1.762-7.519h2.472c.2 0 .329-.11.381-.329l.381-1.62c.039-.161.039-.264 0-.297h.019Zm-52.871 2.782a.87.87 0 0 1 .174-.258.882.882 0 0 1 .303-.194 1.33 1.33 0 0 1 .484-.077h3.57c.103 0 .18-.02.232-.065.052-.045.09-.129.116-.251l.381-1.633c.039-.162.045-.265.019-.297-.026-.032-.097-.052-.213-.052h-4.395c-.51 0-.962.078-1.355.233-.394.154-.73.361-1.007.613a3.215 3.215 0 0 0-.678.884 4.199 4.199 0 0 0-.381 1.02l-1.658 7.086c-.045.194.045.29.264.29h2.053c.168 0 .271-.019.31-.057.045-.04.077-.117.103-.233l.845-3.614h3.802c.18 0 .303-.11.355-.336l.355-1.504c.038-.16.045-.264.019-.303-.026-.039-.097-.058-.213-.058h-3.801l.206-.897a1.65 1.65 0 0 1 .097-.29l.013-.007Zm13.715-1.575a2.731 2.731 0 0 0-1.188-1.045c-.516-.245-1.162-.368-1.943-.368-.78 0-1.439.123-2.065.368a5.21 5.21 0 0 0-1.671 1.058 6.409 6.409 0 0 0-1.253 1.659 8.497 8.497 0 0 0-.8 2.156c-.187.813-.271 1.536-.245 2.181.026.645.174 1.194.432 1.64.259.445.652.787 1.169 1.025.516.24 1.168.355 1.949.355.781 0 1.549-.122 2.194-.361a4.907 4.907 0 0 0 1.685-1.04c.477-.45.877-1 1.2-1.645.323-.645.581-1.375.774-2.181.188-.794.259-1.504.226-2.15-.032-.638-.187-1.187-.458-1.639l-.006-.013Zm-2.492 2.724a8.26 8.26 0 0 1-.155 1.078 7.034 7.034 0 0 1-.329 1.058c-.129.336-.29.633-.477.89-.187.259-.4.459-.646.608a1.606 1.606 0 0 1-.845.225c-.316 0-.587-.064-.775-.2a1.084 1.084 0 0 1-.4-.568c-.077-.245-.103-.548-.077-.903a7.97 7.97 0 0 1 .193-1.2c.084-.356.2-.698.342-1.027a3.79 3.79 0 0 1 .504-.858c.193-.245.413-.44.658-.588.245-.142.51-.219.788-.219.335 0 .6.078.787.226.187.148.316.348.381.6.064.252.084.549.058.89l-.007-.012Z" fill="#fff"/><path d="M28.232 116.243c-2.543-1.93-5.912-5.215-8.732-10.301v4.68c0 2.104.168 3.407 1.04 4.246 1.425 1.375 5.033 2.937 10.88 3.473a27.29 27.29 0 0 1-3.188-2.092v-.006Z" fill="#BDC3C7"/><path d="M28.233 116.247c-1.652-1.252-3.653-3.092-5.628-5.602v5.569c1.762.852 4.37 1.62 7.836 2.02v-.477a28.596 28.596 0 0 1-2.201-1.51h-.007Z" fill="#fff"/><path d="M49.832 108.817v6.938c.49-.297.897-.594 1.2-.878.872-.839 1.04-2.142 1.04-4.246v-5.525a36.27 36.27 0 0 1-2.233 3.717l-.007-.006Zm7.324-96.298c-4.247-2.504-11.508-4.195-21.376-4.195-9.868 0-17.129 1.69-21.376 4.195-2.207 1.304-1.684 2.756-.736 2.924 1.098-.736 2.685-1.33 2.685-1.33s2.401 1.588 2.685 3.827c0 0-1.316-.813-3.143-.38 1.607 2.717-.213 7.531-.923 9.448-1.684 4.53-4.227 11.378-4.518 18.994-.51 13.47 4.77 25.061 7.306 30.631.175.38.33.723.484 1.065.736-.245 1.653-.51 2.782-.781-5.286-5.267-9.771-21.75-7.525-25.513.522-.878 1.284-1.297 2.136-1.297 2.085 0 3.337 2.104 4.924 4.66 1.801 2.891 3.86 5.337 8.23 6.841 0 0-.472.781-1.601 1.31 1.38.975 4.388 1.22 8.377 1.233v-2.233c3.44-2.678 3.33-7.177 3.33-12.23v-3.892c-1.007-.02-2.059-.032-3.156-.032-7.764 0-13.289.49-16.954 1.051-.497.917-1.182 1.562-2.137 1.562-2.885 0-3.246-6.776-1.02-14.102 1.2-3.95 3.156-8.016 3.705-11.688 1.123.265 1.149 3.15 1.149 5.9 0 1.82-.065 7.053-.11 10.396 3.692-.484 8.72-.884 15.36-.884 6.642 0 11.308.375 14.961.84V23.8c0-2.666-.18-5.564 1.8-8.01a37.38 37.38 0 0 0-2.639-.826c-2.13 2.433-2.356 6.377-2.356 10.856 0 .942.013 5.698.026 10.887-2.652-.29-5.789-.51-9.48-.574-1.324-.297-3.06-.962-4.377-2.407.51.232 1.059.361 1.633.361 2.808 0 5.08-3.014 5.08-6.731 0-1.86-.568-3.544-1.491-4.763.064-5.396.949-8.107 1.497-9.262a70.722 70.722 0 0 0-10.552-.155c-2.15.13-4.699.42-6.816.755l-1.58-1.568c14.65-3.317 30.372-.555 36.555 2.162.232.103.426.207.613.316.239-.58-.045-1.484-1.478-2.33l.026.007Z" fill="#BDC3C7"/><path d="M35.82 69.357c-2.815 0-4.938-.252-6.351-.652.051 3.201-.33 5.48-.975 7.06a81.003 81.003 0 0 1 7.203-.303c.587 0 1.136.013 1.69.026-.109-2.685-.16-4.879-.186-6.157a46.68 46.68 0 0 1-1.382.026Zm-5.198-3.577c-.574.477-1.497.755-1.497.755s1.149.78 6.693.78c.239 0 .445-.006.671-.012v-1.31h-.671c-2.136 0-3.827-.084-5.19-.213h-.006Zm12.085-1.743c1.53-.374 2.44-1 2.543-2.014-.904.181-1.781.29-2.543.355v1.66Zm8.12-14.435v-2.969a100.77 100.77 0 0 0-3.265-.361c0 2.82 0 4.937-.014 5.415-.129 4.492-2.29 7.79-4.427 9.255 3.82-1.343 7.706-4.473 7.706-11.346v.006Z" fill="#BDC3C7"/><path d="M33.246 64.102v-1.859c-1.846-.07-3.453-.329-3.453-.329V63.8c.981.167 2.136.264 3.453.31v-.007ZM24.73 46.164c.627 10.9 4.757 13.463 8.087 14.031-1.439-2.143-1.561-4.873-1.561-9.43v-4.93c-2.447.065-4.615.18-6.526.33Zm6.533-25.708c-.026-2.582-.174-5.377-.82-7.3-.193.013-.387.013-.58.026-2.15.13-4.7.42-6.816.755 1.717 2.46 1.646 5.854 1.646 8.958 0 3.273-.013 9.236-.02 13.747 1.943-.193 4.137-.348 6.596-.439v-4.808c-.639-1.123-1.02-2.517-1.02-4.034 0-3.717 2.279-6.731 5.08-6.731-.697-.387-2.62-.607-4.06-.168l-.006-.006Z" fill="#fff"/><path d="M57.148 12.518C52.9 10.014 45.64 8.323 35.772 8.323c-9.868 0-17.129 1.691-21.375 4.195-2.208 1.304-1.685 2.756-.736 2.924 1.097-.736 2.685-1.33 2.685-1.33 2.44-1.006 5.098-1.748 5.098-1.748 14.65-3.318 30.373-.556 36.556 2.161a6.1 6.1 0 0 1 .613.317c.239-.581-.045-1.485-1.478-2.33l.013.006Z" fill="#fff"/><path d="M43.139 75.792c-.652-1.582-1.033-3.873-.988-7.087-.477.136-1.045.245-1.684.342-.039 2.601.206 4.783.658 6.59.697.045 1.368.097 2.014.155ZM61.165 46c-.29-7.608-2.833-14.462-4.518-18.993-.71-1.917-2.53-6.732-.923-9.449-4.33.71-1.865 8.816.446 16.348.897 2.917 1.516 5.467 1.439 8.1-.13 4.279-1.284 5.84-.994 7.28.33 1.646 2.388 1.594 2.052 6.583-.426 6.474-4.053 17.103-8.112 21.098.839.2 1.562.407 2.175.594 1.678-2.388 3.285-5.647 4.679-9.462 2.162-5.93 4.085-13.643 3.769-22.092l-.013-.006Z" fill="#BDC3C7"/><path d="M33.332 75.502c.097-2.736.142-4.963.168-6.209a24.638 24.638 0 0 1-2.807-.31 67.766 67.766 0 0 1-.375 6.654 80.22 80.22 0 0 1 3.014-.135Zm19.765 6.231v-.142l-.013-.258-.226-.13-.123-.064c-.2-.11-4.97-2.73-17.07-2.73-12.102 0-16.878 2.62-17.071 2.73l-.117.065-.219.129v.258l-.013.142c0 .123-.303 12.334 2.653 19.259 2.698 6.312 6.486 10.094 9.197 12.146 2.962 2.253 5.273 2.995 5.37 3.027l.077.026.135.045.136-.045.07-.026c.098-.026 2.408-.768 5.37-3.027 2.705-2.059 6.506-5.841 9.198-12.146 2.956-6.932 2.659-19.136 2.652-19.259h-.006Zm-3.982 18.717c-2.51 5.853-6.003 9.39-8.494 11.326-2.704 2.104-4.789 2.801-4.879 2.834l-.052.013-.045-.013c-.084-.033-2.168-.736-4.88-2.834-2.49-1.936-5.982-5.473-8.493-11.326-2.755-6.429-2.6-17.917-2.6-18.026v-.136l.122-.064c.18-.097 4.595-2.318 15.896-2.318 11.308 0 15.716 2.22 15.897 2.317l.122.065v.136c0 .116.155 11.604-2.594 18.026Z" fill="#fff"/><path d="m34.57 91.306-5.526-9.042c-4.646.426-6.809 1.207-7.235 1.38v.117c-.064.82-.38 6.544 1.375 12.818h8.177l3.214-5.267-.006-.006Zm-5.83 1.574-1.633-2.427-.78.89v1.537h-2.014v-6.37h2.013v2.31l2.085-2.31h2.156l-2.253 2.568 2.556 3.802h-2.13Zm20.784-9.237c-.426-.174-2.595-.955-7.261-1.38l-.052.077.058-.104-5.53 9.049 3.213 5.266-.032-.058.052.084h8.177c1.755-6.273 1.44-11.991 1.388-12.817l-.013-.117Zm-2.53 9.242h-2.04v-4.847h-1.53v1.691c-.096 3.247-2.652 3.28-2.652 3.28l-.852-1.395a1.633 1.633 0 0 0 1.246-.897c.006-.013.013-.02.013-.026.174-.374.2-.78.2-.975V86.42h5.615v6.473-.007Zm-6.801-10.776a78.233 78.233 0 0 0-4.525-.13 77.82 77.82 0 0 0-4.518.13l4.518 7.409 4.525-7.41Z" fill="#fff"/><path d="M40.497 100.588h-.258l-4.576-7.473v-.026.013l-4.621 7.48h-6.474c.8 1.826 1.807 3.621 3.098 5.286 2.653 3.272 5.422 4.982 6.906 5.737a17.235 17.235 0 0 0 1.084.51s.078-.026.22-.084a21.36 21.36 0 0 0 2.672-1.465 22.694 22.694 0 0 0 4.208-3.646c1.704-1.936 2.988-4.105 3.95-6.325H40.49l.007-.007Zm-1.414 7.59h-2.246l-1.148-1.607-1.156 1.607h-2.246l2.279-3.181-2.285-3.189h2.252l1.162 1.62 1.155-1.62h2.253l-2.285 3.189 2.272 3.181h-.007Z" fill="#fff"/><path d="M15.477 93.154c-.464-3.453-.626-6.745-.67-9.01H12.83c-2.988 0-4.782 1.768-4.782 4.28v12.862c.826-1.756 2.207-3.014 5.66-3.04v-.639c0-2.214.91-3.472 1.768-4.453Z" fill="#DEE1E3"/><path d="M176.617 96.094v-2.142l3.756-3.86c.168-.168.239-.323.239-.53v-.548c0-.284-.168-.451-.452-.451h-3.407v-2.285h4.279c1.258 0 2.104.839 2.104 2.104v1.233c0 .8-.239 1.316-1.007 2.09l-2.007 1.976v.122h3.014v2.285h-6.519v.006Zm10.917.136c-1.259 0-2.104-.838-2.104-2.103v-5.893c0-1.265.839-2.104 2.104-2.104h2.846c1.265 0 2.104.84 2.104 2.104v5.893c0 1.258-.839 2.104-2.104 2.104h-2.846Zm1.994-2.284c.265 0 .439-.168.439-.445v-4.628c0-.277-.168-.452-.439-.452h-1.136c-.277 0-.432.168-.432.452v4.628c0 .277.155.445.432.445h1.136Zm5.264 2.15v-2.15l3.756-3.86c.168-.167.239-.322.239-.528v-.549c0-.284-.168-.452-.452-.452h-3.407v-2.285h4.279c1.265 0 2.104.84 2.104 2.104v1.233c0 .8-.239 1.317-1.014 2.091l-2.007 1.975v.13h3.014v2.284h-6.525l.013.007Z" fill="#000"/><path d="M210.095 91.881v-2h-2.369v2h-1.374l2.13-4.285.025-1.324h-1.955l-2.911 5.835-.026 2.078h3.95v1.91h2.53v-1.91h.975v-2.304h-.975Z" fill="#030405"/><path d="M62.621 96.092v-2.143l3.756-3.86c.168-.167.24-.322.24-.528v-.55c0-.283-.169-.45-.453-.45h-3.407v-2.286h4.279c1.258 0 2.104.84 2.104 2.104v1.233c0 .8-.24 1.317-1.007 2.091l-2.007 1.975v.123h3.014v2.284h-6.52v.007Zm11.464.142c-1.26 0-2.104-.84-2.104-2.104v-5.893c0-1.265.839-2.104 2.104-2.104h2.846c1.265 0 2.104.84 2.104 2.104v5.893c0 1.258-.84 2.104-2.104 2.104h-2.846Zm1.994-2.285c.264 0 .439-.168.439-.445v-4.628c0-.277-.168-.452-.44-.452h-1.135c-.278 0-.433.168-.433.452v4.628c0 .277.155.445.433.445h1.136Zm5.318 2.143v-2.143l3.756-3.86c.167-.167.238-.322.238-.528v-.55c0-.283-.167-.45-.451-.45h-3.408v-2.286h4.279c1.259 0 2.104.84 2.104 2.104v1.233c0 .8-.239 1.317-1.007 2.091l-2.007 1.975v.123h3.014v2.284h-6.519v.007Zm9.021-.002v-2.284h3.55c.284 0 .451-.168.451-.446v-.658c0-.278-.167-.433-.451-.433h-1.962v-1.878l1.684-1.697v-.123h-3.266v-2.284h6.216v2.058l-1.795 1.827v.11h.226c1.181 0 1.962.8 1.962 2.007v1.71c0 1.259-.839 2.104-2.104 2.104h-4.505l-.006-.013Z" fill="#000"/></svg>