<svg width="230" height="43" fill="none" xmlns="http://www.w3.org/2000/svg"><path d="M11.358 41.513a1.94 1.94 0 0 1-1.28.257H1.99c-.914 0-1.28-.403-1.06-1.208l6.55-28.214a16.03 16.03 0 0 1 1.536-4.062c.696-1.317 1.574-2.525 2.672-3.513a12.5 12.5 0 0 1 3.988-2.451 14.607 14.607 0 0 1 5.453-.915H38.62c.476 0 .732.073.879.183.146.146.073.549-.074 1.207L37.89 9.311c-.074.366-.22.732-.476.988a1.345 1.345 0 0 1-.915.256H22.263c-.659 0-1.317.11-1.94.33-.438.183-.84.439-1.207.805-.33.292-.549.658-.732 1.06-.183.367-.293.733-.402 1.135l-.805 3.513h15.15c.475 0 .731.073.878.22.11.402.073.805-.073 1.207l-1.391 6.002c-.183.878-.659 1.317-1.39 1.317H15.127l-3.404 14.418c-.036.33-.183.659-.402.915l.036.036Zm51.048-19.907c.293-1.39.476-2.818.585-4.245.11-1.171 0-2.379-.256-3.513-.183-.951-.658-1.83-1.39-2.452-.915-.622-2.013-.951-3.11-.878-1.099 0-2.196.293-3.111.878a9.878 9.878 0 0 0-2.598 2.342c-.805 1.062-1.464 2.232-2.013 3.477a20.163 20.163 0 0 0-1.317 4.135 30.5 30.5 0 0 0-.805 4.793 9.9 9.9 0 0 0 .329 3.587c.256.915.842 1.72 1.61 2.268.952.586 2.013.879 3.11.805 1.172 0 2.27-.365 3.257-.988a8.975 8.975 0 0 0 2.598-2.378 16.184 16.184 0 0 0 1.867-3.513 27.606 27.606 0 0 0 1.317-4.172m11.454-.073c-.659 3-1.683 5.928-3.074 8.71a23.603 23.603 0 0 1-4.794 6.586 19.368 19.368 0 0 1-6.733 4.135 25.175 25.175 0 0 1-8.71 1.464 18.403 18.403 0 0 1-7.794-1.39 10.03 10.03 0 0 1-4.647-4.063c-1.098-1.976-1.683-4.244-1.72-6.513a31.838 31.838 0 0 1 .988-8.71c.696-3 1.757-5.854 3.184-8.562a25.007 25.007 0 0 1 4.976-6.587c1.94-1.793 4.172-3.22 6.66-4.172C54.941 1.333 57.723.784 60.577.784a18.14 18.14 0 0 1 7.721 1.464 10.709 10.709 0 0 1 4.721 4.208 13.984 13.984 0 0 1 1.866 6.514c.11 2.89-.22 5.782-.915 8.6m67.075 7.025a3.205 3.205 0 0 0-.329-2.708c-.476-.695-1.391-1.061-2.672-1.061h-6.733l-1.793 7.501h6.77c.695 0 1.354-.073 2.013-.329a4.725 4.725 0 0 0 2.342-2.122c.219-.403.366-.842.475-1.281m-7.831-12.296h6.002c.805 0 1.573-.22 2.268-.585a3.218 3.218 0 0 0 1.464-2.269c.22-.659.11-1.427-.329-1.976a2.48 2.48 0 0 0-1.94-.659h-6.257l-1.208 5.526v-.037Zm15.15 3.477a7.2 7.2 0 0 1 2.342 1.72c.585.695.988 1.537 1.281 2.378.293.879.402 1.793.402 2.745 0 .951-.109 1.866-.329 2.78a14.992 14.992 0 0 1-2.269 5.05c-1.061 1.501-2.342 2.855-3.842 3.916a18.659 18.659 0 0 1-5.05 2.525 19.26 19.26 0 0 1-5.782.878h-14.893c-1.611 0-2.525-.256-2.855-.878-.329-.585-.329-1.61 0-2.927l7.648-32.715c.183-1.061.622-2.05 1.318-2.854.585-.659 1.72-.915 3.257-.915h14.966c1.61 0 3.184.183 4.721.585a8.455 8.455 0 0 1 3.476 1.867 6.726 6.726 0 0 1 1.94 3.183 9.816 9.816 0 0 1-.147 4.721 10.243 10.243 0 0 1-2.268 4.318 12.523 12.523 0 0 1-3.806 3.257l-.073.33-.037.036Zm34.361 21.994H165.05a12.338 12.338 0 0 1-5.379-.989 6.166 6.166 0 0 1-2.781-2.598 7.455 7.455 0 0 1-.878-3.513c0-1.317.146-2.598.475-3.842l4.318-18.406c.33-1.428.842-2.782 1.537-4.062.696-1.318 1.574-2.525 2.672-3.513a12.505 12.505 0 0 1 3.988-2.452c1.72-.659 3.55-.952 5.38-.915h16.942c.476 0 .732.073.879.22.146.146.073.549-.074 1.207l-1.536 6.514c-.074.366-.22.732-.476.988-.256.22-.586.293-.915.256h-13.686c-.659 0-1.317.11-1.939.33-.44.182-.879.439-1.208.805a3.65 3.65 0 0 0-.732 1.06c-.146.367-.293.732-.402 1.135l-.586 2.379h15.443c.475 0 .731.073.878.22.11.402.073.804-.073 1.207l-1.391 5.965c-.183.878-.659 1.317-1.39 1.317h-15.443l-.988 4.318a5.39 5.39 0 0 0-.146 1.72c0 .366.183.695.475.915.293.22.622.366.988.402h15.955c.476 0 .732.073.878.183.147.146.074.55-.073 1.208l-1.537 6.513c-.219.879-.658 1.318-1.39 1.318m43.147-31.07h-9.917l-6.989 29.934c-.036.33-.183.659-.402.915a1.9 1.9 0 0 1-1.281.256h-8.161c-.878 0-1.244-.402-1.061-1.207l6.99-29.934h-9.588c-.805 0-1.134-.476-.915-1.317l1.537-6.44c.037-.44.22-.879.549-1.208a1.84 1.84 0 0 1 .988-.183h30.336c.329-.037.659 0 .915.183.146.146.146.549 0 1.207l-1.537 6.44a1.46 1.46 0 0 1-1.537 1.318M90.14 19.885 85.2 40.487c-.037.33-.183.659-.403.915-.366.22-.842.33-1.28.256h-8.198c-.878 0-1.207-.402-1.06-1.207l8.306-34.508c.402-1.793.988-3 1.72-3.66.732-.658 1.94-.878 3.513-.878h4.464a2.76 2.76 0 0 1 1.061.33c.33.22.622.475.879.805.292.439.585.915.805 1.39l5.306 12.296 2.854 7.062h.403l4.94-20.748c.036-.33.183-.659.402-.915.366-.22.842-.33 1.281-.256h8.197c.878 0 1.281.402 1.061 1.207l-8.233 34.581a7.39 7.39 0 0 1-1.611 3.257c-.768.878-2.012 1.317-3.732 1.28h-4.465a3.116 3.116 0 0 1-1.134-.329 2.436 2.436 0 0 1-.915-.805 7.61 7.61 0 0 1-.805-1.39l-5.27-12.113-2.927-7.099-.256-.073h.037Z" fill="#fff"/></svg>