<svg xmlns="http://www.w3.org/2000/svg" xmlns:xlink="http://www.w3.org/1999/xlink"><symbol id="arrow-left-slider" viewBox="0 0 80 60">
<path d="M21.0642 16.5976L21.064 16.5977L3.31827 30.0002L21.064 43.4058L21.0642 43.4059L37.7173 55.9832V42.6992V40.6992H39.7173H78V19.3043H39.7173H37.7173V17.3043V4.01738L21.0642 16.5976Z" stroke-width="4"/>
</symbol><symbol id="arrow-right-slider" viewBox="0 0 80 60">
<path d="M58.9358 16.5976L58.936 16.5977L76.6817 30.0002L58.936 43.4058L58.9358 43.4059L42.2827 55.9832V42.6992V40.6992H40.2827H2V19.3043H40.2827H42.2827V17.3043V4.01738L58.9358 16.5976Z" stroke-width="4"/>
</symbol><symbol id="arrow-right" viewBox="0 0 32 24">
<path d="M2 12H30M30 12L19.3793 2M30 12L19.3793 22" stroke-width="3" stroke-linecap="round" stroke-linejoin="round"/>
</symbol><symbol id="od" viewBox="0 0 16 28">
<path d="M8.00409 14.1838C11.911 14.1838 15.096 10.9988 15.096 7.09187C15.096 3.18496 11.911 0 8.00409 0C4.05474 0 0.869751 3.18496 0.869751 7.09187C0.869751 10.9988 4.05474 14.1838 8.00409 14.1838ZM8.00409 4.16169C9.61782 4.16169 10.9343 5.47814 10.9343 7.09187C10.9343 8.70559 9.61782 10.022 8.00409 10.022C6.39039 10.022 5.07391 8.70559 5.07391 7.09187C5.03147 5.47814 6.3479 4.16169 8.00409 4.16169Z"/>
<path d="M10.8494 20.002C12.2933 19.6622 13.6947 19.1101 14.9688 18.3032C15.9453 17.7086 16.2425 16.3923 15.6056 15.4155C15.0112 14.4388 13.6947 14.1415 12.7179 14.7785C9.83022 16.6046 6.05071 16.6046 3.16297 14.7785C2.18626 14.184 0.912259 14.4388 0.275268 15.4155C-0.276793 16.3923 0.0204582 17.6662 0.99719 18.2608C2.2712 19.0676 3.67259 19.6197 5.11644 19.9595L1.16707 23.9089C0.360199 24.7157 0.360199 26.0322 1.16707 26.8391C1.59174 27.2635 2.10133 27.4335 2.65339 27.4335C3.20545 27.4335 3.71505 27.2211 4.13971 26.8391L8.04662 22.932L11.9535 26.8391C12.7604 27.646 14.0768 27.646 14.8837 26.8391C15.6905 26.0322 15.6905 24.7157 14.8837 23.9089L10.8494 20.002Z"/>
</symbol><symbol id="tg" viewBox="0 0 30 27">
<path d="M1.39965 12.6687L8.17993 15.1816L10.7629 23.7254C10.9243 24.2281 11.5701 24.5631 12.0544 24.0606L15.9288 20.71C16.2517 20.5424 16.5746 20.5424 16.8974 20.71L23.8392 25.9033C24.3235 26.2383 24.9692 26.0709 25.1306 25.4008L29.9737 0.941785C29.9737 0.439204 29.328 -0.0633777 28.8436 0.10415L1.39965 10.9934C0.753909 11.3285 0.753909 12.3336 1.39965 12.6687ZM10.2786 13.8414L23.3548 5.46501C23.5163 5.29749 23.8392 5.63255 23.5163 5.96759L12.8616 16.3543C12.3772 16.6893 12.2158 17.192 12.0544 17.6945L11.5701 21.2125C11.5701 21.3801 11.2472 21.3801 11.2472 21.2125L9.63285 15.3491C9.47141 14.8465 9.79428 14.1764 10.2786 13.8414Z"/>
</symbol><symbol id="vk" viewBox="0 0 37 24">
<path fill-rule="evenodd" clip-rule="evenodd" d="M35.8455 2.41807C36.1191 1.55882 35.8455 0.842773 34.6137 0.842773H30.6449C29.6869 0.842773 29.1395 1.41561 29.0026 1.98844C29.0026 1.98844 26.9498 7.00075 24.2126 10.2945C23.2547 11.297 22.844 11.5834 22.4335 11.5834C22.1598 11.5834 21.886 11.297 21.886 10.4378V2.41807C21.886 1.41561 21.6124 0.842773 20.7912 0.842773H14.6326C13.9483 0.842773 13.5378 1.2724 13.5378 1.84523C13.5378 2.8477 14.9063 2.99091 15.0432 5.85508V11.8699C15.0432 13.1587 14.7695 13.4451 14.3589 13.4451C12.9903 13.4451 9.84261 8.28962 7.92662 2.56128C7.51604 1.2724 7.24233 0.842773 6.14747 0.842773H2.31547C1.22061 0.842773 0.946899 1.41561 0.946899 1.98844C0.946899 3.1341 2.31547 8.43283 7.10548 15.5933C10.39 20.4623 14.9063 23.0401 19.012 23.0401C21.4755 23.0401 21.7491 22.4674 21.7491 21.4648V17.7413C21.7491 16.5957 22.0229 16.3093 22.7072 16.3093C23.2547 16.3093 24.3495 16.5957 26.5392 18.887C29.1395 21.608 29.6869 22.8969 31.0555 22.8969H35.0243C36.1191 22.8969 36.6666 22.3242 36.3929 21.1785C35.9824 20.0327 34.7506 18.3143 33.1084 16.4525C32.1504 15.3069 30.7818 14.1612 30.3712 13.4451C29.8238 12.7291 29.9607 12.2995 30.3712 11.5834C30.6449 11.7266 35.435 4.70941 35.8455 2.41807Z"/>
</symbol><symbol id="yt" viewBox="0 0 36 26">
<path d="M35.1743 4.43466L35.2159 4.72589C34.7857 3.20039 33.6272 2.02853 32.1564 1.59861L32.1286 1.59167C29.3536 0.842791 18.2118 0.842791 18.2118 0.842791C18.2118 0.842791 7.09762 0.828922 4.30175 1.59167C2.80321 2.02853 1.63769 3.20039 1.2145 4.69815L1.20756 4.72589C0.17385 10.1276 0.166911 16.6179 1.25612 22.401L1.20756 22.1098C1.63769 23.6352 2.79627 24.807 4.26706 25.2371L4.29481 25.2439C7.06294 25.9997 18.2048 25.9997 18.2048 25.9997C18.2048 25.9997 29.3189 25.9997 32.1148 25.2439C33.6203 24.807 34.7788 23.6352 35.202 22.1445L35.209 22.1167C35.6807 19.6066 35.9513 16.715 35.9513 13.7611C35.9513 13.6501 35.9513 13.5461 35.9513 13.4351C35.9513 13.3311 35.9513 13.2133 35.9513 13.0954C35.9582 10.1276 35.6876 7.23605 35.1743 4.43466ZM14.6597 18.816V8.02653L23.9353 13.4282L14.6597 18.816Z"/>
</symbol></svg>