<svg width="50" height="50" viewBox="0 0 50 50" fill="none" xmlns="http://www.w3.org/2000/svg">
<path d="M25 2C12.317 2 2 12.318 2 25C2 37.682 12.317 48 25 48C37.683 48 48 37.682 48 25C48 12.318 37.683 2 25 2ZM30.873 6.94L25 20L19.127 6.94C20.978 6.336 22.95 6 25 6C27.05 6 29.022 6.336 30.873 6.94ZM15.241 8.728L22.398 24H27.601L34.758 8.728C36.888 10.011 38.743 11.694 40.224 13.681L31.353 33L27.66 26H22.34L18.647 33L9.775 13.681C11.256 11.695 13.111 10.011 15.241 8.728ZM6 25C6 22.652 6.448 20.413 7.23 18.335L18.144 42.7C18.151 42.703 18.158 42.705 18.165 42.708C11.06 39.955 6 33.065 6 25ZM18.185 42.715L25 30L31.815 42.715C29.696 43.533 27.404 44 25 44C22.596 44 20.304 43.533 18.185 42.715ZM31.834 42.708C31.841 42.705 31.848 42.703 31.855 42.7L42.77 18.335C43.552 20.413 44 22.652 44 25C44 33.065 38.94 39.955 31.834 42.708Z" fill="white"/>
</svg>
