<svg width="85" height="85" viewBox="0 0 85 85" fill="none" xmlns="http://www.w3.org/2000/svg">
<path d="M42.4999 3.3999C20.9388 3.3999 3.3999 20.9405 3.3999 42.4999C3.3999 64.0593 20.9388 81.5999 42.4999 81.5999C64.061 81.5999 81.5999 64.0593 81.5999 42.4999C81.5999 20.9405 64.061 3.3999 42.4999 3.3999ZM52.484 11.7979L42.4999 33.9999L32.5158 11.7979C35.6625 10.7711 39.0149 10.1999 42.4999 10.1999C45.9849 10.1999 49.3373 10.7711 52.484 11.7979ZM25.9096 14.8375L38.0765 40.7999H46.9216L59.0885 14.8375C62.7095 17.0186 65.863 19.8797 68.3807 23.2576L53.3 56.0999L47.0219 44.1999H37.9779L31.6998 56.0999L16.6174 23.2576C19.1351 19.8814 22.2886 17.0186 25.9096 14.8375ZM10.1999 42.4999C10.1999 38.5083 10.9615 34.702 12.2909 31.1694L30.8447 72.5899C30.8566 72.595 30.8685 72.5984 30.8804 72.6035C18.8019 67.9234 10.1999 56.2104 10.1999 42.4999ZM30.9144 72.6154L42.4999 50.9999L54.0854 72.6154C50.4831 74.006 46.5867 74.7999 42.4999 74.7999C38.4131 74.7999 34.5167 74.006 30.9144 72.6154ZM54.1177 72.6035C54.1296 72.5984 54.1415 72.595 54.1534 72.5899L72.7089 31.1694C74.0383 34.702 74.7999 38.5083 74.7999 42.4999C74.7999 56.2104 66.1979 67.9234 54.1177 72.6035Z" fill="black"/>
</svg>
