<svg xmlns="http://www.w3.org/2000/svg" xmlns:xlink="http://www.w3.org/1999/xlink"><symbol viewBox="0 0 48 46" id="icon-arrow-left" xmlns="http://www.w3.org/2000/svg"><path d="M12.498 17.447c.44-.21.96-.21 1.29-.67.59-.83 1.32-.77 2.15-.19.26-.42.43-.89.76-1.2.3-.28.76-.39 1.14-.6 1.09-.58 2.18-1.16 3.39-1.49.41-.11.78-.37 1.15-.59.78-.44 1.664-.593 2.65-.46.17-1.11.99-1.48 1.97-1.59.62-.07 1.26-.02 1.56-.74.04-.1.2-.24.27-.22 1.22.28 1.97-.84 3.05-1.02.65-.11 1.49-.19 1.7-1.16.05-.23.57-.45.9-.52.72-.15 1.47-.2 2.29-.31.19-.25.43-.52.63-.83.42-.66.98-1.13 1.77-1.22 1.07-.12 1.77-1.16 2.89-1.12.05 0 .13-.06.14-.11.2-1.04 1.21-1.13 1.9-1.59.71-.47 1.5-.84 2.16-1.2.8.26 1.07.82 1.44 1.46-.17.45-.29 1-.56 1.47-.55.97-.94 2-1.35 3.02-.2.49-.62.9-.96 1.34-.45.59-1.02 1.11-1.36 1.75-.78 1.49-1.76 2.81-3.03 3.92-.18.16-.34.37-.45.58-.58 1.1-1.56 1.77-2.62 2.27-1.62.78-3.23 1.55-4.72 2.57-.25.17-.54.33-.83.41-1.62.48-3.01 1.41-4.44 2.27-.37.22-.76.41-1.14.62-1.68.89-3.35 1.78-5.02 2.67.06.52.47.57.81.67 3.08.92 6.16 1.82 9.23 2.74 1.24.37 2.49.74 3.71 1.19 1.86.69 3.28 1.94 4.39 3.56.29.43.45.87.31 1.5-.2.12-.45.3-.71.43-.56.27-1.09.52-1.44 1.1-.21.35-.65.56-.97.85-.37.33-.77.63-1.07 1.02-.9 1.17-1.89 2.31-2.61 3.59-.89 1.57-2.36 2.48-3.56 3.77-1.13-.57-2.17-1.11-3.21-1.62-.55-.27-1.1-.63-1.69-.74-1.06-.19-1.6-.85-1.94-1.77.78.16 1.56.35 2.34.48.19.03.41-.09.72-.17-.44-.85-1.03-1.2-1.8-1.34-.81-.15-1.05.07-1.18 1.11-1.05-.35-1.76-1.05-2.16-2.08-.38-.98-.94-1.84-1.66-2.61-.32-.35-.5-.83-.74-1.25-.26-.47-.56-.66-.83-.48-.34.22-.26.52-.1.8.46.79.16 1.38-.47 1.9-.38-.34-.35-1.05-1.11-1.22 0 .9.53 1.09 1.16 1.18-.06.17-.12.34-.2.56-.86-.21-1.69-.4-2.52-.62-.59-.16-.8-.44-.83-1.07-.01-.3.07-.62.02-.91-.02-.13-.24-.24-.36-.35-.9.787-1.9 1.29-3 1.51v1.42l.05-.06-.93.43c-.78-.53-1.68-.8-2.71-.63-.47.08-.99-.03-1.47-.14-1.2-.29-2.39-.6-3.57-.95-.92-.27-1.17-.68-1.11-1.64.01-.18.03-.37.08-.55.32-1.25.63-2.51.97-3.75.15-.53.27-1.1.54-1.57.86-1.45 1.17-3.09 1.72-4.65.45-1.28.91-2.56 1.4-3.82.1-.27.33-.57.58-.69.83-.4 1.66-.86 2.54-1.04 1.05-.21 2.01-.55 2.96-1.01.55-.27 1.15-.43 1.72-.64.02.16.05.32.09.6.02-.17.05-.22.03-.25-.04-.1-.1-.2-.15-.31h.01Zm11.1 13.14c-.24-.66-.49-1.06-1.24-1.17.16.72.44 1.07 1.24 1.17Zm-3.79 4.93c-.08.19-.18.33-.15.38.1.13.24.24.38.32.03.02.16-.12.24-.18-.15-.16-.29-.33-.47-.52Zm2.26 1.36a2.03 2.03 0 0 0-.26-.11s-.04.09-.07.13c.08.04.17.08.25.11 0 0 .04-.09.07-.14l.01.01Zm-6.78-2.03s-.09.04-.14.07c.04.08.08.16.13.23 0 0 .08-.04.13-.06-.04-.08-.09-.15-.13-.23l.01-.01Zm6.48 4.56s.09-.04.14-.06l-.12-.24s-.09.04-.13.05l.12.24-.01.01Zm6.8-7.51c-.12-.02-.2-.03-.28-.05.03.04.05.11.09.11.05 0 .11-.03.19-.06Zm-14.22 1.15-.02.11.1-.03-.08-.08Z"/></symbol><symbol viewBox="0 0 48 40" id="icon-arrow-right" xmlns="http://www.w3.org/2000/svg"><path d="M16.05 7.417c.51.74 1.32.5 2.03.68.3-.28.57-.53.84-.79.72-.69 1.49-1.01 2.52-.6.68.27 1.45.29 2.18.4.24.04.52.06.73-.03.19-.08.43-.31.43-.48 0-.17-.23-.45-.41-.5-.28-.07-.61.03-.92.02-.24 0-.52 0-.72-.12-.17-.1-.31-.35-.35-.55-.02-.09.22-.33.35-.35.42-.04.86 0 1.29 0 .9 0 1.81.23 2.91-.09-.78-.7-1.85-.27-2.42-.99 1.73-.63 3.47-.7 5.3-.28-.02.16-.04.39-.07.71.72.23 1.44.17 2.12-.14.59-.27 1.15-.3 1.79-.22.85.11 1.73.07 2.59.09.58.02 1.07-.04 1.4-.67.12-.24.63-.37.96-.38 1.05-.03 2.11-.04 3.15.07 1.49.14 2.94-.39 4.44-.13.25.04.55-.2.91-.34.15.32.3.66.47.98.27.54.23 1.05 0 1.61-.65 1.6-1.26 3.23-1.9 4.83-.11.28-.29.54-.44.81-.25.43-.61.82-.73 1.28-.44 1.62-1.47 2.97-2.06 4.52-.5 1.31-1.34 2.27-2.61 3-1.6.91-3.26 1.72-4.81 2.76-1.88 1.27-4.03 2.15-6.04 3.23-3.7 2-7.37 4.03-11.07 6.04-1.25.68-2.52 1.32-3.77 2a505.67 505.67 0 0 0-6.04 3.28c-1.57.86-3.12 1.76-4.69 2.63-.9.5-1.36.38-2.06-.49-.23-.28-.42-.6-.65-.94.82-1.95 2.17-3.46 3.54-4.96.29-.31.56-.63.83-.96.12-.14.16-.38.3-.46 1.29-.73 1.92-2.07 2.93-3.06.52-.51 1.12-.96 1.73-1.38 1.53-1.05 3.08-2.07 4.63-3.1.21-.14.39-.33.61-.42 1.87-.72 3.45-1.93 5.09-3.04 1.64-1.1 3.28-2.2 5.01-3.15.16-.09.3-.22.43-.34.23-.21.15-.69-.13-.79-.29-.1-.59-.19-.89-.21-3.29-.15-6.48-.97-9.71-1.55l-5.3-.96c-.3-.05-.61-.11-.92-.13-2.25-.15-3.71-1.55-5-3.18-.61-.77-.53-1.25.29-1.86.79-.58 1.66-1.02 2.41-1.69 1.34-1.19 2.68-2.36 3.83-3.75.69-.84 1.58-1.54 2.44-2.23.3-.24.78-.26 1.32-.43.05.41.1.7.1.99.03.98.14 1.17 1.07 1.42.6.16 1.21.25 1.67.66.25.62-.4.72-.56 1.09-.25.56-.24.75.32 1.25.13.12.28.23.44.36-.08.36-.15.71-.24 1.14-.34-.05-.64-.09-.94-.14-.66 0-1.09-.26-1.05-.98.02-.43.13-.85.13-1.27 0-.35-.03-.76-.65-.82-.17.34-.39.7-.52 1.09-.36 1.02.12 1.83 1.19 2.03.29.05.61-.02.92-.04l.03.02Zm9.88.34c-.02.15-.03.31 0 .06.02.25 0 .09 0-.06l.62.18.03-.13-.65-.06v.01Zm8.2 1.89c-.82-.01-1.64-.02-2.56-.04.18-.31.23-.52.36-.61.63-.43.22-.97.2-1.47-.91-.4-.62-1.41-1.05-2.16-.89-.36-1.81-.44-2.81-.21.19.67.78.42 1.09.67.13.11.34.3.31.41-.05.2-.2.44-.38.54-.35.2-.75.31-1.11.45.28 1.25 1.43.93 2.2 1.4-.09.77.22 1.38 1.02 1.49.73.1 1.47.08 2.21.03.18-.01.33-.33.51-.49.24.04.48.12.72.11.3 0 .6-.05.88-.16.12-.05.16-.28.24-.44-.2-.08-.45-.28-.59-.22-.43.18-.82.46-1.23.71l-.01-.01Zm-12.32-1.14c.24.13.4.28.52.26.33-.05.58-.29.5-.63-.04-.16-.33-.26-.51-.38-.15.23-.31.46-.51.75Zm1.94.15c.12.18.19.34.22.34.21-.06.4-.16.6-.24-.05-.09-.12-.26-.16-.25-.21.02-.42.1-.66.16v-.01Zm2.36-1.78c.13.14.2.27.26.27.16-.01.32-.07.47-.13.01 0-.05-.25-.06-.25-.21.02-.41.07-.67.12v-.01Zm-.3 2.4c.1.04.21.09.31.09.04 0 .08-.13.12-.2-.06-.01-.12-.05-.17-.03-.09.03-.18.09-.27.14h.01Zm8.13-1.52c.02-.06.07-.12.06-.16-.01-.04-.09-.07-.13-.1-.03.09-.07.18-.1.26h.17Zm6.05-3.4c.06.08.11.19.19.22.06.02.16-.07.24-.11-.06-.08-.11-.2-.19-.23-.06-.02-.16.07-.24.12Zm-20.44 3.86c-.01.05-.04.14-.03.15.09.04.18.06.27.09.01-.05.04-.14.03-.15-.09-.04-.18-.06-.27-.09Zm8.42-4.24s-.1-.02-.14 0c-.02 0-.01.08-.02.12.05 0 .1.02.14 0 .02 0 .01-.08.02-.12Z"/></symbol></svg>