<svg xmlns="http://www.w3.org/2000/svg" xmlns:xlink="http://www.w3.org/1999/xlink"><symbol viewBox="0 0 48 46" id="icon-arrow-left" xmlns="http://www.w3.org/2000/svg"><path d="M12.498 17.447c.44-.21.96-.21 1.29-.67.59-.83 1.32-.77 2.15-.19.26-.42.43-.89.76-1.2.3-.28.76-.39 1.14-.6 1.09-.58 2.18-1.16 3.39-1.49.41-.11.78-.37 1.15-.59.78-.44 1.664-.593 2.65-.46.17-1.11.99-1.48 1.97-1.59.62-.07 1.26-.02 1.56-.74.04-.1.2-.24.27-.22 1.22.28 1.97-.84 3.05-1.02.65-.11 1.49-.19 1.7-1.16.05-.23.57-.45.9-.52.72-.15 1.47-.2 2.29-.31.19-.25.43-.52.63-.83.42-.66.98-1.13 1.77-1.22 1.07-.12 1.77-1.16 2.89-1.12.05 0 .13-.06.14-.11.2-1.04 1.21-1.13 1.9-1.59.71-.47 1.5-.84 2.16-1.2.8.26 1.07.82 1.44 1.46-.17.45-.29 1-.56 1.47-.55.97-.94 2-1.35 3.02-.2.49-.62.9-.96 1.34-.45.59-1.02 1.11-1.36 1.75-.78 1.49-1.76 2.81-3.03 3.92-.18.16-.34.37-.45.58-.58 1.1-1.56 1.77-2.62 2.27-1.62.78-3.23 1.55-4.72 2.57-.25.17-.54.33-.83.41-1.62.48-3.01 1.41-4.44 2.27-.37.22-.76.41-1.14.62-1.68.89-3.35 1.78-5.02 2.67.06.52.47.57.81.67 3.08.92 6.16 1.82 9.23 2.74 1.24.37 2.49.74 3.71 1.19 1.86.69 3.28 1.94 4.39 3.56.29.43.45.87.31 1.5-.2.12-.45.3-.71.43-.56.27-1.09.52-1.44 1.1-.21.35-.65.56-.97.85-.37.33-.77.63-1.07 1.02-.9 1.17-1.89 2.31-2.61 3.59-.89 1.57-2.36 2.48-3.56 3.77-1.13-.57-2.17-1.11-3.21-1.62-.55-.27-1.1-.63-1.69-.74-1.06-.19-1.6-.85-1.94-1.77.78.16 1.56.35 2.34.48.19.03.41-.09.72-.17-.44-.85-1.03-1.2-1.8-1.34-.81-.15-1.05.07-1.18 1.11-1.05-.35-1.76-1.05-2.16-2.08-.38-.98-.94-1.84-1.66-2.61-.32-.35-.5-.83-.74-1.25-.26-.47-.56-.66-.83-.48-.34.22-.26.52-.1.8.46.79.16 1.38-.47 1.9-.38-.34-.35-1.05-1.11-1.22 0 .9.53 1.09 1.16 1.18-.06.17-.12.34-.2.56-.86-.21-1.69-.4-2.52-.62-.59-.16-.8-.44-.83-1.07-.01-.3.07-.62.02-.91-.02-.13-.24-.24-.36-.35-.9.787-1.9 1.29-3 1.51v1.42l.05-.06-.93.43c-.78-.53-1.68-.8-2.71-.63-.47.08-.99-.03-1.47-.14-1.2-.29-2.39-.6-3.57-.95-.92-.27-1.17-.68-1.11-1.64.01-.18.03-.37.08-.55.32-1.25.63-2.51.97-3.75.15-.53.27-1.1.54-1.57.86-1.45 1.17-3.09 1.72-4.65.45-1.28.91-2.56 1.4-3.82.1-.27.33-.57.58-.69.83-.4 1.66-.86 2.54-1.04 1.05-.21 2.01-.55 2.96-1.01.55-.27 1.15-.43 1.72-.64.02.16.05.32.09.6.02-.17.05-.22.03-.25-.04-.1-.1-.2-.15-.31h.01Zm11.1 13.14c-.24-.66-.49-1.06-1.24-1.17.16.72.44 1.07 1.24 1.17Zm-3.79 4.93c-.08.19-.18.33-.15.38.1.13.24.24.38.32.03.02.16-.12.24-.18-.15-.16-.29-.33-.47-.52Zm2.26 1.36a2.03 2.03 0 0 0-.26-.11s-.04.09-.07.13c.08.04.17.08.25.11 0 0 .04-.09.07-.14l.01.01Zm-6.78-2.03s-.09.04-.14.07c.04.08.08.16.13.23 0 0 .08-.04.13-.06-.04-.08-.09-.15-.13-.23l.01-.01Zm6.48 4.56s.09-.04.14-.06l-.12-.24s-.09.04-.13.05l.12.24-.01.01Zm6.8-7.51c-.12-.02-.2-.03-.28-.05.03.04.05.11.09.11.05 0 .11-.03.19-.06Zm-14.22 1.15-.02.11.1-.03-.08-.08Z"/></symbol><symbol viewBox="0 0 48 40" id="icon-arrow-right" xmlns="http://www.w3.org/2000/svg"><path d="M16.05 7.417c.51.74 1.32.5 2.03.68.3-.28.57-.53.84-.79.72-.69 1.49-1.01 2.52-.6.68.27 1.45.29 2.18.4.24.04.52.06.73-.03.19-.08.43-.31.43-.48 0-.17-.23-.45-.41-.5-.28-.07-.61.03-.92.02-.24 0-.52 0-.72-.12-.17-.1-.31-.35-.35-.55-.02-.09.22-.33.35-.35.42-.04.86 0 1.29 0 .9 0 1.81.23 2.91-.09-.78-.7-1.85-.27-2.42-.99 1.73-.63 3.47-.7 5.3-.28-.02.16-.04.39-.07.71.72.23 1.44.17 2.12-.14.59-.27 1.15-.3 1.79-.22.85.11 1.73.07 2.59.09.58.02 1.07-.04 1.4-.67.12-.24.63-.37.96-.38 1.05-.03 2.11-.04 3.15.07 1.49.14 2.94-.39 4.44-.13.25.04.55-.2.91-.34.15.32.3.66.47.98.27.54.23 1.05 0 1.61-.65 1.6-1.26 3.23-1.9 4.83-.11.28-.29.54-.44.81-.25.43-.61.82-.73 1.28-.44 1.62-1.47 2.97-2.06 4.52-.5 1.31-1.34 2.27-2.61 3-1.6.91-3.26 1.72-4.81 2.76-1.88 1.27-4.03 2.15-6.04 3.23-3.7 2-7.37 4.03-11.07 6.04-1.25.68-2.52 1.32-3.77 2a505.67 505.67 0 0 0-6.04 3.28c-1.57.86-3.12 1.76-4.69 2.63-.9.5-1.36.38-2.06-.49-.23-.28-.42-.6-.65-.94.82-1.95 2.17-3.46 3.54-4.96.29-.31.56-.63.83-.96.12-.14.16-.38.3-.46 1.29-.73 1.92-2.07 2.93-3.06.52-.51 1.12-.96 1.73-1.38 1.53-1.05 3.08-2.07 4.63-3.1.21-.14.39-.33.61-.42 1.87-.72 3.45-1.93 5.09-3.04 1.64-1.1 3.28-2.2 5.01-3.15.16-.09.3-.22.43-.34.23-.21.15-.69-.13-.79-.29-.1-.59-.19-.89-.21-3.29-.15-6.48-.97-9.71-1.55l-5.3-.96c-.3-.05-.61-.11-.92-.13-2.25-.15-3.71-1.55-5-3.18-.61-.77-.53-1.25.29-1.86.79-.58 1.66-1.02 2.41-1.69 1.34-1.19 2.68-2.36 3.83-3.75.69-.84 1.58-1.54 2.44-2.23.3-.24.78-.26 1.32-.43.05.41.1.7.1.99.03.98.14 1.17 1.07 1.42.6.16 1.21.25 1.67.66.25.62-.4.72-.56 1.09-.25.56-.24.75.32 1.25.13.12.28.23.44.36-.08.36-.15.71-.24 1.14-.34-.05-.64-.09-.94-.14-.66 0-1.09-.26-1.05-.98.02-.43.13-.85.13-1.27 0-.35-.03-.76-.65-.82-.17.34-.39.7-.52 1.09-.36 1.02.12 1.83 1.19 2.03.29.05.61-.02.92-.04l.03.02Zm9.88.34c-.02.15-.03.31 0 .06.02.25 0 .09 0-.06l.62.18.03-.13-.65-.06v.01Zm8.2 1.89c-.82-.01-1.64-.02-2.56-.04.18-.31.23-.52.36-.61.63-.43.22-.97.2-1.47-.91-.4-.62-1.41-1.05-2.16-.89-.36-1.81-.44-2.81-.21.19.67.78.42 1.09.67.13.11.34.3.31.41-.05.2-.2.44-.38.54-.35.2-.75.31-1.11.45.28 1.25 1.43.93 2.2 1.4-.09.77.22 1.38 1.02 1.49.73.1 1.47.08 2.21.03.18-.01.33-.33.51-.49.24.04.48.12.72.11.3 0 .6-.05.88-.16.12-.05.16-.28.24-.44-.2-.08-.45-.28-.59-.22-.43.18-.82.46-1.23.71l-.01-.01Zm-12.32-1.14c.24.13.4.28.52.26.33-.05.58-.29.5-.63-.04-.16-.33-.26-.51-.38-.15.23-.31.46-.51.75Zm1.94.15c.12.18.19.34.22.34.21-.06.4-.16.6-.24-.05-.09-.12-.26-.16-.25-.21.02-.42.1-.66.16v-.01Zm2.36-1.78c.13.14.2.27.26.27.16-.01.32-.07.47-.13.01 0-.05-.25-.06-.25-.21.02-.41.07-.67.12v-.01Zm-.3 2.4c.1.04.21.09.31.09.04 0 .08-.13.12-.2-.06-.01-.12-.05-.17-.03-.09.03-.18.09-.27.14h.01Zm8.13-1.52c.02-.06.07-.12.06-.16-.01-.04-.09-.07-.13-.1-.03.09-.07.18-.1.26h.17Zm6.05-3.4c.06.08.11.19.19.22.06.02.16-.07.24-.11-.06-.08-.11-.2-.19-.23-.06-.02-.16.07-.24.12Zm-20.44 3.86c-.01.05-.04.14-.03.15.09.04.18.06.27.09.01-.05.04-.14.03-.15-.09-.04-.18-.06-.27-.09Zm8.42-4.24s-.1-.02-.14 0c-.02 0-.01.08-.02.12.05 0 .1.02.14 0 .02 0 .01-.08.02-.12Z"/></symbol><symbol viewBox="0 0 31 63" id="icon-arrow-top" xmlns="http://www.w3.org/2000/svg"><path d="M5.703 25.41c.573-.396.387-1.024.527-1.574-.217-.233-.411-.442-.613-.652-.535-.558-.783-1.155-.465-1.954.21-.527.225-1.124.31-1.69.031-.186.047-.403-.023-.566-.062-.148-.24-.334-.372-.334s-.35.179-.388.318c-.054.218.023.473.015.714 0 .186 0 .403-.093.558-.077.132-.271.24-.426.271-.07.016-.256-.17-.271-.271-.031-.326 0-.667 0-1 0-.698.178-1.404-.07-2.257-.543.605-.21 1.435-.768 1.877-.488-1.342-.543-2.69-.217-4.11.124.016.302.031.55.054a2.234 2.234 0 0 0-.108-1.644c-.21-.457-.233-.891-.17-1.388.085-.659.054-1.341.07-2.008.015-.45-.032-.83-.52-1.085-.186-.093-.287-.489-.295-.745-.023-.814-.031-1.636.054-2.442.109-1.156-.302-2.28-.1-3.443.03-.194-.156-.427-.264-.706.248-.116.512-.233.76-.364.418-.21.814-.179 1.248 0 1.24.504 2.505.977 3.745 1.473.218.085.42.225.629.341.333.194.635.473.992.566 1.256.341 2.303 1.14 3.505 1.598 1.016.387 1.76 1.039 2.326 2.023.706 1.241 1.334 2.528 2.14 3.73.985 1.458 1.667 3.125 2.505 4.684 1.55 2.869 3.125 5.715 4.683 8.584.528.969 1.024 1.954 1.551 2.923a392.051 392.051 0 0 0 2.544 4.683c.666 1.218 1.364 2.42 2.039 3.637.388.698.295 1.055-.38 1.598-.217.178-.465.325-.729.504-1.512-.636-2.683-1.683-3.846-2.745-.24-.225-.488-.435-.744-.644-.109-.093-.295-.124-.357-.233-.566-1-1.605-1.489-2.373-2.272-.395-.403-.744-.868-1.07-1.341-.814-1.186-1.605-2.388-2.404-3.59-.108-.163-.255-.303-.325-.473-.559-1.45-1.497-2.675-2.358-3.947-.853-1.272-1.705-2.544-2.442-3.885a1.832 1.832 0 0 0-.264-.334c-.163-.178-.535-.116-.612.101a2.71 2.71 0 0 0-.163.69c-.117 2.552-.752 5.025-1.202 7.53l-.745 4.11c-.038.232-.085.473-.1.713-.117 1.744-1.202 2.877-2.466 3.877-.597.473-.97.41-1.442-.225-.45-.613-.791-1.287-1.31-1.869-.924-1.039-1.83-2.078-2.909-2.97-.651-.535-1.194-1.225-1.729-1.892-.186-.232-.201-.604-.333-1.023.318-.039.542-.078.767-.078.76-.023.908-.108 1.101-.83.125-.465.194-.938.512-1.294.481-.194.559.31.845.434.435.194.582.186.97-.248.093-.101.178-.217.279-.341.279.062.55.116.884.186-.039.263-.07.496-.109.729 0 .511-.201.845-.76.814-.333-.016-.659-.101-.984-.101-.272 0-.59.023-.636.504.263.132.543.302.845.403.79.28 1.419-.093 1.574-.922.039-.225-.015-.473-.031-.714l.016-.023Zm.263-7.661c.116.015.24.023.047 0 .194-.016.07 0-.047 0l.14-.481-.101-.023-.047.504h.008Zm1.466-6.359c-.008.636-.016 1.272-.031 1.985-.24-.14-.404-.178-.473-.279-.334-.488-.752-.17-1.14-.155-.31.706-1.094.48-1.675.814a3.526 3.526 0 0 0-.163 2.18c.52-.148.326-.606.52-.846.085-.1.232-.264.318-.24.155.038.34.155.418.294.155.272.24.582.35.861.968-.217.72-1.109 1.085-1.706.597.07 1.07-.17 1.155-.79.078-.567.062-1.14.023-1.714-.007-.14-.255-.256-.38-.396.031-.186.094-.372.086-.558 0-.233-.039-.466-.124-.683-.04-.093-.217-.124-.341-.186-.063.155-.218.35-.171.458.14.333.357.636.55.954l-.007.007Zm-.884 9.553c.1-.186.217-.31.201-.403-.038-.256-.225-.45-.488-.387-.124.03-.202.255-.295.395.179.116.357.24.582.395Zm.116-1.504c.14-.093.264-.147.264-.17-.047-.163-.124-.31-.186-.466-.07.04-.202.093-.194.124.015.163.077.326.124.512h-.008Zm-1.38-1.83c.108-.1.21-.155.21-.202a1.216 1.216 0 0 0-.102-.364.882.882 0 0 0-.193.047c.015.163.054.317.093.52h-.008Zm1.86.233c.032-.078.07-.163.07-.24 0-.032-.1-.063-.154-.094-.008.047-.04.093-.024.132.024.07.07.14.109.21v-.008Zm-1.178-6.304c-.046-.016-.093-.055-.124-.047-.03.008-.054.07-.077.1.07.024.14.055.201.078v-.131ZM3.33 6.846c.062-.046.147-.085.17-.147.016-.047-.054-.124-.085-.186-.062.046-.155.085-.178.147-.016.047.054.124.093.186Zm2.993 15.85c.039.008.108.03.116.023.031-.07.047-.14.07-.21-.039-.007-.109-.03-.116-.023-.031.07-.047.14-.07.21Zm-3.288-6.53s-.015.078 0 .11c0 .015.062.007.093.015 0-.039.016-.078 0-.109 0-.015-.062-.007-.093-.015Z"/><g clip-path="url(#ca)"><path d="M14.666 6.834a.88.88 0 0 0 .025-.064c-.062.135-.022.061-.025.064Zm-.298 1.355-.028-.025c.012.068.025.135.043.203a3.282 3.282 0 0 1-.015-.178Zm-.258 1.267c.136-.059.139-.172.136-.302-.006-.129-.019-.27.037-.384l.05-.037-.127-.104c-.047.273.006.633-.097.827Zm-.782.662c.133-.04.05.147.093-.157-.018.015-.025.018-.037.028-.01.027-.022.064-.053.129h-.003Z"/><path d="M13.385 9.99c-.13.087.041-.135 0 0Zm-.138.614-.056-.178c-.087.034-.164.19-.199.132-.006.181.093.148.255.046Zm.2.172-.025-.092c-.037.015-.055.04.025.092Z"/><path d="m13.375 10.488.046.197c.063-.025.174-.025-.012-.09.096.02.01-.02-.034-.104v-.003Zm.082-.108c.1-.095.17-.224.236-.043.037-.338-.177-.291-.236.043Zm.904-.853.087-.129-.068-.117c.034.059-.097.252-.019.246Zm-1.67 2.162c.087.012.255-.052.37-.065l-.063-.132c-.077.065-.17.19-.307.197Zm.368-.059.102.197c.062-.172 0-.206-.102-.197Zm.774-.812a4.469 4.469 0 0 1-.192-.326c.055.13.114.258.186.387l.006-.061Zm-1.398 1.612-.189-.114.282.203-.093-.089Zm-.109.491c-.174-.086-.382.105-.478.016-.012.135.128.252.26.36-.058-.111.007-.228.218-.373v-.003Z"/><path d="M12.299 13.471c-.038-.055-.112-.114-.19-.178a.458.458 0 0 0 .19.178Zm.732-1.319c-.062.013-.22.04-.316.148l.291-.07c.006-.025.016-.05.025-.078Zm-.013.075h-.01a4.855 4.855 0 0 1-.055.165c.01-.021.028-.07.065-.165Zm.02-.09-.007.018c.03-.006.039-.012.007-.018Zm.493-.817c.103.117.214.36.453.133-.149-.087-.291.043-.453-.133Zm-.14.728.1-.206c-.069 0-.174.037-.233-.022l.13.225.003.003Zm.067.103-.065-.104-.038.077.103.027Zm-.774.976c.111.092.102.19.099.301a.845.845 0 0 0 .17-.353c-.093-.018-.248-.074-.27.052Zm.191-.436s.006.015.013.022c.028-.012.037-.022-.013-.022Zm-.335 1.819c.021-.006.046-.01.069-.016l-.06-.006-.01.022Zm.47-1.457c.078-.086.016-.141-.065-.194a.488.488 0 0 1 .003.212c.04.01.069.01.062-.018Zm-.646.727c.081-.047.152-.096.218-.151-.112.043-.301.132-.218.15Zm.433-1.041s-.01-.01-.01-.012c-.072.027-.037.024.01.012Z"/><path d="M12.797 12.739c.03.046.093.083.149.122a.38.38 0 0 0-.062-.15.47.47 0 0 1-.087.028Zm2.016 2.157c-.344-.025-.636-.265-.279-.458-.239-.206-1.284-.099-1.929.061.143.01.27.012.435.221.198-.067.483-.442.756-.264.146.274-.136.218-.329.347.425-.101.586.36 1.225.314l-.217-.243c.096 0 .251.09.338.025v-.003Zm-2.096-.786-.022-.087c-.074.096-.214.16-.496.28a.484.484 0 0 0 .344.188l.134-.412.04.03Zm.06-.461c.31.074.422.276.8.163.01-.246-.25-.179-.366-.33.01.4-.158-.12-.396.167a.437.437 0 0 1-.038-.215c-.055.07-.12.138-.195.202.01-.003.015-.006.022-.009h.006c.043-.015.071-.021.043 0 .003 0 .003.006.006.01a.623.623 0 0 1 .118.02c-.093.115-.09.016-.117-.02l-.047-.007h-.003c.028.135.059.268.093.403.065-.083.074-.188.08-.378l-.006-.006Zm1.717-1.969c-.022.012-.041.012-.06.012.028.028.05.038.06-.012Zm-.164.16c-.033-.03-.133-.055-.098-.15.08-.08.117.003.201 0-.065-.059-.161-.203-.297-.028l.03.028c-.096.16-.452.356-.486.329.245-.04.418-.08.65-.182v.003Zm-.627.918c.034.11.068.224.106.335l.279-.163-.155.006c.08-.187-.112-.15-.227-.178h-.003Zm-1.35 1.786-.369-.052.493.203-.124-.15Zm-.051.431-.341-.022.183.117.158-.095Zm5.214 24.545.164.101a.487.487 0 0 0-.164-.102Zm.079-.706-.298-.025c.161.037.282.052.297.025ZM10.71 25.57c-.537.13-1.377.27-.738.268l.623-.031c-.1-.101-.025-.175.115-.237Zm3.517 7.359c.065-.013.136-.025.205-.037l-.639-.11.434.147Zm2.777.165-.438.178c.152-.04.298-.095.438-.178Zm.871 10.304.617.13c.019-.179-.31-.108-.617-.13Zm-6.229-24.003c-.214.116-.316.212-.353.298.316-.142.766-.25.354-.299ZM10.54 39.076a.87.87 0 0 0 .4.092.69.69 0 0 0-.4-.092Zm.692-19.031c.056-.022.084-.04.134-.062-.072-.092-.124-.184-.075-.292-.235.105-.397.225-.059.354Zm3.77 37.315s-.025.021-.041.03c.035.004.041-.009.041-.03Zm-1.916 4.043c-.012-.04-.027-.107-.043-.169 0 .031.012.08.043.17Zm-1.33-44.697c-.044-.016-.01-.094 0 0Zm1.74-.406a.481.481 0 0 0 .198.04.717.717 0 0 1-.198-.04Zm.938 4.737v.009c.104-.025.085-.022 0-.01Zm-2.458-4.463a.65.65 0 0 0-.152.114.656.656 0 0 0 .152-.114Zm-.201.01c.025-.03.04-.055.059-.08-.069-.012-.115-.003-.06.08Z"/><path d="M11.75 16.831a.26.26 0 0 1 .074-.147c-.034.018-.059.024-.07.018v.13h-.004Zm3.44 33.017c-.015.006-.028.012-.05.018.2.098.171.055.05-.018Zm1.985-21.742s-.026-.006-.032-.012l-.022.012h.054Zm.488.341c-.806-.16-.707-.236-.54-.338l-1.854.065 2.397.273h-.003Z"/><path d="m17.583 41.214.598-.218c.93.3.577.494 1.414.298-2.012-.08-.12-.904-2.152-.984l.44-.141c-.021.043.097.052.075.095 1.002-.273-1.463-.255-1.15-.63.164-.129.468-.215.707-.12l-.493-.307c.043-.086.403-.055.356.028l-.14-.455.063.006a10.13 10.13 0 0 1-1.03-.307c.304-.108.217.061.478.04l-.493-.262c.542-.089 1.057.13.97.302 2.087-.185-.511-.222.726-.698l.251.243c1.19-.126.772-.32 1.526-.569-.391.055-1.889.492-2.397.21.16-.075.242-.173-.174-.33.744.016.567-.132.533-.31l.986.034c-.276-.2-.781-.197-1.221-.323.105-.215.874-.24 1.522-.277.174-.34-1.237.21-1.408-.203.388-.28-.009-.491-.592-.848.348-.193.605.05.893-.015l-.787-.197c.018-.043.263-.024.384-.012-.304-.157-.992-.037-1.256-.28-1.091-.089 1.61-.449.375-.771.283-.065.608.049.993.037-.806-.421-.583-.36-1.675-.713l.655-.265c-.748.19-1.625-.095-2.341-.344-.36.065-.676.12-.828.16l-.521-.381c.164-.04.502.003.915.074a5.078 5.078 0 0 0-.236-.074c.369-.123.936-.043 1.488.064l-.614.12c.599.105 1.265.206 1.845.2a.612.612 0 0 1-.267-.126c.162.028.307.046.407.037.105-.01-.115-.052-.366-.12l1.104-.058-.438-.031.695-.467c-1.107-.372-2.729-.71-3.166-1.266.8.153 1.309.058 2.257.089-1.007.126.425.433.218.713.108-.145.56-.102.719-.062l-.915-.528c.779.03.583-.096.903-.219-1.535.065-1.02-.402-1.486-.617.512 0 1.036.061.912.31 1.15-.252-1.792-.4-.816-.648.013.061-.065.092.193.123-.453-.154-.093-.495.35-.403l.01.061c.18-.402 0-1.241-1.266-1.33.165 0 1.529.089 1.786.12l-4.242-.827c1.083.089 3.65-.098 4.264.255.152-.092.329-.21-.056-.424-.152.061-1.556.129-1.653.037 1.197-.222.642-.157 1.653-.44-.226.095-1.907-.055-1.851-.212.251.03 1.65.025 1.823.086l-1.64-.427c.294.105 1.383.05 1.839-.028-.317.034.018-.338-.146-.445l-.369.156c.23-.436-2.273-.488-2.177-.922.326.062 2.025.179 2.22-.04-.821-.12-3.9-.54-4.477-.943l.459-.065-.496-.307c1.162.212 3.683.79 4.7 1.097.36-.156.543-.034.487-.282.425-.077.66.15.692.224l.235-.569c-.93.003-.958-.46-1.72-.458l.992.649c-.937.003-2.654-.424-2.484-.827.363-.095 1.631.117 1.938.114-.32-.062-.617-.403-.397-.434l.496.185c.323-.218-1.215-.4-.369-.652.056-.092 1.129-.255.602-.282-.999.129-4.152.086-4.902-.034.074-.03.998-.47 1.488-.566.778-.138 1.86.277 2.53.16a2.49 2.49 0 0 1-.633-.141c.199-.095.739.058.62-.16-.877-.055.056-.436-.743-.12-.255-.215.173-.218.127-.467-.559.065-1.892-.264-2.115-.483.214.019.496-.024.623-.043.087-.427.462-.651.468-1.05.196-.035.428-.222.776-.13-.143-.061-.416-.12-.438-.246.676-.224.115.28.937.114-.465-.028-.651-.335-.937-.52-.697.038-.136.406.162.588-.996-.022-2.019-.354-2.416-.784-.204-.338.626-.13.496-.19.199-.621-1.563-.57-.837-1.073.592-.194 1.129.018 1.544-.019.208.277-.381.41-.372.594l.288-.222c.19.093.332.277.159.37.53-.16.133-1.055.589-1.528-.183-.09-.363-.243-.577-.179l.071.154c-.443.13-.58-.301-.797-.114-.288-.212-.716-.451-.446-.734l.583-.04c-.168 0-.363.181-.192.264-.24-.126.815-.424.08-.572l-.415.194c-.27-.212-.806-.48-.583-.731-.558.104.053.061-.62.227.825-.138-.174.652.731.418-.8.17-.378.314-1.106.541.198 0 .393-.077.25.135.056.012.125.037.165.052a.077.077 0 0 1-.019.016l.025-.012c.028.009.034.012.01-.003a.941.941 0 0 1 .322-.102c.431.117.372.458.601.578-.114.126-.226-.059-.455.006l.34.181c-.458.007-.824.32-1.038.016l-.074.267c-.295.154-.45.369-.273.507-.13.123.48.332.118.215l.232.43h-.127c-.149.415.732.88-.295 1.334.112.145.26.292.072.523l-.48.034c.139.184-.571.528-.082.617-1.342.163-.434.867-.716 1.177l.658.028c-.072.218.093.43.328.707h.599c.471.243-.487.587-.468.959-.233-.03-.162-.123-.013-.184-.713.205-.493.442-.214.679.28.233.617.467.078.654.22.105.136.175-.031.243 0-.01-.013-.018-.031-.024-.01.009-.013.024-.013.04-.111.043-.245.082-.35.132a1.71 1.71 0 0 0 .35-.108c.006.077.075.197.223.313l-.691.034s.006.019.015.028c-.266.108.317.098.84.05.11.06.243.116.404.159-1.122.064.357.31-.85.406.577.092.394.587 1.634.676-.16 0-.241.03-.248-.03-.149.122-.297.248.047.37l-.902.035 1.196.307c-.558.157-.886.218-1.572.034 1.048.43.382.338 1.436.71l-.59-.03c.016.122.8.34.308.402-1.147.249-.22 1.361-1.318 2.047 1.792-.096-.819.31.568.371-.425.031-.67.126-1.033 0 .4.372-.7.529.465.806-.428.03-.62-.093-.874-.062.09.03.365.123.108.157-.254.03-.356-.062-.54-.123.056.372 1.368.44 2.599.495-.59.175-.512.27.295.424-.407.055-.831.154-.97-.077-.063.13-.618.774.374.811-.25.034-.077.179.034.215-.065.29-.158.314-.07.6l.163-.074c1.194.141.26.243.4.476l-.124-.009c-.874.507.407.237-.586.735l.745-.013c1.596.086-.952.44-.345.753l.425-.098c.543.178-2.177.409-2.375.572-.14.034-.223-.062-.323-.114-.942.412.971.08 1.191.406-.52.046-1.327-.108-1.423.107-.419.099 1.69.67.694.944.4-.056.8-.11 1.098.046.14.233-1.504.587-.251.823-.109.028-.21.034-.31.034.322.185.54.584 1.21.704-2.488.105 1.205 1.119-1.077 1.063l.13.544-.229-.018c-.143.341.4.476.936.612-.152.076-.36.012-.477.003-.44.494-.335.547.763.995l-.71.028c.409.123-1.082.704-.245 1.22a1.168 1.168 0 0 1-.313-.061c.415.289-.05.611-.292.894-.245.283-.27.529.943.658l.604.38c.18-.47 1.042.096 1.439-.091.133.19-.726.467-.847.233l.118-.034c-1.246-.113-.43.581-1.262.547.093.938-.496 1.835-.452 2.714l.85-.08-.032.305c-.192.076-.65.092-.635-.126-.469.104.43.375.61.387-.306.42-.986-.19-.998-.059l.08.179.094-.037c.353.153.71.172.688.436-.149.163-.493.074-.518.139-.056 0-.08.018-.012.098l-.028.384.608-.138c.319.178-.01.362.682.2-.54.116-.602.476-.577.823.025.347.133.682-.012.76.428.248.428.485.403.777.102-.07.704-.099.632.15-1.215-.12-.502.45-1.305.637.524-.17.223.722.936.451-.074.21-.409.003-.648.157.239.255.199.532.146.82-.059.29-.124.594-.012.907.114.013.285-.086.47.05-.182.104-.356.209-.52.313.08.123.642.126.304.344.084-.03.214-.074.254.01-.183.602.034 1.226.149 1.85.062.313.112.623.133.937.022.31.016.62.022.928.025-.166.062-.055.09.074 0-.083.08.003.12-.013a2.613 2.613 0 0 0-.009.517c.053.049.078.187.103.32.025.135.056.26.068.288l-.03-.162c.04.11.04.033.073-.065.028-.098.09-.218.137-.203-.022-.123.03-.28.111-.458.075-.178.19-.375.09-.575.066-.086.056.077.115.031-.065-.101-.074-.224.022-.449l.022.025c.099-.633.285-.9.592-1.607l-.226.046c.058-.15.136-.181.21-.252-.307-.185-.111.427-.44.261.233-.095.295-.366.354-.627.062-.261.127-.513.458-.575.06-.233-.328.062-.279-.172l.19-.058-.218-.065c.066-.153.314-.224.472-.227-.028.037.015.108.018.147.273-.193.069-.565.155-.63l-.173.222c-.019-.323.077-.68.14-1.033.064-.353.099-.704-.097-1.02l-.189.043c-.276-.483.264-.375.18-.898l.043.022c-.18-.108-.266-.25-.226-.394.217.139.505-.236.744-.058-.329-.522-.276-.261-1.03-.62l.367-.072c-.31-.122-.484-.138-.559-.399.295.221.58-.154.968.095.44-.264.273-.47.133-.639-.14-.169-.245-.301.4-.412-1.054-.276-.657.458-.871.314-.357.11-.778-.225-.664-.394.031-.175 1.427-.264 1.473-.7-.012.043.075.049.062.092.316-.157-.35-.332.155-.52-.688-.129.078-.26-.825-.313l.168.406c-.202-.234-1.256-.474-.713-.836.186.033.421.15.549.23.282-.104-.162-.215.13-.323.924.056.149.495.806.753.4-.107-.595-.476.375-.331-1.24-.206.23-.428-.713-.747l.564.034c-.08-.05-.338-.154-.313-.24l.716.172c-.598-.255.627-.449.32-.689-.06.483-.716.093-1.166.286-.716-.614 1.569-.307 1.392-.98.068.092-.406.329-.664.181.14-.123.391-.286.72-.356-.062-.446-.633.052-.977-.145.757-.132-.273-.224-.496-.424l.623.012c.465-.494-1.296-.162-.766-.605l.862.212-.201-.243.72.065c-.506-.27-.36-.347-.125-.593-.462.049-1.172-.062-1.175-.283.4-.145.614.098.549-.218.406.08.908.172.291.295.211.018.4.08.608.098.465-.154.155-.409.161-.522a.27.27 0 0 1-.167.12l-.868-.48c.257-.068.452-.003.642.055-.063-.095-.363-.166-.407-.304.54.05 1.104.052 1.334.252l-.552-.452c.239-.024.682-.209.877-.147.36-.234-1.004-.618-.54-.928a.528.528 0 0 1-.281-.126c.151-.299.883-.55.133-.925l1.045-.179c-.208-.286-1.318.246-1.668-.23-.304-.338.89-.102 1.187-.212-.505-.175-1.553-.486-.682-.772.19.105.028.182.1.277l.049-.003Zm-.264-3.467c.152.07.627.215.186.255-.843-.095-.437-.144-.186-.255Zm-1.652-5.298c.245.055.12.129-.162.209-.059-.065-.03-.136.162-.21Zm-3.7-14.734.025.01c-.226.144-.136.092-.025-.01Zm.273-.304a.333.333 0 0 0-.204-.022c.124.025.12.096.071.172.136-.018.233-.055.136-.15h-.003Zm-.719 33.33.133-.058c.165.141.025.098-.133.058Z"/><path d="M16.683 33.074a3.456 3.456 0 0 1-.406.019c.124.03.27.033.406-.019Zm1.077 10.3s-.004.006-.01.009c.04.006.084.012.124.012l-.115-.024v.003Zm-.889-21.046a.794.794 0 0 1-.316.117c.155.006.282-.018.316-.117Zm-5.113-6.57.072.2c0-.096.105-.13.186-.176-.106 0-.267.037-.258-.024Zm2.792-1.666c-.046-.03-.003-.061-.049-.092h-.177c.006.13.15.218.227.092Zm-1.29 1.513c.373-.006.258-.136.208-.277v.025c-.5-.053-.356.098-.204.249l-.004.003Zm.202-.308a.17.17 0 0 1 .006-.13c-.199-.02-.05.053-.006.13Zm-1.43 1.717c.118-.065-.515-.053-.341-.087-.509-.086.548.455.34.087Zm2.451-1.491-.456.04.363.086.093-.126Zm-.389 1.092.146-.218a.202.202 0 0 1-.161-.065c-.022.135-.13.286.015.283Zm-.014-.285c.012-.07.006-.138-.068-.182 0 .04.012.123.068.182Zm.533-.502-.096.062-.04.156.136-.218ZM13.871 19l.152.245c.195.031.32-.034.242-.126-.133-.061-.205-.153-.394-.12Zm1.534-.7c-.112.065-.233.065-.413.1l.68.024-.267-.12V18.3Zm.185.713c.192.027.58.365.518.055-.196-.028-.366-.277-.518-.055Zm-.927 3.643-.01-.064-1.333-.022 1.343.086Zm3.429 3.304c.329-.28-.896-.09-.477-.341-.345-.077-.345.206-.642.129.366.181.167.27 1.119.212Zm-1.119-.208c-.059-.028-.127-.062-.223-.096.093.053.161.077.223.096ZM13.2 62.086c.012.061.03.123.049.187-.01-.04-.016-.08-.022-.12l-.028-.067Zm.132.358v.043a.778.778 0 0 1 .037.111c-.01-.043-.03-.123-.034-.157l-.003.003Zm6.028-25.16-.238-.018c-.264.021-.286.064-.329.15l.57-.132h-.003Zm-.899 2.489.022-.043-.893.062.871-.019Zm.92 2.133c.047-.087-.136-.191-.09-.277.137.19-.986.273.09.277Z"/></g><defs><clipPath id="ca"><path transform="translate(9.652 6.77)" d="M0 0h10.08v55.83H0z"/></clipPath></defs></symbol></svg>