<svg width="16" height="28" viewBox="0 0 16 28" fill="none" xmlns="http://www.w3.org/2000/svg">
<path d="M8.00409 14.1838C11.911 14.1838 15.096 10.9988 15.096 7.09187C15.096 3.18496 11.911 0 8.00409 0C4.05474 0 0.869751 3.18496 0.869751 7.09187C0.869751 10.9988 4.05474 14.1838 8.00409 14.1838ZM8.00409 4.16169C9.61782 4.16169 10.9343 5.47814 10.9343 7.09187C10.9343 8.70559 9.61782 10.022 8.00409 10.022C6.39039 10.022 5.07391 8.70559 5.07391 7.09187C5.03147 5.47814 6.3479 4.16169 8.00409 4.16169Z"/>
<path d="M10.8494 20.002C12.2933 19.6622 13.6947 19.1101 14.9688 18.3032C15.9453 17.7086 16.2425 16.3923 15.6056 15.4155C15.0112 14.4388 13.6947 14.1415 12.7179 14.7785C9.83022 16.6046 6.05071 16.6046 3.16297 14.7785C2.18626 14.184 0.912259 14.4388 0.275268 15.4155C-0.276793 16.3923 0.0204582 17.6662 0.99719 18.2608C2.2712 19.0676 3.67259 19.6197 5.11644 19.9595L1.16707 23.9089C0.360199 24.7157 0.360199 26.0322 1.16707 26.8391C1.59174 27.2635 2.10133 27.4335 2.65339 27.4335C3.20545 27.4335 3.71505 27.2211 4.13971 26.8391L8.04662 22.932L11.9535 26.8391C12.7604 27.646 14.0768 27.646 14.8837 26.8391C15.6905 26.0322 15.6905 24.7157 14.8837 23.9089L10.8494 20.002Z"/>
</svg>
