<svg width="37" height="24" viewBox="0 0 37 24" fill="none" xmlns="http://www.w3.org/2000/svg">
<path fill-rule="evenodd" clip-rule="evenodd" d="M35.8455 2.41807C36.1191 1.55882 35.8455 0.842773 34.6137 0.842773H30.6449C29.6869 0.842773 29.1395 1.41561 29.0026 1.98844C29.0026 1.98844 26.9498 7.00075 24.2126 10.2945C23.2547 11.297 22.844 11.5834 22.4335 11.5834C22.1598 11.5834 21.886 11.297 21.886 10.4378V2.41807C21.886 1.41561 21.6124 0.842773 20.7912 0.842773H14.6326C13.9483 0.842773 13.5378 1.2724 13.5378 1.84523C13.5378 2.8477 14.9063 2.99091 15.0432 5.85508V11.8699C15.0432 13.1587 14.7695 13.4451 14.3589 13.4451C12.9903 13.4451 9.84261 8.28962 7.92662 2.56128C7.51604 1.2724 7.24233 0.842773 6.14747 0.842773H2.31547C1.22061 0.842773 0.946899 1.41561 0.946899 1.98844C0.946899 3.1341 2.31547 8.43283 7.10548 15.5933C10.39 20.4623 14.9063 23.0401 19.012 23.0401C21.4755 23.0401 21.7491 22.4674 21.7491 21.4648V17.7413C21.7491 16.5957 22.0229 16.3093 22.7072 16.3093C23.2547 16.3093 24.3495 16.5957 26.5392 18.887C29.1395 21.608 29.6869 22.8969 31.0555 22.8969H35.0243C36.1191 22.8969 36.6666 22.3242 36.3929 21.1785C35.9824 20.0327 34.7506 18.3143 33.1084 16.4525C32.1504 15.3069 30.7818 14.1612 30.3712 13.4451C29.8238 12.7291 29.9607 12.2995 30.3712 11.5834C30.6449 11.7266 35.435 4.70941 35.8455 2.41807Z" />
</svg>
