<svg width="30" height="27" viewBox="0 0 30 27" fill="none" xmlns="http://www.w3.org/2000/svg">
<path d="M1.39965 12.6687L8.17993 15.1816L10.7629 23.7254C10.9243 24.2281 11.5701 24.5631 12.0544 24.0606L15.9288 20.71C16.2517 20.5424 16.5746 20.5424 16.8974 20.71L23.8392 25.9033C24.3235 26.2383 24.9692 26.0709 25.1306 25.4008L29.9737 0.941785C29.9737 0.439204 29.328 -0.0633777 28.8436 0.10415L1.39965 10.9934C0.753909 11.3285 0.753909 12.3336 1.39965 12.6687ZM10.2786 13.8414L23.3548 5.46501C23.5163 5.29749 23.8392 5.63255 23.5163 5.96759L12.8616 16.3543C12.3772 16.6893 12.2158 17.192 12.0544 17.6945L11.5701 21.2125C11.5701 21.3801 11.2472 21.3801 11.2472 21.2125L9.63285 15.3491C9.47141 14.8465 9.79428 14.1764 10.2786 13.8414Z" />
</svg>
