<svg width="497" height="91" viewBox="0 0 497 91" fill="none" xmlns="http://www.w3.org/2000/svg">
<path d="M428.543 70.2011L429.328 62.7894H436.08V79.4971H442.518V57.1992H423.895L422.576 69.7614C422.293 72.3366 421.697 73.373 419.53 73.373H419.059V79.8111H419.561C426.219 79.8111 427.884 76.6392 428.543 70.2011Z" fill="white"/>
<path d="M447.215 79.4971H467.66V74.0325H453.654V70.6093H461.254V65.3018H453.654V62.3811H466.436V57.1992H447.215V79.4971Z" fill="white"/>
<path d="M477.429 79.4971H483.836V62.7266H491.907V57.1992H469.358V62.7266H477.429V79.4971Z" fill="white"/>
<path d="M446.192 0H418.617V9.71775H446.192V0Z" fill="url(#paint0_linear_15967_141279)"/>
<path d="M455.794 36.8066H428.219V46.5244H455.794V36.8066Z" fill="url(#paint1_linear_15967_141279)"/>
<path d="M445.856 28.1201H418.281L428.312 18.4023H455.887L445.856 28.1201Z" fill="url(#paint2_linear_15967_141279)"/>
<path d="M455.909 10.0304L446.191 0V18.4032H455.909V10.0304Z" fill="url(#paint3_linear_15967_141279)"/>
<path d="M418.617 36.4938L428.335 46.5243V28.1211H418.617V36.4938Z" fill="url(#paint4_linear_15967_141279)"/>
<path d="M458.645 36.4927L468.362 46.5231V9.7168H458.645V36.4927Z" fill="url(#paint5_linear_15967_141279)"/>
<path d="M495.999 10.214L486.281 0.183594V36.9899H495.999V10.214Z" fill="url(#paint6_linear_15967_141279)"/>
<path d="M468.675 0.183594L458.645 9.90134H486.279V0.183594H468.675Z" fill="url(#paint7_linear_15967_141279)"/>
<path d="M485.967 46.5244L495.998 36.8066H468.363V46.5244H485.967Z" fill="url(#paint8_linear_15967_141279)"/>
<path d="M69.0883 20.5293H110.516L108.724 31.7414H81.1716L80.1717 38.1666H96.5764L94.7251 49.651H78.3204L77.1521 57.2395H107.373L105.467 69.0654H61.3711L69.0833 20.5293H69.0883Z" fill="white"/>
<path d="M131.51 32.4938H114.145L116.045 20.5293H164.656L162.686 32.4938H145.32L139.499 69.0703H125.693L131.505 32.4938H131.51Z" fill="white"/>
<path d="M165.665 47.1902C165.106 31.33 176.11 19.707 191.148 19.707C208.583 19.707 213.711 31.3993 214.315 36.9385H200.237C199.568 35.6366 197.123 32.1517 191.589 32.1517C183.862 32.1517 179.515 38.7156 179.788 46.5071C180.01 52.7987 183.53 57.4469 189.544 57.4469C195.148 57.4469 197.628 54.1649 198.41 53.0017H212.424C211.488 57.3776 205.776 69.8915 189.985 69.8915C175.555 69.8915 166.135 60.5259 165.66 47.1951L165.665 47.1902Z" fill="white"/>
<path d="M224.26 20.5293H238.135L233.502 49.7896L259.535 20.5293H273.415L265.693 69.0654H251.818L256.456 39.9388L230.418 69.0654H216.543L224.255 20.5293H224.26Z" fill="white"/>
<path d="M295.721 32.4938H278.355L280.261 20.5293H328.867L326.897 32.4938H309.531L303.71 69.0703H289.904L295.716 32.4938H295.721Z" fill="white"/>
<path d="M335.627 20.5293H349.503L344.869 49.7896L370.902 20.5293H384.782L377.06 69.0654H363.185L367.823 39.9388L341.785 69.0654H327.91L335.623 20.5293H335.627Z" fill="white"/>
<path d="M37.324 38.5082H24.9486L25.904 32.5631H55.0949L56.9909 20.5293H13.9247L11.0635 38.5082H1.7375L0 49.5173H9.31112L6.20254 69.0703H34.9133C48.3134 69.0703 57.2681 63.1945 56.8523 51.433C56.5602 43.1613 49.5607 38.5131 37.319 38.5131L37.324 38.5082ZM36.0666 57.0366H21.9835L23.2161 49.5124H37.7794C40.6504 49.5124 42.1207 50.542 42.19 52.4577C42.2989 55.4624 39.8931 57.0366 36.0617 57.0366H36.0666Z" fill="white"/>
<path d="M428.548 70.2001L429.333 62.7884H436.085V79.4961H442.523V57.1983H423.9L422.581 69.7604C422.298 72.3357 421.701 73.372 419.534 73.372H419.063V79.8101H419.566C426.224 79.8101 427.888 76.6382 428.548 70.2001ZM447.22 79.4961H467.665V74.0316H453.658V70.6084H461.258V65.3009H453.658V62.3802H466.44V57.1983H447.22V79.4961ZM477.434 79.4961H483.84V62.7256H491.912V57.1983H469.362V62.7256H477.434V79.4961Z" fill="white"/>
<path d="M446.196 0H418.621V9.71775H446.196V0Z" fill="url(#paint9_linear_15967_141279)"/>
<path d="M455.798 36.8066H428.223V46.5244H455.798V36.8066Z" fill="url(#paint10_linear_15967_141279)"/>
<path d="M445.86 28.1201H418.285L428.316 18.4023H455.891L445.86 28.1201Z" fill="url(#paint11_linear_15967_141279)"/>
<path d="M455.913 10.0304L446.195 0V18.4032H455.913V10.0304Z" fill="url(#paint12_linear_15967_141279)"/>
<path d="M418.621 36.4938L428.339 46.5243V28.1211H418.621V36.4938Z" fill="url(#paint13_linear_15967_141279)"/>
<path d="M458.648 36.4927L468.366 46.5231V9.7168H458.648V36.4927Z" fill="url(#paint14_linear_15967_141279)"/>
<path d="M496.003 10.214L486.285 0.183594V36.9899H496.003V10.214Z" fill="url(#paint15_linear_15967_141279)"/>
<path d="M468.679 0.183594L458.648 9.90134H486.283V0.183594H468.679Z" fill="url(#paint16_linear_15967_141279)"/>
<path d="M485.971 46.5244L496.002 36.8066H468.367V46.5244H485.971Z" fill="url(#paint17_linear_15967_141279)"/>
<defs>
<linearGradient id="paint0_linear_15967_141279" x1="418.617" y1="4.85887" x2="446.192" y2="4.85887" gradientUnits="userSpaceOnUse">
<stop stop-color="white"/>
<stop offset="1" stop-color="white" stop-opacity="0.5"/>
</linearGradient>
<linearGradient id="paint1_linear_15967_141279" x1="455.794" y1="41.6655" x2="428.219" y2="41.6655" gradientUnits="userSpaceOnUse">
<stop stop-color="white"/>
<stop offset="1" stop-color="white" stop-opacity="0.5"/>
</linearGradient>
<linearGradient id="paint2_linear_15967_141279" x1="418.281" y1="23.2612" x2="455.887" y2="23.2612" gradientUnits="userSpaceOnUse">
<stop stop-color="white"/>
<stop offset="1" stop-color="white" stop-opacity="0.5"/>
</linearGradient>
<linearGradient id="paint3_linear_15967_141279" x1="451.05" y1="0" x2="451.05" y2="18.4032" gradientUnits="userSpaceOnUse">
<stop stop-color="white"/>
<stop offset="1" stop-color="white" stop-opacity="0.5"/>
</linearGradient>
<linearGradient id="paint4_linear_15967_141279" x1="423.476" y1="46.5243" x2="423.476" y2="28.1211" gradientUnits="userSpaceOnUse">
<stop stop-color="white"/>
<stop offset="1" stop-color="white" stop-opacity="0.5"/>
</linearGradient>
<linearGradient id="paint5_linear_15967_141279" x1="463.503" y1="46.5231" x2="463.503" y2="9.7168" gradientUnits="userSpaceOnUse">
<stop stop-color="white"/>
<stop offset="1" stop-color="white" stop-opacity="0.5"/>
</linearGradient>
<linearGradient id="paint6_linear_15967_141279" x1="491.14" y1="0.183594" x2="491.14" y2="36.9899" gradientUnits="userSpaceOnUse">
<stop stop-color="white"/>
<stop offset="1" stop-color="white" stop-opacity="0.5"/>
</linearGradient>
<linearGradient id="paint7_linear_15967_141279" x1="458.645" y1="5.04247" x2="486.279" y2="5.04247" gradientUnits="userSpaceOnUse">
<stop stop-color="white"/>
<stop offset="1" stop-color="white" stop-opacity="0.5"/>
</linearGradient>
<linearGradient id="paint8_linear_15967_141279" x1="495.998" y1="41.6655" x2="468.363" y2="41.6655" gradientUnits="userSpaceOnUse">
<stop stop-color="white"/>
<stop offset="1" stop-color="white" stop-opacity="0.5"/>
</linearGradient>
<linearGradient id="paint9_linear_15967_141279" x1="418.621" y1="4.85887" x2="446.196" y2="4.85887" gradientUnits="userSpaceOnUse">
<stop stop-color="white"/>
<stop offset="1" stop-color="white" stop-opacity="0.5"/>
</linearGradient>
<linearGradient id="paint10_linear_15967_141279" x1="455.798" y1="41.6655" x2="428.223" y2="41.6655" gradientUnits="userSpaceOnUse">
<stop stop-color="white"/>
<stop offset="1" stop-color="white" stop-opacity="0.5"/>
</linearGradient>
<linearGradient id="paint11_linear_15967_141279" x1="418.285" y1="23.2612" x2="455.891" y2="23.2612" gradientUnits="userSpaceOnUse">
<stop stop-color="white"/>
<stop offset="1" stop-color="white" stop-opacity="0.5"/>
</linearGradient>
<linearGradient id="paint12_linear_15967_141279" x1="451.054" y1="0" x2="451.054" y2="18.4032" gradientUnits="userSpaceOnUse">
<stop stop-color="white"/>
<stop offset="1" stop-color="white" stop-opacity="0.5"/>
</linearGradient>
<linearGradient id="paint13_linear_15967_141279" x1="423.48" y1="46.5243" x2="423.48" y2="28.1211" gradientUnits="userSpaceOnUse">
<stop stop-color="white"/>
<stop offset="1" stop-color="white" stop-opacity="0.5"/>
</linearGradient>
<linearGradient id="paint14_linear_15967_141279" x1="463.507" y1="46.5231" x2="463.507" y2="9.7168" gradientUnits="userSpaceOnUse">
<stop stop-color="white"/>
<stop offset="1" stop-color="white" stop-opacity="0.5"/>
</linearGradient>
<linearGradient id="paint15_linear_15967_141279" x1="491.144" y1="0.183594" x2="491.144" y2="36.9899" gradientUnits="userSpaceOnUse">
<stop stop-color="white"/>
<stop offset="1" stop-color="white" stop-opacity="0.5"/>
</linearGradient>
<linearGradient id="paint16_linear_15967_141279" x1="458.648" y1="5.04247" x2="486.283" y2="5.04247" gradientUnits="userSpaceOnUse">
<stop stop-color="white"/>
<stop offset="1" stop-color="white" stop-opacity="0.5"/>
</linearGradient>
<linearGradient id="paint17_linear_15967_141279" x1="496.002" y1="41.6655" x2="468.367" y2="41.6655" gradientUnits="userSpaceOnUse">
<stop stop-color="white"/>
<stop offset="1" stop-color="white" stop-opacity="0.5"/>
</linearGradient>
</defs>
</svg>
