<svg width="101" height="101" viewBox="0 0 101 101" fill="none" xmlns="http://www.w3.org/2000/svg">
<g clip-path="url(#clip0_114_2)">
<path d="M30.8699 27.2109H23.9499C21.2899 27.2109 19.9199 27.6709 19.9199 29.8709V32.3809C19.9199 34.5909 21.2899 35.0409 23.9499 35.0409H25.5499C26.5399 35.0409 26.9899 35.5709 26.9899 37.0909V69.9309C26.9899 72.5909 27.4499 73.9609 29.6499 73.9609H32.2299C34.4399 73.9609 34.8899 72.5909 34.8899 69.9309V29.8809C34.8899 27.6809 33.5199 27.2209 30.8599 27.2209L30.8699 27.2109Z" fill="white"/>
<path d="M78.3 4.41C75.34 1.52 71.61 0 67.13 0H33.37C28.88 0 25.08 1.52 22.2 4.41L4.33 22.2C1.52 25.01 0 28.73 0 32.84V67.12C0 71.83 1.6 75.48 4.79 78.6L21.74 95.55C25.08 98.89 28.81 100.42 33.6 100.34H66.9C71.54 100.34 75.34 98.97 78.76 95.55L95.71 78.6C98.83 75.48 100.5 71.76 100.5 67.12V32.84C100.5 28.73 98.98 25.01 96.17 22.2L78.3 4.41ZM93.88 44.55C93.88 45.69 93.35 46.3 92.28 46.3H87.19V42.73C87.19 40.07 86.81 38.7 84.53 38.7H82.25C79.97 38.7 79.59 40.07 79.59 42.73V46.3H76.02C73.36 46.3 71.99 46.68 71.99 48.96V51.39C71.99 53.67 73.36 54.05 76.02 54.05H79.59V57.62C79.59 60.28 79.97 61.65 82.25 61.65H84.53C86.81 61.65 87.19 60.28 87.19 57.62V54.05H92.28C93.27 54.05 93.8 54.58 93.88 55.57V67.12C93.88 69.93 93.04 72.06 91.07 73.96L74.12 90.91C72.14 92.89 69.94 93.8 67.2 93.8H33.29C30.55 93.8 28.35 92.89 26.37 90.91L9.42 73.96C7.44 71.98 6.53 69.93 6.61 67.12V33.6C6.61 30.79 7.52 28.35 9.58 26.3L26.83 8.82C28.58 7.07 30.78 6.54 33.29 6.54H67.2C69.71 6.54 71.91 7.07 73.66 8.82L90.92 26.3C92.9 28.35 93.88 30.79 93.88 33.6V44.55V44.55Z" fill="white"/>
<path d="M63.9295 49.7206C68.1895 46.6006 68.2595 43.4106 68.2595 40.8306V38.2506C67.7995 29.6606 64.9195 26.3906 54.9595 26.3906C44.9995 26.3906 42.1095 29.6606 41.6595 38.2506V40.8306C41.6595 43.4106 41.7395 46.6106 45.9895 49.7206C40.8995 51.7006 40.5195 56.0306 40.5195 61.7306C40.5195 70.1706 43.4795 74.3506 54.9595 74.5806C66.4395 74.3506 69.3995 70.1706 69.3995 61.7306C69.3995 56.0306 69.0195 51.7006 63.9295 49.7206V49.7206ZM54.9595 33.3806C59.1395 33.3806 60.8095 34.9006 60.8095 39.9906C60.8095 45.0806 59.1395 46.6006 54.9595 46.6006C50.7795 46.6006 49.1095 44.9306 49.1095 39.9906C49.1095 35.0506 50.7795 33.3806 54.9595 33.3806ZM54.9595 67.3606C50.0995 67.3606 48.3495 65.4606 48.3495 60.6706C48.3495 55.8806 50.0995 53.6806 54.9595 53.6806C59.8195 53.6806 61.5695 55.8806 61.5695 60.6706C61.5695 65.4606 59.8195 67.3606 54.9595 67.3606Z" fill="white"/>
</g>
<defs>
<clipPath id="clip0_114_2">
<rect width="100.5" height="100.35" fill="white"/>
</clipPath>
</defs>
</svg>
