<svg width="663" height="64" viewBox="0 0 663 64" fill="none" xmlns="http://www.w3.org/2000/svg">
<g clip-path="url(#clip0_60_18)">
<path d="M216.292 64V0H253.5C271.007 0 281.492 7.83745 281.492 22.48V22.7392C281.492 37.6409 271.343 46.5151 253.837 46.5151H235.403V64H216.292V64ZM235.403 32.3031H252.569C259.25 32.3031 262.208 28.9423 262.208 22.9984V22.827C262.208 18.0033 259.504 14.2998 252.651 14.2998H235.398V32.3031H235.403Z" fill="black"/>
<path d="M324.26 64H306.249L330.217 0H348.228L324.26 64Z" fill="black"/>
<path d="M307.875 0H289.864V64H307.875V0Z" fill="black"/>
<path d="M364.613 0H346.602V64H364.613V0Z" fill="black"/>
<path d="M165.98 64H147.964L171.932 0H189.943L165.98 64Z" fill="black"/>
<path d="M149.59 0H131.579V64H149.59V0Z" fill="black"/>
<path d="M206.328 0H188.317V64H206.328V0Z" fill="black"/>
<path d="M400.352 20.5866L411.527 5.05225H414.628V25.5333H411.471V9.99898L400.27 25.5333H397.168V5.05225H400.356V20.5866H400.352Z" fill="black"/>
<path d="M421.218 25.5333H418.203V10.5833H421.218V16.6986H429.115V10.5833H432.13V25.5333H429.115V19.418H421.218V25.5333Z" fill="black"/>
<path d="M434.947 18.0736C434.947 15.8814 435.693 14.0055 437.189 12.5162C438.682 11.0225 440.519 10.2932 442.732 10.2932C445.919 10.2932 448.593 12.0768 449.766 15.0027L446.98 15.9692C446.204 14.2119 444.655 13.1312 442.727 13.1312C441.408 13.1312 440.286 13.6013 439.398 14.537C438.505 15.5035 438.048 16.6721 438.048 18.0779C438.048 19.4838 438.509 20.6524 439.398 21.5881C440.286 22.5239 441.408 22.9939 442.727 22.9939C444.651 22.9939 446.26 21.9396 446.98 20.1559L449.766 21.1224C448.589 24.0483 445.919 25.8319 442.732 25.8319C440.519 25.8319 438.682 25.1027 437.189 23.609C435.697 22.1153 434.947 20.2745 434.947 18.0779V18.0736Z" fill="black"/>
<path d="M459.242 25.5333H456.227V13.3026H451.172V10.5833H464.271V13.3026H459.246V25.5333H459.242Z" fill="black"/>
<path d="M469.404 21.1137L477.534 10.5833H480.493V25.5333H477.478V15.0028L469.322 25.5333H466.393V10.5833H469.408V21.1137H469.404Z" fill="black"/>
<path d="M490.684 25.5333H487.67V13.3026H482.615V10.5833H495.713V13.3026H490.689V25.5333H490.684Z" fill="black"/>
<path d="M504.818 22.4624L509.33 10.5833H512.401L504.012 31.385H500.941L503.153 25.9155L497.007 10.5833H500.281L504.818 22.4624V22.4624Z" fill="black"/>
<path d="M521.751 25.5333H518.737V13.3026H513.682V10.5833H526.78V13.3026H521.756V25.5333H521.751Z" fill="black"/>
<path d="M551.136 12.5118C552.516 14.0055 553.207 15.877 553.207 18.0692C553.207 20.2614 552.516 22.1065 551.136 23.6002C549.73 25.0939 548.005 25.8231 545.965 25.8231C543.783 25.8231 542.031 24.9753 540.737 23.3058V31.3805H537.723V10.5832H540.737V12.8061C542.031 11.1367 543.783 10.2888 545.965 10.2888C548.005 10.2888 549.726 11.0181 551.136 12.5118V12.5118ZM548.751 21.5793C549.644 20.6436 550.071 19.475 550.071 18.0692C550.071 16.6633 549.64 15.464 548.751 14.5282C547.863 13.5925 546.741 13.1224 545.421 13.1224C544.102 13.1224 542.98 13.5925 542.092 14.5282C541.199 15.464 540.742 16.6326 540.742 18.0692C540.742 19.5057 541.203 20.6436 542.092 21.5793C542.985 22.5151 544.076 22.9851 545.421 22.9851C546.767 22.9851 547.863 22.5151 548.751 21.5793Z" fill="black"/>
<path d="M567.871 15.732V25.5332H564.856V23.3102C563.648 24.9796 561.958 25.8275 559.745 25.8275C556.959 25.8275 555.005 24.1889 555.005 21.6452C555.005 18.7194 557.274 17.3443 560.405 16.9928L563.247 16.6985C564.308 16.6106 564.856 16.1142 564.856 15.2356C564.856 13.8034 563.649 12.8676 561.897 12.8676C560.146 12.8676 558.766 13.8341 558.421 15.6178L555.436 14.8885C555.984 12.0812 558.481 10.2932 561.897 10.2932C565.313 10.2932 567.871 12.2262 567.871 15.7364V15.732ZM563.562 22.0494C564.425 21.2015 564.856 20.235 564.856 19.0928V18.5085C564.597 18.7413 564.05 18.917 563.191 19.0049L560.405 19.3564C558.939 19.5628 558.02 20.235 558.02 21.4036C558.02 22.5722 558.939 23.3366 560.405 23.3366C561.639 23.3366 562.704 22.8973 563.562 22.0494V22.0494Z" fill="black"/>
<path d="M582.6 21.4958C582.6 22.8138 582.026 23.8638 580.879 24.6545C579.702 25.4453 578.235 25.8231 576.484 25.8231C573.926 25.8231 571.459 24.9445 569.963 23.3366L571.628 21.2586C572.922 22.5151 574.871 23.1609 576.484 23.1609C578.352 23.1609 579.469 22.3701 579.469 21.2279C579.469 19.9714 578.261 19.3256 575.88 19.3256H573.84V16.782H575.88C578.265 16.782 579.469 16.1405 579.469 14.8797C579.469 13.799 578.321 12.9467 576.484 12.9467C574.875 12.9467 572.896 13.5925 571.628 14.8489L569.963 12.771C571.485 11.1631 573.957 10.2844 576.484 10.2844C578.235 10.2844 579.702 10.6666 580.879 11.4267C582.026 12.2174 582.6 13.2718 582.6 14.6161C582.6 16.1098 581.651 17.3662 580.017 18.0384C581.742 18.7677 582.6 19.9407 582.6 21.4915V21.4958Z" fill="black"/>
<path d="M598.683 21.4652C598.683 23.8068 596.7 25.5333 593.857 25.5333H585.701V10.5833H593.197C594.603 10.5833 595.755 10.9655 596.674 11.7255C597.562 12.5163 598.024 13.4828 598.024 14.6821C598.024 16.0879 597.45 17.1686 596.298 17.9023C597.821 18.5174 598.683 19.8617 598.683 21.4696V21.4652ZM588.574 13.1577V16.7864H593.025C594.202 16.7864 595.065 15.9957 595.065 14.9413C595.065 13.8869 594.202 13.1577 593.025 13.1577H588.574ZM588.574 22.9589H593.715C594.892 22.9589 595.725 22.1988 595.725 21.1137C595.725 20.0901 594.892 19.3301 593.715 19.3301H588.574V22.9589V22.9589Z" fill="black"/>
<path d="M604.687 21.1137L612.817 10.5833H615.776V25.5333H612.761V15.0028L604.605 25.5333H601.677V10.5833H604.692V21.1137H604.687Z" fill="black"/>
<path d="M625.964 25.5333H622.949V13.3026H617.894V10.5833H630.993V13.3026H625.968V25.5333H625.964Z" fill="black"/>
<path d="M636.13 21.1137L644.26 10.5833H647.218V25.5333H644.204V15.0028L636.048 25.5333H633.119V10.5833H636.134V21.1137H636.13Z" fill="black"/>
<path d="M663 10.5833V25.5333H659.985V20.178H657.371L653.408 25.5333H649.905L654.011 20.0023C651.799 19.4443 650.337 17.6914 650.337 15.3806C650.337 13.9748 650.824 12.837 651.773 11.9276C652.722 11.0226 653.955 10.5833 655.448 10.5833H663.004H663ZM659.985 17.4586V13.3026H655.59C654.326 13.3026 653.438 14.2076 653.438 15.407C653.438 16.6063 654.326 17.4542 655.59 17.4542H659.985V17.4586Z" fill="black"/>
<path d="M400.179 53.0258L408.309 42.4954H411.268V57.4454H408.253V46.9149L400.097 57.4454H397.168V42.4954H400.183V53.0258H400.179Z" fill="black"/>
<path d="M417.841 57.4454H414.826V42.4954H417.841V48.6107H425.738V42.4954H428.753V57.4454H425.738V51.3301H417.841V57.4454Z" fill="black"/>
<path d="M438.962 57.4454H435.947V45.2147H430.892V42.4954H443.991V45.2147H438.966V57.4454H438.962Z" fill="black"/>
<path d="M458.548 44.7756C460.014 46.5021 460.614 48.5801 460.355 51.0051H448.205C448.636 53.4346 450.534 55.0732 453.031 55.0732C454.955 55.0732 456.533 54.0496 457.37 52.4109L459.898 53.5532C458.604 56.0968 456.076 57.7355 452.945 57.7355C450.732 57.7355 448.895 57.0018 447.403 55.5125C445.91 54.0189 445.16 52.1781 445.16 49.9815C445.16 47.7849 445.906 45.9134 447.373 44.4241C448.839 42.9304 450.646 42.2012 452.803 42.2012C455.158 42.2012 457.081 43.0491 458.548 44.7756V44.7756ZM448.291 48.6064H457.31C456.822 46.3835 455.071 44.8634 452.798 44.8634C450.525 44.8634 448.835 46.3835 448.287 48.6064H448.291Z" fill="black"/>
<path d="M476.524 44.4241C477.905 45.9178 478.595 47.7893 478.595 49.9815C478.595 52.1737 477.905 54.0189 476.524 55.5125C475.118 57.0062 473.393 57.7355 471.353 57.7355C469.171 57.7355 467.42 56.8876 466.126 55.2182V63.2929H463.111V42.4911H466.126V44.7141C467.42 43.0447 469.171 42.1968 471.353 42.1968C473.393 42.1968 475.114 42.926 476.524 44.4197V44.4241ZM474.139 53.4917C475.032 52.5559 475.459 51.3873 475.459 49.9815C475.459 48.5757 475.028 47.3763 474.139 46.4406C473.251 45.5048 472.129 45.0348 470.81 45.0348C469.49 45.0348 468.368 45.5048 467.48 46.4406C466.587 47.3763 466.13 48.5449 466.13 49.9815C466.13 51.4181 466.591 52.5559 467.48 53.4917C468.368 54.4274 469.46 54.8975 470.81 54.8975C472.16 54.8975 473.251 54.4274 474.139 53.4917Z" fill="black"/>
<path d="M484.474 57.4454H481.459V42.4954H484.474V48.6107H492.371V42.4954H495.386V57.4454H492.371V51.3301H484.474V57.4454Z" fill="black"/>
<path d="M511.59 44.7756C513.056 46.5021 513.656 48.5801 513.401 51.0051H501.251C501.683 53.4346 503.58 55.0732 506.078 55.0732C508.001 55.0732 509.58 54.0496 510.417 52.4109L512.944 53.5532C511.65 56.0968 509.123 57.7355 505.996 57.7355C503.783 57.7355 501.946 57.0018 500.453 55.5125C498.961 54.0189 498.211 52.1781 498.211 49.9815C498.211 47.7849 498.957 45.9134 500.423 44.4241C501.89 42.9304 503.697 42.2012 505.853 42.2012C508.208 42.2012 510.132 43.0491 511.598 44.7756H511.59ZM501.333 48.6064H510.352C509.864 46.3835 508.113 44.8634 505.84 44.8634C503.567 44.8634 501.877 46.3835 501.329 48.6064H501.333Z" fill="black"/>
<path d="M522.717 57.4454H519.703V45.2147H514.648V42.4954H527.746V45.2147H522.722V57.4454H522.717Z" fill="black"/>
<path d="M541.88 47.6443V57.4455H538.866V55.2226C537.658 56.892 535.967 57.7399 533.755 57.7399C530.968 57.7399 529.015 56.1012 529.015 53.5576C529.015 50.6317 531.283 49.2566 534.414 48.9052L537.257 48.6108C538.318 48.523 538.866 48.0265 538.866 47.1479C538.866 45.7157 537.658 44.78 535.907 44.78C534.156 44.78 532.775 45.7465 532.43 47.5301L529.446 46.8008C529.994 43.9936 532.491 42.2056 535.907 42.2056C539.323 42.2056 541.88 44.1386 541.88 47.6487V47.6443ZM537.572 53.9617C538.434 53.1139 538.866 52.1474 538.866 51.0051V50.4208C538.607 50.6537 538.059 50.8294 537.201 50.9173L534.414 51.2687C532.948 51.4752 532.029 52.1474 532.029 53.3159C532.029 54.4845 532.948 55.249 534.414 55.249C535.648 55.249 536.713 54.8096 537.572 53.9617V53.9617Z" fill="black"/>
<path d="M34.6469 32V0H0V64H5.60267L34.6469 32Z" fill="black"/>
<path d="M40.2496 64L69.2981 32V0H63.6955L34.647 32V64H40.2496Z" fill="black"/>
<path d="M103.945 64V0H98.3466L69.2981 32V64H103.945Z" fill="black"/>
</g>
<defs>
<clipPath id="clip0_60_18">
<rect width="663" height="64" fill="white"/>
</clipPath>
</defs>
</svg>
