<svg width="129" height="13" viewBox="0 0 129 13" fill="none" xmlns="http://www.w3.org/2000/svg">
<path d="M0.403314 10.1392V1.22436H5.0365C6.01587 1.22436 6.76086 1.45037 7.27148 1.90239C7.78209 2.34604 8.03739 2.97802 8.03739 3.79835C8.03739 4.60194 7.7779 5.2423 7.25892 5.71943C6.73994 6.18819 5.99913 6.42257 5.0365 6.42257H1.62125V10.1392H0.403314ZM5.07417 2.35441H1.62125V5.29252H5.07417C5.62663 5.29252 6.04935 5.15859 6.34233 4.89073C6.6353 4.62287 6.78179 4.26711 6.78179 3.82347C6.78179 3.35471 6.6353 2.99477 6.34233 2.74364C6.05772 2.48415 5.635 2.35441 5.07417 2.35441ZM12.2206 3.7858C13.1414 3.7858 13.8989 4.0997 14.4933 4.7275C15.0876 5.3553 15.3847 6.17145 15.3847 7.17593H10.2242C10.2577 7.76188 10.467 8.25157 10.852 8.64499C11.2454 9.03841 11.7393 9.23512 12.3336 9.23512C12.7103 9.23512 13.0451 9.17234 13.3381 9.04678C13.6311 8.92122 13.8278 8.80403 13.9282 8.69521C14.0371 8.58639 14.1208 8.47758 14.1794 8.36876H15.3094C15.2843 8.5278 15.209 8.70777 15.0834 8.90867C14.9662 9.10119 14.7946 9.30628 14.5686 9.52391C14.351 9.74155 14.0454 9.92571 13.652 10.0764C13.2586 10.2187 12.8191 10.2898 12.3336 10.2898C11.3877 10.2898 10.6051 9.98012 9.98564 9.36068C9.37458 8.73288 9.06905 7.95859 9.06905 7.03781C9.06905 6.1003 9.36621 5.32601 9.96053 4.71495C10.5549 4.09551 11.3082 3.7858 12.2206 3.7858ZM12.2206 4.76517C11.7351 4.76517 11.3208 4.89491 10.9776 5.15441C10.6427 5.4139 10.4167 5.76965 10.2995 6.22167H14.1166C13.9827 5.76128 13.7483 5.40553 13.4134 5.15441C13.087 4.89491 12.6894 4.76517 12.2206 4.76517ZM17.1966 10.1392V3.93647H18.3016V6.62347L21.5661 3.93647H23.1984L19.5321 6.91225L23.3617 10.1392H21.7419L18.3016 7.30149V10.1392H17.1966ZM25.1549 7.37683L25.4939 3.93647H30.1146V10.1392H28.972V4.96607H26.4105L26.172 7.45216C26.0715 8.43991 25.8748 9.15142 25.5818 9.58669C25.2889 10.0136 24.8201 10.2271 24.1756 10.2271H23.8365V9.19746H23.9872C24.4057 9.19746 24.6862 9.07608 24.8285 8.83333C24.9708 8.59058 25.0796 8.10508 25.1549 7.37683ZM37.2467 9.0719C37.1714 9.22257 37.0625 9.37743 36.9202 9.53647C36.7863 9.69551 36.5477 9.86293 36.2045 10.0387C35.8613 10.2061 35.4763 10.2898 35.0494 10.2898C34.2039 10.2898 33.4883 9.99686 32.9023 9.41091C32.3164 8.81659 32.0234 8.02556 32.0234 7.03781C32.0234 6.05844 32.3164 5.2716 32.9023 4.67728C33.4883 4.08296 34.2039 3.7858 35.0494 3.7858C35.6437 3.7858 36.1292 3.91973 36.5059 4.18759C36.8826 4.45545 37.1295 4.71494 37.2467 4.96607V3.93647H38.3893V10.1392H37.2467V9.0719ZM36.7068 8.60732C37.0835 8.18879 37.2718 7.66562 37.2718 7.03781C37.2718 6.41001 37.0835 5.88684 36.7068 5.46831C36.3385 5.04977 35.8572 4.84051 35.2628 4.84051C34.6518 4.84051 34.1537 5.04977 33.7687 5.46831C33.392 5.88684 33.2036 6.41001 33.2036 7.03781C33.2036 7.66562 33.392 8.18879 33.7687 8.60732C34.1537 9.02586 34.6518 9.23512 35.2628 9.23512C35.8572 9.23512 36.3385 9.02586 36.7068 8.60732ZM40.7521 10.1392V3.93647H42.2714L44.7449 8.82077L47.2185 3.93647H48.6875V10.1392H47.57V5.26741L45.0839 10.1768H44.2929L41.8319 5.31764V10.1392H40.7521ZM55.8233 9.0719C55.7479 9.22257 55.6391 9.37743 55.4968 9.53647C55.3629 9.69551 55.1243 9.86293 54.7811 10.0387C54.4379 10.2061 54.0529 10.2898 53.626 10.2898C52.7805 10.2898 52.0648 9.99686 51.4789 9.41091C50.8929 8.81659 50.6 8.02556 50.6 7.03781C50.6 6.05844 50.8929 5.2716 51.4789 4.67728C52.0648 4.08296 52.7805 3.7858 53.626 3.7858C54.2203 3.7858 54.7058 3.91973 55.0825 4.18759C55.4592 4.45545 55.7061 4.71494 55.8233 4.96607V3.93647H56.9659V10.1392H55.8233V9.0719ZM55.2834 8.60732C55.6601 8.18879 55.8484 7.66562 55.8484 7.03781C55.8484 6.41001 55.6601 5.88684 55.2834 5.46831C54.9151 5.04977 54.4337 4.84051 53.8394 4.84051C53.2284 4.84051 52.7303 5.04977 52.3453 5.46831C51.9686 5.88684 51.7802 6.41001 51.7802 7.03781C51.7802 7.66562 51.9686 8.18879 52.3453 8.60732C52.7303 9.02586 53.2284 9.23512 53.8394 9.23512C54.4337 9.23512 54.9151 9.02586 55.2834 8.60732ZM59.2533 10.1392V8.3562H60.7098V10.1392H59.2533ZM67.4479 9.13468V10.1392H66.3179V0.897904H67.4479V4.99118C67.5568 4.74006 67.8079 4.47638 68.2013 4.20015C68.6031 3.92391 69.1053 3.7858 69.708 3.7858C70.5702 3.7858 71.2943 4.08296 71.8802 4.67728C72.4662 5.26323 72.7591 6.05007 72.7591 7.03781C72.7591 8.02556 72.4662 8.81659 71.8802 9.41091C71.2943 9.99686 70.5702 10.2898 69.708 10.2898C69.1053 10.2898 68.6073 10.1601 68.2139 9.9006C67.8288 9.63273 67.5735 9.37743 67.4479 9.13468ZM67.4228 7.03781C67.4228 7.66562 67.6153 8.18879 68.0004 8.60732C68.3855 9.02586 68.8877 9.23512 69.5071 9.23512C70.1266 9.23512 70.6288 9.02586 71.0139 8.60732C71.3989 8.18879 71.5914 7.66562 71.5914 7.03781C71.5914 6.40164 71.3989 5.87847 71.0139 5.46831C70.6288 5.04977 70.1266 4.84051 69.5071 4.84051C68.8877 4.84051 68.3855 5.04977 68.0004 5.46831C67.6153 5.87847 67.4228 6.40164 67.4228 7.03781ZM77.3551 3.7858C78.2759 3.7858 79.0335 4.0997 79.6278 4.7275C80.2221 5.3553 80.5193 6.17145 80.5193 7.17593H75.3587C75.3922 7.76188 75.6015 8.25157 75.9865 8.64499C76.38 9.03841 76.8738 9.23512 77.4682 9.23512C77.8448 9.23512 78.1797 9.17234 78.4726 9.04678C78.7656 8.92122 78.9623 8.80403 79.0628 8.69521C79.1716 8.58639 79.2553 8.47758 79.3139 8.36876H80.4439C80.4188 8.5278 80.3435 8.70777 80.2179 8.90867C80.1007 9.10119 79.9291 9.30628 79.7031 9.52391C79.4855 9.74155 79.18 9.92571 78.7865 10.0764C78.3931 10.2187 77.9537 10.2898 77.4682 10.2898C76.5223 10.2898 75.7396 9.98012 75.1202 9.36068C74.5091 8.73288 74.2036 7.95859 74.2036 7.03781C74.2036 6.1003 74.5007 5.32601 75.0951 4.71495C75.6894 4.09551 76.4427 3.7858 77.3551 3.7858ZM77.3551 4.76517C76.8696 4.76517 76.4553 4.89491 76.1121 5.15441C75.7773 5.4139 75.5513 5.76965 75.4341 6.22167H79.2511C79.1172 5.76128 78.8828 5.40553 78.548 5.15441C78.2215 4.89491 77.8239 4.76517 77.3551 4.76517ZM83.3859 8.06741V4.96607H81.5527V3.93647H83.3859V1.22436H84.5285V3.93647H87.0271V4.96607H84.5285V7.80373C84.5285 8.26412 84.6206 8.59477 84.8047 8.79566C84.9972 8.98819 85.3321 9.08445 85.8092 9.08445H87.0271V10.1392H85.5581C84.1099 10.1392 83.3859 9.44858 83.3859 8.06741ZM93.2517 5.8701C93.2098 5.78639 93.1554 5.70269 93.0885 5.61898C93.0215 5.5269 92.9169 5.41808 92.7746 5.29252C92.6406 5.15859 92.4565 5.04977 92.2221 4.96607C91.9877 4.88236 91.7282 4.84051 91.4436 4.84051C90.8828 4.84051 90.414 5.05396 90.0374 5.48086C89.669 5.8994 89.4849 6.41838 89.4849 7.03781C89.4849 7.65725 89.669 8.18042 90.0374 8.60732C90.414 9.02586 90.887 9.23512 91.4562 9.23512C91.7492 9.23512 92.0128 9.19327 92.2472 9.10956C92.4816 9.02586 92.6658 8.92122 92.7997 8.79566C92.942 8.66173 93.0466 8.55291 93.1136 8.46921C93.1805 8.37713 93.235 8.28923 93.2768 8.20553H94.4069C94.3817 8.34783 94.3148 8.51943 94.206 8.72033C94.1055 8.92122 93.9507 9.14723 93.7414 9.39835C93.5405 9.64947 93.2391 9.86293 92.8374 10.0387C92.4356 10.2061 91.9752 10.2898 91.4562 10.2898C90.5689 10.2898 89.8197 9.97593 89.2087 9.34813C88.606 8.72033 88.3046 7.95022 88.3046 7.03781C88.3046 6.11704 88.606 5.34693 89.2087 4.7275C89.8113 4.0997 90.5563 3.7858 91.4436 3.7858C91.9626 3.7858 92.423 3.8695 92.8248 4.03692C93.2266 4.20433 93.5321 4.4136 93.7414 4.66472C93.9507 4.91584 94.1055 5.14185 94.206 5.34275C94.3064 5.53527 94.3734 5.71106 94.4069 5.8701H93.2517ZM96.2118 2.74364V0.948129H97.4046V2.74364H96.2118ZM96.2369 10.1392V3.93647H97.3795V10.1392H96.2369ZM100.785 8.06741V4.96607H98.9521V3.93647H100.785V1.22436H101.928V3.93647H104.427V4.96607H101.928V7.80373C101.928 8.26412 102.02 8.59477 102.204 8.79566C102.397 8.98819 102.732 9.08445 103.209 9.08445H104.427V10.1392H102.958C101.509 10.1392 100.785 9.44858 100.785 8.06741ZM106.82 12.9517L108.151 10.001L105.338 3.93647H106.632L108.754 8.65755L110.876 3.93647H112.056L107.988 12.9517H106.82ZM112.948 10.1392V8.3562H114.404V10.1392H112.948ZM117.832 6.63602V10.1392H116.689V3.93647H117.832V5.07907C117.949 4.76935 118.175 4.49312 118.51 4.25037C118.853 4.00762 119.347 3.88625 119.991 3.88625H121.548V5.02885H119.966C119.188 5.02885 118.635 5.15441 118.309 5.40553C117.991 5.65665 117.832 6.06681 117.832 6.63602ZM128.086 9.51136C127.559 10.022 126.856 10.2773 125.977 10.2773C125.098 10.2773 124.39 10.022 123.855 9.51136C123.327 8.99237 123.064 8.3269 123.064 7.51494V3.93647H124.206V7.30149C124.206 7.87907 124.361 8.34364 124.671 8.69521C124.98 9.03841 125.412 9.21001 125.964 9.21001C126.517 9.21001 126.948 9.03841 127.257 8.69521C127.567 8.34364 127.722 7.87907 127.722 7.30149V3.93647H128.877V7.51494C128.877 8.3269 128.613 8.99237 128.086 9.51136Z" fill="white"/>
</svg>
