<svg xmlns="http://www.w3.org/2000/svg" width="24.847" height="32" viewBox="0 0 24.847 32"><g transform="translate(13996 20083.001)"><path d="M6,31.865A2.485,2.485,0,0,0,9.763,34l3.5-2.1,1.649,1.649a4.969,4.969,0,0,0,7.027,0L23.585,31.9l3.5,2.1a2.485,2.485,0,0,0,3.763-2.131V12.939c0-.027-.014-.05-.015-.077a1.232,1.232,0,0,0-.067-.328c-.014-.04-.024-.078-.041-.117a1.205,1.205,0,0,0-.24-.354h0l-8.7-8.7h0a1.252,1.252,0,0,0-.358-.242,1.1,1.1,0,0,0-.124-.041,1.232,1.232,0,0,0-.328-.067A.444.444,0,0,0,20.908,3H9.727A3.727,3.727,0,0,0,6,6.727ZM26.606,11.7H23.393a1.242,1.242,0,0,1-1.242-1.242V7.241ZM8.485,6.727A1.242,1.242,0,0,1,9.727,5.485h9.939v4.969a3.727,3.727,0,0,0,3.727,3.727h4.969V31.865l-3.5-2.1a2.485,2.485,0,0,0-3.035.373L20.18,31.786a2.485,2.485,0,0,1-3.513,0l-1.649-1.649a2.485,2.485,0,0,0-3.035-.373l-3.5,2.1Z" transform="translate(-14002 -20086)"/><path d="M13.727,18.454A3.727,3.727,0,1,0,10,14.727,3.727,3.727,0,0,0,13.727,18.454Zm0-4.969a1.242,1.242,0,1,1-1.242,1.242A1.242,1.242,0,0,1,13.727,13.485Z" transform="translate(-14001.03 -20084.061)"/><path d="M16,20.727A3.727,3.727,0,1,0,19.727,17,3.727,3.727,0,0,0,16,20.727Zm4.969,0a1.242,1.242,0,1,1-1.242-1.242A1.242,1.242,0,0,1,20.969,20.727Z" transform="translate(-13999.576 -20082.607)"/><path d="M12.364,22.575a1.242,1.242,0,0,0,1.757,0l7.454-7.454a1.242,1.242,0,1,0-1.757-1.757l-7.454,7.454a1.242,1.242,0,0,0,0,1.757Z" transform="translate(-14000.546 -20083.578)"/></g></svg>