<svg width="88" height="88" viewBox="0 0 88 88" fill="none" xmlns="http://www.w3.org/2000/svg">
<path d="M80.773 28.7975C78.7754 24.1433 75.9237 19.9716 72.2868 16.3841C68.6498 12.7967 64.4136 9.98382 59.7021 8.01345C54.8184 5.97513 49.6385 4.94238 44.2933 4.94238C38.9481 4.94238 33.7614 5.97513 28.8777 8.01345C24.1593 9.98382 19.9299 12.7967 16.293 16.3841C12.6561 19.9716 9.80437 24.1501 7.8068 28.7975C5.74036 33.6147 4.69336 38.7309 4.69336 44.0033C4.69336 49.0991 5.67148 54.0522 7.60705 58.7267C7.6346 58.8015 7.66215 58.8762 7.70348 58.951L7.71726 58.9849C7.74481 59.0597 7.77925 59.1276 7.8068 59.2023C9.80437 63.8565 12.6561 68.0282 16.293 71.6157C19.9299 75.2031 24.1662 78.016 28.8777 79.9864C33.7614 82.0247 38.9481 83.0574 44.2933 83.0574C49.6385 83.0574 54.8253 82.0247 59.709 79.9864C64.4274 78.016 68.6567 75.2031 72.2937 71.6157C75.9306 68.0282 78.7823 63.8497 80.7799 59.2023C82.8463 54.3851 83.8933 49.2689 83.8933 43.9965C83.8864 38.7309 82.8394 33.6147 80.773 28.7975ZM62.9947 73.7084C61.4862 74.6392 59.9088 75.4545 58.2763 76.1475L58.9789 74.3674L62.9947 73.7084ZM21.5624 61.0436L29.1876 70.0462V75.6516C22.265 72.4242 16.5616 67.0567 12.9591 60.3778L21.5624 61.0436ZM20.9769 45.6408L20.5981 56.8787L11.0305 56.1381C9.57017 52.2585 8.82625 48.1751 8.82625 44.0033C8.82625 42.495 8.92268 40.9866 9.12244 39.4986L14.6812 37.0051L20.9769 45.6408ZM63.3873 30.2719L67.6373 25.5701L76.8881 30.2379C78.6721 34.3281 79.6296 38.6629 79.7398 43.1404L72.8861 49.5611L66.5283 44.7235L63.3873 30.2719ZM51.2573 54.9083L64.4412 48.277L70.8196 53.135L68.7532 68.6262L57.9181 70.3995L49.2321 65.0047L51.2573 54.9083ZM35.9656 20.1414L41.8549 28.0841L35.4283 39.9267L23.932 42.7056L17.7671 34.2602L23.2156 23.3348L35.9656 20.1414ZM49.7901 51.0695L39.3752 41.2788L45.4505 30.0816L59.4404 31.5492L62.3127 44.7711L49.7901 51.0695ZM60.3152 27.5473L45.423 25.9846L39.5405 18.0555L48.7018 9.29079C52.1389 9.71204 55.4797 10.6293 58.6414 12.0153L64.6478 22.7573L60.3152 27.5473ZM22.9883 16.0512C25.9433 13.8566 29.1945 12.1376 32.673 10.9486C36.0069 9.80716 39.4854 9.16849 43.0259 9.0394L35.7727 15.9833L23.4705 19.0611L22.9883 16.0512ZM25.0823 46.6259L36.2066 43.9354L47.1726 54.2492L45.1612 64.271L32.0393 67.0567L24.6828 58.3666L25.0823 46.6259ZM33.3274 70.9566L46.5458 68.1506L54.9424 73.3754L53.1584 77.8801C50.2723 78.6139 47.2966 78.9876 44.2933 78.9876C40.5462 78.9876 36.861 78.4101 33.3274 77.2754V70.9566ZM79.3816 49.0991C78.6032 54.3444 76.6263 59.3178 73.5818 63.7002L74.98 53.2233L79.3816 49.0991ZM68.6636 21.5003L65.6328 16.0852C68.5396 18.2594 71.1158 20.8752 73.2305 23.8104L68.6636 21.5003ZM10.135 34.5591C11.7882 28.7431 14.9292 23.4843 19.3031 19.197L19.6338 21.2625L13.8339 32.9013L10.135 34.5591Z" fill="#051854"/>
</svg>
