<svg width="356" height="47" viewBox="0 0 356 47" fill="none" xmlns="http://www.w3.org/2000/svg">
<path d="M63.8329 0.723633H102.112L100.457 11.0603H75.0062L74.0751 16.9522H89.2833L87.5245 27.599H72.4198L71.3852 34.6279H99.3186L97.5599 45.5848H56.6943L63.8329 0.723633Z" fill="white"/>
<path d="M121.562 11.7839H105.526L107.285 0.723633H152.185L150.323 11.7839H134.287L128.908 45.5848H116.182L121.562 11.7839Z" fill="white"/>
<path d="M153.117 25.3249C152.599 10.7501 162.738 0 176.601 0C192.741 0 197.5 10.7501 198.017 15.9185H184.981C184.361 14.6781 182.085 11.4737 177.015 11.4737C169.877 11.4737 165.842 17.5724 166.152 24.7047C166.359 30.4932 169.566 34.8346 175.153 34.8346C180.326 34.8346 182.602 31.837 183.326 30.6999H196.258C195.431 34.7312 190.154 46.3083 175.567 46.3083C162.221 46.3083 153.53 37.7289 153.117 25.3249Z" fill="white"/>
<path d="M207.224 0.723633H220.052L215.81 27.7024L239.916 0.723633H252.745L245.606 45.5848H232.777L237.019 18.7095L212.914 45.5848H200.085L207.224 0.723633Z" fill="white"/>
<path d="M273.23 11.7839H257.194L258.953 0.723633H303.853L302.095 11.7839H286.059L280.679 45.5848H267.954L273.23 11.7839Z" fill="white"/>
<path d="M310.163 0.723633H322.992L318.646 27.8057L342.752 0.827H355.581L348.442 45.6882H335.613L339.855 18.8128L315.75 45.6882H302.921L310.163 0.723633Z" fill="white"/>
<path d="M34.4512 17.3658H23.0709L24.002 11.8874H51.0043L52.7631 0.827148H12.8287L10.2422 17.3658H1.65531L0 27.4958H8.58693L5.69014 45.585H32.1751C44.59 45.585 52.8665 40.2099 52.4527 29.253C52.2458 21.6039 45.8315 17.3658 34.4512 17.3658ZM33.3132 34.4214H20.2776L21.4156 27.4958H34.865C37.5549 27.4958 38.8998 28.4261 38.8998 30.1833C39.1067 32.9742 36.8307 34.4214 33.3132 34.4214Z" fill="white"/>
</svg>
