<svg width="203" height="203" viewBox="0 0 203 203" fill="none" xmlns="http://www.w3.org/2000/svg">
<path d="M101.436 202.871C157.457 202.871 202.871 157.457 202.871 101.436C202.871 45.4143 157.457 0 101.436 0C45.4143 0 0 45.4143 0 101.436C0 157.457 45.4143 202.871 101.436 202.871Z" fill="#F2B1CA"/>
<path d="M101.141 3.79614C46.1466 3.94038 3.23131 49.2984 3.7745 101.42C3.19141 153.073 45.5574 199.041 101.365 199.072C156.682 199.103 199.087 153.748 199.097 101.451C199.106 48.7522 156.105 3.65498 101.141 3.79921V3.79614ZM106.134 85.1276C106.416 85.456 106.656 85.8151 106.855 86.1987C106.656 85.8151 106.413 85.456 106.134 85.1276Z" fill="#010201"/>
<path d="M51.5576 45.0759H147.798C147.816 45.3552 147.847 45.5976 147.847 45.8401C147.847 63.8145 147.841 81.7859 147.853 99.7603C147.859 110.839 145.892 121.54 141.559 131.75C134.178 149.145 122.228 162.482 105.733 171.719C103.968 172.708 102.145 173.588 100.322 174.472C100.031 174.613 99.5549 174.616 99.2603 174.478C82.0439 166.416 69.0012 153.991 60.3285 137.056C56.0352 128.672 53.2332 119.791 52.2451 110.415C51.7786 105.972 51.6159 101.482 51.5944 97.0106C51.5177 80.5307 51.5576 64.0508 51.5546 47.5679C51.5546 46.7792 51.5546 45.9935 51.5546 45.0759H51.5576ZM53.4726 46.9633C53.4726 47.3408 53.4726 47.62 53.4726 47.9024C53.4972 65.6528 53.5463 83.4001 53.534 101.151C53.5309 105.702 53.9268 110.201 54.7462 114.672C56.9404 126.653 61.6604 137.557 68.8447 147.377C76.4125 157.722 85.9997 165.683 97.3883 171.548C99.1468 172.453 100.592 172.729 102.176 171.474C102.305 171.373 102.473 171.32 102.624 171.241C121.574 161.291 134.617 146.22 141.703 126.027C144.226 118.843 145.769 111.419 145.831 103.799C145.975 85.0941 145.935 66.3862 145.969 47.6783C145.969 47.439 145.932 47.1996 145.913 46.9602H53.4726V46.9633Z" fill="#F2B1CA"/>
<path d="M89.9369 173.189C66.4078 170.256 41.0926 153.813 31.1463 125.036C21.2185 96.3109 30.7873 67.5217 48.3474 50.3667C48.4794 51.7078 48.5407 52.8157 47.4666 53.991C38.0759 64.2657 32.1192 76.2987 29.9802 90.0473C26.9205 109.713 31.2875 127.703 43.1886 143.685C52.7267 156.495 65.3337 165.02 80.7026 169.421C82.0253 169.798 83.3603 170.16 84.7137 170.397C86.7115 170.747 88.1631 172.011 89.9369 173.189Z" fill="#F2B1CA"/>
<path d="M151.081 50.3634C169.866 68.8197 178.041 98.5234 167.782 126.349C156.648 156.541 129.829 170.826 109.654 173.103C111.278 172.103 112.554 170.927 114.267 170.547C124.259 168.34 133.472 164.357 141.647 158.182C155.905 147.423 165.299 133.392 168.822 115.823C173.223 93.8802 168.205 74.0859 154.251 56.5748C153.585 55.7401 152.932 54.8624 152.128 54.1719C150.915 53.1285 150.802 51.8733 151.081 50.3604V50.3634Z" fill="#F2B1CA"/>
<path d="M140.733 41.8934C139.868 41.8934 138.999 41.9333 138.137 41.875C137.772 41.8504 137.388 41.6724 137.069 41.476C130.729 37.5754 123.956 34.7183 116.741 32.8709C108.847 30.8485 100.822 30.425 92.7696 31.1492C82.228 32.0975 72.3892 35.4057 63.3605 40.9481C61.8169 41.8964 60.3377 41.924 58.4688 41.8105C68.148 35.24 78.5453 31.0786 89.9524 29.5933C108.412 27.1934 125.334 31.3671 140.779 41.654C140.767 41.7338 140.752 41.8136 140.739 41.8934H140.733Z" fill="#F2B1CA"/>
<path d="M87.8683 180.269C89.3996 180.137 90.4614 180.613 91.1519 181.988C91.7135 183.105 92.4838 184.121 93.2173 185.262C94.273 184.007 95.3041 182.853 96.2432 181.632C96.7158 181.018 97.2037 180.772 97.9495 180.954C98.2963 181.039 98.6646 181.03 99.1372 181.073C98.8917 184.685 98.6492 188.264 98.4067 191.87H95.9118C96.0407 189.78 96.1696 187.699 96.3015 185.615C96.2494 185.578 96.1972 185.542 96.145 185.508C95.0893 186.72 94.0367 187.935 92.9073 189.236C91.9836 187.809 91.0967 186.447 90.0717 184.863C89.8937 187.245 89.7371 189.356 89.5776 191.532C88.752 191.397 88.0155 191.277 87.1562 191.136C87.3987 187.475 87.6381 183.863 87.8744 180.269H87.8683Z" fill="#FAFAFA"/>
<path d="M79.1526 183.286C77.925 184.219 76.6944 185.155 75.3564 186.171C74.7334 184.599 74.1319 183.08 73.4506 181.356C72.797 183.605 72.2139 185.612 71.6124 187.69C70.8237 187.444 70.1362 187.226 69.2861 186.959C70.2651 183.421 71.2287 179.947 72.1862 176.491C73.8004 176.559 74.3928 176.986 74.8961 178.36C75.3656 179.646 75.8504 180.926 76.3844 182.362C77.1148 181.81 77.7531 181.331 78.3884 180.846C78.7904 180.539 79.2416 180.272 79.5792 179.907C80.5858 178.812 81.7089 178.851 83.0777 179.542C82.114 182.964 81.1412 186.429 80.1807 189.832C80.0119 189.884 79.9566 189.918 79.9075 189.912C78.416 189.713 77.8636 188.893 78.2503 187.45C78.6125 186.097 78.9715 184.747 79.3306 183.393C79.2692 183.36 79.2109 183.323 79.1495 183.289L79.1526 183.286Z" fill="#FAFAFA"/>
<path d="M131.096 28.0836C130.458 27.881 129.85 27.746 129.301 27.4913C129.077 27.3869 128.92 27.0371 128.825 26.767C128.086 24.6771 127.374 22.578 126.646 20.482C126.564 20.2457 126.465 20.0186 126.294 19.5889C125.526 21.7034 124.82 23.646 124.081 25.6837C123.326 25.4044 122.583 25.1313 121.739 24.8183C122.958 21.3658 124.148 17.987 125.345 14.5928C126.653 14.7953 127.567 15.2649 127.957 16.6735C128.537 18.7787 129.332 20.8226 130.228 22.9309C130.934 21.0129 131.639 19.0948 132.394 17.0448C133.18 17.321 133.923 17.5788 134.721 17.8581C133.493 21.3228 132.305 24.671 131.093 28.0805L131.096 28.0836Z" fill="#FAFAFA"/>
<path d="M48.8478 26.4631C49.3204 26.1592 49.6918 25.837 50.1245 25.6621C50.4682 25.524 50.9316 25.4288 51.26 25.5455C53.58 26.3741 55.8786 27.264 58.3429 27.9944C57.2903 26.2145 56.2407 24.4345 55.1513 22.5932C55.8817 22.1758 56.5538 21.7922 57.3179 21.3564C59.2114 24.4714 61.0742 27.531 62.9647 30.6398C62.0286 31.3579 61.1908 31.9134 59.8866 31.3395C57.99 30.5048 55.9983 29.8879 54.0465 29.1821C53.8961 29.1269 53.7396 29.087 53.353 28.9703C54.4885 30.9252 55.5165 32.696 56.5844 34.5373C55.8694 34.9608 55.2281 35.3413 54.5007 35.7679C52.595 32.6315 50.7321 29.5688 48.8447 26.4631H48.8478Z" fill="#FAFAFA"/>
<path d="M15.1175 69.3508C15.096 69.2373 15.0807 69.2066 15.0868 69.1851C15.5185 67.6732 16.4698 67.174 17.9409 67.6875C20.666 68.6388 23.3912 69.5871 26.1409 70.5477C25.8831 71.8059 25.4074 72.7112 24.008 73.1102C21.9365 73.6964 19.9326 74.528 17.858 75.4426C19.776 76.1515 21.6941 76.8634 23.6889 77.6C23.428 78.3641 23.1887 79.0669 22.9125 79.8771C19.4508 78.6833 16.0688 77.5171 12.7115 76.3571C12.6961 76.2466 12.6747 76.1913 12.6839 76.1392C12.868 74.6845 13.7089 74.0032 15.1267 73.6288C17.0662 73.1163 18.9352 72.3276 20.8348 71.6555C20.841 71.5788 20.8502 71.5052 20.8563 71.4285C18.9474 70.738 17.0386 70.0475 15.1175 69.3539V69.3508Z" fill="#FAFAFA"/>
<path d="M182.604 136.995C182.604 140.043 179.98 142.636 176.93 142.608C173.812 142.58 171.277 139.984 171.314 136.857C171.351 133.785 173.904 131.351 177.068 131.367C180.1 131.385 182.607 133.932 182.604 136.995ZM176.78 133.862C175.132 133.868 173.769 135.221 173.766 136.86C173.76 138.585 175.297 140.122 177.001 140.098C178.725 140.07 180.195 138.643 180.171 137.02C180.146 135.249 178.649 133.856 176.78 133.862Z" fill="#FAFAFA"/>
<path d="M112.484 22.9738C109.317 22.9554 106.834 20.4451 106.859 17.2841C106.88 14.3165 109.443 11.619 112.392 11.711C116.025 11.8246 118.066 14.5006 118.128 17.3762C118.192 20.4665 115.593 22.9922 112.484 22.9738ZM112.478 14.1876C110.827 14.1539 109.375 15.6484 109.354 17.4038C109.332 19.0733 110.682 20.4972 112.343 20.5555C114.074 20.62 115.58 19.1531 115.599 17.3823C115.62 15.587 114.285 14.2214 112.478 14.1876Z" fill="#FAFAFA"/>
<path d="M177.683 117.572C181.258 118.471 184.729 119.343 188.307 120.245C187.905 121.77 187.635 123.271 187.11 124.68C186.346 126.742 183.839 127.319 182.157 125.929C182.007 125.806 181.862 125.671 181.764 125.582C181.132 125.83 180.564 126.189 179.96 126.269C177.904 126.549 176.182 124.821 176.516 122.74C176.79 121.031 177.271 119.355 177.686 117.572H177.683ZM179.318 120.552C179.134 121.374 178.873 122.08 178.861 122.789C178.855 123.151 179.214 123.676 179.552 123.851C179.997 124.078 180.509 123.842 180.696 123.299C180.939 122.593 181.132 121.872 181.368 121.08C180.635 120.889 180.046 120.739 179.318 120.552ZM183.461 121.614C183.302 122.442 182.703 123.213 183.431 123.937C183.645 124.149 184.195 124.253 184.474 124.13C185.321 123.765 185.229 122.893 185.444 122.135C184.738 121.948 184.127 121.789 183.461 121.611V121.614Z" fill="#FAFAFA"/>
<path d="M20.491 109.795C16.7808 110.001 13.2485 110.198 9.5873 110.403C9.46147 108.543 9.05636 106.739 9.56579 105.005C10.1427 103.026 12.1467 102.421 14.252 103.437C14.9517 102.498 15.8171 101.813 17.1061 101.884C18.6589 101.97 19.9571 103.111 20.1074 104.664C20.267 106.312 20.3591 107.966 20.4941 109.795H20.491ZM15.8754 107.58C16.704 107.521 17.3362 107.475 18.0175 107.426C17.9623 106.659 18.0175 105.907 17.818 105.232C17.7045 104.852 17.195 104.376 16.8298 104.345C16.5352 104.321 15.989 104.864 15.9184 105.229C15.7742 105.972 15.8754 106.763 15.8754 107.58ZM13.7702 107.644C13.7334 107.147 13.7119 106.702 13.6628 106.26C13.5983 105.674 13.2208 105.244 12.6776 105.346C12.3124 105.413 11.8613 105.846 11.7417 106.211C11.5821 106.705 11.7018 107.291 11.7018 107.847C12.4045 107.776 13.0429 107.715 13.7702 107.641V107.644Z" fill="#FAFAFA"/>
<path d="M171.219 45.4841C172.152 47.0738 173.186 48.5008 173.873 50.0813C174.874 52.3738 173.873 55.1174 171.799 56.4431C169.644 57.818 166.717 57.5264 164.967 55.7096C164.424 55.145 163.97 54.4913 163.504 53.856C163.055 53.2484 162.647 52.6131 162.156 51.895C165.158 49.7744 168.11 47.6845 171.216 45.4872L171.219 45.4841ZM165.514 52.5886C166.272 53.945 167.168 54.9793 168.773 54.8657C170.148 54.7675 171.148 54.0187 171.679 52.7451C172.308 51.2383 171.464 50.1212 170.596 48.952C168.886 50.1765 167.223 51.3672 165.511 52.5886H165.514Z" fill="#FAFAFA"/>
<path d="M45.5024 43.1332C44.904 43.6733 44.3271 44.192 43.6826 44.772C41.2244 42.0376 38.8215 39.3616 36.3203 36.5811C37.7105 35.4487 38.9872 34.2549 40.4173 33.2913C41.4208 32.6161 42.6238 32.6806 43.6672 33.4325C44.7229 34.1936 45.3797 35.1418 44.9838 36.532C44.9009 36.8236 44.8549 37.1274 44.7843 37.4588C46.69 37.7964 48.5651 38.1309 50.6734 38.5053C49.8755 39.2142 49.2587 39.8434 48.5498 40.3436C48.3166 40.5093 47.844 40.3712 47.491 40.3221C45.9351 40.0981 44.3823 39.8556 42.8264 39.6224C42.7803 39.6869 42.7312 39.7482 42.6852 39.8127C43.6089 40.9021 44.5357 41.9946 45.5024 43.1363V43.1332ZM41.1262 38.2076C41.6387 37.7044 42.1635 37.3115 42.501 36.796C42.676 36.532 42.6606 35.9183 42.4642 35.6973C42.2647 35.4702 41.6602 35.3567 41.3778 35.4948C40.7947 35.774 40.3037 36.2497 39.7298 36.6824C40.2086 37.2041 40.5983 37.6338 41.1262 38.2107V38.2076Z" fill="#FAFAFA"/>
<path d="M119.382 189.749C120.104 187.718 120.72 185.879 121.417 184.078C121.659 183.452 121.506 183.114 121.024 182.734C119.548 181.571 118.1 180.371 116.528 179.091C117.36 178.873 118.041 178.634 118.741 178.536C119.082 178.489 119.52 178.618 119.812 178.818C120.736 179.447 121.613 180.147 122.62 180.902C122.964 179.91 123.317 179.036 123.562 178.134C123.783 177.32 124.213 176.817 125.044 176.621C125.551 176.501 126.039 176.292 126.72 176.062C126.416 177.044 126.174 177.863 125.907 178.677C125.588 179.634 125.287 180.604 124.9 181.534C124.661 182.108 124.777 182.473 125.247 182.826C126.616 183.86 127.972 184.913 129.332 185.959C129.553 186.128 129.771 186.303 130.127 186.582C129.246 186.898 128.485 187.205 127.699 187.432C127.521 187.484 127.239 187.297 127.045 187.162C125.971 186.398 124.909 185.615 123.722 184.75C123.274 185.95 122.823 187.027 122.47 188.135C122.252 188.816 121.93 189.243 121.178 189.332C120.631 189.396 120.101 189.574 119.382 189.746V189.749Z" fill="#FAFAFA"/>
<path d="M104.073 191.799C104.907 190.32 105.714 188.884 106.525 187.45C107.116 186.409 107.023 185.454 106.245 184.584C105.196 183.409 104.149 182.233 102.968 180.908C103.99 180.828 104.858 180.733 105.733 180.714C105.926 180.711 106.153 180.951 106.313 181.125C107.077 181.942 107.826 182.773 108.676 183.709C109.244 182.709 109.796 181.834 110.25 180.914C110.545 180.312 110.938 180.03 111.604 179.987C112.211 179.947 112.81 179.787 113.641 179.64C113.166 180.53 112.788 181.233 112.408 181.936C111.886 182.899 111.41 183.891 110.821 184.811C110.468 185.361 110.594 185.692 110.987 186.112C112.328 187.552 113.641 189.016 115.078 190.599C114.191 190.759 113.442 190.927 112.684 191.004C112.466 191.026 112.174 190.829 111.999 190.651C111.076 189.709 110.177 188.739 109.17 187.678C108.504 188.807 107.844 189.841 107.28 190.921C106.954 191.547 106.543 191.848 105.84 191.808C105.288 191.778 104.732 191.802 104.066 191.802L104.073 191.799Z" fill="#FAFAFA"/>
<path d="M145.303 35.949C144.563 35.5225 143.916 35.1972 143.326 34.7829C143.173 34.6755 143.106 34.2673 143.176 34.0555C143.676 32.5702 143.081 31.6802 141.703 31.1677C141.599 31.1278 141.501 31.0664 141.415 30.9959C140.261 30.0292 139.137 29.8235 137.974 31.0235C137.821 31.1831 137.345 31.1739 137.097 31.0634C136.541 30.8148 136.038 30.4557 135.396 30.0691C135.811 29.7468 136.124 29.489 136.452 29.2497C139.042 27.3562 141.663 25.5056 144.21 23.56C145.063 22.9063 145.57 23.5078 146.23 23.7779C146.88 24.0448 146.837 24.4837 146.757 25.0668C146.257 28.6328 145.797 32.2019 145.303 35.9521V35.949ZM143.707 29.8205C143.86 28.7218 144.002 27.7306 144.143 26.7393C144.075 26.7086 144.011 26.678 143.943 26.6473C143.176 27.2426 142.409 27.838 141.553 28.5039C142.323 28.9735 142.955 29.3632 143.707 29.8205Z" fill="#FAFAFA"/>
<path d="M190.145 97.8147C190.206 98.6433 190.261 99.3891 190.329 100.322C187.693 100.411 185.112 100.629 182.54 100.543C180.125 100.46 178.459 97.6736 179.051 95.065C179.471 93.2175 180.874 91.944 182.749 91.7813C184.823 91.6002 186.904 91.4775 188.979 91.2995C189.556 91.2504 189.832 91.4284 189.82 92.0207C189.807 92.5516 189.82 93.0856 189.82 93.727C188.887 93.8068 187.944 93.8866 187.002 93.9663C185.686 94.0768 184.363 94.1505 183.05 94.3039C181.88 94.4389 181.313 95.1755 181.38 96.3263C181.448 97.4403 182.147 98.1584 183.292 98.1431C184.642 98.1247 185.993 98.0142 187.34 97.9467C188.261 97.9006 189.181 97.8608 190.142 97.8147H190.145Z" fill="#FAFAFA"/>
<path d="M11.165 120.386C10.9809 119.564 10.8182 118.852 10.6279 118.005C13.0677 117.462 15.4553 116.848 17.8766 116.44C18.6408 116.311 19.586 116.565 20.2918 116.94C22.0718 117.888 22.7377 119.573 22.5567 121.491C22.3787 123.409 21.2401 124.67 19.3343 125.152C17.1616 125.702 14.9857 126.229 12.7147 126.791C12.4969 125.932 12.3158 125.21 12.1102 124.403C13.9454 123.946 15.71 123.51 17.4715 123.068C17.9073 122.958 18.3462 122.854 18.7697 122.712C19.9052 122.341 20.3563 121.503 20.0678 120.343C19.8254 119.361 18.9538 118.766 17.8858 118.978C15.9003 119.367 13.93 119.825 11.9537 120.251C11.7143 120.303 11.4688 120.337 11.1588 120.392L11.165 120.386Z" fill="#FAFAFA"/>
<path d="M22.3326 142.961C23.0323 143.351 23.689 143.716 24.3335 144.075C23.4619 146.683 24.5391 148.442 26.2454 148.881C28.1788 149.378 29.9434 148.239 30.3454 146.364C30.7444 144.511 29.5291 143.151 26.8806 142.553V140.236C28.8447 139.803 31.3888 141.359 32.3402 143.578C33.4757 146.226 32.6624 148.958 30.2503 150.612C28.1511 152.048 25.1437 151.741 23.2747 149.897C21.3812 148.028 20.9485 145.063 22.3264 142.964L22.3326 142.961Z" fill="#FAFAFA"/>
<path d="M90.3598 18.441C90.6636 18.5147 90.9367 18.5638 91.2037 18.6467C91.6855 18.794 92.1582 18.9628 92.6339 19.1223C92.0109 21.4547 89.4851 23.1119 86.8214 22.9707C84.3172 22.8357 82.0524 20.7458 81.6442 18.1894C81.2483 15.7189 82.7244 13.0674 85.0015 12.159C87.5671 11.134 90.3997 11.8767 91.8206 14.0004C91.2283 14.4576 90.6299 14.9149 89.9332 15.452C89.0126 14.3502 87.7819 13.8347 86.4224 14.2582C85.738 14.473 85.0568 15.0591 84.6302 15.6606C83.6298 17.0785 84.13 19.1315 85.5601 20.0277C87.2173 21.068 88.988 20.5064 90.3598 18.441Z" fill="#FAFAFA"/>
<path d="M67.4941 28.4151C67.6077 26.141 67.709 24.0082 67.8225 21.8753C67.9054 20.3593 68.0342 18.8432 68.0926 17.3272C68.114 16.7994 68.2644 16.4557 68.7953 16.3513C69.3784 16.2378 69.9339 15.6485 70.563 16.3114C73.1133 19.009 75.6788 21.6942 78.3733 24.5238C77.5386 24.8368 76.8604 25.1375 76.1545 25.3186C75.9612 25.3677 75.6267 25.0946 75.4395 24.8951C74.2396 23.6031 74.2457 23.5939 72.61 24.1862C72.3461 24.2813 72.0852 24.3856 71.8244 24.4839C70.0444 25.1559 70.0628 25.1559 69.9492 27.0157C69.9339 27.2643 69.6884 27.6018 69.4613 27.7123C68.8875 27.9854 68.2644 28.1542 67.5003 28.4182L67.4941 28.4151ZM70.4832 19.457C70.4096 19.4877 70.339 19.5184 70.2653 19.5522V22.707C71.0479 22.4185 71.763 22.1515 72.5947 21.8446C71.8397 20.9884 71.1615 20.2212 70.4832 19.457Z" fill="#FAFAFA"/>
<path d="M178.541 62.145C177.94 62.4549 177.467 62.6943 176.949 62.9613C177.44 64.0108 177.912 65.0205 178.425 66.113C177.719 66.4629 177.077 66.7851 176.356 67.1442C175.798 66.0915 175.261 65.0819 174.702 64.0262C174.18 64.2809 173.686 64.5203 173.088 64.8087C173.711 66.159 174.303 67.4449 174.935 68.8106C174.257 69.1819 173.631 69.5256 172.925 69.9123C171.879 67.8316 170.863 65.8123 169.792 63.6825C173.051 62.0713 176.283 60.4786 179.619 58.8306C180.64 60.9051 181.629 62.9091 182.675 65.0358C181.979 65.398 181.319 65.7386 180.579 66.1222C179.901 64.8026 179.241 63.5167 178.538 62.148L178.541 62.145Z" fill="#FAFAFA"/>
<path d="M29.9092 47.6967C30.3972 48.0987 30.8268 48.4486 31.3209 48.8537C32.0513 47.9545 32.7479 47.0952 33.5152 46.15C34.1443 46.6103 34.7212 47.0338 35.3688 47.5095C34.6599 48.4792 33.9878 49.3968 33.2635 50.3881C33.7269 50.741 34.1627 51.0694 34.6629 51.4499C35.6081 50.3052 36.5135 49.2066 37.4771 48.0404C38.0878 48.5099 38.6586 48.9488 39.3368 49.4674C37.919 51.275 36.5257 53.0519 35.0496 54.9331C32.1403 52.6591 29.3169 50.4525 26.4414 48.2031C27.8899 46.3464 29.2648 44.5818 30.6949 42.7466C31.3424 43.2529 31.9132 43.6949 32.5577 44.1982C31.6585 45.3827 30.8023 46.5152 29.9061 47.6967H29.9092Z" fill="#FAFAFA"/>
<path d="M176.734 81.1475C180.309 80.3588 183.783 79.5916 187.389 78.7937C187.883 80.9849 188.358 83.0779 188.865 85.3212C188.113 85.5115 187.404 85.6925 186.606 85.892C186.266 84.508 185.937 83.1853 185.59 81.7859C184.989 81.9117 184.452 82.0222 183.817 82.1541C184.022 83.216 184.219 84.2226 184.436 85.3519C183.715 85.5391 183 85.7232 182.215 85.9289C181.911 84.8056 181.631 83.7653 181.343 82.7004C179.944 82.9919 178.63 83.262 177.268 83.5443C177.086 82.7311 176.921 81.9976 176.73 81.1475H176.734Z" fill="#FAFAFA"/>
<path d="M187.519 108.571C187.638 107.568 187.733 106.736 187.841 105.846C188.608 105.932 189.32 106.012 190.158 106.104C189.912 108.795 189.676 111.41 189.43 114.117C188.642 114.034 187.927 113.957 187.083 113.865C187.153 112.96 187.221 112.082 187.291 111.131C184.444 110.833 181.657 110.541 178.8 110.241C178.889 109.418 178.972 108.672 179.067 107.795C181.902 108.056 184.683 108.31 187.522 108.568L187.519 108.571Z" fill="#FAFAFA"/>
<path d="M22.2215 59.3893C21.7519 60.2148 21.3223 60.9697 20.8558 61.7922C20.1776 61.3963 19.5331 61.0188 18.8027 60.5923C20.1162 58.263 21.4051 55.9797 22.7524 53.5952C23.4214 53.9604 24.0689 54.3133 24.7871 54.7031C24.3697 55.547 23.9799 56.3388 23.5564 57.195C26.0146 58.6036 28.4114 59.9785 30.8941 61.4024C30.4798 62.139 30.1146 62.7865 29.6911 63.5322C27.1808 62.139 24.741 60.7856 22.2245 59.3893H22.2215Z" fill="#FAFAFA"/>
<path d="M167.693 147.266C166.815 148.509 165.993 149.672 165.124 150.9C164.471 150.455 163.857 150.035 163.136 149.544C164.477 147.613 165.778 145.735 167.128 143.792C170.154 145.879 173.113 147.917 176.062 149.949C175.301 151.385 174.279 151.673 172.996 150.814C171.268 149.657 169.537 148.5 167.696 147.266H167.693Z" fill="#FAFAFA"/>
<path d="M23.842 132.625C23.3172 131.247 22.8078 129.918 22.2585 128.479C22.9152 128.206 23.572 127.933 24.3944 127.592C25.2721 129.722 26.1283 131.809 27.0521 134.049C23.6947 135.421 20.4079 136.762 16.9769 138.161C16.7007 137.462 16.4061 136.839 16.2251 136.182C16.1852 136.041 16.5074 135.697 16.7284 135.602C18.7937 134.724 20.8744 133.88 22.949 133.027C23.2313 132.91 23.5075 132.775 23.842 132.622V132.625Z" fill="#FAFAFA"/>
<path d="M157.995 32.2542C156.142 34.4515 154.368 36.5537 152.524 38.7418C153.65 39.7208 154.745 40.6722 155.884 41.6634C155.39 42.2649 154.911 42.848 154.368 43.5047C152.6 41.9887 150.86 40.4972 149.056 38.9505C151.419 36.1793 153.751 33.448 156.142 30.6431C156.774 31.1955 157.339 31.6865 157.992 32.2573L157.995 32.2542Z" fill="#FAFAFA"/>
<path d="M47.8958 174.46C47.6441 173.444 47.3096 172.438 47.1623 171.407C46.9996 170.259 46.4257 169.725 45.2995 169.553C44.2346 169.393 43.1973 169.074 42.1416 168.638C43.2188 168.384 44.2837 168.034 45.3732 167.899C46.5639 167.751 47.0242 167.144 47.1715 166.014C47.3096 164.95 47.638 163.909 47.8804 162.857C47.951 162.857 48.0216 162.857 48.0922 162.854C48.3929 164.201 48.7213 165.545 48.9821 166.901C49.0772 167.392 49.2675 167.607 49.7708 167.705C51.1365 167.972 52.4899 168.307 53.8463 168.617C53.8494 168.687 53.8525 168.758 53.8555 168.829C52.6004 169.123 51.3482 169.445 50.0839 169.703C49.4363 169.835 49.0865 170.096 48.9638 170.808C48.752 172.033 48.3991 173.236 48.1075 174.448C48.0369 174.451 47.9664 174.454 47.8958 174.457V174.46Z" fill="#F2B1CA"/>
<path d="M145.606 168.626C146.91 168.322 148.205 167.984 149.518 167.73C150.086 167.619 150.313 167.34 150.424 166.818C150.7 165.502 151.01 164.191 151.476 162.847C151.63 163.443 151.783 164.041 151.94 164.636C152.185 165.585 152.158 166.803 152.756 167.401C153.355 167.997 154.573 167.972 155.521 168.215C156.107 168.365 156.697 168.503 157.283 168.838C156.021 169.132 154.763 169.454 153.496 169.715C152.879 169.841 152.538 170.087 152.412 170.759C152.176 172.011 151.826 173.241 151.32 174.472C151.028 173.294 150.697 172.121 150.454 170.934C150.31 170.216 150.006 169.829 149.245 169.691C148.012 169.467 146.802 169.123 145.581 168.828C145.59 168.764 145.596 168.696 145.606 168.632V168.626Z" fill="#F2B1CA"/>
<path d="M21.5861 86.024C21.4203 86.8986 21.2822 87.6351 21.1227 88.4852C17.5382 87.8377 14.0305 87.2024 10.5626 86.5764C10.5135 86.4505 10.4737 86.3984 10.4767 86.3493C10.6118 84.1213 10.6148 84.1121 12.7722 84.4803C15.6785 84.9806 18.5816 85.4961 21.5861 86.024Z" fill="#FAFAFA"/>
<path d="M98.5576 10.999H101V21.7708H98.5576V10.999Z" fill="#FAFAFA"/>
<path d="M190.998 95.0281C191.247 95.1017 191.431 95.1508 191.612 95.2153C193.625 95.9334 193.659 95.9886 193.493 98.2504C191.535 97.5937 190.7 96.5472 190.998 95.0311V95.0281Z" fill="#FAFAFA"/>
<path d="M64.3245 81.5802C66.0308 81.2641 67.7371 80.9449 69.4434 80.6288C71.4075 80.2698 73.3715 79.9107 75.3356 79.5578C75.8358 79.4688 76.2594 79.3368 76.6 78.8642C76.8179 78.5604 77.2997 78.2812 77.6649 78.2781C81.145 78.2351 84.6251 78.2535 88.139 78.4008C86.6813 78.852 85.2236 79.3031 83.7014 79.7726C84.6405 80.9971 85.1744 82.2308 85.2235 83.7622C85.2941 85.9595 83.4221 88.7092 80.3839 89.0652C79.184 89.2064 77.9656 89.1788 76.7565 89.234C75.4982 89.2923 74.5531 90.124 74.3659 91.3239C74.1695 92.5883 74.906 93.9785 76.0138 94.356C76.2962 94.4511 76.6245 94.4265 76.9314 94.4327C80.031 94.4879 83.1306 94.4726 86.224 94.6076C91.171 94.8224 94.7432 97.3328 97.1922 101.528C98.2233 103.296 98.6591 105.247 98.7082 107.475C98.3522 107.156 98.1251 106.966 97.9165 106.757C95.2956 104.158 92.6656 101.571 90.0755 98.9409C89.5384 98.3977 89.0167 98.0969 88.2464 98.189C87.7247 98.2504 87.1938 98.2013 86.5462 98.3608C86.7488 98.5327 86.9605 98.6954 87.1477 98.8826C90.6769 102.406 94.1816 105.953 97.7507 109.436C98.5026 110.17 98.8555 110.894 98.7573 111.931C98.6775 112.785 98.742 113.653 98.742 114.512C98.6376 114.577 98.5364 114.638 98.432 114.703C97.6617 113.862 96.9221 112.987 96.115 112.18C91.7142 107.776 87.2889 103.397 82.8973 98.9838C82.3449 98.4284 81.8109 98.0785 81.0008 98.189C80.5067 98.2565 79.9973 98.2013 79.3405 98.2013C79.5922 98.4836 79.7548 98.6861 79.9359 98.8672C86.0122 104.941 92.0886 111.017 98.1834 117.075C98.6008 117.489 98.7727 117.894 98.7543 118.474C98.7144 119.736 98.742 120.997 98.742 122.479C98.251 122.028 97.9011 121.727 97.5789 121.402C89.1855 112.981 80.7921 104.563 72.4048 96.1359C70.677 94.3989 70.2075 92.2906 70.9072 89.992C71.6407 87.5891 73.3408 86.1068 75.799 85.6096C76.6982 85.4286 77.6496 85.5145 78.5794 85.4746C79.0582 85.4531 79.54 85.4501 80.0095 85.3826C80.9517 85.2475 81.6146 84.4588 81.5593 83.5842C81.5041 82.6758 80.8135 81.9792 79.8376 81.9669C75.3601 81.9055 70.8796 81.8687 66.4021 81.8257C65.7116 81.8196 65.0181 81.8257 64.3245 81.8257C64.3245 81.7429 64.3184 81.6631 64.3184 81.5802H64.3245ZM80.212 79.4903H78.1007V80.5491H80.212V79.4903Z" fill="#FAFAFA"/>
<path d="M112.787 98.2043C111.983 98.2043 111.176 98.1644 110.378 98.2288C110.123 98.2503 109.853 98.505 109.648 98.7137C106.738 101.654 103.838 104.603 100.935 107.552C100.831 107.506 100.726 107.46 100.622 107.417C100.785 106.34 100.815 105.22 101.132 104.189C102.73 98.9899 106.318 95.8566 111.566 94.7303C113.247 94.3682 115.046 94.5462 116.789 94.494C118.814 94.4326 120.843 94.405 122.868 94.3252C124.071 94.2761 125.066 93.1498 125.096 91.8977C125.127 90.6149 124.145 89.3905 122.936 89.2861C121.758 89.1848 120.573 89.1664 119.391 89.0958C115.07 88.8381 112.756 84.2992 115.077 80.638C115.251 80.3618 115.439 80.0917 115.657 79.7634C114.128 79.303 112.667 78.8642 111.204 78.4253L111.237 78.143C112.1 78.143 112.965 78.1338 113.827 78.143C116.362 78.1706 118.897 78.1798 121.429 78.2658C121.893 78.2811 122.497 78.4867 122.767 78.8212C123.231 79.3951 123.789 79.5087 124.424 79.6253C127.714 80.236 131.001 80.862 134.288 81.4881C134.496 81.528 134.699 81.6047 134.886 81.8533C133.079 81.8533 131.271 81.8533 129.463 81.8533C126.195 81.8533 122.927 81.8533 119.661 81.8656C118.817 81.8686 118.05 82.5162 117.848 83.354C117.657 84.1549 118.056 84.7288 118.673 85.1431C118.937 85.3181 119.302 85.3948 119.628 85.4163C120.696 85.4807 121.77 85.4592 122.835 85.539C125.468 85.7385 127.309 87.0827 128.297 89.5286C129.255 91.8947 128.893 94.0797 127.107 95.918C123.003 100.138 118.87 104.33 114.724 108.51C110.338 112.929 105.928 117.32 101.531 121.73C101.316 121.945 101.15 122.212 100.96 122.455C100.871 122.418 100.779 122.381 100.69 122.347C100.69 120.846 100.665 119.343 100.714 117.845C100.723 117.6 101.024 117.336 101.233 117.124C107.325 111.026 113.425 104.934 119.523 98.8426C119.683 98.683 119.867 98.548 119.996 98.3086C118.722 98.327 117.529 97.9189 116.359 99.1249C111.265 104.385 106.048 109.522 100.711 114.868C100.711 113.297 100.693 111.916 100.733 110.538C100.739 110.345 101.024 110.148 101.202 109.973C104.885 106.285 108.567 102.599 112.256 98.9193C112.447 98.7291 112.704 98.6032 112.928 98.4498C112.879 98.37 112.827 98.2933 112.778 98.2135L112.787 98.2043ZM121.34 79.478H119.259V80.5613H121.34V79.478Z" fill="#FAFAFA"/>
<path d="M99.7292 131.934C103.301 128.35 106.785 124.861 110.246 121.353C110.449 121.147 110.556 120.767 110.565 120.463C110.599 119.14 110.621 117.811 110.559 116.492C110.522 115.697 110.704 115.086 111.348 114.589C111.676 114.337 111.913 113.969 112.192 113.653C112.259 113.678 112.33 113.702 112.398 113.727V118.778C112.477 118.818 112.554 118.855 112.634 118.895C113.766 117.79 114.911 116.694 116.022 115.568C116.145 115.442 116.117 115.145 116.117 114.927C116.117 113.659 116.166 112.386 116.074 111.124C116.007 110.201 116.227 109.492 116.967 108.927C117.231 108.724 117.427 108.439 117.753 108.083C117.802 108.393 117.848 108.562 117.851 108.737C117.882 111.02 117.934 113.3 117.912 115.583C117.909 115.973 117.701 116.452 117.43 116.737C115.93 118.302 114.368 119.809 112.855 121.365C112.628 121.598 112.425 121.976 112.422 122.286C112.401 131.585 112.404 140.88 112.407 150.179C112.407 150.259 112.431 150.341 112.459 150.501H117.882V152.422H110.572V123.943C107.423 127.23 104.425 130.357 101.343 133.57C102.629 134.819 104.243 136.381 105.634 137.731C103.624 139.84 101.684 141.871 99.677 143.977C97.7283 141.902 95.8041 139.855 93.8185 137.741C95.2026 136.363 96.7953 134.776 98.3451 133.232C95.1995 130.075 92.0876 126.95 88.8991 123.75V152.41H81.5215V150.605H87.0485V149.685C87.0485 140.641 87.0424 131.597 87.0608 122.553C87.0608 122 86.9012 121.617 86.5084 121.236C84.974 119.742 83.4641 118.223 81.9696 116.694C81.7548 116.476 81.5368 116.142 81.5307 115.856C81.4969 113.383 81.5123 110.909 81.5123 108.154C82.3501 109.151 83.4856 109.568 83.3536 111.008C83.237 112.294 83.3015 113.598 83.3475 114.893C83.3598 115.24 83.5163 115.663 83.7556 115.909C84.7407 116.934 85.7811 117.907 86.9933 119.082V113.699C88.1411 114.715 89.1293 115.491 88.9114 117.121C88.7395 118.416 88.5616 119.901 89.028 121.04C89.4822 122.148 90.7496 122.921 91.6641 123.839C94.3249 126.512 96.9856 129.185 99.7322 131.94L99.7292 131.934ZM99.7353 134.509C98.5845 135.755 97.5257 136.9 96.5836 137.919C97.5994 138.947 98.7287 140.088 99.7261 141.098C100.782 140.039 101.905 138.916 102.887 137.931C101.914 136.875 100.871 135.743 99.7353 134.509Z" fill="#F2B1CA"/>
<path d="M72.5641 67.3991C70.8394 65.57 69.2989 63.9435 67.7614 62.3139C67.6969 62.3385 67.6293 62.363 67.5649 62.3906V69.7406H63.8086V57.0753C65.0055 57.0753 66.23 57.0538 67.4514 57.0968C67.6539 57.103 67.8657 57.3607 68.0406 57.5357C69.5351 59.0271 71.0236 60.5248 72.5826 62.093C74.0955 60.5769 75.5532 59.067 77.0754 57.6185C77.3945 57.3147 77.9285 57.1244 78.3796 57.0876C79.3525 57.0078 80.3376 57.0631 81.3565 57.0631V69.7467H77.6677V62.2495C76.0136 63.9159 74.4055 65.5424 72.5641 67.3991Z" fill="#F2B1CA"/>
<path d="M119.751 67.3958C118.048 65.5514 116.541 63.9188 115.034 62.2831C114.954 62.323 114.878 62.3598 114.798 62.3997V69.7251H111.054V57.0721C112.223 57.0721 113.42 57.0476 114.617 57.0936C114.844 57.1028 115.083 57.3698 115.276 57.5601C116.774 59.0423 118.259 60.5369 119.806 62.0836C121.304 60.5798 122.786 59.1191 124.232 57.6214C124.64 57.1979 125.054 57.0261 125.637 57.0506C126.591 57.0967 127.549 57.0629 128.559 57.0629V69.7282H124.925V62.1695C123.231 63.882 121.601 65.5238 119.751 67.3928V67.3958Z" fill="#F2B1CA"/>
<path d="M102.847 66.2174C101.745 67.4849 100.785 68.5866 99.6707 69.8663C98.5383 68.5805 97.5746 67.4849 96.4974 66.2604C96.0494 67.1719 95.6258 67.8102 95.4141 68.513C95.0765 69.6362 94.3891 69.9492 93.2935 69.8142C92.5539 69.7221 91.7929 69.7957 90.8691 69.7957C91.2528 68.9579 91.5351 68.3043 91.845 67.6629C93.4531 64.3546 95.0827 61.0556 96.6724 57.7412C96.9148 57.2379 97.1879 57.0445 97.7557 57.063C99.106 57.109 100.459 57.0599 101.81 57.0937C102.061 57.0998 102.439 57.2563 102.537 57.4527C104.519 61.4515 106.471 65.4686 108.426 69.4797C108.448 69.5226 108.426 69.584 108.426 69.7896C107.257 69.7896 106.088 69.808 104.918 69.7681C104.75 69.762 104.544 69.4858 104.44 69.2925C103.949 68.3841 103.488 67.4603 102.847 66.2174ZM97.8876 63.4462C98.5075 64.1122 99.06 64.7075 99.597 65.2845C100.263 64.6431 100.904 64.0262 101.567 63.3879C100.953 62.2248 100.352 61.0924 99.6737 59.8096C99.0078 61.163 98.4431 62.3138 97.8876 63.4462Z" fill="#F2B1CA"/>
<path d="M105.984 89.2494C105.8 86.6378 104.695 84.5909 102.246 83.4891C98.339 81.7307 93.9597 84.2901 93.4963 88.5528C93.4749 88.7461 93.4626 88.9425 93.4442 89.1328H87.8036C87.7821 89.0622 87.7637 88.9947 87.7422 88.9241C89.5375 88.1354 91.3297 87.3467 93.2294 86.512C91.8791 85.2783 90.6085 84.1183 89.338 82.9582C89.3717 82.8907 89.4055 82.8232 89.4362 82.7557C91.2008 83.1884 92.9685 83.6211 94.8559 84.0845C94.3894 82.1726 93.9628 80.4141 93.5332 78.6556C93.5884 78.6188 93.6468 78.5851 93.702 78.5482C95.1014 79.7819 96.5008 81.0156 97.9984 82.3383C98.56 80.4264 99.0787 78.6526 99.6004 76.8818C99.6587 76.8665 99.717 76.8542 99.7753 76.8389C100.306 78.6434 100.837 80.4479 101.402 82.3659C102.902 81.0156 104.317 79.7482 105.729 78.4777C105.781 78.5022 105.836 78.5268 105.889 78.5513C105.456 80.3466 105.023 82.1388 104.55 84.0968C106.472 83.6211 108.245 83.1822 110.019 82.7403C110.047 82.7956 110.078 82.8477 110.105 82.903C108.835 84.0784 107.561 85.2507 106.168 86.5396C108.067 87.3651 109.872 88.1477 111.676 88.9272C111.664 89.0285 111.655 89.1297 111.643 89.231H105.962L105.978 89.2464L105.984 89.2494Z" fill="#F2B1CA"/>
<path d="M131.889 57.106H135.614V69.6792H131.889V57.106Z" fill="#F2B1CA"/>
<path d="M88.3107 69.7312H84.6895V57.1089H88.3107V69.7312Z" fill="#F2B1CA"/>
<path d="M105.969 89.2341C105.953 92.5976 103.151 95.3995 99.7727 95.4241C96.4797 95.4486 93.5674 92.7572 93.4814 89.5195C93.6717 89.6362 93.8436 89.7006 93.9602 89.8203C97.1457 93.1285 103.511 92.6805 105.843 89.2802C105.861 89.2525 105.938 89.2618 105.987 89.2525L105.972 89.2372L105.969 89.2341Z" fill="#F2B1CA"/>
</svg>
