<svg width="156" height="170" viewBox="0 0 156 170" fill="none" xmlns="http://www.w3.org/2000/svg">
<path d="M32.7925 27.7843H35.0947V10.5296L32.7925 8.44587V27.7833V27.7843ZM48.0183 27.7843H50.2373V8.75185L48.0183 10.8641V27.7843ZM53.3989 0.110783L50.2373 0L42.3606 7.47415L43.9414 8.94703L53.3989 0.110783ZM33.3201 0H30.0753L32.4881 2.44461L43.9425 13.2802L51.1809 6.44545V27.7833H53.4V1.38953L44.0257 10.2247L33.3201 0ZM29.6309 0.972779V27.7843H31.8499V6.22389L41.6118 15.5866L43.3042 13.8922L32.3775 3.47331L29.6319 0.972779H29.6309ZM55.9223 0.639375V27.7843H58.1129V12.6693H70.0391V10.6404H58.1129V2.83393L55.9223 0.639375ZM58.6406 2.02785H72.5909V0H56.6164L58.6406 2.02785ZM61.2756 4.86178H72.5909V2.83393H59.0566V9.78054H61.2756V4.86284V4.86178ZM59.0566 13.5588V27.1724L61.2756 24.9778V15.4758H70.0391V13.5588H59.0566ZM72.9227 25.8662H61.8012L59.777 27.7833H72.9227V25.8662ZM72.9227 22.95H62.2182V24.9778H72.9227V22.95ZM84.7657 4.55687C85.7915 4.55687 86.5961 4.72357 87.2617 5.02954C87.8715 5.30703 88.3991 5.69635 88.7593 6.05718C89.1205 6.47394 89.3691 6.80734 89.4807 7.14075C89.6197 7.41823 89.7029 7.58493 89.7029 7.58493H92.0052C92.0052 7.58493 91.9494 7.3908 91.8388 7.0574C91.7282 6.69656 91.5344 6.27981 91.2564 5.7797C90.951 5.27959 90.535 4.75206 89.981 4.25195C89.4544 3.75185 88.7604 3.30766 87.9283 2.97426C87.0963 2.64085 86.0421 2.47415 84.8225 2.47415C83.7409 2.47415 82.7699 2.66828 81.9653 3.08504C81.1333 3.52923 80.495 4.05676 80.0243 4.72357C79.5524 5.36295 79.2755 6.05718 79.2196 6.75248C79.1923 7.41929 79.386 8.05866 79.802 8.5862C80.2739 9.11374 81.0227 9.50306 82.0211 9.72568C81.3555 8.5862 81.1343 7.64191 81.4113 6.89175C81.6609 6.1131 82.1327 5.52965 82.7973 5.14138C83.5187 4.75206 84.1285 4.55792 84.7667 4.55792L84.7657 4.55687ZM84.6551 13.0587C85.7925 13.2813 87.0963 13.5588 88.5381 13.9196C89.9799 14.253 91.3111 14.6982 92.5318 15.1699C93.724 15.67 94.556 16.226 95.0278 16.8643C94.8066 15.8367 94.3338 15.058 93.6692 14.5031C92.9752 13.947 92.0326 13.4195 90.8951 12.9194C90.0357 12.5311 89.1479 12.2252 88.1779 11.9751C87.2069 11.725 86.2917 11.5309 85.4039 11.3368C84.4887 11.1701 83.7125 10.9749 83.0743 10.7808C82.7688 10.67 82.436 10.5866 82.1317 10.5033C81.3555 10.3091 80.6614 10.0591 80.0232 9.7816C79.386 9.50306 78.9416 9.0863 78.692 8.53133C78.2486 7.22515 78.3034 6.05824 78.831 5.05803C79.386 4.03039 80.1907 3.22431 81.2997 2.64085C82.4097 2.0574 83.5735 1.72399 84.7941 1.72399C86.0147 1.72399 87.1511 1.91813 88.1495 2.30745C89.1205 2.66934 89.9525 3.16839 90.6455 3.7529C91.3111 4.33636 91.8377 4.94725 92.199 5.64254C92.5592 6.33678 92.7256 6.97616 92.7256 7.58704H94.8888C94.8888 7.58704 94.8604 7.28107 94.7224 6.64275C94.6118 6.03186 94.3064 5.25322 93.8345 4.36484C93.3353 3.5039 92.6139 2.67039 91.6155 1.89175C90.5897 1.14159 89.2027 0.585567 87.4555 0.224731C85.0153 -0.136105 83.0458 -0.0253218 81.5198 0.586622C80.0222 1.14265 78.9132 1.86432 78.1643 2.64191C77.4155 3.3372 76.889 4.22557 76.5561 5.33657C76.1686 6.44862 76.1686 7.53112 76.4171 8.61469C76.7226 9.42076 77.2765 10.115 78.137 10.6985C79.0248 11.2819 80.0232 11.7546 81.188 12.1429C82.3528 12.5322 83.5176 12.8371 84.6551 13.0597V13.0587ZM85.5418 23.2549C84.6266 23.2549 83.8778 23.1156 83.268 22.8941C82.6856 22.6999 82.2149 22.4214 81.8536 22.088C81.4934 21.7546 81.2438 21.4486 81.0774 21.1437C80.911 20.8103 80.8278 20.5602 80.772 20.3102C80.7162 20.0886 80.7162 20.0053 80.7162 20.0053H78.3592C78.3592 20.2279 78.4424 20.6162 78.5256 21.0329C78.6362 21.4771 78.83 21.9498 79.1912 22.5058C79.524 23.0059 80.0232 23.506 80.7162 24.0061C81.2428 24.4229 82.1864 24.7837 83.545 25.1171C84.8489 25.4505 86.5403 25.3387 88.5929 24.8945C90.2569 24.311 91.3101 23.5324 91.8377 22.6166C92.3096 21.6723 92.3643 20.7829 91.9483 19.9494C91.5049 19.1158 90.7561 18.5324 89.7019 18.2549C90.3401 19.5611 90.5065 20.5602 90.1453 21.283C89.7567 21.9772 89.1469 22.5058 88.259 22.7833C87.3438 23.0608 86.456 23.256 85.5408 23.256L85.5418 23.2549ZM94.7498 17.7263C94.6107 17.587 94.4728 17.4203 94.3611 17.2821C94.1674 17.0321 93.8893 16.7546 93.5291 16.5045C93.1963 16.2819 92.5865 16.0044 91.7819 15.6985C90.9225 15.3651 89.6471 15.0032 87.9547 14.559C87.1785 14.3648 86.318 14.1971 85.3755 14.003C84.238 13.7803 83.0458 13.5028 81.8526 13.2254C80.7151 12.892 79.6062 12.5026 78.6351 12.031C77.6367 11.5309 76.8605 10.8641 76.2781 10.058C76.2781 11.169 76.6667 12.0859 77.4429 12.836C78.2191 13.6147 79.4945 14.3089 81.2702 14.9483C82.1296 15.2817 83.2112 15.5866 84.5708 15.8926C85.5134 16.1142 86.5118 16.3927 87.4828 16.6428C88.5097 16.9202 89.4239 17.2262 90.3117 17.6145C91.1437 17.9764 91.8367 18.4206 92.3633 18.9207C92.8899 19.4482 93.1679 20.0601 93.1679 20.6985C93.1679 21.5594 92.9183 22.3655 92.3917 23.2264C91.8925 24.0325 91.1163 24.7542 90.1179 25.3102C89.0637 25.8377 87.7598 26.1163 86.179 26.1163C84.4318 26.1163 82.989 25.8936 81.88 25.5054C80.7699 25.0886 79.9389 24.5885 79.3007 23.9776C78.6909 23.3667 78.2476 22.7548 77.9695 22.1439C77.6915 21.5605 77.5251 21.0329 77.4977 20.6162C77.4145 20.1994 77.3871 20.0053 77.3871 20.0053H75.3903C75.3903 20.0053 75.4177 20.2279 75.4461 20.6436C75.5019 21.0878 75.6125 21.6723 75.8895 22.3106C76.1391 23.0049 76.5277 23.7001 77.0817 24.4229C77.6083 25.1445 78.3855 25.7839 79.3839 26.3674C80.7699 27.146 82.1569 27.5902 83.544 27.701C84.8752 27.8128 86.2338 27.8128 87.5934 27.6736C89.1742 27.5902 90.5887 27.2009 91.8925 26.4792C93.1679 25.8124 94.0831 24.923 94.6381 23.8394C95.1373 22.6999 95.4143 21.5615 95.4975 20.3946C95.5533 19.2277 95.3037 18.3383 94.7487 17.7274L94.7498 17.7263ZM106.953 4.55687C107.979 4.55687 108.783 4.72357 109.449 5.02954C110.059 5.30703 110.586 5.69635 110.947 6.05718C111.307 6.47394 111.556 6.80734 111.668 7.14075C111.807 7.41823 111.89 7.58493 111.89 7.58493H114.191C114.191 7.58493 114.137 7.3908 114.025 7.0574C113.914 6.69656 113.72 6.27981 113.443 5.7797C113.138 5.27959 112.722 4.75206 112.167 4.25195C111.641 3.75185 110.947 3.30766 110.116 2.97426C109.284 2.64085 108.229 2.47415 107.009 2.47415C105.927 2.47415 104.957 2.66828 104.153 3.08504C103.321 3.52923 102.682 4.05676 102.212 4.72357C101.74 5.36295 101.463 6.05718 101.407 6.75248C101.378 7.41929 101.573 8.05866 101.989 8.5862C102.461 9.11374 103.21 9.50306 104.208 9.72568C103.543 8.5862 103.321 7.64191 103.599 6.89175C103.848 6.1131 104.319 5.52965 104.985 5.14138C105.706 4.75206 106.316 4.55792 106.954 4.55792L106.953 4.55687ZM106.841 13.0587C107.979 13.2813 109.281 13.5588 110.724 13.9196C112.166 14.253 113.497 14.6982 114.718 15.1699C115.91 15.67 116.743 16.226 117.214 16.8643C116.992 15.8367 116.52 15.058 115.854 14.5031C115.161 13.947 114.218 13.4195 113.081 12.9194C112.222 12.5311 111.334 12.2252 110.363 11.9751C109.393 11.725 108.477 11.5309 107.59 11.3368C106.675 11.1701 105.899 10.9749 105.26 10.7808C104.956 10.67 104.623 10.5866 104.318 10.5033C103.542 10.3091 102.848 10.0591 102.21 9.7816C101.572 9.50306 101.129 9.0863 100.879 8.53133C100.436 7.22515 100.491 6.05824 101.018 5.05803C101.573 4.03039 102.377 3.22431 103.487 2.64085C104.596 2.0574 105.761 1.72399 106.981 1.72399C108.202 1.72399 109.338 1.91813 110.337 2.30745C111.307 2.66934 112.14 3.16839 112.833 3.7529C113.498 4.33636 114.025 4.94725 114.386 5.64254C114.747 6.33678 114.913 6.97616 114.913 7.58704H117.076C117.076 7.58704 117.048 7.28107 116.91 6.64275C116.799 6.03186 116.494 5.25322 116.022 4.36484C115.523 3.5039 114.801 2.67039 113.803 1.89175C112.776 1.14159 111.39 0.585567 109.643 0.224731C107.201 -0.136105 105.233 -0.0253218 103.707 0.586622C102.209 1.14265 101.1 1.86432 100.352 2.64191C99.6028 3.3372 99.0762 4.22557 98.7434 5.33657C98.3548 6.44862 98.3548 7.53112 98.6044 8.61469C98.9098 9.42076 99.4638 10.115 100.324 10.6985C101.212 11.2819 102.21 11.7546 103.375 12.1429C104.54 12.5322 105.705 12.8371 106.842 13.0597L106.841 13.0587ZM107.729 23.2549C106.814 23.2549 106.065 23.1156 105.455 22.8941C104.873 22.6999 104.402 22.4214 104.041 22.088C103.681 21.7546 103.431 21.4486 103.265 21.1437C103.098 20.8103 103.015 20.5602 102.959 20.3102C102.903 20.0886 102.903 20.0053 102.903 20.0053H100.546C100.546 20.2279 100.63 20.6162 100.713 21.0329C100.823 21.4771 101.017 21.9498 101.378 22.5058C101.711 23.0059 102.21 23.506 102.903 24.0061C103.43 24.4229 104.374 24.7837 105.732 25.1171C107.036 25.4505 108.728 25.3387 110.78 24.8945C112.444 24.311 113.498 23.5324 114.025 22.6166C114.497 21.6723 114.552 20.7829 114.136 19.9494C113.692 19.1158 112.943 18.5324 111.889 18.2549C112.527 19.5611 112.694 20.5602 112.333 21.283C111.944 21.9772 111.334 22.5058 110.446 22.7833C109.531 23.0608 108.643 23.256 107.728 23.256L107.729 23.2549ZM116.936 17.7263C116.797 17.587 116.659 17.4203 116.548 17.2821C116.355 17.0321 116.077 16.7546 115.716 16.5045C115.384 16.2819 114.774 16.0044 113.969 15.6985C113.11 15.3651 111.833 15.0032 110.142 14.559C109.366 14.3648 108.505 14.1971 107.563 14.003C106.425 13.7803 105.233 13.5028 104.04 13.2254C102.902 12.892 101.793 12.5026 100.822 12.031C99.824 11.5309 99.0478 10.8641 98.4654 10.058C98.4654 11.169 98.854 12.0859 99.6302 12.836C100.407 13.6147 101.683 14.3089 103.457 14.9483C104.317 15.2817 105.398 15.5866 106.758 15.8926C107.701 16.1142 108.699 16.3927 109.67 16.6428C110.696 16.9202 111.611 17.2262 112.499 17.6145C113.331 17.9764 114.024 18.4206 114.552 18.9207C115.078 19.4482 115.356 20.0601 115.356 20.6985C115.356 21.5594 115.107 22.3655 114.579 23.2264C114.08 24.0325 113.304 24.7542 112.305 25.3102C111.252 25.8377 109.948 26.1163 108.367 26.1163C106.62 26.1163 105.178 25.8936 104.068 25.5054C102.958 25.0886 102.127 24.5885 101.489 23.9776C100.879 23.3667 100.435 22.7548 100.158 22.1439C99.8808 21.5605 99.7144 21.0329 99.686 20.6162C99.6028 20.1994 99.5754 20.0053 99.5754 20.0053H97.5786C97.5786 20.0053 97.606 20.2279 97.6344 20.6436C97.6892 21.0878 97.8008 21.6723 98.0778 22.3106C98.3274 23.0049 98.716 23.7001 99.27 24.4229C99.7966 25.1445 100.574 25.7839 101.572 26.3674C102.959 27.146 104.346 27.5902 105.732 27.701C107.063 27.8128 108.422 27.8128 109.782 27.6736C111.363 27.5902 112.777 27.2009 114.081 26.4792C115.356 25.8124 116.271 24.923 116.826 23.8394C117.326 22.6999 117.603 21.5615 117.686 20.3946C117.741 19.2277 117.492 18.3383 116.937 17.7274L116.936 17.7263ZM122.595 27.7843V0H120.348V27.7843H122.595ZM125.977 27.7843V0H123.731V27.7843H125.977Z" fill="black"/>
<path d="M0 55.3777L17.9598 53.7423V170H28.5095V44.1802L0 46.3188V55.3777ZM34.9149 44.1802H32.2777V170H42.8274V52.2325L34.9159 44.1802H34.9149ZM0 68.0861L14.3179 66.954V57.5174L0 58.5229V68.085V68.0861ZM67.0662 100.547C69.8287 71.7345 80.7554 57.1386 99.9716 57.1386C104.618 57.1386 108.889 58.3973 112.908 60.9126C116.675 63.3034 120.066 66.5741 122.703 70.4748C125.592 74.3754 127.727 78.7793 129.234 83.5598C130.616 88.2148 131.369 92.9964 131.369 97.6514C131.369 102.684 131.117 108.347 130.867 114.889C130.491 121.557 129.234 127.597 127.099 133.259C125.09 138.921 121.699 143.073 116.8 145.966C112.154 148.86 105.497 149.238 97.0817 146.847C97.0817 146.847 97.4588 147.225 98.2118 147.981C98.7142 148.609 99.7189 149.616 101.226 150.245C102.858 151.126 104.617 151.88 107.004 152.636C109.516 153.39 112.279 153.642 115.796 153.642C120.442 153.642 125.09 151.378 129.611 146.471C134.258 141.816 137.649 134.769 139.909 125.459C142.296 116.148 142.673 104.573 140.914 90.7332C138.904 78.5281 134.76 68.8404 128.355 61.6691C121.824 54.4978 114.289 50.2194 105.874 48.5841C97.2071 46.9487 88.6669 48.5841 80.253 53.2391C76.9882 54.8744 73.7223 57.7685 70.2057 61.7947C66.8145 65.8208 63.9267 71.609 61.1632 78.7803C58.6514 85.9517 57.3949 95.1371 57.0189 106.209C56.8936 118.413 58.526 129.485 61.7919 138.922C65.1831 148.358 70.3321 155.907 77.1146 161.191C84.0224 166.853 92.8132 169.747 103.363 169.999L115.546 169.37C102.61 169.37 92.4372 165.973 85.0271 159.43C77.7423 152.762 72.7186 144.206 69.8298 133.511C67.0673 123.195 66.1879 111.996 67.0673 100.547H67.0662ZM94.6973 45.3123C107.884 44.5579 118.308 47.3254 126.096 53.9934C133.882 60.4104 139.282 69.0916 142.423 79.6602C145.563 90.2289 146.567 101.426 145.563 113.128C144.055 128.226 140.664 139.173 135.138 146.093C129.612 153.39 122.077 156.787 112.532 156.914C97.8379 156.033 88.2919 146.848 83.7717 129.612C82.0129 122.566 81.1345 114.89 80.8828 106.587C80.8828 98.5345 82.0129 90.9844 84.3994 83.9386C86.6595 76.7672 90.3024 71.609 95.3261 68.0861C100.35 64.5632 106.755 64.311 114.668 67.2051C113.914 66.1985 112.909 64.9409 111.026 63.6822C109.519 62.1724 107.007 61.2914 103.866 60.7881C100.727 60.2848 96.5825 60.537 91.6842 62.0468C88.1676 62.9278 84.5258 65.8219 80.7575 70.4769C76.9903 75.384 74.1014 81.9265 72.092 90.6077C70.2078 99.2889 69.9572 109.983 71.8403 122.817C73.7244 133.889 77.1156 143.074 82.5153 150.498C87.9159 157.795 94.572 162.451 102.862 164.715C110.899 166.854 120.194 165.974 130.493 161.948C138.153 158.928 144.308 152.637 148.703 143.326C153.224 133.763 155.611 121.559 155.611 106.46C155.611 98.0302 154.732 89.7267 152.471 81.6744C150.587 73.4965 147.322 66.3241 142.676 60.2848C138.029 54.12 131.749 49.5906 123.837 46.6965C116.049 43.9291 106.254 43.5514 94.6994 45.3123H94.6973Z" fill="black"/>
</svg>
