<svg width="191" height="255" viewBox="0 0 191 255" fill="none" xmlns="http://www.w3.org/2000/svg">
<path d="M149.6 158.394C149.695 169.553 147.016 179.956 140.857 189.307C131.994 202.764 119.617 211.038 103.668 213.674C91.0891 215.755 79.1143 213.714 68.051 207.355C54.0108 199.284 44.7981 187.322 41.5849 171.409C37.2517 149.955 43.592 131.766 60.2683 117.584C71.3255 108.172 84.4603 104.274 98.9515 105.315C113.562 106.367 125.7 112.607 135.622 123.268C137.742 125.548 139.795 127.911 141.719 130.36C146.381 136.304 148.588 143.2 149.165 150.661C149.364 153.235 149.465 155.813 149.607 158.394H149.6Z" fill="#FDD030"/>
<path d="M175.698 158.56C175.075 115.172 139.819 79.0452 94.8573 78.947C50.4782 78.9409 14.2378 115.095 14.069 159.278C13.8941 204.099 49.9412 240.162 94.0655 240.591C139.365 241.039 176.348 204.075 175.698 158.557V158.56ZM140.857 189.307C131.994 202.764 119.617 211.044 103.668 213.674C91.0887 215.755 79.1139 213.714 68.0506 207.355C54.0105 199.284 44.7977 187.322 41.5846 171.409C37.2513 149.955 43.5916 131.766 60.2679 117.584C71.3251 108.172 84.4599 104.274 98.9512 105.315C113.562 106.367 125.7 112.607 135.621 123.268C137.742 125.548 139.795 127.911 141.719 130.36C146.381 136.304 148.587 143.2 149.164 150.661C149.364 153.235 149.465 155.813 149.606 158.394C149.701 169.553 147.022 179.956 140.863 189.307H140.857Z" fill="#23558B"/>
<path d="M141.302 40.3589C140.793 41.0647 140.765 41.9486 141.462 42.7066C141.784 43.0564 142.017 43.4922 142.401 44.063C141.173 44.2441 140.127 44.3853 139.093 44.5663C137.96 44.7597 136.812 46.7943 137.208 47.8531C137.617 48.9395 136.901 50.8637 135.855 50.8852C133.971 50.9128 132.918 52.1004 131.743 53.2052C129.993 54.844 128.266 56.4982 126.483 58.1952C126.624 58.4315 126.753 58.6372 126.872 58.8458C127.578 60.0396 127.431 60.4355 126.133 60.8713C125.231 61.1762 124.929 61.8094 125.227 62.7709C125.494 63.6364 125.209 64.2133 124.316 64.3606C123.727 64.4558 123.088 64.4496 122.505 64.333C110.485 61.792 98.341 61.2518 86.1115 61.9976C79.5165 62.4057 72.9675 63.1515 66.4553 64.3054C65.9858 64.3852 65.4272 63.9218 64.9055 63.7131C65.1326 63.2957 65.3689 62.8753 65.5776 62.4456C65.7249 62.1418 66.0072 61.7429 65.9182 61.5188C65.817 61.2703 65.3628 61.037 65.0467 61.0217C63.9388 60.9664 62.8187 61.0002 61.3978 61.0002C61.7661 60.4631 61.9348 60.1747 62.1497 59.9261C62.4934 59.5179 62.8862 59.1466 63.2299 58.7323C63.7946 58.0541 63.8621 57.5262 63.0212 56.8818C60.8392 55.2031 58.7555 53.3924 56.595 51.6831C56.2175 51.3823 55.6559 51.2135 55.1587 51.1583C53.4617 50.9772 52.5011 49.7006 53.0382 48.0465C53.253 47.3897 53.1333 46.9785 52.7221 46.5181C52.2249 45.9627 51.7952 45.3428 51.2613 44.8211C51.0342 44.6062 50.6321 44.5142 50.3068 44.4804C49.3463 44.3791 48.3827 44.3331 47.1336 44.2441C47.7443 43.4063 48.1862 42.7158 48.711 42.0959C49.2941 41.4177 49.4077 40.807 48.9258 39.9814C47.4221 37.3913 46.4554 34.5955 46.4922 31.5758C46.526 29.1084 47.4712 26.865 48.7939 24.8119C50.761 21.7584 53.6028 19.8803 57.0522 18.8399C60.4341 17.8272 63.8897 17.8456 67.3575 18.0297C68.0971 18.0696 68.8398 18.3397 69.5702 18.2967C69.9937 18.2752 70.5246 17.9346 70.7855 17.5786C72.4212 15.2923 74.8027 14.3102 77.3928 13.6596C80.8085 12.8003 84.2026 13.2791 87.5846 13.9205C88.7047 14.1353 89.7911 14.5097 90.9051 14.7583C91.1936 14.8258 91.7153 14.7859 91.7981 14.6233C92.4426 13.3957 93.0932 12.1559 93.5412 10.8516C93.7162 10.336 93.5474 9.52891 93.2313 9.0471C92.0897 7.32239 91.6754 5.68054 92.9766 3.80852C93.6272 2.86944 93.9893 1.72782 94.4926 0.687467C94.5939 0.484921 94.7627 0.313062 94.9836 0.0153809C95.849 1.76771 96.4812 3.39729 97.4111 4.83966C98.2888 6.20225 97.7119 7.18736 97.003 8.24919C96.7482 8.6328 96.4659 9.00107 96.2449 9.39695C95.757 10.2624 96.1099 11.3365 96.7421 12.0546C97.4786 12.8801 98.0157 13.8867 98.6202 14.792C100.646 14.3225 102.779 13.6105 104.961 13.3773C107.495 13.1072 110.168 12.8157 112.614 13.3374C115.229 13.8929 117.546 15.5194 119.289 17.7198C119.492 17.9745 119.691 18.2231 119.918 18.4993C123.675 18.0082 127.44 17.9162 131.175 18.8153C132.35 19.0977 133.501 19.5058 134.655 19.8741C138.304 21.0403 140.425 23.6979 141.913 27.0798C142.874 29.2741 143.22 31.5604 143.128 33.8682C143.061 35.4579 142.444 37.023 142.036 38.5912C141.876 39.2081 141.707 39.8004 141.299 40.3681L141.302 40.3589Z" fill="#FDD030"/>
<path d="M190.055 160.542C189.726 164.164 189.478 168.037 188.993 171.882C188.594 175.058 187.98 178.213 187.351 181.355C186.308 186.576 184.525 191.572 182.505 196.482C181.557 198.79 180.664 201.147 179.458 203.323C176.38 208.871 173.111 214.321 168.959 219.161C166.188 222.393 163.377 225.603 160.415 228.656C158.485 230.648 156.355 232.489 154.121 234.137C150.574 236.752 146.958 239.302 143.196 241.588C140.081 243.482 136.751 245.041 133.44 246.588C130.733 247.852 127.959 249.015 125.132 249.973C122.107 250.998 119.004 251.826 115.892 252.557C113.385 253.146 110.819 253.493 108.272 253.898C106.578 254.168 104.878 254.41 103.169 254.548C101.637 254.674 100.09 254.616 98.5529 254.683C96.8835 254.757 95.2171 254.981 93.5507 254.953C91.7155 254.923 89.8864 254.677 88.0512 254.533C86.2651 254.395 84.4698 254.352 82.6991 254.116C80.3667 253.803 78.0252 253.462 75.7389 252.916C72.0807 252.044 68.4288 251.114 64.8443 249.985C62.1007 249.123 59.4431 247.969 56.7854 246.852C54.7078 245.98 52.6517 245.038 50.6569 243.994C48.257 242.739 45.851 241.46 43.5892 239.977C40.9316 238.234 38.366 236.331 35.868 234.364C33.9744 232.873 32.1822 231.24 30.4606 229.549C27.9717 227.106 25.6179 224.525 23.1536 222.055C21.3276 220.223 19.9036 218.087 18.3201 216.068C16.1166 213.257 14.2477 210.243 12.4217 207.199C11.5348 205.719 10.8228 204.136 10.0648 202.586C9.16868 200.754 8.20198 198.946 7.45624 197.053C6.04762 193.465 4.63287 189.869 3.48818 186.192C2.54603 183.157 1.9077 180.021 1.29086 176.896C0.7937 174.371 0.32723 171.808 0.207544 169.246C-0.00727775 164.612 0.032623 159.962 0.00193414 155.322C-0.00727251 153.766 0.01114 152.198 0.173791 150.651C0.379406 148.696 0.698571 146.751 1.04842 144.817C1.5241 142.184 1.92919 139.521 2.63503 136.946C3.62014 133.346 4.83542 129.808 5.98932 126.257C6.61537 124.333 7.27212 122.418 8.01172 120.533C8.3186 119.748 8.97534 119.1 9.29451 118.318C10.6233 115.055 12.6703 112.198 14.4134 109.175C15.6993 106.941 17.4025 104.956 18.7804 102.768C20.4376 100.131 22.8252 98.1428 24.7463 95.7429C25.7713 94.4601 26.8761 93.2295 28.0607 92.0971C29.7056 90.5289 31.5224 89.1448 33.1489 87.5613C36.1411 84.6489 39.7071 82.5068 43.0583 80.0886C45.3048 78.4682 47.8581 77.2744 50.2733 75.8903C51.7463 75.0464 53.1703 74.095 54.7078 73.3831C56.3098 72.6435 58.0345 72.1678 59.6825 71.5172C70.5402 67.2392 81.7907 64.9866 93.4709 64.8239C106.673 64.6398 119.354 67.0673 131.553 72.1125C133.873 73.0731 136.11 74.1871 138.344 75.3164C143.5 77.9219 148.355 81 152.869 84.606C155.082 86.3736 157.445 88.0001 159.43 89.998C162.782 93.3676 165.927 96.9459 169.076 100.512C170.619 102.261 172.077 104.103 173.391 106.03C174.762 108.049 175.91 110.219 177.159 112.321C178.899 115.249 180.443 118.272 181.75 121.423C182.435 123.077 183.377 124.633 183.96 126.318C184.884 128.997 185.749 131.713 186.381 134.472C187.422 139.014 188.45 143.578 189.113 148.184C189.686 152.17 189.745 156.234 190.052 160.536L190.055 160.542ZM96.1623 70.2374C47.3087 69.5531 6.28393 108.322 5.37861 158.238C4.48864 207.321 43.4358 248.199 92.9768 249.288C141.916 250.365 183.426 211.664 184.405 161.423C185.362 112.33 146.375 71.0753 96.1623 70.2374Z" fill="#23558B"/>
<path d="M94.9897 0.0030672C95.8551 1.75847 96.4873 3.38497 97.4141 4.82428C98.2918 6.18993 97.7148 7.17197 97.009 8.23688C96.7573 8.62049 96.475 8.98569 96.251 9.38464C95.7691 10.2501 96.1159 11.3242 96.7512 12.0392C97.4877 12.8647 98.0217 13.8713 98.6293 14.7797C100.652 14.3102 102.785 13.5982 104.97 13.365C107.505 13.0949 110.178 12.8064 112.62 13.3251C115.235 13.8805 117.552 15.5101 119.298 17.7105C119.498 17.9622 119.7 18.2138 119.927 18.4931C123.684 17.999 127.452 17.9069 131.181 18.8061C132.359 19.0884 133.504 19.4997 134.661 19.8679C138.31 21.028 140.431 23.6887 141.916 27.0737C142.88 29.2649 143.226 31.5542 143.131 33.862C143.067 35.4486 142.45 37.0168 142.042 38.582C141.882 39.2019 141.713 39.7911 141.302 40.3619C140.793 41.0647 140.768 41.9516 141.465 42.7066C141.787 43.0564 142.017 43.4953 142.404 44.063C141.176 44.2471 140.13 44.3852 139.093 44.5663C137.963 44.7627 136.815 46.7974 137.211 47.8561C137.619 48.9425 136.908 50.8667 135.861 50.882C133.977 50.9158 132.924 52.1035 131.749 53.2052C130.003 54.844 128.272 56.4981 126.486 58.1891C126.63 58.4284 126.756 58.634 126.878 58.8397C127.581 60.0365 127.44 60.4293 126.139 60.8682C125.237 61.171 124.935 61.8042 125.233 62.7678C125.5 63.6302 125.215 64.2071 124.322 64.3544C123.736 64.4496 123.094 64.4496 122.514 64.3268C110.494 61.7889 98.3501 61.2457 86.1175 61.9945C79.5225 62.3996 72.9735 63.1484 66.4644 64.2992C65.9949 64.3821 65.4302 63.9187 64.9115 63.71C65.1386 63.2865 65.378 62.8691 65.5867 62.4395C65.734 62.1356 66.0163 61.7397 65.9243 61.5157C65.823 61.2671 65.3688 61.0339 65.0558 61.0186C63.9448 60.9603 62.8247 60.9971 61.4038 60.9971C61.7782 60.46 61.9439 60.1716 62.1557 59.9199C62.5025 59.5087 62.8922 59.1373 63.2359 58.7261C63.8006 58.0479 63.8681 57.517 63.0303 56.8756C60.8453 55.1969 58.7646 53.3893 56.6041 51.68C56.2205 51.3761 55.6619 51.2074 55.1648 51.1552C53.4677 50.9741 52.5102 49.6944 53.0442 48.0464C53.2559 47.3897 53.1393 46.9754 52.7281 46.5181C52.2309 45.9596 51.7982 45.3397 51.2673 44.821C51.0463 44.6062 50.6443 44.5172 50.3098 44.4804C49.3523 44.3791 48.3887 44.3331 47.1396 44.2441C47.7473 43.4063 48.1892 42.7158 48.7171 42.0958C49.2971 41.4115 49.4106 40.8038 48.9319 39.9752C47.4281 37.3851 46.4584 34.5924 46.4983 31.5726C46.532 29.1022 47.4772 26.8589 48.7999 24.8058C50.7701 21.7492 53.6088 19.8741 57.0613 18.8337C60.4432 17.8179 63.8957 17.8363 67.3636 18.0235C68.1062 18.0634 68.8459 18.3335 69.5762 18.2905C69.9998 18.266 70.5307 17.9284 70.7884 17.5693C72.4242 15.283 74.8087 14.301 77.3958 13.6504C80.8145 12.788 84.2087 13.2698 87.5875 13.9112C88.7076 14.123 89.7971 14.5005 90.9111 14.749C91.1965 14.8135 91.7182 14.7736 91.8042 14.6109C92.4455 13.3834 93.0992 12.1436 93.5473 10.8393C93.7222 10.3237 93.5534 9.51353 93.2373 9.03479C92.0957 7.30394 91.6814 5.66515 92.9795 3.79314C93.6301 2.85406 93.9892 1.71243 94.4955 0.672083C94.5938 0.469537 94.7656 0.30075 94.9866 0L94.9897 0.0030672ZM75.1401 45.711C75.6618 48.3564 77.1042 49.4213 79.6115 49.1696C81.4866 48.9824 82.1433 48.1477 81.8702 46.3156C81.8027 45.8552 81.6185 45.3519 81.7352 44.9346C81.9776 44.0722 82.2845 43.1914 82.7694 42.4488C82.9842 42.1204 83.8404 41.8503 84.1411 42.0191C84.6199 42.2892 85.0495 42.9091 85.1846 43.4584C85.4055 44.3515 85.3441 45.309 85.4608 46.2358C85.5682 47.0889 85.8965 47.8193 86.7896 48.16C89.8493 49.3292 92.4486 47.9543 93.1852 44.7658C93.4399 43.664 93.2005 43.2988 92.0957 43.173C90.3955 42.9766 88.7261 42.8938 87.8361 44.554C87.4126 43.8113 87.0965 43.0963 86.6331 42.4917C86.1513 41.8595 85.4117 41.4053 84.9943 40.7394C84.3959 39.7788 84.6751 39.3615 85.7799 39.2479C86.7835 39.1436 86.9523 38.7446 86.6454 37.8055C86.3692 36.9647 86.2924 36.0594 86.1052 35.0466H89.9996C89.8953 34.5218 89.7296 34.1045 89.7572 33.7055C89.7848 33.3373 89.9168 32.8094 90.1807 32.6498C91.4451 31.8857 91.4666 31.9225 90.5121 30.7502C90.3311 30.5292 90.1531 30.3021 89.9935 30.0628C89.1588 28.8045 89.1925 28.2337 90.0856 26.9755C90.2359 26.7637 90.3219 26.4568 90.3219 26.1929C90.3403 23.5046 90.3464 20.8132 90.3127 18.1248C90.3096 17.8548 90.0549 17.419 89.8278 17.3484C86.5318 16.3172 83.199 15.4457 79.6974 15.8078C75.9227 16.2006 73.2282 18.7539 72.5132 22.4704C71.9669 25.3152 72.6911 27.8562 74.201 30.2469C74.8762 31.3118 75.2997 32.4197 74.4957 33.6349C74.3606 33.8375 74.2655 34.0983 74.244 34.3377C74.2102 34.7397 74.2501 35.1479 74.2593 35.5561C74.6491 35.4487 75.0573 35.3842 75.4194 35.2154C75.7447 35.065 76.0178 34.798 76.3216 34.5771C76.3216 35.5039 76.2756 36.3263 76.3339 37.1396C76.4045 38.1339 76.6899 38.2444 77.5523 37.7073C77.6904 37.6214 77.8315 37.5355 78.0433 37.4066C78.8105 39.3062 80.0043 40.6934 82.1188 41.255C80.9526 42.2217 79.7772 42.9705 79.6145 44.5049C79.5931 44.7013 79.0867 44.9254 78.7737 44.9959C77.5922 45.2629 76.3984 45.4716 75.1493 45.711H75.1401ZM104.074 34.887C103.929 35.8507 103.945 36.6701 103.668 37.3759C103.162 38.6648 103.245 38.9502 104.66 39.0147C105.464 39.0515 105.679 39.518 105.378 40.0489C104.936 40.8315 104.383 41.6232 103.684 42.1572C103.19 42.5347 102.828 42.8232 102.778 43.4523C102.751 43.7807 102.64 44.106 102.518 44.6553C101.361 42.5838 99.6114 42.7925 97.8682 42.9981C96.9783 43.1055 96.7727 43.6303 96.9599 44.4558C97.6596 47.5216 99.5531 48.7461 102.668 48.117C104.061 47.8347 104.549 47.3406 104.746 45.9166C104.853 45.1371 104.942 44.3453 104.948 43.5597C104.954 42.6697 105.258 41.8227 106.124 41.789C106.722 41.7644 107.566 42.2953 107.903 42.8262C108.309 43.4646 108.358 44.3638 108.428 45.1617C108.477 45.7202 108.201 46.3064 108.259 46.8618C108.309 47.359 108.477 48.0004 108.83 48.2766C110.107 49.274 111.602 49.2126 113.013 48.6295C114.311 48.0955 114.867 46.957 115.017 45.49C113.771 45.2537 112.62 45.0082 111.46 44.821C110.853 44.7228 110.595 44.4251 110.377 43.842C110.131 43.1822 109.659 42.5869 109.217 42.0222C108.938 41.6662 108.526 41.4115 108.088 41.034C110.221 40.4816 111.433 39.0577 112.126 37.247C112.633 37.4465 113.078 37.6183 113.52 37.7902C113.639 37.2961 113.826 36.8051 113.863 36.3049C113.906 35.6788 113.826 35.0436 113.796 34.3745C114.502 34.798 115.146 35.1847 115.791 35.5683C115.916 35.4947 116.042 35.421 116.168 35.3474C116.005 34.6937 115.981 33.9633 115.655 33.4078C114.94 32.1895 115.342 31.1583 115.944 30.1057C116.211 29.6393 116.512 29.1912 116.754 28.7125C119.602 23.0596 117.049 15.0038 108.324 15.5838C105.706 15.7587 103.125 16.5321 100.541 17.0967C100.268 17.155 99.9091 17.6583 99.9029 17.9591C99.8538 20.6474 99.863 23.3388 99.8876 26.0302C99.8876 26.3126 100.032 26.6594 100.225 26.865C100.956 27.6414 100.946 28.4884 100.474 29.3416C100.145 29.9308 99.7219 30.474 99.2922 30.9988C98.8135 31.5849 98.9669 32.0852 99.593 32.2539C100.667 32.5393 100.596 33.1746 100.348 33.9787C100.271 34.2303 100.296 34.5157 100.265 34.8932H104.08L104.074 34.887ZM67.7318 36.0287C68.6586 36.1238 69.4504 36.2067 70.1102 36.2742C70.5123 35.507 70.8959 34.8993 71.1475 34.2395C71.2856 33.8743 71.3746 33.325 71.1997 33.0334C69.4167 30.0812 68.4101 26.908 68.3732 23.4585C68.3671 22.768 68.1584 22.4673 67.5017 22.412C65.1479 22.2156 62.8002 21.9609 60.4433 21.8289C57.8224 21.6816 55.5177 22.4826 53.5567 24.2933C51.6632 26.0395 51.3348 28.2276 51.3624 30.6551C51.3808 32.1281 51.4975 33.503 52.2831 34.7612C52.86 35.6911 53.0626 36.6915 52.814 37.7442C52.3874 39.5487 53.0565 40.856 54.3791 42.0805C56.4138 43.9617 56.3555 44.0231 58.9426 42.906C59.139 42.8201 59.3385 42.7342 59.541 42.6605C60.7072 42.2431 61.3209 42.4672 62.0084 43.4953C62.8984 44.821 62.2754 46.1284 61.9531 47.4203C61.7567 48.2091 61.3547 48.8198 60.3849 48.9579C59.5993 49.0714 59.1942 49.9 59.6147 50.391C60.4494 51.3639 61.4652 52.1342 62.8308 52.0881C64.0461 52.0452 64.5341 51.146 63.7208 50.3082C62.6283 49.1819 63.061 48.074 63.4538 46.9385C63.773 46.0087 64.5249 45.7447 65.4486 45.935C66.3232 46.1161 66.7038 46.6654 66.67 47.5523C66.6485 48.0894 66.67 48.6295 66.7283 49.1635C66.7559 49.4243 66.8388 49.7435 67.0137 49.9123C67.8669 50.7317 70.2084 50.8606 71.1935 50.1793C72.194 49.4888 72.6574 47.7211 72.1817 46.4352C70.7823 46.1775 69.4934 46.3432 68.3241 47.7395C68.4622 45.6465 67.6244 44.7197 65.8966 44.5111C65.5652 44.4712 65.2767 44.0875 64.7734 43.7193C67.1426 42.8661 67.5201 41.2028 67.2684 39.1988H69.6131C68.9471 38.0787 68.3732 37.112 67.7288 36.0287H67.7318ZM117.463 46.5764C117.574 47.3805 117.595 48.1323 117.795 48.8351C118.187 50.21 119.393 50.8268 121.054 50.6151C122.791 50.391 123.159 50.0043 123.266 48.2735C123.279 48.0587 123.3 47.8408 123.285 47.629C123.217 46.6807 123.665 46.1468 124.586 45.9749C125.556 45.7908 126.212 46.1959 126.522 47.092C126.906 48.206 127.25 49.274 126.2 50.3511C125.445 51.1245 125.856 51.9224 126.958 52.0636C128.131 52.217 129.039 51.6094 129.846 50.879C130.125 50.6243 130.451 50.124 130.371 49.8448C130.27 49.4857 129.785 49.2341 129.456 48.9456C129.002 48.5466 128.336 48.2397 128.124 47.7426C127.756 46.868 127.544 45.8828 127.483 44.9315C127.379 43.3142 128.95 42.2278 130.46 42.7863C131.064 43.0104 131.651 43.2866 132.237 43.5505C133.087 43.9341 133.848 43.7991 134.508 43.1485C135.198 42.4702 135.852 41.7552 136.558 41.0923C137.128 40.5553 137.288 39.9722 137.208 39.1773C137.061 37.6981 136.763 36.1698 137.718 34.8042C138.641 33.4846 138.678 31.9992 138.516 30.4801C138.39 29.317 138.503 28.0434 138.052 27.0184C136.966 24.551 134.968 22.9522 132.304 22.4366C128.95 21.7921 125.589 22.1266 122.266 22.7926C121.99 22.8478 121.609 23.345 121.603 23.6457C121.529 27.1473 120.517 30.3451 118.681 33.3066C118.543 33.5275 118.476 33.9234 118.58 34.1413C118.964 34.9331 119.433 35.685 119.881 36.4675C120.599 36.3877 121.321 36.3049 122.198 36.2067C121.545 37.3022 120.989 38.2352 120.326 39.3492H122.677C122.677 39.8402 122.726 40.233 122.668 40.6074C122.459 41.9639 123.291 42.7219 124.227 43.4431C124.451 43.6149 124.635 43.839 124.838 44.0415C124.571 44.2349 124.319 44.5663 124.034 44.6001C122.327 44.7995 121.462 45.6987 121.508 47.5953C120.421 46.291 119.077 46.3524 117.46 46.5795L117.463 46.5764ZM95.0326 57.2039C95.0326 57.2346 95.0326 57.2684 95.0326 57.2991C96.2448 57.2991 97.4601 57.2899 98.6723 57.3022C99.2554 57.3083 99.8139 57.2254 99.8323 56.5165C99.8507 55.7984 99.2799 55.6848 98.7061 55.6787C96.3123 55.6603 93.9186 55.6143 91.5279 55.6695C91.1597 55.6787 90.8037 56.1513 90.4416 56.4091C90.7914 56.673 91.1259 57.1364 91.4973 57.1671C92.6665 57.2653 93.8511 57.2039 95.0295 57.2039H95.0326ZM82.9842 56.0102C80.5628 56.2771 78.4637 56.4736 76.38 56.7774C76.0608 56.8234 75.8153 57.3543 75.5329 57.6643C75.8797 57.8883 76.2449 58.3272 76.5733 58.3026C78.6724 58.143 80.7715 57.9159 82.8553 57.6152C83.2113 57.563 83.4967 57.0444 83.8158 56.7405C83.4875 56.4521 83.1591 56.1636 82.9842 56.0132V56.0102ZM98.8135 51.2043C97.5215 50.2038 96.1896 49.1727 94.9405 48.2091C93.6363 49.2064 92.3013 50.2284 91.0277 51.2043H98.8135ZM107.345 56.2096C107.167 56.3754 106.851 56.67 106.535 56.9646C106.863 57.2561 107.158 57.7471 107.52 57.8024C109.355 58.0939 111.203 58.3118 113.056 58.453C113.431 58.4806 113.836 58.0755 114.228 57.8699C113.922 57.5538 113.652 57.0198 113.302 56.9615C111.433 56.6577 109.545 56.4705 107.345 56.2066V56.2096ZM102.91 51.3516C105.157 51.4958 107.299 51.6339 109.41 51.769C108.235 51.0232 107.078 50.2928 105.915 49.5532C105.003 50.0995 104.031 50.6795 102.91 51.3516ZM83.9417 49.544C82.7816 50.2959 81.6799 51.0109 80.4677 51.7935C82.6497 51.6401 84.715 51.4928 86.9062 51.3393C85.8076 50.6734 84.8716 50.1056 83.9417 49.541V49.544ZM64.531 60.6687C65.6573 60.3864 66.6455 60.1961 67.5845 59.8677C67.8392 59.7787 68.1308 59.2263 68.0694 58.9655C68.0142 58.723 67.4802 58.3885 67.2101 58.4315C66.2281 58.588 65.2491 58.8335 64.31 59.168C64.0707 59.2509 63.8558 59.791 63.8835 60.101C63.9049 60.3281 64.3377 60.5153 64.531 60.6718V60.6687ZM116.343 50.5076C115.115 51.0907 113.955 51.6431 112.912 52.1403C114.677 52.3735 116.601 52.6282 118.595 52.8952C117.764 52.0145 117.018 51.2227 116.343 50.5076ZM73.5474 50.4954C72.8906 51.1859 72.1081 52.0083 71.2611 52.9014C73.2835 52.6313 75.2199 52.3705 76.9139 52.1434C75.9165 51.6554 74.7596 51.0907 73.5474 50.4954ZM123.058 58.5849C122.873 58.7568 122.432 58.9808 122.398 59.254C122.364 59.5271 122.671 60.0273 122.938 60.1225C123.708 60.3956 124.528 60.5828 125.344 60.6656C125.635 60.6963 125.967 60.3281 126.28 60.1409C126.077 59.8094 125.945 59.2877 125.663 59.1834C124.896 58.9041 124.064 58.7998 123.061 58.5849H123.058ZM70.7823 58.2873C70.8161 59.1036 71.2641 59.5915 72.0375 59.613C72.82 59.6376 73.3356 59.1465 73.3571 58.3609C73.3755 57.5814 72.906 57.0597 72.1081 57.0444C71.3194 57.026 70.8682 57.4955 70.7823 58.2873ZM86.6484 55.1447C85.8812 55.2337 85.384 55.6173 85.3656 56.4337C85.3472 57.2561 85.8444 57.7195 86.6147 57.7379C87.3972 57.7563 87.9067 57.2715 87.9189 56.4797C87.9312 55.691 87.4402 55.2552 86.6484 55.1478V55.1447ZM117.681 59.8125C118.445 59.7143 118.967 59.3368 118.97 58.5205C118.976 57.7042 118.445 57.2408 117.69 57.2316C116.929 57.2224 116.41 57.6796 116.414 58.5051C116.414 59.3184 116.895 59.7235 117.681 59.8125ZM104.807 56.3692C104.678 55.6941 104.304 55.1601 103.494 55.1754C102.702 55.1877 102.232 55.648 102.229 56.4582C102.226 57.2837 102.732 57.7257 103.503 57.7349C104.298 57.7441 104.709 57.2285 104.81 56.3692H104.807ZM95.4807 25.9136C94.3881 26.0732 93.9431 26.4599 93.9769 27.2486C94.0076 27.9821 94.4557 28.4025 95.1431 28.4025C95.8827 28.4025 96.4535 27.9145 96.3369 27.1903C96.254 26.6809 95.72 26.2481 95.4837 25.9136H95.4807ZM96.3338 39.5456C96.3338 39.3707 96.3338 39.1958 96.3338 39.0239C95.8581 38.7078 95.407 38.1922 94.8976 38.1247C94.161 38.0265 93.6117 38.6495 93.7744 39.3492C93.8818 39.8034 94.5078 40.4264 94.9252 40.4448C95.3825 40.4632 95.8643 39.874 96.3369 39.5487L96.3338 39.5456ZM135.198 47.4817C134.722 48.1876 134.222 48.608 134.262 48.9671C134.302 49.3384 134.873 49.6484 135.21 49.9859C135.548 49.6484 136.116 49.3353 136.153 48.9671C136.189 48.6049 135.683 48.1906 135.198 47.4817ZM116.684 43.7285C117.168 43.0134 117.69 42.5838 117.638 42.2401C117.58 41.8626 117.024 41.3593 116.625 41.3041C116.352 41.2642 115.732 41.878 115.72 42.2186C115.705 42.6053 116.193 43.0104 116.681 43.7316L116.684 43.7285ZM74.5263 42.4549C74.5263 42.3076 74.5264 42.1603 74.5233 42.013C74.1213 41.7521 73.6793 41.2427 73.3295 41.2979C72.952 41.3593 72.461 41.9209 72.3996 42.3229C72.3597 42.5807 72.995 43.1884 73.3387 43.1976C73.7254 43.2098 74.1274 42.725 74.5263 42.4549ZM56.2542 49.1082C56.2542 48.964 56.2573 48.8167 56.2604 48.6725C55.8675 48.4024 55.4686 47.9144 55.0819 47.9237C54.7382 47.9298 54.1029 48.5344 54.1428 48.7952C54.2042 49.2003 54.686 49.768 55.0635 49.8294C55.4133 49.8877 55.8553 49.3722 56.2573 49.1082H56.2542ZM96.5824 19.4475C95.9072 19.0025 95.5022 18.5268 95.1185 18.5452C94.7871 18.5606 94.1825 19.2051 94.2347 19.4475C94.3237 19.8434 94.8178 20.3375 95.2106 20.4111C95.5114 20.4664 95.9195 19.9385 96.5793 19.4475H96.5824ZM125.227 54.1565C124.021 52.5638 123.954 52.5485 122.06 53.5305C123.137 53.7422 124.138 53.9417 125.227 54.1565ZM67.7441 53.5397C66.3099 53.0078 65.3043 53.2093 64.7274 54.1443C65.7708 53.9356 66.7559 53.7392 67.7441 53.5397Z" fill="#23558B"/>
<path d="M96.1619 70.2374C146.375 71.0752 185.362 112.33 184.405 161.423C183.426 211.661 141.916 250.365 92.9764 249.288C43.4355 248.196 4.48826 207.321 5.37823 158.238C6.28355 108.322 47.3084 69.5531 96.1619 70.2374ZM94.8576 78.9469C50.4785 78.9408 14.2381 115.095 14.0693 159.278C13.8975 204.096 49.9445 240.158 94.0689 240.594C139.369 241.039 176.352 204.074 175.701 158.557C175.081 115.172 139.826 79.0421 94.8576 78.9469Z" fill="#FDD030"/>
<path d="M95.1616 222.789C94.5877 222.703 94.1396 222.635 93.6148 222.555C93.6639 222.098 93.71 221.678 93.7683 221.147H98.9332C98.9915 221.503 99.0652 221.935 99.1419 222.393C98.614 222.528 98.1752 222.638 97.7916 222.736V229.712C98.7276 229.657 99.5562 229.697 100.339 229.522C100.762 229.427 101.299 229.037 101.447 228.653C101.849 227.607 102.493 227.42 103.5 227.8C103.432 228.325 103.359 228.871 103.285 229.43C104.924 229.371 104.951 229.328 104.746 227.929C104.473 226.057 104.218 224.182 103.948 222.276C103.426 222.248 103.006 222.227 102.496 222.202V220.782C104.117 220.542 105.765 220.297 107.483 220.042C107.621 220.465 107.75 220.861 107.876 221.251C106.486 222.046 106.48 222.046 106.737 223.74C106.983 225.363 107.25 226.987 107.502 228.583C109.509 228.801 110.411 228.242 111.313 226.588C111.522 226.204 112.249 226.106 112.906 225.799V229.516C109.901 230.028 106.845 230.553 103.739 231.084C103.57 230.706 103.448 230.433 103.242 229.973C103.15 230.402 103.092 230.676 103.012 231.047C98.1506 231.587 93.265 231.556 88.3118 231.105V229.727C88.6463 229.678 88.9839 229.626 89.4319 229.559C89.125 228.89 89.3982 227.957 88.3394 227.733C85.7094 227.18 85.5866 227.22 84.5739 229.04C84.9483 229.144 85.3043 229.245 85.6541 229.344C85.6265 230.814 85.602 230.851 84.2425 230.642C82.9689 230.445 81.6984 230.212 80.3726 229.988C80.3112 229.694 80.2468 229.399 80.1793 229.074C76.7667 230.083 73.9372 228.181 70.813 227.487C70.9112 226.971 70.991 226.56 71.0647 226.17C71.166 226.124 71.2335 226.06 71.2887 226.069C72.2974 226.239 72.9561 225.822 73.2651 224.817C73.7899 223.111 74.3208 221.405 74.8762 219.606C74.4619 219.44 74.1121 219.299 73.6947 219.134C73.4553 219.744 73.2467 220.269 72.9858 220.929C72.5408 220.8 72.1142 220.674 71.5588 220.515C71.927 219.152 71.5803 218.167 69.8463 217.973C68.9901 220.02 68.0971 222.144 67.1825 224.329C67.7626 224.627 68.2628 224.885 68.8305 225.176C68.6065 225.618 68.404 226.017 68.1462 226.53C66.2404 225.716 64.4114 224.934 62.5117 224.12C62.6866 223.593 62.8278 223.169 62.9659 222.749C64.1403 223.092 64.973 222.709 65.464 221.598C66.1422 220.06 66.8235 218.523 67.4987 216.995C66.1514 216.016 66.0317 216.08 64.7581 217.068C64.4513 217.304 63.7485 217.031 63.0703 216.979C63.6687 215.687 64.129 214.69 64.6323 213.6C65.6911 214.113 66.6792 214.699 67.738 215.086C71.301 216.381 74.8916 217.608 78.473 218.857C78.9793 219.035 79.501 219.173 80.0043 219.354C81.993 220.079 83.3341 222.276 80.9097 224.28C82.1464 225.575 82.2354 226.968 81.1613 228.445C82.0237 228.84 82.4687 228.27 82.8584 227.742C84.3468 225.719 85.869 223.718 87.2285 221.613C87.787 220.745 88.3548 220.413 89.2355 220.597C90.1869 223.326 91.1137 226.026 92.0712 228.718C92.4272 229.718 93.8051 230.274 94.7779 229.816C94.9529 229.733 95.0541 229.457 95.1431 229.252C95.1953 229.129 95.1523 228.969 95.1523 228.825V222.786L95.1616 222.789ZM75.3887 227.097C76.5887 227.466 77.6321 227.932 78.6019 227.162C78.875 226.947 79.0284 226.256 78.8965 225.916C78.4423 224.737 77.3037 224.565 76.1805 224.262C75.9074 225.238 75.6619 226.118 75.3887 227.097ZM76.6746 222.549C78.4054 223.086 79.2126 222.933 79.4182 222.107C79.633 221.248 79.0162 220.723 77.3191 220.383C77.1104 221.079 76.9017 221.785 76.6746 222.549ZM86.716 225.83C87.3543 225.876 87.7594 225.903 88.2965 225.943C88.1001 225.357 87.9497 224.909 87.741 224.28C87.3727 224.839 87.1088 225.241 86.7191 225.83H86.716Z" fill="#FDD030"/>
<path d="M50.1015 120.352C50.1015 120.058 50.0186 119.729 50.1168 119.471C50.5005 118.465 50.3194 117.784 49.4263 117.148C48.5272 116.513 47.3119 116.51 46.6643 117.231C45.8051 118.192 44.9703 119.183 44.2 120.217C43.4113 121.279 44.3658 123.725 45.6823 124.063C45.891 124.115 46.2224 123.961 46.4035 123.799C46.7994 123.446 47.137 123.028 47.5267 122.605C47.8643 122.896 48.1006 123.102 48.4474 123.4C47.0541 125.069 45.6946 126.699 44.2737 128.402C43.7274 127.589 43.1597 126.96 43.9852 126.067C44.1601 125.879 44.0681 125.262 43.8962 124.965C41.6344 121.055 39.3512 117.158 37.0281 113.282C36.6046 112.576 36.5248 112.1 37.1232 111.419C38.36 110.01 38.3139 109.958 40.0816 110.559C44.0497 111.91 48.0239 113.251 51.9797 114.641C52.6855 114.89 53.1826 114.813 53.7166 114.316C54.2936 113.779 54.935 113.315 55.5518 112.821C56.8684 111.766 57.0126 110.587 55.9907 109.261C53.7842 106.398 51.5746 103.535 49.3374 100.635C48.7819 100.988 48.2755 101.31 47.7691 101.629C47.6679 101.598 47.5635 101.568 47.4623 101.54C47.542 101.193 47.4991 100.687 47.717 100.521C49.6719 99.0205 51.6697 97.5781 53.6583 96.1204C54.622 97.1546 53.5172 97.575 53.0783 98.2809C55.6623 101.804 58.2617 105.345 60.9193 108.964C62.1898 108.003 63.4634 107.187 64.5375 106.162C64.9764 105.741 65.0531 104.879 65.1574 104.195C65.2556 103.553 65.1789 102.881 65.1789 102.224C65.2648 102.188 65.3508 102.154 65.4367 102.117C66.2285 103.096 67.0233 104.072 67.858 105.103C61.5024 109.623 55.0884 113.929 50.482 120.288C50.3562 120.306 50.2304 120.328 50.1015 120.346V120.352ZM39.968 114.798C40.9961 116.535 41.8523 117.98 42.773 119.542C43.6415 118.413 44.3964 117.434 45.2435 116.332C43.4973 115.826 41.88 115.353 39.968 114.798Z" fill="#FDD030"/>
<path d="M148.67 108.292C148.241 107.724 147.879 107.245 147.486 106.726C148.048 106.088 148.588 105.474 149.106 104.882C149.244 104.919 149.333 104.913 149.37 104.956C151.156 106.914 153.025 108.807 154.685 110.869C155.493 111.873 156.174 113.131 156.447 114.377C157.199 117.817 154.296 120.859 150.748 120.549C150.285 120.509 149.824 120.426 149.109 120.331C148.597 122.307 147.946 124.28 147.642 126.306C147.538 126.993 148.318 127.81 148.759 128.706C148.437 128.954 148.001 129.289 147.544 129.642C146.182 128.138 144.841 126.696 143.561 125.198C143.374 124.977 143.386 124.462 143.487 124.136C144.033 122.353 144.644 120.592 145.206 118.815C145.322 118.447 145.322 118.045 145.378 117.658C145.276 117.596 145.178 117.532 145.077 117.471C144.009 118.324 142.938 119.174 141.787 120.095C142.272 120.733 142.72 121.319 143.242 122.003C142.895 122.252 142.566 122.488 142.186 122.761C140.262 120.561 138.377 118.407 136.407 116.154C136.677 115.896 136.941 115.645 137.254 115.344C137.813 115.832 138.319 116.271 138.911 116.789C142.174 113.951 145.402 111.136 148.67 108.295V108.292ZM151.304 111.787C149.708 113.147 148.167 114.463 146.624 115.777C148.324 117.86 150.257 117.968 152.132 116.123C153.409 114.868 153.151 113.392 151.301 111.787H151.304Z" fill="#FDD030"/>
<path d="M88.9319 98.9039C87.3576 99.1923 86.1484 98.9898 84.9547 97.9402C82.3154 95.6263 79.5227 93.4842 76.7914 91.2746C76.5797 91.1028 76.3495 90.9585 76.0181 90.7284C76.3035 93.2602 76.5367 95.6447 76.8559 98.02C77.0983 99.8153 78.0374 100.386 80.5017 100.328C80.6122 100.696 80.7288 101.089 80.873 101.58C78.5775 101.914 76.3986 102.234 74.143 102.562C74.0325 101.945 73.9374 101.43 73.8269 100.816C74.4652 100.647 75.0667 100.487 75.7511 100.306C75.0053 97.0165 74.2719 93.7727 73.5353 90.5289C73.5261 90.4951 73.5077 90.4614 73.5077 90.4245C73.3819 88.6538 72.8019 87.3526 70.6905 87.7822C70.3069 86.8677 70.5647 86.4933 71.4332 86.3982C72.3569 86.2969 73.3175 86.2232 74.1798 85.9071C75.969 85.2565 77.2456 85.8703 78.5898 87.0641C81.0204 89.2246 83.6043 91.2132 86.3663 93.475C85.9213 91.3237 85.55 89.4548 85.1449 87.592C84.9884 86.8646 84.9792 85.8979 84.5127 85.499C84.0555 85.1092 83.101 85.2995 82.3001 85.232C82.1988 84.7901 82.0945 84.3512 81.9625 83.7835C84.2488 83.4459 86.4615 83.1175 88.7908 82.7708C88.8337 83.4674 88.8675 84.0597 88.9135 84.7993H86.6364C87.4128 89.5745 88.1616 94.1962 88.9289 98.9039H88.9319Z" fill="#FDD030"/>
<path d="M142.65 203.157C142.303 202.764 142.021 202.445 141.692 202.07C142.619 201.055 143.573 200.094 144.433 199.054C145.66 197.562 146.811 196.003 148.011 194.487C148.52 193.843 149.021 193.177 149.613 192.612C151.482 190.832 153.366 191.296 154.226 193.775C154.416 193.705 154.6 193.631 154.79 193.567C156.81 192.87 158.617 194.187 158.347 196.307C158.206 197.412 157.841 198.593 157.233 199.511C155.975 201.411 154.486 203.157 153.059 205.01C152.556 204.679 152.179 204.43 151.801 204.182C152.466 203.13 152.333 202.231 151.402 201.484C150.064 200.41 148.72 199.339 147.41 198.293C147.305 198.329 147.265 198.333 147.241 198.354C145.197 199.984 145.188 200.214 147.09 201.938C147.701 202.491 148.306 203.052 148.919 203.602C150.196 204.743 150.472 206.152 149.908 207.708C149.147 209.804 147.664 211.277 145.636 212.152C143.963 212.873 142.613 212.495 141.416 211.093C140.394 209.896 139.378 208.69 138.28 207.395C137.825 207.693 137.393 207.972 136.893 208.297C136.616 207.892 136.359 207.515 136.076 207.103C137.476 205.888 138.847 204.697 140.271 203.461C140.618 203.758 140.937 204.035 141.312 204.354C140.977 204.799 140.664 205.213 140.268 205.738C141.413 207.027 142.548 208.306 143.693 209.583C143.785 209.684 143.926 209.752 144.055 209.813C145.028 210.28 146.575 209.555 147.594 208.159C148.438 207.005 148.474 206.029 147.618 205.152C146.793 204.305 145.857 203.565 145.056 202.7C144.393 201.985 143.847 201.929 143.221 202.678C143.086 202.838 142.901 202.954 142.653 203.163L142.65 203.157ZM154.6 200.459C155.103 199.621 155.65 198.937 155.935 198.155C156.098 197.71 156.009 196.866 155.708 196.645C155.343 196.378 154.529 196.384 154.097 196.617C153.336 197.031 152.713 197.707 151.918 198.369C152.946 199.17 153.673 199.735 154.6 200.456V200.459ZM150.893 197.581C151.27 196.863 151.678 196.237 151.918 195.549C152.016 195.27 151.838 194.702 151.602 194.549C151.316 194.364 150.721 194.318 150.466 194.503C149.892 194.914 149.447 195.503 148.907 196.065C149.638 196.623 150.202 197.053 150.896 197.581H150.893Z" fill="#FDD030"/>
<path d="M127.658 91.0536C126.903 92.3456 126.124 93.6806 125.197 95.2672C124.988 93.8095 124.761 92.6587 124.678 91.5017C124.626 90.7652 124.338 90.2864 123.712 89.9734C123.009 89.6235 122.331 89.1939 121.588 88.9637C119.922 88.4482 118.636 89.6266 119.154 91.2992C119.461 92.2843 120.121 93.2019 120.778 94.0274C121.349 94.7455 122.125 95.3071 122.828 95.9178C124.629 97.4768 124.948 99.8705 123.577 101.813C122.1 103.903 118.918 105.603 115.861 103.421C115.192 102.942 114.471 102.534 113.781 102.086C111.2 100.42 110.703 98.6583 111.936 95.7859C112.206 95.1598 112.516 94.9143 112.912 95.1445C113.412 96.9643 113.707 98.6706 114.355 100.23C115.128 102.099 116.997 102.933 118.847 102.553C119.701 102.378 120.431 101.982 120.676 101.086C120.925 100.174 120.793 99.3089 120.054 98.6184C118.746 97.394 117.408 96.2002 116.156 94.9204C115.564 94.3159 115.057 93.5885 114.649 92.8428C113.735 91.1703 114.124 89.8936 115.745 88.933C118.752 87.147 122.146 87.4446 124.878 89.6082C125.636 90.2097 126.615 90.5289 127.655 91.0598L127.658 91.0536Z" fill="#FDD030"/>
<path d="M142.953 100.527C142.008 101.727 141.063 102.924 139.903 104.394C139.903 102.958 139.851 101.831 139.921 100.714C139.97 99.9196 139.765 99.3242 139.09 98.8884C138.488 98.5018 137.933 98.0353 137.307 97.6977C136.622 97.3264 135.754 97.0778 135.22 97.7499C134.778 98.3053 134.409 99.1861 134.511 99.8429C134.658 100.791 135.171 101.724 135.692 102.562C136.196 103.378 136.908 104.066 137.524 104.808C139.099 106.705 138.997 109.083 137.239 110.811C135.29 112.726 132.007 113.619 129.441 111.1C128.879 110.547 128.25 110.062 127.649 109.553C125.313 107.561 125.046 105.72 126.71 103.074C126.982 102.641 127.442 102.542 128.091 102.78C128.091 104.02 127.953 105.321 128.121 106.582C128.385 108.555 129.355 110.096 131.439 110.642C132.734 110.98 133.998 110.593 134.526 109.725C135.082 108.813 134.867 107.656 134.001 106.576C132.835 105.121 131.586 103.719 130.576 102.16C128.49 98.9345 129.484 96.8906 133.286 96.2983C136.189 95.8441 138.543 96.774 140.529 98.9253C141.13 99.5759 142.042 99.9411 142.95 100.524L142.953 100.527Z" fill="#FDD030"/>
<path d="M109.843 98.6767C109.665 99.2752 109.564 99.6035 109.438 100.027C108.134 99.8552 106.87 99.6496 105.596 99.536C104.322 99.4225 103.04 99.3979 101.699 99.3304C101.49 98.8332 101.57 98.5724 102.245 98.465C103.702 98.2348 104.154 97.5412 103.715 96.1173C103.086 94.0703 102.374 93.4381 100.652 93.7205C99.9891 93.8279 99.2925 93.7358 98.6112 93.7389C97.0553 93.745 95.6681 95.5189 96.107 97.0011C96.1745 97.2251 96.5029 97.4553 96.7545 97.5167C97.2302 97.6333 97.7335 97.6302 98.2491 97.6794C98.3412 98.2901 98.378 98.7443 97.5954 98.735C95.8063 98.7166 94.0202 98.7289 92.1328 98.7289C92.3016 97.8665 92.3937 97.1576 93.4893 97.1362C93.836 97.13 94.3117 96.7525 94.4958 96.418C96.6011 92.631 98.6971 88.8348 100.716 85.0018C101.241 84.0044 101.797 83.3876 103 83.6116C103.408 83.6883 103.844 83.6239 104.325 83.6239C105.139 87.73 106.026 91.7503 106.698 95.8073C107.002 97.6333 107.447 98.9928 109.837 98.6767H109.843ZM102.22 92.6402C101.68 91.1181 101.204 89.777 100.729 88.4359L100.271 88.4267C99.6454 89.7831 99.0224 91.1365 98.3596 92.5758C98.6879 92.6065 98.8598 92.6372 99.0347 92.6372C100.032 92.6402 101.029 92.6372 102.223 92.6372L102.22 92.6402Z" fill="#FDD030"/>
<path d="M44.3746 199.836C47.8148 199.876 51.6755 203.445 52.0008 206.883C52.3506 210.571 49.0209 213.223 45.4119 212.017C42.4688 211.032 40.4925 208.951 39.6086 205.98C38.6296 202.69 40.9313 199.793 44.3746 199.836ZM45.4732 202.071C43.6196 202.098 41.8059 204.016 41.852 205.894C41.9041 207.874 44.2273 210.169 46.1453 210.139C47.8394 210.111 49.5518 208.132 49.5487 206.204C49.5457 204.256 47.3637 202.043 45.4702 202.071H45.4732Z" fill="#FDD030"/>
<path d="M57.9242 220.748C54.9842 220.735 51.5716 218.406 50.5006 215.681C49.2516 212.502 51.4366 209.258 55.0149 208.982C57.9396 208.758 61.7695 211.283 62.727 214.067C63.8779 217.418 61.4749 220.76 57.9242 220.745V220.748ZM60.3548 214.975C60.4376 213.036 58.5288 211.09 56.4542 210.998C54.7295 210.921 52.8729 212.778 52.7747 214.681C52.6734 216.642 54.797 218.701 56.9974 218.774C58.7037 218.83 60.2688 217.062 60.3548 214.978V214.975Z" fill="#FDD030"/>
<path d="M132.078 217.845C132.372 218.824 132.664 219.707 132.897 220.607C132.955 220.834 132.928 221.217 132.78 221.346C130.626 223.203 128.312 224.719 125.311 224.725C123.273 224.731 121.647 224.001 120.75 222.095C119.851 220.186 120.198 218.369 121.462 216.743C123.239 214.457 125.759 213.386 128.475 212.517C128.993 213.524 129.481 214.469 130.009 215.494C129.598 215.776 129.193 216.052 128.8 216.319C127.094 214.822 126.234 214.813 124.415 216.237C122.883 217.433 122.497 219.029 123.334 220.72C124.169 222.408 125.691 223.068 127.56 222.549C129.681 221.963 130.448 221.064 130.629 218.965C130.67 218.492 131.155 218.118 132.084 217.842L132.078 217.845Z" fill="#FDD030"/>
<path d="M44.9736 197.725C44.0867 198.342 43.2397 198.931 42.2883 199.594C41.9753 199.238 41.6592 198.876 41.3492 198.523C42.3098 196.767 42.2177 196.344 40.493 194.665C39.8363 195.126 39.1703 195.595 38.4369 196.108C38.9586 196.777 39.4312 197.4 39.9222 198.007C40.7488 199.034 40.5707 199.932 39.3882 200.699C38.5811 199.548 37.7709 198.391 36.9178 197.17C36.2119 197.661 35.5767 198.102 34.8585 198.603C35.2575 199.253 35.6196 199.849 36.037 200.53C35.6595 200.782 35.2851 201.033 34.7665 201.377C33.4683 199.49 32.204 197.651 30.8936 195.746C31.2925 195.399 31.6332 195.104 32.0229 194.767C32.4525 195.267 32.8331 195.715 33.2781 196.234C35.236 194.932 37.1326 193.671 39.0967 192.364C38.8143 191.808 38.5627 191.314 38.2711 190.737C38.7161 190.519 39.1212 190.323 39.5079 190.133C41.3462 192.686 43.1384 195.175 44.9705 197.719L44.9736 197.725Z" fill="#FDD030"/>
<path d="M134.376 220.892C133.996 220.413 133.735 220.082 133.422 219.689C133.848 219.327 134.244 218.989 134.747 218.56C133.498 216.589 132.262 214.641 130.997 212.649C130.506 212.873 130.092 213.06 129.573 213.297C129.368 212.87 129.171 212.468 128.947 212.005C130.408 211.044 131.838 210.108 133.366 209.104C133.658 209.433 133.959 209.767 134.355 210.209C133.931 210.519 133.532 210.814 133.072 211.151C134.428 213.189 135.69 215.083 137.031 217.096C137.816 216.504 138.556 216.052 139.151 215.457C139.464 215.144 139.731 214.546 139.661 214.137C139.477 213.079 139.79 212.48 140.95 212.296C141.361 213.208 141.803 214.196 142.343 215.396C139.753 217.182 137.114 219.002 134.373 220.892H134.376Z" fill="#FDD030"/>
<path d="M51.4729 137.661C52.6698 138.339 53.5444 137.483 54.3914 136.461C55.0727 137.94 55.6773 139.346 56.3586 140.711C57.3099 142.617 58.4853 144.357 60.1456 145.75C60.4463 146.002 60.6059 146.545 60.6427 146.972C60.7164 147.816 61.0663 148.43 61.6892 148.997C63.994 151.103 66.2619 153.248 68.5359 155.384C69.5425 156.329 69.788 158.127 69.1343 159.367C68.8704 159.864 68.5819 160.383 68.4776 160.926C68.2137 162.31 68.5022 163.458 70.0734 163.903C70.3772 163.989 70.632 164.231 70.9296 164.351C72.194 164.854 73.0809 165.566 72.7341 167.134C72.6789 167.389 72.8661 167.776 73.0594 167.997C74.511 169.682 75.1585 171.725 75.6987 173.812C75.9196 174.665 76.3677 175.261 77.1717 175.669C78.3195 176.249 79.8662 176.669 80.4186 177.63C80.9986 178.637 80.6089 180.202 80.6396 181.521C80.6426 181.666 80.6611 181.813 80.6396 181.951C80.3511 183.746 81.0692 185.106 82.1556 186.53C83.242 187.957 83.9079 189.715 84.6844 191.366C84.9851 192.005 85.3196 192.287 86.0531 192.25C87.4126 192.186 88.7813 192.201 90.1439 192.244C90.8129 192.265 91.2579 192.137 91.3193 191.379C91.3776 190.682 91.7459 190.412 92.4701 190.261C96.8494 189.356 100.781 187.343 104.571 185.066C107.056 183.571 109.42 181.868 111.869 180.306C112.851 179.68 113.602 178.931 113.814 177.756C113.943 177.056 114.364 176.811 115.029 176.85C116.699 176.946 118.058 176.335 119.258 175.172C122.112 172.401 125.034 169.703 127.879 166.923C128.269 166.542 128.508 165.879 128.572 165.318C128.79 163.4 128.898 161.469 129.054 159.459C130.696 159.306 132.283 159.158 133.946 159.005C133.946 156.504 133.974 154.104 133.915 151.71C133.906 151.366 133.556 150.882 133.234 150.722C131.859 150.05 130.475 149.341 129.02 148.902C127.661 148.494 126.191 148.469 124.798 148.153C124.258 148.031 123.622 147.687 123.331 147.245C122.849 146.515 122.564 145.637 122.278 144.796C121.775 143.311 120.768 142.461 119.501 142.55C118.24 142.639 117.055 143.851 116.871 145.25C116.616 147.177 116.619 147.19 114.713 147.472C112.801 147.754 110.89 148.012 108.919 148.288C108.441 147.177 107.922 146.149 107.554 145.072C107.274 144.25 106.771 143.952 105.97 143.967C105.685 143.974 105.396 143.9 105.111 143.921C104.347 143.974 103.883 143.697 103.816 142.881C103.721 141.718 103.092 140.834 102.367 139.963C100.17 137.314 98.0156 134.626 95.6802 131.753C97.7394 131.44 98.5895 130.277 98.0432 128.172C99.7372 128.365 101.216 128.522 102.689 128.721C102.864 128.746 103.131 129.016 103.144 129.185C103.494 134.816 107.79 136.562 112.136 137.949C114.262 138.628 116.659 138.496 118.939 138.621C119.421 138.649 120.013 138.296 120.412 137.952C121.569 136.964 122.432 136.952 123.475 138.072C123.865 138.493 124.19 138.971 124.571 139.401C127.268 142.454 130.705 142.319 133.811 140.475C134.047 140.334 134.188 139.898 134.225 139.582C134.345 138.493 134.397 137.394 134.63 136.295C140.302 147.831 141.143 159.873 137.573 172.057C133.443 186.158 123.297 195.202 110.718 202.295C110.687 201.721 110.644 201.389 110.653 201.058C110.693 199.444 110.739 197.829 110.794 196.218C110.853 194.552 110.089 193.539 108.382 193.462C107.041 193.401 105.629 193.472 104.347 193.834C102.426 194.374 100.597 195.233 98.7153 195.933C94.87 197.36 91.0185 198.771 87.0597 200.226V196.27C85.7063 196.102 84.4419 195.871 83.1653 195.813C82.2477 195.77 81.9684 195.402 82.0881 194.558C82.1341 194.242 82.0973 193.91 82.1249 193.591C82.2415 192.25 82.2016 191.155 80.7685 190.246C79.8202 189.645 79.2985 188.279 78.7461 187.171C78.4422 186.56 78.1446 186.263 77.4725 186.106C74.3821 185.394 71.8534 183.774 70.5399 180.831C69.9537 179.514 69.8248 177.928 69.7788 176.455C69.7297 174.856 69.4412 173.84 67.7779 173.002C64.2824 171.237 63.0856 167.914 63.0794 164.185C63.0794 162.893 62.7879 161.819 62.0759 160.788C61.6493 160.171 61.3424 159.465 60.8913 158.867C60.4985 158.345 60.032 157.845 59.5072 157.458C58.295 156.571 57.3867 155.427 57.0828 154.006C56.6655 152.054 56.5335 150.047 56.2389 148.067C56.1775 147.647 56.0364 147.181 55.7816 146.858C55.2968 146.241 54.7229 145.689 54.1459 145.149C52.9951 144.069 52.0714 143.053 52.3875 141.162C52.5685 140.067 51.7952 138.812 51.4668 137.676L51.4729 137.661Z" fill="#23558B"/>
<path d="M100.775 174.527C92.4278 162.657 84.1602 150.9 75.908 139.162C70.8106 140.53 68.8465 139.456 68.3555 134.93C68.7084 135.399 68.9631 135.767 69.2485 136.114C70.6817 137.87 72.4708 138.173 74.395 136.973C74.8185 136.709 75.3034 136.446 75.5735 136.053C76.5095 134.699 77.7555 134.543 79.2162 134.899C79.8024 135.043 80.4162 135.068 81.3062 135.187C80.1615 135.97 79.1917 136.633 78.136 137.357C81.0852 141.592 84.0037 145.787 86.959 150.031C88.3185 149.273 89.5645 148.497 90.8872 147.877C91.5194 147.579 92.2958 147.457 93.0017 147.472C94.0267 147.497 95.0455 147.718 96.3897 147.899C95.3156 148.522 94.4809 149.006 93.5571 149.544C93.7658 149.86 93.9377 150.151 94.1402 150.421C95.8864 152.741 97.5405 155.141 99.4187 157.354C101.622 159.953 102.236 163.492 98.7865 166.471C99.6581 167.816 100.533 169.166 101.481 170.627C102.346 169.998 103.212 169.448 103.985 168.785C104.78 168.104 105.618 167.852 106.646 168.04C107.382 168.175 108.14 168.205 109.208 168.319C106.299 170.461 103.592 172.456 100.778 174.53L100.775 174.527ZM96.6782 163.706C98.3783 162.543 98.6576 160.644 97.3656 159.02C95.601 156.808 93.7965 154.626 92.0073 152.434C91.7465 152.112 91.4734 151.802 91.191 151.468C90.4177 152.048 89.7425 152.554 89.0183 153.094C91.6145 156.694 94.1464 160.202 96.6782 163.709V163.706Z" fill="#23558B"/>
<path d="M114.542 164.21C114.564 165.127 113.888 165.855 112.977 165.891C112.01 165.931 111.258 165.229 111.234 164.271C111.212 163.329 111.961 162.571 112.909 162.574C113.802 162.574 114.518 163.292 114.539 164.207L114.542 164.21Z" fill="#23558B"/>
</svg>
