<svg width="129" height="178" viewBox="0 0 129 178" fill="none" xmlns="http://www.w3.org/2000/svg">
<path d="M0 0V24.0677H4.21165V12.7799H9.86729C11.0947 13.3816 11.937 14.6091 11.937 16.0531V24.0677H15.8117V14.9942C15.8117 13.3816 15.0657 11.9376 13.7661 11.0952C15.0657 9.93995 15.908 8.25522 15.908 6.35387C15.908 2.91219 12.9959 0 9.48222 0H0ZM4.21165 3.68236H9.09716C10.5412 3.68236 11.7685 4.90981 11.7685 6.35387C11.7685 7.87013 10.5412 9.09758 9.09716 9.09758H4.21165V3.68236ZM27.484 0C22.4541 0 18.3628 4.04337 18.3628 8.97725V15.1145C18.3628 20.0484 22.4541 24.0677 27.484 24.0677C32.5139 24.0677 36.5812 20.0484 36.5812 15.1145V8.97725C36.5812 4.04337 32.4898 0 27.484 0ZM27.484 3.53795C30.1795 3.53795 32.3936 5.67997 32.3936 8.39962V15.6921C32.3936 18.3396 30.1795 20.5538 27.484 20.5538C24.7886 20.5538 22.5504 18.3396 22.5504 15.6921V8.39962C22.5504 5.67997 24.7645 3.53795 27.484 3.53795ZM38.8675 0V24.0677H43.0069V6.73895L52.5132 19.4948V24.0677H56.6527V0H52.5132V12.2264L43.0069 0H38.8675ZM76.676 0H66.3034C62.188 0 58.8427 3.36948 58.8427 7.48505V24.0677H63.1025V11.8894H72.5607V24.0677H76.676V0ZM63.1025 8.39962V7.62946C63.1025 5.48743 64.9316 3.65829 67.0735 3.65829H72.5607V8.39962H63.1025ZM82.813 0H78.5292V14.922C78.5292 19.928 82.6686 24.0677 87.8429 24.0677H91.116V20.5057H88.2521C85.2437 20.5057 82.813 18.0508 82.813 14.922V0ZM92.6562 0V24.0677H101.32C105.147 24.0677 108.324 20.7223 108.324 16.7752V7.31658C108.324 3.36948 105.147 0 101.32 0H92.6562ZM96.7476 20.265V3.82676H101.633C103.149 3.82676 104.377 5.03015 104.377 6.57048V17.5213C104.377 19.0616 103.149 20.265 101.633 20.265H96.7476ZM119.515 0C114.485 0 110.393 4.04337 110.393 8.97725V15.1145C110.393 20.0484 114.485 24.0677 119.515 24.0677C124.544 24.0677 128.612 20.0484 128.612 15.1145V8.97725C128.612 4.04337 124.52 0 119.515 0ZM119.515 3.53795C122.21 3.53795 124.424 5.67997 124.424 8.39962V15.6921C124.424 18.3396 122.21 20.5538 119.515 20.5538C116.819 20.5538 114.581 18.3396 114.581 15.6921V8.39962C114.581 5.67997 116.795 3.53795 119.515 3.53795Z" fill="#0076C8"/>
<path d="M63.5122 148.427L63.3716 110.218V109.375C63.3716 109.375 63.5122 104.037 64.9183 99.4014C66.465 94.9063 70.402 89.1468 70.402 89.1468C70.402 89.1468 67.168 95.1872 66.1837 99.261C65.1995 102.913 64.637 105.582 64.637 109.375V110.077L64.7777 148.567C64.7777 149.551 64.637 150.674 64.9183 151.517L64.7777 151.658H63.934C63.3716 151.658 63.231 151.517 63.231 151.517C63.231 151.517 63.3716 151.236 63.3716 150.955C63.5122 150.394 63.5122 149.129 63.5122 148.427ZM31.8751 41.6658L24.001 67.3725C24.001 67.3725 37.9213 64.4226 49.0294 63.7202C60.1375 63.0178 84.0411 63.7202 84.0411 63.7202C84.0411 63.7202 71.8081 70.463 65.6213 76.9248C59.4345 83.2461 54.935 96.3102 53.2477 104.177C51.5604 111.903 52.2634 142.807 52.2634 142.807C52.2634 142.807 52.404 158.54 51.701 163.738C50.9979 168.795 49.0294 175.397 49.0294 175.397C49.0294 175.397 53.6695 177.504 61.8249 177.926C69.8396 178.487 78.5574 175.678 78.5574 175.678C78.5574 175.678 75.464 168.233 75.3234 157.697C75.1827 147.162 75.1827 119.067 75.1827 119.067C75.1827 119.067 76.8701 99.9625 83.4787 89.146C89.9467 78.3295 103.164 66.5297 103.164 66.5297L100.211 56.4155C94.4462 54.4489 84.1817 51.6394 70.1208 50.7966C53.9507 49.8133 42.1396 52.3418 36.6558 53.887L37.0776 52.3418C42.9832 50.9371 54.6538 48.549 70.2614 49.5323C83.7599 50.2347 93.7432 52.9037 99.7894 54.8703L95.7117 41.1039C95.7117 41.1039 78.1355 36.1873 60.1376 37.873C41.999 39.5587 31.8751 41.6658 31.8751 41.6658Z" fill="#0076C8"/>
</svg>
