<?xml version="1.0" standalone="no"?>
<!DOCTYPE svg PUBLIC "-//W3C//DTD SVG 20010904//EN"
 "http://www.w3.org/TR/2001/REC-SVG-20010904/DTD/svg10.dtd">
<svg version="1.0" xmlns="http://www.w3.org/2000/svg"
 width="560.000000pt" height="560.000000pt" viewBox="0 0 560.000000 560.000000"
 preserveAspectRatio="xMidYMid meet">
<metadata>
Created by potrace 1.14, written by Peter Selinger 2001-2017
</metadata>
<g transform="translate(0.000000,560.000000) scale(0.100000,-0.100000)"
fill="#000000" stroke="none">
<path d="M3465 5347 c-6 -19 -27 -100 -32 -127 -11 -54 -4 -189 13 -257 6 -24
6 -24 -52 -17 -73 10 -436 11 -486 2 -37 -6 -38 -5 -57 35 -10 23 -30 54 -44
69 -27 31 -114 73 -173 84 -22 3 -48 9 -59 11 -87 19 -337 18 -635 -2 -213
-14 -314 -18 -450 -18 -197 0 -278 10 -358 45 -24 10 -45 18 -47 18 -5 0 5
-113 11 -130 3 -8 8 -26 10 -40 15 -81 119 -325 154 -360 3 -3 23 -32 45 -65
35 -52 268 -348 301 -382 9 -10 8 -28 -6 -83 -10 -39 -19 -74 -19 -78 -1 -4
-3 -20 -6 -37 -11 -69 -17 -112 -20 -150 -2 -22 -6 -68 -9 -102 -3 -35 -9 -93
-12 -130 -17 -203 -16 -198 -58 -235 -31 -27 -31 -27 -166 -23 -213 6 -305 14
-309 28 -9 26 -100 104 -156 133 -136 72 -254 99 -425 98 -120 -1 -160 -8
-235 -44 -122 -57 -176 -140 -181 -275 -2 -44 2 -100 7 -125 6 -25 12 -54 14
-65 4 -24 10 -48 24 -93 5 -18 11 -36 12 -40 26 -101 127 -315 173 -366 6 -7
25 -28 43 -47 18 -19 34 -49 38 -67 11 -67 35 -169 49 -215 8 -26 12 -47 9
-47 -3 0 0 -7 7 -15 7 -8 10 -15 7 -15 -16 0 125 -320 145 -328 4 -2 8 -8 8
-13 0 -22 140 -200 203 -258 137 -127 217 -182 372 -259 102 -50 238 -95 330
-108 22 -3 47 -7 54 -10 51 -17 455 -25 536 -10 119 21 109 24 138 -41 45
-102 87 -219 162 -453 68 -213 118 -290 221 -337 52 -24 74 -29 169 -39 87
-10 287 -4 375 11 14 2 42 6 63 9 76 12 183 38 257 64 196 67 506 227 680 351
25 17 61 43 82 56 113 75 358 301 449 415 62 77 135 192 169 265 47 101 58
133 86 260 3 11 6 94 9 185 3 152 9 277 21 470 2 41 6 104 8 140 3 36 8 110
12 165 9 124 9 535 -1 631 l-6 71 47 39 c124 101 242 256 333 439 56 111 133
302 145 357 3 13 15 55 27 93 58 194 20 342 -127 489 -61 61 -188 150 -204
143 -3 -1 -17 5 -31 14 -22 15 -91 42 -139 55 -52 14 -192 44 -230 49 -25 3
-52 8 -60 10 -8 2 -40 7 -70 10 -30 3 -66 7 -80 9 -14 3 -56 7 -93 11 -37 3
-76 8 -85 10 -9 1 -48 6 -87 9 -38 4 -81 9 -95 11 -14 2 -45 6 -70 9 -25 3
-56 8 -70 11 -13 2 -42 7 -65 10 -22 3 -53 9 -70 12 -16 4 -34 7 -40 8 -5 0
-26 4 -45 9 -19 4 -44 9 -55 11 -11 2 -20 4 -20 5 0 2 -8 3 -55 13 -14 3 -69
19 -123 35 -69 21 -99 27 -102 19z"/>
</g>
</svg>
