<svg width="854" height="268" viewBox="0 0 854 268" fill="none" xmlns="http://www.w3.org/2000/svg">
<path d="M128.761 86.2244V88.4942C138.666 90.2826 146.232 93.9969 151.46 99.6371C156.687 105.14 159.301 112.293 159.301 121.097C159.301 134.854 155.312 144.965 147.333 151.431C139.492 157.896 127.386 161.129 111.016 161.129H9.28568V18.7484H107.714C124.634 18.7484 136.74 21.7061 144.031 27.6214C151.322 33.5367 154.968 43.3727 154.968 57.1293C154.968 72.6742 146.232 82.3726 128.761 86.2244ZM92.8568 103.351H63.1426V123.986H93.2695C97.9468 123.986 101.386 123.161 103.587 121.51C105.788 119.859 106.889 117.108 106.889 113.256C106.889 109.542 105.857 106.997 103.793 105.621C101.73 104.108 98.0843 103.351 92.8568 103.351ZM89.7616 55.8912H63.1426V75.2879H90.3806C94.5076 75.2879 97.5341 74.6001 99.46 73.2244C101.523 71.7112 102.555 69.1663 102.555 65.5895C102.555 61.8753 101.661 59.3303 99.8727 57.9547C98.0843 56.579 94.714 55.8912 89.7616 55.8912ZM250.957 164.224C234.311 164.224 220.555 163.124 209.687 160.923C198.957 158.584 189.946 154.526 182.655 148.748C175.502 142.97 170.343 135.404 167.179 126.05C164.153 116.695 162.64 104.727 162.64 90.145C162.64 75.2879 164.29 63.0446 167.592 53.415C170.894 43.6478 176.327 36.0129 183.894 30.5103C191.597 24.8701 200.677 21.0183 211.132 18.9548C221.587 16.7537 234.862 15.6532 250.957 15.6532C267.052 15.6532 280.327 16.7537 290.782 18.9548C301.237 21.0183 310.248 24.8701 317.814 30.5103C325.517 36.0129 331.02 43.6478 334.322 53.415C337.623 63.0446 339.274 75.2879 339.274 90.145C339.274 118.484 332.74 137.949 319.671 148.542C306.602 158.997 283.697 164.224 250.957 164.224ZM250.957 123.573C265.814 123.573 275.237 121.648 279.227 117.796C283.216 113.806 285.211 104.589 285.211 90.145C285.211 82.1662 284.867 76.1821 284.179 72.1927C283.491 68.0657 281.772 64.6954 279.02 62.0816C276.407 59.4679 273.036 57.8859 268.909 57.3356C264.92 56.6478 258.936 56.3039 250.957 56.3039C235.825 56.3039 226.264 58.2298 222.274 62.0816C218.423 65.9335 216.497 75.2879 216.497 90.145C216.497 104.589 218.491 113.806 222.481 117.796C226.47 121.648 235.962 123.573 250.957 123.573ZM403.922 90.7641C403.922 115.526 400.071 133.478 392.367 144.621C384.801 155.626 372.695 161.129 356.049 161.129H338.304V122.748C344.769 122.748 349.24 119.79 351.716 113.875C354.192 107.822 355.43 98.1926 355.43 84.9863V18.7484H495.954V161.129H441.89V61.0499H403.922V90.7641ZM562.256 18.7484V70.7483H615.7V18.7484H669.764V161.129H615.7V113.256H562.256V161.129H508.399V18.7484H562.256ZM672.873 161.129L737.254 18.7484H788.016L851.984 161.129H791.936L785.952 144.827H737.048L731.064 161.129H672.873ZM761.81 77.1451L748.397 113.669H774.81L761.81 77.1451Z" fill="white"/>
<path d="M91.1042 167.23V243.242H62.2417V189.813H33.7097V243.242H4.95731V167.23H91.1042ZM143.659 244.895C134.773 244.895 127.429 244.307 121.627 243.132C115.899 241.884 111.088 239.717 107.196 236.632C103.377 233.548 100.623 229.509 98.9335 224.515C97.3178 219.521 96.5099 213.131 96.5099 205.346C96.5099 197.415 97.3912 190.878 99.1538 185.737C100.916 180.523 103.817 176.447 107.857 173.509C111.969 170.498 116.817 168.442 122.398 167.34C127.98 166.165 135.067 165.578 143.659 165.578C152.252 165.578 159.339 166.165 164.921 167.34C170.502 168.442 175.313 170.498 179.352 173.509C183.465 176.447 186.402 180.523 188.165 185.737C189.928 190.878 190.809 197.415 190.809 205.346C190.809 220.475 187.32 230.867 180.343 236.522C173.367 242.104 161.139 244.895 143.659 244.895ZM143.659 223.193C151.591 223.193 156.622 222.164 158.752 220.108C160.881 217.978 161.946 213.058 161.946 205.346C161.946 201.087 161.763 197.892 161.396 195.762C161.028 193.559 160.11 191.76 158.642 190.364C157.246 188.969 155.447 188.124 153.244 187.831C151.114 187.463 147.919 187.28 143.659 187.28C135.581 187.28 130.477 188.308 128.347 190.364C126.29 192.421 125.262 197.415 125.262 205.346C125.262 213.058 126.327 217.978 128.457 220.108C130.587 222.164 135.654 223.193 143.659 223.193ZM278.526 167.23V220.659H289.542V259.767H263.213V243.242H216.284V259.767H189.955V220.659H200.971C202.734 216.913 203.982 213.131 204.717 209.312C205.451 205.42 205.855 202.078 205.929 199.287C206.076 196.497 206.149 191.356 206.149 183.865V167.23H278.526ZM231.376 189.152C231.376 203.474 229.871 214.159 226.86 221.21H249.994V187.61H231.376V189.152ZM380.004 167.23V220.659H391.02V259.767H364.692V243.242H317.762V259.767H291.434V220.659H302.45C304.212 216.913 305.461 213.131 306.195 209.312C306.93 205.42 307.334 202.078 307.407 199.287C307.554 196.497 307.627 191.356 307.627 183.865V167.23H380.004ZM332.855 189.152C332.855 203.474 331.349 214.159 328.338 221.21H351.472V187.61H332.855V189.152ZM465.479 223.193V243.242H393.873V167.23H465.479V187.28H422.626V195.872H465.479V214.6H422.626V223.193H465.479ZM553.094 197.304C553.094 208.247 550.707 216.326 545.934 221.54C541.16 226.755 533.889 229.362 524.121 229.362H500.436V243.242H471.684V167.23H523.901C534.183 167.23 541.6 169.58 546.154 174.281C550.781 178.907 553.094 186.582 553.094 197.304ZM514.868 187.61H500.436V208.872H515.088C518.246 208.872 520.559 208.064 522.028 206.448C523.571 204.759 524.342 201.968 524.342 198.076C524.342 193.963 523.681 191.209 522.359 189.813C521.037 188.345 518.54 187.61 514.868 187.61ZM597.694 167.23H626.447V205.677L644.293 167.23H674.037L654.869 203.584L677.452 243.242H645.945L633.387 214.159H626.447V243.242H597.694V214.159H590.754L578.196 243.242H546.689L569.162 203.474L549.994 167.23H579.848L597.694 205.677V167.23ZM764.207 243.242H730.828L715.295 213.168H707.804V243.242H679.052V167.23H707.804V205.016L730.828 167.23H761.674L737.658 202.482L764.207 243.242ZM794.969 167.23V204.465L824.603 167.23H848.839V243.242H820.307V206.999L790.122 243.242H766.437V167.23H794.969Z" fill="white"/>
</svg>
