<svg width="36" height="26" viewBox="0 0 36 26" fill="none" xmlns="http://www.w3.org/2000/svg">
<path d="M35.1743 4.43466L35.2159 4.72589C34.7857 3.20039 33.6272 2.02853 32.1564 1.59861L32.1286 1.59167C29.3536 0.842791 18.2118 0.842791 18.2118 0.842791C18.2118 0.842791 7.09762 0.828922 4.30175 1.59167C2.80321 2.02853 1.63769 3.20039 1.2145 4.69815L1.20756 4.72589C0.17385 10.1276 0.166911 16.6179 1.25612 22.401L1.20756 22.1098C1.63769 23.6352 2.79627 24.807 4.26706 25.2371L4.29481 25.2439C7.06294 25.9997 18.2048 25.9997 18.2048 25.9997C18.2048 25.9997 29.3189 25.9997 32.1148 25.2439C33.6203 24.807 34.7788 23.6352 35.202 22.1445L35.209 22.1167C35.6807 19.6066 35.9513 16.715 35.9513 13.7611C35.9513 13.6501 35.9513 13.5461 35.9513 13.4351C35.9513 13.3311 35.9513 13.2133 35.9513 13.0954C35.9582 10.1276 35.6876 7.23605 35.1743 4.43466ZM14.6597 18.816V8.02653L23.9353 13.4282L14.6597 18.816Z"/>
</svg>
