<svg width="213" height="29" fill="none" xmlns="http://www.w3.org/2000/svg"><path d="M38.448 1.341h22.905l-.99 6.194H45.129l-.553 3.55h9.07l-1.023 6.345h-9.07l-.646 4.192h16.709l-1.054 6.533h-24.38l4.266-26.814Zm34.512 6.61h-9.6l1.05-6.61h26.877l-1.09 6.61h-9.6l-3.22 20.207h-7.633L72.957 7.95h.003Zm18.889 8.119C91.539 7.308 97.624.887 105.938.887c9.64 0 12.475 6.46 12.809 9.52h-7.784c-.369-.72-1.721-2.645-4.781-2.645-4.272 0-6.675 3.626-6.525 7.93.123 3.476 2.069 6.044 5.395 6.044 3.098 0 4.469-1.813 4.901-2.456h7.749c-.518 2.418-3.676 9.331-12.407 9.331-7.978 0-13.186-5.174-13.45-12.538l.004-.003Zm32.397-14.729h7.671l-2.561 16.165 14.393-16.165h7.675l-4.27 26.814h-7.672l2.565-16.091-14.396 16.091h-7.672l4.264-26.814h.003Zm39.507 6.61h-9.601l1.054-6.61h26.874l-1.09 6.61h-9.601l-3.218 20.207h-7.634l3.214-20.207h.002Zm22.069-6.61h7.672l-2.562 16.165 14.393-16.165H213l-4.27 26.814h-7.671l2.564-16.091-14.396 16.091h-7.672l4.264-26.814h.003ZM20.885 11.274h-6.842l.528-3.285h16.14l1.048-6.648H7.947l-1.582 9.933H1.21l-.96 6.082h5.148l-1.72 10.802h15.875c7.409 0 12.36-3.246 12.13-9.744-.161-4.57-4.031-7.138-10.8-7.138l.003-.002ZM20.19 21.51h-7.787l.682-4.157h8.052c1.587 0 2.4.569 2.438 1.627.06 1.66-1.27 2.53-3.388 2.53h.003Z" fill="#fff"/></svg>