<svg width="92" height="92" fill="none" xmlns="http://www.w3.org/2000/svg"><path d="M45.5 73C32.542 73 22 62.41 22 49.395v-22.79C22 13.589 32.543 3 45.5 3 58.455 3 69 13.589 69 26.605v22.79C69 62.41 58.457 73 45.5 73Zm0-67.379c-11.519 0-20.89 9.414-20.89 20.984v22.79c0 11.57 9.371 20.982 20.89 20.982 11.517 0 20.89-9.412 20.89-20.982v-22.79c0-11.57-9.371-20.984-20.89-20.984Z" fill="#F6F6F6"/><path d="M45.5 36c-1.193-.001-2.337-.514-3.18-1.426-.844-.913-1.319-2.15-1.32-3.44V24.78c.02-1.275.504-2.49 1.346-3.385C43.187 20.501 44.32 20 45.5 20s2.313.501 3.154 1.395c.842.894 1.325 2.11 1.346 3.385v6.354c-.001 1.29-.475 2.527-1.319 3.44-.843.911-1.987 1.424-3.18 1.426Zm0-13.416c-.538 0-1.056.231-1.438.643-.381.412-.596.97-.597 1.553v6.354c-.007.294.04.585.14.858.098.273.247.522.436.732.19.21.416.377.665.49a1.9 1.9 0 0 0 1.58 0c.25-.113.475-.28.665-.49.189-.21.337-.459.436-.732.1-.273.146-.564.14-.858V24.78c0-.582-.213-1.14-.593-1.553a1.96 1.96 0 0 0-1.433-.647v.004ZM45.5 89a1.34 1.34 0 0 1-.859-.31L33.46 79.327a1.324 1.324 0 0 1 .748-2.322c.349-.033.696.072.968.29L45.5 85.934l10.325-8.636a1.338 1.338 0 0 1 1.862.176 1.322 1.322 0 0 1-.145 1.855L46.356 88.69c-.24.201-.543.311-.857.311Z" fill="#F6F6F6"/></svg>