<svg width="1166" height="626" viewBox="0 0 1166 626" fill="none" xmlns="http://www.w3.org/2000/svg">
<mask id="mask0_5340_165" style="mask-type:alpha" maskUnits="userSpaceOnUse" x="0" y="0" width="1166" height="626">
<rect y="0.558594" width="1166" height="625" rx="33" fill="#D9D9D9"/>
</mask>
<g mask="url(#mask0_5340_165)">
<path d="M752.604 177.808C747.242 175.882 743.878 173.274 748.046 167.107C749.362 165.181 750.874 162.329 750.337 160.452C748.924 155.406 754.847 146.167 745.657 145.898C737.151 145.655 745.755 152.261 744.292 156.161C741.367 163.938 740.88 172.64 739.271 180.928C738.784 183.464 737.175 185.609 734.445 185.56C731.179 185.511 731.788 182.245 730.765 180.221C726.109 171.104 730.862 160.915 725.085 150.847C720.015 142.022 717.676 144.777 713.313 148.604C705.001 155.917 708.511 166.765 706.171 175.882C705.293 179.246 708.901 179.076 711.216 177.662C717.407 173.932 722.282 179.271 724.964 182.05C729.57 186.779 721.064 187.023 719.236 189.168C712.191 197.48 709.9 206.159 711.192 216.422C711.387 217.957 711.484 219.517 711.655 221.053C693.496 219.371 712.849 240.628 699.078 241.628C699.443 242.627 699.565 243.943 700.272 244.602C702.344 246.479 704.66 246.113 706.975 244.821C711.289 242.432 712.874 239.629 710.68 234.436C707.926 227.952 713.118 225.075 717.822 222.613C720.771 221.078 723.355 220.663 726.158 224.1C730.375 229.244 727.157 231.974 724.013 235.314C721.38 238.093 717.676 240.141 720.917 245.455C723.209 249.209 719.114 249.916 716.286 250.233C707.731 251.183 703.904 257.692 698.005 262.811C681.406 277.316 670.974 292.356 676.41 315.149C676.702 316.392 675.02 318.001 674.508 319.537C672.827 324.729 666.757 333.651 670.121 334.334C678.091 335.918 672.827 325.777 676.336 321.877C678.384 319.586 679.018 315.051 683.015 316.1C687.256 317.221 684.088 320.756 684.136 323.242C684.185 326.046 683.259 330.117 684.721 331.482C695.324 341.135 687.354 347.814 681.48 354.859C679.383 357.37 678.993 362.709 673.899 360.832C669.633 359.272 670.097 355.152 670.17 351.447C670.17 350.179 671.73 348.253 669.122 347.839C668.951 347.814 668.805 350.179 668.098 350.886C662.297 356.858 661.249 364.147 661.273 372.094C661.273 377.164 661.492 383.137 659.031 387.135C652.913 397.105 653.693 400.323 665.685 396.349C667.879 395.618 669.902 395.642 670.633 398.031C671.998 402.346 668.951 406.685 666.051 406.783C641.359 407.709 651.67 427.284 648.184 439.399C647.404 442.081 646.624 444.738 646.063 447.468C641.213 469.968 636.436 492.468 631.634 514.993C631.39 516.139 631.244 517.309 631.049 518.479C641.164 517.723 638.166 528.23 642.773 532.008C645.942 534.616 645.357 530.594 645.868 529.253C652.425 512.263 659.64 495.467 665.222 478.135C674.825 448.321 686.549 419.337 698.103 390.255C722.185 329.653 745.56 268.759 770.202 208.401C781.927 179.685 796.283 152.066 808.665 123.618C824.826 86.5157 841.961 49.9012 859.291 13.3599C874.476 -18.6473 888.418 -51.1421 907.65 -81.1504C917.595 -96.6786 924.468 -114.157 932.902 -130.66C948.843 -161.985 968.562 -191.043 987.33 -220.636C991.766 -227.608 1001.91 -228.51 1006.9 -224.561C1012.65 -220.027 1019.48 -215.152 1025.09 -212.811C1038.52 -207.18 1047.83 -192.773 1059.16 -190.457C1073.88 -187.459 1086.19 -179.22 1094.53 -171.711C1104.47 -162.741 1119.05 -157.621 1124.97 -144.117C1126.12 -141.508 1128.53 -141.167 1130.99 -140.752C1143.72 -138.632 1143.98 -130.197 1138.26 -122.201C1132.58 -114.279 1130.19 -105.259 1128.65 -96.6786C1127.21 -88.6829 1125.46 -87.1227 1118.29 -89.2192C1113.32 -90.6818 1107.98 -93.4364 1112.3 -82.9786C1113.81 -79.2977 1112.79 -74.6173 1117 -70.5463C1118.9 -68.718 1115.27 -62.8919 1110.86 -62.1849C1108.23 -61.7705 1105.67 -62.575 1102.89 -60.8929C1096.19 -56.8707 1095.48 -54.6036 1092.97 -46.3885C1089.7 -35.6382 1084.49 -25.6192 1073.88 -19.793C1069.11 -17.1603 1062.01 -14.6982 1066.16 -7.62888C1070.13 -0.827637 1074.61 -6.67813 1079.25 -8.82333C1089.53 -13.5525 1094.33 -23.2058 1100.94 -31.1772C1106.28 -37.6371 1113.47 -40.733 1120.22 -37.7834C1128.41 -34.2 1139.74 -32.6885 1141.04 -20.2806C1141.23 -18.501 1138.7 -14.4544 1143.69 -16.5996C1155.78 -21.7432 1161.56 -11.0173 1167.94 -5.41052C1171.67 -2.14398 1174.35 0.513123 1179.3 1.48819C1184.4 2.51205 1186.74 7.48499 1190.17 10.5809C1199.7 19.2348 1210.43 26.4016 1218.67 36.7619C1221.23 39.9797 1223.96 42.3443 1224.4 46.6591C1224.59 48.5361 1225.59 51.632 1226.71 51.8758C1244.16 55.6542 1235.17 62.3823 1229 69.2323C1227.54 70.8412 1226.81 73.6689 1226.81 75.936C1226.81 88.8071 1219.86 95.4377 1208.04 98.6312C1198.63 101.191 1198.75 101.532 1203.31 109.82C1203.85 110.82 1204.34 112.989 1204.14 113.087C1194.27 117.475 1198.66 128.883 1192.81 135.66C1186.83 142.583 1188.86 153.285 1183.76 161.28C1182.5 163.255 1185.23 163.328 1186.69 162.28C1189.3 160.403 1192.83 158.965 1194.2 156.405C1202.58 140.609 1215.33 127.859 1224.61 112.867C1240.6 87.1251 1259.93 63.9181 1277.63 39.4678C1301.39 6.65616 1330.33 -21.6457 1356.99 -51.9465C1371.2 -68.0842 1394.21 -63.5013 1402.69 -43.0001C1403.26 -41.6106 1404.5 -39.7092 1405.69 -39.4898C1420.34 -36.8083 1429.31 -24.7172 1440.04 -16.5996C1450.35 -8.82333 1460.1 1.04941 1469.68 10.3858C1478.74 19.2591 1482.59 33.3004 1496.02 37.7126V45.0258C1484.62 50.9494 1473.58 52.1195 1461.9 44.8064C1449.96 37.3226 1435.45 39.2972 1425.53 48.2679C1399.38 71.9138 1380.27 101.532 1358.09 128.518C1337.08 154.089 1320.75 183.025 1301.49 209.864C1298.18 214.496 1294.74 218.908 1289.87 222.028C1287.65 223.442 1285.6 226.782 1282.67 223.832C1280.26 221.394 1281.72 218.445 1283.26 216.031C1286.26 211.254 1289.01 206.232 1292.64 201.966C1301.61 191.484 1306.05 178.686 1311.88 166.546C1315.39 159.257 1325.94 157.453 1326.7 147.215C1326.91 144.216 1330.42 141.486 1326.89 138.244C1329.52 135.392 1333.23 133.198 1332.89 128.518C1332.28 128.761 1331.2 128.908 1331.13 129.273C1329.74 135.636 1317.46 133.661 1320.67 144.265C1322.94 151.749 1312.61 153.87 1310.49 160.866C1308.54 167.277 1302.32 172.372 1298.06 178.101C1297.13 179.344 1295.86 180.758 1295.74 182.172C1294.13 201.259 1292.45 203.063 1270.9 207.524C1269.78 207.768 1268.81 207.426 1269.22 209.352C1271.63 221.078 1265.88 229.536 1255.59 236.167C1250.57 239.409 1253.43 248.916 1249.36 254.718C1248.99 255.23 1254.38 256.229 1256.57 254.377C1259.62 251.817 1262.15 248.648 1264.93 245.747C1267.2 243.358 1269.88 240.36 1273.12 242.944C1276.41 245.577 1275.85 249.721 1273.19 252.743C1251.77 277.145 1244.7 309.103 1228.78 336.333C1222.57 346.985 1221.37 360.32 1211.11 368.876C1209.5 370.217 1209.87 374.19 1209.7 376.969C1209.6 378.383 1210.36 379.846 1210.72 381.284C1211.79 380.26 1213.35 379.407 1213.84 378.164C1216.3 371.972 1220.2 363.513 1226.74 368.023C1232.41 371.948 1229.51 381.114 1224.76 387.671C1217.84 397.276 1211.53 407.295 1205.07 417.216C1203.48 419.654 1200.36 422.896 1207.41 421.896C1210.31 421.482 1216.57 417.533 1216.45 424.992C1216.38 430.989 1221.18 438.961 1211.33 442.422C1203.09 445.323 1194.95 445.567 1186.3 443.982C1168.9 440.789 1153.56 430.039 1135.31 430.258C1130.14 416.387 1116.51 427.113 1107.03 420.726C1098.6 415.047 1085.44 413.73 1075.08 408.44C1064.45 403.004 1054.19 396.959 1043.34 391.839C1031.25 386.135 1031.42 371.607 1030.42 359.637C1028.52 336.893 1032.11 314.515 1035.66 292.088C1039.1 270.417 1041.22 248.526 1043.88 226.709C1044 225.685 1043.61 224.612 1043.46 223.54C1042.76 224.344 1041.61 225.027 1041.42 225.929C1037.54 243.261 1027.77 258.375 1022.77 275.097C1019.72 285.238 1012.19 293.039 1010.63 303.399C1010.07 307.153 1006.66 311.59 1010.17 314.856C1014.51 318.879 1015.99 312.711 1018.82 311.249C1021.16 310.03 1023.6 309.396 1025.4 311.614C1027.57 314.296 1026.6 317.221 1024.18 319.098C1019.28 322.901 1017.21 327.728 1017.24 333.822C1017.26 337.966 1016.19 342.013 1011.9 343.792C1010.92 344.182 1008.56 343.036 1007.88 341.939C1005.29 337.868 1005.56 333.651 1007.85 329.336C1009.05 327.094 1014.46 326.119 1011.48 323.145C1009.19 320.853 1007.22 325.509 1004.93 326.777C994.545 332.554 996.519 345.718 989.061 353.25C988.695 353.616 989.085 354.713 989.134 355.469C990.084 355.225 991.449 355.274 991.888 354.664C993.472 352.373 995.227 350.033 996.032 347.424C997.153 343.914 997.518 339.282 1002.37 340.452C1006.22 341.379 1005.25 345.864 1004.81 348.887C1003.1 360.807 1001.93 372.972 999.883 384.648C997.884 396.105 987.525 399.226 986.672 408.708C986.526 410.22 985.282 411.731 985.477 413.121C987.086 424.627 981.651 430.892 970.975 433.89C959.762 437.035 963.833 446.517 964.589 453.221C965.222 458.974 965.174 462.558 960.713 466.921C947.868 479.402 949.208 498.392 940.702 513.018C939.337 515.383 939.775 517.236 943.553 517.747C952.182 518.893 951.28 523.232 945.991 527.864C940.58 532.593 940.287 540.369 929.562 542.783C918.667 545.22 916.23 561.529 913.305 572.742C911.257 580.665 920.105 576.033 923.81 577.569C925.199 578.154 927.856 575.448 928.49 578.642C928.709 579.787 927.369 581.811 926.199 582.566C917.327 588.222 913.622 594.584 921.3 604.238C923.639 607.163 921.3 611.063 918.033 612.16C911.525 614.354 911.794 619.108 911.014 624.519C910.648 627.006 918.545 639.682 904.579 632.588C903.36 631.979 903.043 635.026 903.409 636.464C904.384 640.194 906.699 643.241 902.019 647.093C897.656 650.7 904.335 650.457 905.48 652.358C907.845 656.38 914.426 651.529 915.718 656.575C917.911 665.132 921.178 673.786 919.398 682.781C917.375 693.092 903.141 702.697 891.051 703.184C868.821 704.038 848.176 698.114 827.994 689.484C824.484 687.997 820 688.485 815.978 688.607C809.25 688.826 803.693 686.389 797.672 683.488C781.22 675.541 765.084 666.716 747.607 661.036C735.81 657.185 737.589 648.043 739.32 639.024C739.734 636.903 742.221 634.173 738.467 633.222C737.321 632.929 734.201 635.416 734.153 636.708C733.568 648.994 726.475 658.891 722.94 669.885C717.749 685.999 713.532 702.648 708.194 718.786C703.392 733.315 701.588 748.867 693.447 762.348C690.839 766.662 687.427 771.392 690.912 777.9C691.571 779.144 697.469 791.673 684.99 792.673C683.21 792.819 680.017 798.328 680.553 800.644C683.308 812.272 677.921 820.438 672.729 830.36C665.295 844.572 659.884 860.88 658.251 876.774C656.812 890.937 647.307 902.76 649.159 917.216C649.525 920.044 646.868 921.335 646.063 923.383C638.41 943.007 627.978 962.045 630.878 984.204C631.78 991.103 624.955 993.37 622.566 998.002C618.374 1006.12 616.448 1014.38 614.206 1022.72C608.771 1042.78 603.701 1062.97 598.68 1083.13C597.168 1089.22 593.732 1095.51 599.045 1101.53C600.337 1102.99 600.361 1105.24 599.021 1105.77C582.69 1112.18 586.005 1125.96 586.395 1138.71C586.492 1141.58 585.639 1143.78 583.421 1146.17C580.764 1148.97 577.644 1153.31 577.986 1156.67C580.082 1178.17 566.847 1196.16 564.945 1216.62C564.75 1218.81 563.629 1222.78 567.285 1221.98C579.107 1219.35 572.794 1224.05 570.99 1228.9C569.503 1232.88 563.678 1240.63 575.378 1240.65C578.717 1240.65 578.717 1243.53 579.131 1245.89C579.472 1247.87 579.351 1251.21 580.35 1251.6C598.948 1258.98 581.642 1269.88 582.763 1278.9C583.031 1281.02 579.619 1290.06 574.793 1280.61C573.696 1278.44 573.062 1280.19 572.696 1280.8C572.111 1281.82 572.038 1283.17 571.478 1284.21C569.187 1288.33 564.555 1289.63 561.167 1288.41C556.658 1286.8 560.095 1282.68 561.265 1280.19C563.97 1274.39 561.874 1266.93 567.529 1262.27C568.602 1261.37 569.43 1260.88 567.456 1260.2C561.362 1258.11 551.734 1267.44 553.051 1274.44C554.245 1280.8 558.998 1288.14 547.493 1290.04C545.811 1290.31 545.153 1293.65 546.275 1293.87C554.269 1295.43 558.315 1303.96 565.482 1305.4C570.917 1306.47 574.768 1307.32 576.158 1312.88C577.059 1316.49 575.451 1319.24 572.306 1321C567.042 1323.95 565.335 1321.54 562.532 1316.61C559.778 1311.81 559.339 1321.49 554.952 1319.83C548.809 1317.51 548.468 1317.93 547.859 1324.66C547.176 1332.31 544.861 1339.45 538.889 1344.25C535.867 1346.67 536.037 1347.57 538.645 1349.15C540.522 1350.3 542.813 1352.59 541.18 1353.54C523.996 1363.49 541.887 1370.46 543.496 1378.53C544.154 1381.87 550.028 1385.45 545.007 1388.35C540.327 1391.06 535.964 1387.6 534.014 1382.33C533.405 1380.67 534.575 1377.53 531.601 1377.92C530.382 1378.09 528.847 1380.87 528.579 1382.65C527.214 1391.94 521.778 1401.18 531.016 1410.24C535.818 1414.95 529.944 1437.91 524.167 1441.25C520.755 1443.23 519.853 1440.64 520.511 1437.91C521.754 1432.69 519.78 1426.77 524.752 1422.24C527.068 1420.12 524.338 1416.92 523.387 1414.39C523.143 1413.78 521.12 1413.14 520.462 1413.51C517.878 1414.95 518.317 1417.78 518.536 1420.04C519.17 1426.75 515.197 1432.72 515.441 1439.08C515.587 1443.32 501.523 1456.34 521.388 1450.9C524.094 1461 526.921 1456.56 531.626 1451.78C535.233 1448.1 537.914 1453.37 539.986 1455.93C542.497 1459 540.4 1461.22 537.427 1462.39C531.357 1464.75 522.51 1462.02 520.413 1471.77C520.389 1471.94 517.366 1471.8 515.977 1471.26C514.027 1470.48 513.491 1464.31 510.615 1468.92C509.664 1470.46 513.978 1475.28 515.88 1478.62C521.803 1473.16 526.19 1485.03 533.259 1479.77C537.085 1476.94 541.083 1482.77 539.913 1486.81C537.305 1495.9 538.816 1505.7 534.136 1514.43C527.945 1526.04 529.578 1539.59 525.849 1551.87C524.703 1555.63 525.849 1559.6 519.073 1558.97C509.567 1558.09 501.133 1570.91 504.131 1580.25C506.008 1586.05 509.713 1592.49 498.671 1592.49C496.088 1592.49 494.284 1595 496.258 1595.97C500.889 1598.26 492.505 1605.29 501.036 1606.11C508.445 1606.85 511.078 1612.14 509.152 1620.01C506.471 1631 511.882 1643.34 502.206 1653.53C498.818 1657.11 503.961 1654.31 504.497 1654.21C508.86 1653.45 511.76 1655.11 512.906 1659.23C517.22 1674.74 499.329 1700.6 483.705 1699.7C471.25 1698.97 458.844 1698.75 446.437 1698.75C432.909 1698.75 418.455 1703.62 407.682 1690.51C407.34 1690.09 405.78 1689.97 405.415 1690.34C395.543 1700.58 387.231 1691.09 378.383 1688.29C376.482 1687.68 373.972 1686.49 372.582 1687.17C359.786 1693.55 347.282 1685.97 334.583 1686.7C322.469 1687.41 316.131 1678.83 317.618 1666.5C323.297 1618.89 328.148 1571.16 334.583 1523.65C340.067 1483.3 345.478 1442.91 352.01 1402.76C360.834 1348.57 368.171 1294.11 377.823 1240.09C384.282 1203.96 389.693 1167.72 395.982 1131.59C404.586 1082.25 411.679 1032.57 422.891 983.814C428.254 960.51 428.497 936.644 436.005 913.389C443.926 888.865 444.901 862.075 448.557 836.211C451.312 816.684 457.625 797.914 459.599 778.168C462.329 750.964 471.177 724.88 475.613 697.87C481.731 660.793 491.359 624.276 497.331 587.174C502.084 557.653 511.322 529.107 515.295 499.586C519.39 469.213 527.823 440.033 535.184 410.488C539.45 393.302 539.303 374.995 543.837 357.906C554.318 318.269 558.852 277.438 568.87 237.849C573.72 218.689 578.79 199.553 583.372 180.319C584.055 177.491 586.176 173.64 581.52 174.615C577.254 175.517 573.452 168.277 569.82 174.444C569.455 175.053 566.237 178.856 570.356 177.832C573.793 176.979 575.841 175.98 576.231 180.124C576.572 183.927 574.159 186.048 570.405 186.486C559.095 187.803 558.803 198.456 554.562 205.574C550.394 212.546 542.497 217.397 548.444 229C552.636 237.191 542.862 254.157 540.083 254.255C525.166 254.767 530.675 266.248 527.409 272.733C523.704 280.095 515.636 286.067 520.584 296.013C520.876 296.598 520.194 298.402 519.609 298.621C511.005 301.766 509.884 311.395 503.887 316.612C497.818 321.901 500.085 327.411 502.23 333.091C504.619 339.453 507.934 338.77 511.517 333.968C514.734 336.503 520.389 338.819 520.608 341.598C520.974 346.01 515.538 342.89 513.15 343.841C506.617 346.449 501.084 347.302 493.504 346.23C486.898 345.304 492.236 352.154 494.211 355.493C494.723 357.37 494.04 358.053 492.163 357.516C483.803 359.15 486.777 365.707 487.459 370.168C488.312 375.677 492.285 373.947 495.844 372.045C498.647 370.534 500.085 372.167 501.279 374.8C503.449 379.505 505.618 384.307 508.494 388.573C512.102 393.936 510.785 397.178 505.667 400.469C499.134 404.662 497.258 398.689 494.04 395.691C491.237 393.083 494.284 385.867 488.531 386.403C484.12 386.818 482.048 391.571 481.56 396.52C481.195 400.347 478.587 399.957 476.807 397.373C474.784 394.423 473.224 388.89 469.934 395.789C468.374 399.031 460.135 402.931 469.422 407.685C476.198 411.146 476.393 414.778 467.716 415.802C464.913 416.119 464.62 418.386 464.986 420.288C465.839 424.7 467.765 420.848 469.13 420.556C475.491 419.264 474.321 424.066 474.492 427.357C474.711 431.891 473.639 435.011 467.667 434.67C455.09 433.963 447.144 446.274 452.799 457.121C458.185 467.433 465.644 478.086 448.265 484.765C446.51 485.448 444.999 487.252 445.584 489.689C449.191 504.633 442.196 516.797 435.298 528.985C433.226 532.642 431.666 536.762 433.202 540.613C441.075 560.188 437.979 581.177 432.153 598.801C423.452 625.007 427.79 652.114 420.527 677.857C431.422 689.972 415.213 696.091 414.726 704.891C414.019 717.884 413.434 731.169 414.36 744.187C414.969 752.865 412.873 760.714 412.288 768.93C410.582 793.063 410.631 817.318 414.116 841.427C414.238 842.232 414.409 843.036 414.677 843.767C424.817 870.704 414.726 883.551 385.452 880.358C361.37 877.725 338.604 870.436 316.96 859.564C314.839 858.491 312.378 856.712 310.354 857.053C289.027 860.466 276.157 845.839 261.752 834.553C257.754 831.433 253.221 832.651 248.906 832.286C239.376 831.506 234.111 827.337 234.452 816.879C235.525 785.409 238.133 754.084 241.131 722.71C245.372 678.222 254.951 634.563 259.071 590.123C261.142 567.745 264.555 545.489 270.015 523.598C270.112 523.208 270.38 522.842 270.405 522.452C270.624 516.382 270.844 510.312 271.039 504.242C270.77 504.316 270.234 504.364 270.234 504.438C269.576 512.043 260.752 515.578 260.801 523.622C260.923 539.467 257.072 543.27 240.644 543.148C236.792 543.124 233.599 544.733 232.795 547.658C229.968 558.092 222.314 565.454 216.878 574.205C214.539 577.983 215.855 581.957 218.243 584.029C221.485 586.832 225.629 582.639 225.678 580.665C225.873 573.815 235.184 574.571 235.208 567.842C235.208 565.697 237.792 563.455 240.619 565.258C243.032 566.77 242.959 569.159 241.96 571.719C239.01 579.373 235.525 586.71 232.966 594.657C227.652 611.283 217.488 626.372 209.176 642.022C207.909 644.411 206.032 647.58 202.668 645.411C199.719 643.485 202.424 641.169 203.448 639.194C204.204 637.756 205.349 636.025 203.789 634.977C202.936 634.392 200.986 635.294 199.573 635.684C190.383 638.244 192.041 648.19 187.385 653.894C186.679 654.747 187.58 655.6 192.26 653.065C195.697 651.188 199.183 649.043 201.108 654.138C202.644 658.184 200.889 661.402 196.038 661.694C192.187 661.938 188.872 663.206 186.459 666.229C184.339 668.886 182.486 671.787 180.512 674.566C183.096 673.615 185.777 672.786 188.287 671.665C192.821 669.641 195.868 671.616 196.331 675.809C196.891 680.928 195.234 686.169 188.677 685.584C177.928 684.609 171.908 689.704 168.568 699.211C167.52 702.161 165.253 704.891 170.445 706.817C177.611 709.449 174.15 713.374 170.006 714.812C160.89 717.981 157.527 725.66 156.235 733.388C154.261 745.186 145.681 741.578 140.635 739.872C133.762 737.532 138.027 731.706 139.953 726.928C147.094 709.059 150.556 689.801 160.817 673.103C161.744 671.592 162.133 669.081 160.11 667.74C159.794 667.521 157.941 669.544 156.844 670.568C146.12 680.757 141.976 694.482 139.831 708.06C138.344 717.372 136.589 723.783 126.62 724.661C119.527 725.27 118.308 730.584 117.406 735.557C116.87 738.556 117.918 741.505 115.554 744.504C111.873 749.16 107.51 755.278 119.527 751.402C121.282 750.842 122.866 751.695 123.329 753.426C124.085 756.205 124.402 758.886 121.355 760.934C112.483 766.906 115.871 781.606 104.049 785.799C103.83 785.872 105.073 790.162 105.658 792.453C106.072 794.038 106.609 795.72 104.878 796.817C103.025 797.987 101.197 797.914 99.345 796.476C98.0531 795.501 99.1011 790.235 95.1769 793.941C93.7388 795.306 92.8613 797.061 93.9825 799.425C96.9075 805.593 96.42 812.223 95.8107 818.732C95.1769 825.533 95.7131 832.578 84.2328 830.311C81.5516 829.775 94.6894 840.062 84.769 843.816C70.4368 849.252 75.4092 859.076 75.6042 869.339C75.7017 874.263 71.2169 881.04 65.367 884.697C60.7115 887.598 56.3728 890.645 64.9039 894.667C69.0475 896.641 67.2925 900.103 64.0508 900.396C56.9091 901.054 58.6153 903.491 58.7371 909.391C58.9078 918.483 61.3696 931.233 46.9399 934.499C44.4781 935.06 43.3569 937.424 44.1856 939.131C48.7924 948.467 41.6993 953.27 36.6782 958.511C27.9278 967.677 33.0464 979.719 29.9753 990.25C27.5865 998.44 30.9503 1007.51 17.9831 1007.97C16.4719 1008.02 12.6207 1011.19 15.8868 1012.97C24.7104 1017.82 17.715 1021.16 15.5212 1025.18C13.7906 1028.38 11.1095 1031.76 11.1583 1035.03C11.207 1039.1 13.5957 1043.12 14.9607 1047.17C16.2525 1044.27 17.9343 1041.49 18.8118 1038.47C25.9048 1013.94 42.0162 992.834 45.6724 966.896C46.2086 963.021 49.2311 956.536 55.471 958.291C63.6121 960.583 59.6877 967.652 57.8596 971.431C50.011 987.544 47.208 1005.36 39.3839 1021.82C34.6552 1031.74 29.8046 1046.2 31.6571 1059.77C31.9984 1062.33 32.2909 1066.31 29.1222 1067.33C13.1326 1072.47 19.0555 1085.88 17.8124 1096.56C17.6418 1098.05 18.9824 1100.26 18.3243 1101.07C9.11078 1112.28 12.8157 1128.59 3.67529 1139.41C-4.58765 1149.21 -7.19568 1161.55 -11.2662 1172.64C-17.2136 1188.73 -22.6003 1205.72 -22.2592 1223.59C-22.186 1227.76 -22.8928 1230.44 -17.5061 1232.31C-12.7775 1233.97 -10.6324 1238.51 -14.898 1244.11C-19.6266 1250.31 -17.043 1260.2 -24.7697 1265.18C-20.236 1271 -20.0167 1276.36 -25.1109 1282.39C-28.3771 1286.24 -31.7164 1289.28 -36.25 1286.46C-42.1974 1282.75 -37.03 1279.73 -34.4464 1277.1C-32.862 1275.46 -31.3752 1274 -33.5445 1272.2C-36.4694 1269.78 -39.053 1271.42 -40.6374 1274.02C-46.3167 1283.46 -49.1685 1294.18 -49.9728 1304.76C-50.9235 1316.95 -49.0223 1328.58 -60.8195 1337.89C-65.3288 1341.45 -72.8605 1350.37 -63.0375 1358.44C-62.3307 1359.03 -63.0375 1362.54 -64.11 1363.9C-69.1555 1370.36 -66.3768 1372.34 -59.7226 1374.51C-48.3641 1378.21 -52.6785 1388.62 -54.799 1394.76C-57.6265 1402.93 -56.8708 1411.63 -60.4295 1419.36C-61.7214 1422.14 -61.697 1423.7 -58.4064 1424.75C-55.8227 1425.55 -50.4847 1423.16 -51.3622 1428.43C-51.996 1432.26 -55.6033 1435.25 -60.0882 1435.86C-63.6713 1436.35 -68.8387 1433.87 -68.5706 1440.98C-68.4 1445.59 -68.2049 1448.95 -62.3063 1450.69C-55.0915 1452.81 -59.7713 1458.22 -60.7463 1462.56C-61.2338 1464.7 -66.3525 1468.68 -59.5032 1469.04C-57.0414 1469.16 -53.6778 1465.99 -52.8978 1470.48C-52.1666 1474.77 -54.9453 1479.45 -58.6014 1480.28C-69.0824 1482.64 -74.1035 1486.67 -69.9599 1498.44C-68.6437 1502.19 -73.811 1505.9 -77.321 1508.85C-91.1656 1520.53 -108.983 1529.08 -124.924 1526.96C-150.152 1523.62 -176.184 1527.81 -201.387 1516.09C-212.428 1510.95 -225.932 1504.07 -240.191 1504.07C-250.867 1504.07 -254.328 1497.03 -251.062 1483.64C-243.286 1451.9 -235.292 1420.21 -227.565 1388.47C-216.012 1341.09 -204.726 1293.62 -193.075 1246.23C-182.618 1203.72 -171.431 1161.38 -161.34 1118.79C-150.542 1073.28 -137.038 1028.55 -124.875 983.448C-113.517 941.398 -101.5 899.591 -88.9963 857.906C-68.8874 790.918 -49.7778 723.637 -29.8395 656.575C-23.0878 633.856 -13.9474 611.819 -7.92694 588.953C0.482239 557.068 9.5495 525.451 20.2499 494.248C28.2203 470.992 33.7778 446.859 42.9913 424.139C46.6962 415.022 47.1349 405.028 52.278 396.569C54.5204 392.863 53.0823 387.452 50.7667 386.598C38.287 381.991 46.1356 376.384 49.1092 370.631C50.5961 367.706 51.5955 363.367 55.3248 364.683C60.1752 366.39 55.7147 370.046 55.4466 372.85C55.3491 373.922 54.7885 374.946 54.4229 375.994C55.1785 375.239 56.2753 374.629 56.6166 373.727C59.3221 366.609 63.807 359.491 64.0995 352.251C64.9038 331.823 73.8005 314.442 82.6241 297.037C87.2065 287.993 86.3777 278.144 88.3765 268.832C93.3732 245.479 103.976 223.954 108.656 200.649C112.02 195.213 111.849 188.485 115.115 183.025C115.53 182.342 115.725 181.562 115.871 180.782C115.773 181.197 115.749 181.635 115.53 181.977C112.02 187.705 112.41 194.945 108.315 200.43C94.1776 229.293 79.5285 257.911 66.0251 287.066C53.9597 313.174 40.3588 338.551 30.6578 365.853C26.8066 376.653 17.2519 385.55 16.0331 398.104C15.8869 399.64 14.0344 400.518 12.1819 399.738C8.4527 398.202 8.45264 394.984 8.28204 391.62C8.1358 388.622 12.2064 385.916 8.84265 382.771C8.25769 383.649 7.18524 384.526 7.18524 385.404C7.30713 390.377 -1.24841 394.813 4.38214 399.226C12.2794 405.393 13.1813 410.025 4.82092 415.705C2.9928 416.948 1.38409 418.191 2.35907 420.483C3.72406 423.652 3.55347 426.358 -0.0539551 427.113C-3.9295 427.918 -7.04944 425.577 -9.51129 422.774C-11.9 420.044 -10.6569 416.241 -8.65814 415.168C-2.15021 411.731 -4.31952 407.831 -6.2207 402.834C-7.43945 399.616 -7.22009 395.325 -4.78265 392.303C4.30902 381.089 5.67401 367.389 8.0871 353.982C11.8651 349.399 15.0338 344.645 14.9607 338.283C14.8632 330.945 21.7368 326.899 23.8329 320.561C24.7104 319.878 25.7098 319.415 26.8066 319.196C30.7309 310.956 38.2139 304.374 38.1651 294.233C38.1651 291.82 43.2837 289.529 39.6519 287.115C37.0682 285.409 33.3146 286.408 31.6571 290.138C30.7065 292.259 29.9753 295.135 26.9041 293.697C26.2704 293.405 26.7822 290.04 27.1966 288.212C30.4141 274.439 35.947 261.787 44.405 250.281C50.9617 241.384 52.0342 229.951 57.1528 220.078C60.9553 212.716 62.1983 210.669 68.3163 216.714C69.9006 218.274 71.3387 221.029 74.1906 218.177C76.0186 216.348 77.1155 214.593 76.433 211.741C75.5311 207.963 73.1668 208.743 70.8513 209.596C63.027 212.448 65.9276 206.183 66.5857 203.867C68.3651 197.749 70.3881 191.484 73.5568 185.999C85.0128 166.107 90.3264 143.436 103.732 124.154C113.165 110.6 117.577 93.6582 125.426 78.8613C132.348 65.8195 140.586 53.509 145.169 39.2728C145.949 36.8107 148.094 35.2262 150.872 37.0544C154.26 39.2728 156.308 42.2955 153.944 46.269C148.021 56.1661 142.975 66.3802 139.1 77.3255C135.37 87.8808 130.13 97.8998 125.572 108.163C124.792 109.942 123.427 112.136 126.498 112.819C127.205 112.965 128.74 110.917 129.399 109.625C145.949 78.0324 162.133 46.269 174.808 12.8723C175.661 10.6053 177.075 8.55759 177.831 6.26614C178.269 4.94977 178.976 2.78021 176.539 2.48767C175.905 2.41455 174.857 3.97464 174.345 4.97412C171.103 11.3609 168.081 17.894 164.693 24.2077C163.206 26.938 161.232 30.5701 157.405 28.9856C153.164 27.2305 153.505 22.8913 154.967 19.5029C157.527 13.628 160.476 7.82626 163.864 2.39014C166.204 -1.38831 168.715 -3.60663 165.741 -9.189C162.889 -14.5276 167.423 -17.4041 172.98 -14.5763C181.243 -10.3835 182.096 -13.5281 179.464 -20.5975C178.001 -24.5466 179.586 -28.8126 181.657 -30.8846C199.109 -48.3875 198.963 -74.2029 211.882 -93.7046C216.732 -101.042 204.691 -104.894 208.152 -111.914C204.521 -112.743 204.057 -109.867 203.814 -107.648C203.034 -100.14 203.351 -92.437 201.815 -85.0994C200.353 -78.1276 200.426 -69.0349 189.384 -68.8399C185.46 -68.7668 187.873 -66.4997 188.165 -64.6958C190.042 -52.4097 186.435 -48.875 173.224 -46.9005C167.959 -46.1204 168.568 -39.1972 167.057 -35.175C165.132 -30.0314 169.031 -35.3457 170.299 -34.3218C172.298 -32.7373 172.858 -30.5677 171.737 -29.1539C164.157 -19.6956 163.06 -4.94736 148.874 -0.754486C148.045 -0.510712 147.533 0.903137 146.899 1.78073C147.899 2.21951 149.215 3.3165 149.824 3.02399C153.359 1.24445 156.893 -0.21817 158.989 4.51099C161.037 9.16702 156.82 11.3122 153.992 12.9942C136.297 23.5495 135.248 42.3931 130.544 59.3839C129.521 63.0405 127.546 65.4539 123.744 64.5763C119.186 63.528 120.088 60.0909 121.379 56.8487C122.257 54.6548 123.061 52.4608 123.914 50.2669C122.33 52.3389 120.307 54.216 119.259 56.5074C116.675 62.1386 112.97 67.4771 118.601 74.0346C124.085 80.4458 116.334 81.6646 113.165 84.2974C109.85 87.052 101.782 87.0276 108.169 94.682C109.923 96.7785 107.974 99.5575 106.194 101.118C98.2969 108.065 102.343 124.3 87.2065 125.544C90.0339 132.418 85.6221 138.463 84.7934 144.923C84.1597 149.848 82.8434 155.747 76.0917 149.214C72.8499 146.093 71.363 149.848 70.8024 151.237C64.6844 166.278 53.8623 179.685 54.4229 197.115C54.4473 198.212 54.2766 200.138 53.7647 200.284C46.9643 202.405 44.3318 205.769 49.6699 212.034C38.5063 220.054 39.5301 233.217 35.8983 244.431C35.3621 246.089 33.4121 248.331 31.9009 248.502C15.0338 250.476 21.7124 264.786 18.2269 273.805C14.5463 283.288 14.1807 294.233 3.50464 300.498C-1.24835 303.302 -3.8808 309.786 -7.31757 314.71C-7.82947 315.441 -7.56134 316.733 -7.63446 317.782C-6.5376 317.392 -5.31885 317.221 -4.39264 316.612C-0.80957 314.296 1.9447 315.271 3.40717 318.927C4.77209 322.316 2.11536 323.949 -0.37085 325.558C-4.05139 327.971 -7.65887 330.507 -11.2175 333.091C-12.8506 334.261 -15.7024 335.796 -15.6293 336.991C-14.5081 352.446 -25.7447 363.733 -30.4733 376.969C-34.1539 387.281 -36.1525 398.007 -40.1255 407.904C-42.7823 414.535 -47.0479 421.701 -52.9465 427.65C-57.9677 432.72 -61.697 442.276 -60.8195 449.199C-59.8445 457 -64.6219 461.778 -67.8393 462.631C-78.3203 465.434 -78.2228 475.941 -76.4435 479.719C-72.373 488.373 -79.4171 490.591 -81.294 495.857C-85.3401 507.29 -95.2118 515.529 -97.1861 527.888C-97.8442 532.081 -97.3568 537.347 -104.572 538.444C-110.519 539.321 -111.665 545.513 -112.079 550.949C-113.346 568.135 -122.267 583.127 -125.972 599.606C-126.143 600.386 -126.314 601.605 -126.825 601.824C-140.597 607.748 -139.013 621.326 -142.425 632.515C-143.668 636.61 -143.4 642.266 -150.688 642.558C-154.637 642.729 -154.515 648.385 -153.857 650.725C-149.811 665.4 -158.634 673.688 -168.018 682.171C-170.48 684.414 -173.722 688.387 -170.456 691.654C-162.339 699.723 -171.211 707.792 -174.112 708.474C-182.911 710.595 -178.889 721.199 -186.421 723.588C-188.127 724.124 -182.326 729.268 -184.495 734.558C-189.76 747.307 -194.757 760.056 -200.899 772.513C-204.799 780.411 -207.359 789.333 -209.138 798.645C-212.038 813.808 -215.475 832.578 -229.296 840.477C-239.435 846.278 -232.83 855.103 -238.899 859.661C-229.174 869.9 -243.628 871.362 -246.163 876.774C-247.771 880.211 -250.574 880.796 -247.844 885.696C-244.578 891.571 -244.822 898.153 -254.279 898.835C-255.401 898.908 -256.814 898.226 -256.741 899.908C-255.425 925.748 -270.561 946.127 -278.751 968.871C-282.066 978.11 -285.162 988.153 -287.355 998.172C-289.33 1007.05 -292.523 1019.65 -305.417 1022.77C-306.709 1023.09 -307.611 1024.96 -308.683 1026.11C-307.367 1025.5 -306.099 1024.62 -304.734 1024.35C-300.493 1023.5 -301.639 1026.21 -301.858 1028.67C-302.711 1037.42 -302.053 1046.93 -313.729 1049.53C-314.362 1049.68 -314.85 1050.51 -315.41 1051.02C-303.857 1061.41 -322.235 1066.87 -319.554 1076.01C-318.555 1079.42 -322.065 1080.84 -324.575 1081.96C-330.596 1084.66 -331.083 1090.29 -330.303 1095.17C-327.817 1110.82 -331.278 1123.74 -344.489 1133.44C-350.437 1137.8 -351.801 1147.63 -351.631 1151.38C-350.948 1166.79 -356.555 1178.83 -364.33 1191C-369.107 1198.48 -370.204 1207.79 -372.958 1215.71C-376.907 1227 -375.298 1241.58 -386.852 1250.09C-389.143 1251.77 -392.629 1253.86 -385.877 1255.64C-381.441 1256.81 -386.754 1259.69 -387.193 1261.88C-388.071 1266.42 -402.354 1269.47 -388.851 1275.83C-387.583 1276.44 -388.388 1279.61 -389.972 1279.63C-398.868 1279.75 -395.383 1287.5 -397.699 1291.62C-398.722 1293.48 -402.354 1295.43 -399.015 1297.35C-396.577 1298.77 -392.361 1296.55 -391.946 1294.31C-389.241 1279.68 -380.905 1267.3 -376.249 1253.57C-371.984 1241.02 -360.625 1229.41 -368.498 1214.28C-368.864 1213.57 -367.913 1211.25 -367.352 1211.16C-346.488 1208.18 -353.337 1188.29 -348.608 1176.95C-339.005 1153.94 -329.548 1130.54 -323.917 1105.58C-320.627 1091.05 -310.267 1077.13 -304.344 1062.33C-299.177 1049.41 -293.547 1036.66 -288.867 1023.57C-282.578 1006.07 -275.997 988.885 -272.658 970.114C-270.147 956 -259.69 943.08 -254.06 928.917C-244.213 904.101 -231.952 880.236 -224.981 854.298C-222.471 844.986 -216.499 837.186 -212.55 828.654C-201.655 805.203 -199.632 778.047 -182.619 757.326C-181.375 755.815 -179.742 753.718 -179.937 752.085C-181.4 739.994 -172.284 731.803 -167.774 722.467C-159.828 705.963 -156.172 687.997 -148.007 671.738C-141.913 659.622 -136.38 647.214 -129.677 635.465C-126.582 630.053 -125.339 634.49 -124.022 637.781C-121.634 643.704 -119.342 644.435 -115.394 638.097C-111.201 631.345 -110.787 623.081 -105.083 616.743C-102.354 613.72 -101.622 605.505 -111.591 608.625C-117.758 610.551 -118.782 606.066 -117.929 601.702C-114.906 586.223 -103.231 575.18 -96.6255 561.529C-95.8943 560.017 -94.3343 558.847 -92.6525 559.774C-90.0931 561.163 -90.0444 564.015 -90.7756 566.209C-93.335 573.864 -96.3087 581.372 -99.0873 588.929C-99.7454 590.733 -101.549 593.56 -99.5992 594.292C-96.9911 595.267 -97.2836 592 -96.6743 590.196C-92.9694 579.202 -82.5371 572.133 -79.4903 560.724C-79.0516 559.067 -77.7841 557.385 -76.2728 559.067C-71.6904 564.113 -66.7668 569.549 -66.4744 576.496C-66.2062 583.224 -72.0317 589.002 -77.3941 589.562C-92.8718 591.22 -85.1208 606.163 -91.8725 612.428C-92.4819 613.013 -91.0925 615.012 -89.7763 614.183C-85.9495 611.746 -83.2927 612.111 -83.6583 617.084C-84.0239 621.984 -88.4357 624.154 -92.3356 623.91C-97.308 623.593 -101.403 623.3 -102.719 629.102C-103.328 631.808 -103.962 636.854 -103.328 637.074C-99.6479 638.317 -99.9648 634.1 -98.3317 632.32C-96.8936 630.76 -96.4061 627.176 -93.1156 628.834C-90.4344 630.175 -90.7513 632.686 -91.7263 635.172C-92.6281 637.415 -93.0912 639.877 -94.2125 641.973C-103.816 659.817 -108.106 680.099 -119.684 697.017C-120.439 698.114 -120.001 700.089 -119.927 701.624C-119.635 707.377 -121.439 713.398 -126.85 714.374C-132.748 715.422 -139.378 713.691 -145.374 712.058C-146.764 711.668 -151.444 706.89 -145.594 703.818C-141.182 701.502 -145.179 698.016 -144.716 695.14C-144.083 694.238 -143.424 693.36 -142.961 692.361C-143.741 693.141 -144.351 694.067 -145.082 694.896C-154.954 713.594 -163.338 732.949 -171.041 752.621C-171.747 754.401 -173.186 756.839 -170.456 757.594C-169.115 757.96 -166.288 756.4 -165.63 754.986C-161.9 747.015 -157.854 739.043 -155.514 730.633C-154.198 725.928 -151.419 722.93 -148.762 719.517C-146.569 716.689 -142.766 715.202 -140.207 717.469C-136.502 720.736 -141.158 722.759 -142.888 724.953C-144.107 726.513 -146.398 727.367 -147.3 729.024C-148.129 730.56 -148.543 733.485 -147.641 734.509C-145.594 736.874 -144.375 733.778 -143.01 732.754C-140.792 731.096 -138.403 727.952 -135.868 730.657C-134.308 732.315 -134.138 736.069 -134.625 738.653C-135.21 741.7 -136.721 744.845 -138.623 747.331C-146.91 758.204 -148.324 772.05 -154.295 783.556C-160.56 795.623 -160.755 813.467 -179.694 816.562C-184.154 817.294 -185.69 821.145 -179.694 823.461C-177.012 824.51 -172.82 827.167 -175.209 828.824C-186.128 836.332 -181.473 848.643 -185.422 858.15C-190.394 870.07 -194.513 882.356 -199.437 894.301C-204.361 906.222 -207.749 918.849 -215.183 929.672C-216.012 930.891 -216.085 932.695 -216.304 934.255C-218.254 947.395 -223.763 950.369 -235.56 945.396C-238.387 944.201 -241.58 938.107 -244.505 942.958C-247.723 948.248 -248.576 954.976 -250.331 961.095C-250.428 961.46 -249.404 962.63 -248.893 962.655C-246.236 962.752 -245.7 960.705 -245.334 958.681C-244.651 954.976 -243.628 950.247 -239.021 951.953C-234.877 953.489 -235.999 958.364 -238.265 961.338C-241.824 965.995 -239.898 971.772 -241.995 976.428C-245.334 983.863 -234.707 974.624 -235.95 982.205C-237.022 988.763 -247.796 1014.8 -254.547 1017.63C-257.814 1018.99 -265.102 1019.38 -256.107 1024.09C-252.086 1026.18 -252.598 1030.98 -253.962 1033.91C-261.762 1050.73 -264.078 1070.23 -278.483 1083.93C-282.846 1088.08 -277.533 1093.49 -279.921 1099.44C-292.498 1130.56 -303.345 1162.4 -314.85 1193.97C-315.898 1196.87 -317.141 1199.6 -312.973 1200.7C-308.634 1201.82 -308.781 1198.53 -308.269 1195.65C-307.611 1192.09 -306.563 1187.19 -302.443 1187.68C-295.862 1188.46 -299.323 1193.97 -299.933 1197.38C-300.737 1201.92 -298.811 1201.7 -296.398 1199.72C-286.795 1191.82 -290.28 1201.7 -290.134 1204.65C-289.793 1211.08 -295.423 1215.32 -297.373 1221.08C-298.738 1225.07 -300.055 1231.56 -305.222 1230.19C-311.462 1228.56 -305.904 1223.73 -305.636 1220.22C-305.466 1218.03 -305.149 1214.79 -308.122 1214.2C-310.462 1213.74 -311.291 1216.2 -311.559 1218.32C-312.266 1223.98 -318.092 1230.1 -308.537 1234.61C-305.368 1236.09 -306.514 1242.09 -307.659 1246.01C-308.001 1247.18 -309.853 1248.67 -310.999 1248.67C-313.46 1248.67 -322.382 1228.17 -321.309 1225.59C-319.164 1220.42 -312.632 1212.13 -318.238 1210.5C-323.917 1208.84 -323.015 1219.59 -324.526 1225.1C-326.428 1232 -331.376 1238.97 -322.308 1245.19C-320.432 1246.48 -320.529 1251.35 -326.793 1251.91C-336.47 1252.82 -347.17 1269.73 -345.586 1279.48C-345.513 1279.9 -346.512 1282.39 -344.465 1280.7C-335.568 1273.32 -332.156 1289.31 -323.503 1285.63C-321.894 1284.95 -320.773 1291.58 -322.65 1293.94C-330.133 1303.52 -331.863 1315.1 -335.105 1326.24C-335.812 1328.7 -337.128 1332.53 -340.662 1331.29C-342.978 1330.48 -342.88 1326.73 -341.784 1324.68C-338.322 1318.24 -342.832 1309.71 -336.226 1304.13C-335.69 1303.67 -336.226 1301.96 -336.226 1300.84C-337.25 1301.16 -338.542 1301.2 -339.273 1301.84C-343.027 1305.2 -344.635 1309.59 -345.781 1314.51C-347.438 1321.73 -344.172 1330.73 -352.776 1335.72C-353.264 1336.02 -353.361 1338.14 -352.85 1338.75C-350.753 1341.21 -343.953 1338.21 -345.464 1343.99C-345.976 1345.94 -352.435 1345.72 -354.897 1347.91C-359.601 1352.13 -358.87 1359.05 -361.405 1364.54C-367.279 1377.29 -371.082 1391.03 -376.688 1403.56C-380.149 1411.27 -382.66 1423.02 -393.652 1426.6C-399.185 1428.4 -400.16 1430.14 -393.482 1431.57C-393.238 1431.62 -392.97 1432.28 -392.994 1432.62C-393.336 1437.25 -400.063 1445.1 -390.021 1444.91C-384.609 1444.81 -380.588 1436.16 -379.613 1429.87C-376.347 1408.51 -366.646 1389.38 -359.674 1369.31C-357.334 1362.59 -355.555 1355.1 -348.877 1350.71C-345.172 1357.56 -349.705 1364.49 -348.73 1371.31C-347.682 1378.77 -354.653 1382.31 -356.481 1388.57C-362.112 1407.81 -369.034 1426.67 -375.347 1445.71C-378.955 1456.61 -391.312 1466.14 -403.427 1464.17C-416.735 1462 -413.347 1470.75 -413.176 1476.84C-413.006 1482.86 -405.669 1490.03 -417.637 1492.91C-420.611 1493.61 -417.929 1496.42 -416.954 1497.68C-411.836 1504.36 -419.636 1512.38 -414.639 1519.14C-414.054 1519.92 -414.883 1522.45 -417.296 1521.99C-420.659 1521.35 -423.609 1520.04 -424.437 1516.36C-425.095 1513.48 -421.683 1509.68 -425.9 1507.73C-427.898 1506.8 -428.605 1509.31 -428.337 1510.68C-427.508 1515.04 -434.675 1520.28 -427.874 1523.48C-424.437 1525.08 -423.365 1526.84 -423.999 1529.64C-425.559 1536.83 -426.363 1541.78 -416.077 1537.2C-410.958 1534.91 -411.543 1540.49 -411.714 1543.25C-412.006 1548.05 -413.298 1552.75 -413.883 1557.55C-414.346 1561.33 -414.371 1564.97 -408.886 1565.26C-398.04 1565.84 -401.428 1570.21 -406.668 1574.59C-408.155 1575.84 -411.104 1576.67 -409.252 1578.81C-402.768 1586.37 -412.031 1587.83 -414.127 1587.93C-419.636 1588.22 -417.759 1582.79 -417.661 1579.64C-417.539 1574.69 -416.564 1572.3 -424.218 1573.13C-429.629 1573.72 -427.192 1565.82 -426.29 1561.31C-425.632 1558.04 -423.048 1552.83 -427.362 1552.05C-431.408 1551.31 -435.601 1555.04 -435.698 1560.58C-435.698 1561.38 -435.601 1562.24 -435.82 1563.02C-437.112 1567.55 -432.895 1576.28 -440.037 1575.79C-446.106 1575.37 -440.963 1567.09 -442.084 1562.45C-442.401 1561.19 -442.206 1559.82 -442.255 1558.48C-442.645 1559.58 -442.937 1560.7 -443.401 1561.75C-447.106 1569.94 -455.588 1578.62 -440.329 1584.54C-437.697 1585.56 -437.599 1590 -438.818 1592.34C-446.131 1606.48 -448.275 1622.81 -457.66 1636.05C-458.781 1637.63 -458.927 1639.75 -461.681 1639.71C-464.411 1639.66 -465.728 1632.2 -468.896 1637.73C-470.871 1641.17 -465.24 1642.36 -463.973 1645.21C-462.12 1649.36 -462.9 1652.82 -465.825 1656.38C-469.043 1660.3 -466.386 1666.81 -464.241 1666.91C-459.439 1667.13 -464.119 1662.23 -462.73 1660.01C-459.536 1654.92 -455.1 1650.8 -452.858 1644.9C-451.81 1642.14 -448.665 1637.34 -444.766 1639.95C-441.816 1641.92 -442.133 1647.53 -444.961 1649.8C-450.25 1654.04 -449.567 1659.16 -449.324 1664.62C-449.275 1666.06 -450.713 1667.76 -448.592 1668.54C-448.105 1668.71 -446.496 1667.25 -446.204 1666.28C-443.303 1656.6 -432.578 1651.26 -432.042 1640.14C-431.871 1636.71 -428.727 1633.93 -425.071 1635.39C-421.074 1636.98 -424.023 1640.19 -424.803 1642.53C-434.358 1671.52 -447.276 1699.89 -452.444 1729.63C-456.027 1750.23 -469.701 1767.61 -468.141 1789.33C-467.775 1794.38 -471.846 1800.74 -474.234 1804.84C-481.108 1816.64 -480.767 1829.58 -483.789 1841.79C-489.615 1865.29 -494.611 1889.11 -506.652 1910.27C-512.916 1921.26 -502.484 1920.02 -498.974 1923.48C-496.366 1926.04 -496.293 1922.16 -495.879 1920.53C-495.245 1918.21 -495.001 1915.02 -491.662 1916.31C-489.2 1917.26 -489.444 1920.46 -489.688 1922.8C-490.931 1934.89 -487.713 1946.18 -483.472 1957.22C-481.425 1962.53 -482.229 1968.09 -486.543 1970.16C-492.71 1973.16 -490.711 1965.12 -493.222 1963.21C-496.951 1960.39 -497.049 1955.56 -500.412 1952.81C-502.094 1956.85 -504.093 1960.8 -505.36 1964.97C-506.872 1969.97 -507.578 1975.21 -509.017 1980.23C-510.089 1984.01 -508.846 1984.74 -505.214 1985.4C-494.806 1987.3 -492.247 1994.86 -495.221 2003.66C-498.316 2012.8 -501.582 2022.04 -505.409 2030.79C-509.918 2041.1 -519.936 2046.56 -531.075 2049.41C-557.351 2056.14 -584.09 2054.95 -610.829 2054.68C-627.549 2054.51 -644.368 2054.87 -660.991 2056.46C-673.52 2057.65 -678.687 2049.36 -685 2041.73V2031.98C-678.175 2027.89 -681.953 2020.01 -678.614 2014.41C-668.425 1997.29 -659.846 1979.5 -653.63 1960.34C-641.93 1924.28 -628.598 1888.82 -617.58 1852.49C-602.103 1801.55 -584.236 1751.33 -569.319 1700.23C-560.763 1670.91 -551.184 1641.78 -540.996 1613.18C-525.152 1568.74 -512.21 1523.38 -496.123 1479.01C-483.96 1445.49 -470.115 1412.44 -461.023 1377.68C-456.904 1361.95 -450.591 1346.42 -444.644 1331.04C-437.526 1312.69 -429.532 1294.65 -423.243 1276.02C-395.919 1195.41 -365.012 1116.13 -335.471 1036.35C-315.63 982.742 -293.473 930.014 -271.878 877.067C-242.97 806.202 -214.232 735.24 -184.252 664.815C-159.78 607.333 -133.553 550.583 -108.203 493.492C-90.1907 452.904 -72.5923 412.121 -54.3359 371.631C-38.4438 336.381 -21.9178 301.425 -5.56262 266.37C12.3038 228.098 29.2928 189.387 48.4999 151.822C64.1238 121.277 78.1392 89.9285 94.8113 59.8471C109.436 33.4467 121.063 5.38855 135.005 -21.4019C151.36 -52.8728 168.593 -83.905 185.777 -114.961C200.84 -142.166 216.05 -169.322 231.869 -196.113C241.497 -212.421 252.295 -228.047 262.824 -243.795C266.48 -249.28 286.955 -248.621 286.857 -243.38C286.687 -235.848 290.538 -238.675 293.707 -237.7C307.844 -233.312 318.812 -224.147 329.61 -214.371C336.118 -208.472 346.794 -207.229 348.086 -195.552C348.305 -193.7 354.911 -193.236 359.055 -195.625C364.076 -198.526 371.266 -204.182 369.609 -190.726C369.146 -186.972 372.656 -183.949 376.214 -182.754C388.011 -178.781 384.16 -171.931 377.311 -168.737C369.852 -165.276 369.73 -159.645 368.171 -153.794C367.683 -151.942 366.172 -149.821 369.024 -148.773C370.974 -148.041 375.142 -152.234 374.727 -146.457C374.337 -141.021 369.024 -140.996 365.489 -140.046C350.84 -136.072 342.748 -124.517 336.679 -112.621C333.437 -106.234 331.999 -98.2387 328.562 -91.3887C325.71 -85.6845 321.884 -80.1509 327.782 -73.8616C328.928 -72.6427 329.586 -69.0837 328.757 -68.1086C318.544 -56.5294 323.76 -42.2688 321.469 -29.3733C320.494 -23.8884 317.009 -19.208 311.598 -16.1609C307.966 -14.1132 305.894 -10.8466 307.868 -5.89807C309.623 -1.46143 312.109 0.878784 316.838 0.391235C329.708 -0.900757 329.586 7.26559 325.467 14.6275C316.424 30.7408 314.571 48.7555 309.501 65.917C307.698 72.0113 305.918 78.52 298.045 79.9095C296.973 80.1045 295.047 81.1527 295.096 81.3721C300.312 99.8256 278.57 107.066 277.985 122.838C277.863 126.055 271.331 131.638 281.008 133.369C284.371 133.978 281.836 138.61 279.058 140.389C277.205 141.559 274.036 141.096 274.28 144.606C276.206 144.411 278.107 144.119 280.033 144.046C282.787 143.924 285.273 139.707 287.516 141.998C290.026 144.558 286.662 147.97 286.346 151.091C286.102 153.455 285.029 155.722 284.42 158.063C283.518 161.597 282.787 165.741 278.863 166.765C273.208 168.252 275.792 162.572 274.207 160.427C272.964 158.77 271.599 156.697 269.43 157.868C267.919 158.672 266.237 160.768 266.115 162.377C265.676 169.569 268.016 176.882 261.825 183.415C259.461 185.901 263.677 185.17 265.091 184.853C267.407 184.341 270.063 180.148 271.697 185.121C272.988 189.07 271.087 192.264 267.114 193.873C264.165 195.067 260.899 195.725 258.242 197.383C255.78 198.919 251.588 200.649 254.561 204.769C257.218 208.45 260.899 207.792 264.214 205.354C271.014 200.357 273.695 192.312 277.473 185.463C293.463 156.503 313.231 129.956 330.341 101.727C337.41 90.0504 363.125 94.8527 368.682 107.894C369.779 110.478 370.681 113.818 374.118 113.672C385.793 113.136 394.105 120.424 402.904 126.104C406.146 128.201 407.779 127.494 410.314 126.104C413.848 124.13 418.211 126.153 418.821 128.396C421.697 139.073 430.423 141.608 439.051 144.46C441.781 145.362 442.732 147.556 443.902 149.555C446.047 153.212 446.388 154.991 449.069 149.238C461.378 122.765 473.688 96.2178 487.508 70.5243C500.207 46.8785 512.248 22.8426 525.191 -0.705719C538.255 -24.4978 549.882 -49.3382 562.849 -73.3253C581.642 -108.087 600.264 -142.971 620.153 -177.099C638.239 -208.131 654.57 -240.162 674.46 -270.219C688.816 -291.915 701.15 -314.927 715.116 -336.891C719.284 -343.473 725.354 -351.664 734.445 -348.885C750.849 -343.887 756.382 -335.794 755.724 -322.63C754.481 -321.143 753.116 -319.778 751.8 -318.34C753.14 -319.754 754.53 -321.095 756.016 -322.338C770.422 -332.942 775.077 -317.974 782.511 -311.636C785.266 -309.296 786.411 -306.493 790.994 -306.931C803.937 -308.223 808.3 -302.641 805.423 -290.501C804.254 -285.601 808.47 -287.137 810.883 -287.771C818.001 -289.672 824.874 -291.793 824.899 -280.263C824.899 -277.24 828.238 -276.923 830.505 -276.606C840.523 -275.168 843.106 -264.32 851.369 -260.396C854.66 -258.835 855.294 -253.887 850.711 -251.644C844.545 -248.646 844.008 -245.769 847.323 -239.358C852.271 -229.705 842.911 -206.229 833.503 -200.525C831.065 -199.063 829.189 -198.624 827.044 -200.623C822.242 -205.108 822.023 -198.77 820.121 -197.356C816.514 -194.699 819.146 -192.408 821.803 -190.994C826.897 -188.312 831.236 -183.486 829.847 -178.683C828.457 -173.832 822.339 -172.662 816.66 -174.174C814.954 -174.637 805.716 -155.232 806.886 -153.843C808.69 -151.698 810.42 -153.453 812.2 -154.184C816.782 -156.013 820.511 -154.745 821.608 -149.87C822.802 -144.555 818.269 -144.36 814.734 -143.702C812.005 -143.19 809.275 -142.776 806.545 -142.288C805.058 -142.02 803.035 -141.996 803.888 -139.704C804.107 -139.095 806.082 -138.656 807.057 -138.9C814.954 -140.923 822.193 -143.775 827.287 -133.025C830.895 -125.37 833.917 -118.618 829.578 -110.744C825.337 -103.041 827.775 -94.9234 830.505 -88.4391C834.624 -78.6151 831.845 -70.1562 826.751 -63.6963C803.839 -34.7119 797.404 -0.656982 794.723 34.6167C793.724 47.5854 783.145 55.6786 780.123 67.4528C779.343 70.4999 776.174 69.2567 774.054 67.8185C771.762 66.2583 769.422 65.7708 767.716 68.306C766.936 69.4517 766.449 71.6212 767.034 72.6695C768.326 75.0341 770.544 75.2291 773.298 74.449C776.174 73.6202 779.977 71.1093 782.195 73.9859C785.095 77.7643 780.927 80.4458 778.855 83.2735C769.691 95.7303 775.784 110.82 771.787 124.398C767.131 140.219 764.645 156.673 760.916 172.786C760.233 175.76 758.844 179.051 754.968 179.807C753.189 180.368 752.433 179.734 752.677 177.881L752.604 177.808Z" fill="black" fill-opacity="0.05"/>
</g>
</svg>
