<svg width="1166" height="626" fill="none" xmlns="http://www.w3.org/2000/svg"><mask id="a" style="mask-type:alpha" maskUnits="userSpaceOnUse" x="0" y="0" width="1166" height="626"><rect y=".559" width="1166" height="625" rx="33" fill="#D9D9D9"/></mask><g mask="url(#a)"><path d="M752.604 177.808c-5.362-1.926-8.726-4.534-4.558-10.701 1.316-1.926 2.828-4.778 2.291-6.655-1.413-5.046 4.51-14.285-4.68-14.554-8.506-.243.098 6.363-1.365 10.263-2.925 7.777-3.412 16.479-5.021 24.767-.487 2.536-2.096 4.681-4.826 4.632-3.266-.049-2.657-3.315-3.68-5.339-4.656-9.117.097-19.306-5.68-29.374-5.07-8.825-7.409-6.07-11.772-2.243-8.312 7.313-4.802 18.161-7.142 27.278-.878 3.364 2.73 3.194 5.045 1.78 6.191-3.73 11.066 1.609 13.748 4.388 4.606 4.729-3.9 4.973-5.728 7.118-7.045 8.312-9.336 16.991-8.044 27.254.195 1.535.292 3.095.463 4.631-18.159-1.682 1.194 19.575-12.577 20.575.365.999.487 2.315 1.194 2.974 2.072 1.877 4.388 1.511 6.703.219 4.314-2.389 5.899-5.192 3.705-10.385-2.754-6.484 2.438-9.361 7.142-11.823 2.949-1.535 5.533-1.95 8.336 1.487 4.217 5.144.999 7.874-2.145 11.214-2.633 2.779-6.337 4.827-3.096 10.141 2.292 3.754-1.803 4.461-4.631 4.778-8.555.95-12.382 7.459-18.281 12.578-16.599 14.505-27.031 29.545-21.595 52.338.292 1.243-1.39 2.852-1.902 4.388-1.681 5.192-7.751 14.114-4.387 14.797 7.97 1.584 2.706-8.557 6.215-12.457 2.048-2.291 2.682-6.826 6.679-5.777 4.241 1.121 1.073 4.656 1.121 7.142.049 2.804-.877 6.875.585 8.24 10.603 9.653 2.633 16.332-3.241 23.377-2.097 2.511-2.487 7.85-7.581 5.973-4.266-1.56-3.802-5.68-3.729-9.385 0-1.268 1.56-3.194-1.048-3.608-.171-.025-.317 2.34-1.024 3.047-5.801 5.972-6.849 13.261-6.825 21.208 0 5.07.219 11.043-2.242 15.041-6.118 9.97-5.338 13.188 6.654 9.214 2.194-.731 4.217-.707 4.948 1.682 1.365 4.315-1.682 8.654-4.582 8.752-24.692.926-14.381 20.501-17.867 32.616-.78 2.682-1.56 5.339-2.121 8.069-4.85 22.5-9.627 45-14.429 67.525-.244 1.146-.39 2.316-.585 3.486 10.115-.756 7.117 9.751 11.724 13.529 3.169 2.608 2.584-1.414 3.095-2.755 6.557-16.99 13.772-33.786 19.354-51.118 9.603-29.814 21.327-58.798 32.881-87.88 24.082-60.602 47.457-121.496 72.099-181.854 11.725-28.716 26.081-56.335 38.463-84.783 16.161-37.102 33.296-73.717 50.626-110.258 15.185-32.007 29.127-64.502 48.359-94.51 9.945-15.529 16.818-33.007 25.252-49.51 15.941-31.325 35.66-60.383 54.428-89.976 4.436-6.972 14.58-7.874 19.57-3.925 5.75 4.534 12.58 9.409 18.19 11.75 13.43 5.631 22.74 20.038 34.07 22.354 14.72 2.998 27.03 11.237 35.37 18.746 9.94 8.97 24.52 14.09 30.44 27.594 1.15 2.609 3.56 2.95 6.02 3.365 12.73 2.12 12.99 10.555 7.27 18.551-5.68 7.922-8.07 16.942-9.61 25.522-1.44 7.996-3.19 9.556-10.36 7.46-4.97-1.463-10.31-4.217-5.99 6.24 1.51 3.681.49 8.362 4.7 12.433 1.9 1.828-1.73 7.654-6.14 8.361-2.63.415-5.19-.39-7.97 1.292-6.7 4.022-7.41 6.29-9.92 14.505-3.27 10.75-8.48 20.769-19.09 26.595-4.77 2.633-11.87 5.095-7.72 12.164 3.97 6.801 8.45.95 13.09-1.194 10.28-4.73 15.08-14.383 21.69-22.354 5.34-6.46 12.53-9.556 19.28-6.606 8.19 3.583 19.52 5.095 20.82 17.502.19 1.78-2.34 5.827 2.65 3.681 12.09-5.143 17.87 5.583 24.25 11.19 3.73 3.266 6.41 5.923 11.36 6.898 5.1 1.024 7.44 5.997 10.87 9.093 9.53 8.654 20.26 15.82 28.5 26.18 2.56 3.219 5.29 5.583 5.73 9.898.19 1.877 1.19 4.973 2.31 5.217 17.45 3.778 8.46 10.506 2.29 17.356-1.46 1.61-2.19 4.437-2.19 6.704 0 12.871-6.95 19.502-18.77 22.695-9.41 2.56-9.29 2.901-4.73 11.189.54 1 1.03 3.169.83 3.267-9.87 4.388-5.48 15.796-11.33 22.573-5.98 6.923-3.95 17.625-9.05 25.62-1.26 1.975 1.47 2.048 2.93 1 2.61-1.877 6.14-3.315 7.51-5.875 8.38-15.796 21.13-28.546 30.41-43.538 15.99-25.742 35.32-48.949 53.02-73.4 23.76-32.81 52.7-61.113 79.36-91.413 14.21-16.138 37.22-11.555 45.7 8.946.57 1.39 1.81 3.29 3 3.51 14.65 2.682 23.62 14.773 34.35 22.89 10.31 7.777 20.06 17.65 29.64 26.986 9.06 8.873 12.91 22.914 26.34 27.327v7.313c-11.4 5.923-22.44 7.093-34.12-.22-11.94-7.483-26.45-5.509-36.37 3.462-26.15 23.646-45.26 53.264-67.44 80.25-21.01 25.571-37.34 54.507-56.6 81.346-3.31 4.632-6.75 9.044-11.62 12.164-2.22 1.414-4.27 4.754-7.2 1.804-2.41-2.438-.95-5.387.59-7.801 3-4.777 5.75-9.799 9.38-14.065 8.97-10.482 13.41-23.28 19.24-35.42 3.51-7.289 14.06-9.093 14.82-19.331.21-2.999 3.72-5.729.19-8.971 2.63-2.852 6.34-5.046 6-9.726-.61.243-1.69.39-1.76.755-1.39 6.363-13.67 4.388-10.46 14.992 2.27 7.484-8.06 9.605-10.18 16.601-1.95 6.411-8.17 11.506-12.43 17.235-.93 1.243-2.2 2.657-2.32 4.071-1.61 19.087-3.29 20.891-24.84 25.352-1.12.244-2.09-.098-1.68 1.828 2.41 11.726-3.34 20.184-13.63 26.815-5.02 3.242-2.16 12.749-6.23 18.551-.37.512 5.02 1.511 7.21-.341 3.05-2.56 5.58-5.729 8.36-8.63 2.27-2.389 4.95-5.387 8.19-2.803 3.29 2.633 2.73 6.777.07 9.799-21.42 24.402-28.49 56.36-44.41 83.59-6.21 10.652-7.41 23.987-17.67 32.543-1.61 1.341-1.24 5.314-1.41 8.093-.1 1.414.66 2.877 1.02 4.315 1.07-1.024 2.63-1.877 3.12-3.12 2.46-6.192 6.36-14.651 12.9-10.141 5.67 3.925 2.77 13.091-1.98 19.648-6.92 9.605-13.23 19.624-19.69 29.545-1.59 2.438-4.71 5.68 2.34 4.68 2.9-.414 9.16-4.363 9.04 3.096-.07 5.997 4.73 13.969-5.12 17.43-8.24 2.901-16.38 3.145-25.03 1.56-17.4-3.193-32.74-13.943-50.99-13.724-5.17-13.871-18.8-3.145-28.28-9.532-8.43-5.679-21.59-6.996-31.95-12.286-10.63-5.436-20.89-11.481-31.74-16.601-12.09-5.704-11.92-20.232-12.92-32.202-1.9-22.744 1.69-45.122 5.24-67.549 3.44-21.671 5.56-43.562 8.22-65.379.12-1.024-.27-2.097-.42-3.169-.7.804-1.85 1.487-2.04 2.389-3.88 17.332-13.65 32.446-18.65 49.168-3.05 10.141-10.58 17.942-12.14 28.302-.56 3.754-3.97 8.191-.46 11.457 4.34 4.023 5.82-2.145 8.65-3.607 2.34-1.219 4.78-1.853 6.58.365 2.17 2.682 1.2 5.607-1.22 7.484-4.9 3.803-6.97 8.63-6.94 14.724.02 4.144-1.05 8.191-5.34 9.97-.98.39-3.34-.756-4.02-1.853-2.59-4.071-2.32-8.288-.03-12.603 1.2-2.242 6.61-3.217 3.63-6.191-2.29-2.292-4.26 2.364-6.55 3.632-10.385 5.777-8.411 18.941-15.869 26.473-.366.366.024 1.463.073 2.219.95-.244 2.315-.195 2.754-.805 1.584-2.291 3.339-4.631 4.144-7.24 1.121-3.51 1.486-8.142 6.338-6.972 3.85.927 2.88 5.412 2.44 8.435-1.71 11.92-2.88 24.085-4.927 35.761-1.999 11.457-12.358 14.578-13.211 24.06-.146 1.512-1.39 3.023-1.195 4.413 1.609 11.506-3.826 17.771-14.502 20.769-11.213 3.145-7.142 12.627-6.386 19.331.633 5.753.585 9.337-3.876 13.7-12.845 12.481-11.505 31.471-20.011 46.097-1.365 2.365-.927 4.218 2.851 4.729 8.629 1.146 7.727 5.485 2.438 10.117-5.411 4.729-5.704 12.505-16.429 14.919-10.895 2.437-13.332 18.746-16.257 29.959-2.048 7.923 6.8 3.291 10.505 4.827 1.389.585 4.046-2.121 4.68 1.073.219 1.145-1.121 3.169-2.291 3.924-8.872 5.656-12.577 12.018-4.899 21.672 2.339 2.925 0 6.825-3.267 7.922-6.508 2.194-6.239 6.948-7.019 12.359-.366 2.487 7.531 15.163-6.435 8.069-1.219-.609-1.536 2.438-1.17 3.876.975 3.73 3.29 6.777-1.39 10.629-4.363 3.607 2.316 3.364 3.461 5.265 2.365 4.022 8.946-.829 10.238 4.217 2.193 8.557 5.46 17.211 3.68 26.206-2.023 10.311-16.257 19.916-28.347 20.403-22.23.854-42.875-5.07-63.057-13.7-3.51-1.487-7.994-.999-12.016-.877-6.728.219-12.285-2.218-18.306-5.119-16.452-7.947-32.588-16.772-50.065-22.452-11.797-3.851-10.018-12.993-8.287-22.012.414-2.121 2.901-4.851-.853-5.802-1.146-.293-4.266 2.194-4.314 3.486-.585 12.286-7.678 22.183-11.213 33.177-5.191 16.114-9.408 32.763-14.746 48.901-4.802 14.529-6.606 30.081-14.747 43.562-2.608 4.314-6.02 9.044-2.535 15.552.659 1.244 6.557 13.773-5.922 14.773-1.78.146-4.973 5.655-4.437 7.971 2.755 11.628-2.632 19.794-7.824 29.716-7.434 14.212-12.845 30.52-14.478 46.414-1.439 14.163-10.944 25.986-9.092 40.442.366 2.828-2.291 4.119-3.096 6.167-7.653 19.624-18.085 38.662-15.185 60.821.902 6.899-5.923 9.166-8.312 13.798-4.192 8.118-6.118 16.378-8.36 24.718-5.435 20.06-10.505 40.25-15.526 60.41-1.512 6.09-4.948 12.38.365 18.4 1.292 1.46 1.316 3.71-.024 4.24-16.331 6.41-13.016 20.19-12.626 32.94.097 2.87-.756 5.07-2.974 7.46-2.657 2.8-5.777 7.14-5.435 10.5 2.096 21.5-11.139 39.49-13.041 59.95-.195 2.19-1.316 6.16 2.34 5.36 11.822-2.63 5.509 2.07 3.705 6.92-1.487 3.98-7.312 11.73 4.388 11.75 3.339 0 3.339 2.88 3.753 5.24.341 1.98.22 5.32 1.219 5.71 18.598 7.38 1.292 18.28 2.413 27.3.268 2.12-3.144 11.16-7.97 1.71-1.097-2.17-1.731-.42-2.097.19-.585 1.02-.658 2.37-1.218 3.41-2.291 4.12-6.923 5.42-10.311 4.2-4.509-1.61-1.072-5.73.098-8.22 2.705-5.8.609-13.26 6.264-17.92 1.073-.9 1.901-1.39-.073-2.07-6.094-2.09-15.722 7.24-14.405 14.24 1.194 6.36 5.947 13.7-5.558 15.6-1.682.27-2.34 3.61-1.218 3.83 7.994 1.56 12.04 10.09 19.207 11.53 5.435 1.07 9.286 1.92 10.676 7.48.901 3.61-.707 6.36-3.852 8.12-5.264 2.95-6.971.54-9.774-4.39-2.754-4.8-3.193 4.88-7.58 3.22-6.143-2.32-6.484-1.9-7.093 4.83-.683 7.65-2.998 14.79-8.97 19.59-3.022 2.42-2.852 3.32-.244 4.9 1.877 1.15 4.168 3.44 2.535 4.39-17.184 9.95.707 16.92 2.316 24.99.658 3.34 6.532 6.92 1.511 9.82-4.68 2.71-9.043-.75-10.993-6.02-.609-1.66.561-4.8-2.413-4.41-1.219.17-2.754 2.95-3.022 4.73-1.365 9.29-6.801 18.53 2.437 27.59 4.802 4.71-1.072 27.67-6.849 31.01-3.412 1.98-4.314-.61-3.656-3.34 1.243-5.22-.731-11.14 4.241-15.67 2.316-2.12-.414-5.32-1.365-7.85-.244-.61-2.267-1.25-2.925-.88-2.584 1.44-2.145 4.27-1.926 6.53.634 6.71-3.339 12.68-3.095 19.04.146 4.24-13.918 17.26 5.947 11.82 2.706 10.1 5.533 5.66 10.238.88 3.607-3.68 6.288 1.59 8.36 4.15 2.511 3.07.414 5.29-2.559 6.46-6.07 2.36-14.917-.37-17.014 9.38-.024.17-3.047.03-4.436-.51-1.95-.78-2.486-6.95-5.362-2.34-.951 1.54 3.363 6.36 5.265 9.7 5.923-5.46 10.31 6.41 17.379 1.15 3.826-2.83 7.824 3 6.654 7.04-2.608 9.09-1.097 18.89-5.777 27.62-6.191 11.61-4.558 25.16-8.287 37.44-1.146 3.76 0 7.73-6.776 7.1-9.506-.88-17.94 11.94-14.942 21.28 1.877 5.8 5.582 12.24-5.46 12.24-2.583 0-4.387 2.51-2.413 3.48 4.631 2.29-3.753 9.32 4.778 10.14 7.409.74 10.042 6.03 8.116 13.9-2.681 10.99 2.73 23.33-6.946 33.52-3.388 3.58 1.755.78 2.291.68 4.363-.76 7.263.9 8.409 5.02 4.314 15.51-13.577 41.37-29.201 40.47-12.455-.73-24.861-.95-37.268-.95-13.528 0-27.982 4.87-38.755-8.24-.342-.42-1.902-.54-2.267-.17-9.872 10.24-18.184.75-27.032-2.05-1.901-.61-4.411-1.8-5.801-1.12-12.796 6.38-25.3-1.2-37.999-.47-12.114.71-18.452-7.87-16.965-20.2 5.679-47.61 10.53-95.34 16.965-142.85 5.484-40.35 10.895-80.74 17.427-120.89 8.824-54.19 16.161-108.65 25.813-162.67 6.459-36.13 11.87-72.37 18.159-108.5 8.604-49.34 15.697-99.02 26.909-147.776 5.363-23.304 5.606-47.17 13.114-70.425 7.921-24.524 8.896-51.314 12.552-77.178 2.755-19.527 9.068-38.297 11.042-58.043 2.73-27.204 11.578-53.288 16.014-80.298 6.118-37.077 15.746-73.594 21.718-110.696 4.753-29.521 13.991-58.067 17.964-87.588 4.095-30.373 12.528-59.553 19.889-89.098 4.266-17.186 4.119-35.493 8.653-52.582 10.481-39.637 15.015-80.468 25.033-120.057 4.85-19.16 9.92-38.296 14.502-57.53.683-2.828 2.804-6.679-1.852-5.704-4.266.902-8.068-6.338-11.7-.171-.365.609-3.583 4.412.536 3.388 3.437-.853 5.485-1.852 5.875 2.292.341 3.803-2.072 5.924-5.826 6.362-11.31 1.317-11.602 11.97-15.843 19.088-4.168 6.972-12.065 11.823-6.118 23.426 4.192 8.191-5.582 25.157-8.361 25.255-14.917.512-9.408 11.993-12.674 18.478-3.705 7.362-11.773 13.334-6.825 23.28.292.585-.39 2.389-.975 2.608-8.604 3.145-9.725 12.774-15.722 17.991-6.069 5.289-3.802 10.799-1.657 16.479 2.389 6.362 5.704 5.679 9.287.877 3.217 2.535 8.872 4.851 9.091 7.63.366 4.412-5.07 1.292-7.458 2.243-6.533 2.608-12.066 3.461-19.646 2.389-6.606-.926-1.268 5.924.707 9.263.512 1.877-.171 2.56-2.048 2.023-8.36 1.634-5.386 8.191-4.704 12.652.853 5.509 4.826 3.779 8.385 1.877 2.803-1.511 4.241.122 5.435 2.755 2.17 4.705 4.339 9.507 7.215 13.773 3.608 5.363 2.291 8.605-2.827 11.896-6.533 4.193-8.409-1.78-11.627-4.778-2.803-2.608.244-9.824-5.509-9.288-4.411.415-6.483 5.168-6.971 10.117-.365 3.827-2.973 3.437-4.753.853-2.023-2.95-3.583-8.483-6.873-1.584-1.56 3.242-9.799 7.142-.512 11.896 6.776 3.461 6.971 7.093-1.706 8.117-2.803.317-3.096 2.584-2.73 4.486.853 4.412 2.779.56 4.144.268 6.361-1.292 5.191 3.51 5.362 6.801.219 4.534-.853 7.654-6.825 7.313-12.577-.707-20.523 11.604-14.868 22.451 5.386 10.312 12.845 20.965-4.534 27.644-1.755.683-3.266 2.487-2.681 4.924 3.607 14.944-3.388 27.108-10.286 39.296-2.072 3.657-3.632 7.777-2.096 11.628 7.873 19.575 4.777 40.564-1.049 58.188-8.701 26.206-4.363 53.313-11.626 79.056 10.895 12.115-5.314 18.234-5.801 27.034-.707 12.993-1.292 26.278-.366 39.296.609 8.678-1.487 16.527-2.072 24.743-1.706 24.133-1.657 48.388 1.828 72.497.122.805.293 1.609.561 2.34 10.14 26.937.049 39.784-29.225 36.591-24.082-2.633-46.848-9.922-68.492-20.794-2.121-1.073-4.582-2.852-6.606-2.511-21.327 3.413-34.197-11.214-48.602-22.5-3.998-3.12-8.531-1.902-12.846-2.267-9.53-.78-14.795-4.949-14.454-15.407 1.073-31.47 3.681-62.795 6.679-94.169 4.241-44.488 13.82-88.147 17.94-132.587 2.071-22.378 5.484-44.634 10.944-66.525.097-.39.365-.756.39-1.146.219-6.07.439-12.14.634-18.21-.269.074-.805.122-.805.196-.658 7.605-9.482 11.14-9.433 19.184.122 15.845-3.729 19.648-20.157 19.526-3.852-.024-7.045 1.585-7.849 4.51-2.827 10.434-10.481 17.796-15.917 26.547-2.339 3.778-1.023 7.752 1.365 9.824 3.242 2.803 7.386-1.39 7.435-3.364.195-6.85 9.506-6.094 9.53-12.823 0-2.145 2.584-4.387 5.411-2.584 2.413 1.512 2.34 3.901 1.341 6.461-2.95 7.654-6.435 14.991-8.994 22.938-5.314 16.626-15.478 31.715-23.79 47.365-1.267 2.389-3.144 5.558-6.508 3.389-2.949-1.926-.244-4.242.78-6.217.756-1.438 1.901-3.169.341-4.217-.853-.585-2.803.317-4.216.707-9.19 2.56-7.532 12.506-12.188 18.21-.706.853.195 1.706 4.875-.829 3.437-1.877 6.923-4.022 8.848 1.073 1.536 4.046-.219 7.264-5.07 7.556-3.851.244-7.166 1.512-9.579 4.535-2.12 2.657-3.973 5.558-5.947 8.337 2.584-.951 5.265-1.78 7.775-2.901 4.534-2.024 7.581-.049 8.044 4.144.56 5.119-1.097 10.36-7.654 9.775-10.749-.975-16.769 4.12-20.109 13.627-1.048 2.95-3.315 5.68 1.877 7.606 7.166 2.632 3.705 6.557-.439 7.995-9.116 3.169-12.479 10.848-13.771 18.576-1.974 11.798-10.554 8.19-15.6 6.484-6.873-2.34-2.608-8.166-.682-12.944 7.141-17.869 10.603-37.127 20.864-53.825.927-1.511 1.316-4.022-.707-5.363-.316-.219-2.169 1.804-3.266 2.828-10.724 10.189-14.868 23.914-17.013 37.492-1.487 9.312-3.242 15.723-13.211 16.601-7.093.609-8.312 5.923-9.214 10.896-.536 2.999.512 5.948-1.852 8.947-3.681 4.656-8.044 10.774 3.973 6.898 1.755-.56 3.339.293 3.802 2.024.756 2.779 1.073 5.46-1.974 7.508-8.872 5.972-5.484 20.672-17.306 24.865-.219.073 1.024 4.363 1.609 6.654.414 1.585.951 3.267-.78 4.364-1.853 1.17-3.681 1.097-5.533-.341-1.292-.975-.244-6.241-4.168-2.535-1.438 1.365-2.316 3.12-1.195 5.484 2.925 6.168 2.438 12.798 1.829 19.307-.634 6.801-.098 13.846-11.578 11.579-2.681-.536 10.456 9.751.536 13.505-14.332 5.436-9.36 15.26-9.165 25.523.098 4.924-4.387 11.701-10.237 15.358-4.656 2.901-8.994 5.948-.463 9.97 4.144 1.974 2.389 5.436-.853 5.729-7.142.658-5.436 3.095-5.314 8.995.17 9.092 2.633 21.842-11.797 25.108-2.462.561-3.583 2.925-2.754 4.632 4.606 9.336-2.487 14.139-7.508 19.38-8.75 9.166-3.632 21.208-6.703 31.739-2.389 8.19.975 17.26-11.992 17.72-1.511.05-5.362 3.22-2.096 5 8.823 4.85 1.828 8.19-.366 12.21-1.73 3.2-4.412 6.58-4.363 9.85.049 4.07 2.438 8.09 3.803 12.14 1.292-2.9 2.973-5.68 3.85-8.7 7.094-24.53 23.205-45.636 26.861-71.574.537-3.875 3.56-10.36 9.799-8.605 8.141 2.292 4.217 9.361 2.389 13.14-7.849 16.113-10.652 33.929-18.476 50.389-4.729 9.92-9.58 24.38-7.727 37.95.341 2.56.634 6.54-2.535 7.56-15.99 5.14-10.067 18.55-11.31 29.23-.17 1.49 1.17 3.7.512 4.51-9.213 11.21-5.508 27.52-14.649 38.34-8.263 9.8-10.87 22.14-14.941 33.23-5.948 16.09-11.334 33.08-10.993 50.95.073 4.17-.634 6.85 4.753 8.72 4.729 1.66 6.874 6.2 2.608 11.8-4.729 6.2-2.145 16.09-9.872 21.07 4.534 5.82 4.753 11.18-.34 17.21-3.267 3.85-6.606 6.89-11.14 4.07-5.947-3.71-.78-6.73 1.804-9.36 1.584-1.64 3.07-3.1.901-4.9-2.924-2.42-5.508-.78-7.092 1.82-5.68 9.44-8.532 20.16-9.336 30.74-.95 12.19.95 23.82-10.846 33.13-4.51 3.56-12.041 12.48-2.218 20.55.706.59 0 4.1-1.073 5.46-5.046 6.46-2.267 8.44 4.387 10.61 11.359 3.7 7.044 14.11 4.924 20.25-2.828 8.17-2.072 16.87-5.63 24.6-1.292 2.78-1.268 4.34 2.023 5.39 2.583.8 7.921-1.59 7.044 3.68-.634 3.83-4.241 6.82-8.726 7.43-3.583.49-8.75-1.99-8.483 5.12.171 4.61.366 7.97 6.265 9.71 7.214 2.12 2.535 7.53 1.56 11.87-.488 2.14-5.607 6.12 1.243 6.48 2.462.12 5.825-3.05 6.605 1.44.731 4.29-2.047 8.97-5.703 9.8-10.481 2.36-15.502 6.39-11.359 18.16 1.316 3.75-3.851 7.46-7.361 10.41-13.845 11.68-31.662 20.23-47.603 18.11-25.228-3.34-51.26.85-76.463-10.87-11.041-5.14-24.545-12.02-38.804-12.02-10.676 0-14.137-7.04-10.871-20.43 7.776-31.74 15.77-63.43 23.497-95.17 11.553-47.38 22.839-94.85 34.49-142.24 10.457-42.51 21.644-84.85 31.735-127.44 10.798-45.51 24.302-90.24 36.465-135.342 11.358-42.05 23.375-83.857 35.879-125.542 20.109-66.988 39.218-134.269 59.156-201.331 6.752-22.719 15.893-44.756 21.913-67.622 8.41-31.885 17.477-63.502 28.177-94.705 7.97-23.256 13.528-47.389 22.741-70.109 3.705-9.117 4.144-19.111 9.287-27.57 2.242-3.706.804-9.117-1.511-9.971-12.48-4.607-4.631-10.214-1.658-15.967 1.487-2.925 2.486-7.264 6.216-5.948 4.85 1.707.39 5.363.122 8.167-.098 1.072-.659 2.096-1.024 3.144.755-.755 1.852-1.365 2.194-2.267 2.705-7.118 7.19-14.236 7.483-21.476.804-20.428 9.7-37.809 18.524-55.214 4.583-9.044 3.754-18.893 5.752-28.205 4.997-23.353 15.6-44.878 20.28-68.183 3.364-5.436 3.193-12.164 6.459-17.624.415-.683.61-1.463.756-2.243-.098.415-.122.853-.341 1.195-3.51 5.728-3.12 12.968-7.215 18.453-14.137 28.863-28.787 57.481-42.29 86.636-12.065 26.108-25.666 51.485-35.367 78.787-3.851 10.8-13.406 19.697-14.625 32.251-.146 1.536-1.999 2.414-3.851 1.634-3.73-1.536-3.73-4.754-3.9-8.118-.146-2.998 3.924-5.704.56-8.849-.584.878-1.657 1.755-1.657 2.633.122 4.973-8.433 9.409-2.803 13.822 7.897 6.167 8.8 10.799.439 16.479-1.828 1.243-3.437 2.486-2.462 4.778 1.365 3.169 1.194 5.875-2.413 6.63-3.876.805-6.995-1.536-9.457-4.339-2.389-2.73-1.146-6.533.853-7.606 6.508-3.437 4.338-7.337 2.437-12.334-1.218-3.218-1-7.509 1.438-10.531 9.092-11.214 10.457-24.914 12.87-38.321 3.778-4.583 6.947-9.337 6.874-15.699-.098-7.338 6.776-11.384 8.872-17.722a7.05 7.05 0 0 1 2.974-1.365c3.924-8.24 11.407-14.822 11.358-24.963 0-2.413 5.119-4.704 1.487-7.118-2.584-1.706-6.337-.707-7.995 3.023-.95 2.121-1.682 4.997-4.753 3.559-.634-.292-.122-3.657.293-5.485 3.217-13.773 8.75-26.425 17.208-37.931 6.557-8.897 7.63-20.33 12.748-30.203 3.802-7.362 5.045-9.409 11.163-3.364 1.585 1.56 3.023 4.315 5.875 1.463 1.828-1.829 2.924-3.584 2.242-6.436-.902-3.778-3.266-2.998-5.582-2.145-7.824 2.852-4.923-3.413-4.265-5.729 1.78-6.118 3.802-12.383 6.97-17.868 11.457-19.892 16.77-42.563 30.176-61.845 9.433-13.554 13.845-30.496 21.694-45.293 6.922-13.041 15.16-25.352 19.743-39.588.78-2.462 2.925-4.047 5.703-2.219 3.388 2.219 5.436 5.241 3.072 9.215-5.923 9.897-10.969 20.111-14.844 31.057-3.73 10.555-8.97 20.574-13.528 30.837-.78 1.779-2.145 3.973.926 4.656.707.146 2.242-1.902 2.901-3.194 16.55-31.593 32.734-63.356 45.409-96.753.853-2.267 2.267-4.314 3.023-6.606.438-1.316 1.145-3.486-1.292-3.778-.634-.073-1.682 1.487-2.194 2.486-3.242 6.387-6.264 12.92-9.652 19.234-1.487 2.73-3.461 6.362-7.288 4.778-4.241-1.756-3.9-6.095-2.438-9.483 2.56-5.875 5.509-11.677 8.897-17.113 2.34-3.778 4.851-5.997 1.877-11.579-2.852-5.339 1.682-8.215 7.239-5.387 8.263 4.193 9.116 1.048 6.484-6.021-1.463-3.95.122-8.216 2.193-10.288 17.452-17.503 17.306-43.318 30.225-62.82 4.85-7.337-7.191-11.189-3.73-18.209-3.631-.829-4.095 2.047-4.338 4.266-.78 7.508-.463 15.211-1.999 22.549-1.462 6.971-1.389 16.064-12.431 16.26-3.924.072-1.511 2.34-1.219 4.143 1.877 12.286-1.73 15.821-14.941 17.795-5.265.78-4.656 7.704-6.167 11.726-1.925 5.144 1.974-.17 3.242.853 1.999 1.585 2.559 3.754 1.438 5.168-7.58 9.458-8.677 24.207-22.863 28.4-.829.243-1.341 1.657-1.975 2.535 1 .439 2.316 1.536 2.925 1.243 3.535-1.78 7.069-3.242 9.165 1.487 2.048 4.656-2.169 6.801-4.997 8.483-17.695 10.555-18.744 29.4-23.448 46.39-1.023 3.657-2.998 6.07-6.8 5.192-4.558-1.048-3.656-4.485-2.365-7.727.878-2.194 1.682-4.388 2.535-6.582-1.584 2.072-3.607 3.949-4.655 6.24-2.584 5.632-6.289 10.97-.658 17.528 5.484 6.41-2.267 7.63-5.436 10.262-3.315 2.755-11.383 2.73-4.996 10.385 1.754 2.096-.195 4.876-1.975 6.436-7.897 6.947-3.851 23.182-18.987 24.426 2.827 6.874-1.585 12.919-2.414 19.379-.633 4.925-1.95 10.824-8.701 4.291-3.242-3.121-4.729.634-5.29 2.023-6.118 15.041-16.94 28.448-16.38 45.878.025 1.097-.145 3.023-.657 3.169-6.8 2.121-9.433 5.485-4.095 11.75-11.164 8.02-10.14 21.183-13.772 32.397-.536 1.658-2.486 3.9-3.997 4.071-16.867 1.974-10.189 16.284-13.674 25.303-3.68 9.483-4.046 20.428-14.722 26.693-4.753 2.804-7.386 9.288-10.823 14.212-.511.731-.243 2.023-.316 3.072 1.096-.39 2.315-.561 3.241-1.17 3.583-2.316 6.338-1.341 7.8 2.315 1.365 3.389-1.292 5.022-3.778 6.631-3.68 2.413-7.288 4.949-10.847 7.533-1.633 1.17-4.484 2.705-4.411 3.9 1.12 15.455-10.116 26.742-14.844 39.978-3.68 10.312-5.68 21.038-9.653 30.935-2.656 6.631-6.922 13.797-12.82 19.746-5.022 5.07-8.751 14.626-7.873 21.549.975 7.801-3.803 12.579-7.02 13.432-10.481 2.803-10.384 13.31-8.605 17.088 4.071 8.654-2.973 10.872-4.85 16.138-4.046 11.433-13.918 19.672-15.892 32.031-.658 4.193-.17 9.459-7.386 10.556-5.947.877-7.093 7.069-7.507 12.505-1.267 17.186-10.188 32.178-13.893 48.657-.171.78-.342 1.999-.853 2.218-13.772 5.924-12.188 19.502-15.6 30.691-1.243 4.095-.975 9.751-8.263 10.043-3.949.171-3.827 5.827-3.169 8.167 4.046 14.675-4.777 22.963-14.161 31.446-2.462 2.243-5.704 6.216-2.438 9.483 8.117 8.069-.755 16.138-3.656 16.82-8.799 2.121-4.777 12.725-12.309 15.114-1.706.536 4.095 5.68 1.926 10.97-5.265 12.749-10.262 25.498-16.404 37.955-3.9 7.898-6.46 16.82-8.239 26.132-2.9 15.163-6.337 33.933-20.158 41.832-10.139 5.801-3.534 14.626-9.603 19.184 9.725 10.239-4.729 11.701-7.264 17.113-1.608 3.437-4.411 4.022-1.681 8.922 3.266 5.875 3.022 12.457-6.435 13.139-1.122.073-2.535-.609-2.462 1.073 1.316 25.84-13.82 46.219-22.01 68.963-3.315 9.239-6.411 19.282-8.604 29.301-1.975 8.878-5.168 21.478-18.062 24.598-1.292.32-2.194 2.19-3.266 3.34 1.316-.61 2.584-1.49 3.949-1.76 4.241-.85 3.095 1.86 2.876 4.32-.853 8.75-.195 18.26-11.871 20.86-.633.15-1.121.98-1.681 1.49 11.553 10.39-6.825 15.85-4.144 24.99.999 3.41-2.511 4.83-5.021 5.95-6.021 2.7-6.508 8.33-5.728 13.21 2.486 15.65-.975 28.57-14.186 38.27-5.948 4.36-7.312 14.19-7.142 17.94.683 15.41-4.924 27.45-12.699 39.62-4.777 7.48-5.874 16.79-8.628 24.71-3.949 11.29-2.34 25.87-13.894 34.38-2.291 1.68-5.777 3.77.975 5.55 4.436 1.17-.877 4.05-1.316 6.24-.878 4.54-15.161 7.59-1.658 13.95 1.268.61.463 3.78-1.121 3.8-8.896.12-5.411 7.87-7.727 11.99-1.023 1.86-4.655 3.81-1.316 5.73 2.438 1.42 6.654-.8 7.069-3.04 2.705-14.63 11.041-27.01 15.697-40.74 4.265-12.55 15.624-24.16 7.751-39.29-.366-.71.585-3.03 1.146-3.12 20.864-2.98 14.015-22.87 18.744-34.21 9.603-23.01 19.06-46.41 24.691-71.37 3.29-14.53 13.65-28.45 19.573-43.25 5.167-12.92 10.797-25.67 15.477-38.76 6.289-17.5 12.87-34.685 16.209-53.456 2.511-14.114 12.968-27.034 18.598-41.197 9.847-24.816 22.108-48.681 29.079-74.619 2.51-9.312 8.482-17.112 12.431-25.644 10.895-23.451 12.918-50.607 29.931-71.328 1.244-1.511 2.877-3.608 2.682-5.241-1.463-12.091 7.653-20.282 12.163-29.618 7.946-16.504 11.602-34.47 19.767-50.729 6.094-12.116 11.627-24.524 18.33-36.273 3.095-5.412 4.338-.975 5.655 2.316 2.388 5.923 4.68 6.654 8.628.316 4.193-6.752 4.607-15.016 10.311-21.354 2.729-3.023 3.461-11.238-6.508-8.118-6.167 1.926-7.191-2.559-6.338-6.923 3.023-15.479 14.698-26.522 21.303-40.173.732-1.512 2.292-2.682 3.974-1.755 2.559 1.389 2.608 4.241 1.876 6.435-2.559 7.655-5.533 15.163-8.311 22.72-.658 1.804-2.462 4.631-.512 5.363 2.608.975 2.315-2.292 2.925-4.096 3.705-10.994 14.137-18.063 17.184-29.472.438-1.657 1.706-3.339 3.217-1.657 4.583 5.046 9.506 10.482 9.799 17.429.268 6.728-5.558 12.506-10.92 13.066-15.478 1.658-7.727 16.601-14.478 22.866-.61.585.78 2.584 2.096 1.755 3.826-2.437 6.483-2.072 6.118 2.901-.366 4.9-4.778 7.07-8.678 6.826-4.972-.317-9.067-.61-10.383 5.192-.609 2.706-1.243 7.752-.609 7.972 3.68 1.243 3.363-2.974 4.996-4.754 1.438-1.56 1.926-5.144 5.216-3.486 2.682 1.341 2.365 3.852 1.39 6.338-.902 2.243-1.365 4.705-2.487 6.801-9.603 17.844-13.893 38.126-25.471 55.044-.755 1.097-.317 3.072-.243 4.607.292 5.753-1.512 11.774-6.923 12.75-5.898 1.048-12.528-.683-18.524-2.316-1.39-.39-6.07-5.168-.22-8.24 4.412-2.316.415-5.802.878-8.678.633-.902 1.292-1.78 1.755-2.779-.78.78-1.39 1.706-2.121 2.535-9.872 18.698-18.256 38.053-25.959 57.725-.706 1.78-2.145 4.218.585 4.973 1.341.366 4.168-1.194 4.826-2.608 3.73-7.971 7.776-15.943 10.116-24.353 1.316-4.705 4.095-7.703 6.752-11.116 2.193-2.828 5.996-4.315 8.555-2.048 3.705 3.267-.951 5.29-2.681 7.484-1.219 1.56-3.51 2.414-4.412 4.071-.829 1.536-1.243 4.461-.341 5.485 2.047 2.365 3.266-.731 4.631-1.755 2.218-1.658 4.607-4.802 7.142-2.097 1.56 1.658 1.73 5.412 1.243 7.996-.585 3.047-2.096 6.192-3.998 8.678-8.287 10.873-9.701 24.719-15.672 36.225-6.265 12.067-6.46 29.911-25.399 33.006-4.46.732-5.996 4.583 0 6.899 2.682 1.049 6.874 3.706 4.485 5.363-10.919 7.508-6.264 19.819-10.213 29.326-4.972 11.92-9.091 24.206-14.015 36.151-4.924 11.921-8.312 24.548-15.746 35.371-.829 1.219-.902 3.023-1.121 4.583-1.95 13.14-7.459 16.114-19.256 11.141-2.827-1.195-6.02-7.289-8.945-2.438-3.218 5.29-4.071 12.018-5.826 18.137-.097.365.927 1.535 1.438 1.56 2.657.097 3.193-1.95 3.559-3.974.683-3.705 1.706-8.434 6.313-6.728 4.144 1.536 3.022 6.411.756 9.385-3.559 4.657-1.633 10.434-3.73 15.09-3.339 7.435 7.288-1.804 6.045 5.777-1.072 6.558-11.846 32.595-18.597 35.425-3.267 1.36-10.555 1.75-1.56 6.46 4.021 2.09 3.509 6.89 2.145 9.82-7.8 16.82-10.116 36.32-24.521 50.02-4.363 4.15.95 9.56-1.438 15.51-12.577 31.12-23.424 62.96-34.929 94.53-1.048 2.9-2.291 5.63 1.877 6.73 4.339 1.12 4.192-2.17 4.704-5.05.658-3.56 1.706-8.46 5.826-7.97 6.581.78 3.12 6.29 2.51 9.7-.804 4.54 1.122 4.32 3.535 2.34 9.603-7.9 6.118 1.98 6.264 4.93.341 6.43-5.289 10.67-7.239 16.43-1.365 3.99-2.682 10.48-7.849 9.11-6.24-1.63-.682-6.46-.414-9.97.17-2.19.487-5.43-2.486-6.02-2.34-.46-3.169 2-3.437 4.12-.707 5.66-6.533 11.78 3.022 16.29 3.169 1.48 2.023 7.48.878 11.4-.342 1.17-2.194 2.66-3.34 2.66-2.461 0-11.383-20.5-10.31-23.08 2.145-5.17 8.677-13.46 3.071-15.09-5.679-1.66-4.777 9.09-6.288 14.6-1.902 6.9-6.85 13.87 2.218 20.09 1.876 1.29 1.779 6.16-4.485 6.72-9.677.91-20.377 17.82-18.793 27.57.073.42-.926 2.91 1.121 1.22 8.897-7.38 12.309 8.61 20.962 4.93 1.609-.68 2.73 5.95.853 8.31-7.483 9.58-9.213 21.16-12.455 32.3-.707 2.46-2.023 6.29-5.557 5.05-2.316-.81-2.218-4.56-1.122-6.61 3.462-6.44-1.048-14.97 5.558-20.55.536-.46 0-2.17 0-3.29-1.024.32-2.316.36-3.047 1-3.754 3.36-5.362 7.75-6.508 12.67-1.657 7.22 1.609 16.22-6.995 21.21-.488.3-.585 2.42-.074 3.03 2.097 2.46 8.897-.54 7.386 5.24-.512 1.95-6.971 1.73-9.433 3.92-4.704 4.22-3.973 11.14-6.508 16.63-5.874 12.75-9.677 26.49-15.283 39.02-3.461 7.71-5.972 19.46-16.964 23.04-5.533 1.8-6.508 3.54.17 4.97.244.05.512.71.488 1.05-.342 4.63-7.069 12.48 2.973 12.29 5.412-.1 9.433-8.75 10.408-15.04 3.266-21.36 12.967-40.49 19.939-60.56 2.34-6.72 4.119-14.21 10.797-18.6 3.705 6.85-.828 13.78.147 20.6 1.048 7.46-5.923 11-7.751 17.26-5.631 19.24-12.553 38.1-18.866 57.14-3.608 10.9-15.965 20.43-28.08 18.46-13.308-2.17-9.92 6.58-9.749 12.67.17 6.02 7.507 13.19-4.461 16.07-2.974.7-.292 3.51.683 4.77 5.118 6.68-2.682 14.7 2.315 21.46.585.78-.244 3.31-2.657 2.85-3.363-.64-6.313-1.95-7.141-5.63-.658-2.88 2.754-6.68-1.463-8.63-1.998-.93-2.705 1.58-2.437 2.95.829 4.36-6.338 9.6.463 12.8 3.437 1.6 4.509 3.36 3.875 6.16-1.56 7.19-2.364 12.14 7.922 7.56 5.119-2.29 4.534 3.29 4.363 6.05-.292 4.8-1.584 9.5-2.169 14.3-.463 3.78-.488 7.42 4.997 7.71 10.846.58 7.458 4.95 2.218 9.33-1.487 1.25-4.436 2.08-2.584 4.22 6.484 7.56-2.779 9.02-4.875 9.12-5.509.29-3.632-5.14-3.534-8.29.122-4.95 1.097-7.34-6.557-6.51-5.411.59-2.974-7.31-2.072-11.82.658-3.27 3.242-8.48-1.072-9.26-4.046-.74-8.239 2.99-8.336 8.53 0 .8.097 1.66-.122 2.44-1.292 4.53 2.925 13.26-4.217 12.77-6.069-.42-.926-8.7-2.047-13.34-.317-1.26-.122-2.63-.171-3.97-.39 1.1-.682 2.22-1.146 3.27-3.705 8.19-12.187 16.87 3.072 22.79 2.632 1.02 2.73 5.46 1.511 7.8-7.313 14.14-9.457 30.47-18.842 43.71-1.121 1.58-1.267 3.7-4.021 3.66-2.73-.05-4.047-7.51-7.215-1.98-1.975 3.44 3.656 4.63 4.923 7.48 1.853 4.15 1.073 7.61-1.852 11.17-3.218 3.92-.561 10.43 1.584 10.53 4.802.22.122-4.68 1.511-6.9 3.194-5.09 7.63-9.21 9.872-15.11 1.048-2.76 4.193-7.56 8.092-4.95 2.95 1.97 2.633 7.58-.195 9.85-5.289 4.24-4.606 9.36-4.363 14.82.049 1.44-1.389 3.14.732 3.92.487.17 2.096-1.29 2.388-2.26 2.901-9.68 13.626-15.02 14.162-26.14.171-3.43 3.315-6.21 6.971-4.75 3.997 1.59 1.048 4.8.268 7.14-9.555 28.99-22.473 57.36-27.641 87.1-3.583 20.6-17.257 37.98-15.697 59.7.366 5.05-3.705 11.41-6.093 15.51-6.874 11.8-6.533 24.74-9.555 36.95-5.826 23.5-10.822 47.32-22.863 68.48-6.264 10.99 4.168 9.75 7.678 13.21 2.608 2.56 2.681-1.32 3.095-2.95.634-2.32.878-5.51 4.217-4.22 2.462.95 2.218 4.15 1.974 6.49-1.243 12.09 1.975 23.38 6.216 34.42 2.047 5.31 1.243 10.87-3.071 12.94-6.167 3-4.168-5.04-6.679-6.95-3.729-2.82-3.827-7.65-7.19-10.4-1.682 4.04-3.681 7.99-4.948 12.16-1.512 5-2.218 10.24-3.657 15.26-1.072 3.78.171 4.51 3.803 5.17 10.408 1.9 12.967 9.46 9.993 18.26-3.095 9.14-6.361 18.38-10.188 27.13-4.509 10.31-14.527 15.77-25.666 18.62-26.276 6.73-53.015 5.54-79.754 5.27-16.72-.17-33.539.19-50.162 1.78-12.529 1.19-17.696-7.1-24.009-14.73v-9.75c6.825-4.09 3.047-11.97 6.386-17.57 10.189-17.12 18.768-34.91 24.984-54.07 11.7-36.06 25.032-71.52 36.05-107.85 15.477-50.94 33.344-101.16 48.261-152.26 8.556-29.32 18.135-58.45 28.323-87.05 15.844-44.44 28.786-89.8 44.873-134.17 12.163-33.52 26.008-66.57 35.1-101.33 4.119-15.73 10.432-31.26 16.379-46.64 7.118-18.35 15.112-36.39 21.401-55.02 27.324-80.61 58.231-159.89 87.772-239.67 19.841-53.608 41.998-106.336 63.593-159.283 28.908-70.865 57.646-141.827 87.626-212.252 24.472-57.482 50.699-114.232 76.049-171.323 18.012-40.588 35.61-81.371 53.867-121.861 15.892-35.25 32.418-70.206 48.773-105.261 17.867-38.272 34.856-76.983 54.063-114.548 15.624-30.545 29.64-61.894 46.311-91.975 14.625-26.4 26.252-54.458 40.194-81.249 16.355-31.47 33.588-62.503 50.772-93.559 15.063-27.205 30.273-54.361 46.092-81.152 9.628-16.308 20.426-31.934 30.955-47.682 3.656-5.485 24.131-4.826 24.033.415-.17 7.532 3.681 4.705 6.85 5.68 14.137 4.388 25.105 13.553 35.903 23.329 6.508 5.899 17.184 7.142 18.476 18.819.219 1.852 6.825 2.316 10.969-.073 5.021-2.901 12.211-8.557 10.554 4.899-.463 3.754 3.047 6.777 6.605 7.972 11.797 3.973 7.946 10.823 1.097 14.017-7.459 3.461-7.581 9.092-9.14 14.943-.488 1.852-1.999 3.973.853 5.021 1.95.732 6.118-3.461 5.703 2.316-.39 5.436-5.703 5.461-9.238 6.411-14.649 3.974-22.741 15.529-28.81 27.425-3.242 6.387-4.68 14.382-8.117 21.232-2.852 5.704-6.678 11.238-.78 17.527 1.146 1.22 1.804 4.778.975 5.753-10.213 11.58-4.997 25.84-7.288 38.736-.975 5.485-4.46 10.165-9.871 13.212-3.632 2.048-5.704 5.314-3.73 10.263 1.755 4.437 4.241 6.777 8.97 6.29 12.87-1.293 12.748 6.874 8.629 14.236-9.043 16.113-10.896 34.127-15.966 51.289-1.803 6.094-3.583 12.603-11.456 13.992-1.072.195-2.998 1.244-2.949 1.463 5.216 18.454-16.526 25.694-17.111 41.466-.122 3.217-6.654 8.8 3.023 10.531 3.363.609.828 5.241-1.95 7.02-1.853 1.17-5.022.707-4.778 4.217 1.926-.195 3.827-.487 5.753-.56 2.754-.122 5.24-4.339 7.483-2.048 2.51 2.56-.854 5.972-1.17 9.093-.244 2.364-1.317 4.631-1.926 6.972-.902 3.534-1.633 7.678-5.557 8.702-5.655 1.487-3.071-4.193-4.656-6.338-1.243-1.657-2.608-3.73-4.777-2.559-1.511.804-3.193 2.9-3.315 4.509-.439 7.192 1.901 14.505-4.29 21.038-2.364 2.486 1.852 1.755 3.266 1.438 2.316-.512 4.972-4.705 6.606.268 1.291 3.949-.61 7.143-4.583 8.752-2.949 1.194-6.215 1.852-8.872 3.51-2.462 1.536-6.654 3.266-3.681 7.386 2.657 3.681 6.338 3.023 9.653.585 6.8-4.997 9.481-13.042 13.259-19.891 15.99-28.96 35.758-55.507 52.868-83.736 7.069-11.677 32.784-6.874 38.341 6.167 1.097 2.584 1.999 5.924 5.436 5.778 11.675-.536 19.987 6.752 28.786 12.432 3.242 2.097 4.875 1.39 7.41 0 3.534-1.974 7.897.049 8.507 2.292 2.876 10.677 11.602 13.212 20.23 16.064 2.73.902 3.681 3.096 4.851 5.095 2.145 3.657 2.486 5.436 5.167-.317 12.309-26.473 24.619-53.02 38.439-78.714 12.699-23.645 24.74-47.681 37.683-71.23 13.064-23.792 24.691-48.632 37.658-72.62 18.793-34.761 37.415-69.645 57.304-103.773 18.086-31.032 34.417-63.063 54.307-93.12 14.356-21.696 26.69-44.708 40.656-66.672 4.168-6.582 10.238-14.773 19.329-11.994 16.404 4.998 21.937 13.091 21.279 26.255-1.243 1.487-2.608 2.852-3.924 4.29a50.157 50.157 0 0 1 4.216-3.998c14.406-10.604 19.061 4.364 26.495 10.702 2.755 2.34 3.9 5.143 8.483 4.705 12.943-1.292 17.306 4.29 14.429 16.43-1.169 4.9 3.047 3.364 5.46 2.73 7.118-1.901 13.991-4.022 14.016 7.508 0 3.023 3.339 3.34 5.606 3.657 10.018 1.438 12.601 12.286 20.864 16.21 3.291 1.561 3.925 6.509-.658 8.752-6.166 2.998-6.703 5.875-3.388 12.286 4.948 9.653-4.412 33.129-13.82 38.833-2.438 1.462-4.314 1.901-6.459-.098-4.802-4.485-5.021 1.853-6.923 3.267-3.607 2.657-.975 4.948 1.682 6.362 5.094 2.682 9.433 7.508 8.044 12.311-1.39 4.851-7.508 6.021-13.187 4.509-1.706-.463-10.944 18.942-9.774 20.331 1.804 2.145 3.534.39 5.314-.341 4.582-1.829 8.311-.561 9.408 4.314 1.194 5.315-3.339 5.51-6.874 6.168-2.729.512-5.459.926-8.189 1.414-1.487.268-3.51.292-2.657 2.584.219.609 2.194 1.048 3.169.804 7.897-2.023 15.136-4.875 20.23 5.875 3.608 7.655 6.63 14.407 2.291 22.281-4.241 7.703-1.803 15.82.927 22.305 4.119 9.824 1.34 18.283-3.754 24.743-22.912 28.984-29.347 63.039-32.028 98.313-.999 12.968-11.578 21.062-14.6 32.836-.78 3.047-3.949 1.804-6.069.365-2.292-1.56-4.632-2.047-6.338.488-.78 1.146-1.267 3.315-.682 4.364 1.292 2.364 3.51 2.56 6.264 1.779 2.876-.829 6.679-3.34 8.897-.463 2.9 3.778-1.268 6.46-3.34 9.287-9.164 12.457-3.071 27.547-7.068 41.125-4.656 15.821-7.142 32.275-10.871 48.388-.683 2.974-2.072 6.265-5.948 7.021-1.779.561-2.535-.073-2.291-1.926l-.073-.073Z" fill="#000" fill-opacity=".05"/></g></svg>