<svg width="181" height="292" viewBox="0 0 181 292" fill="none" xmlns="http://www.w3.org/2000/svg">
<path d="M174.617 243.928C171.877 244.579 169.137 245.236 166.402 245.887C179.429 227.463 184.258 203.467 178.767 181.441C178.084 178.701 174.079 177.399 172.137 179.689C170.319 181.837 168.496 183.985 166.673 186.139C167.129 177.443 165.442 168.458 163.613 160.022C160.678 146.503 157.222 130.704 165.805 118.492C167.525 116.04 165.23 112.465 162.403 112.563C155.41 112.796 148.915 115.557 143.804 119.935C146.278 89.6248 141.553 58.7663 129.871 30.6367C125.704 20.6109 120.761 10.9595 114.961 1.78006C112.379 -2.31054 105.998 1.36775 108.451 5.58313C115.026 16.8947 113.849 30.3871 109.405 42.2466C104.658 54.9198 95.6569 65.3633 86.5906 75.1667C77.2313 85.2792 67.579 95.1206 59.918 106.638C52.3492 118.015 46.5491 130.623 42.686 143.725C42.214 145.331 41.7746 146.942 41.3622 148.564C36.8209 134.855 28.8669 122.285 17.9505 112.541C14.4346 109.4 9.30737 114.423 12.7364 117.754C21.7159 126.462 19.1767 140.133 14.8958 150.485C10.0941 162.095 3.92507 172.706 1.57033 185.206C-2.41753 206.332 1.25567 229.34 11.8411 248.089C16.5886 256.498 22.6056 264.034 29.7784 270.398C30.2558 271.537 30.7496 272.671 31.2759 273.789C32.1928 275.742 34.0809 275.894 35.5404 275.074C35.5893 275.112 35.6435 275.15 35.6924 275.188C37.1898 276.29 39.154 273.772 37.6945 272.59C37.6185 272.53 37.548 272.465 37.472 272.405C37.5751 271.76 37.4937 271.06 37.1573 270.344C32.8005 261.066 30.6465 251.084 30.4837 240.95C39.1865 249.549 47.9815 258.05 56.7982 266.524C60.5311 270.116 65.539 264.81 62.3812 260.942C46.6522 241.709 50.385 214.768 57.0423 192.79C63.9763 169.901 73.748 147.886 85.8635 127.27C86.4929 126.202 87.1385 125.138 87.7788 124.08C84.7675 139.482 85.6465 155.682 90.6001 170.536C92.8735 177.35 95.977 183.866 99.8672 189.904C104.17 196.577 109.183 202.751 113.654 209.305C117.815 215.403 121.499 221.842 123.366 229.031C124.939 235.107 125.243 241.482 124.478 247.71C122.736 261.81 115.216 275.465 103.508 283.679C100.99 285.442 100.806 290.249 104.457 290.932C135.584 296.732 168.214 278.373 179.521 248.827C180.666 245.833 177.318 243.288 174.622 243.928H174.617ZM115.075 284.156C131.759 267.398 137.559 240.858 128.032 218.772C121.722 204.151 109.915 192.893 102.651 178.821C96.1126 166.147 93.3618 151.705 94.0291 137.502C94.7833 121.416 100.182 105.792 109.698 92.7932C112.27 89.2831 106.329 84.6445 103.622 88.1058C103.421 88.3662 103.22 88.632 103.019 88.887L103.003 88.9087C87.5292 108.797 74.3882 130.666 64.0469 153.637C58.8111 165.268 54.2265 177.204 50.4448 189.389C46.4406 202.279 43.3209 215.837 43.8038 229.416C43.9937 234.733 44.7478 239.984 46.1042 245.051C40.6732 239.794 35.2203 234.559 29.7187 229.378C27.2012 227.007 23.3924 228.792 23.1699 232.09C22.4972 242.171 23.7613 252.223 26.6803 261.815C15.8507 249.109 8.69967 233.241 6.26355 216.737C4.68468 206.055 5.09703 195.004 7.62539 184.506C10.6366 171.99 17.7226 161.416 22.367 149.552C24.3907 144.387 25.7037 138.571 25.7363 132.858C32.3881 143.009 36.6364 154.689 37.9983 166.739C37.1464 174.068 36.886 181.463 37.2387 188.819C37.4286 192.763 43.7658 194.13 44.5199 189.807C45.7787 182.564 46.0445 175.207 45.388 167.948C47.7482 147.485 54.8938 127.677 66.3908 110.425C81.7943 87.3083 106.704 70.9513 116.708 44.2593C118.678 38.9969 119.991 33.4415 120.441 27.8536C131.998 53.4442 137.613 81.6118 136.735 109.758C136.474 118.026 135.633 126.239 134.239 134.383C133.533 136.667 133.089 139.054 132.958 141.501C132.725 145.835 139.713 146.85 140.598 142.537C141.037 140.399 141.428 138.256 141.791 136.102C143.907 129.815 148.926 124.574 155.062 122.051C150.993 133.037 152.594 145.678 154.916 157.011C157.792 171.03 162.539 187.208 154.607 200.451C152.355 204.21 157.851 208.74 160.819 205.241C164.742 200.619 168.665 195.997 172.587 191.374C175.311 212.538 168.084 234.456 152.903 249.701C150.038 252.576 152.968 257.225 156.766 256.33C160.732 255.397 164.698 254.453 168.665 253.515C158.209 272.329 136.588 284.617 115.081 284.145L115.075 284.156Z" fill="#FCDC41"/>
</svg>
