<svg width="300" height="225" viewBox="0 0 300 225" fill="none" xmlns="http://www.w3.org/2000/svg">
<path d="M153.985 74.404C151.912 74.1492 148.914 76.3917 147.775 77.8494C144.497 82.0389 146.32 87.3293 150.502 90.0509C154.924 92.9254 162.564 92.268 165.321 87.2375C168.079 82.2071 164.203 75.3673 158.535 74.5416" fill="white"/>
<path d="M153.985 74.404C151.912 74.1492 148.914 76.3917 147.775 77.8494C144.497 82.0389 146.32 87.3293 150.502 90.0509C154.924 92.9254 162.564 92.268 165.321 87.2375C168.079 82.2071 164.203 75.3673 158.535 74.5416" stroke="black" stroke-width="2" stroke-linecap="round" stroke-linejoin="round"/>
<path d="M259.504 32.6771H276.759C276.759 31.2602 276.759 29.8433 276.759 28.4213H259.31C259.239 29.721 259.239 31.2704 259.504 32.6771Z" fill="white" stroke="black" stroke-width="2" stroke-linecap="round" stroke-linejoin="round"/>
<path d="M188.17 216.311C190.341 218.049 193.583 216.821 196.285 217.494C198.128 217.957 199.64 219.298 201.447 219.879C202.964 220.368 204.598 220.297 206.186 220.18C208.336 220.022 210.481 219.787 212.615 219.486C212.253 216.663 211.41 213.595 209.026 212.03C207.963 211.332 206.697 211.011 205.579 210.414C203.449 209.278 201.841 207.152 199.502 206.566C197.74 206.123 195.907 206.643 194.104 206.877C191.995 207.152 187.44 205.736 186.174 208.039C185.112 209.971 186.516 214.991 188.176 216.311H188.17Z" fill="black" stroke="black" stroke-width="2" stroke-linecap="round" stroke-linejoin="round"/>
<path d="M115.797 212.48C115.21 213.142 114.519 213.712 113.964 214.401C113.001 215.595 112.484 217.16 112.658 218.677C112.832 220.193 113.714 221.64 115.047 222.415C115.988 222.958 117.092 223.157 118.18 223.206C120.541 223.308 123.24 222.479 124.164 220.328C124.904 218.607 124.496 216.186 126.123 215.234C126.591 214.96 127.146 214.879 127.613 214.605C128.729 213.954 128.979 212.491 129.077 211.211C129.24 209.103 129.278 206.838 128.147 205.042C126.297 202.099 121.771 201.68 119.323 204.186C117.163 206.402 117.93 210.06 115.792 212.48H115.797Z" fill="black" stroke="black" stroke-width="2" stroke-linecap="round" stroke-linejoin="round"/>
<path d="M138.796 121.507C137.32 128.429 132.116 133.857 128.674 140.044C126.673 143.642 125.253 147.536 124.058 151.481C118.594 169.569 117.849 188.697 117.18 207.575C121.107 208.865 125.202 209.645 129.333 209.9C131.248 200.756 132.433 191.465 132.867 182.133C132.969 179.926 133.035 177.693 133.613 175.563C134.899 170.823 138.673 167.5 141.589 163.657C144.638 159.641 147.492 155.482 150.147 151.201C150.796 150.151 152.19 146.537 153.569 146.558C154.815 146.578 156.52 150.1 157.23 151.017C159.778 154.315 162.628 157.373 165.038 160.777C168.776 166.058 173.106 170.915 177.927 175.232C178.376 175.634 178.836 176.037 179.158 176.547C179.612 177.26 179.76 178.122 179.903 178.952C181.308 187.301 182.712 195.654 184.116 204.003C184.213 204.594 184.325 205.216 184.698 205.685C185.051 206.133 185.597 206.388 186.128 206.597C189.299 207.841 192.93 207.978 196.249 207.336C200.917 206.429 201.213 205.542 200.437 201.072C198.991 192.749 197.174 184.492 194.988 176.338C192.634 167.551 189.601 158.367 184.596 150.671C178.535 141.349 173.081 131.634 168.281 121.604C168.092 121.212 167.888 120.799 167.515 120.575C167.04 120.294 166.442 120.401 165.901 120.493C157.455 121.961 147.119 119.418 138.801 121.502L138.796 121.507Z" fill="white" stroke="black" stroke-width="2" stroke-linecap="round" stroke-linejoin="round"/>
<path d="M248.452 1.91291C248.452 1.91291 248.447 1.9231 248.441 1.9282C248.819 1.6122 249.202 1.37775 249.601 1.23505C249.121 1.37266 248.707 1.58672 248.452 1.91801V1.91291Z" fill="white" stroke="black" stroke-width="2" stroke-linecap="round" stroke-linejoin="round"/>
<path d="M253.644 1.05663C253.015 1.05663 251.703 0.929212 250.523 1.05663C250.529 1.05663 250.534 1.05663 250.539 1.05663C255.359 1.05663 259.266 14.303 259.266 30.643C259.266 46.9831 255.477 59.8115 250.758 60.2091C251.718 60.4741 252.878 60.2294 253.638 60.2294C258.459 60.2294 262.365 46.9831 262.365 30.643C262.365 14.303 258.464 1.05663 253.644 1.05663Z" fill="black" stroke="black" stroke-width="2" stroke-linecap="round" stroke-linejoin="round"/>
<path d="M249.594 1.22993C249.885 1.14838 250.196 1.09232 250.523 1.05664C250.212 1.05664 249.9 1.1178 249.594 1.22993Z" fill="white" stroke="black" stroke-width="2" stroke-linecap="round" stroke-linejoin="round"/>
<path d="M250.54 1.05688C250.54 1.05688 250.529 1.05688 250.524 1.05688C250.197 1.09256 249.886 1.14863 249.595 1.23017C249.202 1.37288 248.814 1.60733 248.436 1.92333C244.631 5.11387 241.812 16.7599 241.812 30.6382C241.812 46.9783 245.719 60.2246 250.54 60.2246C250.616 60.2246 250.688 60.2144 250.759 60.2042C255.478 59.8067 259.267 46.7234 259.267 30.6382C259.267 14.553 255.36 1.05688 250.54 1.05688Z" fill="white" stroke="black" stroke-width="2" stroke-linecap="round" stroke-linejoin="round"/>
<path d="M251.821 23.1254C251.443 22.3863 251.009 21.9531 250.539 21.9531C250.442 21.9633 250.35 21.9786 250.268 22.0041C250.151 22.0449 250.038 22.1162 249.926 22.208C248.808 23.1458 247.98 26.5656 247.98 30.643C247.98 35.4441 249.129 39.3329 250.544 39.3329C250.564 39.3329 250.585 39.3329 250.61 39.3278C251.055 39.2921 251.468 38.8691 251.826 38.1607C251.06 36.6571 250.544 33.859 250.544 30.643C250.544 27.427 251.06 24.6289 251.826 23.1254H251.821Z" fill="black" stroke="black" stroke-width="2" stroke-linecap="round" stroke-linejoin="round"/>
<path d="M251.821 23.1254C251.055 24.6289 250.539 27.427 250.539 30.643C250.539 33.859 251.055 36.6622 251.821 38.1607C252.587 36.6571 253.103 33.8539 253.103 30.643C253.103 27.4321 252.587 24.6289 251.821 23.1254Z" fill="white" stroke="black" stroke-width="2" stroke-linecap="round" stroke-linejoin="round"/>
<path d="M231.694 1.91291C231.694 1.91291 231.689 1.9231 231.684 1.9282C232.061 1.6122 232.444 1.37775 232.843 1.23505C232.363 1.37266 231.949 1.58672 231.694 1.91801V1.91291Z" fill="white" stroke="black" stroke-width="2" stroke-linecap="round" stroke-linejoin="round"/>
<path d="M236.886 1.05663C236.258 1.05663 234.945 0.929212 233.766 1.05663C233.771 1.05663 233.776 1.05663 233.781 1.05663C238.602 1.05663 242.508 14.303 242.508 30.643C242.508 46.9831 238.719 59.8115 234.001 60.2091C234.961 60.4741 236.12 60.2294 236.881 60.2294C241.701 60.2294 245.608 46.9831 245.608 30.643C245.608 14.303 241.706 1.05663 236.886 1.05663Z" fill="black" stroke="black" stroke-width="2" stroke-linecap="round" stroke-linejoin="round"/>
<path d="M232.836 1.22993C233.127 1.14838 233.439 1.09232 233.765 1.05664C233.454 1.05664 233.142 1.1178 232.836 1.22993Z" fill="white" stroke="black" stroke-width="2" stroke-linecap="round" stroke-linejoin="round"/>
<path d="M233.782 1.05688C233.782 1.05688 233.772 1.05688 233.766 1.05688C233.44 1.09256 233.128 1.14863 232.837 1.23017C232.444 1.37288 232.056 1.60733 231.678 1.92333C227.873 5.11387 225.055 16.7599 225.055 30.6382C225.055 46.9783 228.961 60.2246 233.782 60.2246C233.858 60.2246 233.93 60.2144 234.001 60.2042C238.72 59.8067 242.509 46.7234 242.509 30.6382C242.509 14.553 238.602 1.05688 233.782 1.05688Z" fill="white" stroke="black" stroke-width="2" stroke-linecap="round" stroke-linejoin="round"/>
<path d="M235.063 23.1254C234.685 22.3863 234.251 21.9531 233.781 21.9531C233.684 21.9633 233.592 21.9786 233.51 22.0041C233.393 22.0449 233.281 22.1162 233.168 22.208C232.05 23.1458 231.223 26.5656 231.223 30.643C231.223 35.4441 232.372 39.3329 233.786 39.3329C233.807 39.3329 233.827 39.3329 233.853 39.3278C234.297 39.2921 234.71 38.8691 235.068 38.1607C234.302 36.6571 233.786 33.859 233.786 30.643C233.786 27.427 234.302 24.6289 235.068 23.1254H235.063Z" fill="black" stroke="black" stroke-width="2" stroke-linecap="round" stroke-linejoin="round"/>
<path d="M235.063 23.1254C234.297 24.6289 233.781 27.427 233.781 30.643C233.781 33.859 234.297 36.6622 235.063 38.1607C235.829 36.6571 236.345 33.8539 236.345 30.643C236.345 27.4321 235.829 24.6289 235.063 23.1254Z" fill="white" stroke="black" stroke-width="2" stroke-linecap="round" stroke-linejoin="round"/>
<path d="M214.678 1.91291C214.678 1.91291 214.673 1.9231 214.668 1.9282C215.046 1.6122 215.429 1.37775 215.827 1.23505C215.347 1.37266 214.934 1.58672 214.678 1.91801V1.91291Z" fill="white" stroke="black" stroke-width="2" stroke-linecap="round" stroke-linejoin="round"/>
<path d="M219.87 1.05663C219.242 1.05663 217.93 0.929212 216.75 1.05663C216.755 1.05663 216.76 1.05663 216.765 1.05663C221.586 1.05663 225.492 14.303 225.492 30.643C225.492 46.9831 221.703 59.8115 216.985 60.2091C217.945 60.4741 219.104 60.2294 219.865 60.2294C224.686 60.2294 228.592 46.9831 228.592 30.643C228.592 14.303 224.691 1.05663 219.87 1.05663Z" fill="black" stroke="black" stroke-width="2" stroke-linecap="round" stroke-linejoin="round"/>
<path d="M215.824 1.22993C216.115 1.14838 216.427 1.09232 216.754 1.05664C216.442 1.05664 216.131 1.1178 215.824 1.22993Z" fill="white" stroke="black" stroke-width="2" stroke-linecap="round" stroke-linejoin="round"/>
<path d="M216.77 1.05688C216.77 1.05688 216.76 1.05688 216.755 1.05688C216.428 1.09256 216.116 1.14863 215.825 1.23017C215.432 1.37288 215.044 1.60733 214.666 1.92333C210.862 5.11387 208.043 16.7599 208.043 30.6382C208.043 46.9783 211.949 60.2246 216.77 60.2246C216.847 60.2246 216.918 60.2144 216.99 60.2042C221.708 59.8067 225.497 46.7234 225.497 30.6382C225.497 14.553 221.585 1.05688 216.77 1.05688Z" fill="white" stroke="black" stroke-width="2" stroke-linecap="round" stroke-linejoin="round"/>
<path d="M218.051 23.1254C217.673 22.3863 217.239 21.9531 216.769 21.9531C216.672 21.9633 216.58 21.9786 216.499 22.0041C216.381 22.0449 216.269 22.1162 216.157 22.208C215.038 23.1458 214.211 26.5656 214.211 30.643C214.211 35.4441 215.36 39.3329 216.774 39.3329C216.795 39.3329 216.815 39.3329 216.841 39.3278C217.285 39.2921 217.699 38.8691 218.056 38.1607C217.29 36.6571 216.774 33.859 216.774 30.643C216.774 27.427 217.29 24.6289 218.056 23.1254H218.051Z" fill="black" stroke="black" stroke-width="2" stroke-linecap="round" stroke-linejoin="round"/>
<path d="M218.051 23.1254C217.285 24.6289 216.77 27.427 216.77 30.643C216.77 33.859 217.285 36.6622 218.051 38.1607C218.817 36.6571 219.333 33.8539 219.333 30.643C219.333 27.4321 218.817 24.6289 218.051 23.1254Z" fill="white" stroke="black" stroke-width="2" stroke-linecap="round" stroke-linejoin="round"/>
<path d="M35.0503 30.5517L32.543 35.5465L39.7279 34.9502L44.3493 24.084L35.0503 30.5517Z" fill="white" stroke="black" stroke-width="2" stroke-linecap="round" stroke-linejoin="round"/>
<path d="M218.977 28.4263H92.5703C92.8205 29.8432 93.0401 31.26 93.1065 32.682H219.151C219.422 31.3059 219.411 29.889 218.977 28.4263Z" fill="white" stroke="black" stroke-width="2" stroke-linecap="round" stroke-linejoin="round"/>
<path d="M84.9985 1.91291C84.9985 1.91291 84.9934 1.9231 84.9883 1.9282C85.3662 1.6122 85.7491 1.37775 86.1475 1.23505C85.6674 1.37266 85.2538 1.58672 84.9985 1.91801V1.91291Z" fill="white" stroke="black" stroke-width="2" stroke-linecap="round" stroke-linejoin="round"/>
<path d="M90.1943 1.05663C89.5662 1.05663 88.2538 0.929212 87.0742 1.05663C87.0793 1.05663 87.0844 1.05663 87.0895 1.05663C91.9101 1.05663 95.8166 14.303 95.8166 30.643C95.8166 46.9831 92.0276 59.8115 87.3091 60.2091C88.2692 60.4741 89.4283 60.2294 90.1892 60.2294C95.0098 60.2294 98.9163 46.9831 98.9163 30.643C98.9163 14.303 95.0149 1.05663 90.1943 1.05663Z" fill="black" stroke="black" stroke-width="2" stroke-linecap="round" stroke-linejoin="round"/>
<path d="M86.1484 1.22993C86.4395 1.14838 86.751 1.09232 87.0778 1.05664C86.7663 1.05664 86.4548 1.1178 86.1484 1.22993Z" fill="white" stroke="black" stroke-width="2" stroke-linecap="round" stroke-linejoin="round"/>
<path d="M87.0943 1.05688C87.0943 1.05688 87.084 1.05688 87.0789 1.05688C86.7521 1.09256 86.4406 1.14863 86.1495 1.23017C85.7563 1.37288 85.3682 1.60733 84.9904 1.92333C81.186 5.11387 78.3672 16.7599 78.3672 30.6382C78.3672 46.9783 82.2737 60.2246 87.0943 60.2246C87.1709 60.2246 87.2423 60.2144 87.3138 60.2042C92.0323 59.8067 95.8213 46.7234 95.8213 30.6382C95.8213 14.553 91.9148 1.05688 87.0943 1.05688Z" fill="white" stroke="black" stroke-width="2" stroke-linecap="round" stroke-linejoin="round"/>
<path d="M88.3753 23.1254C87.9974 22.3863 87.5633 21.9531 87.0935 21.9531C86.9965 21.9633 86.9046 21.9786 86.8229 22.0041C86.7054 22.0449 86.5931 22.1162 86.4808 22.208C85.3624 23.1458 84.5352 26.5656 84.5352 30.643C84.5352 35.4441 85.6841 39.3329 87.0986 39.3329C87.1191 39.3329 87.1395 39.3329 87.165 39.3278C87.6093 39.2921 88.0229 38.8691 88.3804 38.1607C87.6144 36.6571 87.0986 33.859 87.0986 30.643C87.0986 27.427 87.6144 24.6289 88.3804 23.1254H88.3753Z" fill="black" stroke="black" stroke-width="2" stroke-linecap="round" stroke-linejoin="round"/>
<path d="M88.3755 23.1254C87.6095 24.6289 87.0938 27.427 87.0938 30.643C87.0938 33.859 87.6095 36.6622 88.3755 38.1607C89.1415 36.6571 89.6572 33.8539 89.6572 30.643C89.6572 27.4321 89.1415 24.6289 88.3755 23.1254Z" fill="white" stroke="black" stroke-width="2" stroke-linecap="round" stroke-linejoin="round"/>
<path d="M136.702 65.846C135.175 63.7411 133.715 61.5546 132.116 59.5669C131.182 58.3998 130.171 57.2785 129.446 55.9686C128.833 54.8626 128.44 53.6445 127.904 52.4978C126.545 49.5926 126.428 48.6497 124.232 46.3104C122.184 44.1188 120.933 41.1984 120.765 38.2066C120.724 37.4676 120.744 36.7183 120.918 35.9946C121.26 34.5624 122.159 33.3239 122.547 31.9019C122.976 30.3424 122.695 28.5177 121.546 27.3761C120.397 26.2293 118.334 26.0152 117.154 27.1263C117.032 27.2436 116.914 27.3761 116.863 27.5443C116.736 27.9724 117.129 28.3903 117.532 28.584C117.936 28.7777 118.41 28.8796 118.717 29.2058C119.391 29.9142 118.814 31.1323 117.997 31.6777C115.387 33.431 112.073 31.9427 109.086 32.5645C109.954 34.3127 111.803 37.2127 112.671 38.9609C113.488 40.6071 114.315 42.2738 114.795 44.0474C115.428 46.397 115.449 48.8791 116.067 51.2338C116.618 53.3285 117.655 55.2959 119.069 56.9421C123.491 62.0796 124.436 68.5626 127.189 74.5665C131.044 72.6909 134.379 69.6176 136.697 65.846H136.702Z" fill="white" stroke="black" stroke-width="2" stroke-linecap="round" stroke-linejoin="round"/>
<path d="M197.08 29.6087C197.529 29.1092 197.524 26.9737 197.141 26.4182C196.064 26.5201 195.135 25.5772 194.129 25.9849C190.722 27.3611 191.81 31.8462 192.903 34.4761C194.619 38.6095 188.44 42.8856 186.709 45.9233C185.703 47.6867 185.202 49.6847 184.421 51.5602C183.272 54.3227 181.541 56.7946 179.815 59.241L175.234 65.7546C176.526 69.5363 179.463 72.9817 183.165 74.3272C185.044 71.9675 186.744 69.4752 187.965 66.7026C188.869 64.6435 189.502 62.457 190.641 60.5203C191.994 58.2216 194.001 56.4531 195.15 54.0525C196.539 51.1474 197.872 48.1709 198.939 45.1282C199.827 42.59 199.107 39.2976 200.476 36.9938C201.288 35.6279 203.765 33.4924 203.811 31.8003C202.12 31.892 194.011 33.0337 197.075 29.6087H197.08Z" fill="white" stroke="black" stroke-width="2" stroke-linecap="round" stroke-linejoin="round"/>
<path d="M152.735 87.5533C155.288 89.0824 157.841 88.063 159.884 86.534C162.642 83.4403 163.535 79.419 164.143 75.2499C160.941 76.0093 157.433 75.8921 154.098 75.7239C151.867 75.6117 150.33 75.7595 148.517 75.3773C148.19 80.0153 148.614 84.8062 152.735 87.5533Z" stroke="black" stroke-width="2" stroke-linecap="round" stroke-linejoin="round"/>
<path d="M175.245 65.7495C174.898 66.2439 174.556 66.7332 174.208 67.2276C172.656 69.4345 171.058 71.6923 168.836 73.2315C167.407 74.2254 165.818 74.8574 164.143 75.2498C163.536 79.4189 162.642 83.4402 159.885 86.5339C157.842 88.0629 155.289 89.0823 152.735 87.5533C148.615 84.8112 148.191 80.0152 148.517 75.3772C147.946 75.2549 147.343 75.0816 146.684 74.8319C142.395 73.1856 139.448 69.6434 136.696 65.8464C134.383 69.6179 131.043 72.6964 127.188 74.5669C127.668 75.6168 128.199 76.6514 128.816 77.6606C130.098 79.7502 131.691 81.6513 132.764 83.8531C134.5 87.4106 134.76 91.4777 135.118 95.4226C135.578 100.494 136.241 105.55 137.109 110.565C137.518 112.925 138.34 115.427 138.442 117.818C138.631 122.252 140.061 123.031 144.126 124.596C148.226 126.176 152.817 125.982 157.091 125.376C158.792 125.136 160.487 124.831 162.142 124.346C164.041 123.791 165.869 123.011 167.58 122.017C169.153 121.105 168.724 119.78 169.015 117.986C170.067 111.518 169.352 104.678 171.813 98.6029C172.426 97.0943 173.223 95.6672 173.785 94.1382C174.469 92.2728 174.785 90.2902 175.281 88.3637C176.287 84.4494 177.798 80.5657 180.469 77.528C181.393 76.4781 182.297 75.4129 183.176 74.3171C179.473 72.9716 176.537 69.5211 175.245 65.7444V65.7495Z" fill="black" stroke="black" stroke-width="2" stroke-linecap="round" stroke-linejoin="round"/>
<path d="M146.931 74.072C147.633 76.2254 148.556 78.3553 150.069 80.0347C151.582 81.7141 153.779 82.9019 156.034 82.7556C158.132 82.6211 160.042 81.363 161.368 79.7304C162.695 78.0978 163.524 76.12 164.22 74.1305C165.131 71.5383 165.861 68.8817 166.399 66.1842C166.755 64.4053 167.03 62.5914 166.866 60.7891C166.335 54.7796 160.305 49.8292 154.317 50.4963C141.901 51.8773 144.244 65.8389 146.931 74.0662V74.072Z" fill="white" stroke="black" stroke-width="2" stroke-linecap="round" stroke-linejoin="round"/>
<path d="M149.296 59.3927C149.72 59.5913 150.138 59.7959 150.556 59.9644C152.353 60.6926 154.389 60.6986 156.228 60.1209C157.768 59.6394 159.547 57.5754 161.147 57.7559C164.353 58.1109 165.141 64.2911 166.127 66.6019C166.688 64.3212 167.667 62.1669 168.228 59.8862C169.5 54.729 167.673 46.9361 162.419 44.4929C161.326 43.9874 160.108 43.855 158.914 43.7346C154.466 43.2833 150.574 44.3785 146.221 45.1909C146.03 45.227 145.827 45.2691 145.678 45.3955C145.505 45.5399 145.439 45.7746 145.386 45.9913C145.212 46.6953 145.129 47.4235 145.129 48.1516C144.58 47.6522 143.827 47.3814 143.087 47.4295C142.806 49.3973 143.439 51.4794 144.771 52.9538C143.278 52.695 141.845 52.1293 140.567 51.3109C140.412 53.7601 140.896 56.2515 141.959 58.46C142.162 58.8872 142.412 59.3265 142.824 59.5552C143.869 60.1389 145.033 59.0557 146.198 58.7669C147.254 58.5021 148.287 58.9233 149.308 59.3927H149.296Z" fill="white" stroke="black" stroke-width="2" stroke-linecap="round" stroke-linejoin="round"/>
<path d="M89.394 28.4263H80.2227V32.682H89.588C89.6595 31.3824 89.6595 29.833 89.394 28.4263Z" fill="white" stroke="black" stroke-width="2" stroke-linecap="round" stroke-linejoin="round"/>
<path d="M153.301 77.4651C154.439 77.8786 155.723 77.6352 156.704 76.812" stroke="black" stroke-width="2" stroke-linecap="round" stroke-linejoin="round"/>
<path d="M153.832 67.4527C154.283 69.1377 151.717 71.8659 155.002 71.6996" stroke="black" stroke-width="2" stroke-linecap="round" stroke-linejoin="round"/>
<path d="M157.555 65.2716C158.515 64.8384 159.638 64.7823 160.634 65.1136" stroke="black" stroke-width="2" stroke-linecap="round" stroke-linejoin="round"/>
<path d="M159.258 65.0534C159.309 65.5552 159.428 66.0231 159.595 66.4058C159.641 66.5079 159.697 66.61 159.765 66.6015C159.833 66.6015 159.884 66.4739 159.923 66.3548C160.059 65.921 160.123 65.4021 160.106 64.9003" stroke="black" stroke-width="2" stroke-linecap="round" stroke-linejoin="round"/>
<path d="M147.18 65.3565C148.265 64.7856 149.562 64.7797 150.707 65.3565" stroke="black" stroke-width="2" stroke-linecap="round" stroke-linejoin="round"/>
<path d="M148.803 65.5037C148.609 65.8334 148.756 66.4691 149.045 66.5221C149.334 66.5751 149.582 66.0217 149.446 65.6332" stroke="black" stroke-width="2" stroke-linecap="round" stroke-linejoin="round"/>
<path d="M149.388 84.4696C149.264 82.4548 149.468 80.4087 150.001 78.472C150.176 77.8473 150.402 77.1913 150.883 76.7852C151.379 76.3713 152.043 76.3011 152.663 76.2464C153.998 76.1371 155.333 76.0355 156.668 75.9496C157.201 75.9184 157.748 75.8872 158.251 76.0668C159.272 76.4338 159.863 77.5662 160.301 78.6282C161.059 80.4868 161.65 82.4313 162.051 84.4149C162.38 81.9159 162.577 79.3935 162.65 76.8711C162.686 75.6841 162.65 74.3566 161.876 73.4975C161.023 72.5292 159.615 72.5214 158.375 72.576C156.792 72.6463 155.216 72.7166 153.633 72.7869C152.423 72.8416 151.197 72.8962 150.015 73.2008C148.177 73.685 147.149 75.3249 147.375 77.3241C147.637 79.6669 148.593 82.283 149.395 84.4696H149.388Z" fill="white" stroke="black" stroke-width="2" stroke-linecap="round" stroke-linejoin="round"/>
<path d="M68.2446 1.91291C68.2446 1.91291 68.2395 1.9231 68.2344 1.9282C68.6123 1.6122 68.9952 1.37775 69.3936 1.23505C68.9135 1.37266 68.4999 1.58672 68.2446 1.91801V1.91291Z" fill="white" stroke="black" stroke-width="2" stroke-linecap="round" stroke-linejoin="round"/>
<path d="M73.4365 1.05663C72.8084 1.05663 71.496 0.929212 70.3164 1.05663C70.3215 1.05663 70.3266 1.05663 70.3317 1.05663C75.1523 1.05663 79.0588 14.303 79.0588 30.643C79.0588 46.9831 75.2697 59.8115 70.5513 60.2091C71.5113 60.4741 72.6705 60.2294 73.4314 60.2294C78.252 60.2294 82.1585 46.9831 82.1585 30.643C82.1585 14.303 78.2571 1.05663 73.4365 1.05663Z" fill="black" stroke="black" stroke-width="2" stroke-linecap="round" stroke-linejoin="round"/>
<path d="M69.3906 1.22993C69.6817 1.14838 69.9932 1.09232 70.32 1.05664C70.0085 1.05664 69.697 1.1178 69.3906 1.22993Z" fill="white" stroke="black" stroke-width="2" stroke-linecap="round" stroke-linejoin="round"/>
<path d="M70.3364 1.05688C70.3364 1.05688 70.3262 1.05688 70.3211 1.05688C69.9943 1.09256 69.6828 1.14863 69.3917 1.23017C68.9985 1.37288 68.6104 1.60733 68.2325 1.92333C64.4282 5.11387 61.6094 16.7599 61.6094 30.6382C61.6094 46.9783 65.5159 60.2246 70.3364 60.2246C70.413 60.2246 70.4845 60.2144 70.556 60.2042C75.2745 59.8067 79.0635 46.7234 79.0635 30.6382C79.0635 14.553 75.157 1.05688 70.3364 1.05688Z" fill="white" stroke="black" stroke-width="2" stroke-linecap="round" stroke-linejoin="round"/>
<path d="M71.6175 23.1254C71.2396 22.3863 70.8055 21.9531 70.3357 21.9531C70.2387 21.9633 70.1468 21.9786 70.0651 22.0041C69.9476 22.0449 69.8353 22.1162 69.7229 22.208C68.6046 23.1458 67.7773 26.5656 67.7773 30.643C67.7773 35.4441 68.9263 39.3329 70.3408 39.3329C70.3612 39.3329 70.3817 39.3329 70.4072 39.3278C70.8515 39.2921 71.2651 38.8691 71.6226 38.1607C70.8566 36.6571 70.3408 33.859 70.3408 30.643C70.3408 27.427 70.8566 24.6289 71.6226 23.1254H71.6175Z" fill="black" stroke="black" stroke-width="2" stroke-linecap="round" stroke-linejoin="round"/>
<path d="M71.6177 23.1254C70.8517 24.6289 70.3359 27.427 70.3359 30.643C70.3359 33.859 70.8517 36.6622 71.6177 38.1607C72.3837 36.6571 72.8994 33.8539 72.8994 30.643C72.8994 27.4321 72.3837 24.6289 71.6177 23.1254Z" fill="white" stroke="black" stroke-width="2" stroke-linecap="round" stroke-linejoin="round"/>
<path d="M72.6987 28.4263H63.5273V32.682H72.8927C72.9642 31.3824 72.9642 29.833 72.6987 28.4263Z" fill="white" stroke="black" stroke-width="2" stroke-linecap="round" stroke-linejoin="round"/>
<path d="M236.11 32.6771H229.078C229.078 31.2602 229.078 29.8433 229.078 28.4213H236.304C236.375 29.721 236.375 31.2704 236.11 32.6771Z" fill="white" stroke="black" stroke-width="2" stroke-linecap="round" stroke-linejoin="round"/>
<path d="M252.868 32.6771H245.836C245.836 31.2602 245.836 29.8433 245.836 28.4213H253.062C253.133 29.721 253.133 31.2704 252.868 32.6771Z" fill="white" stroke="black" stroke-width="2" stroke-linecap="round" stroke-linejoin="round"/>
<path d="M51.229 1.91291C51.229 1.91291 51.2239 1.9231 51.2188 1.9282C51.5966 1.6122 51.9796 1.37775 52.3779 1.23505C51.8979 1.37266 51.4843 1.58672 51.229 1.91801V1.91291Z" fill="white" stroke="black" stroke-width="2" stroke-linecap="round" stroke-linejoin="round"/>
<path d="M56.4248 1.05663C55.7967 1.05663 54.4843 0.929212 53.3047 1.05663C53.3098 1.05663 53.3149 1.05663 53.32 1.05663C58.1406 1.05663 62.0471 14.303 62.0471 30.643C62.0471 46.9831 58.258 59.8115 53.5396 60.2091C54.4996 60.4741 55.6588 60.2294 56.4197 60.2294C61.2402 60.2294 65.1467 46.9831 65.1467 30.643C65.1467 14.303 61.2402 1.05663 56.4248 1.05663Z" fill="black" stroke="black" stroke-width="2" stroke-linecap="round" stroke-linejoin="round"/>
<path d="M52.375 1.22993C52.6661 1.14838 52.9776 1.09232 53.3044 1.05664C52.9929 1.05664 52.6814 1.1178 52.375 1.22993Z" fill="white" stroke="black" stroke-width="2" stroke-linecap="round" stroke-linejoin="round"/>
<path d="M53.3208 1.05688C53.3208 1.05688 53.3106 1.05688 53.3055 1.05688C52.9787 1.09256 52.6672 1.14863 52.3761 1.23017C51.9829 1.37288 51.5948 1.60733 51.2169 1.92333C47.4126 5.11387 44.5938 16.7599 44.5938 30.6382C44.5938 46.9783 48.5003 60.2246 53.3208 60.2246C53.3974 60.2246 53.4689 60.2144 53.5404 60.2042C58.2588 59.8067 62.0479 46.7234 62.0479 30.6382C62.0479 14.553 58.1414 1.05688 53.3208 1.05688Z" fill="white" stroke="black" stroke-width="2" stroke-linecap="round" stroke-linejoin="round"/>
<path d="M54.6018 23.1254C54.2239 22.3863 53.7899 21.9531 53.3201 21.9531C53.2231 21.9633 53.1311 21.9786 53.0494 22.0041C52.932 22.0449 52.8197 22.1162 52.7073 22.208C51.589 23.1458 50.7617 26.5656 50.7617 30.643C50.7617 35.4441 51.9107 39.3329 53.3252 39.3329C53.3456 39.3329 53.3661 39.3329 53.3916 39.3278C53.8359 39.2921 54.2495 38.8691 54.6069 38.1607C53.841 36.6571 53.3252 33.859 53.3252 30.643C53.3252 27.427 53.841 24.6289 54.6069 23.1254H54.6018Z" fill="black" stroke="black" stroke-width="2" stroke-linecap="round" stroke-linejoin="round"/>
<path d="M54.602 23.1254C53.8361 24.6289 53.3203 27.427 53.3203 30.643C53.3203 33.859 53.8361 36.6622 54.602 38.1607C55.368 36.6571 55.8838 33.8539 55.8838 30.643C55.8838 27.4321 55.368 24.6289 54.602 23.1254Z" fill="white" stroke="black" stroke-width="2" stroke-linecap="round" stroke-linejoin="round"/>
<path d="M55.6582 28.4263H22.4453V32.682H55.8574C55.9288 31.3824 55.9289 29.833 55.6633 28.4263H55.6582Z" fill="white" stroke="black" stroke-width="2" stroke-linecap="round" stroke-linejoin="round"/>
<path d="M43.991 10.0474L52.0134 8.99237C52.0134 8.99237 47.3001 46.1576 45.1553 64.7708C42.4438 64.3427 39.676 64.2458 36.944 64.4803C39.4105 51.0148 44.3485 24.0837 44.3485 24.0837L42.2855 27.9572L35.7695 27.9419L43.991 10.0474Z" fill="white" stroke="black" stroke-width="2" stroke-linecap="round" stroke-linejoin="round"/>
<path d="M52.0143 8.99237H54.6033L48.2151 63.5527L45.1562 64.7708L52.0143 8.99237Z" fill="black" stroke="black" stroke-width="2" stroke-linecap="round" stroke-linejoin="round"/>
<path d="M107.451 32.0703C107.625 32.5035 107.91 32.9877 108.375 33.0081C108.666 33.0183 108.942 32.8246 109.09 32.5698C109.238 32.315 109.289 32.0193 109.315 31.7288C109.422 30.4547 109.126 29.1856 108.789 27.9573C108.585 27.2182 108.283 26.1989 107.507 25.8625C106.731 25.5261 106.297 25.888 106.184 26.6168C105.939 28.207 106.879 30.633 107.456 32.0754L107.451 32.0703Z" fill="white" stroke="black" stroke-width="2" stroke-linecap="round" stroke-linejoin="round"/>
<path d="M111.076 24.2112C111.633 25.0369 111.827 26.0511 111.883 27.045C111.96 28.3243 112.2 30.6331 111.27 31.683C110.229 32.8603 109.207 31.3364 109.003 30.2967C108.692 28.7167 108.166 26.8309 108.298 25.2153C108.411 23.8544 110.152 22.8402 111.076 24.2112Z" fill="white" stroke="black" stroke-width="2" stroke-linecap="round" stroke-linejoin="round"/>
<path d="M113.906 23.3548C114.432 24.1957 114.595 25.2202 114.62 26.2089C114.651 27.4882 114.82 29.8072 113.854 30.8215C112.777 31.9631 111.802 30.4035 111.633 29.3638C111.373 27.7787 110.913 25.8726 111.097 24.262C111.25 22.9012 113.027 21.9481 113.906 23.3497V23.3548Z" fill="white" stroke="black" stroke-width="2" stroke-linecap="round" stroke-linejoin="round"/>
<path d="M117.597 23.2226C118.123 24.0636 118.286 25.088 118.312 26.0768C118.343 27.3561 118.511 29.6751 117.546 30.6893C116.468 31.831 115.493 30.2714 115.325 29.2317C115.064 27.6466 114.605 25.7404 114.788 24.1299C114.942 22.769 116.719 21.8159 117.597 23.2175V23.2226Z" fill="white" stroke="black" stroke-width="2" stroke-linecap="round" stroke-linejoin="round"/>
<path d="M206.388 31.5759C206.271 32.0244 206.051 32.5443 205.592 32.6207C205.301 32.6717 205.005 32.5086 204.826 32.2792C204.647 32.0499 204.555 31.7594 204.494 31.474C204.223 30.2253 204.356 28.9307 204.535 27.6616C204.642 26.9022 204.811 25.8523 205.541 25.4191C206.271 24.9859 206.746 25.2917 206.95 25.995C207.394 27.5393 206.777 30.0673 206.388 31.5708V31.5759Z" fill="white" stroke="black" stroke-width="2" stroke-linecap="round" stroke-linejoin="round"/>
<path d="M201.79 24.2419C201.346 25.1287 201.284 26.1634 201.351 27.1521C201.438 28.4314 201.494 30.7504 202.551 31.6729C203.735 32.7075 204.552 31.0613 204.624 30.0114C204.731 28.4059 205.012 26.4692 204.675 24.879C204.394 23.5385 202.53 22.7587 201.79 24.2368V24.2419Z" fill="white" stroke="black" stroke-width="2" stroke-linecap="round" stroke-linejoin="round"/>
<path d="M198.872 23.7523C198.458 24.6544 198.428 25.689 198.53 26.6778C198.663 27.952 198.795 30.271 199.878 31.1578C201.093 32.1516 201.859 30.485 201.895 29.43C201.951 27.8245 202.166 25.8776 201.778 24.3027C201.451 22.9725 199.566 22.2538 198.872 23.7574V23.7523Z" fill="white" stroke="black" stroke-width="2" stroke-linecap="round" stroke-linejoin="round"/>
<path d="M195.192 24.0938C194.779 24.9959 194.748 26.0306 194.85 27.0193C194.983 28.2935 195.116 30.6125 196.198 31.4993C197.414 32.4932 198.18 30.8266 198.215 29.7716C198.271 28.1661 198.486 26.2192 198.098 24.6443C197.771 23.314 195.887 22.5954 195.192 24.0989V24.0938Z" fill="white" stroke="black" stroke-width="2" stroke-linecap="round" stroke-linejoin="round"/>
<path d="M133.703 132.134C134.821 132.618 136.108 132.185 137.222 131.696C139.004 130.911 140.75 129.942 142.042 128.485C144.437 125.773 144.825 121.895 145.106 118.291" stroke="black" stroke-width="2" stroke-linecap="round" stroke-linejoin="round"/>
<path d="M158.925 118.281C158.843 119.515 159.492 120.667 160.12 121.732C161.8 124.586 163.608 127.573 166.513 129.163C168.152 130.06 170.021 130.442 171.88 130.682" stroke="black" stroke-width="2" stroke-linecap="round" stroke-linejoin="round"/>
<path d="M150.391 120.82L151.693 134.066C151.729 134.433 151.769 134.81 151.923 135.146C152.443 136.288 153.965 136.492 155.221 136.431C154.941 131.487 154.655 126.543 154.374 121.599" stroke="black" stroke-width="2" stroke-linecap="round" stroke-linejoin="round"/>
<path d="M140.934 141.639C143.517 141.471 146.107 141.461 148.69 141.614C147.337 143.377 146.071 145.207 144.891 147.093" stroke="black" stroke-width="2" stroke-linecap="round" stroke-linejoin="round"/>
<path d="M165.589 141.96C164.098 141.323 162.469 141.017 160.845 141.074C159.906 141.104 158.828 141.359 158.42 142.205C158.358 142.332 158.318 142.475 158.363 142.608C158.435 142.817 158.675 142.903 158.889 142.964C160.927 143.566 162.832 144.616 164.43 146.017" stroke="black" stroke-width="2" stroke-linecap="round" stroke-linejoin="round"/>
<path d="M178.348 167.495C180.115 170.018 182.438 172.144 185.109 173.683" stroke="black" stroke-width="2" stroke-linecap="round" stroke-linejoin="round"/>
<path d="M128.306 170.844C127.944 173.3 126.953 175.665 125.457 177.648" stroke="black" stroke-width="2" stroke-linecap="round" stroke-linejoin="round"/>
<path d="M4.93222 28.1104C4.54413 27.1675 3.84964 26.5712 2.85897 26.8872C2.20023 27.1012 1.69468 27.9371 1.43935 28.5385C1.0104 29.5477 0.816356 30.9136 1.22488 31.9635C1.6334 33.0134 3.08876 33.7321 4.11518 33.1612C5.36117 32.4681 5.61139 29.7617 4.93222 28.1104Z" stroke="black" stroke-width="2" stroke-linecap="round" stroke-linejoin="round"/>
<path d="M8.44531 26.6125V32.9222" stroke="black" stroke-width="2" stroke-linecap="round" stroke-linejoin="round"/>
<path d="M12.1995 26.6125C11.5153 28.2485 10.1416 29.589 8.49219 30.2362C10.0446 30.1292 11.597 31.2556 11.9646 32.7642" stroke="black" stroke-width="2" stroke-linecap="round" stroke-linejoin="round"/>
<path d="M17.525 32.9424C17.479 30.9853 17.4331 29.0282 17.3922 27.0761C15.9369 26.9028 16.3198 26.6429 14.8594 26.8111C16.1411 26.7703 18.3318 26.7703 19.6136 26.7296" stroke="black" stroke-width="2" stroke-linecap="round" stroke-linejoin="round"/>
<path d="M280.965 26.6013C280.953 28.6351 280.941 30.6689 280.93 32.7085" stroke="black" stroke-width="2" stroke-linecap="round" stroke-linejoin="round"/>
<path d="M280.926 29.8115L284.357 29.7361" stroke="black" stroke-width="2" stroke-linecap="round" stroke-linejoin="round"/>
<path d="M284.988 26.4218C285.012 28.4613 285.029 30.4951 285.052 32.5347" stroke="black" stroke-width="2" stroke-linecap="round" stroke-linejoin="round"/>
<path d="M291.833 28.3162C291.81 28.2314 291.781 28.1523 291.757 28.0732C291.467 27.2481 290.811 26.6661 289.83 26.6152C287.131 26.4683 287.015 32.1645 289.592 32.5431C291.897 32.8822 292.245 29.7063 291.839 28.3218L291.833 28.3162Z" stroke="black" stroke-width="2" stroke-linecap="round" stroke-linejoin="round"/>
<path d="M294.539 26.6124V32.5683" stroke="black" stroke-width="2" stroke-linecap="round" stroke-linejoin="round"/>
<path d="M295.922 29.9857C296.979 29.8814 298.314 29.893 298.837 30.681C299.33 31.4285 298.639 32.3845 297.705 32.6743C296.77 32.964 295.713 32.7901 294.727 32.6105" stroke="black" stroke-width="2" stroke-linecap="round" stroke-linejoin="round"/>
<path d="M294.855 25.8079C295.111 25.8253 295.366 25.7616 295.628 25.7616C296.365 25.7674 297.242 26.0223 297.787 26.5033C298.269 26.932 298.495 27.6563 298.391 28.2531C298.228 29.2324 296.783 29.7713 295.895 30.0262" stroke="black" stroke-width="2" stroke-linecap="round" stroke-linejoin="round"/>
</svg>
