<svg width="336" height="235" viewBox="0 0 336 235" fill="none" xmlns="http://www.w3.org/2000/svg">
<path d="M185.724 88.4036C185.333 87.3247 184.659 86.4771 183.465 86.2523C182.033 85.9826 180.364 86.2908 178.92 86.3358C177.636 86.3807 176.345 86.1431 175.074 86.2459C175.183 87.2412 175.71 88.2494 175.96 89.2255C176.461 91.1713 176.904 93.1299 177.193 95.1207C177.372 96.3472 177.77 97.8948 177.745 99.1471C178.355 99.1984 178.926 98.6205 179.375 98.2609C181.327 96.7068 182.797 94.395 183.978 92.2373C184.389 91.486 185.654 89.5402 185.712 88.4036H185.724Z" fill="black" stroke="black" stroke-width="2.8" stroke-linecap="round" stroke-linejoin="round"/>
<path d="M172.624 67.7643C172.495 67.3276 172.194 66.7882 171.757 66.9038C171.475 66.9808 171.34 67.2891 171.25 67.5652C170.589 69.5816 170.557 72.1246 169.716 74.019C169.035 75.5538 167.398 76.9923 166.281 78.2317C164.233 80.5114 162.166 82.8039 159.72 84.6469C158.269 85.7451 156.607 86.6698 154.835 87.1193C152.543 87.6972 149.783 86.1689 150.566 89.6109C151.169 92.2631 152.485 96.4821 152.325 99.8728C152.241 99.8535 152.151 99.8214 152.068 99.8022C151.041 99.5517 149.982 99.2884 148.903 99.0123C148.8 99.5646 148.698 100.123 148.601 100.682C148.909 101.016 149.243 102.519 149.564 104.336C147.202 105.363 144.409 105.986 143.254 108.24C142.04 110.603 143.337 113.423 144.621 115.754C147.266 120.564 149.904 125.367 152.549 130.177C152.935 130.883 153.403 131.654 154.186 131.853C154.822 132.013 155.477 131.75 156.08 131.48C161.088 129.284 166.095 127.082 171.096 124.885C173.818 123.691 176.713 122.342 178.209 119.78C179.165 118.149 179.429 116.21 179.57 114.322C179.698 112.665 179.743 111.008 179.794 109.351C180.218 95.3455 176.527 81.1792 172.624 67.7579V67.7643Z" fill="white" stroke="black" stroke-width="2.8" stroke-linecap="round" stroke-linejoin="round"/>
<path d="M174.19 68.1692C174.19 68.1692 174.138 68.1307 174.119 68.1114C174.915 69.7425 173.028 73.5506 172.476 75.201C170.447 81.2502 168.046 87.2609 161.062 88.5324C157.428 89.1939 153.595 91.1717 150.739 88.0636C147.953 85.0326 144.852 82.0915 142.4 78.81C140.583 76.3761 138.034 74.1285 136.776 71.303C135.633 68.7279 136.256 66.1721 135.081 63.552C133.746 60.5659 131.679 57.9137 130.388 54.8442C129.676 53.136 129.002 51.3829 128.758 49.5463C128.154 44.9291 131.782 38.2376 134.773 34.8277C139.119 29.8766 145.789 27.1345 152.369 27.3593C158.949 27.584 165.337 30.705 169.747 35.5983C175.018 41.4485 175.474 49.3087 174.325 56.6166C174.787 55.8909 175.718 55.6148 176.456 56.1863C177.156 56.7257 177.387 57.6697 177.515 58.5431C177.862 60.8934 177.791 63.308 177.303 65.6326C177.13 66.4482 176.886 67.3023 176.283 67.8802C175.692 68.4518 174.864 68.715 174.183 68.182L174.19 68.1692Z" fill="white" stroke="black" stroke-width="2.8" stroke-linecap="round" stroke-linejoin="round"/>
<path d="M162.68 27.7507C160.677 24.5077 157.069 22.3179 153.275 22.0354C148.916 21.7079 144.769 23.7307 140.564 24.9316C136.026 26.2288 131.224 26.5884 126.544 25.9783C127.68 27.8856 129.439 29.4203 131.487 30.2744C129.837 30.0304 128.155 29.9598 126.493 30.0625C128.11 31.6423 130.351 32.5734 132.61 32.5927C128.495 32.9137 125.26 36.7411 124.573 40.8124C123.886 44.8838 125.266 49.0515 127.263 52.6605C129.259 56.2695 131.866 59.5189 133.939 63.0893C132.424 57.6694 130.909 51.8835 132.578 46.5085C133.406 43.8563 134.96 41.4996 136.096 38.963C136.096 41.1271 135.698 43.2912 134.934 45.3205C136.058 43.638 137.181 41.9491 138.305 40.2666L137.457 43.1821C141.977 41.7757 144.872 36.7925 149.539 35.9705C152.319 35.4824 155.439 36.5549 157.865 35.11C159.766 33.9733 160.562 31.6423 160.966 29.4653C161.197 30.0176 162.34 29.8955 162.687 29.4075C163.033 28.9194 163.001 28.2644 162.687 27.7571L162.68 27.7507Z" fill="black" stroke="black" stroke-width="2.8" stroke-linecap="round" stroke-linejoin="round"/>
<path d="M162.681 42.5914C163.496 43.2785 164.357 43.9271 165.204 44.55C168.606 47.0416 172.054 49.8736 174.069 53.6431C174.204 52.5771 174.268 51.4983 174.358 50.4323L175.976 55.576C176.689 50.9524 176.734 46.1875 176.117 41.5446C175.681 38.2567 174.891 34.9752 173.312 32.2075C171.733 29.4397 169.28 27.2242 166.462 26.7105C165.666 26.5692 164.825 26.5628 164.1 26.9738C163.374 27.3848 162.809 28.2774 162.899 29.2085C162.103 28.9131 161.243 28.6113 160.441 28.8875C159.734 29.1251 159.612 29.6581 159.317 30.236C159.035 30.7819 158.874 31.1222 158.521 31.6745C157.693 32.9717 157.475 34.4165 157.873 35.9256C158.592 38.6356 160.492 40.7676 162.675 42.6106L162.681 42.5914Z" fill="black" stroke="black" stroke-width="2.8" stroke-linecap="round" stroke-linejoin="round"/>
<path d="M117.048 78.6812C117.928 77.7372 118.666 76.6712 119.539 75.7208C120.386 74.7961 121.349 73.9869 122.184 73.0558C123.282 71.8228 124.136 70.3972 125.079 69.0422C126.094 67.5845 127.23 66.2103 128.565 65.0351C129.278 64.4122 130.876 63.5196 130.703 62.4022C130.542 61.4004 129.226 60.9509 128.36 60.9573C127.005 60.9766 124.867 61.349 123.725 62.1132C122.017 63.2563 120.804 64.6883 119.488 66.2295C118.769 67.0772 116.721 67.8542 117.215 65.8506C117.369 65.2149 117.819 64.7012 118.255 64.2131C119.346 62.9866 120.444 61.76 121.536 60.5335C122.023 59.9876 122.518 59.4354 123.166 59.095C124.103 58.6005 125.214 58.6262 126.273 58.6005C127.371 58.5684 133.418 58.6519 132.378 56.1282C131.852 54.8631 128.661 54.7154 127.512 54.6255C126.26 54.5228 125.246 54.7411 124.148 55.3383C123.339 55.775 115.424 60.1931 115.906 60.816C115.591 60.405 116.021 59.8592 116.143 59.3583C116.291 58.7482 115.931 58.0932 115.411 57.7336C114.891 57.374 114.249 57.252 113.627 57.1685C110.417 56.7447 107.091 57.2199 104.125 58.5363C102.944 59.0629 101.776 59.75 101.063 60.8289C99.9463 62.5242 100.184 64.7589 99.5675 66.6983C99.1438 68.0276 98.3157 69.2092 97.9626 70.5642C97.7443 71.4118 97.7187 72.298 97.5774 73.1585C97.3014 74.8924 96.21 75.9905 95.1829 77.3712C93.9311 79.0537 92.5958 80.6719 91.1899 82.2324C89.9958 83.5553 88.6669 85.0258 88.6798 86.8111C88.6926 88.4229 89.7968 89.7907 90.8496 91.0173C92.3647 92.7768 93.8797 94.5428 95.4012 96.3024C95.5552 96.4822 95.7414 96.6748 95.9789 96.6812C96.2036 96.6812 96.3898 96.5207 96.5503 96.3666C100.171 92.9181 103.792 89.4697 107.412 86.0212C110.391 83.1828 114.294 81.6737 117.061 78.6748L117.048 78.6812Z" fill="white" stroke="black" stroke-width="2.8" stroke-linecap="round" stroke-linejoin="round"/>
<path d="M121.28 51.2796C121.935 51.6007 122.59 51.9218 123.245 52.2429C123.502 52.3713 123.758 52.4933 123.964 52.6924C124.208 52.9236 124.368 53.2318 124.516 53.5336C125.479 55.5115 126.198 57.5986 126.654 59.7499C126.705 59.9939 126.756 60.2507 126.699 60.5012C126.577 61.0213 125.986 61.3296 125.453 61.2846C124.92 61.2397 124.445 60.9379 124.028 60.6039C123.226 59.9553 122.545 59.1591 122.032 58.26C121.781 57.8233 121.55 57.3353 121.107 57.0913C120.606 56.8216 119.997 56.9436 119.438 56.8601C117.846 56.6161 115.586 53.8098 115.548 52.2108C115.477 49.1348 119.785 50.5476 121.28 51.2796Z" fill="white" stroke="black" stroke-width="2.8" stroke-linecap="round" stroke-linejoin="round"/>
<path d="M91.6467 78.1094C91.7494 77.9874 91.8649 77.8589 92.019 77.814C92.2565 77.7498 92.4941 77.8975 92.6931 78.0387C97.2639 81.2432 101.841 84.454 106.412 87.6585C102.4 91.2867 99.4851 98.0295 96.3394 102.428C95.2417 103.963 93.4891 102.859 92.2886 104.316C92.0383 104.618 91.7108 104.946 91.3257 104.901C91.0625 104.869 90.857 104.67 90.6644 104.483C88.4946 102.319 86.3504 100.059 84.9574 97.3231C80.6626 88.8786 86.4339 84.1137 91.6402 78.1094H91.6467Z" fill="black" stroke="black" stroke-width="2.8" stroke-linecap="round" stroke-linejoin="round"/>
<path d="M112.877 51.1128C113.371 50.9073 113.917 50.7532 114.444 50.8624C115.047 50.9844 115.528 51.421 115.984 51.8449C116.999 52.7953 118.019 53.7521 119.034 54.7025C119.444 55.0878 119.875 55.4924 120.099 56.0126C120.33 56.5391 120.343 57.1299 120.337 57.7015C120.324 59.8463 120.17 61.9912 119.875 64.1168C119.83 64.4314 119.772 64.7653 119.56 64.9965C119.091 65.4974 118.225 65.1956 117.756 64.6947C116.042 62.8838 117.024 59.7693 115.805 57.5923C115.599 57.2263 113.564 56.7254 113.102 56.4878C112.28 56.0639 111.202 55.5566 110.605 54.8374C109.192 53.1421 111.407 51.7229 112.877 51.1128Z" fill="white" stroke="black" stroke-width="2.8" stroke-linecap="round" stroke-linejoin="round"/>
<path d="M102.09 59.4805L106.667 54.9275C107.161 54.4395 107.669 53.9386 108.31 53.6689C110.044 52.9368 111.918 54.112 113.69 54.7349C114.268 54.9404 114.884 55.0945 115.346 55.4926C115.777 55.8651 116.02 56.4045 116.252 56.9247C116.727 57.9971 117.202 59.0695 117.677 60.1355C117.812 60.4309 117.934 60.8034 117.741 61.0603C117.625 61.2144 117.426 61.285 117.24 61.3235C116.425 61.4905 115.545 61.2593 114.916 60.7135C114.223 60.1098 113.851 59.1787 113.1 58.6521C112.368 58.1448 111.411 58.1191 110.519 58.1063C110.275 58.1063 110.018 58.1063 109.806 58.2219C109.646 58.3053 109.524 58.4466 109.408 58.5879C108.31 59.8979 107.412 61.3685 106.744 62.9418" fill="white"/>
<path d="M102.09 59.4805L106.667 54.9275C107.161 54.4395 107.669 53.9386 108.31 53.6689C110.044 52.9368 111.918 54.112 113.69 54.7349C114.268 54.9404 114.884 55.0945 115.346 55.4926C115.777 55.8651 116.02 56.4045 116.252 56.9247C116.727 57.9971 117.202 59.0695 117.677 60.1355C117.812 60.4309 117.934 60.8034 117.741 61.0603C117.625 61.2144 117.426 61.285 117.24 61.3235C116.425 61.4905 115.545 61.2593 114.916 60.7135C114.223 60.1098 113.851 59.1787 113.1 58.6521C112.368 58.1448 111.411 58.1191 110.519 58.1063C110.275 58.1063 110.018 58.1063 109.806 58.2219C109.646 58.3053 109.524 58.4466 109.408 58.5879C108.31 59.8979 107.412 61.3685 106.744 62.9418" stroke="black" stroke-width="2.8" stroke-linecap="round" stroke-linejoin="round"/>
<path d="M153.525 51.2475C152.832 51.6713 152.106 52.1337 151.721 52.8465C151.336 53.5593 151.426 54.6125 152.139 55.0042C152.498 55.2033 152.941 55.2033 153.339 55.1134C154.912 54.7538 155.926 53.2896 157.268 52.4997C159.823 50.9971 162.776 50.9585 165.453 49.9439C165.633 49.8733 165.832 49.7834 165.883 49.5971C165.986 49.2696 165.562 49.032 165.228 48.955C160.58 47.8376 157.403 48.8586 153.525 51.2475Z" fill="black"/>
<path d="M187.024 100.11C185.631 99.1596 184.084 98.4725 182.544 97.7982C181.85 97.4964 181.086 97.1817 180.361 97.4C178.955 97.811 178.788 99.6733 178.339 101.067C178.185 101.548 177.96 102.004 177.703 102.435C178.563 102.293 179.417 102.139 180.245 101.959C182.428 101.491 184.733 100.579 187.031 100.116L187.024 100.11Z" fill="white" stroke="black" stroke-width="2.8" stroke-linecap="round" stroke-linejoin="round"/>
<path d="M85.6053 137.665C88.8152 132.842 90.1633 128.18 91.5756 122.561C92.5 118.862 94.06 114.11 95.9859 110.829C97.4817 108.279 96.66 105.139 97.7642 102.358C98.8298 99.674 102.887 96.6815 99.2086 92.257C98.6693 91.6084 98.0787 91.0112 97.4175 90.491C94.5222 88.2306 91.4857 86.1499 88.3337 84.262C84.7644 82.1299 82.3313 86.2976 80.0331 88.6929C75.9373 92.9569 72.246 97.4136 68.9014 102.281C63.1109 110.7 57.5258 119.369 54.6433 129.317C52.9229 135.237 49.1096 147.092 55.831 151.227C63.4511 155.915 74.448 152.345 82.3249 150.174C93.6492 147.06 103.94 141.441 115.072 137.89C116.266 137.511 117.575 137.132 118.744 137.601C119.707 151.671 119 166.139 117.229 180.138C116.176 188.454 114.802 196.725 113.788 205.041C113.017 211.38 112.08 218.482 119.302 220.999C127.288 223.78 135.274 227.325 143.401 229.932C159.508 235.101 176.354 234.273 192.563 230.195C196.28 229.258 200.074 228.025 202.886 225.385C206.706 221.808 208.054 216.318 209.004 211.129C212.008 194.683 212.824 177.948 213.915 161.284C214.461 152.948 215.07 144.613 216.066 136.316C216.695 131.076 218.986 120.782 216.04 116.049C215.488 115.163 210.525 110.578 209.768 109.872C203.9 104.349 194.592 99.4236 186.266 98.6466C187.415 98.409 185.129 98.5438 186.266 98.6466C183.974 99.1154 181.688 100.034 179.518 100.515C178.697 100.695 177.849 100.849 176.989 100.997C176.469 101.883 175.776 102.679 175.076 103.437C169.388 109.583 162.423 114.418 156.883 120.699C154.321 117.578 151.715 113.5 150.874 109.467C150.636 108.33 149.584 98.8264 148.755 97.9017C148.858 97.3365 148.954 96.7714 149.057 96.2127C135.788 92.7964 124.342 93.8817 112.273 100.868C105.988 104.503 103.298 105.845 97.0837 109.615M149.237 99.3016C149.237 99.3016 149.186 99.2823 149.166 99.2887C149.192 99.2887 149.218 99.2887 149.237 99.3016Z" fill="white"/>
<path d="M85.6053 137.665C88.8152 132.842 90.1633 128.18 91.5756 122.561C92.5 118.862 94.06 114.11 95.9859 110.829C97.4817 108.279 96.66 105.139 97.7642 102.358C98.8298 99.674 102.887 96.6815 99.2086 92.257C98.6693 91.6084 98.0787 91.0112 97.4175 90.491C94.5222 88.2306 91.4857 86.1499 88.3337 84.262C84.7644 82.1299 82.3313 86.2976 80.0331 88.6929C75.9373 92.9569 72.246 97.4136 68.9014 102.281C63.1109 110.7 57.5258 119.369 54.6433 129.317C52.9229 135.237 49.1096 147.092 55.831 151.227C63.4511 155.915 74.448 152.345 82.3249 150.174C93.6492 147.06 103.94 141.441 115.072 137.89C116.266 137.511 117.575 137.132 118.744 137.601C119.707 151.671 119 166.139 117.229 180.138C116.176 188.454 114.802 196.725 113.788 205.041C113.017 211.38 112.08 218.482 119.302 220.999C127.288 223.78 135.274 227.325 143.401 229.932C159.508 235.101 176.354 234.273 192.563 230.195C196.28 229.258 200.074 228.025 202.886 225.385C206.706 221.808 208.054 216.318 209.004 211.129C212.008 194.683 212.824 177.948 213.915 161.284C214.461 152.948 215.07 144.613 216.066 136.316C216.695 131.076 218.986 120.782 216.04 116.049C215.488 115.163 210.525 110.578 209.768 109.872C203.9 104.349 194.592 99.4236 186.266 98.6466M186.266 98.6466C185.129 98.5438 187.415 98.409 186.266 98.6466ZM186.266 98.6466C183.974 99.1154 181.688 100.034 179.518 100.515C178.697 100.695 177.849 100.849 176.989 100.997C176.469 101.883 175.776 102.679 175.076 103.437C169.388 109.583 162.423 114.418 156.883 120.699C154.321 117.578 151.715 113.5 150.874 109.467C150.636 108.33 149.584 98.8264 148.755 97.9017C148.858 97.3365 148.954 96.7714 149.057 96.2127C135.788 92.7964 124.342 93.8817 112.273 100.868C105.988 104.503 103.298 105.845 97.0837 109.615M149.237 99.3016C149.237 99.3016 149.186 99.2823 149.166 99.2887C149.192 99.2887 149.218 99.2887 149.237 99.3016Z" stroke="black" stroke-width="2.8" stroke-linecap="round" stroke-linejoin="round"/>
<path d="M138.345 55.3769C137.305 55.5632 136.278 55.7944 135.263 56.0962C134.339 56.3723 133.376 56.764 132.83 57.5667C132.708 57.7466 132.612 57.9713 132.695 58.1704C132.824 58.4658 133.235 58.4658 133.549 58.4208C135.122 58.2025 136.708 58.0227 138.287 57.8878C139.436 57.7915 141.612 58.0869 142.601 57.4512C145.811 55.3834 139.449 55.1779 138.338 55.3769H138.345Z" fill="black"/>
<path d="M129.696 60.5076C129.387 59.1719 129.734 57.939 131.345 57.1684C132.572 56.584 133.99 56.6675 135.345 56.7253C139.73 56.9243 145.116 57.0849 149.25 55.3446C152.755 53.8676 155.849 51.5429 159.406 50.1751C163.315 48.6724 167.559 49.366 171.616 49.9696C172.893 50.1623 174.229 50.4063 175.25 51.2026C176.001 51.7934 177.567 54.7666 176.142 55.3639C175.75 55.5308 174.004 54.6382 173.336 54.6767C172.11 54.7538 170.948 55.4217 169.985 56.1409C168.22 57.4573 166.821 59.1912 165.145 60.6168C163.598 61.9333 161.832 62.9672 159.977 63.7956C157.827 64.7588 155.227 65.4202 153.198 64.2194C152.306 63.6928 151.638 62.858 150.836 62.203C150.033 61.548 148.967 61.0406 147.979 61.3489C146.445 61.8305 146.098 63.7763 145.385 65.2212C143.119 69.8063 137.014 69.4466 133.759 66.4284C132.495 65.2597 130.19 62.736 129.683 60.5141L129.696 60.5076Z" fill="white" stroke="black" stroke-width="2.8" stroke-linecap="round" stroke-linejoin="round"/>
<path d="M142.764 101.774C140.813 104.336 138.104 107.541 136.749 110.462C135.561 113.018 137.577 112.652 140.01 113.005C144.806 113.699 152.31 119.742 156.862 120.718C153.215 116.903 150.68 110.649 149.659 108.292C149.081 106.95 145.409 98.3125 142.764 101.78V101.774Z" fill="black" stroke="black" stroke-width="2.8" stroke-linecap="round" stroke-linejoin="round"/>
<path d="M148.011 68.4834C147.357 69.4659 147.594 70.9429 148.525 71.6686C149.559 72.4777 151.029 72.2915 152.325 72.0667" stroke="black" stroke-width="2.8" stroke-linecap="round" stroke-linejoin="round"/>
<path d="M146.047 77.1207C149.032 77.9812 151.452 77.2106 154.296 76.2088C157.313 75.1493 160.825 73.9099 163.277 71.8036" stroke="black" stroke-width="2.8" stroke-linecap="round" stroke-linejoin="round"/>
<path d="M153.801 54.9211C153.525 55.0752 153.281 55.2037 153.088 55.3064C152.632 55.544 152.177 55.8009 151.843 56.1862C150.565 57.676 153.011 61.1373 154.347 61.9272C156.452 63.1794 158.866 62.0749 160.824 61.0795C163.026 59.9686 165.279 58.3888 166.261 56.0321C168.438 50.792 163.681 50.8754 160.034 51.9158C157.55 52.6222 156.022 53.701 153.801 54.9211Z" fill="black"/>
<path d="M142.709 58.7481C143.512 58.9985 143.723 59.5829 143.653 60.8351C143.556 62.5754 143.467 66.1202 141.021 66.3064C138.247 66.5183 135.403 65.5037 133.433 63.5965C132.868 63.0506 132.361 62.4213 132.097 61.6892C131.359 59.6343 133.876 58.9985 135.436 58.8059C137.471 58.549 139.531 58.5105 141.579 58.594C142.041 58.6132 142.414 58.6582 142.703 58.7545L142.709 58.7481Z" fill="black"/>
<path d="M149.203 78.4821C151.373 81.0251 154.48 81.1792 157.356 79.7086C160.052 78.328 161.118 75.7529 162.081 73.0429" stroke="black" stroke-width="2.8" stroke-linecap="round" stroke-linejoin="round"/>
<path d="M150.74 88.057C150.496 87.858 135.409 104.574 131.121 111.483C134.562 110.18 138.003 108.876 141.444 107.573C141.932 107.386 142.445 107.2 142.959 107.296C146.811 108.016 148.576 114.99 151.304 117.411C153.108 119.01 155.163 120.493 157.448 121.379C156.87 119.665 154.45 115.709 153.866 112.96C153.096 109.339 152.903 105.614 152.82 101.921C152.775 100.046 152.28 89.3157 150.746 88.057H150.74Z" fill="white" stroke="black" stroke-width="2.8" stroke-linecap="round" stroke-linejoin="round"/>
<path d="M185.317 122.567C184.059 119.337 183.494 115.381 180.078 113.962C176.201 112.35 172.452 114.116 169.216 116.3C165.846 118.579 161.468 120.551 157.449 121.373C158.919 117.744 162.347 115.439 165.127 112.89C168.266 110.013 171.431 106.988 173.993 103.578C177.453 98.9866 184.906 92.8603 185.034 87.1129C188.264 89.855 188.912 95.2942 191.589 98.5628C194.093 101.62 191.589 107.271 190.844 110.796C190.363 113.05 189.618 115.24 188.617 117.314C188.296 117.982 185.189 122.233 185.317 122.561V122.567Z" fill="white" stroke="black" stroke-width="2.8" stroke-linecap="round" stroke-linejoin="round"/>
<path d="M129.934 154.547C147.376 149.628 164.619 144.028 181.631 137.773C184.372 144.651 186.889 151.625 189.168 158.676C189.437 159.505 189.681 160.487 189.168 161.193C188.879 161.592 188.41 161.81 187.954 162.009C184.006 163.724 179.923 165.104 175.969 166.806C167.79 170.332 160.023 175.283 151.215 176.593C148.602 176.984 145.944 177.042 143.306 177.094C142.272 177.113 141.207 177.132 140.25 176.747C137.072 175.482 136.976 171.012 135.718 168.309C133.625 163.801 131.853 159.119 129.934 154.534V154.547Z" fill="black" stroke="black" stroke-width="2.8" stroke-linecap="round" stroke-linejoin="round"/>
<path d="M130.537 167.101L195.395 143.9C196.146 143.604 196.993 143.977 197.289 144.728L214.615 188.903C214.911 189.654 214.538 190.502 213.787 190.798L148.255 216.516C147.504 216.812 146.657 216.439 146.362 215.688L129.035 171.513C128.252 169.882 128.874 167.769 130.531 167.095L130.537 167.101Z" fill="black" stroke="black" stroke-width="2.8" stroke-linecap="round" stroke-linejoin="round"/>
<path d="M139.648 144.221C143.596 144.311 147.589 144.395 151.434 143.367C153.726 142.757 155.934 141.762 158.233 141.164C160.203 140.657 162.226 140.452 164.229 140.156C167.637 139.662 171.014 138.917 174.384 138.172C178.41 137.286 182.435 136.4 186.46 135.513C187.789 143.842 188.79 152.242 189.464 160.68C180.265 162.767 171.38 166.749 162.059 167.827C158.412 168.251 154.747 168.225 151.094 168.45C149.219 168.566 147.345 168.733 145.49 169.06C144.373 169.259 141.753 170.557 140.713 169.908C138.614 168.598 139.725 160.776 139.712 158.458L139.648 144.215V144.221Z" fill="white" stroke="black" stroke-width="2.8" stroke-linecap="round" stroke-linejoin="round"/>
<path d="M131.154 166.639L196.685 140.92C197.436 140.625 198.284 140.997 198.579 141.749L218.788 184.826C219.084 185.577 215.835 187.529 215.084 187.824L149.552 213.543C148.801 213.839 147.954 213.466 147.658 212.715L130.332 168.54C130.036 167.789 130.409 166.941 131.16 166.646L131.154 166.639Z" fill="white" stroke="black" stroke-width="2.8" stroke-linecap="round" stroke-linejoin="round"/>
<path d="M179.601 210.031C179.164 207.237 178.343 204.508 177.168 201.946C176.937 201.445 176.686 200.938 176.25 200.597C175.634 200.116 174.793 200.084 174.009 200.084C169.015 200.084 163.956 200.462 159.886 196.943C157.498 194.876 156.169 192.403 154.385 190.021C152.728 187.805 150.892 187.882 150.475 190.535C150.148 192.609 151.335 195.698 152.375 198.099C152.677 198.799 152.966 199.441 153.203 199.981C153.39 200.405 153.582 200.861 153.486 201.31C153.46 201.439 153.402 201.554 153.338 201.663C153.004 201.952 152.683 202.241 152.362 202.53C149.634 204.309 147.862 205.902 144.37 205.754C143.734 205.728 143.137 205.606 142.585 205.272C142.168 205.015 141.545 203.994 141.045 204.065C140.544 204.136 139.979 205.812 139.85 206.242C139.401 207.738 140.094 209.016 141.109 210.082C141.59 210.583 142.258 210.904 142.579 211.514C142.977 212.278 142.791 213.319 142.887 214.147C142.964 214.821 143.131 215.534 143.343 216.183C143.966 218.084 145.943 218.963 146.315 220.967C146.7 223.041 148.254 223.793 149.884 224.801C150.783 225.359 151.29 226.04 152.388 226.143C153.73 226.278 155.104 225.873 156.355 225.424C160.304 224.004 163.571 221.391 167.14 219.278C170.864 217.075 174.581 214.873 178.304 212.67C178.779 212.388 179.286 212.073 179.524 211.572C179.749 211.097 179.684 210.538 179.601 210.018V210.031Z" fill="white" stroke="black" stroke-width="2.8" stroke-linecap="round" stroke-linejoin="round"/>
<path d="M170.6 198.298C170.78 199.095 170.966 199.897 171.146 200.694C172.186 205.234 173.284 209.909 175.999 213.685C176.153 213.897 176.32 214.109 176.558 214.211C176.737 214.288 176.936 214.282 177.129 214.282C183.536 214.121 189.294 210.384 194.109 206.158C192.356 204.136 190.61 202.106 188.858 200.084C187.349 198.343 185.699 195.543 183.709 194.362C181.905 193.289 179.594 194.664 177.848 195.325C175.408 196.256 172.988 197.245 170.594 198.298H170.6Z" fill="black" stroke="black" stroke-width="2.8" stroke-linecap="round" stroke-linejoin="round"/>
<path d="M190.469 137.459C194.629 148.524 206.75 163.062 212.919 173.138C211.25 173.69 209.6 174.288 207.976 174.962C196.896 179.534 177.322 189.102 177.932 194.516C177.932 197.932 182.137 206.396 185.488 210.577C188.666 214.545 196.453 211.951 200.696 210.93C212.425 208.098 223.749 203.616 234.245 197.663C241.512 193.533 248.933 187.902 250.641 179.714C250.667 179.592 250.686 179.47 250.705 179.348C251.63 177.145 251.912 174.628 251.604 171.905C251.328 169.465 250.082 167.256 248.863 165.124C244.915 158.227 240.106 151.979 235.978 145.274C231.793 138.48 223.794 119.639 205.016 106.096" fill="white"/>
<path d="M190.469 137.459C194.629 148.524 206.75 163.062 212.919 173.138C211.25 173.69 209.6 174.288 207.976 174.962C196.896 179.534 177.322 189.102 177.932 194.516C177.932 197.932 182.137 206.396 185.488 210.577C188.666 214.545 196.453 211.951 200.696 210.93C212.425 208.098 223.749 203.616 234.245 197.663C241.512 193.533 248.933 187.902 250.641 179.714C250.667 179.592 250.686 179.47 250.705 179.348C251.63 177.145 251.912 174.628 251.604 171.905C251.328 169.465 250.082 167.256 248.863 165.124C244.915 158.227 240.106 151.979 235.978 145.274C231.793 138.48 223.794 119.639 205.016 106.096" stroke="black" stroke-width="2.8" stroke-linecap="round" stroke-linejoin="round"/>
<path d="M171.525 174.358C173.303 177.042 176.494 178.436 179.672 177.915C176.988 179.694 175.595 182.886 176.115 186.065C174.337 183.38 171.146 181.987 167.969 182.507C170.652 180.728 172.045 177.537 171.525 174.358Z" fill="black" stroke="black" stroke-width="2.8" stroke-linecap="round" stroke-linejoin="round"/>
<path d="M172.847 57.6561C173.001 56.5452 173.578 55.5305 174.253 54.6315C174.85 53.8352 175.665 53.0453 176.66 53.0839C177.642 53.1224 178.425 54.0022 178.682 54.9462C178.939 55.8902 178.785 56.8984 178.624 57.868C178.22 60.3597 177.822 62.8513 177.417 65.3429C177.27 66.2419 177.116 67.1667 176.602 67.918C176.089 68.6693 175.119 69.1895 174.265 68.8877C173.399 68.5794 172.988 67.6098 172.68 66.7428" fill="white"/>
<path d="M172.847 57.6561C173.001 56.5452 173.578 55.5305 174.253 54.6315C174.85 53.8352 175.665 53.0453 176.66 53.0839C177.642 53.1224 178.425 54.0022 178.682 54.9462C178.939 55.8902 178.785 56.8984 178.624 57.868C178.22 60.3597 177.822 62.8513 177.417 65.3429C177.27 66.2419 177.116 67.1667 176.602 67.918C176.089 68.6693 175.119 69.1895 174.265 68.8877C173.399 68.5794 172.988 67.6098 172.68 66.7428" stroke="black" stroke-width="2.8" stroke-linecap="round" stroke-linejoin="round"/>
<path d="M163.566 68.6119C164.208 68.8366 164.863 69.0678 165.39 69.4916C165.916 69.9155 166.314 70.5705 166.237 71.2448" stroke="black" stroke-width="2.8" stroke-linecap="round" stroke-linejoin="round"/>
<path d="M155.246 83.8183C156.254 83.3174 157.365 83.0092 158.488 82.9257" stroke="black" stroke-width="2.8" stroke-linecap="round" stroke-linejoin="round"/>
<path d="M220.868 172.149C219.295 171.449 217.466 171.532 215.816 172.027C214.166 172.521 214.397 172.264 212.914 173.131C214.339 170.036 215.79 167.808 219.096 166.992" stroke="black" stroke-width="2.8" stroke-linecap="round" stroke-linejoin="round"/>
<path d="M118.27 67.1603C114.053 65.9916 109.058 67.3915 106.914 71.6491" stroke="black" stroke-width="2.8" stroke-linecap="round" stroke-linejoin="round"/>
<path d="M119.044 143.803C118.761 139.867 119.326 132.771 116.688 127.916" stroke="black" stroke-width="2.8" stroke-linecap="round" stroke-linejoin="round"/>
<path d="M151.947 92.2439C151.009 93.8558 150.271 95.5896 149.289 97.1822C148.095 99.1216 145.565 101.016 145.039 103.206" stroke="black" stroke-width="2.8" stroke-linecap="round" stroke-linejoin="round"/>
<path d="M175.621 110.443C176.815 108.035 178.908 106.34 180.429 104.137C181.424 102.698 182.978 100.566 183.293 98.8197" stroke="black" stroke-width="2.8" stroke-linecap="round" stroke-linejoin="round"/>
<path d="M143.953 150.99C145.154 151.144 146.38 150.611 147.548 150.438C150.257 150.046 153.011 150.303 155.727 149.917C159.136 149.429 162.512 148.485 165.883 147.882C170.145 147.124 174.812 144.902 179.236 145.082" stroke="black" stroke-width="2.8" stroke-linecap="round" stroke-linejoin="round"/>
<path d="M143.492 156.121C148.891 156.397 154.489 155.222 159.657 153.79C161.711 153.218 170.371 151.369 172.207 150.527" stroke="black" stroke-width="2.8" stroke-linecap="round" stroke-linejoin="round"/>
<path d="M110.516 102.679C112.673 107.367 115.85 111.554 116.396 117.186" stroke="black" stroke-width="2.8" stroke-linecap="round" stroke-linejoin="round"/>
<path d="M199.086 130.517C200.954 124.725 209.922 118.053 215.938 117.578" stroke="black" stroke-width="2.8" stroke-linecap="round" stroke-linejoin="round"/>
<path d="M197.129 111.695C201.616 113.782 204.293 118.046 208.1 120.711" stroke="black" stroke-width="2.8" stroke-linecap="round" stroke-linejoin="round"/>
<path d="M112.863 106.994C115.065 103.899 119.386 102.287 123.051 101.895" stroke="black" stroke-width="2.8" stroke-linecap="round" stroke-linejoin="round"/>
<path d="M246.15 172.99C246.22 176.085 246.471 179.148 244.59 181.82" stroke="black" stroke-width="2.8" stroke-linecap="round" stroke-linejoin="round"/>
<path d="M92.4472 86.766C89.5455 86.965 85.4626 89.4117 84.6602 91.9611" stroke="black" stroke-width="2.8" stroke-linecap="round" stroke-linejoin="round"/>
<path d="M180.719 206.236C184.192 207.238 188.653 208.657 192.139 207.276" stroke="black" stroke-width="2.8" stroke-linecap="round" stroke-linejoin="round"/>
<path d="M250.193 2C234.132 24.2239 210.832 40.5379 185 49.367C196.108 65.0208 209.088 81.1439 224.839 92.6217C250.416 83.2994 273.485 67.4627 287.611 43.8389C273.174 31.8201 260.521 17.6776 250.193 2Z" fill="white" stroke="black" stroke-width="2.8" stroke-linecap="round" stroke-linejoin="round"/>
<path d="M198.609 51.0928C207.504 63.9149 219.058 74.8837 232.333 83.1083L198.609 51.0928Z" fill="white"/>
<path d="M198.609 51.0928C207.504 63.9149 219.058 74.8837 232.333 83.1083" stroke="black" stroke-width="2.8" stroke-linecap="round" stroke-linejoin="round"/>
<path d="M205.719 47.5928C214.414 59.9058 225.586 70.4689 238.375 78.4708L205.719 47.5928Z" fill="white"/>
<path d="M205.719 47.5928C214.414 59.9058 225.586 70.4689 238.375 78.4708" stroke="black" stroke-width="2.8" stroke-linecap="round" stroke-linejoin="round"/>
<path d="M215.465 44.165C222.345 56.5258 233.047 66.731 245.724 73.0307L215.465 44.165Z" fill="white"/>
<path d="M215.465 44.165C222.345 56.5258 233.047 66.731 245.724 73.0307" stroke="black" stroke-width="2.8" stroke-linecap="round" stroke-linejoin="round"/>
<path d="M222.555 40.4424C229.475 51.5862 238.927 61.1471 249.987 68.2024L222.555 40.4424Z" fill="white"/>
<path d="M222.555 40.4424C229.475 51.5862 238.927 61.1471 249.987 68.2024" stroke="black" stroke-width="2.8" stroke-linecap="round" stroke-linejoin="round"/>
<path d="M228.254 36.0273C235.596 47.4972 246.163 56.8752 258.434 62.801L228.254 36.0273Z" fill="white"/>
<path d="M228.254 36.0273C235.596 47.4972 246.163 56.8752 258.434 62.801" stroke="black" stroke-width="2.8" stroke-linecap="round" stroke-linejoin="round"/>
<path d="M234.266 30.4912C235.532 33.3945 237.491 35.9319 239.569 38.3181C246.744 46.5904 255.471 53.5026 265.17 58.5932" fill="white"/>
<path d="M234.266 30.4912C235.532 33.3945 237.491 35.9319 239.569 38.3181C246.744 46.5904 255.471 53.5026 265.17 58.5932" stroke="black" stroke-width="2.8" stroke-linecap="round" stroke-linejoin="round"/>
<path d="M293.875 21C284.009 24.8013 274.021 28.2852 263.932 31.4517C258.941 33.017 253.929 34.5029 248.896 35.9094C246.494 36.5802 243.668 37.4097 241 37.9146C243.79 65.2666 259.193 92.2867 281.068 109.843C299.959 101.404 317.756 90.4906 333.843 77.4566C312.493 66.601 297.061 44.7959 293.868 21.0072L293.875 21Z" fill="white" stroke="black" stroke-width="2.8" stroke-linecap="round" stroke-linejoin="round"/>
<path d="M250.371 45.4736C263.775 43.7496 276.812 39.2271 288.411 32.2881L250.371 45.4736Z" fill="white"/>
<path d="M250.371 45.4736C263.775 43.7496 276.812 39.2271 288.411 32.2881" stroke="black" stroke-width="2.8" stroke-linecap="round" stroke-linejoin="round"/>
<path d="M252.766 52.4485C266.299 50.0465 279.415 45.3003 291.367 38.4912L252.766 52.4485Z" fill="white"/>
<path d="M252.766 52.4485C266.299 50.0465 279.415 45.3003 291.367 38.4912" stroke="black" stroke-width="2.8" stroke-linecap="round" stroke-linejoin="round"/>
<path d="M255.051 59.5034C268.649 57.0293 281.801 52.0955 293.688 45.0195L255.051 59.5034Z" fill="white"/>
<path d="M255.051 59.5034C268.649 57.0293 281.801 52.0955 293.688 45.0195" stroke="black" stroke-width="2.8" stroke-linecap="round" stroke-linejoin="round"/>
<path d="M258.195 67.7473C271.851 64.0975 285.003 58.5434 297.149 51.2871L258.195 67.7473Z" fill="white"/>
<path d="M258.195 67.7473C271.851 64.0975 285.003 58.5435 297.149 51.2871" stroke="black" stroke-width="2.8" stroke-linecap="round" stroke-linejoin="round"/>
<path d="M260.566 75.6753C274.236 70.857 287.374 64.5023 299.635 56.7627L260.566 75.6753Z" fill="white"/>
<path d="M260.566 75.6753C274.236 70.857 287.374 64.5023 299.635 56.7627" stroke="black" stroke-width="2.8" stroke-linecap="round" stroke-linejoin="round"/>
<path d="M264.113 82.4404C277.33 76.9585 290.188 70.5965 302.578 63.4268L264.113 82.4404Z" fill="white"/>
<path d="M264.113 82.4404C277.33 76.9585 290.188 70.5965 302.578 63.4268" stroke="black" stroke-width="2.8" stroke-linecap="round" stroke-linejoin="round"/>
<path d="M269.391 87.6561C282.831 82.2174 295.681 75.3217 307.647 67.1133L269.391 87.6561Z" fill="white"/>
<path d="M269.391 87.6561C282.831 82.2174 295.681 75.3217 307.647 67.1133" stroke="black" stroke-width="2.8" stroke-linecap="round" stroke-linejoin="round"/>
<path d="M273.051 93.8517C286.929 88.9613 299.909 81.5318 311.17 72.0322L273.051 93.8517Z" fill="white"/>
<path d="M273.051 93.8517C286.929 88.9613 299.909 81.5318 311.17 72.0322" stroke="black" stroke-width="2.8" stroke-linecap="round" stroke-linejoin="round"/>
<path d="M280.105 98.764C292.862 93.8302 304.828 86.848 315.406 78.1562L280.105 98.764Z" fill="white"/>
<path d="M280.105 98.764C292.862 93.8302 304.828 86.848 315.406 78.1562" stroke="black" stroke-width="2.8" stroke-linecap="round" stroke-linejoin="round"/>
<path d="M44.117 128.007C32.2202 141.372 18.552 153.094 2 160.126C14.1093 180.664 18.0985 205.716 13.5496 229.067C32.7516 226.149 50.3452 217.206 65.8557 205.408C67.6554 178.131 60.1022 149.987 44.1099 128L44.117 128.007Z" fill="white" stroke="black" stroke-width="2.8" stroke-linecap="round" stroke-linejoin="round"/>
<path d="M11.7656 164.437C23.0247 158.069 33.5114 150.371 42.9282 141.554" stroke="black" stroke-width="2.8" stroke-linecap="round" stroke-linejoin="round"/>
<path d="M12.7773 171.092C21.5423 166.2 30.0592 160.875 38.2785 155.137C41.5946 152.821 44.939 150.358 47.1001 146.964" stroke="black" stroke-width="2.8" stroke-linecap="round" stroke-linejoin="round"/>
<path d="M15.5117 176.662C21.407 173.464 27.2313 170.154 32.992 166.732C38.7455 163.31 44.5132 159.706 48.9984 154.766" stroke="black" stroke-width="2.8" stroke-linecap="round" stroke-linejoin="round"/>
<path d="M17.0586 183.589C30.0182 177.879 42.0425 170.118 52.5434 160.7" stroke="black" stroke-width="2.8" stroke-linecap="round" stroke-linejoin="round"/>
<path d="M19.6914 190.454C33.1612 184.954 45.6815 177.194 56.5579 167.614" stroke="black" stroke-width="2.8" stroke-linecap="round" stroke-linejoin="round"/>
<path d="M21.7188 196.668C35.309 190.958 48.0419 183.275 59.393 173.94" stroke="black" stroke-width="2.8" stroke-linecap="round" stroke-linejoin="round"/>
<path d="M20.8633 203.498C34.2764 198.677 46.825 191.518 57.7582 182.456" stroke="black" stroke-width="2.8" stroke-linecap="round" stroke-linejoin="round"/>
<path d="M21.7773 210.909C35.1267 205.751 49.0003 199.635 60.0468 190.441" stroke="black" stroke-width="2.8" stroke-linecap="round" stroke-linejoin="round"/>
<path d="M21.9688 219.718C35.6582 214.757 48.6674 207.976 60.5429 199.628" stroke="black" stroke-width="2.8" stroke-linecap="round" stroke-linejoin="round"/>
<path d="M32.5368 43C32.5368 43 27.9208 73.3302 3 92.6072L27.7116 103.646C27.7116 103.646 53.4413 81.763 56.6488 56.6597L32.5368 43Z" fill="white" stroke="black" stroke-width="2.8" stroke-linecap="round" stroke-linejoin="round"/>
<path d="M49.6041 58.7013L37.2923 52C37.2923 52 36.7756 56.1299 33.3262 53.6883C33.3262 53.6883 26.6212 76.7013 14.3224 87.6623C14.3224 87.6623 16.932 88.6364 13.9219 91.7922L24.8772 97C24.8772 97 26.3758 92.4026 29.9156 96.1558C29.9156 96.1558 46.4777 79.9481 50.9219 63.2208C50.9219 63.2208 47.0849 62.2597 49.6041 58.6883V58.7013Z" fill="white" stroke="black" stroke-width="2.8" stroke-linecap="round" stroke-linejoin="round"/>
<path d="M24.9219 90C26.0264 90 26.9219 89.1046 26.9219 88C26.9219 86.8954 26.0264 86 24.9219 86C23.8173 86 22.9219 86.8954 22.9219 88C22.9219 89.1046 23.8173 90 24.9219 90Z" fill="white" stroke="black" stroke-width="2.8" stroke-linecap="round" stroke-linejoin="round"/>
<path d="M40.9219 64C42.0264 64 42.9219 63.1046 42.9219 62C42.9219 60.8954 42.0264 60 40.9219 60C39.8173 60 38.9219 60.8954 38.9219 62C38.9219 63.1046 39.8173 64 40.9219 64Z" fill="white" stroke="black" stroke-width="2.8" stroke-linecap="round" stroke-linejoin="round"/>
<path d="M33.9219 85C38.8924 85 42.9219 80.9706 42.9219 76C42.9219 71.0294 38.8924 67 33.9219 67C28.9513 67 24.9219 71.0294 24.9219 76C24.9219 80.9706 28.9513 85 33.9219 85Z" fill="white" stroke="black" stroke-width="2.8" stroke-linecap="round" stroke-linejoin="round"/>
<path d="M234.965 178.43C235.858 178.074 270.865 174.639 294.404 165.951L301.193 194.429C301.193 194.429 262.283 207.96 241.667 206.648L234.965 178.43Z" fill="white" stroke="black" stroke-width="2.8" stroke-linecap="round" stroke-linejoin="round"/>
<path d="M291.075 192.868C290.526 191.447 291.247 189.845 292.677 189.314C292.996 189.187 293.326 189.143 293.656 189.139L290.816 174.903C290.643 175.027 290.453 175.119 290.252 175.208C288.83 175.755 287.227 175.034 286.695 173.605C286.583 173.317 286.539 173.027 286.529 172.748C271.665 177.385 253.14 180.029 245.657 181.064C246.194 182.481 245.477 184.071 244.059 184.607C243.681 184.752 243.296 184.803 242.923 184.78L245.66 198.587C245.66 198.587 245.743 198.537 245.791 198.514C247.213 197.966 248.816 198.688 249.348 200.117C249.605 200.782 249.572 201.492 249.334 202.105C262.893 201.689 283.572 195.641 291.26 193.247C291.194 193.132 291.121 193.002 291.071 192.88L291.075 192.868Z" fill="white" stroke="black" stroke-width="2.8" stroke-linecap="round" stroke-linejoin="round"/>
<path d="M285.285 185.646C286.511 186.067 287.845 185.416 288.266 184.192C288.687 182.967 288.034 181.633 286.809 181.212C285.583 180.791 284.249 181.442 283.828 182.667C283.407 183.891 284.06 185.225 285.285 185.646Z" fill="white" stroke="black" stroke-width="2.8" stroke-linecap="round" stroke-linejoin="round"/>
<path d="M250.394 192.83C251.62 193.251 252.954 192.6 253.375 191.376C253.796 190.151 253.144 188.817 251.918 188.396C250.693 187.975 249.358 188.626 248.937 189.85C248.517 191.075 249.169 192.409 250.394 192.83Z" fill="white" stroke="black" stroke-width="2.8" stroke-linecap="round" stroke-linejoin="round"/>
<path d="M265.262 198.503C270.916 200.446 277.073 197.441 279.015 191.792C280.956 186.143 277.946 179.988 272.292 178.045C266.638 176.102 260.481 179.107 258.54 184.756C256.598 190.405 259.608 196.56 265.262 198.503Z" fill="white" stroke="black" stroke-width="2.8" stroke-linecap="round" stroke-linejoin="round"/>
<path d="M33 20.0677C33 20.0677 58.3306 38.1633 54.382 70.8189L81.9774 56.9153C81.9774 56.9153 80.0255 19.5754 56.0508 6L33 20.0677Z" fill="white" stroke="black" stroke-width="2.8" stroke-linecap="round" stroke-linejoin="round"/>
<path d="M58.7587 58.6351C58.6489 58.7843 58.9234 58.5944 58.7587 58.6351C60.2272 56.6684 62.7387 58.3367 63.0406 59.2997L74.3493 53.6302C74.1023 53.264 73.9513 52.8164 73.9513 52.3417C73.9513 51.0396 75.0218 49.9681 76.353 49.9681C76.4491 49.9681 76.5452 49.9817 76.6549 49.9953C75.8864 43.2814 72.524 23.8993 59.1567 14.5812C58.8959 15.6121 57.9627 16.3852 56.8373 16.3852C55.7119 16.3852 54.861 15.6799 54.5591 14.7169L44.815 20.7933C45.1444 21.2002 45.3365 21.702 45.3365 22.2581C45.3365 23.3161 44.6229 24.2112 43.6484 24.5096C48.2872 28.6872 59.1841 41.4774 58.7587 58.6351Z" fill="white"/>
<path d="M58.7587 58.6351C58.9234 58.5944 58.6489 58.7843 58.7587 58.6351ZM58.7587 58.6351C60.2272 56.6684 62.7387 58.3367 63.0406 59.2997L74.3493 53.6302C74.1023 53.264 73.9513 52.8164 73.9513 52.3417C73.9513 51.0396 75.0218 49.9681 76.353 49.9681C76.4491 49.9681 76.5452 49.9817 76.6549 49.9952C75.8864 43.2814 72.524 23.8993 59.1567 14.5812C58.8959 15.6121 57.9627 16.3852 56.8373 16.3852C55.7119 16.3852 54.861 15.6799 54.5591 14.7169L44.815 20.7933C45.1444 21.2002 45.3365 21.702 45.3365 22.2581C45.3365 23.3161 44.6229 24.2112 43.6484 24.5096C48.2872 28.6872 59.1841 41.4774 58.7587 58.6351Z" stroke="black" stroke-width="2.8" stroke-linecap="round" stroke-linejoin="round"/>
<path d="M68.1373 52.9114C69.3133 52.9114 70.2667 51.958 70.2667 50.7819C70.2667 49.6059 69.3133 48.6525 68.1373 48.6525C66.9612 48.6525 66.0078 49.6059 66.0078 50.7819C66.0078 51.958 66.9612 52.9114 68.1373 52.9114Z" fill="white" stroke="black" stroke-width="2.8" stroke-linecap="round" stroke-linejoin="round"/>
<path d="M55.3599 25.2285C56.536 25.2285 57.4894 24.2751 57.4894 23.0991C57.4894 21.923 56.536 20.9696 55.3599 20.9696C54.1839 20.9696 53.2305 21.923 53.2305 23.0991C53.2305 24.2751 54.1839 25.2285 55.3599 25.2285Z" fill="white" stroke="black" stroke-width="2.8" stroke-linecap="round" stroke-linejoin="round"/>
<path d="M63.8772 45.4583C68.5814 45.4583 72.395 41.4064 72.395 36.4081C72.395 31.4098 68.5814 27.3579 63.8772 27.3579C59.1729 27.3579 55.3594 31.4098 55.3594 36.4081C55.3594 41.4064 59.1729 45.4583 63.8772 45.4583Z" fill="white" stroke="black" stroke-width="2.8" stroke-linecap="round" stroke-linejoin="round"/>
<path d="M267.171 110.681C268.028 110.935 295.589 128.588 317.794 135.797L306.352 160.518C306.352 160.518 270.125 147.995 255.815 135.161L267.171 110.681Z" fill="white" stroke="black" stroke-width="2.8" stroke-linecap="round" stroke-linejoin="round"/>
<path d="M299.756 153.424C300.17 152.08 301.609 151.33 302.95 151.762C303.254 151.853 303.519 152.01 303.761 152.195L309.84 140.244C309.643 140.235 309.453 140.193 309.257 140.142C307.912 139.726 307.162 138.287 307.592 136.945C307.676 136.673 307.81 136.437 307.963 136.229C294.528 131.094 279.578 122.42 273.557 118.892C273.136 120.227 271.707 120.97 270.372 120.548C270.014 120.437 269.706 120.254 269.449 120.024L263.54 131.606C263.54 131.606 263.629 131.617 263.676 131.627C265.021 132.043 265.771 133.483 265.341 134.824C265.147 135.454 264.716 135.949 264.193 136.259C274.267 143.709 292.727 151.146 299.673 153.805C299.691 153.684 299.712 153.548 299.746 153.431L299.756 153.424Z" fill="white" stroke="black" stroke-width="2.8" stroke-linecap="round" stroke-linejoin="round"/>
<path d="M299.689 144.876C300.338 145.882 301.678 146.173 302.683 145.525C303.689 144.877 303.978 143.537 303.33 142.53C302.682 141.524 301.341 141.234 300.336 141.881C299.331 142.529 299.041 143.87 299.689 144.876Z" fill="white" stroke="black" stroke-width="2.8" stroke-linecap="round" stroke-linejoin="round"/>
<path d="M270.267 130.137C270.916 131.143 272.256 131.434 273.261 130.786C274.267 130.138 274.556 128.798 273.908 127.791C273.26 126.785 271.919 126.494 270.914 127.142C269.909 127.79 269.619 129.13 270.267 130.137Z" fill="white" stroke="black" stroke-width="2.8" stroke-linecap="round" stroke-linejoin="round"/>
<path d="M277.809 142.752C280.8 147.394 286.985 148.735 291.623 145.747C296.262 142.759 297.597 136.574 294.607 131.931C291.616 127.289 285.431 125.948 280.793 128.936C276.154 131.924 274.819 138.109 277.809 142.752Z" fill="white" stroke="black" stroke-width="2.8" stroke-linecap="round" stroke-linejoin="round"/>
</svg>
