<svg width="397" height="264" viewBox="0 0 397 264" fill="none" xmlns="http://www.w3.org/2000/svg">
<path d="M298.787 202.931C300.665 202.515 302.551 202.069 304.477 202.007C308.423 201.884 312.218 203.394 315.982 204.611C334.008 210.473 353.595 210.08 371.59 216.042C372.429 216.319 373.301 216.635 373.895 217.29C374.49 217.945 374.711 219.046 374.125 219.717C363.706 219.331 353.674 223.499 343.318 224.647C334.856 225.586 326.306 224.493 317.883 223.229C306.014 221.45 294.2 219.324 282.394 217.167C277.013 216.181 272.822 214.309 268.353 211.035C267.196 210.188 266.206 209.102 265.469 207.861C265.493 207.9 279.208 204.98 281.086 205.127C286.878 205.574 293.122 204.187 298.78 202.939L298.787 202.931Z" fill="white" stroke="black" stroke-width="2.8" stroke-linecap="round" stroke-linejoin="round"/>
<path d="M295.824 215.828C292.768 215.044 284.114 213.997 281.058 213.213C275.841 211.871 270.631 210.536 265.469 209C265.611 214.594 265.746 220.188 265.888 225.783C268.707 226.636 271.526 227.482 274.344 228.335C277.305 229.228 280.274 230.128 283.307 230.764C290.322 232.246 297.732 232.378 304.28 235.272C306.719 236.35 308.975 237.786 311.358 238.973C318.12 242.34 325.926 243.659 333.448 242.689C333.939 242.627 334.469 242.534 334.81 242.185C335.174 241.813 335.229 241.246 335.253 240.734C335.459 236.816 338.515 222.501 334.073 222.369C331.231 222.283 324.089 221.492 321.287 220.91C309.909 218.52 307.083 218.722 295.832 215.828H295.824Z" fill="white" stroke="black" stroke-width="2.8" stroke-linecap="round" stroke-linejoin="round"/>
<path d="M289.052 216.576C289.123 216.009 289.217 215.402 289.602 214.987C289.972 214.588 290.53 214.444 291.065 214.324C301.233 212.017 311.409 209.718 321.577 207.411C326.193 206.365 329.433 207.618 333.86 207.858C339.475 208.153 344.972 208.656 350.469 209.933C348.652 209.51 344.359 211.227 342.369 211.514C339.664 211.897 337.163 212.832 334.513 213.694C328.12 215.77 321.624 217.55 315.066 219.011C314.633 219.107 314.177 219.218 313.878 219.546C313.571 219.881 313.501 220.36 313.454 220.807C312.84 225.853 312.455 230.922 312.298 236C305.48 233.469 297.954 234.659 290.703 234.427C289.917 234.403 289.044 234.323 288.486 233.757C288.085 233.341 287.927 232.759 287.809 232.192C286.764 227.114 288.399 221.653 289.052 216.568V216.576Z" fill="white" stroke="black" stroke-width="2.8" stroke-linecap="round" stroke-linejoin="round"/>
<path d="M337.606 241.994C337.972 242.01 338.386 241.994 338.863 241.939C343.191 241.502 347.518 240.534 351.782 239.725C356.794 238.765 361.845 238.004 366.841 236.956C369.108 236.48 372.179 236.219 374.231 235.124C377.04 233.624 374.844 233.204 376.149 230.626C376.475 229.975 376.666 229.094 376.149 228.587C375.902 228.349 375.544 228.245 375.289 228.015C374.701 227.476 374.892 226.516 375.242 225.802C375.592 225.088 376.077 224.358 375.95 223.573C375.775 222.533 374.597 221.946 374.247 220.955C374.009 220.272 374.2 219.534 374.231 218.813C374.438 214.806 361.058 218.622 358.313 219.098C353.246 219.979 348.099 220.344 343 221.034C340.144 221.423 332.38 221.01 333.597 225.358C333.923 226.508 334.512 227.635 334.417 228.825C334.297 230.276 333.183 231.808 333.955 233.037C334.289 233.569 334.926 233.894 335.172 234.473C335.315 234.814 335.307 235.195 335.292 235.568C335.156 239.273 334.226 241.875 337.599 241.986L337.606 241.994Z" fill="white" stroke="black" stroke-width="2.8" stroke-linecap="round" stroke-linejoin="round"/>
<path d="M338.469 226C343.992 225.536 349.515 225.106 355.014 224.484C357.862 224.163 360.719 223.801 363.535 223.33C365.334 223.03 367.678 221.807 369.469 222.026" stroke="black" stroke-width="2.8" stroke-linecap="round" stroke-linejoin="round"/>
<path d="M339.469 230C341.858 229.138 344.487 229.108 347.051 229.011C354.937 228.721 362.79 227.71 370.469 226" stroke="black" stroke-width="2.8" stroke-linecap="round" stroke-linejoin="round"/>
<path d="M374.469 228C369.575 230.072 364.558 231.748 359.469 233" stroke="black" stroke-width="2.8" stroke-linecap="round" stroke-linejoin="round"/>
<path d="M341.469 236C345.485 235.852 349.494 235.523 353.469 235" stroke="black" stroke-width="2.8" stroke-linecap="round" stroke-linejoin="round"/>
<path d="M279.864 192.549C279.864 192.549 284.564 192.033 286.925 191.978C313.889 191.416 340.868 191.291 367.831 191.596C364.855 193.401 362.525 196.245 361.352 199.511C360.84 200.926 360.455 202.543 359.211 203.403C358.494 203.895 357.613 204.051 356.755 204.184C335.829 207.583 314.589 209.076 293.389 208.63C287.87 208.513 282.344 208.263 276.88 207.489C274.022 207.083 271.7 206.872 269.094 205.739C266.488 204.606 263.78 203.465 260.836 202.942C258.994 202.613 258.427 202.363 257.254 200.91C262.836 199.605 279.856 192.549 279.856 192.549H279.864Z" fill="white" stroke="black" stroke-width="2.8" stroke-linecap="round" stroke-linejoin="round"/>
<path d="M364.779 183C363.039 189.126 361.189 190.728 358.229 196.378C355.033 198.847 349.388 200.457 344.216 200.832C335.761 201.449 323.314 200.879 314.875 201.699C316.072 201.582 318.544 198.839 319.528 198.073C320.913 196.995 322.275 195.885 323.7 194.862C325.448 193.612 329.124 190.33 331.281 190.298C339.24 190.181 345.452 189.908 352.584 188.243C356.898 187.235 360.819 184.977 364.779 183Z" fill="white" stroke="black" stroke-width="2.8" stroke-linecap="round" stroke-linejoin="round"/>
<path d="M274.74 217.499C281.101 217.538 287.469 217.585 293.83 217.624C298.499 217.656 303.167 217.687 307.828 217.718C316.346 217.773 324.872 217.835 333.374 217.398C338.05 217.155 342.734 217.163 347.419 217.179C350.757 217.194 354.087 217.585 357.425 217.476C358.582 217.437 360.613 217.577 361.629 216.96C362.699 216.311 363.51 214.053 363.715 212.897C363.856 212.107 363.833 211.303 363.809 210.506C363.738 208.294 363.675 206.075 363.605 203.864C363.581 203.192 363.549 202.481 363.156 201.934C362.14 200.519 359.031 200.84 357.519 200.918C354.968 201.043 352.426 201.168 349.875 201.285C341.711 201.66 333.539 201.965 325.368 202.191C310.851 202.59 296.334 202.746 281.809 202.668C276.802 202.637 271.811 202.277 266.828 201.832C264.348 201.605 261.86 201.387 259.38 201.121C258.168 200.988 254.68 200.636 256.53 203.121C256.719 203.379 256.987 203.59 257.137 203.871C257.9 205.286 255.523 207.075 256.42 208.411C256.523 208.56 256.649 208.685 256.743 208.833C257.271 209.701 256.192 210.748 256.302 211.756C256.405 212.631 257.389 213.295 257.271 214.17C257.16 214.991 256.153 215.608 256.704 216.483C257.578 217.882 263.002 217.335 264.356 217.366C267.812 217.445 271.268 217.468 274.716 217.491L274.74 217.499Z" fill="white" stroke="black" stroke-width="2.8" stroke-linecap="round" stroke-linejoin="round"/>
<path d="M296.026 202.629C296.711 202.574 297.419 202.504 298.002 202.145C298.789 201.66 299.175 200.754 299.561 199.91C300.883 196.995 302.623 194.26 304.701 191.814C303.883 191.416 302.93 191.408 302.017 191.439C293.184 191.681 281.926 193.143 274.849 186.602C274.66 186.423 274.455 186.235 274.195 186.204C273.881 186.165 273.597 186.36 273.345 186.548C268.134 190.416 262.355 193.526 256.246 195.753C259.513 198.331 264.622 199.488 268.622 200.386C273.093 201.387 277.651 201.902 282.202 202.379C286.791 202.856 291.42 202.996 296.026 202.637V202.629Z" fill="white" stroke="black" stroke-width="2.8" stroke-linecap="round" stroke-linejoin="round"/>
<path d="M368.967 208.904C369.4 208.021 370.234 205.614 369.825 204.7C369.668 204.348 369.345 204.067 369.306 203.692C369.25 203.121 369.888 202.637 369.786 202.074C369.707 201.605 369.18 201.371 368.896 200.988C368.046 199.839 369.605 197.941 368.636 196.886C368.495 196.737 368.321 196.62 368.188 196.471C367.802 196.026 367.873 195.346 368.085 194.799C368.298 194.252 368.621 193.737 368.691 193.158C368.983 190.619 366.235 192.557 365.456 193.26C364.267 194.33 363.315 195.628 362.472 196.972C361.102 199.16 358.418 203.371 361.134 205.559C361.299 205.692 361.496 205.833 361.543 206.036C361.575 206.184 361.527 206.341 361.472 206.481C361.268 207.028 360.992 207.56 360.913 208.138C360.835 208.716 360.992 209.373 361.472 209.701C361.583 209.779 361.716 209.841 361.772 209.959C361.803 210.029 361.811 210.115 361.803 210.201C361.764 210.873 361.394 211.475 361.252 212.131C361.11 212.787 361.339 213.639 362 213.78C362.315 214.514 361.693 215.468 361.653 216.226C361.622 216.827 361.748 217.413 361.827 218.007C362.307 217.179 363.259 216.663 363.929 215.975C364.724 215.163 365.511 214.334 366.243 213.459C367.322 212.178 368.243 210.404 368.983 208.911L368.967 208.904Z" fill="white" stroke="black" stroke-width="2.8" stroke-linecap="round" stroke-linejoin="round"/>
<path d="M322.374 217.491C321.682 212.826 320.981 208.169 320.288 203.504C320.202 202.934 320.115 202.34 320.28 201.777C320.454 201.183 320.879 200.699 321.296 200.238C324.461 196.729 327.641 193.283 331.278 190.298C327.665 190.337 324.051 190.298 320.438 190.197C318.218 190.126 316.376 190.345 314.242 190.697C311.565 191.142 308.66 190.666 305.952 190.627C303.244 190.587 302.906 192.15 301.197 194.026C298.962 196.479 296.568 198.909 294.978 201.848C293.53 204.52 294.805 207.732 295.136 210.552C295.45 213.256 295.773 215.96 296.088 218.663C298.206 218.421 322.367 217.374 322.382 217.491H322.374Z" fill="black" stroke="black" stroke-width="2.8" stroke-linecap="round" stroke-linejoin="round"/>
<path d="M262.5 207.5C271.5 207.5 281.5 208 289.5 208" stroke="black" stroke-width="2.8" stroke-linecap="round" stroke-linejoin="round"/>
<path d="M263 212.117C272.124 212.078 281.248 212.039 290.381 212" stroke="black" stroke-width="2.8" stroke-linecap="round" stroke-linejoin="round"/>
<path d="M325.5 207.5C335.5 207.5 345.73 206.945 354.5 206.5" stroke="black" stroke-width="2.8" stroke-linecap="round" stroke-linejoin="round"/>
<path d="M327 212.582C336.5 212.582 346 212 355 212" stroke="black" stroke-width="2.8" stroke-linecap="round" stroke-linejoin="round"/>
<path d="M366 205.305C366.283 204 367.047 202.805 368.126 202" stroke="black" stroke-width="2.8" stroke-linecap="round" stroke-linejoin="round"/>
<path d="M285.209 239.628C274.997 238.514 264.803 237.3 254.6 236.119C246.57 235.192 238.531 234.264 230.501 233.311C226.554 232.847 222.607 232.358 218.66 231.886C217.301 231.725 215.918 231.759 214.594 231.498C213.533 231.287 212.039 230.308 211.19 231.557C210.366 232.771 212.471 234.508 212.777 235.698C213.1 236.988 211.937 238.261 212.132 239.569C212.259 240.429 212.955 241.112 213.176 241.955C213.6 243.541 212.31 245.405 213.227 246.771C213.337 246.94 213.482 247.1 213.516 247.294C213.55 247.513 213.431 247.724 213.329 247.926C213.108 248.365 212.938 248.854 213.023 249.335C213.159 250.052 214.186 250.533 214.814 250.777C217.378 251.772 220.714 251.873 223.43 252.253C229.16 253.071 234.923 253.628 240.67 254.378C253.411 256.04 266.161 257.651 278.91 259.228C283.808 259.835 288.698 260.434 293.595 261.024C295.726 261.277 301.94 263.099 302.16 259.649C302.22 258.646 301.906 257.634 302.101 256.647C302.296 255.686 302.958 254.876 303.204 253.923C303.451 252.97 302.941 251.679 301.957 251.722C301.77 250.802 302.245 249.892 302.517 248.998C302.788 248.104 302.763 246.923 301.94 246.459C301.15 246.012 299.919 246.434 299.402 245.692C298.96 245.059 299.486 244.216 299.554 243.448C299.877 240.058 287.552 239.872 285.209 239.619V239.628Z" fill="white" stroke="black" stroke-width="2.8" stroke-linecap="round" stroke-linejoin="round"/>
<path d="M334.715 230.823C334.494 230.679 334.104 230.646 333.425 230.747C331.939 230.975 330.352 231.784 328.909 232.223C325.861 233.159 322.78 233.985 319.69 234.787C314.733 236.077 309.767 237.317 304.827 238.649C302.739 239.214 298.486 239.037 297.111 240.994C296.449 241.93 296.78 243.296 297.247 244.241C297.824 245.413 297.866 245.388 297.892 246.754C297.909 247.665 297.654 249.495 298.053 250.229C298.257 250.6 298.639 250.853 298.877 251.207C299.759 252.514 298.342 254.53 299.293 255.795C300.362 257.229 300.727 258.013 299.708 259.784C299.25 260.577 298.741 261.463 298.953 262.357C299.131 263.099 306.924 259.632 307.569 259.447C311.27 258.376 314.954 257.279 318.655 256.208C322.627 255.061 326.6 253.914 330.581 252.784C332.338 252.287 334.104 251.789 335.869 251.3C338.229 250.642 339.078 250.735 339.239 248.087C339.248 247.91 339.256 247.716 339.163 247.564C339.044 247.37 338.806 247.302 338.619 247.176C338.076 246.796 338.093 246.004 338.237 245.354C338.382 244.705 338.594 243.996 338.263 243.431C338.136 243.22 337.949 243.052 337.813 242.849C337.346 242.158 337.541 241.238 337.635 240.412C337.728 239.585 337.567 238.557 336.786 238.253C336.506 238.143 336.175 238.152 335.929 237.975C335.47 237.637 335.632 236.929 335.878 236.414C336.124 235.9 336.429 235.293 336.132 234.812C335.861 234.365 335.19 234.281 334.935 233.825C334.817 233.606 334.808 233.353 334.825 233.1C334.876 231.97 335.207 231.126 334.74 230.814L334.715 230.823Z" fill="white" stroke="black" stroke-width="2.8" stroke-linecap="round" stroke-linejoin="round"/>
<path d="M254.395 219.513C253.02 219.218 251.636 218.99 250.261 218.796C235.389 222.92 226.01 224.498 212.25 230.258V231.059L296.744 241.112L334.551 230.494L334.484 230.477C330.12 230.241 274.649 224.219 254.387 219.505L254.395 219.513Z" fill="white" stroke="black" stroke-width="2.8" stroke-linecap="round" stroke-linejoin="round"/>
<path d="M242.428 239.653C242.25 243.069 242.08 246.493 241.919 249.908C241.86 251.148 241.172 253.839 241.936 254.901C247.501 256 266.324 258.679 271.501 259C271.501 259 272.299 255.972 272.291 252.093C272.291 250.98 272.367 238.633 272.435 238.658C267.715 237.41 262.478 237.182 257.631 236.566C255.136 236.246 252.631 235.934 250.136 235.613C248.599 235.411 247.089 234.981 245.552 234.778C242.972 234.433 242.675 235.242 242.547 237.696C242.513 238.354 242.479 239.012 242.445 239.67L242.428 239.653Z" fill="black" stroke="black" stroke-width="2.8" stroke-linecap="round" stroke-linejoin="round"/>
<path d="M228.929 231.919C224.066 230.519 219.371 228.057 216.129 224.194C227.13 220.188 237.851 215.448 248.198 210C255.116 217.658 265.294 222.296 275.65 222.516C274.809 222.499 272.526 224.675 271.745 225.164C270.311 226.066 268.851 226.918 267.348 227.711C264.36 229.305 261.253 230.688 258.062 231.843C254.87 232.999 251.602 233.952 248.283 234.61C245.524 235.149 243.793 234.399 241.136 233.969C237.027 233.302 232.945 233.092 228.912 231.928L228.929 231.919Z" fill="white" stroke="black" stroke-width="2.8" stroke-linecap="round" stroke-linejoin="round"/>
<path d="M274.835 239.122C283.764 240.952 293.416 238.945 300.86 233.707C301.471 233.277 302.066 232.83 302.728 232.484C303.381 232.139 304.086 231.911 304.782 231.658C307.057 230.848 309.264 229.878 311.462 228.9C317.268 226.336 323.134 223.747 328.244 219.986C324.348 222.153 320.418 224.329 316.19 225.746C311.963 227.163 307.362 227.804 303.008 226.808C300.147 226.159 297.618 224.869 294.689 225.088C291.761 225.307 288.934 226.235 286.167 227.205C282.321 228.563 278.442 230.064 275.268 232.611C274.223 233.446 273.222 234.475 272.959 235.782C272.696 237.089 273.527 238.835 274.843 239.105L274.835 239.122Z" fill="white" stroke="black" stroke-width="2.8" stroke-linecap="round" stroke-linejoin="round"/>
<path d="M295.473 225.13C291.492 224.675 287.527 224.11 283.589 223.418C280.397 222.861 277.282 221.908 273.98 222.136C272.24 222.263 270.559 222.693 268.904 223.174C268.242 223.368 267.58 223.57 266.926 223.781C260.347 225.881 254.142 228.74 247.971 231.59C245.815 232.586 244.321 233.522 243.328 234.702C253.158 236.069 262.979 237.123 272.808 238.666C278.402 236.128 283.92 233.471 289.531 230.958C291.738 229.971 294.131 229.296 296.338 228.301C296.941 228.031 299.666 227.053 299.683 226.361C299.717 225.113 296.491 225.248 295.464 225.139L295.473 225.13Z" fill="black" stroke="black" stroke-width="2.8" stroke-linecap="round" stroke-linejoin="round"/>
<path d="M307.967 235.47C315.743 232.181 322.729 226.935 327.703 220.154C320.887 224.253 313.731 227.77 306.321 230.679C305.226 231.11 304.122 231.523 303.129 232.139C302.289 232.653 301.533 233.294 300.744 233.884C298.63 235.461 296.262 236.634 293.8 237.561C291.805 238.312 289.089 238.557 287.383 239.822C294.072 240.336 301.864 238.059 307.967 235.478V235.47Z" fill="white" stroke="black" stroke-width="2.8" stroke-linecap="round" stroke-linejoin="round"/>
<path d="M304 256C314.628 252.829 322.974 250.5 333.5 247" stroke="black" stroke-width="2.8" stroke-linecap="round" stroke-linejoin="round"/>
<path d="M303 251.5C308 249.5 312.153 248.105 317 247C325 244.5 326.286 244.511 333 241.5" stroke="black" stroke-width="2.8" stroke-linecap="round" stroke-linejoin="round"/>
<path d="M302 246C311.808 243.496 321.492 240.491 331 237" stroke="black" stroke-width="2.8" stroke-linecap="round" stroke-linejoin="round"/>
<path d="M217 237C224.5 237.5 231.734 238.182 239 239" stroke="black" stroke-width="2.8" stroke-linecap="round" stroke-linejoin="round"/>
<path d="M217.5 241.5C224.857 241.8 231.5 243 239 243" stroke="black" stroke-width="2.8" stroke-linecap="round" stroke-linejoin="round"/>
<path d="M218 246C225.085 246.71 230.915 247.29 238 248" stroke="black" stroke-width="2.8" stroke-linecap="round" stroke-linejoin="round"/>
<path d="M276 245C281.669 245.67 287.339 246.339 293 247" stroke="black" stroke-width="2.8" stroke-linecap="round" stroke-linejoin="round"/>
<path d="M276.688 254.437C283.001 255 289.001 256 294.501 256.5" stroke="black" stroke-width="2.8" stroke-linecap="round" stroke-linejoin="round"/>
<path d="M276 250C282.014 250.211 288.019 250.872 294 252" stroke="black" stroke-width="2.8" stroke-linecap="round" stroke-linejoin="round"/>
<path d="M68.021 221.142C65.8168 217.432 65.1044 212.857 66.0766 208.656L68.021 200.461L8.99802 190.247L8.44141 205.69L68.021 221.134V221.142Z" fill="black" stroke="black" stroke-width="2.8" stroke-linecap="round" stroke-linejoin="round"/>
<path d="M201.724 239.647C205.768 239.826 208.091 236.086 205.204 232.733C204.477 231.891 203.416 231.415 202.392 230.99C198.332 229.329 194.102 228.084 190.146 226.177C178.042 220.329 167.192 212.387 155.562 205.616C150.241 202.516 144.274 200.445 138.856 197.398C127.724 191.133 117.156 183.862 107.323 175.689C104.272 173.156 101.259 170.519 97.7637 168.656C91.0695 165.103 83.2102 164.708 75.6477 164.388L65.6584 166.138L46.9414 180.904L69.666 202.785C75.1504 203.358 80.7091 203.224 86.1639 202.39C86.6982 202.308 87.2697 202.226 87.7521 202.464C88.19 202.68 88.472 203.112 88.7243 203.53C93.7635 211.583 99.7526 219.204 107.137 225.231C114.247 231.035 122.937 236.302 132.34 233.746C135.005 233.024 137.676 232.294 140.2 231.184C141.536 230.595 142.842 229.887 144.267 229.597C146.797 229.068 149.425 229.887 151.762 231.005C156.156 233.106 160.772 235.519 165.64 236.667C170.88 237.903 176.268 238.134 181.626 238.455C188.328 238.85 195.03 239.244 201.731 239.647H201.724Z" fill="white" stroke="black" stroke-width="2.8" stroke-linecap="round" stroke-linejoin="round"/>
<path d="M2.17578 151C26.1768 155.5 52.998 158.815 77.3182 160.946C72.7392 176.345 71.4107 192.585 72.2716 208.633C61.8815 209.273 51.5954 208.305 41.3018 206.733C32.7745 205.429 24.3363 203.351 16.3434 200.095C33.7542 209.072 52.0481 216.313 70.8764 221.685C47.4319 222.229 22.2731 218.064 2.17578 215.479" fill="white"/>
<path d="M2.17578 151C26.1768 155.5 52.998 158.815 77.3182 160.946C72.7392 176.345 71.4107 192.585 72.2716 208.633C61.8815 209.273 51.5954 208.305 41.3018 206.733C32.7745 205.429 24.3363 203.351 16.3434 200.095C33.7542 209.072 52.0481 216.313 70.8764 221.685C47.4319 222.229 22.2731 218.064 2.17578 215.479" stroke="black" stroke-width="2.8" stroke-linecap="round" stroke-linejoin="round"/>
<path d="M159.607 215.391C163.719 218.855 167.823 222.408 172.521 225.053C177.567 227.891 182.784 229.858 188.076 232.235C191.037 233.561 194.035 234.894 197.041 236.116C200.611 237.561 207.58 238.895 206.414 244.348C205.754 247.425 202.778 247.485 200.128 247.962C197.479 248.438 194.911 248.103 192.373 247.507C176.246 243.7 158.917 241.555 148.148 228.927" fill="white"/>
<path d="M159.607 215.391C163.719 218.855 167.823 222.408 172.521 225.053C177.567 227.891 182.784 229.858 188.076 232.235C191.037 233.561 194.035 234.894 197.041 236.116C200.611 237.561 207.58 238.895 206.414 244.348C205.754 247.425 202.778 247.485 200.128 247.962C197.479 248.438 194.911 248.103 192.373 247.507C176.246 243.7 158.917 241.555 148.148 228.927" stroke="black" stroke-width="2.8" stroke-linecap="round" stroke-linejoin="round"/>
<path d="M154.822 223.108C158.177 227.146 162.63 230.111 167.112 232.838C171.387 235.438 176.04 236.92 180.582 238.924C183.157 240.064 186.074 241.494 188.775 242.761C191.395 243.99 196.828 244.824 197.08 248.505C197.421 253.459 189.317 252.684 186.356 251.932C172.055 248.274 157.368 243.267 146.428 232.897C147.193 239.975 152.7 246.121 157.383 251.06C158.785 252.543 162.808 254.323 163.528 256.119C164.849 259.426 160.915 260.127 158.666 259.382C144.922 254.852 135.541 242.358 123.645 234.097" fill="white"/>
<path d="M154.822 223.108C158.177 227.146 162.63 230.111 167.112 232.838C171.387 235.438 176.04 236.92 180.582 238.924C183.157 240.064 186.074 241.494 188.775 242.761C191.395 243.99 196.828 244.824 197.08 248.505C197.421 253.459 189.317 252.684 186.356 251.932C172.055 248.274 157.368 243.267 146.428 232.897C147.193 239.975 152.7 246.121 157.383 251.06C158.785 252.543 162.808 254.323 163.528 256.119C164.849 259.426 160.915 260.127 158.666 259.382C144.922 254.852 135.541 242.358 123.645 234.097" stroke="black" stroke-width="2.8" stroke-linecap="round" stroke-linejoin="round"/>
<path d="M138.613 247.112C138.991 247.023 139.392 246.821 139.815 246.479C141.997 244.288 146.182 242.866 148.891 241.331C149.092 241.219 149.307 241.092 149.44 240.899C149.619 240.638 149.626 240.303 149.604 239.99C149.485 238.284 148.654 236.704 147.659 235.311C147.474 235.051 147.266 234.775 146.969 234.648C146.657 234.507 146.294 234.544 145.952 234.589C145.084 234.693 144.216 234.805 143.34 234.909C141.255 235.162 138.093 237.397 136.215 238.522C134.954 239.275 133.091 240.489 133.306 242.173C133.432 243.164 134.056 244.013 134.731 244.743C135.881 245.98 137.076 247.477 138.613 247.105V247.112Z" fill="white" stroke="black" stroke-width="2.8" stroke-linecap="round" stroke-linejoin="round"/>
<path d="M137.142 240.795C137.513 242.545 138.708 244.095 140.296 244.907C142.033 245.793 144.511 245.577 145.506 243.894C146.344 242.478 145.847 240.653 145.194 239.141C144.801 238.232 144.348 237.323 143.658 236.615C140.11 232.98 136.244 236.556 137.149 240.795H137.142Z" fill="white" stroke="black" stroke-width="2.8" stroke-linecap="round" stroke-linejoin="round"/>
<path d="M152.519 229.918C152.727 228.674 152.875 227.459 153.343 226.178C153.692 225.217 154.078 224.204 154.887 223.57C155.785 222.863 157.054 222.781 158.152 223.094C159.25 223.407 160.223 224.062 161.15 224.725C162.293 225.545 163.51 226.573 163.614 227.973C163.674 228.815 163.302 229.635 162.768 230.283C161.536 231.78 159.688 232.399 158.397 233.904C157.106 235.408 156.126 237.271 155.109 239.014C154.612 239.871 153.81 240.847 152.853 240.601C152.526 240.519 152.259 240.296 151.992 240.087C150.137 238.575 147.68 237.45 149.736 235.133C150.745 233.993 151.992 232.585 152.311 231.043C152.393 230.663 152.46 230.283 152.519 229.91V229.918Z" fill="white" stroke="black" stroke-width="2.8" stroke-linecap="round" stroke-linejoin="round"/>
<path d="M156.863 226.647C158.199 227.623 159.898 228.733 161.553 229.09C164.893 229.813 163.55 226.505 161.91 225.119C160.737 224.121 158.139 222.579 156.499 223.287C154.666 224.076 155.742 225.835 156.856 226.647H156.863Z" fill="white" stroke="black" stroke-width="2.8" stroke-linecap="round" stroke-linejoin="round"/>
<path d="M86.8171 170.661C86.9359 171.481 87.1659 172.322 87.7225 172.933C88.2791 173.544 89.2439 173.85 89.9638 173.44C90.5872 173.082 90.8544 172.33 91.0177 171.622C91.4259 169.819 91.4555 167.927 91.0919 166.109C90.9212 165.238 90.6243 164.329 89.9341 163.777C86.8765 161.326 86.5945 169.193 86.8097 170.661H86.8171Z" stroke="black" stroke-width="2.8" stroke-linecap="round" stroke-linejoin="round"/>
<path d="M86.4475 178.095C86.4995 178.803 86.596 179.541 86.9819 180.137C87.3678 180.733 88.1174 181.15 88.7927 180.941C89.52 180.718 89.8911 179.921 90.1286 179.191C90.6481 177.566 92.3995 170.318 89.5571 170.273C86.5885 170.221 86.3214 176.293 86.4401 178.095H86.4475Z" stroke="black" stroke-width="2.8" stroke-linecap="round" stroke-linejoin="round"/>
<path d="M87.5393 188.376C88.1924 188.585 88.89 187.952 89.365 186.499C89.6915 185.501 91.4578 176.196 87.9178 178.215C85.6171 179.526 85.6023 183.936 86.1441 186.112C86.478 187.453 86.9901 188.213 87.5393 188.384V188.376Z" stroke="black" stroke-width="2.8" stroke-linecap="round" stroke-linejoin="round"/>
<path d="M86.8913 196.408C87.1213 196.84 87.4479 197.302 87.9303 197.361C88.4943 197.421 88.947 196.899 89.229 196.4C90.2977 194.553 91.693 186.678 87.7373 186.812C84.0711 186.939 85.9636 194.657 86.8913 196.408Z" stroke="black" stroke-width="2.8" stroke-linecap="round" stroke-linejoin="round"/>
<path d="M87.537 194.471C84.6723 195.536 85.4367 202.681 86.9878 204.498C89.3923 207.314 89.9118 200.252 89.9786 199.09C90.0751 197.51 90.2235 193.473 87.537 194.471Z" stroke="black" stroke-width="2.8" stroke-linecap="round" stroke-linejoin="round"/>
<path d="M86.5956 210.779C86.9296 211.568 87.3377 212.135 87.7905 212.313C90.7294 213.468 91.9168 201.466 87.5975 202.003C85.23 202.293 85.4007 207.94 86.5956 210.779Z" stroke="black" stroke-width="2.8" stroke-linecap="round" stroke-linejoin="round"/>
<path d="M188.765 242.761C188.245 242.448 187.273 243.491 187.021 243.842C186.457 244.631 186.323 245.667 186.657 246.583C187.229 248.148 188.973 249.138 190.346 249.898C191.006 250.263 191.778 250.792 192.498 251.001C194.034 251.44 196.632 249.578 197.07 248.505" stroke="black" stroke-width="2.8" stroke-linecap="round" stroke-linejoin="round"/>
<path d="M195.942 236.026C195.245 236.481 194.213 238.857 194.606 239.595C195 240.332 195.72 240.817 196.432 241.249C197.894 242.143 199.401 242.947 200.959 243.663C201.59 243.953 202.347 244.221 202.948 243.864C203.401 243.588 203.594 243.044 203.816 242.56C204.039 242.076 205.36 240.884 205.887 240.861" stroke="black" stroke-width="2.8" stroke-linecap="round" stroke-linejoin="round"/>
<path d="M197.508 230.059C196.78 230.543 196.721 231.653 197.159 232.406C197.597 233.158 198.383 233.628 199.163 234.03C200.654 234.79 202.22 235.408 203.823 235.87C203.883 235.885 203.942 235.9 203.994 235.877C204.053 235.855 204.091 235.788 204.12 235.728C204.447 235.043 204.773 234.358 205.1 233.672" stroke="black" stroke-width="2.8" stroke-linecap="round" stroke-linejoin="round"/>
<path d="M158.635 253.862C156.854 255.396 158.22 257.237 158.695 257.698C159.326 258.309 160.038 258.831 160.81 259.255C161.693 258.928 162.457 258.28 162.947 257.468" stroke="black" stroke-width="2.8" stroke-linecap="round" stroke-linejoin="round"/>
<path d="M132.609 228.703C132.654 227.757 133.745 227.02 134.643 227.332L132.609 228.703Z" fill="white"/>
<path d="M132.609 228.703C132.654 227.757 133.745 227.02 134.643 227.332" stroke="black" stroke-width="2.8" stroke-linecap="round" stroke-linejoin="round"/>
<path d="M143.919 221.611C143.837 221.134 144.164 220.665 144.579 220.419C144.995 220.173 145.492 220.121 145.967 220.061" fill="white"/>
<path d="M143.919 221.611C143.837 221.134 144.164 220.665 144.579 220.419C144.995 220.173 145.492 220.121 145.967 220.061" stroke="black" stroke-width="2.8" stroke-linecap="round" stroke-linejoin="round"/>
<path d="M150.606 215.912C150.391 214.802 151.282 213.602 152.402 213.491L150.606 215.912Z" fill="white"/>
<path d="M150.606 215.912C150.391 214.802 151.282 213.602 152.402 213.491" stroke="black" stroke-width="2.8" stroke-linecap="round" stroke-linejoin="round"/>
<path d="M153.52 209.14C153.379 208.633 153.558 208.044 153.966 207.709L153.52 209.14Z" fill="white"/>
<path d="M153.52 209.14C153.379 208.633 153.558 208.044 153.966 207.709" stroke="black" stroke-width="2.8" stroke-linecap="round" stroke-linejoin="round"/>
<path d="M56.7392 201.392C57.3552 202.301 58.4684 202.748 59.5594 202.859C60.5168 202.956 61.5706 202.8 62.2386 202.107C62.9139 201.421 63.0549 200.378 63.0698 199.417C63.0846 198.307 62.8991 197.048 61.9936 196.415C58.795 194.188 54.446 197.987 56.7318 201.384L56.7392 201.392Z" fill="black" stroke="black" stroke-width="2.8" stroke-linecap="round" stroke-linejoin="round"/>
<path d="M46.4386 199.857C47.4628 199.083 47.9601 197.682 47.7151 196.416C47.1066 193.219 42.0748 191.998 40.8132 195.395C39.7148 198.367 43.7743 201.876 46.4386 199.857Z" fill="black" stroke="black" stroke-width="2.8" stroke-linecap="round" stroke-linejoin="round"/>
<path d="M31.2454 195.909C32.3735 194.203 31.9208 191.819 30.1248 190.761C28.7592 189.956 26.9187 190.12 25.6348 191.051C25.286 191.305 24.9669 191.617 24.7665 191.997C22.7553 195.879 28.7963 199.611 31.2528 195.901L31.2454 195.909Z" fill="black" stroke="black" stroke-width="2.8" stroke-linecap="round" stroke-linejoin="round"/>
<path d="M183.705 9.7074C183.901 8.9848 184.817 9.65409 185.638 9.74294C186.899 9.87917 187.589 9.7844 188.439 8.72418C189.516 7.37967 190.063 4.1161 191.389 3.46457C192.513 5.12893 192.281 8.54057 192.483 10.5722C192.852 14.274 193.191 17.9818 193.584 21.6778C193.762 23.354 195.796 31.042 194.375 32.0489C191.793 33.8791 189.254 21.5178 188.85 19.7232C188.017 16.0272 186.833 12.1477 183.699 9.69556L183.705 9.7074Z" fill="black" stroke="black" stroke-width="2.8" stroke-linecap="round" stroke-linejoin="round"/>
<path d="M263.959 135.825C263.959 135.79 263.959 135.748 263.959 135.713C263.186 121.255 252.35 111.34 243.774 100.927C235.638 91.0415 227.49 81.1679 219.235 71.3772C218.67 70.7079 213.484 63.5588 212.705 63.778C212.705 63.778 211.48 64.1215 207.787 63.0435C204.242 62.007 201.138 59.5312 197.462 59.1047C193.864 58.6842 190.367 60.2952 186.882 61.3199C186.103 61.5509 185.288 61.7464 184.479 61.8234C183.046 65.1047 183.968 69.4522 183.885 72.8401C183.807 76.003 184.58 79.2666 184.307 82.3998C183.671 89.7147 175.267 95.8983 170.289 100.424C155.784 113.798 142.652 128.7 131.18 144.804C129.919 146.581 128.658 148.4 127.962 150.467C127.124 152.978 127.171 155.691 127.231 158.333C127.314 162.177 126.089 167.389 128.563 170.558C131.733 174.621 136.604 177.89 140.886 180.621C150.051 186.455 160.262 190.388 170.402 194.131C176.766 196.483 183.147 198.798 189.665 200.7C195.393 202.376 201.715 204.846 207.68 203.697C220.686 201.191 232.872 194.581 242.328 185.182C246.735 180.798 251.689 175.42 254.318 169.782C257.964 161.963 260.807 153.766 262.769 145.361C263.501 142.228 264.113 139.03 263.959 135.825Z" fill="white" stroke="black" stroke-width="2.8" stroke-linecap="round" stroke-linejoin="round"/>
<path d="M177.363 127.61C176.394 128.54 175.341 129.719 175.603 131.034C175.692 131.472 175.918 131.863 176.144 132.248C178.196 135.76 180.248 139.272 182.3 142.785C182.538 143.187 182.781 143.602 183.174 143.863C183.525 144.094 183.947 144.177 184.357 144.254C188.217 144.964 192.083 145.681 195.943 146.392C196.383 146.475 196.888 146.54 197.233 146.256C197.483 146.048 197.578 145.711 197.656 145.397C198.667 141.191 199.232 136.88 199.339 132.556C199.356 131.768 199.351 130.921 198.904 130.269C198.5 129.671 197.804 129.345 197.132 129.085C193.635 127.74 189.817 127.533 186.07 127.338C183.001 127.184 179.82 127.041 176.983 128.214C176.358 128.475 175.657 128.955 175.728 129.63" fill="black"/>
<path d="M177.363 127.61C176.394 128.54 175.341 129.719 175.603 131.034C175.692 131.472 175.918 131.863 176.144 132.248C178.196 135.76 180.248 139.272 182.3 142.785C182.538 143.187 182.781 143.602 183.174 143.863C183.525 144.094 183.947 144.177 184.357 144.254C188.217 144.964 192.083 145.681 195.943 146.392C196.383 146.475 196.888 146.54 197.233 146.256C197.483 146.048 197.578 145.711 197.656 145.397C198.667 141.191 199.232 136.88 199.339 132.556C199.356 131.768 199.351 130.921 198.904 130.269C198.5 129.671 197.804 129.345 197.132 129.085C193.635 127.74 189.817 127.533 186.07 127.338C183.001 127.184 179.82 127.041 176.983 128.214C176.358 128.475 175.657 128.955 175.728 129.63" stroke="black" stroke-width="2.8" stroke-linecap="round" stroke-linejoin="round"/>
<path d="M166.346 131.531C168.564 131.857 170.794 132.112 173.03 132.295C173.714 132.348 174.446 132.384 175.023 132.017C175.546 131.685 175.825 131.087 176.212 130.601C177.027 129.571 178.347 129.037 179.656 128.895C180.964 128.753 182.284 128.955 183.581 129.156C189.017 130.003 194.452 130.844 199.888 131.691C200.417 129.499 200.828 127.403 201.857 125.407C202.481 124.192 203.867 121.107 201.339 121.426C192.43 122.546 183.444 121.77 174.499 122.096C172.441 122.173 170.205 122.125 168.183 122.522C166.655 122.824 166.56 123.494 166.334 125.004C166.244 125.602 165.531 131.413 166.351 131.531H166.346Z" fill="white" stroke="black" stroke-width="2.8" stroke-linecap="round" stroke-linejoin="round"/>
<path d="M223.408 130.394C217.729 131.614 212.578 134.919 209.171 139.592C204.734 145.675 205.525 155.057 209.825 160.956C216.92 170.676 234.452 174.295 242.88 164.309C248.393 157.776 249.868 146.937 244.943 139.669C241.072 133.954 234.143 130.015 227.179 130.003C225.912 130.003 224.639 130.127 223.402 130.394H223.408Z" fill="black" stroke="black" stroke-width="2.8" stroke-linecap="round" stroke-linejoin="round"/>
<path d="M196.077 156.254C198.444 156.627 200.817 157.006 203.184 157.379C204.629 152.327 205.355 147.12 205.83 141.861C205.908 140.996 206.645 139.189 206.045 138.437C205.646 137.934 203.731 137.691 203.089 137.49C202.03 137.164 199.955 136.098 198.854 136.542C197.582 137.051 197.516 140.374 197.26 141.659C196.416 145.959 195.673 150.277 195.042 154.613C194.971 155.093 194.935 155.667 195.304 155.987C195.512 156.165 195.797 156.212 196.071 156.26L196.077 156.254Z" fill="white" stroke="black" stroke-width="2.8" stroke-linecap="round" stroke-linejoin="round"/>
<path d="M195.551 151.302C198.435 151.859 201.332 152.368 204.228 152.824" stroke="black" stroke-width="2.8" stroke-linecap="round" stroke-linejoin="round"/>
<path d="M196.629 146.658L204.658 148.577" stroke="black" stroke-width="2.8" stroke-linecap="round" stroke-linejoin="round"/>
<path d="M197.555 141.713C200.171 142.163 202.77 142.702 205.346 143.336C205.476 143.365 205.643 143.49 205.566 143.596" stroke="black" stroke-width="2.8" stroke-linecap="round" stroke-linejoin="round"/>
<path d="M242.272 127.261C243.212 121.03 243.587 114.71 243.396 108.408C243.384 107.958 243.515 106.37 243.2 106.044C242.873 105.707 242.171 105.594 241.701 105.571C235.76 105.292 229.848 104.7 223.907 104.422C223.419 107.963 222.926 112.974 222.438 116.516C222.224 118.08 220.428 124.53 221.558 125.567C222.295 126.242 225.56 125.952 226.577 126.029L231.585 126.425C235.147 126.704 238.71 126.988 242.272 127.267V127.261Z" fill="white" stroke="black" stroke-width="2.8" stroke-linecap="round" stroke-linejoin="round"/>
<path d="M201.926 157.006C202.759 151.497 203.544 145.462 204.37 139.948C204.477 139.231 204.59 138.497 204.9 137.839C205.233 137.134 205.78 136.554 206.327 136.003C208.944 133.367 211.888 131.045 215.075 129.12C216.83 128.054 218.673 127.101 220.226 125.756C220.464 125.549 220.701 125.33 220.993 125.229C221.308 125.116 221.647 125.152 221.974 125.182C228.302 125.804 234.63 126.425 240.958 127.047C241.35 127.089 241.767 127.13 242.088 127.361C242.356 127.551 242.522 127.841 242.683 128.119C244.984 132.106 247.292 136.092 249.593 140.084C248.065 140.558 246.626 141.328 245.383 142.341C242.546 136.21 236.289 131.786 229.545 131.134C222.801 130.483 215.807 133.628 211.84 139.101C208.099 144.26 207.183 151.373 206.333 157.681C205.584 157.492 201.914 157.006 201.914 157.006H201.926Z" fill="white" stroke="black" stroke-width="2.8" stroke-linecap="round" stroke-linejoin="round"/>
<path d="M198.972 135.494C198.918 135.778 198.877 136.098 199.055 136.323C199.186 136.489 199.4 136.56 199.608 136.619C201.077 137.051 202.552 137.484 204.021 137.916C204.437 138.04 204.877 138.165 205.3 138.064C205.657 137.981 205.96 137.75 206.251 137.519C210.956 133.835 215.589 130.044 220.132 126.165C220.84 125.561 221.566 124.927 222.012 124.11C222.44 123.316 222.571 122.398 222.696 121.503C223.374 116.676 224.503 108.591 225.181 103.764C225.639 100.506 215.148 101.952 213.245 101.916C211.996 101.892 210.932 102.046 209.719 101.738C208.88 101.525 205.984 101.454 205.704 102.319C204.955 104.653 203.997 110.149 203.539 112.246C202.736 115.871 202.029 119.602 201.309 123.251C200.506 127.326 199.727 131.413 198.978 135.499L198.972 135.494Z" fill="white" stroke="black" stroke-width="2.8" stroke-linecap="round" stroke-linejoin="round"/>
<path d="M225.51 121.9C225.475 122.161 225.445 122.445 225.582 122.664C225.748 122.925 226.093 123.002 226.397 123.055C230.459 123.742 234.592 124.003 238.707 123.843C238.922 123.837 239.153 123.819 239.302 123.665C239.427 123.541 239.463 123.351 239.487 123.174C239.701 121.634 239.576 120.07 239.451 118.524C239.261 116.179 239.07 113.833 238.88 111.488C238.856 111.203 238.832 110.907 238.701 110.647C238.357 109.965 237.47 109.811 236.703 109.752C235.175 109.628 233.664 109.326 232.13 109.225C231.041 109.154 228.401 108.502 227.592 109.539C226.985 110.315 227.021 112.038 226.944 112.945C226.67 116.031 225.939 118.844 225.504 121.9H225.51Z" fill="white" stroke="black" stroke-width="2.8" stroke-linecap="round" stroke-linejoin="round"/>
<path d="M205.275 118.856C205.014 119.975 204.752 121.101 204.484 122.22C204.574 122.001 210.842 123.168 211.461 123.257C213.613 123.577 215.85 123.612 217.973 124.133C217.973 121.486 218.187 118.755 218.532 116.131C218.734 114.574 220.488 108.609 218.609 107.975C215.838 107.051 212.906 106.655 209.986 106.779C207.065 106.903 207.684 108.544 207.137 110.895C206.518 113.549 205.894 116.196 205.275 118.85V118.856Z" fill="white" stroke="black" stroke-width="2.8" stroke-linecap="round" stroke-linejoin="round"/>
<path d="M202.494 132.84C202.387 133.332 202.286 133.829 202.191 134.327C202.119 134.7 202.131 135.215 202.506 135.292C202.69 135.328 202.863 135.227 203.023 135.126C204.801 133.989 206.443 132.656 208.043 131.288C209.214 130.287 211.094 129.298 212.081 128.167C213.241 126.834 211.766 126.828 210.303 126.467C208.501 126.029 206.627 125.774 204.772 125.679C204.611 125.667 204.433 125.667 204.302 125.768C204.177 125.863 204.129 126.023 204.094 126.177C203.517 128.392 202.982 130.595 202.506 132.84H202.494Z" fill="black" stroke="black" stroke-width="2.8" stroke-linecap="round" stroke-linejoin="round"/>
<path d="M219.919 145.053C218.177 147.499 217.909 150.876 219.116 153.624C220.151 155.981 222.238 157.871 224.719 158.605C227.199 159.339 230.018 158.86 232.069 157.302C234.734 155.276 235.864 151.527 234.9 148.335C232.991 142.003 224.064 139.231 219.919 145.059V145.053Z" fill="white" stroke="black" stroke-width="2.8" stroke-linecap="round" stroke-linejoin="round"/>
<path d="M165.619 138.757C162.122 139.509 158.953 141.547 156.853 144.419C154.123 148.169 154.605 153.944 157.258 157.574C159.066 160.05 161.73 161.928 164.715 162.692C166.416 163.124 168.195 163.219 169.955 163.154C171.18 163.112 172.411 162.994 173.571 162.597C176.057 161.744 177.99 159.647 179.054 157.255C180.125 154.862 180.41 152.185 180.363 149.567C180.345 148.583 180.279 147.588 179.982 146.652C179.703 145.764 179.215 144.947 178.662 144.188C175.736 140.167 170.49 137.709 165.614 138.757H165.619Z" fill="black" stroke="black" stroke-width="2.8" stroke-linecap="round" stroke-linejoin="round"/>
<path d="M161.029 145.888C159.34 148.264 159.078 151.539 160.25 154.204C161.255 156.491 163.277 158.327 165.68 159.037C168.082 159.748 170.818 159.286 172.811 157.776C175.392 155.815 176.492 152.173 175.558 149.075C173.703 142.933 165.043 140.244 161.023 145.894L161.029 145.888Z" fill="white" stroke="black" stroke-width="2.8" stroke-linecap="round" stroke-linejoin="round"/>
<path d="M168.07 129.867C168.908 131.845 168.224 134.392 166.416 135.565C165.738 136.003 162.961 137.063 162.324 136.157C161.991 135.689 162.241 134.883 162.217 134.356C162.17 133.314 162.075 132.271 162.158 131.229C162.241 130.198 161.974 127.912 162.806 127.136C164.436 125.608 167.481 128.422 168.07 129.867Z" fill="white" stroke="black" stroke-width="2.8" stroke-linecap="round" stroke-linejoin="round"/>
<path d="M164.339 129.257C164.25 128.41 164.095 127.752 163.881 127.486C163.483 127.006 162.608 126.733 161.99 127.065C161.55 127.302 161.377 127.752 161.264 128.161C160.759 129.985 159.819 135.535 162.454 136.471C164.137 137.069 164.631 132.094 164.345 129.251L164.339 129.257Z" fill="white" stroke="black" stroke-width="2.8" stroke-linecap="round" stroke-linejoin="round"/>
<path d="M241.28 102.307C242.214 103.545 243.082 105.103 243.332 106.643C239.888 106.974 235.898 106.287 232.413 106.015C228.523 105.707 224.634 105.28 220.792 104.599C216.343 103.806 211.948 103.326 207.476 102.757C206.34 102.615 205.204 102.414 206.584 101.247L209.795 98.5341C212.596 98.1372 215.029 98.5222 217.842 98.848C224.878 99.6654 231.919 100.477 238.955 101.294C240.001 101.413 240.656 101.478 241.286 102.319L241.28 102.307Z" fill="white" stroke="black" stroke-width="2.8" stroke-linecap="round" stroke-linejoin="round"/>
<path d="M171.518 134.522C178.036 136.429 182.407 143.14 182.823 149.898C182.99 152.57 184.845 151.882 185.595 149.845C186.207 148.175 185.779 146.309 185.315 144.633C184.108 140.297 181.176 136.542 177.709 133.728C175.758 132.141 173.248 131.359 170.762 131.057C169.745 130.933 167.973 130.749 167.961 132.153C167.943 133.728 170.429 134.202 171.518 134.522Z" fill="white" stroke="black" stroke-width="2.8" stroke-linecap="round" stroke-linejoin="round"/>
<path d="M160.541 144.526C159.334 145.124 157.978 145.93 157.829 147.257C157.781 147.701 157.877 148.139 157.978 148.577C158.87 152.546 159.762 156.508 160.66 160.477C160.761 160.933 160.874 161.407 161.165 161.768C161.427 162.094 161.808 162.301 162.176 162.496C165.644 164.339 169.111 166.175 172.578 168.017C172.971 168.224 173.435 168.443 173.851 168.271C174.154 168.147 174.345 167.857 174.511 167.578C176.747 163.871 178.591 159.932 180.006 155.845C180.262 155.099 180.512 154.293 180.286 153.535C180.084 152.842 179.519 152.321 178.954 151.871C176.028 149.537 172.447 148.192 168.939 146.883C166.06 145.811 163.069 144.728 160.012 144.988C159.334 145.047 158.525 145.296 158.388 145.959" fill="black"/>
<path d="M160.541 144.526C159.334 145.124 157.978 145.93 157.829 147.257C157.781 147.701 157.877 148.139 157.978 148.577C158.87 152.546 159.762 156.508 160.66 160.477C160.761 160.933 160.874 161.407 161.165 161.768C161.427 162.094 161.808 162.301 162.176 162.496C165.644 164.339 169.111 166.175 172.578 168.017C172.971 168.224 173.435 168.443 173.851 168.271C174.154 168.147 174.345 167.857 174.511 167.578C176.747 163.871 178.591 159.932 180.006 155.845C180.262 155.099 180.512 154.293 180.286 153.535C180.084 152.842 179.519 152.321 178.954 151.871C176.028 149.537 172.447 148.192 168.939 146.883C166.06 145.811 163.069 144.728 160.012 144.988C159.334 145.047 158.525 145.296 158.388 145.959" stroke="black" stroke-width="2.8" stroke-linecap="round" stroke-linejoin="round"/>
<path d="M148.849 144.953C150.865 145.93 152.917 146.842 154.993 147.689C155.623 147.944 156.319 148.204 156.979 148.027C157.58 147.867 158.026 147.381 158.543 147.032C159.632 146.297 161.053 146.185 162.344 146.439C163.634 146.694 164.83 147.286 166.007 147.867C170.931 150.307 175.862 152.741 180.786 155.182C181.952 153.251 182.981 151.373 184.569 149.78C185.532 148.808 187.786 146.285 185.276 145.829C176.445 144.224 168.107 140.783 159.483 138.402C157.497 137.857 155.379 137.14 153.334 136.915C151.787 136.743 151.49 137.353 150.818 138.722C150.55 139.266 148.112 144.591 148.855 144.953H148.849Z" fill="white" stroke="black" stroke-width="2.8" stroke-linecap="round" stroke-linejoin="round"/>
<path d="M203.594 161.01C197.808 160.465 191.896 162.07 187.233 165.505C181.161 169.977 179.068 179.158 181.387 186.07C185.211 197.472 200.829 206.184 211.885 199.201C219.123 194.629 223.809 184.737 221.317 176.333C219.355 169.717 213.943 163.882 207.311 161.78C206.104 161.395 204.855 161.134 203.588 161.016L203.594 161.01Z" fill="black" stroke="black" stroke-width="2.8" stroke-linecap="round" stroke-linejoin="round"/>
<path d="M169.706 177.452C171.853 178.518 174 179.59 176.141 180.656C179.049 176.273 181.315 171.529 183.361 166.654C183.7 165.849 184.943 164.35 184.604 163.456C184.372 162.858 182.629 162.052 182.076 161.667C181.166 161.039 179.507 159.399 178.323 159.488C176.956 159.594 175.885 162.739 175.255 163.888C173.143 167.732 171.133 171.63 169.218 175.568C169.004 176.007 168.796 176.54 169.052 176.954C169.194 177.185 169.45 177.316 169.706 177.446V177.452Z" fill="white" stroke="black" stroke-width="2.8" stroke-linecap="round" stroke-linejoin="round"/>
<path d="M170.703 172.577C173.284 173.975 175.889 175.332 178.518 176.641" stroke="black" stroke-width="2.8" stroke-linecap="round" stroke-linejoin="round"/>
<path d="M173.137 168.473C175.498 169.888 177.853 171.298 180.214 172.714" stroke="black" stroke-width="2.8" stroke-linecap="round" stroke-linejoin="round"/>
<path d="M175.516 164.036C177.871 165.251 180.184 166.548 182.45 167.922C182.563 167.993 182.688 168.159 182.581 168.236" stroke="black" stroke-width="2.8" stroke-linecap="round" stroke-linejoin="round"/>
<path d="M222.528 163.687C225.311 158.025 227.583 152.113 229.308 146.048C229.433 145.616 230.039 144.141 229.837 143.732C229.629 143.312 228.993 142.992 228.547 142.832C222.968 140.783 217.508 138.443 211.93 136.394C210.395 139.622 208.403 144.254 206.869 147.482C206.191 148.909 202.521 154.518 203.289 155.845C203.788 156.71 206.988 157.415 207.933 157.794L212.59 159.677C215.903 161.016 219.209 162.354 222.522 163.687H222.528Z" fill="white" stroke="black" stroke-width="2.8" stroke-linecap="round" stroke-linejoin="round"/>
<path d="M175.051 179.928C177.513 174.923 180.088 169.403 182.55 164.404C182.871 163.752 183.199 163.089 183.698 162.556C184.227 161.987 184.923 161.596 185.613 161.235C188.908 159.505 192.417 158.184 196.039 157.302C198.037 156.816 200.083 156.461 201.968 155.638C202.254 155.513 202.551 155.377 202.86 155.365C203.193 155.353 203.508 155.484 203.812 155.614C209.658 158.107 215.504 160.601 221.344 163.095C221.707 163.249 222.088 163.415 222.326 163.734C222.522 163.995 222.593 164.321 222.665 164.635C223.652 169.13 224.645 173.62 225.632 178.115C224.033 178.109 222.427 178.412 220.94 178.998C220.089 172.299 215.468 166.204 209.236 163.557C202.997 160.909 195.384 161.809 189.943 165.837C184.816 169.634 181.789 176.143 179.065 181.894C178.405 181.491 175.057 179.922 175.057 179.922L175.051 179.928Z" fill="white" stroke="black" stroke-width="2.8" stroke-linecap="round" stroke-linejoin="round"/>
<path d="M178.75 158.528C178.614 158.783 178.477 159.073 178.578 159.339C178.649 159.535 178.84 159.665 179.012 159.784C180.285 160.637 181.558 161.49 182.824 162.348C183.187 162.591 183.568 162.84 183.996 162.875C184.365 162.905 184.721 162.775 185.066 162.645C190.669 160.542 196.229 158.327 201.743 155.987C202.605 155.62 203.485 155.241 204.157 154.589C204.805 153.961 205.21 153.126 205.602 152.309C207.708 147.908 211.234 140.54 213.34 136.145C214.761 133.172 204.324 131.401 202.522 130.803C201.338 130.406 200.274 130.228 199.215 129.576C198.483 129.12 195.736 128.185 195.212 128.925C193.797 130.921 191.216 135.879 190.139 137.738C188.278 140.955 186.47 144.301 184.68 147.559C182.682 151.207 180.701 154.862 178.75 158.534V158.528Z" fill="white" stroke="black" stroke-width="2.8" stroke-linecap="round" stroke-linejoin="round"/>
<path d="M208.17 153.547C208.057 153.784 207.939 154.044 208.01 154.293C208.087 154.595 208.391 154.773 208.67 154.909C212.334 156.781 216.193 158.273 220.166 159.357C220.368 159.411 220.594 159.464 220.785 159.369C220.945 159.286 221.034 159.12 221.112 158.955C221.784 157.551 222.135 156.023 222.486 154.512C223.015 152.22 223.544 149.928 224.073 147.636C224.139 147.357 224.204 147.067 224.157 146.783C224.038 146.031 223.235 145.616 222.527 145.332C221.106 144.751 219.756 144.011 218.322 143.454C217.305 143.057 214.986 141.648 213.898 142.388C213.083 142.945 212.595 144.597 212.244 145.438C211.049 148.299 209.503 150.763 208.165 153.547H208.17Z" fill="white" stroke="black" stroke-width="2.8" stroke-linecap="round" stroke-linejoin="round"/>
<path d="M189.8 144.562C189.211 145.551 188.616 146.546 188.027 147.535C188.176 147.351 193.802 150.342 194.367 150.621C196.324 151.574 198.447 152.279 200.308 153.411C201.111 150.887 202.146 148.346 203.264 145.948C203.93 144.526 207.409 139.361 205.804 138.194C203.443 136.483 200.766 135.221 197.947 134.463C195.128 133.705 195.218 135.458 193.981 137.531C192.583 139.871 191.191 142.216 189.794 144.556L189.8 144.562Z" fill="white" stroke="black" stroke-width="2.8" stroke-linecap="round" stroke-linejoin="round"/>
<path d="M182.906 157.059C182.657 157.497 182.413 157.936 182.163 158.38C181.979 158.712 181.836 159.215 182.169 159.399C182.33 159.488 182.532 159.446 182.71 159.399C184.75 158.848 186.719 158.066 188.663 157.249C190.085 156.65 192.178 156.265 193.457 155.484C194.968 154.566 193.564 154.11 192.273 153.328C190.686 152.368 188.979 151.563 187.236 150.917C187.081 150.858 186.915 150.805 186.76 150.858C186.612 150.911 186.522 151.053 186.439 151.184C185.22 153.12 184.042 155.063 182.906 157.059Z" fill="black" stroke="black" stroke-width="2.8" stroke-linecap="round" stroke-linejoin="round"/>
<path d="M195.826 173.934C193.423 175.746 192.15 178.879 192.465 181.865C192.739 184.423 194.154 186.852 196.295 188.297C198.436 189.742 201.267 190.133 203.7 189.262C206.852 188.131 209.07 184.897 209.118 181.563C209.213 174.953 201.547 169.628 195.826 173.94V173.934Z" fill="white" stroke="black" stroke-width="2.8" stroke-linecap="round" stroke-linejoin="round"/>
<path d="M145.964 151.622C142.401 151.284 138.761 152.279 135.889 154.388C132.148 157.142 130.863 162.793 132.291 167.051C133.266 169.959 135.235 172.548 137.852 174.171C139.344 175.095 141.01 175.717 142.705 176.185C143.882 176.51 145.095 176.765 146.32 176.735C148.949 176.67 151.423 175.255 153.166 173.294C154.908 171.334 155.997 168.87 156.74 166.358C157.02 165.417 157.257 164.445 157.257 163.462C157.257 162.526 157.043 161.608 156.746 160.72C155.17 156.005 150.918 152.09 145.952 151.622H145.964Z" fill="black" stroke="black" stroke-width="2.8" stroke-linecap="round" stroke-linejoin="round"/>
<path d="M139.423 157.047C137.092 158.806 135.855 161.851 136.164 164.741C136.432 167.223 137.805 169.58 139.881 170.978C141.957 172.376 144.704 172.761 147.065 171.914C150.122 170.818 152.275 167.679 152.317 164.439C152.412 158.025 144.972 152.86 139.423 157.041V157.047Z" fill="white" stroke="black" stroke-width="2.8" stroke-linecap="round" stroke-linejoin="round"/>
<path d="M150.99 143.886C151.192 146.025 149.765 148.246 147.689 148.82C146.91 149.033 143.942 149.211 143.603 148.157C143.431 147.612 143.912 146.919 144.049 146.41C144.317 145.403 144.543 144.378 144.941 143.413C145.334 142.453 145.768 140.196 146.797 139.705C148.813 138.739 150.865 142.335 150.984 143.886H150.99Z" fill="white" stroke="black" stroke-width="2.8" stroke-linecap="round" stroke-linejoin="round"/>
<path d="M147.624 142.181C147.796 141.345 147.85 140.67 147.719 140.356C147.487 139.782 146.731 139.261 146.042 139.391C145.548 139.486 145.251 139.859 145.019 140.214C143.984 141.802 141.409 146.812 143.633 148.494C145.06 149.572 147.035 144.976 147.618 142.181H147.624Z" fill="white" stroke="black" stroke-width="2.8" stroke-linecap="round" stroke-linejoin="round"/>
<path d="M229.141 139.598C229.652 141.061 230.015 142.803 229.783 144.348C226.405 143.632 222.801 141.778 219.56 140.469C215.944 139.006 212.369 137.43 208.908 135.624C204.906 133.533 200.861 131.75 196.77 129.867C195.729 129.387 194.706 128.854 196.377 128.155L200.261 126.532C203.05 126.994 205.256 128.096 207.838 129.245C214.302 132.135 220.767 135.026 227.226 137.916C228.183 138.343 228.79 138.603 229.141 139.592V139.598Z" fill="white" stroke="black" stroke-width="2.8" stroke-linecap="round" stroke-linejoin="round"/>
<path d="M152.868 149.359C158.506 153.138 160.641 160.85 158.988 167.413C158.333 170.013 160.314 169.912 161.646 168.194C162.734 166.785 162.895 164.878 162.955 163.142C163.115 158.641 161.456 154.187 159.006 150.461C157.626 148.364 155.473 146.86 153.195 145.829C152.261 145.409 150.632 144.698 150.192 146.031C149.698 147.529 151.922 148.726 152.868 149.359Z" fill="white" stroke="black" stroke-width="2.8" stroke-linecap="round" stroke-linejoin="round"/>
<path d="M177.367 9.52364C178.937 9.07941 180.715 8.80695 182.107 10.0152C182.922 10.726 183.618 11.9402 184.569 11.9224C184.498 13.2137 183.844 14.268 183.213 15.2275C182.125 16.8918 181.031 18.5562 179.835 20.0784C178.408 21.8908 176.802 23.5197 174.941 24.497C172.716 25.6579 160.275 27.0675 160.459 21.1209C160.643 15.1742 173.983 10.4832 177.367 9.52364Z" fill="black" stroke="black" stroke-width="2.8" stroke-linecap="round" stroke-linejoin="round"/>
<path d="M202.387 48.7224C201.138 36.3434 199.895 23.9584 198.646 11.5793C198.408 9.23385 198.141 6.78173 197.076 4.81529C196.029 2.87848 192.984 0.740276 191.682 2.91401C190.481 4.91598 191.438 9.02062 191.825 11.295C192.544 15.5063 193.466 19.6702 194.12 23.8932C194.346 25.3621 195.464 29.9939 193.942 30.7402C191.23 32.0611 189.374 22.5132 188.738 20.3454C187.81 17.1825 187.501 13.3977 185.616 10.8212C183.356 7.72941 180.061 8.09071 178.854 11.994C178.449 13.3029 177.997 14.452 177.034 15.1746C175.951 15.9861 174.703 15.7965 173.543 16.2941C170.98 17.3957 170.284 20.0729 168.981 22.7738C168.345 24.1006 167.054 24.7225 165.877 24.8765C164.461 25.0601 163.105 23.8162 161.66 24.0769C163.736 26.1025 164.497 26.4164 165.823 27.761C167.031 28.987 168.345 29.8755 169.57 31.0956C171.979 33.4944 174.262 36.1065 176.415 38.8962C180.709 44.4697 184.474 50.7777 187.418 57.6602C187.525 57.9031 188.56 60.5625 188.589 60.5447C192.723 59.0462 197.944 55.7175 199.818 54.7106C200.722 54.2249 201.679 53.6622 202.161 52.5546C202.637 51.4411 202.518 50.0314 202.387 48.7284V48.7224Z" fill="white" stroke="black" stroke-width="2.8" stroke-linecap="round" stroke-linejoin="round"/>
<path d="M239.469 35.8158C234.794 31.3736 233.961 41.419 233.86 44.0429C233.569 51.8553 233.884 60.1948 235.751 67.8414C236.382 70.4357 239.147 79.7881 243.096 75.1326C245.862 71.8691 246.825 66.0586 247.236 61.954C247.795 56.3508 247.069 50.6115 245.112 45.3222C244.482 43.6164 242.169 38.3864 239.469 35.8158Z" fill="black" stroke="black" stroke-width="2.8" stroke-linecap="round" stroke-linejoin="round"/>
<path d="M200.365 59.1405C200.966 59.2767 201.341 59.792 201.751 60.2303C202.905 61.4623 204.017 62.7595 205.028 64.1099C207.044 66.8108 208.501 69.7249 209.667 72.87C210.268 74.487 212.825 83.0457 215.757 78.9174C216.78 77.4781 215.81 75.0497 215.269 73.6222C213.961 70.1869 211.671 67.1188 209.679 64.0507C208.382 62.0487 206.961 59.1524 204.701 58.104C203.535 57.565 201.275 57.0556 200.359 59.1464L200.365 59.1405Z" fill="black" stroke="black" stroke-width="2.8" stroke-linecap="round" stroke-linejoin="round"/>
<path d="M200.661 64.4653C201.006 64.8858 201.303 65.3833 201.518 65.9282C202.856 69.2629 202.558 74.1908 202.772 77.7861C203.004 81.6419 203.123 86.0368 201.036 89.4721C199.305 92.3211 196.742 92.019 195.874 88.4652C194.625 83.3655 198.128 77.9104 197.325 72.562C197.009 70.483 195.416 67.9894 195.897 65.8157C196.7 62.2145 199.145 62.6054 200.661 64.4593V64.4653Z" fill="black" stroke="black" stroke-width="2.8" stroke-linecap="round" stroke-linejoin="round"/>
<path d="M190.461 57.2508C191.294 49.8589 185.805 43.8175 182.432 38.8244C181.754 37.8175 179.376 34.5598 180.077 33.1206C180.946 31.3496 183.104 33.6122 183.997 34.3348C187.993 37.5569 191.246 42.8876 193.988 47.8214C194.993 49.6338 198.597 55.0475 197.765 57.4285C196.932 59.8095 192.531 59.389 190.461 57.2508Z" fill="black" stroke="black" stroke-width="2.8" stroke-linecap="round" stroke-linejoin="round"/>
<path d="M193.076 90.4139C193.778 90.4198 194.396 90.3783 194.902 90.2776C195.883 90.0822 196.466 89.94 196.876 89.016C197.334 87.9914 197.138 86.7712 196.258 86.1197C195.086 85.249 193.909 84.4139 192.612 83.7386C190.079 82.4237 187.307 81.5234 184.482 81.1088C183.233 80.9252 181.33 80.6883 180.301 81.636C179.142 82.7021 180.117 84.5619 180.759 85.6281C182.9 89.17 189.311 90.3724 193.076 90.4139Z" fill="white" stroke="black" stroke-width="2.8" stroke-linecap="round" stroke-linejoin="round"/>
<path d="M178.825 81.4583C179.633 82.0625 180.597 82.406 181.554 82.7377C186.104 84.331 190.886 85.9538 195.643 85.1898C197.291 84.9232 198.98 84.3132 200.003 83.0042C201.026 81.6952 201.085 79.557 199.783 78.5205C198.754 77.709 197.303 77.8038 195.988 77.8512C191.962 77.9993 187.912 77.2885 184.177 75.7841C181.994 74.9016 179.205 73.024 177.469 75.2332C176.083 76.9924 177.248 80.2737 178.825 81.4583Z" fill="white" stroke="black" stroke-width="2.8" stroke-linecap="round" stroke-linejoin="round"/>
<path d="M180.181 75.0851C186.348 77.5254 196.244 78.2362 198.784 77.33C201.335 76.4178 205.427 74.173 204.814 71.0516C204.059 67.1898 198.968 67.9183 196.149 67.9539C191.974 68.0012 187.859 67.1069 183.767 66.408C181.174 65.9637 177.986 65.4958 176.143 67.8176C173.585 71.0338 176.047 73.4504 180.181 75.0851Z" fill="white" stroke="black" stroke-width="2.8" stroke-linecap="round" stroke-linejoin="round"/>
<path d="M200.802 60.793C202.687 60.7101 205.012 60.7456 205.899 62.41C206.47 63.488 206.107 64.8799 205.316 65.8157C204.525 66.7515 203.377 67.3024 202.241 67.7644C194.985 70.6725 186.505 70.3764 179.475 66.9588C170.619 62.6528 177.518 56.3211 184.685 58.8206C189.758 60.5916 195.467 61.0358 200.808 60.7989L200.802 60.793Z" fill="white" stroke="black" stroke-width="2.8" stroke-linecap="round" stroke-linejoin="round"/>
<path d="M247.555 38.4452C237.022 41.614 225.847 42.1767 214.856 41.5666C207.345 41.1461 200.744 41.2764 194.249 45.1737C192.001 46.5242 166.41 56.0069 177.085 59.9634C177.96 60.2892 178.881 60.3543 179.809 60.2714C180.731 60.1944 181.653 59.9753 182.545 59.7206C186.518 58.5893 190.49 56.7946 194.588 57.2803C198.775 57.7719 202.32 60.5557 206.364 61.7344C210.574 62.9605 211.966 62.5814 211.966 62.5814C215.219 66.0582 218.139 69.9318 221.398 73.4086C221.636 72.8578 222.291 71.9515 222.671 71.4955C223.712 70.2398 225.211 69.3454 226.781 68.8361C228.928 68.1431 231.217 68.0661 233.471 68.0009C243.469 67.6988 253.472 67.4027 263.469 67.1006L247.56 38.4452H247.555Z" fill="white" stroke="black" stroke-width="2.8" stroke-linecap="round" stroke-linejoin="round"/>
<path d="M395.002 77.7092C378.974 77.7092 304.325 77.5193 286.935 77.7089C273.791 77.851 254.272 77.9221 241.206 76.5184C245.667 67.9182 245.708 56.9962 243.978 47.472C243.549 45.1265 242.943 42.7632 241.872 40.625C239.47 35.8156 236.722 34.8442 237.364 34.5303C239.648 33.4286 251.804 32.3447 254.29 32.1552C264.693 32.1552 269.357 31.9893 277.493 32.1552C293.77 32.4928 378.736 31.7349 395.002 30.9472" fill="white"/>
<path d="M395.002 77.7092C378.974 77.7092 304.325 77.5193 286.935 77.7089C273.791 77.851 254.272 77.9221 241.206 76.5184C245.667 67.9182 245.708 56.9962 243.978 47.472C243.549 45.1265 242.943 42.7632 241.872 40.625C239.47 35.8156 236.722 34.8442 237.364 34.5303C239.648 33.4286 251.804 32.3447 254.29 32.1552C264.693 32.1552 269.357 31.9893 277.493 32.1552C293.77 32.4928 378.736 31.7349 395.002 30.9472" stroke="black" stroke-width="2.8" stroke-linecap="round" stroke-linejoin="round"/>
<path d="M193.615 96.9468C191.004 106.69 189.523 115.308 183.855 124.056" stroke="black" stroke-width="2.8" stroke-linecap="round" stroke-linejoin="round"/>
<path d="M217.242 84.9294C224.956 90.0291 229.226 100.294 233.098 108.183C238.42 119.034 243.267 130.021 241.126 142.477" stroke="black" stroke-width="2.8" stroke-linecap="round" stroke-linejoin="round"/>
<path d="M178.754 21.3523C183.494 25.1844 186.682 30.5151 189.982 36.296" stroke="black" stroke-width="2.8" stroke-linecap="round" stroke-linejoin="round"/>
<path d="M211.356 113.022C211.576 138.307 214.27 163.041 200.621 185.798" stroke="black" stroke-width="2.8" stroke-linecap="round" stroke-linejoin="round"/>
<path d="M168.753 110.262C164.531 114.2 157.346 119.602 156.633 125.436" stroke="black" stroke-width="2.8" stroke-linecap="round" stroke-linejoin="round"/>
<path d="M155.594 182.694C162.451 181.427 167.946 184.619 173.673 188.09C178.116 190.785 183.54 191.448 187.804 194.072" stroke="black" stroke-width="2.8" stroke-linecap="round" stroke-linejoin="round"/>
<path d="M207.199 196.489C217.054 196.838 229.02 190.566 235.794 183.879C241.521 178.234 245.845 172.104 249.794 165.097" stroke="black" stroke-width="2.8" stroke-linecap="round" stroke-linejoin="round"/>
<path d="M207.18 62.3745C211.509 63.1208 216.16 62.9076 219.818 59.9224" stroke="black" stroke-width="2.8" stroke-linecap="round" stroke-linejoin="round"/>
<path d="M174.887 57.1147C175.475 59.2589 178.675 58.3112 180.031 57.6123C182.535 56.3151 180.935 54.6685 179.894 52.8857" stroke="black" stroke-width="2.8" stroke-linecap="round" stroke-linejoin="round"/>
<path d="M199.385 68.1729C198.641 65.7504 198.338 63.7247 201.157 63.2924C202.234 63.1265 204.214 62.9074 205.154 63.2924" stroke="black" stroke-width="2.8" stroke-linecap="round" stroke-linejoin="round"/>
<path d="M199.277 76.525C199.087 74.9554 198.343 72.5684 199.676 71.3246C200.538 70.5131 202.251 70.057 203.416 70.1281" stroke="black" stroke-width="2.8" stroke-linecap="round" stroke-linejoin="round"/>
<path d="M194.156 84.9828C194.156 83.3777 193.935 81.7844 195.464 80.8012C196.85 79.9068 197.974 80.1971 199.49 80.1082" stroke="black" stroke-width="2.8" stroke-linecap="round" stroke-linejoin="round"/>
<path d="M191.766 89.8628C191.766 88.4413 191.492 87.1205 192.979 86.386C193.806 85.9773 195.834 85.8589 196.232 86.392" stroke="black" stroke-width="2.8" stroke-linecap="round" stroke-linejoin="round"/>
</svg>
