<svg width="258" height="227" viewBox="0 0 258 227" fill="none" xmlns="http://www.w3.org/2000/svg">
<path d="M79.3099 218.179C76.6703 218.169 74.0458 218.003 71.4061 218.008C67.8094 218.013 63.8298 217.521 60.5957 219.425C58.0266 220.937 57.2156 223.564 60.7066 224.69C64.9028 226.041 70.9326 224.78 75.2245 224.217C77.2194 223.956 79.2495 223.645 81.2544 223.559C83.2593 223.474 85.2289 223.811 86.9114 222.514C91.3394 219.103 80.5794 218.179 79.3099 218.174V218.179Z" fill="black" stroke="black" stroke-width="2" stroke-linecap="round" stroke-linejoin="round"/>
<path d="M29.3649 215.41C26.1259 214.566 21.7483 215.184 18.5949 215.621C14.4944 216.189 10.2982 216.275 6.21781 217.093C4.86777 217.365 0.782384 218.143 1.00907 220.294C1.23576 222.444 8.15219 222.253 9.84478 222.419C14.5699 222.876 19.416 222.419 24.1612 222.65C28.0451 222.841 31.9038 223.137 35.7827 222.876C37.5659 222.755 39.5759 222.946 39.7925 221.002C40.2106 217.219 34.9918 216.621 32.6594 215.586C30.3875 215.642 28.4935 215.25 26.2266 215.586" fill="black"/>
<path d="M29.3649 215.41C26.1259 214.566 21.7483 215.184 18.5949 215.621C14.4944 216.189 10.2982 216.275 6.21781 217.093C4.86777 217.365 0.782384 218.143 1.00907 220.294C1.23576 222.444 8.15219 222.253 9.84478 222.419C14.5699 222.876 19.416 222.419 24.1612 222.65C28.0451 222.841 31.9038 223.137 35.7827 222.876C37.5659 222.755 39.5759 222.946 39.7925 221.002C40.2106 217.219 34.9918 216.621 32.6594 215.586C30.3875 215.642 28.4935 215.25 26.2266 215.586" stroke="black" stroke-width="2" stroke-linecap="round" stroke-linejoin="round"/>
<path d="M15.8553 198.059C14.2383 199.686 12.8883 201.987 13.6388 204.122C14.2181 205.76 15.8704 206.805 17.5026 207.513C19.1347 208.222 20.9029 208.764 22.2277 209.93C25.0185 212.386 25.0588 216.908 27.9755 219.224C28.9124 219.967 30.071 220.409 31.2397 220.731C32.9374 221.193 34.5896 221.088 36.2772 221.344C38.1763 221.63 39.6422 222.364 41.5917 221.595C43.8636 220.701 42.6697 217.345 40.3172 217.651C40.821 217.586 41.3096 217.827 41.8134 217.923C42.3171 218.018 42.9619 217.857 43.0677 217.375C43.2239 216.672 42.1761 216.375 41.4356 216.4C41.894 216.481 42.3826 216.561 42.8057 216.37C43.2289 216.179 43.4808 215.597 43.1634 215.265C42.8964 215.185 42.6345 215.104 42.3675 215.024C42.7251 215.285 43.239 214.748 43.0878 214.336C42.9367 213.924 42.4632 213.728 42.0249 213.617C39.879 213.07 37.5013 213.456 35.5014 212.532C33.4461 211.583 32.2271 209.382 32.0407 207.187C31.8543 204.991 32.5545 202.816 33.5116 200.817C34.5443 198.656 35.9246 196.446 35.6072 194.085C35.169 190.829 29.7638 184.831 26.4189 188.317C24.9228 189.88 23.9959 191.563 22.2227 192.969C20.0918 194.657 17.7696 196.134 15.8503 198.069L15.8553 198.059Z" fill="white" stroke="black" stroke-width="2" stroke-linecap="round" stroke-linejoin="round"/>
<path d="M88.5886 210.497C89.3896 210.718 90.3517 210.387 90.7396 209.653C91.1275 208.92 90.7447 207.85 89.9437 207.629C90.5986 208.126 91.7118 207.754 91.9335 206.96C92.1551 206.167 91.3995 205.272 90.5784 205.358C91.0721 205.272 91.5758 205.117 91.9486 204.78C92.3214 204.444 92.5279 203.886 92.3415 203.424C92.1551 202.962 91.4902 202.715 91.1074 203.037C91.6715 202.394 92.1249 201.655 92.4372 200.862C92.6387 200.344 92.7747 199.721 92.4524 199.269C92.271 199.008 91.9637 198.857 91.6514 198.777C90.6238 198.521 89.5357 199.008 88.7397 199.711C87.9438 200.414 87.3696 201.324 86.6845 202.128C85.9389 203.007 85.0624 203.765 84.1859 204.509C83.4353 205.147 82.6595 205.79 81.7477 206.167C80.7151 206.594 79.5716 206.654 78.4583 206.614C76.8513 206.559 75.2545 206.307 73.708 205.87C70.9928 205.097 68.4337 203.75 65.648 203.318C63.5575 202.997 61.3863 203.208 59.3965 203.936C56.4194 205.026 59.2454 209.412 59.7995 211.19C60.1723 212.391 60.273 213.672 60.0867 214.913C59.9456 215.858 59.6434 216.787 59.6585 217.742C59.6685 218.575 59.9305 219.404 60.399 220.098C61.2956 221.424 62.9227 222.167 64.5297 222.183C69.1591 222.223 70.6099 217.008 74.796 215.933C76.5239 215.491 78.3374 215.888 80.1206 215.943C82.1659 216.003 83.8484 215.621 85.4805 214.471C85.9188 214.16 86.4124 213.743 86.3369 213.21C87.4804 213.652 88.4677 213.537 89.037 212.436C89.4349 211.673 89.6112 210.779 88.5886 210.497Z" fill="white" stroke="black" stroke-width="2" stroke-linecap="round" stroke-linejoin="round"/>
<path d="M64.596 154.096C63.3517 160.918 60.6869 167.404 57.7299 173.684C52.1937 185.444 45.5745 196.698 37.9831 207.253C37.3131 208.182 36.6179 209.131 35.6608 209.769C30.2707 202.852 23.0974 197.326 15.0273 193.869C22.8354 189.076 27.9484 180.913 31.6661 172.558C35.8824 163.093 38.6984 152.8 38.0637 142.466C37.5549 134.182 34.8951 125.576 37.8521 117.814C39.9376 112.343 44.8542 108.028 50.5616 106.666C53.8964 105.867 57.3874 106.224 60.6768 107.078C63.6439 107.852 64.2887 109.585 65.3264 112.434C67.6336 118.769 68.7418 126.354 67.3565 133.026C65.9712 139.698 65.8654 147.093 64.5909 154.096H64.596Z" fill="white" stroke="black" stroke-width="2" stroke-linecap="round" stroke-linejoin="round"/>
<path d="M22.9257 106.555C18.2106 113.553 18.659 121.471 19.7319 129.383C20.5782 135.618 23.2128 141.817 25.9431 147.469C28.1395 152.015 30.7086 156.371 32.8898 160.922C37.1817 169.885 39.9271 179.46 43.2972 188.774C46.7327 198.269 51.4327 207.217 55.6642 216.39C57.392 214.632 60.0468 214.28 62.4547 213.727C68.3435 212.366 73.4716 209.648 78.227 205.986C77.5267 206.523 72.4591 198.45 72.0762 197.475C70.8672 194.376 69.7237 191.256 68.6356 188.111C64.379 175.838 60.9434 163.304 57.5079 150.779C55.0395 141.772 52.5712 132.764 50.0978 123.756C49.1507 120.31 48.1936 116.824 46.4557 113.699C44.9193 110.941 42.8136 108.529 40.4661 106.414C37.4789 103.727 33.6555 101.39 29.6759 101.988C26.9053 102.405 24.4873 104.244 22.9207 106.56L22.9257 106.555Z" fill="white" stroke="black" stroke-width="2" stroke-linecap="round" stroke-linejoin="round"/>
<path d="M30.8242 132.463C41.7505 159.049 51.8304 185.976 61.0389 213.2" stroke="black" stroke-width="2" stroke-linecap="round" stroke-linejoin="round"/>
<path d="M48.3477 160.963C50.1662 166.017 54.0249 170.307 58.8659 172.653" stroke="black" stroke-width="2" stroke-linecap="round" stroke-linejoin="round"/>
<path d="M113.165 68.6706C118.943 67.49 118.882 75.5331 118.897 77.0302C118.948 81.632 119.24 87.1632 117.291 91.4334C116.877 92.3427 115.462 92.4281 114.228 92.3427C112.092 92.197 112.444 88.1227 112.092 86.6507C111.049 82.3504 108.178 72.0265 113.165 68.6756V68.6706Z" fill="black" stroke="black" stroke-width="2" stroke-linecap="round" stroke-linejoin="round"/>
<path d="M114.945 85.8119C116.416 87.736 116.849 89.4592 117.434 91.7651C117.741 92.9859 118.985 96.2313 120.416 94.0208C121.232 92.7548 120.436 90.9111 120.28 89.5496C120.164 88.5298 119.409 86.5756 120.28 85.7014C121.62 84.3701 122.466 87.8466 122.638 88.5901C123.207 91.0919 122.582 94.1816 123.867 96.4825C124.849 98.2408 126.118 96.1358 126.043 95.111C126.108 95.9851 125.378 97.5877 126.773 97.869C128.169 98.1504 128.743 96.3519 128.703 95.3069C128.667 95.5732 128.662 96.1609 128.99 96.2614C129.745 96.4875 130.446 94.9954 130.521 94.493C130.743 93.0261 131.106 91.5441 131.126 90.057C131.146 88.56 131.116 86.8921 130.844 85.4151C130.37 82.8278 129.307 80.3461 127.67 78.2763C126.32 76.5732 124.567 75.3926 122.753 74.2572C119.545 72.2477 116.381 70.9315 112.542 70.6501C111.948 70.6049 110.835 70.1176 110.245 70.3889C109.449 70.7556 109.218 72.2226 109.102 72.9561C108.764 75.1615 109.555 77.2112 109.837 79.3463C110.024 80.7329 111.112 81.6673 112.099 82.5415C113.207 83.5161 114.034 84.6464 114.93 85.822L114.945 85.8119Z" fill="white" stroke="black" stroke-width="2" stroke-linecap="round" stroke-linejoin="round"/>
<path d="M115.114 68.6709C108.182 66.7217 99.5129 66.1289 91.6797 65.732C84.4257 65.3602 67.4595 62.1299 60.9108 57.7241C52.2615 54.7349 55.9137 77.6535 58.4727 82.0091C60.7345 85.8573 66.855 85.9829 70.7087 86.224C82.8288 86.9826 90.9492 89.8361 103.079 90.6751C104.767 90.7907 111.95 92.4787 114.227 92.338C109.966 74.9004 115.205 68.696 115.114 68.6709Z" fill="white" stroke="black" stroke-width="2" stroke-linecap="round" stroke-linejoin="round"/>
<path d="M125.625 85.6711C125.998 89.0522 126.829 93.021 125.731 96.3266" stroke="black" stroke-width="2" stroke-linecap="round" stroke-linejoin="round"/>
<path d="M128.457 85.561C129.021 88.8416 129.011 93.0163 128.608 96.327" stroke="black" stroke-width="2" stroke-linecap="round" stroke-linejoin="round"/>
<path d="M59.6615 62.6424C59.9637 62.6575 60.2055 62.346 60.2257 62.0446C60.2458 61.7432 60.1098 61.4518 59.9788 61.1755C58.5683 58.2366 57.3241 55.2173 56.2562 52.1427C54.9918 48.5205 56.6037 44.5166 54.5636 40.9597C53.1329 38.4629 50.3019 37.1366 47.5413 36.3027C45.8941 35.8053 44.1108 35.4286 42.4636 35.9259C40.8163 36.4233 39.159 37.7897 39.2446 39.5028C39.431 43.331 39.5721 47.3801 37.7183 50.736C36.202 53.479 35.9955 55.9959 37.2498 58.9851C38.1817 61.2006 39.6779 63.1247 41.2042 64.9785C43.456 67.7114 46.4583 69.1231 50.0047 69.2035C53.551 69.2839 57.7523 65.6266 59.6564 62.6424H59.6615Z" fill="white" stroke="black" stroke-width="2" stroke-linecap="round" stroke-linejoin="round"/>
<path d="M63.1071 17.2925C64.437 20.2917 65.4193 24.7578 64.3866 27.9831C63.8929 29.5304 63.1323 30.495 63.3086 32.1126C63.772 36.3125 63.3388 40.2813 61.9233 44.3004C59.9536 49.8918 55.1177 49.5854 50.2364 47.8723C46.6396 46.6113 43.2595 44.2803 41.5719 40.7737C39.6426 40.4622 38.1868 38.6486 37.3556 36.8802C34.9829 31.8363 34.4943 25.8229 36.5546 20.6433C38.6149 15.4638 43.3653 11.2991 48.8863 10.4501C54.4074 9.60104 60.8503 12.1983 63.1071 17.2975V17.2925Z" fill="white" stroke="black" stroke-width="2" stroke-miterlimit="10"/>
<path d="M31.9028 21.0555C31.5502 21.3871 31.6157 21.9497 31.7114 22.422C33.006 28.6967 35.5197 34.9664 34.5827 41.3014C34.9353 40.3971 35.288 39.4978 35.6406 38.5936C35.9983 40.0153 36.5826 41.3767 37.3533 42.6226L37.5851 38.679C38.2248 39.5832 39.0207 40.377 39.9325 41.005C38.0687 37.8952 37.0712 34.2781 37.0763 30.656C37.0763 29.6814 37.2274 28.5711 38.0334 28.0285C39.1316 27.29 40.8695 28.5711 40.4816 29.8371C40.8695 28.4706 40.8493 26.9936 40.4312 25.6372C40.9199 26.2551 41.4085 26.8731 41.8971 27.491C42.0734 23.1705 42.4613 18.3778 45.64 15.4339C45.9069 17.4183 45.4133 19.4931 44.2798 21.1409C48.607 21.372 52.8385 18.0061 53.579 13.7459C53.6344 14.8059 53.8561 15.8509 54.2339 16.8405C54.3699 15.4339 54.6872 14.0473 55.1708 12.721C55.4177 14.0322 56.0322 15.2731 56.9289 16.2628L56.9793 12.3091C58.1984 15.5545 60.8682 18.2271 64.1174 19.4579C62.6061 17.6142 63.1955 14.4643 65.271 13.2887C64.3894 13.1581 63.5381 12.8617 62.7623 12.4196C63.6287 10.9527 64.2635 9.35509 64.6413 7.69222C63.9411 8.79243 62.4449 9.30988 61.2108 8.87783C62.4248 7.20994 62.8278 4.9844 62.2686 3C60.3493 5.49682 57.6291 7.38074 54.6117 8.3001C53.6949 6.22025 51.8159 4.58249 49.6246 3.9495C50.5213 4.72316 51.2215 5.72289 51.6446 6.83315C50.7933 6.28556 49.947 5.74299 49.0957 5.1954C49.5339 5.98916 49.9722 6.78794 50.4104 7.5817C46.1034 5.22052 40.8594 4.61766 36.1292 5.94896C37.444 6.55182 38.6983 7.28027 39.8721 8.11924C36.2451 7.73241 32.4972 10.0182 31.1875 13.4143C32.1396 12.6457 33.4342 12.3141 34.6432 12.5201C31.1623 14.4894 29.2581 18.8902 30.2152 22.7686C30.3513 21.7136 30.7089 20.6837 31.253 19.7694C31.0011 21.784 31.5502 23.8939 32.7592 25.5267" fill="black"/>
<path d="M31.9028 21.0555C31.5502 21.3871 31.6157 21.9497 31.7114 22.422C33.006 28.6967 35.5197 34.9664 34.5827 41.3014C34.9353 40.3971 35.288 39.4978 35.6406 38.5936C35.9983 40.0153 36.5826 41.3767 37.3533 42.6226L37.5851 38.679C38.2248 39.5832 39.0207 40.377 39.9325 41.005C38.0687 37.8952 37.0712 34.2781 37.0763 30.656C37.0763 29.6814 37.2274 28.5711 38.0334 28.0285C39.1316 27.29 40.8695 28.5711 40.4816 29.8371C40.8695 28.4706 40.8493 26.9936 40.4312 25.6372C40.9199 26.2551 41.4085 26.8731 41.8971 27.491C42.0734 23.1705 42.4613 18.3778 45.64 15.4339C45.9069 17.4183 45.4133 19.4931 44.2798 21.1409C48.607 21.372 52.8385 18.0061 53.579 13.7459C53.6344 14.8059 53.8561 15.8509 54.2339 16.8405C54.3699 15.4339 54.6872 14.0473 55.1708 12.721C55.4177 14.0322 56.0322 15.2731 56.9289 16.2628L56.9793 12.3091C58.1984 15.5545 60.8682 18.2271 64.1174 19.4579C62.6061 17.6142 63.1955 14.4643 65.271 13.2887C64.3894 13.1581 63.5381 12.8617 62.7623 12.4196C63.6287 10.9527 64.2635 9.35509 64.6413 7.69222C63.9411 8.79243 62.4449 9.30988 61.2108 8.87783C62.4248 7.20994 62.8278 4.9844 62.2686 3C60.3494 5.49682 57.6291 7.38074 54.6117 8.3001C53.6949 6.22025 51.8159 4.58249 49.6246 3.9495C50.5213 4.72316 51.2215 5.72289 51.6446 6.83315C50.7933 6.28556 49.947 5.74299 49.0957 5.1954C49.5339 5.98916 49.9722 6.78794 50.4104 7.5817C46.1034 5.22052 40.8594 4.61766 36.1292 5.94896C37.444 6.55182 38.6983 7.28027 39.8721 8.11924C36.2451 7.73241 32.4972 10.0182 31.1875 13.4143C32.1396 12.6457 33.4342 12.3141 34.6432 12.5201C31.1623 14.4894 29.2581 18.8902 30.2152 22.7686C30.3513 21.7136 30.7089 20.6837 31.253 19.7694C31.0011 21.784 31.5502 23.8939 32.7592 25.5267" stroke="black" stroke-width="2" stroke-miterlimit="10"/>
<path d="M40.5745 30.0528C40.2924 29.4449 39.9952 28.822 39.5116 28.3548C39.028 27.8876 38.3026 27.6062 37.6679 27.8273C36.7108 28.1588 36.4287 29.3595 36.3632 30.3693C36.2977 31.3841 36.3078 32.4291 36.6705 33.3786C37.0332 34.3281 37.819 35.167 38.8164 35.3579C39.8139 35.5488 40.9725 34.9058 41.1337 33.901" fill="white"/>
<path d="M40.5745 30.0528C40.2924 29.4449 39.9952 28.822 39.5116 28.3548C39.028 27.8876 38.3026 27.6062 37.6679 27.8273C36.7108 28.1588 36.4287 29.3595 36.3632 30.3693C36.2977 31.3841 36.3078 32.4291 36.6705 33.3786C37.0332 34.3281 37.819 35.167 38.8164 35.3579C39.8139 35.5488 40.9725 34.9058 41.1337 33.901" stroke="black" stroke-width="2" stroke-miterlimit="10"/>
<path d="M48.125 26.1995C49.5657 24.8431 52.0038 24.7024 53.5957 25.883" stroke="black" stroke-width="2" stroke-linecap="round" stroke-linejoin="round"/>
<path d="M59.0273 25.6875C60.3069 24.8234 62.1254 24.8435 63.3847 25.7328" stroke="black" stroke-width="2" stroke-linecap="round" stroke-linejoin="round"/>
<path d="M49.7344 29.2595C50.9988 29.7971 52.4546 29.8724 53.7694 29.4705" stroke="black" stroke-width="2" stroke-linecap="round" stroke-linejoin="round"/>
<path d="M59.2148 29.244C60.0712 29.8167 61.3104 29.7514 62.1013 29.0883" stroke="black" stroke-width="2" stroke-linecap="round" stroke-linejoin="round"/>
<path d="M57.4883 32.1779C58.0777 32.7355 58.6822 33.3484 58.8837 34.1371C59.0852 34.9259 58.6922 35.9206 57.8963 36.0813" stroke="black" stroke-width="2" stroke-linecap="round" stroke-linejoin="round"/>
<path d="M55.5742 38.7945C56.0528 38.6689 56.5515 38.5383 57.0351 38.6438C57.5187 38.7492 57.9721 39.1662 57.9418 39.6586C57.9166 40.0454 57.6144 40.3518 57.3273 40.6181C57.8915 40.4573 58.4405 41.0803 58.4204 41.663C58.4002 42.2458 58.0124 42.7532 57.5993 43.1752" stroke="black" stroke-width="2" stroke-linecap="round" stroke-linejoin="round"/>
<path d="M49.1096 63.5921C50.2582 64.2402 51.5125 64.8481 52.253 65.9382C52.7064 66.6014 52.928 67.3951 53.1245 68.1738C55.0841 75.8251 55.6533 83.7526 56.016 91.64C56.3837 99.6328 56.817 107.756 56.4996 115.754C56.2578 121.808 55.3561 129.489 52.6611 135.005C50.7569 138.904 41.4477 139.386 37.453 139.748C32.8739 140.17 28.179 139.883 23.7561 138.577C22.0484 138.075 19.3382 137.442 18.1242 136.035C17.2326 135.005 17.3585 133.589 17.2678 132.308C16.5777 122.295 16.5324 112.087 15.7213 102.185C14.7743 90.5649 14.6081 78.7841 16.4316 67.2394C16.6785 65.667 16.9857 64.0794 17.7061 62.6577C18.5725 60.9546 19.983 59.5932 21.4439 58.3624C24.2095 56.0313 27.2571 54.0369 30.4962 52.4243C32.5414 51.4094 35.982 48.7318 37.8509 51.3291C39.3773 53.4491 40.3193 55.8254 42.0723 57.8399C44.0671 60.1307 46.4499 62.09 49.0996 63.5821L49.1096 63.5921Z" fill="white" stroke="black" stroke-width="2" stroke-linecap="round" stroke-linejoin="round"/>
<path d="M65.8494 63.6317C66.0106 64.2446 66.1517 64.8675 66.2877 65.4854C68.4689 75.3471 69.5973 85.4198 70.1716 95.4925C70.363 98.8685 70.6451 102.43 70.2975 105.801C70.091 107.816 69.3102 109.715 69.2346 111.744C68.9676 118.823 70.7962 126.288 71.0783 133.412C68.1919 133.176 65.5371 134.507 62.7262 134.869C61.759 134.995 59.2655 135.015 58.389 134.718C57.0843 134.276 56.7064 132.854 56.2581 131.398C54.4346 125.469 54.4547 119.602 54.0215 113.498C53.4976 106.113 53.0039 98.7128 53.2256 91.3077C53.3565 86.8817 53.7495 82.4508 53.3767 78.0399C53.0996 74.7644 51.9813 71.4838 51.3768 68.2535C51.2257 67.4548 50.3895 64.9479 50.8781 64.1792C51.2509 63.5915 53.0996 63.6367 53.8552 63.2046C54.9534 62.5716 55.845 61.5166 56.2984 60.3411C57.3109 57.7136 57.1094 54.4632 56.2531 51.8257C59.1345 52.2678 61.6532 54.6391 63.1695 57.0254C64.449 59.0399 65.2449 61.3157 65.8444 63.6317H65.8494Z" fill="white" stroke="black" stroke-width="2" stroke-linecap="round" stroke-linejoin="round"/>
<path d="M61.8076 61.0552C60.8605 60.0153 59.5508 59.2919 58.1907 58.9251C58.0446 58.885 57.8532 58.8247 57.6466 58.7694C60.7094 60.7136 61.0117 65.3104 58.1353 67.8173C57.7877 68.179 57.3797 68.5306 56.9414 68.8522C58.2763 68.7768 59.6113 68.3196 60.7195 67.6113C62.8604 66.2398 63.5858 63.0145 61.8076 61.0603V61.0552Z" fill="black" stroke="black" stroke-width="2" stroke-linecap="round" stroke-linejoin="round"/>
<path d="M58.4165 62.7532C59.026 61.9746 59.5902 61.1406 60.4516 60.5729C61.313 60.0052 62.5875 59.7741 63.469 60.3217C64.0131 60.6583 64.5722 61.2762 65.1667 61.02C65.4084 60.9145 65.5445 60.6885 65.6301 60.4674C66.2144 58.9804 65.2624 57.3878 64.2146 56.1068C63.5496 55.2929 56.8347 49.1237 55.9934 50.9122C55.933 51.0428 55.9582 51.1935 55.9934 51.3342C56.8599 55.6144 58.6179 62.3564 52.8148 63.557C52.4974 63.6224 52.1549 63.6726 51.9181 63.8635C50.3767 65.0742 52.2657 66.4508 53.7366 66.1594C55.6962 65.7675 57.3435 64.1348 58.4215 62.7583L58.4165 62.7532Z" fill="white" stroke="black" stroke-width="2" stroke-linecap="round" stroke-linejoin="round"/>
<path d="M32.804 52.8859C32.0131 56.8597 32.4866 62.0493 33.3027 64.0789C34.3052 66.5707 36.5065 64.4959 37.8767 63.5916C38.6223 63.1043 39.3729 62.5567 40.2292 62.4211C41.8664 62.1649 43.3222 63.4359 44.7428 64.3552C46.4051 65.4303 48.2841 66.0884 50.2084 66.2794C50.4603 66.3045 50.7223 66.3145 50.9439 66.1889C51.357 65.9478 51.4275 65.2997 51.226 64.8375C51.0245 64.3753 50.6316 64.0588 50.2588 63.7574C46.2641 60.502 42.8537 56.3976 40.2544 51.7505C39.2167 49.9018 38.718 47.5657 36.4058 47.842C34.4412 48.0782 33.338 50.2032 32.804 52.8859Z" fill="white" stroke="black" stroke-width="2" stroke-linecap="round" stroke-linejoin="round"/>
<path d="M21.6914 93.9656C22.7593 109.082 24.5174 124.154 26.9656 139.114" stroke="black" stroke-width="2" stroke-linecap="round" stroke-linejoin="round"/>
<path d="M83.4807 102.537C84.8559 105.234 85.2539 100.14 85.3143 99.5124C85.6216 96.4077 85.4302 93.2979 85.7627 90.1983C86.0448 87.5909 86.8961 83.8683 85.3647 81.5172C80.3927 79.6634 81.1685 86.9579 81.0426 90.4645C80.8814 94.8553 81.7478 99.4169 83.3346 103.461C83.6117 103.431 83.2641 102.718 83.4857 102.537H83.4807Z" fill="black" stroke="black" stroke-width="2" stroke-linecap="round" stroke-linejoin="round"/>
<path d="M87.1289 84.2299C87.9903 84.1444 89.2799 83.2502 89.8693 82.7026C90.6501 81.9842 91.1035 81.1653 91.6727 80.2862C92.3024 79.3116 92.8817 78.3369 93.5517 77.3925C93.9496 76.8348 94.5289 75.9758 95.2291 75.7748C96.3021 75.4684 96.6195 76.7946 96.7555 77.5733C97.0527 79.2965 96.3525 81.0347 95.8236 82.6624C95.2946 84.2901 94.4131 86.0133 92.8968 86.9578" fill="white"/>
<path d="M87.1289 84.2299C87.9903 84.1444 89.2799 83.2502 89.8693 82.7026C90.6501 81.9842 91.1035 81.1653 91.6727 80.2862C92.3024 79.3116 92.8817 78.3369 93.5517 77.3925C93.9496 76.8348 94.5289 75.9758 95.2291 75.7748C96.3021 75.4684 96.6195 76.7946 96.7555 77.5733C97.0527 79.2965 96.3525 81.0347 95.8236 82.6624C95.2946 84.2901 94.4131 86.0133 92.8968 86.9578" stroke="black" stroke-width="2" stroke-linecap="round" stroke-linejoin="round"/>
<path d="M96.1346 88.8817C95.8267 88.527 88.7133 73.0206 81 63.6023L93.0291 56C93.0291 56 105.403 71.7023 108.058 81.3641L96.1346 88.8817Z" fill="white" stroke="black" stroke-width="2" stroke-linecap="round" stroke-linejoin="round"/>
<path d="M93.9956 61.7336C93.4701 62.173 92.6844 62.0989 92.2438 61.5748C92.143 61.453 92.074 61.3206 92.0262 61.183L86.3779 64.4653C86.4522 64.5236 86.5266 64.5871 86.5903 64.6612C87.0309 65.1853 86.9565 65.9689 86.431 66.4083C86.3248 66.493 86.208 66.5565 86.0859 66.6042C90.2372 72.2371 94.0753 79.7124 95.6147 82.7406C96.1403 82.3065 96.9206 82.3806 97.3612 82.9047C97.478 83.0424 97.5523 83.1959 97.6001 83.36L103.079 80.1836C103.079 80.1836 103.047 80.1518 103.031 80.1359C102.59 79.6118 102.664 78.8283 103.19 78.3889C103.439 78.1824 103.742 78.0924 104.039 78.1083C101.879 72.4171 96.273 64.5183 94.1284 61.6012C94.0859 61.6489 94.0487 61.6912 93.9956 61.7336Z" fill="white" stroke="black" stroke-width="2" stroke-linecap="round" stroke-linejoin="round"/>
<path d="M90.7087 66.2918C91.2922 66.2918 91.7651 65.8201 91.7651 65.2383C91.7651 64.6564 91.2922 64.1848 90.7087 64.1848C90.1253 64.1848 89.6523 64.6564 89.6523 65.2383C89.6523 65.8201 90.1253 66.2918 90.7087 66.2918Z" fill="white" stroke="black" stroke-width="2" stroke-linecap="round" stroke-linejoin="round"/>
<path d="M98.8806 80.0566C99.464 80.0566 99.937 79.5849 99.937 79.003C99.937 78.4212 99.464 77.9495 98.8806 77.9495C98.2972 77.9495 97.8242 78.4212 97.8242 79.003C97.8242 79.5849 98.2972 80.0566 98.8806 80.0566Z" fill="white" stroke="black" stroke-width="2" stroke-linecap="round" stroke-linejoin="round"/>
<path d="M95.3029 76.7265C97.9943 76.7265 100.176 74.5506 100.176 71.8665C100.176 69.1824 97.9943 67.0065 95.3029 67.0065C92.6115 67.0065 90.4297 69.1824 90.4297 71.8665C90.4297 74.5506 92.6115 76.7265 95.3029 76.7265Z" fill="white" stroke="black" stroke-width="2" stroke-linecap="round" stroke-linejoin="round"/>
<path d="M96.4255 88.9113C96.2513 88.4797 94.5994 71.6056 90.3984 60.2632L104.173 57C104.173 57 110.712 75.7583 110.073 85.6954L96.4255 88.9165V88.9113Z" fill="white" stroke="black" stroke-width="2" stroke-linecap="round" stroke-linejoin="round"/>
<path d="M103.194 62.1737C102.544 62.4211 101.816 62.0948 101.568 61.4474C101.51 61.3 101.489 61.1474 101.489 61L94.9869 62.2842C95.0397 62.3632 95.0872 62.4474 95.1241 62.5421C95.3722 63.1895 95.045 63.9159 94.3958 64.1632C94.2639 64.2106 94.1319 64.2317 94 64.2369C96.1163 71.0055 97.3196 79.432 97.7946 82.8374C98.4437 82.5952 99.1668 82.9216 99.4148 83.569C99.4782 83.7374 99.5045 83.9111 99.494 84.0848L105.795 82.8426C105.795 82.8426 105.774 82.8058 105.764 82.7795C105.516 82.1321 105.843 81.4057 106.492 81.1584C106.798 81.0426 107.12 81.0584 107.4 81.1689C107.21 75.0003 104.45 65.5896 103.357 62.0842C103.304 62.1158 103.246 62.1474 103.188 62.1684L103.194 62.1737Z" fill="white" stroke="black" stroke-width="2" stroke-linecap="round" stroke-linejoin="round"/>
<path d="M98.8878 65.5212C99.4795 65.5212 99.9591 65.0428 99.9591 64.4527C99.9591 63.8626 99.4795 63.3843 98.8878 63.3843C98.2961 63.3843 97.8164 63.8626 97.8164 64.4527C97.8164 65.0428 98.2961 65.5212 98.8878 65.5212Z" fill="white" stroke="black" stroke-width="2" stroke-linecap="round" stroke-linejoin="round"/>
<path d="M102.235 81.7163C102.827 81.7163 103.307 81.2379 103.307 80.6479C103.307 80.0578 102.827 79.5794 102.235 79.5794C101.644 79.5794 101.164 80.0578 101.164 80.6479C101.164 81.2379 101.644 81.7163 102.235 81.7163Z" fill="white" stroke="black" stroke-width="2" stroke-linecap="round" stroke-linejoin="round"/>
<path d="M101.092 77.2423C103.82 77.2423 106.032 75.0366 106.032 72.3158C106.032 69.595 103.82 67.3894 101.092 67.3894C98.364 67.3894 96.1523 69.595 96.1523 72.3158C96.1523 75.0366 98.364 77.2423 101.092 77.2423Z" fill="white" stroke="black" stroke-width="2" stroke-linecap="round" stroke-linejoin="round"/>
<path d="M106.926 88.7915C106.8 88.2188 106.14 87.7666 106.08 87.2743C105.969 86.2846 106.84 84.9382 106.795 83.8079C106.719 81.8536 105.898 81.507 105.193 82.3761C105.369 81.9541 105.505 81.522 105.591 81.085C105.772 80.1706 105.818 78.9147 104.664 78.7891C103.369 78.6484 101.798 81.6426 101.017 82.5368C99.8129 83.9184 98.4075 85.109 96.5537 85.4808C95.0324 85.7872 94.0198 85.4858 93.1282 84.1847C92.8965 83.8481 91.8034 80.8991 91.5968 80.8991C90.5793 80.8991 88.4282 83.3959 87.3956 83.6772C85.4813 84.1897 82.887 84.3957 81.7234 86.1791C73.2655 99.1405 97.6015 101.472 102.417 98.7285C103.944 97.8594 104.876 96.6688 105.601 95.0511C105.888 94.4131 106.447 92.8507 105.964 92.1875C106.538 91.1828 107.173 89.9218 106.926 88.7915Z" fill="white" stroke="black" stroke-width="2" stroke-linecap="round" stroke-linejoin="round"/>
<path d="M105.602 81.4361C103.078 87.2788 100.771 88.3438 98.3477 90.2227" stroke="black" stroke-width="2" stroke-linecap="round" stroke-linejoin="round"/>
<path d="M106.262 85.9778C105.965 86.4099 105.939 86.8369 105.773 87.3092C105.411 88.3692 104.801 89.4493 104.136 90.3485C102.957 91.9511 101.391 92.4636 99.8945 93.5989" stroke="black" stroke-width="2" stroke-linecap="round" stroke-linejoin="round"/>
<path d="M106.703 90.675C105.963 92.1872 105.106 93.0563 104.31 93.8752C103.786 94.4178 103.333 94.8398 102.698 95.2618C101.963 95.7491 101.081 95.94 100.371 96.4574" stroke="black" stroke-width="2" stroke-linecap="round" stroke-linejoin="round"/>
<path d="M26.8164 66.7214C28.5493 67.1183 30.252 66.862 31.9949 67.3192C34.0149 67.8467 35.8234 68.3943 37.7175 69.3036C41.4603 71.0921 44.7246 73.3025 48.8956 73.9707C52.7745 74.5937 56.6533 75.0558 60.5523 75.6336C64.2347 76.1812 67.9423 76.9247 71.5944 77.633C73.7706 78.055 75.8712 78.7081 78.0575 79.0749C80.0322 79.4065 82.2486 79.7883 83.9412 80.9186C85.4122 81.8982 84.4097 82.3956 83.6188 83.7922C82.9589 84.9477 82.4451 86.1835 82.0925 87.4646C81.4024 89.9765 81.3822 92.5939 81.6341 95.1711C81.7046 95.8895 82.6567 103.139 82.9337 103.129C78.4705 103.3 73.69 100.868 69.5341 99.7227C62.6126 97.8186 55.5199 96.5778 48.4926 95.1359C41.4956 93.7041 34.7907 91.2475 27.6577 91.2224" fill="white"/>
<path d="M26.8164 66.7214C28.5493 67.1183 30.252 66.862 31.9949 67.3192C34.0149 67.8467 35.8234 68.3943 37.7175 69.3036C41.4603 71.0921 44.7246 73.3025 48.8956 73.9707C52.7745 74.5937 56.6533 75.0558 60.5523 75.6336C64.2347 76.1812 67.9423 76.9247 71.5944 77.633C73.7706 78.055 75.8712 78.7081 78.0575 79.0749C80.0322 79.4065 82.2486 79.7883 83.9412 80.9186C85.4122 81.8982 84.4097 82.3956 83.6188 83.7922C82.9589 84.9477 82.4451 86.1835 82.0925 87.4646C81.4024 89.9765 81.3822 92.5939 81.6341 95.1711C81.7046 95.8895 82.6567 103.139 82.9337 103.129C78.4705 103.3 73.69 100.868 69.5341 99.7227C62.6126 97.8186 55.5199 96.5778 48.4926 95.1359C41.4956 93.7041 34.7907 91.2475 27.6577 91.2224" stroke="black" stroke-width="2" stroke-linecap="round" stroke-linejoin="round"/>
<path d="M36.8591 105.963C36.6778 104.566 36.0179 103.225 35.1111 102.16C35.0104 102.044 34.8895 101.883 34.7585 101.723C36.1589 105.059 33.7762 109.007 29.9779 109.429C29.4843 109.53 28.9503 109.585 28.4062 109.595C29.5447 110.293 30.8998 110.68 32.2146 110.725C34.7585 110.816 37.2017 108.585 36.8591 105.963Z" fill="black" stroke="black" stroke-width="2" stroke-linecap="round" stroke-linejoin="round"/>
<path d="M51.1126 86.998C52.3972 86.4152 53.4853 85.3904 54.2459 84.2098C54.3265 84.0792 54.4424 83.9184 54.5633 83.7426C51.7776 86.0586 47.2942 84.9533 45.7729 81.4568C45.5311 81.0147 45.3195 80.5223 45.1483 80.0049C44.8158 81.296 44.846 82.7027 45.1835 83.9687C45.8434 86.4203 48.7047 88.0932 51.1126 86.998Z" fill="black" stroke="black" stroke-width="2" stroke-linecap="round" stroke-linejoin="round"/>
<path d="M53.4988 153.578C54.7984 153.035 55.9218 152.046 56.7177 150.89C56.8034 150.765 56.9243 150.604 57.0502 150.433C54.1889 152.658 49.7459 151.408 48.3354 147.866C48.1087 147.414 47.9122 146.916 47.7611 146.394C47.3883 147.675 47.3682 149.082 47.6704 150.358C48.2497 152.829 51.0556 154.593 53.4988 153.573V153.578Z" fill="black" stroke="black" stroke-width="2" stroke-linecap="round" stroke-linejoin="round"/>
<path d="M59.6892 122.694C60.4066 123.594 61.4302 124.249 62.5122 124.616C62.6282 124.656 62.7801 124.712 62.9431 124.77C60.5592 123.032 60.5434 119.269 62.9998 117.371C63.3025 117.096 63.6494 116.829 64.0205 116.592C62.9313 116.584 61.8273 116.889 60.894 117.408C59.0875 118.417 58.3338 121.007 59.6844 122.695L59.6892 122.694Z" fill="black" stroke="black" stroke-width="2" stroke-linecap="round" stroke-linejoin="round"/>
<path d="M46.4606 113.694L46.8284 115.075L48.1834 115.558L46.9795 116.336L46.9392 117.768L45.8259 116.869L44.4456 117.276L44.9595 115.935L44.1484 114.754L45.5841 114.829L46.4606 113.694Z" fill="black" stroke="black" stroke-width="2" stroke-linecap="round" stroke-linejoin="round"/>
<path d="M73.3903 90.2985L73.7631 91.685L75.1131 92.1623L73.9092 92.941L73.8739 94.3778L72.7556 93.4735L71.3753 93.8804L71.8892 92.5441L71.0781 91.3585L72.5138 91.4338L73.3903 90.2985Z" fill="black" stroke="black" stroke-width="2" stroke-linecap="round" stroke-linejoin="round"/>
<path d="M73.5577 68.3046L74.7666 69.0732L76.0915 68.5156L75.7288 69.9021L76.6708 70.9873L75.2351 71.0727L74.4946 72.2985L73.9707 70.9672L72.5703 70.6406L73.6786 69.7313L73.5577 68.3046Z" fill="black" stroke="black" stroke-width="2" stroke-linecap="round" stroke-linejoin="round"/>
<path d="M27.0579 131.092L28.3475 131.72L29.6019 131.012L29.4004 132.433L30.4633 133.398L29.0477 133.649L28.4533 134.955L27.7783 133.689L26.3477 133.528L27.3451 132.499L27.0579 131.092Z" fill="black" stroke="black" stroke-width="2" stroke-linecap="round" stroke-linejoin="round"/>
<path d="M24.6197 76.0407L24.9924 77.4223L26.3475 77.8995L25.1436 78.6832L25.1033 80.115L23.9849 79.2157L22.6097 79.6176L23.1235 78.2813L22.3125 77.1007L23.7431 77.1761L24.6197 76.0407Z" fill="black" stroke="black" stroke-width="2" stroke-linecap="round" stroke-linejoin="round"/>
<path d="M25.027 56.3526L25.3998 57.7341L26.7499 58.2164L25.5459 58.9951L25.5106 60.4269L24.3923 59.5276L23.0121 59.9346L23.5259 58.5932L22.7148 57.4126L24.1505 57.488L25.027 56.3526Z" fill="black" stroke="black" stroke-width="2" stroke-linecap="round" stroke-linejoin="round"/>
<path d="M59.1602 191.191L60.5908 191.347L61.5278 190.262L61.825 191.664L63.1498 192.216L61.9005 192.93L61.7847 194.356L60.7167 193.397L59.3214 193.723L59.9107 192.417L59.1602 191.191Z" fill="black" stroke="black" stroke-width="2" stroke-linecap="round" stroke-linejoin="round"/>
<path d="M23.8482 186.665L24.8607 187.685L26.2712 187.433L25.6113 188.704L26.2914 189.97L24.8708 189.739L23.8734 190.769L23.6618 189.352L22.3672 188.724L23.6517 188.086L23.8482 186.665Z" fill="black" stroke="black" stroke-width="2" stroke-linecap="round" stroke-linejoin="round"/>
<path d="M199.086 220.343C197.555 220.955 194.987 221.932 196.42 223.621C197.853 225.31 206.724 225.013 209.134 224.92C213.565 224.745 217.992 224.415 222.364 223.739C223.703 223.535 232.608 222.269 229.247 219.671C228.109 218.791 225.801 218.564 224.36 218.282C218.444 217.12 212.068 219.927 206.123 219.827C203.453 219.782 201.815 219.248 199.086 220.343Z" fill="black" stroke="black" stroke-width="2" stroke-miterlimit="10"/>
<path d="M176.75 221.889C180.317 221.565 181.989 219.302 178.572 216.395C175.412 213.703 170.672 214.057 166.782 214.366C162.181 214.73 157.101 214.266 152.608 215.129C150.859 215.463 147.503 215.757 146.098 216.904C141.976 220.269 150.632 221.635 152.783 221.844C160.59 222.597 168.943 222.597 176.75 221.894V221.889Z" fill="black" stroke="black" stroke-width="2" stroke-miterlimit="10"/>
<path d="M241.678 91.5002C240.189 91.4753 240.898 91.2214 240.507 91.9155C239.233 91.9155 239.041 92.7429 238.534 93.8119C237.888 95.1756 237.754 96.7089 237.554 98.216C237.402 99.3668 237.414 100.495 237.414 101.659C237.414 102.667 237.72 103.623 237.758 104.606C237.782 105.217 238.155 106.134 238.503 106.636C238.979 107.324 239.164 107.5 239.998 107.5C240.699 107.5 241.287 107.473 241.678 106.808C242.016 106.234 242.273 105.835 242.518 105.204C243.108 103.687 243.372 102.22 243.658 100.622C244.028 98.5457 243.854 96.3392 243.308 94.3083C243.09 93.5007 242.482 91.9465 241.678 91.5002Z" fill="black" stroke="black" stroke-linecap="round"/>
<path d="M242.789 107.051C244.045 108.642 244.415 110.073 244.91 111.982C245.172 112.994 246.232 115.681 247.452 113.847C248.147 112.8 247.467 111.274 247.333 110.147C247.236 109.3 246.592 107.685 247.333 106.962C248.476 105.86 249.196 108.736 249.341 109.355C249.829 111.429 249.294 113.981 250.39 115.886C251.229 117.342 252.31 115.597 252.243 114.749C252.3 115.472 251.677 116.798 252.866 117.033C254.055 117.267 254.544 115.776 254.513 114.914C254.482 115.133 254.477 115.622 254.76 115.701C255.403 115.891 256 114.654 256.062 114.241C256.252 113.024 256.561 111.798 256.576 110.566C256.597 109.33 256.566 107.949 256.34 106.722C255.938 104.578 255.033 102.524 253.633 100.814C252.48 99.4034 250.987 98.4263 249.444 97.489C246.706 95.8238 244.014 94.7369 240.741 94.5026C240.231 94.4677 239.284 94.0589 238.785 94.2832C238.106 94.5873 237.91 95.7988 237.813 96.4071C237.524 98.2318 238.199 99.9269 238.44 101.697C238.6 102.844 239.526 103.621 240.37 104.339C241.317 105.147 242.017 106.084 242.784 107.056L242.789 107.051Z" fill="white" stroke="black" stroke-width="2" stroke-linecap="round" stroke-linejoin="round"/>
<path d="M251.895 106.937C252.214 109.734 252.919 113.019 251.987 115.761" stroke="black" stroke-width="2" stroke-linecap="round" stroke-linejoin="round"/>
<path d="M254.301 106.847C254.785 109.564 254.774 113.019 254.429 115.761" stroke="black" stroke-width="2" stroke-linecap="round" stroke-linejoin="round"/>
<path d="M175.29 207.536C175.275 206.579 175.424 205.542 176.103 204.844C176.783 204.146 178.131 204.021 178.692 204.814C178.918 205.128 178.98 205.527 178.985 205.911C179.016 207.347 178.373 208.708 177.987 210.094C177.627 211.39 177.724 212.607 178.079 213.858C176.083 212.567 175.326 209.74 175.29 207.536Z" fill="white" stroke="black" stroke-width="2" stroke-miterlimit="10"/>
<path d="M173.157 209.979C170.79 207.008 171.392 203.323 173.492 200.043C176.235 195.755 181.242 192.844 182.786 188.028C183.141 186.921 183.275 185.664 182.704 184.652C182.292 183.919 181.566 183.406 180.861 182.917L177.187 180.37C176.935 180.195 176.652 180.016 176.348 180.046C176.013 180.08 175.772 180.365 175.571 180.629C173.857 182.907 172.632 185.495 170.944 187.788C168.417 191.223 165.937 194.359 162.082 196.284C163.389 201.962 167.764 207.382 173.157 209.974V209.979Z" fill="white" stroke="black" stroke-width="2" stroke-miterlimit="10"/>
<path d="M174.107 210.996C173.747 210.667 173.438 210.328 173.16 209.979C167.761 207.387 163.392 201.962 162.085 196.289C161.694 196.483 161.287 196.673 160.865 196.842C157.932 198.019 155.122 199.833 155.25 203.363C155.312 205.048 156.449 206.36 157.772 207.521C158.734 208.364 159.795 209.127 160.603 209.894C162.589 211.774 163.783 213.883 165.404 216.032C168.641 220.324 175.09 222.004 180.113 219.866C181.229 219.392 182.351 218.654 182.707 217.522C184.065 213.155 176.248 212.931 174.112 210.996H174.107Z" fill="white" stroke="black" stroke-width="2" stroke-miterlimit="10"/>
<path d="M211.709 214.561C214.653 212.806 216.598 210.378 217.772 207.611C208.704 210.378 204.628 198.956 203.192 192.066C202.976 191.034 202.692 189.842 201.71 189.394C201.339 189.224 200.917 189.194 200.505 189.179C199.517 189.144 188.689 191.527 189.549 192.804C192.204 196.757 194.36 201.03 195.961 205.492C197.582 210.014 197.721 213.429 197.788 217.941C197.788 217.956 197.788 217.966 197.788 217.981C202.554 218.809 207.479 217.029 211.709 214.571V214.561Z" fill="white" stroke="black" stroke-width="2" stroke-linecap="round" stroke-linejoin="round"/>
<path d="M189.167 115.597C183.753 116.853 179.09 120.827 177.114 125.867C174.309 133.016 176.831 140.943 177.314 148.576C177.917 158.099 175.246 167.587 171.247 176.301C170.32 178.326 169.296 180.335 168.164 182.279C175.668 184.129 181.905 189.473 185.528 196.114C189.352 190.042 192.841 183.775 195.96 177.338C199.851 169.312 203.87 161.908 204.405 152.954C204.93 144.189 204.431 135.404 204.168 126.64C203.942 119.151 196.814 113.817 189.167 115.592V115.597Z" fill="black" stroke="black" stroke-width="2" stroke-miterlimit="10"/>
<path d="M183.095 115.253C180.265 112.78 173.127 110.731 169.354 111.279C166.73 111.663 164.429 113.353 162.947 115.492C157.338 123.579 159.046 133.605 162.273 142.1C166.544 153.343 170.816 164.595 174.424 176.052C176.971 184.134 180.466 191.488 182.663 199.629C182.843 200.287 188.247 199.853 188.89 199.704C190.743 199.29 192.091 198.083 193.81 197.41C197.058 196.229 200.336 194.957 203.383 193.352C205.024 192.485 205.76 191.891 205.966 191.273C206.28 190.331 205.354 189.349 204.546 187.29C201.803 180.345 201.422 171.63 200.027 164.311C196.888 147.849 195.092 151.463 196.708 144.877" fill="black"/>
<path d="M183.095 115.253C180.265 112.78 173.127 110.731 169.354 111.279C166.73 111.663 164.429 113.353 162.947 115.492C157.338 123.579 159.046 133.605 162.273 142.1C166.544 153.343 170.816 164.595 174.424 176.052C176.971 184.134 180.466 191.488 182.663 199.629C182.843 200.287 188.247 199.853 188.89 199.704C190.743 199.29 192.091 198.083 193.81 197.41C197.058 196.229 200.336 194.957 203.383 193.352C205.024 192.485 205.76 191.891 205.966 191.273C206.28 190.331 205.354 189.349 204.546 187.29C201.803 180.345 201.422 171.63 200.027 164.311C196.888 147.849 195.092 151.463 196.708 144.877" stroke="black" stroke-width="2" stroke-miterlimit="10"/>
<path d="M240.576 91.7107C240.062 91.591 239.547 91.4713 239.038 91.3517C238.178 91.1523 237.314 90.9429 236.449 90.7385C234.689 90.3147 232.934 89.861 231.205 89.3425C226.485 87.9166 221.802 86.1467 217.613 83.5741C213.897 81.2907 211.144 77.8806 208.782 74.3458C206.584 71.0603 204.906 66.8076 201.695 64.3098C196.996 60.6603 191.397 62.485 189.22 67.8047C186.971 73.2888 188.767 77.8357 191.418 82.8313C192.607 85.0698 193.924 87.2685 195.344 89.4173C196.991 91.9051 198.767 94.3131 200.614 96.6115C203.584 100.301 209.59 101.966 214.124 102.998C218.637 104.03 223.253 104.564 227.86 105.102C230.072 105.361 232.291 105.616 234.509 105.835C234.545 105.835 234.581 105.85 234.617 105.85C235.636 105.969 236.536 106.328 237.519 106.508C237.864 106.573 238.219 106.633 238.574 106.682C238.322 101.577 238.893 96.452 240.576 91.7107Z" fill="white" stroke="black" stroke-width="2" stroke-miterlimit="10"/>
<path d="M196.938 67.5404C197.226 67.5553 197.458 67.2712 197.473 66.987C197.489 66.7028 197.365 66.4386 197.236 66.1893C195.898 63.4821 194.72 60.7001 193.706 57.8683C192.507 54.5329 194.035 50.8436 192.1 47.5631C190.747 45.2647 188.055 44.0432 185.441 43.2705C183.876 42.8118 182.188 42.4628 180.624 42.9265C179.059 43.3901 177.49 44.6415 177.572 46.2219C177.752 49.7468 177.881 53.481 176.121 56.5721C174.685 59.0998 174.484 61.4181 175.678 64.1701C176.558 66.2092 177.978 67.9841 179.43 69.6892C181.566 72.2069 184.417 73.5082 187.777 73.5829C191.138 73.6577 195.126 70.2875 196.933 67.5354L196.938 67.5404Z" fill="white" stroke="black" stroke-width="2" stroke-miterlimit="10"/>
<path d="M200.881 25.3971C202.142 28.1591 203.073 32.2723 202.095 35.2437C201.627 36.6696 200.907 37.557 201.071 39.0477C201.509 42.9215 201.102 46.571 199.759 50.2753C197.891 55.4304 193.305 55.1462 188.674 53.5658C185.261 52.4041 182.055 50.2553 180.455 47.0247C178.623 46.7355 177.243 45.0653 176.456 43.44C174.207 38.7934 173.739 33.2544 175.694 28.4782C177.65 23.707 182.153 19.8681 187.392 19.0853C192.631 18.3026 198.74 20.6957 200.881 25.3921V25.3971Z" fill="white" stroke="black" stroke-width="2" stroke-miterlimit="10"/>
<path d="M212.827 96.6426C212.445 96.6426 212.089 96.6664 211.742 96.8397C211.201 96.8397 211.371 97.9093 211.2 98.2936C211.046 98.6409 210.986 99.0539 210.894 99.4244C210.736 100.054 210.612 100.685 210.499 101.325C210.402 101.879 210.316 102.441 210.253 103C210.149 103.924 209.923 104.826 209.87 105.758C209.776 107.402 209.66 109.223 210.19 110.812C210.416 111.489 210.735 112.146 211.507 112.118C211.903 112.104 212.258 111.72 212.558 111.488C212.982 111.161 213.322 110.685 213.541 110.199C213.865 109.479 214.167 108.672 214.308 107.896C214.506 106.807 214.711 105.736 214.858 104.638C215.001 103.576 214.995 102.531 214.995 101.462C214.995 100.534 214.969 99.4825 214.672 98.5921C214.503 98.084 214.295 97.4111 213.864 97.0615C213.521 96.7825 213.292 96.6426 212.827 96.6426Z" fill="black" stroke="black" stroke-linecap="round"/>
<path d="M179.507 37.1532C179.24 36.5948 178.957 36.0164 178.498 35.5877C178.04 35.1589 177.351 34.8997 176.749 35.1041C175.843 35.4082 175.575 36.515 175.514 37.4423C175.452 38.3746 175.462 39.3369 175.807 40.2143C176.152 41.0918 176.893 41.8646 177.845 42.0391C178.797 42.2136 179.893 41.6203 180.042 40.6979" fill="white"/>
<path d="M179.507 37.1532C179.24 36.5948 178.957 36.0164 178.498 35.5877C178.04 35.1589 177.351 34.8997 176.749 35.1041C175.843 35.4082 175.575 36.515 175.514 37.4423C175.452 38.3746 175.462 39.3369 175.807 40.2143C176.152 41.0918 176.893 41.8646 177.845 42.0391C178.797 42.2136 179.893 41.6203 180.042 40.6979" stroke="black" stroke-width="2" stroke-miterlimit="10"/>
<path d="M206.699 116.868C206.771 114.849 206.096 106.852 206.292 104.853C206.621 101.502 207.769 104.07 207.584 100.715C207.038 90.7035 205.968 80.6974 203.899 70.8957C203.77 70.2825 203.631 69.6693 203.482 69.056C202.916 66.7527 202.159 64.4942 200.945 62.49C199.504 60.1168 197.116 57.7586 194.383 57.3199C195.526 60.9943 195.752 67.4806 191.455 68.9264C186.895 70.462 183.581 66.4884 180.941 63.3076C179.278 61.3034 178.383 58.9402 176.937 56.8363C175.161 54.2538 171.898 56.9161 169.958 57.9282C166.886 59.5285 162.527 62.3105 159.907 64.6288C158.523 65.8553 158.652 66.4037 157.833 68.0988C157.149 69.5097 156.861 71.0901 156.624 72.6506C154.889 84.1225 155.049 95.8337 155.95 107.375C156.716 117.217 156.758 127.363 157.416 137.309C157.499 138.58 157.385 139.991 158.224 141.013C159.377 142.409 161.95 143.037 163.566 143.541C167.761 144.842 172.212 145.121 176.561 144.703C181.888 144.189 187.271 143.317 192.448 142.065C197.265 140.899 203.487 137.977 208.448 138.406C208.181 131.326 206.446 123.908 206.704 116.873L206.699 116.868Z" fill="white" stroke="black" stroke-width="2" stroke-miterlimit="10"/>
<path d="M209.74 213.723C211.943 212.796 214.274 211.659 215.35 209.575C215.731 208.842 215.926 208.03 216.364 207.327C216.688 206.808 217.125 206.365 217.563 205.931C219.807 203.687 222.081 201.424 224.819 199.779C225.89 199.135 227.243 198.587 228.365 199.145C228.983 199.455 229.394 200.053 229.657 200.671C230.254 202.072 230.213 203.657 229.93 205.153C228.725 211.53 222.869 216.809 216.22 217.512C214.465 217.697 212.617 217.612 211.027 218.35C209.961 218.844 209.102 219.666 208.176 220.379C206.261 221.86 203.745 222.992 201.238 222.697C196.956 222.199 195.819 217.253 197.353 213.863C200.266 217.448 206.081 215.264 209.74 213.723Z" fill="white" stroke="black" stroke-width="2" stroke-miterlimit="10"/>
<path d="M212.005 208.937C210.62 208.214 209.303 206.963 209.37 205.442C209.385 205.158 209.447 204.869 209.606 204.63C209.941 204.136 210.625 203.957 211.227 204.041C211.83 204.126 212.375 204.42 212.916 204.699C215.062 205.816 217.182 206.514 219.565 206.888C219.343 208.409 219.354 209.685 217.666 210.104C215.978 210.523 213.502 209.715 211.999 208.937H212.005Z" fill="white" stroke="black" stroke-width="2" stroke-miterlimit="10" stroke-linejoin="round"/>
<path d="M215.997 202.481C215.071 201.972 214.124 201.399 213.583 200.516C213.043 199.634 213.033 198.348 213.851 197.685C214.716 196.982 216.079 197.276 216.959 197.959C217.84 198.642 218.411 199.619 219.157 200.442C220.094 201.484 221.324 202.276 222.672 202.72C222.42 202.635 221.977 204.301 221.751 204.46C221.041 204.969 221.416 204.744 220.413 204.575C218.977 204.33 217.263 203.164 216.007 202.481H215.997Z" fill="white" stroke="black" stroke-width="2" stroke-miterlimit="10" stroke-linejoin="round"/>
<path d="M169.745 208.384C169.626 206.928 169.837 205.357 170.825 204.256C171.402 203.613 172.508 203.204 173.131 203.812C173.424 204.096 173.512 204.525 173.563 204.924C173.764 206.404 173.728 207.915 174.016 209.381C174.304 210.847 174.968 212.332 176.234 213.185C175.73 212.846 173.27 215.01 171.813 213.943C170.357 212.876 169.868 209.949 169.739 208.384H169.745Z" fill="white" stroke="black" stroke-width="2" stroke-miterlimit="10"/>
<path d="M187.896 31.4845C185.462 31.4297 182.961 32.033 182.611 34.78C182.292 37.2878 182.868 40.0199 184.695 41.8247C186.522 43.6295 189.754 44.1579 191.792 42.5775C193.557 41.2115 195.451 38.3946 197.695 41.0021C198.199 41.5854 198.585 42.2784 199.208 42.742C204.323 46.556 204.632 36.4303 204.55 34.3014C204.478 32.5365 203.346 31.5095 201.467 31.7587C199.306 32.0429 197.16 33.0949 195.065 32.7808C193.382 32.5315 191.756 31.9183 190.063 31.674C189.389 31.5793 188.647 31.4995 187.896 31.4796V31.4845Z" fill="white" stroke="black" stroke-width="2" stroke-miterlimit="10"/>
<path d="M182.788 34.2565C179.968 34.3811 177.117 33.6831 174.688 32.2872" stroke="black" stroke-width="2" stroke-miterlimit="10"/>
<path d="M196.209 41.0619C196.667 41.3361 196.893 41.9244 196.734 42.423C196.574 42.9215 196.039 43.2755 195.504 43.2456" stroke="black" stroke-width="2" stroke-miterlimit="10"/>
<path d="M195.876 46.1472C194.661 45.9129 193.328 46.7205 193.02 47.8822C194.018 48.0118 195.032 48.0417 196.035 47.9719" stroke="black" stroke-width="2" stroke-miterlimit="10"/>
<path d="M173.092 25.7062C172.428 27.0473 171.759 28.4184 171.584 29.8991C171.404 31.4496 171.79 33.0101 172.243 34.5058C173.293 37.9907 174.718 41.366 176.484 44.5667C176.057 42.6273 175.681 40.678 175.351 38.7186C175.017 36.7344 175.938 29.3955 178.728 34.1369C178.939 34.4958 179.083 34.8947 179.376 35.1938C179.669 35.4929 180.189 35.6425 180.518 35.3783C180.642 35.2786 180.724 35.129 180.786 34.9844C181.568 33.2793 181.203 30.627 182.469 29.1513C183.972 27.4063 185.86 29.221 187.94 28.6976C188.959 28.4383 189.87 27.8799 190.842 27.4861C193.143 26.5538 196.076 27.491 198.176 26.3543C198.701 26.0701 199.087 25.5965 199.416 25.1129C200.867 22.9691 201.753 20.9948 199.838 18.9557C198.027 17.0312 195.289 16.1239 192.669 15.8945C189.983 15.6652 187.368 16.1289 184.723 16.4729C181.661 16.8667 180.323 16.6125 178.1 18.8211C175.876 21.0297 174.435 22.9741 173.087 25.7012L173.092 25.7062Z" fill="black" stroke="black" stroke-width="2" stroke-linecap="round" stroke-linejoin="round"/>
<path d="M202.918 31.1305C201.847 30.0138 201.971 28.2389 201.178 26.9227C200.556 25.8857 199.166 25.0182 199.506 23.6621C199.784 22.5603 201.178 21.8274 202.285 22.1215C205.851 23.0688 203.705 29.0465 202.918 31.1305Z" fill="black" stroke="black" stroke-width="2" stroke-linecap="round" stroke-linejoin="round"/>
<path d="M176.145 63.7563C178.846 68.6622 184.188 72.1072 189.901 72.6357C191.352 72.7703 192.876 72.7155 194.183 72.0923C195.83 71.3095 196.91 69.754 197.919 68.2683" stroke="black" stroke-width="2" stroke-miterlimit="10"/>
<path d="M165.902 118.713C165.907 124.94 166.458 131.167 167.549 137.304C167.575 137.434 169.181 144.618 169.057 144.673" stroke="black" stroke-width="2" stroke-miterlimit="10"/>
<path d="M180.441 159.744C183.473 166.375 187.955 172.378 193.513 177.234" stroke="black" stroke-width="2" stroke-miterlimit="10"/>
<path d="M187.5 34.5108C186.342 32.9802 185.626 31.1405 185.451 29.246C185.374 28.4184 185.477 27.4462 186.203 27.0025C186.897 26.5837 187.86 26.8928 188.4 27.4861C188.941 28.0794 189.167 28.8771 189.373 29.6399C189.707 30.8763 190.042 32.1127 190.382 33.3492" fill="white"/>
<path d="M187.5 34.5108C186.342 32.9802 185.626 31.1405 185.451 29.246C185.374 28.4184 185.477 27.4462 186.203 27.0025C186.897 26.5837 187.86 26.8928 188.4 27.4861C188.941 28.0794 189.167 28.8771 189.373 29.6399C189.707 30.8763 190.042 32.1127 190.382 33.3492" stroke="black" stroke-width="2" stroke-miterlimit="10"/>
<path d="M200.695 33.3492C200.891 31.4746 201.946 29.6997 203.521 28.5929C203.984 28.2688 204.571 27.9896 205.116 28.1591C205.626 28.3187 205.94 28.8422 205.991 29.3557C206.042 29.8692 205.873 30.3827 205.677 30.8613C205.157 32.1476 204.437 33.3541 203.541 34.431C203.5 34.4859 203.433 34.5407 203.371 34.5208C203.31 34.5008 203.356 34.3712 203.402 34.4161" fill="white"/>
<path d="M200.695 33.3492C200.891 31.4746 201.946 29.6997 203.521 28.5929C203.984 28.2688 204.571 27.9896 205.116 28.1591C205.626 28.3187 205.94 28.8422 205.991 29.3557C206.042 29.8692 205.873 30.3827 205.677 30.8613C205.157 32.1476 204.437 33.3541 203.541 34.431C203.5 34.4859 203.433 34.5407 203.371 34.5208C203.31 34.5008 203.356 34.3712 203.402 34.4161" stroke="black" stroke-width="2" stroke-miterlimit="10"/>
<path d="M191.919 37.547C192.368 37.547 192.732 37.1943 192.732 36.7593C192.732 36.3242 192.368 35.9716 191.919 35.9716C191.47 35.9716 191.105 36.3242 191.105 36.7593C191.105 37.1943 191.47 37.547 191.919 37.547Z" fill="black"/>
<path d="M198.731 37.906C199.18 37.906 199.544 37.5533 199.544 37.1182C199.544 36.6832 199.18 36.3305 198.731 36.3305C198.282 36.3305 197.918 36.6832 197.918 37.1182C197.918 37.5533 198.282 37.906 198.731 37.906Z" fill="black"/>
<path d="M200.345 19.6188C199.269 16.8817 196.181 15.3661 193.201 14.8525C190.222 14.339 187.144 14.5584 184.18 14L186.516 15.2115C184.087 15.5555 181.612 15.5854 179.172 15.3112C178.498 18.0184 176.717 20.4514 174.309 21.962C172.858 22.8694 171.072 23.5923 170.434 25.1478C171.164 25.1678 171.895 25.1927 172.626 25.2126C170.768 27.0473 170.135 29.9539 171.072 32.357C171.381 31.1056 172.502 30.0836 173.81 29.8592C174.36 29.7645 174.926 29.7994 175.472 29.6997C176.239 29.5601 176.928 29.1612 177.597 28.7773C180.613 27.0573 183.722 25.4968 186.907 24.0958C188.333 23.4726 189.81 22.8694 191.374 22.8245C192.146 22.8046 192.923 22.9143 193.68 22.7896C194.437 22.665 195.214 22.2063 195.394 21.4834C196.042 20.935 197.504 20.6957 198.276 21.0596C198.456 21.1444 198.626 21.2541 198.821 21.284C199.197 21.3438 199.567 21.0845 199.742 20.7555C199.917 20.4264 200.484 19.9578 200.345 19.6138V19.6188Z" fill="black" stroke="black" stroke-width="2" stroke-miterlimit="10"/>
<path d="M201.004 21.7526C202.038 21.5133 203.14 21.3887 204.159 21.6928C205.178 21.9969 206.089 22.8146 206.207 23.8366C205.193 23.4627 204.03 23.4677 203.021 23.8516C204.467 24.5196 206.109 25.437 206.289 26.9825C205.625 27.152 204.941 26.7582 204.262 26.828C203.412 26.9127 202.764 27.8251 202.99 28.6228" fill="black"/>
<path d="M201.004 21.7526C202.038 21.5133 203.14 21.3887 204.159 21.6928C205.178 21.9969 206.089 22.8146 206.207 23.8366C205.193 23.4627 204.03 23.4677 203.021 23.8516C204.467 24.5196 206.109 25.437 206.289 26.9825C205.625 27.152 204.941 26.7582 204.262 26.828C203.412 26.9127 202.764 27.8251 202.99 28.6228" stroke="black" stroke-width="2" stroke-miterlimit="10"/>
<path d="M201.839 131.332C201.382 131.435 184.212 130.586 172.209 133L171 119.175C171 119.175 190.787 115.572 200.656 117.641L201.839 131.332Z" fill="white" stroke="black" stroke-width="2" stroke-miterlimit="10" stroke-linejoin="round"/>
<path d="M176.371 120.85C176.522 121.517 176.083 122.172 175.395 122.318C175.238 122.348 175.082 122.348 174.938 122.33L175.251 128.814C175.338 128.772 175.432 128.742 175.526 128.717C176.215 128.572 176.891 128.996 177.041 129.664C177.073 129.797 177.073 129.931 177.06 130.058C184.161 128.996 192.796 129.057 196.284 129.093C196.14 128.432 196.572 127.777 197.261 127.631C197.442 127.595 197.618 127.595 197.787 127.631L197.486 121.347C197.486 121.347 197.442 121.365 197.424 121.365C196.735 121.511 196.059 121.086 195.908 120.419C195.839 120.103 195.902 119.794 196.052 119.539C189.841 118.823 179.985 120.128 176.309 120.674C176.334 120.728 176.353 120.789 176.365 120.85H176.371Z" fill="white" stroke="black" stroke-width="2" stroke-miterlimit="10" stroke-linejoin="round"/>
<path d="M178.005 126.406C178.603 126.406 179.088 125.936 179.088 125.357C179.088 124.777 178.603 124.307 178.005 124.307C177.407 124.307 176.922 124.777 176.922 125.357C176.922 125.936 177.407 126.406 178.005 126.406Z" fill="white" stroke="black" stroke-width="2" stroke-miterlimit="10" stroke-linejoin="round"/>
<path d="M194.427 125.545C195.025 125.545 195.51 125.075 195.51 124.495C195.51 123.916 195.025 123.446 194.427 123.446C193.829 123.446 193.344 123.916 193.344 124.495C193.344 125.075 193.829 125.545 194.427 125.545Z" fill="white" stroke="black" stroke-width="2" stroke-miterlimit="10" stroke-linejoin="round"/>
<path d="M186.227 129.203C188.987 129.203 191.224 127.035 191.224 124.362C191.224 121.688 188.987 119.521 186.227 119.521C183.468 119.521 181.23 121.688 181.23 124.362C181.23 127.035 183.468 129.203 186.227 129.203Z" fill="white" stroke="black" stroke-width="2" stroke-miterlimit="10" stroke-linejoin="round"/>
<path d="M184.302 146.504C183.997 146.86 169.708 156.417 161.512 165.514L152.297 155.138C152.297 155.138 166.032 140.445 175.187 136.22L184.302 146.504Z" fill="white" stroke="black" stroke-width="2" stroke-miterlimit="10"/>
<path d="M158.269 153.093C158.754 153.511 158.791 154.247 158.355 154.741C158.254 154.851 158.136 154.939 158.018 155.005L161.872 159.702C161.914 159.621 161.968 159.546 162.025 159.475C162.461 158.981 163.206 158.923 163.691 159.34C163.789 159.423 163.864 159.523 163.926 159.626C168.667 154.866 175.188 150.092 177.828 148.173C177.351 147.757 177.31 147.023 177.746 146.53C177.862 146.401 177.994 146.303 178.141 146.236L174.408 141.683C174.408 141.683 174.385 141.721 174.371 141.732C173.935 142.225 173.19 142.284 172.705 141.866C172.477 141.668 172.351 141.401 172.322 141.125C167.256 144.054 160.58 150.534 158.124 152.996C158.173 153.023 158.221 153.058 158.264 153.097L158.269 153.093Z" fill="white" stroke="black" stroke-width="2" stroke-miterlimit="10" stroke-linejoin="round"/>
<path d="M162.598 156.355C163.048 156.021 163.15 155.398 162.826 154.962C162.503 154.527 161.876 154.445 161.427 154.779C160.978 155.113 160.876 155.736 161.199 156.172C161.522 156.607 162.149 156.689 162.598 156.355Z" fill="white" stroke="black" stroke-width="2" stroke-miterlimit="10" stroke-linejoin="round"/>
<path d="M174.45 146.545C174.899 146.211 175.001 145.588 174.678 145.152C174.355 144.717 173.728 144.635 173.279 144.968C172.829 145.302 172.727 145.926 173.051 146.361C173.374 146.797 174.001 146.879 174.45 146.545Z" fill="white" stroke="black" stroke-width="2" stroke-miterlimit="10" stroke-linejoin="round"/>
<path d="M170.336 153.867C172.409 152.327 172.881 149.451 171.388 147.442C169.896 145.434 167.006 145.055 164.933 146.595C162.86 148.135 162.389 151.011 163.881 153.02C165.373 155.028 168.263 155.408 170.336 153.867Z" fill="white" stroke="black" stroke-width="2" stroke-miterlimit="10" stroke-linejoin="round"/>
<path d="M200.134 128.81C199.674 128.68 184.898 119.553 173 115.843L179.108 103C179.108 103 198.525 109.449 206.198 116.09L200.134 128.804V128.81Z" fill="white" stroke="black" stroke-width="2" stroke-miterlimit="10" stroke-linejoin="round"/>
<path d="M182.995 107.106C182.785 107.767 182.057 108.138 181.368 107.934C181.214 107.885 181.074 107.811 180.953 107.718L177.863 113.623C177.959 113.629 178.061 113.642 178.157 113.673C178.84 113.877 179.223 114.582 179.012 115.25C178.968 115.379 178.904 115.497 178.821 115.602C185.67 118.125 193.291 122.379 196.361 124.11C196.578 123.449 197.299 123.084 197.982 123.288C198.161 123.344 198.321 123.43 198.448 123.542L201.448 117.822C201.448 117.822 201.404 117.816 201.378 117.809C200.695 117.605 200.312 116.9 200.523 116.233C200.625 115.923 200.842 115.676 201.11 115.522C195.972 111.861 186.557 108.213 183.021 106.908C183.008 106.97 183.002 107.032 182.982 107.093L182.995 107.106Z" fill="white" stroke="black" stroke-width="2" stroke-miterlimit="10" stroke-linejoin="round"/>
<path d="M182.108 112.968C182.718 112.968 183.212 112.489 183.212 111.898C183.212 111.307 182.718 110.828 182.108 110.828C181.498 110.828 181.004 111.307 181.004 111.898C181.004 112.489 181.498 112.968 182.108 112.968Z" fill="white" stroke="black" stroke-width="2" stroke-miterlimit="10" stroke-linejoin="round"/>
<path d="M197.108 120.209C197.718 120.209 198.212 119.73 198.212 119.139C198.212 118.548 197.718 118.069 197.108 118.069C196.498 118.069 196.004 118.548 196.004 119.139C196.004 119.73 196.498 120.209 197.108 120.209Z" fill="white" stroke="black" stroke-width="2" stroke-miterlimit="10" stroke-linejoin="round"/>
<path d="M189.91 119.955C192.723 119.955 195.004 117.746 195.004 115.021C195.004 112.296 192.723 110.086 189.91 110.086C187.097 110.086 184.816 112.296 184.816 115.021C184.816 117.746 187.097 119.955 189.91 119.955Z" fill="white" stroke="black" stroke-width="2" stroke-miterlimit="10" stroke-linejoin="round"/>
<path d="M225.288 122.008C225.519 122.367 226.034 122.921 226.23 122.891C226.991 122.761 227.722 121.24 227.758 120.717C227.913 118.279 227.496 115.357 227.043 112.949C226.641 110.805 225.736 108.751 224.336 107.041C223.183 105.63 221.691 104.653 220.147 103.716C217.409 102.051 214.717 100.964 211.444 100.73C210.935 100.695 209.988 100.286 209.488 100.51C208.809 100.814 208.613 102.026 208.516 102.634C208.228 104.459 208.902 106.154 209.144 107.924C209.303 109.071 210.229 109.848 211.073 110.566C211.99 111.349 212.782 112.271 213.477 113.288C215.036 115.582 216.05 118.334 216.647 120.886C216.75 121.33 216.858 122.472 217.285 122.681C218.206 123.125 218.525 122.203 218.572 120.777C218.577 120.807 218.587 120.847 218.598 120.876C218.793 121.689 219.344 124.9 220.96 123.559C221.608 123.02 221.835 121.759 221.999 120.976C221.943 121.614 222.195 122.646 222.668 123.1C223.831 124.212 224.763 122.651 225.18 121.729C225.159 121.769 225.211 121.874 225.293 122.008H225.288Z" fill="white" stroke="black" stroke-width="2" stroke-linecap="round" stroke-linejoin="round"/>
<path d="M218.669 122.073C218.7 119.869 218.478 116.235 217.434 113.697" stroke="black" stroke-width="2" stroke-linecap="round" stroke-linejoin="round"/>
<path d="M221.935 122.542C222.218 119.675 221.801 115.437 220.664 112.8" stroke="black" stroke-width="2" stroke-linecap="round" stroke-linejoin="round"/>
<path d="M196.781 134.253C199.411 133.704 201.979 132.787 204.609 132.194C205.844 131.915 207.182 132.009 208.315 131.281C210.466 124.152 206.771 118.523 205.273 112.331C204.516 109.2 203.621 108.881 201.104 108.612C198.171 108.298 195.392 107.744 192.53 109.484C190.137 110.94 189.283 115.013 188.305 118.084C186.777 122.896 184.77 127.577 183.406 132.468C182.443 135.923 183.787 135.529 186.334 135.404C189.643 135.235 193.297 134.981 196.781 134.253Z" fill="white" stroke="black" stroke-width="2" stroke-miterlimit="10"/>
<path d="M225.143 122.661C225.837 118.204 224.901 113.966 224.113 112.805" stroke="black" stroke-width="2" stroke-linecap="round" stroke-linejoin="round"/>
<path d="M159.289 65.1722C154.41 69.5845 153.134 76.8535 153.381 83.0357C153.664 90.1701 156.839 95.8138 161.78 101.059C165.593 105.107 170.961 106.862 176.365 107.894C182.566 109.075 188.793 110.043 195.072 110.771C198.299 111.145 201.525 111.523 204.762 111.793C205.473 111.852 206.198 111.922 206.929 111.987C208.2 112.097 209.482 112.177 210.722 112.097C209.873 107.221 210.619 102.006 212.039 97.13C210.655 96.9654 209.25 96.7561 207.881 96.4818C207.279 96.3622 206.682 96.2326 206.101 96.088C203.594 95.4897 201.067 94.8914 198.602 94.1436C193.62 92.6379 188.675 90.7733 184.254 88.0562C180.332 85.6481 177.425 82.0435 174.929 78.3143" fill="white"/>
<path d="M159.289 65.1722C154.41 69.5845 153.134 76.8535 153.381 83.0357C153.664 90.1701 156.839 95.8138 161.78 101.059C165.593 105.107 170.961 106.862 176.365 107.894C182.566 109.075 188.793 110.043 195.072 110.771C198.299 111.145 201.525 111.523 204.762 111.793C205.473 111.852 206.198 111.922 206.929 111.987C208.2 112.097 209.482 112.177 210.722 112.097C209.873 107.221 210.619 102.006 212.039 97.13C210.655 96.9654 209.25 96.7561 207.881 96.4818C207.279 96.3622 206.682 96.2326 206.101 96.088C203.594 95.4897 201.067 94.8914 198.602 94.1436C193.62 92.6379 188.675 90.7733 184.254 88.0562C180.332 85.6481 177.425 82.0435 174.929 78.3143" stroke="black" stroke-width="2" stroke-miterlimit="10"/>
<path d="M154.27 75.5672C156.966 74.5302 159.853 73.8671 162.751 73.9718C165.648 74.0765 168.566 74.9939 170.769 76.8186" stroke="black" stroke-width="2" stroke-miterlimit="10"/>
<path d="M161.832 74.256C162.789 70.8758 164.585 67.7149 167.025 65.1274" stroke="black" stroke-width="2" stroke-miterlimit="10"/>
<path d="M197.05 143.949C196.119 146.307 195.434 147.998 196.17 150.44C196.664 152.071 197.179 153.691 197.827 155.272C198.62 157.206 198.738 159.679 199.675 161.459" stroke="white" stroke-width="2" stroke-linecap="round" stroke-linejoin="round"/>
<path d="M141.966 167C141.966 167 139.471 183.395 126 193.815L139.358 199.783C139.358 199.783 153.266 187.953 155 174.384L141.966 167Z" fill="white" stroke="black" stroke-width="2" stroke-linecap="round" stroke-linejoin="round"/>
<path d="M150.536 176.473L144.624 173.058C144.624 173.058 144.326 175.071 142.676 173.838C142.676 173.838 139.153 185.01 133.047 190.228C133.047 190.228 134.305 190.734 132.805 192.242L138.074 194.912C138.074 194.912 138.855 192.682 140.534 194.556C140.534 194.556 148.774 186.822 151.125 178.697C151.125 178.697 149.27 178.184 150.536 176.466L150.536 176.473Z" fill="white" stroke="black" stroke-width="2" stroke-linecap="round" stroke-linejoin="round"/>
<path d="M137.816 191.905C138.369 191.918 138.827 191.48 138.839 190.928C138.852 190.376 138.415 189.918 137.863 189.905C137.311 189.892 136.853 190.33 136.84 190.882C136.827 191.434 137.264 191.892 137.816 191.905Z" fill="white" stroke="black" stroke-width="2" stroke-linecap="round" stroke-linejoin="round"/>
<path d="M146.113 179.094C146.665 179.107 147.123 178.67 147.136 178.118C147.149 177.566 146.712 177.108 146.16 177.095C145.608 177.082 145.15 177.519 145.137 178.071C145.124 178.624 145.561 179.082 146.113 179.094Z" fill="white" stroke="black" stroke-width="2" stroke-linecap="round" stroke-linejoin="round"/>
<path d="M142.383 189.01C144.868 189.068 146.923 187.325 146.975 185.116C147.026 182.908 145.054 181.07 142.569 181.012C140.084 180.955 138.029 182.698 137.977 184.907C137.926 187.115 139.898 188.952 142.383 189.01Z" fill="white" stroke="black" stroke-width="2" stroke-linecap="round" stroke-linejoin="round"/>
</svg>
