<svg width="312" height="185" viewBox="0 0 312 185" fill="none" xmlns="http://www.w3.org/2000/svg">
<path d="M72.204 101.673C72.6752 71.1196 72.8131 40.3488 72.5833 9.78985C72.5833 9.74976 68.601 9.46341 68.3826 9.44623C48.7642 7.77397 29.1861 5.75236 9.46998 5.73518C7.815 5.73518 4.71191 5.01931 3.21209 5.51183C1.56286 6.05016 2.12601 7.88851 2.11452 9.41187C2.08004 13.1802 2.05131 16.9485 2.02832 20.7169C1.85593 50.8635 2.14899 81.0101 2.91327 111.145C2.96499 113.253 3.02246 115.366 3.07992 117.473C9.28035 115.4 16.1416 113.877 22.5547 112.646C28.5425 111.495 33.0994 110.83 40.1848 109.135C51.0283 106.535 61.2915 103.906 72.2098 101.679L72.204 101.673Z" fill="white" stroke="black" stroke-width="2" stroke-linecap="round" stroke-linejoin="round"/>
<path d="M38.1064 51.5966C37.7041 52.427 36.8536 53.1085 36.1353 53.6354C34.9113 54.5288 33.5839 55.6455 32.8081 56.9742C32.3656 57.7244 32.0668 58.5949 32.1933 59.4539C32.3312 60.3588 32.946 61.1434 33.6988 61.6645C34.4516 62.1857 35.3481 62.472 36.2388 62.7011C38.204 63.1993 40.4567 63.3711 42.1174 62.2029C42.761 61.7504 43.2609 61.1262 43.7494 60.5019C45.1055 58.7667 46.433 56.9112 46.9042 54.7636C47.4041 52.49 46.8927 50.119 46.1801 47.9027C45.8238 46.7917 45.4101 45.6864 44.7722 44.707C44.7263 44.6383 44.6746 44.5582 44.5941 44.5352C44.4447 44.4837 44.301 44.6211 44.1976 44.7414C43.0541 46.0815 41.583 47.1353 39.9567 47.811C39.2786 48.0917 38.0891 48.0229 37.8708 48.9106C37.7386 49.449 38.1121 49.5692 38.25 50.0045C38.4339 50.5886 38.3477 51.1212 38.1121 51.6023L38.1064 51.5966Z" fill="white" stroke="black" stroke-width="2" stroke-linecap="round" stroke-linejoin="round"/>
<path d="M39.1737 49.041C42.6669 47.2929 45.4517 45.2525 45.3654 41.1352C45.3346 39.7769 45.2299 38.4248 45.0512 37.0848C44.8664 35.7022 44.5953 34.3013 43.9238 33.0771C42.6423 30.7565 39.6789 29.3312 37.1406 30.1657C33.1914 31.4691 33.1729 36.0494 33.1236 39.4297C33.1113 40.3677 33.0189 41.3179 33.1236 42.2498C33.3454 44.2293 34.4174 46.0017 35.5141 47.6645C36.0686 48.505 36.7894 49.4247 37.7998 49.4491C38.2865 49.4613 38.7424 49.2542 39.1737 49.041Z" fill="white" stroke="black" stroke-width="2" stroke-linecap="round" stroke-linejoin="round"/>
<path d="M39.3867 38.9858C39.9499 38.4475 40.8521 38.2986 41.5589 38.6193C41.6623 38.7968 41.6508 39.0431 41.5129 39.1977C41.375 39.3523 41.1049 39.3752 40.9555 39.2378C40.8061 39.1003 40.8176 38.8083 40.9957 38.7052C40.9498 38.6021 41.0934 38.6364 41.1969 38.6708C41.3003 38.7052 41.3578 38.8312 41.3348 38.94C41.3175 39.0144 41.2658 39.0889 41.1854 39.0946C41.1049 39.1003 41.036 39.003 41.0877 38.9457C41.1049 38.8884 41.2141 38.9113 41.2026 38.9686" stroke="black" stroke-width="2" stroke-linecap="round" stroke-linejoin="round"/>
<path d="M34.5195 38.8768C35.1318 38.532 36.0168 38.5102 36.6514 38.8245C36.7293 38.9685 36.6847 39.1562 36.5289 39.2566C36.373 39.357 36.117 39.3482 35.989 39.2304C35.861 39.1125 35.9111 38.8943 36.1003 38.8332C36.2283 38.7896 36.1782 38.8157 36.3174 38.8419C36.4565 38.8681 36.5512 39.0034 36.4732 39.0994C36.4398 39.0994 36.1504 39.0994 36.117 39.0994C36.117 39.0733 36.117 39.0514 36.117 39.0252C36.1448 39.0252 36.1727 39.0252 36.2005 39.0252C36.2562 39.0907 36.1281 39.1867 36.0446 39.1431C36.0502 39.0994 36.0947 39.0645 36.1448 39.0514" stroke="black" stroke-width="2" stroke-linecap="round" stroke-linejoin="round"/>
<path d="M36.6914 42.2183C36.9155 42.4989 37.2661 42.6822 37.6281 42.6994C37.9901 42.7166 38.3579 42.5734 38.6107 42.3157" stroke="black" stroke-width="2" stroke-linecap="round" stroke-linejoin="round"/>
<path d="M36.6914 44.7502C37.6542 45.0932 38.7599 44.9974 39.6469 44.49" stroke="black" stroke-width="2" stroke-linecap="round" stroke-linejoin="round"/>
<path d="M37.6983 32.0319C37.6739 32.1946 37.6435 32.369 37.5276 32.491C37.3996 32.6247 37.1985 32.6653 37.0156 32.7118C35.6259 33.0663 34.5836 34.0774 33.9009 35.2395C33.0903 36.6167 33.1878 38.2321 33.0476 39.7836C32.7733 42.8052 33.6754 45.7746 35.6869 48.1628C36.2172 48.7904 36.8511 49.3366 37.2899 50.0223C37.7288 50.7079 37.9177 51.6144 37.4911 52.3059C37.3021 52.6139 37.0034 52.8521 36.717 53.0788C35.8088 53.7993 34.9006 54.514 33.9985 55.2346C33.7181 53.3519 32.7534 53.344 32.1012 51.5485C31.772 50.642 31.0177 49.1216 30.9506 48.1628C30.8105 46.1464 30.1775 43.6654 30.1836 41.6433C30.1958 37.6629 30.7192 32.6828 34.5166 30.126C35.1931 29.6669 36.9303 28.8476 37.7593 29.3706C38.5882 29.8936 37.8141 31.3114 37.7044 32.0203L37.6983 32.0319Z" fill="black" stroke="black" stroke-width="2" stroke-linecap="round" stroke-linejoin="round"/>
<path d="M52.4478 56.0005C52.1663 56.6591 50.2987 56.6992 49.5804 56.9054C48.2127 57.3006 46.891 57.8446 45.6383 58.5261C45.236 58.7495 44.4718 59.7574 43.9776 59.6658C43.219 59.5226 43.9488 55.949 43.9833 55.4278C44.1155 53.5838 44.1902 51.734 44.2074 49.8842C44.2419 46.1273 44.0293 42.3647 43.5351 38.6422C43.334 37.1188 43.0696 35.5496 42.2421 34.2553C41.4146 32.9611 39.8746 31.9932 38.3633 32.2853C38.3863 32.2853 38.5184 30.6016 38.5529 30.4412C38.6793 29.8571 38.8805 29.2328 39.3574 28.8377C40.4952 27.8984 42.3743 28.2421 43.5926 28.7747C44.489 29.1698 45.3969 29.5993 46.0865 30.298C47.2416 31.4778 47.5691 33.2073 47.8507 34.8338C48.5805 39.1175 49.5344 43.3612 50.2182 47.6507C50.54 49.6723 50.902 51.6538 51.5399 53.6239C51.7295 54.2137 52.4766 55.2789 52.4823 55.8287C52.4823 55.8974 52.4708 55.9547 52.4478 56.012V56.0005Z" fill="black" stroke="black" stroke-width="2" stroke-linecap="round" stroke-linejoin="round"/>
<path d="M34.7817 54.3741C30.4374 56.6077 26.9493 60.4504 25.1564 64.9804C24.5932 66.4007 24.191 67.884 23.8174 69.3673C23.6508 70.0316 23.4841 70.7017 23.1336 71.2915C22.8463 71.7726 22.4555 72.1849 22.0763 72.603C20.835 73.9832 19.7662 75.5638 19.295 77.3564C18.8238 79.1489 19.0191 81.1705 20.1167 82.6652C20.5994 83.3238 21.2373 83.8507 21.8981 84.3318C24.9322 86.508 28.7134 87.6362 32.4486 87.4816C33.0003 85.2824 34.2128 83.2494 35.8965 81.7203C33.7128 79.2233 31.0062 77.1845 28.0009 75.7757" stroke="black" stroke-width="2" stroke-linecap="round" stroke-linejoin="round"/>
<path d="M30.6323 64.0011C29.6612 64.5051 28.9429 66.1029 28.5866 67.0994C28.1671 68.2791 28.0349 69.562 28.1844 70.8047C28.4947 73.3188 30.0519 75.5867 32.5746 76.2797" stroke="black" stroke-width="2" stroke-linecap="round" stroke-linejoin="round"/>
<path d="M35.7812 77.7171C36.511 75.077 38.0626 72.7118 39.9647 70.736C41.8667 68.7602 44.1194 67.1509 46.4409 65.6791" stroke="black" stroke-width="2" stroke-linecap="round" stroke-linejoin="round"/>
<path d="M31.8525 65.9311C31.6111 67.4144 31.6111 68.9606 32.0593 70.4096C32.4673 71.7153 33.0822 72.9122 34.0304 73.9144" stroke="black" stroke-width="2" stroke-linecap="round" stroke-linejoin="round"/>
<path d="M41.7305 79.7673C43.351 79.3149 44.9083 78.6506 46.3506 77.7972" stroke="black" stroke-width="2" stroke-linecap="round" stroke-linejoin="round"/>
<path d="M35.8164 81.4453C37.3679 82.3616 39.1781 82.7969 40.9767 82.9229C41.9709 82.9916 43.0052 82.7797 43.9994 82.7453C44.6545 82.7224 47.9162 82.0157 46.8315 83.8235C45.9005 84.213 45.0236 84.9082 43.939 85.6314" stroke="black" stroke-width="2" stroke-linecap="round" stroke-linejoin="round"/>
<path d="M43.9414 85.6313C44.868 86.5832 45.7947 87.5351 46.6413 88.5594C46.9612 88.946 47.2716 89.3518 47.4598 89.8205C47.5256 89.98 47.5774 90.1588 47.5492 90.3279C47.5209 90.497 47.3986 90.6661 47.2293 90.6903C47.0176 90.7192 46.8483 90.5308 46.7119 90.3665" stroke="black" stroke-width="2" stroke-linecap="round" stroke-linejoin="round"/>
<path d="M33.0977 86.485C36.626 89.6864 40.9588 91.9944 45.5904 93.1283C45.7111 92.7446 45.7284 92.3265 45.6479 91.9314C45.8375 92.086 46.1076 92.1433 46.3432 92.0803C46.5214 91.3243 46.6765 90.4538 46.2111 89.8296" stroke="black" stroke-width="2" stroke-linecap="round" stroke-linejoin="round"/>
<path d="M26.5956 86.7371C23.073 90.7917 20.3492 95.5336 18.6367 100.619" stroke="black" stroke-width="2" stroke-linecap="round" stroke-linejoin="round"/>
<path d="M56.2148 86.329C58.2089 87.9326 59.7949 90.0344 60.789 92.3881" stroke="black" stroke-width="2" stroke-linecap="round" stroke-linejoin="round"/>
<path d="M5.59766 8.95453C8.24359 12.6378 10.1498 13.2508 12.8289 16.9089" stroke="black" stroke-width="2" stroke-linecap="round" stroke-linejoin="round"/>
<path d="M14.6241 20.3446C14.6241 19.875 14.6241 33.1557 14.6241 32.6861C13.9575 60.3186 13.7334 74.2122 13.9805 101.856L21.4107 100.533C26.5787 99.636 31.7466 98.7368 36.9146 97.8358C40.2016 97.2631 43.4828 96.6961 46.7698 96.1234C51.8497 95.2415 56.9008 94.0904 61.9519 93.0595C62.3714 80.8726 62.1013 71.8641 62.0554 59.6657C62.0094 48 61.8083 38.8884 62.2048 21.3811C59.0615 20.8485 50.0912 20.9803 46.9077 20.7855C31.6911 19.8521 27.2836 20.7111 14.6299 19.8521" stroke="black" stroke-width="2" stroke-linecap="round" stroke-linejoin="round"/>
<path d="M64.168 19.0783C65.9541 16.7826 67.8897 14.6042 69.953 12.5701" stroke="black" stroke-width="2" stroke-linecap="round" stroke-linejoin="round"/>
<path d="M12.2351 104.198C9.93594 107.3 8.85126 108.746 6.32031 112.723" stroke="black" stroke-width="2" stroke-linecap="round" stroke-linejoin="round"/>
<path d="M64.8906 94.2834C66.6822 95.5006 68.379 96.9573 69.9525 98.6222" stroke="black" stroke-width="2" stroke-linecap="round" stroke-linejoin="round"/>
<path d="M77.5199 73.6567C75.8074 73.4677 74.1007 73.5078 72.4113 73.9603C70.7448 74.407 69.0036 75.3691 68.5439 77.0299C68.2623 78.055 68.4577 78.0035 68.7278 79.0286C70.015 78.2154 72.2044 77.7973 73.7214 77.9405C74.3076 77.992 79.2151 80.7581 79.784 80.9128C81.0597 81.2678 77.7267 79.6127 78.922 79.04C80.0311 78.5074 80.8183 77.2074 80.5195 76.0506C79.284 75.4893 78.1405 74.8307 77.5199 73.6567Z" fill="white" stroke="black" stroke-width="2" stroke-linecap="round" stroke-linejoin="round"/>
<path d="M79.2496 78.6277C79.1405 78.6907 79.0255 78.7651 78.9911 78.8854C78.9106 79.1259 79.1807 79.3321 79.4163 79.4352C80.669 79.985 82.0826 80.1568 83.4331 79.9277C84.7605 79.7043 85.3869 78.4559 83.8296 78.0206C82.4504 77.6369 80.4794 77.929 79.2554 78.6277H79.2496Z" fill="white" stroke="black" stroke-width="2" stroke-linecap="round" stroke-linejoin="round"/>
<path d="M80.6178 81.1475C83.8243 79.8762 87.0366 78.6048 90.3063 77.4937C88.7605 76.2625 87.209 75.0369 85.6632 73.8056C85.508 73.6853 85.3529 73.5593 85.1632 73.5021C84.9161 73.4219 84.6461 73.4677 84.3932 73.5192C82.5946 73.8743 80.8764 74.447 79.1697 75.1113C77.9917 75.5695 76.5378 75.9131 75.4805 76.5717C76.9631 78.2497 78.9398 79.6643 80.6178 81.1533V81.1475Z" fill="white" stroke="black" stroke-width="2" stroke-linecap="round" stroke-linejoin="round"/>
<path d="M77.911 75.1457C79.7212 75.4321 84.0023 75.581 85.4906 75.558C85.8641 75.5523 86.3583 75.5981 86.4618 75.2431C86.5767 74.8594 86.094 74.5787 85.709 74.4642C83.4678 73.7999 81.56 73.3188 78.8707 72.8263C78.2903 72.7175 77.7156 72.6316 77.141 72.5686C76.5664 72.5056 75.9342 72.3681 75.3711 72.3223" fill="white"/>
<path d="M77.911 75.1457C79.7212 75.4321 84.0023 75.581 85.4906 75.558C85.8641 75.5523 86.3583 75.5981 86.4618 75.2431C86.5767 74.8594 86.094 74.5787 85.709 74.4642C83.4678 73.7999 81.56 73.3188 78.8707 72.8263C78.2903 72.7175 77.7156 72.6316 77.141 72.5686C76.5664 72.5056 75.9342 72.3681 75.3711 72.3223" stroke="black" stroke-width="2" stroke-linecap="round" stroke-linejoin="round"/>
<path d="M75.5665 76.1193C77.187 75.5237 77.1295 73.9259 78.2788 73.0439C78.6293 72.7748 82.7725 71.1311 82.5139 70.6042C82.3933 70.358 82.0427 70.3523 81.7669 70.3923C77.1353 71.0051 72.5726 72.1448 68.1995 73.7827C68.0501 73.7827 68.0041 73.9144 67.9754 74.0633C67.6766 75.7871 67.6421 76.8695 68.6765 78.2841" fill="white"/>
<path d="M75.5665 76.1193C77.187 75.5237 77.1295 73.9259 78.2788 73.0439C78.6293 72.7748 82.7725 71.1311 82.5139 70.6042C82.3933 70.358 82.0427 70.3523 81.7669 70.3923C77.1353 71.0051 72.5726 72.1448 68.1995 73.7827C68.0501 73.7827 68.0041 73.9144 67.9754 74.0633C67.6766 75.7871 67.6421 76.8695 68.6765 78.2841" stroke="black" stroke-width="2" stroke-linecap="round" stroke-linejoin="round"/>
<path d="M51.1546 56.6809C51.8959 56.3888 53.7537 56.9341 54.4663 57.2834C55.1788 57.6328 55.765 58.2112 56.2592 58.8297C56.8568 59.5799 57.3395 60.4161 57.6958 61.3037C58.1785 62.5064 58.4141 63.7892 58.598 65.0721C59.1094 68.617 59.2358 72.2193 58.9657 75.7929C62.971 74.0691 64.6202 74.2294 68.9128 73.4277L68.4129 73.525C68.2348 75.6268 68.706 77.5052 69.6254 79.4066C67.074 81.2392 64.2065 82.5679 61.2701 83.6617C59.7875 84.2115 58.2877 84.704 56.7821 85.1736C55.765 85.4943 54.0698 86.2045 53.0009 85.6146C52.8055 85.5058 52.6676 85.3225 52.5412 85.1393C49.4668 80.7811 48.1509 75.2317 48.9382 69.9629" fill="white"/>
<path d="M51.1546 56.6809C51.8959 56.3888 53.7537 56.9341 54.4663 57.2834C55.1788 57.6328 55.765 58.2112 56.2592 58.8297C56.8568 59.5799 57.3395 60.4161 57.6958 61.3037C58.1785 62.5064 58.4141 63.7892 58.598 65.0721C59.1094 68.617 59.2358 72.2193 58.9657 75.7929C62.971 74.0691 64.6202 74.2294 68.9128 73.4277L68.4129 73.525C68.2348 75.6268 68.706 77.5052 69.6254 79.4066C67.074 81.2392 64.2065 82.5679 61.2701 83.6617C59.7875 84.2115 58.2877 84.704 56.7821 85.1736C55.765 85.4943 54.0698 86.2045 53.0009 85.6146C52.8055 85.5058 52.6676 85.3225 52.5412 85.1393C49.4668 80.7811 48.1509 75.2317 48.9382 69.9629" stroke="black" stroke-width="2" stroke-linecap="round" stroke-linejoin="round"/>
<path d="M5.72157 64.6077C5.71011 67.5277 5.65836 69.9452 5.71008 72.4078C5.79628 76.2391 5.77329 80.099 5.92845 83.9246C6.03763 86.6678 6.09509 89.3939 6.10084 92.1428C6.10084 93.9869 6.10084 97.1759 6.10084 98.116" stroke="black" stroke-width="2" stroke-linecap="round" stroke-linejoin="round"/>
<path d="M4.76172 15.4937V50.9034" stroke="black" stroke-width="2" stroke-linecap="round" stroke-linejoin="round"/>
<path d="M25.7773 11.1182C27.7943 11.3588 29.6849 12.046 31.7134 12.2407C36.098 12.6702 40.6147 12.424 45.0395 12.7848C49.4642 13.1456 53.843 13.8156 58.0609 13.5923" stroke="black" stroke-width="2" stroke-linecap="round" stroke-linejoin="round"/>
<path d="M67.6056 23.4883C67.6056 28.5452 67.5252 33.5849 67.8757 38.6246C68.186 43.1317 67.5941 47.9767 68.3699 52.4208" stroke="black" stroke-width="2" stroke-linecap="round" stroke-linejoin="round"/>
<path d="M20.6172 104.015C23.9386 103.563 27.3635 102.434 30.6218 101.678C35.4258 100.567 40.2471 99.9947 45.1086 99.2158C48.6139 98.6546 52.8433 98.1907 56.1475 96.7819" stroke="black" stroke-width="2" stroke-linecap="round" stroke-linejoin="round"/>
<path d="M191.351 36.113C193.436 31.6993 194.749 27.4416 200.152 25.4618C202.642 24.5468 208.798 21.9707 211.69 22.6939C213.86 24.8632 205.502 25.1089 204.458 26.3094C205.541 25.9605 212.046 23.4169 212.775 25.4618C214.037 26.2968 206.348 27.9459 205.544 28.4788C206.441 28.3164 213.983 26.0484 214.583 27.3941C215.141 28.6369 207.891 30.5536 206.99 31.0098C208.102 30.8181 210.594 31.1727 211.69 31.0098C213.603 31.0098 212.659 32.743 211.69 33.1791C209.589 34.1209 200.152 33.1791 199.036 40.0488C197.443 42.2324 197.956 42.3466 195.94 44.2158C195.065 45.0267 193.866 45.5515 192.514 45.1987C189.297 44.3594 190.527 39.9572 191.356 36.1165L191.351 36.113Z" fill="white" stroke="black" stroke-width="2" stroke-linecap="round" stroke-linejoin="round"/>
<path d="M189.994 37.1563C191.274 30.5244 197.394 24.644 199.395 25.2245C202.287 27.0322 198.691 29.1958 198.312 30.292C199.321 31.3767 199.395 34.2638 197.949 35.3485" fill="white"/>
<path d="M189.994 37.1563C191.274 30.5244 197.394 24.644 199.395 25.2245C202.287 27.0322 198.691 29.1958 198.312 30.292C199.321 31.3767 199.395 34.2638 197.949 35.3485" stroke="black" stroke-width="2" stroke-linecap="round" stroke-linejoin="round"/>
<path d="M98.4012 62.8114C97.6097 62.5659 96.8398 62.4453 96.204 63.0527C95.7325 63.5006 95.3 64.0649 94.6555 64.2501C94.063 64.4224 93.877 64.5473 93.5958 65.0771C93.2628 65.6931 92.9254 66.2746 92.6832 66.9379C92.3199 67.1791 91.9522 67.4161 91.6019 67.6659C91.1996 67.9459 90.2784 68.6824 90.2092 69.2079C90.0448 70.5174 93.2887 69.1261 93.8164 69.0098C94.5215 68.8504 95.3476 68.6178 96.0569 68.5403C96.7187 68.4714 98.3926 68.8806 98.1763 69.8627C98.1114 70.1469 97.5837 70.5518 97.3156 70.6811C96.8528 70.9007 96.2905 71.0601 95.7931 71.2496C95.2265 71.465 94.4609 71.5598 93.9721 71.9302C92.9341 72.7185 95.0318 73.0027 95.5033 73.0587C96.9609 73.2397 98.4574 73.2052 99.8891 72.852C101.105 72.5505 102.156 71.8182 103.358 71.4865C104.643 71.129 105.953 71.086 107.272 71.2582C107.925 71.3444 108.579 71.465 109.227 71.5727C109.777 71.6631 110.646 71.9474 111.195 71.7751C111.706 71.6115 112.065 70.302 112.251 69.8842C112.787 68.691 114.184 66.266 112.35 65.5337C111.81 65.3184 111.208 65.3399 110.629 65.3614C109.361 65.4045 108.09 65.4131 106.818 65.3873C106.373 65.3787 105.923 65.3571 105.477 65.3399C104.323 64.991 103.492 64.4439 102.467 63.66C101.321 62.7856 99.7247 62.1352 98.4142 62.8201L98.4012 62.8114Z" fill="white" stroke="black" stroke-width="2" stroke-linecap="round" stroke-linejoin="round"/>
<path d="M91.8359 67.4204C92.0868 67.4074 92.2858 67.2954 92.4934 67.1662C92.9692 66.8604 93.4103 66.5718 93.9423 66.365C94.4441 66.1669 94.9891 65.8266 95.5297 65.7534C96.6673 65.5983 97.9129 65.8223 98.9207 66.3564" stroke="black" stroke-width="2" stroke-linecap="round" stroke-linejoin="round"/>
<path d="M93.7227 65.2236C94.4277 64.0778 95.4744 64.0908 96.6595 64.0563C97.1396 64.0434 97.65 63.9702 98.1301 64.0175C98.6102 64.0649 99.0687 64.276 99.5185 64.4095" stroke="black" stroke-width="2" stroke-linecap="round" stroke-linejoin="round"/>
<path d="M97.6367 62.6736C98.0476 62.6693 98.4801 62.8804 98.8737 62.9752C99.5528 63.1388 100.137 63.4102 100.734 63.772" stroke="black" stroke-width="2" stroke-linecap="round" stroke-linejoin="round"/>
<path d="M186.184 150.458C186.015 151.225 185.622 151.919 185.232 152.599C184.181 154.443 182.166 158.91 179.895 159.525C178.014 160.038 176.872 157.691 176.422 156.243C175.648 153.736 175.159 151.423 173.667 149.149C173.459 148.83 173.23 148.494 173.239 148.115C173.247 147.706 173.524 147.357 173.792 147.047C174.999 145.626 176.037 144.071 177.283 142.679C177.637 142.287 178.563 140.974 179.181 141.008C180.609 141.09 182.313 143.877 183.247 144.799C184.904 146.435 186.764 147.822 186.184 150.454V150.458Z" fill="black" stroke="black" stroke-width="2" stroke-linecap="round" stroke-linejoin="round"/>
<path d="M187.879 147.964C186.456 146.53 184.704 144.695 184.198 145.109C183.973 145.294 183.848 145.604 183.921 145.906C184.072 146.5 184.423 147.03 184.635 147.607C184.847 148.184 184.903 148.891 184.514 149.369C183.8 150.247 182.256 149.722 181.339 150.394C180.638 150.906 180.569 151.897 180.491 152.759C180.413 153.62 180.123 154.637 179.293 154.886C178.264 155.197 177.39 154.103 176.918 153.142C176.447 152.181 175.755 151.027 174.682 151.117C174.302 151.152 173.951 151.354 173.657 151.604C172.213 152.836 172.814 155.011 173.039 156.627C173.251 158.147 173.891 159.396 174.172 160.882C174.479 162.515 174.336 165.78 173.104 167.02C171.724 168.412 170.876 170.764 172.502 172.508C173.995 174.11 176.867 173.434 178.514 172.284C179.531 171.573 180.556 170.854 181.425 169.967C184.12 167.219 185.028 163.187 187.334 160.107C189.31 157.467 191.508 155.085 191.707 151.63C191.849 149.158 189.172 149.291 187.861 147.969L187.879 147.964Z" fill="white" stroke="black" stroke-width="2" stroke-linecap="round" stroke-linejoin="round"/>
<path d="M146.071 29.9028C146.218 31.2683 146.344 33.9862 145.189 34.8736C144.523 35.3861 143.511 35.4723 143.087 36.1916C143.152 36.5664 142.745 37.0919 142.827 37.4623C143.528 40.5852 145.773 43.3419 148.727 44.5954C151.681 45.8488 155.276 45.5387 157.923 43.7296C160.57 41.9205 162.157 38.6468 161.859 35.4594C161.677 33.521 160.864 32.5045 159.142 31.9058C157.607 31.3716 156.768 29.9416 156.699 28.2014C156.681 27.7577 156.759 27.3141 156.841 26.8747C156.993 26.0735 157.17 25.2465 157.014 24.4453C156.936 24.0361 156.759 23.6313 156.439 23.3642C155.154 22.296 149.631 25.8582 148.225 26.5129C147.287 26.9479 146.231 27.5208 146.019 28.5331C145.933 28.9466 146.006 29.3687 146.054 29.7865C146.054 29.821 146.063 29.8597 146.067 29.8985L146.071 29.9028Z" fill="white" stroke="black" stroke-width="2" stroke-linecap="round" stroke-linejoin="round"/>
<path d="M178.298 136.623C173.242 130.95 166.849 127.423 162.437 125.704C160.69 125.023 159.483 123.361 158.393 121.84C155.461 117.744 155.971 112.235 156.352 107.217C157.087 97.4517 156.239 89.6639 150.097 81.8202C148.795 80.1575 146.525 79.9465 144.565 79.9938C142.178 80.0498 140.573 79.9465 139.933 82.3241C138.177 88.8197 138.199 95.3971 138.039 102.018C137.87 108.983 137.779 115.952 137.762 122.921C137.762 124.433 137.77 125.997 138.393 127.375C139.133 128.999 140.621 130.136 142.096 131.144C152.321 138.139 164.687 142.287 173.129 151.337C175.422 148.473 179.353 144.196 182.07 141.723C180.958 139.854 179.678 138.161 178.302 136.619L178.298 136.623Z" fill="white"/>
<path d="M178.298 136.623C175.859 140.832 171.966 143.799 168.683 147.069M178.298 136.623C173.242 130.95 166.849 127.423 162.437 125.704C160.69 125.023 159.483 123.361 158.393 121.84C155.461 117.744 155.971 112.235 156.352 107.217C157.087 97.4517 156.239 89.664 150.097 81.8202C148.795 80.1575 146.525 79.9465 144.565 79.9938C142.178 80.0498 140.573 79.9465 139.933 82.3241C138.177 88.8197 138.199 95.3971 138.039 102.018C137.87 108.983 137.779 115.952 137.762 122.921C137.762 124.433 137.77 125.997 138.393 127.375C139.133 128.999 140.621 130.136 142.096 131.144C152.321 138.139 164.687 142.287 173.129 151.337C175.422 148.473 179.353 144.196 182.07 141.723C180.958 139.854 179.678 138.161 178.302 136.619L178.298 136.623Z" stroke="black" stroke-width="2" stroke-linecap="round" stroke-linejoin="round"/>
<path d="M159.251 171.655C158.603 172.142 157.824 172.426 157.063 172.697C154.995 173.438 150.411 175.592 148.218 174.558C146.397 173.701 147.089 171.091 147.712 169.656C148.793 167.167 149.969 165.03 150.333 162.243C150.385 161.856 150.432 161.438 150.696 161.145C150.977 160.83 151.431 160.744 151.851 160.675C153.754 160.365 155.614 159.84 157.526 159.586C158.066 159.512 159.68 159.103 160.138 159.547C161.198 160.563 160.657 163.897 160.765 165.241C160.96 167.636 161.483 169.966 159.251 171.646V171.655Z" fill="black" stroke="black" stroke-width="2" stroke-linecap="round" stroke-linejoin="round"/>
<path d="M162.257 170.828C162.11 168.747 161.976 166.137 161.301 166.124C161.003 166.12 160.691 166.275 160.548 166.568C160.267 167.136 160.185 167.787 159.96 168.381C159.74 168.976 159.307 169.566 158.68 169.682C157.525 169.893 156.677 168.446 155.505 168.36C154.61 168.295 153.892 169.027 153.247 169.648C152.603 170.268 151.695 170.875 150.877 170.518C149.861 170.074 149.917 168.631 150.194 167.558C150.471 166.486 150.709 165.121 149.809 164.474C149.489 164.246 149.078 164.169 148.68 164.169C145.946 164.169 145.086 168.196 143.455 169.915C141.777 171.685 139.96 173.322 138.027 174.808C136.824 175.73 135.544 176.626 134.722 177.901C134.277 178.594 134.004 179.438 134 180.257L134.017 180.248C134.009 180.924 134.238 181.691 134.61 182.156C135.51 183.285 137.106 183.509 138.542 183.647C139.817 183.772 141.102 183.892 142.382 183.776C146.344 183.423 149.77 180.868 153.65 179.998C156.976 179.253 160.302 178.852 162.785 176.272C164.562 174.429 162.378 172.74 162.244 170.828H162.257Z" fill="white" stroke="black" stroke-width="2" stroke-linecap="round" stroke-linejoin="round"/>
<path d="M134.144 180.993C133.911 179.731 135.502 178.555 136.644 179.145C137.293 179.481 137.656 180.179 138.158 180.713C139.313 181.949 141.704 181.088 143.356 180.713C145.008 180.339 145.988 180.171 147.333 179.145C148.458 178.292 149.546 177.75 150.892 177.328C151.921 177.005 153.024 177 154.088 176.794C155.732 176.475 157.271 175.652 158.448 174.463C159.023 173.882 159.52 173.214 160.169 172.714C160.818 172.215 161.692 171.905 162.466 172.172" fill="white"/>
<path d="M134.144 180.993C133.911 179.731 135.502 178.555 136.644 179.145C137.293 179.481 137.656 180.179 138.158 180.713C139.313 181.949 141.704 181.088 143.356 180.713C145.008 180.339 145.988 180.171 147.333 179.145C148.458 178.292 149.546 177.75 150.892 177.328C151.921 177.005 153.024 177 154.088 176.794C155.732 176.475 157.271 175.652 158.448 174.463C159.023 173.882 159.52 173.214 160.169 172.714C160.818 172.215 161.692 171.905 162.466 172.172" stroke="black" stroke-width="2" stroke-linecap="round" stroke-linejoin="round"/>
<path d="M148.902 97.348C147.556 109.568 146.843 128.206 147.457 140.482C147.703 145.345 147.725 150.217 147.946 155.08C152.314 156.837 157.47 156.799 162.163 155.842C162.297 155.817 162.189 146.556 162.228 145.677C162.37 142.214 162.639 138.755 163.045 135.313C163.781 129.124 164.896 122.826 166.501 116.817C167.954 111.369 169.641 105.984 170.774 100.458C171.294 97.9252 171.19 95.203 171.216 92.6142C171.233 90.7793 171.181 88.9357 170.935 87.1137C170.723 85.5242 170.126 84.1459 169.836 82.5866C169.313 79.7609 169.239 78.3223 165.939 78.0638C161.324 77.702 156.406 77.7709 152.306 80.0065C151.895 80.2304 151.479 80.4932 151.246 80.8766C150.982 81.3116 150.995 81.8414 151.012 82.3411" fill="white"/>
<path d="M148.902 97.348C147.556 109.568 146.843 128.206 147.457 140.482C147.703 145.345 147.725 150.217 147.946 155.08C152.314 156.837 157.47 156.799 162.163 155.842C162.297 155.817 162.189 146.556 162.228 145.677C162.37 142.214 162.639 138.755 163.045 135.313C163.781 129.124 164.896 122.826 166.501 116.817C167.954 111.369 169.641 105.984 170.774 100.458C171.294 97.9252 171.19 95.203 171.216 92.6142C171.233 90.7793 171.181 88.9357 170.935 87.1137C170.723 85.5242 170.126 84.1459 169.836 82.5866C169.313 79.7609 169.239 78.3223 165.939 78.0638C161.324 77.702 156.406 77.7709 152.306 80.0065C151.895 80.2304 151.479 80.4932 151.246 80.8766C150.982 81.3116 150.995 81.8414 151.012 82.3411" stroke="black" stroke-width="2" stroke-linecap="round" stroke-linejoin="round"/>
<path d="M147.946 155.085C147.989 155.998 148.033 156.907 148.089 157.82C148.258 160.491 148.599 161.081 151.644 161.598C154.728 162.119 157.95 162.024 160.991 161.318C161.359 161.231 161.744 161.128 161.99 160.865C162.319 160.521 162.315 160.008 162.293 159.547C162.233 158.315 162.189 157.083 162.155 155.852C157.466 156.808 152.306 156.847 147.938 155.089L147.946 155.085Z" fill="white" stroke="black" stroke-width="2" stroke-linecap="round" stroke-linejoin="round"/>
<path d="M137.402 61.4935C137.666 63.2768 137.675 65.0558 137.177 66.7744C135.845 71.3747 134.102 76.4014 135.945 81.1094C136.425 82.3327 137.173 83.513 138.337 84.3055C140.724 85.9294 144.08 85.5288 147.104 85.5374C151.451 85.5504 155.659 86.5755 159.902 87.2733C162.722 87.7385 167.757 88.8972 170.46 87.549C173.103 86.2309 173.795 81.454 174.21 79.0936C174.786 75.8242 174.811 72.4989 174.786 69.1995C174.742 63.6429 174.699 58.0864 174.656 52.5342C174.625 48.623 176.286 42.8425 173.354 39.5215C172.082 38.0828 170.114 37.2558 168.142 36.6829C164.297 35.5673 159.509 34.6326 156.965 38.6428C156.356 39.6033 156.001 40.7147 155.356 41.6537C154.712 42.597 153.639 43.3852 152.51 43.2043C151.991 43.1225 151.524 42.8425 151.074 42.5668C148.782 41.1712 146.49 39.7756 144.197 38.38C140.893 36.3685 136.952 36.9586 135.322 40.7577C133.57 44.8411 134.305 49.3984 135.413 53.6541C136.07 56.1782 137.013 58.8445 137.398 61.4892L137.402 61.4935Z" fill="black" stroke="black" stroke-width="2" stroke-linecap="round" stroke-linejoin="round"/>
<path d="M151.464 27.9989C151.308 28.042 145.291 30.8461 145.136 30.8892C144.223 31.1476 143.324 31.363 142.437 30.7686C142.086 30.5317 141.823 30.1569 141.784 29.7391C141.753 29.4204 141.853 29.1059 141.905 28.7915C142.069 27.8223 141.014 26.8833 141.58 26.1123C141.991 25.5566 143.008 25.2077 143.644 24.988C142.982 25.0053 141.386 25.0699 140.893 24.5185C140.594 24.1826 140.962 23.1746 140.629 22.6793C139.984 21.7144 138.138 22.3519 137.895 20.9606C137.701 19.8536 139.842 17.7516 140.253 16.6403C140.443 16.1234 140.43 15.5592 140.408 15.0078C140.196 9.36081 142.804 5.51431 148.886 5.43677C152.065 5.39801 155.361 7.64647 157.169 10.61C158.241 12.3674 158.856 14.5038 158.44 16.5542C158.246 17.5276 157.9 18.3719 157.735 19.3798" fill="white"/>
<path d="M151.464 27.9989C151.308 28.042 145.291 30.8461 145.136 30.8892C144.223 31.1476 143.324 31.363 142.437 30.7686C142.086 30.5317 141.823 30.1569 141.784 29.7391C141.753 29.4204 141.853 29.1059 141.905 28.7915C142.069 27.8223 141.014 26.8833 141.58 26.1123C141.991 25.5566 143.008 25.2077 143.644 24.988C142.982 25.0053 141.386 25.0699 140.893 24.5185C140.594 24.1826 140.962 23.1746 140.629 22.6793C139.984 21.7144 138.138 22.3519 137.895 20.9606C137.701 19.8536 139.842 17.7516 140.253 16.6403C140.443 16.1234 140.43 15.5592 140.408 15.0078C140.196 9.36081 142.804 5.51431 148.886 5.43677C152.065 5.39801 155.361 7.64647 157.169 10.61C158.241 12.3674 158.856 14.5038 158.44 16.5542C158.246 17.5276 157.9 18.3719 157.735 19.3798" stroke="black" stroke-width="2" stroke-linecap="round" stroke-linejoin="round"/>
<path d="M142.777 16.7782C143.733 16.3475 144.979 16.7179 145.546 17.5966" stroke="black" stroke-width="2" stroke-linecap="round" stroke-linejoin="round"/>
<path d="M142.793 14.3121C143.727 13.7607 145.038 13.9546 145.769 14.7514" stroke="black" stroke-width="2" stroke-linecap="round" stroke-linejoin="round"/>
<path d="M143.25 17.3769C142.999 17.5104 143.172 17.9756 143.458 17.9498C143.743 17.9239 143.864 17.5018 143.67 17.295C143.548 17.2864 143.427 17.2735 143.311 17.2649C143.276 17.4027 143.28 17.5535 143.324 17.687C143.388 17.6181 143.453 17.5535 143.518 17.4846" stroke="black" stroke-width="2" stroke-linecap="round" stroke-linejoin="round"/>
<path d="M138.485 4.06256C138.926 4.63975 139.579 5.05757 140.289 5.21694C139.765 4.23055 139.644 3.04171 139.964 1.97347C140.081 3.05894 140.933 4.02379 141.997 4.28654C141.893 3.18385 141.997 2.06393 142.304 1C142.65 1.86148 143.658 2.28791 144.592 2.31806C147.525 2.40852 149.817 1.44797 152.841 2.11131C155.89 2.78326 159.259 3.77827 160.786 6.49193C163.68 11.6307 159.506 20.9863 157.11 25.6125C156.353 25.1559 155.432 24.975 154.554 25.1042C155.003 23.1702 155.25 21.1931 155.28 19.2074C155.293 18.501 155.254 17.7256 154.783 17.1958C152.949 15.1196 151.707 18.8929 150.12 19.2117C149.649 16.8168 151.863 14.2366 149.454 12.1648C148.68 11.4971 147.616 11.3033 146.621 11.0621C143.182 10.2308 137.797 8.60686 138.476 4.06687L138.485 4.06256Z" fill="black" stroke="black" stroke-width="2" stroke-linecap="round" stroke-linejoin="round"/>
<path d="M140.038 37.7768C141.301 39.237 143.874 39.9607 145.47 40.6068C147.369 41.3735 149.315 42.2996 150.531 43.9407C150.946 44.5007 151.309 45.1683 151.958 45.4225C153.213 45.9092 154.346 44.5782 155.176 43.5272C156.993 41.2141 159.54 39.4739 162.36 38.6168C163.632 38.2291 164.964 38.0137 166.171 37.4581C168.312 36.476 169.393 33.3057 167.464 31.5397C166.703 30.8419 165.648 30.5835 164.692 30.1915C163.355 29.6402 162.153 28.7787 160.777 28.335C159.908 28.055 158.221 27.6415 157.425 28.3135C155.73 29.7521 158.074 31.0917 158.84 31.8886C160.094 33.2024 159.311 35.6662 158.217 36.8637C157.399 37.7553 156.539 38.6125 155.643 39.4266C154.073 40.848 153.282 44.1173 150.635 41.5803C149.904 40.8825 149.385 39.9779 148.61 39.3275C147.572 38.4574 145.124 38.242 144.796 36.6827C144.657 36.0151 145.081 35.6059 145.31 35.0201C145.643 34.1715 145.764 33.3057 145.756 32.3883C145.756 32.2504 145.743 32.0954 145.639 32.0006C145.531 31.9015 145.366 31.9102 145.219 31.9231C144.475 31.992 143.732 32.0652 142.988 32.1341C141.859 32.2418 140.583 32.427 139.921 33.3488C139.51 33.9217 139.285 35.1493 139.285 35.8643C139.285 36.6181 139.575 37.2427 140.029 37.7725L140.038 37.7768Z" fill="black" stroke="black" stroke-width="2" stroke-linecap="round" stroke-linejoin="round"/>
<path d="M172.083 171.586C171.78 170.772 172.688 169.958 173.554 169.868C174.423 169.777 175.279 170.105 176.153 170.117C178.515 170.152 180.292 167.925 181.105 165.72C181.923 163.514 182.213 161.068 183.545 159.125C184.518 157.704 186.006 156.627 186.672 155.042C187.49 153.095 187.035 150.493 188.692 149.175" stroke="black" stroke-width="2" stroke-linecap="round" stroke-linejoin="round"/>
<path d="M184.087 45.8927C184.043 45.9903 184.005 46.0841 183.961 46.1817C181.378 52.0657 177.756 56.4681 176.391 62.9928C175.979 64.9601 175.817 67.2875 177.429 68.719C178.164 69.3729 179.158 69.7159 180.135 70.0024C183.023 70.8511 186.29 71.3202 188.931 70.0772C191.459 68.886 192.848 66.393 193.783 63.949C195.666 59.0129 196.321 53.6874 198.656 48.9233C200.091 45.9948 202.16 42.8352 199.825 39.9803C197.952 37.6911 193.876 36.49 190.922 36.471C186.451 36.4412 185.435 42.8346 184.092 45.8934L184.087 45.8927Z" fill="black" stroke="black" stroke-width="2" stroke-linecap="round" stroke-linejoin="round"/>
<path d="M170.493 34.6477C168.367 34.3798 166.662 36.2208 165.757 37.7725C164.088 40.6388 162.744 43.5911 161.742 46.5786C160.505 50.259 159.957 54.501 163.171 57.1022C165.902 59.3178 170.581 59.6728 173.733 61.5622C176.402 63.1614 177.708 65.7009 179.937 67.6337C182.166 69.5665 186.26 70.8379 189.331 69.2024C191.141 68.2367 191.458 67.6138 192.12 66.0701C192.781 64.5263 192.769 62.918 192.703 61.3501C192.573 58.222 192.183 55.0015 190.094 52.4232C187.556 49.2954 182.821 47.4979 180.258 44.3821C178.834 42.6512 178.157 40.6039 176.955 38.7692C175.754 36.9384 173.269 34.9999 170.499 34.6507L170.493 34.6477Z" fill="black" stroke="black" stroke-width="2" stroke-linecap="round" stroke-linejoin="round"/>
<path d="M151.691 19.0566C151.938 18.4277 152.418 17.8893 153.024 17.5792C153.249 17.4629 153.508 17.3767 153.759 17.4198C154.304 17.5145 154.568 18.1391 154.65 18.6862C154.78 19.539 154.697 20.4479 154.256 21.1888C153.815 21.9296 152.963 22.4594 152.102 22.369" stroke="black" stroke-width="2" stroke-linecap="round" stroke-linejoin="round"/>
<path d="M144.617 33.1505C146.771 35.2224 149.868 36.2777 152.844 35.9547C155.82 35.6316 158.618 33.9345 160.27 31.4534" stroke="black" stroke-width="2" stroke-linecap="round" stroke-linejoin="round"/>
<path d="M148.007 31.5186C147.592 32.2379 147.852 33.2587 148.561 33.6938" stroke="black" stroke-width="2" stroke-linecap="round" stroke-linejoin="round"/>
<path d="M154.653 27.7531C154.467 29.3942 153.969 31.0052 153.199 32.4697" stroke="black" stroke-width="2" stroke-linecap="round" stroke-linejoin="round"/>
<path d="M142.751 51.9353C142.868 49.1484 142.552 46.5338 141.881 43.8546C141.492 42.3083 141.172 37.9276 139.585 37.3117C138.382 36.8422 137.746 37.1179 136.618 37.7338C132.906 39.7626 131.323 45.1813 130.03 49.0235C128.637 53.1543 125.004 58.5859 120.982 60.115C118.819 60.9378 116.073 60.9248 113.784 60.9593C110.207 61.011 105.778 59.8652 105.013 65.0987C104.585 68.0407 106.233 72.4084 108.836 73.7393C111.241 74.967 115.099 75.2297 117.738 75.7509C123.538 76.8924 129.105 74.9799 133.586 70.8017C136.051 68.5015 139.429 66.0808 140.77 62.7512C142.111 59.4216 142.608 55.3941 142.751 51.9396V51.9353Z" fill="black" stroke="black" stroke-width="2" stroke-linecap="round" stroke-linejoin="round"/>
<path d="M156.633 86.1016C156.745 88.0313 156.486 89.6896 157.238 91.6193C158.307 94.3631 159.95 96.0086 163.259 96.3359" stroke="black" stroke-width="2" stroke-linecap="round" stroke-linejoin="round"/>
<path d="M163.93 87.1959C163.93 90.4954 164.35 94.0188 163.48 97.2322" stroke="black" stroke-width="2" stroke-linecap="round" stroke-linejoin="round"/>
<path d="M149.333 84.9819C149.333 87.5922 148.771 90.7581 148.771 93.3684C144.995 93.6354 146.526 87.338 146.526 84.9819" stroke="black" stroke-width="2" stroke-linecap="round" stroke-linejoin="round"/>
<path d="M142.256 85.0938C142.256 87.2259 141.859 92.2822 139.078 91.7524" stroke="black" stroke-width="2" stroke-linecap="round" stroke-linejoin="round"/>
<path d="M145.223 55.9576C147.091 60.1229 150.621 63.5947 152.07 67.8934" stroke="white" stroke-width="2" stroke-linecap="round" stroke-linejoin="round"/>
<path d="M154.938 65.761C156.006 66.9627 156.767 69.1078 156.862 70.6628" stroke="white" stroke-width="2" stroke-linecap="round" stroke-linejoin="round"/>
<path d="M154.882 122.96C155.016 126.738 153.546 129.749 152.348 133.255L154.882 122.96Z" fill="white"/>
<path d="M154.882 122.96C155.016 126.738 153.546 129.749 152.348 133.255" stroke="black" stroke-width="2" stroke-linecap="round" stroke-linejoin="round"/>
<path d="M234.577 171.073C234.072 171.474 234.608 174.234 234.577 174.98C234.531 176.013 235.439 176.707 236.234 177.077C239.662 178.671 243.378 178.913 247.022 179.123C260.675 179.91 274.452 180.501 287.857 177.602C288.925 177.37 290.195 176.882 290.412 175.581C290.717 173.792 290.866 169.726 289.39 169.402C282.189 167.834 272.841 170.322 265.558 170.363C259.214 170.399 252.85 170.394 246.527 170.949C242.976 171.263 237.607 168.667 234.572 171.073H234.577Z" fill="black" stroke="black" stroke-width="2" stroke-linecap="round" stroke-linejoin="round"/>
<path d="M235.648 169.382C235.142 169.783 234.611 170.322 234.58 171.068C234.533 172.101 235.442 172.795 236.237 173.165C239.664 174.759 243.381 175.001 247.025 175.211C260.678 175.998 274.454 176.589 287.859 173.69C288.928 173.458 290.198 172.97 290.414 171.669C290.719 169.88 288.825 168.801 287.348 168.477C280.148 166.909 272.839 166.41 265.561 166.451C259.217 166.487 252.852 166.482 246.529 167.037C242.978 167.351 238.678 166.976 235.643 169.376L235.648 169.382Z" fill="white" stroke="black" stroke-width="2" stroke-linecap="round" stroke-linejoin="round"/>
<path d="M291.938 137.272C291.778 133.55 291.107 129.735 292.129 126.152C292.759 123.936 294.013 121.937 294.679 119.731C295.706 116.318 295.273 112.611 296.129 109.151C297.224 104.715 300.341 100.988 301.487 96.5666C301.9 94.9729 300.274 94.5565 299.01 93.4975C297.745 92.4385 296.279 91.5594 295.376 90.1817C294.725 89.1895 294.049 87.7912 292.878 87.9762C292.052 88.1099 291.613 89.0044 291.324 89.7858C289.827 93.9242 289.429 98.3505 288.113 102.463C286.709 106.843 284.221 111.038 282.611 115.377C279.359 124.163 276.954 133.257 275.441 142.495C274.275 149.625 273.629 157.28 276.226 164.189C277.072 166.446 278.275 169.176 280.608 170.219C283.555 171.536 287.793 171.345 290.963 171.762C291.252 171.798 291.572 171.834 291.814 171.674C292.227 171.412 292.186 170.811 292.103 170.333C291.2 165.289 289.326 159.516 290.333 154.309C291.401 148.767 292.186 142.942 291.943 137.272H291.938Z" fill="white" stroke="black" stroke-width="2" stroke-linecap="round" stroke-linejoin="round"/>
<path d="M307.583 91.3692C307.382 92.7881 307.186 94.2121 306.984 95.631C306.922 96.0628 306.85 96.5255 306.54 96.8391C306.287 97.0961 305.921 97.1989 305.565 97.2555C303.923 97.5177 302.236 96.9265 300.862 95.9857C299.495 95.0449 298.39 93.7803 297.301 92.5259C294.782 89.6265 292.263 86.7271 289.744 83.8225C288.614 82.5218 287.473 81.2006 286.75 79.6378C285.971 77.9516 285.723 76.0752 285.382 74.2502C284.562 69.8805 283.132 65.6496 282.151 61.3158C281.17 56.9821 280.644 52.4376 281.64 48.1039C281.909 46.9318 282.569 47.014 283.483 46.2275C284.397 45.4409 285.109 44.7572 286.012 45.5489C288.805 47.9856 289.909 51.8361 290.229 55.517C290.549 59.1978 290.209 62.9301 290.74 66.5904C291.256 70.1375 292.604 73.5613 294.643 76.5173C295.628 77.9465 296.764 79.2574 297.745 80.6917C298.705 82.0951 299.495 83.5963 300.222 85.1282C301.007 86.7836 301.141 88.3361 303.113 88.6343C304.218 88.7988 305.348 88.5006 306.417 88.804C307.79 89.1947 309.157 90.5313 310.076 91.5646C307.898 91.9501 306.473 91.1173 304.419 91.0865" fill="white"/>
<path d="M307.583 91.3692C307.382 92.7881 307.186 94.2121 306.984 95.631C306.922 96.0628 306.85 96.5255 306.54 96.8391C306.287 97.0961 305.921 97.1989 305.565 97.2555C303.923 97.5177 302.236 96.9265 300.862 95.9857C299.495 95.0449 298.39 93.7803 297.301 92.5259C294.782 89.6265 292.263 86.7271 289.744 83.8225C288.614 82.5218 287.473 81.2006 286.75 79.6378C285.971 77.9516 285.723 76.0752 285.382 74.2502C284.562 69.8805 283.132 65.6496 282.151 61.3158C281.17 56.9821 280.644 52.4376 281.64 48.1039C281.909 46.9318 282.569 47.014 283.483 46.2275C284.397 45.4409 285.109 44.7572 286.012 45.5489C288.805 47.9856 289.909 51.8361 290.229 55.517C290.549 59.1978 290.209 62.9301 290.74 66.5904C291.256 70.1375 292.604 73.5613 294.643 76.5173C295.628 77.9465 296.764 79.2574 297.745 80.6917C298.705 82.0952 299.495 83.5963 300.222 85.1282C301.007 86.7836 301.141 88.3361 303.113 88.6343C304.218 88.7988 305.348 88.5006 306.417 88.804C307.79 89.1947 309.157 90.5313 310.076 91.5646C307.898 91.9501 306.473 91.1173 304.419 91.0865" stroke="black" stroke-width="2" stroke-linecap="round" stroke-linejoin="round"/>
<path d="M227.454 65.7523C227.413 68.7854 227.212 71.8134 226.855 74.8259C229.503 75.5354 232.57 73.9006 233.437 71.3096C233.958 73.0266 236.544 73.6178 237.809 72.3378C238.015 72.127 238.211 71.8699 238.5 71.8082C239.182 71.654 239.848 72.6719 240.441 72.3018C241.004 68.3176 241.463 64.318 241.819 60.3133C242.392 53.8616 242.676 47.1836 240.513 41.0763C239.92 39.4055 239.13 37.7656 237.881 36.5061C236.632 35.2466 234.872 34.3983 233.101 34.5782C227.769 35.1078 227.604 43.4154 227.366 47.2247C226.985 53.3989 227.542 59.5782 227.454 65.7575V65.7523Z" fill="white" stroke="black" stroke-width="2" stroke-linecap="round" stroke-linejoin="round"/>
<path d="M271.404 27.0264C271.59 29.2678 272.483 31.5504 274.264 32.9333L271.92 36.5576C274.801 38.2489 277.583 40.0945 280.256 42.0891C282.151 38.1923 283.963 34.2545 285.702 30.2857C286.141 29.2833 286.574 28.2705 286.776 27.2012C287.261 24.5691 286.265 21.8804 284.938 19.5568C283.772 17.521 282.135 15.4955 279.828 15.0071C278.125 14.6421 276.313 15.2128 274.914 16.2461C271.559 18.7188 271.074 23.0988 271.404 27.0264Z" fill="white" stroke="black" stroke-width="2" stroke-linecap="round" stroke-linejoin="round"/>
<path d="M273.719 32.4479C274.663 33.4503 276.124 33.5994 277.487 33.3887" stroke="black" stroke-width="2" stroke-linecap="round" stroke-linejoin="round"/>
<path d="M280.296 24.1298C279.8 23.8163 279.202 23.6672 278.618 23.7186C278.572 23.7186 278.861 23.9242 278.815 23.9345C278.66 24.0373 278.727 24.3252 278.907 24.3509C279.088 24.3766 279.233 24.1144 279.109 23.9756" stroke="black" stroke-width="2" stroke-linecap="round" stroke-linejoin="round"/>
<path d="M274.896 23.3331C274.354 23.0298 273.698 22.9372 273.094 23.0658C272.981 23.2251 272.986 23.6312 273.182 23.6518C273.378 23.6724 273.554 23.441 273.476 23.2611" stroke="black" stroke-width="2" stroke-linecap="round" stroke-linejoin="round"/>
<path d="M275.732 23.7086C275.68 24.3718 275.541 25.0298 275.308 25.6519C275.215 25.8986 275.112 26.1454 275.117 26.4076C275.123 26.6697 275.277 26.9525 275.535 27.0039C275.835 27.0656 276.674 26.9371 276.974 27.0039" stroke="black" stroke-width="2" stroke-linecap="round" stroke-linejoin="round"/>
<path d="M275.117 29.3612C275.535 29.2481 276 29.2995 276.387 29.4897" stroke="black" stroke-width="2" stroke-linecap="round" stroke-linejoin="round"/>
<path d="M258.266 47.2403C255.097 48.3764 251.762 49.055 248.402 49.2401C247.994 49.2606 247.561 49.276 247.199 49.0858C246.709 48.8339 246.456 48.2941 246.244 47.7903C245.382 45.77 245.398 43.0042 244.629 40.9427C247.437 39.8529 250.245 38.763 253.053 37.6732C259.711 40.732 274.515 41.7807 281.509 43.9501C286.057 45.3587 287.554 50.186 287.456 54.4889C287.399 57.0336 286.176 59.0437 285.68 61.5164C284.586 66.9606 284.761 72.343 284.87 77.8437C284.911 80.0491 285.293 82.234 285.634 84.4137C287.724 97.7799 288.349 111.809 283.688 124.517C281.447 130.63 279.925 136.974 278.82 143.379C278.252 146.664 277.798 149.97 277.401 153.281C277.086 155.907 275.852 159.671 277.752 161.922C278.433 162.729 279.326 163.331 280.203 163.922C283.765 166.313 287.327 168.703 290.888 171.094C289.262 172.425 286.883 171.911 284.792 171.659C282.913 171.433 281.117 171.572 279.279 171.171C277.241 170.723 275.424 170.256 273.292 170.394C271.888 170.487 270.432 170.744 269.116 170.256C265.921 169.068 267.614 166.359 268.528 164.364C269.539 162.148 269.968 159.737 270.102 157.321C270.36 152.648 269.508 147.836 269.524 143.261C269.544 136.722 270.241 130.075 272.765 124.034C273.55 122.163 274.515 120.307 274.649 118.287C274.778 116.364 274.138 114.488 273.56 112.647C272.456 109.105 271.573 105.491 270.917 101.836C267.568 108.247 264.935 115.033 263.082 122.024C261.513 127.962 260.48 134.121 257.714 139.611C256.005 143.004 253.667 146.078 252.289 149.615C250.911 153.152 250.627 156.077 250.302 159.851C249.976 163.624 249.285 167.598 246.792 170.461C246.384 170.929 245.831 171.397 245.217 171.315C244.675 171.243 244.293 170.77 243.963 170.338C242.151 167.937 240.246 165.254 240.453 162.256C240.546 160.868 241.098 159.552 241.681 158.288C242.667 156.149 243.767 154.062 244.975 152.036C245.579 151.024 246.213 150.016 246.59 148.901C246.91 147.944 247.029 146.937 247.143 145.939C248.356 135.401 249.605 124.631 254.209 115.069C256.681 109.938 254.281 105.198 254.281 99.5072C254.281 91.3025 257.848 83.5501 259.257 75.4687C259.835 72.1425 260.016 68.7804 260.145 65.4132C260.372 59.4446 259.133 53.1368 258.261 47.2454L258.266 47.2403Z" fill="white" stroke="black" stroke-width="2" stroke-linecap="round" stroke-linejoin="round"/>
<path d="M278.034 79.5864C277.285 83.6837 276.454 87.9609 273.848 91.215" stroke="black" stroke-width="2" stroke-linecap="round" stroke-linejoin="round"/>
<path d="M272.137 83.7043C271.357 84.4446 271.6 85.7195 271.904 86.7528C271.388 87.2001 270.665 87.3234 269.984 87.4108C269.303 87.4982 268.585 87.5856 268.028 87.9918C267.47 88.3979 267.176 89.241 267.599 89.7808C268.09 90.4079 269.298 90.4182 269.406 91.2048C269.442 91.4618 269.329 91.7086 269.225 91.9451C268.993 92.5003 268.818 93.1018 268.921 93.6929C269.024 94.2841 269.494 94.8445 270.093 94.8856C270.402 94.9062 270.733 94.8034 271.006 94.937C271.595 95.2301 271.275 96.0989 271.29 96.7569C271.311 97.7902 272.519 98.5408 273.525 98.2889C274.532 98.037 275.218 97.0139 275.311 95.9858C275.956 96.14 276.653 96.2942 277.278 96.0526C278.475 95.5899 278.702 94.022 278.738 92.7419C279.678 92.8858 280.514 91.981 280.653 91.0403C280.793 90.0995 280.421 89.169 280.065 88.2951C280.741 88.5264 281.474 87.8581 281.51 87.1487C281.546 86.4392 281.072 85.7915 280.509 85.3545C279.389 84.4908 277.933 83.3444 276.534 83.1696C275.44 83.0308 272.978 82.9023 272.131 83.7043H272.137Z" stroke="black" stroke-width="2" stroke-linecap="round" stroke-linejoin="round"/>
<path d="M230.794 29.2986C230.34 28.3887 229.958 27.4325 229.343 26.6202C228.745 25.8234 225.229 23.0987 224.45 24.9906C224.006 26.0753 224.847 27.633 224.667 28.7948C224.471 30.0492 221.972 32.0181 222.52 33.329C223.067 34.6399 226.112 34.4292 227.072 35.4059C229.978 38.3671 232.889 41.323 235.796 44.2842C237.819 46.3405 240.023 48.4997 242.867 49.0343C242.206 45.703 241.313 39.3078 238.702 37.051C237.261 35.8069 235.414 35.1283 234.004 33.7249C232.704 32.4345 231.609 30.9385 230.789 29.3037L230.794 29.2986Z" fill="white" stroke="black" stroke-width="2" stroke-linecap="round" stroke-linejoin="round"/>
<path d="M225.282 29.1033C225.498 28.692 225.395 28.1728 225.137 27.7821C224.879 27.3914 224.502 27.1086 224.125 26.8259C223.289 26.2039 219.666 22.7389 220.089 25.7155C220.244 26.8208 224.931 29.7665 225.282 29.0982V29.1033Z" fill="white" stroke="black" stroke-width="2" stroke-linecap="round" stroke-linejoin="round"/>
<path d="M220.093 26.5894C219.639 27.0058 219.582 27.7307 219.809 28.3013C220.037 28.872 220.496 29.3192 220.971 29.7099C221.843 30.4245 222.824 31.0157 223.867 31.4527C224.104 31.5503 224.357 31.6429 224.605 31.5966C225.167 31.4938 225.379 30.7329 225.131 30.224C224.883 29.7151 224.362 29.4015 223.867 29.1187" fill="white"/>
<path d="M220.093 26.5894C219.639 27.0058 219.582 27.7307 219.809 28.3013C220.037 28.872 220.496 29.3192 220.971 29.7099C221.843 30.4245 222.824 31.0157 223.867 31.4527C224.104 31.5503 224.357 31.6429 224.605 31.5966C225.167 31.4938 225.379 30.7329 225.131 30.224C224.883 29.7151 224.362 29.4015 223.867 29.1187" stroke="black" stroke-width="2" stroke-linecap="round" stroke-linejoin="round"/>
<path d="M222.521 33.329C223.239 33.5912 223.93 33.9253 224.565 34.3571C224.839 34.5422 225.112 34.7838 225.148 35.1077C225.19 35.4881 224.87 35.8326 224.508 35.9559C224.147 36.0793 223.75 36.0279 223.368 35.9765C221.835 35.776 220.059 34.9072 219.094 33.6374C218.903 33.3907 218.748 33.0308 218.939 32.784C219.114 32.5476 219.47 32.5733 219.765 32.6247C220.694 32.784 221.633 33.0051 222.526 33.3341L222.521 33.329Z" fill="white" stroke="black" stroke-width="2" stroke-linecap="round" stroke-linejoin="round"/>
<path d="M217.974 29.2935C217.406 30.4347 217.917 32.2597 219.105 32.8509C220.204 33.3959 222.171 33.4781 223.373 33.473C223.838 33.473 224.411 33.3547 224.535 32.9075C224.633 32.5579 224.38 32.2083 224.101 31.9718C223.642 31.5914 223.084 31.3601 222.532 31.1339C221.293 30.6249 220.049 30.116 218.754 29.7921" fill="white"/>
<path d="M217.974 29.2935C217.406 30.4347 217.917 32.2597 219.105 32.8509C220.204 33.3959 222.171 33.4781 223.373 33.473C223.838 33.473 224.411 33.3547 224.535 32.9075C224.633 32.5579 224.38 32.2083 224.101 31.9718C223.642 31.5914 223.084 31.3601 222.532 31.1339C221.293 30.6249 220.049 30.116 218.754 29.7921" stroke="black" stroke-width="2" stroke-linecap="round" stroke-linejoin="round"/>
<path d="M208.649 29.2373C208.593 30.0136 208.54 30.783 208.433 31.4814C211.482 30.6319 215.466 30.6225 218.651 30.7563C220.732 30.844 222.96 30.9571 225.054 31.112C225.054 32.5571 225.269 25.2758 225.337 24.9513C225.369 24.7958 225.394 24.6148 225.295 24.4847C225.188 24.3473 224.99 24.3357 224.819 24.3342C222.001 24.3331 219.187 24.2171 216.367 24.2505C214.963 24.2674 213.651 24.1323 212.248 24.2505C210.745 24.3744 209.046 24.4847 209.046 24.4847C209.046 24.4847 208.72 28.1831 208.642 29.2348L208.649 29.2373Z" fill="white" stroke="black" stroke-width="2" stroke-linecap="round" stroke-linejoin="round"/>
<path d="M231.936 31.2882L229.985 27.6537C229.613 26.9597 229.236 26.2656 228.715 25.6744C227.626 24.4458 226.026 23.8083 224.462 23.2942C223.445 22.9601 222.417 22.6516 221.385 22.3792C220.89 22.2455 220.219 22.1992 220.007 22.6619C219.78 23.1503 220.317 23.6335 220.776 23.9163C221.731 24.5023 223.801 25.7567 224.131 26.8311C225.484 31.1752 227.001 30.584 227.734 31.7766" fill="white"/>
<path d="M231.936 31.2883L229.985 27.6537C229.613 26.9597 229.236 26.2656 228.715 25.6744C227.626 24.4458 226.026 23.8083 224.462 23.2942C223.445 22.9601 222.417 22.6516 221.385 22.3792C220.89 22.2455 220.219 22.1992 220.007 22.6619C219.78 23.1503 220.317 23.6335 220.776 23.9163C221.731 24.5023 223.801 25.7567 224.131 26.8311C225.484 31.1752 227.001 30.584 227.734 31.7766" stroke="black" stroke-width="2" stroke-linecap="round" stroke-linejoin="round"/>
<path d="M279.904 41.7189C280.921 41.4207 281.964 41.1174 283.022 41.174C284.08 41.2305 285.179 41.7189 285.68 42.6494C285.912 43.0864 286 43.585 286.057 44.0785C286.103 44.4641 286.124 44.8856 285.923 45.2198C285.654 45.6671 285.086 45.811 284.601 46.0064C283.073 46.6335 281.912 48.1295 280.271 48.33C279.285 48.4534 278.314 48.073 277.395 47.6977C269.111 44.3459 260.831 40.9889 252.547 37.6371C255.345 36.3004 258.266 34.933 261.373 34.9535C262.726 34.9638 264.063 35.2363 265.389 35.5139C267.717 35.9971 270.045 36.4752 272.373 36.9585C273.328 37.1538 273.612 37.4623 274.402 38.038C276.188 39.3438 278.123 40.408 279.909 41.7137L279.904 41.7189Z" fill="white" stroke="black" stroke-width="2" stroke-linecap="round" stroke-linejoin="round"/>
<path d="M254.897 110.442C253.163 110.73 251.382 110.745 249.642 110.493C248.548 110.334 247.443 110.061 246.525 109.444C245.234 108.581 244.444 107.136 243.985 105.656C242.772 101.728 243.541 97.2606 241.652 93.6106C240.697 91.7651 239.092 90.2074 238.668 88.1716C238.472 87.2411 238.545 86.2798 238.632 85.3339C239.407 76.8001 241.27 68.3742 241.621 59.8199C241.972 51.2604 240.971 42.0428 235.984 35.0615C237.966 33.6067 240.95 34.4138 242.633 36.208C244.315 38.0021 244.986 40.4851 245.518 42.8808C246.05 45.2764 246.514 47.7646 247.913 49.7849C250.473 53.4966 254.794 57.5219 259.31 57.6813C260.146 59.9227 261.065 72.8005 258.438 81.3086C257.591 84.0487 256.404 86.6859 255.661 89.4568C253.88 96.1245 255.934 107.964 254.902 110.442H254.897Z" fill="white" stroke="black" stroke-width="2" stroke-linecap="round" stroke-linejoin="round"/>
<path d="M265.848 58.5861C269.389 59.1156 272.997 59.2338 276.563 58.9254" stroke="black" stroke-width="2" stroke-linecap="round" stroke-linejoin="round"/>
<path d="M280.172 60.118C278.949 65.1303 278.278 70.2814 278.164 75.4377" stroke="black" stroke-width="2" stroke-linecap="round" stroke-linejoin="round"/>
<path d="M274.488 66.7343C276.842 67.1558 279.242 67.3152 281.632 67.1969" stroke="black" stroke-width="2" stroke-linecap="round" stroke-linejoin="round"/>
<path d="M274.68 70.6105C276.491 71.2068 278.417 71.4484 280.321 71.3096" stroke="black" stroke-width="2" stroke-linecap="round" stroke-linejoin="round"/>
<path d="M270.547 53.9644C270.898 53.8205 271.197 53.5634 271.399 53.2447C271.037 53.2395 270.712 53.5994 270.764 53.9593" stroke="black" stroke-width="2" stroke-linecap="round" stroke-linejoin="round"/>
<path d="M285.449 54.8692C285.268 54.5196 285.836 54.1084 286.115 54.386C286.393 54.6636 285.981 55.2291 285.63 55.0491" stroke="black" stroke-width="2" stroke-linecap="round" stroke-linejoin="round"/>
<path d="M283.266 59.5833C283.875 59.7581 284.479 59.938 285.088 60.1128" stroke="black" stroke-width="2" stroke-linecap="round" stroke-linejoin="round"/>
<path d="M304.379 91.6108C303.729 92.2637 302.965 92.8035 302.129 93.2044" stroke="black" stroke-width="2" stroke-linecap="round" stroke-linejoin="round"/>
<path d="M278.606 14.9204C278.403 15.4307 277.537 15.3447 277.258 14.8713C276.98 14.3979 277.151 13.7892 277.423 13.3158C277.625 12.9654 277.878 12.4982 277.6 12.2031C277.492 12.0862 277.328 12.0371 277.17 12.0002C276.379 11.7911 275.423 11.6682 274.828 12.2154C274.531 12.492 274.252 12.947 273.854 12.8424C273.626 12.781 273.499 12.5596 273.341 12.3936C272.626 11.6313 271.285 12.0494 270.494 12.7441C270 13.1806 269.563 13.7523 269.525 14.3979C269.488 15.0434 269.981 15.7504 270.652 15.7627C271.202 15.7689 271.835 15.357 272.253 15.7074C272.569 15.9717 272.455 16.5066 272.152 16.7894C271.848 17.0722 271.43 17.1952 271.051 17.3735C270.62 17.5764 270.215 17.8899 270.019 18.3141C269.823 18.7383 269.886 19.2978 270.253 19.599C270.449 19.7589 270.715 19.8388 270.886 20.0355C271.405 20.638 270.538 21.6033 270.892 22.3103C271.196 21.4004 271.791 20.6872 272.772 20.5458C273.063 20.5028 273.367 20.5581 273.658 20.4843C273.961 20.4044 274.208 20.1892 274.442 19.9802C275.391 19.1318 276.429 18.0559 276.214 16.8202C276.537 16.771 278.498 15.2217 278.612 14.9266L278.606 14.9204Z" fill="white" stroke="black" stroke-width="2" stroke-linecap="round" stroke-linejoin="round"/>
<path d="M279.387 13.2607C278.713 13.8133 278.352 14.8049 278.835 15.5147C279.067 15.8561 279.468 16.1107 279.55 16.5063C279.62 16.8422 279.439 17.1673 279.341 17.4924C279.027 18.5057 279.498 19.6327 280.329 20.3479C281.16 21.0631 282.288 21.4099 283.409 21.5291C283.677 21.5562 283.967 21.5833 284.177 21.7404C284.863 22.2769 283.898 23.1871 283.584 23.9674C283.299 24.6718 283.694 25.555 284.438 25.8584C284.921 26.0535 285.636 26.1889 285.607 26.6766C285.572 27.2726 284.339 27.5219 284.607 28.0637C285.287 27.9716 285.967 27.8849 286.647 27.7928C287.356 28.7085 286.909 30.1931 285.793 30.632C285.293 30.8271 284.688 30.8542 284.322 31.2226C283.625 31.9324 284.438 33.054 284.351 34.0131C284.305 34.5387 283.973 34.9992 283.811 35.5031C283.648 36.0071 283.712 36.6681 284.212 36.9065C284.525 37.0582 284.915 36.9878 285.24 36.8577C286.973 36.175 287.833 34.0185 289.699 33.7855C290.036 33.7422 290.408 33.7638 290.675 33.5688C290.954 33.3737 291.03 33.0215 291.088 32.6964C291.239 31.8403 291.338 30.8271 290.658 30.2365C290.373 29.9872 289.995 29.8572 289.716 29.6025C288.937 28.8819 289.356 27.6627 289.78 26.7199C290.414 25.3166 290.931 23.5989 289.989 22.3581C289.35 21.5237 288.228 21.1607 287.35 20.5376C286.473 19.9144 285.868 18.6357 286.641 17.8988C287.118 17.4382 287.955 17.3949 288.362 16.8856C288.868 16.2462 288.28 13.667 288.17 12.8597C288.019 11.7598 287.938 10.7953 286.397 11.8735C286.072 12.1011 285.711 12.3341 285.304 12.3287C284.432 12.307 283.962 11.2071 283.09 11.1258C282.392 11.0608 279.968 12.7893 279.393 13.2607H279.387Z" fill="white" stroke="black" stroke-width="2" stroke-linecap="round" stroke-linejoin="round"/>
</svg>
