<svg width="141" height="142" viewBox="0 0 141 142" fill="none" xmlns="http://www.w3.org/2000/svg">
<path d="M64.7177 138.955L64.7166 138.946C61.5082 138.677 58.481 137.691 55.8017 136.109C53.1336 134.529 50.8168 132.344 49.0419 129.656L49.0408 129.654C47.6353 127.529 45.7939 125.793 43.6646 124.532C41.5335 123.27 39.1282 122.494 36.5939 122.274L36.5841 122.273L36.5743 122.273C36.2659 122.249 35.9618 122.233 35.6863 122.219L35.6815 122.219L35.6559 122.218L35.6303 122.217C35.4087 122.211 35.1512 122.213 34.9461 122.215C34.8637 122.216 34.7898 122.216 34.73 122.216H34.6982L34.6665 122.217C34.2558 122.23 33.8451 122.23 33.4344 122.217C33.0103 122.204 32.5997 122.184 32.1967 122.151C29.2495 121.902 26.4083 121.017 23.8586 119.605C21.3085 118.185 19.0481 116.234 17.2545 113.842C15.4689 111.46 14.2347 108.748 13.5978 105.899L13.5968 105.894C12.9531 103.044 12.9076 100.064 13.5047 97.1437L13.5058 97.1385C14.0759 94.3122 13.9152 91.4483 13.0693 88.7957C12.2256 86.1499 10.7108 83.711 8.59484 81.7335C6.24732 79.5302 4.48288 76.8781 3.37513 73.9809C2.26625 71.0807 1.80544 67.9281 2.07526 64.7166C2.34492 61.5071 3.3308 58.4735 4.91183 55.8035C6.49198 53.1349 8.67767 50.816 11.363 49.0322C13.7778 47.4328 15.6768 45.2899 16.9547 42.8243C18.2353 40.3534 18.8796 37.5539 18.7899 34.6748C18.698 31.6921 19.2434 28.7558 20.3532 26.0569C21.4636 23.3566 23.1385 20.8874 25.2982 18.8393L25.2983 18.8392C27.4654 16.7838 30.0207 15.2395 32.7749 14.2664C35.5287 13.3006 38.4763 12.9075 41.434 13.1567L41.4386 13.1571C41.8364 13.1897 42.2411 13.2354 42.6458 13.2941C43.0479 13.3525 43.458 13.4249 43.8813 13.5067C44.1846 13.5686 44.484 13.6157 44.7284 13.6542C44.7508 13.6577 44.7728 13.6612 44.7943 13.6646L44.8021 13.6658C45.1453 13.7186 45.4763 13.7521 45.779 13.776C48.3121 13.9871 50.814 13.6288 53.1251 12.7436C55.4348 11.8591 57.5394 10.4584 59.2808 8.59488C61.4841 6.24733 64.1363 4.48291 67.0336 3.37513C69.9337 2.26625 73.0864 1.80544 76.298 2.07526C79.5075 2.34492 82.5408 3.33079 85.2109 4.91183C87.8797 6.49213 90.1972 8.67695 91.9725 11.3662L91.9736 11.3678C93.3789 13.4922 95.2197 15.2273 97.3399 16.4879C99.4659 17.752 101.874 18.5285 104.412 18.7408L104.426 18.7418C104.73 18.7652 105.031 18.7807 105.303 18.7946L105.319 18.7954L105.344 18.7967L105.37 18.7974C105.591 18.803 105.849 18.801 106.054 18.7993C106.136 18.7986 106.21 18.798 106.27 18.798H106.302L106.334 18.797C106.744 18.784 107.155 18.784 107.566 18.797C107.99 18.8107 108.401 18.8308 108.804 18.8633C111.759 19.1127 114.595 19.9977 117.154 21.4124C119.704 22.8217 121.957 24.7777 123.753 27.1726C125.539 29.5554 126.773 32.2664 127.41 35.1158L127.411 35.1201C128.054 37.9706 128.1 40.9507 127.503 43.8708L127.502 43.876C126.932 46.7017 127.092 49.5649 127.938 52.217C128.782 54.8736 130.298 57.303 132.401 59.2842L132.404 59.2867C134.752 61.4902 136.517 64.1429 137.625 67.0408C138.734 69.9409 139.195 73.0936 138.925 76.3051C138.655 79.5135 137.67 82.5407 136.087 85.2199C134.507 87.8878 132.322 90.2058 129.631 91.9888L129.629 91.9902C127.227 93.5862 125.318 95.7201 124.037 98.1997C122.758 100.676 122.113 103.467 122.203 106.353C122.295 109.335 121.75 112.265 120.639 114.973C119.529 117.673 117.854 120.142 115.695 122.19L115.695 122.19C113.527 124.246 110.971 125.79 108.216 126.763C105.467 127.734 102.52 128.122 99.5589 127.872L99.5518 127.872C99.1506 127.839 98.754 127.794 98.3472 127.735C97.9448 127.676 97.5345 127.604 97.1114 127.522C96.8072 127.46 96.5071 127.413 96.2619 127.374L96.1987 127.364C95.8573 127.31 95.5222 127.277 95.2121 127.253C92.6795 127.042 90.1783 127.4 87.8677 128.285C85.5571 129.17 83.452 130.571 81.7103 132.436C79.5073 134.782 76.8559 136.546 73.9594 137.654C71.0661 138.76 67.9214 139.221 64.7177 138.955Z" fill="#DCF672" stroke="black" stroke-width="4"/>
<path fill-rule="evenodd" clip-rule="evenodd" d="M89.1225 15.6978C90.8207 18.2595 93.1234 20.2958 95.7714 21.663C98.4194 23.0302 101.406 23.7354 104.478 23.6346C110.199 23.4547 115.258 25.966 118.604 29.9309C121.943 33.8886 123.576 39.2998 122.432 44.9125C121.82 47.9276 122.007 50.993 122.914 53.8281C123.821 56.6632 125.432 59.2753 127.677 61.3836C131.851 65.3053 133.65 70.6589 133.211 75.8183C132.772 80.9849 130.102 85.9571 125.324 89.1233C122.763 90.8215 120.726 93.1241 119.359 95.7721C117.992 98.4202 117.287 101.406 117.388 104.479C117.567 110.2 115.056 115.258 111.091 118.604C107.134 121.943 101.722 123.577 96.1098 122.432C93.0947 121.821 90.0292 122.008 87.1941 122.915C84.359 123.821 81.7469 125.433 79.6386 127.678C75.7169 131.852 70.3632 133.651 65.2038 133.212C60.0373 132.773 55.065 130.103 51.8989 125.325C50.2007 122.763 47.898 120.727 45.25 119.36C42.6019 117.993 39.6158 117.287 36.5432 117.388C30.8226 117.568 25.7639 115.057 22.4178 111.092C19.079 107.134 17.4455 101.723 18.5896 96.1104C19.2013 93.0954 19.0143 90.03 18.1076 87.1948C17.2009 84.3597 15.5892 81.7477 13.3441 79.6393C9.17054 75.7176 7.37147 70.3639 7.81041 65.2046C8.24935 60.038 10.9191 55.0657 15.6971 51.9068C18.2588 50.2086 20.2951 47.906 21.6623 45.2579C23.0294 42.6099 23.7346 39.6237 23.6339 36.5511C23.454 30.8304 25.9653 25.7718 29.9302 22.4258C33.8878 19.0869 39.2991 17.4535 44.9118 18.5976C47.9268 19.2092 50.9923 19.0222 53.8275 18.1155C56.6626 17.2089 59.2746 15.597 61.383 13.3519C65.3047 9.17839 70.6582 7.37941 75.8176 7.81835C80.9841 8.25729 85.9564 10.927 89.1225 15.705V15.6978Z" fill="#DCF672"/>
<path fill-rule="evenodd" clip-rule="evenodd" d="M49.1285 61.8651C48.9846 61.1455 48.812 60.4404 48.6105 59.7424C48.409 59.0444 48.1715 58.3536 47.9053 57.6772C47.6391 57.0008 47.3439 56.3532 47.0129 55.7416C46.6819 55.1299 46.315 54.5543 45.9121 54.0074C45.5091 53.4605 45.0701 52.9711 44.588 52.525C44.1059 52.0789 43.5878 51.6832 43.0338 51.3306C42.4725 50.9852 41.8752 50.7045 41.2348 50.503C40.5944 50.3016 39.9179 50.1648 39.1912 50.1072C38.486 50.0497 37.8023 50.0712 37.1403 50.1792C36.4783 50.2871 35.8379 50.4814 35.2191 50.7549C34.6002 51.0283 34.0102 51.3593 33.449 51.7479C32.8877 52.1365 32.348 52.5754 31.8371 53.0719C31.3262 53.5684 30.8441 54.1009 30.3908 54.6765C29.9374 55.2522 29.5129 55.8639 29.1171 56.5115C28.7213 57.1591 28.3471 57.8283 28.0089 58.5047C27.6707 59.1811 27.3541 59.8719 27.0734 60.5771C26.7928 61.2823 26.5339 61.9802 26.3108 62.6782C26.0877 63.3762 25.8862 64.067 25.7135 64.7578C25.5408 65.4486 25.404 66.1106 25.2961 66.7294C25.1882 67.3555 25.109 67.9456 25.0658 68.4997C24.9866 69.4567 24.9724 70.4137 25.0227 71.3635C25.0731 72.3134 25.1954 73.2632 25.3753 74.2058C25.5624 75.1557 25.8141 76.0552 26.1451 76.9115C26.469 77.7678 26.8648 78.5881 27.3326 79.358C27.8003 80.128 28.34 80.8403 28.9516 81.4879C29.5632 82.1356 30.2539 82.7185 31.0095 83.2366C31.7722 83.7547 32.6069 84.1648 33.5208 84.4742C34.4347 84.7764 35.4278 84.978 36.4927 85.0643C37.6153 85.1579 38.6587 85.1291 39.623 84.9708C40.5872 84.8125 41.465 84.5318 42.2566 84.1216C43.0553 83.7115 43.7749 83.2293 44.4369 82.6609C45.0917 82.0924 45.6817 81.4448 46.1926 80.7252C46.7107 79.9985 47.164 79.2213 47.5597 78.401C47.9555 77.5735 48.2866 76.6956 48.5601 75.7674C48.8335 74.8391 49.0637 73.9036 49.2364 72.961C49.4091 72.0183 49.5459 71.0685 49.625 70.1115C49.6754 69.4999 49.7041 68.8666 49.7113 68.2046C49.7185 67.5426 49.7042 66.859 49.6682 66.1538C49.6323 65.4414 49.5675 64.7363 49.4739 64.0167C49.3804 63.3043 49.2653 62.5847 49.1285 61.8723V61.8651ZM41.2851 68.1183C41.2131 68.514 41.1124 68.8954 41.0045 69.2696C40.8966 69.6437 40.7598 70.0107 40.6087 70.3705C40.4576 70.7303 40.2849 71.0613 40.0834 71.3563C39.8819 71.6586 39.6589 71.932 39.4071 72.1767C39.1552 72.4213 38.8745 72.594 38.565 72.702C38.2484 72.8099 37.9103 72.8459 37.5289 72.8171C37.0971 72.7811 36.7087 72.6948 36.3633 72.5509C36.0179 72.407 35.7084 72.2126 35.4422 71.968C35.1759 71.7233 34.9457 71.4499 34.7442 71.1548C34.5427 70.8598 34.3701 70.536 34.2334 70.1906C34.0966 69.8452 33.9813 69.4855 33.895 69.1113C33.8086 68.7371 33.7439 68.3485 33.7079 67.9456C33.6719 67.5426 33.6505 67.154 33.6505 66.7799C33.6505 66.4057 33.6577 66.0459 33.6937 65.7005C33.7225 65.3839 33.7656 65.0241 33.8231 64.6211C33.8879 64.2182 33.9669 63.7792 34.0605 63.2971C34.1612 62.815 34.2764 62.3472 34.4203 61.8867C34.5642 61.4262 34.7298 60.98 34.9241 60.5411C35.1112 60.1022 35.3342 59.6992 35.5789 59.3251C35.8235 58.9509 36.0971 58.6198 36.3921 58.3104C36.6871 58.0082 37.018 57.7851 37.385 57.6556C37.752 57.5189 38.1477 57.4757 38.5794 57.5117C38.9536 57.5405 39.2919 57.6556 39.587 57.8499C39.882 58.0442 40.1339 58.3176 40.3498 58.6702C40.5656 59.0228 40.7454 59.4042 40.9037 59.8215C41.0548 60.2317 41.1843 60.6706 41.2779 61.1455C41.3714 61.6132 41.4434 62.081 41.501 62.5559C41.5585 63.0309 41.5874 63.4914 41.609 63.9663C41.6234 64.434 41.6304 64.8514 41.6304 65.2183C41.6304 65.5853 41.6162 65.902 41.5946 66.161C41.573 66.4273 41.5369 66.7223 41.4866 67.0461C41.4362 67.3771 41.3786 67.7369 41.2995 68.1255L41.2851 68.1183ZM86.6256 82.6321C86.6543 83.1646 86.6688 83.6971 86.6616 84.2296C86.6616 84.7621 86.6329 85.2873 86.5825 85.8198C86.5681 85.9565 86.5465 86.1076 86.5177 86.2659C86.4889 86.4243 86.4458 86.5898 86.3954 86.7697C86.3451 86.9496 86.2875 87.1151 86.2155 87.2734C86.1436 87.4317 86.0644 87.5828 85.978 87.7195C85.8917 87.8562 85.791 87.9858 85.6758 88.1009C85.5607 88.216 85.4312 88.3239 85.2945 88.4175C85.1505 88.511 84.9993 88.5758 84.8194 88.6118C84.6467 88.6477 84.4526 88.6622 84.2439 88.6406L80.3077 88.3095L76.3716 87.9785C76.1341 87.957 75.9256 87.885 75.7457 87.7555C75.5658 87.626 75.4074 87.4389 75.285 87.1942C75.1627 86.9568 75.0693 86.7121 75.0189 86.4747C74.9685 86.2372 74.9469 85.9997 74.9685 85.7623C75.0044 85.3593 75.0692 84.9635 75.17 84.5606C75.2707 84.1648 75.4075 83.769 75.573 83.3804C75.7385 82.9919 75.8967 82.5961 76.055 82.2075C76.2133 81.8118 76.3573 81.4232 76.5013 81.0274C76.6596 80.6244 76.8034 80.2215 76.9329 79.8186C77.0624 79.4228 77.1703 79.027 77.2711 78.6385C77.3646 78.2499 77.4582 77.8541 77.5374 77.4511C77.6166 77.0482 77.6958 76.6381 77.7677 76.2279C77.8397 75.8177 77.9043 75.3932 77.9618 74.9614C78.0194 74.5297 78.0699 74.0908 78.1131 73.6374C78.1563 73.1841 78.2066 72.7163 78.2498 72.227C78.2929 71.7377 78.3361 71.2268 78.3864 70.7015C78.4152 70.3417 78.4369 69.9964 78.4513 69.6726C78.4657 69.3488 78.4729 69.0465 78.4657 68.7587C78.4657 68.4709 78.4296 68.255 78.3648 68.1038C78.3001 67.9527 78.2066 67.8736 78.0843 67.8664C77.9835 67.8592 77.8899 67.888 77.7891 67.96C77.6884 68.0319 77.5877 68.147 77.4798 68.2981C77.379 68.4493 77.2784 68.6147 77.1848 68.8018C77.0913 68.9889 77.0048 69.1833 76.9257 69.4063C76.8465 69.6222 76.7673 69.838 76.6954 70.0539C76.6234 70.2697 76.5516 70.4784 76.4868 70.6943C76.4221 70.903 76.3573 71.0973 76.307 71.2628C76.2566 71.4283 76.2061 71.5722 76.1701 71.6945C76.0981 71.896 76.0191 72.1695 75.9328 72.5149C75.8464 72.8603 75.76 73.2704 75.6592 73.7525C75.5585 74.2346 75.465 74.7455 75.3571 75.278C75.2491 75.8177 75.1412 76.379 75.0333 76.9691C74.9182 77.5591 74.803 78.1635 74.6735 78.7751C74.5512 79.3868 74.4144 80.0057 74.2777 80.6389C74.141 81.2721 73.997 81.8766 73.8531 82.445C73.7092 83.0207 73.5581 83.5675 73.3998 84.0856C73.2415 84.6037 73.0831 85.0787 72.9176 85.496C72.7521 85.9206 72.5794 86.2947 72.4067 86.6185C72.234 86.9495 72.0541 87.187 71.867 87.3453C71.68 87.5036 71.4928 87.5684 71.2986 87.554L68.9887 87.3597L66.6789 87.1654C66.4559 87.1438 66.2687 87.079 66.1104 86.9567C65.9521 86.8344 65.8298 86.6617 65.7362 86.4386C65.6427 86.2156 65.5709 85.9709 65.5133 85.7047C65.4557 85.4384 65.4125 85.1506 65.3909 84.8412C65.3693 84.5318 65.355 84.2151 65.3478 83.8985C65.3406 83.5819 65.3406 83.2581 65.3478 82.9271C65.355 82.6033 65.355 82.3011 65.355 82.0204C65.355 81.747 65.355 81.4952 65.3406 81.2721C65.3406 81.2433 65.3406 81.1929 65.3406 81.121C65.3406 81.049 65.3262 80.9483 65.319 80.8332C65.3046 80.7109 65.2902 80.5885 65.2758 80.4518C65.2614 80.3151 65.2398 80.1784 65.2182 80.0273C65.1966 79.8762 65.1751 79.7322 65.1607 79.5811C65.1463 79.4299 65.1319 79.286 65.1247 79.1349C65.1175 78.9838 65.1103 78.8543 65.1103 78.7392C65.1103 78.6241 65.1103 78.5233 65.1175 78.4442C65.1031 78.329 65.0815 78.1636 65.0527 77.9477C65.0239 77.7318 65.0024 77.4584 64.9736 77.1346C64.9448 76.8108 64.9088 76.4581 64.8728 76.0839C64.8296 75.7097 64.7793 75.314 64.7289 74.8895C64.6713 74.4649 64.6138 74.0332 64.5562 73.587C64.4987 73.1409 64.4339 72.6947 64.3691 72.2342C64.3044 71.7737 64.2396 71.3348 64.1676 70.9102C64.0957 70.4857 64.0237 70.0827 63.9517 69.7013C63.8798 69.3199 63.8079 68.9673 63.736 68.6507C63.664 68.3341 63.5848 68.0463 63.5057 67.7945C63.4337 67.5426 63.3545 67.3555 63.2754 67.226C63.1962 67.0965 63.117 67.0317 63.0306 67.0245C63.0018 67.0245 62.9732 67.0533 62.9372 67.1108C62.9012 67.1684 62.8725 67.2619 62.8293 67.3843C62.7933 67.5066 62.75 67.6362 62.7141 67.7801C62.6781 67.924 62.6422 68.0751 62.6062 68.2406C62.5702 68.4061 62.5413 68.5644 62.5054 68.7227C62.4766 68.881 62.4479 69.0393 62.4191 69.1904C62.3903 69.3415 62.3687 69.4711 62.3543 69.5718C62.3399 69.6726 62.3255 69.7517 62.3255 69.8092C62.2607 70.6008 62.2104 71.3419 62.1888 72.0399C62.1672 72.7379 62.16 73.3856 62.1888 73.99C62.2104 74.5945 62.2463 75.2277 62.3111 75.8897C62.3758 76.5517 62.455 77.2424 62.563 77.9692C62.6421 78.5089 62.7356 79.0414 62.8435 79.5667C62.9515 80.092 63.0668 80.6101 63.1963 81.1282C63.3258 81.6391 63.4121 82.1572 63.4552 82.6825C63.4984 83.2006 63.4984 83.7258 63.4552 84.2583C63.4049 84.8124 63.2898 85.2657 63.1027 85.6111C62.9156 85.9565 62.6637 86.194 62.3327 86.3236C62.0089 86.4603 61.6491 86.5466 61.2677 86.5969C60.8791 86.6473 60.469 86.6473 60.0229 86.6113L57.965 86.4386L55.9069 86.2659C55.6191 86.2444 55.3313 86.2084 55.0578 86.1652C54.7844 86.122 54.5181 86.0789 54.2662 86.0213C54.0144 85.9637 53.7769 85.8917 53.5611 85.791C53.3452 85.6975 53.1437 85.5823 52.9566 85.4456C52.7695 85.3089 52.6112 85.1578 52.4745 84.9779C52.3378 84.798 52.2227 84.5965 52.1291 84.3735C52.0356 84.1504 51.9708 83.8842 51.942 83.5891C51.9132 83.2869 51.9132 82.9559 51.942 82.5817C51.9924 81.9989 52.05 81.4807 52.1147 81.0274C52.1795 80.5741 52.2587 80.1855 52.3378 79.8689C52.417 79.5451 52.5104 79.2429 52.6112 78.9479C52.7119 78.6529 52.8128 78.3794 52.9279 78.1132C53.0431 77.8469 53.1582 77.5807 53.2805 77.3001C53.4028 77.0194 53.5252 76.7387 53.6547 76.4509C53.7842 76.1631 53.9136 75.8177 54.0431 75.4148C54.1727 75.0118 54.3094 74.5584 54.4461 74.0404C54.5829 73.5295 54.7124 72.9394 54.8419 72.2702C54.9715 71.601 55.101 70.8599 55.2233 70.0396C55.3529 69.2192 55.468 68.2765 55.5903 67.2044C55.7055 66.1322 55.8206 64.9377 55.9357 63.6209L55.9645 63.2683L55.9933 62.9157L56.0364 62.4264L56.0796 61.9371C56.094 61.7356 56.1156 61.5125 56.13 61.2535C56.1444 61.0016 56.1659 60.721 56.1875 60.4116C56.209 60.1022 56.2307 59.764 56.2595 59.3826C56.2883 59.0012 56.3243 58.5839 56.3603 58.1233C56.3963 57.7348 56.4322 57.3534 56.4826 56.9864C56.533 56.6194 56.5833 56.2597 56.6481 55.9071C56.7128 55.5545 56.7991 55.2307 56.9142 54.9285C57.0294 54.6262 57.1661 54.3528 57.3244 54.1009C57.4827 53.8491 57.6771 53.626 57.8857 53.4389C58.1016 53.2446 58.3463 53.0863 58.6125 52.9567C58.8788 52.8272 59.1954 52.7337 59.5552 52.6905C59.915 52.6473 60.3107 52.6402 60.7568 52.6762L63.7574 52.928L66.7582 53.1798C67.0964 53.331 67.3842 53.5324 67.6288 53.7699C67.8735 54.0073 68.075 54.288 68.2333 54.6046C68.3916 54.9212 68.521 55.2594 68.6218 55.612C68.7297 55.9646 68.8089 56.3316 68.8665 56.713C68.924 57.0944 68.9672 57.4829 69.0032 57.8643C69.0391 58.2457 69.0464 58.6414 69.0536 59.03C69.0536 59.4186 69.0608 59.7928 69.0824 60.131C69.0968 60.4764 69.1255 60.793 69.1542 61.088C69.2046 61.5125 69.2479 61.9586 69.2839 62.4192C69.3271 62.8869 69.363 63.369 69.399 63.8727C69.4349 64.3764 69.4709 64.8658 69.5212 65.3407C69.5644 65.8156 69.6149 66.269 69.6653 66.7079C69.7228 67.1469 69.7804 67.5498 69.8452 67.9095C69.9099 68.2765 69.989 68.6075 70.0681 68.8954C70.1473 69.1904 70.2409 69.4135 70.3488 69.5646C70.4568 69.7157 70.5791 69.802 70.723 69.8092C70.8382 69.8164 70.9533 69.7733 71.0756 69.6798C71.1979 69.5862 71.3275 69.435 71.4642 69.2407C71.6009 69.0393 71.7375 68.8162 71.867 68.5644C72.0038 68.3125 72.1333 68.0247 72.2628 67.7152C72.3924 67.4058 72.5219 67.082 72.6514 66.7366C72.781 66.3912 72.9033 66.0387 73.0256 65.6645C73.148 65.2903 73.2631 64.9233 73.371 64.5635C73.479 64.2037 73.5796 63.8439 73.666 63.4985C73.7595 63.1531 73.846 62.8221 73.9179 62.5127C73.9899 62.2033 74.0618 61.9155 74.1194 61.6493C74.177 61.383 74.2201 61.1599 74.2561 60.9728C74.2921 60.7929 74.3137 60.649 74.3209 60.5555C74.3497 60.1957 74.3856 59.8215 74.4288 59.4329C74.4648 59.0515 74.5151 58.6487 74.5583 58.2457C74.6086 57.8355 74.6734 57.447 74.7598 57.08C74.8461 56.713 74.954 56.3603 75.0763 56.0293C75.2059 55.6983 75.3499 55.3961 75.5298 55.1299C75.7096 54.8636 75.8968 54.6262 76.1199 54.4175C76.3429 54.2088 76.6019 54.0649 76.8969 53.9786C77.1919 53.8922 77.5302 53.8634 77.9044 53.8994L81.1497 54.1729L84.395 54.4463C84.7404 54.4751 85.0498 54.5686 85.3161 54.727C85.5823 54.8853 85.8053 55.1083 85.9924 55.3961C86.1795 55.6839 86.3091 55.979 86.3882 56.2741C86.4674 56.5691 86.4961 56.8713 86.4673 57.1735C86.4097 57.6844 86.3522 58.1953 86.3018 58.699C86.2514 59.2027 86.2083 59.7064 86.1651 60.2101L86.0356 61.7284L85.906 63.2467C85.834 64.0814 85.7765 64.9161 85.7189 65.7436C85.6613 66.5711 85.6182 67.413 85.5822 68.2477C85.5462 69.0824 85.5318 69.91 85.5462 70.7303C85.5534 71.5506 85.5895 72.3566 85.647 73.1625C85.6902 73.6662 85.7333 74.1843 85.7909 74.6952C85.8485 75.2133 85.9061 75.7314 85.978 76.2495C86.0428 76.7748 86.1076 77.3 86.1723 77.8253C86.2371 78.3578 86.2946 78.8903 86.3522 79.4228C86.4098 79.9553 86.4673 80.4949 86.5105 81.0274C86.5537 81.5599 86.5968 82.0997 86.6256 82.6321V82.6321ZM115.322 80.2C115.272 81.121 115.178 81.9845 115.042 82.8048C114.905 83.6251 114.732 84.3879 114.509 85.1002C114.286 85.8126 114.013 86.4674 113.689 87.0647C113.365 87.6619 112.991 88.1944 112.566 88.6693C112.142 89.1442 111.66 89.5544 111.113 89.8998C110.566 90.2452 109.961 90.5258 109.292 90.7417C108.623 90.9576 107.882 91.1015 107.069 91.1663C106.256 91.2311 105.37 91.2238 104.413 91.1447C103.111 91.0368 101.909 90.8353 100.808 90.5475C99.7074 90.2596 98.7073 89.8782 97.8078 89.4105C96.9083 88.9428 96.1025 88.4031 95.3829 87.7914C94.6633 87.1798 94.03 86.5034 93.4831 85.7479C92.9363 84.9923 92.483 84.1792 92.1088 83.3013C91.7346 82.4234 91.4468 81.4807 91.2454 80.4805C91.0439 79.4803 90.9143 78.4297 90.864 77.3432C90.8136 76.2494 90.8351 75.1197 90.9358 73.9396C91.0294 72.8458 91.195 71.7449 91.4325 70.6512C91.6699 69.5574 91.9864 68.4636 92.3678 67.3699C92.7563 66.2761 93.217 65.2472 93.7495 64.2757C94.282 63.3043 94.8864 62.4048 95.57 61.5557C96.2464 60.7138 97.0019 59.9582 97.815 59.289C98.6353 58.627 99.5204 58.0513 100.477 57.562C101.434 57.0799 102.463 56.7418 103.564 56.5475C104.665 56.3604 105.846 56.3172 107.09 56.4251C107.673 56.4755 108.242 56.5619 108.789 56.6914C109.335 56.8209 109.868 56.9936 110.379 57.2022C110.89 57.4109 111.372 57.6628 111.818 57.9506C112.264 58.2385 112.674 58.5623 113.048 58.922C113.423 59.2818 113.754 59.6776 114.041 60.1022C114.329 60.5267 114.574 60.9873 114.775 61.4838C114.977 61.9731 115.121 62.4983 115.193 63.0524C115.272 63.6065 115.279 64.1822 115.229 64.7938C115.2 65.1392 115.15 65.4774 115.078 65.8084C115.006 66.1394 114.912 66.456 114.79 66.7726C114.675 67.0821 114.538 67.3771 114.38 67.6505C114.221 67.924 114.049 68.1758 113.854 68.4133C113.66 68.6508 113.444 68.8522 113.2 69.0321C112.955 69.212 112.689 69.3631 112.401 69.4855C112.113 69.6078 111.796 69.6941 111.465 69.7373C111.134 69.7805 110.782 69.7877 110.408 69.7589C110.228 69.7445 110.041 69.7229 109.839 69.7085C109.645 69.6869 109.436 69.6653 109.22 69.6438C109.004 69.615 108.796 69.579 108.601 69.5286C108.407 69.4782 108.213 69.4134 108.033 69.3343C107.853 69.2551 107.688 69.1617 107.536 69.0537C107.385 68.9458 107.256 68.8235 107.141 68.6867C107.026 68.55 106.947 68.3917 106.896 68.2046C106.846 68.0175 106.839 67.8088 106.853 67.5714L107.429 66.233L108.004 64.8946C108.026 64.5995 108.004 64.3476 107.939 64.1318C107.875 63.9159 107.767 63.7432 107.609 63.5993C107.45 63.4626 107.263 63.3475 107.04 63.2683C106.817 63.1892 106.558 63.1316 106.27 63.11C105.759 63.0669 105.277 63.11 104.831 63.2323C104.385 63.3618 103.975 63.5705 103.6 63.8655C103.226 64.1606 102.888 64.4988 102.579 64.873C102.276 65.2471 102.003 65.6645 101.773 66.1178C101.535 66.5711 101.334 67.0389 101.154 67.521C100.974 68.0032 100.823 68.4924 100.693 69.0033C100.564 69.507 100.463 69.9819 100.384 70.4281C100.305 70.867 100.247 71.2772 100.218 71.6514C100.182 72.0544 100.168 72.486 100.175 72.9394C100.175 73.3927 100.204 73.8748 100.24 74.3785C100.283 74.8822 100.348 75.3788 100.449 75.8609C100.549 76.343 100.672 76.8107 100.83 77.264C100.988 77.7174 101.183 78.1419 101.427 78.5233C101.665 78.9119 101.945 79.2644 102.269 79.5883C102.593 79.9121 102.96 80.164 103.377 80.3438C103.795 80.5237 104.262 80.6389 104.773 80.682C104.924 80.6964 105.083 80.6964 105.241 80.6892C105.399 80.682 105.558 80.6605 105.723 80.6389C105.889 80.6101 106.047 80.5669 106.198 80.5165C106.349 80.4662 106.508 80.3942 106.651 80.3222C106.795 80.2431 106.932 80.1567 107.054 80.0488C107.177 79.9481 107.292 79.8329 107.393 79.7106C107.493 79.5883 107.573 79.4516 107.63 79.3077C107.688 79.1638 107.724 79.0055 107.738 78.84C107.752 78.6457 107.76 78.473 107.76 78.3147C107.76 78.1564 107.752 78.0196 107.731 77.8973C107.709 77.7749 107.673 77.667 107.609 77.5735C107.544 77.48 107.465 77.3936 107.357 77.3217C107.249 77.2497 107.112 77.1849 106.946 77.1274C106.774 77.0698 106.572 77.0122 106.342 76.9619C106.112 76.9115 105.831 76.8683 105.514 76.8323C105.198 76.7891 104.838 76.7531 104.435 76.7172C104.32 76.71 104.219 76.6524 104.126 76.5517C104.032 76.4509 103.939 76.307 103.859 76.1199C103.78 75.9328 103.715 75.7602 103.679 75.6163C103.644 75.4652 103.629 75.3356 103.636 75.2277C103.665 74.9111 103.716 74.6088 103.802 74.3354C103.888 74.062 103.996 73.8029 104.133 73.5726C104.27 73.3423 104.428 73.1265 104.608 72.9394C104.788 72.7523 104.982 72.5796 105.198 72.4285C105.414 72.2774 105.644 72.1479 105.889 72.0471C106.133 71.9392 106.392 71.86 106.659 71.7953C106.932 71.7377 107.205 71.6945 107.486 71.6801C107.767 71.6585 108.055 71.6657 108.35 71.6873C108.99 71.7449 109.58 71.8097 110.127 71.8888C110.674 71.968 111.178 72.0615 111.638 72.1767C112.099 72.2918 112.516 72.4429 112.89 72.6444C113.264 72.8459 113.595 73.0977 113.883 73.3927C114.171 73.6877 114.416 74.0475 114.624 74.4649C114.826 74.8822 114.984 75.3572 115.099 75.8897C115.214 76.4222 115.294 77.0482 115.322 77.7678C115.358 78.4874 115.351 79.3005 115.301 80.2072L115.322 80.2Z" fill="#FFE100"/>
<path fill-rule="evenodd" clip-rule="evenodd" d="M49.1285 61.8651C48.9846 61.1455 48.812 60.4404 48.6105 59.7424C48.409 59.0444 48.1715 58.3536 47.9053 57.6772C47.6391 57.0008 47.3439 56.3532 47.0129 55.7416C46.6819 55.1299 46.315 54.5543 45.9121 54.0074C45.5091 53.4605 45.0701 52.9711 44.588 52.525C44.1059 52.0789 43.5878 51.6832 43.0338 51.3306C42.4725 50.9852 41.8752 50.7045 41.2348 50.503C40.5944 50.3016 39.9179 50.1648 39.1912 50.1072C38.486 50.0497 37.8023 50.0712 37.1403 50.1792C36.4783 50.2871 35.8379 50.4814 35.2191 50.7549C34.6002 51.0283 34.0102 51.3593 33.449 51.7479C32.8877 52.1365 32.348 52.5754 31.8371 53.0719C31.3262 53.5684 30.8441 54.1009 30.3908 54.6765C29.9374 55.2522 29.5129 55.8639 29.1171 56.5115C28.7213 57.1591 28.3471 57.8283 28.0089 58.5047C27.6707 59.1811 27.3541 59.8719 27.0734 60.5771C26.7928 61.2823 26.5339 61.9802 26.3108 62.6782C26.0877 63.3762 25.8862 64.067 25.7135 64.7578C25.5408 65.4486 25.404 66.1106 25.2961 66.7294C25.1882 67.3555 25.109 67.9456 25.0658 68.4997C24.9866 69.4567 24.9724 70.4137 25.0227 71.3635C25.0731 72.3134 25.1954 73.2632 25.3753 74.2058C25.5624 75.1557 25.8141 76.0552 26.1451 76.9115C26.469 77.7678 26.8648 78.5881 27.3326 79.358C27.8003 80.128 28.34 80.8403 28.9516 81.4879C29.5632 82.1356 30.2539 82.7185 31.0095 83.2366C31.7722 83.7547 32.6069 84.1648 33.5208 84.4742C34.4347 84.7764 35.4278 84.978 36.4927 85.0643C37.6153 85.1579 38.6587 85.1291 39.623 84.9708C40.5872 84.8125 41.465 84.5318 42.2566 84.1216C43.0553 83.7115 43.7749 83.2293 44.4369 82.6609C45.0917 82.0924 45.6817 81.4448 46.1926 80.7252C46.7107 79.9985 47.164 79.2213 47.5597 78.401C47.9555 77.5735 48.2866 76.6956 48.5601 75.7674C48.8335 74.8391 49.0637 73.9036 49.2364 72.961C49.4091 72.0183 49.5459 71.0685 49.625 70.1115C49.6754 69.4999 49.7041 68.8666 49.7113 68.2046C49.7185 67.5426 49.7042 66.859 49.6682 66.1538C49.6323 65.4414 49.5675 64.7363 49.4739 64.0167C49.3804 63.3043 49.2653 62.5847 49.1285 61.8723V61.8651ZM41.2851 68.1183C41.2131 68.514 41.1124 68.8954 41.0045 69.2696C40.8966 69.6437 40.7598 70.0107 40.6087 70.3705C40.4576 70.7303 40.2849 71.0613 40.0834 71.3563C39.8819 71.6586 39.6589 71.932 39.4071 72.1767C39.1552 72.4213 38.8745 72.594 38.565 72.702C38.2484 72.8099 37.9103 72.8459 37.5289 72.8171C37.0971 72.7811 36.7087 72.6948 36.3633 72.5509C36.0179 72.407 35.7084 72.2126 35.4422 71.968C35.1759 71.7233 34.9457 71.4499 34.7442 71.1548C34.5427 70.8598 34.3701 70.536 34.2334 70.1906C34.0966 69.8452 33.9813 69.4855 33.895 69.1113C33.8086 68.7371 33.7439 68.3485 33.7079 67.9456C33.6719 67.5426 33.6505 67.154 33.6505 66.7799C33.6505 66.4057 33.6577 66.0459 33.6937 65.7005C33.7225 65.3839 33.7656 65.0241 33.8231 64.6211C33.8879 64.2182 33.9669 63.7792 34.0605 63.2971C34.1612 62.815 34.2764 62.3472 34.4203 61.8867C34.5642 61.4262 34.7298 60.98 34.9241 60.5411C35.1112 60.1022 35.3342 59.6992 35.5789 59.3251C35.8235 58.9509 36.0971 58.6198 36.3921 58.3104C36.6871 58.0082 37.018 57.7851 37.385 57.6556C37.752 57.5189 38.1477 57.4757 38.5794 57.5117C38.9536 57.5405 39.2919 57.6556 39.587 57.8499C39.882 58.0442 40.1339 58.3176 40.3498 58.6702C40.5656 59.0228 40.7454 59.4042 40.9037 59.8215C41.0548 60.2317 41.1843 60.6706 41.2779 61.1455C41.3714 61.6132 41.4434 62.081 41.501 62.5559C41.5585 63.0309 41.5874 63.4914 41.609 63.9663C41.6234 64.434 41.6304 64.8514 41.6304 65.2183C41.6304 65.5853 41.6162 65.902 41.5946 66.161C41.573 66.4273 41.5369 66.7223 41.4866 67.0461C41.4362 67.3771 41.3786 67.7369 41.2995 68.1255L41.2851 68.1183ZM86.6256 82.6321C86.6543 83.1646 86.6688 83.6971 86.6616 84.2296C86.6616 84.7621 86.6329 85.2873 86.5825 85.8198C86.5681 85.9565 86.5465 86.1076 86.5177 86.2659C86.4889 86.4243 86.4458 86.5898 86.3954 86.7697C86.3451 86.9496 86.2875 87.1151 86.2155 87.2734C86.1436 87.4317 86.0644 87.5828 85.978 87.7195C85.8917 87.8562 85.791 87.9858 85.6758 88.1009C85.5607 88.216 85.4312 88.3239 85.2945 88.4175C85.1505 88.511 84.9993 88.5758 84.8194 88.6118C84.6467 88.6477 84.4526 88.6622 84.2439 88.6406L80.3077 88.3095L76.3716 87.9785C76.1341 87.957 75.9256 87.885 75.7457 87.7555C75.5658 87.626 75.4074 87.4389 75.285 87.1942C75.1627 86.9568 75.0693 86.7121 75.0189 86.4747C74.9685 86.2372 74.9469 85.9997 74.9685 85.7623C75.0044 85.3593 75.0692 84.9635 75.17 84.5606C75.2707 84.1648 75.4075 83.769 75.573 83.3804C75.7385 82.9919 75.8967 82.5961 76.055 82.2075C76.2133 81.8118 76.3573 81.4232 76.5013 81.0274C76.6596 80.6244 76.8034 80.2215 76.9329 79.8186C77.0624 79.4228 77.1703 79.027 77.2711 78.6385C77.3646 78.2499 77.4582 77.8541 77.5374 77.4511C77.6166 77.0482 77.6958 76.6381 77.7677 76.2279C77.8397 75.8177 77.9043 75.3932 77.9618 74.9614C78.0194 74.5297 78.0699 74.0908 78.1131 73.6374C78.1563 73.1841 78.2066 72.7163 78.2498 72.227C78.2929 71.7377 78.3361 71.2268 78.3864 70.7015C78.4152 70.3417 78.4369 69.9964 78.4513 69.6726C78.4657 69.3488 78.4729 69.0465 78.4657 68.7587C78.4657 68.4709 78.4296 68.255 78.3648 68.1038C78.3001 67.9527 78.2066 67.8736 78.0843 67.8664C77.9835 67.8592 77.8899 67.888 77.7891 67.96C77.6884 68.0319 77.5877 68.147 77.4798 68.2981C77.379 68.4493 77.2784 68.6147 77.1848 68.8018C77.0913 68.9889 77.0048 69.1833 76.9257 69.4063C76.8465 69.6222 76.7673 69.838 76.6954 70.0539C76.6234 70.2697 76.5516 70.4784 76.4868 70.6943C76.4221 70.903 76.3573 71.0973 76.307 71.2628C76.2566 71.4283 76.2061 71.5722 76.1701 71.6945C76.0981 71.896 76.0191 72.1695 75.9328 72.5149C75.8464 72.8603 75.76 73.2704 75.6592 73.7525C75.5585 74.2346 75.465 74.7455 75.3571 75.278C75.2491 75.8177 75.1412 76.379 75.0333 76.9691C74.9182 77.5591 74.803 78.1635 74.6735 78.7751C74.5512 79.3868 74.4144 80.0057 74.2777 80.6389C74.141 81.2721 73.997 81.8766 73.8531 82.445C73.7092 83.0207 73.5581 83.5675 73.3998 84.0856C73.2415 84.6037 73.0831 85.0787 72.9176 85.496C72.7521 85.9206 72.5794 86.2947 72.4067 86.6185C72.234 86.9495 72.0541 87.187 71.867 87.3453C71.68 87.5036 71.4928 87.5684 71.2986 87.554L68.9887 87.3597L66.6789 87.1654C66.4559 87.1438 66.2687 87.079 66.1104 86.9567C65.9521 86.8344 65.8298 86.6617 65.7362 86.4386C65.6427 86.2156 65.5709 85.9709 65.5133 85.7047C65.4557 85.4384 65.4125 85.1506 65.3909 84.8412C65.3693 84.5318 65.355 84.2151 65.3478 83.8985C65.3406 83.5819 65.3406 83.2581 65.3478 82.9271C65.355 82.6033 65.355 82.3011 65.355 82.0204C65.355 81.747 65.355 81.4952 65.3406 81.2721C65.3406 81.2433 65.3406 81.1929 65.3406 81.121C65.3406 81.049 65.3262 80.9483 65.319 80.8332C65.3046 80.7109 65.2902 80.5885 65.2758 80.4518C65.2614 80.3151 65.2398 80.1784 65.2182 80.0273C65.1966 79.8762 65.1751 79.7322 65.1607 79.5811C65.1463 79.4299 65.1319 79.286 65.1247 79.1349C65.1175 78.9838 65.1103 78.8543 65.1103 78.7392C65.1103 78.6241 65.1103 78.5233 65.1175 78.4442C65.1031 78.329 65.0815 78.1636 65.0527 77.9477C65.0239 77.7318 65.0024 77.4584 64.9736 77.1346C64.9448 76.8108 64.9088 76.4581 64.8728 76.0839C64.8296 75.7097 64.7793 75.314 64.7289 74.8895C64.6713 74.4649 64.6138 74.0332 64.5562 73.587C64.4987 73.1409 64.4339 72.6947 64.3691 72.2342C64.3044 71.7737 64.2396 71.3348 64.1676 70.9102C64.0957 70.4857 64.0237 70.0827 63.9517 69.7013C63.8798 69.3199 63.8079 68.9673 63.736 68.6507C63.664 68.3341 63.5848 68.0463 63.5057 67.7945C63.4337 67.5426 63.3545 67.3555 63.2754 67.226C63.1962 67.0965 63.117 67.0317 63.0306 67.0245C63.0018 67.0245 62.9732 67.0533 62.9372 67.1108C62.9012 67.1684 62.8725 67.2619 62.8293 67.3843C62.7933 67.5066 62.75 67.6362 62.7141 67.7801C62.6781 67.924 62.6422 68.0751 62.6062 68.2406C62.5702 68.4061 62.5413 68.5644 62.5054 68.7227C62.4766 68.881 62.4479 69.0393 62.4191 69.1904C62.3903 69.3415 62.3687 69.4711 62.3543 69.5718C62.3399 69.6726 62.3255 69.7517 62.3255 69.8092C62.2607 70.6008 62.2104 71.3419 62.1888 72.0399C62.1672 72.7379 62.16 73.3856 62.1888 73.99C62.2104 74.5945 62.2463 75.2277 62.3111 75.8897C62.3758 76.5517 62.455 77.2424 62.563 77.9692C62.6421 78.5089 62.7356 79.0414 62.8435 79.5667C62.9515 80.092 63.0668 80.6101 63.1963 81.1282C63.3258 81.6391 63.4121 82.1572 63.4552 82.6825C63.4984 83.2006 63.4984 83.7258 63.4552 84.2583C63.4049 84.8124 63.2898 85.2657 63.1027 85.6111C62.9156 85.9565 62.6637 86.194 62.3327 86.3236C62.0089 86.4603 61.6491 86.5466 61.2677 86.5969C60.8791 86.6473 60.469 86.6473 60.0229 86.6113L57.965 86.4386L55.9069 86.2659C55.6191 86.2444 55.3313 86.2084 55.0578 86.1652C54.7844 86.122 54.5181 86.0789 54.2662 86.0213C54.0144 85.9637 53.7769 85.8917 53.5611 85.791C53.3452 85.6975 53.1437 85.5823 52.9566 85.4456C52.7695 85.3089 52.6112 85.1578 52.4745 84.9779C52.3378 84.798 52.2227 84.5965 52.1291 84.3735C52.0356 84.1504 51.9708 83.8842 51.942 83.5891C51.9132 83.2869 51.9132 82.9559 51.942 82.5817C51.9924 81.9989 52.05 81.4807 52.1147 81.0274C52.1795 80.5741 52.2587 80.1855 52.3378 79.8689C52.417 79.5451 52.5104 79.2429 52.6112 78.9479C52.7119 78.6529 52.8128 78.3794 52.9279 78.1132C53.0431 77.8469 53.1582 77.5807 53.2805 77.3001C53.4028 77.0194 53.5252 76.7387 53.6547 76.4509C53.7842 76.1631 53.9136 75.8177 54.0431 75.4148C54.1727 75.0118 54.3094 74.5584 54.4461 74.0404C54.5829 73.5295 54.7124 72.9394 54.8419 72.2702C54.9715 71.601 55.101 70.8599 55.2233 70.0396C55.3529 69.2192 55.468 68.2765 55.5903 67.2044C55.7055 66.1322 55.8206 64.9377 55.9357 63.6209L55.9645 63.2683L55.9933 62.9157L56.0364 62.4264L56.0796 61.9371C56.094 61.7356 56.1156 61.5125 56.13 61.2535C56.1444 61.0016 56.1659 60.721 56.1875 60.4116C56.209 60.1022 56.2307 59.764 56.2595 59.3826C56.2883 59.0012 56.3243 58.5839 56.3603 58.1233C56.3963 57.7348 56.4322 57.3534 56.4826 56.9864C56.533 56.6194 56.5833 56.2597 56.6481 55.9071C56.7128 55.5545 56.7991 55.2307 56.9142 54.9285C57.0294 54.6262 57.1661 54.3528 57.3244 54.1009C57.4827 53.8491 57.6771 53.626 57.8857 53.4389C58.1016 53.2446 58.3463 53.0863 58.6125 52.9567C58.8788 52.8272 59.1954 52.7337 59.5552 52.6905C59.915 52.6473 60.3107 52.6402 60.7568 52.6762L63.7574 52.928L66.7582 53.1798C67.0964 53.331 67.3842 53.5324 67.6288 53.7699C67.8735 54.0073 68.075 54.288 68.2333 54.6046C68.3916 54.9212 68.521 55.2594 68.6218 55.612C68.7297 55.9646 68.8089 56.3316 68.8665 56.713C68.924 57.0944 68.9672 57.4829 69.0032 57.8643C69.0391 58.2457 69.0464 58.6414 69.0536 59.03C69.0536 59.4186 69.0608 59.7928 69.0824 60.131C69.0968 60.4764 69.1255 60.793 69.1542 61.088C69.2046 61.5125 69.2479 61.9586 69.2839 62.4192C69.3271 62.8869 69.363 63.369 69.399 63.8727C69.4349 64.3764 69.4709 64.8658 69.5212 65.3407C69.5644 65.8156 69.6149 66.269 69.6653 66.7079C69.7228 67.1469 69.7804 67.5498 69.8452 67.9095C69.9099 68.2765 69.989 68.6075 70.0681 68.8954C70.1473 69.1904 70.2409 69.4135 70.3488 69.5646C70.4568 69.7157 70.5791 69.802 70.723 69.8092C70.8382 69.8164 70.9533 69.7733 71.0756 69.6798C71.1979 69.5862 71.3275 69.435 71.4642 69.2407C71.6009 69.0393 71.7375 68.8162 71.867 68.5644C72.0038 68.3125 72.1333 68.0247 72.2628 67.7152C72.3924 67.4058 72.5219 67.082 72.6514 66.7366C72.781 66.3912 72.9033 66.0387 73.0256 65.6645C73.148 65.2903 73.2631 64.9233 73.371 64.5635C73.479 64.2037 73.5796 63.8439 73.666 63.4985C73.7595 63.1531 73.846 62.8221 73.9179 62.5127C73.9899 62.2033 74.0618 61.9155 74.1194 61.6493C74.177 61.383 74.2201 61.1599 74.2561 60.9728C74.2921 60.7929 74.3137 60.649 74.3209 60.5555C74.3497 60.1957 74.3856 59.8215 74.4288 59.4329C74.4648 59.0515 74.5151 58.6487 74.5583 58.2457C74.6086 57.8355 74.6734 57.447 74.7598 57.08C74.8461 56.713 74.954 56.3603 75.0763 56.0293C75.2059 55.6983 75.3499 55.3961 75.5298 55.1299C75.7096 54.8636 75.8968 54.6262 76.1199 54.4175C76.3429 54.2088 76.6019 54.0649 76.8969 53.9786C77.1919 53.8922 77.5302 53.8634 77.9044 53.8994L81.1497 54.1729L84.395 54.4463C84.7404 54.4751 85.0498 54.5686 85.3161 54.727C85.5823 54.8853 85.8053 55.1083 85.9924 55.3961C86.1795 55.6839 86.3091 55.979 86.3882 56.2741C86.4674 56.5691 86.4961 56.8713 86.4673 57.1735C86.4097 57.6844 86.3522 58.1953 86.3018 58.699C86.2514 59.2027 86.2083 59.7064 86.1651 60.2101L86.0356 61.7284L85.906 63.2467C85.834 64.0814 85.7765 64.9161 85.7189 65.7436C85.6613 66.5711 85.6182 67.413 85.5822 68.2477C85.5462 69.0824 85.5318 69.91 85.5462 70.7303C85.5534 71.5506 85.5895 72.3566 85.647 73.1625C85.6902 73.6662 85.7333 74.1843 85.7909 74.6952C85.8485 75.2133 85.9061 75.7314 85.978 76.2495C86.0428 76.7748 86.1076 77.3 86.1723 77.8253C86.2371 78.3578 86.2946 78.8903 86.3522 79.4228C86.4098 79.9553 86.4673 80.4949 86.5105 81.0274C86.5537 81.5599 86.5968 82.0997 86.6256 82.6321V82.6321ZM115.322 80.2C115.272 81.121 115.178 81.9845 115.042 82.8048C114.905 83.6251 114.732 84.3879 114.509 85.1002C114.286 85.8126 114.013 86.4674 113.689 87.0647C113.365 87.6619 112.991 88.1944 112.566 88.6693C112.142 89.1442 111.66 89.5544 111.113 89.8998C110.566 90.2452 109.961 90.5258 109.292 90.7417C108.623 90.9576 107.882 91.1015 107.069 91.1663C106.256 91.2311 105.37 91.2238 104.413 91.1447C103.111 91.0368 101.909 90.8353 100.808 90.5475C99.7074 90.2596 98.7073 89.8782 97.8078 89.4105C96.9083 88.9428 96.1025 88.4031 95.3829 87.7914C94.6633 87.1798 94.03 86.5034 93.4831 85.7479C92.9363 84.9923 92.483 84.1792 92.1088 83.3013C91.7346 82.4234 91.4468 81.4807 91.2454 80.4805C91.0439 79.4803 90.9143 78.4297 90.864 77.3432C90.8136 76.2494 90.8351 75.1197 90.9358 73.9396C91.0294 72.8458 91.195 71.7449 91.4325 70.6512C91.6699 69.5574 91.9864 68.4636 92.3678 67.3699C92.7563 66.2761 93.217 65.2472 93.7495 64.2757C94.282 63.3043 94.8864 62.4048 95.57 61.5557C96.2464 60.7138 97.0019 59.9582 97.815 59.289C98.6353 58.627 99.5204 58.0513 100.477 57.562C101.434 57.0799 102.463 56.7418 103.564 56.5475C104.665 56.3604 105.846 56.3172 107.09 56.4251C107.673 56.4755 108.242 56.5619 108.789 56.6914C109.335 56.8209 109.868 56.9936 110.379 57.2022C110.89 57.4109 111.372 57.6628 111.818 57.9506C112.264 58.2385 112.674 58.5623 113.048 58.922C113.423 59.2818 113.754 59.6776 114.041 60.1022C114.329 60.5267 114.574 60.9873 114.775 61.4838C114.977 61.9731 115.121 62.4983 115.193 63.0524C115.272 63.6065 115.279 64.1822 115.229 64.7938C115.2 65.1392 115.15 65.4774 115.078 65.8084C115.006 66.1394 114.912 66.456 114.79 66.7726C114.675 67.0821 114.538 67.3771 114.38 67.6505C114.221 67.924 114.049 68.1758 113.854 68.4133C113.66 68.6508 113.444 68.8522 113.2 69.0321C112.955 69.212 112.689 69.3631 112.401 69.4855C112.113 69.6078 111.796 69.6941 111.465 69.7373C111.134 69.7805 110.782 69.7877 110.408 69.7589C110.228 69.7445 110.041 69.7229 109.839 69.7085C109.645 69.6869 109.436 69.6653 109.22 69.6438C109.004 69.615 108.796 69.579 108.601 69.5286C108.407 69.4782 108.213 69.4134 108.033 69.3343C107.853 69.2551 107.688 69.1617 107.536 69.0537C107.385 68.9458 107.256 68.8235 107.141 68.6867C107.026 68.55 106.947 68.3917 106.896 68.2046C106.846 68.0175 106.839 67.8088 106.853 67.5714L107.429 66.233L108.004 64.8946C108.026 64.5995 108.004 64.3476 107.939 64.1318C107.875 63.9159 107.767 63.7432 107.609 63.5993C107.45 63.4626 107.263 63.3475 107.04 63.2683C106.817 63.1892 106.558 63.1316 106.27 63.11C105.759 63.0669 105.277 63.11 104.831 63.2323C104.385 63.3618 103.975 63.5705 103.6 63.8655C103.226 64.1606 102.888 64.4988 102.579 64.873C102.276 65.2471 102.003 65.6645 101.773 66.1178C101.535 66.5711 101.334 67.0389 101.154 67.521C100.974 68.0032 100.823 68.4924 100.693 69.0033C100.564 69.507 100.463 69.9819 100.384 70.4281C100.305 70.867 100.247 71.2772 100.218 71.6514C100.182 72.0544 100.168 72.486 100.175 72.9394C100.175 73.3927 100.204 73.8748 100.24 74.3785C100.283 74.8822 100.348 75.3788 100.449 75.8609C100.549 76.343 100.672 76.8107 100.83 77.264C100.988 77.7174 101.183 78.1419 101.427 78.5233C101.665 78.9119 101.945 79.2644 102.269 79.5883C102.593 79.9121 102.96 80.164 103.377 80.3438C103.795 80.5237 104.262 80.6389 104.773 80.682C104.924 80.6964 105.083 80.6964 105.241 80.6892C105.399 80.682 105.558 80.6605 105.723 80.6389C105.889 80.6101 106.047 80.5669 106.198 80.5165C106.349 80.4662 106.508 80.3942 106.651 80.3222C106.795 80.2431 106.932 80.1567 107.054 80.0488C107.177 79.9481 107.292 79.8329 107.393 79.7106C107.493 79.5883 107.573 79.4516 107.63 79.3077C107.688 79.1638 107.724 79.0055 107.738 78.84C107.752 78.6457 107.76 78.473 107.76 78.3147C107.76 78.1564 107.752 78.0196 107.731 77.8973C107.709 77.7749 107.673 77.667 107.609 77.5735C107.544 77.48 107.465 77.3936 107.357 77.3217C107.249 77.2497 107.112 77.1849 106.946 77.1274C106.774 77.0698 106.572 77.0122 106.342 76.9619C106.112 76.9115 105.831 76.8683 105.514 76.8323C105.198 76.7891 104.838 76.7531 104.435 76.7172C104.32 76.71 104.219 76.6524 104.126 76.5517C104.032 76.4509 103.939 76.307 103.859 76.1199C103.78 75.9328 103.715 75.7602 103.679 75.6163C103.644 75.4652 103.629 75.3356 103.636 75.2277C103.665 74.9111 103.716 74.6088 103.802 74.3354C103.888 74.062 103.996 73.8029 104.133 73.5726C104.27 73.3423 104.428 73.1265 104.608 72.9394C104.788 72.7523 104.982 72.5796 105.198 72.4285C105.414 72.2774 105.644 72.1479 105.889 72.0471C106.133 71.9392 106.392 71.86 106.659 71.7953C106.932 71.7377 107.205 71.6945 107.486 71.6801C107.767 71.6585 108.055 71.6657 108.35 71.6873C108.99 71.7449 109.58 71.8097 110.127 71.8888C110.674 71.968 111.178 72.0615 111.638 72.1767C112.099 72.2918 112.516 72.4429 112.89 72.6444C113.264 72.8459 113.595 73.0977 113.883 73.3927C114.171 73.6877 114.416 74.0475 114.624 74.4649C114.826 74.8822 114.984 75.3572 115.099 75.8897C115.214 76.4222 115.294 77.0482 115.322 77.7678C115.358 78.4874 115.351 79.3005 115.301 80.2072L115.322 80.2Z" fill="black"/>
</svg>
