  <svg width="714" height="714" viewBox="0 0 714 714" fill="none"
            xmlns="http://www.w3.org/2000/svg">
            <path
              d="M506.995 524.358H363.352C359.107 524.358 355.327 521.596 354.088 517.498L295.249 327.503C293.297 321.233 297.975 314.9 304.513 314.9H448.156C452.4 314.9 456.181 317.663 457.42 321.76L516.259 511.756C518.211 518.026 513.532 524.358 506.995 524.358V524.358Z"
              fill="#BF96F8" />
            <path
              d="M438.55 397.187C444.004 407.492 454.569 414.88 458.473 426.054C461.045 433.41 454.786 437.384 456.428 447.161C458.783 461.036 467.645 469.665 471.363 471.807C471.115 472.086 476.723 493.752 481.866 513.214C486.204 529.758 503.617 539.226 519.822 533.825C536.182 528.393 544.485 510.141 537.824 494.218C528.807 472.614 518.118 446.447 517.653 442.567C516.879 435.987 518.273 429.437 517.901 422.826C517.529 415.718 512.51 397.218 508.761 391.103C485.399 353.389 464.825 351.62 464.825 351.62C464.825 351.62 473.408 382.443 475.391 391.382C470.836 387.13 466.188 382.877 461.293 379.059C456.459 375.273 450.386 371.796 444.004 372.882C432.23 374.9 434.43 389.427 438.55 397.187V397.187Z"
              fill="white" />
            <path
              d="M510.434 538.14C505.136 538.14 499.899 536.805 495.066 534.198C487.103 529.883 481.464 522.682 479.171 513.929C476.103 502.258 473.656 492.883 471.92 485.993C470.185 479.257 469.256 475.594 468.853 473.483C463.71 469.914 455.902 460.571 453.702 447.627C452.772 442.071 454.074 438.098 455.158 434.87C456.15 431.921 456.862 429.779 455.871 426.986C453.826 421.181 449.798 416.401 445.491 411.342C442.114 407.368 438.612 403.24 436.103 398.491C432.849 392.314 430.959 383.25 434.089 376.918C435.886 373.255 439.17 370.927 443.57 370.151C449.581 369.127 455.933 371.331 463.028 376.887C465.6 378.905 468.109 381.046 470.495 383.157C467.273 370.803 462.222 352.645 462.16 352.397C461.913 351.527 462.129 350.565 462.687 349.882C463.276 349.168 464.143 348.796 465.073 348.889C465.972 348.951 487.289 351.217 511.116 389.676C515.082 396.07 520.287 415.097 520.69 422.702C520.845 425.806 520.69 428.879 520.473 431.828C520.256 435.428 520.008 438.843 520.411 442.257C520.566 443.561 522.828 451.104 540.365 493.163C543.835 501.451 543.68 510.918 539.962 519.112C536.244 527.307 529.21 533.639 520.659 536.464C517.281 537.581 513.842 538.14 510.403 538.14H510.434ZM474.12 471.745C474.306 472.894 475.794 479.319 484.531 512.501C486.452 519.764 491.131 525.724 497.699 529.293C504.299 532.863 511.828 533.546 518.924 531.187C526.112 528.797 531.782 523.706 534.911 516.815C538.041 509.924 538.165 502.289 535.252 495.305C515.515 448 515.05 444.182 514.896 442.909C514.431 438.998 514.679 435.18 514.896 431.486C515.081 428.569 515.267 425.806 515.112 423.013C514.741 416.246 509.814 398.181 506.375 392.624C490.356 366.768 475.732 358.325 468.791 355.656C471.27 364.688 476.537 383.933 478.086 390.824C478.365 392.004 477.807 393.245 476.754 393.835C475.701 394.425 474.368 394.27 473.47 393.462C469.349 389.614 464.515 385.175 459.558 381.295C453.764 376.763 448.806 374.901 444.438 375.677C441.804 376.111 440.038 377.353 439.015 379.401C436.877 383.716 438.427 391.134 440.967 395.915C443.198 400.136 446.359 403.83 449.674 407.772C454.105 412.987 458.659 418.357 461.045 425.154C462.656 429.748 461.479 433.256 460.363 436.639C459.372 439.681 458.411 442.537 459.124 446.727C461.231 459.236 469.163 467.4 472.695 469.417C473.408 469.821 473.903 470.535 474.058 471.373C474.058 471.497 474.089 471.652 474.089 471.776L474.12 471.745ZM473.996 472.614C473.872 472.987 473.718 473.297 473.439 473.608C473.718 473.266 473.903 472.925 473.996 472.614Z"
              fill="black" />
            <path
              d="M493.083 413.048C492.339 413.048 491.595 412.769 491.069 412.179L473.377 393.338C472.323 392.22 472.385 390.451 473.501 389.396C474.616 388.34 476.382 388.403 477.436 389.52L495.128 408.361C496.181 409.479 496.119 411.248 495.004 412.303C494.477 412.8 493.795 413.048 493.114 413.048H493.083Z"
              fill="black" />
            <path
              d="M644.533 250.865C643.077 205.546 605.617 169.788 559.978 169.199C559.978 169.199 555.888 164.946 548.575 167.243C544.64 168.485 541.728 171.465 540.767 166.002C539.9 161.066 536.554 157.683 531.441 157.155C525.306 156.534 519.822 160.663 515.298 164.232C512.076 166.747 509.07 169.509 506.282 172.52C506.003 172.83 502.595 177.207 502.316 177.176C501.727 177.176 501.201 175.314 500.829 174.848C492.649 163.674 481.773 183.043 479.264 188.909C473.656 201.946 472.199 217.031 471.982 231.092C471.982 232.675 472.757 254.062 472.85 256.39C474.337 303.012 513.997 339.577 561.403 338.056C608.809 336.535 646.052 297.487 644.564 250.865H644.533Z"
              fill="black" />
            <path
              d="M592.759 352.242C592.759 352.242 592.48 349.51 590.838 331.941C590.311 332.066 561.992 328.713 545.415 300.56C527.444 270.048 528.591 242.639 528.653 237.239C528.684 234.197 525.988 232.893 523.106 231.993C492.401 222.153 477.467 229.913 476.568 232.117C475.298 235.252 474.151 261.915 473.532 271.041C473.377 271.041 463.369 275.231 455.437 278.584C450.51 280.663 448.744 286.747 451.812 291.155L463.369 307.854C464.453 316.856 465.29 333.028 474.647 343.395C485.77 355.718 505.786 351.683 505.786 351.683L508.296 370.835C508.296 370.835 514.4 379.122 544.919 379.215C578.599 379.308 594.897 352.304 592.79 352.273L592.759 352.242Z"
              fill="white" />
            <path
              d="M545.043 381.978C513.842 381.885 506.716 373.411 506.003 372.449C505.724 372.076 505.538 371.642 505.476 371.176L503.338 354.818C497.018 355.501 482.052 355.78 472.54 345.227C463.555 335.263 461.944 320.736 460.89 311.114C460.797 310.307 460.704 309.562 460.642 308.848L449.488 292.738C447.567 289.944 446.978 286.468 447.939 283.24C448.899 279.981 451.223 277.373 454.321 276.039C463.927 272.003 468.512 270.048 470.836 269.117C471.611 258.315 473.748 229.975 473.779 229.696C473.903 228.175 475.236 227.026 476.754 227.12C478.272 227.244 479.419 228.578 479.326 230.099C479.326 230.41 476.909 262.226 476.289 271.258C476.196 272.438 475.391 273.4 474.306 273.742C473.779 273.928 470.96 275.076 456.49 281.191C454.91 281.843 453.733 283.178 453.268 284.823C452.803 286.468 453.082 288.206 454.043 289.603L465.6 306.302C465.848 306.675 466.033 307.11 466.064 307.544C466.188 308.475 466.281 309.5 466.405 310.555C467.397 319.463 468.853 332.935 476.63 341.564C486.545 352.552 504.981 349.045 505.166 348.982C505.91 348.827 506.716 348.982 507.335 349.448C507.955 349.883 508.358 350.597 508.482 351.341L510.868 369.562C512.603 371.021 520.659 376.391 544.888 376.453C573.208 376.453 588.08 356.618 590.001 352.676C590.001 352.49 589.691 349.634 588.049 332.252C587.894 330.731 589.041 329.365 590.559 329.21C592.077 329.086 593.44 330.203 593.595 331.724C594.804 344.73 595.299 349.603 595.454 351.248C595.64 351.652 595.733 352.086 595.733 352.583C595.671 357.394 577.886 382.009 545.074 382.009L545.043 381.978Z"
              fill="black" />
            <path
              d="M507.366 255.552C506.592 255.552 505.848 255.241 505.29 254.621C505.228 254.558 501.263 250.182 495.654 249.902C492.029 249.716 488.404 251.299 484.841 254.558C483.725 255.583 481.959 255.521 480.906 254.403C479.883 253.286 479.945 251.517 481.092 250.461C485.801 246.147 490.821 244.098 495.995 244.346C503.958 244.781 509.225 250.678 509.442 250.927C510.465 252.075 510.341 253.845 509.194 254.838C508.668 255.303 508.017 255.521 507.366 255.521V255.552Z"
              fill="black" />
            <path
              d="M486.39 269.364C486.607 272.903 488.807 275.635 491.286 275.479C493.764 275.324 495.623 272.344 495.406 268.806C495.19 265.267 492.99 262.536 490.511 262.691C488.032 262.846 486.173 265.826 486.39 269.364Z"
              fill="black" />
            <path
              d="M506.065 272.375C505.228 272.375 504.392 271.972 503.834 271.258C502.223 269.054 498.908 265.205 497.018 264.212C493.454 262.349 491.843 263.001 490.387 264.615C489.024 266.136 488.156 269.054 487.939 270.047C487.598 271.537 486.142 272.499 484.624 272.158C483.137 271.848 482.176 270.358 482.486 268.868C482.61 268.371 483.632 263.808 486.204 260.89C489.674 257.01 494.167 256.452 499.527 259.245C503.153 261.139 507.707 267.223 508.234 267.905C509.132 269.147 508.885 270.885 507.645 271.785C507.149 272.158 506.561 272.344 506.003 272.344L506.065 272.375Z"
              fill="black" />
            <path
              d="M562.146 283.208C559.73 293.7 549.288 300.218 538.815 297.797C528.343 295.376 521.836 284.915 524.253 274.424C526.67 263.932 537.111 257.414 547.584 259.835C558.057 262.256 564.563 272.717 562.146 283.208Z"
              fill="white" />
            <path
              d="M533.393 279.67C532.897 279.67 532.371 279.546 531.906 279.235C530.604 278.428 530.233 276.69 531.038 275.386C533.238 271.91 536.646 269.52 540.643 268.619C544.64 267.719 548.761 268.433 552.231 270.637C553.533 271.475 553.905 273.182 553.099 274.486C552.262 275.79 550.558 276.162 549.257 275.355C547.057 273.958 544.423 273.493 541.852 274.083C539.311 274.672 537.111 276.193 535.717 278.397C535.19 279.235 534.292 279.701 533.362 279.701L533.393 279.67Z"
              fill="black" />
            <path
              d="M505.724 354.445C504.361 354.445 503.152 353.421 502.967 352.024C502.781 350.503 503.834 349.106 505.352 348.92C522.146 346.747 529.117 341.129 529.179 341.067C530.357 340.104 532.092 340.229 533.083 341.408C534.075 342.588 533.92 344.326 532.773 345.319C532.464 345.599 524.717 352.055 506.065 354.445C505.941 354.445 505.817 354.445 505.693 354.445H505.724Z"
              fill="black" />
            <path
              d="M466.188 327.999C465.6 327.999 465.011 327.813 464.515 327.44C463.276 326.509 463.028 324.771 463.958 323.56C467.18 319.246 478.427 303.105 478.551 302.95C479.419 301.708 481.154 301.398 482.424 302.267C483.694 303.136 483.973 304.874 483.106 306.147C482.641 306.799 471.673 322.536 468.388 326.913C467.831 327.627 467.025 328.03 466.157 328.03L466.188 327.999Z"
              fill="black" />
            <path
              d="M707.153 558.471C704.364 535.501 700.832 512.563 696.37 489.873C693.736 476.495 690.545 463.178 686.021 450.328C690.204 442.382 689.151 431.3 687.044 422.081C680.568 394.083 669.631 363.416 652.837 339.795C647.88 332.842 641.156 326.758 632.914 324.647C620.428 321.45 608.189 327.844 596.601 331.569C584.114 335.604 571.659 339.546 558.769 342.123C543.308 345.227 507.366 358.294 468.109 398.025C466.808 399.484 465.817 401.129 465.135 402.868C437.59 422.454 416.211 450.235 404.468 481.958C405.924 478.047 391.454 468.114 388.697 466.593C381.911 462.837 374.196 461.099 366.45 460.943C343.274 460.509 318.58 472.987 306.496 492.946C294.226 513.246 295.868 539.475 304.637 560.83C308.045 569.118 314.366 576.474 316.721 585.103C319.571 595.471 317.03 607.949 316.101 618.471C315.202 628.808 314.304 639.144 314.831 649.542C315.605 665.559 319.881 682.041 330.509 694.426C341.539 707.277 374.32 713.702 374.32 713.702H695.998C706.099 713.702 714.217 705.414 714.031 695.295C713.38 662.455 711.521 593.888 707.184 558.44L707.153 558.471Z"
              fill="black" />
            <path
              d="M352.476 535.719C371.377 531.125 381.942 510.887 374.878 492.728C371.284 483.509 368.03 475.098 366.636 471.621C364.963 467.431 363.755 463.551 363.971 458.988C364.25 453.897 365.397 449.179 365.025 444.027C363.724 425.961 352.786 409.417 345.443 393.059C340.857 382.816 334.691 359.381 319.416 365.247C315.14 366.892 312.786 370.71 311.98 374.932C309.346 368.6 306.837 362.236 304.513 355.78C303.459 352.862 299.586 352.831 298.533 355.78C293.327 370.4 293.018 401.129 293.018 401.129C281.089 408.672 284.962 422.764 286.604 434.746C288.99 452.252 303.893 475.563 303.893 475.563C303.893 475.563 309.377 490.68 313.343 510.7C316.906 528.642 334.66 540.033 352.445 535.719H352.476Z"
              fill="white" />
            <path
              d="M344.823 539.412C338.255 539.412 331.81 537.55 326.109 533.887C318.022 528.703 312.538 520.664 310.648 511.228C307.053 493.131 302.158 478.915 301.414 476.773C299.648 473.949 286.201 452.221 283.877 435.118C283.691 433.752 283.474 432.386 283.258 430.989C281.646 420.436 279.632 407.43 290.291 399.639C290.415 393.245 291.221 368.04 295.93 354.848C296.798 352.396 298.998 350.813 301.507 350.782C304.048 350.782 306.248 352.365 307.115 354.817C308.665 359.101 310.307 363.415 312.011 367.668C313.622 365.371 315.822 363.633 318.425 362.608C333.948 356.649 341.384 375.428 345.815 386.633C346.589 388.558 347.302 390.389 347.953 391.879C349.781 395.945 351.795 399.95 353.902 404.171C360.222 416.711 366.729 429.686 367.752 443.747C367.999 447.254 367.597 450.514 367.225 453.68C367.008 455.511 366.791 457.249 366.698 459.05C366.481 462.961 367.473 466.344 369.146 470.503C370.385 473.607 373.143 480.715 377.419 491.642C381.075 501.047 380.486 511.569 375.838 520.509C371.191 529.448 362.887 535.967 353.096 538.326C350.338 539.009 347.55 539.319 344.792 539.319L344.823 539.412ZM301.538 356.338C301.538 356.338 301.29 356.338 301.166 356.711C296.178 370.71 295.837 400.85 295.806 401.16C295.806 402.091 295.31 402.991 294.505 403.488C285.488 409.199 287.069 419.381 288.742 430.151C288.959 431.579 289.176 433.007 289.361 434.373C291.623 451.072 306.093 473.825 306.248 474.042C306.372 474.228 306.434 474.414 306.527 474.601C306.744 475.221 312.135 490.152 316.101 510.141C317.681 518.088 322.298 524.854 329.083 529.2C335.9 533.546 343.956 534.911 351.795 532.987C360.036 531 367.008 525.537 370.912 517.995C374.847 510.483 375.312 501.605 372.244 493.721C367.999 482.795 365.242 475.718 364.002 472.645C362.112 467.896 360.904 463.737 361.152 458.832C361.245 456.846 361.493 454.921 361.71 453.09C362.081 450.048 362.422 447.192 362.205 444.213C361.276 431.269 355.017 418.791 348.944 406.716C346.868 402.619 344.761 398.366 342.871 394.207C342.159 392.624 341.415 390.731 340.609 388.744C335.249 375.149 330.013 364.16 320.377 367.885C316.38 369.406 315.078 373.317 314.676 375.49C314.459 376.701 313.467 377.601 312.228 377.725C311.019 377.849 309.842 377.166 309.377 376.049C306.713 369.686 304.172 363.198 301.879 356.742C301.786 356.494 301.662 356.369 301.476 356.369L301.538 356.338Z"
              fill="black" />
            <path
              d="M318.889 423.385C317.371 423.385 316.101 422.144 316.101 420.592V404.202L309.284 375.553C308.944 374.063 309.842 372.573 311.329 372.2C312.817 371.828 314.304 372.759 314.676 374.249L321.554 403.209C321.616 403.426 321.616 403.644 321.616 403.861V420.592C321.616 422.113 320.377 423.385 318.828 423.385H318.889Z"
              fill="black" />
            <path
              d="M294.784 427.575C293.358 427.575 292.119 426.458 292.026 424.999L290.291 401.346C290.167 399.826 291.313 398.491 292.863 398.367C294.412 398.242 295.713 399.391 295.837 400.943L297.572 424.595C297.696 426.116 296.55 427.451 295.001 427.575C294.939 427.575 294.877 427.575 294.784 427.575Z"
              fill="black" />
            <path
              d="M435.266 350.193H350.338C348.82 350.193 347.55 348.951 347.55 347.399C347.55 345.847 348.789 344.605 350.338 344.605H435.266C436.784 344.605 438.055 345.847 438.055 347.399C438.055 348.951 436.815 350.193 435.266 350.193Z"
              fill="white" />
            <path
              d="M399.696 375.025H354.707C353.189 375.025 351.919 373.783 351.919 372.231C351.919 370.679 353.158 369.438 354.707 369.438H399.696C401.214 369.438 402.485 370.679 402.485 372.231C402.485 373.783 401.245 375.025 399.696 375.025Z"
              fill="white" />
            <path
              d="M91.2773 510.923L91.7727 375.527C91.793 369.971 96.3333 365.456 101.879 365.476L186.28 365.786C191.826 365.807 196.333 370.355 196.313 375.911L195.817 511.307C195.797 516.863 191.257 521.378 185.711 521.358L101.31 521.048C95.7641 521.027 91.257 516.479 91.2773 510.923Z"
              fill="white" style="filter: drop-shadow(8px 8px 0px #000000);" />
            <path
              d="M185.719 524.171L101.287 523.861C97.8481 523.861 94.6258 522.495 92.209 520.043C89.7922 517.591 88.4599 514.362 88.4909 510.917L88.9866 375.521C88.9866 372.075 90.3499 368.847 92.7977 366.426C95.2145 364.005 98.4368 362.701 101.845 362.701C101.907 362.701 186.277 363.012 186.277 363.012C193.372 363.012 199.104 368.847 199.073 375.924L198.578 511.32C198.578 518.398 192.784 524.14 185.75 524.14L185.719 524.171ZM101.845 368.288C99.9241 368.288 98.096 369.033 96.7017 370.399C95.3074 371.765 94.5638 373.596 94.5328 375.552L94.0371 510.948C94.0371 514.983 97.2904 518.273 101.318 518.273L185.719 518.584C189.747 518.584 193.032 515.325 193.032 511.289L193.527 375.893C193.527 371.858 190.274 368.568 186.246 368.568L101.845 368.257V368.288Z"
              fill="black" />
            <path
              d="M102.744 514.083C102.155 514.083 101.535 513.897 101.04 513.494C99.8311 512.531 99.6452 510.793 100.575 509.583L152.69 443.561L101.101 380.177C100.141 378.998 100.296 377.228 101.504 376.266C102.682 375.304 104.448 375.49 105.408 376.67L158.422 441.791C159.259 442.816 159.259 444.243 158.422 445.268L104.913 513.059C104.355 513.742 103.549 514.114 102.744 514.114V514.083Z"
              fill="black" />
            <path
              d="M179.739 509.644C179.058 509.644 178.376 509.396 177.849 508.899L135.742 469.137C134.626 468.081 134.564 466.312 135.618 465.195C136.671 464.077 138.437 464.015 139.553 465.071L181.66 504.833C182.776 505.888 182.838 507.657 181.784 508.775C181.227 509.365 180.514 509.644 179.77 509.644H179.739Z"
              fill="black" />
            <path
              d="M150.892 130.821L150.89 130.82C145.932 127.881 144.309 121.475 147.254 116.487C147.255 116.486 147.255 116.486 147.255 116.486L200.423 26.7203L200.424 26.7181C203.358 21.749 209.749 20.1282 214.723 23.0757C214.723 23.0758 214.723 23.0759 214.723 23.076L358.24 108.342L358.242 108.343C363.201 111.282 364.824 117.689 361.878 122.677L308.71 212.443L308.709 212.445C305.774 217.414 299.383 219.035 294.409 216.087L150.892 130.821Z"
              fill="#FCDC41" stroke="black" stroke-width="4" style="filter: drop-shadow(8px 8px 0px #000000);" />
            <path
              d="M246.031 133.149L246.026 133.136L246.021 133.122L207.507 33.6392L207.507 33.6392L207.505 33.6336C207.351 33.2402 207.548 32.7812 207.952 32.6227C208.337 32.472 208.792 32.6616 208.953 33.0694C208.953 33.0701 208.953 33.0707 208.954 33.0714L246.659 130.469L247.239 131.968L248.828 131.724L349 116.328L349.01 116.327L349.019 116.325C349.423 116.259 349.817 116.542 349.877 116.962L349.879 116.981L349.883 117.001C349.95 117.415 349.661 117.807 349.249 117.866L349.239 117.867L349.229 117.869L246.905 133.599C246.884 133.601 246.857 133.603 246.829 133.606C246.743 133.613 246.71 133.614 246.727 133.614C246.405 133.614 246.128 133.412 246.031 133.149Z"
              fill="white" stroke="black" stroke-width="4" />
            <path
              d="M163.972 118.432L163.976 118.447C164.064 118.767 164.346 118.988 164.697 118.994C164.705 118.993 164.723 118.991 164.751 118.986C164.806 118.976 164.874 118.961 164.965 118.938L233.525 98.9292L163.972 118.432ZM163.972 118.432L163.968 118.417M163.972 118.432L163.968 118.417M163.968 118.417C163.843 117.989 164.069 117.576 164.498 117.451C164.498 117.451 164.498 117.451 164.498 117.451L233.097 97.43L233.108 97.4266M163.968 118.417L233.108 97.4266M233.108 97.4266C233.493 97.3118 233.93 97.5301 234.055 97.9626M233.108 97.4266L234.055 97.9626M234.055 97.9626C234.18 98.3908 233.954 98.8034 233.525 98.9291L234.055 97.9626ZM232.536 95.5101L232.537 95.5107L232.536 95.5101Z"
              fill="white" stroke="black" stroke-width="4" />
            <path
              d="M56.2673 325.92C55.9575 325.92 55.6786 325.858 55.3688 325.765C54.1914 325.361 53.4478 324.244 53.4787 323.002L56.2054 259.525L2.04496 245.061C0.805596 244.719 -0.0619618 243.571 6.59947e-06 242.267C0.0309908 240.963 0.991501 239.877 2.26185 239.629L60.5122 228.392L56.4532 184.626C56.3293 183.446 56.98 182.329 58.0644 181.832C59.1489 181.336 60.4192 181.584 61.2248 182.453L93.4794 216.411L136.238 197.321C137.353 196.825 138.685 197.104 139.491 198.066C140.296 198.997 140.358 200.363 139.708 201.387L114.084 240.529L151.668 282.402C152.504 283.333 152.597 284.668 151.978 285.723C151.327 286.778 150.087 287.275 148.879 286.934L95.1215 272.252L58.6221 324.709C58.0954 325.485 57.2278 325.889 56.3603 325.889L56.2673 325.92ZM15.1823 242.826L59.7995 254.745C61.0699 255.087 61.9064 256.235 61.8445 257.539L59.4277 313.69L91.5893 267.471C92.271 266.509 93.4794 266.075 94.5948 266.385L141.164 279.111L108.445 242.671C107.608 241.739 107.484 240.343 108.197 239.287L129.824 206.292L93.9441 222.308C92.8597 222.774 91.6203 222.526 90.8147 221.688L62.712 192.106L66.2752 230.41C66.3992 231.838 65.4387 233.141 64.0444 233.39L15.2133 242.795L15.1823 242.826Z"
              fill="#FCDC41" />
            <path
              d="M510.434 131.268C509.721 131.268 509.04 130.988 508.513 130.492L470.929 93.9887L423.988 109.105C422.81 109.478 421.509 109.043 420.828 108.019C420.146 106.994 420.208 105.629 421.013 104.666L451.936 67.8841L419.03 43.2073C418.008 42.4624 417.636 41.0966 418.132 39.9171C418.597 38.7376 419.836 38.0547 421.075 38.2099L471.425 45.0387L491.379 1.61379C491.905 0.465316 493.114 -0.186524 494.353 0.0307562C495.592 0.248036 496.522 1.24131 496.677 2.48291L501.758 50.1293L544.021 69.1568C545.012 69.5913 545.663 70.5846 545.663 71.702C545.663 72.7884 545.012 73.7817 544.021 74.2473L510.062 89.6431L513.222 128.288C513.315 129.436 512.696 130.523 511.642 131.019C511.27 131.206 510.868 131.299 510.465 131.299L510.434 131.268ZM471.642 88.0601C472.354 88.0601 473.036 88.3395 473.563 88.8361L507.057 121.335L504.33 88.0911C504.237 86.9116 504.888 85.8252 505.941 85.3286L536.058 71.671L497.947 54.5369C497.049 54.1334 496.429 53.2953 496.336 52.3021L492.153 13.0986L475.546 49.2291C475.05 50.3465 473.841 50.9673 472.664 50.8121L430.866 45.1318L457.575 65.1526C458.194 65.6182 458.566 66.3011 458.659 67.046C458.752 67.791 458.504 68.567 458.04 69.1568L431.455 100.786L470.805 88.1222C471.084 88.0291 471.363 87.998 471.642 87.998V88.0601Z"
              fill="#BF96F8" />
            <path
              d="M273.745 334.859C273.095 334.859 272.444 334.642 271.948 334.176L240.128 306.644C239.322 305.93 238.981 304.812 239.26 303.788C239.539 302.764 240.406 301.988 241.491 301.802L281.987 295.066L275.883 254.186C275.728 253.224 276.131 252.231 276.875 251.61C277.649 250.989 278.672 250.834 279.601 251.175L331.097 270.42L347.736 226.157C348.108 225.164 349.006 224.481 350.06 224.357C351.113 224.264 352.135 224.76 352.693 225.66L377.852 266.788L411.78 237.487C412.524 236.835 413.577 236.649 414.538 236.959C415.467 237.3 416.18 238.108 416.335 239.101L423.399 279.111C423.678 280.632 422.656 282.06 421.137 282.339C419.619 282.619 418.194 281.595 417.915 280.074L411.687 244.874L378.999 273.121C378.379 273.648 377.573 273.897 376.768 273.772C375.962 273.648 375.25 273.183 374.816 272.469L350.896 233.389L335.28 274.921C334.753 276.349 333.142 277.094 331.717 276.535L282.049 257.973L287.874 296.897C288.091 298.387 287.069 299.815 285.581 300.063L248.214 306.271L275.543 329.924C276.689 330.917 276.844 332.686 275.821 333.835C275.264 334.487 274.489 334.797 273.714 334.797L273.745 334.859Z"
              fill="#BF96F8" />
          </svg>
