<svg width="663" height="520" viewBox="0 0 663 520" fill="none" xmlns="http://www.w3.org/2000/svg">
<path d="M198.87 210.557C194.812 258.316 192.273 306.418 189.134 354.295C187.805 374.529 188.065 396.109 184.552 416.111C184.124 418.547 183.207 422.116 182.409 424.05C183.97 422.115 189.483 423.818 192.407 423.564C206.693 422.309 221.579 424.227 235.928 424.297C270.474 424.462 304.814 425.146 339.328 426.572C365.584 427.65 391.964 430.121 418.216 431.616C436.749 432.667 456.617 435.539 475.082 434.421C475.848 430.096 477.132 426.232 478.051 421.97C479.228 416.55 478.022 410.62 478.35 405.114C478.977 394.45 479.673 383.782 480.208 373.111C481.011 356.901 482.533 340.727 482.953 324.49C483.322 310.093 481.933 296.149 482.142 281.783C482.437 261.447 487.678 241.791 487.386 221.507C487.363 219.566 488.149 214.443 486.516 213.156C485.231 212.142 478.571 213.568 476.805 213.617C470.282 213.776 463.75 213.508 457.234 213.1C443.703 212.228 430.239 210.577 416.683 210.145C370.966 208.684 325.232 209.778 279.52 208.408C255.559 207.695 231.384 206.368 207.418 207.262C202.375 207.455 199.345 204.986 198.87 210.569L198.87 210.557Z" fill="white" stroke="black" stroke-width="4" stroke-linecap="round" stroke-linejoin="round"/>
<path d="M204.502 288.892L221.575 279.39L239.958 268.762L238.842 285.691C238.842 285.691 232.56 288 228.27 289.441C230.154 290.161 238.8 292.606 238.8 292.606L238.45 307.88L204.491 288.904L204.502 288.892Z" stroke="black" stroke-width="4" stroke-linecap="round" stroke-linejoin="round"/>
<path d="M224.92 323.352C224.92 323.352 224.869 323.262 224.844 323.229C223.958 321.849 222.64 320.617 221.358 319.661C218.698 317.683 215.236 316.599 212.155 318.398C209.747 319.795 208.032 321.402 207.478 324.341C206.227 330.885 209.752 337.446 213.963 342.159C216.186 344.654 218.639 346.919 220.807 349.486C222.02 350.92 223.855 353.064 224.417 354.921C227.733 351.481 232.011 348.816 235.204 345.209C240.171 339.54 247.267 332.939 245.19 324.229C242.753 314.045 228.921 320.458 226.696 327.649C226.946 326.828 225.47 324.239 224.92 323.352Z" stroke="black" stroke-width="4" stroke-linecap="round" stroke-linejoin="round"/>
<path d="M225.469 365.124L228.824 380.778L245.052 379.777L229.909 390.749L233.153 407.24L221.321 397.086L206.721 408.043L215.013 392.287L201.743 382.779L219.261 381.44L225.469 365.124Z" stroke="black" stroke-width="4" stroke-linecap="round" stroke-linejoin="round"/>
<path d="M211.422 219.29C230.614 234.493 247.077 252.334 265.085 268.889C276.446 279.331 288.737 288.666 300.514 298.626C305.548 302.884 310.844 306.817 316.008 310.907C320.404 314.397 324.324 320.269 329.343 322.758C331.618 319.795 336.182 317.81 339.451 316.037C348.411 311.208 357.544 305.874 366.233 300.676C379.879 292.516 394.449 285.803 407.656 276.934C421.044 267.954 434.717 259.399 448.13 250.475C455.738 245.409 465.511 240.149 472.192 234.538" fill="white"/>
<path d="M211.422 219.29C230.614 234.493 247.077 252.334 265.085 268.889C276.446 279.331 288.737 288.666 300.514 298.626C305.548 302.884 310.844 306.817 316.008 310.907C320.404 314.397 324.324 320.269 329.343 322.758C331.618 319.795 336.182 317.81 339.451 316.037C348.411 311.208 357.544 305.874 366.233 300.676C379.879 292.516 394.449 285.803 407.656 276.934C421.044 267.954 434.717 259.399 448.13 250.475C455.738 245.409 465.511 240.149 472.192 234.538" stroke="black" stroke-width="4" stroke-linecap="round" stroke-linejoin="round"/>
<path d="M180.229 294.459C183.78 301.585 184.902 309.646 185.527 317.211C203.595 316.99 219.396 316.263 235.053 322.468C248.011 327.598 253.913 334.312 247.759 344.452C261.092 344.086 265.37 330.694 264.593 324.304C263.18 312.546 249.561 303.482 233.515 299.053C221.93 295.845 209.821 294.489 197.226 294.081C193.185 293.949 185.963 293.263 180.217 294.46L180.229 294.459Z" fill="black" stroke="black" stroke-width="4" stroke-linecap="round" stroke-linejoin="round"/>
<path d="M137.315 365.733C137.386 372.099 138.469 390.069 140.672 391.178C143.704 392.71 151.244 391.335 159.459 391.732C167.673 392.128 177.204 392.023 185.75 391.363C204.109 389.961 222.548 388.798 240.535 385.633C271.669 380.145 296.525 364.622 300.499 342.644C301.671 336.161 304.099 325.435 298.235 320.014C291.92 324.81 287.583 330.854 280.517 335.65C272.812 340.882 264.092 345.422 254.615 349.108C235.332 356.612 213.454 360.331 191.631 361.331C179.336 361.891 166.655 361.649 154.462 362.655C148.29 363.167 144.143 364.924 137.315 365.722L137.315 365.733Z" fill="white" stroke="black" stroke-width="4" stroke-linecap="round" stroke-linejoin="round"/>
<path d="M300.364 325.67C301.697 314.279 292.196 304.061 279.867 297.097C275.936 294.879 264.484 286.903 229.658 281.573C224.348 280.761 199.735 279.212 199.735 279.212C199.735 279.212 179.475 293.674 180.193 294.172C182.405 295.743 216.652 299.078 222.49 300.327C235.989 303.201 248.169 308.241 253.944 317.168C255.366 319.366 256.448 321.696 256.862 324.104C256.892 324.241 256.898 324.379 256.917 324.529C271.696 326.359 286.02 326.42 300.353 325.671L300.364 325.67Z" fill="white" stroke="black" stroke-width="4" stroke-linecap="round" stroke-linejoin="round"/>
<path d="M256.917 324.517C258.786 338.091 235.929 345.07 218.728 345.782C212.475 346.044 205.684 346.655 199.446 346.246C195.028 345.947 190.4 345.623 185.929 345.673C179.888 345.752 173.892 345.331 168.046 344.429C165.974 344.111 161.593 343.383 159.368 343.766C155.219 344.494 148.949 351.704 146.939 353.926C143.337 357.923 140.605 361.74 137.303 365.723C144.407 367.813 154.064 367.436 161.949 367.709C176.168 368.214 189.908 368.626 204.236 367.299C230.291 364.884 256.462 359.782 278.176 349.424C289.774 343.892 298.856 335.775 300.288 326.252C300.313 326.054 300.315 325.846 300.34 325.648C285.996 326.386 271.683 326.325 256.905 324.506L256.917 324.517Z" fill="black" stroke="black" stroke-width="4" stroke-linecap="round" stroke-linejoin="round"/>
<path d="M453.266 195.222C450.44 200.708 448.285 206.451 444.938 211.684C440.225 219.051 434.303 225.065 428.057 231.072C414.039 244.556 397.145 256.361 378.338 261.969C366.826 265.405 352.566 267.919 341.523 262.247C338.455 260.67 337.009 260.161 338.575 257.104C341.432 251.536 351.681 248.056 356.639 245.093C373.287 235.16 391.45 226.231 405.344 212.336C410.001 207.677 411.658 202.871 414.795 197.358C419.34 189.375 424.819 188.387 433.522 187.639C438.829 187.179 445.465 189.153 453.266 195.21L453.266 195.222Z" fill="black" stroke="black" stroke-width="4" stroke-linecap="round" stroke-linejoin="round"/>
<path d="M343.728 248.768C348.664 249.748 353.911 249.233 358.628 247.553C361.22 246.633 366.644 244.988 367.994 242.254C369.322 239.544 368.196 238.95 365.815 237.503C362.78 235.658 359.983 234.924 357.74 231.99C357.407 231.555 357.12 231.095 356.832 230.635C349.522 234.923 342.519 239.833 335.6 245.062C337.869 246.839 340.554 248.133 343.74 248.768L343.728 248.768Z" fill="black" stroke="black" stroke-width="4" stroke-linecap="round" stroke-linejoin="round"/>
<path d="M355.599 195.102C359.466 178.678 366.116 164.85 376.242 151.447C374.63 150.125 373.218 151.544 371.16 151.052C362.451 148.992 350.751 156.748 344.991 162.754C336.366 171.752 328.516 183.649 326.211 195.999C323.65 209.749 322.923 235.121 335.578 245.063C342.497 239.834 349.511 234.924 356.81 230.636C350.831 221.071 353.2 205.215 355.576 195.104L355.599 195.102Z" fill="white" stroke="black" stroke-width="4" stroke-linecap="round" stroke-linejoin="round"/>
<path d="M417.823 183.447C417.823 183.447 417.854 183.376 417.875 183.341C419.265 180.466 425.442 177.387 428.519 177.438C429.884 177.466 429.848 177.93 431.062 178.658C436.865 182.082 441.704 186.869 447.081 190.799C449.033 192.232 451.203 193.389 453.125 194.662C453.387 194.834 447.038 197.944 446.789 198.06C443.552 199.508 440.221 200.683 436.917 201.95C432.352 198.294 427.001 195.635 422.446 191.967C419.97 189.98 416.221 186.956 417.834 183.435L417.823 183.447Z" fill="white" stroke="black" stroke-width="4" stroke-linecap="round" stroke-linejoin="round"/>
<path d="M341.738 226.311C340.233 222.602 340.314 217.975 340.335 214.032C340.4 203.209 344.709 194.394 347.68 184.393C350.71 174.192 355.685 163.553 361.183 154.45C361.001 154.759 347.765 145.723 342.23 141.859C341.082 141.058 340.268 140.473 339.968 140.244C335.414 146.829 332.737 153.984 329.532 161.233C326.347 168.424 322.79 175.309 320.172 182.75C316.118 194.27 311.43 206.317 311.613 218.723C311.754 228.276 311.614 235.796 316.409 244.284C320.207 251.005 324.688 258.225 331.589 262.128C336.89 252.526 342.38 243.018 349.353 234.064C346.06 232.625 343.309 230.178 341.738 226.311Z" fill="black" stroke="black" stroke-width="4" stroke-linecap="round" stroke-linejoin="round"/>
<path d="M417.657 183.109C414.551 186.608 412.926 192.557 410.473 196.639C405.672 204.611 400.377 212.133 393.62 218.58C386.111 225.744 376.642 232.782 366.308 234.959C360.826 236.121 354.43 236.286 349.354 234.053C342.38 243.007 336.902 252.525 331.589 262.117C331.815 262.245 332.029 262.374 332.254 262.49C344.45 268.859 358.987 266.574 371.398 262.345C380.873 259.109 390.156 254.496 398.432 248.879C405.61 244.007 411.989 236.411 418.398 230.42C424.829 224.416 430.713 216.624 434.958 208.886C436.299 206.453 437.073 203.515 438.736 201.286C432.829 194.7 425.053 188.202 417.656 183.097L417.657 183.109Z" fill="white" stroke="black" stroke-width="4" stroke-linecap="round" stroke-linejoin="round"/>
<path d="M339.98 140.232C343.278 138.365 345.044 137.83 348.605 136.621C351.335 135.694 353.658 134.232 355.98 135.162C359.891 136.722 364.272 141.589 367.591 144.309C370.369 146.57 372.971 148.805 376.047 150.52C372.677 152.587 363.08 156.672 359.441 155.261C355.072 153.561 352.033 149.185 347.942 146.779C345.064 145.077 342.886 143.262 339.969 140.244L339.98 140.232Z" fill="white" stroke="black" stroke-width="4" stroke-linecap="round" stroke-linejoin="round"/>
<path d="M409.963 337.257C418.052 338.179 425.611 342.306 432.773 346.116C432.598 343.639 429.591 339.458 428.322 337.322C423.672 329.451 416.666 322.86 410.555 316.11C399.747 304.162 386.968 305.253 374.355 313.978C373.213 314.772 372.12 315.609 371.064 316.492C378.69 324.707 386.454 332.916 394.229 341.112C398.345 337.969 403.78 336.556 409.952 337.269L409.963 337.257Z" fill="white" stroke="black" stroke-width="4" stroke-linecap="round" stroke-linejoin="round"/>
<path d="M394.228 341.112C386.453 332.904 378.689 324.696 371.064 316.492C363.014 323.231 357.858 332.48 357.799 343.407C357.731 356.113 367.447 371.361 374.857 381.367C380.354 388.805 386.653 396.84 394.128 402.358C398.452 405.551 402.894 406.6 407.899 408.293C410.848 409.298 413.805 410.972 416.872 411.544C418.225 411.792 420.183 411.641 423.043 410.523C416.189 405.427 411.338 396.976 406.115 390.184C402.444 385.411 398.02 381.332 394.258 376.598C389.231 370.271 385.132 361.853 386.747 353.732C387.839 348.247 390.491 343.96 394.228 341.112Z" fill="black" stroke="black" stroke-width="4" stroke-linecap="round" stroke-linejoin="round"/>
<path d="M342.049 352.846C343.226 359.367 345.407 365.633 348.053 371.703C350.323 376.924 351.264 381.885 353.945 386.994C358.025 394.788 361.752 402.194 366.35 409.709C368.806 413.719 370.956 417.871 373.196 421.96C372.387 420.496 380.785 411.845 381.977 410.655C385.674 406.966 390.278 404.343 394.276 400.917C396.142 399.314 399.134 395.37 401.761 395.673C393.637 384.51 384.448 373.791 378.43 361.454C372.63 349.569 368.871 335.391 378.469 324.983C371.435 316.809 364.074 308.813 357.388 300.437C343.713 313.096 338.522 333.316 342.049 352.846Z" fill="white" stroke="black" stroke-width="4" stroke-linecap="round" stroke-linejoin="round"/>
<path d="M466.556 337.809C463.434 333.877 460.274 329.646 456.84 325.971C451.871 320.635 447.392 314.906 441.174 311.04C432.682 305.755 424.372 300.162 415.578 295.342C404.671 289.352 390.676 286.247 378.393 289.269C369.972 291.344 362.968 295.26 357.376 300.438C364.05 308.814 371.422 316.798 378.457 324.984C379.028 324.367 379.635 323.76 380.301 323.174C389.819 314.747 404.048 321.562 412.301 328.384C424.452 338.419 434.709 352.15 444.005 364.632C446.526 360.999 450.279 357.515 453.449 354.405C456.575 351.344 459.979 348.536 463.129 345.485C464.289 344.355 466.043 343.555 467.01 342.261C469.097 339.457 468.683 340.482 466.556 337.809Z" fill="black" stroke="black" stroke-width="4" stroke-linecap="round" stroke-linejoin="round"/>
<path d="M400.641 394.697C404.217 397.706 406.63 400.077 409.528 401.974C413.525 404.594 418.088 409.891 422.671 410.991C421.038 413.612 419.254 416.205 417.503 418.773C414.196 423.611 408.899 426.729 404.543 430.669C403.07 432.011 400.629 435.398 398.647 436C396.448 436.683 395.707 435.203 393.54 433.861C389.157 431.145 384.273 428.822 379.739 426.32C377.389 425.022 374.931 424.132 373.209 421.949C373.416 419.488 374.803 419.006 376.38 417.151C380.453 412.369 384.573 407.596 389.24 403.387C392.577 400.385 396.213 395.89 400.652 394.685L400.641 394.697Z" fill="white" stroke="black" stroke-width="4" stroke-linecap="round" stroke-linejoin="round"/>
<path d="M443.274 364.771C449.88 370.977 457.087 376.693 463.942 382.563C466.987 378.766 470.364 374.896 473.591 371.044C476.315 367.793 485.338 361.343 485.593 356.973C485.821 353.263 476.404 347.48 473.505 344.6C472.364 343.464 469.622 339.513 467.941 339.397C465.586 339.231 461.187 345.67 459.498 347.114C453.622 352.132 447.998 359.068 443.263 364.772L443.274 364.771Z" fill="white" stroke="black" stroke-width="4" stroke-linecap="round" stroke-linejoin="round"/>
<path d="M90.231 228.239C89.9248 232.265 90.7583 236.433 89.764 240.572C89.3215 242.454 87.5185 245.14 87.8262 246.998C94.0922 249.209 101.632 248.794 107.702 246.148C114.43 243.217 113.471 237.136 113.381 230.863C113.317 226.578 114.002 222.997 110.028 220.596C103.471 216.642 92.6085 222.312 90.2194 228.24L90.231 228.239Z" fill="white" stroke="black" stroke-width="4" stroke-linecap="round" stroke-linejoin="round"/>
<path d="M46.0444 410.381C44.6582 418.931 32.7651 420.177 26.6985 423.875C21.0361 427.322 24.469 431.217 29.8559 431.955C35.9985 432.785 42.9153 431.659 49.1542 431.352C51.1034 431.26 53.5823 431.859 55.4316 431.366C58.9581 430.413 58.6586 426.046 58.8251 422.733C59.0004 419.118 60.7774 411.74 56.9427 410.095C54.2875 408.95 48.6954 409.978 46.1118 411.071C46.2012 411.495 46.3814 411.151 46.0559 410.38L46.0444 410.381Z" fill="white" stroke="black" stroke-width="4" stroke-linecap="round" stroke-linejoin="round"/>
<path d="M95.7427 417.341C94.2059 420.766 91.0963 423.687 91.0445 427.47C91.0011 430.697 92.2751 433.919 93.0236 437.028C94.0602 441.336 92.7592 446.808 97.0974 449.076C104.612 453.008 107.323 446.302 107.896 439.859C108.204 436.354 108.147 432.716 107.842 429.216C107.586 426.257 106.476 418.45 104.181 416.605C102.39 415.164 96.1183 417.704 95.7432 417.352L95.7427 417.341Z" fill="white" stroke="black" stroke-width="4" stroke-linecap="round" stroke-linejoin="round"/>
<path d="M84.9313 300.793C79.7713 314.1 71.6309 326.23 63.7224 338.129C61.8024 341.029 59.1162 343.862 57.9205 347.166C56.4479 351.213 56.2218 355.951 55.1473 360.106C51.9239 372.569 49.8828 385.346 46.8241 397.871C46.137 400.689 43.0715 408.683 44.1255 411.165C45.6872 414.848 55.0276 416.566 58.4512 417.097C61.3504 417.538 61.4393 417.707 62.7853 415.378C64.8784 411.741 65.0997 406.171 66.334 402.217C67.5683 398.263 69.5493 394.701 70.9033 390.834C73.8464 382.453 75.9182 373.246 77.725 364.549C78.675 359.961 82.5922 355.059 85.0029 351.049C87.7882 346.409 91.4539 341.565 95.0289 337.489C95.4673 336.982 98.5306 334.306 98.5862 334.014C97.1095 341.875 95.289 349.798 94.3588 357.726C93.4297 365.676 94.2925 373.634 93.6644 381.594C93.0164 389.866 92.8083 398.152 92.2069 406.434C91.9756 409.601 91.8377 412.786 91.4093 415.939C91.2795 416.858 90.2557 420.132 90.6131 420.843C91.8928 423.453 100.353 423.19 102.875 423.232C104.61 423.254 107.978 423.094 108.998 421.694C109.638 420.808 109.472 418.296 109.619 417.237C110.209 412.874 110.707 408.504 111.601 404.185C114.592 389.745 116.425 375.024 118.193 360.387C119.612 348.622 127.865 339.122 129.998 327.542C131.632 318.622 128.504 310.667 125.083 302.391C124.287 300.476 123.449 297.683 121.4 296.879C119.987 296.333 116.833 297.107 115.242 297.183C111.459 297.362 107.687 297.529 103.904 297.72C101.829 297.819 84.6319 298.38 84.9319 300.805L84.9313 300.793Z" fill="black" stroke="black" stroke-width="4" stroke-linecap="round" stroke-linejoin="round"/>
<path d="M26.377 293.502C29.1082 290.645 36.6706 290.702 37.9373 286.458C40.2097 278.802 21.9294 286.003 19.8489 286.738C14.4598 288.635 10.1392 291.857 8.72613 297.645C8.30016 299.388 2.82376 312.606 8.01606 308.753C10.886 306.629 10.8732 301.728 12.7987 298.943C13.5019 297.928 15.8591 294.741 17.19 296.481C18.2991 297.931 12.3926 305.979 18.2432 302.847C22.155 300.754 23.4811 296.541 26.3776 293.514L26.377 293.502Z" fill="white" stroke="black" stroke-width="4" stroke-linecap="round" stroke-linejoin="round"/>
<path d="M163.283 214.094C164.365 210.598 166.015 207.85 166.607 204.238C167.28 200.161 167.421 196.062 169.099 192.203C170.109 189.866 177.883 179.984 180.537 180.39C182.091 183.911 177.611 188.389 175.682 190.862C174.679 192.146 174.165 193.003 174.16 194.598C174.154 195.939 173.729 198.179 174.349 199.317C175.452 201.368 176.14 198.087 176.405 197.081C176.669 196.074 176.971 192.685 178.642 193.068C180.698 193.537 179.571 199.011 179.411 200.279C179.225 201.721 179.265 203.28 178.811 204.677C178.174 206.614 176.609 208.457 175.438 210.085C173.433 212.908 171.197 215.476 169.503 218.515C168.47 220.367 168.17 221.607 166.177 220.777C165.128 220.341 163.106 219.142 162.82 217.988C162.508 216.766 163.558 214.543 163.294 214.082L163.283 214.094Z" fill="white" stroke="black" stroke-width="4" stroke-linecap="round" stroke-linejoin="round"/>
<path d="M82.9317 250.317C72.873 256.851 63.9757 264.474 53.5277 270.599C46.4087 274.774 36.7374 279.972 28.2561 280.282C28.8641 282.865 31.3656 292.225 33.5181 293.984C35.0336 295.23 38.5146 294.291 40.2924 293.998C47.1279 292.865 54.3574 291.019 60.8949 288.721C67.4324 286.423 73.6873 283.04 80.1925 280.547C85.0741 278.674 88.4718 276.71 90.1111 271.546C92.5664 263.846 90.5249 253.216 82.9328 250.34L82.9317 250.317Z" fill="white" stroke="black" stroke-width="4" stroke-linecap="round" stroke-linejoin="round"/>
<path d="M171.226 221.15C167.618 234.522 153.748 243.814 144.273 253.153C141.148 256.237 136.684 257.408 133.201 260.001C128.322 263.654 130.598 267.279 131.359 272.352C132.186 277.838 131.408 283.389 133.084 288.731C134.568 293.458 134.801 299.353 134.554 304.382C134.411 307.22 134.46 312.882 130.971 313.891C128.759 314.528 126.793 313.546 124.606 313.245C122.232 312.919 119.837 312.87 117.451 312.764C113.871 312.599 110.609 312.048 107.026 312.299C102.659 312.599 98.2944 312.944 93.9151 312.979C89.8126 313 76.4687 313.147 79.1656 305.668C82.1878 297.248 82.6828 291.11 79.4392 282.675C77.7518 278.293 76.3528 273.898 77.4109 269.154C78.3651 264.902 82.1026 261.326 81.8541 256.818C81.651 253.268 81.611 252.911 83.7337 249.655C86.4921 245.42 91.8956 245.291 96.4331 245.423C104.802 245.662 111.307 242.186 118.629 238.891C124.107 236.424 130.039 236.223 135.206 232.811C144.699 226.547 156.167 220.477 162.983 211.126C167.147 212.663 172.425 216.701 171.226 221.162L171.226 221.15Z" fill="white" stroke="black" stroke-width="4" stroke-linecap="round" stroke-linejoin="round"/>
<path d="M113.311 223.566C113.465 223.091 113.594 222.618 113.699 222.172C115.177 216.096 114.954 209.52 113.568 203.453C112.293 197.848 111.422 193.84 106.174 190.404C102.345 187.898 98.2225 185.835 93.7811 187.964C89.6239 189.965 86.6832 193.94 84.8222 198.066C80.805 207.013 81.6602 217.862 87.5918 225.87C90.9756 230.442 96.5917 236.32 102.969 234.844C108.598 233.543 111.724 228.688 113.299 223.579L113.311 223.566Z" fill="white" stroke="black" stroke-width="4" stroke-linecap="round" stroke-linejoin="round"/>
<path d="M103.786 213.814C105.286 215.314 105.286 218.315 102.843 218.875" stroke="black" stroke-width="4" stroke-linecap="round" stroke-linejoin="round"/>
<path d="M105.25 207.092C108.147 204.531 109.2 205.52 111.206 205.176" stroke="black" stroke-width="4" stroke-linecap="round" stroke-linejoin="round"/>
<path d="M97.2392 209.642C95.3284 208.041 91.7634 209.497 90.2964 210.972" stroke="black" stroke-width="4" stroke-linecap="round" stroke-linejoin="round"/>
<path d="M102.408 201.307C103.883 199.168 108.714 197.538 110.952 198.958" stroke="black" stroke-width="4" stroke-linecap="round" stroke-linejoin="round"/>
<path d="M95.9385 203.078C92.9812 201.779 89.5681 203.958 87.7115 206.269" stroke="black" stroke-width="4" stroke-linecap="round" stroke-linejoin="round"/>
<path d="M107.65 206.546C107.4 207.218 107.166 207.986 107.895 208.298C108.151 207.766 108.147 206.987 107.535 206.865C107.409 207.401 107.52 207.926 107.859 208.213C107.898 207.454 108.011 206.626 107.354 206.246C107.313 206.746 107.365 207.165 107.589 207.555C107.615 207.175 107.663 206.816 107.644 206.427C107.584 206.765 107.752 206.876 107.83 207.143" stroke="black" stroke-width="4" stroke-linecap="round" stroke-linejoin="round"/>
<path d="M93.4085 209.824C93.3569 210.493 93.5401 211.092 93.9691 211.596C93.9601 211.406 93.9506 210.703 93.9529 210.751C93.9013 211.421 94.1135 211.625 94.3608 212.066C94.6439 211.505 94.4703 210.858 93.962 210.441C93.9512 210.966 93.9273 211.467 94.1395 211.922C94.1543 211.48 94.1453 211.04 94.0763 210.59C94.0468 210.973 93.972 211.405 94.0048 211.845C94.0048 211.845 93.8357 211.043 93.7904 210.842C93.6228 211.327 93.7003 211.454 93.8208 211.985C94.0421 212.129 94.2057 212.062 94.3354 211.781" stroke="black" stroke-width="4" stroke-linecap="round" stroke-linejoin="round"/>
<path d="M98.9902 223.7C101.285 225.315 105.215 225.894 107.484 222.47" stroke="black" stroke-width="4" stroke-linecap="round" stroke-linejoin="round"/>
<path d="M81.1059 248.452C79.6245 249.39 78.1865 250.267 77.0735 251.903C74.891 255.116 73.7159 262.755 68.2693 261.002C67.0364 260.598 66.802 259.8 65.2725 259.965C63.9269 260.11 62.6339 261.119 61.4476 261.695C58.9282 262.924 56.3594 263.844 54.4048 261.139C53.6751 260.133 53.9493 259.092 53.6327 258.02C53.4954 257.564 52.8699 257.536 52.764 257.009C51.7621 252.214 56.4907 249.308 59.0736 246.249C64.546 239.771 61.6299 230.442 62.2772 222.886C62.5684 219.52 63.9118 216.162 65.9944 213.521C68.0769 210.879 70.0383 209.584 70.726 206.291C71.9865 200.209 72.0746 193.535 76.0479 188.353C77.7245 186.17 80.0638 184.556 82.7544 184.013C83.8765 183.786 85.4363 183.527 86.5714 183.82C89.532 184.581 90.1408 188.402 92.0527 188.01C92.7475 190.232 93.4379 192.603 93.6423 194.963C94.101 200.247 90.7803 204.08 87.921 208.134C85.9719 210.909 83.5798 212.872 84.1063 216.418C84.6849 220.333 86.4741 223.692 88.416 227.103C90.1311 230.119 89.6488 233.598 88.7293 236.878C87.7115 240.522 86.3438 244.343 83.3656 246.866C82.6323 247.49 81.8584 247.989 81.1064 248.464L81.1059 248.452Z" fill="black" stroke="black" stroke-width="4" stroke-linecap="round" stroke-linejoin="round"/>
<path d="M115.487 237.957C113.146 238.553 111.267 237.926 111.006 235.349C110.738 232.634 111.988 230.713 112.705 228.275C114.867 220.983 115.338 212.869 113.53 205.464C113.014 203.362 112.23 201.203 110.844 199.512C109.457 197.82 107.161 198.889 105.281 197.995C102.538 196.692 101.601 195.392 99.7852 193.178C98.2148 191.264 96.4998 190.517 93.7504 191.526C93.6126 188.134 93.6709 184.975 96.8665 182.893C100.062 180.812 103.916 180.663 106.686 183.249C109.455 185.834 110.368 189.963 112.289 193.178C114.599 197.045 118.975 197.924 121.399 201.508C122.494 203.132 123.528 205.684 124.001 207.615C124.702 210.448 123.449 212.554 122.722 215.258C121.196 220.856 126.497 230.025 122.365 234.787C121.127 236.221 117.326 237.488 115.487 237.957Z" fill="black" stroke="black" stroke-width="4" stroke-linecap="round" stroke-linejoin="round"/>
<path d="M124.691 252.174C123.654 256.142 122.524 259.606 122.914 263.933" stroke="black" stroke-width="4" stroke-linecap="round" stroke-linejoin="round"/>
<path d="M94.6633 267.619C94.8302 271.137 94.4752 274.864 96.2776 278.015C99.3905 283.451 105.293 283.125 110.31 285.568" stroke="black" stroke-width="4" stroke-linecap="round" stroke-linejoin="round"/>
<path d="M123.233 278.725C123.16 285.711 126.774 292.452 128.043 299.223C128.924 303.909 128.186 308.81 128.386 313.528" stroke="black" stroke-width="4" stroke-linecap="round" stroke-linejoin="round"/>
<path d="M110.379 311.643C110.835 320.29 112.883 324.713 122.347 325.871" stroke="black" stroke-width="4" stroke-linecap="round" stroke-linejoin="round"/>
<path d="M122.587 314.566C121.616 318.231 123.093 322.31 122.52 326.071C121.803 330.706 118.45 334.332 116.722 338.599" stroke="black" stroke-width="4" stroke-linecap="round" stroke-linejoin="round"/>
<path d="M86.3563 313.95C84.3777 319.025 80.1893 319.918 75.8119 321.454" stroke="black" stroke-width="4" stroke-linecap="round" stroke-linejoin="round"/>
<path d="M586.191 472.301C585.834 472.318 585.61 472.225 585.219 472.267C584.85 476.677 583.064 480.946 582.537 485.421C582.365 486.92 582.349 488.528 581.904 489.878C585.508 490.066 589.874 491.708 593.169 492.939C593.446 491.955 594.131 491.032 594.279 490.008C596.966 493.059 600.136 496.758 604.093 498.073C608.251 499.448 613.083 499.704 617.425 500.111C619.027 500.255 624.191 501.64 625.573 500.811C627.472 499.669 627.804 494.972 626.897 493.397C625.185 490.427 619.967 487.888 617.397 485.617C615.117 483.61 612.685 481.564 611.093 478.946C609.451 476.25 609.676 471.985 607.235 470.24C604.112 467.995 591.348 467.942 588.184 469.71C588.11 470.095 588.185 470.462 586.204 472.324L586.191 472.301Z" fill="black" stroke="black" stroke-width="4" stroke-linecap="round" stroke-linejoin="round"/>
<path d="M516.832 477.533C511.214 479.961 510.991 489.635 508.503 494.7C510.537 496.627 511.916 499.393 513.685 501.587C512.837 500.529 516.929 499.803 517.504 499.984C519.967 500.722 519.239 502.433 520.024 504.13C522.739 509.942 527.825 514.81 533.941 516.786C538.284 518.186 546.748 518.987 547.871 512.912C548.147 511.419 545.802 508.525 545.068 507.438C542.075 503.072 539.813 498.278 537.361 493.609C536.294 491.579 534.702 489.458 534.089 487.245C533.698 485.83 534.073 484.229 533.523 482.868C531.506 477.889 523.201 476.306 518.441 477.075C517.867 477.172 517.331 477.324 516.844 477.532L516.832 477.533Z" fill="black" stroke="black" stroke-width="4" stroke-linecap="round" stroke-linejoin="round"/>
<path d="M613.647 436.253C613.673 444.366 612.843 452.451 611.802 460.487C611.362 463.883 611.256 466.767 611.401 470.077C611.509 472.349 611.957 476.432 609.231 477.451C607.187 478.218 604.845 477.104 602.78 477.179C601.049 477.238 599.649 477.952 597.969 478.101C593.249 478.521 587.982 476.655 583.317 476.021C586.306 468.112 587.381 459.102 587.884 450.698C588.304 443.696 587.947 436.431 585.561 429.747C581.082 417.187 565.245 409.858 557.482 399.245C556.135 397.402 551.751 392.466 551.988 390.143C551.227 397.739 551.535 405.931 552.113 413.498C552.689 421.019 551.019 428.704 549.404 436.074C545.861 452.286 539.869 468.777 537.827 485.172C531.972 484.571 526.186 484.672 520.295 483.31C517.888 482.754 512.689 482.573 510.796 480.929C509.241 479.58 509.492 480.482 509.913 477.664C513.207 455.708 525.42 434.888 522.179 412.606C520.565 401.481 515.881 390.48 518.017 379.212C520.042 368.528 522.496 354.714 531.844 347.566C533.868 345.401 538.55 340.29 542.374 339.264C547.624 337.86 558.598 340.876 563.493 342.459C566.969 343.589 570.946 345.065 572.939 348.345C574.933 351.626 574.389 355.998 573.871 359.698C572.705 368.019 580.71 373.754 585.578 379.649C591.98 387.414 598.485 395.139 604.005 403.558C606.821 407.852 609.17 412.306 611.423 416.904C614.122 422.394 613.627 430.231 613.644 436.206L613.647 436.253Z" fill="white" stroke="black" stroke-width="4" stroke-linecap="round" stroke-linejoin="round"/>
<path d="M619.492 367.903C617.863 369.876 627.018 373.534 629.213 374.008C631.409 374.482 633.676 374.744 635.954 374.763C638.394 374.798 639.92 374.806 641.182 373.128C642.693 371.115 642.356 368.645 640.468 366.862C638.713 365.2 635.646 364.386 633.249 363.806C629.542 362.896 625.77 361.352 621.958 360.92" fill="white"/>
<path d="M619.492 367.903C617.863 369.876 627.018 373.534 629.213 374.008C631.409 374.482 633.676 374.744 635.954 374.763C638.394 374.798 639.92 374.806 641.182 373.128C642.693 371.115 642.356 368.645 640.468 366.862C638.713 365.2 635.646 364.386 633.249 363.806C629.542 362.896 625.77 361.352 621.958 360.92" stroke="black" stroke-width="4" stroke-linecap="round" stroke-linejoin="round"/>
<path d="M636.012 355.052C634.257 361.181 630.581 377.018 630.709 377.047C633.215 377.725 635.432 379.377 638.006 380.03C639.188 380.332 643.112 381.429 644.345 380.862C647.535 379.404 649.48 371.417 650.648 368.507C652.002 365.125 653.406 361.822 654.501 358.348C650.798 358.744 646.649 356.813 642.953 355.902C640.824 355.367 638.425 354.256 636.751 352.833C636.592 353.152 636.341 353.95 636.013 355.064L636.012 355.052Z" fill="black" stroke="black" stroke-width="4" stroke-linecap="round" stroke-linejoin="round"/>
<path d="M655.168 357.299C654.654 353.775 648.466 351.757 644.941 350.779C643.254 350.305 639.931 349.468 638.167 350.292C637.851 350.445 637.583 350.643 637.376 350.907C635.559 353.317 639.904 355.237 642.201 356.146C644.451 357.033 655.648 360.594 655.168 357.299Z" fill="white" stroke="black" stroke-width="4" stroke-linecap="round" stroke-linejoin="round"/>
<path d="M625.876 357.325C627.116 357.878 628.394 358.5 629.418 358.648C632.013 359.01 634.727 358.72 637.092 360.087C638.72 361.027 643.881 365.036 644.223 367.124C644.856 370.977 639.791 367.264 638.577 366.536C634.972 364.372 633.016 367.239 629.339 367.702C626.65 368.038 619.333 367.31 619.57 363.542C619.846 359.125 620.906 355.133 625.876 357.325Z" fill="white" stroke="black" stroke-width="4" stroke-linecap="round" stroke-linejoin="round"/>
<path d="M521.707 357.572C521.576 357.231 521.467 356.889 521.369 356.536C520.799 354.505 519.558 350.761 516.752 351.553C508.756 353.816 508.013 367.399 510.373 373.529C511.665 376.878 511.178 379.282 509.409 382.441C508.513 384.032 506.434 386.015 508.142 387.425C510.019 388.977 512.098 386.983 513.213 385.636C512.608 386.277 511.993 386.965 511.645 387.663C513.327 388.034 514.448 386.583 515.686 385.622C515.315 386.079 515.174 386.779 514.886 387.279C517.017 387.859 519.491 385.419 520.633 383.908C522.699 381.175 523.043 378.188 524.265 375.194C524.074 377.018 523.909 378.655 523.13 380.253C527.352 378.122 527.454 372.476 526.787 368.416C526.121 364.356 523.124 361.365 521.707 357.572Z" fill="white" stroke="black" stroke-width="4" stroke-linecap="round" stroke-linejoin="round"/>
<path d="M560.537 281.104C559.218 280.843 557.846 280.677 556.399 280.63C539.404 280.083 526.458 294.464 518.435 307.849C514.193 314.916 510.759 322.708 507.912 330.426C506.837 333.355 506.173 362.262 508.245 362.556C514.296 363.414 520.294 363.129 526.329 363.409C524.805 349.299 530.222 332.408 539.297 321.459C538.325 328.741 527.516 343.101 532.028 348.783C536.638 354.598 545.006 355.542 551.681 357.618C558.192 359.633 573.163 366.24 576.137 357.788C579.785 347.443 583.315 337.057 587.182 326.713C586.937 334.712 586.086 344.057 589.902 351.413C592.548 356.501 597.847 361.243 602.445 364.597C606.049 367.223 612.328 372.647 617.049 372.019C620.863 371.514 624.115 360.136 625.767 355.48C617.693 351.956 609.681 339.008 608.414 330.561C607.533 324.673 606.369 318.648 606.734 312.701C607.008 308.237 607.223 306.193 604.229 302.289C598.708 295.072 589.595 291.077 581.008 288.907C573.485 286.998 567.948 282.602 560.538 281.127L560.537 281.104Z" fill="black" stroke="black" stroke-width="4" stroke-linecap="round" stroke-linejoin="round"/>
<path d="M571.784 272.814C570.956 278.76 564.245 286.905 566.522 292.738C567.917 296.336 571.806 299.354 575.555 300.17C583.87 301.96 584.541 291.745 586.497 286.67C587.011 285.328 592.819 277.792 592.784 276.314C592.69 272.146 576.878 273.474 571.784 272.814Z" fill="white" stroke="black" stroke-width="4" stroke-linecap="round" stroke-linejoin="round"/>
<path d="M578.373 240.634C576.222 241.834 574.283 243.59 572.633 246.107C569.658 250.641 567.906 256.353 567.096 261.686C566.035 268.568 567.146 277.624 574.271 281.123C585.443 286.616 596.393 276.699 601.039 267.162C605.105 258.82 607.437 239.024 593.821 238.294C588.154 237.997 582.809 238.146 578.373 240.634Z" fill="white" stroke="black" stroke-width="4" stroke-linecap="round" stroke-linejoin="round"/>
<path d="M572.467 242.821C569.537 240.521 567.821 236.753 568.73 232.04C569.129 229.964 572.886 225.347 572.551 223.872C572.873 225.301 572.232 227.158 573.119 228.538C573.897 225.206 575.566 221.636 578.367 219.527C578.195 222.494 577.933 224.761 579.644 227.442C580.062 225.769 581.524 218.834 583.383 219.035C584.034 219.108 584.703 221.03 585.083 221.474C586.957 223.697 589.144 224.726 591.639 226.145C599.254 230.488 605.757 237.462 604.232 246.736C604.574 244.685 598.809 240.844 597.18 240.389C593.138 239.24 590.078 241.246 586.822 243.273C581.983 246.288 576.224 245.764 572.467 242.821Z" fill="black" stroke="black" stroke-width="4" stroke-linecap="round" stroke-linejoin="round"/>
<path d="M603.51 244.25C603.04 244.087 602.548 243.96 602.035 243.869C598.443 243.184 594.003 244.134 594.471 248.898C594.975 253.914 600.43 256.822 601.234 261.824C601.724 264.852 601.26 267.984 600.907 271.017C603.324 266.903 607.058 263.975 608.887 259.161C611.117 253.298 609.62 246.341 603.511 244.261L603.51 244.25Z" fill="black" stroke="black" stroke-width="4" stroke-linecap="round" stroke-linejoin="round"/>
<path d="M577.589 258.263C575.337 261.237 570.072 262.827 575.44 265.613" stroke="black" stroke-width="4" stroke-linecap="round" stroke-linejoin="round"/>
<path d="M583.734 257.683C586.161 257.661 588.692 259.367 589.762 261.443" stroke="black" stroke-width="4" stroke-linecap="round" stroke-linejoin="round"/>
<path d="M584.756 259.23C584.228 259.81 583.943 260.367 584.037 261.148C585.064 261.342 585.28 260.777 585.561 259.885" stroke="black" stroke-width="4" stroke-linecap="round" stroke-linejoin="round"/>
<path d="M577.019 255.02C576.795 252.487 574.256 250.862 571.926 250.476" stroke="black" stroke-width="4" stroke-linecap="round" stroke-linejoin="round"/>
<path d="M572.583 252.86C572.583 252.86 572.481 253.882 572.544 253.255C572.441 254.266 572.397 254.302 572.972 254.969C573.603 254.627 573.886 254.024 573.99 253.291" stroke="black" stroke-width="4" stroke-linecap="round" stroke-linejoin="round"/>
<path d="M585.617 253.213C589.168 253.253 590.964 256.034 592.633 258.81" stroke="black" stroke-width="4" stroke-linecap="round" stroke-linejoin="round"/>
<path d="M571.004 269.545C574.283 271.814 578.498 272.295 581.283 270.314" stroke="black" stroke-width="4" stroke-linecap="round" stroke-linejoin="round"/>
<path d="M596.787 267.71C598.953 265.122 602.336 266.742 602.125 270.081C601.89 273.664 594.756 276.557 594.228 272.976" fill="white"/>
<path d="M596.787 267.71C598.953 265.122 602.336 266.742 602.125 270.081C601.89 273.664 594.756 276.557 594.228 272.976" stroke="black" stroke-width="4" stroke-linecap="round" stroke-linejoin="round"/>
<path d="M555.92 377.01C554.51 382.626 551.117 389.803 551.598 395.802" stroke="black" stroke-width="4" stroke-linecap="round" stroke-linejoin="round"/>
<path d="M538.486 419.138C537.583 422.764 539.97 427.991 542.107 430.641" stroke="black" stroke-width="4" stroke-linecap="round" stroke-linejoin="round"/>
<path d="M596.52 416.791C598.161 421.417 600.642 427.183 605.682 428.643" stroke="black" stroke-width="4" stroke-linecap="round" stroke-linejoin="round"/>
<path d="M469.906 71.0647C470.059 70.7181 470.236 70.3841 470.435 70.0744C472.979 65.9413 477.797 64.1795 481.1 60.8134C484.989 56.8347 489.529 56.6005 494.402 54.2891C496.241 53.4168 498.198 52.5372 500.301 52.8131C502.181 53.0575 502.649 54.0722 504.313 55.1186C506.528 56.5137 507.896 56.9742 508.516 59.6143C508.769 60.7268 494.234 65.6804 493.01 67.0562C495.182 68.6845 499.832 67.0105 502.476 68.2217C500.624 70.725 495.95 72.4098 492.996 72.9598C489.025 73.7076 484.788 72.0747 480.945 73.1794C477.896 74.0546 474.694 75.9454 472.374 78.0913C470.43 79.8871 468.756 82.033 468.732 77.8417C468.717 75.6814 468.985 73.144 469.917 71.0885L469.906 71.0647Z" fill="white" stroke="black" stroke-width="4" stroke-linecap="round" stroke-linejoin="round"/>
<path d="M545.831 126.22C546.688 126.533 548.007 126.417 548.736 127.042C549.464 127.667 549.151 129.17 549.972 129.857C556.029 135.018 563.605 116.783 565.758 112.436C568.24 107.432 570.925 101.05 570.123 95.3402C568.976 87.176 562.919 91.3811 559.304 95.581C555.884 99.5651 552.133 104.593 547.062 106.546C544.527 107.522 541.525 107.436 538.922 108.327C534.524 109.834 531.996 112.877 533.01 117.585C533.993 122.187 541.892 124.786 545.832 126.209L545.831 126.22Z" fill="black" stroke="black" stroke-width="4" stroke-linecap="round" stroke-linejoin="round"/>
<path d="M540.728 102.536C534.201 100.303 527.58 100.978 521.012 98.8969C514.049 96.6955 506.872 95.2258 499.924 92.9428C491.723 90.2504 486.962 90.7818 479.731 96.2706C473.817 100.763 467.649 105.093 461.411 109.139C457.359 111.774 453.303 115.84 448.222 116.113C443.071 116.384 438.479 116.464 437.1 122.752C436.874 123.8 436.7 125.038 436.617 126.35C436.372 130.519 437.132 135.442 440.2 137.596C445.912 141.583 455.589 141.124 462.224 141.365C469.292 141.622 475.786 138.959 481.239 134.567C483.754 132.546 486.397 130.247 488.013 127.43C489.643 124.578 490.651 121.058 493.539 119.109C494.369 118.552 494.133 118.579 494.982 118.481C495.04 118.483 495.076 118.473 495.135 118.463C495.336 118.435 495.57 118.455 495.827 118.488C497.147 118.642 499.057 119.38 500.07 119.605C504.217 120.483 507.847 122.352 511.894 123.368C516.024 124.398 520.467 125.51 524.464 126.97C527.198 127.973 530.165 128.034 532.939 128.886C535.261 129.604 535.57 130.46 536.662 128.2C537.893 125.662 537.808 121.527 538.249 118.761C538.431 117.618 541.192 102.694 540.728 102.536Z" fill="white"/>
<path d="M494.982 118.481C494.133 118.579 494.369 118.552 493.539 119.109C490.651 121.058 489.643 124.578 488.013 127.43C486.397 130.247 483.754 132.546 481.239 134.567C475.786 138.959 469.292 141.622 462.224 141.365C455.589 141.124 445.912 141.583 440.2 137.596C437.132 135.442 436.372 130.519 436.617 126.35C436.7 125.038 436.874 123.8 437.1 122.752C438.479 116.464 443.071 116.384 448.222 116.113C453.303 115.84 457.359 111.774 461.411 109.139C467.649 105.093 473.816 100.763 479.731 96.2706C486.962 90.7818 491.723 90.2504 499.924 92.9428C506.872 95.2258 514.049 96.6955 521.012 98.8969C527.58 100.978 534.201 100.303 540.728 102.536C541.192 102.694 538.431 117.618 538.249 118.761C537.808 121.527 537.893 125.662 536.662 128.2C535.57 130.46 535.261 129.604 532.939 128.886C530.165 128.034 527.198 127.973 524.464 126.97C520.467 125.51 516.024 124.398 511.894 123.368C507.847 122.352 504.217 120.483 500.07 119.605C499.057 119.38 497.147 118.642 495.827 118.488M494.982 118.481C493.791 116.689 492.564 114.93 490.34 114.098M494.982 118.481C495.04 118.483 495.076 118.473 495.135 118.463C495.336 118.435 495.57 118.455 495.827 118.488M495.827 118.488C495.265 116.496 494.978 114.372 496.286 111.979" stroke="black" stroke-width="4" stroke-linecap="round" stroke-linejoin="round"/>
<path d="M508.833 178.236C510.157 181.524 512.145 184.648 512.839 188.159C513.779 192.959 512.591 198.198 519.694 196.543C524.82 195.356 529.391 191.343 533.885 188.783C538.38 186.223 544.1 185.163 548.138 181.906C551.064 179.559 555.739 171.395 552.538 167.746C549.878 164.715 541.943 167.619 538.412 167.89C533.939 168.232 529.8 169.42 525.435 168.088C521.279 166.822 514 161.029 509.697 164.464C505.563 167.765 506.744 173.055 508.833 178.236Z" fill="black" stroke="black" stroke-width="4" stroke-linecap="round" stroke-linejoin="round"/>
<path d="M517.286 159.481C512.262 155.93 508.845 151.122 505.002 146.405C499.586 139.752 494.231 133.043 489.358 125.976C487.496 123.268 486.039 118.801 482.988 117.482C479.244 115.855 474.318 116.709 470.621 118.007C464.439 120.165 458.88 121.324 452.535 122.784C448.109 123.797 444.399 124.778 439.79 124.352C438.164 124.199 435.523 123.211 433.953 123.799C426.729 126.507 419.283 145.369 421.276 153.517C429.486 163.722 449.01 158.116 459.096 154.48C462.402 153.285 466.69 148.981 470.358 148.832C470.511 148.826 470.675 148.82 470.828 148.826C470.945 148.83 471.072 148.87 471.201 148.898C472.479 147.301 474.424 146.116 475.179 144.077C474.412 146.115 472.467 147.312 471.201 148.898C474.17 149.558 477.929 155.622 479.868 157.817C483.408 161.807 487.077 165.837 491.264 169.17C495.907 172.86 501.242 175.284 505.992 178.614C507.087 175.602 509.683 172.656 511.585 170.061C513.041 168.083 515.242 166.649 516.926 164.867C519.343 162.314 520.216 161.536 517.298 159.47L517.286 159.481Z" fill="white"/>
<path d="M470.358 148.832C466.69 148.981 462.402 153.285 459.096 154.48C449.01 158.116 429.486 163.722 421.276 153.517C419.283 145.369 426.729 126.507 433.953 123.799C435.523 123.211 438.164 124.199 439.79 124.352C444.399 124.778 448.109 123.797 452.535 122.784C458.88 121.324 464.439 120.165 470.621 118.007C474.318 116.709 479.244 115.855 482.988 117.482C486.039 118.801 487.496 123.268 489.358 125.976C494.231 133.043 499.586 139.752 505.002 146.405C508.845 151.122 512.262 155.93 517.286 159.481L517.298 159.47C520.216 161.536 519.343 162.314 516.926 164.867C515.242 166.649 513.041 168.083 511.585 170.061C509.683 172.656 507.087 175.602 505.992 178.614C501.242 175.284 495.907 172.86 491.264 169.17C487.077 165.837 483.408 161.807 479.868 157.817C477.929 155.622 474.17 149.558 471.201 148.898M470.358 148.832C469.963 146.775 469.474 144.727 468.188 142.638M470.358 148.832C470.511 148.826 470.675 148.82 470.828 148.826C470.945 148.83 471.072 148.87 471.201 148.898M471.201 148.898C472.479 147.301 474.424 146.116 475.179 144.077C474.412 146.115 472.467 147.312 471.201 148.898Z" stroke="black" stroke-width="4" stroke-linecap="round" stroke-linejoin="round"/>
<path d="M476.213 60.8942C472.16 64.2214 466.045 67.1332 461.395 69.7696C456.744 72.4061 451.101 75.2412 445.714 76.2075C434.419 78.227 423.227 69.9913 413.845 64.6033C404.089 64.3311 416.339 89.3081 419.215 92.5465C424.808 98.8533 440.701 98.5151 448.751 98.2675C457.987 97.9809 465.997 90.4075 472.815 84.6572C475.067 82.7553 478.606 80.6536 478.814 77.8441C479.096 73.934 476.595 65.2393 476.212 60.9176L476.213 60.8942Z" fill="white" stroke="black" stroke-width="4" stroke-linecap="round" stroke-linejoin="round"/>
<path d="M450.817 114.177C449.916 115.083 439.691 109.617 438.484 108.916C435.287 107.086 432.161 104.931 430.451 101.594C426.845 94.5607 426.828 85.9798 424.184 78.6415C422.776 74.7404 420.208 68.52 416.596 65.8651C416.424 65.7415 416.253 65.6179 416.069 65.5056C411.775 62.8495 406.644 66.7831 402.167 68.522C395.953 70.9372 389.099 71.2165 383.121 74.2273C376.569 77.5106 374.361 83.6984 373.316 90.4918C373.132 91.6707 378.832 97.3006 379.715 98.5182C381.861 101.495 383.849 104.608 385.55 107.862C389.106 114.647 389.658 121.439 391.949 128.483C396.997 143.973 407.631 153.033 420.464 161.974C422.49 152.082 430.963 146.004 434.955 137.241C438.845 128.708 444.059 120.892 450.806 114.165L450.817 114.177Z" fill="black" stroke="black" stroke-width="4" stroke-linecap="round" stroke-linejoin="round"/>
<path d="M406.232 61.9207C405.809 66.4479 404.91 72.1433 402.194 74.5213C398.485 77.7671 389.875 74.0386 385.266 73.9299C386.501 68.0472 387.671 62.3381 387.903 56.2781C388.132 50.2884 392.364 47.8598 398.143 47.4359C404.051 47.0049 406.87 53.0701 406.51 58.1395C406.437 59.1933 406.354 60.5049 406.22 61.932L406.232 61.9207Z" fill="white" stroke="black" stroke-width="4" stroke-linecap="round" stroke-linejoin="round"/>
<path d="M380.685 47.5647C380.359 45.5574 380.503 47.5493 380.349 44.5359C380.144 40.5024 380.711 35.8748 382.212 32.0441C382.742 30.7017 383.386 29.4574 384.141 28.3698C388.078 22.7378 398.823 22.2947 404.04 26.0173C412.781 32.2506 412.69 48.3281 409.034 57.1982C405.251 66.3454 397.263 70.7152 388.822 63.3424C384.191 59.3007 381.689 53.5405 380.685 47.5647Z" fill="white" stroke="black" stroke-width="4" stroke-linecap="round" stroke-linejoin="round"/>
<path d="M409.258 41.9118C411.035 41.1313 412.141 43.0025 412.413 44.5735C412.879 47.2315 410.654 50.3316 408.667 52.0318" fill="white"/>
<path d="M409.258 41.9118C411.035 41.1313 412.141 43.0025 412.413 44.5735C412.879 47.2315 410.654 50.3316 408.667 52.0318" stroke="black" stroke-width="4" stroke-linecap="round" stroke-linejoin="round"/>
<path d="M390.924 47.0563C390.798 50.5496 389.168 53.4014 393.499 53.4061" stroke="black" stroke-width="4" stroke-linecap="round" stroke-linejoin="round"/>
<path d="M394.263 41.4449C395.929 39.8504 398.737 39.119 400.773 40.6015" stroke="black" stroke-width="4" stroke-linecap="round" stroke-linejoin="round"/>
<path d="M379.752 44.3056C381.418 42.711 384.894 41.3184 386.929 42.8009" stroke="black" stroke-width="4" stroke-linecap="round" stroke-linejoin="round"/>
<path d="M391.996 58.9739C394.319 58.9879 397.111 58.3851 398.772 56.626" stroke="black" stroke-width="4" stroke-linecap="round" stroke-linejoin="round"/>
<path d="M395.488 46.1423C397.088 45.7192 398.513 45.6066 400.259 45.67" stroke="black" stroke-width="4" stroke-linecap="round" stroke-linejoin="round"/>
<path d="M396.559 46.4043C396.692 46.9253 396.726 47.2785 397.159 47.6344C397.464 47.3053 397.344 47.078 397.406 46.6462" stroke="black" stroke-width="4" stroke-linecap="round" stroke-linejoin="round"/>
<path d="M380.945 48.4193C382.516 47.5022 384.824 47.316 386.595 47.3334" stroke="black" stroke-width="4" stroke-linecap="round" stroke-linejoin="round"/>
<path d="M382.453 48.2627C383.059 48.6953 383.262 49.2423 383.001 49.9836C382.309 49.9702 382.556 49.6273 382.422 49.1297" stroke="black" stroke-width="4" stroke-linecap="round" stroke-linejoin="round"/>
<path d="M421.038 128.707C427.781 131.147 440.777 124.599 445.04 132.619C445.821 134.079 447.009 142.069 446.313 143.464C445.035 146.011 439.397 146.757 437.061 147.107C435.911 144.166 439.787 141.513 436.612 139.109C429.687 140.395 424.975 136.632 418.005 138.855C413.991 137.548 417.156 127.31 421.038 128.707Z" fill="white" stroke="black" stroke-width="4" stroke-linecap="round" stroke-linejoin="round"/>
<path d="M382.401 34.9222C377.282 34.6364 381.701 24.1326 383.302 22.382C386.749 18.6121 391.925 16.6917 395.509 13.0266C395.454 14.5339 394.58 15.9669 394.083 17.3804C396.834 14.9946 400.381 13.0039 402.906 10.3879C402.564 12.029 401.749 14.4518 400.862 15.9288C402.742 14.5766 406.102 13.5113 407.339 11.7696C406.1 13.8996 406.94 17.2814 406.937 19.6228C406.928 24.3832 404.673 27.02 400.239 28.8565C394.722 31.1307 387.981 39.2975 382.412 34.9448L382.401 34.9222Z" fill="black" stroke="black" stroke-width="4" stroke-linecap="round" stroke-linejoin="round"/>
<path d="M405.73 25.6559C404.235 26.1064 402.982 28.6197 402.785 30.1619C402.425 32.9542 404.363 33.8932 406.215 35.5803C408.067 37.2673 408.678 38.5455 409.123 40.8388C409.36 42.0681 409.187 43.5995 410.021 44.5336C410.816 43.0131 411.143 42.0977 412.352 40.7918C413.562 39.4858 414.174 38.7921 414.169 36.9843C414.166 34.8127 413.057 32.6948 412.818 30.5498C412.579 28.4049 412.792 26.1003 413.302 24.0177C411.969 23.8754 410.832 24.4797 409.805 25.2875C409.883 24.4335 409.949 23.579 409.72 22.7725C408.023 22.6405 405.245 26.0844 405.719 25.6438L405.73 25.6559Z" fill="black" stroke="black" stroke-width="4" stroke-linecap="round" stroke-linejoin="round"/>
<path d="M378.522 79.9295C368.94 80.0275 372.212 107.895 372.213 113.059C372.22 121.569 368.762 131.468 376.871 137.009C383.732 141.695 391.912 143.671 400.079 144.378C407.86 145.06 414.932 146.831 422.766 146.693C420.711 139.611 422.163 133.243 421.876 126.296C413.562 124.127 399.153 127.219 395.356 117.022C392.725 109.978 395.016 102.173 392.272 94.9838C390.568 90.5085 385.332 79.86 378.534 79.9299L378.522 79.9295Z" fill="white" stroke="black" stroke-width="4" stroke-linecap="round" stroke-linejoin="round"/>
<path d="M484.027 100.476C487.556 102.846 494.535 100.729 497.985 99.4689" stroke="black" stroke-width="4" stroke-linecap="round" stroke-linejoin="round"/>
<path d="M473.516 125.154C476.147 127.363 479.222 128.977 482.741 129.034" stroke="black" stroke-width="4" stroke-linecap="round" stroke-linejoin="round"/>
<path d="M389.103 121.079C390.801 121.833 393.803 120.299 395.654 120.073C395.157 121.815 394.239 123.801 394.764 125.839" stroke="black" stroke-width="4" stroke-linecap="round" stroke-linejoin="round"/>
<path d="M444.685 82.5905C444.635 83.9737 444.47 85.2941 444.796 86.644" stroke="black" stroke-width="4" stroke-linecap="round" stroke-linejoin="round"/>
</svg>
