<svg width="628" height="433" viewBox="0 0 628 433" fill="none" xmlns="http://www.w3.org/2000/svg">
<path d="M117.521 379.514C113.374 384.011 119.722 391.475 124.651 390.427C127.3 389.869 131.939 383.129 133.705 381.166C135.795 378.834 148.727 364.753 139.517 363.949C132.799 363.369 124.461 373.668 119.745 377.472C118.839 378.198 118.102 378.878 117.521 379.514Z" fill="black" stroke="black" stroke-width="4" stroke-linecap="round" stroke-linejoin="round"/>
<path d="M348.158 207.608C339.73 210.297 330.532 209.371 322.003 207.028C313.475 204.685 305.394 201.003 297.034 198.101C290.272 195.758 282.515 194.007 276.211 197.399C270.209 200.634 267.247 208.021 267.907 214.793C268.566 221.566 272.277 227.725 276.893 232.735C281.085 237.299 286.45 241.26 292.619 241.851C297.548 242.32 303.26 240.813 306.948 244.105C308.882 245.823 309.675 248.456 311.095 250.632C313.129 253.745 316.393 255.831 319.667 257.606C332.733 264.657 347.666 268.228 362.509 267.826C364.934 267.759 367.561 267.514 369.371 265.896C371.35 264.122 371.775 261.232 371.864 258.576C372.333 245.901 367.974 233.092 359.86 223.329C353.713 215.943 345.375 209.996 341.798 201.081" fill="black"/>
<path d="M348.158 207.608C339.73 210.297 330.532 209.371 322.003 207.028C313.475 204.685 305.394 201.003 297.034 198.101C290.272 195.758 282.515 194.007 276.211 197.399C270.209 200.634 267.247 208.021 267.907 214.793C268.566 221.566 272.277 227.725 276.893 232.735C281.085 237.299 286.45 241.26 292.619 241.851C297.548 242.32 303.26 240.813 306.948 244.105C308.882 245.823 309.675 248.456 311.095 250.632C313.129 253.745 316.393 255.831 319.667 257.606C332.733 264.657 347.666 268.228 362.509 267.826C364.934 267.759 367.561 267.514 369.371 265.896C371.35 264.122 371.775 261.232 371.864 258.576C372.333 245.901 367.974 233.092 359.86 223.329C353.713 215.943 345.375 209.996 341.798 201.081" stroke="black" stroke-width="4" stroke-linecap="round" stroke-linejoin="round"/>
<path d="M175.393 136.054C172.353 126.96 170.642 117.465 167.949 108.271C165.635 100.405 163.78 92.4828 161.12 84.5831C160.773 83.5566 160.382 82.4631 159.521 81.7937C158.661 81.1242 157.163 81.1688 156.682 82.1507C156.47 82.5747 156.492 83.0657 156.515 83.5343C156.839 90.162 157.498 95.9305 155.509 102.212C151.329 98.3182 149.976 86.4576 148.914 80.7783C148.154 76.7169 146.489 78.5914 145.472 74.5858C144.701 71.5286 142.633 68.4937 139.861 67.2998C139.749 66.9651 139.649 66.6192 139.526 66.2845C139.112 65.1241 138.453 63.8186 137.234 63.6066C136.977 65.6373 136.877 67.6903 136.91 69.7322C136.877 70.848 136.866 71.9749 136.91 73.0907C136.273 70.5579 135.29 68.1255 133.948 65.8828C133.714 65.4923 133.434 65.0794 132.998 64.9344C131.858 64.555 131.154 66.1729 131.042 67.3668C130.841 69.509 130.64 71.6513 130.439 73.7824C129.556 70.9707 128.673 68.1478 127.79 65.3361C127.477 64.3319 126.728 63.071 125.722 63.3835C125.04 63.5955 124.783 64.41 124.66 65.1129C123.956 68.9512 123.967 72.9121 124.694 76.7392C123.733 74.9428 123.319 72.8898 122.291 71.1381C121.263 69.3863 119.251 67.9023 117.295 68.4602C114.512 69.2524 114.221 73.0572 114.691 75.9136C117.038 90.1731 121.374 104.611 129.388 116.807C134.116 124.014 139.749 130.575 144.611 137.694C149.484 144.846 151.686 154.23 158.102 160.199C161.41 163.278 166.239 165.153 170.542 163.758C174.376 162.52 177.069 158.927 178.288 155.1C180.802 147.234 177.773 143.128 175.404 136.054H175.393Z" fill="white" stroke="black" stroke-width="4" stroke-linecap="round" stroke-linejoin="round"/>
<path d="M100.487 91.6116C128.396 91.5893 156.305 90.6743 184.158 88.8445C184.079 88.8445 184.471 33.6026 183.04 33.6807C166.207 34.6292 149.364 35.187 132.498 35.3767C121.008 35.4995 109.529 35.3321 98.0391 35.4548C101.627 35.4213 99.0673 91.6227 100.476 91.6227L100.487 91.6116Z" fill="white" stroke="black" stroke-width="4" stroke-linecap="round" stroke-linejoin="round"/>
<path d="M104.5 70.5466C110.748 64.1198 116.996 57.6818 123.244 51.2549C123.747 50.7305 124.306 50.1838 125.032 50.0722C125.703 49.9718 126.362 50.2842 126.966 50.5855C133.415 53.8658 139.45 57.9384 144.916 62.6804C149.275 58.5298 153.533 54.2787 157.68 49.916C163.559 56.9231 170.411 63.1156 177.977 68.2593" stroke="black" stroke-width="4" stroke-linecap="round" stroke-linejoin="round"/>
<path d="M142.992 42.4732C141.841 41.5917 140.098 42.529 139.416 43.8121C138.432 45.6866 138.913 48.2082 140.511 49.603C142.232 51.0869 145.094 51.0423 146.714 49.4579C148.335 47.8735 148.38 44.939 146.759 43.3546C145.138 41.7702 142.121 41.9488 140.746 43.7563" fill="black"/>
<path d="M142.992 42.4732C141.841 41.5917 140.098 42.529 139.416 43.8121C138.432 45.6866 138.913 48.2082 140.511 49.603C142.232 51.0869 145.094 51.0423 146.714 49.4579C148.335 47.8735 148.38 44.939 146.759 43.3546C145.138 41.7702 142.121 41.9488 140.746 43.7563" stroke="black" stroke-width="4" stroke-linecap="round" stroke-linejoin="round"/>
<path d="M177.976 146.251C176.143 137.86 165.603 97.7594 163.77 89.3688C163.233 86.9253 161.624 78.6351 158.986 77.5417C156.214 76.4036 154.616 79.5612 154.348 82.1609C153.923 86.2447 155.935 95.1039 154.169 99.1095C151.028 106.262 149.061 111.249 152.559 119.205" fill="white"/>
<path d="M177.976 146.251C176.143 137.86 165.603 97.7594 163.77 89.3688C163.233 86.9253 161.624 78.6351 158.986 77.5417C156.214 76.4036 154.616 79.5612 154.348 82.1609C153.923 86.2447 155.935 95.1039 154.169 99.1095C151.028 106.262 149.061 111.249 152.559 119.205" stroke="black" stroke-width="4" stroke-linecap="round" stroke-linejoin="round"/>
<path d="M364.864 354.521C364.641 359.765 364.954 365.031 365.792 370.22C366.206 372.808 366.764 375.386 367.435 377.918C368.005 380.05 369.369 382.56 369.391 384.769C369.413 386.912 362.685 388.25 360.729 388.329C354.816 388.585 349.094 386.967 343.248 387.369C336.978 387.793 330.842 389.935 324.504 389.4C316.859 388.741 308.767 386.03 301.167 388.429C294.852 390.415 288.805 388.953 282.356 388.931C278.31 388.92 274.957 389.868 271.067 390.627C269.402 390.951 264.719 391.698 263.255 390.627C261.433 389.277 261.824 382.906 261.511 380.674C260.974 376.892 260.326 373.132 259.555 369.394C258.013 361.918 255.978 354.532 253.497 347.313C248.579 333.009 241.873 319.318 233.524 306.71C226.818 296.579 219.105 287.15 211.662 277.555C200.44 263.083 189.755 248.087 181.618 231.697C174.152 216.667 168.899 200.634 161.812 185.414C156.861 174.77 152.792 164.628 148.914 153.548C160.382 153.325 171.704 148.605 179.919 140.616C192.102 161.102 204.553 181.52 219.485 200.098C234.418 218.676 251.988 235.457 272.744 247.206C278.701 250.575 281.507 249.069 287.553 252.271C292.426 254.86 297.087 257.895 302.251 259.825C307.415 261.755 313.305 262.492 318.391 260.361C324.359 257.861 328.36 251.312 327.846 244.874C328.852 244.55 329.858 244.216 330.853 243.892C334.072 251.747 342.13 256.478 350.1 259.424C358.069 262.369 366.608 264.177 373.705 268.841C379.942 272.947 384.625 278.972 389.174 284.885C403.302 303.251 427.154 372.719 442.779 389.824C455.275 403.503 437.336 390.393 454.034 398.426C443.394 407.174 452.19 405.132 438.431 405.735C435.045 405.88 411.104 401.126 407.885 400.1C387.542 393.584 378.154 363.681 368.676 344.735C370.654 348.685 366.764 350.258 365.356 352.401C364.954 353.014 364.898 353.773 364.876 354.51L364.864 354.521Z" fill="white"/>
<path d="M262.673 391.163C260.27 361.16 250.144 331.815 233.524 306.699C226.818 296.568 219.105 287.14 211.662 277.544C200.44 263.072 189.755 248.077 181.618 231.686C174.152 216.656 168.899 200.623 161.812 185.404C156.861 174.759 152.792 164.617 148.914 153.537C160.382 153.314 171.704 148.594 179.919 140.605C192.102 161.091 204.553 181.51 219.485 200.087C234.418 218.665 251.988 235.446 272.744 247.195C278.701 250.565 281.507 249.058 287.553 252.261C292.426 254.849 297.087 257.884 302.251 259.814C307.415 261.745 313.305 262.481 318.391 260.35C324.359 257.851 328.36 251.301 327.846 244.863C328.852 244.54 329.858 244.205 330.853 243.881C334.072 251.736 342.13 256.467 350.1 259.413C358.069 262.358 366.608 264.166 373.705 268.83C379.942 272.936 384.625 278.961 389.174 284.875C403.302 303.24 427.154 372.708 442.779 389.813C455.275 403.492 437.336 390.382 454.034 398.415C443.394 407.163 452.19 405.121 438.431 405.724C435.045 405.869 411.104 401.116 407.885 400.089C387.542 393.573 378.154 363.67 368.676 344.725C370.654 348.674 366.764 350.248 365.356 352.39C364.954 353.004 364.898 353.762 364.876 354.499C364.384 366.014 366.496 377.64 371.001 388.251" stroke="black" stroke-width="4" stroke-linecap="round" stroke-linejoin="round"/>
<path d="M285.276 244.283C284.461 245.198 283.265 245.656 283.019 247.196C281.745 255.307 298.331 266.867 304.59 269.667C313.04 273.45 323.636 273.416 330.968 267.782C332.298 266.755 333.527 265.55 334.31 264.055C336.422 260.016 334.824 255.14 333.74 250.71C330.789 238.66 332.097 225.605 337.406 214.381C337.674 213.801 337.954 213.098 337.596 212.573C337.406 212.294 337.071 212.138 336.746 212.015C328.33 208.545 318.74 207.039 309.676 207.976C305.194 208.445 300.991 210.163 296.599 210.498C293.335 210.743 288.06 209.003 287.054 213.923C286.83 214.994 287.098 216.11 287.322 217.181C288.63 223.385 288.797 229.823 287.847 236.094C287.445 238.749 286.897 241.182 285.757 243.58C285.623 243.848 285.466 244.083 285.276 244.295V244.283Z" fill="white" stroke="black" stroke-width="4" stroke-linecap="round" stroke-linejoin="round"/>
<path d="M287.668 213.399C291.412 223.407 300.063 232.356 310.737 233.181C322.786 234.107 333.181 224.847 340.245 215.061C346.492 206.403 351.511 196.617 353.176 186.073C354.831 175.529 352.852 164.137 346.325 155.68C343.497 152.02 339.92 148.996 336.098 146.397C328.967 141.565 320.707 138.095 312.09 137.716C303.472 137.337 294.52 140.293 288.685 146.631C281.074 154.91 278.782 169.069 281.387 179.792C283.991 190.514 283.689 202.743 287.668 213.388V213.399Z" fill="white" stroke="black" stroke-width="4" stroke-linecap="round" stroke-linejoin="round"/>
<path d="M399.57 396.451C414.816 398.471 430.486 397.232 445.932 397.065C457.534 396.931 468.61 394.689 479.899 392.49C487.5 391.006 497.525 390.493 504.455 387.469C508.523 385.695 507.708 387.771 508.602 383.598C509.485 379.469 506.981 373.344 506.735 369.082C506.523 365.299 509.462 358.962 504.835 356.418C502.89 355.358 500.487 355.19 498.196 355.079C471.885 353.818 442.658 353.639 417.99 362.744" fill="white"/>
<path d="M399.57 396.451C414.816 398.471 430.486 397.232 445.932 397.065C457.534 396.931 468.61 394.689 479.899 392.49C487.5 391.006 497.525 390.493 504.455 387.469C508.523 385.695 507.708 387.771 508.602 383.598C509.485 379.469 506.981 373.344 506.735 369.082C506.523 365.299 509.462 358.962 504.835 356.418C502.89 355.358 500.487 355.19 498.196 355.079C471.885 353.818 442.658 353.639 417.99 362.744" stroke="black" stroke-width="4" stroke-linecap="round" stroke-linejoin="round"/>
<path d="M286.448 138.318C282.838 144.444 281.653 151.853 277.495 157.621C272.678 164.294 264.373 168.076 260.417 175.295C255.007 185.192 259.523 198.224 254.325 208.233C250.603 215.396 242.098 220.841 242.746 228.874C243.73 241.103 258.427 239.686 264.731 247.43C272.197 256.613 275.785 263.296 289.186 261.433C290.751 261.21 292.349 260.864 293.691 260.016C297.256 257.751 297.882 252.718 296.898 248.612C295.311 242.007 290.695 236.607 287.465 230.626C283.475 223.217 282.894 216.01 282.067 207.876C281.295 200.199 283.654 196.249 285.386 188.774C287.856 178.129 282.033 161.828 295.568 156.427C303.213 153.381 310.668 152.768 316.324 145.984C322.673 138.374 324.439 125.721 312.11 124.963C302.085 124.338 291.567 129.66 286.448 138.33V138.318Z" fill="black" stroke="black" stroke-width="4" stroke-linecap="round" stroke-linejoin="round"/>
<path d="M365.514 150.703C368.129 160.02 368.185 170.609 369.75 179.881C371.974 193.08 380.435 199.864 385.744 211.279C388.572 217.382 389.086 224.367 388.214 231.028C387.599 235.736 386.314 240.467 386.918 245.176C387.968 253.388 394.35 259.703 399.313 266.331C404.275 272.958 407.997 282.32 403.437 289.238C402.498 290.666 401.179 291.927 399.559 292.473C394.898 294.046 390.617 289.561 387.566 285.712C378.814 274.643 368.621 264.78 357.857 255.653C354.27 252.607 350.514 249.516 348.446 245.298C345.462 239.195 346.714 232.121 345.496 225.739C344.166 218.754 344.546 212.339 346.189 205.41C348.145 197.186 352.437 187.814 348.603 179.624C346.133 174.324 341.103 170.776 336.532 167.128C329.088 161.192 321.331 149.086 320.582 139.512C319.252 122.486 344.344 126.848 353.275 132.762C360.037 137.225 363.513 143.596 365.502 150.715L365.514 150.703Z" fill="black" stroke="black" stroke-width="4" stroke-linecap="round" stroke-linejoin="round"/>
<path d="M294.609 166.793C300.366 165.432 306.859 168.043 310.056 173.019" stroke="black" stroke-width="4" stroke-linecap="round" stroke-linejoin="round"/>
<path d="M324.27 174.458C330.663 173.99 337.224 176.701 341.404 181.566" stroke="black" stroke-width="4" stroke-linecap="round" stroke-linejoin="round"/>
<path d="M324.953 181.554C329.267 181.521 333.537 183.774 335.94 187.356" stroke="black" stroke-width="4" stroke-linecap="round" stroke-linejoin="round"/>
<path d="M325.965 182L325.117 185.237C324.961 185.808 324.876 186.544 325.428 186.874C326.022 187.229 326.814 186.773 327.224 186.252C328.016 185.237 328.214 183.866 327.761 182.698" stroke="black" stroke-width="4" stroke-linecap="round" stroke-linejoin="round"/>
<path d="M294.91 175.161C299.638 174.636 304.567 177.102 306.981 181.197" stroke="black" stroke-width="4" stroke-linecap="round" stroke-linejoin="round"/>
<path d="M297.658 175.484C296.876 177.292 296.518 179.278 296.641 181.242C297.479 181.532 298.44 181.052 298.966 180.338C299.491 179.624 299.692 178.72 299.882 177.85" stroke="black" stroke-width="4" stroke-linecap="round" stroke-linejoin="round"/>
<path d="M313.822 186.865L308.691 192.065C307.976 192.79 307.216 193.582 307.071 194.598C306.903 195.691 307.518 196.773 308.367 197.487C309.217 198.201 310.267 198.592 311.307 198.983" stroke="black" stroke-width="4" stroke-linecap="round" stroke-linejoin="round"/>
<path d="M322.249 211.234C321.925 210.821 321.601 210.408 321.265 210.007C321.578 210.453 321.668 211.067 321.478 211.58C319.108 211.814 316.694 211.011 314.794 209.583C313.821 208.858 312.961 207.965 311.921 207.329C310.882 206.693 309.574 206.336 308.434 206.771C308.076 206.916 307.708 207.128 307.328 207.039C306.713 206.883 306.612 206.068 306.188 205.599C305.617 204.963 304.623 205.075 303.784 205.242L298.688 206.247C298.006 207.876 300.051 209.594 300.823 211.167C301.773 213.097 302.89 215.095 304.79 216.121C306.623 217.114 308.926 216.969 310.837 216.121C312.748 215.273 314.313 213.8 315.632 212.194" stroke="black" stroke-width="4" stroke-linecap="round" stroke-linejoin="round"/>
<path d="M287.031 340.953C292.106 348.998 300.477 354.9 309.776 356.998C319.076 359.096 329.168 357.344 337.216 352.256" stroke="black" stroke-width="4" stroke-linecap="round" stroke-linejoin="round"/>
<path d="M358.84 288.456C358.807 293.577 360.807 298.476 362.909 303.117C366.429 310.894 370.33 318.47 374.611 325.834C377.863 331.424 381.451 338.03 379.093 344.066C378.366 345.918 377.137 347.514 375.785 348.942C371.459 353.505 365.748 356.663 359.656 357.857" fill="white"/>
<path d="M358.84 288.456C358.807 293.577 360.807 298.476 362.909 303.117C366.429 310.894 370.33 318.47 374.611 325.834C377.863 331.424 381.451 338.03 379.093 344.066C378.366 345.918 377.137 347.514 375.785 348.942C371.459 353.505 365.748 356.663 359.656 357.857" stroke="black" stroke-width="4" stroke-linecap="round" stroke-linejoin="round"/>
<path d="M127.547 91.2324C128.285 94.6578 129.67 97.9494 131.615 100.873" stroke="black" stroke-width="4" stroke-linecap="round" stroke-linejoin="round"/>
<path d="M135.762 90.9199C136.589 93.966 137.986 96.867 139.852 99.4109" stroke="black" stroke-width="4" stroke-linecap="round" stroke-linejoin="round"/>
<path d="M142.801 90.9199C143.404 93.542 144.611 96.019 146.288 98.1166" stroke="black" stroke-width="4" stroke-linecap="round" stroke-linejoin="round"/>
<path d="M132.172 108.649C136.587 107.746 141.326 108.493 145.249 110.702" stroke="black" stroke-width="4" stroke-linecap="round" stroke-linejoin="round"/>
<path d="M125.613 197.153H86.1802L112.413 168.009C111.284 166.938 110.099 165.945 108.858 165.018C102.186 160.064 93.9258 157.286 84.783 157.431C82.1564 157.476 79.4628 157.744 76.7133 158.29C65.6704 160.466 54.8846 165.554 49.8103 176.165C46.7143 182.625 46.0995 190.012 46.9602 197.164C47.0943 198.313 47.2731 199.462 47.4855 200.6C48.469 205.9 50.2127 211.133 53.1634 215.652C55.3988 219.089 58.316 222.012 61.602 224.467C64.1615 226.375 66.9446 228.015 69.8394 229.331C74.5449 231.474 79.6305 232.824 84.7942 233.326C92.2046 234.04 99.749 232.958 106.444 229.722C117.789 224.232 126.06 212.227 125.735 199.652C125.713 198.815 125.668 197.989 125.613 197.175V197.153Z" stroke="black" stroke-width="4" stroke-linecap="round" stroke-linejoin="round"/>
<path d="M384.237 78.5353C382.113 80.1867 381.107 83.1435 381.767 85.7432C382.426 88.3429 384.717 90.4629 387.378 90.9204C388.976 91.1882 390.753 90.8423 391.893 89.693C392.91 88.6777 393.29 87.1714 393.313 85.732C393.357 83.0319 392.083 80.2201 389.736 78.8589C387.389 77.4977 384.002 77.9886 382.471 80.2313" fill="black"/>
<path d="M384.237 78.5353C382.113 80.1867 381.107 83.1435 381.767 85.7432C382.426 88.3429 384.717 90.4629 387.378 90.9204C388.976 91.1882 390.753 90.8423 391.893 89.693C392.91 88.6777 393.29 87.1714 393.313 85.732C393.357 83.0319 392.083 80.2201 389.736 78.8589C387.389 77.4977 384.002 77.9886 382.471 80.2313" stroke="black" stroke-width="4" stroke-linecap="round" stroke-linejoin="round"/>
<path d="M389.871 67.8236C397.046 70.3341 402.266 77.6201 402.333 85.2073C404.982 82.9646 407.988 81.1459 411.196 79.8293C409.363 69.5307 400.511 60.8723 390.161 59.2656C388.663 61.9435 387.166 64.6213 385.668 67.2992C386.909 67.2099 388.753 68.0244 389.871 67.8236Z" fill="white" stroke="black" stroke-width="4" stroke-linecap="round" stroke-linejoin="round"/>
<path d="M401.158 55.5167C410.636 61.0509 417.119 71.4276 417.946 82.3845C421.221 80.4207 424.63 78.669 428.139 77.1515C425.971 70.1445 422.595 63.5056 418.214 57.6255C415.856 54.4679 412.905 50.6296 409.653 48.3423C408.177 47.3047 397.648 42.3618 396.195 43.6784C387.578 51.4999 394.642 51.7231 401.136 55.5167H401.158Z" fill="white" stroke="black" stroke-width="4" stroke-linecap="round" stroke-linejoin="round"/>
<path d="M423.02 52.0358C423.903 53.0958 424.763 54.1669 425.613 55.2269C427.043 57.0233 438.097 76.9956 435.84 78.2341C439.327 76.3261 443.049 74.8422 446.894 73.8045C443.217 63.9857 438.433 54.4682 431.693 46.4123C429.961 44.337 408.914 21.4079 405.293 25.8487C402.678 29.0509 400.833 32.6437 398.688 36.1361C403.181 35.143 410.323 40.3983 413.877 43.0204C417.297 45.542 420.27 48.7331 423.02 52.0247V52.0358Z" fill="white" stroke="black" stroke-width="4" stroke-linecap="round" stroke-linejoin="round"/>
<path d="M233.703 279.977C237.179 283.636 242.634 284.35 247.272 286.314C253.486 288.936 258.561 294.136 261.02 300.406" stroke="black" stroke-width="4" stroke-linecap="round" stroke-linejoin="round"/>
<path d="M288.641 268.83C290.15 272.021 292.91 274.454 295.894 276.339C302.869 280.758 311.442 282.61 319.623 281.449C327.805 280.289 335.528 276.15 341.005 269.968" stroke="black" stroke-width="4" stroke-linecap="round" stroke-linejoin="round"/>
<path d="M325.21 237.063C322.091 243.903 319.677 251.066 318.012 258.397" stroke="black" stroke-width="4" stroke-linecap="round" stroke-linejoin="round"/>
<path d="M343.699 195.279C344.235 194.129 345.576 193.471 346.851 193.572C348.125 193.672 349.276 194.431 350.036 195.457C351.433 197.343 351.5 199.943 350.796 202.174C350.092 204.406 348.706 206.347 347.354 208.255C346.336 209.683 345.208 211.201 343.542 211.781C341.877 212.361 339.597 211.435 339.496 209.683" fill="white"/>
<path d="M343.699 195.279C344.235 194.129 345.576 193.471 346.851 193.572C348.125 193.672 349.276 194.431 350.036 195.457C351.433 197.343 351.5 199.943 350.796 202.174C350.092 204.406 348.706 206.347 347.354 208.255C346.336 209.683 345.208 211.201 343.542 211.781C341.877 212.361 339.597 211.435 339.496 209.683" stroke="black" stroke-width="4" stroke-linecap="round" stroke-linejoin="round"/>
<path d="M527.445 203.791C532.207 199.931 536.935 196.014 541.618 192.064" stroke="black" stroke-width="4" stroke-linecap="round" stroke-linejoin="round"/>
<path d="M539.036 186.486C538.711 189.108 539.84 191.819 541.807 193.593C545.473 196.918 551.375 193.404 552.068 189.063C552.437 186.754 551.598 184.277 549.855 182.715C545.809 179.099 539.729 180.985 539.047 186.486H539.036Z" fill="black" stroke="black" stroke-width="4" stroke-linecap="round" stroke-linejoin="round"/>
<path d="M528.855 212.048C532.913 214.915 536.97 217.783 541.038 220.65C541.105 220.695 541.173 220.762 541.139 220.829C541.105 220.896 540.971 220.807 541.05 220.784" stroke="black" stroke-width="4" stroke-linecap="round" stroke-linejoin="round"/>
<path d="M543.642 217.013C541.094 218.921 539.294 223.183 540.501 226.296C541.53 228.941 544.749 230.559 547.442 230.849C552.818 231.418 555.724 224.411 553.646 220.204C551.779 216.433 547.319 214.268 543.642 217.013Z" fill="black" stroke="black" stroke-width="4" stroke-linecap="round" stroke-linejoin="round"/>
<path d="M522.964 214.603C524.338 214.994 525.847 215.105 527.188 214.603C527.881 214.347 528.507 213.923 529.055 213.42C531.659 211.022 532.028 206.625 529.983 203.736C526.294 198.536 515.989 200.388 516.839 207.708C517.252 211.312 519.454 213.599 522.964 214.592V214.603Z" fill="black" stroke="black" stroke-width="4" stroke-linecap="round" stroke-linejoin="round"/>
<path d="M445.497 221.632C453.377 222.313 458.149 221.9 462.788 222.413L422.785 196.338L434.398 243.446C435.493 240.813 438.578 225.705 438.578 225.705C438.578 225.705 445.977 235.624 446.994 236.651C449.196 235.144 451.398 233.326 453.6 231.44C450.638 228.193 445.396 221.621 445.508 221.632H445.497Z" fill="white" stroke="black" stroke-width="4" stroke-linecap="round" stroke-linejoin="round"/>
<path d="M115.554 163.423L83.543 198.982H131.637C130.587 184.511 124.674 172.07 115.543 163.423H115.554Z" fill="black" stroke="black" stroke-width="4" stroke-linecap="round" stroke-linejoin="round"/>
<path d="M102.822 263.541C101.325 263.608 99.8494 263.653 98.3852 263.686C96.1498 263.742 97.7258 348.797 97.9717 356.987C107.316 358.136 114.625 356.753 123.824 356.53C135.716 356.351 147.631 355.994 159.523 355.994C160.708 355.972 161.993 355.916 162.888 355.146C163.983 354.198 164.05 352.546 164.039 351.107C163.882 331.626 163.513 312.122 164.352 292.641C164.754 283.313 162.765 281.014 156.215 274.219C150.939 268.741 145.049 263.128 137.013 262.626C125.624 261.912 114.201 263.061 102.822 263.541Z" fill="white" stroke="black" stroke-width="4" stroke-linecap="round" stroke-linejoin="round"/>
<path d="M141.113 290.432C141.884 292.674 165.892 288.367 168.418 287.229C168.071 285.087 166.887 283.726 165.333 282.186C157.688 274.61 149.406 267.681 140.587 261.511C139.917 271.051 139.861 280.881 141.101 290.353C141.101 290.376 141.101 290.398 141.113 290.42V290.432Z" fill="white" stroke="black" stroke-width="4" stroke-linecap="round" stroke-linejoin="round"/>
<path d="M118.178 279.735C117.261 277.582 114.534 276.589 112.265 277.158C109.996 277.727 108.208 279.557 107.135 281.632C106.118 283.585 105.704 286.173 107.135 287.858C108.945 290.023 112.377 289.409 115.07 290.279C118.502 291.406 120.614 295.512 119.53 298.949C118.446 302.386 114.355 304.55 110.901 303.512C109.851 303.2 108.89 302.642 107.805 302.452C106.721 302.263 105.436 302.62 105 303.613" stroke="black" stroke-width="4" stroke-linecap="round" stroke-linejoin="round"/>
<path d="M112 274L112 307" stroke="black" stroke-width="4" stroke-linecap="round" stroke-linejoin="round"/>
<path d="M123.945 295.497H134.072" stroke="black" stroke-width="4" stroke-linecap="round" stroke-linejoin="round"/>
<path d="M123.945 304.725H149.708" stroke="black" stroke-width="4" stroke-linecap="round" stroke-linejoin="round"/>
<path d="M123.945 313.952H154.827" stroke="black" stroke-width="4" stroke-linecap="round" stroke-linejoin="round"/>
<path d="M109.508 323.179H155.356" stroke="black" stroke-width="4" stroke-linecap="round" stroke-linejoin="round"/>
<path d="M109.508 332.406H155.356" stroke="black" stroke-width="4" stroke-linecap="round" stroke-linejoin="round"/>
<path d="M109.508 341.623H155.356" stroke="black" stroke-width="4" stroke-linecap="round" stroke-linejoin="round"/>
<path d="M141.818 332.864C131.848 339.938 127.88 352.78 135.022 363.335C145.853 379.335 170.364 373.444 173.907 355.045C177.45 336.646 157.521 321.717 141.818 332.852V332.864Z" fill="white" stroke="black" stroke-width="4" stroke-linecap="round" stroke-linejoin="round"/>
<path d="M145.721 339.213C139.272 343.788 136.701 352.1 141.328 358.929C148.325 369.272 164.185 365.467 166.477 353.573C168.768 341.679 155.881 332.016 145.721 339.224V339.213Z" fill="white" stroke="black" stroke-width="4" stroke-linecap="round" stroke-linejoin="round"/>
<path d="M66.775 276.083C62.5054 265.985 51.0825 263.017 41.1909 265.505C14.6009 272.2 25.6661 297.092 37.1784 316.574C41.5933 324.049 46.0752 330.744 48.523 335.296C56.9393 322.22 63.6566 310.069 67.1774 294.906C68.6192 288.691 69.2675 281.974 66.7862 276.094L66.775 276.083ZM48.9589 294.816C44.1752 296.178 38.609 292.964 37.3572 288.166C36.1724 283.625 39.0114 278.47 43.3816 276.852C43.1692 276.819 43.1245 276.819 44.1528 276.607C43.8957 276.674 43.6387 276.763 43.3816 276.852C43.6722 276.897 44.2869 276.964 43.0463 277.633C47.6065 275.67 53.5638 278.348 55.1733 283.045C56.7828 287.742 53.7426 293.455 48.9589 294.827V294.816Z" fill="black"/>
<path d="M43.3816 276.852C39.0114 278.47 36.1724 283.625 37.3572 288.166C38.609 292.964 44.1752 296.178 48.9589 294.816V294.827C53.7426 293.455 56.7828 287.742 55.1733 283.045C53.5638 278.348 47.6065 275.67 43.0463 277.633C44.2869 276.964 43.6722 276.897 43.3816 276.852ZM43.3816 276.852C43.1692 276.819 43.1245 276.819 44.1528 276.607C43.8957 276.674 43.6387 276.763 43.3816 276.852ZM66.775 276.083C62.5054 265.985 51.0825 263.017 41.1909 265.505C14.6009 272.2 25.6661 297.092 37.1784 316.574C41.5933 324.049 46.0752 330.744 48.523 335.296C56.9393 322.22 63.6566 310.069 67.1774 294.906C68.6192 288.691 69.2675 281.974 66.7862 276.094L66.775 276.083Z" stroke="black" stroke-width="4" stroke-linecap="round" stroke-linejoin="round"/>
<path d="M53.0938 340.764C53.9097 345.662 58.4028 349.11 62.9518 351.129C68.6074 353.651 74.8888 354.767 81.0697 354.354" stroke="black" stroke-width="4" stroke-linecap="round" stroke-linejoin="round" stroke-dasharray="2 5"/>
<path d="M176.043 325.054C185.052 318.426 194.552 311.14 198.196 300.574C199.727 296.144 200.107 291.413 200.465 286.738" stroke="black" stroke-width="4" stroke-linecap="round" stroke-linejoin="round" stroke-dasharray="2 5"/>
<path d="M217.152 178.385C217.622 161.939 219.488 144.332 230.14 131.769" stroke="black" stroke-width="4" stroke-linecap="round" stroke-linejoin="round" stroke-dasharray="2 5"/>
<path d="M436.902 146.117C440.077 145.894 443.284 145.961 446.447 146.329C452.327 159.685 457.781 173.532 462.296 187.401" stroke="black" stroke-width="4" stroke-linecap="round" stroke-linejoin="round"/>
<path d="M450.996 155.769H504.858C502.108 164.282 499.527 173.085 496.766 181.599C496.721 181.42 496.676 181.242 496.632 181.074C491.244 180.349 485.455 180.728 480.023 180.728H459.714" stroke="black" stroke-width="4" stroke-linecap="round" stroke-linejoin="round"/>
<path d="M470.746 156.114C471.238 164.103 471.73 172.081 472.21 180.07" stroke="black" stroke-width="4" stroke-linecap="round" stroke-linejoin="round"/>
<path d="M487.209 155.769C486.337 163.914 485.466 172.059 484.594 180.215" stroke="black" stroke-width="4" stroke-linecap="round" stroke-linejoin="round"/>
<path d="M456.359 168.043L501.157 167.686" stroke="black" stroke-width="4" stroke-linecap="round" stroke-linejoin="round"/>
<path d="M456.942 197.89C457.668 199.307 459.11 200.311 460.675 200.657C462.239 201.003 463.894 200.757 465.369 200.121C469.661 198.269 469.292 192.634 465.738 190.313C460.462 186.855 453.935 192.021 456.953 197.878L456.942 197.89Z" stroke="black" stroke-width="4" stroke-linecap="round" stroke-linejoin="round"/>
<path d="M488.025 190.849C486.785 192.724 486.852 195.334 488.07 197.22C489.288 199.106 491.579 200.222 493.826 200.155C494.698 200.132 495.57 199.943 496.341 199.541C498.129 198.626 499.236 196.595 499.213 194.587C499.146 188.896 491.412 185.694 488.025 190.838V190.849Z" stroke="black" stroke-width="4" stroke-linecap="round" stroke-linejoin="round"/>
<path d="M466.934 191.451C469.124 191.518 471.315 191.406 473.472 191.116H487.432" stroke="black" stroke-width="4" stroke-linecap="round" stroke-linejoin="round"/>
<path d="M249.42 80.6105C249.576 79.796 249.722 78.9145 249.666 77.9103C246.491 77.7988 243.351 77.2186 240.176 77.2186C238.254 77.2186 238.433 77.107 238.131 78.6579C237.874 79.9857 238.008 81.3692 237.975 82.7193C233.616 81.1461 229.726 86.3121 229.1 89.9049C228.184 95.1044 230.519 98.6748 234.644 101.687C236.946 103.372 242.702 106.106 242.892 109.397C243.027 111.629 241.741 112.923 239.428 112.823C238.22 112.767 231.816 108.661 231.458 108.985C229.514 110.725 227.96 112.89 226.932 115.289C226.764 115.702 230.218 117.018 230.531 117.152C233.794 118.591 230.609 119.674 231.414 121.727C232.062 123.389 236.175 123.802 237.65 124.036C238.6 124.181 240.288 124.817 241.138 124.661C242.758 124.36 242.512 122.653 243.831 121.872C245.161 121.08 246.804 121.437 248.157 120.365C254.338 115.523 253.063 106.117 247.654 101.386C245.15 99.1993 241.451 98.0946 239.394 95.3833C236.7 91.824 241.942 89.2243 245.251 90.4739C248.045 91.5339 249.587 94.6023 252.024 96.0416C252.136 96.1086 255.779 90.8087 255.981 90.2173C256.741 87.9523 252.661 86.5241 251.253 85.7319C248.57 84.2145 249.04 82.6858 249.442 80.6328L249.42 80.6105Z" fill="white" stroke="black" stroke-width="4" stroke-linecap="round" stroke-linejoin="round"/>
<path d="M378.793 140.672C399.303 159.484 435.907 149.096 440.68 118.948C441.831 111.629 442.703 103.439 438.78 97.3803C435.684 92.6048 429.76 90.2617 424.596 91.7791C412.357 95.3719 412.995 115.177 425.446 118.122C436.723 120.8 449.431 116.583 460.184 113.001C471.629 109.196 482.504 103.305 492.161 95.5839" stroke="black" stroke-width="4" stroke-linecap="round" stroke-linejoin="round" stroke-dasharray="2 5"/>
<path d="M528.453 78.6249C526.397 81.9722 502.02 113.839 502.02 113.839L496.588 98.4298L506.826 89.5706L493.123 90.8537L487.031 79.4952C487.031 79.4952 529.392 77.1074 528.453 78.636V78.6249Z" fill="black" stroke="black" stroke-width="4" stroke-linecap="round" stroke-linejoin="round"/>
<path d="M318.514 4.44801C314.121 5.1621 309.941 7.3267 307.649 10.4397C304.509 14.7131 303.615 20.4816 306.476 25.1456C311.126 32.7216 321.14 36.5264 328.685 30.5571C340.454 21.2515 333.982 1.92637 318.514 4.45917V4.44801ZM321.207 27.7565C310.064 29.988 307.214 11.8344 318.704 10.5401C328.752 10.0603 330.719 25.8485 321.207 27.7565Z" fill="black" stroke="black" stroke-width="4" stroke-linecap="round" stroke-linejoin="round"/>
<path d="M353.311 53.9772C352.484 47.171 346.001 42.507 339.373 42.0049C338.524 41.938 337.686 41.9491 336.847 42.0161C330.074 42.6186 324.608 50.4067 324.273 56.7777C323.848 64.7555 332.332 71.1489 339.899 70.5687C348.583 69.9104 354.373 62.6467 353.322 53.966L353.311 53.9772ZM332.142 61.8433C327.123 56.6439 331.952 49.1682 337.708 47.5615C341.352 46.5461 345.375 47.8851 347.488 53.6759C350.83 62.8364 338.188 68.1028 332.142 61.8322V61.8433Z" fill="black" stroke="black" stroke-width="4" stroke-linecap="round" stroke-linejoin="round"/>
<path d="M355.691 11.3768L347.643 9.41309C339.048 21.2403 311.609 51.7901 308.021 56.2866C307.037 57.5251 305.54 59.7901 304.668 60.3592L313.699 62.5684C321.601 49.6813 351.935 16.6321 355.702 11.388L355.691 11.3768Z" fill="black" stroke="black" stroke-width="4" stroke-linecap="round" stroke-linejoin="round"/>
<path d="M36.8008 186.007C37.6949 180.896 40.2545 175.518 41.9198 170.855C43.2052 167.228 44.3564 163.435 45.6753 159.864C46.0106 159.496 45.6977 160.02 45.843 160.154" stroke="black" stroke-width="4" stroke-linecap="round" stroke-linejoin="round"/>
<path d="M48.2344 163.356C51.6881 164.283 55.0076 165.131 58.2154 166.224C60.1937 166.893 69.7501 169.739 69.5824 170.285" stroke="black" stroke-width="4" stroke-linecap="round" stroke-linejoin="round"/>
<path d="M78.6445 168.779C79.7063 168.121 80.4776 167.027 81.3717 166.146C84.8701 162.687 88.6591 159.473 92.4146 156.305C94.5047 154.531 96.36 152.31 98.4948 150.692" stroke="black" stroke-width="4" stroke-linecap="round" stroke-linejoin="round"/>
<path d="M332.184 78.39C332.184 78.39 295.099 79.4835 274.768 45.5752L259.098 78.7694C259.098 78.7694 288.426 112.867 320.895 108.449L332.184 78.4012V78.39Z" fill="white" stroke="black" stroke-width="4" stroke-linecap="round" stroke-linejoin="round"/>
<path d="M280.145 60.2815C280.168 60.0695 280.011 60.4377 280.145 60.2815C279.777 63.3611 275.753 63.7962 274.177 62.2118C273.897 61.9329 273.417 62.0221 273.249 62.3792L266.141 76.4714C270.544 77.2859 270.03 81.3027 269.93 81.3696C275.619 87.2162 293.088 103.261 312.581 102.413C312.067 101.241 312.078 100.014 313.14 99.1885C314.202 98.3628 315.521 98.4186 316.515 99.1215L321.243 86.2232C320.64 86.0782 320.081 85.7434 319.667 85.2079C318.885 84.1925 318.896 82.8313 319.6 81.8271C312.134 81.2246 290.886 73.8605 280.145 60.2704V60.2815Z" fill="white"/>
<path d="M280.145 60.2815C280.011 60.4377 280.168 60.0695 280.145 60.2815ZM280.145 60.2815C279.777 63.3611 275.753 63.7962 274.177 62.2118C273.897 61.9329 273.417 62.0221 273.249 62.3792L266.141 76.4714C270.544 77.2859 270.03 81.3027 269.93 81.3696C275.619 87.2162 293.088 103.261 312.581 102.413C312.067 101.241 312.078 100.014 313.14 99.1885C314.202 98.3628 315.521 98.4186 316.515 99.1215L321.243 86.2232C320.64 86.0782 320.081 85.7434 319.667 85.2079C318.885 84.1925 318.896 82.8313 319.6 81.8271C312.134 81.2246 290.886 73.8605 280.145 60.2704V60.2815Z" stroke="black" stroke-width="4" stroke-linecap="round" stroke-linejoin="round"/>
<path d="M277.852 77.2519C279.223 77.2519 280.334 76.1429 280.334 74.7749C280.334 73.4068 279.223 72.2979 277.852 72.2979C276.482 72.2979 275.371 73.4068 275.371 74.7749C275.371 76.1429 276.482 77.2519 277.852 77.2519Z" fill="white" stroke="black" stroke-width="4" stroke-linecap="round" stroke-linejoin="round"/>
<path d="M310.134 94.3456C311.504 94.3456 312.615 93.2366 312.615 91.8686C312.615 90.5006 311.504 89.3916 310.134 89.3916C308.763 89.3916 307.652 90.5006 307.652 91.8686C307.652 93.2366 308.763 94.3456 310.134 94.3456Z" fill="white" stroke="black" stroke-width="4" stroke-linecap="round" stroke-linejoin="round"/>
<path d="M291.857 95.7846C297.845 95.7846 302.699 90.939 302.699 84.9616C302.699 78.9843 297.845 74.1387 291.857 74.1387C285.87 74.1387 281.016 78.9843 281.016 84.9616C281.016 90.939 285.87 95.7846 291.857 95.7846Z" fill="white" stroke="black" stroke-width="4" stroke-linecap="round" stroke-linejoin="round"/>
<path d="M243.092 2.67383C243.092 2.67383 235.167 38.8583 197.277 50.3172L225.734 73.5476C225.734 73.5476 265.982 53.4191 269.559 20.8944L243.092 2.67383Z" fill="white" stroke="black" stroke-width="4" stroke-linecap="round" stroke-linejoin="round"/>
<path d="M212.872 48.6771C212.671 48.599 212.995 48.8445 212.872 48.6771C215.778 49.7817 215.219 53.7873 213.297 54.9254C212.951 55.1262 212.928 55.606 213.23 55.8626L225.2 66.1612C227.056 62.0998 230.845 63.5726 230.878 63.6842C237.942 59.5893 257.77 46.5571 261.682 27.4774C260.419 27.7006 259.223 27.3882 258.687 26.1608C258.15 24.9335 258.519 23.6727 259.436 22.8805L248.046 15.1816C247.756 15.7284 247.297 16.197 246.683 16.4648C245.509 16.978 244.179 16.6321 243.385 15.7061C240.982 22.7912 228.688 41.5919 212.861 48.6882L212.872 48.6771Z" fill="white"/>
<path d="M212.872 48.6771C212.995 48.8445 212.671 48.599 212.872 48.6771ZM212.872 48.6771C215.778 49.7817 215.219 53.7873 213.297 54.9254C212.951 55.1262 212.928 55.606 213.23 55.8626L225.2 66.1612C227.056 62.0998 230.845 63.5726 230.878 63.6842C237.942 59.5893 257.77 46.5571 261.682 27.4774C260.419 27.7006 259.223 27.3882 258.687 26.1608C258.15 24.9335 258.519 23.6727 259.436 22.8805L248.046 15.1816C247.756 15.7284 247.297 16.197 246.683 16.4648C245.509 16.978 244.179 16.6321 243.385 15.7061C240.982 22.7912 228.688 41.5919 212.861 48.6882L212.872 48.6771Z" stroke="black" stroke-width="4" stroke-linecap="round" stroke-linejoin="round"/>
<path d="M226.407 56.8896C227.777 56.8896 228.888 55.7806 228.888 54.4126C228.888 53.0445 227.777 51.9355 226.407 51.9355C225.037 51.9355 223.926 53.0445 223.926 54.4126C223.926 55.7806 225.037 56.8896 226.407 56.8896Z" fill="white" stroke="black" stroke-width="4" stroke-linecap="round" stroke-linejoin="round"/>
<path d="M250.848 29.7763C252.219 29.7763 253.33 28.6673 253.33 27.2993C253.33 25.9313 252.219 24.8223 250.848 24.8223C249.478 24.8223 248.367 25.9313 248.367 27.2993C248.367 28.6673 249.478 29.7763 250.848 29.7763Z" fill="white" stroke="black" stroke-width="4" stroke-linecap="round" stroke-linejoin="round"/>
<path d="M239.693 54.144C245.681 54.144 250.535 49.2984 250.535 43.321C250.535 37.3437 245.681 32.498 239.693 32.498C233.706 32.498 228.852 37.3437 228.852 43.321C228.852 49.2984 233.706 54.144 239.693 54.144Z" fill="white" stroke="black" stroke-width="4" stroke-linecap="round" stroke-linejoin="round"/>
<path d="M14.7028 198.592C13.6633 195.145 10.2767 192.433 6.06296 194.442C4.11817 195.368 2.64281 197.119 2.67634 199.384C2.7434 203.959 6.75594 208.735 11.6179 206.325C13.0598 205.61 14.1663 204.405 14.6916 202.888C15.2169 201.371 14.4904 199.574 15.3063 198.38C16.1222 197.186 19.7212 196.115 21.0848 195.502C23.2979 194.509 25.578 193.649 27.9475 193.125" fill="white"/>
<path d="M14.7028 198.592C13.6633 195.145 10.2767 192.433 6.06296 194.442C4.11817 195.368 2.64281 197.119 2.67634 199.384C2.7434 203.959 6.75594 208.735 11.6179 206.325C13.0598 205.61 14.1663 204.405 14.6916 202.888C15.2169 201.371 14.4904 199.574 15.3063 198.38C16.1222 197.186 19.7212 196.115 21.0848 195.502C23.2979 194.509 25.578 193.649 27.9475 193.125" stroke="black" stroke-width="4" stroke-linecap="round" stroke-linejoin="round"/>
<path d="M30.2175 185.694C27.7921 187.557 27.7921 191.429 29.2898 193.873C30.8881 196.472 35.0571 196.64 37.3261 194.62C42.1657 190.302 35.9848 181.265 30.2175 185.694Z" fill="white" stroke="black" stroke-width="4" stroke-linecap="round" stroke-linejoin="round"/>
<path d="M42.7571 154.842C40.8793 155.813 40.0746 157.743 40.3205 160.488C40.5999 163.512 42.7347 165.241 45.7413 165.308C53.8111 165.498 52.7381 153.838 45.6631 154.151C44.5118 154.206 43.5394 154.43 42.7682 154.842H42.7571Z" fill="white" stroke="black" stroke-width="4" stroke-linecap="round" stroke-linejoin="round"/>
<path d="M72.2959 168.255C71.5582 168.489 70.8205 168.868 70.1164 169.415C68.451 170.709 67.7021 173.186 68.1157 175.217C68.7416 178.352 72.4859 179.981 75.4701 179.557C78.4544 179.133 79.6838 175.462 79.0468 172.606C78.242 168.946 75.2689 167.34 72.2959 168.266V168.255Z" fill="white" stroke="black" stroke-width="4" stroke-linecap="round" stroke-linejoin="round"/>
<path d="M108.4 142.893C107.617 143.272 100.363 160.689 98.4744 165.732C94.216 162.954 84.7044 149.978 83.4414 147.936C89.7676 146.474 106.578 143.785 108.4 142.893Z" fill="white" stroke="black" stroke-width="4" stroke-linecap="round" stroke-linejoin="round"/>
<path d="M484.269 229.253C483.699 229.487 483.129 229.744 482.581 230.023C472.041 235.345 470.778 250.866 478.569 259.513C489.176 271.295 506.533 272.043 521.242 271.998C544.468 271.942 567.951 268.227 591.042 269.599C591.389 275.323 590.841 281.226 591.266 286.938C596.966 282.71 600.8 275.323 605.539 269.956C613.005 261.51 622.64 250.642 617.308 238.559C608.579 218.787 571.539 225.459 554.952 225.749C540.087 226.006 525.199 226.051 510.322 226.363C502.118 226.531 492.272 225.939 484.28 229.242L484.269 229.253Z" fill="white" stroke="black" stroke-width="4" stroke-linecap="round" stroke-linejoin="round"/>
<path d="M491.043 242.018C501.125 239.652 511.352 239.954 521.646 240.456C534.913 241.103 547.878 238.983 561.167 238.894H595.123" fill="white"/>
<path d="M491.043 242.018C501.125 239.652 511.352 239.954 521.646 240.456C534.913 241.103 547.878 238.983 561.167 238.894H595.123" stroke="black" stroke-width="4" stroke-linecap="round" stroke-linejoin="round"/>
<path d="M490.418 248.891C507.821 248.891 525.257 249.415 542.637 248.277C552.35 247.641 562.018 247.931 571.73 248.177C579.465 248.378 587.088 246.704 594.979 247.017" fill="white"/>
<path d="M490.418 248.891C507.821 248.891 525.257 249.415 542.637 248.277C552.35 247.641 562.018 247.931 571.73 248.177C579.465 248.378 587.088 246.704 594.979 247.017" stroke="black" stroke-width="4" stroke-linecap="round" stroke-linejoin="round"/>
<path d="M552.338 281.873C551.578 273.996 562.721 258.174 570.791 258.565C581.107 259.067 573.429 275.893 566.633 275.446C568.511 267.826 583.656 251.279 592.463 258.23C596.163 254.916 607.887 246.883 612.436 247.496" stroke="black" stroke-width="4" stroke-linecap="round" stroke-linejoin="round"/>
<path d="M580.234 394.633L521.242 381.902L518.38 380.72L510.892 375.453L363.121 402.31C363.121 407.23 366.34 411.571 371.057 413.01L447.876 430.338L572.131 404.575C576.847 403.593 580.223 399.453 580.223 394.644L580.234 394.633Z" fill="black" stroke="black" stroke-width="4" stroke-linecap="round" stroke-linejoin="round"/>
<path d="M363.023 402.131L447.343 420.563L580.136 394.465L505.016 376.334L363.023 402.131Z" fill="white" stroke="black" stroke-width="4" stroke-linecap="round" stroke-linejoin="round"/>
<path d="M418.593 403.782C421.611 405.144 427.323 406.382 428.116 406.248C429.625 406.003 431.123 405.233 432.565 404.742C433.693 404.363 435.292 404.273 436.331 403.704C438.913 402.309 435.158 401.417 433.839 401.004C431.525 400.268 429.055 400.123 426.641 400.357C424.584 400.558 422.181 400.558 420.203 400.971C419.868 401.038 416.894 401.785 416.771 402.153C416.593 402.655 417.375 403.224 418.593 403.771V403.782Z" stroke="black" stroke-width="4" stroke-linecap="round" stroke-linejoin="round"/>
<path d="M436.633 397.356C439.114 398.483 441.841 400.781 444.535 401.228C446.614 401.573 449.307 400.168 451.141 399.308C451.979 398.918 453.991 398.237 454.158 397.133C454.46 395.236 450.872 394.109 449.799 394.22C446.871 394.522 443.73 395.47 440.779 395.972C439.595 396.173 437.952 396.251 436.633 397.356Z" stroke="black" stroke-width="4" stroke-linecap="round" stroke-linejoin="round"/>
<path d="M436.075 407.699C437.338 407.252 438.847 406.873 439.484 406.538C441.552 405.456 444.346 404.418 446.827 404.854C448.236 405.099 450.974 408.502 452.17 407.777C451.108 408.413 450.125 409.027 449.163 409.819C448.146 410.667 446.805 412.418 445.52 412.764C444.447 413.054 442.826 412.273 441.831 411.983C440.457 411.582 433.091 411.582 434.074 408.87C434.242 408.424 435.08 408.034 436.075 407.676V407.699Z" stroke="black" stroke-width="4" stroke-linecap="round" stroke-linejoin="round"/>
<path d="M446.895 429.445V420.742" stroke="black" stroke-width="4" stroke-linecap="round" stroke-linejoin="round"/>
<path d="M439.874 418.734L485.801 322.287C487.533 318.627 491.199 315.971 495.424 315.324L603.438 299.235C609.82 298.253 616.202 299.045 621.824 301.522L623.97 302.482L447.441 420.742L439.863 418.745L439.874 418.734Z" fill="black" stroke="black" stroke-width="4" stroke-linecap="round" stroke-linejoin="round"/>
<path d="M446.895 420.742L491.357 327.319C493.022 323.793 496.554 321.238 500.622 320.624L620.942 301.723C624.105 301.21 626.318 304.256 624.877 307.157L581.801 393.261C581.231 394.399 580.158 395.213 578.895 395.47L446.895 420.753V420.742Z" fill="white" stroke="black" stroke-width="4" stroke-linecap="round" stroke-linejoin="round"/>
<path d="M546.046 349.043C546.572 354.432 550.182 358.438 555.368 359.42C549.958 360.837 545.331 365.233 543.464 370.51C543.04 365.3 539.508 361.462 534.512 360.848C539.832 359.241 544.37 354.678 546.046 349.043Z" fill="black" stroke="black" stroke-width="4" stroke-linecap="round" stroke-linejoin="round"/>
<path d="M198.484 223.463C201.223 220.216 203.782 216.132 207.236 213.555" stroke="black" stroke-width="4" stroke-linecap="round" stroke-linejoin="round"/>
<path d="M154.258 166.435C165.994 166.368 178.467 161.492 186.224 152.388" stroke="black" stroke-width="4" stroke-linecap="round" stroke-linejoin="round"/>
</svg>
