<svg width="472" height="433" viewBox="0 0 472 433" fill="none" xmlns="http://www.w3.org/2000/svg">
<g clip-path="url(#clip0_86_9731)">
<path d="M316.96 383.607L342.415 291.451H294.262L268.826 383.607H316.96Z" fill="white"/>
<path d="M316.96 383.607L305.473 429.111C305.232 430.389 304.122 431.333 302.827 431.333H236.823C235.195 431.333 234.122 429.944 234.122 428.314C233.956 404.072 264.091 402.59 264.091 402.59L268.826 383.607H316.979H316.96Z" fill="#DCF672"/>
<path d="M37.5158 194.128C36.9979 194.128 36.4799 193.887 36.1469 193.424L0.295995 141.938C-0.0739839 141.401 -0.0924829 140.697 0.240498 140.123C0.573478 139.568 1.22094 139.253 1.8684 139.345L99.6352 152.309C100.32 152.402 100.893 152.921 101.041 153.606C101.189 154.291 100.893 154.995 100.301 155.365L79.7674 168.144C78.9904 168.626 77.973 168.385 77.492 167.607C77.011 166.829 77.2515 165.811 78.0285 165.329L94.6405 154.995L5.16121 143.123L37.9783 190.239L61.8789 175.367C62.6559 174.885 63.6733 175.126 64.1543 175.904C64.6352 176.682 64.3948 177.701 63.6178 178.182L38.3853 193.887C38.1078 194.054 37.8118 194.128 37.5158 194.128Z" fill="#DCF672"/>
<path d="M69.26 201.962C68.9455 201.962 68.631 201.869 68.372 201.702L46.5803 187.683C45.8033 187.183 45.5814 186.164 46.0808 185.386C46.5803 184.608 47.5977 184.386 48.3747 184.886L66.5221 196.554L61.3424 177.849L0.813973 142.42C0.0185192 141.957 -0.240466 140.938 0.222007 140.16C0.68448 139.364 1.70192 139.104 2.49737 139.567L63.5993 175.348C63.9693 175.571 64.2468 175.922 64.3578 176.33L70.8694 199.869C71.0544 200.536 70.8139 201.239 70.2589 201.647C69.9629 201.869 69.63 201.962 69.2785 201.962H69.26Z" fill="#DCF672"/>
<path d="M69.26 201.962C69.112 201.962 68.964 201.943 68.7975 201.906C67.9096 201.647 67.4101 200.739 67.6691 199.85L76.8631 167.811L1.12848 142.549C0.259031 142.253 -0.203442 141.327 0.0740415 140.456C0.370024 139.586 1.29497 139.123 2.16442 139.401L79.3974 165.144C80.2484 165.422 80.7108 166.329 80.4704 167.181L70.8509 200.758C70.6474 201.48 69.9815 201.962 69.26 201.962Z" fill="#DCF672"/>
<path d="M417.743 291.451H369.59V383.588H417.743V291.451Z" fill="white"/>
<path d="M417.743 385.255H369.59C368.684 385.255 367.925 384.514 367.925 383.588V291.451C367.925 290.543 368.665 289.784 369.59 289.784H417.743C418.649 289.784 419.408 290.525 419.408 291.451V383.588C419.408 384.496 418.668 385.255 417.743 385.255ZM371.255 381.94H416.096V293.118H371.255V381.94Z" fill="black"/>
<path d="M316.96 385.255H268.808C268.29 385.255 267.809 385.014 267.494 384.607C267.18 384.199 267.087 383.662 267.217 383.162L292.671 291.025C292.875 290.303 293.522 289.802 294.262 289.802H342.415C342.933 289.802 343.414 290.043 343.728 290.451C344.043 290.858 344.154 291.395 344.006 291.895L318.551 384.033C318.348 384.755 317.7 385.255 316.96 385.255ZM270.991 381.94H315.702L340.232 293.118H295.52L270.991 381.94Z" fill="black"/>
<path d="M368.147 408.016L368.314 383.607H419.63L419.796 408.016C423.052 413.572 423.718 423.055 423.81 427.851C423.847 429.759 422.516 431.333 420.851 431.333H367.056C365.391 431.333 364.059 429.759 364.096 427.851C364.207 423.055 364.873 413.554 368.129 408.016H368.147Z" fill="#DCF672"/>
<path d="M261.741 124.122C262.537 118.64 264.516 113.454 264.609 107.824C264.701 102.009 263.499 96.2119 263.147 90.4337C262.444 79.266 271.361 75.8583 283.126 73.4878C284.92 73.1174 299.516 68.0984 305.917 73.1359C309.857 76.2287 314.426 82.8589 316.96 87.063C319.365 91.0448 330.557 100.083 330.557 100.083V177.2C330.557 178.645 321.123 181.034 319.828 181.33C305.824 184.534 290.489 181.756 280.055 171.552C274.098 165.718 269.862 158.328 266.625 150.624C263.758 143.809 261.63 136.493 261.445 129.067C261.408 127.381 261.538 125.733 261.778 124.122H261.741Z" fill="white"/>
<path d="M308.691 184.275C297.222 184.275 286.585 180.256 278.89 172.737C273.451 167.422 268.937 160.403 265.09 151.272C261.686 143.216 259.947 135.956 259.78 129.104C259.743 127.455 259.854 125.752 260.132 123.881C260.446 121.714 260.946 119.603 261.427 117.547C262.204 114.232 262.925 111.102 262.981 107.787C263.036 104.361 262.611 100.842 262.204 97.4158C261.926 95.1563 261.649 92.8228 261.501 90.5078C260.687 77.414 272.064 74.0063 282.812 71.8395C282.978 71.8025 283.422 71.6728 283.921 71.5432C288.509 70.2653 300.681 66.8761 306.953 71.821C310.819 74.8583 315.388 81.2477 318.385 86.1926C320.235 89.2484 328.559 96.3046 331.612 98.7677C332 99.0826 332.222 99.5641 332.222 100.064V177.182C332.222 178.071 332.222 180.164 320.198 182.923C316.332 183.812 312.465 184.238 308.691 184.238V184.275ZM297.685 72.5618C292.708 72.5618 287.177 74.0989 284.772 74.7657C284.143 74.9324 283.718 75.062 283.44 75.1176C271.176 77.5807 264.202 80.8773 264.794 90.3226C264.942 92.545 265.201 94.8229 265.478 97.0454C265.903 100.564 266.329 104.213 266.273 107.861C266.218 111.528 265.404 114.973 264.627 118.306C264.165 120.288 263.684 122.344 263.388 124.381C263.147 126.066 263.036 127.585 263.073 129.03C263.24 135.456 264.886 142.308 268.123 149.994C271.805 158.699 276.078 165.366 281.184 170.366C290.6 179.571 304.899 183.053 319.439 179.719C322.492 179.015 327.486 177.515 328.874 176.645V100.879C326.321 98.7862 317.756 91.619 315.518 87.9335C312.669 83.2294 308.377 77.2103 304.862 74.4508C303.086 73.0433 300.459 72.5618 297.666 72.5618H297.685Z" fill="black"/>
<path d="M424.976 93.971C419.5 92.7487 411.25 88.1186 410.898 82.5811C410.362 73.8952 410.676 65.2093 410.695 56.5233C410.695 48.3745 411.416 39.7256 407.494 32.2435C400.095 18.0941 380.061 13.0011 365.446 15.9458C349.759 19.0942 338.123 32.1138 336.829 47.8374C336.459 52.4119 336.847 57.3012 334.609 61.4867C332.056 66.2279 329.41 70.9875 326.58 75.6176C323.306 80.9884 319.902 87.3778 323.047 93.7117C324.064 95.7674 325.711 97.4528 327.653 98.7307C334.368 103.194 342.674 103.472 349.722 100.101C356.03 111.639 364.114 122.307 372.772 132.178C371.736 136.16 371.163 140.345 371.163 144.661C371.163 156.624 375.454 167.607 382.595 176.2C384.204 182.312 387.442 186.923 394.638 188.405C395.766 188.646 397.08 188.812 398.559 188.905C405.46 192.405 413.285 194.406 421.591 194.406C449.45 194.406 472.019 172.126 472.019 144.661C472.019 120.881 449.006 99.2677 424.994 93.9525L424.976 93.971Z" fill="black"/>
<g filter="url(#filter0_d_86_9731)">
<path d="M118.023 0H315.277C322.843 0 328.966 6.14867 328.966 13.7049V116.399C328.966 116.399 315.37 113.621 294.725 133.9H175.462L130.325 167.57C127.624 169.589 123.795 167.662 123.795 164.292V133.9H118.023C110.457 133.9 104.334 127.752 104.334 120.195V13.7049C104.334 6.13015 110.476 0 118.023 0Z" fill="#BF96F8"/>
<path d="M327.466 13.7049V114.773C327.168 114.768 326.834 114.77 326.466 114.783C324.74 114.844 322.265 115.151 319.146 116.111C312.991 118.006 304.386 122.422 294.114 132.4H175.462H174.965L174.565 132.698L129.428 166.368L129.427 166.368C127.719 167.645 125.295 166.432 125.295 164.292V133.9V132.4H123.795H118.023C111.288 132.4 105.834 126.926 105.834 120.195V13.7049C105.834 6.95828 111.304 1.5 118.023 1.5H315.277C322.012 1.5 327.466 6.97416 327.466 13.7049Z" stroke="black" stroke-width="3"/>
</g>
<path d="M216.715 88.8409C205.56 88.8409 196.496 79.7661 196.496 68.5984C196.496 57.4308 205.56 48.356 216.715 48.356C227.87 48.356 236.934 57.4308 236.934 68.5984C236.934 79.7661 227.87 88.8409 216.715 88.8409ZM216.715 51.6896C207.391 51.6896 199.807 59.2828 199.807 68.6169C199.807 77.9511 207.391 85.5443 216.715 85.5443C226.038 85.5443 233.623 77.9511 233.623 68.6169C233.623 59.2828 226.038 51.6896 216.715 51.6896Z" fill="white"/>
<path d="M158.055 87.174C168.285 87.174 176.609 78.84 176.609 68.5984C176.609 58.3568 168.285 50.0227 158.055 50.0227C147.825 50.0227 139.5 58.3568 139.5 68.5984C139.5 78.84 147.825 87.174 158.055 87.174Z" fill="white"/>
<path d="M283.422 118.566C272.267 118.566 263.203 109.491 263.203 98.3233C263.203 87.1557 272.267 78.0808 283.422 78.0808C294.577 78.0808 303.641 87.1557 303.641 98.3233C303.641 109.491 294.577 118.566 283.422 118.566ZM283.422 81.4144C274.099 81.4144 266.514 89.0077 266.514 98.3418C266.514 107.676 274.099 115.269 283.422 115.269C292.745 115.269 300.33 107.676 300.33 98.3418C300.33 89.0077 292.745 81.4144 283.422 81.4144Z" fill="white"/>
<path d="M286.955 310.304L316.979 201.147C317.09 201.147 317.275 181.33 317.275 181.33H406.384C406.384 181.33 418.445 199.073 418.445 232.612L420.739 311.175L286.974 310.286L286.955 310.304Z" fill="black"/>
<path d="M328.966 116.399V93.6191C342.767 85.5814 363.707 86.1926 390.475 90.4892C419.278 95.1193 419.389 114.547 415.56 162.366C414.45 176.2 406.162 188.516 393.62 194.406C393.195 194.609 392.788 194.794 392.399 194.943C383.538 198.591 373.752 199.462 364.188 198.887C356.271 198.406 348.335 196.943 341.083 193.72C337.087 191.942 333.295 189.609 329.984 186.738C328.3 185.275 322.51 177.978 319.569 175.552C315.592 172.274 307.748 168.496 301.939 164.922C291.913 158.717 288.953 150.161 293.67 139.086C294.392 137.401 295.335 135.641 296.445 133.882C296.445 133.882 310.615 121.233 316.332 118.695C319.273 117.399 328.966 116.38 328.966 116.38V116.399Z" fill="white"/>
<path d="M369.387 200.721C367.666 200.721 365.909 200.665 364.114 200.554C354.976 200.017 347.225 198.276 340.436 195.257C336.125 193.35 332.259 190.905 328.929 188.016C328.152 187.331 326.802 185.794 325.082 183.831C322.899 181.33 320.179 178.2 318.533 176.867C316.128 174.885 312.003 172.589 308.026 170.366C305.676 169.052 303.234 167.681 301.088 166.366C290.156 159.606 287.159 150.217 292.154 138.475C292.394 137.938 292.653 137.364 292.912 136.808C293.319 135.993 294.299 135.641 295.132 136.049C295.946 136.456 296.297 137.456 295.89 138.271C295.631 138.771 295.409 139.29 295.206 139.771C290.877 149.92 293.374 157.699 302.827 163.551C304.918 164.847 307.323 166.181 309.635 167.477C313.927 169.866 317.978 172.144 320.623 174.311C322.473 175.83 325.174 178.923 327.56 181.664C329.059 183.386 330.465 184.997 331.075 185.534C334.165 188.22 337.753 190.479 341.749 192.257C348.187 195.109 355.549 196.758 364.281 197.276C374.807 197.906 384.056 196.609 391.752 193.442C392.103 193.294 392.492 193.128 392.899 192.942C404.775 187.368 412.822 175.608 413.895 162.273C417.854 112.806 416.892 96.4712 390.198 92.1746C360.452 87.3964 342.526 88.1187 330.613 94.6377V116.436C330.613 117.343 329.873 118.103 328.948 118.103C328.023 118.103 327.283 117.362 327.283 116.436V93.6562C327.283 93.0635 327.597 92.5265 328.097 92.2301C340.732 84.8777 359.453 83.8776 390.697 88.8965C405.607 91.3041 413.414 97.5639 416.818 109.843C420.111 121.788 419.056 139.216 417.188 162.551C416.022 177.071 407.254 189.868 394.305 195.961C393.861 196.165 393.417 196.369 393.028 196.535C386.184 199.35 378.248 200.776 369.368 200.776L369.387 200.721Z" fill="black"/>
<path d="M262.5 120.825C265.848 123.122 286.604 131.863 288.731 132.993C289.527 133.419 293.375 136.623 297.389 140.049C303.161 144.957 311.763 144.512 316.979 139.012C322.27 133.437 322.196 124.659 316.794 119.177C312.521 114.843 308.322 110.454 307.6 109.269C305.658 106.046 308.47 104.027 309.839 101.323C311.504 98.0453 310.246 94.3413 306.472 93.5264C302.328 92.6375 299.091 96.0452 296.889 99.064C295.41 101.083 294.059 103.212 293.116 105.565C292.191 107.88 290.489 110.695 288.768 111.195C284.199 112.528 274.506 108.25 271.157 104.046C269.178 101.564 265.312 96.8786 261.575 97.9342C258.393 98.8232 257.635 102.416 258.319 105.213C249.44 102.786 250.18 112.398 262.481 120.844L262.5 120.825Z" fill="white"/>
<path d="M272.193 127.27C271.675 127.27 271.157 127.029 270.824 126.548L256.469 105.731C255.951 104.972 256.136 103.953 256.894 103.416C257.653 102.898 258.67 103.083 259.207 103.842L273.562 124.659C274.08 125.418 273.895 126.437 273.136 126.974C272.84 127.178 272.526 127.27 272.193 127.27Z" fill="black"/>
<path d="M387.386 143.679C387.016 143.679 386.646 143.549 386.332 143.29C379.894 137.938 372.42 138.864 366.39 139.605C363.171 139.994 360.637 140.308 358.731 139.586C356.474 138.734 354.847 136.512 352.793 133.697C349.722 129.53 345.912 124.326 338.29 120.659C326.34 114.917 318.071 120.307 317.719 120.529C316.961 121.029 315.925 120.844 315.425 120.084C314.907 119.325 315.111 118.306 315.869 117.788C316.276 117.51 326.007 111.065 339.733 117.658C348.113 121.677 352.368 127.474 355.475 131.715C357.214 134.086 358.583 135.956 359.934 136.475C361.062 136.901 363.467 136.604 366.001 136.308C372.291 135.53 380.93 134.475 388.459 140.734C389.162 141.327 389.255 142.364 388.681 143.068C388.348 143.457 387.886 143.66 387.405 143.66L387.386 143.679Z" fill="black"/>
<path d="M383.963 91.8782V54.0417C373.659 50.5043 360.692 34.7252 356.178 29.1692C355.383 28.1876 353.884 28.1876 353.07 29.1506C353.07 29.1506 345.005 34.9289 343.747 43.2259C340.953 61.6905 337.494 81.5255 355.161 81.5255V92.7672L383.945 91.8967L383.963 91.8782Z" fill="white"/>
<path d="M371.902 45.041C371.551 45.041 371.181 44.9299 370.885 44.6891C370.682 44.5224 365.927 40.9666 361.173 44.6891C360.452 45.2447 359.416 45.1336 358.842 44.4113C358.287 43.689 358.398 42.6519 359.12 42.0778C364.577 37.7996 370.515 40.2072 372.901 42.0778C373.623 42.6334 373.752 43.689 373.179 44.4113C372.846 44.8373 372.365 45.041 371.865 45.041H371.902Z" fill="black"/>
<path d="M350.777 53.2824C350.092 53.2824 349.445 52.8379 349.204 52.1527C348.816 51.0045 347.706 49.9488 346.781 49.8562C346.578 49.8377 346.115 49.7821 345.634 50.6155C345.375 51.0415 344.783 51.7453 344.45 52.1157C343.877 52.7453 342.933 52.8379 342.249 52.3379L340.565 51.0971C339.825 50.56 339.659 49.5228 340.214 48.782C340.75 48.0412 341.786 47.8746 342.526 48.4302L342.933 48.7265C343.932 47.1708 345.468 46.3929 347.151 46.5781C349.371 46.8189 351.572 48.7265 352.368 51.1341C352.664 52.0045 352.183 52.9491 351.313 53.2269C351.147 53.2824 350.962 53.3195 350.795 53.3195L350.777 53.2824Z" fill="black"/>
<path d="M343.951 51.6341C343.951 53.1898 344.839 54.4492 345.949 54.4492C347.059 54.4492 347.946 53.1898 347.946 51.6341C347.946 50.0785 347.059 48.8191 345.949 48.8191C344.839 48.8191 343.951 50.0785 343.951 51.6341Z" fill="black"/>
<path d="M360.988 51.6341C360.988 53.1898 361.876 54.4492 362.986 54.4492C364.096 54.4492 364.984 53.1898 364.984 51.6341C364.984 50.0785 364.096 48.8191 362.986 48.8191C361.876 48.8191 360.988 50.0785 360.988 51.6341Z" fill="black"/>
<path d="M370.534 53.6342C370.127 53.6342 369.72 53.4861 369.405 53.1898C369.313 53.0972 368.48 52.3008 367.925 51.2266C367.5 50.4117 366.649 49.7821 365.668 49.5969C365.187 49.5043 364.262 49.4487 363.467 50.1154C362.894 50.5969 362.394 51.3933 362.061 52.3378C361.765 53.2083 360.822 53.6528 359.952 53.3564C359.083 53.0601 358.639 52.1156 358.935 51.2451C359.305 50.1895 360.026 48.6709 361.34 47.5596C362.69 46.4114 364.503 45.9669 366.316 46.3188C368.277 46.7077 369.979 47.9671 370.867 49.6709L371.625 49.1153C372.365 48.5783 373.401 48.7449 373.937 49.4857C374.474 50.2265 374.307 51.2637 373.567 51.8008L371.514 53.2824C371.218 53.4861 370.885 53.5972 370.552 53.5972L370.534 53.6342Z" fill="black"/>
<path d="M350.037 45.652C349.648 45.652 349.278 45.5224 348.964 45.2631C348.816 45.1335 345.319 42.2258 342.619 44.6149C341.934 45.2261 340.88 45.152 340.288 44.4667C339.677 43.7815 339.751 42.7259 340.436 42.1332C344.339 38.6885 349.13 41.0405 351.128 42.7629C351.813 43.3555 351.905 44.4112 351.295 45.0964C350.962 45.4853 350.499 45.6705 350.037 45.6705V45.652Z" fill="black"/>
<path d="M355.161 91.7672C354.255 91.7672 353.496 91.0264 353.496 90.1004V83.2109C353.496 82.7479 353.7 82.3034 354.033 81.9886C354.366 81.6737 354.828 81.5071 355.29 81.5626C361.451 82.0997 365.853 80.3588 365.89 80.3588C366.741 80.0254 367.703 80.4329 368.036 81.2848C368.369 82.1367 367.981 83.0998 367.13 83.4331C366.945 83.5072 362.82 85.1555 356.807 84.9703V90.1004C356.807 91.0079 356.067 91.7672 355.142 91.7672H355.161Z" fill="black"/>
<path d="M351.535 64.1166C351.11 64.1166 350.666 63.95 350.351 63.6166C348.76 61.9683 346.892 59.6533 347.04 57.9495C347.169 56.4864 347.854 55.5418 348.501 54.6344C349.315 53.5046 350.333 52.0786 351.091 48.6894C351.295 47.8004 352.183 47.2263 353.071 47.43C353.959 47.6338 354.532 48.5227 354.329 49.4117C353.422 53.4676 352.072 55.3381 351.184 56.5604C350.647 57.3013 350.407 57.6531 350.333 58.1347C350.499 58.6903 351.609 60.1533 352.701 61.2831C353.33 61.9498 353.33 62.9869 352.664 63.6351C352.349 63.95 351.924 64.0981 351.517 64.0981L351.535 64.1166Z" fill="black"/>
<path d="M376.546 49.9116C377.582 51.8747 378.358 62.4497 374.437 73.8766C371.773 81.6736 364.762 90.0076 367.833 99.0825C370.644 107.379 379.912 110.972 386.979 110.12C395.1 109.139 401.131 102.268 406.384 95.5637C407.272 94.4339 401.26 63.3757 392.769 51.1525C386.073 41.485 376.546 49.9487 376.527 49.9116H376.546Z" fill="black"/>
<path d="M366.223 103.287C363.874 103.287 361.617 102.972 359.452 102.361C348.538 99.2308 344.339 89.267 344.154 88.841C343.802 87.9891 344.209 87.026 345.06 86.6741C345.911 86.3223 346.873 86.7297 347.225 87.5816C347.262 87.6742 350.998 96.4898 360.396 99.1752C368.979 101.638 379.561 98.4159 391.825 89.6003C392.565 89.0632 393.601 89.2299 394.138 89.9892C394.674 90.73 394.508 91.7672 393.749 92.3042C383.556 99.6197 374.344 103.287 366.223 103.287Z" fill="black"/>
<g filter="url(#filter1_d_86_9731)">
<path d="M141.591 181.052H260.391C264.942 181.052 268.641 184.757 268.641 189.312V253.429C268.641 257.985 264.942 261.689 260.391 261.689H260.021V277.987C260.021 281.82 255.637 284.024 252.566 281.728L225.705 261.689H141.591C137.04 261.689 133.34 257.985 133.34 253.429V189.312C133.34 184.757 137.04 181.052 141.591 181.052Z" fill="white"/>
<path d="M255.341 284.302C254.009 284.302 252.695 283.876 251.567 283.043L225.15 263.337H141.572C136.115 263.337 131.657 258.893 131.657 253.429V189.313C131.657 183.849 136.096 179.404 141.572 179.404H260.372C265.829 179.404 270.288 183.849 270.288 189.313V253.429C270.288 258.467 266.532 262.634 261.667 263.263V277.987C261.667 280.394 260.335 282.561 258.189 283.635C257.283 284.098 256.321 284.321 255.341 284.321V284.302ZM141.572 182.701C137.928 182.701 134.987 185.664 134.987 189.294V253.411C134.987 257.059 137.946 260.004 141.572 260.004H225.687C226.038 260.004 226.39 260.115 226.686 260.337L253.546 280.376C254.471 281.08 255.655 281.172 256.691 280.654C257.727 280.135 258.356 279.117 258.356 277.968V261.671C258.356 260.763 259.096 260.004 260.021 260.004H260.391C264.035 260.004 266.976 257.041 266.976 253.411V189.294C266.976 185.664 264.017 182.701 260.391 182.701H141.591H141.572Z" fill="black"/>
<path d="M184.175 222.463C184.175 213.74 177.109 206.666 168.396 206.666C159.683 206.666 152.616 213.74 152.616 222.463C152.616 231.186 159.683 238.261 168.396 238.261C177.109 238.261 184.175 231.186 184.175 222.463Z" fill="#DCF672"/>
<path d="M220.174 236.335H192.962C192.056 236.335 191.297 235.594 191.297 234.668C191.297 233.742 192.037 233.001 192.962 233.001H220.174C221.081 233.001 221.839 233.742 221.839 234.668C221.839 235.594 221.099 236.335 220.174 236.335Z" fill="black"/>
<path d="M252.381 211.926H192.962C192.056 211.926 191.297 211.185 191.297 210.259C191.297 209.333 192.037 208.592 192.962 208.592H252.381C253.287 208.592 254.046 209.333 254.046 210.259C254.046 211.185 253.306 211.926 252.381 211.926Z" fill="black"/>
</g>
<path d="M88.8133 265.393H62.0638C61.4719 265.393 60.9169 265.078 60.6209 264.56C60.3249 264.041 60.3249 263.411 60.6209 262.893L73.2372 241.317C73.5332 240.817 74.0511 240.52 74.6246 240.502C75.2166 240.502 75.753 240.78 76.049 241.243L90.1822 262.819C90.5152 263.337 90.5522 263.985 90.2562 264.523C89.9602 265.06 89.4052 265.393 88.7948 265.393H88.8133ZM64.9497 262.078H85.7424L74.7541 245.299L64.9497 262.078Z" fill="#CCD0DF"/>
<path d="M176.147 397.386H151.34C150.803 397.386 150.304 397.127 149.989 396.682C149.675 396.238 149.601 395.682 149.786 395.163L161.292 362.605C161.514 361.957 162.125 361.512 162.809 361.494C163.531 361.494 164.123 361.883 164.382 362.531L177.682 395.089C177.886 395.608 177.83 396.182 177.516 396.645C177.201 397.108 176.702 397.386 176.147 397.386ZM153.689 394.071H173.687L162.957 367.828L153.689 394.071Z" fill="#CCD0DF"/>
<path d="M352.516 74.0248C350.758 74.0248 349.075 73.2655 347.706 71.8579C347.669 71.8209 344.432 68.4132 345.912 66.0611C346.707 64.8018 348.483 64.8573 350.925 64.9129C351.276 64.9129 351.628 64.9129 351.961 64.9314C352.423 64.9314 352.923 64.9314 353.422 64.9129C356.215 64.8388 359.12 64.7462 360.026 66.9131C360.285 67.5427 360.433 68.5613 359.675 69.8392C358.509 71.8024 355.475 73.747 353.182 73.9877C352.96 74.0063 352.738 74.0248 352.534 74.0248H352.516ZM349.13 68.2095C349.371 68.6354 349.704 69.154 350.092 69.5429C350.555 70.0244 351.535 70.8208 352.83 70.6912C354.199 70.543 356.141 69.1725 356.752 68.3021C355.956 68.1539 354.421 68.1909 353.533 68.228C352.978 68.228 352.442 68.265 351.942 68.2465C351.591 68.2465 351.239 68.2465 350.851 68.228C350.37 68.228 349.704 68.1909 349.13 68.2095Z" fill="black"/>
<path d="M306.638 145.123C302.975 145.123 299.312 143.864 296.316 141.327C289.434 135.474 288.176 134.604 287.936 134.474C287.307 134.141 284.513 132.9 281.276 131.493C272.138 127.474 263.758 123.733 261.556 122.214C253.509 116.695 249.217 109.935 251.141 105.768C251.585 104.824 252.899 102.935 256.432 103.194C256.469 100.194 257.912 97.2305 261.131 96.3415C266.051 94.9525 270.547 100.601 272.47 103.009C275.597 106.916 284.624 110.676 288.324 109.602C289.083 109.38 290.562 107.528 291.598 104.953C292.449 102.805 293.726 100.62 295.576 98.1009C296.926 96.2674 301.014 90.6743 306.841 91.9152C309.006 92.3782 310.689 93.6561 311.577 95.5081C312.521 97.4897 312.428 99.8788 311.337 102.083C310.93 102.879 310.449 103.583 309.986 104.25C308.617 106.25 308.21 107.065 309.024 108.417C309.265 108.824 310.615 110.565 317.978 118.029C324.027 124.177 324.12 133.9 318.181 140.179C315.074 143.475 310.856 145.142 306.638 145.142V145.123ZM263.443 119.473C265.57 120.936 276.244 125.64 282.626 128.455C286.548 130.178 288.805 131.178 289.508 131.548C289.859 131.733 290.692 132.178 298.461 138.808C303.567 143.16 311.17 142.753 315.776 137.901C320.475 132.937 320.401 125.233 315.61 120.362C307.193 111.806 306.453 110.602 306.194 110.139C304.196 106.824 305.954 104.25 307.248 102.361C307.674 101.749 308.062 101.175 308.377 100.583C309.006 99.3232 309.098 97.9898 308.599 96.9341C308.155 96.0266 307.322 95.397 306.157 95.1562C303.623 94.6006 301.107 96.1748 298.258 100.064C296.575 102.361 295.446 104.305 294.688 106.194C294.151 107.528 292.19 111.954 289.268 112.806C283.94 114.362 273.506 109.62 269.899 105.101C268.512 103.361 264.849 98.7676 262.056 99.5455C259.725 100.194 259.521 103.064 259.965 104.842C260.113 105.416 259.928 106.009 259.521 106.435C259.096 106.842 258.485 107.009 257.93 106.842C255.969 106.305 254.545 106.435 254.194 107.194C253.472 108.768 255.433 113.991 263.462 119.492L263.443 119.473Z" fill="black"/>
<path d="M235.547 419.721C234.622 422.203 234.085 425.055 234.122 428.315C234.122 429.944 235.195 431.352 236.823 431.333H302.827C304.122 431.333 305.232 430.389 305.473 429.111L307.841 419.721H235.547Z" fill="white"/>
<path d="M273.507 404.423H263.573C262.666 404.423 261.908 403.683 261.908 402.757C261.908 401.831 262.648 401.09 263.573 401.09H273.507C274.413 401.09 275.171 401.831 275.171 402.757C275.171 403.683 274.431 404.423 273.507 404.423Z" fill="black"/>
<path d="M423.81 427.852C423.847 429.759 422.516 431.333 420.851 431.333H367.056C365.391 431.333 364.059 429.759 364.096 427.852C364.133 425.87 364.318 422.703 364.706 419.721H423.182C423.57 422.703 423.755 425.87 423.81 427.852Z" fill="white"/>
<path d="M409.992 405.701H381.855C380.948 405.701 380.19 404.961 380.19 404.035C380.19 403.108 380.93 402.368 381.855 402.368H409.992C410.898 402.368 411.657 403.108 411.657 404.035C411.657 404.961 410.917 405.701 409.992 405.701Z" fill="black"/>
<path d="M420.869 433H367.074C365.908 433 364.78 432.518 363.929 431.648C362.967 430.666 362.431 429.259 362.468 427.814C362.579 422.74 363.263 413.461 366.5 407.572L366.667 383.588C366.667 382.681 367.407 381.94 368.332 381.94H419.648C420.554 381.94 421.294 382.681 421.313 383.588L421.479 407.572C424.716 413.461 425.401 422.74 425.512 427.814C425.549 429.259 425.012 430.666 424.051 431.648C423.2 432.518 422.071 433 420.906 433H420.869ZM369.96 385.274L369.812 408.035C369.812 408.331 369.738 408.609 369.59 408.868C366.426 414.276 365.871 423.981 365.797 427.907C365.797 428.462 365.982 429 366.315 429.351C366.482 429.518 366.741 429.703 367.092 429.703H420.887C421.239 429.703 421.498 429.5 421.664 429.351C422.016 429 422.201 428.481 422.182 427.907C422.09 423.981 421.553 414.276 418.39 408.868C418.242 408.609 418.168 408.331 418.168 408.035L418.02 385.274H369.997H369.96Z" fill="black"/>
<path d="M302.846 433H236.823C234.382 433 232.476 430.944 232.458 428.333C232.31 405.72 256.895 401.682 262.759 401.034L267.199 383.199C267.384 382.459 268.05 381.94 268.808 381.94H316.961C317.479 381.94 317.96 382.181 318.274 382.588C318.589 382.996 318.7 383.514 318.57 384.014L307.082 429.481C306.675 431.518 304.899 432.981 302.828 433H302.846ZM236.805 429.685H302.828C303.327 429.685 303.753 429.314 303.845 428.833C303.864 428.722 314.833 385.274 314.833 385.274H270.103L265.682 402.997C265.497 403.701 264.886 404.22 264.165 404.257C262.999 404.312 235.621 405.961 235.769 428.314C235.769 428.87 236.046 429.703 236.805 429.703V429.685Z" fill="black"/>
</g>
<defs>
<filter id="filter0_d_86_9731" x="104.334" y="0" width="232.632" height="176.393" filterUnits="userSpaceOnUse" color-interpolation-filters="sRGB">
<feFlood flood-opacity="0" result="BackgroundImageFix"/>
<feColorMatrix in="SourceAlpha" type="matrix" values="0 0 0 0 0 0 0 0 0 0 0 0 0 0 0 0 0 0 127 0" result="hardAlpha"/>
<feOffset dx="8" dy="8"/>
<feComposite in2="hardAlpha" operator="out"/>
<feColorMatrix type="matrix" values="0 0 0 0 0 0 0 0 0 0 0 0 0 0 0 0 0 0 1 0"/>
<feBlend mode="normal" in2="BackgroundImageFix" result="effect1_dropShadow_86_9731"/>
<feBlend mode="normal" in="SourceGraphic" in2="effect1_dropShadow_86_9731" result="shape"/>
</filter>
<filter id="filter1_d_86_9731" x="131.657" y="179.404" width="146.631" height="112.917" filterUnits="userSpaceOnUse" color-interpolation-filters="sRGB">
<feFlood flood-opacity="0" result="BackgroundImageFix"/>
<feColorMatrix in="SourceAlpha" type="matrix" values="0 0 0 0 0 0 0 0 0 0 0 0 0 0 0 0 0 0 127 0" result="hardAlpha"/>
<feOffset dx="8" dy="8"/>
<feComposite in2="hardAlpha" operator="out"/>
<feColorMatrix type="matrix" values="0 0 0 0 0 0 0 0 0 0 0 0 0 0 0 0 0 0 1 0"/>
<feBlend mode="normal" in2="BackgroundImageFix" result="effect1_dropShadow_86_9731"/>
<feBlend mode="normal" in="SourceGraphic" in2="effect1_dropShadow_86_9731" result="shape"/>
</filter>
<clipPath id="clip0_86_9731">
<rect width="472" height="433" fill="white"/>
</clipPath>
</defs>
</svg>
