<svg width="2415" height="143" viewBox="0 0 2415 143" fill="none" xmlns="http://www.w3.org/2000/svg">
<g clip-path="url(#clip0_86_9286)">
<path d="M750.268 370H1665.06L2415.33 1.18217e-05H0L750.268 370Z" stroke="black" stroke-miterlimit="10"/>
<path d="M71.6831 35.3667H2343.64" stroke="black" stroke-miterlimit="10"/>
<path d="M135.3 66.7314H2280.03" stroke="black" stroke-miterlimit="10"/>
<path d="M192.205 94.7852H2223.13" stroke="black" stroke-miterlimit="10"/>
<path d="M243.358 120.035H2171.97" stroke="black" stroke-miterlimit="10"/>
<path d="M289.587 142.823H2125.7" stroke="black" stroke-miterlimit="10"/>
<path d="M1629.85 370L2322.44 1.18217e-05" stroke="black" stroke-miterlimit="10"/>
<path d="M1594.68 370L2229.55 1.18217e-05" stroke="black" stroke-miterlimit="10"/>
<path d="M1559.47 370L2136.61 1.18217e-05" stroke="black" stroke-miterlimit="10"/>
<path d="M1524.3 370L2043.72 1.18217e-05" stroke="black" stroke-miterlimit="10"/>
<path d="M1489.13 370L1950.83 1.18217e-05" stroke="black" stroke-miterlimit="10"/>
<path d="M1453.92 370L1857.94 1.18217e-05" stroke="black" stroke-miterlimit="10"/>
<path d="M1418.76 370L1765.05 1.18217e-05" stroke="black" stroke-miterlimit="10"/>
<path d="M1383.59 370L1672.16 1.18217e-05" stroke="black" stroke-miterlimit="10"/>
<path d="M1348.38 370L1579.22 1.18217e-05" stroke="black" stroke-miterlimit="10"/>
<path d="M1313.21 370L1486.33 1.18217e-05" stroke="black" stroke-miterlimit="10"/>
<path d="M1278.04 370L1393.44 1.18217e-05" stroke="black" stroke-miterlimit="10"/>
<path d="M1242.83 370L1300.55 1.18217e-05" stroke="black" stroke-miterlimit="10"/>
<path d="M1207.66 370V1.18217e-05" stroke="black" stroke-miterlimit="10"/>
<path d="M1172.45 370L1114.77 1.18217e-05" stroke="black" stroke-miterlimit="10"/>
<path d="M1137.28 370L1021.88 1.18217e-05" stroke="black" stroke-miterlimit="10"/>
<path d="M1102.12 370L928.947 1.18217e-05" stroke="black" stroke-miterlimit="10"/>
<path d="M1066.91 370L836.057 1.18217e-05" stroke="black" stroke-miterlimit="10"/>
<path d="M1031.74 370L743.167 1.18217e-05" stroke="black" stroke-miterlimit="10"/>
<path d="M996.574 370L650.278 1.18217e-05" stroke="black" stroke-miterlimit="10"/>
<path d="M961.36 370L557.388 1.18217e-05" stroke="black" stroke-miterlimit="10"/>
<path d="M926.194 370L464.498 1.18217e-05" stroke="black" stroke-miterlimit="10"/>
<path d="M891.027 370L371.559 1.18217e-05" stroke="black" stroke-miterlimit="10"/>
<path d="M855.813 370L278.669 1.18217e-05" stroke="black" stroke-miterlimit="10"/>
<path d="M820.648 370L185.779 1.18217e-05" stroke="black" stroke-miterlimit="10"/>
<path d="M785.433 370L92.8896 1.18217e-05" stroke="black" stroke-miterlimit="10"/>
</g>
<defs>
<clipPath id="clip0_86_9286">
<rect width="2415" height="143" fill="white"/>
</clipPath>
</defs>
</svg>
