<svg width="162" height="162" viewBox="0 0 162 162" fill="none" xmlns="http://www.w3.org/2000/svg">
<path d="M148.45 126.193L129.463 120.434L110.459 114.691L113.637 134.274L116.814 153.858L103.249 139.392L89.669 124.91L82.6269 143.455L75.5847 162L71.0632 142.676L66.5567 123.367L51.174 135.909L35.8064 148.435L41.5655 129.447L47.3092 110.459L27.7257 113.637L8.14195 116.814L22.6081 103.234L37.0896 89.669L18.5449 82.6269L0 75.5847L19.324 71.0631L38.6324 66.5567L26.091 51.174L13.5649 35.8065L32.5527 41.5502L51.5406 47.3092L48.3631 27.7256L45.1858 8.14199L58.7661 22.6082L72.331 37.0897L79.3731 18.5449L86.4153 0L90.9368 19.3086L95.4433 38.6325L110.826 26.0911L126.194 13.5496L120.45 32.5375L114.691 51.5406L134.275 48.3632L153.858 45.1858L139.392 58.7508L124.91 72.331L143.455 79.3731L162 86.4152L142.691 90.9369L123.368 95.4433L135.909 110.826L148.45 126.193Z" fill="#BF96F8"/>
</svg>
