<svg width="472" height="455" viewBox="0 0 472 455" fill="none" xmlns="http://www.w3.org/2000/svg">
<g clip-path="url(#clip0_102_2)">
<path d="M358.195 455H177.288C169.585 455 162.889 450.072 160.605 442.728L66.6772 133.236C61.9354 117.04 83.6705 105.619 84.5995 105.135C85.4511 104.691 86.4963 105.039 86.9414 105.87C87.3866 106.72 87.0575 107.764 86.2059 108.208C86.0124 108.305 66.0772 118.799 70.0062 132.231L163.914 441.704C165.734 447.579 171.114 451.541 177.288 451.541H358.195C373.64 451.541 374.588 430.34 374.608 429.451C374.647 428.523 375.401 427.789 376.33 427.789C377.356 427.827 378.092 428.62 378.072 429.586C377.763 438.379 373.214 455.019 358.195 455.019V455Z" fill="black"/>
<path d="M369.595 434.63C368.86 434.63 368.163 434.147 367.931 433.412L272.59 126.452C270.771 120.558 265.391 116.615 259.216 116.615H81.9289C80.9805 116.615 80.187 115.842 80.187 114.876C80.187 113.909 80.9612 113.136 81.9289 113.136H259.216C266.92 113.136 273.616 118.064 275.9 125.408L371.26 432.369C371.55 433.277 371.028 434.243 370.118 434.533C369.944 434.591 369.77 434.611 369.595 434.611V434.63Z" fill="black"/>
<path d="M388.195 164.544C388.195 164.544 393.304 175 396.479 203.989C399.653 232.979 409.349 222.33 435.207 233.443C461.065 244.575 474.013 276.521 449.529 306.342C425.046 336.162 321.422 333.167 307.873 307.733C294.325 282.319 319.912 254.18 320.26 246.198C320.589 238.216 320.26 157.954 320.26 157.954L388.175 164.544H388.195Z" fill="black"/>
<path d="M383.433 430.456C383.627 431.055 441.439 430.687 464.161 430.533C468.477 430.494 471.419 426.184 469.851 422.165C464.432 408.192 454.155 379.936 452.994 364.031C451.407 342.308 459.671 270.897 436.329 256.634C413.007 242.391 394.02 229.268 333.828 234.39C273.635 239.511 269.397 318.981 274.158 345.478C278.938 371.974 288.441 430.803 288.441 430.803L383.414 430.475L383.433 430.456Z" fill="black"/>
<path d="M288.461 432.524C287.609 432.524 286.893 431.905 286.758 431.074C286.661 430.494 277.197 371.955 272.474 345.787C269.339 328.451 269.803 283.653 291.151 255.823C301.796 241.947 316.119 234.158 333.693 232.651C392.375 227.664 412.059 239.724 434.839 253.678L437.239 255.146C456.149 266.684 455.258 312.584 454.678 342.946C454.504 351.585 454.368 359.064 454.716 363.876C455.858 379.357 465.69 406.626 471.458 421.527C472.387 423.943 472.077 426.668 470.626 428.794C469.174 430.919 466.755 432.214 464.161 432.234C453.458 432.311 432.904 432.446 415.349 432.485C405.769 432.504 398.221 432.485 392.917 432.446C389.898 432.427 387.556 432.388 385.969 432.33C384.711 432.292 383.84 432.272 383.201 432.156L288.461 432.485V432.524ZM383.976 428.813C386.879 429.141 417.42 429.141 464.142 428.813C465.613 428.813 466.948 428.098 467.761 426.88C468.594 425.663 468.768 424.175 468.226 422.802C462.381 407.728 452.413 380.091 451.252 364.166C450.884 359.18 451.039 351.643 451.194 342.907C451.755 313.338 452.626 268.636 435.42 258.123L433.02 256.654C410.762 243.009 391.524 231.22 333.963 236.129C317.396 237.54 303.906 244.884 293.88 257.949C273.229 284.851 272.823 328.335 275.861 345.188C280.158 369.075 288.422 419.826 289.913 429.083L383.414 428.755C383.608 428.755 383.782 428.794 383.956 428.852L383.976 428.813Z" fill="black"/>
<path d="M333.828 234.39C331.776 234.564 329.783 234.834 327.867 235.182C313.215 239.531 302.822 249.117 295.622 261.543C296.687 261.988 297.751 262.413 298.893 262.838C339.325 277.874 389.55 259.707 418.291 246.082C400.408 236.806 378.44 230.583 333.847 234.371L333.828 234.39Z" fill="white"/>
<path d="M363.324 442.399H186.037C179.147 442.399 173.05 437.916 170.998 431.345L75.658 124.365C72.5225 114.257 80.0902 103.995 90.6964 103.995H267.965C274.855 103.995 280.951 108.479 283.003 115.05L378.363 422.01C381.498 432.118 373.931 442.38 363.324 442.38V442.399Z" fill="black"/>
<path d="M175.74 391.049L95.3414 134.376C93.077 127.128 98.4962 119.765 106.103 119.765H259.681C264.616 119.765 268.971 122.954 270.442 127.65L350.841 384.323C353.105 391.571 347.686 398.934 340.079 398.934H186.501C181.566 398.934 177.211 395.745 175.74 391.049Z" fill="white"/>
<path d="M275.358 145.566H98.1672C97.393 145.566 96.7156 145.064 96.5027 144.329L93.8318 135.381C92.5544 131.303 93.2898 126.955 95.8253 123.495C98.3801 120.036 102.309 118.045 106.625 118.045H259.39C265.294 118.045 270.423 121.814 272.184 127.438L277.022 143.344C277.177 143.865 277.08 144.445 276.751 144.87C276.422 145.315 275.9 145.566 275.358 145.566ZM99.4446 142.107H273.035L268.874 128.443C267.577 124.288 263.765 121.485 259.39 121.485H106.625C103.432 121.485 100.509 122.954 98.6123 125.525C96.7156 128.095 96.1737 131.323 97.1414 134.357L99.4446 142.087V142.107Z" fill="black"/>
<path d="M280.506 159.868C266.939 154.302 252.094 151.209 236.513 151.209C184.566 151.209 140.612 185.398 125.999 232.477L165.134 357.634C184.798 373.037 209.572 382.237 236.513 382.237C277.177 382.237 312.944 361.267 333.576 329.592C345.344 311.502 352.195 289.915 352.195 266.723C352.195 218.484 322.583 177.145 280.506 159.868Z" fill="#BF96F8"/>
<path d="M156.366 239.588C158.979 261.814 175.469 282.377 189.288 299.964C194.901 307.115 218.881 334.21 230.514 347.294C233.804 350.985 239.959 350.966 243.21 347.255C254.765 334.094 278.571 306.863 284.145 299.674C297.867 282.01 314.222 261.35 316.699 239.105C318.867 219.702 307.158 201.632 285.926 197.128C269.416 193.63 251.223 201.342 239.881 222.852C238.526 225.422 234.559 225.403 233.243 222.833C222.21 201.419 203.379 193.843 186.888 197.418C165.676 202.037 154.083 220.185 156.366 239.569V239.588Z" fill="white"/>
<path d="M213.307 103.512C213.307 131.284 190.759 153.78 162.966 153.78C135.173 153.78 112.625 131.265 112.625 103.512C112.625 75.7593 135.173 53.2441 162.966 53.2441C190.759 53.2441 213.307 75.7593 213.307 103.512Z" fill="white"/>
<path d="M162.947 155.519C134.225 155.519 110.864 132.192 110.864 103.512C110.864 74.8318 134.225 51.5049 162.947 51.5049C191.669 51.5049 215.03 74.8318 215.03 103.512C215.03 132.192 191.669 155.519 162.947 155.519ZM162.947 54.9643C136.141 54.9643 114.328 76.7451 114.328 103.512C114.328 130.279 136.141 152.06 162.947 152.06C189.753 152.06 211.565 130.279 211.565 103.512C211.565 76.7451 189.753 54.9643 162.947 54.9643Z" fill="black"/>
<path d="M130.934 90.0801C131.98 98.9703 138.56 107.184 144.095 114.199C146.341 117.06 155.921 127.882 160.566 133.12C161.882 134.589 164.34 134.589 165.637 133.12C170.243 127.863 179.766 116.982 181.992 114.103C187.469 107.049 194.011 98.777 194.998 89.9062C195.869 82.1563 191.185 74.9283 182.708 73.1309C176.108 71.7394 168.831 74.8123 164.302 83.4126C163.76 84.4368 162.173 84.4368 161.65 83.4126C157.237 74.851 149.708 71.8167 143.128 73.2662C134.65 75.1022 130.025 82.3689 130.934 90.1188V90.0801Z" fill="#BF96F8"/>
<path d="M391.969 183.059C391.969 209.111 370.834 230.215 344.744 230.215C318.654 230.215 297.519 209.111 297.519 183.059C297.519 157.007 318.654 135.903 344.744 135.903C370.834 135.903 391.969 157.007 391.969 183.059Z" fill="black"/>
<path d="M405.42 309.144C399.246 308.429 393.943 311.83 387.924 311.888C380.124 311.946 374.259 305.259 368.279 301.027C362.085 296.64 354.344 295.422 347.395 297.915C337.912 301.317 330.092 309.627 323.202 316.623C315.518 324.45 308.706 333.804 307.37 345.149C305.86 358.059 311.415 370.95 317.918 382.12C325.563 395.281 335.221 407.747 348.034 416.019C360.943 424.348 376.737 427.808 391.601 425.894C407.51 423.865 420.304 414.221 430.91 402.993C454.755 377.752 450.361 333.321 418.775 313.86C414.73 311.366 410.085 309.685 405.44 309.144H405.42Z" fill="black"/>
<path d="M383.646 428.117C370.814 428.117 357.847 424.387 347.105 417.449C335.647 410.066 325.622 398.78 316.428 382.971C310.989 373.617 303.964 359.489 305.667 344.917C306.828 334.906 312.015 325.533 321.983 315.387L322.989 314.362C329.763 307.463 337.428 299.616 346.815 296.254C354.189 293.606 362.589 294.843 369.285 299.597C370.737 300.621 372.189 301.8 373.582 302.921C377.976 306.458 382.504 310.13 387.827 310.13C390.401 310.111 392.782 309.454 395.298 308.777C398.549 307.888 401.898 306.98 405.614 307.405C410.452 307.965 415.31 309.685 419.665 312.372C434.82 321.706 444.884 337.438 447.265 355.547C449.665 373.733 444.149 391.475 432.149 404.172C418.93 418.164 405.749 425.817 391.814 427.595C389.104 427.943 386.375 428.117 383.627 428.117H383.646ZM354.731 298.36C352.447 298.36 350.163 298.747 347.995 299.52C339.344 302.631 331.97 310.149 325.467 316.798L324.46 317.822C315.073 327.388 310.196 336.124 309.112 345.343C307.525 358.89 314.241 372.322 319.428 381.251C328.331 396.577 338.008 407.477 348.982 414.55C361.35 422.532 376.795 426.03 391.388 424.175C404.685 422.474 416.839 415.362 429.652 401.814C440.936 389.87 446.123 373.173 443.858 356.011C441.613 338.946 432.13 324.122 417.865 315.329C413.936 312.913 409.562 311.367 405.227 310.864C402.169 310.517 399.266 311.29 396.207 312.14C393.575 312.855 390.866 313.589 387.943 313.628C381.285 313.628 376.04 309.396 371.395 305.646C369.963 304.487 368.627 303.404 367.272 302.438C363.498 299.752 359.085 298.38 354.731 298.38V298.36Z" fill="black"/>
<path d="M390.905 240.999L372.944 206.173L362.86 192.742C338.531 183.233 324.77 171.695 319.641 166.806C318.209 165.434 315.964 165.376 314.474 166.69C310.003 170.613 301.912 179.387 302.629 191.08C302.88 195.138 303.693 203.545 303.945 207.758C304.758 220.881 309.867 253.678 343.834 242.874L351.692 255.881L390.905 241.019V240.999Z" fill="white"/>
<path d="M348.286 298.341C348.111 298.341 347.937 298.322 347.763 298.264C346.853 297.974 346.35 297.007 346.641 296.099C350.415 284.252 350.589 269.97 350.337 262.51C350.221 258.703 349.099 254.934 347.105 251.629L343.041 244.904C332.57 247.957 323.841 247.184 317.086 242.565C305.531 234.661 302.802 217.422 302.203 207.836C302.144 206.792 300.77 201.323 299.822 197.767C299.57 196.839 300.132 195.892 301.061 195.641C301.99 195.389 302.938 195.95 303.19 196.858C303.577 198.346 305.57 205.845 305.686 207.604C306.248 216.552 308.725 232.612 319.06 239.685C325.157 243.86 333.325 244.362 343.312 241.174C344.066 240.922 344.899 241.251 345.324 241.927L350.086 249.793C352.389 253.6 353.686 257.949 353.821 262.336C354.073 270.028 353.879 284.754 349.95 297.085C349.718 297.819 349.04 298.283 348.305 298.283L348.286 298.341Z" fill="black"/>
<path d="M329.996 190.828C329.647 190.828 329.28 190.712 328.97 190.5C328.196 189.939 328.041 188.857 328.602 188.084C336.499 177.377 347.628 181.842 347.744 181.88C348.634 182.248 349.041 183.253 348.673 184.142C348.305 185.031 347.299 185.436 346.408 185.069C346.041 184.915 337.621 181.648 331.389 190.133C331.041 190.597 330.518 190.828 329.996 190.828Z" fill="black"/>
<path d="M313.119 209.671C311.164 209.671 309.248 208.724 307.7 206.946C307.622 206.869 307.448 206.714 307.216 206.502L305.977 207.797C305.319 208.492 304.216 208.512 303.519 207.855C302.822 207.197 302.803 206.096 303.461 205.4L305.803 202.946C306.422 202.308 307.409 202.231 308.125 202.772C308.512 203.062 309.809 204.086 310.312 204.666C311.087 205.555 312.345 206.54 313.893 206.077C315.461 205.613 316.816 203.835 317.106 201.863C317.241 200.916 318.112 200.259 319.061 200.395C320.009 200.53 320.667 201.4 320.532 202.347C320.048 205.709 317.783 208.531 314.88 209.401C314.299 209.575 313.699 209.652 313.119 209.652V209.671Z" fill="black"/>
<path d="M340.951 204.84C339.576 204.84 338.241 204.511 337.002 203.835C334.738 202.617 333.209 200.627 332.338 199.158C331.854 198.346 332.106 197.283 332.938 196.781C333.751 196.298 334.815 196.549 335.318 197.38C336.247 198.926 337.428 200.124 338.667 200.801C340.022 201.535 341.609 201.574 343.157 200.917C344.899 200.182 346.273 198.655 346.738 196.955C347.221 195.235 348.189 193.805 348.305 193.65C348.634 193.186 349.157 192.916 349.718 192.916H353.821C354.77 192.916 355.563 193.689 355.563 194.655C355.563 195.621 354.789 196.394 353.821 196.394H350.686C350.473 196.8 350.221 197.341 350.067 197.902C349.312 200.627 347.241 202.965 344.512 204.125C343.331 204.627 342.131 204.879 340.951 204.879V204.84Z" fill="black"/>
<path d="M302.57 198.559C302.241 198.559 301.912 198.462 301.622 198.288C300.828 197.767 300.596 196.704 301.119 195.892C305.416 189.302 311.996 190.751 314.88 192.433C315.712 192.916 315.983 193.979 315.499 194.81C315.015 195.641 313.951 195.911 313.138 195.428C312.577 195.1 307.525 192.433 304.041 197.786C303.712 198.288 303.151 198.578 302.59 198.578L302.57 198.559Z" fill="black"/>
<path d="M346.699 345.42C354.867 336.587 354.654 322.904 346.176 314.362C340.564 308.7 335.144 302.805 333.267 299.326C331.119 295.384 329.357 291.248 328.022 286.957C326.744 282.86 326.144 278.531 324.519 274.531C322.351 269.197 315.887 263.109 310.874 269.409C307.235 273.989 308.551 281.275 310.816 287.112C280.913 262.2 275.939 270.569 276.558 275.246C276.694 276.193 276.945 277.12 277.294 278.009C274.197 277.198 269.881 276.579 267.345 278.898C265.042 281.005 265.081 284.658 266.591 287.209C267.326 288.426 268.313 289.354 269.397 290.166C267.191 290.166 265.449 291.171 265.197 294.282C264.829 298.534 268.197 301.877 271.758 304.448C269.9 306.825 270.829 310.246 272.552 312.507C275.765 316.72 280.758 319.774 284.919 322.982C289.893 326.808 294.868 330.654 299.822 334.481C302.067 336.22 309.016 341.883 315.906 347.546C325.119 355.102 338.609 354.174 346.699 345.439V345.42Z" fill="white"/>
<path d="M330.17 354.349C324.731 354.349 319.293 352.532 314.803 348.86C306.035 341.671 300.635 337.283 298.758 335.834L283.855 324.335C282.887 323.6 281.9 322.866 280.855 322.112C277.371 319.581 273.79 316.952 271.177 313.551C269.358 311.193 268.313 307.811 269.513 304.931C267.055 303.018 263.048 299.23 263.494 294.147C263.687 291.944 264.558 290.301 266.01 289.373C265.681 288.968 265.39 288.542 265.119 288.117C263.3 285.064 263.087 280.483 266.184 277.662C268.177 275.845 271.042 275.207 274.893 275.787C274.564 273.391 275.184 270.608 277.758 269.197C282.926 266.356 292.932 270.743 307.525 282.242C306.538 277.7 306.403 272.308 309.538 268.385C312.074 265.196 314.822 264.848 316.699 265.119C320.977 265.737 324.596 270.124 326.144 273.932C327.17 276.444 327.789 279.073 328.409 281.604C328.796 283.228 329.202 284.909 329.686 286.494C330.983 290.63 332.705 294.688 334.796 298.553C335.86 300.505 338.899 304.622 347.415 313.203C356.57 322.421 356.802 337.11 347.976 346.657C343.215 351.798 336.712 354.407 330.17 354.407V354.349ZM272.3 279.015C270.616 279.015 269.339 279.401 268.487 280.193C266.765 281.759 266.977 284.523 268.061 286.339C268.584 287.209 269.3 287.963 270.423 288.794C271.023 289.238 271.274 290.011 271.042 290.726C270.81 291.441 270.152 291.905 269.397 291.925C267.965 291.925 267.094 292.35 266.9 294.456C266.668 297.297 268.526 300.022 272.745 303.056C273.132 303.327 273.384 303.752 273.442 304.216C273.5 304.68 273.384 305.163 273.093 305.53C271.855 307.134 272.552 309.724 273.887 311.463C276.19 314.478 279.577 316.952 282.868 319.329C283.893 320.083 284.938 320.837 285.945 321.61L300.848 333.109C302.745 334.578 308.183 338.984 316.97 346.212C325.447 353.17 337.951 352.319 345.402 344.28C352.97 336.105 352.757 323.523 344.918 315.619C337.854 308.487 333.402 303.308 331.718 300.196C329.512 296.138 327.693 291.867 326.338 287.518C325.815 285.817 325.389 284.097 324.983 282.416C324.383 279.884 323.802 277.507 322.873 275.227C321.673 272.289 318.925 268.945 316.138 268.54C314.706 268.327 313.409 268.984 312.19 270.53C308.667 274.956 310.796 282.455 312.383 286.532C312.674 287.267 312.422 288.098 311.783 288.562C311.144 289.026 310.274 288.987 309.654 288.484C287.571 270.086 280.893 271.4 279.364 272.231C278.048 272.965 278.145 274.569 278.222 275.053C278.319 275.826 278.532 276.637 278.842 277.41C279.074 278.01 278.958 278.705 278.532 279.188C278.106 279.672 277.429 279.884 276.79 279.71C275.048 279.266 273.539 279.034 272.261 279.034L272.3 279.015Z" fill="black"/>
<path d="M306.557 303.288C306.17 303.288 305.783 303.172 305.473 302.902L276.19 279.362C275.435 278.763 275.319 277.681 275.919 276.927C276.519 276.193 277.603 276.057 278.358 276.657L307.641 300.196C308.377 300.795 308.512 301.877 307.912 302.631C307.564 303.056 307.06 303.269 306.557 303.269V303.288Z" fill="black"/>
<path d="M297.132 313.531C296.764 313.531 296.377 313.415 296.067 313.164L268.332 291.538C267.577 290.958 267.442 289.856 268.042 289.103C268.623 288.349 269.726 288.214 270.481 288.813L298.216 310.439C298.97 311.019 299.106 312.12 298.506 312.874C298.158 313.319 297.654 313.531 297.132 313.531Z" fill="black"/>
<path d="M290.435 320.875C290.068 320.875 289.68 320.759 289.371 320.508L270.694 305.801C269.939 305.201 269.823 304.119 270.403 303.365C271.003 302.612 272.087 302.476 272.842 303.076L291.519 317.783C292.274 318.382 292.39 319.464 291.809 320.218C291.461 320.643 290.958 320.875 290.455 320.875H290.435Z" fill="black"/>
<path d="M326.841 232.186C324.964 232.186 323.028 231.626 321.209 230.544C321.151 230.505 314.958 226.698 316.099 223.045C316.641 221.286 319.003 220.649 323.125 219.624C323.725 219.47 324.325 219.334 324.867 219.18L325.312 220.861L324.867 219.18C325.622 218.987 326.454 218.735 327.344 218.465C331.602 217.17 336.015 215.836 338.009 218.407C338.57 219.122 339.112 220.417 338.551 222.427C337.602 225.867 333.654 230.196 330.286 231.51C329.183 231.935 328.022 232.148 326.841 232.148V232.186ZM319.525 224.282C319.932 225.113 321.461 226.678 322.97 227.567C324.151 228.263 326.493 229.288 329.028 228.302C331.37 227.394 334.544 223.895 335.202 221.518C335.377 220.881 335.299 220.591 335.26 220.533C334.486 219.914 330.19 221.228 328.351 221.789C327.441 222.059 326.57 222.33 325.757 222.543C325.196 222.697 324.577 222.833 323.957 222.987C322.603 223.316 320.474 223.838 319.545 224.263L319.525 224.282Z" fill="black"/>
<path d="M321.828 217.634C319.003 217.634 315.964 216.127 315.964 212.841C315.964 211.295 316.293 209.44 316.661 207.488C317.28 204.067 317.996 200.202 317.164 196.878C316.932 195.95 317.493 195.003 318.422 194.771C319.351 194.539 320.299 195.1 320.532 196.027C321.557 200.086 320.744 204.531 320.086 208.106C319.757 209.904 319.448 211.604 319.448 212.841C319.448 214.136 321.809 214.175 321.848 214.175C322.796 214.175 323.59 214.948 323.59 215.914C323.59 216.88 322.815 217.653 321.848 217.653L321.828 217.634Z" fill="black"/>
<path d="M343.834 244.594C343.06 244.594 342.344 244.072 342.15 243.28C341.918 242.352 342.499 241.405 343.428 241.193C351.363 239.26 355.989 236.535 356.047 236.516C356.86 236.033 357.924 236.303 358.428 237.115C358.911 237.927 358.64 238.989 357.828 239.492C357.615 239.608 352.737 242.488 344.26 244.555C344.125 244.594 343.989 244.613 343.854 244.613L343.834 244.594Z" fill="black"/>
<path d="M368.763 197.322C368.763 197.322 370.331 205.033 372.073 225.48C372.518 230.66 366.557 249.522 382.079 251.107C397.601 252.692 402.769 230.447 402.769 230.447L375.711 194.616L368.744 197.322H368.763Z" fill="black"/>
<path d="M383.221 193.727C385.214 200.839 381.033 208.222 373.911 210.212C366.789 212.203 359.395 208.029 357.402 200.917C355.408 193.804 359.589 186.422 366.711 184.431C373.834 182.441 381.227 186.615 383.221 193.727Z" fill="white"/>
<path d="M362.859 198.752C361.795 198.694 361.06 197.863 361.137 196.916C361.311 194.152 362.569 191.621 364.659 189.785C366.75 187.949 369.421 187.04 372.188 187.234C373.137 187.292 373.872 188.123 373.814 189.07C373.756 190.017 372.904 190.751 371.975 190.693C370.137 190.577 368.337 191.176 366.943 192.394C365.55 193.611 364.718 195.293 364.601 197.148C364.543 198.056 363.788 198.771 362.879 198.771L362.859 198.752Z" fill="black"/>
<path d="M165.085 45.5476C164.504 45.5476 163.943 45.2384 163.614 44.7359L154.265 29.9706C153.956 29.4874 153.917 28.869 154.149 28.3278C154.382 27.806 154.885 27.4195 155.446 27.3229L169.497 25.023C170.078 24.9264 170.678 25.139 171.065 25.5642C171.452 26.0087 171.607 26.6078 171.452 27.1876L166.768 44.2721C166.594 44.9292 166.033 45.4316 165.356 45.5283C165.278 45.5283 165.181 45.5283 165.104 45.5283L165.085 45.5476ZM158.601 30.3378L164.446 39.5758L167.388 28.8883L158.601 30.3378Z" fill="#BF96F8"/>
<path d="M379.524 212.029C379.524 216.455 375.924 220.031 371.511 220.031C367.098 220.031 363.499 216.436 363.499 212.029C363.499 207.623 367.098 204.028 371.511 204.028C375.924 204.028 379.524 207.623 379.524 212.029Z" fill="#BF96F8"/>
</g>
<path d="M15.5861 121.904C14.9861 121.904 14.4055 121.576 14.0958 121.054L1.2444 99.6208C0.915374 99.0603 0.915378 98.3646 1.26376 97.8041C1.61214 97.2437 2.25084 96.9344 2.90889 97.0117L27.0633 99.4275C27.644 99.4855 28.1666 99.8334 28.4375 100.375C28.7085 100.896 28.6891 101.534 28.3795 102.037L17.0764 121.054C16.7667 121.576 16.2055 121.904 15.5861 121.904ZM5.98626 100.8L15.5861 116.802L24.0053 102.616L5.98626 100.819V100.8Z" fill="#BF96F8"/>
<path d="M50.6919 313.449C49.9757 313.449 49.3371 313.024 49.0854 312.347L38.3437 285.078L8.11189 295.495C7.37642 295.746 6.56353 295.495 6.11837 294.857C5.67322 294.219 5.71193 293.369 6.19579 292.77L24.4665 270.37L0.466853 244.782C-0.0363648 244.241 -0.152487 243.429 0.215249 242.772C0.582986 242.115 1.31845 241.767 2.05392 241.903L38.4985 248.821L62.8659 221.571C63.3691 221.011 64.2013 220.837 64.8981 221.165C65.5949 221.494 65.9819 222.228 65.8852 222.982L60.9498 256.591L89.0332 266.582C89.73 266.834 90.1945 267.491 90.1751 268.225C90.1751 268.959 89.7106 269.617 89.0138 269.848L59.6337 280.169L52.3563 312.096C52.1822 312.83 51.5628 313.371 50.7886 313.429C50.7499 313.429 50.6919 313.429 50.6532 313.429L50.6919 313.449ZM39.3501 281.174C40.0469 281.174 40.6856 281.599 40.9565 282.275L50.2467 305.853L56.4789 278.449C56.6144 277.869 57.0401 277.405 57.6014 277.192L83.2655 268.186L58.453 259.354C57.6788 259.084 57.195 258.291 57.3111 257.48L61.6272 228.162L40.4533 251.836C40.0469 252.281 39.4275 252.493 38.8469 252.377L6.6603 246.27L28.0664 269.095C28.6664 269.733 28.6858 270.699 28.1438 271.375L12.757 290.218L38.8082 281.251C39.0017 281.193 39.1953 281.154 39.3695 281.154L39.3501 281.174Z" fill="#BF96F8"/>
<defs>
<clipPath id="clip0_102_2">
<rect width="406" height="455" fill="white" transform="translate(66)"/>
</clipPath>
</defs>
</svg>
