<svg width="81" height="86" viewBox="0 0 81 86" fill="none" xmlns="http://www.w3.org/2000/svg">
<path d="M56.8684 2.01661C51.8423 7.83104 32.6258 26.5203 32.6258 26.5203C32.6258 26.5203 6.00413 19.7257 2 18.8452C9.12032 27.5502 15.9391 37.0028 22.9254 45.8075C20.0437 49.562 8.43342 61.3736 5.35074 66.075C13.6941 64.9121 33.2624 55.2934 33.7818 56.2237C34.921 58.2504 42.7115 77.2553 45.4591 84C47.1177 75.4445 47.9386 72.5539 52.3114 51.2233C62.5646 48.5819 70.7739 45.4088 79 43C74.8618 41.0065 69.8692 39.2622 65.4463 37.8501C61.995 36.7536 51.9428 33.265 51.9428 33.265C51.9428 33.265 52.5124 26.1382 52.9312 24.0782C53.8359 19.5263 57.1364 4.40883 56.8851 2L56.8684 2.01661Z" stroke="#1D1D1B" stroke-width="4" stroke-linecap="round" stroke-linejoin="round"/>
</svg>
