<svg width="416" height="370" viewBox="0 0 416 370" fill="none" xmlns="http://www.w3.org/2000/svg">
<g clip-path="url(#clip0_136_1833)">
<path d="M154.565 120.985C161.281 156.618 135.9 190.979 136.008 227.234L154.565 120.985Z" fill="white"/>
<path d="M154.565 120.985C161.281 156.618 135.9 190.979 136.008 227.234" stroke="black" stroke-width="3" stroke-linecap="round" stroke-linejoin="round"/>
<path d="M119.684 181.816C125.152 170.48 139.162 166.683 151.5 164.122C164.082 161.515 177.324 158.927 189.589 162.76C200.12 166.052 208.761 173.808 215.305 182.673C217.311 185.397 219.264 188.337 222.21 190.014C225.157 191.692 229.468 191.584 231.376 188.788" fill="white"/>
<path d="M119.684 181.816C125.152 170.48 139.162 166.683 151.5 164.122C164.082 161.515 177.324 158.927 189.589 162.76C200.12 166.052 208.761 173.808 215.305 182.673C217.311 185.397 219.264 188.337 222.21 190.014C225.157 191.692 229.468 191.584 231.376 188.788" stroke="black" stroke-width="3" stroke-linecap="round" stroke-linejoin="round"/>
<path d="M49.1432 201.315C44.0815 200.332 38.3419 197.644 33.0542 198.663C24.0425 200.395 21.0869 212.417 19.0079 219.533C14.2355 235.883 12.265 252.92 11.4787 269.893C11.099 278.226 11.0086 286.568 11.0538 294.911C11.081 300.502 10.0686 308.79 16.2692 311.622C23.7623 315.031 32.8553 314.761 40.8998 314.49C44.4249 314.373 47.8597 314.896 49.8934 311.712C52.1802 308.132 50.9419 300.286 50.9871 296.218C51.1769 277.171 53.8433 258.259 57.3323 239.563C58.9683 230.788 63.0267 220.443 63.0177 211.569C63.0177 204.075 55.4432 202.55 49.1341 201.324L49.1432 201.315Z" fill="white" stroke="black" stroke-width="3" stroke-linecap="round" stroke-linejoin="round"/>
<path d="M95.4148 127.217C94.52 140.249 92.0253 153.209 87.9578 165.853C86.9726 168.91 85.897 171.995 85.9422 175.142C85.9783 177.641 86.7286 180.094 87.1624 182.574C88.7171 191.574 86.0235 200.638 84.7852 209.666C84.3875 212.597 84.2519 215.853 86.5387 218.17C87.8855 219.532 89.8921 220.371 91.8535 221.138C113.583 229.651 137.454 234.693 161.642 235.874C172.796 236.415 184.338 236.091 194.579 232.537C200.011 230.652 204.901 227.911 209.647 225.079C212.051 223.636 214.464 222.148 216.335 220.272C219.092 217.521 220.538 214.103 221.813 210.739C230.345 188.183 233.247 164.572 236.103 141.133C237.721 127.848 239.339 114.573 240.957 101.288C241.463 97.1038 241.951 92.7658 240.189 88.8066C236.275 80.0315 223.241 76.4511 211.689 74.8277C187.185 71.3916 163.838 74.2776 139.406 73.4749C132.483 73.2494 126.481 72.5009 120.091 75.1614C110.627 79.1025 103.749 86.4708 100.314 94.3531C95.7312 104.869 96.165 116.232 95.4148 127.19V127.217Z" fill="black" stroke="black" stroke-width="3" stroke-linecap="round" stroke-linejoin="round"/>
<path d="M124.988 75.7026C125.124 85.8577 126.561 100.63 129.264 110.56C130.122 113.716 131.261 117.062 134.352 119.155C138.022 121.644 143.346 121.671 148.173 121.563C160.682 121.292 173.183 121.012 185.693 120.742C186.976 120.715 188.323 120.67 189.444 120.165C190.836 119.533 191.595 118.325 192.282 117.17C200.019 104.202 207.539 91.1516 214.852 78.0294" stroke="white" stroke-width="3" stroke-linecap="round" stroke-linejoin="round"/>
<path d="M63.9409 215.925C66.6615 213.373 68.3789 210.072 70.1053 206.861C72.9344 201.603 75.9082 196.418 79.0356 191.313C81.2772 187.661 83.5911 185.794 86.9807 183.277C89.6742 181.275 92.8468 179.183 90.551 175.648C87.7761 171.373 80.0027 168.884 74.9953 168.415C63.3353 167.314 53.9711 173.654 44.7335 179.174C34.836 185.081 26.7283 194.74 20.7717 204.056C19.2171 206.491 17.7437 209.161 17.9426 211.984C16.6772 213.228 30.2353 216.105 32.025 216.304C41.0276 217.296 56.5562 222.833 63.9318 215.925H63.9409Z" fill="white" stroke="black" stroke-width="3" stroke-linecap="round" stroke-linejoin="round"/>
<path d="M76.9648 190.97C79.2697 186.975 85.0093 176.008 91.0653 182.222C93.2617 184.477 93.6323 187.742 93.8763 190.772C95.1689 206.915 95.7112 223.113 95.5214 239.301C95.3406 253.975 98.3686 271.29 90.541 284.755C87.4679 290.031 82.831 294.351 78.185 298.518C73.5572 302.666 68.857 306.761 64.0936 310.774C58.2907 315.671 54.7927 315.139 54.0425 308.096C53.4279 302.342 53.0302 296.57 52.8675 290.798C52.533 278.983 53.1658 267.142 54.865 255.427C58.1371 232.97 65.5579 210.748 76.9739 190.979L76.9648 190.97Z" fill="white" stroke="black" stroke-width="3" stroke-linecap="round" stroke-linejoin="round"/>
<path d="M63.5619 292.376C63.3992 295.127 63.2365 297.878 63.0738 300.637C62.893 303.668 62.8207 307.014 64.764 309.349C66.5266 311.46 69.4552 312.109 72.1578 312.623C94.1581 316.817 116.303 320.262 138.538 322.95C148.3 324.131 184.763 332.581 179.556 311.27C176.23 297.679 179.05 283.412 178.472 269.433C178.327 265.988 177.64 262.001 174.621 260.324C173.292 259.584 171.72 259.44 170.201 259.314C149.43 257.564 128.659 255.815 107.879 254.065C101.579 253.533 95.4778 252.811 89.4127 250.972C84.812 249.574 80.4011 245.299 75.719 244.794C72.2481 244.415 69.0032 246.967 67.4395 250.079C65.8758 253.19 65.6498 256.78 65.442 260.252C64.8092 270.957 64.1856 281.671 63.5528 292.376H63.5619Z" fill="black" stroke="black" stroke-width="3" stroke-linecap="round" stroke-linejoin="round"/>
<path d="M241.563 196.86C244.889 177.884 244.347 159.098 246.606 140.069C247.311 134.126 246.85 128.606 247.339 122.717C247.935 115.403 249.192 108.098 247.745 100.784C246.173 92.7841 240.804 84.2074 232.09 81.7092C221.732 78.733 219.463 91.6117 217.809 98.8807C212.928 120.282 214.329 142.486 212.901 164.356C212.16 175.747 210.65 187.345 213.362 198.456C215.875 208.764 221.985 218.45 221.587 229.029" fill="black"/>
<path d="M241.563 196.86C244.889 177.884 244.347 159.098 246.606 140.069C247.311 134.126 246.85 128.606 247.339 122.717C247.935 115.403 249.192 108.098 247.745 100.784C246.173 92.7841 240.804 84.2074 232.09 81.7092C221.732 78.733 219.463 91.6117 217.809 98.8807C212.928 120.282 214.329 142.486 212.901 164.356C212.16 175.747 210.65 187.345 213.362 198.456C215.875 208.764 221.985 218.45 221.587 229.029" stroke="black" stroke-width="3" stroke-linecap="round" stroke-linejoin="round"/>
<path d="M126.65 200.882C116.771 200.007 113.942 201.116 105.933 207.087C96.5331 214.094 86.9972 220.948 77.8319 228.244C75.283 230.274 76.0965 233.764 76.458 236.731C77.0004 241.186 77.5427 245.641 78.0941 250.097C78.311 251.846 78.546 253.668 79.4951 255.156C80.7334 257.095 82.966 258.132 85.1081 258.962C96.4156 263.372 108.627 264.887 120.721 266.024C138.365 267.683 156.08 268.603 173.796 268.792C175.559 268.81 177.511 268.747 178.786 267.539C179.825 266.547 180.142 265.032 180.404 263.616C183.811 244.884 186.632 226.044 188.846 207.141C168.138 204.805 147.403 202.713 126.641 200.864L126.65 200.882Z" fill="black" stroke="black" stroke-width="3" stroke-linecap="round" stroke-linejoin="round"/>
<path d="M232.902 205.373C235.053 201.378 240.404 190.411 246.053 196.625C248.096 198.88 248.448 202.144 248.674 205.175C249.876 221.318 250.392 237.516 250.202 253.704C250.039 268.377 252.859 285.693 245.556 299.158C242.691 304.434 238.361 308.754 234.031 312.921C229.72 317.069 225.336 321.164 220.898 325.177C215.484 330.074 201.853 329.425 201.148 322.381C200.579 316.627 210.576 310.973 210.422 305.192C210.106 293.377 210.693 281.536 212.284 269.82C215.33 247.364 222.254 225.142 232.893 205.373H232.902Z" fill="white" stroke="black" stroke-width="3" stroke-linecap="round" stroke-linejoin="round"/>
<path d="M209.085 215.718C204.023 214.735 198.283 212.047 192.996 213.066C183.984 214.798 181.028 226.82 178.949 233.935C174.177 250.286 172.206 267.323 171.42 284.296C171.04 292.629 170.95 300.971 170.995 309.313C171.022 314.905 170.01 323.193 176.211 326.025C183.704 329.434 192.797 329.164 200.841 328.893C204.366 328.776 207.801 329.299 209.835 326.115C212.122 322.535 210.883 314.689 210.929 310.621C211.118 291.574 213.785 272.662 217.274 253.966C218.91 245.191 222.968 234.846 222.959 225.972C222.959 218.477 215.385 216.953 209.076 215.727L209.085 215.718Z" fill="white" stroke="black" stroke-width="3" stroke-linecap="round" stroke-linejoin="round"/>
<path d="M220.88 230.481C227.939 225.169 232.875 214.761 238.885 208.935C241.055 206.834 243.351 204.805 245.005 202.28C251.946 191.683 240.775 183.791 231.085 182.808C220.22 181.708 211.48 188.048 202.866 193.567C193.637 199.475 186.081 209.134 180.522 218.45C179.076 220.885 177.693 223.555 177.883 226.377C176.699 227.622 189.344 230.499 191.007 230.697C199.205 231.671 209.021 236.109 217.138 232.672C218.458 232.113 219.696 231.365 220.88 230.481Z" fill="white" stroke="black" stroke-width="3" stroke-linecap="round" stroke-linejoin="round"/>
<path d="M114.457 347.715C117.015 344.675 119.5 337.109 117.213 333.312C114.628 329.037 108.274 331.869 104.342 333.528C96.4513 336.847 88.6418 340.383 80.9408 344.116C77.732 345.668 74.4962 347.3 71.9382 349.78C67.8346 353.766 64.7072 365.445 72.3359 367.808C79.2506 369.946 85.9844 367.808 91.7783 363.885C94.0109 362.37 96.5508 360.629 98.241 358.555C100.446 355.841 101.007 352.576 104.631 351.115C105.309 356.445 113.065 349.374 114.457 347.724V347.715Z" fill="white" stroke="black" stroke-width="3" stroke-linecap="round" stroke-linejoin="round"/>
<path d="M75.9892 345.974C74.1363 347.516 72.2743 349.05 70.7558 350.916C66.9234 355.633 67.1403 362.487 73.838 363.804C81.9639 365.409 88.3181 361.585 94.5097 356.851C98.541 353.766 101.307 349.338 105.383 346.326C111.484 341.817 117.296 338.516 116.266 330.002C115.452 323.301 111.683 310.08 103.684 309.187C95.8836 308.312 92.9279 314.761 91.0207 321.092C88.5983 329.154 85.3173 337.415 79.0172 343.359C78.0501 344.27 77.0197 345.126 75.9983 345.974H75.9892Z" fill="white" stroke="black" stroke-width="3" stroke-linecap="round" stroke-linejoin="round"/>
<path d="M93.415 323.301C90.387 331.382 86.5726 339.174 82.0533 346.524C81.3934 347.598 80.7336 349.013 81.5019 350.006C81.9358 350.565 82.695 350.754 83.4 350.799C86.4009 350.989 89.1577 349.203 91.4084 347.219C99.5071 340.076 104.153 329.199 103.719 318.431" stroke="black" stroke-width="3" stroke-linecap="round" stroke-linejoin="round"/>
<path d="M82.7656 344.153C86.3811 343.638 90.2045 345.911 91.488 349.32" stroke="black" stroke-width="3" stroke-linecap="round" stroke-linejoin="round"/>
<path d="M85.8047 337.956C89.7637 337.442 93.9034 339.976 95.2592 343.728" stroke="black" stroke-width="3" stroke-linecap="round" stroke-linejoin="round"/>
<path d="M88.832 333.077C93.3333 332.148 98.3227 334.692 100.212 338.876" stroke="black" stroke-width="3" stroke-linecap="round" stroke-linejoin="round"/>
<path d="M13.4206 319.919C10.4559 321.11 7.35561 322.174 4.94226 324.257C1.37195 327.341 1.05559 331.779 1.51657 336.144C1.5708 336.667 1.65215 337.226 2.0137 337.614C2.38429 338.011 2.97181 338.128 3.51413 338.218C10.7723 339.363 21.0313 340.13 27.4849 336.081C28.7142 335.305 29.826 334.349 31.01 333.501C32.854 332.185 34.9781 330.832 37.2197 330.336C41.034 329.497 39.7505 330.985 42.3718 332.635C43.4293 333.303 44.758 333.393 45.9963 333.276C47.8131 333.104 49.5666 332.545 51.293 331.959C52.6217 331.508 54.0499 330.967 54.8001 329.777C56.2192 327.522 55.5503 321.398 55.6045 318.629C55.7401 310.792 55.8757 302.955 56.0203 295.118C50.1541 294.577 44.2157 294.91 38.449 296.101C32.7636 297.273 32.7726 305.291 29.2656 309.421C25.1349 314.291 19.2777 317.574 13.4206 319.928V319.919Z" fill="white" stroke="black" stroke-width="3" stroke-linecap="round" stroke-linejoin="round"/>
<path d="M15.707 319.044C16.7103 321.127 18.9429 322.444 21.2297 322.742C23.5165 323.039 25.8576 322.426 27.9455 321.452C32.4559 319.342 36.0623 315.518 38.2407 311.045C40.419 306.571 41.2144 301.503 40.9071 296.542" stroke="black" stroke-width="3" stroke-linecap="round" stroke-linejoin="round"/>
<path d="M21.4375 315.527C24.3118 317.809 26.7613 320.613 28.6414 323.752" stroke="black" stroke-width="3" stroke-linecap="round" stroke-linejoin="round"/>
<path d="M27.0312 311.901C30.3666 314.066 33.4307 316.654 36.1242 319.567" stroke="black" stroke-width="3" stroke-linecap="round" stroke-linejoin="round"/>
<path d="M30.0234 307.78C34.0457 308.736 37.8058 310.765 40.8067 313.597" stroke="black" stroke-width="3" stroke-linecap="round" stroke-linejoin="round"/>
<path d="M2.32031 333.42C8.99092 334.394 15.1011 333.546 21.6813 332.627C26.734 331.923 28.2344 329.695 32.6634 327.351C39.2889 323.842 48.7072 327.495 54.1847 322.381" stroke="black" stroke-width="3" stroke-linecap="round" stroke-linejoin="round"/>
<path d="M73.321 199.574C62.827 206.554 50.8145 212.705 44.876 223.807C41.2153 230.643 40.3476 238.562 39.3352 246.246C36.9219 264.59 33.3425 282.771 29.7812 300.926C37.1117 307.654 47.4068 311.045 57.3133 309.999C58.0183 309.926 58.7505 309.818 59.3199 309.394C59.9165 308.952 60.2328 308.249 60.5221 307.573C69.0547 287.695 74.8756 266.655 77.7952 245.227C77.9307 244.216 78.0754 243.161 78.6358 242.304C79.2594 241.349 80.317 240.771 81.3293 240.221C101.341 229.309 129.054 223.564 142.431 205.139C145.351 201.116 157.752 188.138 156.514 183.322C155.664 180.013 133.212 175.882 130.084 174.484C126.957 173.086 123.459 172.752 120.024 172.743C99.1899 172.662 89.1569 189.04 73.33 199.574H73.321Z" fill="white" stroke="black" stroke-width="3" stroke-linecap="round" stroke-linejoin="round"/>
<path d="M120.44 204.525C112.585 215.267 102.38 224.33 95.9447 236.091C92.7631 241.899 92.8896 248.951 92.284 255.49C90.9824 269.415 90.1509 283.006 88.3341 296.859C88.0449 299.05 83.5526 324.844 84.7547 325.276C95.773 329.227 107.939 329.957 119.346 327.333C119.726 327.243 120.132 327.143 120.422 326.882C120.792 326.548 120.919 326.034 121.036 325.547C122.492 319.135 123.938 312.713 125.393 306.301C128.096 294.342 130.816 282.339 131.82 270.118C132.371 263.462 132.452 255.788 134.477 249.375C138.635 236.181 153.223 229.706 163.293 221.589C166.348 219.127 169.403 216.547 171.581 213.283C173.904 209.792 175.106 205.698 176.191 201.649C177.42 197.058 178.541 192.377 178.469 187.633C178.414 183.629 177.511 179.688 176.453 175.819C175.513 172.392 174.41 168.911 172.16 166.151C167.803 160.803 160.328 159.405 153.504 158.359" fill="white"/>
<path d="M120.44 204.525C112.585 215.267 102.38 224.33 95.9447 236.091C92.7631 241.899 92.8896 248.951 92.284 255.49C90.9824 269.415 90.1509 283.006 88.3341 296.859C88.0449 299.05 83.5526 324.844 84.7547 325.276C95.773 329.227 107.939 329.957 119.346 327.333C119.726 327.243 120.132 327.143 120.422 326.882C120.792 326.548 120.919 326.034 121.036 325.547C122.492 319.135 123.938 312.713 125.393 306.301C128.096 294.342 130.816 282.339 131.82 270.118C132.371 263.462 132.452 255.788 134.477 249.375C138.635 236.181 153.223 229.706 163.293 221.589C166.348 219.127 169.403 216.547 171.581 213.283C173.904 209.792 175.106 205.698 176.191 201.649C177.42 197.058 178.541 192.377 178.469 187.633C178.414 183.629 177.511 179.688 176.453 175.819C175.513 172.392 174.41 168.911 172.16 166.151C167.803 160.803 160.328 159.405 153.504 158.359" stroke="black" stroke-width="3" stroke-linecap="round" stroke-linejoin="round"/>
<path d="M67.4806 156.366C64.4706 156.546 62.4912 159.243 60.0507 161.119C57.321 163.211 54.0489 164.609 50.9758 166.124C47.4055 167.892 43.6092 169.199 40.2287 171.301C36.6945 173.501 33.6846 176.55 31.5424 180.112C31.0453 180.942 30.5753 181.861 30.6386 182.836C30.7018 183.81 31.5334 184.775 32.5005 184.666C32.9615 184.612 33.3502 184.342 33.7388 184.08C36.6945 182.132 40.1021 181.014 43.4646 179.913C46.3841 178.957 50.9667 177.469 53.8411 179.39C55.9109 180.77 56.155 184.594 55.703 186.867C55.468 188.039 53.9495 190.817 54.9076 191.908C57.8814 195.335 61.75 186.605 62.3827 185.262C63.847 182.105 65.7993 179.174 68.1404 176.604C70.4724 174.033 73.8529 172.193 75.1183 168.784C76.691 164.564 74.0969 158.115 69.7493 156.699C68.9267 156.429 68.1765 156.339 67.4806 156.375V156.366Z" fill="white" stroke="black" stroke-width="3" stroke-linecap="round" stroke-linejoin="round"/>
<path d="M42.653 178.904C38.0071 182.845 35.1147 187.976 31.5263 192.63C31.3907 192.801 31.237 192.991 31.0111 193.045C30.6676 193.135 30.3693 192.882 30.2066 192.63C29.1039 190.952 30.1072 188.707 31.1466 186.822C33.7136 182.168 36.6603 177.452 41.2429 174.024" fill="white"/>
<path d="M42.653 178.904C38.0071 182.845 35.1147 187.976 31.5263 192.63C31.3907 192.801 31.237 192.991 31.0111 193.045C30.6676 193.135 30.3693 192.882 30.2066 192.63C29.1039 190.952 30.1072 188.707 31.1466 186.822C33.7136 182.168 36.6603 177.452 41.2429 174.024" stroke="black" stroke-width="3" stroke-linecap="round" stroke-linejoin="round"/>
<path d="M45.9264 175.269C39.2016 180.301 36.3634 185.947 34.3749 190.862C33.7241 192.459 32.8654 194.145 33.2812 195.859C34.402 195.859 35.3601 195.074 36.1826 194.28C41.6149 188.986 45.2214 181.726 51.2683 177.199" fill="white"/>
<path d="M45.9264 175.269C39.2016 180.301 36.3634 185.947 34.3749 190.862C33.7241 192.459 32.8654 194.145 33.2812 195.859C34.402 195.859 35.3601 195.074 36.1826 194.28C41.6149 188.986 45.2214 181.726 51.2683 177.199" stroke="black" stroke-width="3" stroke-linecap="round" stroke-linejoin="round"/>
<path d="M50.9056 175.359C45.2926 180.004 41.0986 186.353 39.0287 193.333C38.8389 193.973 38.6762 194.713 39.0468 195.272C39.2456 195.588 39.5891 195.786 39.9416 195.894C42.5629 196.688 45.0304 188.752 46.1693 187.074C48.6098 183.494 51.7734 180.4 55.4431 178.083" fill="white"/>
<path d="M50.9056 175.359C45.2926 180.004 41.0986 186.353 39.0287 193.333C38.8389 193.973 38.6762 194.713 39.0468 195.272C39.2456 195.588 39.5891 195.786 39.9416 195.894C42.5629 196.688 45.0304 188.752 46.1693 187.074C48.6098 183.494 51.7734 180.4 55.4431 178.083" stroke="black" stroke-width="3" stroke-linecap="round" stroke-linejoin="round"/>
<path d="M103.332 116.278C107.183 110.614 110.464 104.571 114.459 99.0068C118.454 93.4422 123.281 88.2745 129.382 85.136C135.483 81.9975 143.021 81.1227 149.213 84.0628C152.141 83.8103 154.139 85.5148 157.04 86.0109C163.133 87.057 169.369 84.2161 175.498 85.0549C179.565 85.614 183.253 84.631 187.203 85.7583C212.077 92.9011 224.795 116.81 232.849 139.501C237.612 152.902 241.553 167.747 236.69 181.113C236.356 182.024 235.958 182.971 235.199 183.575C234.503 184.134 233.608 184.341 232.731 184.522C228.383 185.424 223.737 185.884 219.589 184.296C215.241 182.637 212.041 178.984 208.498 175.981C205.47 173.411 197.751 168.658 193.765 171.76C190.086 174.628 191.261 182.817 189.435 186.813C187.04 192.043 184.663 196.246 181.635 201.107C180.74 202.55 171.927 216.511 172.144 216.98C167.896 207.97 156.29 194.181 146.574 191.908C143.229 191.123 139.776 190.862 136.486 189.897C132.988 188.878 129.77 187.092 126.399 185.703C114.929 180.968 101.579 180.986 90.1174 185.748C90.9852 180.382 97.1225 178.01 101.588 174.899C107.345 170.877 110.726 164.32 112.29 157.655C114.54 148.068 115.092 138.157 117.098 128.516C115.39 136.723 116.664 148.24 110.635 155.148C108.294 157.827 103.739 159.684 100.765 161.696C91.1388 168.207 81.8018 174.989 70.9191 179.39C70.3677 171.129 68.2888 163.725 60.9765 158.764C60.7324 158.602 72.3111 148.24 73.1336 147.545C78.9998 142.594 85.2817 138.04 90.5603 132.493C95.1791 127.641 99.5358 121.842 103.314 116.268L103.332 116.278Z" fill="white" stroke="black" stroke-width="3" stroke-linecap="round" stroke-linejoin="round"/>
<path d="M149.266 85.2084C149.022 85.8036 149.392 86.4529 149.781 86.967C152.321 90.2949 156.289 92.3602 160.401 93.1628C164.514 93.9655 168.78 93.6138 172.884 92.748C174.782 92.3511 176.707 91.8281 178.253 90.6647C179.799 89.5012 180.901 87.5713 180.567 85.6683C179.265 78.1828 179.374 70.4538 180.874 63.0044C176.617 64.5466 172.224 65.71 167.759 66.4766C165.156 66.9095 162.896 66.9005 160.329 66.5127C157.437 66.0798 154.499 66.657 151.607 66.9456C151.372 66.9726 151.11 66.9997 150.938 67.162C150.739 67.3514 150.694 67.649 150.676 67.9196C150.441 70.9498 151.399 73.7817 151.073 76.7759C150.748 79.7701 150.368 82.4937 149.275 85.1903L149.266 85.2084Z" fill="white" stroke="black" stroke-width="3" stroke-linecap="round" stroke-linejoin="round"/>
<path d="M141.657 33.9463C141.946 32.1606 142.606 30.4561 143.329 28.7967C145.046 24.8465 147.134 21.0135 149.981 17.7849C152.829 14.5562 156.471 11.9227 160.62 10.7593C155.124 9.11792 148.96 9.85745 143.998 12.7344C142.886 13.3747 141.828 14.1413 141.015 15.1334C138.24 18.5334 139.108 23.5027 140.129 27.7595C140.599 29.7166 141.015 32.0434 141.657 33.9463Z" fill="black" stroke="black" stroke-width="3" stroke-linecap="round" stroke-linejoin="round"/>
<path d="M188.918 44.3717C190.138 36.3541 189.46 27.8044 185.483 20.7338C181.506 13.6632 173.814 8.38723 165.697 8.69386C151.362 9.22597 143.263 24.0346 142.766 36.6788C142.287 48.9532 143.29 62.5534 151.986 71.2383C153.531 72.7896 155.321 74.1424 157.382 74.9089C159.849 75.8288 162.57 75.8469 165.173 75.4591C174.465 74.0702 182.754 67.2972 185.944 58.4859C187.788 59.2525 188.873 58.3236 190.301 56.9347C191.729 55.5459 192.452 53.5618 192.714 51.5867C192.904 50.1347 192.859 48.5744 192.109 47.3118C191.358 46.0492 189.759 45.2014 188.376 45.6975" fill="white"/>
<path d="M188.918 44.3717C190.138 36.3541 189.46 27.8044 185.483 20.7338C181.506 13.6632 173.814 8.38723 165.697 8.69386C151.362 9.22597 143.263 24.0346 142.766 36.6788C142.287 48.9532 143.29 62.5534 151.986 71.2383C153.531 72.7896 155.321 74.1424 157.382 74.9089C159.849 75.8288 162.57 75.8469 165.173 75.4591C174.465 74.0702 182.754 67.2972 185.944 58.4859C187.788 59.2525 188.873 58.3236 190.301 56.9347C191.729 55.5459 192.452 53.5618 192.714 51.5867C192.904 50.1347 192.859 48.5744 192.109 47.3118C191.358 46.0492 189.759 45.2014 188.376 45.6975" stroke="black" stroke-width="3" stroke-linecap="round" stroke-linejoin="round"/>
<path d="M142.449 15.9001C140.958 17.1808 140.524 19.2822 140.37 21.2302C140.018 25.6493 140.669 30.1406 142.25 34.2892C139.051 29.5003 136.746 23.6833 137.921 18.0466C138.635 14.6375 140.931 11.6073 143.95 9.89372C145.179 9.19928 146.887 9.17222 147.909 8.23428C149.192 7.05283 148.948 4.90639 150.331 3.77004C157.454 -2.08308 178.686 3.31009 168.21 13.2126C160.825 20.193 149.798 9.56904 142.44 15.9001H142.449Z" fill="black" stroke="black" stroke-width="3" stroke-linecap="round" stroke-linejoin="round"/>
<path d="M173.86 19.3449C177.014 22.0776 181.66 22.8983 184.308 26.127C185.592 27.6962 186.261 29.6623 186.821 31.6103C188.041 35.813 188.918 40.1149 189.433 44.4529C193.953 36.8231 198.635 25.649 194.477 17.8208C191.521 12.2472 185.755 7.82809 179.5 6.68272C171.482 5.21268 169.376 15.4579 173.869 19.3449H173.86Z" fill="black" stroke="black" stroke-width="3" stroke-linecap="round" stroke-linejoin="round"/>
<path d="M147.668 41.9457C150.145 40.9175 153.082 41.0618 155.441 42.3335" stroke="black" stroke-width="3" stroke-linecap="round" stroke-linejoin="round"/>
<path d="M150.768 42.3155C150.361 42.6311 150.388 43.4608 150.768 43.8036C151.147 44.1463 151.762 43.993 152.051 43.533C152.34 43.073 152.322 42.3876 152.069 41.8916" stroke="black" stroke-width="3" stroke-linecap="round" stroke-linejoin="round"/>
<path d="M166.312 42.2616C168.789 41.2335 171.727 41.3778 174.086 42.6494" stroke="black" stroke-width="3" stroke-linecap="round" stroke-linejoin="round"/>
<path d="M169.404 42.6221C168.998 42.9378 169.025 43.7675 169.404 44.1102C169.784 44.4529 170.399 44.2996 170.688 43.8396C170.977 43.3797 170.959 42.6943 170.706 42.1982" stroke="black" stroke-width="3" stroke-linecap="round" stroke-linejoin="round"/>
<path d="M159.18 48.7007C158.637 49.3951 158.158 50.1527 157.96 51.0004C157.761 51.8482 157.869 52.8132 158.421 53.4896C159.171 54.4095 160.49 54.5989 161.684 54.7071" stroke="black" stroke-width="3" stroke-linecap="round" stroke-linejoin="round"/>
<path d="M154.348 62.3552C156.644 62.7069 158.948 63.0406 161.271 62.9955C163.594 62.9504 165.944 62.4904 167.96 61.3541C168.34 61.1376 168.728 60.8761 168.891 60.4703C169.054 60.0644 168.855 59.4962 168.421 59.4331C169.325 59.7307 170.175 60.1636 170.961 60.7047" stroke="black" stroke-width="3" stroke-linecap="round" stroke-linejoin="round"/>
<path d="M176.281 54.1211C177.7 55.6092 178.071 57.9811 177.185 59.8299" stroke="black" stroke-width="3" stroke-linecap="round" stroke-linejoin="round"/>
<path d="M207.854 170.318C207.71 170.318 207.565 170.318 207.43 170.318C202.729 185.063 200.162 200.377 196.402 215.709C203.263 217.323 210.449 217.63 216.758 215.294C216.83 214.906 216.911 214.509 216.984 214.121C213.63 199.547 210.593 185.054 207.864 170.309L207.854 170.318Z" fill="black" stroke="black" stroke-width="3" stroke-linecap="round" stroke-linejoin="round"/>
<path d="M216.976 214.139C216.904 214.527 216.822 214.924 216.75 215.312C216.904 215.257 217.057 215.203 217.202 215.149C217.121 214.816 217.048 214.473 216.976 214.139Z" fill="white" stroke="black" stroke-width="3" stroke-linecap="round" stroke-linejoin="round"/>
<path d="M226.358 167.098C225.056 168.785 212.077 170.128 210.495 170.228C209.618 170.282 208.741 170.309 207.855 170.318C210.585 185.063 213.622 199.556 216.976 214.131C219.38 201.577 222.471 189.023 225.373 176.469L226.367 167.098H226.358Z" fill="white" stroke="black" stroke-width="3" stroke-linecap="round" stroke-linejoin="round"/>
<path d="M216.974 214.139C217.055 214.473 217.128 214.807 217.2 215.149C218.637 214.59 220.02 213.887 221.34 213.03C221.475 212.345 221.584 211.659 221.719 210.974L225.362 176.468C222.469 189.022 219.378 201.576 216.965 214.13L216.974 214.139Z" fill="black" stroke="black" stroke-width="3" stroke-linecap="round" stroke-linejoin="round"/>
<path d="M185.945 166.404C185.42 166.223 184.987 166.052 184.625 165.917C188.909 182.123 191.63 198.961 195.571 215.519C195.842 215.591 196.122 215.645 196.403 215.718C200.163 200.386 202.73 185.072 207.43 170.327C202.666 170.372 197.894 169.84 193.257 168.712C190.753 168.108 188.376 167.251 185.945 166.404Z" fill="white" stroke="black" stroke-width="3" stroke-linecap="round" stroke-linejoin="round"/>
<path d="M183.316 165.556L186.679 211.263C186.887 211.813 187.176 212.309 187.619 212.696C188.116 213.129 188.758 213.382 189.381 213.607C191.388 214.338 193.467 214.987 195.582 215.519C191.641 198.961 188.911 182.123 184.636 165.917C184.049 165.691 183.633 165.547 183.325 165.547L183.316 165.556Z" fill="black" stroke="black" stroke-width="3" stroke-linecap="round" stroke-linejoin="round"/>
<path d="M210.55 147.807C212.168 148.141 213.849 147.185 214.753 145.805C215.657 144.425 215.892 142.711 215.838 141.07C215.765 138.5 215.033 135.938 213.75 133.711C213.036 132.475 212.114 131.294 210.848 130.608C209.583 129.923 207.947 129.797 206.754 130.59C205.624 130.112 204.331 131.159 203.491 132.042C202.65 132.926 202.234 134.135 201.909 135.307C201.023 138.482 200.671 142.026 202.198 144.939C203.726 147.852 207.766 149.566 210.541 147.798L210.55 147.807Z" fill="white" stroke="black" stroke-width="3" stroke-linecap="round" stroke-linejoin="round"/>
<path d="M204.982 171.788C216.948 171.788 226.648 169.155 226.648 165.908C226.648 162.66 216.948 160.027 204.982 160.027C193.017 160.027 183.316 162.66 183.316 165.908C183.316 169.155 193.017 171.788 204.982 171.788Z" fill="white" stroke="black" stroke-width="3" stroke-linecap="round" stroke-linejoin="round"/>
<path d="M196.422 145.138C195.428 152.307 197.606 160.1 194.334 166.557C194.226 166.773 194.099 166.99 193.891 167.107C193.168 167.522 192.545 166.431 192.427 165.61C191.342 158.134 191.116 153.931 191.089 146.373C190.936 149.295 189.679 156.691 185.368 156.258C185.196 156.24 185.024 156.204 184.898 156.086C184.69 155.888 184.726 155.554 184.78 155.275C185.675 150.233 186.543 145.183 187.591 140.168C189.363 131.709 202.749 124.313 208.814 132.998C210.64 135.614 210.966 139.104 210.007 142.143L209.673 141.846C210.215 143.577 210.758 145.372 210.505 147.167C210.252 148.962 208.95 150.738 207.142 150.928L196.431 145.129L196.422 145.138Z" fill="white" stroke="black" stroke-width="3" stroke-linecap="round" stroke-linejoin="round"/>
<path d="M196.25 144.272C196.25 144.777 196.368 144.65 196.386 145.156C196.603 151.811 196.702 158.287 196.368 164.942C197.199 162.877 198.374 160.947 199.811 159.243C200.435 158.503 201.131 157.791 201.502 156.907C201.881 156.005 201.917 154.995 201.935 154.012C201.999 150.657 202.017 147.293 201.972 143.938C201.972 143.352 201.953 143.478 201.953 142.883" fill="white"/>
<path d="M196.25 144.272C196.25 144.777 196.368 144.65 196.386 145.156C196.603 151.811 196.702 158.287 196.368 164.942C197.199 162.877 198.374 160.947 199.811 159.243C200.435 158.503 201.131 157.791 201.502 156.907C201.881 156.005 201.917 154.995 201.935 154.012C201.999 150.657 202.017 147.293 201.972 143.938C201.972 143.352 201.953 143.478 201.953 142.883" stroke="black" stroke-width="3" stroke-linecap="round" stroke-linejoin="round"/>
<path d="M207.069 143.938C206.599 145.642 206.789 147.446 206.916 149.205C207.042 150.963 207.078 152.812 206.337 154.409C205.596 156.005 203.852 157.286 202.116 156.934C202.17 152.001 201.926 147.302 201.981 142.369" fill="white"/>
<path d="M207.069 143.938C206.599 145.642 206.789 147.446 206.916 149.205C207.042 150.963 207.078 152.812 206.337 154.409C205.596 156.005 203.852 157.286 202.116 156.934C202.17 152.001 201.926 147.302 201.981 142.369" stroke="black" stroke-width="3" stroke-linecap="round" stroke-linejoin="round"/>
<path d="M207.602 150.071C208.144 151.974 210.25 153.164 212.238 153.056C214.227 152.948 216.017 151.766 217.309 150.26C218.602 148.754 219.46 146.932 220.301 145.146" stroke="black" stroke-width="3" stroke-linecap="round" stroke-linejoin="round"/>
<path d="M207.125 129.256C209.629 128.399 212.458 129.03 214.736 130.374C217.013 131.718 218.83 133.702 220.539 135.722C224.949 140.953 228.863 146.608 232.18 152.587" stroke="black" stroke-width="3" stroke-linecap="round" stroke-linejoin="round"/>
<path d="M191.613 125.197C192.589 127.29 193.728 129.301 195.021 131.204" stroke="black" stroke-width="3" stroke-linecap="round" stroke-linejoin="round"/>
<path d="M255.38 137.995C254.485 151.424 251.99 164.771 247.923 177.803C246.937 180.951 245.862 184.125 245.907 187.381C245.943 189.96 246.693 192.486 247.127 195.038C248.682 204.309 245.988 213.643 244.75 222.951C244.352 225.972 244.217 229.327 246.504 231.717C247.85 233.124 249.857 233.99 251.818 234.774C273.548 243.549 297.419 248.744 321.607 249.953C332.76 250.512 344.303 250.178 354.544 246.516C359.976 244.577 364.866 241.755 369.612 238.833C372.016 237.344 374.429 235.811 376.3 233.881C379.057 231.049 380.503 227.523 381.778 224.06C390.31 200.828 393.212 176.496 396.068 152.353C397.686 138.671 399.304 124.99 400.922 111.309C401.428 106.998 401.916 102.524 400.154 98.4479C396.24 89.4112 383.206 85.7136 371.654 84.0451C347.15 80.5008 323.803 83.4769 299.371 82.6472C292.448 82.4127 286.446 81.6462 280.055 84.3878C270.592 88.4462 263.713 96.0399 260.279 104.166C255.696 114.997 256.13 126.703 255.38 137.995Z" fill="black" stroke="black" stroke-width="3" stroke-linecap="round" stroke-linejoin="round"/>
<path d="M285.676 85.1274C285.848 97.7175 285.866 114.537 288.532 126.938C289.996 133.72 292.184 140.89 297.67 145.156C303.464 149.656 311.427 149.782 318.776 149.71C323.322 149.665 327.86 149.62 332.406 149.575C335.425 149.548 338.679 149.44 341.083 147.618C342.909 146.238 343.949 144.082 344.925 142.008C353.81 123.051 364.819 105.798 374.816 87.337" stroke="white" stroke-width="3" stroke-linecap="round" stroke-linejoin="round"/>
<path d="M223.527 306.446C223.364 309.196 223.201 311.947 223.039 314.707C222.858 317.737 222.786 321.083 224.729 323.419C226.491 325.529 229.42 326.178 232.123 326.692C254.123 330.886 276.268 334.331 298.503 337.019C308.265 338.2 344.728 346.651 339.521 325.34C336.195 311.749 339.015 297.481 338.437 283.502C338.292 280.057 337.605 276.071 334.586 274.393C333.257 273.654 331.685 273.509 330.166 273.383C309.395 271.634 288.624 269.884 267.844 268.134C261.544 267.602 255.443 266.881 249.378 265.041C244.777 263.643 240.366 259.368 235.684 258.863C232.213 258.484 228.968 261.037 227.404 264.148C225.841 267.259 225.615 270.849 225.407 274.321C224.774 285.026 224.15 295.74 223.518 306.446H223.527Z" fill="black" stroke="black" stroke-width="3" stroke-linecap="round" stroke-linejoin="round"/>
<path d="M401.535 209.738C404.862 190.186 404.319 170.841 406.579 151.234C407.284 145.111 406.823 139.429 407.311 133.359C407.908 125.82 409.164 118.298 407.718 110.768C406.145 102.524 400.776 93.6862 392.063 91.1159C381.704 88.0585 379.436 101.316 377.782 108.801C372.901 130.843 374.302 153.723 372.874 176.261C372.132 187.994 370.623 199.944 373.335 211.389C375.847 222.004 381.957 231.988 381.56 242.891" fill="black"/>
<path d="M401.535 209.738C404.862 190.186 404.319 170.841 406.579 151.234C407.284 145.111 406.823 139.429 407.311 133.359C407.908 125.82 409.164 118.298 407.718 110.768C406.145 102.524 400.776 93.6862 392.063 91.1159C381.704 88.0585 379.436 101.316 377.782 108.801C372.901 130.843 374.302 153.723 372.874 176.261C372.132 187.994 370.623 199.944 373.335 211.389C375.847 222.004 381.957 231.988 381.56 242.891" stroke="black" stroke-width="3" stroke-linecap="round" stroke-linejoin="round"/>
<path d="M342.304 281.617C346.209 276.963 344.871 267.827 345.974 262.128C347.664 253.398 351.569 245.082 353.214 236.226C355.338 224.808 350.538 220.732 339.303 220.966C330.138 221.156 319.816 222.031 310.795 220.182C304.17 218.829 298.746 216.98 291.759 216.529C279.141 215.718 266.523 214.852 253.896 214.211C247.659 213.896 247.352 216.376 244.704 220.786C241.061 226.865 235.52 231.455 231.606 237.29C228 242.656 228.298 249.889 227.485 256.266C227.159 258.827 226.843 261.505 227.675 263.949C229.211 268.486 234.101 270.867 238.575 272.598C264.065 282.465 291.624 286.947 318.93 285.684C326.676 285.324 331.629 287.2 338.68 283.998C340.008 283.394 341.364 282.717 342.304 281.599V281.617Z" fill="black" stroke="black" stroke-width="3" stroke-linecap="round" stroke-linejoin="round"/>
<path d="M396.937 220.453C399.088 216.457 404.439 205.491 410.088 211.705C412.131 213.959 412.483 217.224 412.709 220.254C413.912 236.398 414.427 252.595 414.237 268.784C414.074 283.457 416.894 300.773 409.591 314.238C406.726 319.514 402.396 323.834 398.067 328C393.755 332.149 389.371 336.243 384.933 340.257C379.519 345.154 365.889 344.504 365.184 337.461C364.614 331.707 374.611 326.052 374.457 320.271C374.141 308.457 374.729 296.615 376.319 284.9C379.365 262.444 386.289 240.222 396.928 220.453H396.937Z" fill="white" stroke="black" stroke-width="3" stroke-linecap="round" stroke-linejoin="round"/>
<path d="M373.12 230.797C368.058 229.814 362.318 227.126 357.031 228.145C348.019 229.877 345.063 241.899 342.984 249.015C338.212 265.365 336.242 282.402 335.455 299.375C335.076 307.708 334.985 316.05 335.03 324.393C335.058 329.984 334.045 338.272 340.246 341.104C347.739 344.513 356.832 344.243 364.876 343.972C368.402 343.855 371.836 344.378 373.87 341.194C376.157 337.614 374.918 329.768 374.964 325.7C375.153 306.653 377.82 287.741 381.309 269.045C382.945 260.27 387.003 249.925 386.994 241.051C386.994 233.557 379.42 232.032 373.111 230.806L373.12 230.797Z" fill="white" stroke="black" stroke-width="3" stroke-linecap="round" stroke-linejoin="round"/>
<path d="M384.795 245.398C387.335 242.846 388.935 239.545 390.544 236.334C393.174 231.076 395.958 225.891 398.878 220.786C400.966 217.134 403.126 215.267 406.289 212.751C408.802 210.748 411.758 208.656 409.616 205.121C407.021 200.846 399.781 198.357 395.108 197.888C384.244 196.788 375.503 203.128 366.889 208.647C357.661 214.554 350.104 224.213 344.546 233.53C343.099 235.965 341.716 238.634 341.906 241.457C340.722 242.702 353.367 245.579 355.031 245.777C363.428 246.769 377.899 252.306 384.786 245.398H384.795Z" fill="white" stroke="black" stroke-width="3" stroke-linecap="round" stroke-linejoin="round"/>
<path d="M241.441 245.624C268.35 251.062 295.81 253.821 323.269 253.84" stroke="black" stroke-width="3" stroke-linecap="round" stroke-linejoin="round"/>
<path d="M244.786 307.365C242.364 310.801 239.995 314.355 239.236 318.287C239.064 319.171 238.893 320.091 239.11 320.965C239.435 322.282 240.574 323.238 241.758 323.897C245.608 326.034 250.652 325.79 254.277 323.301C256.057 322.075 257.467 320.397 258.859 318.738C260.866 316.339 262.863 313.94 264.87 311.532C266.759 309.268 268.721 306.86 269.263 303.965C269.805 301.034 268.82 298.067 267.853 295.253C265.584 288.679 259.781 284.16 253.942 290.428C251.212 293.359 250.444 298.707 248.275 302.261C247.235 303.956 246.006 305.652 244.795 307.374L244.786 307.365Z" fill="white" stroke="black" stroke-width="3" stroke-linecap="round" stroke-linejoin="round"/>
<path d="M254.166 293.981C253.19 282.528 252.702 271.038 252.711 259.548C252.711 248.239 253.244 236.641 257.646 226.224C259.029 222.932 260.954 219.641 264.091 217.927C264.073 216.34 266.703 216.213 268.059 217.052C269.415 217.891 269.83 219.74 269.487 221.3C269.144 222.86 268.231 224.213 267.417 225.575C261.009 236.325 260.466 249.456 260.096 261.965C259.87 269.541 259.653 277.189 261.09 284.629C261.596 287.272 262.292 290.085 261.226 292.556C260.159 295.028 255.757 296.155 254.166 293.981Z" fill="white" stroke="black" stroke-width="3" stroke-linecap="round" stroke-linejoin="round"/>
<path d="M251.25 311.505C253.058 310.224 254.269 308.285 255.29 306.328C256.104 304.75 256.827 303.127 257.459 301.467C258.21 299.483 258.815 297.301 258.237 295.253C257.658 293.206 255.471 291.493 253.446 292.151C251.449 292.8 250.716 295.163 250.111 297.174C248.882 301.287 246.025 304.795 244.796 308.763C243.413 313.227 248.294 313.606 251.25 311.505Z" fill="white" stroke="black" stroke-width="3" stroke-linecap="round" stroke-linejoin="round"/>
<path d="M243.938 306.734C248.059 306.779 252.081 309.187 254.061 312.794" stroke="black" stroke-width="3" stroke-linecap="round" stroke-linejoin="round"/>
<path d="M247.371 303.09C251.457 302.792 255.587 305.39 257.079 309.196" stroke="black" stroke-width="3" stroke-linecap="round" stroke-linejoin="round"/>
<path d="M249.195 298.987C253.624 298.347 258.306 301.287 259.644 305.544" stroke="black" stroke-width="3" stroke-linecap="round" stroke-linejoin="round"/>
<path d="M239.234 321.533C242.669 322.787 246.592 321.966 249.792 320.19C252.991 318.413 255.604 315.779 258.171 313.173C260.53 310.783 262.907 308.366 264.733 305.543C266.559 302.72 267.806 299.42 267.67 296.065C267.607 294.486 267.227 295.027 267.146 293.449" stroke="black" stroke-width="3" stroke-linecap="round" stroke-linejoin="round"/>
<path d="M289.54 313.056C287.117 316.492 284.749 320.046 283.99 323.978C283.818 324.862 283.647 325.782 283.863 326.656C284.189 327.973 285.328 328.929 286.512 329.587C290.362 331.725 295.406 331.481 299.031 328.992C300.811 327.766 302.221 326.088 303.613 324.429C305.62 322.03 307.617 319.631 309.624 317.223C311.513 314.959 313.474 312.551 314.017 309.656C314.559 306.725 313.574 303.758 312.607 300.944C310.338 294.37 304.535 289.851 298.696 296.119C295.966 299.05 295.198 304.398 293.029 307.952C291.989 309.647 290.76 311.343 289.549 313.065L289.54 313.056Z" fill="white" stroke="black" stroke-width="3" stroke-linecap="round" stroke-linejoin="round"/>
<path d="M298.932 299.664C297.956 288.21 297.468 276.72 297.477 265.23C297.477 253.921 298.01 242.323 302.412 231.906C303.795 228.614 305.72 225.323 308.857 223.609C308.838 222.022 311.469 221.896 312.825 222.734C314.18 223.573 314.596 225.422 314.253 226.982C313.909 228.542 312.996 229.895 312.183 231.257C305.774 242.007 305.232 255.138 304.861 267.647C304.635 275.223 304.418 282.871 305.856 290.311C306.362 292.954 307.058 295.767 305.991 298.239C304.925 300.71 300.523 301.837 298.932 299.664Z" fill="white" stroke="black" stroke-width="3" stroke-linecap="round" stroke-linejoin="round"/>
<path d="M296.011 317.187C297.819 315.906 299.03 313.967 300.052 312.01C300.865 310.432 301.588 308.808 302.221 307.149C302.971 305.165 303.577 302.982 302.998 300.935C302.42 298.888 300.233 297.174 298.208 297.833C296.21 298.482 295.478 300.845 294.873 302.856C293.643 306.968 290.787 310.477 289.558 314.445C288.175 318.909 293.056 319.288 296.011 317.187Z" fill="white" stroke="black" stroke-width="3" stroke-linecap="round" stroke-linejoin="round"/>
<path d="M288.691 312.425C292.813 312.47 296.835 314.878 298.815 318.485" stroke="black" stroke-width="3" stroke-linecap="round" stroke-linejoin="round"/>
<path d="M292.125 308.781C296.211 308.484 300.341 311.081 301.833 314.887" stroke="black" stroke-width="3" stroke-linecap="round" stroke-linejoin="round"/>
<path d="M293.961 304.669C298.39 304.029 303.072 306.969 304.41 311.226" stroke="black" stroke-width="3" stroke-linecap="round" stroke-linejoin="round"/>
<path d="M283.988 327.216C287.423 328.469 291.346 327.648 294.546 325.872C297.745 324.095 300.357 321.462 302.924 318.855C305.284 316.465 307.661 314.048 309.487 311.225C311.312 308.403 312.56 305.102 312.424 301.747C312.361 300.168 311.981 300.71 311.9 299.131" stroke="black" stroke-width="3" stroke-linecap="round" stroke-linejoin="round"/>
<path d="M265.874 125.495C264.635 124.864 263.406 124.196 262.186 123.493C258.263 138.121 258.426 152.352 257.757 167.35C257.522 172.572 257.386 177.902 255.561 182.808C250.309 196.887 232.982 203.344 226.926 217.097C238.062 218.73 247.516 224.682 258.363 226.765C269.209 228.849 279.748 231.735 290.839 233.042C311.303 235.45 332.426 237.822 352.221 232.086C353.938 231.59 355.692 231.004 357.048 229.85C358.422 228.677 359.271 227.027 360.058 225.404C372.965 198.618 376.228 168.487 378.424 138.725C355.222 141.674 331.577 141.494 308.501 137.589C293.65 135.073 279.188 132.304 265.874 125.504V125.495Z" fill="white" stroke="black" stroke-width="3" stroke-linecap="round" stroke-linejoin="round"/>
<path d="M266.355 130.897C273.053 148.096 281.45 164.591 291.375 180.04C291.646 180.455 291.944 180.896 292.396 181.068C292.848 181.239 293.345 181.104 293.797 180.969C320.995 172.96 349.096 164.455 370.609 145.543" stroke="black" stroke-width="3" stroke-linecap="round" stroke-linejoin="round"/>
<path d="M331.676 225.846C332.254 224.267 332.842 222.653 332.842 220.966C332.842 219.28 332.119 217.503 330.636 216.701C329.796 216.241 328.811 216.141 327.852 216.042C326.198 215.88 324.418 215.745 322.999 216.601C324.174 215.411 325.349 214.22 326.524 213.021C325.466 214.572 324.101 215.907 322.52 216.926C323.848 218.198 325.177 219.469 326.506 220.732" fill="white"/>
<path d="M331.676 225.846C332.254 224.267 332.842 222.653 332.842 220.966C332.842 219.28 332.119 217.503 330.636 216.701C329.796 216.241 328.811 216.141 327.852 216.042C326.198 215.88 324.418 215.745 322.999 216.601C324.174 215.411 325.349 214.22 326.524 213.021C325.466 214.572 324.101 215.907 322.52 216.926C323.848 218.198 325.177 219.469 326.506 220.732" stroke="black" stroke-width="3.97" stroke-linecap="round" stroke-linejoin="round"/>
<path d="M350.071 209.486C349.827 209.224 349.466 209.08 349.104 209.062C347.73 209.017 346.881 210.261 347.604 211.461C348.372 212.723 349.746 212.281 350.198 211.037C350.342 210.64 350.433 210.198 350.279 209.81C350.234 209.684 350.153 209.576 350.071 209.477V209.486Z" fill="white" stroke="black" stroke-width="3.97" stroke-linecap="round" stroke-linejoin="round"/>
<path d="M345.671 217.648C345.553 217.783 345.454 217.954 345.372 218.144C344.64 219.956 347.289 220.525 348.202 219.271C349.467 217.539 346.81 216.304 345.671 217.639V217.648Z" fill="white" stroke="black" stroke-width="3.97" stroke-linecap="round" stroke-linejoin="round"/>
<path d="M344.439 224.556C342.071 225.124 344.611 228.849 346.31 225.71C346.807 224.79 345.189 224.376 344.439 224.556Z" fill="white" stroke="black" stroke-width="4.64" stroke-linecap="round" stroke-linejoin="round"/>
<path d="M294.511 149.07C293.787 150.657 293.335 152.37 293.182 154.102C293.091 155.13 293.326 156.465 294.339 156.69C294.981 156.835 295.649 156.393 295.975 155.815C296.3 155.238 296.363 154.562 296.427 153.904C296.508 152.957 296.599 152.01 296.68 151.063C296.734 150.431 296.779 149.746 296.427 149.223C296.074 148.7 295.161 148.537 294.845 149.088" fill="black"/>
<path d="M294.511 149.07C293.787 150.657 293.335 152.37 293.182 154.102C293.091 155.13 293.326 156.465 294.339 156.69C294.981 156.835 295.649 156.393 295.975 155.815C296.3 155.238 296.363 154.562 296.427 153.904C296.508 152.957 296.599 152.01 296.68 151.063C296.734 150.431 296.779 149.746 296.427 149.223C296.074 148.7 295.161 148.537 294.845 149.088" stroke="black" stroke-width="3" stroke-linecap="round" stroke-linejoin="round"/>
<path d="M308.965 150.116C307.781 152.127 306.994 154.364 306.651 156.672C306.515 157.556 306.777 158.819 307.672 158.774C308.124 158.747 308.459 158.359 308.712 157.98C310.058 155.987 310.718 153.552 310.565 151.153C310.546 150.864 310.501 150.549 310.302 150.332C309.977 149.998 309.39 150.107 309.055 150.422C308.721 150.738 308.585 151.207 308.459 151.658" fill="black"/>
<path d="M308.965 150.116C307.781 152.127 306.994 154.364 306.651 156.672C306.515 157.556 306.777 158.819 307.672 158.774C308.124 158.747 308.459 158.359 308.712 157.98C310.058 155.987 310.718 153.552 310.565 151.153C310.546 150.864 310.501 150.549 310.302 150.332C309.977 149.998 309.39 150.107 309.055 150.422C308.721 150.738 308.585 151.207 308.459 151.658" stroke="black" stroke-width="3" stroke-linecap="round" stroke-linejoin="round"/>
<path d="M296.117 165.114C296.506 164.384 297.672 164.356 298.25 164.952C298.829 165.547 298.874 166.512 298.585 167.288C298.296 168.063 297.717 168.694 297.157 169.317" stroke="black" stroke-width="3" stroke-linecap="round" stroke-linejoin="round"/>
<path d="M266.316 192.81C275.672 191.692 285.117 190.628 294.499 191.539C303.872 192.45 313.3 195.507 320.35 201.748" stroke="black" stroke-width="3" stroke-linecap="round" stroke-linejoin="round"/>
<path d="M271.352 201.306C280.264 200.287 289.556 203.272 296.19 209.287" stroke="black" stroke-width="3" stroke-linecap="round" stroke-linejoin="round"/>
<path d="M282.551 176.225C282.704 176.107 282.822 175.981 282.912 175.837C282.768 175.945 282.65 176.08 282.551 176.225Z" fill="white" stroke="black" stroke-width="3" stroke-linecap="round" stroke-linejoin="round"/>
<path d="M284.405 175.711C283.999 175.323 283.375 175.467 282.914 175.837C282.824 175.981 282.697 176.107 282.552 176.225C282.516 176.279 282.471 176.333 282.444 176.396C282.064 177.109 282.001 177.974 281.54 178.633C281.07 179.291 279.877 179.526 279.551 178.786C279.063 177.947 280.211 177.118 281.151 176.865C281.621 176.739 282.164 176.531 282.552 176.234C282.652 176.089 282.778 175.963 282.914 175.846C283.059 175.629 283.131 175.377 283.059 175.088C282.932 174.61 282.444 174.322 281.974 174.159C280.184 173.546 278.06 174.087 276.786 175.476C275.439 176.946 275.104 179.084 273.966 180.716C272.113 183.368 268.551 184.152 265.315 184.305C260.1 184.549 254.83 183.674 249.977 181.735C248.214 181.032 246.461 180.157 245.195 178.75C242.61 175.873 242.709 171.273 244.635 167.919C246.56 164.564 249.941 162.291 253.466 160.686C254.876 160.036 256.331 159.486 257.813 159.017C257.949 157.069 258.13 155.112 258.247 153.11C252.245 154.255 246.506 156.627 242.167 160.839C236.473 166.367 234.557 173.808 239.211 180.653C241.534 184.071 244.996 186.614 248.747 188.355C254.442 190.997 260.932 191.854 267.132 190.871C271.489 190.186 276.822 188.084 280.844 186.344C281.296 186.145 281.775 185.785 282.245 185.298C284.514 182.944 286.593 177.794 284.414 175.711H284.405Z" fill="white" stroke="black" stroke-width="3" stroke-linecap="round" stroke-linejoin="round"/>
<path d="M285.155 176.171C286.041 175.323 287.171 174.728 288.382 174.484C289.033 174.358 289.738 174.313 290.28 173.934C291.41 173.141 290.931 171.003 289.566 170.769C289.874 169.723 289.512 168.514 288.681 167.802C287.849 167.089 286.602 166.918 285.607 167.369C284.911 167.82 285.309 169.407 284.487 169.371C284.279 169.371 284.098 169.218 283.917 169.109C282.552 168.289 280.717 169.687 280.491 171.256C280.265 172.825 281.079 174.349 281.865 175.738C282.498 176.856 284.224 177.046 285.155 176.162V176.171Z" fill="white" stroke="black" stroke-width="3" stroke-linecap="round" stroke-linejoin="round"/>
<path d="M399 199.787C398.858 192.306 393.6 186.037 388.617 180.462C385.383 176.833 381.946 173.388 378.804 169.678C377.034 167.588 375.662 164.092 373.811 167.293C370.323 173.317 380.014 181.838 383.065 185.782C386.309 189.972 391.414 194.365 391.19 200.001C390.976 205.404 387.936 209.705 385.678 214.373C383.421 219.042 380.522 223.73 376.119 226.747C370.923 230.305 365.929 234.198 360.865 237.96C360.458 238.265 360.021 238.632 360.001 239.132C359.96 240.161 361.475 240.335 362.462 240.059C364.343 239.529 366.021 238.693 367.75 237.817C367.923 237.725 371.563 236.125 371.543 236.166C369.072 240.793 367.689 246.002 367.546 251.241C367.506 252.576 368.106 254.411 369.418 254.166C370.384 250.976 371.36 247.785 372.326 244.595C372.184 246.929 372.051 249.253 371.909 251.587C371.818 253.147 371.889 255.043 373.241 255.828C373.485 255.97 373.79 256.062 374.045 255.95C374.38 255.807 374.492 255.41 374.584 255.053C375.255 252.199 375.926 249.335 376.597 246.481C376.617 249.763 376.841 253.514 379.394 255.573C379.8 251.924 380.217 248.265 380.624 244.616C381.102 247.388 383.065 249.865 385.648 250.966C385.648 250.966 384.488 244.238 384.316 243.576C383.573 240.885 383.075 238.561 383.217 235.758C383.441 231.344 385.048 227.492 387.316 223.72C391.8 216.269 399.163 209.093 398.99 199.777L399 199.787Z" fill="white" stroke="black" stroke-width="3" stroke-linecap="round" stroke-linejoin="round"/>
<path d="M202.143 168.911C201.953 167.765 202.487 166.413 203.589 166.052C204.692 165.691 206.075 166.9 205.587 167.955C205.415 166.719 206.31 165.43 207.521 165.141C208.732 164.852 210.115 165.619 210.513 166.8C210.341 165.403 210.73 167.251 211.977 166.602C213.225 165.953 215.078 166.602 215.358 167.982C215.548 166.395 217.184 165.123 218.775 165.33C220.365 165.538 221.613 167.188 221.387 168.776" stroke="black" stroke-width="3" stroke-linecap="round" stroke-linejoin="round"/>
<path d="M193.765 171.49C193.448 169.74 194.56 167.855 196.241 167.278C197.923 166.701 199.965 167.522 200.788 169.091" stroke="black" stroke-width="3" stroke-linecap="round" stroke-linejoin="round"/>
<path d="M127.547 169.055C137.227 167.702 147.387 170.119 155.413 175.693" stroke="black" stroke-width="3" stroke-linecap="round" stroke-linejoin="round"/>
<path d="M131.062 159.233C135.356 156.789 140.743 157.412 145.47 158.855C150.794 160.487 155.829 163.066 160.258 166.448" stroke="black" stroke-width="3" stroke-linecap="round" stroke-linejoin="round"/>
<path d="M144.609 91.9727C145.685 94.4077 148.315 95.7154 150.783 96.7345C156.17 98.9711 161.882 100.811 167.712 100.649C173.542 100.486 179.571 98.0332 182.816 93.1902" stroke="black" stroke-width="3" stroke-linecap="round" stroke-linejoin="round"/>
<path d="M156.38 34.5867C155 34.0276 153.293 33.5631 152 33.5C150.446 33.4279 148.146 33.4504 146.727 34.3071" stroke="black" stroke-width="3" stroke-linecap="round" stroke-linejoin="round"/>
<path d="M164.633 34.3974C166.585 34.4876 168.547 34.0006 170.526 34.0186C172.985 34.0457 176.248 33.5226 178.227 35.2361" stroke="black" stroke-width="3" stroke-linecap="round" stroke-linejoin="round"/>
<path d="M309.507 209.964L311.206 215.366L316.63 217.035L312.002 220.317L312.092 225.99L307.527 222.608L302.158 224.439L303.966 219.073L300.559 214.536L306.235 214.599L309.507 209.964Z" fill="white" stroke="black" stroke-width="3.17" stroke-linecap="round" stroke-linejoin="round"/>
</g>
<defs>
<clipPath id="clip0_136_1833">
<rect width="416" height="370" fill="white"/>
</clipPath>
</defs>
</svg>
