<svg width="48" height="46" viewBox="0 0 48 46" xmlns="http://www.w3.org/2000/svg">
<path d="M12.4984 17.4472C12.9384 17.2372 13.4584 17.2372 13.7884 16.7772C14.3784 15.9472 15.1084 16.0072 15.9384 16.5872C16.1984 16.1672 16.3684 15.6972 16.6984 15.3872C16.9984 15.1072 17.4584 14.9972 17.8384 14.7872C18.9284 14.2072 20.0184 13.6272 21.2284 13.2972C21.6384 13.1872 22.0084 12.9272 22.3784 12.7072C23.1584 12.2672 24.0417 12.1139 25.0284 12.2472C25.1984 11.1372 26.0184 10.7672 26.9984 10.6572C27.6184 10.5872 28.2584 10.6372 28.5584 9.91719C28.5984 9.81719 28.7584 9.67719 28.8284 9.69719C30.0484 9.97719 30.7984 8.85719 31.8784 8.67719C32.5284 8.56719 33.3684 8.48719 33.5784 7.51719C33.6284 7.28719 34.1484 7.06719 34.4784 6.99719C35.1984 6.84719 35.9484 6.79719 36.7684 6.68719C36.9584 6.43719 37.1984 6.16719 37.3984 5.85719C37.8184 5.19719 38.3784 4.72719 39.1684 4.63719C40.2384 4.51719 40.9384 3.47719 42.0584 3.51719C42.1084 3.51719 42.1884 3.45719 42.1984 3.40719C42.3984 2.36719 43.4084 2.27719 44.0984 1.81719C44.8084 1.34719 45.5984 0.977188 46.2584 0.617188C47.0584 0.877187 47.3284 1.43719 47.6984 2.07719C47.5284 2.52719 47.4084 3.07719 47.1384 3.54719C46.5884 4.51719 46.1984 5.54719 45.7884 6.56719C45.5884 7.05719 45.1684 7.46719 44.8284 7.90719C44.3784 8.49719 43.8084 9.01719 43.4684 9.65719C42.6884 11.1472 41.7084 12.4672 40.4384 13.5772C40.2584 13.7372 40.0984 13.9472 39.9884 14.1572C39.4084 15.2572 38.4284 15.9272 37.3684 16.4272C35.7484 17.2072 34.1384 17.9772 32.6484 18.9972C32.3984 19.1672 32.1084 19.3272 31.8184 19.4072C30.1984 19.8872 28.8084 20.8172 27.3784 21.6772C27.0084 21.8972 26.6184 22.0872 26.2384 22.2972C24.5584 23.1872 22.8884 24.0772 21.2184 24.9672C21.2784 25.4872 21.6884 25.5372 22.0284 25.6372C25.1084 26.5572 28.1884 27.4572 31.2584 28.3772C32.4984 28.7472 33.7484 29.1172 34.9684 29.5672C36.8284 30.2572 38.2484 31.5072 39.3584 33.1272C39.6484 33.5572 39.8084 33.9972 39.6684 34.6272C39.4684 34.7472 39.2184 34.9272 38.9584 35.0572C38.3984 35.3272 37.8684 35.5772 37.5184 36.1572C37.3084 36.5072 36.8684 36.7172 36.5484 37.0072C36.1784 37.3372 35.7784 37.6372 35.4784 38.0272C34.5784 39.1972 33.5884 40.3372 32.8684 41.6172C31.9784 43.1872 30.5084 44.0972 29.3084 45.3872C28.1784 44.8172 27.1384 44.2772 26.0984 43.7672C25.5484 43.4972 24.9984 43.1372 24.4084 43.0272C23.3484 42.8372 22.8084 42.1772 22.4684 41.2572C23.2484 41.4172 24.0284 41.6072 24.8084 41.7372C24.9984 41.7672 25.2184 41.6472 25.5284 41.5672C25.0884 40.7172 24.4984 40.3672 23.7284 40.2272C22.9184 40.0772 22.6784 40.2972 22.5484 41.3372C21.4984 40.9872 20.7884 40.2872 20.3884 39.2572C20.0084 38.2772 19.4484 37.4172 18.7284 36.6472C18.4084 36.2972 18.2284 35.8172 17.9884 35.3972C17.7284 34.9272 17.4284 34.7372 17.1584 34.9172C16.8184 35.1372 16.8984 35.4372 17.0584 35.7172C17.5184 36.5072 17.2184 37.0972 16.5884 37.6172C16.2084 37.2772 16.2384 36.5672 15.4784 36.3972C15.4784 37.2972 16.0084 37.4872 16.6384 37.5772C16.5784 37.7472 16.5184 37.9172 16.4384 38.1372C15.5784 37.9272 14.7484 37.7372 13.9184 37.5172C13.3284 37.3572 13.1184 37.0772 13.0884 36.4472C13.0784 36.1472 13.1584 35.8272 13.1084 35.5372C13.0884 35.4072 12.8684 35.2972 12.7484 35.1872C11.8484 35.9739 10.8484 36.4772 9.74841 36.6972V38.1172L9.7984 38.0572C9.5184 38.1872 9.23841 38.3172 8.86841 38.4872C8.08841 37.9572 7.1884 37.6872 6.1584 37.8572C5.6884 37.9372 5.1684 37.8272 4.6884 37.7172C3.4884 37.4272 2.29841 37.1172 1.11841 36.7672C0.198409 36.4972 -0.0515918 36.0872 0.00840815 35.1272C0.0184082 34.9472 0.03841 34.7572 0.08841 34.5772C0.40841 33.3272 0.718411 32.0672 1.05841 30.8272C1.20841 30.2972 1.3284 29.7272 1.5984 29.2572C2.4584 27.8072 2.76841 26.1672 3.31841 24.6072C3.76841 23.3272 4.22841 22.0472 4.71841 20.7872C4.81841 20.5172 5.0484 20.2172 5.2984 20.0972C6.1284 19.6972 6.95841 19.2372 7.83841 19.0572C8.88841 18.8472 9.8484 18.5072 10.7984 18.0472C11.3484 17.7772 11.9484 17.6172 12.5184 17.4072C12.5384 17.5672 12.5684 17.7272 12.6084 18.0072C12.6284 17.8372 12.6584 17.7872 12.6384 17.7572C12.5984 17.6572 12.5384 17.5572 12.4884 17.4472H12.4984ZM23.5984 30.5872C23.3584 29.9272 23.1084 29.5272 22.3584 29.4172C22.5184 30.1372 22.7984 30.4872 23.5984 30.5872ZM19.8084 35.5172C19.7284 35.7072 19.6284 35.8472 19.6584 35.8972C19.7584 36.0272 19.8984 36.1372 20.0384 36.2172C20.0684 36.2372 20.1984 36.0972 20.2784 36.0372C20.1284 35.8772 19.9884 35.7072 19.8084 35.5172ZM22.0684 36.8772C21.9884 36.8372 21.8984 36.7972 21.8084 36.7672C21.8084 36.7672 21.7684 36.8572 21.7384 36.8972C21.8184 36.9372 21.9084 36.9772 21.9884 37.0072C21.9884 37.0072 22.0284 36.9172 22.0584 36.8672L22.0684 36.8772ZM15.2884 34.8472C15.2884 34.8472 15.1984 34.8872 15.1484 34.9172C15.1884 34.9972 15.2284 35.0772 15.2784 35.1472C15.2784 35.1472 15.3584 35.1072 15.4084 35.0872C15.3684 35.0072 15.3184 34.9372 15.2784 34.8572L15.2884 34.8472ZM21.7684 39.4072C21.7684 39.4072 21.8584 39.3672 21.9084 39.3472C21.8684 39.2672 21.8284 39.1872 21.7884 39.1072C21.7884 39.1072 21.6984 39.1472 21.6584 39.1572C21.6984 39.2372 21.7384 39.3172 21.7784 39.3972L21.7684 39.4072ZM28.5684 31.8972C28.4484 31.8772 28.3684 31.8672 28.2884 31.8472C28.3184 31.8872 28.3384 31.9572 28.3784 31.9572C28.4284 31.9572 28.4884 31.9272 28.5684 31.8972ZM14.3484 33.0472L14.3284 33.1572L14.4284 33.1272L14.3484 33.0472Z"/>
</svg>
