<svg width="48" height="40" viewBox="0 0 48 40" xmlns="http://www.w3.org/2000/svg">
<path d="M16.0492 7.41719C16.5592 8.15719 17.3692 7.91719 18.0792 8.09719C18.3792 7.81719 18.6492 7.56719 18.9192 7.30719C19.6392 6.61719 20.4092 6.29719 21.4392 6.70719C22.1192 6.97719 22.8892 6.99719 23.6192 7.10719C23.8592 7.14719 24.1392 7.16719 24.3492 7.07719C24.5392 6.99719 24.7792 6.76719 24.7792 6.59719C24.7792 6.42719 24.5492 6.14719 24.3692 6.09719C24.0892 6.02719 23.7592 6.12719 23.4492 6.11719C23.2092 6.11719 22.9292 6.11719 22.7292 5.99719C22.5592 5.89719 22.4192 5.64719 22.3792 5.44719C22.3592 5.35719 22.5992 5.11719 22.7292 5.09719C23.1492 5.05719 23.5892 5.09719 24.0192 5.09719C24.9192 5.09719 25.8292 5.32719 26.9292 5.00719C26.1492 4.30719 25.0792 4.73719 24.5092 4.01719C26.2392 3.38719 27.9792 3.31719 29.8092 3.73719C29.7892 3.89719 29.7692 4.12719 29.7392 4.44719C30.4592 4.67719 31.1792 4.61719 31.8592 4.30719C32.4492 4.03719 33.0092 4.00719 33.6492 4.08719C34.4992 4.19719 35.3792 4.15719 36.2392 4.17719C36.8192 4.19719 37.3092 4.13719 37.6392 3.50719C37.7592 3.26719 38.2692 3.13719 38.5992 3.12719C39.6492 3.09719 40.7092 3.08719 41.7492 3.19719C43.2392 3.33719 44.6892 2.80719 46.1892 3.06719C46.4392 3.10719 46.7392 2.86719 47.0992 2.72719C47.2492 3.04719 47.3992 3.38719 47.5692 3.70719C47.8392 4.24719 47.7992 4.75719 47.5692 5.31719C46.9192 6.91719 46.3092 8.54719 45.6692 10.1472C45.5592 10.4272 45.3792 10.6872 45.2292 10.9572C44.9792 11.3872 44.6192 11.7772 44.4992 12.2372C44.0592 13.8572 43.0292 15.2072 42.4392 16.7572C41.9392 18.0672 41.0992 19.0272 39.8292 19.7572C38.2292 20.6672 36.5692 21.4772 35.0192 22.5172C33.1392 23.7872 30.9892 24.6672 28.9792 25.7472C25.2792 27.7472 21.6092 29.7772 17.9092 31.7872C16.6592 32.4672 15.3892 33.1072 14.1392 33.7872C12.1192 34.8672 10.1092 35.9572 8.09921 37.0672C6.52921 37.9272 4.97921 38.8272 3.40921 39.6972C2.50921 40.1972 2.04921 40.0772 1.34921 39.2072C1.11921 38.9272 0.929219 38.6072 0.699219 38.2672C1.51922 36.3172 2.86923 34.8072 4.23923 33.3072C4.52923 32.9972 4.79921 32.6772 5.06921 32.3472C5.18921 32.2072 5.2292 31.9672 5.3692 31.8872C6.6592 31.1572 7.28922 29.8172 8.29922 28.8272C8.81923 28.3172 9.41921 27.8672 10.0292 27.4472C11.5592 26.3972 13.1092 25.3772 14.6592 24.3472C14.8692 24.2072 15.0492 24.0172 15.2692 23.9272C17.1392 23.2072 18.7192 21.9972 20.3592 20.8872C21.9992 19.7872 23.6392 18.6872 25.3692 17.7372C25.5292 17.6472 25.6692 17.5172 25.7992 17.3972C26.0292 17.1872 25.9492 16.7072 25.6692 16.6072C25.3792 16.5072 25.0792 16.4172 24.7792 16.3972C21.4892 16.2472 18.2992 15.4272 15.0692 14.8472C13.2992 14.5272 11.5392 14.2072 9.76923 13.8872C9.46923 13.8372 9.15921 13.7772 8.84921 13.7572C6.59921 13.6072 5.13921 12.2072 3.84921 10.5772C3.23921 9.80719 3.31922 9.32719 4.13922 8.71719C4.92922 8.13719 5.79922 7.69719 6.54922 7.02719C7.88923 5.83719 9.22921 4.66719 10.3792 3.27719C11.0692 2.43719 11.9592 1.73719 12.8192 1.04719C13.1192 0.807188 13.5992 0.787188 14.1392 0.617188C14.1892 1.02719 14.2392 1.31719 14.2392 1.60719C14.2692 2.58719 14.3792 2.77719 15.3092 3.02719C15.9092 3.18719 16.5192 3.27719 16.9792 3.68719C17.2292 4.30719 16.5792 4.40719 16.4192 4.77719C16.1692 5.33719 16.1792 5.52719 16.7392 6.02719C16.8692 6.14719 17.0192 6.25719 17.1792 6.38719C17.0992 6.74719 17.0292 7.09719 16.9392 7.52719C16.5992 7.47719 16.2992 7.43719 15.9992 7.38719C15.3392 7.38719 14.9092 7.12719 14.9492 6.40719C14.9692 5.97719 15.0792 5.55719 15.0792 5.13719C15.0792 4.78719 15.0492 4.37719 14.4292 4.31719C14.2592 4.65719 14.0392 5.01719 13.9092 5.40719C13.5492 6.42719 14.0292 7.23719 15.0992 7.43719C15.3892 7.48719 15.7092 7.41719 16.0192 7.39719L16.0492 7.41719ZM25.9292 7.75719C25.9092 7.90719 25.8992 8.06719 25.9292 7.81719C25.9492 8.06719 25.9292 7.90719 25.9292 7.75719C26.1392 7.81719 26.3392 7.87719 26.5492 7.93719C26.5592 7.89719 26.5692 7.84719 26.5792 7.80719C26.3592 7.78719 26.1492 7.76719 25.9292 7.74719V7.75719ZM34.1292 9.64719C33.3092 9.63719 32.4892 9.62719 31.5692 9.60719C31.7492 9.29719 31.7992 9.08719 31.9292 8.99719C32.5592 8.56719 32.1492 8.02719 32.1292 7.52719C31.2192 7.12719 31.5092 6.11719 31.0792 5.36719C30.1892 5.00719 29.2692 4.92719 28.2692 5.15719C28.4592 5.82719 29.0492 5.57719 29.3592 5.82719C29.4892 5.93719 29.6992 6.12719 29.6692 6.23719C29.6192 6.43719 29.4692 6.67719 29.2892 6.77719C28.9392 6.97719 28.5392 7.08719 28.1792 7.22719C28.4592 8.47719 29.6092 8.15719 30.3792 8.62719C30.2892 9.39719 30.5992 10.0072 31.3992 10.1172C32.1292 10.2172 32.8692 10.1972 33.6092 10.1472C33.7892 10.1372 33.9392 9.81719 34.1192 9.65719C34.3592 9.69719 34.5992 9.77719 34.8392 9.76719C35.1392 9.76719 35.4392 9.71719 35.7192 9.60719C35.8392 9.55719 35.8792 9.32719 35.9592 9.16719C35.7592 9.08719 35.5092 8.88719 35.3692 8.94719C34.9392 9.12719 34.5492 9.40719 34.1392 9.65719L34.1292 9.64719ZM21.8092 8.50719C22.0492 8.63719 22.2092 8.78719 22.3292 8.76719C22.6592 8.71719 22.9092 8.47719 22.8292 8.13719C22.7892 7.97719 22.4992 7.87719 22.3192 7.75719C22.1692 7.98719 22.0092 8.21719 21.8092 8.50719ZM23.7492 8.65719C23.8692 8.83719 23.9392 8.99719 23.9692 8.99719C24.1792 8.93719 24.3692 8.83719 24.5692 8.75719C24.5192 8.66719 24.4492 8.49719 24.4092 8.50719C24.1992 8.52719 23.9892 8.60719 23.7492 8.66719V8.65719ZM26.1092 6.87719C26.2392 7.01719 26.3092 7.14719 26.3692 7.14719C26.5292 7.13719 26.6892 7.07719 26.8392 7.01719C26.8492 7.01719 26.7892 6.76719 26.7792 6.76719C26.5692 6.78719 26.3692 6.83719 26.1092 6.88719V6.87719ZM25.8092 9.27719C25.9092 9.31719 26.0192 9.36719 26.1192 9.36719C26.1592 9.36719 26.1992 9.23719 26.2392 9.16719C26.1792 9.15719 26.1192 9.11719 26.0692 9.13719C25.9792 9.16719 25.8892 9.22719 25.7992 9.27719H25.8092ZM33.9392 7.75719C33.9592 7.69719 34.0092 7.63719 33.9992 7.59719C33.9892 7.55719 33.9092 7.52719 33.8692 7.49719C33.8392 7.58719 33.7992 7.67719 33.7692 7.75719H33.9392ZM39.9892 4.35719C40.0492 4.43719 40.0992 4.54719 40.1792 4.57719C40.2392 4.59719 40.3392 4.50719 40.4192 4.46719C40.3592 4.38719 40.3092 4.26719 40.2292 4.23719C40.1692 4.21719 40.0692 4.30719 39.9892 4.35719ZM19.5492 8.21719C19.5392 8.26719 19.5092 8.35719 19.5192 8.36719C19.6092 8.40719 19.6992 8.42719 19.7892 8.45719C19.7992 8.40719 19.8292 8.31719 19.8192 8.30719C19.7292 8.26719 19.6392 8.24719 19.5492 8.21719ZM27.9692 3.97719C27.9692 3.97719 27.8692 3.95719 27.8292 3.97719C27.8092 3.97719 27.8192 4.05719 27.8092 4.09719C27.8592 4.09719 27.9092 4.11719 27.9492 4.09719C27.9692 4.09719 27.9592 4.01719 27.9692 3.97719Z"/>
</svg>
