<svg width="263" height="45" viewBox="0 0 263 45" fill="none" xmlns="http://www.w3.org/2000/svg">
<path d="M249.432 27.6626C265.612 27.6626 265.555 5.13574 249.432 5.13574H232.908V20.6301H228.048V27.6626H232.908V30.75H228.048V37.7825H232.908V43.4428H241.027V37.7825H256.007V30.75H241.027V27.6626H249.432ZM248.803 13.0258C254.52 13.0258 254.463 20.6301 248.803 20.6301H241.027V13.0258H248.803Z" fill="#06DCFF"/>
<path d="M177.832 28.6914C177.832 37.8966 184.407 44.3001 193.212 44.3001C202.016 44.3001 208.935 38.0109 208.935 28.6914V19.8294C208.935 10.5099 202.074 4.27783 193.326 4.27783C184.521 4.27783 177.832 10.567 177.832 19.8865V28.6914ZM185.95 19.8865C185.95 15.141 189.095 12.3395 193.326 12.3395C197.614 12.3395 200.759 15.1982 200.759 19.8294V28.6914C200.759 33.3798 197.5 36.1813 193.212 36.1813C189.038 36.1813 185.95 33.4369 185.95 28.6914V19.8865Z" fill="#06DCFF"/>
<path d="M142.209 28.6914C142.209 37.8965 148.784 44.3001 157.589 44.3001C166.394 44.3001 173.312 38.0109 173.312 28.6914V19.8294C173.312 10.5099 166.451 4.27783 157.703 4.27783C148.898 4.27783 142.209 10.567 142.209 19.8865V28.6914ZM150.328 19.8865C150.328 15.141 153.472 12.3395 157.703 12.3395C161.991 12.3395 165.136 15.1982 165.136 19.8294V28.6914C165.136 33.3797 161.877 36.1813 157.589 36.1813C153.415 36.1813 150.328 33.4369 150.328 28.6914V19.8865Z" fill="#06DCFF"/>
<path d="M106.586 28.6914C106.586 37.8965 113.161 44.3001 121.966 44.3001C130.771 44.3001 137.689 38.0109 137.689 28.6914V19.8294C137.689 10.5099 130.828 4.27783 122.08 4.27783C113.276 4.27783 106.586 10.567 106.586 19.8865V28.6914ZM114.705 19.8865C114.705 15.141 117.849 12.3395 122.08 12.3395C126.369 12.3395 129.513 15.1982 129.513 19.8294V28.6914C129.513 33.3797 126.254 36.1813 121.966 36.1813C117.792 36.1813 114.705 33.4369 114.705 28.6914V19.8865Z" fill="#06DCFF"/>
<path d="M58.4015 28.6914C58.4015 37.8965 64.9766 44.3001 73.7815 44.3001C82.5864 44.3001 89.5045 38.0109 89.5045 28.6914V19.8294C89.5045 10.5099 82.6436 4.27783 73.8958 4.27783C65.0909 4.27783 58.4015 10.567 58.4015 19.8865V28.6914ZM66.5203 19.8865C66.5203 15.141 69.6649 12.3395 73.8958 12.3395C78.1839 12.3395 81.3285 15.1982 81.3285 19.8294V28.6914C81.3285 33.3797 78.0696 36.1813 73.7815 36.1813C69.6077 36.1813 66.5203 33.4369 66.5203 28.6914V19.8865Z" fill="#06DCFF"/>
<path d="M22.7786 28.6914C22.7786 37.8965 29.3537 44.3001 38.1586 44.3001C46.9635 44.3001 53.8816 38.0109 53.8816 28.6914V19.8294C53.8816 10.5099 47.0206 4.27783 38.2729 4.27783C29.468 4.27783 22.7786 10.567 22.7786 19.8865V28.6914ZM30.8974 19.8865C30.8974 15.141 34.042 12.3395 38.2729 12.3395C42.561 12.3395 45.7056 15.1982 45.7056 19.8294V28.6914C45.7056 33.3797 42.4467 36.1813 38.1586 36.1813C33.9848 36.1813 30.8974 33.4369 30.8974 28.6914V19.8865Z" fill="#06DCFF"/>
<path d="M17.1753 5.13574H0.251587V13.0258H9.05649V43.4428H17.1753V5.13574Z" fill="#06DCFF"/>
<path d="M260.417 0.0722656L260.426 1.21922L259.435 0.839776L259.052 1.90049L260.126 2.29718L259.36 3.21992L260.267 3.95293L260.992 3.04744L261.716 3.94431L262.624 3.2113L261.858 2.29718L262.932 1.90049L262.549 0.839776L261.558 1.21922L261.567 0.0722656H260.417Z" fill="#06DCFF"/>
</svg>
