<svg width="441" height="265" viewBox="0 0 441 265" fill="none" xmlns="http://www.w3.org/2000/svg">
<path d="M4.60442 264.995C49.2228 260.579 93.7922 255.714 138.378 250.98C143.048 250.482 146.731 243.168 141.141 240.76C133.146 237.316 125.208 233.79 117.287 230.198C135.24 213.514 153.226 196.863 171.212 180.211C169.868 185.696 168.539 191.182 167.227 196.683C166.119 201.311 171.326 203.768 174.708 201.042C241.175 147.521 309.672 96.4643 380.181 48.4119C400.025 34.8867 420.293 21.8594 439.745 7.77101C441.188 6.72621 441.204 5.0121 440.479 3.85303C442.044 2.17973 439.819 -0.840393 437.333 0.220727C380.482 24.6102 324.748 51.7749 268.541 77.6499C257.075 82.931 245.682 88.6365 234.061 93.6973C239.888 85.5919 245.698 77.4785 251.484 69.3405C254.329 65.3409 248.811 60.2801 244.892 62.737C192.091 95.7542 139.454 129.024 86.5963 161.944C88.324 156.997 89.7745 151.936 91.4207 146.965C93.9878 139.187 96.3511 131.343 98.7389 123.507C99.994 119.393 94.1834 115.662 91.2578 119.14C55.6202 161.495 26.3554 209.017 0.537842 257.861C-0.986108 260.742 0.839372 265.354 4.61258 264.978L4.60442 264.995ZM84.6729 142.435C84.5344 143.015 84.3878 143.594 84.2493 144.182C82.4971 151.618 80.256 159.046 79.1558 166.604C73.932 169.992 78.8787 178.448 84.2248 175.069C132.592 144.451 181.163 114.161 229.636 83.7227C225.496 89.6405 221.372 95.5665 217.265 101.517C214.584 105.402 219.742 109.892 223.483 107.745C237.035 99.9824 251.542 93.8115 265.648 87.1347C279.559 80.5475 293.462 73.9604 307.373 67.3733C335.44 54.0767 363.589 40.9433 391.712 27.7609C400.416 23.6797 409.087 19.5413 417.717 15.3376C406.202 22.945 394.874 30.8626 383.522 38.6496C365.862 50.7627 348.357 63.1207 330.86 75.4623C295.883 100.129 261.158 125.188 226.775 150.679C210.827 162.507 194.976 174.473 179.166 186.488C180.837 180.105 182.491 173.714 184.113 167.315C185.286 162.67 179.688 159.552 176.249 162.727C153.128 184.105 130.025 205.507 106.864 226.843C105.193 228.378 105.063 230.272 105.788 231.839C104.729 234.565 105.568 238.042 109.488 239.593C111.9 240.548 114.304 241.528 116.709 242.499C82.0733 246.45 47.4299 250.392 12.8273 254.563C33.3477 215.032 58.0079 178.024 84.6811 142.444L84.6729 142.435Z" fill="#BF96F8"/>
</svg>
