<svg width="375" height="226" viewBox="0 0 375 226" fill="none" xmlns="http://www.w3.org/2000/svg">
<path d="M795.471 224.819C783.771 215.42 774.995 202.653 762.83 193.901C755.755 188.81 747.433 185.069 739.814 180.908C725.483 173.085 711.152 165.25 696.833 157.427C681.447 149.026 666.584 140.897 650.291 134.389C635.688 128.561 625.053 119.321 611.947 111.056C584.702 93.8562 555.043 79.3892 527.073 63.3689C512.776 55.1831 497.719 49.2421 484.091 39.7411C465.679 26.9181 448.683 19.9113 428.434 10.7844C383.661 10.7844 338.628 12.1903 293.877 10.5464C256.361 9.17448 219.343 0.829875 181.747 1.03395C142.462 1.24937 104.832 14.8093 65.6823 16.2945C22.1793 17.9385 -21.403 21.7367 -64.94 22.1335C-74.8038 25.3194 -84.9852 25.0246 -94.7243 28.2332C-105.643 31.8273 -113.432 39.9338 -122.694 46.4077C-129.905 51.453 -138.375 54.2535 -145.404 59.5142C-153.919 65.886 -159.735 75.285 -167.161 82.7339C-181.186 96.8041 -192.478 85.8064 -208.578 89.7179C-222.637 93.1419 -235.324 105.081 -248.476 111.044C-262.886 117.575 -275.278 120.817 -288.373 130.534C-302.534 141.044 -317.931 148.992 -333.373 157.427C-348.305 165.579 -363.236 173.742 -378.157 181.894C-387.136 186.803 -395.912 193.243 -406.331 194.365C-415.413 195.341 -422.93 194.524 -432 197.268C-385.844 197.268 -338.486 194.263 -292.466 198.039C-250.709 201.463 -210.857 211.315 -168.692 211.327C-92.4794 211.349 -15.7908 213.764 60.3763 211.304C97.054 210.125 130.875 194.241 167.099 190.261C203.935 186.202 237.982 200.726 273.458 207.778C309.841 215.011 348.956 211.315 385.883 211.315C424.931 211.315 461.132 208.572 499.567 201.622C522.81 197.415 545.927 194.581 569.555 196.905C592.684 199.184 615.314 204.785 638.273 208.277C662.151 211.905 686.266 210.987 710.189 214.263C738.669 218.175 766.639 224.002 795.471 224.83V224.819Z" stroke="black" stroke-miterlimit="10"/>
<path d="M-240.222 205.681C-214.542 192.665 -193.318 174.048 -170.835 156.18C-157.683 145.726 -155.382 127.847 -143.386 117.087C-134.475 109.083 -124.475 116.838 -114.056 110.897C-104.441 105.421 -97.389 95.4322 -87.6953 90.1488C-77.2418 84.4459 -67.344 84.5026 -57.2761 76.8496C-44.6005 67.2238 -35.3489 57.2807 -24.4306 45.8749C-13.8072 34.7752 0.535083 28.4033 12.1109 18.29" stroke="black" stroke-miterlimit="10"/>
<path d="M-201.854 210.737C-181.367 193.98 -161.651 176.168 -141.719 158.754C-130.381 148.833 -124.191 132.631 -112.434 123.969C-104.577 118.187 -95.1094 117.439 -87.1617 111.101C-78.8738 104.491 -71.2207 94.3324 -61.8897 89.3097C-52.0372 84.015 -44.6904 83.5503 -35.6089 75.5231C-25.711 66.7817 -17.1737 56.6684 -7.37783 47.893C4.34542 37.3942 16.6583 29.0609 27.5312 17.3604" stroke="black" stroke-miterlimit="10"/>
<path d="M-163.499 211.339C-153.318 200.488 -145.892 186.713 -133.533 178.3C-124.633 172.246 -117.286 166.419 -109.463 158.845C-92.9896 142.881 -76.958 126.918 -60.2688 111.136C-45.5751 97.2355 -27.7635 87.5758 -13.9541 73.0975C-6.3351 65.1044 0.887069 55.4899 9.86658 48.9821C15.5241 44.8891 20.8869 42.9957 25.8982 38.1544C32.3267 31.9414 37.5308 23.7102 42.9729 16.7148" stroke="black" stroke-miterlimit="10"/>
<path d="M-125.144 211.315C-117.865 199.796 -112.819 180 -99.9397 174.184C-96.1529 172.472 -92.3094 173.776 -88.3072 171.066C-84.2029 168.289 -80.5522 162.586 -77.1849 158.912C-62.922 143.334 -48.9765 127.835 -33.3871 113.584C-18.3192 99.8085 -5.26948 86.0105 7.71226 70.285C14.5036 62.0538 20.6714 52.9382 30.2178 48.097C35.5806 45.3759 37.9954 45.2512 42.3038 40.7274C48.6756 34.0495 53.2788 23.993 58.3694 16.4307" stroke="black" stroke-miterlimit="10"/>
<path d="M-86.7881 211.304C-81.9582 201.655 -77.9446 191.689 -74.736 181.383C-73.6363 173.3 -69.8495 170.204 -63.3869 172.109C-58.8178 174.773 -55.2351 173.606 -52.6274 168.583C-49.4528 164.637 -46.0288 160.93 -42.3667 157.438C-35.1218 149.241 -29.9066 139.796 -22.8998 131.52C-18.104 125.862 -11.9815 122.903 -6.49398 118.164C10.1839 103.765 16.7711 85.069 29.3787 67.8243C32.8027 63.3005 36.2153 58.7768 39.6393 54.253C41.9749 49.7519 45.5576 47.5864 50.3988 47.7452C56.2038 47.7225 59.9793 44.6499 61.7479 38.5162C65.3647 30.7272 69.3783 23.1648 73.8 15.8066" stroke="black" stroke-miterlimit="10"/>
<path d="M-48.4209 211.305C-44.4187 201.701 -40.8587 191.94 -37.7635 182.008C-36.5277 175.602 -33.183 173.017 -27.7408 174.241C-22.5481 170.557 -14.3396 167.087 -9.20362 162.031C-2.27625 155.205 -0.507638 144.967 3.75536 136.623C8.75531 126.838 12.7236 128.936 20.3993 123.414C37.7007 110.977 39.7188 84.7751 50.0021 68.0633C52.9953 63.6075 56.0111 59.1631 59.0496 54.7301C60.705 50.0249 63.8682 47.4966 68.5393 47.1452C74.1062 46.3515 77.4509 42.8708 78.562 36.7143C81.7593 28.9933 85.3192 21.4424 89.2194 14.0615" stroke="black" stroke-miterlimit="10"/>
<path d="M-10.0654 211.315C-4.88407 198.266 -1.42611 187.642 7.7348 177.427C10.4445 174.479 13.1656 171.531 15.8754 168.572C17.1792 168.697 18.4944 168.822 19.7982 168.946C24.9115 168.765 27.4399 165.545 27.3946 159.275C29.6395 150.636 32.0884 142.053 34.7414 133.527C39.7187 127.45 42.0202 130.296 47.2809 126.203C63.9928 113.199 64.3556 82.0197 72.859 64.5709C76.7818 56.5098 81.6457 50.0246 86.8384 43.324C91.6909 41.544 94.5594 37.8704 95.455 32.3263C98.2555 25.3082 101.305 18.3923 104.639 11.6123" stroke="black" stroke-miterlimit="10"/>
<path d="M28.2905 211.338C32.8937 200.318 37.7462 189.683 43.0069 178.969C43.2677 174.944 44.9571 172.212 48.0637 170.772C49.9004 168.969 51.5216 169.57 52.9502 172.54C62.8594 168.255 59.6281 144.559 63.7664 135.897C68.2222 126.589 67.9955 132.677 74.1632 127.167C77.9047 123.833 81.2152 112.881 83.052 107.734C89.231 90.4777 87.6438 71.4756 95.3761 54.7184C98.2105 48.5847 101.839 42.8818 105.319 37.1676C110.795 28.1994 115.501 18.8005 120.036 8.7666" stroke="black" stroke-miterlimit="10"/>
<path d="M66.6577 211.055C70.4105 200.034 74.254 189.048 78.0748 178.05C78.9478 175.556 79.8321 173.062 80.7051 170.567C82.4171 169.388 84.1065 169.422 85.7732 170.658C92.5418 161.293 88.4942 146.112 92.984 136.078C97.9726 124.933 97.1903 133.538 101.068 126.577C115.149 101.362 105.739 70.3077 116.362 44.6163C121.805 31.4532 129.639 19.0723 135.478 5.90918" stroke="black" stroke-miterlimit="10"/>
<path d="M105.013 204.332C108.652 191.168 113.357 177.96 117.337 165.148C120.432 155.182 118.618 141.226 123.164 132.042C125.409 127.496 125.806 131.294 127.96 127.167C130.466 122.348 131.849 111.169 132.756 105.863C134.162 86.8383 135.262 67.791 136.033 48.7322C136.588 43.5622 137.155 38.3807 137.711 33.2107C138.901 30.1382 141.566 26.9183 143.006 23.5057C145.806 16.8957 148.244 10.1383 150.897 3.41504" stroke="black" stroke-miterlimit="10"/>
<path d="M143.369 194.445C148.731 189.151 147.167 177.496 148.108 170.194C149.638 158.357 149.65 145.296 152.246 133.743C159.298 102.383 153.448 57.3379 160.149 22.4176C162.756 24.9232 162.201 19.243 163.074 15.1727C164.06 10.5583 164.661 6.12528 166.316 1.6582" stroke="black" stroke-miterlimit="10"/>
<path d="M181.725 189.343V18.4942C181.725 28.0179 181.725 14.8208 181.725 12.9841V1" stroke="black" stroke-miterlimit="10"/>
<path d="M220.092 194.445C213.981 189.026 215.817 173.879 214.922 166.18C213.742 156.044 213.198 145.648 211.509 135.591C210.25 128.085 208.198 121.045 207.325 113.392C203.901 83.4033 208.799 52.0317 203.312 22.4175C200.443 26.7485 200.92 16.9867 200.387 14.2316C199.446 9.37908 199.071 5.84165 197.144 1.41992" stroke="black" stroke-miterlimit="10"/>
<path d="M258.447 204.331C254.637 190.59 250.08 176.916 246.259 163.186C241.837 147.291 240.522 130.602 235.499 114.808C226.973 87.9942 233.311 58.3914 224.887 32.2578C222.211 23.9586 218.345 9.69574 212.563 2.53027" stroke="black" stroke-miterlimit="10"/>
<path d="M296.803 211.055C293.05 200.035 289.195 189.048 285.386 178.051C284.513 175.556 283.64 173.051 282.767 170.557C281.701 169.23 280.51 169.049 279.195 169.99C267.71 151.793 272.993 124.582 262.449 106.249C259.207 100.625 256.747 98.471 254.298 91.7024C248.946 76.8612 253.311 59.4352 247.087 44.6168C244.592 38.6758 241.361 33.7665 239.388 27.44C236.361 17.7462 232.608 12.3607 227.971 4.11816" stroke="black" stroke-miterlimit="10"/>
<path d="M335.158 211.315C330.839 201.871 326.519 192.427 322.199 182.982C319.694 177.506 318.231 166.962 312.041 171.973C301.916 164.434 296.905 130.114 294.649 119.593C292.778 110.874 291.746 102.427 286.338 95.5227C284.513 96.1123 283.027 95.7156 281.882 94.3324C280.091 93.3233 279.093 91.7133 278.889 89.5025C273.628 82.6545 274.173 70.5117 271.225 62.2237C268.662 55.0016 264.411 48.7999 261.52 41.7251C258.867 35.2513 257.189 28.3692 254.615 21.8613C250.941 12.5757 248.107 13.4715 243.402 5.90918" stroke="black" stroke-miterlimit="10"/>
<path d="M373.525 211.316C367.595 200.942 361.666 190.579 355.725 180.205C353.945 175.863 351.348 172.132 347.936 168.992C346.575 170.511 345.056 170.908 343.389 170.194C337.199 165.33 333.888 153.346 330.702 145.761C326.847 137.065 324.081 128.017 322.403 118.618C321.734 111.407 319.682 104.718 316.224 98.5731C311.814 94.2421 308.322 93.8452 303.617 89.1741C296.939 82.5415 293.14 69.1516 288.662 60.8864C284.07 52.4284 280.091 44.2312 276.599 35.2064C274.535 28.4717 271.667 22.1113 267.982 16.1136C264.411 13.8914 261.349 11.1023 258.798 7.72363" stroke="black" stroke-miterlimit="10"/>
<path d="M411.881 211.315C404.988 201.27 398.094 191.225 391.201 181.179C388.48 176.758 385.385 172.631 381.915 168.787C379.455 168.867 376.995 168.787 374.546 168.538C368.707 163.402 365.566 154.967 361.711 148.323C353.628 134.4 353.242 111.849 343.072 100.103C337.732 93.9467 331.632 93.652 326.428 86.7813C321.848 80.7383 317.846 73.8222 313.469 67.5977C306.27 57.3597 300.045 47.9154 294.932 36.4189C292.71 29.6276 289.365 23.4486 284.909 17.9044C280.828 15.6935 277.268 12.8251 274.252 9.27637" stroke="black" stroke-miterlimit="10"/>
<path d="M450.237 209.909C442.368 201.134 434.896 192.166 427.527 182.959C424.092 178.628 420.611 174.32 417.096 170.057C414.591 168.039 411.768 167.211 408.616 167.574C385.713 155.193 383.797 123.277 369.943 104.604C364.841 97.7221 357.074 94.8876 351.757 88.153C345.09 79.7177 340.158 70.863 332.811 62.8585C324.195 53.4708 318.401 45.3757 312.358 33.9699C305.737 21.4644 298.605 19.7636 289.648 10.376" stroke="black" stroke-miterlimit="10"/>
<path d="M488.604 203.663C477.618 196.373 469.466 190.409 460.452 180.568C453.083 172.53 448.105 170.976 439.545 166.124C418.208 154.015 410.634 127.632 396.893 109.152C390.135 100.07 380.408 94.3445 374.138 84.8321C367.358 74.5601 363.095 66.5556 353.05 59.3901C342.415 51.8052 337.222 44.1295 330.295 32.8824C323.333 21.59 315.431 18.0867 305.091 10.7852" stroke="black" stroke-miterlimit="10"/>
<path d="M526.959 197.359C521.154 194.412 515.508 195.874 509.885 193.176C503.683 190.205 498.706 183.879 493.853 179.162C486.347 171.872 480.225 168.391 471.257 163.754C447.629 151.521 440.089 130.353 423.774 111.249C416.314 102.519 406.337 95.9318 399.659 86.5215C391.348 74.8095 388.899 61.8732 374.523 56.6805C362.426 52.3042 358.004 46.3178 350.453 35.683C341.734 23.4155 332.675 18.6762 320.487 10.7852" stroke="black" stroke-miterlimit="10"/>
<path d="M565.315 196.52C557.957 193.527 550.803 195.681 543.853 192.382C539.125 190.137 534.352 184.253 530.406 180.806C521.483 173.006 512.969 165.761 502.753 159.775C494.658 155.036 484.534 155.398 477.21 149.934C465.169 140.965 460.996 122.235 450.668 111.294C442.924 103.097 432.629 97.1336 425.351 88.4829C414.818 75.9773 413.491 57.8143 396.065 54.1182C391.779 53.2112 387.947 54.481 383.707 52.2361C376.746 48.5513 372.313 39.6625 367.517 33.8236C358.027 22.2931 348.435 18.3815 335.93 10.7852" stroke="black" stroke-miterlimit="10"/>
<path d="M603.671 202.087C595.598 196.861 589.408 197.133 581.222 192.994C576.177 190.443 571.528 185.784 567.118 182.28C556.619 173.936 546.03 163.403 534.363 156.782C528.229 153.301 526.653 151.453 519.171 152.587C513.207 153.482 510.792 156.702 504.488 153.017C499.125 149.888 495.384 139.65 492.64 134.56C488.06 126.068 484.216 118.177 477.515 111.363C468.423 102.122 456.416 96.2266 448.151 86.1587C439.636 75.7733 435.203 55.4106 420.702 52.3154C414.874 51.0682 410.498 54.0388 404.648 51.9299C397.448 49.3449 392.743 41.8621 387.857 36.2612C376.723 23.4949 365.442 18.937 351.315 10.7852" stroke="black" stroke-miterlimit="10"/>
<path d="M642.038 208.833C629.305 198.675 614.6 191.339 601.38 181.713C589.294 172.904 577.469 163.176 564.873 155.115C558.694 151.158 556.687 149.559 549.283 151.895C544.465 153.414 539.828 158.856 534.182 156.759C520.055 151.498 515.338 121.351 504.409 111.056C494.375 101.623 481.121 96.0338 471.71 85.8072C461.994 75.2404 456.144 55.5013 440.736 52.8823C435.407 51.9752 429.693 54.3789 424.455 52.3267C416.813 49.3449 409.41 39.209 403.933 33.6989C392.924 22.5992 380.135 18.2001 366.757 10.7852" stroke="black" stroke-miterlimit="10"/>
<path d="M433.116 13.0516C386.858 13.165 340.283 14.3896 294.047 12.7456C256.44 11.4078 219.422 2.7003 181.724 2.8817C143.516 3.0631 107.371 17.1333 69.401 19.1854C23.313 21.6684 -23.5119 24.2194 -69.668 24.0266" stroke="black" stroke-miterlimit="10"/>
<path d="M437.992 15.0134C391.45 15.0588 344.795 15.5235 298.265 14.4691C259.184 13.5848 220.862 3.64166 181.724 3.81173C141.872 3.98179 104.843 21.6233 65.1836 23.0859C18.8575 24.7979 -28.2169 26.3057 -74.543 25.0926" stroke="black" stroke-miterlimit="10"/>
<path d="M443.071 16.8394C396.246 16.5219 349.421 16.3518 302.596 15.7509C262.018 15.2293 222.325 3.49481 181.724 4.05037C140.092 4.61725 102.394 26.4085 60.8522 27.4629C14.2427 28.642 -33.0244 27.0886 -79.6226 25.6828" stroke="black" stroke-miterlimit="10"/>
<path d="M448.354 18.721C399.284 17.8366 350.181 17.9161 301.111 16.8163C261.032 15.9206 221.849 3.26764 181.724 4.0046C138.834 4.7869 101.317 31.3059 58.4034 32.0769C10.8189 32.9272 -37.2759 27.3831 -84.8945 26.1473" stroke="black" stroke-miterlimit="10"/>
<path d="M453.842 20.8639C404.477 19.322 354.988 18.7098 305.6 18.1089C263.946 17.5987 223.356 3.26784 181.724 4.24288C136.804 5.2973 99.1965 37.4625 53.8795 36.7709C5.67129 36.0339 -42.0493 27.7233 -90.3936 26.941" stroke="black" stroke-miterlimit="10"/>
<path d="M459.579 23.4833C409.262 21.2611 358.65 20.5582 308.288 19.9232C265.681 19.3904 224.264 4.07306 181.736 5.1955C135.421 6.40864 98.3125 42.8595 51.2721 41.1475C27.8143 40.2972 4.57186 35.8075 -18.6139 32.5649C-44.498 28.9481 -70.0192 28.5966 -96.1074 28.4493" stroke="black" stroke-miterlimit="10"/>
<path d="M465.554 26.7818C413.582 24.004 361.11 23.2784 309.059 22.7115C266.157 22.2467 224.536 6.45321 181.736 7.57565C134.843 8.80013 98.2444 46.861 50.4558 44.8429C25.3653 43.7885 0.773651 38.2443 -23.9994 34.6275C-50.0309 30.8294 -75.8356 31.1128 -102.083 31.1015" stroke="black" stroke-miterlimit="10"/>
<path d="M471.79 30.9545C418.695 28.1654 365.147 27.3832 311.973 26.9183C267.937 26.5329 225.579 9.07257 181.736 10.3424C133.913 11.7143 96.5555 49.3443 47.5877 46.7706C22.826 45.4781 -1.68626 41.2492 -26.2892 38.4374C-53.6245 35.3195 -80.8578 35.7731 -108.318 35.3649" stroke="black" stroke-miterlimit="10"/>
<path d="M478.297 35.6141C424.613 33.2899 370.657 32.7684 316.916 32.2696C293.106 32.0428 271.156 29.0723 247.982 23.4941C226.316 18.2788 204.196 12.0543 181.713 12.5078C156.815 13.0066 134.23 24.3444 111.714 33.8001C88.5845 43.5053 67.6324 48.3578 42.5646 47.4054C-9.89524 45.4213 -62.4232 42.8136 -114.86 40.4327" stroke="black" stroke-miterlimit="10"/>
<path d="M485.123 40.466C430.158 38.8787 375.079 38.584 320.079 38.2552C294.728 38.1078 272.041 34.5023 247.688 27.541C226.248 21.4072 204.287 14.151 181.736 14.3324C157.144 14.5252 134.457 25.3868 112.065 34.3436C87.519 44.1621 65.7506 47.6429 39.4356 47.8696C-14.3621 48.3345 -67.9784 50.1711 -121.651 45.6587" stroke="black" stroke-miterlimit="10"/>
<path d="M492.254 45.2508C435.973 44.5138 379.67 44.4458 323.39 44.3098C297.812 44.2531 275.533 40.9198 251.157 32.9834C228.651 25.6592 205.749 16.4756 181.724 16.4076C157.371 16.3395 134.627 26.7362 112.292 35.2282C86.5891 45.0014 63.29 47.2575 36.1361 48.9128C10.0252 50.5115 -15.9609 53.584 -42.0718 55.1259C-71.3232 56.8492 -99.781 53.9921 -128.806 50.4547" stroke="black" stroke-miterlimit="10"/>
<path d="M499.737 49.7408C441.438 49.6501 383.14 49.6728 324.841 49.6728C298.753 49.6728 276.621 46.487 251.905 37.6888C229.297 29.639 206.157 19.3896 181.724 19.3216C155.897 19.2536 131.645 30.6934 107.802 39.1967C83.1764 47.9835 60.2968 48.8678 34.6394 51.2261C8.26777 53.6524 -17.7636 58.9357 -44.1692 61.0899C-75.2234 63.6182 -105.631 58.7997 -136.277 54.3213" stroke="black" stroke-miterlimit="10"/>
<path d="M507.595 53.8229C447.833 52.7345 388.242 53.6301 328.492 54.061C302.506 54.2537 280.091 52.2128 255.568 42.9386C231.713 33.9137 207.802 22.1338 181.736 22.1338C155.682 22.1338 131.77 33.9137 107.904 42.9386C82.0883 52.7004 57.9957 52.8479 31.0231 55.6596C3.29098 58.5508 -24.0897 64.5144 -51.9692 65.977C-82.7739 67.5983 -113.635 62.2128 -144.123 58.5507" stroke="black" stroke-miterlimit="10"/>
<path d="M515.837 57.5868C483.615 55.6707 451.495 52.7796 419.182 53.1878C390.158 53.5506 361.269 56.6005 332.29 57.9384C304.433 59.2195 281.372 56.8385 255.556 45.5461C232.132 35.2968 208.062 21.2266 181.736 21.3287C153.913 21.4307 129.06 36.68 104.163 47.1448C78.4485 57.9497 54.3445 57.5868 27.2019 60.5346C-1.8795 63.6978 -30.7227 69.8656 -60.0649 70.3645C-90.8242 70.886 -121.686 67.7228 -152.377 65.9881" stroke="black" stroke-miterlimit="10"/>
<path d="M524.51 61.9401C490.882 58.5728 457.13 51.6341 423.219 52.2917C394.047 52.8586 365.271 58.4594 336.303 61.3619C306.145 64.3777 282.88 61.6795 255.647 47.7454C232.892 36.1015 208.323 18.8453 181.724 19.004C153.527 19.1741 128.392 37.6206 104.061 49.616C77.0882 62.9152 52.3151 62.303 23.1884 65.5796C-5.96095 68.8676 -34.7249 74.0262 -64.1237 74.5704C-96.4249 75.16 -128.749 75.398 -161.062 75.8175" stroke="black" stroke-miterlimit="10"/>
<path d="M533.648 67.3827C500.032 63.6526 466.926 54.1062 433.037 52.8817C402.493 51.7819 372.459 59.9111 342.516 64.6389C311.077 69.6049 286.871 68.3124 258.674 52.4849C235.148 39.2764 210.023 18.585 181.724 18.585C152.008 18.585 125.988 41.1245 101.056 54.503C74.6506 68.6866 49.8435 67.4734 20.9322 70.716C-42.6159 77.8588 -106.289 82.4166 -170.2 85.7612" stroke="black" stroke-miterlimit="10"/>
<path d="M543.297 73.3353C507.787 70.807 473.32 60.5917 437.799 58.4829C407.085 56.6575 377.062 64.2197 346.983 69.1743C315.907 74.299 291.349 74.5938 262.721 60.2856C237.744 47.8027 210.908 26.3176 181.735 26.2269C151.033 26.1248 123.312 49.9342 97.0197 62.882C70.0131 76.1812 41.8161 74.5372 12.5306 77.4737C-51.1649 83.8681 -115.847 89.1289 -179.826 91.3965" stroke="black" stroke-miterlimit="10"/>
<path d="M553.478 79.106C516.71 78.6638 480.667 71.5437 444.035 69.3555C413.672 67.5415 383.74 71.9065 353.661 75.4552C322.063 79.174 293.163 80.2172 262.245 71.6798C236.146 64.4803 209.264 52.5303 181.736 52.8024C152.224 53.0859 124.911 68.2217 97.5075 77.2466C68.7436 86.7249 39.6963 85.1944 9.7986 85.3871C-56.8561 85.8293 -123.443 90.9199 -190.018 91.022" stroke="black" stroke-miterlimit="10"/>
<path d="M564.249 85.0008C494.182 85.0008 424.783 80.613 354.682 83.8103C297.097 86.4293 239.354 85.9304 181.724 86.8941C151.747 87.393 122.904 92.7558 93.1877 96.021C63.5622 99.275 34.2994 96.758 4.7986 93.3567C-63.9422 85.4429 -131.776 89.3772 -200.8 88.9917" stroke="black" stroke-miterlimit="10"/>
<path d="M575.667 91.2377C504.431 91.2377 433.196 91.283 361.95 91.2377C331.349 91.215 300.374 89.5823 270.046 94.3442C240.545 98.9813 211.747 106.861 181.725 107.337C120.467 108.312 57.8369 111.124 -2.45734 99.3215C-71.1302 85.8862 -142.524 91.2377 -212.217 91.2377" stroke="black" stroke-miterlimit="10"/>
<path d="M587.786 97.8588C515.111 97.8588 442.13 99.7975 369.534 96.1014C336.417 94.4121 302.789 91.3964 270 97.7568C240.431 103.494 212.109 113.301 181.736 113.97C119.14 115.342 55.5237 117.235 -6.06305 105.228C-77.0714 91.385 -152.241 97.8588 -224.315 97.8588" stroke="black" stroke-miterlimit="10"/>
<path d="M600.677 104.899C525.428 104.899 448.275 109.888 373.514 100.342C340.351 96.1125 306.859 90.1602 273.855 98.21C242.993 105.738 213.946 119.945 181.736 120.954C117.711 122.96 52.9159 123.618 -10.0427 111.487C-45.9721 104.559 -81.1985 104.888 -117.638 104.888H-237.206" stroke="black" stroke-miterlimit="10"/>
<path d="M614.407 112.541C571.449 112.949 528.49 112.836 485.531 112.632C449.352 112.462 413.729 113.301 377.89 107.507C344.818 102.167 311.168 94.2647 277.914 102.349C245.511 110.228 215.568 126.793 181.724 128.312C116.215 131.26 50.025 129.911 -14.4188 118.131C-51.6633 111.317 -88.7265 112.598 -126.425 112.224C-167.932 111.816 -209.451 111.838 -250.958 112.258" stroke="black" stroke-miterlimit="10"/>
<path d="M629.067 123.719C585.575 129.536 544.566 132.654 500.701 129.694C462.345 127.098 423.831 127.143 385.554 123.867C351.031 120.908 316.711 116.531 282.018 119.366C248.492 122.109 215.42 128.742 181.724 129.298C113.777 130.431 46.408 129.479 -21.2104 122.914C-59.9742 119.15 -98.2619 118.187 -136.935 112.597C-181.107 106.214 -221.742 110.511 -265.619 116.849" stroke="black" stroke-miterlimit="10"/>
<path d="M644.758 132.484C619.747 138.277 595.405 147.45 570.02 151.531C549.691 154.808 529.249 152.722 508.977 150.023C470.905 144.955 434.273 141.429 395.849 141.202C360.486 140.987 324.648 142.325 289.376 139.865C253.413 137.359 217.823 130.33 181.735 129.559C111.067 128.062 40.2287 129.445 -30.4622 128.969C-49.1809 128.844 -67.9675 130.023 -86.4481 126.475C-106.403 122.654 -125.461 115.386 -144.985 109.899C-167.264 103.629 -188.239 101.021 -211.096 105.568C-234.927 110.307 -257.739 119.309 -281.299 125.205" stroke="black" stroke-miterlimit="10"/>
<path d="M661.595 138.754C614.782 143.742 571.494 157.609 523.955 155.443C483.139 153.584 442.606 150.352 401.7 150.976C366.008 151.52 329.909 154.275 294.252 152.189C256.406 149.978 219.763 138.709 181.725 138.176C144.775 137.654 108.052 143.006 71.136 143.697C35.1953 144.378 -0.416529 140.477 -36.2552 138.765C-58.1144 137.722 -79.3501 137.994 -100.949 133.788C-120.79 129.922 -140.279 124.378 -160.256 121.18C-207.659 113.595 -251.571 132.201 -298.135 137.552" stroke="black" stroke-miterlimit="10"/>
<path d="M679.702 148.073C630.972 147.812 581.063 147.098 532.458 150.579C491.472 153.515 451.2 159.524 410.056 161.123C371.802 162.608 332.88 168.912 294.615 166.021C256.577 163.141 220.092 147.937 181.725 148.073C144.015 148.209 108.176 162.982 70.7732 165.919C31.4425 169.014 -6.02865 154.173 -44.6111 149.468C-84.9848 144.558 -128.182 146.384 -168.884 146.146C-218.022 145.862 -267.103 148.345 -316.241 148.062" stroke="black" stroke-miterlimit="10"/>
<path d="M699.225 158.731C650.088 158.731 600.927 158.38 551.789 158.731C507.855 159.049 464.42 166.792 420.464 167.45C379.546 168.062 338.435 173.187 297.517 171.441C258.685 169.797 220.692 158.765 181.747 158.799C143.187 158.833 105.75 170.455 67.3039 172.03C25.853 173.742 -14.3961 160.919 -55.6088 158.981C-148.556 154.604 -242.693 158.731 -335.742 158.731" stroke="black" stroke-miterlimit="10"/>
<path d="M720.336 170.272C633.205 170.272 546.074 170.272 458.944 170.409C187.007 170.794 -84.9403 170.272 -356.876 170.272" stroke="black" stroke-miterlimit="10"/>
<path d="M743.25 182.79H473.468C339.41 182.79 205.352 182.869 71.2834 182.79C36.7712 182.767 3.25675 177.393 -30.972 173.89C-67.4115 170.16 -102.4 174.525 -138.556 179.014C-217.705 188.856 -300.153 182.79 -379.801 182.79" stroke="black" stroke-miterlimit="10"/>
<path d="M768.204 198.379C673.908 196.315 579.328 192.064 485.021 195.352C413.695 197.846 341.303 198.56 269.977 195.941C235.635 194.683 201.452 192.585 167.076 192.959C132.632 193.334 98.2556 196.86 63.8002 196.485C27.7688 196.089 -6.78881 186.384 -42.4347 182.642C-80.4843 178.64 -116.81 188.334 -154.214 193.628C-193.839 199.229 -234.281 195.544 -274.122 194.569C-317.625 193.515 -361.218 194.241 -404.744 194.241" stroke="black" stroke-miterlimit="10"/>
</svg>
