<svg width="206" height="150" viewBox="0 0 206 150" fill="none" xmlns="http://www.w3.org/2000/svg">
<mask id="path-1-inside-1_86_9634" fill="white">
<path fill-rule="evenodd" clip-rule="evenodd" d="M205.83 74.72L200.7 78.04L195.56 81.36L199.53 86.02L203.5 90.67L197.63 92.41L191.77 94.15L194.35 99.7L196.94 105.24L190.82 105.47L184.7 105.7L185.96 111.69L187.23 117.68L181.19 116.64L175.15 115.61L175.28 121.73L175.4 127.85L169.63 125.8L163.86 123.74L163.02 129.81L162.17 135.88L156.76 133.01L151.34 130.14L149.69 136.04L148.03 141.94L143.03 138.39L138.03 134.85L135.66 140.5L133.29 146.15L128.74 142.05L124.19 137.94L121.19 143.29L118.19 148.63L114.12 144.05L110.04 139.46L106.48 144.46L102.92 149.45L99.3601 144.46L95.79 139.47L91.7202 144.05L87.6501 148.63L84.6501 143.29L81.6602 137.94L77.1001 142.05L72.55 146.16L70.1802 140.51L67.8201 134.86L62.8101 138.4L57.8101 141.94L56.1501 136.04L54.49 130.14L49.0701 133.01L43.6501 135.88L42.8101 129.81L41.9602 123.74L36.1902 125.79L30.4102 127.83L30.53 121.71L30.6602 115.59L24.6201 116.62L18.5801 117.66L19.8501 111.67L21.1101 105.68L15 105.45L8.88013 105.22L11.4702 99.68L14.0601 94.14L8.19019 92.39L2.33008 90.65L6.30005 86L10.27 81.36L5.14014 78.04L0 74.72L5.14014 71.41L10.28 68.09L6.30005 63.43L2.33008 58.78L8.2002 57.04L14.0701 55.3L11.48 49.75L8.89014 44.21L15.01 43.98L21.1301 43.75L19.8701 37.76L18.6101 31.77L24.6401 32.81L30.6802 33.84L30.55 27.72L30.4302 21.6L36.2002 23.65L41.98 25.71L42.8201 19.64L43.6602 13.57L49.0701 16.44L54.49 19.31L56.1401 13.41L57.8 7.51001L62.8 11.06L67.8 14.6L70.1702 8.95001L72.54 3.30002L77.0901 7.40002L81.6501 11.51L84.6401 6.16L87.6401 0.820007L91.7102 5.40002L95.79 9.99002L99.3501 4.99002L102.92 0L106.48 4.99002L110.04 9.98001L114.11 5.40002L118.18 0.820007L121.18 6.16L124.18 11.51L128.73 7.40002L133.28 3.29001L135.65 8.94L138.02 14.59L143.02 11.05L148.02 7.51001L149.68 13.41L151.34 19.31L156.76 16.44L162.18 13.57L163.03 19.64L163.87 25.71L169.65 23.66L175.42 21.62L175.3 27.74L175.17 33.86L181.21 32.83L187.25 31.79L185.98 37.78L184.72 43.77L190.84 44L196.95 44.23L194.36 49.77L191.77 55.31L197.64 57.06L203.51 58.8L199.53 63.45L195.56 68.09L200.7 71.41L205.83 74.72Z"/>
</mask>
<path fill-rule="evenodd" clip-rule="evenodd" d="M205.83 74.72L200.7 78.04L195.56 81.36L199.53 86.02L203.5 90.67L197.63 92.41L191.77 94.15L194.35 99.7L196.94 105.24L190.82 105.47L184.7 105.7L185.96 111.69L187.23 117.68L181.19 116.64L175.15 115.61L175.28 121.73L175.4 127.85L169.63 125.8L163.86 123.74L163.02 129.81L162.17 135.88L156.76 133.01L151.34 130.14L149.69 136.04L148.03 141.94L143.03 138.39L138.03 134.85L135.66 140.5L133.29 146.15L128.74 142.05L124.19 137.94L121.19 143.29L118.19 148.63L114.12 144.05L110.04 139.46L106.48 144.46L102.92 149.45L99.3601 144.46L95.79 139.47L91.7202 144.05L87.6501 148.63L84.6501 143.29L81.6602 137.94L77.1001 142.05L72.55 146.16L70.1802 140.51L67.8201 134.86L62.8101 138.4L57.8101 141.94L56.1501 136.04L54.49 130.14L49.0701 133.01L43.6501 135.88L42.8101 129.81L41.9602 123.74L36.1902 125.79L30.4102 127.83L30.53 121.71L30.6602 115.59L24.6201 116.62L18.5801 117.66L19.8501 111.67L21.1101 105.68L15 105.45L8.88013 105.22L11.4702 99.68L14.0601 94.14L8.19019 92.39L2.33008 90.65L6.30005 86L10.27 81.36L5.14014 78.04L0 74.72L5.14014 71.41L10.28 68.09L6.30005 63.43L2.33008 58.78L8.2002 57.04L14.0701 55.3L11.48 49.75L8.89014 44.21L15.01 43.98L21.1301 43.75L19.8701 37.76L18.6101 31.77L24.6401 32.81L30.6802 33.84L30.55 27.72L30.4302 21.6L36.2002 23.65L41.98 25.71L42.8201 19.64L43.6602 13.57L49.0701 16.44L54.49 19.31L56.1401 13.41L57.8 7.51001L62.8 11.06L67.8 14.6L70.1702 8.95001L72.54 3.30002L77.0901 7.40002L81.6501 11.51L84.6401 6.16L87.6401 0.820007L91.7102 5.40002L95.79 9.99002L99.3501 4.99002L102.92 0L106.48 4.99002L110.04 9.98001L114.11 5.40002L118.18 0.820007L121.18 6.16L124.18 11.51L128.73 7.40002L133.28 3.29001L135.65 8.94L138.02 14.59L143.02 11.05L148.02 7.51001L149.68 13.41L151.34 19.31L156.76 16.44L162.18 13.57L163.03 19.64L163.87 25.71L169.65 23.66L175.42 21.62L175.3 27.74L175.17 33.86L181.21 32.83L187.25 31.79L185.98 37.78L184.72 43.77L190.84 44L196.95 44.23L194.36 49.77L191.77 55.31L197.64 57.06L203.51 58.8L199.53 63.45L195.56 68.09L200.7 71.41L205.83 74.72Z" fill="#BF96F8" stroke="black" stroke-width="6" mask="url(#path-1-inside-1_86_9634)"/>
<path fill-rule="evenodd" clip-rule="evenodd" d="M35.9001 74.8599C42.6301 75.5799 48.7301 76.0599 54.3501 76.3499C59.9701 76.6399 65.1001 76.7298 69.9001 76.6898C67.8201 73.4598 65.6802 69.9799 64.4702 65.8999C63.2602 61.8199 62.9901 57.1399 64.6401 51.5199C65.8701 51.5199 67.1001 51.5198 68.3401 51.5298C69.5701 51.5298 70.8 51.5298 72.03 51.5298C66.79 64.8298 73.73 72.5699 78.75 79.5999C83.77 86.6399 86.8601 92.9799 73.9001 103.51C72.6401 103.51 71.3801 103.53 70.1201 103.54C68.8601 103.54 67.5901 103.56 66.3301 103.56C71.8401 99.1099 74.45 95.3598 75.25 91.9398C76.06 88.5198 75.0601 85.4298 73.3601 82.2798C68.2601 82.4298 62.7602 82.4599 56.7102 82.3199C50.6602 82.1799 44.06 81.8699 36.76 81.3299C37.13 85.0199 37.2501 88.6599 36.8401 92.3599C36.4301 96.0599 35.51 99.7998 33.79 103.69C32.48 103.69 31.1601 103.69 29.8401 103.69C28.5201 103.69 27.1901 103.69 25.8701 103.69C25.8701 94.9298 25.8701 86.1599 25.8701 77.3999C25.8701 68.6399 25.8701 59.8699 25.8701 51.1099C27.1201 51.1299 28.3701 51.1499 29.6201 51.1699C30.8701 51.1899 32.1201 51.2099 33.3701 51.2299C33.3301 55.5699 33.6902 59.6499 34.1902 63.5499C34.6902 67.4599 35.3502 71.1899 35.9102 74.8399L35.9001 74.8599Z" fill="white"/>
<path fill-rule="evenodd" clip-rule="evenodd" d="M113.24 50.3696C115.41 50.3696 117.2 50.6096 118.68 51.0496C120.16 51.4896 121.3 52.1396 122.18 52.9396C123.07 53.7496 123.73 54.6696 124.29 55.6696C124.84 56.6796 125.29 57.7696 125.76 58.9196C126.22 60.0696 126.7 61.2796 127.27 62.5296C127.84 63.7796 128.51 65.0896 129.35 66.4496C130.17 67.8196 131.13 69.2096 132.18 70.6596C133.22 72.1196 134.35 73.6396 135.51 75.2696C136.67 76.8996 137.7 78.5096 138.51 80.1196C139.32 81.7296 139.88 83.3396 140.1 84.9696C140.33 86.5996 140.21 88.2096 139.74 89.7696C139.27 91.3296 138.44 92.8496 137.26 94.3096C136.08 95.7596 134.57 97.1196 132.8 98.3696C131.03 99.6196 129 100.73 126.8 101.68C124.6 102.64 122.29 103.37 120 103.86C117.71 104.35 115.43 104.6 113.28 104.6C111.11 104.6 109.29 104.35 107.79 103.89C106.29 103.43 105.1 102.76 104.18 101.91C103.25 101.07 102.55 100.1 101.97 99.0496C101.38 97.9996 100.91 96.8596 100.42 95.6696C99.9302 94.4696 99.4301 93.2396 98.8201 91.9596C98.2101 90.6796 97.5002 89.3596 96.6002 87.9896C95.7202 86.6196 94.6701 85.2396 93.5401 83.8096C92.4101 82.3796 91.1702 80.8796 89.9102 79.2896C88.6502 77.6996 87.5302 76.1196 86.6702 74.5396C85.8102 72.9596 85.2101 71.3796 85.0001 69.7696C84.7801 68.1696 84.9401 66.5696 85.4901 65.0196C86.0401 63.4696 86.9601 61.9596 88.2701 60.5096C89.5601 59.0696 91.2002 57.7096 93.1002 56.4796C95.0002 55.2496 97.1503 54.1496 99.4603 53.2096C101.77 52.2696 104.16 51.5496 106.5 51.0696C108.84 50.5896 111.15 50.3496 113.29 50.3496L113.24 50.3696ZM95.9901 78.8196C96.9901 79.9996 98.0001 81.1096 98.9801 82.1796C99.9601 83.2496 100.92 84.2496 101.84 85.2296C102.76 86.1996 103.61 87.1296 104.41 88.0096C105.22 88.8896 105.99 89.7196 106.75 90.4896C107.52 91.2696 108.29 91.9796 109.11 92.6196C109.93 93.2596 110.81 93.8196 111.79 94.2996C112.76 94.7696 113.83 95.1296 115.01 95.3596C116.19 95.5896 117.48 95.6796 118.88 95.6296C120.28 95.5796 121.67 95.3896 123.02 95.0596C124.36 94.7296 125.66 94.2596 126.86 93.6496C128.06 93.0496 129.12 92.3396 130.02 91.5496C130.92 90.7596 131.66 89.8796 132.19 88.9296C132.73 87.9796 133.05 86.9696 133.18 85.9196C133.3 84.8696 133.21 83.7696 132.92 82.6396C132.64 81.5096 132.13 80.3696 131.47 79.2096C130.8 78.0496 129.97 76.8696 129.03 75.6696C128.09 74.4696 127.14 73.3396 126.22 72.2696C125.3 71.1996 124.39 70.1896 123.53 69.2096C122.66 68.2396 121.86 67.3196 121.09 66.4496C120.32 65.5796 119.58 64.7696 118.85 64.0096C118.11 63.2496 117.36 62.5596 116.56 61.9396C115.75 61.3196 114.89 60.7796 113.92 60.3296C112.95 59.8796 111.89 59.5396 110.7 59.3296C109.52 59.1196 108.21 59.0396 106.78 59.0996C105.36 59.1596 103.93 59.3596 102.54 59.6896C101.15 60.0196 99.8101 60.4896 98.5501 61.0996C97.2901 61.6996 96.1603 62.3996 95.2003 63.1896C94.2403 63.9796 93.4402 64.8496 92.8502 65.7896C92.2602 66.7296 91.8801 67.7296 91.7301 68.7596C91.5801 69.7896 91.6402 70.8796 91.9302 71.9896C92.2102 73.0996 92.7302 74.2296 93.4302 75.3596C94.1302 76.4896 95.0001 77.6496 96.0001 78.8296L95.9901 78.8196Z" fill="white"/>
<path fill-rule="evenodd" clip-rule="evenodd" d="M182.85 51.1196C182.85 52.2496 182.85 53.3696 182.85 54.4996C182.85 55.6296 182.85 56.7496 182.85 57.8796C178.64 57.8096 174.58 57.7796 170.66 57.7696C166.73 57.7696 162.94 57.7796 159.27 57.8196C155.68 65.0596 157.39 71.4196 159.84 78.4896C162.28 85.5596 165.46 93.3396 164.78 103.4C163.53 103.38 162.28 103.37 161.03 103.36C159.78 103.35 158.53 103.33 157.29 103.32C158.74 92.6096 154.79 84.8896 151.58 78.0396C148.37 71.1896 145.91 65.1996 150.32 57.9596C146.84 58.0296 143.46 58.1196 140.18 58.2296C136.9 58.3296 133.71 58.4496 130.61 58.5696C131.36 57.4596 132.31 56.2996 133.49 55.0896C134.67 53.8796 136.08 52.6096 137.76 51.2696C145.12 51.2296 152.55 51.1896 160.06 51.1596C167.57 51.1296 175.16 51.1196 182.86 51.1196H182.85Z" fill="white"/>
</svg>
