<svg width="321" height="8" viewBox="0 0 321 8" fill="none" xmlns="http://www.w3.org/2000/svg">
<path d="M319.102 4.0693C316.526 3.88306 313.939 3.71104 311.347 3.55039C311.698 3.13669 310.817 2.72868 309.374 2.64338C296.581 1.88848 283.731 1.38238 270.875 1.0028C258.02 0.62748 245.159 0.385799 232.313 0.229418C206.613 -0.0776587 180.954 -0.0506474 155.342 0.158335C129.736 0.371583 104.182 0.77391 78.6753 1.31414C65.9246 1.58425 53.1844 1.88991 40.4547 2.2311C27.7197 2.57372 15.0162 2.94477 2.276 3.37269C0.843518 3.42102 -0.174439 3.80487 0.0249544 4.22568C0.234843 4.64649 1.55714 4.94646 2.97913 4.89812L10.7765 4.64222C10.9601 5.06303 12.2614 5.36869 13.6834 5.32319L4.75793 5.61179C3.33594 5.6587 2.34422 6.0397 2.54361 6.46051C2.65905 6.70361 3.14179 6.90691 3.79769 7.02633C3.56682 7.11447 3.45138 7.21399 3.48811 7.31777C3.5983 7.59925 4.80516 7.79544 6.19042 7.75706L13.7516 7.55092C13.8513 7.8324 15.0529 8.03143 16.4382 7.99589C65.5468 6.7292 114.918 6.14917 164.294 6.03828C188.982 5.98568 213.681 6.05534 238.363 6.24158C250.705 6.33541 263.041 6.45909 275.372 6.61405C287.698 6.77185 300.029 6.95667 312.302 7.19977C313.682 7.22678 314.852 7.02206 314.936 6.74058C315.025 6.45909 313.97 6.20604 312.58 6.17902L310.423 6.13779C310.596 6.06245 310.738 5.97715 310.817 5.8819C310.89 5.7966 310.901 5.71272 310.88 5.63169L311.315 5.6388C312.507 5.66155 313.551 5.51369 313.871 5.29334C315.125 5.37722 316.384 5.46251 317.633 5.55208C319.008 5.65159 320.461 5.40422 320.886 4.99621C321.311 4.5882 320.508 4.17023 319.092 4.06787L319.102 4.0693Z" fill="#FCDC41"/>
</svg>
