<svg width="156" height="860" fill="none" xmlns="http://www.w3.org/2000/svg"><mask id="a" maskUnits="userSpaceOnUse" x="-.906" y="-.781" width="158" height="862" fill="#000"><path fill="#fff" d="M-.906-.781h158v862h-158z"/><path d="M3.641 759.605v-56.154h75.087L3.641 668.597v-58.09l71 37.436 77.453-44.106v61.533l-56.8 24.527v13.554h56.8v56.154h-56.8v13.554l56.8 24.527v61.533l-77.669-43.891-70.784 37.436v-58.305l75.087-34.854H3.641Zm151.68-322.19c0 27.539-4.231 47.835-12.694 60.887-8.606 12.909-23.81 20.654-45.611 23.236v16.566h55.078v56.154H3.641v-56.154H58.72v-16.781c-22.232-2.725-37.507-10.686-45.826-23.882C4.573 484.246.414 464.237.414 437.415c0-11.905.717-22.16 2.151-30.766 1.291-8.75 3.73-16.638 7.316-23.667 3.442-7.171 8.103-12.837 13.984-16.996 5.88-4.303 13.268-7.602 22.16-9.897 8.893-2.295 19.579-3.443 32.058-3.443 15.06 0 27.539 1.578 37.435 4.734 9.897 3.012 17.786 8.104 23.667 15.275 5.881 7.028 10.04 15.706 12.478 26.033 2.439 10.184 3.658 23.093 3.658 38.727Zm-112.523 0c0 11.761 2.08 19.507 6.24 23.236 4.16 3.586 13.84 5.379 29.045 5.379 14.63 0 24.096-1.865 28.399-5.594 4.303-3.729 6.455-11.403 6.455-23.021 0-11.475-2.152-19.077-6.455-22.806-4.303-3.873-13.77-5.809-28.4-5.809-10.47 0-18.144.932-23.02 2.797-5.02 1.721-8.32 4.446-9.897 8.176-1.578 3.729-2.367 9.61-2.367 17.642Zm19.579-260.582c21.371 0 37.149 4.662 47.332 13.985 10.184 9.323 15.276 23.523 15.276 42.599v46.257h27.109v56.154H3.641V233.847c0-20.08 4.59-34.567 13.77-43.46 9.036-9.036 24.025-13.554 44.966-13.554ZM43.444 251.49v28.184h41.523v-28.615c0-6.167-1.577-10.685-4.733-13.554-3.299-3.012-8.75-4.518-16.351-4.518-8.032 0-13.411 1.291-16.136 3.872-2.869 2.582-4.303 7.459-4.303 14.631ZM3.64 105.506h72.72L3.641 47.631V.3h148.453v55.723H81.31l70.784 58.951v46.257H3.641v-55.724Z"/></mask><path d="M3.641 759.605H2.635v1.007H3.64v-1.007Zm0-56.154v-1.006H2.635v1.006H3.64Zm75.087 0v1.007l.424-1.92-.424.913ZM3.641 668.597H2.635v.643l.582.27.424-.913Zm0-58.09.47-.89-1.476-.779v1.669H3.64Zm71 37.436-.47.89.488.258.48-.273-.499-.875Zm77.453-44.106h1.006v-1.731l-1.504.857.498.874Zm0 61.533.399.924.607-.262v-.662h-1.006Zm-56.8 24.527-.398-.924-.608.262v.662h1.007Zm0 13.554h-1.006v1.007h1.007v-1.007Zm56.8 0h1.006v-1.006h-1.006v1.006Zm0 56.154v1.007h1.006v-1.007h-1.006Zm-56.8 0v-1.007h-1.006v1.007h1.007Zm0 13.554h-1.006v.662l.608.262.398-.924Zm56.8 24.527h1.006v-.662l-.607-.262-.399.924Zm0 61.533-.495.876 1.501.849v-1.725h-1.006Zm-77.669-43.891.495-.876-.479-.271-.487.258.471.889ZM3.641 852.764H2.635v1.671l1.477-.781-.47-.89Zm0-58.305-.424-.913-.582.271v.642H3.64Zm75.087-34.854.424.913-.424-1.92v1.007Zm-74.08 0v-56.154H2.635v56.154h2.013ZM3.64 704.458h75.087v-2.013H3.641v2.013Zm75.51-1.92L4.066 667.684l-.848 1.826 75.087 34.854.848-1.826ZM4.649 668.597v-58.09H2.635v58.09h2.013Zm-1.476-57.2 70.999 37.436.939-1.781-71-37.435-.938 1.78Zm71.966 37.421 77.454-44.106-.996-1.749-77.454 44.105.996 1.75Zm75.949-44.981v61.533h2.013v-61.533h-2.013Zm.608 60.609-56.8 24.527.799 1.848 56.799-24.527-.798-1.848Zm-57.407 25.451v13.554H96.3v-13.554h-2.013Zm1.007 14.561h56.799v-2.013h-56.8v2.013Zm55.792-1.007v56.154h2.013v-56.154h-2.013Zm1.007 55.147h-56.8v2.014h56.8v-2.014Zm-57.806 1.007v13.554H96.3v-13.554h-2.013Zm.608 14.478 56.799 24.527.798-1.848-56.8-24.527-.797 1.848Zm56.191 23.603v61.533h2.013v-61.533h-2.013Zm1.502 60.656-77.669-43.89-.99 1.753 77.669 43.89.99-1.753Zm-78.635-43.903L3.171 851.874l.94 1.78 70.785-37.436-.942-1.779ZM4.648 852.764v-58.305H2.635v58.305h2.013Zm-.583-57.392 75.087-34.854-.848-1.826-75.087 34.854.848 1.826Zm74.663-36.774H3.641v2.014h75.087v-2.014Zm63.899-260.296.838.558.007-.01-.845-.548Zm-45.611 23.236-.119-1-.888.106v.894h1.007Zm0 16.566h-1.007v1.007h1.007v-1.007Zm55.078 0h1.006v-1.006h-1.006v1.006Zm0 56.154v1.007h1.006v-1.007h-1.006Zm-148.453 0H2.635v1.007H3.64v-1.007Zm0-56.154v-1.006H2.635v1.006H3.64Zm55.078 0v1.007h1.007v-1.007h-1.007Zm0-16.781h1.007v-.891l-.884-.108-.123.999Zm-45.826-23.882.851-.536-.851.536ZM2.565 406.649l.993.165.002-.009.001-.009-.996-.147Zm7.316-23.667.896.458.006-.011.005-.011-.907-.436Zm13.984-16.996.582.821.006-.004.007-.005-.595-.812Zm22.16-9.897-.251-.975.252.975Zm69.493 1.291-.305.959.012.004.293-.963Zm23.667 15.275-.779.638.007.008.772-.646Zm12.478 26.033-.979.231v.004l.979-.235ZM49.038 460.651l-.672.749.007.007.007.006.658-.762Zm57.444-.215-.659-.761.659.761Zm0-45.827-.673.748.007.007.007.006.659-.761Zm-51.42-3.012.326.952.017-.005.016-.007-.36-.94Zm-9.897 8.176.927.392-.927-.392Zm109.149 17.642c0 27.475-4.228 47.533-12.531 60.339l1.689 1.096c8.622-13.299 12.856-33.832 12.856-61.435h-2.014Zm-12.524 60.329c-8.383 12.574-23.258 20.232-44.893 22.794l.237 2c21.969-2.602 37.502-10.435 46.331-23.678l-1.675-1.116Zm-45.78 23.794v16.566h2.012v-16.566H96.01Zm1.006 17.573h55.078v-2.013H97.016v2.013Zm54.071-1.007v56.154h2.013v-56.154h-2.013Zm1.007 55.148H3.641v2.013h148.453v-2.013ZM4.648 594.258v-56.154H2.635v56.154h2.013ZM3.64 539.111h55.08v-2.013H3.641v2.013Zm56.085-1.007v-16.781h-2.013v16.781h2.013Zm-.884-17.78c-22.068-2.705-37.001-10.576-45.098-23.419l-1.703 1.073c8.541 13.549 24.16 21.599 46.556 24.344l.245-1.998Zm-45.098-23.419C5.575 483.948 1.42 464.167 1.42 437.415H-.593c0 26.891 4.164 47.129 12.634 60.563l1.703-1.073ZM1.42 437.415c0-11.868.715-22.065 2.137-30.601l-1.985-.331c-1.446 8.676-2.166 18.99-2.166 30.932H1.42Zm2.14-30.619c1.277-8.654 3.686-16.436 7.216-23.356l-1.793-.915c-3.641 7.136-6.11 15.132-7.414 23.977l1.991.294Zm7.227-23.378c3.376-7.034 7.932-12.56 13.659-16.611l-1.163-1.643c-6.035 4.268-10.802 10.073-14.311 17.383l1.815.871Zm13.672-16.62c5.754-4.211 13.017-7.464 21.817-9.735l-.503-1.949c-8.986 2.319-16.497 5.664-22.503 10.059l1.189 1.625Zm21.817-9.735c8.787-2.267 19.384-3.41 31.806-3.41v-2.013c-12.536 0-23.31 1.152-32.31 3.474l.504 1.949Zm31.806-3.41c14.999 0 27.365 1.572 37.13 4.686l.611-1.918c-10.029-3.198-22.62-4.781-37.741-4.781v2.013Zm37.142 4.69c9.73 2.961 17.441 7.95 23.181 14.95l1.557-1.276c-6.021-7.343-14.087-12.537-24.151-15.6l-.587 1.926Zm23.188 14.958c5.765 6.891 9.863 15.42 12.271 25.618l1.959-.462c-2.469-10.456-6.69-19.282-12.686-26.448l-1.544 1.292Zm12.271 25.622c2.414 10.079 3.63 22.902 3.63 38.492h2.014c0-15.678-1.222-28.673-3.686-38.961l-1.958.469ZM41.792 437.415c0 5.932.523 10.904 1.594 14.891 1.07 3.983 2.704 7.054 4.98 9.094l1.343-1.499c-1.884-1.689-3.369-4.355-4.379-8.117-1.009-3.758-1.525-8.54-1.525-14.369h-2.013Zm6.588 23.998c2.284 1.969 5.959 3.355 10.855 4.262 4.925.912 11.213 1.361 18.848 1.361v-2.013c-7.57 0-13.724-.447-18.481-1.328-4.785-.886-8.032-2.19-9.907-3.806l-1.315 1.524Zm29.703 5.623c7.35 0 13.445-.468 18.267-1.417 4.8-.946 8.445-2.389 10.791-4.423l-1.318-1.521c-1.957 1.696-5.196 3.049-9.862 3.969-4.646.915-10.599 1.379-17.878 1.379v2.013Zm29.058-5.84c2.349-2.035 4.043-5.087 5.151-9.041 1.109-3.955 1.651-8.877 1.651-14.74h-2.013c0 5.755-.534 10.479-1.576 14.197-1.043 3.72-2.577 6.37-4.531 8.063l1.318 1.521Zm6.802-23.781c0-11.505-2.137-19.524-6.802-23.567l-1.318 1.522c3.941 3.416 6.107 10.601 6.107 22.045h2.013Zm-6.787-23.554c-2.347-2.112-5.995-3.612-10.8-4.595-4.823-.987-10.921-1.472-18.273-1.472v2.013c7.278 0 13.228.482 17.87 1.432 4.662.953 7.899 2.357 9.856 4.118l1.347-1.496Zm-29.073-6.067c-10.496 0-18.324.929-23.38 2.863l.718 1.88c4.697-1.795 12.216-2.73 22.662-2.73v-2.013Zm-23.348 2.851c-5.202 1.783-8.776 4.667-10.497 8.736l1.854.784c1.434-3.39 4.458-5.957 9.296-7.616l-.653-1.904Zm-10.497 8.736c-1.66 3.923-2.446 9.973-2.446 18.034h2.013c0-8.004.791-13.715 2.287-17.25l-1.854-.784Zm65.471-228.563-.679.742.679-.742Zm15.276 88.856h-1.007v1.007h1.007v-1.007Zm27.109 0h1.006v-1.007h-1.006v1.007Zm0 56.154v1.006h1.006v-1.006h-1.006Zm-148.453 0H2.635v1.006H3.64v-1.006Zm13.77-145.441.7.723.006-.005.005-.006-.711-.712Zm26.033 89.287h-1.007v1.007h1.007v-1.007Zm41.523 0v1.007h1.007v-1.007h-1.007Zm-4.733-42.169-.679.743.002.002.677-.745Zm-32.487-.646.673.749.01-.009.009-.009-.692-.731Zm14.63-59.019c21.252 0 36.734 4.639 46.653 13.72l1.359-1.485c-10.448-9.565-26.522-14.249-48.012-14.249v2.014Zm46.653 13.72c9.905 9.068 14.948 22.952 14.948 41.857h2.014c0-19.247-5.141-33.764-15.603-43.342l-1.359 1.485Zm14.948 41.857v46.257h2.014v-46.257h-2.014Zm1.007 47.264h27.109v-2.014h-27.109v2.014Zm26.102-1.007v56.154h2.013v-56.154h-2.013Zm1.007 55.147H3.641v2.013h148.453v-2.013ZM4.648 335.828V233.847H2.635v101.981h2.013Zm0-101.981c0-19.959 4.566-34.118 13.463-42.737l-1.4-1.446c-9.463 9.167-14.076 23.982-14.076 44.183h2.013Zm13.474-42.748c8.758-8.757 23.418-13.259 44.255-13.259v-2.014c-21.046 0-36.363 4.534-45.678 13.85l1.423 1.423Zm24.315 60.391v28.184h2.013V251.49h-2.013Zm1.007 29.191h41.523v-2.014H43.444v2.014Zm42.53-1.007v-28.615h-2.013v28.615h2.013Zm0-28.615c0-6.322-1.618-11.167-5.063-14.299l-1.354 1.49c2.866 2.605 4.404 6.797 4.404 12.809h2.013Zm-5.061-14.297c-3.577-3.267-9.34-4.782-17.03-4.782v2.013c7.514 0 12.652 1.497 15.672 4.255l1.358-1.486Zm-17.03-4.782c-4.063 0-7.501.326-10.293.996-2.786.669-4.998 1.696-6.536 3.153l1.385 1.461c1.188-1.125 3.027-2.034 5.62-2.656 2.587-.621 5.855-.941 9.824-.941v-2.013Zm-16.81 4.131c-3.204 2.884-4.636 8.145-4.636 15.379h2.013c0-7.111 1.437-11.602 3.97-13.882l-1.347-1.497ZM3.641 105.506V104.5H2.635v1.006H3.64Zm72.72 0v1.007h2.882l-2.255-1.794-.627.787ZM3.641 47.631H2.635v.486l.38.302.626-.788ZM3.641.3V-.708H2.635V.299H3.64Zm148.453 0h1.006V-.708h-1.006V.299Zm0 55.723v1.007h1.006v-1.007h-1.006Zm-70.784 0v-1.007h-2.782l2.138 1.78.644-.773Zm70.784 58.951h1.006v-.472l-.362-.302-.644.774Zm0 46.257v1.006h1.006v-1.006h-1.006Zm-148.453 0H2.635v1.006H3.64v-1.006Zm0-54.717h72.72V104.5H3.641v2.013Zm73.347-1.794L4.268 46.844l-1.254 1.575 72.72 57.875 1.254-1.575ZM4.648 47.631V.3H2.635v47.33h2.013ZM3.64 1.305h148.453V-.708H3.641v2.013ZM151.087.3v55.723h2.013V.299h-2.013Zm1.007 54.716H81.31v2.014h70.784v-2.014Zm-71.428 1.78 70.784 58.951 1.288-1.547-70.784-58.95-1.288 1.546Zm70.421 58.178v46.257h2.013v-46.257h-2.013Zm1.007 45.25H3.641v2.013h148.453v-2.013ZM4.648 161.23v-55.724H2.635v55.724h2.013Z" fill="#fff" mask="url(#a)"/></svg>