<svg width="316" height="58" fill="none" xmlns="http://www.w3.org/2000/svg"><mask id="a" maskUnits="userSpaceOnUse" x="-1.818" y="-1" width="318" height="60" fill="#000"><path fill="#fff" d="M-1.818-1h318v60h-318z"/><path d="M36.72 1.547h20.598V29.09L70.102 1.547H91.41L77.678 27.59 93.856 56h-22.57l-8.997-20.834h-4.971V56H36.72V35.166h-4.97L22.752 56H.182L16.28 27.51 2.549 1.548h21.387L36.72 29.09V1.547ZM154.9 57.184c-10.101 0-17.545-1.552-22.333-4.656-4.735-3.157-7.576-8.734-8.523-16.73h-6.077V56H97.37V1.547h20.597V21.75h6.156c.999-8.155 3.919-13.758 8.76-16.81C137.723 1.89 145.062.364 154.9.364c4.367 0 8.129.264 11.286.79 3.209.473 6.103 1.368 8.68 2.683 2.631 1.262 4.709 2.972 6.235 5.13 1.578 2.157 2.788 4.866 3.63 8.128.842 3.262 1.263 7.181 1.263 11.758 0 5.525-.579 10.102-1.736 13.732-1.105 3.63-2.973 6.524-5.604 8.681-2.577 2.157-5.76 3.683-9.548 4.577-3.736.895-8.471 1.342-14.206 1.342Zm0-41.274c-4.314 0-7.155.763-8.523 2.289-1.315 1.525-1.973 5.077-1.973 10.653 0 5.367.684 8.84 2.052 10.418 1.368 1.578 4.183 2.367 8.444 2.367 4.209 0 6.998-.79 8.366-2.367 1.42-1.579 2.13-5.051 2.13-10.418 0-3.84-.342-6.655-1.025-8.444-.632-1.841-1.631-3.051-2.999-3.63-1.368-.578-3.525-.868-6.472-.868Zm95.583 7.182c0 7.839-1.71 13.626-5.13 17.361-3.42 3.736-8.628 5.603-15.626 5.603H212.76V56h-20.597V1.547h37.407c7.365 0 12.679 1.684 15.941 5.05 3.314 3.315 4.972 8.813 4.972 16.495Zm-27.385-6.945H212.76v15.23h10.496c2.262 0 3.92-.578 4.972-1.735 1.105-1.21 1.657-3.21 1.657-5.998 0-2.946-.473-4.92-1.42-5.919-.947-1.052-2.736-1.578-5.367-1.578Zm53.547-14.6v26.674l21.229-26.674h17.362V56h-20.44V30.036L273.173 56h-16.967V1.547h20.439Z"/></mask><path d="M36.72 1.547V.665h-.882v.882h.882Zm20.598 0h.882V.665h-.882v.882Zm0 27.542h-.883l1.683.372-.8-.372ZM70.102 1.547V.665h-.563l-.237.51.8.372Zm21.308 0 .78.412.683-1.294H91.41v.882ZM77.678 27.59l-.78-.412-.226.428.24.42.766-.436ZM93.856 56v.883h1.519l-.752-1.32-.767.437Zm-22.57 0-.81.35.23.533h.58V56Zm-8.997-20.834.81-.35-.23-.533h-.58v.883Zm-4.971 0v-.883h-.883v.883h.883Zm0 20.834v.883h.882V56h-.882ZM36.72 56h-.882v.883h.882V56Zm0-20.834h.883v-.883h-.883v.883Zm-4.971 0v-.883h-.58l-.23.533.81.35ZM22.752 56v.883h.58l.23-.533-.81-.35ZM.182 56l-.769-.434-.744 1.317H.182V56ZM16.28 27.51l.768.435.238-.42-.226-.427-.78.413ZM2.549 1.548V.665H1.084l.685 1.295.78-.413Zm21.387 0 .8-.371L24.5.665h-.563v.882ZM36.72 29.09l-.8.372 1.683-.372h-.883Zm0-26.66h20.598V.666H36.72V2.43Zm19.715-.882V29.09H58.2V1.547h-1.765Zm1.683 27.914L70.903 1.919l-1.601-.743-12.785 27.542 1.601.743ZM70.102 2.43H91.41V.665H70.102V2.43ZM90.63 1.136 76.897 27.178l1.562.823L92.191 1.96l-1.562-.823Zm-13.718 26.89 16.178 28.41 1.534-.873-16.178-28.41-1.534.874Zm16.945 27.091h-22.57v1.766h22.57v-1.766Zm-21.76.533L63.1 34.816l-1.62.7 8.996 20.834 1.62-.7ZM62.29 34.283h-4.971v1.765h4.971v-1.765Zm-5.854.883V56H58.2V35.166h-1.765Zm.883 19.951H36.72v1.766h20.598v-1.766ZM37.603 56V35.166h-1.765V56h1.765Zm-.883-21.717h-4.97v1.765h4.971v-1.765Zm-5.782.533L21.942 55.65l1.62.7 8.997-20.834-1.62-.7Zm-8.186 20.301H.182v1.766h22.57v-1.766ZM.95 56.434l16.1-28.489-1.538-.868L-.587 55.566l1.537.868Zm16.111-29.336L3.329 1.135l-1.56.825L15.5 27.924l1.56-.826ZM2.549 2.43h21.387V.665H2.549V2.43Zm20.586-.511L35.92 29.46l1.6-.743L24.737 1.176l-1.6.743Zm14.468 27.17V1.547h-1.765V29.09h1.765Zm94.964 23.439-.49.734.01.006.48-.74Zm-8.523-16.73.876-.105-.092-.778h-.784v.882Zm-6.077 0v-.883h-.882v.882h.882Zm0 20.202v.883h.883V56h-.883ZM97.37 56h-.883v.883h.883V56Zm0-54.453V.665h-.883v.882h.883Zm20.597 0h.883V.665h-.883v.882Zm0 20.203h-.882v.883h.882v-.883Zm6.156 0v.883h.781l.095-.776-.876-.107Zm8.76-16.81.47.747-.47-.746Zm33.303-3.787-.146.87.009.002h.008l.129-.872Zm8.68 2.683-.401.786.01.005.01.005.381-.796Zm6.235 5.13-.721.51.004.005.005.006.712-.522Zm3.63 8.128.855-.22-.855.22Zm-.473 25.49-.841-.268-.004.011.845.257Zm-5.604 8.681-.559-.683-.007.006.566.677Zm-9.548 4.577-.203-.859h-.003l.206.86ZM146.377 18.2l-.657-.59-.006.007-.005.006.668.577Zm.079 21.07.667-.578-.667.579Zm16.81 0-.656-.59-.006.006-.005.006.667.579Zm1.104-18.86-.834.286.005.014.005.015.824-.316Zm-2.998-3.63-.344.812.344-.813ZM154.9 56.3c-10.045 0-17.281-1.55-21.853-4.514l-.96 1.481c5.003 3.244 12.656 4.798 22.813 4.798V56.3Zm-21.843-4.508c-4.442-2.961-7.207-8.249-8.137-16.1l-1.753.208c.965 8.143 3.882 14.009 8.91 17.361l.98-1.469Zm-9.013-16.878h-6.077v1.765h6.077v-1.765Zm-6.959.882V56h1.765V35.797h-1.765Zm.882 19.32H97.37v1.766h20.597v-1.766ZM98.252 56V1.547h-1.765V56h1.766ZM97.37 2.43h20.597V.665H97.37V2.43Zm19.715-.883V21.75h1.765V1.547h-1.765Zm.882 21.086h6.156v-1.766h-6.156v1.766Zm7.032-.776c.982-8.01 3.823-13.313 8.354-16.17l-.941-1.493c-5.15 3.246-8.148 9.15-9.165 17.449l1.752.214Zm8.354-16.17c4.631-2.92 11.77-4.44 21.547-4.44V-.52c-9.899 0-17.438 1.53-22.488 4.713l.941 1.493Zm21.547-4.44c4.335 0 8.045.26 11.14.776l.291-1.741c-3.219-.536-7.031-.801-11.431-.801v1.765Zm11.157.779c3.126.461 5.925 1.33 8.408 2.596l.803-1.572c-2.673-1.364-5.661-2.285-8.954-2.77l-.257 1.746Zm8.428 2.606c2.509 1.204 4.465 2.821 5.895 4.843l1.442-1.02C180.2 6.165 178 4.362 175.248 3.04l-.763 1.592Zm5.904 4.855c1.497 2.046 2.667 4.647 3.487 7.827l1.71-.44c-.863-3.344-2.114-6.162-3.773-8.43l-1.424 1.043Zm3.487 7.827c.818 3.17 1.235 7.011 1.235 11.538h1.765c0-4.626-.425-8.624-1.29-11.979l-1.71.441Zm1.235 11.538c0 5.47-.574 9.95-1.694 13.464l1.682.536c1.194-3.746 1.777-8.421 1.777-14h-1.765Zm-1.698 13.475c-1.06 3.483-2.838 6.221-5.318 8.255l1.119 1.365c2.781-2.28 4.738-5.329 5.888-9.106l-1.689-.514Zm-5.325 8.261c-2.457 2.056-5.51 3.527-9.185 4.395l.405 1.718c3.901-.92 7.214-2.5 9.913-4.76l-1.133-1.353Zm-9.188 4.396c-3.644.872-8.304 1.317-14 1.317v1.765c5.774 0 10.584-.45 14.411-1.365l-.411-1.717Zm-14-39.956c-2.201 0-4.074.193-5.595.602-1.517.407-2.747 1.045-3.585 1.98l1.315 1.178c.53-.591 1.404-1.098 2.728-1.453 1.32-.355 3.025-.542 5.137-.542v-1.765Zm-9.191 2.594c-.812.942-1.341 2.4-1.679 4.224-.343 1.849-.508 4.19-.508 7.006h1.765c0-2.76.163-4.983.479-6.685.319-1.727.777-2.808 1.28-3.392l-1.337-1.153Zm-2.187 11.23c0 2.715.172 4.987.529 6.8.354 1.795.906 3.236 1.738 4.196l1.334-1.157c-.535-.618-1.009-1.703-1.34-3.38-.326-1.66-.496-3.806-.496-6.459h-1.765Zm2.267 10.996c.834.962 2.056 1.624 3.566 2.047 1.511.424 3.367.625 5.545.625v-1.766c-2.083 0-3.765-.193-5.068-.559-1.305-.365-2.175-.888-2.709-1.504l-1.334 1.157Zm9.111 2.672c4.236 0 7.39-.777 9.033-2.672l-1.334-1.157c-1.093 1.262-3.516 2.063-7.699 2.063v1.766Zm9.022-2.66c.864-.96 1.439-2.403 1.806-4.202.372-1.816.551-4.09.551-6.806h-1.765c0 2.651-.176 4.796-.515 6.453-.342 1.673-.833 2.756-1.389 3.374l1.312 1.181Zm2.357-11.008c0-3.862-.34-6.812-1.084-8.759l-1.649.63c.624 1.631.968 4.31.968 8.13h1.765Zm-1.074-8.73c-.686-2-1.824-3.452-3.489-4.157l-.688 1.626c1.07.453 1.931 1.422 2.508 3.104l1.669-.573Zm-3.489-4.157c-1.539-.65-3.844-.938-6.816-.938v1.766c2.922 0 4.93.291 6.128.798l.688-1.626Zm83.637 24.488-.651-.596.651.596Zm-32.593 5.603v-.882h-.882v.882h.882Zm0 9.944v.883h.883V56h-.883Zm-20.597 0h-.883v.883h.883V56Zm0-54.453V.665h-.883v.882h.883Zm53.348 5.05-.634.615.01.01.624-.624Zm-32.751 9.55v-.883h-.882v.883h.882Zm0 15.23h-.882v.884h.882v-.883Zm15.468-1.735-.652-.595-.001.001.653.594Zm.237-11.917-.656.59.007.01.008.007.641-.607Zm21.135 5.367c0 7.735-1.691 13.262-4.898 16.765l1.302 1.192c3.632-3.967 5.361-10.014 5.361-17.957H249.6Zm-4.898 16.765c-3.196 3.492-8.127 5.317-14.975 5.317v1.765c7.148 0 12.634-1.91 16.277-5.89l-1.302-1.192Zm-14.975 5.317H212.76v1.765h16.967v-1.765Zm-17.849.882V56h1.765v-9.944h-1.765Zm.882 9.061h-20.597v1.766h20.597v-1.766ZM193.046 56V1.547h-1.766V56h1.766Zm-.883-53.57h37.407V.665h-37.407V2.43Zm37.407 0c7.259 0 12.285 1.663 15.307 4.782l1.268-1.228c-3.502-3.615-9.104-5.32-16.575-5.32V2.43Zm15.317 4.792c3.07 3.07 4.713 8.28 4.713 15.87h1.765c0-7.773-1.671-13.56-5.23-17.118l-1.248 1.248Zm-21.789 8.042H212.76v1.765h10.338v-1.765Zm-11.22.883v15.23h1.765v-15.23h-1.765Zm.882 16.114h10.496v-1.766H212.76v1.765Zm10.496 0c2.398 0 4.342-.615 5.625-2.026l-1.306-1.187c-.822.904-2.192 1.447-4.319 1.447v1.765Zm5.624-2.024c1.327-1.454 1.888-3.727 1.888-6.593h-1.765c0 2.711-.545 4.437-1.427 5.403l1.304 1.19Zm1.888-6.593c0-1.514-.121-2.819-.38-3.895-.257-1.07-.664-1.978-1.283-2.63l-1.281 1.213c.328.347.631.926.848 1.829.215.896.331 2.051.331 3.483h1.765Zm-1.647-6.51c-1.212-1.345-3.338-1.87-6.023-1.87v1.765c2.577 0 4.028.528 4.711 1.287l1.312-1.181Zm47.524-15.587h.883V.665h-.883v.882Zm0 26.674h-.882v2.527l1.573-1.977-.691-.55Zm21.229-26.674V.665h-.425l-.265.333.69.55Zm17.362 0h.883V.665h-.883v.882Zm0 54.453v.883h.883V56h-.883Zm-20.44 0h-.882v.883h.882V56Zm0-25.964h.883v-2.439l-1.561 1.874.678.565ZM273.173 56v.883h.414l.264-.318-.678-.565Zm-16.967 0h-.883v.883h.883V56Zm0-54.453V.665h-.883v.882h.883Zm19.557 0v26.674h1.765V1.547h-1.765Zm1.573 27.224 21.229-26.674-1.381-1.1-21.229 26.675 1.381 1.099ZM297.874 2.43h17.362V.665h-17.362V2.43Zm16.479-.883V56h1.766V1.547h-1.766Zm.883 53.57h-20.44v1.766h20.44v-1.766ZM295.679 56V30.036h-1.765V56h1.765Zm-1.561-26.529-21.623 25.964 1.356 1.13L295.475 30.6l-1.357-1.13Zm-20.945 25.646h-16.967v1.766h16.967v-1.766ZM257.089 56V1.547h-1.766V56h1.766Zm-.883-53.57h20.439V.665h-20.439V2.43Z" fill="#fff" mask="url(#a)"/></svg>