<svg width="88" height="88" viewBox="0 0 88 88" fill="none" xmlns="http://www.w3.org/2000/svg">
<g clip-path="url(#clip0_1_46099)">
<mask id="mask0_1_46099" style="mask-type:alpha" maskUnits="userSpaceOnUse" x="3" y="3" width="82" height="82">
<path d="M40.9179 3.37329C31.3656 4.16313 22.7664 8.25659 16.2485 14.5213C22.4593 21.4983 26.4889 30.465 27.245 40.3312H40.9179V3.37329ZM47.6687 3.37329V40.3312H61.3417C62.0978 30.465 66.1306 21.5015 72.3447 14.5279C65.8235 8.25981 57.2211 4.16651 47.6687 3.37329ZM11.7458 19.6635C7.39831 25.5435 4.59795 32.6218 3.96 40.3312H20.4942C19.782 32.4801 16.5895 25.3443 11.7458 19.6635ZM76.8408 19.6635C71.9972 25.3443 68.8047 32.4767 68.0925 40.3312H84.6267C83.9887 32.6218 81.1917 25.5435 76.8408 19.6635ZM3.96 47.082C4.59795 54.7914 7.39494 61.8698 11.7458 67.7497C16.5895 62.0689 19.782 54.9332 20.4942 47.082H3.96ZM27.245 47.082C26.4889 56.9483 22.4561 65.9118 16.242 72.8853C22.7598 79.1534 31.359 83.2501 40.9113 84.04V47.082H27.245ZM47.6687 47.082V84.04C57.2211 83.2501 65.8202 79.1567 72.3381 72.8919C66.1274 65.915 62.0978 56.9483 61.3417 47.082H47.6687ZM68.0925 47.082C68.8047 54.9332 71.9972 62.0689 76.8408 67.7497C81.1917 61.8698 83.9887 54.7948 84.6267 47.082H68.0925Z" fill="black"/>
</mask>
<g mask="url(#mask0_1_46099)">
<rect x="-33.9832" y="-34.5699" width="152.968" height="152.968" fill="#06DCFF"/>
</g>
</g>
<defs>
<clipPath id="clip0_1_46099">
<rect width="88" height="88" fill="white"/>
</clipPath>
</defs>
</svg>
