<svg width="152" height="15" viewBox="0 0 152 15" fill="none" xmlns="http://www.w3.org/2000/svg">
<path d="M0.879452 11V0.551963H6.30949C7.4573 0.551963 8.33042 0.816843 8.92885 1.3466C9.52729 1.86655 9.8265 2.60723 9.8265 3.56865C9.8265 4.51045 9.52238 5.26094 8.91414 5.82013C8.3059 6.36951 7.43768 6.6442 6.30949 6.6442H2.30686V11H0.879452ZM6.35363 1.87636H2.30686V5.3198H6.35363C7.00112 5.3198 7.49654 5.16283 7.8399 4.8489C8.18327 4.53497 8.35495 4.11803 8.35495 3.59808C8.35495 3.0487 8.18327 2.62686 7.8399 2.33254C7.50635 2.02842 7.01093 1.87636 6.35363 1.87636ZM14.7292 3.55393C15.8083 3.55393 16.6962 3.92182 17.3927 4.6576C18.0892 5.39338 18.4375 6.34989 18.4375 7.52713H12.3894C12.4287 8.21386 12.6739 8.78776 13.1252 9.24885C13.5863 9.70994 14.1651 9.94048 14.8616 9.94048C15.3031 9.94048 15.6955 9.8669 16.0389 9.71975C16.3822 9.57259 16.6128 9.43525 16.7305 9.30771C16.858 9.18018 16.9561 9.05264 17.0248 8.92511H18.3492C18.3198 9.11151 18.2315 9.32243 18.0843 9.55788C17.947 9.78351 17.7459 10.0239 17.481 10.2789C17.2259 10.534 16.8679 10.7498 16.4068 10.9264C15.9457 11.0932 15.4306 11.1766 14.8616 11.1766C13.7531 11.1766 12.8358 10.8136 12.1098 10.0876C11.3937 9.35186 11.0356 8.4444 11.0356 7.36526C11.0356 6.2665 11.3839 5.35904 12.0804 4.64288C12.7769 3.91692 13.6599 3.55393 14.7292 3.55393ZM14.7292 4.70175C14.1602 4.70175 13.6746 4.85381 13.2724 5.15793C12.8799 5.46205 12.6151 5.87899 12.4777 6.40875H16.9512C16.7943 5.86918 16.5196 5.45224 16.1272 5.15793C15.7446 4.85381 15.2786 4.70175 14.7292 4.70175ZM20.561 11V3.73052H21.856V6.87965L25.682 3.73052H27.5951L23.2981 7.21811L27.7864 11H25.8881L21.856 7.67429V11H20.561ZM29.888 7.76258L30.2854 3.73052H35.7007V11H34.3616V4.9372H31.3596L31.08 7.85087C30.9623 9.0085 30.7317 9.84238 30.3884 10.3525C30.045 10.8528 29.4956 11.103 28.7402 11.103H28.3429V9.89633H28.5195C29.01 9.89633 29.3387 9.75408 29.5054 9.46958C29.6722 9.18508 29.7997 8.61608 29.888 7.76258ZM44.0595 9.74918C43.9712 9.92577 43.8436 10.1073 43.6769 10.2937C43.5199 10.4801 43.2403 10.6763 42.8381 10.8823C42.4358 11.0785 41.9846 11.1766 41.4842 11.1766C40.4934 11.1766 39.6546 10.8332 38.9679 10.1465C38.2812 9.44996 37.9378 8.52288 37.9378 7.36526C37.9378 6.21745 38.2812 5.29527 38.9679 4.59874C39.6546 3.9022 40.4934 3.55393 41.4842 3.55393C42.1808 3.55393 42.7498 3.7109 43.1912 4.02483C43.6327 4.33876 43.9221 4.64288 44.0595 4.9372V3.73052H45.3986V11H44.0595V9.74918ZM43.4267 9.2047C43.8682 8.71419 44.0889 8.10104 44.0889 7.36526C44.0889 6.62948 43.8682 6.01634 43.4267 5.52582C42.995 5.0353 42.4309 4.79004 41.7344 4.79004C41.0182 4.79004 40.4345 5.0353 39.9833 5.52582C39.5418 6.01634 39.3211 6.62948 39.3211 7.36526C39.3211 8.10104 39.5418 8.71419 39.9833 9.2047C40.4345 9.69522 41.0182 9.94048 41.7344 9.94048C42.4309 9.94048 42.995 9.69522 43.4267 9.2047ZM48.1677 11V3.73052H49.9483L52.8473 9.45487L55.7462 3.73052H57.468V11H56.1583V5.29037L53.2446 11.0441H52.3175L49.4333 5.34923V11H48.1677ZM65.831 9.74918C65.7427 9.92577 65.6152 10.1073 65.4484 10.2937C65.2914 10.4801 65.0118 10.6763 64.6096 10.8823C64.2074 11.0785 63.7561 11.1766 63.2558 11.1766C62.2649 11.1766 61.4261 10.8332 60.7394 10.1465C60.0527 9.44996 59.7093 8.52288 59.7093 7.36526C59.7093 6.21745 60.0527 5.29527 60.7394 4.59874C61.4261 3.9022 62.2649 3.55393 63.2558 3.55393C63.9523 3.55393 64.5213 3.7109 64.9628 4.02483C65.4042 4.33876 65.6936 4.64288 65.831 4.9372V3.73052H67.1701V11H65.831V9.74918ZM65.1982 9.2047C65.6397 8.71419 65.8604 8.10104 65.8604 7.36526C65.8604 6.62948 65.6397 6.01634 65.1982 5.52582C64.7666 5.0353 64.2025 4.79004 63.5059 4.79004C62.7898 4.79004 62.2061 5.0353 61.7548 5.52582C61.3133 6.01634 61.0926 6.62948 61.0926 7.36526C61.0926 8.10104 61.3133 8.71419 61.7548 9.2047C62.2061 9.69522 62.7898 9.94048 63.5059 9.94048C64.2025 9.94048 64.7666 9.69522 65.1982 9.2047ZM69.851 11V8.91039H71.558V11H69.851ZM79.4549 9.82276V11H78.1305V0.169359H79.4549V4.96663C79.5825 4.67232 79.8768 4.36329 80.3379 4.03955C80.8088 3.71581 81.3974 3.55393 82.1037 3.55393C83.1142 3.55393 83.9628 3.9022 84.6495 4.59874C85.3362 5.28546 85.6796 6.20764 85.6796 7.36526C85.6796 8.52288 85.3362 9.44996 84.6495 10.1465C83.9628 10.8332 83.1142 11.1766 82.1037 11.1766C81.3974 11.1766 80.8137 11.0245 80.3526 10.7204C79.9013 10.4065 79.6021 10.1073 79.4549 9.82276ZM79.4255 7.36526C79.4255 8.10104 79.6511 8.71419 80.1024 9.2047C80.5537 9.69522 81.1423 9.94048 81.8683 9.94048C82.5943 9.94048 83.1829 9.69522 83.6342 9.2047C84.0854 8.71419 84.3111 8.10104 84.3111 7.36526C84.3111 6.61967 84.0854 6.00653 83.6342 5.52582C83.1829 5.0353 82.5943 4.79004 81.8683 4.79004C81.1423 4.79004 80.5537 5.0353 80.1024 5.52582C79.6511 6.00653 79.4255 6.61967 79.4255 7.36526ZM91.0661 3.55393C92.1452 3.55393 93.0331 3.92182 93.7296 4.6576C94.4261 5.39338 94.7744 6.34989 94.7744 7.52713H88.7263C88.7655 8.21386 89.0108 8.78776 89.4621 9.24885C89.9232 9.70994 90.502 9.94048 91.1985 9.94048C91.64 9.94048 92.0324 9.8669 92.3758 9.71975C92.7191 9.57259 92.9497 9.43525 93.0674 9.30771C93.1949 9.18018 93.293 9.05264 93.3617 8.92511H94.6861C94.6567 9.11151 94.5684 9.32243 94.4212 9.55788C94.2839 9.78351 94.0828 10.0239 93.8179 10.2789C93.5628 10.534 93.2047 10.7498 92.7437 10.9264C92.2826 11.0932 91.7675 11.1766 91.1985 11.1766C90.0899 11.1766 89.1727 10.8136 88.4467 10.0876C87.7306 9.35186 87.3725 8.4444 87.3725 7.36526C87.3725 6.2665 87.7207 5.35904 88.4173 4.64288C89.1138 3.91692 89.9967 3.55393 91.0661 3.55393ZM91.0661 4.70175C90.4971 4.70175 90.0115 4.85381 89.6092 5.15793C89.2168 5.46205 88.9519 5.87899 88.8146 6.40875H93.2881C93.1312 5.86918 92.8565 5.45224 92.4641 5.15793C92.0815 4.85381 91.6155 4.70175 91.0661 4.70175ZM98.134 8.57194V4.9372H95.9855V3.73052H98.134V0.551963H99.4731V3.73052H102.402V4.9372H99.4731V8.26291C99.4731 8.80248 99.581 9.18999 99.7969 9.42544C100.023 9.65108 100.415 9.76389 100.974 9.76389H102.402V11H100.68C98.9826 11 98.134 10.1906 98.134 8.57194ZM109.697 5.99672C109.648 5.89861 109.584 5.80051 109.505 5.7024C109.427 5.59449 109.304 5.46696 109.137 5.3198C108.98 5.16283 108.765 5.0353 108.49 4.9372C108.215 4.83909 107.911 4.79004 107.578 4.79004C106.92 4.79004 106.371 5.0402 105.929 5.54053C105.498 6.03105 105.282 6.63929 105.282 7.36526C105.282 8.09123 105.498 8.70438 105.929 9.2047C106.371 9.69522 106.925 9.94048 107.592 9.94048C107.936 9.94048 108.245 9.89143 108.519 9.79333C108.794 9.69522 109.01 9.57259 109.167 9.42544C109.334 9.26847 109.456 9.14094 109.535 9.04283C109.613 8.93492 109.677 8.83191 109.726 8.73381H111.05C111.021 8.90058 110.943 9.10169 110.815 9.33714C110.697 9.57259 110.516 9.83747 110.271 10.1318C110.035 10.4261 109.682 10.6763 109.211 10.8823C108.74 11.0785 108.201 11.1766 107.592 11.1766C106.552 11.1766 105.674 10.8087 104.958 10.0729C104.252 9.33714 103.899 8.43459 103.899 7.36526C103.899 6.28612 104.252 5.38357 104.958 4.6576C105.665 3.92182 106.538 3.55393 107.578 3.55393C108.186 3.55393 108.725 3.65204 109.196 3.84825C109.667 4.04445 110.025 4.28971 110.271 4.58402C110.516 4.87833 110.697 5.14321 110.815 5.37866C110.933 5.6043 111.011 5.81032 111.05 5.99672H109.697ZM113.166 2.33254V0.228221H114.564V2.33254H113.166ZM113.195 11V3.73052H114.534V11H113.195ZM118.526 8.57194V4.9372H116.378V3.73052H118.526V0.551963H119.865V3.73052H122.793V4.9372H119.865V8.26291C119.865 8.80248 119.973 9.18999 120.189 9.42544C120.414 9.65108 120.807 9.76389 121.366 9.76389H122.793V11H121.072C119.375 11 118.526 10.1906 118.526 8.57194ZM125.599 14.2963L127.158 10.8381L123.862 3.73052H125.378L127.865 9.26357L130.352 3.73052H131.735L126.967 14.2963H125.599ZM132.78 11V8.91039H134.487V11H132.78ZM138.504 6.89436V11H137.165V3.73052H138.504V5.06964C138.642 4.70665 138.907 4.38291 139.299 4.09841C139.701 3.81391 140.28 3.67166 141.035 3.67166H142.86V5.01077H141.006C140.094 5.01077 139.446 5.15793 139.063 5.45224C138.691 5.74655 138.504 6.22726 138.504 6.89436ZM150.522 10.2642C149.904 10.8627 149.08 11.1619 148.05 11.1619C147.02 11.1619 146.191 10.8627 145.563 10.2642C144.945 9.65598 144.636 8.87606 144.636 7.92445V3.73052H145.975V7.67429C145.975 8.3512 146.156 8.89568 146.519 9.30771C146.882 9.70994 147.388 9.91105 148.035 9.91105C148.683 9.91105 149.188 9.70994 149.551 9.30771C149.914 8.89568 150.095 8.3512 150.095 7.67429V3.73052H151.449V7.92445C151.449 8.87606 151.14 9.65598 150.522 10.2642Z" fill="white"/>
</svg>
