<svg width="119" height="37" fill="none" xmlns="http://www.w3.org/2000/svg"><path fill-rule="evenodd" clip-rule="evenodd" d="M40.658.866v15.996h2.146V6.348l5.189 6.028 5.166-6.025v10.51h2.146V.865l-7.313 8.384L40.658.866Zm-30.737 2.8v13.196h2.145V1.552H.48v15.31h2.124V3.667h7.318Zm6.276-2.114v15.31h2.146v-5.977h2.273c1.59 0 2.897-.463 3.81-1.294.917-.834 1.409-2.013 1.409-3.383 0-1.38-.492-2.555-1.41-3.381-.914-.824-2.222-1.275-3.81-1.275h-4.418Zm2.146 7.28V3.584h2.252c1.057 0 1.814.275 2.304.72.487.441.75 1.084.75 1.904 0 .83-.264 1.473-.75 1.91-.489.443-1.246.714-2.304.714h-2.252Zm10.265 8.03V1.552h8.94v2.115h-6.815v4.296h5.584v2.115h-5.584v4.669h6.815v2.115h-8.94Zm30.816.65V1.552h2.125v10.746L72.14.902v15.96h-2.145V6.116L59.424 17.512ZM78.84 10.42l-4.325 6.443h2.54l4.003-5.977h2.31v5.977h2.126V1.552H80.95c-1.587 0-2.895.451-3.81 1.275-.918.826-1.41 2-1.41 3.38 0 1.071.294 2.038.897 2.798.524.66 1.267 1.147 2.211 1.414Zm2.132-1.587c-1.058 0-1.82-.271-2.316-.714-.49-.439-.758-1.08-.758-1.91 0-.818.267-1.461.76-1.903.495-.446 1.258-.721 2.314-.721h2.397v5.248H80.97Zm14.624 8.03V1.552h4.419c1.587 0 2.895.451 3.809 1.275.918.826 1.41 2 1.41 3.38 0 1.371-.492 2.55-1.409 3.384-.914.83-2.221 1.294-3.81 1.294h-2.273v5.977h-2.146ZM97.74 3.584h2.253c1.056 0 1.814.275 2.304.72.487.441.749 1.084.749 1.904 0 .83-.263 1.473-.748 1.91-.49.443-1.247.714-2.305.714H97.74V3.584Zm15.711 4.296h-3.32V3.667h7.061V1.552h-9.186v15.31h5.117c1.554 0 2.912-.373 3.888-1.125.987-.76 1.557-1.889 1.557-3.325 0-1.375-.517-2.519-1.432-3.315-.911-.791-2.19-1.216-3.685-1.216Zm-3.32 6.929V9.913h3.259c1.016 0 1.773.26 2.27.682.492.418.762 1.019.762 1.776 0 .768-.271 1.363-.76 1.771-.496.415-1.253.667-2.272.667h-3.259Zm-93.748 9.662c-3.243-.008-5.887 2.622-5.887 5.857a5.881 5.881 0 0 0 5.875 5.887 5.877 5.877 0 0 0 5.884-5.872c.008-3.235-2.62-5.863-5.872-5.872Zm-.012 9.982a4.12 4.12 0 0 1-4.115-4.11c0-2.253 1.844-4.098 4.092-4.11 2.267-.011 4.13 1.806 4.143 4.07a4.108 4.108 0 0 1-4.12 4.15Zm10.94-.078-.004.003a.221.221 0 0 0-.04.06h4.134v1.777h-8.275l.4-.442h.002c1.2-1.323 4.692-5.17 5.014-5.571.14-.173.265-.36.388-.548l.175-.26c.237-.344.332-.732.372-1.14.051-.558-.119-1.04-.471-1.465a1.319 1.319 0 0 0-.685-.435c-.373-.103-.749-.15-1.125-.028-.641.21-1.017.673-1.18 1.315-.033.137-.043.277-.053.417a7.616 7.616 0 0 1-.01.125c-.003.041-.002.083-.001.127v.07h-1.86l.001-.032.004-.102c.006-.14.01-.278.023-.415.043-.452.138-.891.324-1.307.503-1.116 1.358-1.785 2.562-1.991a3.88 3.88 0 0 1 2.305.285c.42.194.768.483 1.08.816.5.534.816 1.16.895 1.888.1.922-.063 1.793-.558 2.593a13.849 13.849 0 0 1-1.192 1.643c-.487.58-.978 1.156-1.47 1.731l-.755.886Zm-22.657.016.081-.095c.463-.537 2.147-2.493 2.715-3.244.313-.412.602-.84.836-1.302.23-.455.345-.938.376-1.448.044-.692-.051-1.357-.4-1.967-.412-.716-.982-1.266-1.754-1.582a3.876 3.876 0 0 0-2.14-.222c-1.22.21-2.083.89-2.582 2.022a4.21 4.21 0 0 0-.321 1.389c-.008.095-.005.19-.003.285.002.049.003.097.003.146H3.31l-.001-.08c-.001-.05-.002-.098 0-.146l.007-.096c.009-.127.017-.255.045-.378.147-.621.495-1.076 1.098-1.322.32-.13.65-.114.982-.06.408.072.757.25 1.002.595.29.407.436.846.384 1.352-.043.436-.158.84-.404 1.203-.178.265-.36.527-.55.78-.19.253-.392.498-.606.736-.52.578-4.235 4.645-4.718 5.171a.8.8 0 0 0-.055.066l-.016.021h8.275v-1.78H4.622a.278.278 0 0 1 .032-.044Zm35.634-9.916c.003.001.007.002.01.005v8.582h1.12v1.664h-1.117v1.49h-1.83V34.73h-5.328c1.288-1.851 2.572-3.697 3.856-5.54l3.282-4.719a.017.017 0 0 0 .007.004Zm-3.942 8.584h2.118v-3.042l-.923 1.325c-.398.573-.794 1.143-1.195 1.717Z" fill="#fff"/></svg>