<svg xmlns="http://www.w3.org/2000/svg" width="31.062" height="29.166" viewBox="0 0 31.062 29.166"><g transform="translate(-5 -7.746)"><path d="M28.307,8.132l-3.058,6.2-6.838.994a.69.69,0,0,0-.382,1.178l4.948,4.823-1.168,6.811a.69.69,0,0,0,1,.728l6.117-3.216,6.117,3.216a.691.691,0,0,0,1-.728l-1.169-6.81L39.824,16.5a.69.69,0,0,0-.382-1.178L32.6,14.328l-3.058-6.2a.691.691,0,0,0-1.239,0Zm3.219,7.133a.69.69,0,0,0,.52.378l5.814.845-4.206,4.1a.691.691,0,0,0-.2.611l.993,5.79-5.2-2.734a.693.693,0,0,0-.643,0l-5.2,2.734L24.4,21.2a.693.693,0,0,0-.2-.611l-4.206-4.1,5.814-.845a.691.691,0,0,0,.52-.378L28.926,10Z" transform="translate(-8.396 0)"/><path d="M29.548,61a.69.69,0,1,0-.194,1.367c3.845.546,5.1,1.271,5.309,1.557-.513.78-5.513,2.108-14.132,2.108S6.912,64.708,6.4,63.928c.21-.283,1.453-1,5.263-1.55a.69.69,0,0,0-.2-1.366C5,61.938,5,63.435,5,63.926v4.369c0,3.451,14.9,3.49,15.531,3.49s14.914-.039,15.509-3.28h.021V63.926C36.062,63.432,36.062,61.93,29.548,61Zm5.133,7.258c-.388.774-5.405,2.142-14.15,2.142S6.768,69.037,6.381,68.263V65.531c3.707,1.86,13.635,1.886,14.15,1.886s10.443-.026,14.15-1.886Z" transform="translate(0 -34.873)"/></g></svg>