<svg xmlns="http://www.w3.org/2000/svg" width="29" height="32" viewBox="0 0 29 32"><g><g><g><path d="M9.948 1.933c5.19 0 8.02 1.66 8.02 2.512 0 .452-.943 1.394-3.482 1.994-2.695.661-6.347.667-9.072-.002-2.533-.598-3.476-1.54-3.476-1.992 0-.853 2.828-2.512 8.01-2.512zm4.557 10.383c-2.694.675-6.425.675-9.109-.001C2.86 11.7 1.94 10.785 1.94 10.32V7.169c.79.468 1.802.86 3.021 1.147 1.5.367 3.225.562 4.988.562 1.77 0 3.5-.195 4.99-.56 1.223-.289 2.238-.68 3.03-1.149v3.14c0 .003-.003.006-.003.01v.011c-.01.468-.932 1.375-3.46 1.986zm-7.66 6.164a14.331 14.331 0 0 1-1.45-.283c-2.521-.61-3.46-1.553-3.46-2.002V13.04c.784.466 1.788.858 2.995 1.15 1.487.376 3.223.574 5.018.574 1.791 0 3.53-.198 5.019-.571 1.21-.292 2.214-.684 3-1.15v1.4a.967.967 0 0 0 1.932 0l.002-10C19.901 1.528 14.894 0 9.947 0 5.005 0 .003 1.526.003 4.445.003 10.323 0 16.2 0 22.078c0 1.898 2.254 3.43 6.028 4.098a.968.968 0 0 0 .338-1.904c-3.055-.54-4.43-1.608-4.43-2.194V18.92c.786.468 1.791.861 3.003 1.154a16.18 16.18 0 0 0 1.643.32.968.968 0 0 0 1.09-.826.966.966 0 0 0-.826-1.088z"/></g><g><path d="M23.487 29.55c-2.695.676-6.426.678-9.11-.002-2.536-.613-3.456-1.528-3.456-1.993v-3.152c.79.468 1.803.859 3.022 1.147 1.499.367 3.224.561 4.987.561 1.77 0 3.5-.194 4.99-.56 1.224-.29 2.238-.68 3.03-1.15v3.153c0 .468-.92 1.381-3.463 1.997zM18.93 19.169c5.19 0 8.02 1.659 8.02 2.512 0 .452-.942 1.392-3.482 1.994-2.696.661-6.347.667-9.071-.002-2.532-.6-3.475-1.54-3.475-1.992-.001-.853 2.826-2.512 8.008-2.512zm0-1.933c-4.941 0-9.943 1.526-9.943 4.445v5.875c0 1.702 1.8 3.113 4.926 3.87 1.486.376 3.221.575 5.017.575 1.793 0 3.531-.199 5.02-.572 3.135-.758 4.935-2.17 4.935-3.873V21.68c-.001-2.918-5.009-4.445-9.955-4.445z"/></g></g></g></svg>
