<svg xmlns="http://www.w3.org/2000/svg" width="47" height="70" viewBox="0 0 47 70"><g><g><path d="M22.24 69.973c-3.553 0-7.077-.547-10.472-1.626a34.3 34.3 0 0 1-9.397-4.66 5.006 5.006 0 0 1-2.076-3.453 5.007 5.007 0 0 1 1.148-3.863l.494-.582a4.963 4.963 0 0 1 3.792-1.751 5.02 5.02 0 0 1 2.884.91c4.379 3.054 9.306 4.736 13.873 4.736 1.843 0 3.521-.206 4.988-.614 1.425-.395 2.652-.98 3.647-1.74 1.963-1.497 3-3.66 3-6.256 0-1.32-.244-2.448-.747-3.451-.462-.922-1.145-1.738-2.09-2.497-1.789-1.437-4.336-2.52-7.287-3.773l-.244-.103-9.125-3.956c-3.872-1.61-6.972-3.703-9.212-6.218-2.841-3.19-4.282-7.053-4.282-11.485 0-5.176 2.246-9.933 6.323-13.394C9.474 4.484 11.86 3.146 14.55 2.22c2.786-.96 5.814-1.445 9-1.445 2.911 0 5.822.446 8.65 1.327a29.398 29.398 0 0 1 7.758 3.729 4.996 4.996 0 0 1 2.132 3.395 5.012 5.012 0 0 1-1.06 3.879 4.967 4.967 0 0 1-3.878 1.846 5.046 5.046 0 0 1-2.652-.755c-3.415-2.108-6.997-3.132-10.95-3.132-3.128 0-5.756.722-7.602 2.089-1.868 1.382-2.855 3.37-2.855 5.748 0 1.23.273 2.307.836 3.292.505.885 1.238 1.68 2.24 2.432 1.873 1.405 4.409 2.443 7.093 3.542l.449.184 9 3.773c4.367 1.819 7.547 3.983 9.725 6.618a15.78 15.78 0 0 1 2.777 4.962c.658 1.923.992 4.086.992 6.43 0 5.42-2.26 10.384-6.363 13.978-2.11 1.848-4.645 3.289-7.536 4.283-3.044 1.047-6.43 1.578-10.066 1.578z"/></g></g></svg>
