<svg xmlns="http://www.w3.org/2000/svg" width="30" height="34" viewBox="0 0 30 34"><g><g><path d="M24.38 31.102a2.84 2.84 0 0 1-2.828-2.827 2.84 2.84 0 0 1 2.827-2.828 2.84 2.84 0 0 1 2.828 2.828 2.818 2.818 0 0 1-2.828 2.827zM5.62 19.861a2.84 2.84 0 0 1-2.827-2.828 2.84 2.84 0 0 1 2.828-2.827 2.84 2.84 0 0 1 2.827 2.827c-.034 1.552-1.276 2.828-2.827 2.828zM24.38 2.964a2.84 2.84 0 0 1 2.827 2.828 2.84 2.84 0 0 1-2.828 2.827 2.84 2.84 0 0 1-2.827-2.827c.034-1.586 1.276-2.828 2.827-2.828zm0 19.69c-1.38 0-2.621.483-3.587 1.276l-9.655-5.793c.069-.38.103-.724.103-1.138 0-.414-.034-.759-.103-1.138l9.655-5.793a5.686 5.686 0 0 0 3.586 1.276A5.622 5.622 0 0 0 30 5.723C30 2.619 27.483.137 24.38.137a5.622 5.622 0 0 0-5.621 5.62c0 .38.034.759.103 1.138l-9.655 5.793a5.686 5.686 0 0 0-3.586-1.275 5.622 5.622 0 0 0 0 11.241c1.379 0 2.62-.483 3.586-1.276l9.655 5.793c-.069.38-.103.724-.103 1.138a5.622 5.622 0 0 0 11.241 0c0-3.103-2.517-5.655-5.62-5.655z"/></g></g></svg>
