<svg width="227" height="21" viewBox="0 0 227 21" fill="none" xmlns="http://www.w3.org/2000/svg">
<path d="M0.6529 16.8458V1.02025H14.4724V16.8458H12.3103V3.02631H2.81499V16.8458H0.6529ZM17.9238 16.8458V1.02025H26.1487C27.8872 1.02025 29.2098 1.42146 30.1162 2.22388C31.0226 3.01145 31.4759 4.13336 31.4759 5.58961C31.4759 7.01614 31.0152 8.1529 30.0939 8.99991C29.1726 9.83205 27.8575 10.2481 26.1487 10.2481H20.0859V16.8458H17.9238ZM26.2155 3.02631H20.0859V8.24206H26.2155C27.1963 8.24206 27.9467 8.00431 28.4668 7.5288C28.9869 7.05329 29.2469 6.42175 29.2469 5.63418C29.2469 4.80204 28.9869 4.16307 28.4668 3.71728C27.9615 3.25663 27.2111 3.02631 26.2155 3.02631ZM41.0898 17.1133C38.742 17.1133 36.7879 16.3332 35.2276 14.7729C33.6822 13.2126 32.9095 11.266 32.9095 8.93304C32.9095 6.61492 33.6897 4.67573 35.2499 3.11547C36.8102 1.54034 38.7568 0.752774 41.0898 0.752774C43.4079 0.752774 45.3471 1.54034 46.9074 3.11547C48.4825 4.67573 49.2701 6.61492 49.2701 8.93304C49.2701 11.2511 48.4825 13.1978 46.9074 14.7729C45.3471 16.3332 43.4079 17.1133 41.0898 17.1133ZM36.7879 13.3464C37.9024 14.5203 39.3363 15.1072 41.0898 15.1072C42.8432 15.1072 44.2698 14.5129 45.3694 13.3241C46.4839 12.1353 47.0411 10.6716 47.0411 8.93304C47.0411 7.20931 46.4839 5.75306 45.3694 4.56429C44.2698 3.36065 42.8432 2.75883 41.0898 2.75883C39.3363 2.75883 37.9024 3.36065 36.7879 4.56429C35.6883 5.75306 35.1385 7.20931 35.1385 8.93304C35.1385 10.6865 35.6883 12.1576 36.7879 13.3464ZM51.8126 16.8458V1.02025H55.1561L60.6616 13.859L66.1671 1.02025H69.3991V16.8458H67.3484V2.89257L61.308 16.935H59.8146L53.8187 2.98173V16.8458H51.8126ZM80.1156 17.1133C77.7678 17.1133 75.8138 16.3332 74.2535 14.7729C72.7081 13.2126 71.9354 11.266 71.9354 8.93304C71.9354 6.61492 72.7155 4.67573 74.2758 3.11547C75.836 1.54034 77.7827 0.752774 80.1156 0.752774C82.4338 0.752774 84.3729 1.54034 85.9332 3.11547C87.5083 4.67573 88.2959 6.61492 88.2959 8.93304C88.2959 11.2511 87.5083 13.1978 85.9332 14.7729C84.3729 16.3332 82.4338 17.1133 80.1156 17.1133ZM75.8138 13.3464C76.9282 14.5203 78.3622 15.1072 80.1156 15.1072C81.8691 15.1072 83.2956 14.5129 84.3952 13.3241C85.5097 12.1353 86.0669 10.6716 86.0669 8.93304C86.0669 7.20931 85.5097 5.75306 84.3952 4.56429C83.2956 3.36065 81.8691 2.75883 80.1156 2.75883C78.3622 2.75883 76.9282 3.36065 75.8138 4.56429C74.7141 5.75306 74.1643 7.20931 74.1643 8.93304C74.1643 10.6865 74.7141 12.1576 75.8138 13.3464ZM90.8385 16.8458V1.02025H93.0006V8.33122L102.117 1.02025H105.171L95.4747 8.77701L105.572 16.8458H102.474L93.0006 9.49028V16.8458H90.8385ZM113.156 17.1133C110.808 17.1133 108.854 16.3332 107.293 14.7729C105.748 13.2126 104.975 11.266 104.975 8.93304C104.975 6.61492 105.755 4.67573 107.316 3.11547C108.876 1.54034 110.823 0.752774 113.156 0.752774C115.474 0.752774 117.413 1.54034 118.973 3.11547C120.548 4.67573 121.336 6.61492 121.336 8.93304C121.336 11.2511 120.548 13.1978 118.973 14.7729C117.413 16.3332 115.474 17.1133 113.156 17.1133ZM108.854 13.3464C109.968 14.5203 111.402 15.1072 113.156 15.1072C114.909 15.1072 116.336 14.5129 117.435 13.3241C118.55 12.1353 119.107 10.6716 119.107 8.93304C119.107 7.20931 118.55 5.75306 117.435 4.56429C116.336 3.36065 114.909 2.75883 113.156 2.75883C111.402 2.75883 109.968 3.36065 108.854 4.56429C107.754 5.75306 107.204 7.20931 107.204 8.93304C107.204 10.6865 107.754 12.1576 108.854 13.3464ZM125.553 1.02025H137.076V14.8398H139.528V20.4344H137.589V16.8458H123.48V20.4344H121.541V14.8398H123.301C123.94 13.8739 124.379 12.217 124.617 9.8692L125.553 1.02025ZM134.914 14.8398V3.02631H127.403L126.667 10.0252C126.429 12.2542 126.065 13.859 125.575 14.8398H134.914Z" fill="white"/>
<path d="M151.944 4.27452C150.429 4.27452 149.671 4.63116 149.671 5.34442C149.671 6.01311 150.25 6.39203 151.409 6.48119C152.019 6.54063 152.747 6.60006 153.594 6.6595C155.719 6.82296 157.309 7.31333 158.364 8.13061C159.434 8.93304 159.968 10.1738 159.968 11.853C159.968 13.547 159.344 14.8546 158.096 15.7759C156.848 16.6824 155.042 17.1356 152.68 17.1356C151.328 17.1356 150.131 16.9796 149.091 16.6675C148.066 16.3555 147.249 15.9468 146.639 15.4416C146.03 14.9215 145.562 14.3865 145.235 13.8367C144.908 13.2869 144.685 12.7074 144.566 12.0982H149.381C149.53 12.4845 149.886 12.8263 150.451 13.1235C151.015 13.4207 151.758 13.5693 152.68 13.5693C154.359 13.5693 155.198 13.1086 155.198 12.1873C155.198 11.7861 155.042 11.4889 154.73 11.2957C154.433 11.1026 153.973 10.9688 153.348 10.8945C153.051 10.8648 152.316 10.7979 151.142 10.6939C149.195 10.5305 147.679 10.0104 146.595 9.13364C145.51 8.25692 144.968 7.06814 144.968 5.56732C144.968 3.99219 145.607 2.78855 146.884 1.95641C148.162 1.12427 149.849 0.708195 151.944 0.708195C153.237 0.708195 154.366 0.849362 155.332 1.1317C156.313 1.39917 157.086 1.77066 157.65 2.24617C158.215 2.70682 158.646 3.18976 158.943 3.69499C159.255 4.18536 159.471 4.71288 159.59 5.27755H155.02C154.842 5.0398 154.485 4.8169 153.95 4.60887C153.43 4.38597 152.761 4.27452 151.944 4.27452ZM174.281 16.8458L173.367 14.6169H166.368L165.454 16.8458H160.818L167.572 1.02025H172.498L179.207 16.8458H174.281ZM167.928 10.8722H171.807L169.868 6.14684L167.928 10.8722ZM184.791 16.8458L178.015 1.02025H183.275L187.288 11.1843L191.277 1.02025H196.047L189.583 16.8458H184.791ZM197.987 16.8458V1.02025H211.628V4.69802H202.556V6.77095H207.95V10.5379H202.556V12.9674H212.497V16.8458H197.987ZM218.912 12.8337C219.254 13.1012 219.752 13.2349 220.406 13.2349C221.06 13.2349 221.557 13.116 221.899 12.8783C222.241 12.6257 222.412 12.2913 222.412 11.8753C222.412 11.0728 221.981 10.6716 221.119 10.6716H217.798V6.8824H220.74C221.557 6.8824 221.966 6.54063 221.966 5.85708C221.966 5.44101 221.81 5.12152 221.498 4.89863C221.201 4.66087 220.777 4.542 220.228 4.542C219.247 4.542 218.638 4.92092 218.4 5.67876H213.986C214.031 4.37111 214.588 3.22691 215.658 2.24617C216.743 1.25057 218.266 0.752774 220.228 0.752774C222.219 0.752774 223.757 1.15399 224.841 1.95641C225.926 2.75883 226.469 3.91046 226.469 5.41129C226.469 6.16913 226.268 6.80067 225.867 7.3059C225.48 7.81113 225.012 8.17519 224.463 8.39809C225.146 8.60612 225.733 9.0222 226.223 9.6463C226.714 10.2556 226.959 11.0951 226.959 12.165C226.959 13.6807 226.379 14.8843 225.22 15.7759C224.061 16.6675 222.464 17.1133 220.428 17.1133C219.329 17.1133 218.34 16.9498 217.464 16.6229C216.587 16.296 215.896 15.8725 215.391 15.3524C214.9 14.8323 214.521 14.29 214.254 13.7253C213.986 13.1458 213.838 12.5662 213.808 11.9867H218.311C218.37 12.269 218.571 12.5514 218.912 12.8337Z" fill="#06DCFF"/>
</svg>
