<svg width="333" height="108" viewBox="0 0 333 108" fill="none" xmlns="http://www.w3.org/2000/svg">
<path d="M12.809 65.0376L0 67.7624V96.0176L73.0612 79.844V62.1376L12.809 65.0376Z" fill="url(#paint0_linear_6694_3990)"/>
<path d="M66.3027 58.4737V3.94604L4.49109 17.8596V70.2196L66.3027 58.4737Z" fill="url(#paint1_linear_6694_3990)"/>
<path d="M77.4038 28.9972L12.809 44.587V83.1064L77.4038 69.3559V28.9972Z" fill="url(#paint2_linear_6694_3990)"/>
<path d="M30.1163 82.7683C30.1163 82.7683 36.1109 88.016 30.7075 96.6015C30.7075 96.6015 25.9221 98.0296 24.4186 98.903L22.8737 106.688H55.0045L52.9244 99.465C52.9244 99.465 50.4478 97.981 46.2024 96.3948C46.2024 96.3948 42.575 92.1518 43.5555 84.1842L30.1139 82.7683" fill="white"/>
<path d="M17.6212 43.3121L8.63908 45.5017C8.63908 45.5017 4.99709 75.7738 32.7049 84.5053" fill="white"/>
<path d="M16.8889 44.9227C16.8889 44.9227 24.6181 84.1307 35.6219 85.2182L43.5579 84.1842C43.5579 84.1842 58.4592 72.5965 63.0816 59.2109C67.6262 46.0516 65.9499 31.7196 65.9499 31.7196L16.8889 44.9227Z" fill="white"/>
<path d="M10.6583 45.0103L66.3513 31.6369L66.2419 39.3807L10.6583 46.054V45.0103Z" fill="white"/>
<path d="M17.6212 43.8572V37.9186C17.6212 37.9186 19.8108 26.7275 35.6244 26.7275C52.4817 26.7275 53.6275 37.1888 53.7638 38.9258L17.6212 43.8572Z" fill="white"/>
<path d="M17.6626 43.7915V37.8529C17.6626 37.8529 19.8522 27.2797 35.6658 27.2797C49.2071 27.2797 52.6325 37.1157 52.7688 38.8576L17.6626 43.7915Z" fill="white"/>
<path d="M63.6656 35.51L63.6023 34.7656L52.2433 37.4076C51.8434 35.7647 51.0559 34.2414 49.9467 32.9652C47.127 29.7782 42.8013 28.3428 38.6485 28.08C36.1346 27.9475 33.6139 28.1108 31.1382 28.5666C28.6567 29.0532 26.1776 29.9315 24.0708 31.3839C21.9639 32.8363 20.1782 34.8921 19.3802 37.3517C19.3559 37.432 19.334 37.522 19.3121 37.6096C19.2756 39.1836 19.2367 42.2709 19.2221 43.845C19.2221 44.1832 19.2221 44.5213 19.2221 44.8595L11.1717 46.6817V46.7182C11.1547 46.796 11.1425 46.852 11.1304 46.9177L11.0963 47.105C10.8011 48.9189 10.6741 50.7562 10.7168 52.5935C10.8506 63.5414 16.2832 73.3921 25.1534 79.6786C27.482 81.35 29.9574 82.8068 32.5493 84.0309C30.2242 82.8256 28.0013 81.4326 25.9027 79.8659C21.9371 76.8905 18.4825 73.1342 16.1031 68.7964C13.2508 63.5723 11.8946 57.6627 12.1838 51.7177L14.2761 51.2652C14.1444 52.6853 14.1159 54.1131 14.1909 55.5373C14.6921 66.1786 20.059 75.4867 28.8392 81.4789C30.2366 82.444 31.6899 83.3254 33.1916 84.1185C31.7174 83.2744 30.2941 82.3442 28.9292 81.3329C22.0442 76.292 17.2271 68.9448 15.8501 60.4809C15.3066 57.3457 15.2484 54.1456 15.6774 50.9927L18.3146 50.3723L19.2148 50.1777C19.2318 52.1824 19.2829 54.1871 19.4264 56.1917C20.295 66.3879 24.2605 76.9902 32.5396 83.4179C24.9977 76.2555 21.3484 66.3368 20.7645 56.0969C20.6283 53.574 20.6429 48.8883 20.6721 44.643C20.694 44.6138 20.7134 44.5821 20.7329 44.5505C21.0014 44.169 21.2888 43.8012 21.5941 43.4484C25.7105 38.6192 31.7391 37.1522 37.8626 37.123C41.6482 37.0646 45.5286 37.6972 48.937 39.405C50.2678 40.0911 51.545 40.9839 52.3892 42.2369L52.5741 43.373C53.0593 48.5489 53.1407 53.7548 52.8174 58.9433C52.5741 62.5585 52.0876 66.1786 51.1412 69.6771C50.7084 71.2718 50.1336 72.8245 49.4236 74.3165C50.0446 73.142 50.5757 71.9221 51.0122 70.6673C51.8691 68.1561 52.504 65.5747 52.9099 62.9527C53.956 56.4058 54.1628 49.7544 53.8344 43.137L59.048 42.0057C59.6372 45.5516 59.7192 49.1633 59.2913 52.7322C58.8705 56.443 57.88 60.0668 56.3548 63.4757C53.7954 69.1856 50.3821 74.5136 46.5017 79.4255C45.2667 81.0099 43.9376 82.5185 42.5216 83.9434C44.244 82.3863 46.0638 80.9388 47.7279 79.3209C49.3909 77.6899 50.9633 75.9689 52.4379 74.1657C53.8976 72.4408 55.406 70.4945 56.7635 68.6845C57.1041 68.2393 57.4788 67.7308 57.7975 67.2637C63.7556 58.5151 64.8455 45.8764 63.6656 35.51ZM12.3103 49.9758C12.3817 49.3384 12.4709 48.7034 12.5779 48.0709L19.2123 46.633C19.2123 47.2267 19.2123 47.8203 19.2123 48.4163L12.3103 49.9758ZM51.1631 40.2443C49.353 38.6995 47.1148 37.7604 44.862 37.0816C41.8328 36.1692 38.6698 35.7825 35.5101 35.9382C30.7514 36.1523 25.9246 37.7531 22.3897 41.0277C21.7592 41.6188 21.1888 42.2707 20.6867 42.974C20.7013 40.9426 20.7134 39.1058 20.7061 37.7847C20.9123 37.0845 21.2101 36.4145 21.5917 35.7922C24.5792 30.8462 30.6857 29.0532 36.1694 28.7831C41.6336 28.3696 48.2315 30.131 51.0098 35.2546C51.3899 35.9687 51.6855 36.7248 51.8905 37.5074L52.2043 39.4366L62.0088 37.2836C62.0866 37.9112 62.1556 38.5413 62.2156 39.1739L52.3163 41.4486C51.9744 41.0085 51.588 40.6049 51.1631 40.2443ZM60.6512 59.0406C59.8254 61.9352 58.5804 64.6933 56.9557 67.2272C55.4376 69.4484 53.7516 71.7645 52.09 73.8859C50.6818 75.7216 49.1736 77.4784 47.5722 79.1482C45.9641 80.8171 44.1929 82.3109 42.524 83.9312C43.9762 82.5403 45.3443 81.0642 46.6209 79.5107C51.7518 73.3093 56.2307 66.4243 58.9701 58.8144C60.6189 53.9601 61.3241 48.8352 61.0478 43.716C61.0089 43.0105 60.9529 42.305 60.8653 41.6019L62.3713 41.2759C62.7508 47.2486 62.308 53.2918 60.6537 59.0406H60.6512Z" fill="#001958"/>
<path d="M19.2196 44.8596L10.7021 46.7669V51.5888L11.7604 47.5284L19.2196 44.8596Z" fill="#001958"/>
<path d="M64.0912 34.6512V43.2903L63.5998 34.7656L64.0912 34.6512Z" fill="#001958"/>
<path d="M12.5779 48.0709C12.5779 48.0709 11.2884 60.2644 16.9302 70.2099C16.9302 70.2099 10.7021 62.3201 11.5779 50.9903C11.7239 49.0245 12.5779 48.0709 12.5779 48.0709Z" fill="#001958"/>
<path d="M13.8819 50.2799L14.0254 54.6031H15.0302V50.1096L13.8819 50.2799Z" fill="#001958"/>
<path d="M14.0254 54.6007C14.1072 56.4452 14.3341 58.2804 14.7042 60.0893L14.8453 51.3869L14.3295 50.5087L14.0254 54.6007Z" fill="#001958"/>
<path d="M15.6773 51.0025C15.6773 51.0025 15.3976 61.69 17.8474 67.4511L15.3367 62.0988L14.8502 50.5135L15.6773 51.0025Z" fill="#001958"/>
<path d="M24.6667 105.562C24.8905 103.654 25.2481 101.669 25.6082 99.7934C27.187 98.9231 28.8647 98.246 30.6053 97.7766C37.6606 95.8035 45.5285 96.6696 51.9366 100.253C52.2869 101.499 52.647 103.007 52.9389 104.275C53.0346 104.701 53.1238 105.129 53.2066 105.557L53.0825 105.603L51.2797 100.737L51.3333 100.793C45.3909 98.2055 38.8179 97.4253 32.4348 98.5502C30.3187 98.9037 28.2513 99.5038 26.2748 100.338L26.3259 100.275C25.871 101.822 25.2579 104.031 24.7932 105.598L24.6667 105.562Z" fill="#001958"/>
<path d="M42.4777 86.9601C42.2345 90.8527 43.2076 95.1686 46.127 97.9226L47.1002 98.7181C46.1587 98.526 45.0517 98.2729 44.1053 98.1489C41.1225 97.7415 38.1042 97.6599 35.1037 97.9056C33.6359 98.0206 32.1811 98.2648 30.7562 98.6354L31.2574 97.9761C32.6636 95.8668 33.8265 93.5702 34.0965 91.0303C34.3621 88.469 33.7984 85.8902 32.4884 83.6733C33.3102 84.7054 33.9301 85.8833 34.3155 87.145C35.5587 91.0376 34.4566 95.3486 31.7196 98.3362L31.4155 97.8739C35.0016 97.0784 38.7141 97.0443 42.3634 97.329C43.5898 97.4259 44.8088 97.6015 46.0127 97.8545L45.7353 98.3946C45.358 98.0241 45.0189 97.6166 44.7233 97.1781C42.6626 94.2247 42.0933 90.4708 42.4948 86.9601H42.4777Z" fill="#001958"/>
<path d="M47.1537 105.635L45.7183 98.397C45.7183 98.397 43.6114 98.2972 40.0473 98.0101L40.7407 105.635H47.1537Z" fill="#001958"/>
<path d="M42.5265 95.8254C42.5265 95.8254 39.3151 89.7895 40.9938 84.5102C40.9938 84.5102 46.3898 79.6323 48.3458 68.2538C50.3019 56.8753 49.5185 41.7673 49.5185 41.7673C49.5185 41.7673 47.9931 39.5266 44.21 38.9695C44.21 38.9695 45.3826 60.4857 44.8717 67.3439C44.0494 78.3648 43.5142 80.8609 40.5753 84.1306C40.5753 84.1306 38.629 87.4977 39.5827 95.6308C40.5679 95.6006 41.5538 95.6658 42.5265 95.8254Z" fill="#001958"/>
<path d="M68.2198 4.67839V4.69542C69.455 4.70629 70.6361 5.20345 71.5073 6.07916C72.3784 6.95487 72.8694 8.13859 72.8738 9.3738C72.8841 8.13461 73.3836 6.94968 74.2635 6.07706C75.1434 5.20444 76.3325 4.71484 77.5717 4.71488V4.69542C76.3357 4.68582 75.1533 4.18922 74.2811 3.31337C73.4089 2.43752 72.9172 1.25308 72.9128 0.0170288C72.9031 1.2558 72.4046 2.44063 71.5257 3.31363C70.6468 4.18664 69.4586 4.67714 68.2198 4.67839Z" fill="#0092F3"/>
<path d="M61.3883 14.1592C62.1393 14.1662 62.8574 14.4685 63.3873 15.0007C63.9172 15.5328 64.2164 16.2522 64.2202 17.0032C64.2266 16.2499 64.5303 15.5297 65.0653 14.9993C65.6002 14.4689 66.323 14.1713 67.0763 14.1713C66.325 14.1656 65.6062 13.8637 65.076 13.3313C64.5458 12.7988 64.247 12.0787 64.2445 11.3273C64.2381 12.0806 63.9343 12.8009 63.3994 13.3312C62.8644 13.8616 62.1416 14.1592 61.3883 14.1592Z" fill="#0092F3"/>
<path d="M73.1804 18.0153C73.9324 18.0217 74.6515 18.3245 75.1817 18.8578C75.7119 19.3912 76.0103 20.1121 76.0122 20.8642C76.0186 20.1109 76.3224 19.3907 76.8573 18.8603C77.3923 18.3299 78.1151 18.0323 78.8684 18.0323V18.0202C78.1178 18.0144 77.3998 17.7132 76.8697 17.1818C76.3397 16.6504 76.0404 15.9316 76.0365 15.181C76.0308 15.9347 75.7273 16.6556 75.1923 17.1865C74.6573 17.7174 73.9341 18.0153 73.1804 18.0153Z" fill="#0092F3"/>
<path d="M65.5315 26.0948C66.2833 26.1006 67.0024 26.4028 67.5327 26.9358C68.0629 27.4687 68.3614 28.1894 68.3633 28.9413C68.3685 28.1874 68.6718 27.4661 69.2069 26.9351C69.7421 26.404 70.4656 26.1063 71.2195 26.107V26.0948C70.4679 26.0891 69.7489 25.7873 69.2183 25.2549C68.6877 24.7225 68.3884 24.0024 68.3852 23.2508C68.3814 24.0056 68.0792 24.7282 67.5446 25.261C67.0099 25.7938 66.2863 26.0935 65.5315 26.0948Z" fill="#0092F3"/>
<path d="M17.0276 23.28L17.9131 22.7205L18.643 23.8688L19.9519 23.044L19.222 21.8933L20.1076 21.3337L22.0539 24.4016L21.1683 24.9611L20.4384 23.8128L19.1271 24.64L19.857 25.7883L18.9714 26.3479L17.0276 23.28Z" fill="white"/>
<path d="M22.1901 22.3678C21.8155 21.2852 22.3847 20.3169 23.4187 19.9617C24.4527 19.6065 25.4964 20.0152 25.8686 21.0978C26.2408 22.1805 25.674 23.1487 24.6522 23.5064C23.6304 23.864 22.5575 23.4358 22.1901 22.3678ZM24.8663 21.4457C24.7994 21.2865 24.6875 21.1503 24.5443 21.0539C24.401 20.9574 24.2327 20.905 24.06 20.903C23.8874 20.901 23.7179 20.9495 23.5724 21.0425C23.427 21.1356 23.3119 21.2692 23.2414 21.4268C23.1709 21.5844 23.148 21.7592 23.1755 21.9297C23.203 22.1002 23.2798 22.2589 23.3964 22.3863C23.5129 22.5137 23.6642 22.6042 23.8316 22.6467C23.9989 22.6893 24.1751 22.682 24.3383 22.6257C24.454 22.5877 24.5604 22.526 24.6508 22.4446C24.7412 22.3631 24.8136 22.2636 24.8633 22.1525C24.913 22.0414 24.939 21.9211 24.9395 21.7994C24.94 21.6777 24.915 21.5573 24.8663 21.4457Z" fill="white"/>
<path d="M26.6617 19.0615L28.8513 18.6649C29.6761 18.5165 30.2526 18.8376 30.3986 19.638C30.5446 20.4385 30.114 20.9421 29.2892 21.0978L28.1239 21.3094L28.3307 22.4553L27.3065 22.6402L26.6617 19.0615ZM27.8465 19.7597L27.9658 20.4141L29.007 20.2268C29.2722 20.1781 29.3817 20.0322 29.3452 19.8278C29.3087 19.6234 29.1603 19.5237 28.8878 19.5724L27.8465 19.7597Z" fill="white"/>
<path d="M31.452 18.2829L32.4981 18.2172L32.6343 20.4068L34.094 18.1248L35.1402 18.0591L35.3664 21.6816L34.3203 21.7473L34.1865 19.5723L32.7317 21.8373L31.6855 21.903L31.452 18.2829Z" fill="white"/>
<path d="M36.2836 21.7133H36.2034L36.2374 20.6672H36.3128C36.6656 20.6794 36.7678 20.5139 36.8286 20.0979L37.1108 18.064L40.1373 18.1638L40.0181 21.7887L38.9695 21.7522L39.062 19.0372L37.9648 19.0007L37.7969 20.2025C37.6534 21.2413 37.3663 21.7474 36.2836 21.7133Z" fill="white"/>
<path d="M44.7646 21.1075C44.6454 21.9517 44.0591 22.3021 43.1979 22.1804L41.074 21.8812L41.5824 18.2878L42.614 18.4338L42.4656 19.4872L43.5579 19.6405C44.4094 19.7573 44.896 20.2585 44.7646 21.1075ZM42.3318 20.3777L42.2247 21.1367L43.1808 21.2705C43.4947 21.3167 43.6674 21.2146 43.6942 20.9567C43.7209 20.6988 43.6017 20.5577 43.2879 20.5115L42.3318 20.3777Z" fill="white"/>
<path d="M45.7572 20.7596C45.8158 20.5162 45.9244 20.2877 46.0759 20.0885C46.2274 19.8892 46.4187 19.7236 46.6376 19.6022C46.8565 19.4807 47.0982 19.4061 47.3474 19.3829C47.5966 19.3598 47.848 19.3887 48.0855 19.4677C49.2776 19.8059 49.4576 20.7596 49.4114 21.1707L48.3896 20.8812C48.3489 20.7548 48.2763 20.6411 48.1786 20.5511C48.081 20.4612 47.9617 20.398 47.8325 20.3679C47.3459 20.2292 46.9274 20.5479 46.7839 21.0515C46.6404 21.5551 46.8253 22.0392 47.3216 22.1779C47.4473 22.222 47.5824 22.2323 47.7135 22.208C47.8445 22.1837 47.9669 22.1255 48.0684 22.0392L49.0854 22.3263C48.9443 22.6377 48.2971 23.426 47.0661 23.0781C46.8225 23.0209 46.5935 22.9139 46.3934 22.7637C46.1932 22.6136 46.0264 22.4236 45.9034 22.2057C45.7804 21.9879 45.704 21.7469 45.6788 21.498C45.6536 21.2491 45.6803 20.9976 45.7572 20.7596Z" fill="white"/>
<path d="M51.1314 20.5187L52.0705 20.9858L51.3942 22.3385L53.3672 21.633L54.5666 22.229L52.3016 23.0367L53.0169 25.511L51.7494 24.8784L51.1582 22.8105L50.4502 24.2264L49.5184 23.7642L51.1314 20.5187Z" fill="white"/>
<path d="M125.029 100.862C125.029 98.2092 126.655 96.6682 129.875 96.6682H132.942V94.5981H134.659V96.6682H137.726C140.946 96.6682 142.571 98.2016 142.571 100.862C142.571 103.522 140.946 105.125 137.726 105.125H134.659V107.509H132.942V105.125H129.875C126.655 105.125 125.029 103.453 125.029 100.862ZM132.919 98.2629H129.852C127.82 98.2629 126.831 99.2366 126.831 100.893C126.831 102.549 127.82 103.53 129.852 103.53H132.919V98.2629ZM134.636 98.2629V103.53H137.703C139.735 103.53 140.724 102.449 140.724 100.893C140.724 99.3363 139.735 98.2629 137.703 98.2629H134.636Z" fill="white"/>
<path d="M145.538 94.7745H147.256V105.033L155.122 94.7745H156.839V107.333H155.122V97.0362L147.256 107.333H145.538V94.7745Z" fill="white"/>
<path d="M160.734 94.7745H162.452V100.203H170.164V94.7745H171.882V107.333H170.164V101.797H162.452V107.333H160.734V94.7745Z" fill="white"/>
<path d="M184.195 104.312H177.509L176.106 107.333H174.412L180.208 94.7054H181.573L187.392 107.333H185.59L184.195 104.312ZM183.482 102.779L180.852 97.0438L178.215 102.779H183.482Z" fill="white"/>
<path d="M189.109 107.44H188.688V105.753H188.987C190.459 105.753 190.865 104.764 191.126 101.966L191.8 94.7668H201.001V107.325H199.283V96.3615H193.272L192.72 102.165C192.406 105.669 191.731 107.44 189.109 107.44Z" fill="white"/>
<path d="M218.359 102.066C216.978 102.349 215.574 102.495 214.165 102.503C210.891 102.503 209.25 101.199 209.25 97.9025V94.8358H210.96V97.9025C210.96 100.256 211.987 101.069 214.149 101.069C215.564 101.056 216.973 100.907 218.359 100.624V94.8588H220.076V107.417H218.359V102.066Z" fill="white"/>
<path d="M223.963 94.7745H233.8V96.3692H225.665V99.8729H230.526V101.46H225.665V105.753H234.52V107.34H223.963V94.7745Z" fill="white"/>
<path d="M241.022 96.3692H235.801V94.7745H247.953V96.3692H242.739V107.333H241.022V96.3692Z" fill="white"/>
<path d="M261.354 103.453C261.354 105.891 259.821 107.287 256.915 107.287H250.621V94.7285H252.338V99.4666H256.938C259.859 99.5126 261.354 101.107 261.354 103.453ZM252.3 101.1V105.7H256.969C258.717 105.7 259.583 104.849 259.583 103.4C259.583 102.043 258.717 101.1 256.969 101.1H252.3ZM263.455 94.7668H265.188V107.325H263.471L263.455 94.7668Z" fill="white"/>
<path d="M269.098 94.7745H275.63C278.406 94.7745 279.855 96.1008 279.855 98.4009C279.855 100.701 278.406 102.096 275.63 102.096H270.816V107.333H269.098V94.7745ZM270.816 96.3692V100.509H275.684C277.286 100.509 278.084 99.6429 278.084 98.4392C278.084 97.2355 277.317 96.3692 275.684 96.3692H270.816Z" fill="white"/>
<path d="M282.868 94.7745H292.697V96.3692H284.562V99.8729H289.423V101.46H284.562V105.753H293.41V107.34H282.868V94.7745Z" fill="white"/>
<path d="M294.775 107.333L300.256 100.969L294.889 94.7745H297.19L301.414 99.6966L305.661 94.7745H307.762L302.457 100.908L308 107.348H305.822L301.33 102.188L296.852 107.348L294.775 107.333Z" fill="white"/>
<path d="M174.286 21.0864H188.236L187.631 24.8638H178.355L178.02 27.0373H183.541L182.919 30.906H177.408L177.012 33.4576H187.184L186.536 37.4306H171.691L174.286 21.0864Z" fill="white"/>
<path d="M195.304 25.1072H189.457L190.096 21.0776H206.462L205.801 25.1072H199.955L197.994 37.4219H193.348L195.304 25.1072Z" fill="white"/>
<path d="M206.806 30.0627C206.614 24.7247 210.318 20.8125 215.382 20.8125C221.255 20.8125 222.98 24.7247 223.185 26.6113H218.442C218.156 26.097 217.732 25.6733 217.217 25.3883C216.702 25.1032 216.117 24.9682 215.53 24.9986C212.922 24.9986 211.465 27.2068 211.561 29.8323C211.635 31.9492 212.817 33.5141 214.843 33.5141C215.428 33.5429 216.01 33.4203 216.534 33.1584C217.058 32.8965 217.506 32.504 217.834 32.0188H222.55C222.126 33.6866 221.146 35.16 219.772 36.1953C218.397 37.2307 216.711 37.7662 214.991 37.7132C210.135 37.7132 206.966 34.553 206.806 30.0627Z" fill="white"/>
<path d="M226.527 21.0864H231.2L229.64 30.9364L238.403 21.0864H243.076L240.468 37.4306H235.808L237.373 27.6241L228.605 37.4306H223.919L226.527 21.0864Z" fill="white"/>
<path d="M250.587 25.1072H244.741L245.384 21.0776H261.737L261.085 25.1072H255.239L253.278 37.4219H248.631L250.587 25.1072Z" fill="white"/>
<path d="M264.024 21.0864H268.692L267.132 30.9364L275.895 21.0864H280.572L277.964 37.4306H273.304L274.865 27.6241L266.084 37.4306H261.429L264.024 21.0864Z" fill="white"/>
<path d="M163.593 27.1416H159.425L159.746 25.1377H169.583L170.222 21.0864H155.717L154.752 27.1416H151.613L151.026 30.8451H154.165L153.117 37.4263H162.785C167.292 37.4263 170.309 35.4485 170.174 31.4885C170.07 28.7065 167.714 27.1416 163.593 27.1416ZM163.159 33.3794H158.429L158.864 30.8451H163.771C164.736 30.8451 165.232 31.1929 165.254 31.8362C165.267 32.849 164.458 33.3663 163.172 33.3663L163.159 33.3794Z" fill="white"/>
<path d="M124.702 48.0674H128.722V53.8618L134.278 48.0674H139.407L133.026 54.7008L139.698 61.9601H134.269L128.722 55.8962V61.9601H124.71L124.702 48.0674Z" fill="white"/>
<path d="M143.137 61.9601L145.936 57.322L139.79 48.0674H144.571L148.192 53.5445L151.5 48.0674H155.847L147.475 61.9775L143.137 61.9601Z" fill="white"/>
<path d="M170.809 57.4394C170.809 60.4518 168.814 61.9601 165.523 61.9601H157.229V48.0501H169.557V51.4928H161.22V53.2316H165.523C168.814 53.2316 170.809 54.6661 170.809 57.4394ZM161.22 56.3657V58.5391H165.193C166.21 58.5391 166.701 58.2044 166.701 57.4611C166.701 56.7178 166.21 56.3874 165.193 56.3874L161.22 56.3657Z" fill="white"/>
<path d="M172.552 55.0137C172.552 50.6321 175.821 47.8327 180.007 47.8327C184.193 47.8327 187.462 50.6321 187.462 55.0137C187.462 59.3954 184.193 62.1948 180.007 62.1948C175.821 62.1948 172.552 59.3389 172.552 55.0137ZM183.393 55.0137C183.393 52.9794 182.12 51.3928 180.007 51.3928C177.894 51.3928 176.621 52.9794 176.621 55.0137C176.621 57.0481 177.894 58.6347 180.007 58.6347C182.12 58.6347 183.393 57.0481 183.393 55.0137Z" fill="white"/>
<path d="M189.792 48.0674H193.804V53.8618L199.364 48.0674H204.489L198.107 54.7008L204.793 61.9601H199.364L193.804 55.8962V61.9601H189.792V48.0674Z" fill="white"/>
<path d="M210.853 48.0674H219.381C222.593 48.0674 224.55 49.6714 224.55 52.7838C224.55 55.8962 222.593 57.5002 219.381 57.5002H214.843V61.9601H210.853V48.0674ZM214.843 51.5102V54.0574H218.894C219.929 54.0574 220.437 53.5836 220.437 52.7838C220.437 51.984 219.951 51.5102 218.894 51.5102H214.843Z" fill="white"/>
<path d="M226.154 55.0137C226.154 50.6321 229.422 47.8327 233.608 47.8327C237.795 47.8327 241.063 50.6321 241.063 55.0137C241.063 59.3954 237.799 62.1948 233.608 62.1948C229.418 62.1948 226.154 59.3389 226.154 55.0137ZM236.995 55.0137C236.995 52.9794 235.721 51.3928 233.608 51.3928C231.496 51.3928 230.227 52.9794 230.227 55.0137C230.227 57.0481 231.496 58.6347 233.608 58.6347C235.721 58.6347 236.995 57.0481 236.995 55.0137Z" fill="white"/>
<path d="M242.789 55.0137C242.789 50.8277 245.762 47.8327 250.031 47.8327C254.765 47.8327 256.43 51.1581 256.682 52.7229H252.609C252.328 52.3007 251.942 51.9586 251.49 51.73C251.037 51.5014 250.533 51.3942 250.027 51.4189C248.049 51.4189 246.875 53.0229 246.875 55.0181C246.875 57.0133 248.049 58.6173 250.027 58.6173C250.538 58.6506 251.049 58.5474 251.507 58.3182C251.966 58.0891 252.355 57.7423 252.635 57.3133H256.686C256.491 58.6173 254.947 62.1861 250.035 62.1861C245.762 62.1948 242.789 59.1824 242.789 55.0137Z" fill="white"/>
<path d="M257.994 55.0137C257.994 50.8277 260.972 47.8327 265.236 47.8327C269.97 47.8327 271.635 51.1581 271.887 52.7229H267.823C267.543 52.3001 267.157 51.9575 266.705 51.7288C266.252 51.5002 265.747 51.3934 265.241 51.4189C263.263 51.4189 262.089 53.0229 262.089 55.0181C262.089 57.0133 263.263 58.6173 265.241 58.6173C265.752 58.6493 266.262 58.5454 266.72 58.3164C267.178 58.0874 267.568 57.7413 267.849 57.3133H271.896C271.7 58.6173 270.135 62.1861 265.245 62.1861C260.972 62.1948 257.994 59.1824 257.994 55.0137Z" fill="white"/>
<path d="M274.104 48.0674H278.116V56.4439L284.237 48.0674H288.253V61.9775H284.241V53.6228L278.121 61.9601H274.108L274.104 48.0674Z" fill="white"/>
<path d="M291.187 48.0674H295.208V56.4439L301.333 48.0674H305.345V61.9775H301.333V53.6228L295.208 61.9601H291.196L291.187 48.0674Z" fill="white"/>
<path d="M98.5855 71.5536H112.339V85.4637H108.331V75.0312H102.598V85.4637H98.5855V71.5536Z" fill="white"/>
<path d="M114.673 78.5C114.673 74.114 117.938 71.319 122.128 71.319C126.319 71.319 129.583 74.114 129.583 78.5C129.583 82.886 126.314 85.6811 122.128 85.6811C117.942 85.6811 114.673 82.8252 114.673 78.5ZM125.514 78.5C125.514 76.4657 124.241 74.8791 122.128 74.8791C120.016 74.8791 118.742 76.4657 118.742 78.5C118.742 80.5343 120.016 82.1166 122.128 82.1166C124.241 82.1166 125.514 80.5343 125.514 78.5Z" fill="white"/>
<path d="M136.708 71.5536H142.52L145.397 79.2607L148.27 71.5536H153.83V85.4637H149.918V75.9657L146.44 85.455H143.78L140.372 76.044V85.455H136.695L136.708 71.5536Z" fill="white"/>
<path d="M156.769 71.5536H160.781V79.9258L166.901 71.5536H170.913V85.4637H166.901V77.1264L160.781 85.4637H156.769V71.5536Z" fill="white"/>
<path d="M173.852 71.5536H177.864V76.7699H183.793V71.5536H187.805V85.4637H183.793V80.2474H177.864V85.4637H173.852V71.5536Z" fill="white"/>
<path d="M190.744 71.5536H194.756V79.9258L200.881 71.5536H204.889V85.4637H200.881V77.1264L194.756 85.4637H190.744V71.5536Z" fill="white"/>
<path d="M207.771 77.0526H214.482V80.5735H207.771V77.0526Z" fill="white"/>
<path d="M216.634 78.3609C216.634 75.0747 218.651 73.3924 221.998 73.3924H224.854V71.3581H228.844V73.3924H231.7C235.047 73.3924 237.064 75.0747 237.064 78.3609C237.064 81.6472 235.047 83.3555 231.683 83.3555H228.844V85.6637H224.854V83.3555H222.015C218.651 83.3555 216.634 81.5907 216.634 78.3609ZM224.854 76.8352H222.507C221.311 76.8352 220.768 77.3046 220.768 78.3609C220.768 79.2998 221.355 79.8867 222.507 79.8867H224.854V76.8352ZM228.844 76.8352V79.878H231.192C232.348 79.878 232.93 79.2911 232.93 78.3522C232.93 77.2959 232.383 76.8265 231.192 76.8265L228.844 76.8352Z" fill="white"/>
<path d="M240.003 85.4463L242.802 80.8082L236.656 71.5536H241.437L245.058 77.0307L248.366 71.5536H252.713L244.337 85.4637L240.003 85.4463Z" fill="white"/>
<path d="M258.26 74.9964H253.23V71.5536H267.279V74.9964H262.25V85.4289H258.26V74.9964Z" fill="white"/>
<path d="M282.959 80.9257C282.959 83.9381 280.959 85.4464 277.673 85.4464H269.375V71.5364H281.702V74.9791H273.369V76.7179H277.673C280.959 76.7179 282.959 78.1393 282.959 80.9257ZM273.369 79.8476V82.0211H277.343C278.36 82.0211 278.847 81.6907 278.847 80.9474C278.847 80.2041 278.36 79.8693 277.343 79.8693L273.369 79.8476Z" fill="white"/>
<path d="M284.702 78.5C284.702 74.114 287.966 71.319 292.157 71.319C296.347 71.319 299.612 74.114 299.612 78.5C299.612 82.886 296.343 85.6811 292.157 85.6811C287.971 85.6811 284.702 82.8252 284.702 78.5ZM295.539 78.5C295.539 76.4657 294.269 74.8791 292.157 74.8791C290.044 74.8791 288.77 76.4657 288.77 78.5C288.77 80.5343 290.044 82.1166 292.157 82.1166C294.269 82.1166 295.539 80.5343 295.539 78.5Z" fill="white"/>
<path d="M300.985 85.642H300.668V81.6168H300.964C302.315 81.6168 302.702 80.9691 302.863 79.3651L303.685 71.5407H315.287V85.4507H311.292V75.0182H307.088L306.597 79.6346C306.167 83.6641 305.132 85.642 300.985 85.642Z" fill="white"/>
<path d="M320.298 85.4463L323.098 80.8082L316.943 71.5536H321.724L325.345 77.0307L328.653 71.5536H333L324.624 85.4637L320.298 85.4463Z" fill="white"/>
<defs>
<linearGradient id="paint0_linear_6694_3990" x1="0" y1="79.0776" x2="73.0612" y2="79.0776" gradientUnits="userSpaceOnUse">
<stop stop-color="#0092F3" stop-opacity="0"/>
<stop offset="0.04" stop-color="#0092F3" stop-opacity="0.07"/>
<stop offset="0.19" stop-color="#0191F2" stop-opacity="0.31"/>
<stop offset="0.34" stop-color="#0291F2" stop-opacity="0.52"/>
<stop offset="0.48" stop-color="#0291F2" stop-opacity="0.69"/>
<stop offset="0.62" stop-color="#0290F1" stop-opacity="0.83"/>
<stop offset="0.76" stop-color="#0390F1" stop-opacity="0.92"/>
<stop offset="0.89" stop-color="#0390F1" stop-opacity="0.98"/>
<stop offset="1" stop-color="#0390F1"/>
</linearGradient>
<linearGradient id="paint1_linear_6694_3990" x1="35.3957" y1="9.79707" x2="35.3957" y2="69.1661" gradientUnits="userSpaceOnUse">
<stop stop-color="#041854"/>
<stop offset="1" stop-color="#0390F1"/>
</linearGradient>
<linearGradient id="paint2_linear_6694_3990" x1="45.1076" y1="33.7753" x2="45.1076" y2="82.2452" gradientUnits="userSpaceOnUse">
<stop stop-color="#041854"/>
<stop offset="1" stop-color="#0390F1"/>
</linearGradient>
</defs>
</svg>
