<svg width="1023" height="1023" viewBox="0 0 1023 1023" fill="none" xmlns="http://www.w3.org/2000/svg">
<path d="M310 0H279V31H310V0Z" fill="black"/>
<path d="M403 0H372V31H403V0Z" fill="black"/>
<path d="M558 0H527V31H558V0Z" fill="black"/>
<path d="M589 0H558V31H589V0Z" fill="black"/>
<path d="M682 0H651V31H682V0Z" fill="black"/>
<path d="M279 31H248V62H279V31Z" fill="black"/>
<path d="M310 31H279V62H310V31Z" fill="black"/>
<path d="M372 31H341V62H372V31Z" fill="black"/>
<path d="M434 31H403V62H434V31Z" fill="black"/>
<path d="M465 31H434V62H465V31Z" fill="black"/>
<path d="M527 31H496V62H527V31Z" fill="black"/>
<path d="M558 31H527V62H558V31Z" fill="black"/>
<path d="M589 31H558V62H589V31Z" fill="black"/>
<path d="M682 31H651V62H682V31Z" fill="black"/>
<path d="M279 62H248V93H279V62Z" fill="black"/>
<path d="M310 62H279V93H310V62Z" fill="black"/>
<path d="M434 62H403V93H434V62Z" fill="black"/>
<path d="M496 62H465V93H496V62Z" fill="black"/>
<path d="M620 62H589V93H620V62Z" fill="black"/>
<path d="M651 62H620V93H651V62Z" fill="black"/>
<path d="M682 62H651V93H682V62Z" fill="black"/>
<path d="M713 62H682V93H713V62Z" fill="black"/>
<path d="M775 62H744V93H775V62Z" fill="black"/>
<path d="M279 93H248V124H279V93Z" fill="black"/>
<path d="M310 93H279V124H310V93Z" fill="black"/>
<path d="M372 93H341V124H372V93Z" fill="black"/>
<path d="M558 93H527V124H558V93Z" fill="black"/>
<path d="M589 93H558V124H589V93Z" fill="black"/>
<path d="M620 93H589V124H620V93Z" fill="black"/>
<path d="M682 93H651V124H682V93Z" fill="black"/>
<path d="M775 93H744V124H775V93Z" fill="black"/>
<path d="M341 124H310V155H341V124Z" fill="black"/>
<path d="M372 124H341V155H372V124Z" fill="black"/>
<path d="M403 124H372V155H403V124Z" fill="black"/>
<path d="M434 124H403V155H434V124Z" fill="black"/>
<path d="M496 124H465V155H496V124Z" fill="black"/>
<path d="M558 124H527V155H558V124Z" fill="black"/>
<path d="M620 124H589V155H620V124Z" fill="black"/>
<path d="M651 124H620V155H651V124Z" fill="black"/>
<path d="M682 124H651V155H682V124Z" fill="black"/>
<path d="M744 124H713V155H744V124Z" fill="black"/>
<path d="M310 155H279V186H310V155Z" fill="black"/>
<path d="M341 155H310V186H341V155Z" fill="black"/>
<path d="M403 155H372V186H403V155Z" fill="black"/>
<path d="M527 155H496V186H527V155Z" fill="black"/>
<path d="M589 155H558V186H589V155Z" fill="black"/>
<path d="M651 155H620V186H651V155Z" fill="black"/>
<path d="M713 155H682V186H713V155Z" fill="black"/>
<path d="M775 155H744V186H775V155Z" fill="black"/>
<path d="M279 186H248V217H279V186Z" fill="black"/>
<path d="M341 186H310V217H341V186Z" fill="black"/>
<path d="M403 186H372V217H403V186Z" fill="black"/>
<path d="M465 186H434V217H465V186Z" fill="black"/>
<path d="M527 186H496V217H527V186Z" fill="black"/>
<path d="M589 186H558V217H589V186Z" fill="black"/>
<path d="M651 186H620V217H651V186Z" fill="black"/>
<path d="M713 186H682V217H713V186Z" fill="black"/>
<path d="M775 186H744V217H775V186Z" fill="black"/>
<path d="M279 217H248V248H279V217Z" fill="black"/>
<path d="M310 217H279V248H310V217Z" fill="black"/>
<path d="M341 217H310V248H341V217Z" fill="black"/>
<path d="M372 217H341V248H372V217Z" fill="black"/>
<path d="M465 217H434V248H465V217Z" fill="black"/>
<path d="M744 217H713V248H744V217Z" fill="black"/>
<path d="M775 217H744V248H775V217Z" fill="black"/>
<path d="M31 248H0V279H31V248Z" fill="black"/>
<path d="M217 248H186V279H217V248Z" fill="black"/>
<path d="M279 248H248V279H279V248Z" fill="black"/>
<path d="M310 248H279V279H310V248Z" fill="black"/>
<path d="M403 248H372V279H403V248Z" fill="black"/>
<path d="M434 248H403V279H434V248Z" fill="black"/>
<path d="M465 248H434V279H465V248Z" fill="black"/>
<path d="M496 248H465V279H496V248Z" fill="black"/>
<path d="M558 248H527V279H558V248Z" fill="black"/>
<path d="M713 248H682V279H713V248Z" fill="black"/>
<path d="M775 248H744V279H775V248Z" fill="black"/>
<path d="M806 248H775V279H806V248Z" fill="black"/>
<path d="M837 248H806V279H837V248Z" fill="black"/>
<path d="M930 248H899V279H930V248Z" fill="black"/>
<path d="M961 248H930V279H961V248Z" fill="black"/>
<path d="M992 248H961V279H992V248Z" fill="black"/>
<path d="M93 279H62V310H93V279Z" fill="black"/>
<path d="M310 279H279V310H310V279Z" fill="black"/>
<path d="M341 279H310V310H341V279Z" fill="black"/>
<path d="M403 279H372V310H403V279Z" fill="black"/>
<path d="M465 279H434V310H465V279Z" fill="black"/>
<path d="M496 279H465V310H496V279Z" fill="black"/>
<path d="M620 279H589V310H620V279Z" fill="black"/>
<path d="M744 279H713V310H744V279Z" fill="black"/>
<path d="M899 279H868V310H899V279Z" fill="black"/>
<path d="M930 279H899V310H930V279Z" fill="black"/>
<path d="M961 279H930V310H961V279Z" fill="black"/>
<path d="M992 279H961V310H992V279Z" fill="black"/>
<path d="M62 310H31V341H62V310Z" fill="black"/>
<path d="M93 310H62V341H93V310Z" fill="black"/>
<path d="M186 310H155V341H186V310Z" fill="black"/>
<path d="M217 310H186V341H217V310Z" fill="black"/>
<path d="M279 310H248V341H279V310Z" fill="black"/>
<path d="M310 310H279V341H310V310Z" fill="black"/>
<path d="M372 310H341V341H372V310Z" fill="black"/>
<path d="M403 310H372V341H403V310Z" fill="black"/>
<path d="M496 310H465V341H496V310Z" fill="black"/>
<path d="M651 310H620V341H651V310Z" fill="black"/>
<path d="M682 310H651V341H682V310Z" fill="black"/>
<path d="M713 310H682V341H713V310Z" fill="black"/>
<path d="M806 310H775V341H806V310Z" fill="black"/>
<path d="M837 310H806V341H837V310Z" fill="black"/>
<path d="M899 310H868V341H899V310Z" fill="black"/>
<path d="M961 310H930V341H961V310Z" fill="black"/>
<path d="M992 310H961V341H992V310Z" fill="black"/>
<path d="M62 341H31V372H62V341Z" fill="black"/>
<path d="M93 341H62V372H93V341Z" fill="black"/>
<path d="M124 341H93V372H124V341Z" fill="black"/>
<path d="M155 341H124V372H155V341Z" fill="black"/>
<path d="M186 341H155V372H186V341Z" fill="black"/>
<path d="M310 341H279V372H310V341Z" fill="black"/>
<path d="M341 341H310V372H341V341Z" fill="black"/>
<path d="M465 341H434V372H465V341Z" fill="black"/>
<path d="M651 341H620V372H651V341Z" fill="black"/>
<path d="M713 341H682V372H713V341Z" fill="black"/>
<path d="M775 341H744V372H775V341Z" fill="black"/>
<path d="M806 341H775V372H806V341Z" fill="black"/>
<path d="M868 341H837V372H868V341Z" fill="black"/>
<path d="M899 341H868V372H899V341Z" fill="black"/>
<path d="M930 341H899V372H930V341Z" fill="black"/>
<path d="M961 341H930V372H961V341Z" fill="black"/>
<path d="M1023 341H992V372H1023V341Z" fill="black"/>
<path d="M62 372H31V403H62V372Z" fill="black"/>
<path d="M124 372H93V403H124V372Z" fill="black"/>
<path d="M217 372H186V403H217V372Z" fill="black"/>
<path d="M248 372H217V403H248V372Z" fill="black"/>
<path d="M341 372H310V403H341V372Z" fill="black"/>
<path d="M372 372H341V403H372V372Z" fill="black"/>
<path d="M434 372H403V403H434V372Z" fill="black"/>
<path d="M465 372H434V403H465V372Z" fill="black"/>
<path d="M496 372H465V403H496V372Z" fill="black"/>
<path d="M527 372H496V403H527V372Z" fill="black"/>
<path d="M558 372H527V403H558V372Z" fill="black"/>
<path d="M589 372H558V403H589V372Z" fill="black"/>
<path d="M620 372H589V403H620V372Z" fill="black"/>
<path d="M651 372H620V403H651V372Z" fill="black"/>
<path d="M713 372H682V403H713V372Z" fill="black"/>
<path d="M837 372H806V403H837V372Z" fill="black"/>
<path d="M868 372H837V403H868V372Z" fill="black"/>
<path d="M31 403H0V434H31V403Z" fill="black"/>
<path d="M93 403H62V434H93V403Z" fill="black"/>
<path d="M124 403H93V434H124V403Z" fill="black"/>
<path d="M186 403H155V434H186V403Z" fill="black"/>
<path d="M279 403H248V434H279V403Z" fill="black"/>
<path d="M310 403H279V434H310V403Z" fill="black"/>
<path d="M372 403H341V434H372V403Z" fill="black"/>
<path d="M403 403H372V434H403V403Z" fill="black"/>
<path d="M434 403H403V434H434V403Z" fill="black"/>
<path d="M465 403H434V434H465V403Z" fill="black"/>
<path d="M527 403H496V434H527V403Z" fill="black"/>
<path d="M558 403H527V434H558V403Z" fill="black"/>
<path d="M589 403H558V434H589V403Z" fill="black"/>
<path d="M620 403H589V434H620V403Z" fill="black"/>
<path d="M651 403H620V434H651V403Z" fill="black"/>
<path d="M713 403H682V434H713V403Z" fill="black"/>
<path d="M744 403H713V434H744V403Z" fill="black"/>
<path d="M806 403H775V434H806V403Z" fill="black"/>
<path d="M868 403H837V434H868V403Z" fill="black"/>
<path d="M930 403H899V434H930V403Z" fill="black"/>
<path d="M961 403H930V434H961V403Z" fill="black"/>
<path d="M992 403H961V434H992V403Z" fill="black"/>
<path d="M1023 403H992V434H1023V403Z" fill="black"/>
<path d="M124 434H93V465H124V434Z" fill="black"/>
<path d="M155 434H124V465H155V434Z" fill="black"/>
<path d="M186 434H155V465H186V434Z" fill="black"/>
<path d="M217 434H186V465H217V434Z" fill="black"/>
<path d="M310 434H279V465H310V434Z" fill="black"/>
<path d="M341 434H310V465H341V434Z" fill="black"/>
<path d="M589 434H558V465H589V434Z" fill="black"/>
<path d="M682 434H651V465H682V434Z" fill="black"/>
<path d="M806 434H775V465H806V434Z" fill="black"/>
<path d="M837 434H806V465H837V434Z" fill="black"/>
<path d="M868 434H837V465H868V434Z" fill="black"/>
<path d="M961 434H930V465H961V434Z" fill="black"/>
<path d="M992 434H961V465H992V434Z" fill="black"/>
<path d="M31 465H0V496H31V465Z" fill="black"/>
<path d="M62 465H31V496H62V465Z" fill="black"/>
<path d="M186 465H155V496H186V465Z" fill="black"/>
<path d="M279 465H248V496H279V465Z" fill="black"/>
<path d="M434 465H403V496H434V465Z" fill="black"/>
<path d="M465 465H434V496H465V465Z" fill="black"/>
<path d="M496 465H465V496H496V465Z" fill="black"/>
<path d="M620 465H589V496H620V465Z" fill="black"/>
<path d="M651 465H620V496H651V465Z" fill="black"/>
<path d="M713 465H682V496H713V465Z" fill="black"/>
<path d="M806 465H775V496H806V465Z" fill="black"/>
<path d="M868 465H837V496H868V465Z" fill="black"/>
<path d="M899 465H868V496H899V465Z" fill="black"/>
<path d="M961 465H930V496H961V465Z" fill="black"/>
<path d="M1023 465H992V496H1023V465Z" fill="black"/>
<path d="M31 496H0V527H31V496Z" fill="black"/>
<path d="M124 496H93V527H124V496Z" fill="black"/>
<path d="M155 496H124V527H155V496Z" fill="black"/>
<path d="M217 496H186V527H217V496Z" fill="black"/>
<path d="M248 496H217V527H248V496Z" fill="black"/>
<path d="M279 496H248V527H279V496Z" fill="black"/>
<path d="M403 496H372V527H403V496Z" fill="black"/>
<path d="M527 496H496V527H527V496Z" fill="black"/>
<path d="M558 496H527V527H558V496Z" fill="black"/>
<path d="M589 496H558V527H589V496Z" fill="black"/>
<path d="M713 496H682V527H713V496Z" fill="black"/>
<path d="M806 496H775V527H806V496Z" fill="black"/>
<path d="M868 496H837V527H868V496Z" fill="black"/>
<path d="M899 496H868V527H899V496Z" fill="black"/>
<path d="M1023 496H992V527H1023V496Z" fill="black"/>
<path d="M31 527H0V558H31V527Z" fill="black"/>
<path d="M62 527H31V558H62V527Z" fill="black"/>
<path d="M279 527H248V558H279V527Z" fill="black"/>
<path d="M310 527H279V558H310V527Z" fill="black"/>
<path d="M341 527H310V558H341V527Z" fill="black"/>
<path d="M372 527H341V558H372V527Z" fill="black"/>
<path d="M465 527H434V558H465V527Z" fill="black"/>
<path d="M496 527H465V558H496V527Z" fill="black"/>
<path d="M527 527H496V558H527V527Z" fill="black"/>
<path d="M558 527H527V558H558V527Z" fill="black"/>
<path d="M589 527H558V558H589V527Z" fill="black"/>
<path d="M620 527H589V558H620V527Z" fill="black"/>
<path d="M651 527H620V558H651V527Z" fill="black"/>
<path d="M682 527H651V558H682V527Z" fill="black"/>
<path d="M744 527H713V558H744V527Z" fill="black"/>
<path d="M806 527H775V558H806V527Z" fill="black"/>
<path d="M837 527H806V558H837V527Z" fill="black"/>
<path d="M930 527H899V558H930V527Z" fill="black"/>
<path d="M961 527H930V558H961V527Z" fill="black"/>
<path d="M1023 527H992V558H1023V527Z" fill="black"/>
<path d="M155 558H124V589H155V558Z" fill="black"/>
<path d="M217 558H186V589H217V558Z" fill="black"/>
<path d="M248 558H217V589H248V558Z" fill="black"/>
<path d="M310 558H279V589H310V558Z" fill="black"/>
<path d="M341 558H310V589H341V558Z" fill="black"/>
<path d="M372 558H341V589H372V558Z" fill="black"/>
<path d="M496 558H465V589H496V558Z" fill="black"/>
<path d="M620 558H589V589H620V558Z" fill="black"/>
<path d="M651 558H620V589H651V558Z" fill="black"/>
<path d="M682 558H651V589H682V558Z" fill="black"/>
<path d="M744 558H713V589H744V558Z" fill="black"/>
<path d="M868 558H837V589H868V558Z" fill="black"/>
<path d="M930 558H899V589H930V558Z" fill="black"/>
<path d="M961 558H930V589H961V558Z" fill="black"/>
<path d="M1023 558H992V589H1023V558Z" fill="black"/>
<path d="M186 589H155V620H186V589Z" fill="black"/>
<path d="M248 589H217V620H248V589Z" fill="black"/>
<path d="M279 589H248V620H279V589Z" fill="black"/>
<path d="M310 589H279V620H310V589Z" fill="black"/>
<path d="M372 589H341V620H372V589Z" fill="black"/>
<path d="M403 589H372V620H403V589Z" fill="black"/>
<path d="M434 589H403V620H434V589Z" fill="black"/>
<path d="M465 589H434V620H465V589Z" fill="black"/>
<path d="M496 589H465V620H496V589Z" fill="black"/>
<path d="M527 589H496V620H527V589Z" fill="black"/>
<path d="M558 589H527V620H558V589Z" fill="black"/>
<path d="M589 589H558V620H589V589Z" fill="black"/>
<path d="M651 589H620V620H651V589Z" fill="black"/>
<path d="M713 589H682V620H713V589Z" fill="black"/>
<path d="M806 589H775V620H806V589Z" fill="black"/>
<path d="M837 589H806V620H837V589Z" fill="black"/>
<path d="M899 589H868V620H899V589Z" fill="black"/>
<path d="M930 589H899V620H930V589Z" fill="black"/>
<path d="M961 589H930V620H961V589Z" fill="black"/>
<path d="M992 589H961V620H992V589Z" fill="black"/>
<path d="M31 620H0V651H31V620Z" fill="black"/>
<path d="M124 620H93V651H124V620Z" fill="black"/>
<path d="M217 620H186V651H217V620Z" fill="black"/>
<path d="M248 620H217V651H248V620Z" fill="black"/>
<path d="M310 620H279V651H310V620Z" fill="black"/>
<path d="M434 620H403V651H434V620Z" fill="black"/>
<path d="M465 620H434V651H465V620Z" fill="black"/>
<path d="M527 620H496V651H527V620Z" fill="black"/>
<path d="M620 620H589V651H620V620Z" fill="black"/>
<path d="M713 620H682V651H713V620Z" fill="black"/>
<path d="M744 620H713V651H744V620Z" fill="black"/>
<path d="M806 620H775V651H806V620Z" fill="black"/>
<path d="M899 620H868V651H899V620Z" fill="black"/>
<path d="M930 620H899V651H930V620Z" fill="black"/>
<path d="M992 620H961V651H992V620Z" fill="black"/>
<path d="M31 651H0V682H31V651Z" fill="black"/>
<path d="M124 651H93V682H124V651Z" fill="black"/>
<path d="M155 651H124V682H155V651Z" fill="black"/>
<path d="M186 651H155V682H186V651Z" fill="black"/>
<path d="M279 651H248V682H279V651Z" fill="black"/>
<path d="M310 651H279V682H310V651Z" fill="black"/>
<path d="M527 651H496V682H527V651Z" fill="black"/>
<path d="M558 651H527V682H558V651Z" fill="black"/>
<path d="M589 651H558V682H589V651Z" fill="black"/>
<path d="M620 651H589V682H620V651Z" fill="black"/>
<path d="M682 651H651V682H682V651Z" fill="black"/>
<path d="M713 651H682V682H713V651Z" fill="black"/>
<path d="M744 651H713V682H744V651Z" fill="black"/>
<path d="M806 651H775V682H806V651Z" fill="black"/>
<path d="M868 651H837V682H868V651Z" fill="black"/>
<path d="M899 651H868V682H899V651Z" fill="black"/>
<path d="M930 651H899V682H930V651Z" fill="black"/>
<path d="M31 682H0V713H31V682Z" fill="black"/>
<path d="M93 682H62V713H93V682Z" fill="black"/>
<path d="M186 682H155V713H186V682Z" fill="black"/>
<path d="M217 682H186V713H217V682Z" fill="black"/>
<path d="M310 682H279V713H310V682Z" fill="black"/>
<path d="M341 682H310V713H341V682Z" fill="black"/>
<path d="M372 682H341V713H372V682Z" fill="black"/>
<path d="M434 682H403V713H434V682Z" fill="black"/>
<path d="M496 682H465V713H496V682Z" fill="black"/>
<path d="M527 682H496V713H527V682Z" fill="black"/>
<path d="M558 682H527V713H558V682Z" fill="black"/>
<path d="M713 682H682V713H713V682Z" fill="black"/>
<path d="M930 682H899V713H930V682Z" fill="black"/>
<path d="M992 682H961V713H992V682Z" fill="black"/>
<path d="M31 713H0V744H31V713Z" fill="black"/>
<path d="M93 713H62V744H93V713Z" fill="black"/>
<path d="M124 713H93V744H124V713Z" fill="black"/>
<path d="M155 713H124V744H155V713Z" fill="black"/>
<path d="M186 713H155V744H186V713Z" fill="black"/>
<path d="M248 713H217V744H248V713Z" fill="black"/>
<path d="M279 713H248V744H279V713Z" fill="black"/>
<path d="M310 713H279V744H310V713Z" fill="black"/>
<path d="M341 713H310V744H341V713Z" fill="black"/>
<path d="M372 713H341V744H372V713Z" fill="black"/>
<path d="M434 713H403V744H434V713Z" fill="black"/>
<path d="M589 713H558V744H589V713Z" fill="black"/>
<path d="M620 713H589V744H620V713Z" fill="black"/>
<path d="M651 713H620V744H651V713Z" fill="black"/>
<path d="M713 713H682V744H713V713Z" fill="black"/>
<path d="M744 713H713V744H744V713Z" fill="black"/>
<path d="M868 713H837V744H868V713Z" fill="black"/>
<path d="M961 713H930V744H961V713Z" fill="black"/>
<path d="M1023 713H992V744H1023V713Z" fill="black"/>
<path d="M31 744H0V775H31V744Z" fill="black"/>
<path d="M62 744H31V775H62V744Z" fill="black"/>
<path d="M186 744H155V775H186V744Z" fill="black"/>
<path d="M217 744H186V775H217V744Z" fill="black"/>
<path d="M310 744H279V775H310V744Z" fill="black"/>
<path d="M372 744H341V775H372V744Z" fill="black"/>
<path d="M403 744H372V775H403V744Z" fill="black"/>
<path d="M434 744H403V775H434V744Z" fill="black"/>
<path d="M465 744H434V775H465V744Z" fill="black"/>
<path d="M496 744H465V775H496V744Z" fill="black"/>
<path d="M527 744H496V775H527V744Z" fill="black"/>
<path d="M651 744H620V775H651V744Z" fill="black"/>
<path d="M775 744H744V775H775V744Z" fill="black"/>
<path d="M806 744H775V775H806V744Z" fill="black"/>
<path d="M837 744H806V775H837V744Z" fill="black"/>
<path d="M868 744H837V775H868V744Z" fill="black"/>
<path d="M899 744H868V775H899V744Z" fill="black"/>
<path d="M1023 744H992V775H1023V744Z" fill="black"/>
<path d="M279 775H248V806H279V775Z" fill="black"/>
<path d="M310 775H279V806H310V775Z" fill="black"/>
<path d="M496 775H465V806H496V775Z" fill="black"/>
<path d="M620 775H589V806H620V775Z" fill="black"/>
<path d="M651 775H620V806H651V775Z" fill="black"/>
<path d="M775 775H744V806H775V775Z" fill="black"/>
<path d="M899 775H868V806H899V775Z" fill="black"/>
<path d="M961 775H930V806H961V775Z" fill="black"/>
<path d="M1023 775H992V806H1023V775Z" fill="black"/>
<path d="M310 806H279V837H310V806Z" fill="black"/>
<path d="M372 806H341V837H372V806Z" fill="black"/>
<path d="M434 806H403V837H434V806Z" fill="black"/>
<path d="M465 806H434V837H465V806Z" fill="black"/>
<path d="M496 806H465V837H496V806Z" fill="black"/>
<path d="M527 806H496V837H527V806Z" fill="black"/>
<path d="M589 806H558V837H589V806Z" fill="black"/>
<path d="M651 806H620V837H651V806Z" fill="black"/>
<path d="M682 806H651V837H682V806Z" fill="black"/>
<path d="M713 806H682V837H713V806Z" fill="black"/>
<path d="M744 806H713V837H744V806Z" fill="black"/>
<path d="M775 806H744V837H775V806Z" fill="black"/>
<path d="M837 806H806V837H837V806Z" fill="black"/>
<path d="M899 806H868V837H899V806Z" fill="black"/>
<path d="M961 806H930V837H961V806Z" fill="black"/>
<path d="M992 806H961V837H992V806Z" fill="black"/>
<path d="M310 837H279V868H310V837Z" fill="black"/>
<path d="M341 837H310V868H341V837Z" fill="black"/>
<path d="M403 837H372V868H403V837Z" fill="black"/>
<path d="M620 837H589V868H620V837Z" fill="black"/>
<path d="M713 837H682V868H713V837Z" fill="black"/>
<path d="M744 837H713V868H744V837Z" fill="black"/>
<path d="M775 837H744V868H775V837Z" fill="black"/>
<path d="M899 837H868V868H899V837Z" fill="black"/>
<path d="M930 837H899V868H930V837Z" fill="black"/>
<path d="M961 837H930V868H961V837Z" fill="black"/>
<path d="M992 837H961V868H992V837Z" fill="black"/>
<path d="M1023 837H992V868H1023V837Z" fill="black"/>
<path d="M310 868H279V899H310V868Z" fill="black"/>
<path d="M341 868H310V899H341V868Z" fill="black"/>
<path d="M496 868H465V899H496V868Z" fill="black"/>
<path d="M589 868H558V899H589V868Z" fill="black"/>
<path d="M620 868H589V899H620V868Z" fill="black"/>
<path d="M713 868H682V899H713V868Z" fill="black"/>
<path d="M775 868H744V899H775V868Z" fill="black"/>
<path d="M806 868H775V899H806V868Z" fill="black"/>
<path d="M837 868H806V899H837V868Z" fill="black"/>
<path d="M868 868H837V899H868V868Z" fill="black"/>
<path d="M899 868H868V899H899V868Z" fill="black"/>
<path d="M930 868H899V899H930V868Z" fill="black"/>
<path d="M992 868H961V899H992V868Z" fill="black"/>
<path d="M1023 868H992V899H1023V868Z" fill="black"/>
<path d="M341 899H310V930H341V899Z" fill="black"/>
<path d="M372 899H341V930H372V899Z" fill="black"/>
<path d="M434 899H403V930H434V899Z" fill="black"/>
<path d="M527 899H496V930H527V899Z" fill="black"/>
<path d="M620 899H589V930H620V899Z" fill="black"/>
<path d="M651 899H620V930H651V899Z" fill="black"/>
<path d="M682 899H651V930H682V899Z" fill="black"/>
<path d="M744 899H713V930H744V899Z" fill="black"/>
<path d="M775 899H744V930H775V899Z" fill="black"/>
<path d="M806 899H775V930H806V899Z" fill="black"/>
<path d="M868 899H837V930H868V899Z" fill="black"/>
<path d="M899 899H868V930H899V899Z" fill="black"/>
<path d="M930 899H899V930H930V899Z" fill="black"/>
<path d="M992 899H961V930H992V899Z" fill="black"/>
<path d="M1023 899H992V930H1023V899Z" fill="black"/>
<path d="M403 930H372V961H403V930Z" fill="black"/>
<path d="M434 930H403V961H434V930Z" fill="black"/>
<path d="M465 930H434V961H465V930Z" fill="black"/>
<path d="M527 930H496V961H527V930Z" fill="black"/>
<path d="M589 930H558V961H589V930Z" fill="black"/>
<path d="M620 930H589V961H620V930Z" fill="black"/>
<path d="M713 930H682V961H713V930Z" fill="black"/>
<path d="M744 930H713V961H744V930Z" fill="black"/>
<path d="M775 930H744V961H775V930Z" fill="black"/>
<path d="M806 930H775V961H806V930Z" fill="black"/>
<path d="M868 930H837V961H868V930Z" fill="black"/>
<path d="M899 930H868V961H899V930Z" fill="black"/>
<path d="M992 930H961V961H992V930Z" fill="black"/>
<path d="M1023 930H992V961H1023V930Z" fill="black"/>
<path d="M310 961H279V992H310V961Z" fill="black"/>
<path d="M496 961H465V992H496V961Z" fill="black"/>
<path d="M527 961H496V992H527V961Z" fill="black"/>
<path d="M589 961H558V992H589V961Z" fill="black"/>
<path d="M620 961H589V992H620V961Z" fill="black"/>
<path d="M651 961H620V992H651V961Z" fill="black"/>
<path d="M713 961H682V992H713V961Z" fill="black"/>
<path d="M868 961H837V992H868V961Z" fill="black"/>
<path d="M899 961H868V992H899V961Z" fill="black"/>
<path d="M930 961H899V992H930V961Z" fill="black"/>
<path d="M961 961H930V992H961V961Z" fill="black"/>
<path d="M279 992H248V1023H279V992Z" fill="black"/>
<path d="M403 992H372V1023H403V992Z" fill="black"/>
<path d="M465 992H434V1023H465V992Z" fill="black"/>
<path d="M527 992H496V1023H527V992Z" fill="black"/>
<path d="M558 992H527V1023H558V992Z" fill="black"/>
<path d="M620 992H589V1023H620V992Z" fill="black"/>
<path d="M713 992H682V1023H713V992Z" fill="black"/>
<path d="M744 992H713V1023H744V992Z" fill="black"/>
<path d="M775 992H744V1023H775V992Z" fill="black"/>
<path d="M806 992H775V1023H806V992Z" fill="black"/>
<path d="M837 992H806V1023H837V992Z" fill="black"/>
<path d="M868 992H837V1023H868V992Z" fill="black"/>
<path d="M930 992H899V1023H930V992Z" fill="black"/>
<path d="M992 992H961V1023H992V992Z" fill="black"/>
<path d="M184.45 0H32.55H0V32.55V184.45V217H32.55H184.45H217V184.45V32.55V0H184.45ZM184.45 184.45H32.55V32.55H184.45V184.45Z" fill="black"/>
<path d="M990.45 0H838.55H806V32.55V184.45V217H838.55H990.45H1023V184.45V32.55V0H990.45ZM990.45 184.45H838.55V32.55H990.45V184.45Z" fill="black"/>
<path d="M184.45 806H32.55H0V838.55V990.45V1023H32.55H184.45H217V990.45V838.55V806H184.45ZM184.45 990.45H32.55V838.55H184.45V990.45Z" fill="black"/>
<path d="M155 62H62V155H155V62Z" fill="black"/>
<path d="M961 62H868V155H961V62Z" fill="black"/>
<path d="M155 868H62V961H155V868Z" fill="black"/>
</svg>
