<svg width="1023" height="1023" viewBox="0 0 1023 1023" fill="none" xmlns="http://www.w3.org/2000/svg">
<path d="M279 0H248V31H279V0Z" fill="black"/>
<path d="M310 0H279V31H310V0Z" fill="black"/>
<path d="M341 0H310V31H341V0Z" fill="black"/>
<path d="M372 0H341V31H372V0Z" fill="black"/>
<path d="M403 0H372V31H403V0Z" fill="black"/>
<path d="M434 0H403V31H434V0Z" fill="black"/>
<path d="M465 0H434V31H465V0Z" fill="black"/>
<path d="M527 0H496V31H527V0Z" fill="black"/>
<path d="M589 0H558V31H589V0Z" fill="black"/>
<path d="M620 0H589V31H620V0Z" fill="black"/>
<path d="M651 0H620V31H651V0Z" fill="black"/>
<path d="M682 0H651V31H682V0Z" fill="black"/>
<path d="M713 0H682V31H713V0Z" fill="black"/>
<path d="M744 0H713V31H744V0Z" fill="black"/>
<path d="M279 31H248V62H279V31Z" fill="black"/>
<path d="M403 31H372V62H403V31Z" fill="black"/>
<path d="M434 31H403V62H434V31Z" fill="black"/>
<path d="M527 31H496V62H527V31Z" fill="black"/>
<path d="M651 31H620V62H651V31Z" fill="black"/>
<path d="M682 31H651V62H682V31Z" fill="black"/>
<path d="M744 31H713V62H744V31Z" fill="black"/>
<path d="M775 31H744V62H775V31Z" fill="black"/>
<path d="M403 62H372V93H403V62Z" fill="black"/>
<path d="M527 62H496V93H527V62Z" fill="black"/>
<path d="M589 62H558V93H589V62Z" fill="black"/>
<path d="M651 62H620V93H651V62Z" fill="black"/>
<path d="M279 93H248V124H279V93Z" fill="black"/>
<path d="M372 93H341V124H372V93Z" fill="black"/>
<path d="M403 93H372V124H403V93Z" fill="black"/>
<path d="M465 93H434V124H465V93Z" fill="black"/>
<path d="M496 93H465V124H496V93Z" fill="black"/>
<path d="M527 93H496V124H527V93Z" fill="black"/>
<path d="M558 93H527V124H558V93Z" fill="black"/>
<path d="M589 93H558V124H589V93Z" fill="black"/>
<path d="M620 93H589V124H620V93Z" fill="black"/>
<path d="M651 93H620V124H651V93Z" fill="black"/>
<path d="M713 93H682V124H713V93Z" fill="black"/>
<path d="M775 93H744V124H775V93Z" fill="black"/>
<path d="M310 124H279V155H310V124Z" fill="black"/>
<path d="M434 124H403V155H434V124Z" fill="black"/>
<path d="M465 124H434V155H465V124Z" fill="black"/>
<path d="M589 124H558V155H589V124Z" fill="black"/>
<path d="M620 124H589V155H620V124Z" fill="black"/>
<path d="M775 124H744V155H775V124Z" fill="black"/>
<path d="M310 155H279V186H310V155Z" fill="black"/>
<path d="M403 155H372V186H403V155Z" fill="black"/>
<path d="M434 155H403V186H434V155Z" fill="black"/>
<path d="M620 155H589V186H620V155Z" fill="black"/>
<path d="M651 155H620V186H651V155Z" fill="black"/>
<path d="M279 186H248V217H279V186Z" fill="black"/>
<path d="M341 186H310V217H341V186Z" fill="black"/>
<path d="M403 186H372V217H403V186Z" fill="black"/>
<path d="M465 186H434V217H465V186Z" fill="black"/>
<path d="M527 186H496V217H527V186Z" fill="black"/>
<path d="M589 186H558V217H589V186Z" fill="black"/>
<path d="M651 186H620V217H651V186Z" fill="black"/>
<path d="M713 186H682V217H713V186Z" fill="black"/>
<path d="M775 186H744V217H775V186Z" fill="black"/>
<path d="M279 217H248V248H279V217Z" fill="black"/>
<path d="M310 217H279V248H310V217Z" fill="black"/>
<path d="M341 217H310V248H341V217Z" fill="black"/>
<path d="M558 217H527V248H558V217Z" fill="black"/>
<path d="M589 217H558V248H589V217Z" fill="black"/>
<path d="M651 217H620V248H651V217Z" fill="black"/>
<path d="M31 248H0V279H31V248Z" fill="black"/>
<path d="M93 248H62V279H93V248Z" fill="black"/>
<path d="M124 248H93V279H124V248Z" fill="black"/>
<path d="M186 248H155V279H186V248Z" fill="black"/>
<path d="M217 248H186V279H217V248Z" fill="black"/>
<path d="M248 248H217V279H248V248Z" fill="black"/>
<path d="M341 248H310V279H341V248Z" fill="black"/>
<path d="M372 248H341V279H372V248Z" fill="black"/>
<path d="M465 248H434V279H465V248Z" fill="black"/>
<path d="M527 248H496V279H527V248Z" fill="black"/>
<path d="M558 248H527V279H558V248Z" fill="black"/>
<path d="M589 248H558V279H589V248Z" fill="black"/>
<path d="M620 248H589V279H620V248Z" fill="black"/>
<path d="M682 248H651V279H682V248Z" fill="black"/>
<path d="M837 248H806V279H837V248Z" fill="black"/>
<path d="M930 248H899V279H930V248Z" fill="black"/>
<path d="M992 248H961V279H992V248Z" fill="black"/>
<path d="M1023 248H992V279H1023V248Z" fill="black"/>
<path d="M124 279H93V310H124V279Z" fill="black"/>
<path d="M279 279H248V310H279V279Z" fill="black"/>
<path d="M310 279H279V310H310V279Z" fill="black"/>
<path d="M403 279H372V310H403V279Z" fill="black"/>
<path d="M527 279H496V310H527V279Z" fill="black"/>
<path d="M558 279H527V310H558V279Z" fill="black"/>
<path d="M620 279H589V310H620V279Z" fill="black"/>
<path d="M651 279H620V310H651V279Z" fill="black"/>
<path d="M682 279H651V310H682V279Z" fill="black"/>
<path d="M713 279H682V310H713V279Z" fill="black"/>
<path d="M744 279H713V310H744V279Z" fill="black"/>
<path d="M837 279H806V310H837V279Z" fill="black"/>
<path d="M868 279H837V310H868V279Z" fill="black"/>
<path d="M930 279H899V310H930V279Z" fill="black"/>
<path d="M961 279H930V310H961V279Z" fill="black"/>
<path d="M992 279H961V310H992V279Z" fill="black"/>
<path d="M1023 279H992V310H1023V279Z" fill="black"/>
<path d="M62 310H31V341H62V310Z" fill="black"/>
<path d="M124 310H93V341H124V310Z" fill="black"/>
<path d="M186 310H155V341H186V310Z" fill="black"/>
<path d="M217 310H186V341H217V310Z" fill="black"/>
<path d="M341 310H310V341H341V310Z" fill="black"/>
<path d="M465 310H434V341H465V310Z" fill="black"/>
<path d="M558 310H527V341H558V310Z" fill="black"/>
<path d="M713 310H682V341H713V310Z" fill="black"/>
<path d="M744 310H713V341H744V310Z" fill="black"/>
<path d="M775 310H744V341H775V310Z" fill="black"/>
<path d="M806 310H775V341H806V310Z" fill="black"/>
<path d="M868 310H837V341H868V310Z" fill="black"/>
<path d="M899 310H868V341H899V310Z" fill="black"/>
<path d="M930 310H899V341H930V310Z" fill="black"/>
<path d="M992 310H961V341H992V310Z" fill="black"/>
<path d="M1023 310H992V341H1023V310Z" fill="black"/>
<path d="M31 341H0V372H31V341Z" fill="black"/>
<path d="M93 341H62V372H93V341Z" fill="black"/>
<path d="M124 341H93V372H124V341Z" fill="black"/>
<path d="M186 341H155V372H186V341Z" fill="black"/>
<path d="M248 341H217V372H248V341Z" fill="black"/>
<path d="M310 341H279V372H310V341Z" fill="black"/>
<path d="M403 341H372V372H403V341Z" fill="black"/>
<path d="M434 341H403V372H434V341Z" fill="black"/>
<path d="M465 341H434V372H465V341Z" fill="black"/>
<path d="M527 341H496V372H527V341Z" fill="black"/>
<path d="M620 341H589V372H620V341Z" fill="black"/>
<path d="M651 341H620V372H651V341Z" fill="black"/>
<path d="M868 341H837V372H868V341Z" fill="black"/>
<path d="M930 341H899V372H930V341Z" fill="black"/>
<path d="M992 341H961V372H992V341Z" fill="black"/>
<path d="M1023 341H992V372H1023V341Z" fill="black"/>
<path d="M93 372H62V403H93V372Z" fill="black"/>
<path d="M155 372H124V403H155V372Z" fill="black"/>
<path d="M217 372H186V403H217V372Z" fill="black"/>
<path d="M310 372H279V403H310V372Z" fill="black"/>
<path d="M496 372H465V403H496V372Z" fill="black"/>
<path d="M589 372H558V403H589V372Z" fill="black"/>
<path d="M744 372H713V403H744V372Z" fill="black"/>
<path d="M806 372H775V403H806V372Z" fill="black"/>
<path d="M868 372H837V403H868V372Z" fill="black"/>
<path d="M899 372H868V403H899V372Z" fill="black"/>
<path d="M930 372H899V403H930V372Z" fill="black"/>
<path d="M992 372H961V403H992V372Z" fill="black"/>
<path d="M1023 372H992V403H1023V372Z" fill="black"/>
<path d="M124 403H93V434H124V403Z" fill="black"/>
<path d="M248 403H217V434H248V403Z" fill="black"/>
<path d="M279 403H248V434H279V403Z" fill="black"/>
<path d="M310 403H279V434H310V403Z" fill="black"/>
<path d="M372 403H341V434H372V403Z" fill="black"/>
<path d="M403 403H372V434H403V403Z" fill="black"/>
<path d="M434 403H403V434H434V403Z" fill="black"/>
<path d="M527 403H496V434H527V403Z" fill="black"/>
<path d="M620 403H589V434H620V403Z" fill="black"/>
<path d="M713 403H682V434H713V403Z" fill="black"/>
<path d="M775 403H744V434H775V403Z" fill="black"/>
<path d="M806 403H775V434H806V403Z" fill="black"/>
<path d="M837 403H806V434H837V403Z" fill="black"/>
<path d="M868 403H837V434H868V403Z" fill="black"/>
<path d="M992 403H961V434H992V403Z" fill="black"/>
<path d="M31 434H0V465H31V434Z" fill="black"/>
<path d="M62 434H31V465H62V434Z" fill="black"/>
<path d="M124 434H93V465H124V434Z" fill="black"/>
<path d="M186 434H155V465H186V434Z" fill="black"/>
<path d="M217 434H186V465H217V434Z" fill="black"/>
<path d="M372 434H341V465H372V434Z" fill="black"/>
<path d="M434 434H403V465H434V434Z" fill="black"/>
<path d="M496 434H465V465H496V434Z" fill="black"/>
<path d="M527 434H496V465H527V434Z" fill="black"/>
<path d="M620 434H589V465H620V434Z" fill="black"/>
<path d="M713 434H682V465H713V434Z" fill="black"/>
<path d="M775 434H744V465H775V434Z" fill="black"/>
<path d="M837 434H806V465H837V434Z" fill="black"/>
<path d="M899 434H868V465H899V434Z" fill="black"/>
<path d="M31 465H0V496H31V465Z" fill="black"/>
<path d="M62 465H31V496H62V465Z" fill="black"/>
<path d="M124 465H93V496H124V465Z" fill="black"/>
<path d="M155 465H124V496H155V465Z" fill="black"/>
<path d="M186 465H155V496H186V465Z" fill="black"/>
<path d="M310 465H279V496H310V465Z" fill="black"/>
<path d="M341 465H310V496H341V465Z" fill="black"/>
<path d="M372 465H341V496H372V465Z" fill="black"/>
<path d="M434 465H403V496H434V465Z" fill="black"/>
<path d="M527 465H496V496H527V465Z" fill="black"/>
<path d="M620 465H589V496H620V465Z" fill="black"/>
<path d="M682 465H651V496H682V465Z" fill="black"/>
<path d="M806 465H775V496H806V465Z" fill="black"/>
<path d="M837 465H806V496H837V465Z" fill="black"/>
<path d="M961 465H930V496H961V465Z" fill="black"/>
<path d="M155 496H124V527H155V496Z" fill="black"/>
<path d="M186 496H155V527H186V496Z" fill="black"/>
<path d="M217 496H186V527H217V496Z" fill="black"/>
<path d="M248 496H217V527H248V496Z" fill="black"/>
<path d="M310 496H279V527H310V496Z" fill="black"/>
<path d="M465 496H434V527H465V496Z" fill="black"/>
<path d="M496 496H465V527H496V496Z" fill="black"/>
<path d="M527 496H496V527H527V496Z" fill="black"/>
<path d="M651 496H620V527H651V496Z" fill="black"/>
<path d="M682 496H651V527H682V496Z" fill="black"/>
<path d="M713 496H682V527H713V496Z" fill="black"/>
<path d="M744 496H713V527H744V496Z" fill="black"/>
<path d="M775 496H744V527H775V496Z" fill="black"/>
<path d="M806 496H775V527H806V496Z" fill="black"/>
<path d="M837 496H806V527H837V496Z" fill="black"/>
<path d="M899 496H868V527H899V496Z" fill="black"/>
<path d="M930 496H899V527H930V496Z" fill="black"/>
<path d="M961 496H930V527H961V496Z" fill="black"/>
<path d="M155 527H124V558H155V527Z" fill="black"/>
<path d="M248 527H217V558H248V527Z" fill="black"/>
<path d="M279 527H248V558H279V527Z" fill="black"/>
<path d="M310 527H279V558H310V527Z" fill="black"/>
<path d="M372 527H341V558H372V527Z" fill="black"/>
<path d="M403 527H372V558H403V527Z" fill="black"/>
<path d="M465 527H434V558H465V527Z" fill="black"/>
<path d="M496 527H465V558H496V527Z" fill="black"/>
<path d="M558 527H527V558H558V527Z" fill="black"/>
<path d="M651 527H620V558H651V527Z" fill="black"/>
<path d="M682 527H651V558H682V527Z" fill="black"/>
<path d="M713 527H682V558H713V527Z" fill="black"/>
<path d="M744 527H713V558H744V527Z" fill="black"/>
<path d="M775 527H744V558H775V527Z" fill="black"/>
<path d="M837 527H806V558H837V527Z" fill="black"/>
<path d="M899 527H868V558H899V527Z" fill="black"/>
<path d="M930 527H899V558H930V527Z" fill="black"/>
<path d="M992 527H961V558H992V527Z" fill="black"/>
<path d="M1023 527H992V558H1023V527Z" fill="black"/>
<path d="M93 558H62V589H93V558Z" fill="black"/>
<path d="M155 558H124V589H155V558Z" fill="black"/>
<path d="M217 558H186V589H217V558Z" fill="black"/>
<path d="M279 558H248V589H279V558Z" fill="black"/>
<path d="M434 558H403V589H434V558Z" fill="black"/>
<path d="M465 558H434V589H465V558Z" fill="black"/>
<path d="M496 558H465V589H496V558Z" fill="black"/>
<path d="M527 558H496V589H527V558Z" fill="black"/>
<path d="M558 558H527V589H558V558Z" fill="black"/>
<path d="M682 558H651V589H682V558Z" fill="black"/>
<path d="M713 558H682V589H713V558Z" fill="black"/>
<path d="M806 558H775V589H806V558Z" fill="black"/>
<path d="M837 558H806V589H837V558Z" fill="black"/>
<path d="M868 558H837V589H868V558Z" fill="black"/>
<path d="M899 558H868V589H899V558Z" fill="black"/>
<path d="M961 558H930V589H961V558Z" fill="black"/>
<path d="M992 558H961V589H992V558Z" fill="black"/>
<path d="M93 589H62V620H93V589Z" fill="black"/>
<path d="M186 589H155V620H186V589Z" fill="black"/>
<path d="M248 589H217V620H248V589Z" fill="black"/>
<path d="M341 589H310V620H341V589Z" fill="black"/>
<path d="M465 589H434V620H465V589Z" fill="black"/>
<path d="M496 589H465V620H496V589Z" fill="black"/>
<path d="M527 589H496V620H527V589Z" fill="black"/>
<path d="M713 589H682V620H713V589Z" fill="black"/>
<path d="M744 589H713V620H744V589Z" fill="black"/>
<path d="M775 589H744V620H775V589Z" fill="black"/>
<path d="M806 589H775V620H806V589Z" fill="black"/>
<path d="M899 589H868V620H899V589Z" fill="black"/>
<path d="M992 589H961V620H992V589Z" fill="black"/>
<path d="M1023 589H992V620H1023V589Z" fill="black"/>
<path d="M31 620H0V651H31V620Z" fill="black"/>
<path d="M62 620H31V651H62V620Z" fill="black"/>
<path d="M155 620H124V651H155V620Z" fill="black"/>
<path d="M186 620H155V651H186V620Z" fill="black"/>
<path d="M217 620H186V651H217V620Z" fill="black"/>
<path d="M279 620H248V651H279V620Z" fill="black"/>
<path d="M403 620H372V651H403V620Z" fill="black"/>
<path d="M434 620H403V651H434V620Z" fill="black"/>
<path d="M465 620H434V651H465V620Z" fill="black"/>
<path d="M496 620H465V651H496V620Z" fill="black"/>
<path d="M589 620H558V651H589V620Z" fill="black"/>
<path d="M682 620H651V651H682V620Z" fill="black"/>
<path d="M744 620H713V651H744V620Z" fill="black"/>
<path d="M775 620H744V651H775V620Z" fill="black"/>
<path d="M868 620H837V651H868V620Z" fill="black"/>
<path d="M930 620H899V651H930V620Z" fill="black"/>
<path d="M961 620H930V651H961V620Z" fill="black"/>
<path d="M31 651H0V682H31V651Z" fill="black"/>
<path d="M186 651H155V682H186V651Z" fill="black"/>
<path d="M372 651H341V682H372V651Z" fill="black"/>
<path d="M403 651H372V682H403V651Z" fill="black"/>
<path d="M496 651H465V682H496V651Z" fill="black"/>
<path d="M558 651H527V682H558V651Z" fill="black"/>
<path d="M589 651H558V682H589V651Z" fill="black"/>
<path d="M620 651H589V682H620V651Z" fill="black"/>
<path d="M651 651H620V682H651V651Z" fill="black"/>
<path d="M744 651H713V682H744V651Z" fill="black"/>
<path d="M806 651H775V682H806V651Z" fill="black"/>
<path d="M837 651H806V682H837V651Z" fill="black"/>
<path d="M930 651H899V682H930V651Z" fill="black"/>
<path d="M1023 651H992V682H1023V651Z" fill="black"/>
<path d="M217 682H186V713H217V682Z" fill="black"/>
<path d="M248 682H217V713H248V682Z" fill="black"/>
<path d="M279 682H248V713H279V682Z" fill="black"/>
<path d="M341 682H310V713H341V682Z" fill="black"/>
<path d="M403 682H372V713H403V682Z" fill="black"/>
<path d="M434 682H403V713H434V682Z" fill="black"/>
<path d="M465 682H434V713H465V682Z" fill="black"/>
<path d="M527 682H496V713H527V682Z" fill="black"/>
<path d="M589 682H558V713H589V682Z" fill="black"/>
<path d="M651 682H620V713H651V682Z" fill="black"/>
<path d="M682 682H651V713H682V682Z" fill="black"/>
<path d="M713 682H682V713H713V682Z" fill="black"/>
<path d="M744 682H713V713H744V682Z" fill="black"/>
<path d="M775 682H744V713H775V682Z" fill="black"/>
<path d="M837 682H806V713H837V682Z" fill="black"/>
<path d="M868 682H837V713H868V682Z" fill="black"/>
<path d="M961 682H930V713H961V682Z" fill="black"/>
<path d="M992 682H961V713H992V682Z" fill="black"/>
<path d="M1023 682H992V713H1023V682Z" fill="black"/>
<path d="M62 713H31V744H62V713Z" fill="black"/>
<path d="M124 713H93V744H124V713Z" fill="black"/>
<path d="M186 713H155V744H186V713Z" fill="black"/>
<path d="M248 713H217V744H248V713Z" fill="black"/>
<path d="M279 713H248V744H279V713Z" fill="black"/>
<path d="M310 713H279V744H310V713Z" fill="black"/>
<path d="M372 713H341V744H372V713Z" fill="black"/>
<path d="M527 713H496V744H527V713Z" fill="black"/>
<path d="M651 713H620V744H651V713Z" fill="black"/>
<path d="M744 713H713V744H744V713Z" fill="black"/>
<path d="M775 713H744V744H775V713Z" fill="black"/>
<path d="M806 713H775V744H806V713Z" fill="black"/>
<path d="M868 713H837V744H868V713Z" fill="black"/>
<path d="M899 713H868V744H899V713Z" fill="black"/>
<path d="M992 713H961V744H992V713Z" fill="black"/>
<path d="M1023 713H992V744H1023V713Z" fill="black"/>
<path d="M31 744H0V775H31V744Z" fill="black"/>
<path d="M93 744H62V775H93V744Z" fill="black"/>
<path d="M155 744H124V775H155V744Z" fill="black"/>
<path d="M217 744H186V775H217V744Z" fill="black"/>
<path d="M248 744H217V775H248V744Z" fill="black"/>
<path d="M279 744H248V775H279V744Z" fill="black"/>
<path d="M310 744H279V775H310V744Z" fill="black"/>
<path d="M341 744H310V775H341V744Z" fill="black"/>
<path d="M372 744H341V775H372V744Z" fill="black"/>
<path d="M403 744H372V775H403V744Z" fill="black"/>
<path d="M496 744H465V775H496V744Z" fill="black"/>
<path d="M558 744H527V775H558V744Z" fill="black"/>
<path d="M620 744H589V775H620V744Z" fill="black"/>
<path d="M713 744H682V775H713V744Z" fill="black"/>
<path d="M744 744H713V775H744V744Z" fill="black"/>
<path d="M775 744H744V775H775V744Z" fill="black"/>
<path d="M806 744H775V775H806V744Z" fill="black"/>
<path d="M837 744H806V775H837V744Z" fill="black"/>
<path d="M868 744H837V775H868V744Z" fill="black"/>
<path d="M899 744H868V775H899V744Z" fill="black"/>
<path d="M930 744H899V775H930V744Z" fill="black"/>
<path d="M992 744H961V775H992V744Z" fill="black"/>
<path d="M279 775H248V806H279V775Z" fill="black"/>
<path d="M372 775H341V806H372V775Z" fill="black"/>
<path d="M403 775H372V806H403V775Z" fill="black"/>
<path d="M465 775H434V806H465V775Z" fill="black"/>
<path d="M496 775H465V806H496V775Z" fill="black"/>
<path d="M558 775H527V806H558V775Z" fill="black"/>
<path d="M589 775H558V806H589V775Z" fill="black"/>
<path d="M620 775H589V806H620V775Z" fill="black"/>
<path d="M744 775H713V806H744V775Z" fill="black"/>
<path d="M775 775H744V806H775V775Z" fill="black"/>
<path d="M899 775H868V806H899V775Z" fill="black"/>
<path d="M930 775H899V806H930V775Z" fill="black"/>
<path d="M279 806H248V837H279V806Z" fill="black"/>
<path d="M310 806H279V837H310V806Z" fill="black"/>
<path d="M341 806H310V837H341V806Z" fill="black"/>
<path d="M372 806H341V837H372V806Z" fill="black"/>
<path d="M403 806H372V837H403V806Z" fill="black"/>
<path d="M465 806H434V837H465V806Z" fill="black"/>
<path d="M620 806H589V837H620V806Z" fill="black"/>
<path d="M651 806H620V837H651V806Z" fill="black"/>
<path d="M744 806H713V837H744V806Z" fill="black"/>
<path d="M775 806H744V837H775V806Z" fill="black"/>
<path d="M837 806H806V837H837V806Z" fill="black"/>
<path d="M899 806H868V837H899V806Z" fill="black"/>
<path d="M279 837H248V868H279V837Z" fill="black"/>
<path d="M310 837H279V868H310V837Z" fill="black"/>
<path d="M341 837H310V868H341V837Z" fill="black"/>
<path d="M403 837H372V868H403V837Z" fill="black"/>
<path d="M434 837H403V868H434V837Z" fill="black"/>
<path d="M496 837H465V868H496V837Z" fill="black"/>
<path d="M527 837H496V868H527V837Z" fill="black"/>
<path d="M620 837H589V868H620V837Z" fill="black"/>
<path d="M651 837H620V868H651V837Z" fill="black"/>
<path d="M682 837H651V868H682V837Z" fill="black"/>
<path d="M744 837H713V868H744V837Z" fill="black"/>
<path d="M775 837H744V868H775V837Z" fill="black"/>
<path d="M899 837H868V868H899V837Z" fill="black"/>
<path d="M930 837H899V868H930V837Z" fill="black"/>
<path d="M961 837H930V868H961V837Z" fill="black"/>
<path d="M992 837H961V868H992V837Z" fill="black"/>
<path d="M310 868H279V899H310V868Z" fill="black"/>
<path d="M372 868H341V899H372V868Z" fill="black"/>
<path d="M434 868H403V899H434V868Z" fill="black"/>
<path d="M465 868H434V899H465V868Z" fill="black"/>
<path d="M558 868H527V899H558V868Z" fill="black"/>
<path d="M620 868H589V899H620V868Z" fill="black"/>
<path d="M651 868H620V899H651V868Z" fill="black"/>
<path d="M682 868H651V899H682V868Z" fill="black"/>
<path d="M713 868H682V899H713V868Z" fill="black"/>
<path d="M744 868H713V899H744V868Z" fill="black"/>
<path d="M775 868H744V899H775V868Z" fill="black"/>
<path d="M806 868H775V899H806V868Z" fill="black"/>
<path d="M837 868H806V899H837V868Z" fill="black"/>
<path d="M868 868H837V899H868V868Z" fill="black"/>
<path d="M899 868H868V899H899V868Z" fill="black"/>
<path d="M961 868H930V899H961V868Z" fill="black"/>
<path d="M992 868H961V899H992V868Z" fill="black"/>
<path d="M279 899H248V930H279V899Z" fill="black"/>
<path d="M403 899H372V930H403V899Z" fill="black"/>
<path d="M589 899H558V930H589V899Z" fill="black"/>
<path d="M651 899H620V930H651V899Z" fill="black"/>
<path d="M682 899H651V930H682V899Z" fill="black"/>
<path d="M713 899H682V930H713V899Z" fill="black"/>
<path d="M744 899H713V930H744V899Z" fill="black"/>
<path d="M868 899H837V930H868V899Z" fill="black"/>
<path d="M930 899H899V930H930V899Z" fill="black"/>
<path d="M961 899H930V930H961V899Z" fill="black"/>
<path d="M1023 899H992V930H1023V899Z" fill="black"/>
<path d="M279 930H248V961H279V930Z" fill="black"/>
<path d="M341 930H310V961H341V930Z" fill="black"/>
<path d="M372 930H341V961H372V930Z" fill="black"/>
<path d="M558 930H527V961H558V930Z" fill="black"/>
<path d="M589 930H558V961H589V930Z" fill="black"/>
<path d="M651 930H620V961H651V930Z" fill="black"/>
<path d="M775 930H744V961H775V930Z" fill="black"/>
<path d="M837 930H806V961H837V930Z" fill="black"/>
<path d="M868 930H837V961H868V930Z" fill="black"/>
<path d="M930 930H899V961H930V930Z" fill="black"/>
<path d="M310 961H279V992H310V961Z" fill="black"/>
<path d="M465 961H434V992H465V961Z" fill="black"/>
<path d="M496 961H465V992H496V961Z" fill="black"/>
<path d="M527 961H496V992H527V961Z" fill="black"/>
<path d="M558 961H527V992H558V961Z" fill="black"/>
<path d="M620 961H589V992H620V961Z" fill="black"/>
<path d="M713 961H682V992H713V961Z" fill="black"/>
<path d="M744 961H713V992H744V961Z" fill="black"/>
<path d="M775 961H744V992H775V961Z" fill="black"/>
<path d="M837 961H806V992H837V961Z" fill="black"/>
<path d="M868 961H837V992H868V961Z" fill="black"/>
<path d="M899 961H868V992H899V961Z" fill="black"/>
<path d="M1023 961H992V992H1023V961Z" fill="black"/>
<path d="M279 992H248V1023H279V992Z" fill="black"/>
<path d="M310 992H279V1023H310V992Z" fill="black"/>
<path d="M341 992H310V1023H341V992Z" fill="black"/>
<path d="M372 992H341V1023H372V992Z" fill="black"/>
<path d="M434 992H403V1023H434V992Z" fill="black"/>
<path d="M465 992H434V1023H465V992Z" fill="black"/>
<path d="M496 992H465V1023H496V992Z" fill="black"/>
<path d="M558 992H527V1023H558V992Z" fill="black"/>
<path d="M589 992H558V1023H589V992Z" fill="black"/>
<path d="M682 992H651V1023H682V992Z" fill="black"/>
<path d="M744 992H713V1023H744V992Z" fill="black"/>
<path d="M837 992H806V1023H837V992Z" fill="black"/>
<path d="M899 992H868V1023H899V992Z" fill="black"/>
<path d="M930 992H899V1023H930V992Z" fill="black"/>
<path d="M961 992H930V1023H961V992Z" fill="black"/>
<path d="M184.45 0H32.55H0V32.55V184.45V217H32.55H184.45H217V184.45V32.55V0H184.45ZM184.45 184.45H32.55V32.55H184.45V184.45Z" fill="black"/>
<path d="M990.45 0H838.55H806V32.55V184.45V217H838.55H990.45H1023V184.45V32.55V0H990.45ZM990.45 184.45H838.55V32.55H990.45V184.45Z" fill="black"/>
<path d="M184.45 806H32.55H0V838.55V990.45V1023H32.55H184.45H217V990.45V838.55V806H184.45ZM184.45 990.45H32.55V838.55H184.45V990.45Z" fill="black"/>
<path d="M155 62H62V155H155V62Z" fill="black"/>
<path d="M961 62H868V155H961V62Z" fill="black"/>
<path d="M155 868H62V961H155V868Z" fill="black"/>
</svg>
